M48
;Layer_Color=9474304
;FILE_FORMAT=4:4
METRIC
;TYPE=PLATED
T1F00S00C0.3000
T2F00S00C0.4000
T3F00S00C0.9000
T4F00S00C1.0000
T5F00S00C1.1000
T6F00S00C1.2000
T8F00S00C2.5000
;TYPE=NON_PLATED
T9F00S00C0.7000
%
T01
X00129152Y00310980
X00318314
T02
X00366432Y00235972
X00372964Y00240520
X00433070Y00238000
X00308430Y00290380
X00300549
X00292668
X00284370
X00276073
X00267776
X00259478
X00231628Y00246868
X00223739
X00215611
X00207498
Y00236962
X00215611Y00237000
X00223739
X00231628Y00237216
X00194621Y00254996
X00187405Y00254742
X00180189
X00172974
X00169615Y00261366
X00176830
X00184046
X00191262
X00145760Y00278646
X00108807Y00278484
X00100171
X00091864
X00080618
X00070618
X00060618
X00027412Y00250283
Y00241976
Y00233340
X00055584Y00207984
X00063451
X00071318
X00079185
Y00190226
X00071318
X00063451
X00055584
Y00136449
X00063451
X00071318
X00079185
Y00119018
X00071318
X00063451
X00055584
X00055472Y00066530
X00063226
X00070981
X00078735
X00078735Y00047780
X00070981
X00063226
X00055472
X00063480Y00039350
X00071234
X00078989
X00126117Y00032746
X00135294
X00144470
X00153647
X00162823
X00172000
X00181140
X00203873Y00066967
X00195156Y00091420
X00175006Y00142631
X00201300Y00186055
T03
X00180524Y00017750
X00200640
T04
X00399666Y00060432
X00425066
Y00085832
Y00111232
X00399666
Y00085832
T05
X00070592Y00023592
X00099092
T06
X00132060Y00018004
X00157968Y00017750
T08
X00410000Y00030000
Y00290000
X00030000
Y00030000
T09
X00406384Y00238000
X00424384
M30
