G04*
G04 #@! TF.GenerationSoftware,Altium Limited,Altium Designer,20.1.8 (145)*
G04*
G04 Layer_Color=16777215*
%FSAX44Y44*%
%MOMM*%
G71*
G04*
G04 #@! TF.SameCoordinates,BC819849-6B9C-4E92-9E7B-26ABC9CEBC8F*
G04*
G04*
G04 #@! TF.FilePolarity,Positive*
G04*
G01*
G75*
%ADD10C,0.2500*%
%ADD11C,0.5000*%
%ADD12C,0.1016*%
%ADD13C,0.1270*%
%ADD14C,0.0127*%
%ADD15C,0.2540*%
%ADD16C,0.2032*%
G36*
X00431953Y00170632D02*
X00424264D01*
Y00179403D01*
X00431953D01*
Y00170632D01*
D02*
G37*
G36*
X00385047Y00304908D02*
X00377358D01*
Y00313679D01*
X00385047D01*
Y00304908D01*
D02*
G37*
G36*
X00015289Y00165448D02*
X00007815D01*
Y00173984D01*
X00015289D01*
Y00165448D01*
D02*
G37*
G36*
X00168871Y00229052D02*
X00161398D01*
Y00237587D01*
X00168871D01*
Y00229052D01*
D02*
G37*
G36*
X00052788Y00077191D02*
X00044234D01*
Y00085726D01*
X00052788D01*
Y00077191D01*
D02*
G37*
G36*
X00173227Y00293904D02*
X00164673D01*
Y00302440D01*
X00173227D01*
Y00293904D01*
D02*
G37*
%LPC*%
G36*
X00428428Y00178386D02*
X00428315D01*
X00428071Y00178377D01*
X00427827Y00178349D01*
X00427611Y00178302D01*
X00427394Y00178246D01*
X00427206Y00178180D01*
X00427018Y00178104D01*
X00426859Y00178020D01*
X00426708Y00177935D01*
X00426567Y00177851D01*
X00426455Y00177766D01*
X00426351Y00177691D01*
X00426267Y00177625D01*
X00426201Y00177569D01*
X00426154Y00177522D01*
X00426126Y00177494D01*
X00426116Y00177484D01*
X00425966Y00177306D01*
X00425844Y00177118D01*
X00425731Y00176920D01*
X00425637Y00176714D01*
X00425552Y00176497D01*
X00425487Y00176291D01*
X00425430Y00176084D01*
X00425383Y00175887D01*
X00425346Y00175689D01*
X00425327Y00175520D01*
X00425308Y00175360D01*
X00425289Y00175229D01*
Y00175116D01*
X00425280Y00175031D01*
Y00174956D01*
X00425289Y00174674D01*
X00425317Y00174411D01*
X00425355Y00174157D01*
X00425411Y00173932D01*
X00425468Y00173716D01*
X00425543Y00173509D01*
X00425618Y00173330D01*
X00425693Y00173171D01*
X00425769Y00173020D01*
X00425844Y00172889D01*
X00425919Y00172785D01*
X00425975Y00172691D01*
X00426032Y00172626D01*
X00426069Y00172569D01*
X00426097Y00172541D01*
X00426107Y00172532D01*
X00426267Y00172372D01*
X00426436Y00172240D01*
X00426614Y00172118D01*
X00426793Y00172024D01*
X00426971Y00171940D01*
X00427150Y00171864D01*
X00427319Y00171808D01*
X00427479Y00171761D01*
X00427639Y00171723D01*
X00427780Y00171695D01*
X00427911Y00171676D01*
X00428015Y00171667D01*
X00428109Y00171658D01*
X00428174Y00171648D01*
X00428231D01*
X00428428Y00171658D01*
X00428607Y00171667D01*
X00428785Y00171695D01*
X00428945Y00171733D01*
X00429095Y00171770D01*
X00429236Y00171808D01*
X00429368Y00171855D01*
X00429490Y00171911D01*
X00429594Y00171958D01*
X00429688Y00172005D01*
X00429772Y00172043D01*
X00429838Y00172080D01*
X00429894Y00172118D01*
X00429932Y00172146D01*
X00429951Y00172156D01*
X00429960Y00172165D01*
X00430082Y00172268D01*
X00430195Y00172381D01*
X00430402Y00172635D01*
X00430571Y00172898D01*
X00430702Y00173152D01*
X00430759Y00173274D01*
X00430806Y00173387D01*
X00430843Y00173490D01*
X00430881Y00173575D01*
X00430909Y00173650D01*
X00430928Y00173706D01*
X00430937Y00173744D01*
Y00173753D01*
X00429659Y00174148D01*
X00429584Y00173894D01*
X00429500Y00173678D01*
X00429415Y00173500D01*
X00429321Y00173349D01*
X00429246Y00173236D01*
X00429180Y00173161D01*
X00429133Y00173114D01*
X00429114Y00173095D01*
X00428964Y00172983D01*
X00428813Y00172908D01*
X00428663Y00172851D01*
X00428531Y00172804D01*
X00428409Y00172785D01*
X00428306Y00172776D01*
X00428268Y00172766D01*
X00428221D01*
X00428090Y00172776D01*
X00427968Y00172785D01*
X00427742Y00172851D01*
X00427545Y00172926D01*
X00427385Y00173030D01*
X00427253Y00173124D01*
X00427159Y00173199D01*
X00427122Y00173236D01*
X00427094Y00173265D01*
X00427084Y00173274D01*
X00427075Y00173283D01*
X00427000Y00173387D01*
X00426934Y00173509D01*
X00426868Y00173640D01*
X00426821Y00173782D01*
X00426746Y00174073D01*
X00426689Y00174364D01*
X00426671Y00174505D01*
X00426661Y00174627D01*
X00426642Y00174750D01*
Y00174853D01*
X00426633Y00174928D01*
Y00174994D01*
Y00175041D01*
Y00175050D01*
X00426642Y00175266D01*
X00426652Y00175464D01*
X00426671Y00175642D01*
X00426699Y00175811D01*
X00426736Y00175962D01*
X00426774Y00176103D01*
X00426812Y00176225D01*
X00426859Y00176338D01*
X00426896Y00176432D01*
X00426934Y00176516D01*
X00426971Y00176582D01*
X00427009Y00176639D01*
X00427037Y00176685D01*
X00427056Y00176714D01*
X00427075Y00176732D01*
Y00176742D01*
X00427159Y00176836D01*
X00427253Y00176920D01*
X00427347Y00176986D01*
X00427451Y00177043D01*
X00427648Y00177137D01*
X00427836Y00177202D01*
X00427996Y00177240D01*
X00428071Y00177249D01*
X00428127Y00177259D01*
X00428184Y00177268D01*
X00428250D01*
X00428438Y00177259D01*
X00428607Y00177221D01*
X00428757Y00177174D01*
X00428889Y00177118D01*
X00428992Y00177061D01*
X00429067Y00177014D01*
X00429114Y00176977D01*
X00429133Y00176967D01*
X00429255Y00176855D01*
X00429368Y00176723D01*
X00429453Y00176591D01*
X00429518Y00176460D01*
X00429565Y00176347D01*
X00429594Y00176262D01*
X00429612Y00176225D01*
Y00176197D01*
X00429622Y00176187D01*
Y00176178D01*
X00430919Y00176488D01*
X00430825Y00176761D01*
X00430721Y00176996D01*
X00430608Y00177202D01*
X00430505Y00177372D01*
X00430402Y00177503D01*
X00430364Y00177560D01*
X00430326Y00177607D01*
X00430298Y00177635D01*
X00430270Y00177663D01*
X00430261Y00177682D01*
X00430251D01*
X00430110Y00177804D01*
X00429951Y00177917D01*
X00429800Y00178011D01*
X00429641Y00178086D01*
X00429471Y00178161D01*
X00429311Y00178217D01*
X00429152Y00178264D01*
X00429001Y00178302D01*
X00428860Y00178330D01*
X00428729Y00178349D01*
X00428616Y00178368D01*
X00428513Y00178377D01*
X00428428Y00178386D01*
D02*
G37*
G36*
X00381522Y00312663D02*
X00381409D01*
X00381165Y00312653D01*
X00380921Y00312625D01*
X00380705Y00312578D01*
X00380489Y00312522D01*
X00380300Y00312456D01*
X00380112Y00312381D01*
X00379953Y00312296D01*
X00379802Y00312212D01*
X00379661Y00312127D01*
X00379549Y00312042D01*
X00379445Y00311967D01*
X00379361Y00311901D01*
X00379295Y00311845D01*
X00379248Y00311798D01*
X00379220Y00311770D01*
X00379210Y00311761D01*
X00379060Y00311582D01*
X00378938Y00311394D01*
X00378825Y00311197D01*
X00378731Y00310990D01*
X00378647Y00310774D01*
X00378581Y00310567D01*
X00378524Y00310360D01*
X00378477Y00310163D01*
X00378440Y00309965D01*
X00378421Y00309796D01*
X00378402Y00309636D01*
X00378383Y00309505D01*
Y00309392D01*
X00378374Y00309308D01*
Y00309232D01*
X00378383Y00308951D01*
X00378411Y00308687D01*
X00378449Y00308434D01*
X00378506Y00308208D01*
X00378562Y00307992D01*
X00378637Y00307785D01*
X00378712Y00307607D01*
X00378787Y00307447D01*
X00378863Y00307296D01*
X00378938Y00307165D01*
X00379013Y00307062D01*
X00379069Y00306968D01*
X00379126Y00306902D01*
X00379163Y00306845D01*
X00379192Y00306817D01*
X00379201Y00306808D01*
X00379361Y00306648D01*
X00379530Y00306516D01*
X00379708Y00306394D01*
X00379887Y00306300D01*
X00380066Y00306216D01*
X00380244Y00306140D01*
X00380413Y00306084D01*
X00380573Y00306037D01*
X00380733Y00306000D01*
X00380874Y00305971D01*
X00381005Y00305952D01*
X00381109Y00305943D01*
X00381203Y00305934D01*
X00381269Y00305924D01*
X00381325D01*
X00381522Y00305934D01*
X00381701Y00305943D01*
X00381879Y00305971D01*
X00382039Y00306009D01*
X00382189Y00306047D01*
X00382331Y00306084D01*
X00382462Y00306131D01*
X00382584Y00306187D01*
X00382688Y00306234D01*
X00382782Y00306281D01*
X00382866Y00306319D01*
X00382932Y00306357D01*
X00382988Y00306394D01*
X00383026Y00306422D01*
X00383045Y00306432D01*
X00383054Y00306441D01*
X00383176Y00306545D01*
X00383289Y00306657D01*
X00383496Y00306911D01*
X00383665Y00307174D01*
X00383797Y00307428D01*
X00383853Y00307550D01*
X00383900Y00307663D01*
X00383937Y00307766D01*
X00383975Y00307851D01*
X00384003Y00307926D01*
X00384022Y00307983D01*
X00384031Y00308020D01*
Y00308029D01*
X00382753Y00308424D01*
X00382678Y00308170D01*
X00382594Y00307954D01*
X00382509Y00307776D01*
X00382415Y00307625D01*
X00382340Y00307513D01*
X00382274Y00307437D01*
X00382227Y00307390D01*
X00382208Y00307372D01*
X00382058Y00307259D01*
X00381908Y00307184D01*
X00381757Y00307127D01*
X00381626Y00307080D01*
X00381503Y00307062D01*
X00381400Y00307052D01*
X00381362Y00307043D01*
X00381315D01*
X00381184Y00307052D01*
X00381062Y00307062D01*
X00380836Y00307127D01*
X00380639Y00307202D01*
X00380479Y00307306D01*
X00380348Y00307400D01*
X00380253Y00307475D01*
X00380216Y00307513D01*
X00380188Y00307541D01*
X00380178Y00307550D01*
X00380169Y00307560D01*
X00380094Y00307663D01*
X00380028Y00307785D01*
X00379962Y00307917D01*
X00379915Y00308058D01*
X00379840Y00308349D01*
X00379784Y00308640D01*
X00379765Y00308781D01*
X00379755Y00308904D01*
X00379737Y00309026D01*
Y00309129D01*
X00379727Y00309204D01*
Y00309270D01*
Y00309317D01*
Y00309326D01*
X00379737Y00309543D01*
X00379746Y00309740D01*
X00379765Y00309918D01*
X00379793Y00310088D01*
X00379831Y00310238D01*
X00379868Y00310379D01*
X00379906Y00310501D01*
X00379953Y00310614D01*
X00379990Y00310708D01*
X00380028Y00310793D01*
X00380066Y00310858D01*
X00380103Y00310915D01*
X00380131Y00310962D01*
X00380150Y00310990D01*
X00380169Y00311009D01*
Y00311018D01*
X00380253Y00311112D01*
X00380348Y00311197D01*
X00380442Y00311262D01*
X00380545Y00311319D01*
X00380742Y00311413D01*
X00380930Y00311479D01*
X00381090Y00311516D01*
X00381165Y00311525D01*
X00381222Y00311535D01*
X00381278Y00311544D01*
X00381344D01*
X00381532Y00311535D01*
X00381701Y00311497D01*
X00381851Y00311450D01*
X00381983Y00311394D01*
X00382086Y00311338D01*
X00382161Y00311291D01*
X00382208Y00311253D01*
X00382227Y00311244D01*
X00382349Y00311131D01*
X00382462Y00310999D01*
X00382547Y00310868D01*
X00382612Y00310736D01*
X00382659Y00310623D01*
X00382688Y00310539D01*
X00382706Y00310501D01*
Y00310473D01*
X00382716Y00310464D01*
Y00310454D01*
X00384013Y00310764D01*
X00383919Y00311037D01*
X00383815Y00311272D01*
X00383703Y00311479D01*
X00383599Y00311648D01*
X00383496Y00311779D01*
X00383458Y00311836D01*
X00383421Y00311883D01*
X00383392Y00311911D01*
X00383364Y00311939D01*
X00383355Y00311958D01*
X00383345D01*
X00383204Y00312080D01*
X00383045Y00312193D01*
X00382894Y00312287D01*
X00382735Y00312362D01*
X00382565Y00312437D01*
X00382406Y00312493D01*
X00382246Y00312540D01*
X00382095Y00312578D01*
X00381955Y00312606D01*
X00381823Y00312625D01*
X00381710Y00312644D01*
X00381607Y00312653D01*
X00381522Y00312663D01*
D02*
G37*
G36*
X00011688Y00172968D02*
X00008831D01*
Y00166465D01*
X00011651D01*
X00011810Y00166474D01*
X00012092D01*
X00012205Y00166483D01*
X00012384D01*
X00012449Y00166493D01*
X00012543D01*
X00012581Y00166502D01*
X00012618D01*
X00012807Y00166530D01*
X00012976Y00166577D01*
X00013126Y00166624D01*
X00013258Y00166681D01*
X00013361Y00166728D01*
X00013436Y00166775D01*
X00013483Y00166803D01*
X00013502Y00166812D01*
X00013634Y00166916D01*
X00013737Y00167028D01*
X00013840Y00167132D01*
X00013915Y00167244D01*
X00013981Y00167339D01*
X00014028Y00167414D01*
X00014056Y00167461D01*
X00014066Y00167479D01*
X00014132Y00167639D01*
X00014188Y00167790D01*
X00014226Y00167940D01*
X00014244Y00168072D01*
X00014263Y00168184D01*
X00014273Y00168269D01*
Y00168344D01*
X00014263Y00168551D01*
X00014226Y00168739D01*
X00014169Y00168899D01*
X00014113Y00169049D01*
X00014056Y00169162D01*
X00014000Y00169246D01*
X00013962Y00169303D01*
X00013953Y00169321D01*
X00013822Y00169472D01*
X00013680Y00169594D01*
X00013521Y00169697D01*
X00013380Y00169773D01*
X00013248Y00169838D01*
X00013135Y00169885D01*
X00013098Y00169895D01*
X00013070Y00169904D01*
X00013051Y00169914D01*
X00013041D01*
X00013192Y00169998D01*
X00013323Y00170083D01*
X00013436Y00170186D01*
X00013530Y00170271D01*
X00013596Y00170355D01*
X00013652Y00170421D01*
X00013690Y00170468D01*
X00013699Y00170487D01*
X00013784Y00170637D01*
X00013850Y00170778D01*
X00013887Y00170919D01*
X00013925Y00171051D01*
X00013944Y00171164D01*
X00013953Y00171248D01*
Y00171304D01*
Y00171314D01*
Y00171323D01*
X00013944Y00171474D01*
X00013925Y00171624D01*
X00013887Y00171746D01*
X00013850Y00171859D01*
X00013812Y00171953D01*
X00013774Y00172028D01*
X00013756Y00172066D01*
X00013746Y00172085D01*
X00013671Y00172207D01*
X00013586Y00172310D01*
X00013502Y00172404D01*
X00013427Y00172489D01*
X00013352Y00172545D01*
X00013295Y00172592D01*
X00013258Y00172620D01*
X00013248Y00172630D01*
X00013135Y00172705D01*
X00013013Y00172761D01*
X00012901Y00172808D01*
X00012797Y00172846D01*
X00012703Y00172874D01*
X00012637Y00172893D01*
X00012590Y00172902D01*
X00012572D01*
X00012412Y00172921D01*
X00012233Y00172940D01*
X00012045Y00172949D01*
X00011857Y00172959D01*
X00011688Y00172968D01*
D02*
G37*
%LPD*%
G36*
X00011557Y00171878D02*
X00011801D01*
X00011857Y00171868D01*
X00011961D01*
X00011998Y00171859D01*
X00012008D01*
X00012120Y00171840D01*
X00012224Y00171812D01*
X00012308Y00171774D01*
X00012384Y00171737D01*
X00012431Y00171699D01*
X00012478Y00171662D01*
X00012496Y00171643D01*
X00012506Y00171633D01*
X00012562Y00171558D01*
X00012600Y00171474D01*
X00012637Y00171399D01*
X00012656Y00171323D01*
X00012665Y00171248D01*
X00012675Y00171192D01*
Y00171154D01*
Y00171145D01*
X00012665Y00171032D01*
X00012647Y00170929D01*
X00012609Y00170844D01*
X00012581Y00170769D01*
X00012543Y00170703D01*
X00012506Y00170665D01*
X00012487Y00170637D01*
X00012478Y00170628D01*
X00012402Y00170562D01*
X00012318Y00170515D01*
X00012233Y00170478D01*
X00012149Y00170449D01*
X00012064Y00170421D01*
X00012008Y00170412D01*
X00011970Y00170402D01*
X00011914D01*
X00011857Y00170393D01*
X00011566D01*
X00011406Y00170383D01*
X00010147D01*
Y00171887D01*
X00011453D01*
X00011557Y00171878D01*
D02*
G37*
G36*
X00011641Y00169293D02*
X00011754Y00169284D01*
X00011867D01*
X00011961Y00169275D01*
X00012045Y00169265D01*
X00012111Y00169256D01*
X00012177Y00169246D01*
X00012224Y00169237D01*
X00012299Y00169228D01*
X00012346Y00169209D01*
X00012355D01*
X00012449Y00169171D01*
X00012534Y00169124D01*
X00012609Y00169077D01*
X00012665Y00169021D01*
X00012713Y00168983D01*
X00012741Y00168946D01*
X00012759Y00168917D01*
X00012769Y00168908D01*
X00012816Y00168823D01*
X00012853Y00168739D01*
X00012882Y00168664D01*
X00012901Y00168579D01*
X00012910Y00168513D01*
X00012919Y00168457D01*
Y00168419D01*
Y00168410D01*
X00012910Y00168288D01*
X00012891Y00168175D01*
X00012863Y00168081D01*
X00012825Y00168006D01*
X00012788Y00167940D01*
X00012759Y00167893D01*
X00012741Y00167865D01*
X00012731Y00167855D01*
X00012656Y00167790D01*
X00012581Y00167733D01*
X00012496Y00167686D01*
X00012421Y00167649D01*
X00012355Y00167630D01*
X00012299Y00167611D01*
X00012261Y00167602D01*
X00012252D01*
X00012214Y00167592D01*
X00012158D01*
X00012036Y00167583D01*
X00011885Y00167574D01*
X00011735D01*
X00011594Y00167564D01*
X00010147D01*
Y00169303D01*
X00011510D01*
X00011641Y00169293D01*
D02*
G37*
%LPC*%
G36*
X00165271Y00236571D02*
X00162414D01*
Y00230068D01*
X00165233D01*
X00165393Y00230077D01*
X00165675D01*
X00165788Y00230086D01*
X00165966D01*
X00166032Y00230096D01*
X00166126D01*
X00166164Y00230105D01*
X00166201D01*
X00166389Y00230133D01*
X00166558Y00230180D01*
X00166709Y00230228D01*
X00166840Y00230284D01*
X00166944Y00230331D01*
X00167019Y00230378D01*
X00167066Y00230406D01*
X00167085Y00230415D01*
X00167216Y00230519D01*
X00167320Y00230632D01*
X00167423Y00230735D01*
X00167498Y00230848D01*
X00167564Y00230942D01*
X00167611Y00231017D01*
X00167639Y00231064D01*
X00167648Y00231083D01*
X00167714Y00231243D01*
X00167771Y00231393D01*
X00167808Y00231543D01*
X00167827Y00231675D01*
X00167846Y00231788D01*
X00167855Y00231872D01*
Y00231947D01*
X00167846Y00232154D01*
X00167808Y00232342D01*
X00167752Y00232502D01*
X00167695Y00232652D01*
X00167639Y00232765D01*
X00167583Y00232850D01*
X00167545Y00232906D01*
X00167536Y00232925D01*
X00167404Y00233075D01*
X00167263Y00233197D01*
X00167103Y00233301D01*
X00166962Y00233376D01*
X00166831Y00233442D01*
X00166718Y00233489D01*
X00166680Y00233498D01*
X00166652Y00233507D01*
X00166633Y00233517D01*
X00166624D01*
X00166774Y00233601D01*
X00166906Y00233686D01*
X00167019Y00233789D01*
X00167113Y00233874D01*
X00167178Y00233958D01*
X00167235Y00234024D01*
X00167272Y00234071D01*
X00167282Y00234090D01*
X00167367Y00234240D01*
X00167432Y00234381D01*
X00167470Y00234522D01*
X00167507Y00234654D01*
X00167526Y00234767D01*
X00167536Y00234851D01*
Y00234908D01*
Y00234917D01*
Y00234926D01*
X00167526Y00235077D01*
X00167507Y00235227D01*
X00167470Y00235349D01*
X00167432Y00235462D01*
X00167395Y00235556D01*
X00167357Y00235631D01*
X00167338Y00235669D01*
X00167329Y00235688D01*
X00167254Y00235810D01*
X00167169Y00235913D01*
X00167085Y00236007D01*
X00167009Y00236092D01*
X00166934Y00236148D01*
X00166878Y00236195D01*
X00166840Y00236223D01*
X00166831Y00236233D01*
X00166718Y00236308D01*
X00166596Y00236364D01*
X00166483Y00236411D01*
X00166380Y00236449D01*
X00166286Y00236477D01*
X00166220Y00236496D01*
X00166173Y00236505D01*
X00166154D01*
X00165994Y00236524D01*
X00165816Y00236543D01*
X00165628Y00236552D01*
X00165440Y00236562D01*
X00165271Y00236571D01*
D02*
G37*
%LPD*%
G36*
X00165139Y00235481D02*
X00165383D01*
X00165440Y00235472D01*
X00165543D01*
X00165581Y00235462D01*
X00165590D01*
X00165703Y00235443D01*
X00165806Y00235415D01*
X00165891Y00235378D01*
X00165966Y00235340D01*
X00166013Y00235302D01*
X00166060Y00235265D01*
X00166079Y00235246D01*
X00166088Y00235237D01*
X00166145Y00235161D01*
X00166182Y00235077D01*
X00166220Y00235002D01*
X00166239Y00234926D01*
X00166248Y00234851D01*
X00166257Y00234795D01*
Y00234757D01*
Y00234748D01*
X00166248Y00234635D01*
X00166229Y00234532D01*
X00166192Y00234447D01*
X00166164Y00234372D01*
X00166126Y00234306D01*
X00166088Y00234269D01*
X00166070Y00234240D01*
X00166060Y00234231D01*
X00165985Y00234165D01*
X00165900Y00234118D01*
X00165816Y00234081D01*
X00165731Y00234053D01*
X00165647Y00234024D01*
X00165590Y00234015D01*
X00165553Y00234006D01*
X00165496D01*
X00165440Y00233996D01*
X00165149D01*
X00164989Y00233987D01*
X00163729D01*
Y00235490D01*
X00165036D01*
X00165139Y00235481D01*
D02*
G37*
G36*
X00165224Y00232896D02*
X00165336Y00232887D01*
X00165449D01*
X00165543Y00232878D01*
X00165628Y00232868D01*
X00165694Y00232859D01*
X00165759Y00232850D01*
X00165806Y00232840D01*
X00165882Y00232831D01*
X00165929Y00232812D01*
X00165938D01*
X00166032Y00232774D01*
X00166117Y00232727D01*
X00166192Y00232680D01*
X00166248Y00232624D01*
X00166295Y00232586D01*
X00166323Y00232549D01*
X00166342Y00232521D01*
X00166352Y00232511D01*
X00166399Y00232427D01*
X00166436Y00232342D01*
X00166464Y00232267D01*
X00166483Y00232182D01*
X00166493Y00232117D01*
X00166502Y00232060D01*
Y00232022D01*
Y00232013D01*
X00166493Y00231891D01*
X00166474Y00231778D01*
X00166446Y00231684D01*
X00166408Y00231609D01*
X00166370Y00231543D01*
X00166342Y00231496D01*
X00166323Y00231468D01*
X00166314Y00231459D01*
X00166239Y00231393D01*
X00166164Y00231336D01*
X00166079Y00231290D01*
X00166004Y00231252D01*
X00165938Y00231233D01*
X00165882Y00231214D01*
X00165844Y00231205D01*
X00165835D01*
X00165797Y00231196D01*
X00165741D01*
X00165618Y00231186D01*
X00165468Y00231177D01*
X00165318D01*
X00165177Y00231167D01*
X00163729D01*
Y00232906D01*
X00165092D01*
X00165224Y00232896D01*
D02*
G37*
%LPC*%
G36*
X00049159Y00084710D02*
X00047768D01*
X00045250Y00078207D01*
X00046641D01*
X00047176Y00079682D01*
X00049789D01*
X00050353Y00078207D01*
X00051772D01*
X00049159Y00084710D01*
D02*
G37*
%LPD*%
G36*
X00049366Y00080782D02*
X00047571D01*
X00048454Y00083197D01*
X00049366Y00080782D01*
D02*
G37*
%LPC*%
G36*
X00169598Y00301424D02*
X00168207D01*
X00165688Y00294921D01*
X00167079D01*
X00167615Y00296396D01*
X00170228D01*
X00170792Y00294921D01*
X00172211D01*
X00169598Y00301424D01*
D02*
G37*
%LPD*%
G36*
X00169805Y00297496D02*
X00168010D01*
X00168893Y00299911D01*
X00169805Y00297496D01*
D02*
G37*
D10*
X00172686Y00088706D02*
G03*
X00172686Y00088706I-00001250J00000000D01*
G01*
X00165010Y00288352D02*
G03*
X00165010Y00288352I-00001250J00000000D01*
G01*
X00066845Y00111138D02*
G03*
X00066845Y00111138I-00001250J00000000D01*
G01*
Y00182411D02*
G03*
X00066845Y00182411I-00001250J00000000D01*
G01*
Y00253683D02*
G03*
X00066845Y00253683I-00001250J00000000D01*
G01*
X00183256Y00186055D02*
G03*
X00183256Y00186055I-00001250J00000000D01*
G01*
D11*
X00319220Y00263926D02*
G03*
X00319220Y00263926I-00001000J00000000D01*
G01*
D12*
X00435000Y00290000D02*
G03*
X00435000Y00290000I-00025000J00000000D01*
G01*
X00167054Y00288192D02*
G03*
X00167054Y00288192I-00001250J00000000D01*
G01*
X00435000Y00030000D02*
G03*
X00435000Y00030000I-00025000J00000000D01*
G01*
X00055000D02*
G03*
X00055000Y00030000I-00025000J00000000D01*
G01*
Y00290000D02*
G03*
X00055000Y00290000I-00025000J00000000D01*
G01*
X00362920Y00295990D02*
X00363936Y00297768D01*
X00365206Y00293958D01*
X00366476Y00297768D01*
X00367746Y00293958D01*
X00368668Y00296031D01*
X00014797Y00173476D02*
X00046293D01*
X00014797Y00151641D02*
Y00173476D01*
X00402218Y00178896D02*
X00424768D01*
Y00152085D02*
Y00178896D01*
X00353442Y00313173D02*
X00377860D01*
Y00278828D02*
Y00313173D01*
X00353442Y00278828D02*
X00377860D01*
X00353442D02*
Y00313173D01*
X00402218Y00152085D02*
Y00178896D01*
Y00152085D02*
X00424768D01*
X00367746Y00282375D02*
X00368668Y00284449D01*
X00366476Y00286185D02*
X00367746Y00282375D01*
X00365206D02*
X00366476Y00286185D01*
X00363936D02*
X00365206Y00282375D01*
X00362920Y00284407D02*
X00363936Y00286185D01*
X00367746Y00305460D02*
X00368668Y00307534D01*
X00366476Y00309270D02*
X00367746Y00305460D01*
X00365206D02*
X00366476Y00309270D01*
X00363936D02*
X00365206Y00305460D01*
X00362920Y00307492D02*
X00363936Y00309270D01*
X00367746Y00270872D02*
X00368668Y00272946D01*
X00366476Y00274682D02*
X00367746Y00270872D01*
X00365206D02*
X00366476Y00274682D01*
X00363936D02*
X00365206Y00270872D01*
X00362920Y00272904D02*
X00363936Y00274682D01*
X00169906Y00090414D02*
X00200906D01*
X00169906Y00113414D02*
X00200906D01*
X00169906Y00090414D02*
Y00113414D01*
X00200906Y00090414D02*
Y00113414D01*
X00027944Y00230441D02*
X00030944D01*
X00027944Y00253941D02*
X00030944D01*
X00319460Y00269536D02*
Y00304536D01*
X00347460Y00269536D02*
Y00304536D01*
X00331936Y00304312D02*
X00334984D01*
X00331936Y00269514D02*
X00334984D01*
X00111734Y00275086D02*
Y00278086D01*
X00088234Y00275086D02*
Y00278086D01*
X00257521Y00287644D02*
Y00290644D01*
X00281021Y00287644D02*
Y00290644D01*
X00082271Y00275086D02*
Y00278086D01*
X00058771Y00275086D02*
Y00278086D01*
X00287024Y00287644D02*
Y00290644D01*
X00310523Y00287644D02*
Y00290644D01*
X00081978Y00255434D02*
X00087727D01*
X00081978Y00188433D02*
Y00255434D01*
Y00188433D02*
X00087727D01*
X00123563Y00284912D02*
X00125341Y00283896D01*
X00121531Y00282626D02*
X00125341Y00283896D01*
X00121531Y00282626D02*
X00125341Y00281356D01*
X00121531Y00280086D02*
X00125341Y00281356D01*
X00121531Y00280086D02*
X00123605Y00279164D01*
X00125641Y00299688D02*
X00126563Y00301762D01*
X00127833Y00297952D01*
X00129103Y00301762D01*
X00130373Y00297952D01*
X00131389Y00299730D01*
X00125801Y00310980D02*
X00127325D01*
X00129865D02*
X00131389D01*
X00116875Y00269784D02*
X00128960D01*
X00116875D02*
Y00316734D01*
X00154912Y00309372D02*
X00155834Y00311446D01*
X00153642Y00313182D02*
X00154912Y00309372D01*
X00152372D02*
X00153642Y00313182D01*
X00151102D02*
X00152372Y00309372D01*
X00150086Y00311404D02*
X00151102Y00313182D01*
X00130260Y00270602D02*
Y00280602D01*
X00161260Y00270602D02*
Y00280602D01*
X00130260Y00270602D02*
X00161260D01*
X00130260Y00280602D02*
X00161260D01*
X00046293Y00151641D02*
Y00173476D01*
X00014797Y00151641D02*
X00046293D01*
X00168364Y00213822D02*
Y00237078D01*
Y00213822D02*
X00202669D01*
Y00237078D01*
X00168364D02*
X00202669D01*
X00044726Y00077691D02*
Y00097522D01*
X00003812D02*
X00044726D01*
X00003812Y00055612D02*
X00014144D01*
X00003812D02*
Y00097522D01*
X00014144Y00055612D02*
Y00077691D01*
X00044726D01*
X00128960Y00294417D02*
X00165101D01*
X00128960Y00269784D02*
Y00294417D01*
X00164750Y00245840D02*
Y00285840D01*
X00191750Y00245840D02*
Y00285840D01*
X00164750Y00245840D02*
X00165492D01*
X00164750Y00285840D02*
X00165492D01*
X00191008Y00245840D02*
X00191750D01*
X00191008Y00285840D02*
X00191750D01*
X00362920Y00249464D02*
X00364444D01*
X00366984D02*
X00368508D01*
X00367492Y00259624D02*
X00368508Y00261402D01*
X00366222Y00263434D02*
X00367492Y00259624D01*
X00364952D02*
X00366222Y00263434D01*
X00363682D02*
X00364952Y00259624D01*
X00362760Y00261360D02*
X00363682Y00263434D01*
X00150086Y00300257D02*
X00151610D01*
X00154150D02*
X00155674D01*
X00190676Y00066712D02*
X00192200D01*
X00186612D02*
X00188136D01*
X00081978Y00112888D02*
X00087727D01*
X00081978Y00045889D02*
Y00112888D01*
Y00045889D02*
X00087727D01*
X00081978Y00117161D02*
X00087727D01*
X00081978D02*
Y00184161D01*
X00087727D01*
X00173228Y00140979D02*
X00175006Y00139963D01*
X00173228Y00140979D02*
X00177038Y00142249D01*
X00173228Y00143519D02*
X00177038Y00142249D01*
X00173228Y00143519D02*
X00177038Y00144789D01*
X00174964Y00145711D02*
X00177038Y00144789D01*
X00194582Y00146959D02*
X00195598Y00148737D01*
X00193312Y00150769D02*
X00194582Y00146959D01*
X00192042D02*
X00193312Y00150769D01*
X00190772D02*
X00192042Y00146959D01*
X00189850Y00148696D02*
X00190772Y00150769D01*
X00183804Y00224110D02*
X00185581Y00223094D01*
X00183804Y00224110D02*
X00187614Y00225380D01*
X00183804Y00226650D02*
X00187614Y00225380D01*
X00183804Y00226650D02*
X00187614Y00227920D01*
X00185540Y00228842D02*
X00187614Y00227920D01*
X00174079Y00228682D02*
X00175857Y00227666D01*
X00172047Y00226396D02*
X00175857Y00227666D01*
X00172047Y00226396D02*
X00175857Y00225126D01*
X00172047Y00223856D02*
X00175857Y00225126D01*
X00172047Y00223856D02*
X00174121Y00222934D01*
X00169506Y00194055D02*
Y00204055D01*
X00178248D01*
X00199506Y00194055D02*
Y00204055D01*
X00190764D02*
X00199506D01*
X00197042Y00228842D02*
X00199116Y00227920D01*
X00195306Y00226650D02*
X00199116Y00227920D01*
X00195306Y00226650D02*
X00199116Y00225380D01*
X00195306Y00224110D02*
X00199116Y00225380D01*
X00195306Y00224110D02*
X00197084Y00223094D01*
X00189832Y00160232D02*
X00190754Y00162306D01*
X00192024Y00158496D01*
X00193294Y00162306D01*
X00194564Y00158496D01*
X00195580Y00160274D01*
X00189832Y00171662D02*
X00190754Y00173736D01*
X00192024Y00169926D01*
X00193294Y00173736D01*
X00194564Y00169926D01*
X00195580Y00171704D01*
X00197526Y00260128D02*
X00250527D01*
X00197526Y00312128D02*
X00250527D01*
X00188906Y00059494D02*
X00194906D01*
X00188906Y00037494D02*
X00194906D01*
X00188906D02*
Y00059494D01*
X00194906Y00037494D02*
Y00059494D01*
X00194836Y00135142D02*
X00195758Y00137216D01*
X00193566Y00138952D02*
X00194836Y00135142D01*
X00192296D02*
X00193566Y00138952D01*
X00191026D02*
X00192296Y00135142D01*
X00190010Y00137174D02*
X00191026Y00138952D01*
X00116875Y00316734D02*
X00165101D01*
Y00294417D02*
Y00316734D01*
X00024883Y00225785D02*
X00023867Y00226800D01*
X00021836D01*
X00020820Y00225785D01*
Y00221722D01*
X00021836Y00220706D01*
X00023867D01*
X00024883Y00221722D01*
X00026914Y00225785D02*
X00027930Y00226800D01*
X00029961D01*
X00030977Y00225785D01*
Y00224769D01*
X00029961Y00223753D01*
X00028945D01*
X00029961D01*
X00030977Y00222738D01*
Y00221722D01*
X00029961Y00220706D01*
X00027930D01*
X00026914Y00221722D01*
X00033008D02*
X00034024Y00220706D01*
X00036055D01*
X00037071Y00221722D01*
Y00225785D01*
X00036055Y00226800D01*
X00034024D01*
X00033008Y00225785D01*
Y00224769D01*
X00034024Y00223753D01*
X00037071D01*
X00009812Y00094344D02*
X00008796Y00095360D01*
X00006765D01*
X00005749Y00094344D01*
Y00090281D01*
X00006765Y00089266D01*
X00008796D01*
X00009812Y00090281D01*
X00014890Y00089266D02*
Y00095360D01*
X00011843Y00092313D01*
X00015906D01*
X00022000Y00089266D02*
X00017937D01*
X00022000Y00093328D01*
Y00094344D01*
X00020984Y00095360D01*
X00018953D01*
X00017937Y00094344D01*
X00295905Y00315259D02*
X00294889Y00316275D01*
X00292858D01*
X00291842Y00315259D01*
Y00311196D01*
X00292858Y00310181D01*
X00294889D01*
X00295905Y00311196D01*
X00300983Y00310181D02*
Y00316275D01*
X00297936Y00313228D01*
X00301999D01*
X00304030Y00310181D02*
X00306061D01*
X00305046D01*
Y00316275D01*
X00304030Y00315259D01*
X00169121Y00136391D02*
X00163027D01*
Y00139438D01*
X00164043Y00140454D01*
X00166074D01*
X00167090Y00139438D01*
Y00136391D01*
Y00138423D02*
X00169121Y00140454D01*
Y00142486D02*
Y00144517D01*
Y00143501D01*
X00163027D01*
X00164043Y00142486D01*
X00169121Y00150611D02*
X00163027D01*
X00166074Y00147564D01*
Y00151627D01*
X00162119Y00162465D02*
Y00168559D01*
X00165166D01*
X00166182Y00167543D01*
Y00165512D01*
X00165166Y00164496D01*
X00162119D01*
X00164151D02*
X00166182Y00162465D01*
X00168213D02*
X00170245D01*
X00169229D01*
Y00168559D01*
X00168213Y00167543D01*
X00173292D02*
X00174307Y00168559D01*
X00176339D01*
X00177355Y00167543D01*
Y00166527D01*
X00176339Y00165512D01*
X00175323D01*
X00176339D01*
X00177355Y00164496D01*
Y00163480D01*
X00176339Y00162465D01*
X00174307D01*
X00173292Y00163480D01*
X00033643Y00155299D02*
X00027549D01*
Y00158346D01*
X00028564Y00159361D01*
X00030596D01*
X00031611Y00158346D01*
Y00155299D01*
Y00157330D02*
X00033643Y00159361D01*
Y00161393D02*
Y00163424D01*
Y00162408D01*
X00027549D01*
X00028564Y00161393D01*
X00033643Y00170534D02*
Y00166471D01*
X00029580Y00170534D01*
X00028564D01*
X00027549Y00169518D01*
Y00167487D01*
X00028564Y00166471D01*
X00024065Y00155386D02*
X00017971D01*
Y00158433D01*
X00018987Y00159448D01*
X00021018D01*
X00022034Y00158433D01*
Y00155386D01*
Y00157417D02*
X00024065Y00159448D01*
Y00161480D02*
Y00163511D01*
Y00162495D01*
X00017971D01*
X00018987Y00161480D01*
X00024065Y00166558D02*
Y00168589D01*
Y00167574D01*
X00017971D01*
X00018987Y00166558D01*
X00165660Y00206643D02*
Y00210705D01*
X00164644Y00211721D01*
X00162613D01*
X00161597Y00210705D01*
Y00206643D01*
X00162613Y00205627D01*
X00164644D01*
X00163628Y00207658D02*
X00165660Y00205627D01*
X00164644D02*
X00165660Y00206643D01*
X00170738Y00205627D02*
Y00211721D01*
X00167691Y00208674D01*
X00171754D01*
X00062483Y00222758D02*
Y00226820D01*
X00061467Y00227836D01*
X00059436D01*
X00058420Y00226820D01*
Y00222758D01*
X00059436Y00221742D01*
X00061467D01*
X00060451Y00223773D02*
X00062483Y00221742D01*
X00061467D02*
X00062483Y00222758D01*
X00064514Y00226820D02*
X00065530Y00227836D01*
X00067561D01*
X00068577Y00226820D01*
Y00225805D01*
X00067561Y00224789D01*
X00066545D01*
X00067561D01*
X00068577Y00223773D01*
Y00222758D01*
X00067561Y00221742D01*
X00065530D01*
X00064514Y00222758D01*
X00060939Y00149078D02*
Y00153140D01*
X00059923Y00154156D01*
X00057892D01*
X00056876Y00153140D01*
Y00149078D01*
X00057892Y00148062D01*
X00059923D01*
X00058907Y00150093D02*
X00060939Y00148062D01*
X00059923D02*
X00060939Y00149078D01*
X00067033Y00148062D02*
X00062970D01*
X00067033Y00152125D01*
Y00153140D01*
X00066017Y00154156D01*
X00063986D01*
X00062970Y00153140D01*
X00063313Y00078266D02*
Y00082328D01*
X00062297Y00083344D01*
X00060266D01*
X00059250Y00082328D01*
Y00078266D01*
X00060266Y00077250D01*
X00062297D01*
X00061281Y00079281D02*
X00063313Y00077250D01*
X00062297D02*
X00063313Y00078266D01*
X00065344Y00077250D02*
X00067375D01*
X00066360D01*
Y00083344D01*
X00065344Y00082328D01*
X00168977Y00057853D02*
Y00052775D01*
X00169992Y00051759D01*
X00172024D01*
X00173039Y00052775D01*
Y00057853D01*
X00175071Y00051759D02*
X00177102D01*
X00176086D01*
Y00057853D01*
X00175071Y00056838D01*
X00402886Y00210239D02*
X00401870Y00211255D01*
X00399839D01*
X00398823Y00210239D01*
Y00209223D01*
X00399839Y00208208D01*
X00401870D01*
X00402886Y00207192D01*
Y00206176D01*
X00401870Y00205161D01*
X00399839D01*
X00398823Y00206176D01*
X00404917Y00204145D02*
X00408980D01*
X00415074Y00211255D02*
X00411011D01*
Y00208208D01*
X00413043D01*
X00411011D01*
Y00205161D01*
X00417105Y00211255D02*
Y00206176D01*
X00418121Y00205161D01*
X00420152D01*
X00421168Y00206176D01*
Y00211255D01*
X00423199Y00205161D02*
Y00211255D01*
X00427262Y00205161D01*
Y00211255D01*
X00429293Y00205161D02*
X00431325D01*
X00430309D01*
Y00211255D01*
X00429293Y00210239D01*
X00042995Y00155348D02*
X00036901D01*
Y00158395D01*
X00037916Y00159411D01*
X00039948D01*
X00040963Y00158395D01*
Y00155348D01*
Y00157380D02*
X00042995Y00159411D01*
X00036901Y00165505D02*
Y00161442D01*
X00039948D01*
X00038932Y00163473D01*
Y00164489D01*
X00039948Y00165505D01*
X00041979D01*
X00042995Y00164489D01*
Y00162458D01*
X00041979Y00161442D01*
X00162203Y00170238D02*
Y00176332D01*
X00165250D01*
X00166266Y00175316D01*
Y00173284D01*
X00165250Y00172269D01*
X00162203D01*
X00164234D02*
X00166266Y00170238D01*
X00168297Y00175316D02*
X00169313Y00176332D01*
X00171344D01*
X00172360Y00175316D01*
Y00174300D01*
X00171344Y00173284D01*
X00170328D01*
X00171344D01*
X00172360Y00172269D01*
Y00171253D01*
X00171344Y00170238D01*
X00169313D01*
X00168297Y00171253D01*
X00162169Y00178152D02*
Y00184246D01*
X00165215D01*
X00166231Y00183230D01*
Y00181199D01*
X00165215Y00180183D01*
X00162169D01*
X00164200D02*
X00166231Y00178152D01*
X00171310D02*
Y00184246D01*
X00168263Y00181199D01*
X00172325D01*
X00377619Y00269517D02*
Y00275611D01*
X00380666D01*
X00381682Y00274595D01*
Y00272564D01*
X00380666Y00271548D01*
X00377619D01*
X00379650D02*
X00381682Y00269517D01*
X00383713D02*
X00385744D01*
X00384729D01*
Y00275611D01*
X00383713Y00274595D01*
X00377723Y00258287D02*
Y00264381D01*
X00380770D01*
X00381786Y00263365D01*
Y00261334D01*
X00380770Y00260318D01*
X00377723D01*
X00379754D02*
X00381786Y00258287D01*
X00387880D02*
X00383817D01*
X00387880Y00262350D01*
Y00263365D01*
X00386864Y00264381D01*
X00384833D01*
X00383817Y00263365D01*
X00408181Y00154062D02*
Y00160156D01*
X00411228D01*
X00412243Y00159141D01*
Y00157109D01*
X00411228Y00156094D01*
X00408181D01*
X00410212D02*
X00412243Y00154062D01*
X00414275Y00159141D02*
X00415290Y00160156D01*
X00417322D01*
X00418337Y00159141D01*
Y00158125D01*
X00417322Y00157109D01*
X00418337Y00156094D01*
Y00155078D01*
X00417322Y00154062D01*
X00415290D01*
X00414275Y00155078D01*
Y00156094D01*
X00415290Y00157109D01*
X00414275Y00158125D01*
Y00159141D01*
X00415290Y00157109D02*
X00417322D01*
X00408328Y00170470D02*
Y00176564D01*
X00411375D01*
X00412391Y00175548D01*
Y00173517D01*
X00411375Y00172501D01*
X00408328D01*
X00410359D02*
X00412391Y00170470D01*
X00414422Y00176564D02*
X00418484D01*
Y00175548D01*
X00414422Y00171485D01*
Y00170470D01*
X00408328Y00162266D02*
Y00168360D01*
X00411375D01*
X00412391Y00167344D01*
Y00165313D01*
X00411375Y00164297D01*
X00408328D01*
X00410359D02*
X00412391Y00162266D01*
X00418484Y00168360D02*
X00416453Y00167344D01*
X00414422Y00165313D01*
Y00163282D01*
X00415438Y00162266D01*
X00417469D01*
X00418484Y00163282D01*
Y00164297D01*
X00417469Y00165313D01*
X00414422D01*
X00324136Y00315801D02*
Y00309707D01*
X00328199D01*
X00334293Y00315801D02*
X00330230D01*
Y00309707D01*
X00334293D01*
X00330230Y00312754D02*
X00332262D01*
X00336324Y00315801D02*
Y00309707D01*
X00339371D01*
X00340387Y00310723D01*
Y00314786D01*
X00339371Y00315801D01*
X00336324D01*
X00342418Y00309707D02*
X00344450D01*
X00343434D01*
Y00315801D01*
X00342418Y00314786D01*
X00409176Y00069321D02*
X00408160Y00068305D01*
Y00066274D01*
X00409176Y00065258D01*
X00413238D01*
X00414254Y00066274D01*
Y00068305D01*
X00413238Y00069321D01*
X00408160Y00074399D02*
Y00072368D01*
X00409176Y00071352D01*
X00413238D01*
X00414254Y00072368D01*
Y00074399D01*
X00413238Y00075415D01*
X00409176D01*
X00408160Y00074399D01*
X00414254Y00077446D02*
X00408160D01*
X00414254Y00081509D01*
X00408160D01*
X00415270Y00083540D02*
Y00087603D01*
X00408160Y00089634D02*
X00414254D01*
Y00092681D01*
X00413238Y00093697D01*
X00409176D01*
X00408160Y00092681D01*
Y00089634D01*
Y00095728D02*
X00414254D01*
Y00098775D01*
X00413238Y00099791D01*
X00412223D01*
X00411207Y00098775D01*
Y00095728D01*
Y00098775D01*
X00410191Y00099791D01*
X00409176D01*
X00408160Y00098775D01*
Y00095728D01*
X00409176Y00105885D02*
X00408160Y00104869D01*
Y00102838D01*
X00409176Y00101822D01*
X00413238D01*
X00414254Y00102838D01*
Y00104869D01*
X00413238Y00105885D01*
X00411207D01*
Y00103854D01*
X00414254Y00107916D02*
Y00109948D01*
Y00108932D01*
X00408160D01*
X00409176Y00107916D01*
X00078465Y00009630D02*
X00077449Y00010646D01*
X00075418D01*
X00074402Y00009630D01*
Y00005568D01*
X00075418Y00004552D01*
X00077449D01*
X00078465Y00005568D01*
X00083543Y00010646D02*
X00081512D01*
X00080496Y00009630D01*
Y00005568D01*
X00081512Y00004552D01*
X00083543D01*
X00084559Y00005568D01*
Y00009630D01*
X00083543Y00010646D01*
X00086590Y00004552D02*
Y00010646D01*
X00090653Y00004552D01*
Y00010646D01*
X00092684Y00004552D02*
X00094715D01*
X00093700D01*
Y00010646D01*
X00092684Y00009630D01*
X00382278Y00251807D02*
X00381263Y00252822D01*
X00379231D01*
X00378216Y00251807D01*
Y00247744D01*
X00379231Y00246728D01*
X00381263D01*
X00382278Y00247744D01*
X00388372Y00246728D02*
X00384310D01*
X00388372Y00250791D01*
Y00251807D01*
X00387357Y00252822D01*
X00385325D01*
X00384310Y00251807D01*
X00172801Y00068660D02*
X00171786Y00069676D01*
X00169754D01*
X00168739Y00068660D01*
Y00064597D01*
X00169754Y00063582D01*
X00171786D01*
X00172801Y00064597D01*
X00174833Y00063582D02*
X00176864D01*
X00175848D01*
Y00069676D01*
X00174833Y00068660D01*
X00114028Y00011155D02*
X00113012Y00010139D01*
Y00008108D01*
X00114028Y00007092D01*
X00118090D01*
X00119106Y00008108D01*
Y00010139D01*
X00118090Y00011155D01*
X00113012Y00016233D02*
Y00014202D01*
X00114028Y00013186D01*
X00118090D01*
X00119106Y00014202D01*
Y00016233D01*
X00118090Y00017249D01*
X00114028D01*
X00113012Y00016233D01*
X00119106Y00019280D02*
X00113012D01*
X00119106Y00023343D01*
X00113012D01*
X00119106Y00029437D02*
Y00025374D01*
X00115043Y00029437D01*
X00114028D01*
X00113012Y00028421D01*
Y00026390D01*
X00114028Y00025374D01*
X00029801Y00085156D02*
X00028785Y00086171D01*
X00026754D01*
X00025738Y00085156D01*
Y00081093D01*
X00026754Y00080077D01*
X00028785D01*
X00029801Y00081093D01*
X00031832Y00085156D02*
X00032848Y00086171D01*
X00034879D01*
X00035895Y00085156D01*
Y00084140D01*
X00034879Y00083124D01*
X00033864D01*
X00034879D01*
X00035895Y00082109D01*
Y00081093D01*
X00034879Y00080077D01*
X00032848D01*
X00031832Y00081093D01*
X00037926Y00085156D02*
X00038942Y00086171D01*
X00040973D01*
X00041989Y00085156D01*
Y00084140D01*
X00040973Y00083124D01*
X00039958D01*
X00040973D01*
X00041989Y00082109D01*
Y00081093D01*
X00040973Y00080077D01*
X00038942D01*
X00037926Y00081093D01*
X00068552Y00302357D02*
X00067536Y00303372D01*
X00065505D01*
X00064489Y00302357D01*
Y00298294D01*
X00065505Y00297278D01*
X00067536D01*
X00068552Y00298294D01*
X00070583Y00302357D02*
X00071599Y00303372D01*
X00073630D01*
X00074646Y00302357D01*
Y00301341D01*
X00073630Y00300326D01*
X00072614D01*
X00073630D01*
X00074646Y00299310D01*
Y00298294D01*
X00073630Y00297278D01*
X00071599D01*
X00070583Y00298294D01*
X00076677Y00303372D02*
X00080740D01*
Y00302357D01*
X00076677Y00298294D01*
Y00297278D01*
X00265221Y00315130D02*
X00264206Y00316146D01*
X00262174D01*
X00261159Y00315130D01*
Y00311067D01*
X00262174Y00310052D01*
X00264206D01*
X00265221Y00311067D01*
X00270300Y00310052D02*
Y00316146D01*
X00267253Y00313099D01*
X00271315D01*
X00273347Y00315130D02*
X00274362Y00316146D01*
X00276394D01*
X00277409Y00315130D01*
Y00311067D01*
X00276394Y00310052D01*
X00274362D01*
X00273347Y00311067D01*
Y00315130D01*
X00154999Y00258381D02*
Y00252286D01*
X00158046D01*
X00159061Y00253302D01*
Y00257365D01*
X00158046Y00258381D01*
X00154999D01*
X00161092Y00252286D02*
X00163124D01*
X00162108D01*
Y00258381D01*
X00161092Y00257365D01*
X00220578Y00258532D02*
Y00252438D01*
X00224641D01*
X00230735D02*
X00226672D01*
X00230735Y00256501D01*
Y00257516D01*
X00229719Y00258532D01*
X00227688D01*
X00226672Y00257516D01*
X00005997Y00079960D02*
Y00086054D01*
X00009044D01*
X00010060Y00085038D01*
Y00083007D01*
X00009044Y00081991D01*
X00005997D01*
X00008028D02*
X00010060Y00079960D01*
X00016154D02*
X00012091D01*
X00016154Y00084023D01*
Y00085038D01*
X00015138Y00086054D01*
X00013107D01*
X00012091Y00085038D01*
X00018185Y00080976D02*
X00019201Y00079960D01*
X00021232D01*
X00022248Y00080976D01*
Y00085038D01*
X00021232Y00086054D01*
X00019201D01*
X00018185Y00085038D01*
Y00084023D01*
X00019201Y00083007D01*
X00022248D01*
X00012087Y00058410D02*
X00005993D01*
Y00061457D01*
X00007009Y00062473D01*
X00009040D01*
X00010056Y00061457D01*
Y00058410D01*
Y00060441D02*
X00012087Y00062473D01*
X00007009Y00064504D02*
X00005993Y00065520D01*
Y00067551D01*
X00007009Y00068567D01*
X00008025D01*
X00009040Y00067551D01*
Y00066535D01*
Y00067551D01*
X00010056Y00068567D01*
X00011072D01*
X00012087Y00067551D01*
Y00065520D01*
X00011072Y00064504D01*
X00007009Y00070598D02*
X00005993Y00071614D01*
Y00073645D01*
X00007009Y00074661D01*
X00011072D01*
X00012087Y00073645D01*
Y00071614D01*
X00011072Y00070598D01*
X00007009D01*
X00027479Y00089069D02*
Y00095163D01*
X00030526D01*
X00031541Y00094148D01*
Y00092116D01*
X00030526Y00091101D01*
X00027479D01*
X00029510D02*
X00031541Y00089069D01*
X00033573Y00094148D02*
X00034588Y00095163D01*
X00036620D01*
X00037635Y00094148D01*
Y00093132D01*
X00036620Y00092116D01*
X00035604D01*
X00036620D01*
X00037635Y00091101D01*
Y00090085D01*
X00036620Y00089069D01*
X00034588D01*
X00033573Y00090085D01*
X00039667Y00089069D02*
X00041698D01*
X00040682D01*
Y00095163D01*
X00039667Y00094148D01*
X00120385Y00266339D02*
Y00261261D01*
X00121401Y00260245D01*
X00123432D01*
X00124448Y00261261D01*
Y00266339D01*
X00126479Y00265324D02*
X00127495Y00266339D01*
X00129526D01*
X00130542Y00265324D01*
Y00264308D01*
X00129526Y00263292D01*
X00128511D01*
X00129526D01*
X00130542Y00262277D01*
Y00261261D01*
X00129526Y00260245D01*
X00127495D01*
X00126479Y00261261D01*
X00162026Y00154395D02*
Y00160489D01*
X00165073D01*
X00166089Y00159473D01*
Y00157442D01*
X00165073Y00156426D01*
X00162026D01*
X00164057D02*
X00166089Y00154395D01*
X00172183D02*
X00168120D01*
X00172183Y00158458D01*
Y00159473D01*
X00171167Y00160489D01*
X00169136D01*
X00168120Y00159473D01*
X00174214D02*
X00175230Y00160489D01*
X00177261D01*
X00178277Y00159473D01*
Y00158458D01*
X00177261Y00157442D01*
X00176245D01*
X00177261D01*
X00178277Y00156426D01*
Y00155411D01*
X00177261Y00154395D01*
X00175230D01*
X00174214Y00155411D01*
X00161618Y00126097D02*
Y00121019D01*
X00162634Y00120003D01*
X00164665D01*
X00165681Y00121019D01*
Y00126097D01*
X00171775Y00120003D02*
X00167712D01*
X00171775Y00124066D01*
Y00125082D01*
X00170759Y00126097D01*
X00168728D01*
X00167712Y00125082D01*
X00092203Y00302357D02*
X00091187Y00303372D01*
X00089155D01*
X00088140Y00302357D01*
Y00298294D01*
X00089155Y00297278D01*
X00091187D01*
X00092203Y00298294D01*
X00094234Y00302357D02*
X00095250Y00303372D01*
X00097281D01*
X00098296Y00302357D01*
Y00301341D01*
X00097281Y00300326D01*
X00096265D01*
X00097281D01*
X00098296Y00299310D01*
Y00298294D01*
X00097281Y00297278D01*
X00095250D01*
X00094234Y00298294D01*
X00100328Y00302357D02*
X00101343Y00303372D01*
X00103375D01*
X00104390Y00302357D01*
Y00301341D01*
X00103375Y00300326D01*
X00104390Y00299310D01*
Y00298294D01*
X00103375Y00297278D01*
X00101343D01*
X00100328Y00298294D01*
Y00299310D01*
X00101343Y00300326D01*
X00100328Y00301341D01*
Y00302357D01*
X00101343Y00300326D02*
X00103375D01*
X00030066Y00263318D02*
X00034128D01*
X00032097D01*
Y00257224D01*
X00036160D02*
Y00263318D01*
X00039207D01*
X00040223Y00262302D01*
Y00260271D01*
X00039207Y00259256D01*
X00036160D01*
X00042254Y00257224D02*
X00044285D01*
X00043270D01*
Y00263318D01*
X00042254Y00262302D01*
X00273940Y00266374D02*
X00278003D01*
X00275972D01*
Y00260280D01*
X00280034D02*
Y00266374D01*
X00283081D01*
X00284097Y00265358D01*
Y00263327D01*
X00283081Y00262311D01*
X00280034D01*
X00290191Y00260280D02*
X00286128D01*
X00290191Y00264343D01*
Y00265358D01*
X00289175Y00266374D01*
X00287144D01*
X00286128Y00265358D01*
X00176972Y00313597D02*
X00181035D01*
X00179003D01*
Y00307503D01*
X00183066D02*
Y00313597D01*
X00186113D01*
X00187129Y00312581D01*
Y00310550D01*
X00186113Y00309534D01*
X00183066D01*
X00189160Y00312581D02*
X00190176Y00313597D01*
X00192207D01*
X00193223Y00312581D01*
Y00311566D01*
X00192207Y00310550D01*
X00191192D01*
X00192207D01*
X00193223Y00309534D01*
Y00308519D01*
X00192207Y00307503D01*
X00190176D01*
X00189160Y00308519D01*
X00098775Y00316670D02*
X00102837D01*
X00100806D01*
Y00310576D01*
X00104869D02*
Y00316670D01*
X00107916D01*
X00108931Y00315655D01*
Y00313624D01*
X00107916Y00312608D01*
X00104869D01*
X00114010Y00310576D02*
Y00316670D01*
X00110963Y00313624D01*
X00115025D01*
X00148570Y00044428D02*
X00152633D01*
X00150601D01*
Y00038334D01*
X00154664D02*
Y00044428D01*
X00157711D01*
X00158727Y00043412D01*
Y00041381D01*
X00157711Y00040365D01*
X00154664D01*
X00164821Y00044428D02*
X00162789Y00043412D01*
X00160758Y00041381D01*
Y00039350D01*
X00161774Y00038334D01*
X00163805D01*
X00164821Y00039350D01*
Y00040365D01*
X00163805Y00041381D01*
X00160758D01*
X00114284Y00043859D02*
X00118347D01*
X00116315D01*
Y00037765D01*
X00120378D02*
Y00043859D01*
X00123425D01*
X00124441Y00042843D01*
Y00040812D01*
X00123425Y00039797D01*
X00120378D01*
X00126472Y00043859D02*
X00130535D01*
Y00042843D01*
X00126472Y00038781D01*
Y00037765D01*
X00196984Y00257709D02*
X00201047D01*
X00199016D01*
Y00251615D01*
X00203078D02*
Y00257709D01*
X00206125D01*
X00207141Y00256693D01*
Y00254662D01*
X00206125Y00253646D01*
X00203078D01*
X00209172Y00256693D02*
X00210188Y00257709D01*
X00212219D01*
X00213235Y00256693D01*
Y00255677D01*
X00212219Y00254662D01*
X00213235Y00253646D01*
Y00252630D01*
X00212219Y00251615D01*
X00210188D01*
X00209172Y00252630D01*
Y00253646D01*
X00210188Y00254662D01*
X00209172Y00255677D01*
Y00256693D01*
X00210188Y00254662D02*
X00212219D01*
D13*
X00127325Y00307170D02*
Y00314790D01*
X00129865Y00307170D02*
Y00314790D01*
X00364444Y00245654D02*
Y00253274D01*
X00366984Y00245654D02*
Y00253274D01*
X00151610Y00296446D02*
Y00304067D01*
X00154150Y00296446D02*
Y00304067D01*
X00190676Y00062902D02*
Y00070522D01*
X00188136Y00062902D02*
Y00070522D01*
D14*
X00268250Y00049471D02*
X00315240D01*
X00267234Y00049344D02*
X00316129D01*
X00266726Y00049217D02*
X00316764D01*
X00266218Y00049090D02*
X00317272D01*
X00265837Y00048963D02*
X00317653D01*
X00265456Y00048836D02*
X00318034D01*
X00265075Y00048709D02*
X00318415D01*
X00264821Y00048582D02*
X00318669D01*
X00264567Y00048455D02*
X00318923D01*
X00264313Y00048328D02*
X00267996D01*
X00295047D02*
X00319177D01*
X00264059Y00048201D02*
X00267107D01*
X00294920D02*
X00319431D01*
X00263805Y00048074D02*
X00266472D01*
X00294666D02*
X00319685D01*
X00263551Y00047947D02*
X00266091D01*
X00294539D02*
X00319939D01*
X00263297Y00047820D02*
X00265710D01*
X00294412D02*
X00320193D01*
X00263170Y00047693D02*
X00265329D01*
X00294285D02*
X00320320D01*
X00262916Y00047566D02*
X00265075D01*
X00294158D02*
X00320574D01*
X00262789Y00047439D02*
X00264821D01*
X00294031D02*
X00320701D01*
X00262662Y00047312D02*
X00264567D01*
X00293904D02*
X00320955D01*
X00262408Y00047185D02*
X00264313D01*
X00293777D02*
X00321082D01*
X00262281Y00047058D02*
X00264059D01*
X00293650D02*
X00321209D01*
X00262154Y00046931D02*
X00263805D01*
X00293523D02*
X00321336D01*
X00262027Y00046804D02*
X00263678D01*
X00293396D02*
X00321463D01*
X00261773Y00046677D02*
X00263424D01*
X00293269D02*
X00321717D01*
X00261646Y00046550D02*
X00263297D01*
X00293142D02*
X00321844D01*
X00261519Y00046423D02*
X00263170D01*
X00293142D02*
X00321971D01*
X00261392Y00046296D02*
X00262916D01*
X00293015D02*
X00322098D01*
X00261265Y00046169D02*
X00262789D01*
X00292888D02*
X00322225D01*
X00261138Y00046042D02*
X00262662D01*
X00292761D02*
X00322352D01*
X00261011Y00045915D02*
X00262535D01*
X00292634D02*
X00322479D01*
X00260884Y00045788D02*
X00262408D01*
X00292634D02*
X00322606D01*
X00260757Y00045661D02*
X00262154D01*
X00292507D02*
X00322733D01*
X00260757Y00045534D02*
X00262027D01*
X00292380D02*
X00322860D01*
X00260630Y00045407D02*
X00261900D01*
X00292380D02*
X00322860D01*
X00260503Y00045280D02*
X00261773D01*
X00292253D02*
X00322987D01*
X00260376Y00045153D02*
X00261773D01*
X00292126D02*
X00323114D01*
X00260249Y00045026D02*
X00261646D01*
X00292126D02*
X00323241D01*
X00260249Y00044899D02*
X00261519D01*
X00291999D02*
X00323241D01*
X00260122Y00044772D02*
X00261392D01*
X00291872D02*
X00323368D01*
X00259995Y00044645D02*
X00261265D01*
X00291872D02*
X00323495D01*
X00259868Y00044518D02*
X00261138D01*
X00291745D02*
X00323622D01*
X00259868Y00044391D02*
X00261138D01*
X00291745D02*
X00323622D01*
X00259741Y00044264D02*
X00261011D01*
X00291618D02*
X00323749D01*
X00259614Y00044137D02*
X00260884D01*
X00291618D02*
X00323876D01*
X00259614Y00044010D02*
X00260757D01*
X00291491D02*
X00323876D01*
X00259487Y00043883D02*
X00260757D01*
X00291491D02*
X00324003D01*
X00259487Y00043756D02*
X00260630D01*
X00291364D02*
X00324003D01*
X00259360Y00043629D02*
X00260503D01*
X00291364D02*
X00324130D01*
X00259360Y00043502D02*
X00260503D01*
X00291237D02*
X00324257D01*
X00259233Y00043375D02*
X00260376D01*
X00291237D02*
X00324257D01*
X00259233Y00043248D02*
X00260376D01*
X00291237D02*
X00324384D01*
X00259106Y00043121D02*
X00260249D01*
X00291110D02*
X00324384D01*
X00259106Y00042994D02*
X00260249D01*
X00291110D02*
X00324511D01*
X00258979Y00042867D02*
X00260122D01*
X00290983D02*
X00324511D01*
X00258979Y00042740D02*
X00260122D01*
X00290983D02*
X00324511D01*
X00258852Y00042613D02*
X00259995D01*
X00290983D02*
X00324638D01*
X00258852Y00042486D02*
X00259995D01*
X00290856D02*
X00324638D01*
X00258725Y00042359D02*
X00259868D01*
X00267869D02*
X00267996D01*
X00268377D02*
X00270409D01*
X00270663D02*
X00270917D01*
X00281585D02*
X00284760D01*
X00290856D02*
X00294793D01*
X00297968D02*
X00303937D01*
X00305969D02*
X00306223D01*
X00306350D02*
X00306477D01*
X00306731D02*
X00313081D01*
X00315113D02*
X00315240D01*
X00315494D02*
X00324765D01*
X00258725Y00042232D02*
X00259868D01*
X00267869D02*
X00271171D01*
X00281585D02*
X00285014D01*
X00290856D02*
X00294793D01*
X00298095D02*
X00303937D01*
X00306731D02*
X00312827D01*
X00315621D02*
X00324765D01*
X00258725Y00042105D02*
X00259741D01*
X00267869D02*
X00271171D01*
X00281585D02*
X00285014D01*
X00290729D02*
X00294793D01*
X00298095D02*
X00303810D01*
X00306731D02*
X00312827D01*
X00315621D02*
X00324765D01*
X00258598Y00041978D02*
X00259741D01*
X00267869D02*
X00271171D01*
X00281585D02*
X00285014D01*
X00290729D02*
X00294793D01*
X00298095D02*
X00303810D01*
X00306858D02*
X00312827D01*
X00315621D02*
X00324892D01*
X00258598Y00041851D02*
X00259741D01*
X00267869D02*
X00271171D01*
X00281585D02*
X00285014D01*
X00290729D02*
X00294793D01*
X00297968D02*
X00303810D01*
X00306858D02*
X00312700D01*
X00315748D02*
X00324892D01*
X00258598Y00041724D02*
X00259614D01*
X00267869D02*
X00271171D01*
X00281585D02*
X00285014D01*
X00290729D02*
X00294793D01*
X00297968D02*
X00303810D01*
X00306858D02*
X00312700D01*
X00315748D02*
X00325019D01*
X00258471Y00041597D02*
X00259614D01*
X00267869D02*
X00271171D01*
X00281585D02*
X00285014D01*
X00290602D02*
X00294793D01*
X00298095D02*
X00303683D01*
X00306985D02*
X00312700D01*
X00315748D02*
X00325019D01*
X00258471Y00041470D02*
X00259614D01*
X00267869D02*
X00271171D01*
X00281585D02*
X00285014D01*
X00290602D02*
X00294793D01*
X00298095D02*
X00303683D01*
X00306985D02*
X00312573D01*
X00315748D02*
X00325019D01*
X00258471Y00041343D02*
X00259487D01*
X00267869D02*
X00271171D01*
X00281585D02*
X00285014D01*
X00290602D02*
X00294793D01*
X00298095D02*
X00303683D01*
X00306985D02*
X00312573D01*
X00315875D02*
X00325019D01*
X00258344Y00041216D02*
X00259487D01*
X00267869D02*
X00271171D01*
X00281585D02*
X00285014D01*
X00290602D02*
X00294793D01*
X00298095D02*
X00303683D01*
X00306985D02*
X00312573D01*
X00315875D02*
X00325146D01*
X00258344Y00041089D02*
X00259487D01*
X00267869D02*
X00271171D01*
X00281585D02*
X00285014D01*
X00290475D02*
X00294793D01*
X00298095D02*
X00303556D01*
X00307112D02*
X00312573D01*
X00315875D02*
X00325146D01*
X00258344Y00040962D02*
X00259360D01*
X00267869D02*
X00271171D01*
X00281585D02*
X00285014D01*
X00290475D02*
X00294793D01*
X00298095D02*
X00303556D01*
X00307112D02*
X00312446D01*
X00316002D02*
X00325146D01*
X00258344Y00040835D02*
X00259360D01*
X00267869D02*
X00271171D01*
X00281585D02*
X00285014D01*
X00290475D02*
X00294793D01*
X00298095D02*
X00303556D01*
X00307112D02*
X00312446D01*
X00316002D02*
X00325273D01*
X00258217Y00040708D02*
X00259360D01*
X00267869D02*
X00271171D01*
X00281585D02*
X00285014D01*
X00290475D02*
X00294793D01*
X00298095D02*
X00303429D01*
X00307239D02*
X00312446D01*
X00316002D02*
X00325273D01*
X00258217Y00040581D02*
X00259360D01*
X00267869D02*
X00271171D01*
X00281585D02*
X00285014D01*
X00290475D02*
X00294793D01*
X00298095D02*
X00303429D01*
X00307239D02*
X00312319D01*
X00316002D02*
X00325273D01*
X00258217Y00040454D02*
X00259233D01*
X00267869D02*
X00271171D01*
X00281585D02*
X00285014D01*
X00290348D02*
X00294793D01*
X00298095D02*
X00303429D01*
X00307239D02*
X00312319D01*
X00316129D02*
X00325273D01*
X00258217Y00040327D02*
X00259233D01*
X00267869D02*
X00271171D01*
X00281585D02*
X00285014D01*
X00290348D02*
X00294793D01*
X00298095D02*
X00303429D01*
X00307239D02*
X00312319D01*
X00316129D02*
X00325273D01*
X00258217Y00040200D02*
X00259233D01*
X00267869D02*
X00271171D01*
X00281585D02*
X00285014D01*
X00290348D02*
X00294793D01*
X00298095D02*
X00303302D01*
X00307366D02*
X00312319D01*
X00316129D02*
X00325400D01*
X00258090Y00040073D02*
X00259233D01*
X00267869D02*
X00271171D01*
X00281585D02*
X00285014D01*
X00290348D02*
X00294793D01*
X00298095D02*
X00303302D01*
X00307366D02*
X00312192D01*
X00316129D02*
X00325400D01*
X00258090Y00039946D02*
X00259233D01*
X00267869D02*
X00271171D01*
X00281585D02*
X00285014D01*
X00290348D02*
X00294793D01*
X00298095D02*
X00303302D01*
X00307366D02*
X00312192D01*
X00316256D02*
X00325400D01*
X00258090Y00039819D02*
X00259106D01*
X00267869D02*
X00271171D01*
X00281585D02*
X00285014D01*
X00290348D02*
X00294793D01*
X00298095D02*
X00303302D01*
X00307493D02*
X00312192D01*
X00316256D02*
X00325400D01*
X00258090Y00039692D02*
X00259106D01*
X00267869D02*
X00271171D01*
X00281585D02*
X00285014D01*
X00290348D02*
X00294793D01*
X00298095D02*
X00303175D01*
X00307493D02*
X00312065D01*
X00316256D02*
X00325400D01*
X00258090Y00039565D02*
X00259106D01*
X00267869D02*
X00271171D01*
X00281585D02*
X00285014D01*
X00290348D02*
X00294793D01*
X00298095D02*
X00303175D01*
X00307493D02*
X00312065D01*
X00316256D02*
X00325400D01*
X00258090Y00039438D02*
X00259106D01*
X00267869D02*
X00271171D01*
X00281585D02*
X00285014D01*
X00290221D02*
X00294793D01*
X00298095D02*
X00303175D01*
X00307620D02*
X00312065D01*
X00316383D02*
X00325400D01*
X00257963Y00039311D02*
X00259106D01*
X00267869D02*
X00271171D01*
X00281585D02*
X00285014D01*
X00290221D02*
X00294793D01*
X00298095D02*
X00303175D01*
X00307620D02*
X00312065D01*
X00316383D02*
X00325527D01*
X00257963Y00039184D02*
X00259106D01*
X00267869D02*
X00271171D01*
X00281585D02*
X00285014D01*
X00290221D02*
X00294793D01*
X00298095D02*
X00303048D01*
X00307620D02*
X00311938D01*
X00316383D02*
X00325527D01*
X00257963Y00039057D02*
X00259106D01*
X00267869D02*
X00271171D01*
X00281585D02*
X00285014D01*
X00290221D02*
X00294793D01*
X00298095D02*
X00303048D01*
X00307620D02*
X00311938D01*
X00316510D02*
X00325527D01*
X00257963Y00038930D02*
X00259106D01*
X00267869D02*
X00271171D01*
X00281585D02*
X00285014D01*
X00290221D02*
X00294793D01*
X00298095D02*
X00303048D01*
X00307747D02*
X00311938D01*
X00316510D02*
X00325527D01*
X00257963Y00038803D02*
X00259106D01*
X00267869D02*
X00271171D01*
X00281585D02*
X00285014D01*
X00290221D02*
X00294793D01*
X00298095D02*
X00303048D01*
X00307747D02*
X00311811D01*
X00316510D02*
X00325527D01*
X00257963Y00038676D02*
X00259106D01*
X00267869D02*
X00271171D01*
X00281585D02*
X00285014D01*
X00290221D02*
X00294793D01*
X00298095D02*
X00302921D01*
X00307747D02*
X00311811D01*
X00316510D02*
X00325527D01*
X00257963Y00038549D02*
X00259106D01*
X00267869D02*
X00271171D01*
X00281585D02*
X00285014D01*
X00290221D02*
X00294793D01*
X00298095D02*
X00302921D01*
X00307874D02*
X00311811D01*
X00316637D02*
X00325527D01*
X00257963Y00038422D02*
X00259106D01*
X00267869D02*
X00271171D01*
X00281585D02*
X00285014D01*
X00290221D02*
X00294793D01*
X00298095D02*
X00302921D01*
X00307874D02*
X00311811D01*
X00316637D02*
X00325527D01*
X00257963Y00038295D02*
X00259106D01*
X00267869D02*
X00271171D01*
X00281585D02*
X00285014D01*
X00290221D02*
X00294793D01*
X00298095D02*
X00302794D01*
X00307874D02*
X00311684D01*
X00316637D02*
X00325527D01*
X00257963Y00038168D02*
X00259106D01*
X00267869D02*
X00271171D01*
X00281585D02*
X00285014D01*
X00290221D02*
X00294793D01*
X00298095D02*
X00302794D01*
X00307874D02*
X00311684D01*
X00316637D02*
X00325527D01*
X00257963Y00038041D02*
X00259106D01*
X00267869D02*
X00271171D01*
X00281585D02*
X00285014D01*
X00290221D02*
X00294793D01*
X00298095D02*
X00302794D01*
X00308001D02*
X00311684D01*
X00316764D02*
X00325527D01*
X00257963Y00037914D02*
X00259106D01*
X00267869D02*
X00271171D01*
X00281585D02*
X00285014D01*
X00290221D02*
X00294793D01*
X00298095D02*
X00302794D01*
X00308001D02*
X00311557D01*
X00316764D02*
X00325527D01*
X00257963Y00037787D02*
X00259106D01*
X00267869D02*
X00271171D01*
X00281585D02*
X00285014D01*
X00290221D02*
X00294793D01*
X00298095D02*
X00302667D01*
X00308001D02*
X00311557D01*
X00316764D02*
X00325527D01*
X00257963Y00037660D02*
X00259106D01*
X00267869D02*
X00271171D01*
X00281585D02*
X00285014D01*
X00290221D02*
X00294793D01*
X00298095D02*
X00302667D01*
X00308001D02*
X00311557D01*
X00316764D02*
X00325527D01*
X00257963Y00037533D02*
X00259106D01*
X00267869D02*
X00271171D01*
X00281585D02*
X00285014D01*
X00290221D02*
X00294793D01*
X00298095D02*
X00302667D01*
X00308128D02*
X00311557D01*
X00316891D02*
X00325527D01*
X00257963Y00037406D02*
X00259106D01*
X00267869D02*
X00271171D01*
X00281585D02*
X00285014D01*
X00290221D02*
X00294793D01*
X00298095D02*
X00302667D01*
X00308128D02*
X00311430D01*
X00316891D02*
X00325527D01*
X00257963Y00037279D02*
X00259106D01*
X00267869D02*
X00271171D01*
X00281585D02*
X00285014D01*
X00290221D02*
X00294793D01*
X00298095D02*
X00302540D01*
X00308128D02*
X00311430D01*
X00316891D02*
X00325527D01*
X00257963Y00037152D02*
X00259106D01*
X00267869D02*
X00271171D01*
X00281585D02*
X00285014D01*
X00290221D02*
X00294793D01*
X00298095D02*
X00302540D01*
X00308255D02*
X00311430D01*
X00317018D02*
X00325527D01*
X00257963Y00037025D02*
X00259106D01*
X00267869D02*
X00271171D01*
X00281585D02*
X00285014D01*
X00290221D02*
X00294793D01*
X00298095D02*
X00302540D01*
X00308255D02*
X00311303D01*
X00317018D02*
X00325527D01*
X00257963Y00036898D02*
X00259106D01*
X00267869D02*
X00271171D01*
X00281585D02*
X00285014D01*
X00290221D02*
X00294793D01*
X00298095D02*
X00302540D01*
X00305334D02*
X00305461D01*
X00308255D02*
X00311303D01*
X00317018D02*
X00325527D01*
X00257963Y00036771D02*
X00259106D01*
X00267869D02*
X00271171D01*
X00281585D02*
X00285014D01*
X00290221D02*
X00294793D01*
X00298095D02*
X00302413D01*
X00305334D02*
X00305461D01*
X00308382D02*
X00311303D01*
X00317018D02*
X00325527D01*
X00257963Y00036644D02*
X00259106D01*
X00267869D02*
X00271171D01*
X00281585D02*
X00285014D01*
X00290221D02*
X00294793D01*
X00298095D02*
X00302413D01*
X00305207D02*
X00305461D01*
X00308382D02*
X00311176D01*
X00317145D02*
X00325527D01*
X00257963Y00036517D02*
X00259106D01*
X00267869D02*
X00271171D01*
X00281585D02*
X00285014D01*
X00290221D02*
X00294793D01*
X00298095D02*
X00302413D01*
X00305207D02*
X00305461D01*
X00308382D02*
X00311176D01*
X00313970D02*
X00314097D01*
X00317145D02*
X00325527D01*
X00257963Y00036390D02*
X00259106D01*
X00267869D02*
X00271171D01*
X00281585D02*
X00285014D01*
X00290221D02*
X00294793D01*
X00298095D02*
X00302413D01*
X00305207D02*
X00305588D01*
X00308382D02*
X00311176D01*
X00313970D02*
X00314224D01*
X00317145D02*
X00325527D01*
X00257963Y00036263D02*
X00259106D01*
X00267869D02*
X00271171D01*
X00273965D02*
X00285014D01*
X00290221D02*
X00294793D01*
X00298095D02*
X00302286D01*
X00305207D02*
X00305588D01*
X00308509D02*
X00311176D01*
X00313970D02*
X00314224D01*
X00317145D02*
X00325527D01*
X00257963Y00036136D02*
X00259106D01*
X00267869D02*
X00271171D01*
X00273965D02*
X00285014D01*
X00290221D02*
X00294793D01*
X00298095D02*
X00302286D01*
X00305080D02*
X00305588D01*
X00308509D02*
X00311049D01*
X00313843D02*
X00314224D01*
X00317272D02*
X00325527D01*
X00257963Y00036009D02*
X00259106D01*
X00267869D02*
X00271171D01*
X00273965D02*
X00285014D01*
X00290221D02*
X00294793D01*
X00298095D02*
X00302286D01*
X00305080D02*
X00305715D01*
X00308509D02*
X00311049D01*
X00313843D02*
X00314224D01*
X00317272D02*
X00325527D01*
X00257963Y00035882D02*
X00259106D01*
X00267869D02*
X00271171D01*
X00273965D02*
X00285014D01*
X00290221D02*
X00294793D01*
X00298095D02*
X00302159D01*
X00305080D02*
X00305715D01*
X00308636D02*
X00311049D01*
X00313843D02*
X00314351D01*
X00317272D02*
X00325527D01*
X00257963Y00035755D02*
X00259106D01*
X00267869D02*
X00271171D01*
X00273965D02*
X00285014D01*
X00290221D02*
X00294793D01*
X00298095D02*
X00302159D01*
X00305080D02*
X00305715D01*
X00308636D02*
X00310922D01*
X00313843D02*
X00314351D01*
X00317399D02*
X00325527D01*
X00257963Y00035628D02*
X00259106D01*
X00267869D02*
X00271171D01*
X00273965D02*
X00285014D01*
X00290221D02*
X00294793D01*
X00298095D02*
X00302159D01*
X00305080D02*
X00305715D01*
X00308636D02*
X00310922D01*
X00313716D02*
X00314351D01*
X00317399D02*
X00325527D01*
X00257963Y00035501D02*
X00259106D01*
X00267869D02*
X00271171D01*
X00273965D02*
X00285014D01*
X00290221D02*
X00294793D01*
X00298095D02*
X00302159D01*
X00304953D02*
X00305842D01*
X00308636D02*
X00310922D01*
X00313716D02*
X00314351D01*
X00317399D02*
X00325527D01*
X00257963Y00035374D02*
X00259106D01*
X00267869D02*
X00271171D01*
X00273965D02*
X00285014D01*
X00290221D02*
X00294793D01*
X00298095D02*
X00302032D01*
X00304953D02*
X00305842D01*
X00308763D02*
X00310922D01*
X00313716D02*
X00314351D01*
X00317399D02*
X00325527D01*
X00257963Y00035247D02*
X00259106D01*
X00267869D02*
X00271171D01*
X00273965D02*
X00285014D01*
X00290221D02*
X00294793D01*
X00298095D02*
X00302032D01*
X00304953D02*
X00305842D01*
X00308763D02*
X00310795D01*
X00313589D02*
X00314478D01*
X00317526D02*
X00325527D01*
X00257963Y00035120D02*
X00259106D01*
X00267869D02*
X00271171D01*
X00273965D02*
X00285014D01*
X00290221D02*
X00294793D01*
X00298095D02*
X00302032D01*
X00304953D02*
X00305842D01*
X00308763D02*
X00310795D01*
X00313589D02*
X00314478D01*
X00317526D02*
X00325527D01*
X00257963Y00034993D02*
X00259106D01*
X00267869D02*
X00271171D01*
X00273965D02*
X00285014D01*
X00290221D02*
X00294793D01*
X00298095D02*
X00302032D01*
X00304826D02*
X00305969D01*
X00308890D02*
X00310795D01*
X00313589D02*
X00314478D01*
X00317526D02*
X00325527D01*
X00257963Y00034866D02*
X00259106D01*
X00267869D02*
X00271171D01*
X00273965D02*
X00285014D01*
X00290221D02*
X00294793D01*
X00298095D02*
X00301905D01*
X00304826D02*
X00305969D01*
X00308890D02*
X00310668D01*
X00313462D02*
X00314478D01*
X00317526D02*
X00325527D01*
X00257963Y00034739D02*
X00259106D01*
X00267869D02*
X00271171D01*
X00273965D02*
X00285014D01*
X00290221D02*
X00294793D01*
X00298095D02*
X00301905D01*
X00304826D02*
X00305969D01*
X00308890D02*
X00310668D01*
X00313462D02*
X00314605D01*
X00317653D02*
X00325527D01*
X00257963Y00034612D02*
X00259106D01*
X00267869D02*
X00271171D01*
X00273965D02*
X00285014D01*
X00290221D02*
X00294793D01*
X00298095D02*
X00301905D01*
X00304826D02*
X00306096D01*
X00308890D02*
X00310668D01*
X00313462D02*
X00314605D01*
X00317653D02*
X00325527D01*
X00257963Y00034485D02*
X00259106D01*
X00267869D02*
X00271171D01*
X00273965D02*
X00285014D01*
X00290221D02*
X00294793D01*
X00298095D02*
X00301905D01*
X00304699D02*
X00306096D01*
X00309017D02*
X00310668D01*
X00313462D02*
X00314605D01*
X00317653D02*
X00325527D01*
X00257963Y00034358D02*
X00259106D01*
X00267869D02*
X00271171D01*
X00273965D02*
X00285014D01*
X00290221D02*
X00294793D01*
X00298095D02*
X00301778D01*
X00304699D02*
X00306096D01*
X00309017D02*
X00310541D01*
X00313335D02*
X00314605D01*
X00317653D02*
X00325527D01*
X00257963Y00034231D02*
X00259106D01*
X00267869D02*
X00271171D01*
X00273965D02*
X00285014D01*
X00290221D02*
X00294793D01*
X00298095D02*
X00301778D01*
X00304699D02*
X00306223D01*
X00309017D02*
X00310541D01*
X00313335D02*
X00314605D01*
X00317780D02*
X00325527D01*
X00257963Y00034104D02*
X00259106D01*
X00267869D02*
X00271171D01*
X00273965D02*
X00285014D01*
X00290221D02*
X00294793D01*
X00298095D02*
X00301778D01*
X00304699D02*
X00306223D01*
X00309144D02*
X00310541D01*
X00313335D02*
X00314732D01*
X00317780D02*
X00325527D01*
X00257963Y00033977D02*
X00259106D01*
X00267869D02*
X00271171D01*
X00273965D02*
X00285014D01*
X00290221D02*
X00294793D01*
X00298095D02*
X00301778D01*
X00304699D02*
X00306223D01*
X00309144D02*
X00310414D01*
X00313208D02*
X00314732D01*
X00317780D02*
X00325527D01*
X00257963Y00033850D02*
X00259106D01*
X00267869D02*
X00271171D01*
X00273965D02*
X00285014D01*
X00290221D02*
X00294793D01*
X00298095D02*
X00301651D01*
X00304572D02*
X00306223D01*
X00309144D02*
X00310414D01*
X00313208D02*
X00314732D01*
X00317907D02*
X00325527D01*
X00257963Y00033723D02*
X00259106D01*
X00267869D02*
X00271171D01*
X00273965D02*
X00285014D01*
X00290221D02*
X00294793D01*
X00298095D02*
X00301651D01*
X00304572D02*
X00306350D01*
X00309144D02*
X00310414D01*
X00313208D02*
X00314732D01*
X00317907D02*
X00325527D01*
X00257963Y00033596D02*
X00259106D01*
X00267869D02*
X00271171D01*
X00273965D02*
X00285014D01*
X00290221D02*
X00294793D01*
X00298095D02*
X00301651D01*
X00304572D02*
X00306350D01*
X00309271D02*
X00310414D01*
X00313208D02*
X00314859D01*
X00317907D02*
X00325527D01*
X00257963Y00033469D02*
X00259106D01*
X00267869D02*
X00271171D01*
X00273965D02*
X00285014D01*
X00290221D02*
X00294793D01*
X00298095D02*
X00301524D01*
X00304572D02*
X00306350D01*
X00309271D02*
X00310287D01*
X00313081D02*
X00314859D01*
X00317907D02*
X00325527D01*
X00257963Y00033342D02*
X00259106D01*
X00267869D02*
X00271171D01*
X00273965D02*
X00285014D01*
X00290221D02*
X00294793D01*
X00298095D02*
X00301524D01*
X00304445D02*
X00306477D01*
X00309271D02*
X00310287D01*
X00313081D02*
X00314859D01*
X00318034D02*
X00325527D01*
X00257963Y00033215D02*
X00259106D01*
X00267869D02*
X00271171D01*
X00273965D02*
X00285014D01*
X00290221D02*
X00294793D01*
X00298095D02*
X00301524D01*
X00304445D02*
X00306477D01*
X00309398D02*
X00310287D01*
X00313081D02*
X00314859D01*
X00318034D02*
X00325527D01*
X00257963Y00033088D02*
X00259106D01*
X00267869D02*
X00271171D01*
X00281585D02*
X00285014D01*
X00290221D02*
X00294793D01*
X00298095D02*
X00301524D01*
X00304445D02*
X00306477D01*
X00309398D02*
X00310160D01*
X00312954D02*
X00314859D01*
X00318034D02*
X00325527D01*
X00257963Y00032961D02*
X00259106D01*
X00267869D02*
X00271171D01*
X00281585D02*
X00285014D01*
X00290221D02*
X00294793D01*
X00298095D02*
X00301397D01*
X00304445D02*
X00306477D01*
X00309398D02*
X00310160D01*
X00312954D02*
X00314986D01*
X00318034D02*
X00325527D01*
X00257963Y00032834D02*
X00259106D01*
X00267869D02*
X00271171D01*
X00281585D02*
X00285014D01*
X00290221D02*
X00294793D01*
X00298095D02*
X00301397D01*
X00304318D02*
X00306604D01*
X00309398D02*
X00310160D01*
X00312954D02*
X00314986D01*
X00318161D02*
X00325527D01*
X00257963Y00032707D02*
X00259106D01*
X00267869D02*
X00271171D01*
X00281585D02*
X00285014D01*
X00290221D02*
X00294793D01*
X00298095D02*
X00301397D01*
X00304318D02*
X00306604D01*
X00309525D02*
X00310160D01*
X00312827D02*
X00314986D01*
X00318161D02*
X00325527D01*
X00257963Y00032580D02*
X00259106D01*
X00267869D02*
X00271171D01*
X00281585D02*
X00285014D01*
X00290221D02*
X00294793D01*
X00298095D02*
X00301397D01*
X00304318D02*
X00306604D01*
X00309525D02*
X00310033D01*
X00312827D02*
X00314986D01*
X00318161D02*
X00325527D01*
X00257963Y00032453D02*
X00259106D01*
X00267869D02*
X00271171D01*
X00281585D02*
X00285014D01*
X00290221D02*
X00294793D01*
X00297968D02*
X00301270D01*
X00304318D02*
X00306731D01*
X00309525D02*
X00310033D01*
X00312827D02*
X00315113D01*
X00318288D02*
X00325527D01*
X00257963Y00032326D02*
X00259106D01*
X00267869D02*
X00271171D01*
X00281585D02*
X00285014D01*
X00290221D02*
X00294793D01*
X00298095D02*
X00301270D01*
X00304318D02*
X00306731D01*
X00309652D02*
X00310033D01*
X00312827D02*
X00315113D01*
X00318288D02*
X00325527D01*
X00257963Y00032199D02*
X00259106D01*
X00267869D02*
X00271171D01*
X00281585D02*
X00285014D01*
X00290221D02*
X00294793D01*
X00298095D02*
X00301270D01*
X00304191D02*
X00306731D01*
X00309652D02*
X00309906D01*
X00312700D02*
X00315113D01*
X00318288D02*
X00325527D01*
X00257963Y00032072D02*
X00259106D01*
X00267869D02*
X00271171D01*
X00281585D02*
X00285014D01*
X00290221D02*
X00294793D01*
X00298095D02*
X00301270D01*
X00304191D02*
X00306731D01*
X00309652D02*
X00309906D01*
X00312700D02*
X00315113D01*
X00318288D02*
X00325527D01*
X00257963Y00031945D02*
X00259106D01*
X00267869D02*
X00271171D01*
X00281585D02*
X00285014D01*
X00290221D02*
X00294793D01*
X00298095D02*
X00301143D01*
X00304191D02*
X00306858D01*
X00309652D02*
X00309906D01*
X00312700D02*
X00315113D01*
X00318415D02*
X00325527D01*
X00257963Y00031818D02*
X00259106D01*
X00267869D02*
X00271171D01*
X00281585D02*
X00285014D01*
X00290221D02*
X00294793D01*
X00298095D02*
X00301143D01*
X00304191D02*
X00306858D01*
X00309779D02*
X00309906D01*
X00312573D02*
X00315240D01*
X00318415D02*
X00325527D01*
X00257963Y00031691D02*
X00259106D01*
X00281585D02*
X00285014D01*
X00290221D02*
X00301143D01*
X00304064D02*
X00306858D01*
X00312573D02*
X00315240D01*
X00318415D02*
X00325527D01*
X00257963Y00031564D02*
X00259106D01*
X00281585D02*
X00285014D01*
X00290221D02*
X00301016D01*
X00304064D02*
X00306858D01*
X00312573D02*
X00315240D01*
X00318415D02*
X00325527D01*
X00257963Y00031437D02*
X00259106D01*
X00281585D02*
X00285014D01*
X00290221D02*
X00301016D01*
X00304064D02*
X00306985D01*
X00312446D02*
X00315240D01*
X00318542D02*
X00325527D01*
X00257963Y00031310D02*
X00259106D01*
X00281585D02*
X00285014D01*
X00290221D02*
X00301016D01*
X00304064D02*
X00306985D01*
X00312446D02*
X00315367D01*
X00318542D02*
X00325527D01*
X00257963Y00031183D02*
X00259106D01*
X00281585D02*
X00285014D01*
X00290221D02*
X00301016D01*
X00303937D02*
X00306985D01*
X00312446D02*
X00315367D01*
X00318542D02*
X00325527D01*
X00257963Y00031056D02*
X00259106D01*
X00281585D02*
X00285014D01*
X00290221D02*
X00300889D01*
X00303937D02*
X00307112D01*
X00312446D02*
X00315367D01*
X00318542D02*
X00325527D01*
X00257963Y00030929D02*
X00259106D01*
X00281585D02*
X00285014D01*
X00290221D02*
X00300889D01*
X00303937D02*
X00307112D01*
X00312319D02*
X00315367D01*
X00318669D02*
X00325527D01*
X00257963Y00030802D02*
X00259106D01*
X00281585D02*
X00285014D01*
X00290221D02*
X00300889D01*
X00303937D02*
X00307112D01*
X00312319D02*
X00315494D01*
X00318669D02*
X00325527D01*
X00257963Y00030675D02*
X00259106D01*
X00281585D02*
X00285014D01*
X00290221D02*
X00300889D01*
X00303810D02*
X00307112D01*
X00312319D02*
X00315494D01*
X00318669D02*
X00325527D01*
X00257963Y00030548D02*
X00259106D01*
X00281585D02*
X00285014D01*
X00290221D02*
X00300762D01*
X00303810D02*
X00307239D01*
X00312192D02*
X00315494D01*
X00318796D02*
X00325527D01*
X00257963Y00030421D02*
X00259106D01*
X00281585D02*
X00285014D01*
X00290221D02*
X00300762D01*
X00303810D02*
X00307239D01*
X00312192D02*
X00315494D01*
X00318796D02*
X00325527D01*
X00257963Y00030294D02*
X00259106D01*
X00269520D02*
X00269647D01*
X00281585D02*
X00285014D01*
X00290221D02*
X00296444D01*
X00296571D02*
X00300762D01*
X00303810D02*
X00307239D01*
X00312192D02*
X00315494D01*
X00318796D02*
X00325527D01*
X00257963Y00030167D02*
X00259106D01*
X00268758D02*
X00270155D01*
X00281585D02*
X00285014D01*
X00290221D02*
X00295682D01*
X00297079D02*
X00300762D01*
X00303810D02*
X00307366D01*
X00312192D02*
X00315621D01*
X00318796D02*
X00325527D01*
X00257963Y00030040D02*
X00259106D01*
X00268504D02*
X00270536D01*
X00281585D02*
X00285014D01*
X00290221D02*
X00295428D01*
X00297333D02*
X00300635D01*
X00303683D02*
X00307366D01*
X00312065D02*
X00315621D01*
X00318923D02*
X00325527D01*
X00258090Y00029913D02*
X00259106D01*
X00268377D02*
X00270663D01*
X00273457D02*
X00285014D01*
X00290221D02*
X00295174D01*
X00297587D02*
X00300635D01*
X00303683D02*
X00307366D01*
X00312065D02*
X00315621D01*
X00318923D02*
X00325400D01*
X00258090Y00029786D02*
X00259106D01*
X00268123D02*
X00270790D01*
X00273330D02*
X00285014D01*
X00290221D02*
X00295047D01*
X00297714D02*
X00300635D01*
X00303683D02*
X00307366D01*
X00312065D02*
X00315621D01*
X00318923D02*
X00325400D01*
X00258090Y00029659D02*
X00259106D01*
X00267996D02*
X00270917D01*
X00273457D02*
X00285014D01*
X00290094D02*
X00294920D01*
X00297841D02*
X00300635D01*
X00303683D02*
X00307493D01*
X00311938D02*
X00315748D01*
X00318923D02*
X00325400D01*
X00258090Y00029532D02*
X00259106D01*
X00267996D02*
X00271044D01*
X00273457D02*
X00285014D01*
X00290094D02*
X00294920D01*
X00297968D02*
X00300508D01*
X00303683D02*
X00307493D01*
X00311938D02*
X00315748D01*
X00319050D02*
X00325400D01*
X00258090Y00029405D02*
X00259233D01*
X00267869D02*
X00271171D01*
X00273457D02*
X00285014D01*
X00290094D02*
X00294793D01*
X00298095D02*
X00300508D01*
X00303556D02*
X00307493D01*
X00311938D02*
X00315748D01*
X00319050D02*
X00325400D01*
X00258090Y00029278D02*
X00259233D01*
X00267742D02*
X00271171D01*
X00273457D02*
X00285014D01*
X00290094D02*
X00294666D01*
X00298095D02*
X00300508D01*
X00303556D02*
X00307620D01*
X00311811D02*
X00315748D01*
X00319050D02*
X00325400D01*
X00258090Y00029151D02*
X00259233D01*
X00267742D02*
X00271298D01*
X00273457D02*
X00285014D01*
X00290094D02*
X00294666D01*
X00298222D02*
X00300381D01*
X00303556D02*
X00307620D01*
X00311811D02*
X00315748D01*
X00319050D02*
X00325400D01*
X00258217Y00029024D02*
X00259233D01*
X00267742D02*
X00271298D01*
X00273457D02*
X00285014D01*
X00290094D02*
X00294539D01*
X00298222D02*
X00300381D01*
X00303556D02*
X00307620D01*
X00311811D02*
X00315875D01*
X00319177D02*
X00325273D01*
X00258217Y00028897D02*
X00259233D01*
X00267615D02*
X00271298D01*
X00273457D02*
X00285014D01*
X00290094D02*
X00294539D01*
X00298222D02*
X00300381D01*
X00303429D02*
X00307620D01*
X00311811D02*
X00315875D01*
X00319177D02*
X00325273D01*
X00258217Y00028770D02*
X00259360D01*
X00267615D02*
X00271425D01*
X00273457D02*
X00285014D01*
X00289967D02*
X00294539D01*
X00298222D02*
X00300381D01*
X00303429D02*
X00307747D01*
X00311684D02*
X00315875D01*
X00319177D02*
X00325273D01*
X00258217Y00028643D02*
X00259360D01*
X00267615D02*
X00271425D01*
X00273457D02*
X00285014D01*
X00289967D02*
X00294539D01*
X00298349D02*
X00300254D01*
X00303429D02*
X00307747D01*
X00311684D02*
X00315875D01*
X00319304D02*
X00325273D01*
X00258217Y00028516D02*
X00259360D01*
X00267615D02*
X00271425D01*
X00273457D02*
X00285014D01*
X00289967D02*
X00294539D01*
X00298349D02*
X00300254D01*
X00303429D02*
X00307747D01*
X00311684D02*
X00316002D01*
X00319304D02*
X00325273D01*
X00258344Y00028389D02*
X00259360D01*
X00267615D02*
X00271425D01*
X00273457D02*
X00285014D01*
X00289967D02*
X00294412D01*
X00298349D02*
X00300254D01*
X00303302D02*
X00307874D01*
X00311557D02*
X00316002D01*
X00319304D02*
X00325146D01*
X00258344Y00028262D02*
X00259487D01*
X00267615D02*
X00271425D01*
X00273457D02*
X00285014D01*
X00289840D02*
X00294539D01*
X00298349D02*
X00300254D01*
X00303302D02*
X00307874D01*
X00311557D02*
X00316002D01*
X00319304D02*
X00325146D01*
X00258344Y00028135D02*
X00259487D01*
X00267615D02*
X00271425D01*
X00273457D02*
X00285014D01*
X00289840D02*
X00294539D01*
X00298349D02*
X00300127D01*
X00303302D02*
X00307874D01*
X00311557D02*
X00316002D01*
X00319431D02*
X00325146D01*
X00258471Y00028008D02*
X00259487D01*
X00267615D02*
X00271425D01*
X00273457D02*
X00285014D01*
X00289840D02*
X00294539D01*
X00298349D02*
X00300127D01*
X00303302D02*
X00307874D01*
X00311557D02*
X00316002D01*
X00319431D02*
X00325146D01*
X00258471Y00027881D02*
X00259487D01*
X00267615D02*
X00271298D01*
X00273457D02*
X00285014D01*
X00289840D02*
X00294539D01*
X00298222D02*
X00300127D01*
X00303175D02*
X00308001D01*
X00311430D02*
X00316129D01*
X00319431D02*
X00325019D01*
X00258471Y00027754D02*
X00259614D01*
X00267615D02*
X00271298D01*
X00273457D02*
X00285014D01*
X00289713D02*
X00294539D01*
X00298222D02*
X00300127D01*
X00303175D02*
X00308001D01*
X00311430D02*
X00316129D01*
X00319431D02*
X00325019D01*
X00258471Y00027627D02*
X00259614D01*
X00267742D02*
X00271298D01*
X00273457D02*
X00285014D01*
X00289713D02*
X00294666D01*
X00298222D02*
X00300000D01*
X00303175D02*
X00308001D01*
X00311430D02*
X00316129D01*
X00319558D02*
X00325019D01*
X00258598Y00027500D02*
X00259741D01*
X00267742D02*
X00271171D01*
X00273457D02*
X00285014D01*
X00289713D02*
X00294666D01*
X00298095D02*
X00300000D01*
X00303175D02*
X00308128D01*
X00311303D02*
X00316129D01*
X00319558D02*
X00324892D01*
X00258598Y00027373D02*
X00259741D01*
X00267869D02*
X00271171D01*
X00273457D02*
X00285014D01*
X00289586D02*
X00294793D01*
X00298095D02*
X00300000D01*
X00303175D02*
X00308128D01*
X00311303D02*
X00316256D01*
X00319558D02*
X00324892D01*
X00258725Y00027246D02*
X00259741D01*
X00267996D02*
X00271044D01*
X00273457D02*
X00285014D01*
X00289586D02*
X00294793D01*
X00297968D02*
X00300000D01*
X00303048D02*
X00308128D01*
X00311303D02*
X00316256D01*
X00319558D02*
X00324892D01*
X00258725Y00027119D02*
X00259868D01*
X00267996D02*
X00270917D01*
X00273330D02*
X00285014D01*
X00289459D02*
X00294920D01*
X00297841D02*
X00299873D01*
X00303048D02*
X00308128D01*
X00311176D02*
X00316256D01*
X00319685D02*
X00324765D01*
X00258725Y00026992D02*
X00259868D01*
X00268123D02*
X00270790D01*
X00273457D02*
X00285014D01*
X00289459D02*
X00295047D01*
X00297714D02*
X00299873D01*
X00303048D02*
X00308255D01*
X00311176D02*
X00316256D01*
X00319685D02*
X00324765D01*
X00258852Y00026865D02*
X00259995D01*
X00268250D02*
X00270663D01*
X00289459D02*
X00295174D01*
X00297587D02*
X00299873D01*
X00300000D02*
X00300127D01*
X00302921D02*
X00308255D01*
X00308382D02*
X00308636D01*
X00308763D02*
X00308890D01*
X00311176D02*
X00316637D01*
X00316764D02*
X00317018D01*
X00319304D02*
X00319431D01*
X00319558D02*
X00324638D01*
X00258852Y00026738D02*
X00259995D01*
X00268504D02*
X00270536D01*
X00289332D02*
X00295428D01*
X00297460D02*
X00324638D01*
X00258979Y00026611D02*
X00259995D01*
X00268758D02*
X00270282D01*
X00289332D02*
X00295682D01*
X00297206D02*
X00324638D01*
X00258979Y00026484D02*
X00260122D01*
X00269266D02*
X00269774D01*
X00289205D02*
X00296063D01*
X00296698D02*
X00324511D01*
X00258979Y00026357D02*
X00260122D01*
X00289205D02*
X00324511D01*
X00259106Y00026230D02*
X00260249D01*
X00289078D02*
X00324384D01*
X00259106Y00026103D02*
X00260376D01*
X00289078D02*
X00324384D01*
X00259233Y00025976D02*
X00260376D01*
X00288951D02*
X00324257D01*
X00259233Y00025849D02*
X00260503D01*
X00288951D02*
X00324257D01*
X00259360Y00025722D02*
X00260503D01*
X00288824D02*
X00324130D01*
X00259487Y00025595D02*
X00260630D01*
X00288824D02*
X00324130D01*
X00259487Y00025468D02*
X00260757D01*
X00288697D02*
X00324003D01*
X00259614Y00025341D02*
X00260757D01*
X00288570D02*
X00323876D01*
X00259614Y00025214D02*
X00260884D01*
X00288570D02*
X00323876D01*
X00259741Y00025087D02*
X00261011D01*
X00288443D02*
X00323749D01*
X00259868Y00024960D02*
X00261011D01*
X00288316D02*
X00323749D01*
X00259868Y00024833D02*
X00261138D01*
X00288316D02*
X00323622D01*
X00259995Y00024706D02*
X00261265D01*
X00288189D02*
X00323495D01*
X00257074Y00024579D02*
X00258344D01*
X00260122D02*
X00261392D01*
X00288062D02*
X00323368D01*
X00256693Y00024452D02*
X00258725D01*
X00260122D02*
X00261519D01*
X00287935D02*
X00323368D01*
X00256566Y00024325D02*
X00258852D01*
X00260249D02*
X00261519D01*
X00287808D02*
X00323241D01*
X00256439Y00024198D02*
X00257201D01*
X00258217D02*
X00259106D01*
X00260376D02*
X00261646D01*
X00287681D02*
X00323114D01*
X00256312Y00024071D02*
X00256947D01*
X00258471D02*
X00259233D01*
X00260503D02*
X00261773D01*
X00287681D02*
X00322987D01*
X00256185Y00023944D02*
X00256820D01*
X00258725D02*
X00259360D01*
X00260630D02*
X00261900D01*
X00287554D02*
X00322987D01*
X00256058Y00023817D02*
X00256566D01*
X00258852D02*
X00259360D01*
X00260630D02*
X00262027D01*
X00287427D02*
X00322860D01*
X00255931Y00023690D02*
X00256439D01*
X00256820D02*
X00257328D01*
X00258217D02*
X00258598D01*
X00258979D02*
X00259487D01*
X00260757D02*
X00262154D01*
X00287300D02*
X00322733D01*
X00255931Y00023563D02*
X00256439D01*
X00256820D02*
X00257455D01*
X00258217D02*
X00258598D01*
X00259106D02*
X00259487D01*
X00260884D02*
X00262281D01*
X00287173D02*
X00322606D01*
X00255804Y00023436D02*
X00256312D01*
X00256947D02*
X00257455D01*
X00258217D02*
X00258598D01*
X00259106D02*
X00259614D01*
X00261011D02*
X00262408D01*
X00287046D02*
X00322479D01*
X00255804Y00023309D02*
X00256312D01*
X00257074D02*
X00257582D01*
X00258217D02*
X00258598D01*
X00259233D02*
X00259614D01*
X00261138D02*
X00262535D01*
X00286919D02*
X00322352D01*
X00255804Y00023182D02*
X00256185D01*
X00257074D02*
X00257709D01*
X00258217D02*
X00258598D01*
X00259233D02*
X00259741D01*
X00261265D02*
X00262789D01*
X00286665D02*
X00322225D01*
X00255804Y00023055D02*
X00256185D01*
X00257201D02*
X00257709D01*
X00258217D02*
X00258598D01*
X00259233D02*
X00259741D01*
X00261392D02*
X00262916D01*
X00286538D02*
X00322098D01*
X00255677Y00022928D02*
X00256185D01*
X00257328D02*
X00257963D01*
X00258217D02*
X00258598D01*
X00259233D02*
X00259741D01*
X00261519D02*
X00263043D01*
X00286411D02*
X00321971D01*
X00255677Y00022801D02*
X00256185D01*
X00257328D02*
X00258598D01*
X00259360D02*
X00259741D01*
X00261646D02*
X00263297D01*
X00286284D02*
X00321844D01*
X00255677Y00022674D02*
X00256185D01*
X00257074D02*
X00258598D01*
X00259233D02*
X00259741D01*
X00261773D02*
X00263424D01*
X00286030D02*
X00321717D01*
X00255677Y00022547D02*
X00256185D01*
X00256947D02*
X00258598D01*
X00259233D02*
X00259741D01*
X00261900D02*
X00263678D01*
X00285903D02*
X00321590D01*
X00255804Y00022420D02*
X00256185D01*
X00256947D02*
X00257455D01*
X00258217D02*
X00258598D01*
X00259233D02*
X00259741D01*
X00262027D02*
X00263805D01*
X00285649D02*
X00321463D01*
X00255804Y00022293D02*
X00256185D01*
X00256947D02*
X00257455D01*
X00258217D02*
X00258598D01*
X00259233D02*
X00259741D01*
X00262281D02*
X00264059D01*
X00285522D02*
X00321209D01*
X00255804Y00022166D02*
X00256185D01*
X00256947D02*
X00257455D01*
X00258217D02*
X00258598D01*
X00259233D02*
X00259614D01*
X00262408D02*
X00264186D01*
X00285268D02*
X00321082D01*
X00255804Y00022039D02*
X00256312D01*
X00256947D02*
X00257582D01*
X00258217D02*
X00258598D01*
X00259106D02*
X00259614D01*
X00262535D02*
X00264440D01*
X00285014D02*
X00320955D01*
X00255931Y00021912D02*
X00256312D01*
X00256947D02*
X00258598D01*
X00259106D02*
X00259614D01*
X00262789D02*
X00264694D01*
X00284760D02*
X00320701D01*
X00255931Y00021785D02*
X00256439D01*
X00257074D02*
X00258598D01*
X00258979D02*
X00259487D01*
X00262916D02*
X00264948D01*
X00284506D02*
X00320574D01*
X00256058Y00021658D02*
X00256566D01*
X00257455D02*
X00258598D01*
X00258979D02*
X00259487D01*
X00263170D02*
X00265329D01*
X00284252D02*
X00320447D01*
X00256058Y00021531D02*
X00256693D01*
X00258852D02*
X00259360D01*
X00263297D02*
X00265583D01*
X00283871D02*
X00320193D01*
X00256185Y00021404D02*
X00256820D01*
X00258598D02*
X00259233D01*
X00263551D02*
X00265964D01*
X00283617D02*
X00319939D01*
X00256312Y00021277D02*
X00256947D01*
X00258471D02*
X00259233D01*
X00263678D02*
X00266472D01*
X00283109D02*
X00319812D01*
X00256439Y00021150D02*
X00257328D01*
X00258090D02*
X00258979D01*
X00263932D02*
X00266980D01*
X00282728D02*
X00319558D01*
X00256566Y00021023D02*
X00258852D01*
X00264186D02*
X00267615D01*
X00281966D02*
X00319304D01*
X00256820Y00020896D02*
X00258725D01*
X00264440D02*
X00319050D01*
X00257074Y00020769D02*
X00258344D01*
X00264694D02*
X00318796D01*
X00265075Y00020642D02*
X00318415D01*
X00265329Y00020515D02*
X00318161D01*
X00265710Y00020388D02*
X00317780D01*
X00266091Y00020261D02*
X00317399D01*
X00266599Y00020134D02*
X00316891D01*
X00267107Y00020007D02*
X00316383D01*
X00267869Y00019880D02*
X00315621D01*
D15*
X00376200Y-00000440D02*
Y00075760D01*
Y00235780D02*
Y00242130D01*
X00355880D02*
X00376200D01*
X00213640D02*
X00233960D01*
X00213640Y00234510D02*
Y00242130D01*
Y-00000440D02*
Y00075760D01*
Y-00000440D02*
X00376200D01*
D16*
X00179460Y00058908D02*
X00185410D01*
M02*
