G04*
G04 #@! TF.GenerationSoftware,Altium Limited,Altium Designer,20.1.8 (145)*
G04*
G04 Layer_Physical_Order=1*
G04 Layer_Color=2232046*
%FSAX44Y44*%
%MOMM*%
G71*
G04*
G04 #@! TF.SameCoordinates,BC819849-6B9C-4E92-9E7B-26ABC9CEBC8F*
G04*
G04*
G04 #@! TF.FilePolarity,Positive*
G04*
G01*
G75*
%ADD13C,0.1270*%
%ADD16C,0.2032*%
G04:AMPARAMS|DCode=18|XSize=0.75mm|YSize=0.55mm|CornerRadius=0.0028mm|HoleSize=0mm|Usage=FLASHONLY|Rotation=90.000|XOffset=0mm|YOffset=0mm|HoleType=Round|Shape=RoundedRectangle|*
%AMROUNDEDRECTD18*
21,1,0.7500,0.5445,0,0,90.0*
21,1,0.7445,0.5500,0,0,90.0*
1,1,0.0055,0.2723,0.3723*
1,1,0.0055,0.2723,-0.3723*
1,1,0.0055,-0.2723,-0.3723*
1,1,0.0055,-0.2723,0.3723*
%
%ADD18ROUNDEDRECTD18*%
%ADD19O,0.3500X1.1500*%
G04:AMPARAMS|DCode=20|XSize=2.55mm|YSize=1.2mm|CornerRadius=0.006mm|HoleSize=0mm|Usage=FLASHONLY|Rotation=90.000|XOffset=0mm|YOffset=0mm|HoleType=Round|Shape=RoundedRectangle|*
%AMROUNDEDRECTD20*
21,1,2.5500,1.1880,0,0,90.0*
21,1,2.5380,1.2000,0,0,90.0*
1,1,0.0120,0.5940,1.2690*
1,1,0.0120,0.5940,-1.2690*
1,1,0.0120,-0.5940,-1.2690*
1,1,0.0120,-0.5940,1.2690*
%
%ADD20ROUNDEDRECTD20*%
G04:AMPARAMS|DCode=21|XSize=2.55mm|YSize=1.2mm|CornerRadius=0.006mm|HoleSize=0mm|Usage=FLASHONLY|Rotation=0.000|XOffset=0mm|YOffset=0mm|HoleType=Round|Shape=RoundedRectangle|*
%AMROUNDEDRECTD21*
21,1,2.5500,1.1880,0,0,0.0*
21,1,2.5380,1.2000,0,0,0.0*
1,1,0.0120,1.2690,-0.5940*
1,1,0.0120,-1.2690,-0.5940*
1,1,0.0120,-1.2690,0.5940*
1,1,0.0120,1.2690,0.5940*
%
%ADD21ROUNDEDRECTD21*%
%ADD22C,1.0000*%
G04:AMPARAMS|DCode=23|XSize=0.95mm|YSize=2.65mm|CornerRadius=0.0048mm|HoleSize=0mm|Usage=FLASHONLY|Rotation=90.000|XOffset=0mm|YOffset=0mm|HoleType=Round|Shape=RoundedRectangle|*
%AMROUNDEDRECTD23*
21,1,0.9500,2.6405,0,0,90.0*
21,1,0.9405,2.6500,0,0,90.0*
1,1,0.0095,1.3203,0.4703*
1,1,0.0095,1.3203,-0.4703*
1,1,0.0095,-1.3203,-0.4703*
1,1,0.0095,-1.3203,0.4703*
%
%ADD23ROUNDEDRECTD23*%
G04:AMPARAMS|DCode=24|XSize=5.55mm|YSize=6.8mm|CornerRadius=0.0278mm|HoleSize=0mm|Usage=FLASHONLY|Rotation=90.000|XOffset=0mm|YOffset=0mm|HoleType=Round|Shape=RoundedRectangle|*
%AMROUNDEDRECTD24*
21,1,5.5500,6.7445,0,0,90.0*
21,1,5.4945,6.8000,0,0,90.0*
1,1,0.0555,3.3723,2.7473*
1,1,0.0555,3.3723,-2.7473*
1,1,0.0555,-3.3723,-2.7473*
1,1,0.0555,-3.3723,2.7473*
%
%ADD24ROUNDEDRECTD24*%
G04:AMPARAMS|DCode=25|XSize=0.75mm|YSize=0.55mm|CornerRadius=0.0028mm|HoleSize=0mm|Usage=FLASHONLY|Rotation=0.000|XOffset=0mm|YOffset=0mm|HoleType=Round|Shape=RoundedRectangle|*
%AMROUNDEDRECTD25*
21,1,0.7500,0.5445,0,0,0.0*
21,1,0.7445,0.5500,0,0,0.0*
1,1,0.0055,0.3723,-0.2723*
1,1,0.0055,-0.3723,-0.2723*
1,1,0.0055,-0.3723,0.2723*
1,1,0.0055,0.3723,0.2723*
%
%ADD25ROUNDEDRECTD25*%
G04:AMPARAMS|DCode=26|XSize=0.85mm|YSize=0.6mm|CornerRadius=0.003mm|HoleSize=0mm|Usage=FLASHONLY|Rotation=90.000|XOffset=0mm|YOffset=0mm|HoleType=Round|Shape=RoundedRectangle|*
%AMROUNDEDRECTD26*
21,1,0.8500,0.5940,0,0,90.0*
21,1,0.8440,0.6000,0,0,90.0*
1,1,0.0060,0.2970,0.4220*
1,1,0.0060,0.2970,-0.4220*
1,1,0.0060,-0.2970,-0.4220*
1,1,0.0060,-0.2970,0.4220*
%
%ADD26ROUNDEDRECTD26*%
G04:AMPARAMS|DCode=27|XSize=1.4mm|YSize=1.05mm|CornerRadius=0.0053mm|HoleSize=0mm|Usage=FLASHONLY|Rotation=90.000|XOffset=0mm|YOffset=0mm|HoleType=Round|Shape=RoundedRectangle|*
%AMROUNDEDRECTD27*
21,1,1.4000,1.0395,0,0,90.0*
21,1,1.3895,1.0500,0,0,90.0*
1,1,0.0105,0.5198,0.6948*
1,1,0.0105,0.5198,-0.6948*
1,1,0.0105,-0.5198,-0.6948*
1,1,0.0105,-0.5198,0.6948*
%
%ADD27ROUNDEDRECTD27*%
G04:AMPARAMS|DCode=28|XSize=0.54mm|YSize=0.75mm|CornerRadius=0.0027mm|HoleSize=0mm|Usage=FLASHONLY|Rotation=0.000|XOffset=0mm|YOffset=0mm|HoleType=Round|Shape=RoundedRectangle|*
%AMROUNDEDRECTD28*
21,1,0.5400,0.7446,0,0,0.0*
21,1,0.5346,0.7500,0,0,0.0*
1,1,0.0054,0.2673,-0.3723*
1,1,0.0054,-0.2673,-0.3723*
1,1,0.0054,-0.2673,0.3723*
1,1,0.0054,0.2673,0.3723*
%
%ADD28ROUNDEDRECTD28*%
G04:AMPARAMS|DCode=29|XSize=1.85mm|YSize=1mm|CornerRadius=0.005mm|HoleSize=0mm|Usage=FLASHONLY|Rotation=180.000|XOffset=0mm|YOffset=0mm|HoleType=Round|Shape=RoundedRectangle|*
%AMROUNDEDRECTD29*
21,1,1.8500,0.9900,0,0,180.0*
21,1,1.8400,1.0000,0,0,180.0*
1,1,0.0100,-0.9200,0.4950*
1,1,0.0100,0.9200,0.4950*
1,1,0.0100,0.9200,-0.4950*
1,1,0.0100,-0.9200,-0.4950*
%
%ADD29ROUNDEDRECTD29*%
G04:AMPARAMS|DCode=30|XSize=1.1mm|YSize=2.3mm|CornerRadius=0.0055mm|HoleSize=0mm|Usage=FLASHONLY|Rotation=270.000|XOffset=0mm|YOffset=0mm|HoleType=Round|Shape=RoundedRectangle|*
%AMROUNDEDRECTD30*
21,1,1.1000,2.2890,0,0,270.0*
21,1,1.0890,2.3000,0,0,270.0*
1,1,0.0110,-1.1445,-0.5445*
1,1,0.0110,-1.1445,0.5445*
1,1,0.0110,1.1445,0.5445*
1,1,0.0110,1.1445,-0.5445*
%
%ADD30ROUNDEDRECTD30*%
G04:AMPARAMS|DCode=31|XSize=1.1mm|YSize=2.3mm|CornerRadius=0.0055mm|HoleSize=0mm|Usage=FLASHONLY|Rotation=0.000|XOffset=0mm|YOffset=0mm|HoleType=Round|Shape=RoundedRectangle|*
%AMROUNDEDRECTD31*
21,1,1.1000,2.2890,0,0,0.0*
21,1,1.0890,2.3000,0,0,0.0*
1,1,0.0110,0.5445,-1.1445*
1,1,0.0110,-0.5445,-1.1445*
1,1,0.0110,-0.5445,1.1445*
1,1,0.0110,0.5445,1.1445*
%
%ADD31ROUNDEDRECTD31*%
G04:AMPARAMS|DCode=32|XSize=0.55mm|YSize=0.8mm|CornerRadius=0.0028mm|HoleSize=0mm|Usage=FLASHONLY|Rotation=180.000|XOffset=0mm|YOffset=0mm|HoleType=Round|Shape=RoundedRectangle|*
%AMROUNDEDRECTD32*
21,1,0.5500,0.7945,0,0,180.0*
21,1,0.5445,0.8000,0,0,180.0*
1,1,0.0055,-0.2723,0.3973*
1,1,0.0055,0.2723,0.3973*
1,1,0.0055,0.2723,-0.3973*
1,1,0.0055,-0.2723,-0.3973*
%
%ADD32ROUNDEDRECTD32*%
G04:AMPARAMS|DCode=33|XSize=4mm|YSize=2.2mm|CornerRadius=0.22mm|HoleSize=0mm|Usage=FLASHONLY|Rotation=90.000|XOffset=0mm|YOffset=0mm|HoleType=Round|Shape=RoundedRectangle|*
%AMROUNDEDRECTD33*
21,1,4.0000,1.7600,0,0,90.0*
21,1,3.5600,2.2000,0,0,90.0*
1,1,0.4400,0.8800,1.7800*
1,1,0.4400,0.8800,-1.7800*
1,1,0.4400,-0.8800,-1.7800*
1,1,0.4400,-0.8800,1.7800*
%
%ADD33ROUNDEDRECTD33*%
G04:AMPARAMS|DCode=34|XSize=0.35mm|YSize=0.6mm|CornerRadius=0.0018mm|HoleSize=0mm|Usage=FLASHONLY|Rotation=90.000|XOffset=0mm|YOffset=0mm|HoleType=Round|Shape=RoundedRectangle|*
%AMROUNDEDRECTD34*
21,1,0.3500,0.5965,0,0,90.0*
21,1,0.3465,0.6000,0,0,90.0*
1,1,0.0035,0.2983,0.1733*
1,1,0.0035,0.2983,-0.1733*
1,1,0.0035,-0.2983,-0.1733*
1,1,0.0035,-0.2983,0.1733*
%
%ADD34ROUNDEDRECTD34*%
%ADD60C,1.5000*%
G04:AMPARAMS|DCode=61|XSize=1.5mm|YSize=1.5mm|CornerRadius=0.15mm|HoleSize=0mm|Usage=FLASHONLY|Rotation=180.000|XOffset=0mm|YOffset=0mm|HoleType=Round|Shape=RoundedRectangle|*
%AMROUNDEDRECTD61*
21,1,1.5000,1.2000,0,0,180.0*
21,1,1.2000,1.5000,0,0,180.0*
1,1,0.3000,-0.6000,0.6000*
1,1,0.3000,0.6000,0.6000*
1,1,0.3000,0.6000,-0.6000*
1,1,0.3000,-0.6000,-0.6000*
%
%ADD61ROUNDEDRECTD61*%
G04:AMPARAMS|DCode=62|XSize=1.5mm|YSize=2mm|CornerRadius=0.0075mm|HoleSize=0mm|Usage=FLASHONLY|Rotation=0.000|XOffset=0mm|YOffset=0mm|HoleType=Round|Shape=RoundedRectangle|*
%AMROUNDEDRECTD62*
21,1,1.5000,1.9850,0,0,0.0*
21,1,1.4850,2.0000,0,0,0.0*
1,1,0.0150,0.7425,-0.9925*
1,1,0.0150,-0.7425,-0.9925*
1,1,0.0150,-0.7425,0.9925*
1,1,0.0150,0.7425,0.9925*
%
%ADD62ROUNDEDRECTD62*%
%ADD63C,0.1524*%
%ADD64C,0.3048*%
%ADD65C,0.8128*%
%ADD66C,0.6096*%
%ADD67C,0.5080*%
%ADD68C,0.7000*%
%ADD69C,3.8000*%
%ADD70C,0.6700*%
G04:AMPARAMS|DCode=71|XSize=1.3mm|YSize=2mm|CornerRadius=0.65mm|HoleSize=0mm|Usage=FLASHONLY|Rotation=0.000|XOffset=0mm|YOffset=0mm|HoleType=Round|Shape=RoundedRectangle|*
%AMROUNDEDRECTD71*
21,1,1.3000,0.7000,0,0,0.0*
21,1,0.0000,2.0000,0,0,0.0*
1,1,1.3000,0.0000,-0.3500*
1,1,1.3000,0.0000,-0.3500*
1,1,1.3000,0.0000,0.3500*
1,1,1.3000,0.0000,0.3500*
%
%ADD71ROUNDEDRECTD71*%
G04:AMPARAMS|DCode=72|XSize=2mm|YSize=2mm|CornerRadius=0.5mm|HoleSize=0mm|Usage=FLASHONLY|Rotation=0.000|XOffset=0mm|YOffset=0mm|HoleType=Round|Shape=RoundedRectangle|*
%AMROUNDEDRECTD72*
21,1,2.0000,1.0000,0,0,0.0*
21,1,1.0000,2.0000,0,0,0.0*
1,1,1.0000,0.5000,-0.5000*
1,1,1.0000,-0.5000,-0.5000*
1,1,1.0000,-0.5000,0.5000*
1,1,1.0000,0.5000,0.5000*
%
%ADD72ROUNDEDRECTD72*%
G04:AMPARAMS|DCode=73|XSize=1.6mm|YSize=2mm|CornerRadius=0.16mm|HoleSize=0mm|Usage=FLASHONLY|Rotation=0.000|XOffset=0mm|YOffset=0mm|HoleType=Round|Shape=RoundedRectangle|*
%AMROUNDEDRECTD73*
21,1,1.6000,1.6800,0,0,0.0*
21,1,1.2800,2.0000,0,0,0.0*
1,1,0.3200,0.6400,-0.8400*
1,1,0.3200,-0.6400,-0.8400*
1,1,0.3200,-0.6400,0.8400*
1,1,0.3200,0.6400,0.8400*
%
%ADD73ROUNDEDRECTD73*%
%ADD74C,1.8000*%
%ADD75O,4.0000X2.0000*%
%ADD76C,0.6600*%
%ADD77C,0.5600*%
G36*
X00412187Y00317783D02*
X00414360Y00317526D01*
X00416506Y00317099D01*
X00418612Y00316505D01*
X00420665Y00315748D01*
X00422652Y00314832D01*
X00424562Y00313762D01*
X00426381Y00312547D01*
X00428100Y00311192D01*
X00429706Y00309706D01*
X00431192Y00308099D01*
X00432547Y00306381D01*
X00433762Y00304562D01*
X00434832Y00302652D01*
X00435748Y00300665D01*
X00436505Y00298612D01*
X00437099Y00296506D01*
X00437526Y00294360D01*
X00437783Y00292187D01*
X00437820Y00291262D01*
X00437855Y00290000D01*
X00437855Y00290000D01*
X00437855Y00288761D01*
Y00030000D01*
X00437866Y00029915D01*
X00437783Y00027813D01*
X00437526Y00025640D01*
X00437099Y00023494D01*
X00436505Y00021388D01*
X00435748Y00019335D01*
X00434832Y00017348D01*
X00433762Y00015438D01*
X00432547Y00013619D01*
X00431192Y00011901D01*
X00429706Y00010294D01*
X00428100Y00008808D01*
X00426381Y00007454D01*
X00424562Y00006238D01*
X00422652Y00005168D01*
X00420665Y00004252D01*
X00418612Y00003495D01*
X00416506Y00002901D01*
X00414360Y00002474D01*
X00412187Y00002217D01*
X00411261Y00002181D01*
X00410000Y00002145D01*
X00410000Y00002145D01*
X00408752Y00002145D01*
X00378217D01*
Y00057227D01*
X00379392Y00057940D01*
X00391250D01*
X00391546Y00057069D01*
X00392055Y00056038D01*
X00392693Y00055082D01*
X00393451Y00054217D01*
X00394316Y00053459D01*
X00395272Y00052821D01*
X00396303Y00052312D01*
X00397391Y00051943D01*
X00398519Y00051718D01*
X00399666Y00051643D01*
X00400813Y00051718D01*
X00401941Y00051943D01*
X00403029Y00052312D01*
X00404060Y00052821D01*
X00405016Y00053459D01*
X00405881Y00054217D01*
X00406639Y00055082D01*
X00407277Y00056038D01*
X00407786Y00057069D01*
X00408155Y00058157D01*
X00408156Y00058159D01*
X00409004Y00058581D01*
X00409557Y00058695D01*
X00409844Y00058576D01*
X00410341Y00058511D01*
X00416506D01*
X00416577Y00058157D01*
X00416946Y00057069D01*
X00417455Y00056038D01*
X00418093Y00055082D01*
X00418851Y00054217D01*
X00419716Y00053459D01*
X00420672Y00052821D01*
X00421703Y00052312D01*
X00422791Y00051943D01*
X00423919Y00051718D01*
X00425066Y00051643D01*
X00426213Y00051718D01*
X00427341Y00051943D01*
X00428429Y00052312D01*
X00429460Y00052821D01*
X00430416Y00053459D01*
X00431281Y00054217D01*
X00432039Y00055082D01*
X00432677Y00056038D01*
X00433186Y00057069D01*
X00433555Y00058157D01*
X00433780Y00059285D01*
X00433855Y00060432D01*
X00433780Y00061579D01*
X00433555Y00062707D01*
X00433186Y00063795D01*
X00432677Y00064826D01*
X00432039Y00065782D01*
X00431281Y00066647D01*
X00430416Y00067405D01*
X00429460Y00068043D01*
X00428429Y00068552D01*
X00427341Y00068921D01*
X00426213Y00069146D01*
X00425066Y00069221D01*
X00423919Y00069146D01*
X00422791Y00068921D01*
X00421703Y00068552D01*
X00420672Y00068043D01*
X00419716Y00067405D01*
X00418851Y00066647D01*
X00418093Y00065782D01*
X00417455Y00064826D01*
X00416946Y00063795D01*
X00416577Y00062707D01*
X00416506Y00062353D01*
X00412100D01*
X00411950Y00063236D01*
X00411559Y00064594D01*
X00411018Y00065899D01*
X00410335Y00067136D01*
X00409517Y00068288D01*
X00408576Y00069341D01*
X00407522Y00070283D01*
X00406370Y00071101D01*
X00405133Y00071784D01*
X00403828Y00072325D01*
X00402691Y00072652D01*
X00401522Y00073150D01*
X00401587Y00073647D01*
Y00077272D01*
X00401941Y00077343D01*
X00403029Y00077712D01*
X00404060Y00078221D01*
X00405016Y00078859D01*
X00405881Y00079617D01*
X00406639Y00080482D01*
X00407277Y00081438D01*
X00407786Y00082469D01*
X00408155Y00083557D01*
X00408380Y00084685D01*
X00408455Y00085832D01*
X00408380Y00086979D01*
X00408155Y00088107D01*
X00407786Y00089195D01*
X00407277Y00090226D01*
X00406639Y00091182D01*
X00405881Y00092047D01*
X00405016Y00092805D01*
X00404060Y00093443D01*
X00403029Y00093952D01*
X00401941Y00094321D01*
X00400813Y00094546D01*
X00399666Y00094621D01*
X00398519Y00094546D01*
X00397391Y00094321D01*
X00396303Y00093952D01*
X00395272Y00093443D01*
X00394316Y00092805D01*
X00393451Y00092047D01*
X00392693Y00091182D01*
X00392055Y00090226D01*
X00391546Y00089195D01*
X00391177Y00088107D01*
X00390952Y00086979D01*
X00390877Y00085832D01*
X00390952Y00084685D01*
X00391177Y00083557D01*
X00391546Y00082469D01*
X00392055Y00081438D01*
X00392693Y00080482D01*
X00393451Y00079617D01*
X00394316Y00078859D01*
X00395272Y00078221D01*
X00396303Y00077712D01*
X00397391Y00077343D01*
X00397745Y00077272D01*
Y00075443D01*
X00396286Y00075195D01*
X00394649Y00074724D01*
X00393076Y00074072D01*
X00391585Y00073248D01*
X00390196Y00072262D01*
X00388926Y00071127D01*
X00387791Y00069857D01*
X00386805Y00068468D01*
X00385981Y00066977D01*
X00385934Y00066863D01*
X00217488D01*
Y00078885D01*
X00229641D01*
X00229986Y00078930D01*
X00230309Y00079064D01*
X00230585Y00079276D01*
X00230798Y00079553D01*
X00230931Y00079875D01*
X00230977Y00080221D01*
Y00091111D01*
X00231011Y00091150D01*
X00233147D01*
X00233147Y00091150D01*
X00233645Y00091215D01*
X00234108Y00091407D01*
X00234506Y00091712D01*
X00235553Y00092760D01*
X00235553Y00092760D01*
X00235859Y00093158D01*
X00236051Y00093621D01*
X00236116Y00094118D01*
X00236116Y00094119D01*
Y00164780D01*
X00236116Y00164780D01*
X00236051Y00165277D01*
X00235859Y00165741D01*
X00235553Y00166139D01*
X00235553Y00166139D01*
X00234658Y00167035D01*
X00234260Y00167340D01*
X00233796Y00167532D01*
X00233299Y00167598D01*
X00233299Y00167598D01*
X00230977D01*
Y00171121D01*
X00230931Y00171467D01*
X00230798Y00171789D01*
X00230585Y00172066D01*
X00230309Y00172278D01*
X00229986Y00172412D01*
X00229641Y00172457D01*
X00206751D01*
X00206405Y00172412D01*
X00206082Y00172278D01*
X00205806Y00172066D01*
X00205593Y00171789D01*
X00205460Y00171467D01*
X00205414Y00171121D01*
Y00164647D01*
X00203894D01*
X00203892Y00164651D01*
X00203684Y00164922D01*
X00203413Y00165130D01*
X00203097Y00165261D01*
X00202759Y00165305D01*
X00197313D01*
X00196975Y00165261D01*
X00196659Y00165130D01*
X00196388Y00164922D01*
X00196180Y00164651D01*
X00196049Y00164335D01*
X00196005Y00163997D01*
Y00156552D01*
X00196049Y00156213D01*
X00196180Y00155897D01*
X00196388Y00155626D01*
X00196659Y00155418D01*
X00196975Y00155287D01*
X00197313Y00155243D01*
X00202759D01*
X00203097Y00155287D01*
X00203413Y00155418D01*
X00203684Y00155626D01*
X00203892Y00155897D01*
X00204023Y00156213D01*
X00204067Y00156552D01*
Y00160804D01*
X00205414D01*
Y00160231D01*
X00205460Y00159885D01*
X00205593Y00159563D01*
X00205806Y00159286D01*
X00206082Y00159074D01*
X00206405Y00158940D01*
X00206751Y00158895D01*
X00229641D01*
X00229986Y00158940D01*
X00230309Y00159074D01*
X00230585Y00159286D01*
X00230798Y00159563D01*
X00230931Y00159885D01*
X00230977Y00160231D01*
Y00163755D01*
X00232273D01*
Y00094993D01*
X00210363D01*
X00210001Y00095309D01*
X00209405Y00096263D01*
X00209419Y00096373D01*
Y00098697D01*
X00229641D01*
X00229986Y00098742D01*
X00230309Y00098876D01*
X00230585Y00099088D01*
X00230798Y00099365D01*
X00230931Y00099687D01*
X00230977Y00100033D01*
Y00110923D01*
X00230931Y00111269D01*
X00230798Y00111591D01*
X00230585Y00111868D01*
X00230309Y00112080D01*
X00229986Y00112214D01*
X00229641Y00112259D01*
X00206751D01*
X00206405Y00112214D01*
X00206082Y00112080D01*
X00205806Y00111868D01*
X00205593Y00111591D01*
X00205460Y00111269D01*
X00205414Y00110923D01*
Y00100033D01*
X00205460Y00099687D01*
X00205577Y00099405D01*
Y00098489D01*
X00204887Y00097533D01*
X00204389Y00097467D01*
X00203926Y00097275D01*
X00203528Y00096970D01*
X00203528Y00096970D01*
X00200892Y00094334D01*
X00200586Y00093936D01*
X00200395Y00093472D01*
X00200329Y00092975D01*
X00200329Y00092975D01*
Y00078357D01*
X00200329Y00078357D01*
X00200395Y00077860D01*
X00200586Y00077396D01*
X00200892Y00076998D01*
X00203528Y00074362D01*
X00203528Y00074362D01*
X00203926Y00074057D01*
X00204389Y00073865D01*
X00204887Y00073800D01*
X00204887Y00073800D01*
X00208565D01*
Y00059862D01*
X00208565Y00059862D01*
X00208565Y00059862D01*
Y00050415D01*
X00187006D01*
X00186067Y00051542D01*
Y00052274D01*
X00186195Y00052525D01*
X00186351Y00052759D01*
X00186388Y00052944D01*
X00197424D01*
X00197461Y00052759D01*
X00197745Y00052333D01*
X00198171Y00052049D01*
X00198673Y00051949D01*
X00204639D01*
X00205141Y00052049D01*
X00205567Y00052333D01*
X00205851Y00052759D01*
X00205951Y00053261D01*
Y00056726D01*
X00205851Y00057229D01*
X00205567Y00057655D01*
X00205141Y00057939D01*
X00204639Y00058039D01*
X00198673D01*
X00198171Y00057939D01*
X00197745Y00057655D01*
X00197461Y00057229D01*
X00197424Y00057043D01*
X00186388D01*
X00186351Y00057229D01*
X00186067Y00057655D01*
X00185641Y00057939D01*
X00185138Y00058039D01*
X00184205D01*
Y00061181D01*
X00185126D01*
X00185465Y00061226D01*
X00185782Y00061357D01*
X00186053Y00061565D01*
X00186262Y00061837D01*
X00186392Y00062153D01*
X00186437Y00062492D01*
Y00070932D01*
X00186392Y00071272D01*
X00186262Y00071588D01*
X00186053Y00071860D01*
X00185782Y00072068D01*
X00185465Y00072199D01*
X00185126Y00072244D01*
X00184205D01*
Y00074439D01*
X00184302Y00074518D01*
X00184679Y00074978D01*
X00184713Y00075041D01*
X00184736Y00075051D01*
X00186076D01*
X00186099Y00075041D01*
X00186133Y00074978D01*
X00186510Y00074518D01*
X00186970Y00074141D01*
X00187495Y00073860D01*
X00188064Y00073688D01*
X00188656Y00073629D01*
X00189248Y00073688D01*
X00189817Y00073860D01*
X00190342Y00074141D01*
X00190802Y00074518D01*
X00191179Y00074978D01*
X00191213Y00075041D01*
X00191236Y00075051D01*
X00192576D01*
X00192599Y00075041D01*
X00192633Y00074978D01*
X00193010Y00074518D01*
X00193470Y00074141D01*
X00193886Y00073918D01*
Y00080664D01*
Y00087410D01*
X00193470Y00087187D01*
X00193010Y00086810D01*
X00192735Y00086475D01*
X00191424Y00086407D01*
X00190577Y00087275D01*
Y00097543D01*
X00201266D01*
X00201266Y00097543D01*
X00201763Y00097608D01*
X00202227Y00097800D01*
X00202624Y00098106D01*
X00203503Y00098984D01*
X00203503Y00098984D01*
X00203808Y00099382D01*
X00204000Y00099846D01*
X00204066Y00100343D01*
Y00123877D01*
X00205414D01*
Y00120353D01*
X00205460Y00120007D01*
X00205593Y00119685D01*
X00205806Y00119408D01*
X00206082Y00119196D01*
X00206405Y00119062D01*
X00206751Y00119017D01*
X00229641D01*
X00229986Y00119062D01*
X00230309Y00119196D01*
X00230585Y00119408D01*
X00230798Y00119685D01*
X00230931Y00120007D01*
X00230977Y00120353D01*
Y00131243D01*
X00230931Y00131589D01*
X00230798Y00131911D01*
X00230585Y00132188D01*
X00230309Y00132400D01*
X00229986Y00132534D01*
X00229641Y00132579D01*
X00206751D01*
X00206405Y00132534D01*
X00206082Y00132400D01*
X00205806Y00132188D01*
X00205593Y00131911D01*
X00205460Y00131589D01*
X00205414Y00131243D01*
Y00127719D01*
X00204066D01*
Y00133307D01*
X00204085Y00133452D01*
Y00140897D01*
X00204040Y00141236D01*
X00203910Y00141551D01*
X00203702Y00141822D01*
X00203431Y00142030D01*
X00203115Y00142161D01*
X00202776Y00142205D01*
X00197331D01*
X00196993Y00142161D01*
X00196677Y00142030D01*
X00196406Y00141822D01*
X00196198Y00141551D01*
X00196067Y00141236D01*
X00196023Y00140897D01*
Y00133452D01*
X00196067Y00133113D01*
X00196198Y00132797D01*
X00196406Y00132526D01*
X00196677Y00132318D01*
X00196993Y00132188D01*
X00197331Y00132143D01*
X00200223D01*
Y00125798D01*
X00200223Y00125798D01*
X00200223Y00125798D01*
Y00101386D01*
X00189567D01*
X00189566Y00101386D01*
X00189069Y00101320D01*
X00188606Y00101128D01*
X00188208Y00100823D01*
X00188208Y00100823D01*
X00187297Y00099913D01*
X00186992Y00099515D01*
X00186800Y00099051D01*
X00186735Y00098554D01*
X00186735Y00098554D01*
Y00086994D01*
X00186510Y00086810D01*
X00186133Y00086350D01*
X00186099Y00086287D01*
X00186076Y00086278D01*
X00184736D01*
X00184713Y00086287D01*
X00184679Y00086350D01*
X00184302Y00086810D01*
X00183842Y00087187D01*
X00183317Y00087468D01*
X00182748Y00087640D01*
X00182156Y00087699D01*
X00181564Y00087640D01*
X00180995Y00087468D01*
X00180470Y00087187D01*
X00180010Y00086810D01*
X00179633Y00086350D01*
X00179599Y00086286D01*
X00179576Y00086277D01*
X00178236D01*
X00178213Y00086286D01*
X00178179Y00086350D01*
X00177802Y00086810D01*
X00177342Y00087187D01*
X00176817Y00087468D01*
X00176248Y00087640D01*
X00175656Y00087699D01*
X00175064Y00087640D01*
X00174495Y00087468D01*
X00173970Y00087187D01*
X00173510Y00086810D01*
X00173133Y00086350D01*
X00172852Y00085825D01*
X00172680Y00085256D01*
X00172621Y00084664D01*
Y00076664D01*
X00172680Y00076072D01*
X00172852Y00075503D01*
X00173133Y00074978D01*
X00173510Y00074518D01*
X00173970Y00074141D01*
X00174495Y00073860D01*
X00175064Y00073688D01*
X00175656Y00073629D01*
X00176248Y00073688D01*
X00176817Y00073860D01*
X00177342Y00074141D01*
X00177802Y00074518D01*
X00177962Y00074713D01*
X00179279Y00074782D01*
X00179365Y00074766D01*
X00180107Y00074000D01*
Y00072244D01*
X00179186D01*
X00178847Y00072199D01*
X00178530Y00072068D01*
X00178259Y00071860D01*
X00178050Y00071588D01*
X00177920Y00071272D01*
X00177875Y00070932D01*
Y00062492D01*
X00177920Y00062153D01*
X00178050Y00061837D01*
X00178259Y00061565D01*
X00178530Y00061357D01*
X00178847Y00061226D01*
X00179186Y00061181D01*
X00180107D01*
Y00058039D01*
X00179174D01*
X00178671Y00057939D01*
X00178245Y00057655D01*
X00177961Y00057229D01*
X00177861Y00056726D01*
Y00053261D01*
X00177961Y00052759D01*
X00178117Y00052525D01*
X00178245Y00052274D01*
Y00051214D01*
X00178117Y00050963D01*
X00177961Y00050729D01*
X00177861Y00050226D01*
Y00046761D01*
X00177961Y00046259D01*
X00178117Y00046025D01*
X00178245Y00045774D01*
Y00044714D01*
X00178117Y00044463D01*
X00177961Y00044229D01*
X00177861Y00043727D01*
Y00043264D01*
X00186451D01*
Y00043727D01*
X00186351Y00044229D01*
X00186195Y00044463D01*
X00186067Y00044714D01*
Y00045774D01*
X00186195Y00046025D01*
X00186351Y00046259D01*
X00186414Y00046573D01*
X00209515D01*
X00209515Y00046573D01*
X00209834Y00046614D01*
X00210275Y00046463D01*
X00210877Y00046063D01*
X00211074Y00045834D01*
X00211104Y00045784D01*
Y00002145D01*
X00030000D01*
X00029915Y00002134D01*
X00027813Y00002217D01*
X00025640Y00002474D01*
X00023494Y00002901D01*
X00021388Y00003495D01*
X00019335Y00004252D01*
X00017348Y00005168D01*
X00015438Y00006238D01*
X00013619Y00007453D01*
X00011901Y00008808D01*
X00010294Y00010294D01*
X00008808Y00011901D01*
X00007454Y00013619D01*
X00006238Y00015438D01*
X00005168Y00017348D01*
X00004252Y00019335D01*
X00003495Y00021388D01*
X00002901Y00023494D01*
X00002474Y00025640D01*
X00002217Y00027813D01*
X00002134Y00029915D01*
X00002145Y00030000D01*
Y00290369D01*
X00002217Y00292187D01*
X00002474Y00294360D01*
X00002901Y00296506D01*
X00003495Y00298612D01*
X00004252Y00300665D01*
X00005168Y00302652D01*
X00006238Y00304562D01*
X00007453Y00306381D01*
X00008808Y00308099D01*
X00010294Y00309706D01*
X00011901Y00311192D01*
X00013619Y00312547D01*
X00015438Y00313762D01*
X00017348Y00314832D01*
X00019335Y00315748D01*
X00021388Y00316505D01*
X00023494Y00317099D01*
X00025640Y00317526D01*
X00027813Y00317783D01*
X00029915Y00317866D01*
X00030000Y00317855D01*
X00410000D01*
X00410084Y00317866D01*
X00412187Y00317783D01*
D02*
G37*
%LPC*%
G36*
X00138815Y00316511D02*
X00132875D01*
X00132535Y00316467D01*
X00132219Y00316336D01*
X00131947Y00316127D01*
X00131739Y00315856D01*
X00131670Y00315689D01*
X00131403Y00315416D01*
X00130680Y00314982D01*
X00130293Y00314887D01*
X00129950Y00314991D01*
X00129152Y00315070D01*
X00128354Y00314991D01*
X00127587Y00314758D01*
X00126880Y00314380D01*
X00125626Y00314994D01*
Y00315200D01*
X00125581Y00315539D01*
X00125450Y00315856D01*
X00125242Y00316127D01*
X00124970Y00316336D01*
X00124654Y00316467D01*
X00124315Y00316511D01*
X00118375D01*
X00118035Y00316467D01*
X00117719Y00316336D01*
X00117447Y00316127D01*
X00117239Y00315856D01*
X00117108Y00315539D01*
X00117063Y00315200D01*
Y00307276D01*
X00115545D01*
X00115540Y00307299D01*
X00115162Y00308210D01*
X00114647Y00309052D01*
X00114006Y00309802D01*
X00113255Y00310443D01*
X00112414Y00310959D01*
X00111502Y00311336D01*
X00110542Y00311567D01*
X00109558Y00311644D01*
X00108575Y00311567D01*
X00107615Y00311336D01*
X00106703Y00310959D01*
X00105862Y00310443D01*
X00105111Y00309802D01*
X00104470Y00309052D01*
X00103955Y00308210D01*
X00103577Y00307299D01*
X00103347Y00306339D01*
X00103269Y00305355D01*
X00103347Y00304371D01*
X00103577Y00303411D01*
X00103955Y00302500D01*
X00104470Y00301658D01*
X00105111Y00300908D01*
X00105862Y00300267D01*
X00106703Y00299751D01*
X00107615Y00299373D01*
X00108575Y00299143D01*
X00109558Y00299066D01*
X00110542Y00299143D01*
X00111502Y00299373D01*
X00112414Y00299751D01*
X00113255Y00300267D01*
X00114006Y00300908D01*
X00114647Y00301658D01*
X00115162Y00302500D01*
X00115540Y00303411D01*
X00115545Y00303433D01*
X00117313D01*
Y00296007D01*
X00117358Y00295669D01*
X00117489Y00295353D01*
X00117697Y00295082D01*
X00117968Y00294874D01*
X00118283Y00294743D01*
X00118622Y00294699D01*
X00120018D01*
Y00293399D01*
X00119841D01*
X00119502Y00293354D01*
X00119186Y00293224D01*
X00118916Y00293016D01*
X00118708Y00292745D01*
X00118577Y00292429D01*
X00118532Y00292090D01*
Y00286646D01*
X00118577Y00286307D01*
X00118708Y00285991D01*
X00118916Y00285720D01*
X00119186Y00285512D01*
X00119502Y00285381D01*
X00119841Y00285337D01*
X00127286D01*
X00127625Y00285381D01*
X00127940Y00285512D01*
X00128211Y00285720D01*
X00128419Y00285991D01*
X00128550Y00286307D01*
X00128595Y00286646D01*
Y00287446D01*
X00132279D01*
Y00284629D01*
X00132324Y00284290D01*
X00132455Y00283975D01*
X00132662Y00283704D01*
X00132933Y00283496D01*
X00133249Y00283365D01*
X00133587Y00283321D01*
X00138933D01*
X00139272Y00283365D01*
X00139587Y00283496D01*
X00139858Y00283704D01*
X00140066Y00283975D01*
X00140197Y00284290D01*
X00140242Y00284629D01*
Y00292075D01*
X00140197Y00292414D01*
X00140066Y00292729D01*
X00139858Y00293000D01*
X00139587Y00293208D01*
X00139272Y00293339D01*
X00138933Y00293383D01*
X00133587D01*
X00133249Y00293339D01*
X00132933Y00293208D01*
X00132662Y00293000D01*
X00132455Y00292729D01*
X00132324Y00292414D01*
X00132279Y00292075D01*
Y00291289D01*
X00128595D01*
Y00292090D01*
X00128550Y00292429D01*
X00128419Y00292745D01*
X00128211Y00293016D01*
X00127940Y00293224D01*
X00127625Y00293354D01*
X00127286Y00293399D01*
X00123861D01*
Y00294699D01*
X00124067D01*
X00124406Y00294743D01*
X00124721Y00294874D01*
X00124992Y00295082D01*
X00125200Y00295353D01*
X00125331Y00295669D01*
X00125376Y00296007D01*
Y00303452D01*
X00125331Y00303791D01*
X00125200Y00304107D01*
X00125037Y00304320D01*
X00124990Y00304491D01*
X00124986Y00304732D01*
X00125055Y00305475D01*
X00125167Y00305776D01*
X00125242Y00305833D01*
X00125450Y00306104D01*
X00125581Y00306420D01*
X00125626Y00306760D01*
Y00306966D01*
X00126880Y00307579D01*
X00127587Y00307201D01*
X00128354Y00306969D01*
X00129152Y00306890D01*
X00129950Y00306969D01*
X00130293Y00307073D01*
X00130680Y00306978D01*
X00131403Y00306544D01*
X00131670Y00306271D01*
X00131739Y00306104D01*
X00131947Y00305833D01*
X00132022Y00305776D01*
X00132135Y00305475D01*
X00132203Y00304732D01*
X00132199Y00304491D01*
X00132152Y00304320D01*
X00131989Y00304107D01*
X00131858Y00303791D01*
X00131813Y00303452D01*
Y00296007D01*
X00131858Y00295669D01*
X00131989Y00295353D01*
X00132197Y00295082D01*
X00132468Y00294874D01*
X00132783Y00294743D01*
X00133122Y00294699D01*
X00138567D01*
X00138906Y00294743D01*
X00139221Y00294874D01*
X00139493Y00295082D01*
X00139700Y00295353D01*
X00139831Y00295669D01*
X00139876Y00296007D01*
Y00303452D01*
X00139831Y00303791D01*
X00139700Y00304107D01*
X00139537Y00304320D01*
X00139490Y00304491D01*
X00139486Y00304732D01*
X00139555Y00305475D01*
X00139668Y00305776D01*
X00139742Y00305833D01*
X00139950Y00306104D01*
X00140081Y00306420D01*
X00140126Y00306760D01*
Y00315200D01*
X00140081Y00315539D01*
X00139950Y00315856D01*
X00139742Y00316127D01*
X00139470Y00316336D01*
X00139154Y00316467D01*
X00138815Y00316511D01*
D02*
G37*
G36*
X00311464Y00308925D02*
X00301474D01*
Y00304344D01*
X00312805D01*
Y00307584D01*
X00312759Y00307931D01*
X00312625Y00308255D01*
X00312412Y00308533D01*
X00312134Y00308746D01*
X00311811Y00308880D01*
X00311464Y00308925D01*
D02*
G37*
G36*
X00296073D02*
X00286084D01*
X00285736Y00308880D01*
X00285413Y00308746D01*
X00285135Y00308533D01*
X00284922Y00308255D01*
X00284788Y00307931D01*
X00284742Y00307584D01*
Y00304344D01*
X00296073D01*
Y00308925D01*
D02*
G37*
G36*
X00281961D02*
X00271971D01*
Y00304344D01*
X00283302D01*
Y00307584D01*
X00283257Y00307931D01*
X00283123Y00308255D01*
X00282910Y00308533D01*
X00282632Y00308746D01*
X00282308Y00308880D01*
X00281961Y00308925D01*
D02*
G37*
G36*
X00266571D02*
X00256581D01*
X00256234Y00308880D01*
X00255910Y00308746D01*
X00255632Y00308533D01*
X00255419Y00308255D01*
X00255285Y00307931D01*
X00255240Y00307584D01*
Y00304344D01*
X00266571D01*
Y00308925D01*
D02*
G37*
G36*
X00351385Y00316068D02*
X00336535D01*
X00336184Y00316021D01*
X00335857Y00315886D01*
X00335576Y00315670D01*
X00335360Y00315389D01*
X00335225Y00315062D01*
X00335178Y00314711D01*
Y00294861D01*
X00335214Y00294593D01*
X00335098Y00294545D01*
X00334700Y00294240D01*
X00334700Y00294240D01*
X00328460Y00287999D01*
X00328154Y00287602D01*
X00327962Y00287138D01*
X00327897Y00286641D01*
X00327897Y00286640D01*
Y00280068D01*
X00315535D01*
X00315184Y00280021D01*
X00314857Y00279886D01*
X00314576Y00279670D01*
X00314360Y00279389D01*
X00314225Y00279062D01*
X00314178Y00278711D01*
Y00258861D01*
X00314225Y00258510D01*
X00314360Y00258183D01*
X00314576Y00257902D01*
X00314857Y00257686D01*
X00315184Y00257551D01*
X00315535Y00257504D01*
X00317504D01*
X00317723Y00257406D01*
X00318618Y00256639D01*
Y00233749D01*
X00318664Y00233403D01*
X00318797Y00233081D01*
X00319010Y00232804D01*
X00319286Y00232592D01*
X00319609Y00232458D01*
X00319955Y00232413D01*
X00330845D01*
X00331190Y00232458D01*
X00331513Y00232592D01*
X00331790Y00232804D01*
X00332002Y00233081D01*
X00332135Y00233403D01*
X00332181Y00233749D01*
Y00256639D01*
X00332135Y00256985D01*
X00332002Y00257307D01*
X00331790Y00257584D01*
X00331789Y00257584D01*
X00331513Y00257796D01*
X00331695Y00258510D01*
X00331742Y00258861D01*
Y00278711D01*
X00331740Y00278725D01*
Y00285845D01*
X00336854Y00290960D01*
X00355733D01*
X00355742Y00290958D01*
X00361186D01*
X00361525Y00291003D01*
X00361841Y00291134D01*
X00362112Y00291342D01*
X00362320Y00291613D01*
X00362451Y00291928D01*
X00362495Y00292267D01*
Y00299712D01*
X00362451Y00300051D01*
X00362320Y00300366D01*
X00362112Y00300637D01*
X00361841Y00300846D01*
X00361525Y00300976D01*
X00361186Y00301021D01*
X00355742D01*
X00355403Y00300976D01*
X00355087Y00300846D01*
X00354816Y00300637D01*
X00354608Y00300366D01*
X00354477Y00300051D01*
X00354433Y00299712D01*
Y00294802D01*
X00352793D01*
X00352742Y00294861D01*
Y00305571D01*
X00354433D01*
Y00303770D01*
X00354477Y00303431D01*
X00354608Y00303115D01*
X00354816Y00302844D01*
X00355087Y00302636D01*
X00355403Y00302506D01*
X00355742Y00302461D01*
X00361186D01*
X00361525Y00302506D01*
X00361841Y00302636D01*
X00362112Y00302844D01*
X00362320Y00303115D01*
X00362451Y00303431D01*
X00362495Y00303770D01*
Y00311215D01*
X00362451Y00311553D01*
X00362320Y00311869D01*
X00362112Y00312140D01*
X00361841Y00312348D01*
X00361525Y00312479D01*
X00361186Y00312523D01*
X00355742D01*
X00355403Y00312479D01*
X00355087Y00312348D01*
X00354816Y00312140D01*
X00354608Y00311869D01*
X00354477Y00311553D01*
X00354433Y00311215D01*
Y00309414D01*
X00352742D01*
Y00314711D01*
X00352695Y00315062D01*
X00352560Y00315389D01*
X00352344Y00315670D01*
X00352063Y00315886D01*
X00351736Y00316021D01*
X00351385Y00316068D01*
D02*
G37*
G36*
X00148353Y00316435D02*
X00142908D01*
X00142569Y00316391D01*
X00142254Y00316260D01*
X00141982Y00316052D01*
X00141775Y00315781D01*
X00141644Y00315465D01*
X00141599Y00315126D01*
Y00307682D01*
X00141644Y00307343D01*
X00141775Y00307027D01*
X00141860Y00306917D01*
X00141924Y00306338D01*
X00141819Y00305588D01*
X00141736Y00305406D01*
X00141733Y00305404D01*
X00141525Y00305132D01*
X00141394Y00304816D01*
X00141349Y00304477D01*
Y00296036D01*
X00141394Y00295697D01*
X00141525Y00295381D01*
X00141733Y00295109D01*
X00142005Y00294901D01*
X00142321Y00294770D01*
X00142660Y00294725D01*
X00148600D01*
X00148940Y00294770D01*
X00149256Y00294901D01*
X00149528Y00295109D01*
X00149736Y00295381D01*
X00149867Y00295697D01*
X00149912Y00296036D01*
Y00304477D01*
X00149867Y00304816D01*
X00149736Y00305132D01*
X00149528Y00305404D01*
X00149524Y00305406D01*
X00149442Y00305588D01*
X00149337Y00306338D01*
X00149401Y00306917D01*
X00149486Y00307027D01*
X00149617Y00307343D01*
X00149662Y00307682D01*
Y00315126D01*
X00149617Y00315465D01*
X00149486Y00315781D01*
X00149278Y00316052D01*
X00149007Y00316260D01*
X00148692Y00316391D01*
X00148353Y00316435D01*
D02*
G37*
G36*
X00312805Y00298944D02*
X00301474D01*
Y00294363D01*
X00311464D01*
X00311811Y00294408D01*
X00312134Y00294542D01*
X00312412Y00294755D01*
X00312625Y00295033D01*
X00312759Y00295357D01*
X00312805Y00295704D01*
Y00298944D01*
D02*
G37*
G36*
X00296073D02*
X00284742D01*
Y00295704D01*
X00284788Y00295357D01*
X00284922Y00295033D01*
X00285135Y00294755D01*
X00285413Y00294542D01*
X00285736Y00294408D01*
X00286084Y00294363D01*
X00296073D01*
Y00298944D01*
D02*
G37*
G36*
X00283302D02*
X00271971D01*
Y00294363D01*
X00281961D01*
X00282308Y00294408D01*
X00282632Y00294542D01*
X00282910Y00294755D01*
X00283123Y00295033D01*
X00283257Y00295357D01*
X00283302Y00295704D01*
Y00298944D01*
D02*
G37*
G36*
X00266571D02*
X00255240D01*
Y00295704D01*
X00255285Y00295357D01*
X00255419Y00295033D01*
X00255632Y00294755D01*
X00255910Y00294542D01*
X00256234Y00294408D01*
X00256581Y00294363D01*
X00266571D01*
Y00298944D01*
D02*
G37*
G36*
X00112674Y00296367D02*
X00102684D01*
Y00291786D01*
X00114016D01*
Y00295026D01*
X00113970Y00295373D01*
X00113836Y00295697D01*
X00113623Y00295975D01*
X00113345Y00296188D01*
X00113021Y00296322D01*
X00112674Y00296367D01*
D02*
G37*
G36*
X00097284D02*
X00087294D01*
X00086947Y00296322D01*
X00086623Y00296188D01*
X00086345Y00295975D01*
X00086132Y00295697D01*
X00085998Y00295373D01*
X00085953Y00295026D01*
Y00291786D01*
X00097284D01*
Y00296367D01*
D02*
G37*
G36*
X00083211D02*
X00073221D01*
Y00291786D01*
X00084552D01*
Y00295026D01*
X00084507Y00295373D01*
X00084373Y00295697D01*
X00084159Y00295975D01*
X00083882Y00296188D01*
X00083558Y00296322D01*
X00083211Y00296367D01*
D02*
G37*
G36*
X00067821D02*
X00057831D01*
X00057484Y00296322D01*
X00057160Y00296188D01*
X00056882Y00295975D01*
X00056669Y00295697D01*
X00056535Y00295373D01*
X00056489Y00295026D01*
Y00291786D01*
X00067821D01*
Y00296367D01*
D02*
G37*
G36*
X00361186Y00289438D02*
X00355742D01*
X00355403Y00289394D01*
X00355087Y00289263D01*
X00354816Y00289055D01*
X00354608Y00288784D01*
X00354477Y00288468D01*
X00354433Y00288129D01*
Y00283211D01*
X00351688D01*
X00351688Y00283211D01*
X00351190Y00283145D01*
X00350727Y00282953D01*
X00350329Y00282648D01*
X00350329Y00282648D01*
X00349419Y00281738D01*
X00349114Y00281341D01*
X00348922Y00280877D01*
X00348857Y00280380D01*
X00347682Y00280068D01*
X00336535D01*
X00336184Y00280021D01*
X00335857Y00279886D01*
X00335576Y00279670D01*
X00335360Y00279389D01*
X00335225Y00279062D01*
X00335178Y00278711D01*
Y00258861D01*
X00335225Y00258510D01*
X00335360Y00258183D01*
X00335576Y00257902D01*
X00335857Y00257686D01*
X00336184Y00257551D01*
X00336535Y00257504D01*
X00337316D01*
X00337535Y00257406D01*
X00338430Y00256639D01*
Y00233749D01*
X00338476Y00233403D01*
X00338609Y00233081D01*
X00338822Y00232804D01*
X00339098Y00232592D01*
X00339421Y00232458D01*
X00339767Y00232413D01*
X00350657D01*
X00351002Y00232458D01*
X00351325Y00232592D01*
X00351601Y00232804D01*
X00351814Y00233081D01*
X00351947Y00233403D01*
X00351993Y00233749D01*
Y00256639D01*
X00351947Y00256985D01*
X00351823Y00257318D01*
X00352344Y00257902D01*
X00352560Y00258183D01*
X00352695Y00258510D01*
X00352742Y00258861D01*
Y00278711D01*
X00353860Y00279368D01*
X00358464D01*
X00358524Y00279376D01*
X00361186D01*
X00361525Y00279420D01*
X00361841Y00279551D01*
X00362112Y00279759D01*
X00362320Y00280030D01*
X00362451Y00280346D01*
X00362495Y00280684D01*
Y00288129D01*
X00362451Y00288468D01*
X00362320Y00288784D01*
X00362112Y00289055D01*
X00361841Y00289263D01*
X00361525Y00289394D01*
X00361186Y00289438D01*
D02*
G37*
G36*
X00114016Y00286386D02*
X00102684D01*
Y00281805D01*
X00112674D01*
X00113021Y00281850D01*
X00113345Y00281984D01*
X00113623Y00282197D01*
X00113836Y00282475D01*
X00113970Y00282799D01*
X00114016Y00283146D01*
Y00286386D01*
D02*
G37*
G36*
X00097284D02*
X00085953D01*
Y00283146D01*
X00085998Y00282799D01*
X00086132Y00282475D01*
X00086345Y00282197D01*
X00086623Y00281984D01*
X00086947Y00281850D01*
X00087294Y00281805D01*
X00097284D01*
Y00286386D01*
D02*
G37*
G36*
X00084552D02*
X00073221D01*
Y00281805D01*
X00083211D01*
X00083558Y00281850D01*
X00083882Y00281984D01*
X00084159Y00282197D01*
X00084373Y00282475D01*
X00084507Y00282799D01*
X00084552Y00283146D01*
Y00286386D01*
D02*
G37*
G36*
X00067821D02*
X00056489D01*
Y00283146D01*
X00056535Y00282799D01*
X00056669Y00282475D01*
X00056882Y00282197D01*
X00057160Y00281984D01*
X00057484Y00281850D01*
X00057831Y00281805D01*
X00067821D01*
Y00286386D01*
D02*
G37*
G36*
X00148433Y00293383D02*
X00143087D01*
X00142749Y00293339D01*
X00142433Y00293208D01*
X00142162Y00293000D01*
X00141954Y00292729D01*
X00141824Y00292414D01*
X00141779Y00292075D01*
Y00284629D01*
X00141824Y00284290D01*
X00141954Y00283975D01*
X00142162Y00283704D01*
X00142433Y00283496D01*
X00142593Y00283430D01*
X00142713Y00282709D01*
X00142679Y00282094D01*
X00142478Y00281929D01*
X00141900Y00281225D01*
X00141471Y00280423D01*
X00141207Y00279552D01*
X00141118Y00278646D01*
X00140040Y00277686D01*
X00128582D01*
X00128550Y00277929D01*
X00128419Y00278245D01*
X00128211Y00278516D01*
X00127940Y00278724D01*
X00127625Y00278855D01*
X00127286Y00278899D01*
X00119841D01*
X00119502Y00278855D01*
X00119186Y00278724D01*
X00118916Y00278516D01*
X00118708Y00278245D01*
X00118577Y00277929D01*
X00118532Y00277590D01*
Y00272146D01*
X00118577Y00271807D01*
X00118708Y00271491D01*
X00118916Y00271220D01*
X00119186Y00271012D01*
X00119502Y00270881D01*
X00119841Y00270837D01*
X00127286D01*
X00127625Y00270881D01*
X00127940Y00271012D01*
X00128211Y00271220D01*
X00128419Y00271491D01*
X00128550Y00271807D01*
X00128582Y00272050D01*
X00141982D01*
X00142712Y00272146D01*
X00143391Y00272427D01*
X00143975Y00272875D01*
X00145162Y00274063D01*
X00145760Y00274004D01*
X00146666Y00274093D01*
X00147537Y00274357D01*
X00148340Y00274786D01*
X00149043Y00275363D01*
X00149620Y00276067D01*
X00150049Y00276870D01*
X00150314Y00277740D01*
X00150403Y00278646D01*
X00150314Y00279552D01*
X00150049Y00280423D01*
X00149620Y00281225D01*
X00149043Y00281929D01*
X00148842Y00282094D01*
X00148808Y00282709D01*
X00148928Y00283430D01*
X00149087Y00283496D01*
X00149358Y00283704D01*
X00149566Y00283975D01*
X00149697Y00284290D01*
X00149742Y00284629D01*
Y00292075D01*
X00149697Y00292414D01*
X00149566Y00292729D01*
X00149358Y00293000D01*
X00149087Y00293208D01*
X00148772Y00293339D01*
X00148433Y00293383D01*
D02*
G37*
G36*
X00111836Y00275191D02*
X00045767Y00275189D01*
X00044771Y00275091D01*
X00043814Y00274800D01*
X00042931Y00274329D01*
X00042158Y00273694D01*
X00042158Y00273694D01*
X00032334Y00263871D01*
X00032334Y00263870D01*
X00031699Y00263097D01*
X00031228Y00262214D01*
X00030937Y00261257D01*
X00030839Y00260261D01*
Y00210340D01*
X00030846Y00210269D01*
X00030841Y00210197D01*
X00030895Y00209771D01*
X00030937Y00209345D01*
X00030958Y00209276D01*
X00030967Y00209205D01*
X00031103Y00208797D01*
X00031228Y00208387D01*
X00031261Y00208324D01*
X00031284Y00208256D01*
X00031497Y00207882D01*
X00031699Y00207505D01*
X00031745Y00207449D01*
X00031780Y00207387D01*
X00032062Y00207063D01*
X00032334Y00206731D01*
X00032390Y00206685D01*
X00032437Y00206631D01*
X00032776Y00206368D01*
X00033108Y00206096D01*
X00033171Y00206062D01*
X00033228Y00206018D01*
X00033612Y00205827D01*
X00033990Y00205625D01*
X00034059Y00205604D01*
X00034123Y00205571D01*
X00034537Y00205458D01*
X00034948Y00205334D01*
X00035019Y00205327D01*
X00035089Y00205308D01*
X00035473Y00205243D01*
X00036550Y00204932D01*
X00037585Y00204504D01*
X00038565Y00203962D01*
X00039479Y00203314D01*
X00040315Y00202567D01*
X00041061Y00201731D01*
X00041710Y00200818D01*
X00042252Y00199837D01*
X00042681Y00198802D01*
X00042991Y00197725D01*
X00043178Y00196621D01*
X00043257Y00195216D01*
X00043257Y00195215D01*
Y00186863D01*
X00043355Y00185867D01*
X00043646Y00184910D01*
X00044118Y00184027D01*
X00044752Y00183253D01*
X00045526Y00182619D01*
X00046409Y00182147D01*
X00047366Y00181856D01*
X00048362Y00181758D01*
X00081610D01*
X00082605Y00181856D01*
X00083089Y00182003D01*
X00084359Y00181283D01*
Y00175483D01*
X00079259D01*
Y00178263D01*
X00079214Y00178608D01*
X00079081Y00178928D01*
X00078870Y00179203D01*
X00078594Y00179414D01*
X00078274Y00179547D01*
X00077930Y00179592D01*
X00051525D01*
X00051181Y00179547D01*
X00050861Y00179414D01*
X00050585Y00179203D01*
X00050374Y00178928D01*
X00050241Y00178608D01*
X00050196Y00178263D01*
Y00168859D01*
X00050241Y00168515D01*
X00050374Y00168194D01*
X00050585Y00167919D01*
X00050861Y00167708D01*
X00051181Y00167575D01*
X00051525Y00167530D01*
X00077930D01*
X00078274Y00167575D01*
X00078594Y00167708D01*
X00078870Y00167919D01*
X00079081Y00168194D01*
X00079214Y00168515D01*
X00079259Y00168859D01*
Y00171640D01*
X00084359D01*
Y00146318D01*
X00083089Y00145489D01*
X00082501Y00145547D01*
X00048365Y00145547D01*
X00047369Y00145449D01*
X00046412Y00145158D01*
X00045529Y00144687D01*
X00044756Y00144052D01*
X00044121Y00143278D01*
X00043649Y00142396D01*
X00043359Y00141438D01*
X00043261Y00140442D01*
X00043261Y00134811D01*
X00043257Y00134788D01*
X00043178Y00133385D01*
X00042991Y00132281D01*
X00042681Y00131204D01*
X00042252Y00130169D01*
X00041710Y00129189D01*
X00041061Y00128275D01*
X00040315Y00127439D01*
X00039479Y00126693D01*
X00038565Y00126044D01*
X00037585Y00125503D01*
X00036550Y00125074D01*
X00035473Y00124763D01*
X00034369Y00124576D01*
X00033107Y00124505D01*
X00031729D01*
X00030734Y00124407D01*
X00029776Y00124116D01*
X00028893Y00123645D01*
X00028120Y00123010D01*
X00027485Y00122236D01*
X00027013Y00121354D01*
X00026723Y00120396D01*
X00026625Y00119400D01*
X00026625Y00054027D01*
X00026663Y00053640D01*
X00026684Y00053251D01*
X00026712Y00053143D01*
X00026723Y00053032D01*
X00026836Y00052659D01*
X00026933Y00052281D01*
X00026981Y00052181D01*
X00027013Y00052074D01*
X00027197Y00051730D01*
X00027366Y00051379D01*
X00027432Y00051290D01*
X00027485Y00051192D01*
X00027732Y00050890D01*
X00027966Y00050579D01*
X00028049Y00050504D01*
X00028120Y00050418D01*
X00028421Y00050171D01*
X00028711Y00049911D01*
X00028807Y00049854D01*
X00028893Y00049783D01*
X00029237Y00049599D01*
X00029572Y00049401D01*
X00029678Y00049364D01*
X00029776Y00049311D01*
X00030149Y00049198D01*
X00030516Y00049069D01*
X00030627Y00049053D01*
X00030733Y00049021D01*
X00031121Y00048983D01*
X00031507Y00048928D01*
X00031655Y00048921D01*
X00033298Y00048705D01*
X00034916Y00048346D01*
X00036496Y00047848D01*
X00038027Y00047214D01*
X00039497Y00046449D01*
X00040894Y00045559D01*
X00042209Y00044550D01*
X00043430Y00043430D01*
X00044550Y00042209D01*
X00045559Y00040894D01*
X00046449Y00039497D01*
X00047214Y00038027D01*
X00047848Y00036496D01*
X00048346Y00034916D01*
X00048705Y00033298D01*
X00048921Y00031655D01*
X00048952Y00030957D01*
X00048952Y00030955D01*
X00048952Y00030953D01*
X00049004Y00029780D01*
X00049074Y00029290D01*
X00049144Y00028799D01*
X00049145Y00028795D01*
X00049146Y00028790D01*
X00049312Y00028318D01*
X00049475Y00027855D01*
X00049477Y00027851D01*
X00049479Y00027846D01*
X00049734Y00027415D01*
X00049983Y00026993D01*
X00051145Y00025405D01*
X00053402Y00022200D01*
X00055572Y00018954D01*
X00057671Y00015644D01*
X00058695Y00013964D01*
X00058715Y00013937D01*
X00058729Y00013908D01*
X00058775Y00013850D01*
X00058810Y00013783D01*
X00059060Y00013478D01*
X00059297Y00013164D01*
X00059321Y00013142D01*
X00059341Y00013117D01*
X00059704Y00012732D01*
X00059897Y00012564D01*
X00060073Y00012378D01*
X00060873Y00011684D01*
X00061081Y00011537D01*
X00061274Y00011370D01*
X00062139Y00010759D01*
X00062362Y00010633D01*
X00062571Y00010486D01*
X00063492Y00009965D01*
X00063726Y00009862D01*
X00063949Y00009737D01*
X00064918Y00009311D01*
X00065161Y00009231D01*
X00065395Y00009129D01*
X00066402Y00008802D01*
X00066652Y00008747D01*
X00066895Y00008668D01*
X00067929Y00008443D01*
X00068140Y00008419D01*
X00068671Y00007346D01*
X00068736Y00006849D01*
X00068928Y00006385D01*
X00069233Y00005987D01*
X00071011Y00004209D01*
X00071011Y00004209D01*
X00071409Y00003904D01*
X00071873Y00003712D01*
X00072370Y00003647D01*
X00072370Y00003647D01*
X00110587D01*
X00110587Y00003647D01*
X00111084Y00003712D01*
X00111548Y00003904D01*
X00111946Y00004209D01*
X00114623Y00006886D01*
X00114623Y00006886D01*
X00114928Y00007284D01*
X00115120Y00007748D01*
X00115185Y00008245D01*
X00115185Y00008245D01*
Y00028394D01*
X00127800Y00041009D01*
X00163326D01*
X00163326Y00041009D01*
X00163824Y00041074D01*
X00164287Y00041266D01*
X00164685Y00041572D01*
X00168020Y00044907D01*
X00168020Y00044907D01*
X00168326Y00045305D01*
X00168518Y00045768D01*
X00168583Y00046266D01*
X00168583Y00046266D01*
Y00121243D01*
X00172621D01*
Y00119164D01*
X00172680Y00118572D01*
X00172852Y00118003D01*
X00173133Y00117478D01*
X00173510Y00117018D01*
X00173970Y00116641D01*
X00174495Y00116360D01*
X00175064Y00116188D01*
X00175656Y00116129D01*
X00176248Y00116188D01*
X00176817Y00116360D01*
X00177342Y00116641D01*
X00177802Y00117018D01*
X00178179Y00117478D01*
X00178213Y00117542D01*
X00178236Y00117551D01*
X00179576D01*
X00179599Y00117542D01*
X00179633Y00117478D01*
X00180010Y00117018D01*
X00180470Y00116641D01*
X00180995Y00116360D01*
X00181564Y00116188D01*
X00182156Y00116129D01*
X00182748Y00116188D01*
X00183317Y00116360D01*
X00183842Y00116641D01*
X00184302Y00117018D01*
X00184679Y00117478D01*
X00184713Y00117542D01*
X00184736Y00117551D01*
X00186076D01*
X00186099Y00117542D01*
X00186133Y00117478D01*
X00186510Y00117018D01*
X00186970Y00116641D01*
X00187495Y00116360D01*
X00188064Y00116188D01*
X00188656Y00116129D01*
X00189248Y00116188D01*
X00189817Y00116360D01*
X00190342Y00116641D01*
X00190802Y00117018D01*
X00191179Y00117478D01*
X00191213Y00117542D01*
X00191236Y00117551D01*
X00192576D01*
X00192599Y00117542D01*
X00192633Y00117478D01*
X00193010Y00117018D01*
X00193470Y00116641D01*
X00193995Y00116360D01*
X00194564Y00116188D01*
X00195156Y00116129D01*
X00195748Y00116188D01*
X00196317Y00116360D01*
X00196842Y00116641D01*
X00197302Y00117018D01*
X00197679Y00117478D01*
X00197960Y00118003D01*
X00198132Y00118572D01*
X00198191Y00119164D01*
Y00127164D01*
X00198132Y00127756D01*
X00197960Y00128325D01*
X00197679Y00128850D01*
X00197302Y00129310D01*
X00196842Y00129687D01*
X00196317Y00129968D01*
X00195748Y00130140D01*
X00195156Y00130199D01*
X00194564Y00130140D01*
X00193995Y00129968D01*
X00193470Y00129687D01*
X00193010Y00129310D01*
X00192633Y00128850D01*
X00192599Y00128786D01*
X00192576Y00128777D01*
X00191236D01*
X00191213Y00128786D01*
X00191179Y00128850D01*
X00190802Y00129310D01*
X00190342Y00129687D01*
X00189817Y00129968D01*
X00189248Y00130140D01*
X00188656Y00130199D01*
X00188064Y00130140D01*
X00187495Y00129968D01*
X00186970Y00129687D01*
X00186510Y00129310D01*
X00186133Y00128850D01*
X00186099Y00128787D01*
X00186076Y00128778D01*
X00184736D01*
X00184713Y00128787D01*
X00184679Y00128850D01*
X00184302Y00129310D01*
X00183842Y00129687D01*
X00183317Y00129968D01*
X00182748Y00130140D01*
X00182156Y00130199D01*
X00181564Y00130140D01*
X00180995Y00129968D01*
X00180470Y00129687D01*
X00180010Y00129310D01*
X00179633Y00128850D01*
X00179599Y00128786D01*
X00179576Y00128777D01*
X00178236D01*
X00178213Y00128786D01*
X00178179Y00128850D01*
X00177802Y00129310D01*
X00177342Y00129687D01*
X00176817Y00129968D01*
X00176248Y00130140D01*
X00175695Y00130195D01*
X00175694D01*
X00175656Y00130198D01*
X00175618Y00130195D01*
X00175617D01*
X00175064Y00130140D01*
X00174495Y00129968D01*
X00173970Y00129687D01*
X00173510Y00129310D01*
X00173133Y00128850D01*
X00172852Y00128325D01*
X00172680Y00127756D01*
X00172621Y00127164D01*
Y00125085D01*
X00168583D01*
Y00206359D01*
X00173197D01*
X00173197Y00206359D01*
X00173694Y00206424D01*
X00174158Y00206616D01*
X00174556Y00206921D01*
X00175438Y00207803D01*
X00175438Y00207803D01*
X00175743Y00208201D01*
X00175935Y00208665D01*
X00176000Y00209162D01*
X00176000Y00209162D01*
Y00214607D01*
X00177801D01*
X00178140Y00214652D01*
X00178456Y00214782D01*
X00178727Y00214990D01*
X00178935Y00215261D01*
X00179066Y00215577D01*
X00179110Y00215916D01*
Y00221360D01*
X00179066Y00221699D01*
X00178935Y00222015D01*
X00178727Y00222286D01*
X00178456Y00222494D01*
X00178140Y00222625D01*
X00177801Y00222669D01*
X00170357D01*
X00170018Y00222625D01*
X00169702Y00222494D01*
X00169431Y00222286D01*
X00169223Y00222015D01*
X00169092Y00221699D01*
X00169048Y00221360D01*
Y00215916D01*
X00169092Y00215577D01*
X00169223Y00215261D01*
X00169431Y00214990D01*
X00169702Y00214782D01*
X00170018Y00214652D01*
X00170357Y00214607D01*
X00172157D01*
Y00210201D01*
X00167556D01*
X00167556Y00210201D01*
X00167282Y00210166D01*
X00166695Y00210443D01*
X00166012Y00211021D01*
Y00231217D01*
X00169048D01*
Y00230416D01*
X00169092Y00230077D01*
X00169223Y00229761D01*
X00169431Y00229490D01*
X00169702Y00229282D01*
X00170018Y00229151D01*
X00170357Y00229107D01*
X00177801D01*
X00178140Y00229151D01*
X00178456Y00229282D01*
X00178727Y00229490D01*
X00178935Y00229761D01*
X00179066Y00230077D01*
X00179110Y00230416D01*
Y00231217D01*
X00180550D01*
Y00230416D01*
X00180595Y00230077D01*
X00180726Y00229761D01*
X00180934Y00229490D01*
X00181205Y00229282D01*
X00181520Y00229151D01*
X00181859Y00229107D01*
X00189304D01*
X00189643Y00229151D01*
X00189958Y00229282D01*
X00190229Y00229490D01*
X00190437Y00229761D01*
X00190494Y00229897D01*
X00190836Y00230143D01*
X00191295Y00230119D01*
X00191395Y00230096D01*
X00192228Y00229761D01*
X00192436Y00229490D01*
X00192707Y00229282D01*
X00193023Y00229151D01*
X00193361Y00229107D01*
X00195814D01*
Y00233138D01*
Y00237702D01*
X00195493Y00238439D01*
X00195986Y00238967D01*
X00196451Y00238856D01*
X00197435Y00238778D01*
X00198419Y00238856D01*
X00199379Y00239086D01*
X00200291Y00239464D01*
X00201132Y00239979D01*
X00201882Y00240620D01*
X00202523Y00241371D01*
X00203039Y00242212D01*
X00203417Y00243124D01*
X00203647Y00244084D01*
X00203724Y00245068D01*
X00203647Y00246052D01*
X00203417Y00247011D01*
X00203039Y00247923D01*
X00202523Y00248764D01*
X00201882Y00249515D01*
X00201132Y00250156D01*
X00200291Y00250672D01*
X00199379Y00251049D01*
X00198419Y00251280D01*
X00197435Y00251357D01*
X00196451Y00251280D01*
X00195492Y00251049D01*
X00194580Y00250672D01*
X00193738Y00250156D01*
X00192988Y00249515D01*
X00192347Y00248764D01*
X00191831Y00247923D01*
X00191454Y00247011D01*
X00191223Y00246052D01*
X00191146Y00245068D01*
X00191223Y00244084D01*
X00191454Y00243124D01*
X00191831Y00242212D01*
X00192347Y00241371D01*
X00192438Y00241264D01*
X00190070Y00238896D01*
X00189765Y00238498D01*
X00189573Y00238035D01*
X00189408Y00237506D01*
X00188365Y00237169D01*
X00181859D01*
X00181520Y00237125D01*
X00181205Y00236994D01*
X00180934Y00236786D01*
X00180726Y00236515D01*
X00180595Y00236199D01*
X00180550Y00235861D01*
Y00235060D01*
X00179110D01*
Y00235861D01*
X00179066Y00236199D01*
X00178935Y00236515D01*
X00178727Y00236786D01*
X00178456Y00236994D01*
X00178140Y00237125D01*
X00177801Y00237169D01*
X00170357D01*
X00170018Y00237125D01*
X00169702Y00236994D01*
X00169431Y00236786D01*
X00169223Y00236515D01*
X00169092Y00236199D01*
X00169048Y00235861D01*
Y00235060D01*
X00166079D01*
Y00252308D01*
X00166013Y00252805D01*
X00165821Y00253269D01*
X00165516Y00253667D01*
X00165516Y00253667D01*
X00163464Y00255719D01*
X00163066Y00256024D01*
X00162602Y00256216D01*
X00162105Y00256282D01*
X00162105Y00256282D01*
X00119058D01*
X00117838Y00257552D01*
X00117838Y00259023D01*
X00132293D01*
X00132324Y00258790D01*
X00132455Y00258475D01*
X00132662Y00258204D01*
X00132933Y00257996D01*
X00133249Y00257865D01*
X00133587Y00257821D01*
X00138933D01*
X00139272Y00257865D01*
X00139587Y00257996D01*
X00139858Y00258204D01*
X00140066Y00258475D01*
X00140197Y00258790D01*
X00140228Y00259023D01*
X00141793D01*
X00141824Y00258790D01*
X00141954Y00258475D01*
X00142162Y00258204D01*
X00142433Y00257996D01*
X00142749Y00257865D01*
X00143087Y00257821D01*
X00148433D01*
X00148772Y00257865D01*
X00149087Y00257996D01*
X00149358Y00258204D01*
X00149566Y00258475D01*
X00149697Y00258790D01*
X00149742Y00259129D01*
Y00266575D01*
X00149697Y00266914D01*
X00149566Y00267229D01*
X00149358Y00267500D01*
X00149087Y00267708D01*
X00148772Y00267839D01*
X00148433Y00267883D01*
X00143087D01*
X00142749Y00267839D01*
X00142433Y00267708D01*
X00142162Y00267500D01*
X00141954Y00267229D01*
X00141824Y00266914D01*
X00141793Y00266680D01*
X00140228D01*
X00140197Y00266914D01*
X00140066Y00267229D01*
X00139858Y00267500D01*
X00139587Y00267708D01*
X00139272Y00267839D01*
X00138933Y00267883D01*
X00133587D01*
X00133249Y00267839D01*
X00132933Y00267708D01*
X00132662Y00267500D01*
X00132455Y00267229D01*
X00132324Y00266914D01*
X00132293Y00266680D01*
X00118737D01*
X00117839Y00267578D01*
Y00269188D01*
X00117740Y00270184D01*
X00117450Y00271142D01*
X00116978Y00272024D01*
X00116343Y00272798D01*
X00115445Y00273696D01*
X00114672Y00274331D01*
X00113789Y00274802D01*
X00112832Y00275093D01*
X00111836Y00275191D01*
D02*
G37*
G36*
X00427831Y00264281D02*
X00423904D01*
Y00257269D01*
X00429165D01*
Y00262948D01*
X00429120Y00263293D01*
X00428987Y00263614D01*
X00428775Y00263891D01*
X00428498Y00264103D01*
X00428177Y00264236D01*
X00427831Y00264281D01*
D02*
G37*
G36*
X00421364D02*
X00417436D01*
X00417091Y00264236D01*
X00416769Y00264103D01*
X00416493Y00263891D01*
X00416281Y00263614D01*
X00416148Y00263293D01*
X00416103Y00262948D01*
Y00257269D01*
X00421364D01*
Y00264281D01*
D02*
G37*
G36*
X00375934Y00254995D02*
X00374234D01*
Y00250734D01*
X00377245D01*
Y00253684D01*
X00377201Y00254023D01*
X00377070Y00254340D01*
X00376861Y00254611D01*
X00376590Y00254820D01*
X00376273Y00254951D01*
X00375934Y00254995D01*
D02*
G37*
G36*
X00371694D02*
X00369994D01*
X00369655Y00254951D01*
X00369338Y00254820D01*
X00369067Y00254611D01*
X00368858Y00254340D01*
X00368727Y00254023D01*
X00368683Y00253684D01*
Y00250734D01*
X00371694D01*
Y00254995D01*
D02*
G37*
G36*
X00429165Y00254729D02*
X00423904D01*
Y00247719D01*
X00427831D01*
X00428177Y00247764D01*
X00428498Y00247897D01*
X00428775Y00248109D01*
X00428987Y00248386D01*
X00429120Y00248707D01*
X00429165Y00249053D01*
Y00254729D01*
D02*
G37*
G36*
X00421364D02*
X00416103D01*
Y00249053D01*
X00416148Y00248707D01*
X00416281Y00248386D01*
X00416493Y00248109D01*
X00416769Y00247897D01*
X00417091Y00247764D01*
X00417436Y00247719D01*
X00421364D01*
Y00254729D01*
D02*
G37*
G36*
X00187450Y00251121D02*
X00180950D01*
Y00247540D01*
X00188781D01*
Y00249790D01*
X00188736Y00250134D01*
X00188603Y00250455D01*
X00188391Y00250731D01*
X00188116Y00250943D01*
X00187794Y00251076D01*
X00187450Y00251121D01*
D02*
G37*
G36*
X00175550D02*
X00169050D01*
X00168705Y00251076D01*
X00168384Y00250943D01*
X00168109Y00250731D01*
X00167897Y00250455D01*
X00167764Y00250134D01*
X00167719Y00249790D01*
Y00247540D01*
X00175550D01*
Y00251121D01*
D02*
G37*
G36*
X00022884Y00256223D02*
X00019644D01*
Y00244891D01*
X00024225D01*
Y00254881D01*
X00024180Y00255229D01*
X00024046Y00255552D01*
X00023833Y00255830D01*
X00023555Y00256043D01*
X00023231Y00256177D01*
X00022884Y00256223D01*
D02*
G37*
G36*
X00014244D02*
X00011004D01*
X00010657Y00256177D01*
X00010333Y00256043D01*
X00010056Y00255830D01*
X00009842Y00255552D01*
X00009708Y00255229D01*
X00009663Y00254881D01*
Y00244891D01*
X00014244D01*
Y00256223D01*
D02*
G37*
G36*
X00377245Y00248194D02*
X00374234D01*
Y00243933D01*
X00375934D01*
X00376273Y00243977D01*
X00376590Y00244108D01*
X00376861Y00244317D01*
X00377070Y00244588D01*
X00377201Y00244904D01*
X00377245Y00245244D01*
Y00248194D01*
D02*
G37*
G36*
X00371694D02*
X00368683D01*
Y00245244D01*
X00368727Y00244904D01*
X00368858Y00244588D01*
X00369067Y00244317D01*
X00369338Y00244108D01*
X00369655Y00243977D01*
X00369994Y00243933D01*
X00371694D01*
Y00248194D01*
D02*
G37*
G36*
X00188781Y00242140D02*
X00180950D01*
Y00238559D01*
X00187450D01*
X00187794Y00238604D01*
X00188116Y00238737D01*
X00188391Y00238948D01*
X00188603Y00239224D01*
X00188736Y00239545D01*
X00188781Y00239890D01*
Y00242140D01*
D02*
G37*
G36*
X00175550D02*
X00167719D01*
Y00239890D01*
X00167764Y00239545D01*
X00167897Y00239224D01*
X00168109Y00238948D01*
X00168384Y00238737D01*
X00168705Y00238604D01*
X00169050Y00238559D01*
X00175550D01*
Y00242140D01*
D02*
G37*
G36*
X00200807Y00237169D02*
X00198354D01*
Y00234408D01*
X00202115D01*
Y00235861D01*
X00202071Y00236199D01*
X00201940Y00236515D01*
X00201732Y00236786D01*
X00201461Y00236994D01*
X00201145Y00237125D01*
X00200807Y00237169D01*
D02*
G37*
G36*
X00424384Y00242793D02*
X00423449Y00242701D01*
X00422550Y00242428D01*
X00421721Y00241985D01*
X00420995Y00241389D01*
X00420399Y00240663D01*
X00419956Y00239834D01*
X00419683Y00238935D01*
X00419591Y00238000D01*
X00419683Y00237065D01*
X00419956Y00236166D01*
X00420399Y00235337D01*
X00420995Y00234611D01*
X00421721Y00234015D01*
X00422550Y00233572D01*
X00423449Y00233299D01*
X00424384Y00233207D01*
X00425319Y00233299D01*
X00426218Y00233572D01*
X00427047Y00234015D01*
X00427773Y00234611D01*
X00428369Y00235337D01*
X00428812Y00236166D01*
X00429085Y00237065D01*
X00429177Y00238000D01*
X00429085Y00238935D01*
X00428812Y00239834D01*
X00428369Y00240663D01*
X00427773Y00241389D01*
X00427047Y00241985D01*
X00426218Y00242428D01*
X00425319Y00242701D01*
X00424384Y00242793D01*
D02*
G37*
G36*
X00406384D02*
X00405449Y00242701D01*
X00404550Y00242428D01*
X00403721Y00241985D01*
X00402995Y00241389D01*
X00402399Y00240663D01*
X00401956Y00239834D01*
X00401683Y00238935D01*
X00401591Y00238000D01*
X00401683Y00237065D01*
X00401956Y00236166D01*
X00402399Y00235337D01*
X00402995Y00234611D01*
X00403721Y00234015D01*
X00404550Y00233572D01*
X00405449Y00233299D01*
X00406384Y00233207D01*
X00407319Y00233299D01*
X00408218Y00233572D01*
X00409047Y00234015D01*
X00409773Y00234611D01*
X00410369Y00235337D01*
X00410812Y00236166D01*
X00411085Y00237065D01*
X00411177Y00238000D01*
X00411085Y00238935D01*
X00410812Y00239834D01*
X00410369Y00240663D01*
X00409773Y00241389D01*
X00409047Y00241985D01*
X00408218Y00242428D01*
X00407319Y00242701D01*
X00406384Y00242793D01*
D02*
G37*
G36*
X00250581Y00257976D02*
X00239691D01*
X00239345Y00257930D01*
X00239022Y00257796D01*
X00238746Y00257584D01*
X00238533Y00257307D01*
X00238400Y00256985D01*
X00238354Y00256639D01*
Y00233749D01*
X00238400Y00233403D01*
X00238533Y00233081D01*
X00238746Y00232804D01*
X00239022Y00232592D01*
X00239345Y00232458D01*
X00239691Y00232413D01*
X00250581D01*
X00250926Y00232458D01*
X00251249Y00232592D01*
X00251525Y00232804D01*
X00251738Y00233081D01*
X00251871Y00233403D01*
X00251917Y00233749D01*
Y00256639D01*
X00251871Y00256985D01*
X00251738Y00257307D01*
X00251525Y00257584D01*
X00251249Y00257796D01*
X00250926Y00257930D01*
X00250581Y00257976D01*
D02*
G37*
G36*
X00202115Y00231868D02*
X00198354D01*
Y00229107D01*
X00200807D01*
X00201145Y00229151D01*
X00201461Y00229282D01*
X00201732Y00229490D01*
X00201940Y00229761D01*
X00202071Y00230077D01*
X00202115Y00230416D01*
Y00231868D01*
D02*
G37*
G36*
X00229387Y00232401D02*
X00220641D01*
Y00228319D01*
X00230723D01*
Y00231065D01*
X00230677Y00231411D01*
X00230544Y00231733D01*
X00230331Y00232010D01*
X00230055Y00232222D01*
X00229732Y00232356D01*
X00229387Y00232401D01*
D02*
G37*
G36*
X00215242D02*
X00206497D01*
X00206151Y00232356D01*
X00205828Y00232222D01*
X00205552Y00232010D01*
X00205339Y00231733D01*
X00205206Y00231411D01*
X00205160Y00231065D01*
Y00228319D01*
X00215242D01*
Y00232401D01*
D02*
G37*
G36*
X00024225Y00239491D02*
X00019644D01*
Y00228160D01*
X00022884D01*
X00023231Y00228206D01*
X00023555Y00228340D01*
X00023833Y00228553D01*
X00024046Y00228831D01*
X00024180Y00229154D01*
X00024225Y00229501D01*
Y00239491D01*
D02*
G37*
G36*
X00014244D02*
X00009663D01*
Y00229501D01*
X00009708Y00229154D01*
X00009842Y00228831D01*
X00010056Y00228553D01*
X00010333Y00228340D01*
X00010657Y00228206D01*
X00011004Y00228160D01*
X00014244D01*
Y00239491D01*
D02*
G37*
G36*
X00427831Y00228281D02*
X00423904D01*
Y00221270D01*
X00429165D01*
Y00226947D01*
X00429120Y00227293D01*
X00428987Y00227614D01*
X00428775Y00227891D01*
X00428498Y00228103D01*
X00428177Y00228236D01*
X00427831Y00228281D01*
D02*
G37*
G36*
X00421365D02*
X00417436D01*
X00417091Y00228236D01*
X00416769Y00228103D01*
X00416493Y00227891D01*
X00416281Y00227614D01*
X00416148Y00227293D01*
X00416103Y00226947D01*
Y00221270D01*
X00421365D01*
Y00228281D01*
D02*
G37*
G36*
X00230723Y00222920D02*
X00220641D01*
Y00218839D01*
X00229387D01*
X00229732Y00218884D01*
X00230055Y00219018D01*
X00230331Y00219230D01*
X00230544Y00219507D01*
X00230677Y00219829D01*
X00230723Y00220175D01*
Y00222920D01*
D02*
G37*
G36*
X00215242D02*
X00205160D01*
Y00220175D01*
X00205206Y00219829D01*
X00205339Y00219507D01*
X00205552Y00219230D01*
X00205828Y00219018D01*
X00206151Y00218884D01*
X00206497Y00218839D01*
X00215242D01*
Y00222920D01*
D02*
G37*
G36*
X00429165Y00218730D02*
X00423904D01*
Y00211719D01*
X00427831D01*
X00428177Y00211764D01*
X00428498Y00211897D01*
X00428775Y00212109D01*
X00428987Y00212386D01*
X00429120Y00212707D01*
X00429165Y00213053D01*
Y00218730D01*
D02*
G37*
G36*
X00421365D02*
X00416103D01*
Y00213053D01*
X00416148Y00212707D01*
X00416281Y00212386D01*
X00416493Y00212109D01*
X00416769Y00211897D01*
X00417091Y00211764D01*
X00417436Y00211719D01*
X00421365D01*
Y00218730D01*
D02*
G37*
G36*
X00162853Y00316435D02*
X00157408D01*
X00157069Y00316391D01*
X00156754Y00316260D01*
X00156483Y00316052D01*
X00156275Y00315781D01*
X00156144Y00315465D01*
X00156099Y00315126D01*
Y00307682D01*
X00156144Y00307343D01*
X00156275Y00307027D01*
X00156360Y00306917D01*
X00156424Y00306338D01*
X00156319Y00305588D01*
X00156236Y00305406D01*
X00156233Y00305404D01*
X00156025Y00305132D01*
X00155894Y00304816D01*
X00155849Y00304477D01*
Y00300267D01*
X00155848Y00300257D01*
Y00295263D01*
X00155722Y00295138D01*
X00155396Y00294713D01*
X00155192Y00294219D01*
X00155122Y00293689D01*
Y00293383D01*
X00152587D01*
X00152249Y00293339D01*
X00151933Y00293208D01*
X00151662Y00293000D01*
X00151454Y00292729D01*
X00151324Y00292414D01*
X00151279Y00292075D01*
Y00284629D01*
X00151324Y00284290D01*
X00151454Y00283975D01*
X00151662Y00283704D01*
X00151933Y00283496D01*
X00152249Y00283365D01*
X00152587Y00283321D01*
X00157933D01*
X00158272Y00283365D01*
X00158588Y00283496D01*
X00158858Y00283704D01*
X00159066Y00283975D01*
X00159197Y00284290D01*
X00159242Y00284629D01*
Y00292075D01*
X00159221Y00292231D01*
Y00292840D01*
X00159347Y00292965D01*
X00159672Y00293390D01*
X00159877Y00293884D01*
X00159947Y00294414D01*
Y00294725D01*
X00163100D01*
X00163440Y00294770D01*
X00163756Y00294901D01*
X00164028Y00295109D01*
X00164236Y00295381D01*
X00164367Y00295697D01*
X00164412Y00296036D01*
Y00304477D01*
X00164367Y00304816D01*
X00164236Y00305132D01*
X00164028Y00305404D01*
X00164025Y00305406D01*
X00163942Y00305588D01*
X00163837Y00306338D01*
X00163901Y00306917D01*
X00163986Y00307027D01*
X00164117Y00307343D01*
X00164162Y00307682D01*
Y00309354D01*
X00167617D01*
X00167809Y00309163D01*
Y00292243D01*
X00167764Y00292134D01*
X00167720Y00291798D01*
X00151524Y00270269D01*
X00151454Y00270122D01*
X00151363Y00269986D01*
X00151345Y00269896D01*
X00151305Y00269814D01*
X00151296Y00269651D01*
X00151264Y00269490D01*
X00151266Y00260207D01*
X00151266Y00260207D01*
X00151266Y00260207D01*
X00151279Y00260139D01*
Y00259129D01*
X00151324Y00258790D01*
X00151454Y00258475D01*
X00151662Y00258204D01*
X00151933Y00257996D01*
X00152249Y00257865D01*
X00152587Y00257821D01*
X00153594D01*
X00153667Y00257806D01*
X00153667Y00257806D01*
X00153667Y00257806D01*
X00157935Y00257808D01*
X00158127Y00257846D01*
X00158272Y00257865D01*
X00158317Y00257884D01*
X00158430Y00257906D01*
X00158430Y00257907D01*
X00158430Y00257907D01*
X00158525Y00257970D01*
X00158588Y00257996D01*
X00158747Y00258119D01*
X00158850Y00258187D01*
X00165497Y00264834D01*
X00209438Y00264833D01*
X00209480Y00264841D01*
X00215326D01*
X00216007Y00264908D01*
X00216661Y00265107D01*
X00217264Y00265429D01*
X00217792Y00265863D01*
X00218143Y00266290D01*
X00218363Y00266409D01*
X00219679Y00266585D01*
X00219718Y00266570D01*
X00220179Y00266380D01*
X00220702Y00266311D01*
X00227351D01*
X00227874Y00266380D01*
X00228335Y00266570D01*
X00228374Y00266585D01*
X00229690Y00266409D01*
X00229910Y00266290D01*
X00230261Y00265863D01*
X00230789Y00265429D01*
X00231392Y00265107D01*
X00232046Y00264908D01*
X00232726Y00264841D01*
X00250326D01*
X00251007Y00264908D01*
X00251661Y00265107D01*
X00252264Y00265429D01*
X00252792Y00265863D01*
X00253226Y00266391D01*
X00253548Y00266994D01*
X00253746Y00267648D01*
X00253793Y00268125D01*
X00262758Y00268125D01*
X00270529Y00260347D01*
X00270527Y00258851D01*
X00269648Y00257976D01*
X00260011D01*
X00259665Y00257930D01*
X00259342Y00257796D01*
X00259066Y00257584D01*
X00258853Y00257307D01*
X00258720Y00256985D01*
X00258674Y00256639D01*
Y00233749D01*
X00258720Y00233403D01*
X00258853Y00233081D01*
X00259066Y00232804D01*
X00259342Y00232592D01*
X00259665Y00232458D01*
X00260011Y00232413D01*
X00270901D01*
X00270923Y00232416D01*
X00271017Y00231941D01*
X00271297Y00231521D01*
X00275197Y00227622D01*
X00271945Y00224371D01*
X00271640Y00223973D01*
X00271448Y00223509D01*
X00271383Y00223012D01*
X00271383Y00223012D01*
Y00200041D01*
X00230782D01*
X00230723Y00200109D01*
Y00210999D01*
X00230677Y00211345D01*
X00230544Y00211667D01*
X00230331Y00211944D01*
X00230055Y00212156D01*
X00229732Y00212290D01*
X00229387Y00212335D01*
X00206497D01*
X00206151Y00212290D01*
X00205828Y00212156D01*
X00205552Y00211944D01*
X00205339Y00211667D01*
X00205206Y00211345D01*
X00205160Y00210999D01*
Y00207475D01*
X00199005D01*
Y00214607D01*
X00200807D01*
X00201145Y00214652D01*
X00201461Y00214782D01*
X00201732Y00214990D01*
X00201940Y00215261D01*
X00202071Y00215577D01*
X00202115Y00215916D01*
Y00221360D01*
X00202071Y00221699D01*
X00201940Y00222015D01*
X00201732Y00222286D01*
X00201461Y00222494D01*
X00201145Y00222625D01*
X00200807Y00222669D01*
X00193361D01*
X00193023Y00222625D01*
X00192707Y00222494D01*
X00192436Y00222286D01*
X00192228Y00222015D01*
X00192097Y00221699D01*
X00192053Y00221360D01*
Y00215916D01*
X00192097Y00215577D01*
X00192228Y00215261D01*
X00192436Y00214990D01*
X00192707Y00214782D01*
X00193023Y00214652D01*
X00193361Y00214607D01*
X00195163D01*
Y00206423D01*
X00195163Y00206422D01*
X00195228Y00205925D01*
X00195420Y00205462D01*
X00195725Y00205064D01*
X00196593Y00204195D01*
X00196594Y00204195D01*
X00196992Y00203890D01*
X00197455Y00203698D01*
X00197952Y00203633D01*
X00197952Y00203633D01*
X00205160D01*
Y00200109D01*
X00205101Y00200041D01*
X00186483D01*
X00186482Y00200042D01*
X00185985Y00199976D01*
X00185522Y00199784D01*
X00185124Y00199479D01*
X00185124Y00199479D01*
X00184177Y00198532D01*
X00183872Y00198134D01*
X00183680Y00197671D01*
X00183615Y00197174D01*
X00183615Y00197173D01*
Y00176735D01*
X00182813D01*
X00182475Y00176691D01*
X00182159Y00176560D01*
X00181888Y00176352D01*
X00181680Y00176081D01*
X00181549Y00175765D01*
X00181505Y00175427D01*
Y00167981D01*
X00181549Y00167643D01*
X00181680Y00167327D01*
X00181888Y00167056D01*
X00182159Y00166848D01*
X00182475Y00166717D01*
X00182813Y00166673D01*
X00183615D01*
Y00165305D01*
X00182813D01*
X00182475Y00165261D01*
X00182159Y00165130D01*
X00181888Y00164922D01*
X00181680Y00164651D01*
X00181549Y00164335D01*
X00181505Y00163997D01*
Y00156552D01*
X00181549Y00156213D01*
X00181680Y00155897D01*
X00181888Y00155626D01*
X00182159Y00155418D01*
X00182475Y00155287D01*
X00182813Y00155243D01*
X00188258D01*
X00188597Y00155287D01*
X00188913Y00155418D01*
X00189184Y00155626D01*
X00189392Y00155897D01*
X00189523Y00156213D01*
X00189567Y00156552D01*
Y00158353D01*
X00190882D01*
Y00139096D01*
X00189585D01*
Y00140897D01*
X00189540Y00141236D01*
X00189410Y00141551D01*
X00189202Y00141822D01*
X00188931Y00142030D01*
X00188615Y00142161D01*
X00188276Y00142205D01*
X00182831D01*
X00182493Y00142161D01*
X00182177Y00142030D01*
X00181906Y00141822D01*
X00181698Y00141551D01*
X00181567Y00141236D01*
X00181523Y00140897D01*
Y00133452D01*
X00181567Y00133113D01*
X00181698Y00132797D01*
X00181906Y00132526D01*
X00182177Y00132318D01*
X00182493Y00132188D01*
X00182831Y00132143D01*
X00188276D01*
X00188615Y00132188D01*
X00188931Y00132318D01*
X00189202Y00132526D01*
X00189410Y00132797D01*
X00189540Y00133113D01*
X00189585Y00133452D01*
Y00135253D01*
X00191791D01*
X00191791Y00135253D01*
X00192288Y00135318D01*
X00192752Y00135510D01*
X00193150Y00135816D01*
X00194162Y00136828D01*
X00194163Y00136828D01*
X00194468Y00137226D01*
X00194660Y00137690D01*
X00194725Y00138187D01*
X00194725Y00138187D01*
Y00159319D01*
X00194725Y00159320D01*
X00194660Y00159817D01*
X00194468Y00160280D01*
X00194163Y00160678D01*
X00193208Y00161633D01*
X00192810Y00161938D01*
X00192347Y00162130D01*
X00191849Y00162195D01*
X00191849Y00162195D01*
X00189567D01*
Y00163997D01*
X00189523Y00164335D01*
X00189392Y00164651D01*
X00189184Y00164922D01*
X00188913Y00165130D01*
X00188597Y00165261D01*
X00188258Y00165305D01*
X00187457D01*
Y00166673D01*
X00188258D01*
X00188597Y00166717D01*
X00188913Y00166848D01*
X00189184Y00167056D01*
X00189392Y00167327D01*
X00189522Y00167643D01*
X00189567Y00167981D01*
Y00175427D01*
X00189522Y00175765D01*
X00189392Y00176081D01*
X00189184Y00176352D01*
X00188913Y00176560D01*
X00188597Y00176691D01*
X00188258Y00176735D01*
X00187457D01*
Y00196199D01*
X00272288D01*
X00272288Y00196199D01*
X00272785Y00196264D01*
X00273249Y00196456D01*
X00273647Y00196761D01*
X00274663Y00197777D01*
X00274663Y00197777D01*
X00274968Y00198175D01*
X00275160Y00198639D01*
X00275226Y00199136D01*
X00275225Y00199136D01*
Y00222216D01*
X00277914Y00224905D01*
X00282426Y00220392D01*
X00282847Y00220112D01*
X00283342Y00220013D01*
X00298778Y00220013D01*
X00298792Y00220016D01*
X00347253D01*
Y00093514D01*
X00347349Y00092784D01*
X00347631Y00092105D01*
X00348078Y00091521D01*
X00355039Y00084560D01*
Y00079041D01*
X00355135Y00078312D01*
X00355417Y00077632D01*
X00355865Y00077048D01*
X00357534Y00075379D01*
X00358117Y00074931D01*
X00358797Y00074650D01*
X00359526Y00074554D01*
X00384777D01*
X00385506Y00074650D01*
X00386186Y00074931D01*
X00386769Y00075379D01*
X00388571Y00077181D01*
X00389019Y00077764D01*
X00389300Y00078444D01*
X00389396Y00079173D01*
Y00089790D01*
X00396455Y00096850D01*
X00413502D01*
X00414231Y00096946D01*
X00414911Y00097227D01*
X00415495Y00097675D01*
X00421186Y00103367D01*
X00421703Y00103112D01*
X00422791Y00102743D01*
X00423919Y00102518D01*
X00425066Y00102443D01*
X00426213Y00102518D01*
X00427341Y00102743D01*
X00428429Y00103112D01*
X00429460Y00103621D01*
X00430416Y00104259D01*
X00431281Y00105017D01*
X00432039Y00105882D01*
X00432677Y00106838D01*
X00433186Y00107869D01*
X00433555Y00108957D01*
X00433780Y00110085D01*
X00433855Y00111232D01*
X00433780Y00112379D01*
X00433555Y00113507D01*
X00433186Y00114595D01*
X00432677Y00115626D01*
X00432039Y00116582D01*
X00431281Y00117447D01*
X00430416Y00118205D01*
X00429460Y00118843D01*
X00428429Y00119352D01*
X00427341Y00119721D01*
X00426213Y00119946D01*
X00425066Y00120021D01*
X00423919Y00119946D01*
X00422791Y00119721D01*
X00421703Y00119352D01*
X00420672Y00118843D01*
X00419716Y00118205D01*
X00418851Y00117447D01*
X00418093Y00116582D01*
X00417455Y00115626D01*
X00416946Y00114595D01*
X00416577Y00113507D01*
X00416352Y00112379D01*
X00416277Y00111232D01*
X00416352Y00110085D01*
X00416577Y00108957D01*
X00416946Y00107869D01*
X00417201Y00107352D01*
X00412335Y00102486D01*
X00404626D01*
X00404319Y00103103D01*
X00404263Y00103756D01*
X00405016Y00104259D01*
X00405881Y00105017D01*
X00406639Y00105882D01*
X00407277Y00106838D01*
X00407786Y00107869D01*
X00408155Y00108957D01*
X00408380Y00110085D01*
X00408455Y00111232D01*
X00408380Y00112379D01*
X00408155Y00113507D01*
X00407786Y00114595D01*
X00407277Y00115626D01*
X00406639Y00116582D01*
X00405881Y00117447D01*
X00405016Y00118205D01*
X00404060Y00118843D01*
X00403029Y00119352D01*
X00401941Y00119721D01*
X00400813Y00119946D01*
X00399666Y00120021D01*
X00398519Y00119946D01*
X00397391Y00119721D01*
X00396303Y00119352D01*
X00395272Y00118843D01*
X00394316Y00118205D01*
X00393451Y00117447D01*
X00392693Y00116582D01*
X00392055Y00115626D01*
X00391546Y00114595D01*
X00391177Y00113507D01*
X00390952Y00112379D01*
X00390877Y00111232D01*
X00390952Y00110085D01*
X00391177Y00108957D01*
X00391546Y00107869D01*
X00392055Y00106838D01*
X00392607Y00106011D01*
X00392674Y00105732D01*
X00392509Y00104456D01*
X00392509Y00104456D01*
X00383046Y00094993D01*
X00359751D01*
X00357962Y00096782D01*
Y00123623D01*
X00359370D01*
Y00120099D01*
X00359416Y00119753D01*
X00359549Y00119431D01*
X00359762Y00119154D01*
X00360038Y00118942D01*
X00360361Y00118808D01*
X00360706Y00118763D01*
X00383597D01*
X00383942Y00118808D01*
X00384265Y00118942D01*
X00384542Y00119154D01*
X00384754Y00119431D01*
X00384887Y00119753D01*
X00384933Y00120099D01*
Y00130989D01*
X00384887Y00131335D01*
X00384754Y00131657D01*
X00384542Y00131934D01*
X00384265Y00132146D01*
X00383942Y00132280D01*
X00383597Y00132325D01*
X00360706D01*
X00360361Y00132280D01*
X00360038Y00132146D01*
X00359762Y00131934D01*
X00359549Y00131657D01*
X00359416Y00131335D01*
X00359370Y00130989D01*
Y00127465D01*
X00357962D01*
Y00213500D01*
X00382065D01*
X00382743Y00212230D01*
X00382649Y00212088D01*
X00372152D01*
X00372100Y00212081D01*
X00360706D01*
X00360361Y00212036D01*
X00360038Y00211902D01*
X00359762Y00211690D01*
X00359549Y00211413D01*
X00359416Y00211091D01*
X00359370Y00210745D01*
Y00199855D01*
X00359416Y00199509D01*
X00359549Y00199187D01*
X00359762Y00198910D01*
X00360038Y00198698D01*
X00360361Y00198564D01*
X00360706Y00198519D01*
X00383597D01*
X00383942Y00198564D01*
X00384265Y00198698D01*
X00384542Y00198910D01*
X00384754Y00199187D01*
X00384887Y00199509D01*
X00384933Y00199855D01*
Y00207113D01*
X00385175Y00207319D01*
X00386332Y00206784D01*
X00386445Y00206623D01*
Y00187409D01*
X00384933D01*
Y00190933D01*
X00384887Y00191279D01*
X00384754Y00191601D01*
X00384542Y00191878D01*
X00384265Y00192090D01*
X00383942Y00192224D01*
X00383597Y00192269D01*
X00360706D01*
X00360361Y00192224D01*
X00360038Y00192090D01*
X00359762Y00191878D01*
X00359549Y00191601D01*
X00359416Y00191279D01*
X00359370Y00190933D01*
Y00180043D01*
X00359416Y00179697D01*
X00359549Y00179375D01*
X00359762Y00179098D01*
X00360038Y00178886D01*
X00360361Y00178752D01*
X00360706Y00178707D01*
X00383597D01*
X00383942Y00178752D01*
X00384265Y00178886D01*
X00384542Y00179098D01*
X00384754Y00179375D01*
X00384887Y00179697D01*
X00384933Y00180043D01*
Y00183567D01*
X00387452D01*
X00387452Y00183567D01*
X00387715Y00183601D01*
X00388360Y00183277D01*
X00388985Y00182737D01*
Y00167598D01*
X00384933D01*
Y00171121D01*
X00384887Y00171467D01*
X00384754Y00171789D01*
X00384542Y00172066D01*
X00384265Y00172278D01*
X00383942Y00172412D01*
X00383597Y00172457D01*
X00360706D01*
X00360361Y00172412D01*
X00360038Y00172278D01*
X00359762Y00172066D01*
X00359549Y00171789D01*
X00359416Y00171467D01*
X00359370Y00171121D01*
Y00160231D01*
X00359416Y00159885D01*
X00359549Y00159563D01*
X00359762Y00159286D01*
X00360038Y00159074D01*
X00360361Y00158940D01*
X00360706Y00158895D01*
X00383597D01*
X00383942Y00158940D01*
X00384265Y00159074D01*
X00384542Y00159286D01*
X00384754Y00159563D01*
X00384887Y00159885D01*
X00384933Y00160231D01*
Y00163755D01*
X00389975D01*
X00389975Y00163755D01*
X00390255Y00163791D01*
X00390807Y00163541D01*
X00391525Y00162942D01*
Y00147277D01*
X00384933D01*
Y00150801D01*
X00384887Y00151147D01*
X00384754Y00151469D01*
X00384542Y00151746D01*
X00384265Y00151958D01*
X00383942Y00152092D01*
X00383597Y00152137D01*
X00360706D01*
X00360361Y00152092D01*
X00360038Y00151958D01*
X00359762Y00151746D01*
X00359549Y00151469D01*
X00359416Y00151147D01*
X00359370Y00150801D01*
Y00139911D01*
X00359416Y00139565D01*
X00359549Y00139243D01*
X00359762Y00138966D01*
X00360038Y00138754D01*
X00360361Y00138620D01*
X00360706Y00138575D01*
X00383597D01*
X00383942Y00138620D01*
X00384265Y00138754D01*
X00384542Y00138966D01*
X00384754Y00139243D01*
X00384887Y00139565D01*
X00384933Y00139911D01*
Y00143435D01*
X00392558D01*
X00392559Y00143435D01*
X00393056Y00143500D01*
X00393519Y00143692D01*
X00393917Y00143997D01*
X00394805Y00144885D01*
X00394805Y00144885D01*
X00395110Y00145283D01*
X00395302Y00145746D01*
X00395368Y00146243D01*
X00395367Y00146244D01*
Y00207558D01*
X00399615Y00211805D01*
X00399615Y00211805D01*
X00399921Y00212203D01*
X00400112Y00212667D01*
X00400178Y00213164D01*
X00400178Y00213164D01*
Y00218079D01*
X00401603D01*
Y00213053D01*
X00401648Y00212707D01*
X00401781Y00212386D01*
X00401993Y00212109D01*
X00402270Y00211897D01*
X00402591Y00211764D01*
X00402937Y00211719D01*
X00413331D01*
X00413677Y00211764D01*
X00413998Y00211897D01*
X00414275Y00212109D01*
X00414487Y00212386D01*
X00414620Y00212707D01*
X00414665Y00213053D01*
Y00226947D01*
X00414662Y00226970D01*
Y00229801D01*
X00415732Y00230871D01*
X00415733Y00230871D01*
X00416038Y00231269D01*
X00416230Y00231732D01*
X00416295Y00232229D01*
X00416295Y00232230D01*
Y00243895D01*
X00416295Y00243895D01*
X00416230Y00244392D01*
X00416038Y00244855D01*
X00415733Y00245254D01*
X00415732Y00245254D01*
X00414675Y00246311D01*
Y00256000D01*
X00414665Y00256076D01*
Y00262948D01*
X00414620Y00263293D01*
X00414487Y00263614D01*
X00414275Y00263891D01*
X00413998Y00264103D01*
X00413677Y00264236D01*
X00413331Y00264281D01*
X00402937D01*
X00402591Y00264236D01*
X00402270Y00264103D01*
X00401993Y00263891D01*
X00401781Y00263614D01*
X00401648Y00263293D01*
X00401603Y00262948D01*
Y00249053D01*
X00401648Y00248707D01*
X00401781Y00248386D01*
X00401993Y00248109D01*
X00402270Y00247897D01*
X00402591Y00247764D01*
X00402937Y00247719D01*
X00410833D01*
Y00245515D01*
X00410832Y00245515D01*
X00410898Y00245017D01*
X00411090Y00244554D01*
X00411395Y00244156D01*
X00412453Y00243099D01*
Y00233025D01*
X00411382Y00231955D01*
X00411077Y00231557D01*
X00410885Y00231094D01*
X00410820Y00230597D01*
X00410820Y00230596D01*
Y00228281D01*
X00402937D01*
X00402591Y00228236D01*
X00402270Y00228103D01*
X00401993Y00227891D01*
X00401781Y00227614D01*
X00401648Y00227293D01*
X00401603Y00226947D01*
Y00221922D01*
X00399291D01*
X00398908Y00221871D01*
X00398727Y00221900D01*
X00397714Y00222580D01*
X00397638Y00222693D01*
Y00235831D01*
X00397638Y00235831D01*
X00397573Y00236329D01*
X00397381Y00236792D01*
X00397075Y00237190D01*
X00397075Y00237190D01*
X00392554Y00241711D01*
Y00272488D01*
X00392554Y00272488D01*
X00392489Y00272986D01*
X00392297Y00273449D01*
X00391992Y00273847D01*
X00391991Y00273847D01*
X00387196Y00278642D01*
Y00285582D01*
X00387196Y00285582D01*
X00387131Y00286080D01*
X00386939Y00286543D01*
X00386633Y00286941D01*
X00386633Y00286941D01*
X00385070Y00288505D01*
Y00295683D01*
X00385005Y00296181D01*
X00384813Y00296644D01*
X00384507Y00297042D01*
X00384507Y00297042D01*
X00382530Y00299019D01*
Y00306533D01*
X00382530Y00306533D01*
X00382464Y00307031D01*
X00382273Y00307494D01*
X00381967Y00307892D01*
X00381967Y00307892D01*
X00381008Y00308851D01*
X00380610Y00309156D01*
X00380147Y00309348D01*
X00379650Y00309414D01*
X00379649Y00309414D01*
X00376995D01*
Y00311215D01*
X00376951Y00311553D01*
X00376820Y00311869D01*
X00376612Y00312140D01*
X00376341Y00312348D01*
X00376025Y00312479D01*
X00375686Y00312523D01*
X00370242D01*
X00369903Y00312479D01*
X00369587Y00312348D01*
X00369316Y00312140D01*
X00369108Y00311869D01*
X00368977Y00311553D01*
X00368933Y00311215D01*
Y00303770D01*
X00368977Y00303431D01*
X00369108Y00303115D01*
X00369316Y00302844D01*
X00369587Y00302636D01*
X00369903Y00302506D01*
X00370242Y00302461D01*
X00375686D01*
X00376025Y00302506D01*
X00376341Y00302636D01*
X00376612Y00302844D01*
X00376820Y00303115D01*
X00376951Y00303431D01*
X00376995Y00303770D01*
Y00305571D01*
X00378687D01*
Y00298224D01*
X00378687Y00298223D01*
X00378413Y00297911D01*
X00376995D01*
Y00299712D01*
X00376951Y00300051D01*
X00376820Y00300366D01*
X00376612Y00300637D01*
X00376341Y00300846D01*
X00376025Y00300976D01*
X00375686Y00301021D01*
X00370242D01*
X00369903Y00300976D01*
X00369587Y00300846D01*
X00369316Y00300637D01*
X00369108Y00300366D01*
X00368977Y00300051D01*
X00368933Y00299712D01*
Y00292267D01*
X00368977Y00291928D01*
X00369108Y00291613D01*
X00369316Y00291342D01*
X00369587Y00291134D01*
X00369903Y00291003D01*
X00370242Y00290958D01*
X00375686D01*
X00376025Y00291003D01*
X00376341Y00291134D01*
X00376612Y00291342D01*
X00376820Y00291613D01*
X00376951Y00291928D01*
X00376995Y00292267D01*
Y00294068D01*
X00378454D01*
X00378687Y00293836D01*
Y00286657D01*
X00378687Y00286657D01*
X00378399Y00286328D01*
X00376995D01*
Y00288129D01*
X00376951Y00288468D01*
X00376820Y00288784D01*
X00376612Y00289055D01*
X00376341Y00289263D01*
X00376025Y00289394D01*
X00375686Y00289438D01*
X00370242D01*
X00369903Y00289394D01*
X00369587Y00289263D01*
X00369316Y00289055D01*
X00369108Y00288784D01*
X00368977Y00288468D01*
X00368933Y00288129D01*
Y00280684D01*
X00368977Y00280346D01*
X00369108Y00280030D01*
X00369316Y00279759D01*
X00369587Y00279551D01*
X00369903Y00279420D01*
X00370242Y00279376D01*
X00375686D01*
X00376025Y00279420D01*
X00376341Y00279551D01*
X00376612Y00279759D01*
X00376820Y00280030D01*
X00376951Y00280346D01*
X00376995Y00280684D01*
Y00282486D01*
X00378273D01*
Y00275742D01*
X00378273Y00275742D01*
X00378339Y00275245D01*
X00378531Y00274781D01*
X00378836Y00274384D01*
X00380274Y00272945D01*
X00379788Y00271772D01*
X00376995D01*
Y00276627D01*
X00376951Y00276966D01*
X00376820Y00277281D01*
X00376612Y00277552D01*
X00376341Y00277760D01*
X00376025Y00277891D01*
X00375686Y00277936D01*
X00370242D01*
X00369903Y00277891D01*
X00369587Y00277760D01*
X00369316Y00277552D01*
X00369108Y00277281D01*
X00368977Y00276966D01*
X00368933Y00276627D01*
Y00269182D01*
X00368977Y00268843D01*
X00369108Y00268528D01*
X00369316Y00268256D01*
X00369587Y00268048D01*
X00369903Y00267918D01*
X00370242Y00267873D01*
X00375686D01*
X00376025Y00267918D01*
X00376053Y00267929D01*
X00381091D01*
Y00264137D01*
X00380376Y00263539D01*
X00379821Y00263287D01*
X00379542Y00263323D01*
X00379542Y00263323D01*
X00376995D01*
Y00265124D01*
X00376951Y00265463D01*
X00376820Y00265779D01*
X00376612Y00266050D01*
X00376341Y00266258D01*
X00376025Y00266388D01*
X00375686Y00266433D01*
X00370242D01*
X00369903Y00266388D01*
X00369587Y00266258D01*
X00369316Y00266050D01*
X00369108Y00265779D01*
X00368977Y00265463D01*
X00368933Y00265124D01*
Y00257679D01*
X00368977Y00257341D01*
X00369108Y00257025D01*
X00369316Y00256754D01*
X00369587Y00256546D01*
X00369903Y00256415D01*
X00370242Y00256371D01*
X00375686D01*
X00376025Y00256415D01*
X00376341Y00256546D01*
X00376612Y00256754D01*
X00376820Y00257025D01*
X00376951Y00257341D01*
X00376995Y00257679D01*
Y00259480D01*
X00378551D01*
Y00236707D01*
X00378551Y00236707D01*
X00378617Y00236209D01*
X00378809Y00235746D01*
X00379114Y00235348D01*
X00381141Y00233321D01*
X00380655Y00232147D01*
X00361282D01*
Y00243933D01*
X00361434D01*
X00361773Y00243977D01*
X00362090Y00244108D01*
X00362361Y00244317D01*
X00362570Y00244588D01*
X00362701Y00244904D01*
X00362745Y00245244D01*
Y00253684D01*
X00362701Y00254023D01*
X00362570Y00254340D01*
X00362361Y00254611D01*
X00362090Y00254820D01*
X00361773Y00254951D01*
X00361434Y00254995D01*
X00360385D01*
Y00256371D01*
X00361186D01*
X00361525Y00256415D01*
X00361841Y00256546D01*
X00362112Y00256754D01*
X00362320Y00257025D01*
X00362451Y00257341D01*
X00362495Y00257679D01*
Y00265124D01*
X00362451Y00265463D01*
X00362320Y00265779D01*
X00362112Y00266050D01*
X00361841Y00266258D01*
X00361525Y00266388D01*
X00361186Y00266433D01*
X00360385D01*
Y00267873D01*
X00361186D01*
X00361525Y00267918D01*
X00361841Y00268048D01*
X00362112Y00268256D01*
X00362320Y00268528D01*
X00362451Y00268843D01*
X00362495Y00269182D01*
Y00276627D01*
X00362451Y00276966D01*
X00362320Y00277281D01*
X00362112Y00277552D01*
X00361841Y00277760D01*
X00361525Y00277891D01*
X00361186Y00277936D01*
X00355742D01*
X00355403Y00277891D01*
X00355087Y00277760D01*
X00354816Y00277552D01*
X00354608Y00277281D01*
X00354477Y00276966D01*
X00354433Y00276627D01*
Y00269182D01*
X00354477Y00268843D01*
X00354608Y00268528D01*
X00354816Y00268256D01*
X00355087Y00268048D01*
X00355403Y00267918D01*
X00355742Y00267873D01*
X00356543D01*
Y00266433D01*
X00355742D01*
X00355403Y00266388D01*
X00355087Y00266258D01*
X00354816Y00266050D01*
X00354608Y00265779D01*
X00354477Y00265463D01*
X00354433Y00265124D01*
Y00257679D01*
X00354477Y00257341D01*
X00354608Y00257025D01*
X00354816Y00256754D01*
X00355087Y00256546D01*
X00355403Y00256415D01*
X00355742Y00256371D01*
X00356543D01*
Y00254995D01*
X00355494D01*
X00355155Y00254951D01*
X00354838Y00254820D01*
X00354567Y00254611D01*
X00354358Y00254340D01*
X00354227Y00254023D01*
X00354183Y00253684D01*
Y00245244D01*
X00354227Y00244904D01*
X00354358Y00244588D01*
X00354567Y00244317D01*
X00354838Y00244108D01*
X00355155Y00243977D01*
X00355494Y00243933D01*
X00355646D01*
Y00230716D01*
X00301743D01*
X00300879Y00231948D01*
X00301071Y00232413D01*
X00311033D01*
X00311378Y00232458D01*
X00311701Y00232592D01*
X00311978Y00232804D01*
X00312190Y00233081D01*
X00312323Y00233403D01*
X00312369Y00233749D01*
Y00256639D01*
X00312323Y00256985D01*
X00312190Y00257307D01*
X00311978Y00257584D01*
X00311701Y00257796D01*
X00311378Y00257930D01*
X00311033Y00257976D01*
X00303093D01*
X00302607Y00259149D01*
X00312418Y00268960D01*
X00312698Y00269380D01*
X00312797Y00269875D01*
X00312797Y00270641D01*
X00312805Y00270704D01*
Y00281799D01*
X00318139Y00287133D01*
X00318506Y00287610D01*
X00318736Y00288167D01*
X00318815Y00288763D01*
Y00293504D01*
X00330385D01*
X00330736Y00293551D01*
X00331063Y00293686D01*
X00331344Y00293902D01*
X00331560Y00294183D01*
X00331695Y00294510D01*
X00331742Y00294861D01*
Y00314711D01*
X00331695Y00315062D01*
X00331560Y00315389D01*
X00331344Y00315670D01*
X00331063Y00315886D01*
X00330736Y00316021D01*
X00330385Y00316068D01*
X00315535D01*
X00315184Y00316021D01*
X00314857Y00315886D01*
X00314576Y00315670D01*
X00314360Y00315389D01*
X00314225Y00315062D01*
X00314178Y00314711D01*
Y00294861D01*
X00314203Y00294675D01*
Y00289718D01*
X00309950Y00285465D01*
X00253813Y00285465D01*
Y00303928D01*
X00253746Y00304608D01*
X00253548Y00305262D01*
X00253226Y00305865D01*
X00252792Y00306394D01*
X00252264Y00306827D01*
X00251661Y00307149D01*
X00251007Y00307348D01*
X00250326Y00307415D01*
X00232726D01*
X00232046Y00307348D01*
X00231392Y00307149D01*
X00230789Y00306827D01*
X00230261Y00306394D01*
X00229910Y00305966D01*
X00229690Y00305847D01*
X00228374Y00305671D01*
X00228335Y00305686D01*
X00227874Y00305877D01*
X00227351Y00305945D01*
X00220702D01*
X00220179Y00305877D01*
X00219718Y00305686D01*
X00219679Y00305671D01*
X00218363Y00305847D01*
X00218143Y00305966D01*
X00217792Y00306394D01*
X00217264Y00306827D01*
X00216661Y00307149D01*
X00216007Y00307348D01*
X00215326Y00307415D01*
X00197726D01*
X00197046Y00307348D01*
X00196392Y00307149D01*
X00195789Y00306827D01*
X00195261Y00306394D01*
X00194827Y00305865D01*
X00194505Y00305262D01*
X00194307Y00304608D01*
X00194240Y00303928D01*
Y00293524D01*
X00193342Y00292626D01*
X00190311Y00292626D01*
Y00295778D01*
X00190420Y00295870D01*
X00191061Y00296621D01*
X00191576Y00297462D01*
X00191954Y00298374D01*
X00192184Y00299334D01*
X00192262Y00300318D01*
X00192184Y00301302D01*
X00191954Y00302261D01*
X00191576Y00303173D01*
X00191061Y00304014D01*
X00190420Y00304765D01*
X00189669Y00305406D01*
X00188828Y00305922D01*
X00187916Y00306299D01*
X00186956Y00306530D01*
X00185972Y00306607D01*
X00184988Y00306530D01*
X00184029Y00306299D01*
X00183117Y00305922D01*
X00182276Y00305406D01*
X00181525Y00304765D01*
X00180884Y00304014D01*
X00180368Y00303173D01*
X00179991Y00302261D01*
X00179760Y00301302D01*
X00179683Y00300318D01*
X00179760Y00299334D01*
X00179991Y00298374D01*
X00180368Y00297462D01*
X00180884Y00296621D01*
X00181525Y00295870D01*
X00181633Y00295778D01*
Y00293121D01*
X00171908D01*
Y00310012D01*
X00171838Y00310543D01*
X00171633Y00311037D01*
X00171308Y00311461D01*
X00169916Y00312853D01*
X00169491Y00313179D01*
X00168997Y00313384D01*
X00168466Y00313454D01*
X00164162D01*
Y00315126D01*
X00164117Y00315465D01*
X00163986Y00315781D01*
X00163778Y00316052D01*
X00163507Y00316260D01*
X00163192Y00316391D01*
X00162853Y00316435D01*
D02*
G37*
G36*
X00189304Y00222669D02*
X00181859D01*
X00181520Y00222625D01*
X00181205Y00222494D01*
X00180934Y00222286D01*
X00180726Y00222015D01*
X00180595Y00221699D01*
X00180550Y00221360D01*
Y00215916D01*
X00180595Y00215577D01*
X00180726Y00215261D01*
X00180934Y00214990D01*
X00181205Y00214782D01*
X00181520Y00214652D01*
X00181859Y00214607D01*
X00182585D01*
Y00213336D01*
X00181784D01*
X00181445Y00213291D01*
X00181129Y00213161D01*
X00180858Y00212953D01*
X00180650Y00212682D01*
X00180519Y00212366D01*
X00180475Y00212027D01*
Y00204082D01*
X00180519Y00203744D01*
X00180650Y00203428D01*
X00180858Y00203157D01*
X00181129Y00202949D01*
X00181445Y00202818D01*
X00181784Y00202774D01*
X00187229D01*
X00187567Y00202818D01*
X00187883Y00202949D01*
X00188154Y00203157D01*
X00188362Y00203428D01*
X00188493Y00203744D01*
X00188537Y00204082D01*
Y00212027D01*
X00188493Y00212366D01*
X00188362Y00212682D01*
X00188154Y00212953D01*
X00187883Y00213161D01*
X00187567Y00213291D01*
X00187229Y00213336D01*
X00186427D01*
Y00214607D01*
X00189304D01*
X00189643Y00214652D01*
X00189958Y00214782D01*
X00190229Y00214990D01*
X00190437Y00215261D01*
X00190568Y00215577D01*
X00190613Y00215916D01*
Y00221360D01*
X00190568Y00221699D01*
X00190437Y00222015D01*
X00190229Y00222286D01*
X00189958Y00222494D01*
X00189643Y00222625D01*
X00189304Y00222669D01*
D02*
G37*
G36*
X00196728Y00191336D02*
X00195276D01*
Y00187325D01*
X00198037D01*
Y00190027D01*
X00197993Y00190366D01*
X00197862Y00190682D01*
X00197654Y00190953D01*
X00197383Y00191161D01*
X00197067Y00191292D01*
X00196728Y00191336D01*
D02*
G37*
G36*
X00192736D02*
X00191283D01*
X00190945Y00191292D01*
X00190629Y00191161D01*
X00190358Y00190953D01*
X00190150Y00190682D01*
X00190019Y00190366D01*
X00189975Y00190027D01*
Y00187325D01*
X00192736D01*
Y00191336D01*
D02*
G37*
G36*
X00198037Y00184785D02*
X00195276D01*
Y00180774D01*
X00196728D01*
X00197067Y00180818D01*
X00197383Y00180949D01*
X00197654Y00181157D01*
X00197862Y00181428D01*
X00197993Y00181744D01*
X00198037Y00182082D01*
Y00184785D01*
D02*
G37*
G36*
X00192736D02*
X00189975D01*
Y00182082D01*
X00190019Y00181744D01*
X00190150Y00181428D01*
X00190358Y00181157D01*
X00190629Y00180949D01*
X00190945Y00180818D01*
X00191283Y00180774D01*
X00192736D01*
Y00184785D01*
D02*
G37*
G36*
X00229387Y00192523D02*
X00206497D01*
X00206151Y00192478D01*
X00205828Y00192344D01*
X00205552Y00192132D01*
X00205339Y00191855D01*
X00205206Y00191533D01*
X00205160Y00191187D01*
Y00183015D01*
X00205155Y00182977D01*
X00205155Y00182977D01*
Y00179413D01*
X00203112D01*
X00202614Y00179347D01*
X00202151Y00179156D01*
X00201753Y00178850D01*
X00201753Y00178850D01*
X00200795Y00177892D01*
X00200489Y00177494D01*
X00200298Y00177031D01*
X00200259Y00176735D01*
X00197313D01*
X00196975Y00176691D01*
X00196659Y00176560D01*
X00196388Y00176352D01*
X00196180Y00176081D01*
X00196049Y00175765D01*
X00196005Y00175427D01*
Y00167981D01*
X00196049Y00167643D01*
X00196180Y00167327D01*
X00196388Y00167056D01*
X00196659Y00166848D01*
X00196975Y00166717D01*
X00197313Y00166673D01*
X00202759D01*
X00203097Y00166717D01*
X00203413Y00166848D01*
X00203684Y00167056D01*
X00203892Y00167327D01*
X00204023Y00167643D01*
X00204067Y00167981D01*
Y00173763D01*
X00204075Y00173821D01*
Y00175570D01*
X00206146D01*
X00206146Y00175570D01*
X00206643Y00175636D01*
X00207107Y00175828D01*
X00207505Y00176133D01*
X00208435Y00177063D01*
X00208435Y00177064D01*
X00208741Y00177461D01*
X00208932Y00177925D01*
X00208998Y00178422D01*
X00210042Y00178961D01*
X00229387D01*
X00229732Y00179006D01*
X00230055Y00179140D01*
X00230331Y00179352D01*
X00230544Y00179629D01*
X00230677Y00179951D01*
X00230723Y00180297D01*
Y00191187D01*
X00230677Y00191533D01*
X00230544Y00191855D01*
X00230331Y00192132D01*
X00230055Y00192344D01*
X00229732Y00192478D01*
X00229387Y00192523D01*
D02*
G37*
G36*
X00177729Y00191336D02*
X00172283D01*
X00171945Y00191292D01*
X00171629Y00191161D01*
X00171358Y00190953D01*
X00171150Y00190682D01*
X00171019Y00190366D01*
X00170975Y00190027D01*
Y00182082D01*
X00171019Y00181744D01*
X00171150Y00181428D01*
X00171358Y00181157D01*
X00171629Y00180949D01*
X00171945Y00180818D01*
X00172283Y00180774D01*
X00173085D01*
Y00154039D01*
X00171283D01*
X00170945Y00153994D01*
X00170629Y00153863D01*
X00170358Y00153655D01*
X00170150Y00153384D01*
X00170019Y00153069D01*
X00169975Y00152730D01*
Y00147285D01*
X00170019Y00146946D01*
X00170150Y00146631D01*
X00170358Y00146360D01*
X00170629Y00146152D01*
X00170945Y00146021D01*
X00171283Y00145976D01*
X00178729D01*
X00179067Y00146021D01*
X00179383Y00146152D01*
X00179654Y00146360D01*
X00179862Y00146631D01*
X00179993Y00146946D01*
X00180037Y00147285D01*
Y00148086D01*
X00181523D01*
Y00145015D01*
X00181567Y00144676D01*
X00181698Y00144361D01*
X00181906Y00144090D01*
X00182177Y00143882D01*
X00182493Y00143751D01*
X00182831Y00143706D01*
X00188276D01*
X00188615Y00143751D01*
X00188931Y00143882D01*
X00189202Y00144090D01*
X00189410Y00144361D01*
X00189540Y00144676D01*
X00189585Y00145015D01*
Y00152460D01*
X00189540Y00152799D01*
X00189410Y00153114D01*
X00189202Y00153385D01*
X00188931Y00153593D01*
X00188615Y00153724D01*
X00188276Y00153769D01*
X00182831D01*
X00182493Y00153724D01*
X00182177Y00153593D01*
X00181906Y00153385D01*
X00181698Y00153114D01*
X00181567Y00152799D01*
X00181523Y00152460D01*
Y00151929D01*
X00180037D01*
Y00152730D01*
X00179993Y00153069D01*
X00179862Y00153384D01*
X00179654Y00153655D01*
X00179383Y00153863D01*
X00179067Y00153994D01*
X00178729Y00154039D01*
X00176927D01*
Y00180774D01*
X00177729D01*
X00178067Y00180818D01*
X00178383Y00180949D01*
X00178654Y00181157D01*
X00178862Y00181428D01*
X00178993Y00181744D01*
X00179037Y00182082D01*
Y00190027D01*
X00178993Y00190366D01*
X00178862Y00190682D01*
X00178654Y00190953D01*
X00178383Y00191161D01*
X00178067Y00191292D01*
X00177729Y00191336D01*
D02*
G37*
G36*
X00202776Y00153769D02*
X00197331D01*
X00196993Y00153724D01*
X00196677Y00153593D01*
X00196406Y00153385D01*
X00196198Y00153114D01*
X00196067Y00152799D01*
X00196023Y00152460D01*
Y00145015D01*
X00196067Y00144676D01*
X00196198Y00144361D01*
X00196406Y00144090D01*
X00196677Y00143882D01*
X00196993Y00143751D01*
X00197331Y00143706D01*
X00202776D01*
X00203115Y00143751D01*
X00203431Y00143882D01*
X00203702Y00144090D01*
X00203910Y00144361D01*
X00204040Y00144676D01*
X00204085Y00145015D01*
Y00147578D01*
X00205414D01*
Y00140165D01*
X00205460Y00139819D01*
X00205593Y00139497D01*
X00205806Y00139220D01*
X00206082Y00139008D01*
X00206405Y00138874D01*
X00206751Y00138829D01*
X00229641D01*
X00229986Y00138874D01*
X00230309Y00139008D01*
X00230585Y00139220D01*
X00230798Y00139497D01*
X00230931Y00139819D01*
X00230977Y00140165D01*
Y00151055D01*
X00230931Y00151401D01*
X00230798Y00151723D01*
X00230585Y00152000D01*
X00230309Y00152212D01*
X00229986Y00152346D01*
X00229641Y00152391D01*
X00206751D01*
X00206405Y00152346D01*
X00206082Y00152212D01*
X00205806Y00152000D01*
X00205593Y00151723D01*
X00205468Y00151421D01*
X00204085D01*
Y00152460D01*
X00204040Y00152799D01*
X00203910Y00153114D01*
X00203702Y00153385D01*
X00203431Y00153593D01*
X00203115Y00153724D01*
X00202776Y00153769D01*
D02*
G37*
G36*
X00178729Y00139539D02*
X00176276D01*
Y00136777D01*
X00180037D01*
Y00138230D01*
X00179993Y00138569D01*
X00179862Y00138884D01*
X00179654Y00139155D01*
X00179383Y00139363D01*
X00179067Y00139494D01*
X00178729Y00139539D01*
D02*
G37*
G36*
X00173736D02*
X00171283D01*
X00170945Y00139494D01*
X00170629Y00139363D01*
X00170358Y00139155D01*
X00170150Y00138884D01*
X00170019Y00138569D01*
X00169975Y00138230D01*
Y00136777D01*
X00173736D01*
Y00139539D01*
D02*
G37*
G36*
X00180037Y00134237D02*
X00176276D01*
Y00131476D01*
X00178729D01*
X00179067Y00131521D01*
X00179383Y00131652D01*
X00179654Y00131860D01*
X00179862Y00132131D01*
X00179993Y00132446D01*
X00180037Y00132785D01*
Y00134237D01*
D02*
G37*
G36*
X00173736D02*
X00169975D01*
Y00132785D01*
X00170019Y00132446D01*
X00170150Y00132131D01*
X00170358Y00131860D01*
X00170629Y00131652D01*
X00170945Y00131521D01*
X00171283Y00131476D01*
X00173736D01*
Y00134237D01*
D02*
G37*
G36*
X00383597Y00112259D02*
X00360706D01*
X00360361Y00112214D01*
X00360038Y00112080D01*
X00359762Y00111868D01*
X00359549Y00111591D01*
X00359416Y00111269D01*
X00359370Y00110923D01*
Y00100033D01*
X00359416Y00099687D01*
X00359549Y00099365D01*
X00359762Y00099088D01*
X00360038Y00098876D01*
X00360361Y00098742D01*
X00360706Y00098697D01*
X00383597D01*
X00383942Y00098742D01*
X00384265Y00098876D01*
X00384542Y00099088D01*
X00384754Y00099365D01*
X00384887Y00099687D01*
X00384933Y00100033D01*
Y00110923D01*
X00384887Y00111269D01*
X00384754Y00111591D01*
X00384542Y00111868D01*
X00384265Y00112080D01*
X00383942Y00112214D01*
X00383597Y00112259D01*
D02*
G37*
G36*
X00431066Y00094626D02*
X00430146D01*
Y00090912D01*
X00433860D01*
Y00091832D01*
X00433765Y00092555D01*
X00433486Y00093229D01*
X00433042Y00093808D01*
X00432463Y00094252D01*
X00431789Y00094531D01*
X00431066Y00094626D01*
D02*
G37*
G36*
X00419986D02*
X00419066D01*
X00418343Y00094531D01*
X00417669Y00094252D01*
X00417090Y00093808D01*
X00416646Y00093229D01*
X00416367Y00092555D01*
X00416272Y00091832D01*
Y00090912D01*
X00419986D01*
Y00094626D01*
D02*
G37*
G36*
X00196426Y00087409D02*
Y00081934D01*
X00198191D01*
Y00084664D01*
X00198132Y00085256D01*
X00197960Y00085825D01*
X00197679Y00086350D01*
X00197302Y00086810D01*
X00196842Y00087187D01*
X00196426Y00087409D01*
D02*
G37*
G36*
X00433860Y00080752D02*
X00430146D01*
Y00077038D01*
X00431066D01*
X00431789Y00077133D01*
X00432463Y00077412D01*
X00433042Y00077856D01*
X00433486Y00078435D01*
X00433765Y00079109D01*
X00433860Y00079832D01*
Y00080752D01*
D02*
G37*
G36*
X00419986D02*
X00416272D01*
Y00079832D01*
X00416367Y00079109D01*
X00416646Y00078435D01*
X00417090Y00077856D01*
X00417669Y00077412D01*
X00418343Y00077133D01*
X00419066Y00077038D01*
X00419986D01*
Y00080752D01*
D02*
G37*
G36*
X00198191Y00079394D02*
X00196426D01*
Y00073919D01*
X00196842Y00074141D01*
X00197302Y00074518D01*
X00197679Y00074978D01*
X00197960Y00075503D01*
X00198132Y00076072D01*
X00198191Y00076664D01*
Y00079394D01*
D02*
G37*
G36*
X00199626Y00072244D02*
X00197926D01*
Y00067982D01*
X00200937D01*
Y00070932D01*
X00200893Y00071272D01*
X00200762Y00071588D01*
X00200553Y00071860D01*
X00200282Y00072068D01*
X00199965Y00072199D01*
X00199626Y00072244D01*
D02*
G37*
G36*
X00195386D02*
X00193686D01*
X00193347Y00072199D01*
X00193030Y00072068D01*
X00192759Y00071860D01*
X00192550Y00071588D01*
X00192419Y00071272D01*
X00192375Y00070932D01*
Y00067982D01*
X00195386D01*
Y00072244D01*
D02*
G37*
G36*
X00200937Y00065442D02*
X00197926D01*
Y00061181D01*
X00199626D01*
X00199965Y00061226D01*
X00200282Y00061357D01*
X00200553Y00061565D01*
X00200762Y00061837D01*
X00200893Y00062153D01*
X00200937Y00062492D01*
Y00065442D01*
D02*
G37*
G36*
X00195386D02*
X00192375D01*
Y00062492D01*
X00192419Y00062153D01*
X00192550Y00061837D01*
X00192759Y00061565D01*
X00193030Y00061357D01*
X00193347Y00061226D01*
X00193686Y00061181D01*
X00195386D01*
Y00065442D01*
D02*
G37*
G36*
X00186451Y00040724D02*
X00183426D01*
Y00038949D01*
X00185138D01*
X00185641Y00039049D01*
X00186067Y00039333D01*
X00186351Y00039759D01*
X00186451Y00040262D01*
Y00040724D01*
D02*
G37*
G36*
X00180886D02*
X00177861D01*
Y00040262D01*
X00177961Y00039759D01*
X00178245Y00039333D01*
X00178671Y00039049D01*
X00179174Y00038949D01*
X00180886D01*
Y00040724D01*
D02*
G37*
G36*
X00137140Y00029287D02*
Y00023084D01*
X00143343D01*
X00143272Y00023988D01*
X00143042Y00024948D01*
X00142664Y00025859D01*
X00142148Y00026701D01*
X00141507Y00027451D01*
X00140757Y00028092D01*
X00139915Y00028608D01*
X00139004Y00028986D01*
X00138044Y00029216D01*
X00137140Y00029287D01*
D02*
G37*
G36*
X00126980D02*
X00126076Y00029216D01*
X00125117Y00028986D01*
X00124205Y00028608D01*
X00123363Y00028092D01*
X00122613Y00027451D01*
X00121972Y00026701D01*
X00121456Y00025859D01*
X00121078Y00024948D01*
X00120848Y00023988D01*
X00120777Y00023084D01*
X00126980D01*
Y00029287D01*
D02*
G37*
G36*
X00163048Y00029033D02*
Y00022830D01*
X00169251D01*
X00169180Y00023734D01*
X00168950Y00024694D01*
X00168572Y00025605D01*
X00168056Y00026447D01*
X00167415Y00027197D01*
X00166665Y00027838D01*
X00165823Y00028354D01*
X00164912Y00028732D01*
X00163952Y00028962D01*
X00163048Y00029033D01*
D02*
G37*
G36*
X00152888D02*
X00151984Y00028962D01*
X00151025Y00028732D01*
X00150113Y00028354D01*
X00149271Y00027838D01*
X00148521Y00027197D01*
X00147880Y00026447D01*
X00147364Y00025605D01*
X00146986Y00024694D01*
X00146756Y00023734D01*
X00146685Y00022830D01*
X00152888D01*
Y00029033D01*
D02*
G37*
G36*
X00143343Y00012924D02*
X00137140D01*
Y00006721D01*
X00138044Y00006792D01*
X00139004Y00007023D01*
X00139915Y00007400D01*
X00140757Y00007916D01*
X00141507Y00008557D01*
X00142148Y00009307D01*
X00142664Y00010149D01*
X00143042Y00011061D01*
X00143272Y00012020D01*
X00143343Y00012924D01*
D02*
G37*
G36*
X00126980D02*
X00120777D01*
X00120848Y00012020D01*
X00121078Y00011061D01*
X00121456Y00010149D01*
X00121972Y00009307D01*
X00122613Y00008557D01*
X00123363Y00007916D01*
X00124205Y00007400D01*
X00125117Y00007023D01*
X00126076Y00006792D01*
X00126980Y00006721D01*
Y00012924D01*
D02*
G37*
G36*
X00169251Y00012670D02*
X00163048D01*
Y00006467D01*
X00163952Y00006538D01*
X00164912Y00006769D01*
X00165823Y00007146D01*
X00166665Y00007662D01*
X00167415Y00008303D01*
X00168056Y00009053D01*
X00168572Y00009895D01*
X00168950Y00010806D01*
X00169180Y00011766D01*
X00169251Y00012670D01*
D02*
G37*
G36*
X00152888D02*
X00146685D01*
X00146756Y00011766D01*
X00146986Y00010806D01*
X00147364Y00009895D01*
X00147880Y00009053D01*
X00148521Y00008303D01*
X00149271Y00007662D01*
X00150113Y00007146D01*
X00151025Y00006769D01*
X00151984Y00006538D01*
X00152888Y00006467D01*
Y00012670D01*
D02*
G37*
G36*
X00204639Y00045039D02*
X00198673D01*
X00198171Y00044939D01*
X00197745Y00044655D01*
X00197461Y00044229D01*
X00197361Y00043727D01*
Y00040262D01*
X00197461Y00039759D01*
X00197745Y00039333D01*
X00198171Y00039049D01*
X00198673Y00038949D01*
X00198719D01*
Y00028779D01*
X00198232Y00028663D01*
X00197102Y00028195D01*
X00196059Y00027556D01*
X00195129Y00026761D01*
X00194335Y00025831D01*
X00193696Y00024788D01*
X00193228Y00023659D01*
X00192942Y00022469D01*
X00192846Y00021250D01*
Y00014250D01*
X00192942Y00013031D01*
X00193228Y00011842D01*
X00193696Y00010712D01*
X00194335Y00009669D01*
X00195129Y00008739D01*
X00196059Y00007944D01*
X00197102Y00007305D01*
X00198232Y00006837D01*
X00199421Y00006552D01*
X00200640Y00006456D01*
X00201859Y00006552D01*
X00203048Y00006837D01*
X00204178Y00007305D01*
X00205221Y00007944D01*
X00206151Y00008739D01*
X00206945Y00009669D01*
X00207584Y00010712D01*
X00208053Y00011842D01*
X00208338Y00013031D01*
X00208434Y00014250D01*
Y00021250D01*
X00208338Y00022469D01*
X00208053Y00023659D01*
X00207584Y00024788D01*
X00206945Y00025831D01*
X00206151Y00026761D01*
X00205221Y00027556D01*
X00204178Y00028195D01*
X00203048Y00028663D01*
X00202561Y00028779D01*
Y00038949D01*
X00204639D01*
X00205141Y00039049D01*
X00205567Y00039333D01*
X00205851Y00039759D01*
X00205951Y00040262D01*
Y00043727D01*
X00205851Y00044229D01*
X00205567Y00044655D01*
X00205141Y00044939D01*
X00204639Y00045039D01*
D02*
G37*
G36*
X00180524Y00029044D02*
X00179305Y00028948D01*
X00178116Y00028663D01*
X00176986Y00028195D01*
X00175943Y00027556D01*
X00175013Y00026761D01*
X00174219Y00025831D01*
X00173580Y00024788D01*
X00173111Y00023659D01*
X00172826Y00022469D01*
X00172730Y00021250D01*
Y00014250D01*
X00172826Y00013031D01*
X00173111Y00011842D01*
X00173580Y00010712D01*
X00174219Y00009669D01*
X00175013Y00008739D01*
X00175943Y00007944D01*
X00176986Y00007305D01*
X00178116Y00006837D01*
X00179305Y00006552D01*
X00180524Y00006456D01*
X00181743Y00006552D01*
X00182932Y00006837D01*
X00184062Y00007305D01*
X00185105Y00007944D01*
X00186035Y00008739D01*
X00186829Y00009669D01*
X00187468Y00010712D01*
X00187937Y00011842D01*
X00188222Y00013031D01*
X00188318Y00014250D01*
Y00021250D01*
X00188222Y00022469D01*
X00187937Y00023659D01*
X00187468Y00024788D01*
X00186829Y00025831D01*
X00186035Y00026761D01*
X00185105Y00027556D01*
X00184062Y00028195D01*
X00182932Y00028663D01*
X00181743Y00028948D01*
X00180524Y00029044D01*
D02*
G37*
%LPD*%
G36*
X00112734Y00269188D02*
X00112734Y00256404D01*
X00085748Y00256404D01*
X00081419Y00252074D01*
X00051286Y00252074D01*
X00049181Y00249970D01*
X00049182Y00239838D01*
X00051294Y00237725D01*
X00082507Y00237725D01*
X00082508Y00187761D01*
X00081610Y00186863D01*
X00048362D01*
Y00195502D01*
X00048354D01*
X00048259Y00197193D01*
X00047975Y00198863D01*
X00047506Y00200490D01*
X00046858Y00202055D01*
X00046039Y00203538D01*
X00045059Y00204919D01*
X00043930Y00206182D01*
X00042667Y00207311D01*
X00041286Y00208291D01*
X00039803Y00209110D01*
X00038238Y00209758D01*
X00036611Y00210227D01*
X00035944Y00210340D01*
Y00260261D01*
X00045767Y00270084D01*
X00111836Y00270086D01*
X00112734Y00269188D01*
D02*
G37*
G36*
X00082501Y00110730D02*
X00049770Y00110730D01*
X00047752Y00108712D01*
X00047752Y00095505D01*
X00049784Y00093472D01*
X00082140Y00093472D01*
X00083038Y00092574D01*
X00083038Y00034778D01*
X00080884Y00023592D01*
X00080884Y00023592D01*
X00080898Y00022914D01*
X00080744Y00021566D01*
X00080410Y00020251D01*
X00079904Y00018993D01*
X00079234Y00017814D01*
X00078412Y00016735D01*
X00077453Y00015775D01*
X00076374Y00014953D01*
X00075194Y00014283D01*
X00073936Y00013777D01*
X00072621Y00013443D01*
X00071814Y00013351D01*
X00070595Y00013303D01*
X00070595D01*
X00069362Y00013391D01*
X00069014Y00013431D01*
X00067980Y00013656D01*
X00066973Y00013983D01*
X00066004Y00014409D01*
X00065082Y00014930D01*
X00064217Y00015541D01*
X00063418Y00016234D01*
X00063054Y00016619D01*
X00063054D01*
X00062007Y00018339D01*
X00059850Y00021740D01*
X00057611Y00025088D01*
X00055292Y00028381D01*
X00054103Y00030007D01*
X00054051Y00031179D01*
X00054011Y00032101D01*
X00053737Y00034186D01*
X00053282Y00036238D01*
X00052649Y00038244D01*
X00051845Y00040186D01*
X00050874Y00042052D01*
X00049744Y00043825D01*
X00048464Y00045493D01*
X00047043Y00047043D01*
X00045493Y00048464D01*
X00043825Y00049744D01*
X00042052Y00050874D01*
X00040186Y00051845D01*
X00038244Y00052649D01*
X00036238Y00053282D01*
X00034186Y00053737D01*
X00032101Y00054011D01*
X00031729Y00054027D01*
X00031729Y00119400D01*
X00033250D01*
X00034941Y00119495D01*
X00036611Y00119779D01*
X00038238Y00120248D01*
X00039803Y00120896D01*
X00041286Y00121715D01*
X00042667Y00122696D01*
X00043930Y00123824D01*
X00045059Y00125087D01*
X00046039Y00126468D01*
X00046858Y00127951D01*
X00047506Y00129516D01*
X00047975Y00131143D01*
X00048259Y00132813D01*
X00048354Y00134502D01*
X00048365D01*
X00048365Y00140442D01*
X00082501Y00140442D01*
X00082501Y00110730D01*
D02*
G37*
G36*
X00160908Y00048228D02*
X00123944D01*
X00107168Y00031453D01*
X00107168Y00013188D01*
X00090428Y00013188D01*
X00090428Y00249916D01*
X00160908D01*
Y00048228D01*
D02*
G37*
G36*
X00210336Y00291331D02*
X00210336Y00267026D01*
X00209438Y00266128D01*
X00164961Y00266129D01*
X00157934Y00259103D01*
X00153667Y00259101D01*
X00152561Y00260207D01*
X00152559Y00269491D01*
X00168989Y00291332D01*
X00210336Y00291331D01*
D02*
G37*
G36*
X00311501Y00284170D02*
X00311502Y00269875D01*
X00299254Y00257628D01*
X00299198Y00257584D01*
X00299154Y00257527D01*
X00298779Y00257152D01*
X00298778Y00221308D01*
X00283342Y00221308D01*
X00272213Y00232437D01*
X00272213Y00233568D01*
X00272237Y00233749D01*
Y00256639D01*
X00272212Y00256826D01*
X00272212Y00260495D01*
X00263295Y00269420D01*
X00241526Y00269420D01*
X00241527Y00284171D01*
X00311501Y00284170D01*
D02*
G37*
%LPC*%
G36*
X00290713Y00257976D02*
X00279823D01*
X00279477Y00257930D01*
X00279154Y00257796D01*
X00278878Y00257584D01*
X00278665Y00257307D01*
X00278532Y00256985D01*
X00278486Y00256639D01*
Y00233749D01*
X00278532Y00233403D01*
X00278665Y00233081D01*
X00278878Y00232804D01*
X00279154Y00232592D01*
X00279477Y00232458D01*
X00279823Y00232413D01*
X00290713D01*
X00291058Y00232458D01*
X00291381Y00232592D01*
X00291658Y00232804D01*
X00291870Y00233081D01*
X00292003Y00233403D01*
X00292049Y00233749D01*
Y00256639D01*
X00292003Y00256985D01*
X00291870Y00257307D01*
X00291658Y00257584D01*
X00291381Y00257796D01*
X00291058Y00257930D01*
X00290713Y00257976D01*
D02*
G37*
%LPD*%
D13*
X00410341Y00060432D02*
G03*
X00389174Y00062402I-00010675J00000000D01*
G01*
X00399666Y00073647D02*
G03*
X00387213Y00064942I00000000J-00013260D01*
G01*
X00207353Y00183253D02*
X00217941D01*
X00217942Y00183253D02*
Y00185742D01*
X00217941Y00183253D02*
X00217942Y00183253D01*
X00207077Y00182977D02*
X00207353Y00183253D01*
X00207077Y00178422D02*
Y00182977D01*
X00184506Y00208055D02*
Y00218638D01*
X00184506Y00218638D02*
X00185581D01*
X00184506Y00218638D02*
X00184506Y00218638D01*
X00356913Y00215421D02*
X00385461D01*
X00388097Y00218057D02*
Y00232675D01*
X00385461Y00215421D02*
X00388097Y00218057D01*
X00385557Y00219109D02*
Y00231623D01*
X00355861Y00217961D02*
X00384408D01*
X00385557Y00219109D01*
X00393177Y00215268D02*
Y00234779D01*
X00395717Y00214216D02*
Y00235831D01*
X00398257Y00213164D02*
Y00218966D01*
X00393446Y00208354D02*
X00398257Y00213164D01*
X00393446Y00146243D02*
Y00208354D01*
X00390906Y00166607D02*
Y00209406D01*
X00395717Y00214216D01*
X00388366Y00186402D02*
Y00210458D01*
X00393177Y00215268D01*
X00384483Y00210167D02*
X00390637Y00216320D01*
X00372152Y00210167D02*
X00384483D01*
X00390637Y00216320D02*
Y00233727D01*
X00372152Y00205300D02*
Y00210167D01*
X00372964Y00269851D02*
X00382128D01*
X00372964D02*
Y00272904D01*
X00382128Y00269851D02*
X00383013Y00268966D01*
Y00237759D02*
Y00268966D01*
X00388093Y00239863D02*
Y00271436D01*
X00390633Y00240915D02*
Y00272488D01*
X00385553Y00238811D02*
Y00270384D01*
X00380195Y00275742D02*
Y00283478D01*
Y00275742D02*
X00385553Y00270384D01*
X00382735Y00276794D02*
X00388093Y00271436D01*
X00382735Y00276794D02*
Y00284530D01*
X00385275Y00277847D02*
Y00285582D01*
Y00277847D02*
X00390633Y00272488D01*
X00380609Y00298223D02*
Y00306533D01*
X00372964Y00307492D02*
X00379650D01*
X00380609Y00306533D01*
Y00298223D02*
X00383149Y00295683D01*
Y00287709D02*
Y00295683D01*
Y00287709D02*
X00385275Y00285582D01*
X00379250Y00295990D02*
X00380609Y00294631D01*
Y00286656D02*
X00382735Y00284530D01*
X00380609Y00286656D02*
Y00294631D01*
X00372964Y00295990D02*
X00379250D01*
X00372964Y00284407D02*
X00379266D01*
X00380195Y00283478D01*
X00086281Y00244836D02*
Y00252024D01*
X00088617Y00254360D02*
X00162105D01*
X00086281Y00252024D02*
X00088617Y00254360D01*
X00162105D02*
X00164158Y00252308D01*
Y00234034D02*
Y00252308D01*
X00202145Y00125798D02*
X00218196D01*
X00202145Y00100343D02*
Y00137174D01*
Y00125798D02*
X00202145Y00125798D01*
X00188656Y00080664D02*
Y00098554D01*
X00189566Y00099464D02*
X00201266D01*
X00188656Y00098554D02*
X00189566Y00099464D01*
X00201266D02*
X00202145Y00100343D01*
X00200054Y00137174D02*
X00202145D01*
X00185554D02*
X00191791D01*
X00192804Y00138187D02*
Y00159320D01*
X00191791Y00137174D02*
X00192804Y00138187D01*
X00191849Y00160274D02*
X00192804Y00159320D01*
X00185536Y00160274D02*
X00191849D01*
X00202153Y00176533D02*
X00203112Y00177491D01*
X00202153Y00173821D02*
Y00176533D01*
X00203112Y00177491D02*
X00206146D01*
X00207077Y00178422D01*
X00200036Y00171704D02*
X00202153Y00173821D01*
X00185536Y00171704D02*
Y00197174D01*
X00186482Y00198120D02*
X00272288D01*
X00185536Y00197174D02*
X00186482Y00198120D01*
X00272288D02*
X00273304Y00199136D01*
Y00223012D02*
X00279154Y00228862D01*
X00273304Y00199136D02*
Y00223012D01*
X00185536Y00171704D02*
X00185536Y00171704D01*
Y00160274D02*
Y00171704D01*
X00414374Y00232229D02*
Y00243895D01*
X00412754Y00245515D02*
Y00256000D01*
Y00245515D02*
X00414374Y00243895D01*
X00408134Y00256000D02*
X00412754D01*
X00408134Y00220000D02*
X00412741D01*
Y00230597D02*
X00414374Y00232229D01*
X00412741Y00220000D02*
Y00230597D01*
X00399291Y00220000D02*
X00408134D01*
X00398257Y00218966D02*
X00399291Y00220000D01*
X00390633Y00240915D02*
X00395717Y00235831D01*
X00380473Y00236707D02*
Y00260471D01*
X00372964Y00261402D02*
X00379542D01*
X00380473Y00260471D01*
X00350778Y00280380D02*
X00351688Y00281289D01*
X00350778Y00268286D02*
Y00280380D01*
X00351688Y00281289D02*
X00358464D01*
X00329818Y00286641D02*
X00336059Y00292881D01*
X00329818Y00268286D02*
Y00286641D01*
X00336059Y00292881D02*
X00358464D01*
Y00295990D01*
X00343960Y00307492D02*
X00358464D01*
X00388093Y00239863D02*
X00393177Y00234779D01*
X00358464Y00249464D02*
Y00261402D01*
X00380473Y00236707D02*
X00385557Y00231623D01*
X00385553Y00238811D02*
X00390637Y00233727D01*
X00383013Y00237759D02*
X00388097Y00232675D01*
X00358464Y00261402D02*
Y00272904D01*
X00343960Y00304786D02*
Y00307492D01*
Y00268286D02*
X00350778D01*
X00322960D02*
X00329818D01*
X00166662Y00123164D02*
Y00207386D01*
X00167556Y00208280D01*
X00173197D01*
X00200036Y00162725D02*
X00218196D01*
X00200036Y00162725D02*
X00200036Y00162725D01*
X00200036Y00160274D02*
Y00162725D01*
X00166662Y00046266D02*
Y00123164D01*
X00175006Y00150007D02*
X00176082D01*
X00175006D02*
Y00186055D01*
X00218196Y00145610D02*
Y00149499D01*
X00200054D02*
X00218196D01*
Y00162725D02*
Y00165676D01*
X00176082Y00150007D02*
X00185554D01*
X00166662Y00123164D02*
X00175656D01*
X00164158Y00234034D02*
X00165053Y00233138D01*
X00174079D01*
X00182156Y00048494D02*
X00209515D01*
X00210487Y00049465D02*
Y00059862D01*
X00209515Y00048494D02*
X00210487Y00049465D01*
X00207498Y00096373D02*
Y00105478D01*
X00210487Y00059862D02*
Y00074851D01*
X00200640Y00017750D02*
Y00041994D01*
X00201656D01*
X00174079Y00209162D02*
Y00218638D01*
X00173197Y00208280D02*
X00174079Y00209162D01*
X00175006Y00150007D02*
X00176082D01*
X00185554Y00148737D02*
Y00150007D01*
X00356040Y00095986D02*
Y00125544D01*
X00353500Y00094934D02*
X00357903Y00090531D01*
X00367286D01*
X00356040Y00095986D02*
X00358955Y00093071D01*
X00383842D01*
X00353500Y00094934D02*
Y00215600D01*
X00410341Y00060432D02*
X00423542D01*
X00215498Y00062402D02*
X00389174D01*
X00216550Y00064942D02*
X00387213D01*
X00399666Y00073647D02*
Y00085832D01*
X00399308Y00103097D02*
X00399666Y00103455D01*
Y00111232D01*
X00393868Y00103097D02*
X00399308D01*
X00383842Y00093071D02*
X00393868Y00103097D01*
X00367286Y00090531D02*
X00372152Y00085666D01*
X00204887Y00075721D02*
X00209617D01*
X00205939Y00078261D02*
X00210669D01*
X00213027Y00075903D01*
Y00064874D02*
Y00075903D01*
X00209617Y00075721D02*
X00210487Y00074851D01*
X00215567Y00065926D02*
Y00085666D01*
X00215567Y00085666D02*
X00218196D01*
X00215567Y00085666D02*
X00215567Y00085666D01*
X00215567Y00065926D02*
X00216550Y00064942D01*
X00213027Y00064874D02*
X00215498Y00062402D01*
X00210487Y00059862D02*
X00397572D01*
X00210487Y00059862D02*
X00210487Y00059862D01*
X00358464Y00281289D02*
Y00284407D01*
X00372152Y00145356D02*
X00392559D01*
X00393446Y00146243D01*
X00372152Y00165676D02*
X00389975D01*
X00390906Y00166607D01*
X00387452Y00185488D02*
X00388366Y00186402D01*
X00372152Y00185488D02*
X00387452D01*
X00197435Y00243544D02*
Y00245576D01*
X00191429Y00237537D02*
X00197435Y00243544D01*
X00191429Y00233785D02*
Y00237537D01*
X00123563Y00289368D02*
X00136260D01*
Y00288352D02*
Y00289368D01*
X00121939Y00289368D02*
Y00299730D01*
X00121939Y00289368D02*
X00123563D01*
X00121939Y00289368D02*
X00121939Y00289368D01*
X00197952Y00205554D02*
X00217942D01*
X00197084Y00206422D02*
Y00218638D01*
Y00206422D02*
X00197952Y00205554D01*
X00085231Y00102289D02*
X00086281Y00103338D01*
Y00173561D01*
Y00244836D01*
X00064728Y00173561D02*
X00086281D01*
X00064730Y00244836D02*
X00086281D01*
X00064728Y00102289D02*
X00085231D01*
X00121345Y00299730D02*
X00121939D01*
X00163326Y00042930D02*
X00166662Y00046266D01*
X00121345Y00305355D02*
Y00310980D01*
Y00299730D02*
Y00305355D01*
X00109558D02*
X00121345D01*
X00129152Y00310980D02*
X00135845D01*
Y00299730D02*
Y00310980D01*
X00234195Y00094118D02*
Y00164780D01*
X00205939Y00093071D02*
X00233147D01*
X00234195Y00094118D01*
X00233299Y00165676D02*
X00234195Y00164780D01*
X00218196Y00165676D02*
X00233299D01*
X00204790Y00091923D02*
X00205939Y00093071D01*
X00174079Y00233138D02*
X00185581D01*
X00190783D02*
X00191429Y00233785D01*
X00185581Y00233138D02*
X00190783D01*
X00353500Y00215600D02*
X00355861Y00217961D01*
X00204790Y00079409D02*
X00205939Y00078261D01*
X00204790Y00079409D02*
Y00091923D01*
X00202250Y00078357D02*
X00204887Y00075721D01*
X00202250Y00078357D02*
Y00092975D01*
X00356040Y00214548D02*
X00356913Y00215421D01*
X00356040Y00125544D02*
Y00214548D01*
Y00125544D02*
X00372152D01*
X00397572Y00059862D02*
X00398142Y00060432D01*
X00113264Y00029190D02*
X00127004Y00042930D01*
X00113264Y00008245D02*
Y00029190D01*
X00110587Y00005568D02*
X00113264Y00008245D01*
X00127004Y00042930D02*
X00163326D01*
X00072370Y00005568D02*
X00110587D01*
X00070592Y00007346D02*
X00072370Y00005568D01*
X00070592Y00007346D02*
Y00023592D01*
X00064728Y00244834D02*
X00064730Y00244836D01*
X00207498Y00105478D02*
X00218196D01*
X00182156Y00123164D02*
X00188656D01*
X00204887Y00095611D02*
X00206736D01*
X00207498Y00096373D01*
X00202250Y00092975D02*
X00204887Y00095611D01*
D16*
X00318314Y00304786D02*
Y00310980D01*
X00298773Y00283155D02*
X00310900D01*
X00316509Y00304786D02*
X00318314D01*
X00316509Y00288763D02*
Y00304786D01*
X00316509Y00304786D01*
X00310900Y00283155D02*
X00316509Y00288763D01*
X00318314Y00304786D02*
X00322960D01*
X00298773Y00276644D02*
Y00283155D01*
D18*
X00372964Y00295990D02*
D03*
X00358464D02*
D03*
Y00284407D02*
D03*
X00372964D02*
D03*
X00358464Y00307492D02*
D03*
X00372964D02*
D03*
X00358464Y00272904D02*
D03*
X00372964D02*
D03*
X00135845Y00299730D02*
D03*
X00121345D02*
D03*
X00145630Y00311404D02*
D03*
X00160130D02*
D03*
X00358464Y00261402D02*
D03*
X00372964D02*
D03*
X00185554Y00148737D02*
D03*
X00200054D02*
D03*
X00200036Y00160274D02*
D03*
X00185536D02*
D03*
X00200036Y00171704D02*
D03*
X00185536D02*
D03*
X00185554Y00137174D02*
D03*
X00200054D02*
D03*
D19*
X00175656Y00080664D02*
D03*
X00182156D02*
D03*
X00188656D02*
D03*
X00195156D02*
D03*
X00175656Y00123164D02*
D03*
X00182156D02*
D03*
X00188656D02*
D03*
X00195156D02*
D03*
D20*
X00041944Y00242192D02*
D03*
X00016944D02*
D03*
D21*
X00099984Y00289086D02*
D03*
Y00264086D02*
D03*
X00269271Y00276644D02*
D03*
Y00301644D02*
D03*
X00070521Y00289086D02*
D03*
Y00264086D02*
D03*
X00298773Y00276644D02*
D03*
Y00301644D02*
D03*
D22*
X00049691Y00264715D02*
D03*
X00109558Y00305355D02*
D03*
X00185972Y00300318D02*
D03*
X00296164Y00263144D02*
D03*
X00197435Y00245068D02*
D03*
X00107514Y00040894D02*
D03*
X00171429Y00041128D02*
D03*
D23*
X00064728Y00244834D02*
D03*
Y00199034D02*
D03*
Y00102289D02*
D03*
Y00056488D02*
D03*
Y00127761D02*
D03*
Y00173561D02*
D03*
D24*
X00125728Y00221933D02*
D03*
Y00079388D02*
D03*
Y00150661D02*
D03*
D25*
X00123563Y00274868D02*
D03*
Y00289368D02*
D03*
X00175006Y00150007D02*
D03*
Y00135507D02*
D03*
X00185581Y00233138D02*
D03*
Y00218638D02*
D03*
X00174079D02*
D03*
Y00233138D02*
D03*
X00197084Y00218638D02*
D03*
Y00233138D02*
D03*
D26*
X00135845Y00310980D02*
D03*
X00121345D02*
D03*
X00372964Y00249464D02*
D03*
X00358464D02*
D03*
X00160130Y00300257D02*
D03*
X00145630D02*
D03*
X00182156Y00066712D02*
D03*
X00196656D02*
D03*
D27*
X00408134Y00256000D02*
D03*
X00422634D02*
D03*
Y00220000D02*
D03*
X00408134D02*
D03*
D28*
X00136260Y00262852D02*
D03*
X00145760D02*
D03*
X00155260D02*
D03*
X00136260Y00288352D02*
D03*
X00145760D02*
D03*
X00155260D02*
D03*
D29*
X00178250Y00244840D02*
D03*
Y00286840D02*
D03*
D30*
X00372152Y00085666D02*
D03*
Y00205300D02*
D03*
X00217942Y00225620D02*
D03*
X00372152Y00105478D02*
D03*
Y00125544D02*
D03*
Y00145356D02*
D03*
Y00165676D02*
D03*
Y00185488D02*
D03*
Y00225366D02*
D03*
X00217942Y00205554D02*
D03*
Y00185742D02*
D03*
X00218196Y00165676D02*
D03*
Y00145610D02*
D03*
Y00125798D02*
D03*
Y00105478D02*
D03*
Y00085666D02*
D03*
D31*
X00345212Y00245194D02*
D03*
X00325400D02*
D03*
X00305588D02*
D03*
X00285268D02*
D03*
X00265456D02*
D03*
X00245136D02*
D03*
D32*
X00175006Y00186055D02*
D03*
X00194006D02*
D03*
X00184506Y00208055D02*
D03*
D33*
X00241527Y00286128D02*
D03*
X00206527D02*
D03*
D34*
X00182156Y00054994D02*
D03*
Y00048494D02*
D03*
Y00041994D02*
D03*
X00201656D02*
D03*
Y00054994D02*
D03*
D60*
X00425066Y00111232D02*
D03*
Y00060432D02*
D03*
X00399666D02*
D03*
Y00085832D02*
D03*
Y00111232D02*
D03*
D61*
X00425066Y00085832D02*
D03*
D62*
X00343960Y00304786D02*
D03*
X00322960D02*
D03*
Y00268786D02*
D03*
X00343960D02*
D03*
D63*
X00168466Y00311404D02*
X00169858Y00310012D01*
Y00286332D02*
Y00310012D01*
Y00286332D02*
X00178250D01*
X00160130Y00311404D02*
X00168466D01*
X00157897Y00294414D02*
Y00300257D01*
X00160130D01*
X00155260Y00288352D02*
X00157171D01*
X00157171Y00288352D02*
Y00293689D01*
X00157171Y00288352D02*
X00157171Y00288352D01*
Y00293689D02*
X00157897Y00294414D01*
X00145630Y00300257D02*
Y00311404D01*
X00182156Y00066712D02*
Y00080664D01*
Y00054994D02*
Y00066712D01*
X00175656Y00080664D02*
X00182156D01*
Y00054994D02*
X00201656D01*
D64*
X00358464Y00225366D02*
X00358464Y00225366D01*
Y00249464D01*
X00350071Y00093514D02*
X00357858Y00085727D01*
Y00079041D02*
Y00085727D01*
X00350071Y00093514D02*
Y00225366D01*
X00413502Y00099668D02*
X00425066Y00111232D01*
X00395288Y00099668D02*
X00413502D01*
X00386578Y00090958D02*
X00395288Y00099668D01*
X00386578Y00079173D02*
Y00090958D01*
X00357858Y00079041D02*
X00359526Y00077372D01*
X00384777D01*
X00123563Y00274868D02*
X00141982D01*
X00145760Y00278646D02*
X00145760D01*
X00141982Y00274868D02*
X00145760Y00278646D01*
X00145760Y00278521D02*
Y00288352D01*
X00384777Y00077372D02*
X00386578Y00079173D01*
D65*
X00350071Y00225366D02*
X00358464D01*
X00359068D02*
X00372152D01*
X00298778D02*
X00350071D01*
D66*
X00185972Y00291332D02*
Y00300318D01*
D67*
X00110706Y00262852D02*
X00136260D01*
X00145760D01*
D68*
X00424384Y00238000D02*
D03*
X00406384D02*
D03*
D69*
X00410000Y00290000D02*
D03*
Y00030000D02*
D03*
X00030000D02*
D03*
Y00290000D02*
D03*
D70*
X00145760Y00278646D02*
D03*
D71*
X00200640Y00017750D02*
D03*
X00180524D02*
D03*
D72*
X00157968D02*
D03*
X00132060Y00018004D02*
D03*
D73*
X00099092Y00023592D02*
D03*
D74*
X00070592D02*
D03*
D75*
X00023250Y00195502D02*
D03*
Y00134504D02*
D03*
X00416750D02*
D03*
Y00195502D02*
D03*
D76*
X00172974Y00254742D02*
D03*
X00203873Y00066967D02*
D03*
X00027412Y00250283D02*
D03*
Y00241976D02*
D03*
Y00233340D02*
D03*
X00175006Y00142631D02*
D03*
X00366432Y00235972D02*
D03*
X00187405Y00254742D02*
D03*
X00180189D02*
D03*
X00194621Y00254996D02*
D03*
X00308430Y00290380D02*
D03*
X00191262Y00261366D02*
D03*
X00372964Y00240520D02*
D03*
X00172000Y00032746D02*
D03*
X00181140D02*
D03*
X00079185Y00207984D02*
D03*
X00135294Y00032746D02*
D03*
X00300549Y00290380D02*
D03*
X00176830Y00261366D02*
D03*
X00292668Y00290380D02*
D03*
X00201300Y00186055D02*
D03*
X00284370Y00290380D02*
D03*
X00276073D02*
D03*
X00215611Y00246868D02*
D03*
X00080618Y00278484D02*
D03*
X00433070Y00238000D02*
D03*
X00055472Y00047780D02*
D03*
X00126117Y00032746D02*
D03*
X00055584Y00190226D02*
D03*
X00063451D02*
D03*
X00071318D02*
D03*
X00079185D02*
D03*
X00055584Y00136449D02*
D03*
X00063451D02*
D03*
X00071318D02*
D03*
X00079185D02*
D03*
X00144470Y00032746D02*
D03*
X00162823D02*
D03*
X00207498Y00246868D02*
D03*
X00078735Y00047780D02*
D03*
X00070981D02*
D03*
X00063226D02*
D03*
X00055472Y00066530D02*
D03*
X00063226D02*
D03*
X00070981D02*
D03*
X00078735D02*
D03*
X00079185Y00119018D02*
D03*
X00071318D02*
D03*
X00063451D02*
D03*
X00055584D02*
D03*
X00063480Y00039350D02*
D03*
X00071234D02*
D03*
X00078989D02*
D03*
X00259478Y00290380D02*
D03*
X00267776D02*
D03*
X00153647Y00032746D02*
D03*
X00071318Y00207984D02*
D03*
X00063451D02*
D03*
X00055584D02*
D03*
X00207498Y00236962D02*
D03*
X00231628Y00237216D02*
D03*
X00215611Y00237000D02*
D03*
X00231628Y00246868D02*
D03*
X00223739Y00237000D02*
D03*
Y00246868D02*
D03*
X00070618Y00278484D02*
D03*
X00060618D02*
D03*
X00184046Y00261366D02*
D03*
X00169615D02*
D03*
X00195156Y00091420D02*
D03*
X00091864Y00278484D02*
D03*
X00100171D02*
D03*
X00108807D02*
D03*
D77*
X00318314Y00310980D02*
D03*
X00129152D02*
D03*
M02*
