G04 Layer_Physical_Order=1*
G04 Layer_Color=255*
%FSAX44Y44*%
%MOMM*%
G71*
G01*
G75*
G04:AMPARAMS|DCode=10|XSize=0.75mm|YSize=0.5mm|CornerRadius=0.0025mm|HoleSize=0mm|Usage=FLASHONLY|Rotation=0.000|XOffset=0mm|YOffset=0mm|HoleType=Round|Shape=RoundedRectangle|*
%AMROUNDEDRECTD10*
21,1,0.7500,0.4950,0,0,0.0*
21,1,0.7450,0.5000,0,0,0.0*
1,1,0.0050,0.3725,-0.2475*
1,1,0.0050,-0.3725,-0.2475*
1,1,0.0050,-0.3725,0.2475*
1,1,0.0050,0.3725,0.2475*
%
%ADD10ROUNDEDRECTD10*%
%ADD11R,4.3500X5.5000*%
%ADD12R,2.4600X2.3100*%
%ADD13O,1.4000X0.4500*%
G04:AMPARAMS|DCode=14|XSize=0.508mm|YSize=0.508mm|CornerRadius=0.0025mm|HoleSize=0mm|Usage=FLASHONLY|Rotation=180.000|XOffset=0mm|YOffset=0mm|HoleType=Round|Shape=RoundedRectangle|*
%AMROUNDEDRECTD14*
21,1,0.5080,0.5029,0,0,180.0*
21,1,0.5029,0.5080,0,0,180.0*
1,1,0.0051,-0.2515,0.2515*
1,1,0.0051,0.2515,0.2515*
1,1,0.0051,0.2515,-0.2515*
1,1,0.0051,-0.2515,-0.2515*
%
%ADD14ROUNDEDRECTD14*%
G04:AMPARAMS|DCode=15|XSize=0.75mm|YSize=0.5mm|CornerRadius=0.0025mm|HoleSize=0mm|Usage=FLASHONLY|Rotation=270.000|XOffset=0mm|YOffset=0mm|HoleType=Round|Shape=RoundedRectangle|*
%AMROUNDEDRECTD15*
21,1,0.7500,0.4950,0,0,270.0*
21,1,0.7450,0.5000,0,0,270.0*
1,1,0.0050,-0.2475,-0.3725*
1,1,0.0050,-0.2475,0.3725*
1,1,0.0050,0.2475,0.3725*
1,1,0.0050,0.2475,-0.3725*
%
%ADD15ROUNDEDRECTD15*%
G04:AMPARAMS|DCode=16|XSize=0.65mm|YSize=1.2mm|CornerRadius=0.0033mm|HoleSize=0mm|Usage=FLASHONLY|Rotation=0.000|XOffset=0mm|YOffset=0mm|HoleType=Round|Shape=RoundedRectangle|*
%AMROUNDEDRECTD16*
21,1,0.6500,1.1935,0,0,0.0*
21,1,0.6435,1.2000,0,0,0.0*
1,1,0.0065,0.3217,-0.5968*
1,1,0.0065,-0.3217,-0.5968*
1,1,0.0065,-0.3217,0.5968*
1,1,0.0065,0.3217,0.5968*
%
%ADD16ROUNDEDRECTD16*%
G04:AMPARAMS|DCode=17|XSize=2.55mm|YSize=1.2mm|CornerRadius=0.006mm|HoleSize=0mm|Usage=FLASHONLY|Rotation=0.000|XOffset=0mm|YOffset=0mm|HoleType=Round|Shape=RoundedRectangle|*
%AMROUNDEDRECTD17*
21,1,2.5500,1.1880,0,0,0.0*
21,1,2.5380,1.2000,0,0,0.0*
1,1,0.0120,1.2690,-0.5940*
1,1,0.0120,-1.2690,-0.5940*
1,1,0.0120,-1.2690,0.5940*
1,1,0.0120,1.2690,0.5940*
%
%ADD17ROUNDEDRECTD17*%
G04:AMPARAMS|DCode=18|XSize=0.85mm|YSize=0.6mm|CornerRadius=0.003mm|HoleSize=0mm|Usage=FLASHONLY|Rotation=0.000|XOffset=0mm|YOffset=0mm|HoleType=Round|Shape=RoundedRectangle|*
%AMROUNDEDRECTD18*
21,1,0.8500,0.5940,0,0,0.0*
21,1,0.8440,0.6000,0,0,0.0*
1,1,0.0060,0.4220,-0.2970*
1,1,0.0060,-0.4220,-0.2970*
1,1,0.0060,-0.4220,0.2970*
1,1,0.0060,0.4220,0.2970*
%
%ADD18ROUNDEDRECTD18*%
G04:AMPARAMS|DCode=19|XSize=0.85mm|YSize=0.6mm|CornerRadius=0.003mm|HoleSize=0mm|Usage=FLASHONLY|Rotation=90.000|XOffset=0mm|YOffset=0mm|HoleType=Round|Shape=RoundedRectangle|*
%AMROUNDEDRECTD19*
21,1,0.8500,0.5940,0,0,90.0*
21,1,0.8440,0.6000,0,0,90.0*
1,1,0.0060,0.2970,0.4220*
1,1,0.0060,0.2970,-0.4220*
1,1,0.0060,-0.2970,-0.4220*
1,1,0.0060,-0.2970,0.4220*
%
%ADD19ROUNDEDRECTD19*%
G04:AMPARAMS|DCode=20|XSize=2mm|YSize=4mm|CornerRadius=0.01mm|HoleSize=0mm|Usage=FLASHONLY|Rotation=180.000|XOffset=0mm|YOffset=0mm|HoleType=Round|Shape=RoundedRectangle|*
%AMROUNDEDRECTD20*
21,1,2.0000,3.9800,0,0,180.0*
21,1,1.9800,4.0000,0,0,180.0*
1,1,0.0200,-0.9900,1.9900*
1,1,0.0200,0.9900,1.9900*
1,1,0.0200,0.9900,-1.9900*
1,1,0.0200,-0.9900,-1.9900*
%
%ADD20ROUNDEDRECTD20*%
%ADD21C,0.1524*%
%ADD22C,0.3810*%
%ADD23C,0.2032*%
%ADD24C,0.1270*%
%ADD25C,0.2540*%
%ADD26C,0.3048*%
%ADD27R,0.5000X1.6500*%
%ADD28R,0.4961X1.6500*%
%ADD29C,2.0000*%
G04:AMPARAMS|DCode=30|XSize=2mm|YSize=2mm|CornerRadius=0.5mm|HoleSize=0mm|Usage=FLASHONLY|Rotation=270.000|XOffset=0mm|YOffset=0mm|HoleType=Round|Shape=RoundedRectangle|*
%AMROUNDEDRECTD30*
21,1,2.0000,1.0000,0,0,270.0*
21,1,1.0000,2.0000,0,0,270.0*
1,1,1.0000,-0.5000,-0.5000*
1,1,1.0000,-0.5000,0.5000*
1,1,1.0000,0.5000,0.5000*
1,1,1.0000,0.5000,-0.5000*
%
%ADD30ROUNDEDRECTD30*%
%ADD31C,3.0000*%
%ADD32C,0.5000*%
%ADD33C,0.6000*%
G36*
X06979564Y08563635D02*
X06979565Y08514671D01*
X06979257Y08514363D01*
Y08513773D01*
X06978667D01*
X06978667Y08513773D01*
X06758727Y08513773D01*
X06747750Y08524750D01*
X06725042Y08524750D01*
X06724144Y08525648D01*
Y08570500D01*
X06859750Y08570500D01*
X06873256Y08584006D01*
X06959194Y08584006D01*
X06979564Y08563635D01*
D02*
G37*
G36*
X06967947Y08507250D02*
X06968051Y08507250D01*
X06968247Y08507211D01*
X06968248D01*
X06968455Y08507169D01*
X06968987Y08506961D01*
X06969132Y08506935D01*
X06969337Y08506855D01*
X06969515Y08506823D01*
X06969517Y08506823D01*
Y08495305D01*
X06969675Y08494512D01*
X06970124Y08493840D01*
X06970796Y08493391D01*
X06971589Y08493233D01*
X06978024D01*
X06978817Y08493391D01*
X06979008Y08493519D01*
X06979879D01*
X06980969Y08492790D01*
X06981250Y08492734D01*
Y08491220D01*
X07028787Y08491220D01*
X07028868Y08491208D01*
X07030060Y08491019D01*
Y08436395D01*
X07030057Y08436382D01*
Y08436234D01*
X07029858Y08436194D01*
X06933644D01*
X06933260Y08436271D01*
X06933060D01*
X06932863Y08436310D01*
X06932256D01*
Y08437496D01*
X06932256Y08437497D01*
X06932256Y08449519D01*
X06932256Y08506848D01*
X06933362Y08507250D01*
X06940043D01*
X06946071D01*
X06946071Y08507250D01*
X06958771D01*
X06967947D01*
D02*
G37*
G36*
X07076770Y08543315D02*
X07133860Y08543315D01*
X07134758Y08542418D01*
Y08532089D01*
X07156907Y08509940D01*
X07156907Y08499449D01*
X07150125Y08492668D01*
X07119061Y08492668D01*
X07119061Y08435721D01*
X07074561Y08435721D01*
X07074561Y08475624D01*
X07019493Y08530691D01*
X07019493Y08571331D01*
X07048754Y08571332D01*
X07076770Y08543315D01*
D02*
G37*
G36*
X06843380Y08511734D02*
Y08507870D01*
X06842989D01*
X06842199Y08507713D01*
X06841529Y08507265D01*
X06841082Y08506595D01*
X06840924Y08505805D01*
Y08500855D01*
X06841082Y08500065D01*
X06841529Y08499395D01*
X06842199Y08498948D01*
X06842989Y08498791D01*
X06850439D01*
X06851229Y08498948D01*
X06851899Y08499395D01*
X06852347Y08500065D01*
X06852504Y08500855D01*
Y08505805D01*
X06852347Y08506595D01*
X06851899Y08507265D01*
X06851229Y08507713D01*
X06850439Y08507870D01*
X06850048D01*
Y08511734D01*
X06860587Y08511734D01*
Y08507870D01*
X06860197D01*
X06859406Y08507713D01*
X06858737Y08507265D01*
X06858289Y08506595D01*
X06858132Y08505805D01*
Y08500855D01*
X06858289Y08500065D01*
X06858737Y08499395D01*
X06859406Y08498948D01*
X06860197Y08498791D01*
X06867646D01*
X06868437Y08498948D01*
X06869106Y08499395D01*
X06869554Y08500065D01*
X06869711Y08500855D01*
Y08505805D01*
X06869554Y08506595D01*
X06869106Y08507265D01*
X06868437Y08507713D01*
X06867646Y08507870D01*
X06867256D01*
Y08511734D01*
X06874130Y08511734D01*
Y08508370D01*
X06873244D01*
X06872452Y08508212D01*
X06871780Y08507764D01*
X06871332Y08507092D01*
X06871174Y08506300D01*
Y08500360D01*
X06871332Y08499568D01*
X06871780Y08498896D01*
X06872452Y08498448D01*
X06873244Y08498290D01*
X06881684D01*
X06882476Y08498448D01*
X06883148Y08498896D01*
X06883596Y08499568D01*
X06883754Y08500360D01*
Y08506300D01*
X06883596Y08507092D01*
X06883148Y08507764D01*
X06882476Y08508212D01*
X06881684Y08508370D01*
X06880798D01*
Y08511734D01*
X06901423Y08511734D01*
Y08497666D01*
X06900994Y08497581D01*
X06900323Y08497132D01*
X06899874Y08496461D01*
X06899717Y08495668D01*
Y08487228D01*
X06899874Y08486437D01*
X06900323Y08485765D01*
X06900526Y08485629D01*
Y08476111D01*
X06899256Y08475068D01*
X06898964Y08475127D01*
X06889464D01*
X06888090Y08474854D01*
X06886926Y08474075D01*
X06886528Y08473480D01*
X06881967D01*
X06879406Y08476040D01*
Y08484453D01*
X06881684D01*
X06882679Y08484865D01*
X06883091Y08485861D01*
Y08491801D01*
X06882679Y08492795D01*
X06881684Y08493207D01*
X06873244D01*
X06872249Y08492795D01*
X06871837Y08491801D01*
Y08490773D01*
X06869048D01*
Y08491306D01*
X06868638Y08492297D01*
X06867646Y08492707D01*
X06860197D01*
X06859205Y08492297D01*
X06858795Y08491306D01*
Y08486356D01*
X06859205Y08485364D01*
X06860197Y08484954D01*
X06867646D01*
X06868638Y08485364D01*
X06869048Y08486356D01*
Y08486888D01*
X06871837D01*
Y08485861D01*
X06872249Y08484865D01*
X06873244Y08484453D01*
X06875522D01*
Y08475236D01*
X06875670Y08474492D01*
X06876091Y08473862D01*
X06879789Y08470164D01*
X06879789Y08470164D01*
X06880419Y08469743D01*
X06881162Y08469595D01*
X06885855D01*
X06886578Y08468420D01*
X06886271Y08467910D01*
X06885460Y08466696D01*
X06885131Y08465038D01*
X06885460Y08463380D01*
X06886271Y08462166D01*
X06886926Y08461075D01*
X06886148Y08459911D01*
X06885875Y08458538D01*
X06886148Y08457164D01*
X06886926Y08456000D01*
X06886271Y08454910D01*
X06885460Y08453696D01*
X06885131Y08452038D01*
X06885460Y08450380D01*
X06886400Y08448974D01*
Y08448602D01*
X06885460Y08447196D01*
X06885131Y08445538D01*
X06885460Y08443879D01*
X06886271Y08442665D01*
X06886926Y08441575D01*
X06886148Y08440411D01*
X06885875Y08439038D01*
X06886148Y08437664D01*
X06886926Y08436500D01*
X06886271Y08435410D01*
X06885460Y08434196D01*
X06885131Y08432538D01*
X06885460Y08430880D01*
X06886400Y08429474D01*
X06886322Y08429302D01*
X06885876Y08428318D01*
X06885686Y08428033D01*
X06885686Y08428033D01*
X06885460Y08427696D01*
X06885381Y08427298D01*
X06885381Y08427298D01*
X06885131Y08426038D01*
X06885210Y08425640D01*
Y08425640D01*
X06885381Y08424777D01*
X06885381Y08424777D01*
X06885460Y08424379D01*
X06886400Y08422974D01*
X06887250Y08422405D01*
X06887250Y08407676D01*
X06790737D01*
Y08410668D01*
X06791647D01*
X06792437Y08410825D01*
X06793107Y08411273D01*
X06793554Y08411942D01*
X06793711Y08412733D01*
Y08417682D01*
X06793554Y08418473D01*
X06793107Y08419142D01*
X06792437Y08419590D01*
X06791647Y08419747D01*
X06784197D01*
X06783406Y08419590D01*
X06782736Y08419142D01*
X06782289Y08418473D01*
X06782200Y08418024D01*
X06780601D01*
X06780511Y08418473D01*
X06780064Y08419142D01*
X06779394Y08419590D01*
X06778604Y08419747D01*
X06771154D01*
X06770364Y08419590D01*
X06769694Y08419142D01*
X06769246Y08418473D01*
X06769089Y08417682D01*
Y08412733D01*
X06769246Y08411942D01*
X06769694Y08411273D01*
X06770364Y08410825D01*
X06771154Y08410668D01*
X06778604D01*
X06779394Y08410825D01*
X06780064Y08411273D01*
X06780511Y08411942D01*
X06780601Y08412391D01*
X06782200D01*
X06782289Y08411942D01*
X06782736Y08411273D01*
X06783406Y08410825D01*
X06784197Y08410668D01*
X06785106D01*
Y08405324D01*
X06784045Y08404144D01*
X06759750D01*
X06759750Y08467499D01*
Y08470670D01*
X06760137D01*
X06760927Y08470828D01*
X06761418Y08471155D01*
X06762137D01*
X06762742Y08471276D01*
X06763254Y08471618D01*
X06763597Y08472131D01*
X06763717Y08472736D01*
Y08477765D01*
X06763597Y08478369D01*
X06763254Y08478882D01*
X06762742Y08479224D01*
X06762137Y08479344D01*
X06761418D01*
X06760927Y08479672D01*
X06760137Y08479830D01*
X06759750D01*
Y08484000D01*
X06759750Y08497747D01*
X06759750Y08510270D01*
X06759782Y08510432D01*
X06759782Y08510432D01*
Y08510464D01*
X06759787Y08510489D01*
X06759797Y08510516D01*
X06759935Y08511403D01*
X06761148Y08511734D01*
X06843380Y08511734D01*
D02*
G37*
G36*
X06740000Y08645856D02*
X07150000D01*
X07151562Y08645856D01*
X07154625Y08645247D01*
X07157511Y08644052D01*
X07160108Y08642317D01*
X07162317Y08640108D01*
X07164052Y08637511D01*
X07165247Y08634625D01*
X07165856Y08631562D01*
X07165856Y08630000D01*
Y08420000D01*
X07165856Y08418438D01*
X07165247Y08415375D01*
X07164052Y08412489D01*
X07162317Y08409892D01*
X07160108Y08407683D01*
X07157511Y08405948D01*
X07154625Y08404753D01*
X07151562Y08404144D01*
X07128785D01*
X07128300Y08405317D01*
X07129991Y08407009D01*
X07130602Y08407922D01*
X07130816Y08409000D01*
Y08457234D01*
X07151991Y08478410D01*
X07152602Y08479324D01*
X07152816Y08480401D01*
Y08490867D01*
X07153132Y08490909D01*
X07156052Y08492118D01*
X07158558Y08494042D01*
X07160482Y08496548D01*
X07161691Y08499467D01*
X07162103Y08502600D01*
X07161691Y08505732D01*
X07160482Y08508652D01*
X07158558Y08511158D01*
X07158434Y08511254D01*
X07158349Y08511381D01*
X07158349Y08511381D01*
X07136797Y08532933D01*
Y08542418D01*
X07136797Y08542418D01*
X07136642Y08543198D01*
X07136201Y08543859D01*
X07135302Y08544758D01*
X07134641Y08545200D01*
X07133860Y08545355D01*
X07077615Y08545355D01*
X07050197Y08572774D01*
X07050197Y08572774D01*
X07049535Y08573216D01*
X07049535Y08573216D01*
X07048755Y08573371D01*
X07019493Y08573370D01*
X07018713Y08573215D01*
X07018051Y08572773D01*
X07018051Y08572773D01*
X07017609Y08572111D01*
X07017454Y08571331D01*
X07017454Y08530691D01*
X07017454Y08530691D01*
X07017609Y08529911D01*
X07018051Y08529249D01*
X07072521Y08474779D01*
X07072522Y08435721D01*
X07072677Y08434941D01*
X07073057Y08434373D01*
Y08434258D01*
X07073151D01*
X07073781Y08433837D01*
X07074561Y08433682D01*
X07119061Y08433682D01*
X07119841Y08433837D01*
X07120471Y08434258D01*
X07120557D01*
Y08434360D01*
X07120945Y08434941D01*
X07121100Y08435721D01*
X07121100Y08489731D01*
X07121998Y08490629D01*
X07147184Y08490629D01*
Y08481567D01*
X07126009Y08460392D01*
X07125398Y08459479D01*
X07125184Y08458401D01*
Y08410167D01*
X07122693Y08407676D01*
X06889289D01*
X06889289Y08422405D01*
X06889250Y08422603D01*
Y08422803D01*
X06889173Y08422989D01*
X06889134Y08423186D01*
X06889022Y08423353D01*
X06888945Y08423539D01*
X06888803Y08423680D01*
X06888692Y08423848D01*
X06888525Y08423959D01*
X06888383Y08424102D01*
X06887870Y08424444D01*
X06887382Y08425175D01*
X06887210Y08426038D01*
X06887382Y08426900D01*
X06887382Y08426901D01*
X06887571Y08427185D01*
X06887636Y08427340D01*
X06887734Y08427477D01*
X06888179Y08428460D01*
X06889464Y08428204D01*
X06898964D01*
X06900622Y08428535D01*
X06901237Y08428945D01*
X06903601D01*
X06903609Y08428933D01*
X06905263Y08427828D01*
X06907214Y08427440D01*
X06909165Y08427828D01*
X06910818Y08428933D01*
X06911924Y08430587D01*
X06912296Y08432457D01*
X06912339Y08432559D01*
X06913434Y08433405D01*
X06913587Y08433351D01*
Y08428530D01*
X06913999Y08427535D01*
X06914994Y08427123D01*
X06923434D01*
X06924429Y08427535D01*
X06924841Y08428530D01*
Y08434470D01*
X06924429Y08435465D01*
X06923434Y08435877D01*
X06921156D01*
Y08436000D01*
X06921008Y08436743D01*
X06920587Y08437374D01*
X06919838Y08438123D01*
X06919207Y08438544D01*
X06918464Y08438692D01*
X06912307D01*
X06910587Y08440411D01*
X06910193Y08440674D01*
X06910364Y08441844D01*
X06910404Y08441945D01*
X06914298D01*
X06914332Y08441776D01*
X06914780Y08441104D01*
X06915452Y08440656D01*
X06916244Y08440498D01*
X06924684D01*
X06925476Y08440656D01*
X06926147Y08441104D01*
X06926450Y08441556D01*
X06930217D01*
Y08437497D01*
X06930217Y08437496D01*
Y08436310D01*
X06930372Y08435530D01*
X06930815Y08434868D01*
X06931476Y08434426D01*
X06932256Y08434271D01*
X06932863D01*
X06933246Y08434194D01*
X06933447D01*
X06933644Y08434155D01*
X07029858D01*
X07030056Y08434194D01*
X07030256D01*
X07030455Y08434234D01*
X07030512Y08434258D01*
X07032057D01*
Y08435836D01*
X07032057Y08435836D01*
Y08435985D01*
X07032057Y08435985D01*
X07032059Y08435998D01*
Y08436050D01*
X07032096Y08436234D01*
Y08436382D01*
X07032099Y08436395D01*
Y08491019D01*
X07032057Y08491229D01*
Y08493257D01*
X07028795D01*
X07028787Y08493259D01*
X06987627Y08493259D01*
X06986948Y08494529D01*
X06987630Y08495549D01*
X06988018Y08497500D01*
X06987630Y08499451D01*
X06986525Y08501105D01*
X06984871Y08502210D01*
X06982920Y08502598D01*
X06981367Y08502289D01*
X06980096Y08503038D01*
Y08507241D01*
X06979938Y08508033D01*
X06979489Y08508705D01*
X06978817Y08509155D01*
X06978024Y08509313D01*
X06971589D01*
X06970796Y08509155D01*
X06970164Y08508733D01*
X06970090Y08508748D01*
X06970081Y08508753D01*
X06969876Y08508834D01*
X06969731Y08508860D01*
X06969199Y08509068D01*
X06969021Y08509100D01*
X06968853Y08509169D01*
X06968646Y08509210D01*
X06968644D01*
X06968452Y08509249D01*
X06968250Y08509250D01*
X06968052Y08509289D01*
X06967949Y08509289D01*
X06967947Y08509289D01*
X06967947Y08509289D01*
X06965443D01*
X06965324Y08509313D01*
X06958889D01*
X06958771Y08509289D01*
X06952742D01*
X06952624Y08509313D01*
X06946189D01*
X06946071Y08509289D01*
X06940043D01*
X06939924Y08509313D01*
X06933489D01*
X06933370Y08509289D01*
X06933362D01*
X06933016Y08509220D01*
X06932667Y08509167D01*
X06931561Y08508765D01*
X06931521Y08508741D01*
X06931476Y08508732D01*
X06931182Y08508536D01*
X06930880Y08508353D01*
X06930853Y08508316D01*
X06930815Y08508290D01*
X06930618Y08507996D01*
X06930409Y08507712D01*
X06930398Y08507667D01*
X06930372Y08507629D01*
X06930303Y08507282D01*
X06930219Y08506939D01*
X06930226Y08506893D01*
X06930217Y08506848D01*
X06930217Y08449519D01*
X06926450D01*
X06926147Y08449971D01*
X06925476Y08450420D01*
X06924684Y08450577D01*
X06916244D01*
X06915452Y08450420D01*
X06914780Y08449971D01*
X06914332Y08449300D01*
X06914298Y08449131D01*
X06911786D01*
X06911157Y08450401D01*
X06911924Y08451549D01*
X06912312Y08453500D01*
X06911924Y08455451D01*
X06910818Y08457105D01*
X06909595Y08457922D01*
X06909263Y08459387D01*
X06913249Y08463372D01*
X06913249Y08463372D01*
X06913698Y08464044D01*
X06913856Y08464837D01*
X06913856Y08464837D01*
Y08481858D01*
X06914803Y08482693D01*
X06916132Y08482395D01*
X06916248Y08482114D01*
X06917239Y08481703D01*
X06924689D01*
X06925680Y08482114D01*
X06926091Y08483105D01*
Y08488055D01*
X06925680Y08489047D01*
X06924689Y08489457D01*
X06917239D01*
X06916248Y08489047D01*
X06915837Y08488055D01*
Y08487652D01*
X06914590D01*
X06913798Y08487495D01*
X06913125Y08487045D01*
X06913125Y08487045D01*
X06910319Y08484239D01*
X06909869Y08483566D01*
X06909712Y08482773D01*
X06909712Y08482773D01*
Y08465695D01*
X06904626Y08460610D01*
X06903613D01*
X06902949Y08461880D01*
X06903094Y08462088D01*
X06903641Y08462197D01*
X06904639Y08462863D01*
X06905776Y08464001D01*
X06905776Y08464001D01*
X06906442Y08464998D01*
X06906677Y08466175D01*
Y08485159D01*
X06907726D01*
X06908519Y08485316D01*
X06909190Y08485765D01*
X06909639Y08486437D01*
X06909796Y08487228D01*
Y08495668D01*
X06909639Y08496461D01*
X06909190Y08497132D01*
X06908519Y08497581D01*
X06908091Y08497666D01*
Y08511734D01*
X06978666Y08511733D01*
X06978667Y08511733D01*
X06978667Y08511733D01*
X06979257D01*
X06980037Y08511889D01*
X06980698Y08512331D01*
X06981141Y08512993D01*
X06981264Y08513615D01*
X06981449Y08513890D01*
X06981604Y08514671D01*
X06981603Y08563635D01*
X06981603Y08563635D01*
X06981448Y08564415D01*
X06981006Y08565076D01*
X06981006Y08565077D01*
X06960635Y08585448D01*
X06960635Y08585448D01*
X06959974Y08585891D01*
X06959194Y08586046D01*
X06873256Y08586046D01*
X06873256Y08586046D01*
X06872476Y08585890D01*
X06871814Y08585448D01*
X06871814Y08585448D01*
X06858906Y08572540D01*
X06724144Y08572539D01*
Y08630000D01*
X06724144Y08631562D01*
X06724753Y08634625D01*
X06725948Y08637511D01*
X06727683Y08640108D01*
X06729892Y08642317D01*
X06732489Y08644052D01*
X06735375Y08645247D01*
X06738438Y08645856D01*
X06740000Y08645856D01*
D02*
G37*
G36*
X06757285Y08512332D02*
X06757285Y08512332D01*
X06757947Y08511889D01*
X06757787Y08510886D01*
X06757782Y08510862D01*
Y08510829D01*
X06757750Y08510668D01*
Y08510499D01*
X06757743Y08510464D01*
Y08510432D01*
X06757711Y08510270D01*
X06757711Y08497747D01*
X06757711Y08484000D01*
X06757711Y08484000D01*
Y08479830D01*
X06757108D01*
X06756318Y08479672D01*
X06755826Y08479344D01*
X06755108D01*
X06754503Y08479224D01*
X06753991Y08478882D01*
X06753649Y08478369D01*
X06753528Y08477765D01*
Y08472736D01*
X06753649Y08472131D01*
X06753991Y08471618D01*
X06754503Y08471276D01*
X06755108Y08471155D01*
X06755826D01*
X06756318Y08470828D01*
X06757108Y08470670D01*
X06757711D01*
Y08467500D01*
X06757711Y08467499D01*
X06757711Y08404144D01*
X06738438D01*
X06735375Y08404753D01*
X06732489Y08405948D01*
X06729892Y08407683D01*
X06727683Y08409892D01*
X06725948Y08412489D01*
X06724753Y08415375D01*
X06724144Y08418438D01*
X06724144Y08420000D01*
Y08521595D01*
X06725042Y08522711D01*
X06746906Y08522711D01*
X06757285Y08512332D01*
D02*
G37*
%LPC*%
G36*
X06893226Y08497253D02*
X06891273D01*
Y08492464D01*
X06894811D01*
Y08495668D01*
X06894691Y08496275D01*
X06894347Y08496789D01*
X06893833Y08497133D01*
X06893226Y08497253D01*
D02*
G37*
G36*
X06889241D02*
X06887286D01*
X06886680Y08497133D01*
X06886166Y08496789D01*
X06885823Y08496275D01*
X06885702Y08495668D01*
Y08492464D01*
X06889241D01*
Y08497253D01*
D02*
G37*
G36*
X06802689Y08495474D02*
X06801230D01*
Y08491186D01*
X06804268D01*
Y08493895D01*
X06804148Y08494500D01*
X06803806Y08495012D01*
X06803293Y08495354D01*
X06802689Y08495474D01*
D02*
G37*
G36*
X06799198D02*
X06797739D01*
X06797134Y08495354D01*
X06796622Y08495012D01*
X06796280Y08494500D01*
X06796160Y08493895D01*
Y08491186D01*
X06799198D01*
Y08495474D01*
D02*
G37*
G36*
X06894811Y08490432D02*
X06891273D01*
Y08485644D01*
X06893226D01*
X06893833Y08485765D01*
X06894347Y08486108D01*
X06894691Y08486622D01*
X06894811Y08487228D01*
Y08490432D01*
D02*
G37*
G36*
X06889241D02*
X06885702D01*
Y08487228D01*
X06885823Y08486622D01*
X06886166Y08486108D01*
X06886680Y08485765D01*
X06887286Y08485644D01*
X06889241D01*
Y08490432D01*
D02*
G37*
G36*
X06791647Y08488304D02*
X06788937D01*
Y08485266D01*
X06793226D01*
Y08486725D01*
X06793105Y08487329D01*
X06792763Y08487842D01*
X06792251Y08488184D01*
X06791647Y08488304D01*
D02*
G37*
G36*
X06786906D02*
X06784197D01*
X06783592Y08488184D01*
X06783080Y08487842D01*
X06782737Y08487329D01*
X06782617Y08486725D01*
Y08485266D01*
X06786906D01*
Y08488304D01*
D02*
G37*
G36*
X06817189Y08495297D02*
X06812239D01*
X06811248Y08494886D01*
X06810837Y08493895D01*
Y08486445D01*
X06811248Y08485454D01*
X06812239Y08485043D01*
X06817189D01*
X06818180Y08485454D01*
X06818591Y08486445D01*
Y08488228D01*
X06821740D01*
X06823772Y08486196D01*
Y08479153D01*
X06822606Y08478438D01*
X06822502Y08478438D01*
X06821837Y08478570D01*
X06819091D01*
Y08480848D01*
X06818679Y08481843D01*
X06817684Y08482255D01*
X06811744D01*
X06810749Y08481843D01*
X06810337Y08480848D01*
Y08472407D01*
X06809859Y08471693D01*
X06805921D01*
X06804769Y08472407D01*
Y08475612D01*
X06800214D01*
X06795660D01*
Y08472407D01*
X06794507Y08471693D01*
X06793048D01*
Y08472225D01*
X06792637Y08473216D01*
X06791647Y08473627D01*
X06784197D01*
X06783206Y08473216D01*
X06782795Y08472225D01*
Y08467275D01*
X06783206Y08466284D01*
X06784197Y08465873D01*
X06791647D01*
X06792637Y08466284D01*
X06793048Y08467275D01*
Y08467808D01*
X06794634D01*
X06795660Y08466805D01*
Y08463601D01*
X06800214D01*
X06804769D01*
Y08466805D01*
X06805794Y08467808D01*
X06809377D01*
X06810337Y08466805D01*
Y08458365D01*
X06810749Y08457370D01*
X06811744Y08456958D01*
X06815129D01*
X06815170Y08456757D01*
X06815591Y08456127D01*
X06816278Y08455439D01*
X06815752Y08454169D01*
X06811739D01*
X06810748Y08453759D01*
X06810338Y08452767D01*
Y08445317D01*
X06810748Y08444326D01*
X06811739Y08443916D01*
X06812272D01*
Y08441127D01*
X06811744D01*
X06810749Y08440715D01*
X06810337Y08439720D01*
Y08431287D01*
X06804591D01*
Y08439720D01*
X06804179Y08440715D01*
X06803184Y08441127D01*
X06797244D01*
X06796249Y08440715D01*
X06796240Y08440692D01*
X06793049D01*
Y08443720D01*
X06792637Y08444715D01*
X06791641Y08445127D01*
X06783201D01*
X06782206Y08444715D01*
X06781794Y08443720D01*
Y08442692D01*
X06779006D01*
Y08443720D01*
X06778594Y08444715D01*
X06777599Y08445127D01*
X06769159D01*
X06768164Y08444715D01*
X06767752Y08443720D01*
Y08437780D01*
X06768164Y08436785D01*
X06769159Y08436373D01*
X06777599D01*
X06778594Y08436785D01*
X06779006Y08437780D01*
Y08438808D01*
X06781794D01*
Y08437780D01*
X06782206Y08436785D01*
X06783201Y08436373D01*
X06791641D01*
X06792637Y08436785D01*
X06792646Y08436808D01*
X06795837D01*
Y08431287D01*
X06793048D01*
Y08432183D01*
X06792637Y08433174D01*
X06791647Y08433584D01*
X06784197D01*
X06783206Y08433174D01*
X06782795Y08432183D01*
Y08427233D01*
X06783206Y08426241D01*
X06784197Y08425831D01*
X06791647D01*
X06792637Y08426241D01*
X06793048Y08427233D01*
Y08427403D01*
X06798271D01*
Y08425627D01*
X06797739D01*
X06796748Y08425216D01*
X06796337Y08424225D01*
Y08416775D01*
X06796748Y08415784D01*
X06797739Y08415374D01*
X06802689D01*
X06803680Y08415784D01*
X06804091Y08416775D01*
Y08424225D01*
X06803680Y08425216D01*
X06802689Y08425627D01*
X06802156D01*
Y08427403D01*
X06818486D01*
X06819229Y08427551D01*
X06819859Y08427972D01*
X06820015Y08428127D01*
X06820367Y08428076D01*
X06820429Y08428043D01*
X06821281Y08426656D01*
X06821158Y08426038D01*
X06821450Y08424567D01*
X06822284Y08423320D01*
X06823531Y08422487D01*
X06825002Y08422194D01*
X06826473Y08422487D01*
X06827720Y08423320D01*
X06828923Y08422834D01*
X06829091Y08422722D01*
X06830464Y08422449D01*
X06839964D01*
X06841337Y08422722D01*
X06842502Y08423500D01*
X06843279Y08424664D01*
X06843553Y08426038D01*
X06843279Y08427411D01*
X06842502Y08428575D01*
X06842386Y08428653D01*
Y08429923D01*
X06842502Y08430000D01*
X06843279Y08431165D01*
X06843553Y08432538D01*
X06843279Y08433911D01*
X06842549Y08435004D01*
X06842386Y08435362D01*
Y08436213D01*
X06842549Y08436571D01*
X06843279Y08437664D01*
X06843553Y08439038D01*
X06843279Y08440411D01*
X06842502Y08441575D01*
X06841337Y08442354D01*
X06839964Y08442627D01*
X06830464D01*
X06829091Y08442354D01*
X06827926Y08441575D01*
X06827791Y08441373D01*
X06827302Y08441699D01*
X06826559Y08441848D01*
X06821364D01*
X06820656Y08442554D01*
Y08454015D01*
X06821926Y08454541D01*
X06825803Y08450665D01*
X06825803Y08450664D01*
X06826433Y08450244D01*
X06827176Y08450095D01*
X06827177Y08450095D01*
X06827528D01*
X06827926Y08449500D01*
X06829091Y08448722D01*
X06830464Y08448449D01*
X06839964D01*
X06841337Y08448722D01*
X06842502Y08449500D01*
X06843279Y08450664D01*
X06843553Y08452038D01*
X06843279Y08453411D01*
X06842502Y08454575D01*
X06842386Y08454653D01*
Y08455923D01*
X06842502Y08456000D01*
X06843279Y08457164D01*
X06843553Y08458538D01*
X06843279Y08459911D01*
X06842549Y08461004D01*
X06842386Y08461362D01*
Y08462213D01*
X06842549Y08462571D01*
X06843279Y08463665D01*
X06843553Y08465038D01*
X06843279Y08466411D01*
X06842502Y08467576D01*
X06842386Y08467653D01*
Y08468923D01*
X06842502Y08469000D01*
X06843279Y08470164D01*
X06843553Y08471538D01*
X06843279Y08472911D01*
X06842502Y08474075D01*
X06841337Y08474854D01*
X06839964Y08475127D01*
X06837156D01*
Y08485939D01*
X06838105Y08486888D01*
X06841588D01*
Y08486356D01*
X06841998Y08485364D01*
X06842989Y08484954D01*
X06850439D01*
X06851430Y08485364D01*
X06851841Y08486356D01*
Y08491306D01*
X06851430Y08492297D01*
X06850439Y08492707D01*
X06842989D01*
X06841998Y08492297D01*
X06841588Y08491306D01*
Y08490773D01*
X06837301D01*
X06836558Y08490625D01*
X06835928Y08490204D01*
X06833840Y08488116D01*
X06833419Y08487487D01*
X06833271Y08486743D01*
Y08475127D01*
X06830464D01*
X06829091Y08474854D01*
X06828926Y08474744D01*
X06827656Y08475423D01*
Y08487000D01*
X06827509Y08487744D01*
X06827087Y08488373D01*
X06823917Y08491544D01*
X06823287Y08491965D01*
X06822544Y08492112D01*
X06818591D01*
Y08493895D01*
X06818180Y08494886D01*
X06817189Y08495297D01*
D02*
G37*
G36*
X06804268Y08489154D02*
X06801230D01*
Y08484866D01*
X06802689D01*
X06803293Y08484986D01*
X06803806Y08485328D01*
X06804148Y08485840D01*
X06804268Y08486445D01*
Y08489154D01*
D02*
G37*
G36*
X06799198D02*
X06796160D01*
Y08486445D01*
X06796280Y08485840D01*
X06796622Y08485328D01*
X06797134Y08484986D01*
X06797739Y08484866D01*
X06799198D01*
Y08489154D01*
D02*
G37*
G36*
X06793226Y08483234D02*
X06788937D01*
Y08480195D01*
X06791647D01*
X06792251Y08480316D01*
X06792763Y08480658D01*
X06793105Y08481171D01*
X06793226Y08481775D01*
Y08483234D01*
D02*
G37*
G36*
X06786906D02*
X06782617D01*
Y08481775D01*
X06782737Y08481171D01*
X06783080Y08480658D01*
X06783592Y08480316D01*
X06784197Y08480195D01*
X06786906D01*
Y08483234D01*
D02*
G37*
G36*
X06803184Y08482432D02*
X06801230D01*
Y08477644D01*
X06804769D01*
Y08480848D01*
X06804648Y08481454D01*
X06804304Y08481968D01*
X06803790Y08482311D01*
X06803184Y08482432D01*
D02*
G37*
G36*
X06799198D02*
X06797244D01*
X06796638Y08482311D01*
X06796124Y08481968D01*
X06795780Y08481454D01*
X06795660Y08480848D01*
Y08477644D01*
X06799198D01*
Y08482432D01*
D02*
G37*
G36*
X06777599Y08459627D02*
X06769159D01*
X06768164Y08459215D01*
X06767752Y08458220D01*
Y08457192D01*
X06765464D01*
X06765464Y08457192D01*
X06764720Y08457045D01*
X06764091Y08456624D01*
X06764091Y08456624D01*
X06762090Y08454623D01*
X06761669Y08453994D01*
X06761522Y08453250D01*
Y08431837D01*
X06761669Y08431094D01*
X06762090Y08430464D01*
X06764220Y08428334D01*
X06764850Y08427913D01*
X06765594Y08427766D01*
X06765594Y08427766D01*
X06769752D01*
Y08427233D01*
X06770163Y08426241D01*
X06771154Y08425831D01*
X06778604D01*
X06779595Y08426241D01*
X06780005Y08427233D01*
Y08432183D01*
X06779595Y08433174D01*
X06778604Y08433584D01*
X06771154D01*
X06770163Y08433174D01*
X06769752Y08432183D01*
Y08431650D01*
X06766398D01*
X06765406Y08432642D01*
Y08452446D01*
X06766268Y08453307D01*
X06767752D01*
Y08452280D01*
X06768164Y08451285D01*
X06769159Y08450873D01*
X06777599D01*
X06778594Y08451285D01*
X06779006Y08452280D01*
Y08458220D01*
X06778594Y08459215D01*
X06777599Y08459627D01*
D02*
G37*
G36*
X06804769Y08461569D02*
X06801230D01*
Y08456780D01*
X06803184D01*
X06803790Y08456901D01*
X06804304Y08457245D01*
X06804648Y08457759D01*
X06804769Y08458365D01*
Y08461569D01*
D02*
G37*
G36*
X06799198D02*
X06795660D01*
Y08458365D01*
X06795780Y08457759D01*
X06796124Y08457245D01*
X06796638Y08456901D01*
X06797244Y08456780D01*
X06799198D01*
Y08461569D01*
D02*
G37*
G36*
X06791641Y08459627D02*
X06783201D01*
X06782206Y08459215D01*
X06781794Y08458220D01*
Y08452280D01*
X06782206Y08451285D01*
X06783201Y08450873D01*
X06785563D01*
X06785627Y08450549D01*
X06786048Y08449919D01*
X06786841Y08449127D01*
X06787471Y08448705D01*
X06788214Y08448558D01*
X06795837D01*
Y08445317D01*
X06796248Y08444326D01*
X06797239Y08443916D01*
X06802189D01*
X06803180Y08444326D01*
X06803591Y08445317D01*
Y08452767D01*
X06803180Y08453759D01*
X06802189Y08454169D01*
X06797239D01*
X06796248Y08453759D01*
X06795837Y08452767D01*
Y08452442D01*
X06793049D01*
Y08458220D01*
X06792637Y08459215D01*
X06791641Y08459627D01*
D02*
G37*
G36*
X06817189Y08425804D02*
X06815730D01*
Y08421516D01*
X06818768D01*
Y08424225D01*
X06818648Y08424829D01*
X06818306Y08425342D01*
X06817794Y08425684D01*
X06817189Y08425804D01*
D02*
G37*
G36*
X06813698D02*
X06812239D01*
X06811635Y08425684D01*
X06811122Y08425342D01*
X06810780Y08424829D01*
X06810660Y08424225D01*
Y08421516D01*
X06813698D01*
Y08425804D01*
D02*
G37*
G36*
X06818768Y08419484D02*
X06815730D01*
Y08415195D01*
X06817189D01*
X06817794Y08415316D01*
X06818306Y08415658D01*
X06818648Y08416171D01*
X06818768Y08416775D01*
Y08419484D01*
D02*
G37*
G36*
X06813698D02*
X06810660D01*
Y08416775D01*
X06810780Y08416171D01*
X06811122Y08415658D01*
X06811635Y08415316D01*
X06812239Y08415195D01*
X06813698D01*
Y08419484D01*
D02*
G37*
G36*
X07150000Y08559504D02*
X07146867Y08559091D01*
X07143948Y08557882D01*
X07141442Y08555959D01*
X07139518Y08553452D01*
X07138309Y08550533D01*
X07137896Y08547400D01*
X07138309Y08544268D01*
X07139518Y08541348D01*
X07141442Y08538842D01*
X07143948Y08536918D01*
X07146867Y08535709D01*
X07150000Y08535297D01*
X07153132Y08535709D01*
X07156052Y08536918D01*
X07158558Y08538842D01*
X07160482Y08541348D01*
X07161691Y08544268D01*
X07162103Y08547400D01*
X07161691Y08550533D01*
X07160482Y08553452D01*
X07158558Y08555959D01*
X07156052Y08557882D01*
X07153132Y08559091D01*
X07150000Y08559504D01*
D02*
G37*
G36*
X06924689Y08474957D02*
X06917239D01*
X06916248Y08474547D01*
X06915837Y08473555D01*
Y08468605D01*
X06916248Y08467614D01*
X06917239Y08467203D01*
X06919022D01*
Y08464415D01*
X06916244D01*
X06915249Y08464003D01*
X06914837Y08463008D01*
Y08457068D01*
X06915249Y08456073D01*
X06916244Y08455660D01*
X06924684D01*
X06925679Y08456073D01*
X06926091Y08457068D01*
Y08463008D01*
X06925679Y08464003D01*
X06924684Y08464415D01*
X06922906D01*
Y08467203D01*
X06924689D01*
X06925680Y08467614D01*
X06926091Y08468605D01*
Y08473555D01*
X06925680Y08474547D01*
X06924689Y08474957D01*
D02*
G37*
G36*
X07150000Y08468167D02*
X07147058Y08467780D01*
X07144316Y08466644D01*
X07141962Y08464838D01*
X07140156Y08462484D01*
X07139020Y08459742D01*
X07138633Y08456800D01*
X07139020Y08453858D01*
X07140156Y08451116D01*
X07141962Y08448762D01*
X07144316Y08446956D01*
X07147058Y08445820D01*
X07150000Y08445433D01*
X07152942Y08445820D01*
X07155684Y08446956D01*
X07158038Y08448762D01*
X07159844Y08451116D01*
X07160980Y08453858D01*
X07161367Y08456800D01*
X07160980Y08459742D01*
X07159844Y08462484D01*
X07158038Y08464838D01*
X07155684Y08466644D01*
X07152942Y08467780D01*
X07150000Y08468167D01*
D02*
G37*
G36*
X06982920Y08432598D02*
X06980969Y08432210D01*
X06979879Y08431481D01*
X06979132D01*
X06978817Y08431692D01*
X06978024Y08431850D01*
X06971589D01*
X06970796Y08431692D01*
X06970124Y08431243D01*
X06969675Y08430571D01*
X06969517Y08429777D01*
Y08417842D01*
X06969675Y08417050D01*
X06970124Y08416377D01*
X06970796Y08415928D01*
X06971589Y08415770D01*
X06978024D01*
X06978817Y08415928D01*
X06979489Y08416377D01*
X06979938Y08417050D01*
X06980096Y08417842D01*
Y08421962D01*
X06981367Y08422711D01*
X06982920Y08422402D01*
X06984871Y08422790D01*
X06986525Y08423895D01*
X06987630Y08425549D01*
X06988018Y08427500D01*
X06987630Y08429451D01*
X06986525Y08431105D01*
X06984871Y08432210D01*
X06982920Y08432598D01*
D02*
G37*
G36*
X06923434Y08421555D02*
X06920229D01*
Y08418016D01*
X06925018D01*
Y08419970D01*
X06924898Y08420576D01*
X06924554Y08421091D01*
X06924041Y08421434D01*
X06923434Y08421555D01*
D02*
G37*
G36*
X06918197D02*
X06914994D01*
X06914387Y08421434D01*
X06913873Y08421091D01*
X06913530Y08420576D01*
X06913409Y08419970D01*
Y08418016D01*
X06918197D01*
Y08421555D01*
D02*
G37*
G36*
X06925018Y08415984D02*
X06920229D01*
Y08412446D01*
X06923434D01*
X06924041Y08412566D01*
X06924554Y08412910D01*
X06924898Y08413423D01*
X06925018Y08414030D01*
Y08415984D01*
D02*
G37*
G36*
X06918197D02*
X06913409D01*
Y08414030D01*
X06913530Y08413423D01*
X06913873Y08412910D01*
X06914387Y08412566D01*
X06914994Y08412446D01*
X06918197D01*
Y08415984D01*
D02*
G37*
G36*
X06740000Y08514370D02*
X06736868Y08513958D01*
X06733948Y08512748D01*
X06731442Y08510825D01*
X06729518Y08508318D01*
X06728309Y08505399D01*
X06727897Y08502267D01*
X06728309Y08499134D01*
X06729518Y08496215D01*
X06731442Y08493708D01*
X06733948Y08491785D01*
X06736868Y08490576D01*
X06740000Y08490163D01*
X06743132Y08490576D01*
X06746052Y08491785D01*
X06748558Y08493708D01*
X06750482Y08496215D01*
X06751691Y08499134D01*
X06752104Y08502267D01*
X06751691Y08505399D01*
X06750482Y08508318D01*
X06748558Y08510825D01*
X06746052Y08512748D01*
X06743132Y08513958D01*
X06740000Y08514370D01*
D02*
G37*
G36*
Y08468167D02*
X06737058Y08467780D01*
X06734316Y08466644D01*
X06731962Y08464838D01*
X06730156Y08462484D01*
X06729020Y08459742D01*
X06728633Y08456800D01*
X06729020Y08453858D01*
X06730156Y08451116D01*
X06731962Y08448762D01*
X06734316Y08446956D01*
X06737058Y08445820D01*
X06740000Y08445433D01*
X06742942Y08445820D01*
X06745684Y08446956D01*
X06748038Y08448762D01*
X06749844Y08451116D01*
X06750980Y08453858D01*
X06751367Y08456800D01*
X06750980Y08459742D01*
X06749844Y08462484D01*
X06748038Y08464838D01*
X06745684Y08466644D01*
X06742942Y08467780D01*
X06740000Y08468167D01*
D02*
G37*
%LPD*%
D10*
X06920964Y08485580D02*
D03*
Y08471080D02*
D03*
X06787922Y08429708D02*
D03*
Y08415208D02*
D03*
X06774879Y08429708D02*
D03*
Y08415208D02*
D03*
X06863922Y08503330D02*
D03*
Y08488831D02*
D03*
X06846714Y08503330D02*
D03*
Y08488831D02*
D03*
X06787922Y08484250D02*
D03*
Y08469750D02*
D03*
D11*
X07008307Y08463758D02*
D03*
X07096807D02*
D03*
D12*
X06864714Y08448788D02*
D03*
D13*
X06894214Y08426038D02*
D03*
Y08432538D02*
D03*
Y08439038D02*
D03*
Y08445538D02*
D03*
Y08452038D02*
D03*
Y08458538D02*
D03*
Y08465038D02*
D03*
Y08471538D02*
D03*
X06835214Y08426038D02*
D03*
Y08432538D02*
D03*
Y08439038D02*
D03*
Y08445538D02*
D03*
Y08452038D02*
D03*
Y08458538D02*
D03*
Y08465038D02*
D03*
Y08471538D02*
D03*
D14*
X06757623Y08475250D02*
D03*
X06759623D02*
D03*
D15*
X06814714Y08420500D02*
D03*
X06800214D02*
D03*
X06799714Y08449042D02*
D03*
X06814214D02*
D03*
X06800214Y08490170D02*
D03*
X06814714D02*
D03*
D16*
X06935690Y08480000D02*
D03*
X06949152D02*
D03*
X06962360D02*
D03*
X06975823D02*
D03*
X06974807Y08423810D02*
D03*
X06962106D02*
D03*
X06949407D02*
D03*
X06936707D02*
D03*
X06935690Y08557463D02*
D03*
X06949152D02*
D03*
X06962360D02*
D03*
X06975823D02*
D03*
X06974807Y08501273D02*
D03*
X06962106D02*
D03*
X06949407D02*
D03*
X06936707D02*
D03*
D17*
X07089991Y08565316D02*
D03*
Y08536816D02*
D03*
X07121503Y08565316D02*
D03*
Y08536816D02*
D03*
X06901417Y08606500D02*
D03*
Y08578000D02*
D03*
X06932460Y08606500D02*
D03*
Y08578000D02*
D03*
D18*
X06773379Y08455250D02*
D03*
Y08440750D02*
D03*
X06919214Y08417000D02*
D03*
Y08431500D02*
D03*
X06877464Y08488831D02*
D03*
Y08503330D02*
D03*
X06920464Y08445538D02*
D03*
Y08460038D02*
D03*
X06787421Y08455250D02*
D03*
Y08440750D02*
D03*
D19*
X06890256Y08491448D02*
D03*
X06904756D02*
D03*
X06800214Y08462585D02*
D03*
X06814714D02*
D03*
Y08435500D02*
D03*
X06800214D02*
D03*
Y08476627D02*
D03*
X06814714D02*
D03*
D20*
X06836750Y08618250D02*
D03*
Y08544250D02*
D03*
X07029999Y08550816D02*
D03*
Y08624816D02*
D03*
D21*
X07128000Y08409000D02*
Y08458401D01*
X07150000Y08480401D01*
Y08502600D01*
X07123860Y08404860D02*
X07128000Y08409000D01*
X06788386Y08404860D02*
X07123860D01*
X06911783Y08464837D02*
Y08482773D01*
X06905484Y08458538D02*
X06911783Y08464837D01*
X06894214Y08458538D02*
X06905484D01*
X06911783Y08482773D02*
X06914590Y08485580D01*
X06920964D01*
X06787922Y08405324D02*
X06788386Y08404860D01*
X06787922Y08405324D02*
Y08415208D01*
X06774879D02*
X06787922D01*
D22*
X06974807Y08497500D02*
Y08501273D01*
Y08423810D02*
Y08427500D01*
X06920464Y08445538D02*
X06934750D01*
X06974807Y08497500D02*
X06982920D01*
X06974807Y08427500D02*
X06982920D01*
D23*
X06903601Y08466175D02*
Y08488925D01*
X06902464Y08465038D02*
X06903601Y08466175D01*
Y08488925D02*
X06904756Y08490081D01*
Y08491448D01*
D24*
X06920464Y08460038D02*
X06920964Y08460538D01*
Y08471080D01*
X06787922Y08469750D02*
X06818714D01*
X06800214Y08420500D02*
Y08429345D01*
X06818486D01*
X06825800Y08431000D02*
X06827338Y08432538D01*
X06820140Y08431000D02*
X06825800D01*
X06818486Y08429345D02*
X06820140Y08431000D01*
X06787922Y08429708D02*
X06788284Y08429345D01*
X06800214D01*
Y08435500D01*
X06818714Y08441750D02*
Y08455750D01*
X06816964Y08457500D02*
X06818714Y08455750D01*
X06814214Y08436000D02*
X06814714Y08435500D01*
X06814214Y08436000D02*
Y08449042D01*
X06787421Y08451293D02*
X06788214Y08450500D01*
X06799714Y08449042D02*
Y08450500D01*
X06787421Y08451293D02*
Y08455250D01*
X06827338Y08432538D02*
X06835214D01*
X06765594Y08429708D02*
X06774879D01*
X06763464Y08431837D02*
X06765594Y08429708D01*
X06763464Y08431837D02*
Y08453250D01*
X06765464Y08455250D02*
X06773379D01*
X06763464Y08453250D02*
X06765464Y08455250D01*
X06835214Y08471538D02*
Y08486743D01*
X06814714Y08476627D02*
X06821837D01*
X06814714Y08490170D02*
X06822544D01*
X06814214Y08449042D02*
Y08450543D01*
X06820559Y08439905D02*
X06826559D01*
X06818714Y08441750D02*
X06820559Y08439905D01*
X06787421Y08438750D02*
Y08440750D01*
X06800214Y08435500D02*
Y08438750D01*
X06827426Y08439038D02*
X06835214D01*
X06826559Y08439905D02*
X06827426Y08439038D01*
X06827176Y08458538D02*
X06835214D01*
X06827426Y08465038D02*
X06835214D01*
X06773379Y08440750D02*
X06787421D01*
X06814714Y08435500D02*
X06823714D01*
X06825002Y08426038D02*
X06835214D01*
X06919214Y08431500D02*
Y08436000D01*
X06909214Y08439038D02*
X06911501Y08436750D01*
X06918464D01*
X06894214Y08439038D02*
X06909214D01*
X06918464Y08436750D02*
X06919214Y08436000D01*
X06827176Y08452038D02*
X06835214D01*
X06894214Y08465038D02*
X06902464Y08465038D01*
X06835214Y08486743D02*
X06837301Y08488831D01*
X06846714D01*
X06863922D02*
X06877464D01*
X06788214Y08450500D02*
X06799714D01*
X06787421Y08438750D02*
X06800214D01*
X06877464Y08475236D02*
Y08488831D01*
Y08475236D02*
X06881162Y08471538D01*
X06894214D01*
X06816964Y08457500D02*
Y08462585D01*
X06814714D02*
X06816964D01*
X06822544Y08490170D02*
X06825714Y08487000D01*
X06818714Y08469750D02*
X06820214Y08468250D01*
Y08459000D02*
X06827176Y08452038D01*
X06820214Y08459000D02*
Y08468250D01*
X06821837Y08476627D02*
X06822964Y08475500D01*
Y08462750D02*
X06827176Y08458538D01*
X06822964Y08462750D02*
Y08475500D01*
X06825714Y08466750D02*
X06827426Y08465038D01*
X06825714Y08466750D02*
Y08487000D01*
D25*
X06877464Y08503330D02*
Y08515000D01*
X06904756Y08491448D02*
Y08515082D01*
X06863922Y08503330D02*
Y08515000D01*
X06846714Y08503330D02*
Y08515000D01*
D26*
X06894214Y08432538D02*
X06907214D01*
X06894214Y08445538D02*
X06920464D01*
X06894214Y08452038D02*
X06902252D01*
X06903714Y08453500D01*
X06907214D01*
D27*
X06762250Y08475750D02*
D03*
D28*
X06755230D02*
D03*
D29*
X06740000Y08547733D02*
D03*
Y08502267D02*
D03*
Y08456800D02*
D03*
X07150000Y08547400D02*
D03*
Y08502600D02*
D03*
Y08456800D02*
D03*
D30*
X06740000Y08593200D02*
D03*
X07150000D02*
D03*
D31*
X06740000Y08420000D02*
D03*
X07150000D02*
D03*
X07150000Y08630000D02*
D03*
X06740000D02*
D03*
D32*
X07122160Y08514080D02*
D03*
Y08503920D02*
D03*
X07112000Y08514080D02*
D03*
Y08503920D02*
D03*
X07101840Y08514080D02*
D03*
Y08503920D02*
D03*
X07091680Y08514080D02*
D03*
Y08503920D02*
D03*
X07081520Y08514080D02*
D03*
Y08503920D02*
D03*
X06870214Y08443288D02*
D03*
X06859214D02*
D03*
X06870214Y08454288D02*
D03*
X06859214D02*
D03*
X06793162Y08462750D02*
D03*
X06823714Y08435500D02*
D03*
X06825002Y08426038D02*
D03*
X06892087Y08481390D02*
D03*
X06886473D02*
D03*
X06824214Y08445538D02*
D03*
X06729730Y08472170D02*
D03*
Y08481060D02*
D03*
X06738620Y08472170D02*
D03*
Y08481060D02*
D03*
X06747510Y08472170D02*
D03*
Y08481060D02*
D03*
X06731000Y08534400D02*
D03*
Y08559800D02*
D03*
X06756400Y08534400D02*
D03*
Y08547100D02*
D03*
Y08559800D02*
D03*
X06769100Y08534400D02*
D03*
Y08547100D02*
D03*
Y08559800D02*
D03*
X06781800Y08534400D02*
D03*
Y08547100D02*
D03*
Y08559800D02*
D03*
X06794500Y08534400D02*
D03*
Y08547100D02*
D03*
Y08559800D02*
D03*
X06807200Y08534400D02*
D03*
Y08547100D02*
D03*
Y08559800D02*
D03*
X06819900Y08534400D02*
D03*
Y08547100D02*
D03*
Y08559800D02*
D03*
X06858000Y08534400D02*
D03*
Y08547100D02*
D03*
Y08559800D02*
D03*
X06766560Y08595360D02*
D03*
Y08615680D02*
D03*
Y08636000D02*
D03*
X06786880Y08595360D02*
D03*
Y08615680D02*
D03*
Y08636000D02*
D03*
X06807200Y08595360D02*
D03*
Y08615680D02*
D03*
Y08636000D02*
D03*
X06868160Y08595360D02*
D03*
Y08615680D02*
D03*
Y08636000D02*
D03*
X06888480Y08595360D02*
D03*
Y08636000D02*
D03*
X06908800Y08595360D02*
D03*
Y08636000D02*
D03*
X06929120Y08595360D02*
D03*
Y08636000D02*
D03*
X06949440Y08595360D02*
D03*
Y08615680D02*
D03*
Y08636000D02*
D03*
X06969760Y08595360D02*
D03*
Y08615680D02*
D03*
Y08636000D02*
D03*
X06990080Y08595360D02*
D03*
Y08615680D02*
D03*
Y08636000D02*
D03*
X07010400Y08595360D02*
D03*
Y08615680D02*
D03*
Y08636000D02*
D03*
X07051040Y08595360D02*
D03*
Y08615680D02*
D03*
Y08636000D02*
D03*
X07071360Y08595360D02*
D03*
Y08615680D02*
D03*
Y08636000D02*
D03*
X07091680Y08595360D02*
D03*
Y08615680D02*
D03*
Y08636000D02*
D03*
X07112000Y08595360D02*
D03*
Y08615680D02*
D03*
Y08636000D02*
D03*
X06897675Y08481390D02*
D03*
X06898640Y08413540D02*
D03*
X06908800D02*
D03*
Y08423700D02*
D03*
X06929120Y08413540D02*
D03*
Y08423700D02*
D03*
X06939280Y08413540D02*
D03*
X06949440D02*
D03*
X06959600D02*
D03*
X06969760D02*
D03*
X06979920D02*
D03*
X06990080D02*
D03*
Y08423700D02*
D03*
X07000240Y08413540D02*
D03*
Y08423700D02*
D03*
X07010400Y08413540D02*
D03*
Y08423700D02*
D03*
X06766560Y08423656D02*
D03*
Y08464296D02*
D03*
Y08474456D02*
D03*
X06776720Y08464296D02*
D03*
Y08474456D02*
D03*
X06807200Y08413496D02*
D03*
Y08423656D02*
D03*
Y08443976D02*
D03*
Y08454136D02*
D03*
X06827520Y08413496D02*
D03*
X06837680D02*
D03*
X06847840D02*
D03*
Y08423656D02*
D03*
Y08433816D02*
D03*
Y08443976D02*
D03*
Y08454136D02*
D03*
Y08464296D02*
D03*
Y08474456D02*
D03*
X06858000Y08413496D02*
D03*
Y08423656D02*
D03*
Y08464296D02*
D03*
Y08474456D02*
D03*
X06868160Y08413496D02*
D03*
Y08423656D02*
D03*
Y08464296D02*
D03*
Y08474456D02*
D03*
X06878320Y08413496D02*
D03*
Y08423656D02*
D03*
Y08464296D02*
D03*
D33*
X06907214Y08432538D02*
D03*
Y08453500D02*
D03*
X06982920Y08427500D02*
D03*
Y08497500D02*
D03*
M02*
