G04 Layer_Physical_Order=4*
G04 Layer_Color=16711680*
%FSAX44Y44*%
%MOMM*%
G71*
G01*
G75*
%ADD22C,0.3810*%
%ADD24C,0.1270*%
%ADD29C,2.0000*%
G04:AMPARAMS|DCode=30|XSize=2mm|YSize=2mm|CornerRadius=0.5mm|HoleSize=0mm|Usage=FLASHONLY|Rotation=270.000|XOffset=0mm|YOffset=0mm|HoleType=Round|Shape=RoundedRectangle|*
%AMROUNDEDRECTD30*
21,1,2.0000,1.0000,0,0,270.0*
21,1,1.0000,2.0000,0,0,270.0*
1,1,1.0000,-0.5000,-0.5000*
1,1,1.0000,-0.5000,0.5000*
1,1,1.0000,0.5000,0.5000*
1,1,1.0000,0.5000,-0.5000*
%
%ADD30ROUNDEDRECTD30*%
%ADD31C,3.0000*%
%ADD32C,0.5000*%
%ADD33C,0.6000*%
G36*
X06866500Y08570500D02*
X06866500Y08529244D01*
X06724144Y08529244D01*
Y08570500D01*
X06866500Y08570500D01*
D02*
G37*
G36*
X07121652Y08570750D02*
X07121837Y08570713D01*
X07121994Y08570608D01*
X07122609Y08569994D01*
X07122714Y08569836D01*
X07122750Y08569651D01*
X07122750Y08553940D01*
X07122750Y08548015D01*
X07122750Y08548015D01*
X07122750Y08548015D01*
X07122750Y08547170D01*
X07123347Y08546573D01*
X07123347Y08546573D01*
X07142484Y08527436D01*
X07162124Y08507797D01*
X07162229Y08507640D01*
X07162266Y08507455D01*
X07162267Y08487111D01*
X07162230Y08486926D01*
X07162125Y08486769D01*
X07161511Y08486155D01*
X07161354Y08486050D01*
X07161168Y08486013D01*
X07127983Y08486013D01*
X06985002Y08486012D01*
X06984875Y08486038D01*
X06984818D01*
X06984792Y08486089D01*
X06984713Y08486192D01*
X06984514Y08486594D01*
X06984481Y08486718D01*
X06984449Y08486782D01*
X06984440Y08486852D01*
X06984432Y08486874D01*
X06984300Y08487100D01*
X06984263Y08487189D01*
X06985735Y08488661D01*
X06986599Y08489953D01*
X06986901Y08491477D01*
Y08494459D01*
X06987630Y08495549D01*
X06988018Y08497500D01*
X06987630Y08499451D01*
X06986525Y08501105D01*
X06984871Y08502210D01*
X06982920Y08502598D01*
X06980969Y08502210D01*
X06979315Y08501105D01*
X06978210Y08499451D01*
X06977822Y08497500D01*
X06978210Y08495549D01*
X06978425Y08495227D01*
X06977747Y08493957D01*
X06920687D01*
X06919163Y08493654D01*
X06917872Y08492791D01*
X06916424Y08491343D01*
X06915561Y08490051D01*
X06915258Y08488528D01*
Y08486012D01*
X06905863Y08486012D01*
X06905863Y08486012D01*
X06901893D01*
X06871193Y08486012D01*
X06724144Y08486011D01*
Y08525165D01*
X06866500Y08525165D01*
X06868061Y08525476D01*
X06869384Y08526360D01*
X06870268Y08527683D01*
X06870579Y08529244D01*
X06870578Y08569681D01*
X06870591Y08569691D01*
X06870698Y08569730D01*
X06870910Y08569924D01*
X06871143Y08570094D01*
X06871633Y08570628D01*
X06871732Y08570694D01*
X06871758Y08570720D01*
X06871795Y08570722D01*
X06871910Y08570750D01*
X06893500D01*
X07121652Y08570750D01*
D02*
G37*
G36*
X06740000Y08645856D02*
X07150000D01*
X07151562Y08645856D01*
X07154625Y08645247D01*
X07157511Y08644052D01*
X07160108Y08642317D01*
X07162317Y08640108D01*
X07164052Y08637511D01*
X07165247Y08634625D01*
X07165856Y08631562D01*
X07165856Y08630000D01*
Y08420000D01*
X07165856Y08418438D01*
X07165247Y08415375D01*
X07164052Y08412489D01*
X07162317Y08409892D01*
X07160108Y08407683D01*
X07157511Y08405948D01*
X07154625Y08404753D01*
X07151562Y08404144D01*
X07127549D01*
X07127064Y08405317D01*
X07129373Y08407626D01*
X07129794Y08408257D01*
X07129942Y08409000D01*
X07129942Y08409000D01*
Y08428919D01*
X07140695Y08439672D01*
X07148576D01*
X07149319Y08439819D01*
X07149949Y08440240D01*
X07151373Y08441664D01*
X07151794Y08442294D01*
X07151942Y08443038D01*
Y08445688D01*
X07152942Y08445820D01*
X07155684Y08446956D01*
X07158038Y08448762D01*
X07159844Y08451116D01*
X07160980Y08453858D01*
X07161367Y08456800D01*
X07160980Y08459742D01*
X07159844Y08462484D01*
X07158038Y08464838D01*
X07155684Y08466644D01*
X07152942Y08467780D01*
X07150000Y08468167D01*
X07147058Y08467780D01*
X07144316Y08466644D01*
X07141962Y08464838D01*
X07140156Y08462484D01*
X07139020Y08459742D01*
X07138633Y08456800D01*
X07139020Y08453858D01*
X07140156Y08451116D01*
X07141962Y08448762D01*
X07144316Y08446956D01*
X07147058Y08445820D01*
X07148058Y08445688D01*
Y08443842D01*
X07147772Y08443556D01*
X07139891D01*
X07139147Y08443408D01*
X07138517Y08442987D01*
X07138517Y08442987D01*
X07126627Y08431097D01*
X07126205Y08430466D01*
X07126058Y08429724D01*
Y08409805D01*
X07123030Y08406777D01*
X06889289D01*
X06889289Y08429713D01*
Y08435171D01*
X06889289Y08451321D01*
X06889289Y08470258D01*
X06889815Y08471002D01*
X06890559Y08471528D01*
X06901404Y08471528D01*
X06901404Y08471528D01*
X06901605Y08471528D01*
X06901802Y08471567D01*
X06902003Y08471567D01*
X06902025Y08471576D01*
X06902047Y08471577D01*
X06902048Y08471577D01*
X06902211Y08471648D01*
X06902385Y08471683D01*
X06902395Y08471689D01*
X06902395Y08471689D01*
X06902717Y08471823D01*
X06902728Y08471825D01*
X06902894Y08471936D01*
X06903079Y08472012D01*
X06903222Y08472155D01*
X06903390Y08472267D01*
X06903862Y08472739D01*
X06903862Y08472740D01*
X06904004Y08472881D01*
X06904116Y08473048D01*
X06904257Y08473190D01*
X06904285Y08473257D01*
X06904332Y08473312D01*
X06904333Y08473312D01*
X06904374Y08473435D01*
X06904446Y08473543D01*
X06904448Y08473554D01*
X06904448Y08473555D01*
X06904581Y08473876D01*
X06904581Y08473876D01*
X06904587Y08473885D01*
X06904620Y08474048D01*
X06904689Y08474199D01*
X06904689Y08474199D01*
X06904690Y08474236D01*
X06904704Y08474270D01*
X06904704Y08474470D01*
X06904706Y08474481D01*
X06904706Y08474481D01*
X06904706Y08474482D01*
Y08474482D01*
X06904743Y08474666D01*
Y08474866D01*
X06904743Y08474867D01*
X06904743Y08483074D01*
X06905493Y08483825D01*
X06906013Y08483973D01*
X06915258Y08483973D01*
Y08457482D01*
X06910255D01*
X06909165Y08458210D01*
X06907214Y08458598D01*
X06905263Y08458210D01*
X06903609Y08457105D01*
X06902504Y08455451D01*
X06902116Y08453500D01*
X06902504Y08451549D01*
X06903609Y08449895D01*
X06905263Y08448790D01*
X06907214Y08448402D01*
X06909165Y08448790D01*
X06910255Y08449518D01*
X06917460D01*
X06918984Y08449822D01*
X06920276Y08450685D01*
X06922054Y08452464D01*
X06922918Y08453755D01*
X06923221Y08455279D01*
Y08485994D01*
X06981418D01*
X06982491Y08486207D01*
X06982493Y08486205D01*
X06982538Y08486073D01*
X06982551Y08486052D01*
X06982603Y08485947D01*
X06982621Y08485877D01*
X06982653Y08485814D01*
X06982686Y08485690D01*
X06982885Y08485288D01*
X06982964Y08485185D01*
X06982964Y08485184D01*
X06982990Y08485133D01*
X06983033Y08485077D01*
X06983096Y08484949D01*
X06983176Y08484846D01*
X06983255Y08484777D01*
X06983376Y08484595D01*
X06983433Y08484557D01*
X06983475Y08484503D01*
X06983726Y08484358D01*
X06983743Y08484342D01*
X06983760Y08484335D01*
X06983775Y08484322D01*
X06983796Y08484315D01*
X06984037Y08484153D01*
X06984105Y08484140D01*
X06984165Y08484106D01*
X06984381Y08484077D01*
X06984478Y08484037D01*
X06984605Y08484012D01*
X06984748D01*
X06984818Y08483998D01*
X06984875D01*
X06985002Y08483973D01*
X07127983Y08483973D01*
X07161168Y08483973D01*
X07161365Y08484012D01*
X07161566Y08484012D01*
X07161752Y08484050D01*
X07161752D01*
X07161937Y08484127D01*
X07161949Y08484128D01*
X07161959Y08484135D01*
X07162280Y08484268D01*
X07162291Y08484271D01*
X07162301Y08484277D01*
X07162487Y08484354D01*
X07162644Y08484459D01*
X07162786Y08484601D01*
X07162953Y08484713D01*
X07163567Y08485327D01*
X07163679Y08485494D01*
X07163821Y08485636D01*
X07163926Y08485793D01*
X07163926Y08485793D01*
X07163926Y08485793D01*
X07164003Y08485979D01*
X07164009Y08485988D01*
X07164011Y08486000D01*
X07164145Y08486321D01*
X07164151Y08486331D01*
X07164153Y08486343D01*
X07164230Y08486528D01*
Y08486528D01*
X07164230Y08486528D01*
X07164267Y08486714D01*
X07164267Y08486915D01*
X07164306Y08487112D01*
X07164305Y08507455D01*
X07164266Y08507652D01*
Y08507853D01*
X07164229Y08508038D01*
X07164152Y08508224D01*
X07164150Y08508235D01*
X07164143Y08508245D01*
X07164010Y08508566D01*
X07164008Y08508578D01*
X07164001Y08508588D01*
X07163925Y08508773D01*
X07163820Y08508931D01*
X07163677Y08509072D01*
X07163566Y08509240D01*
X07143926Y08528878D01*
X07124789Y08548015D01*
X07124789Y08553940D01*
X07124789Y08569651D01*
X07124750Y08569848D01*
Y08570049D01*
X07124714Y08570234D01*
Y08570234D01*
X07124637Y08570420D01*
X07124634Y08570432D01*
X07124628Y08570441D01*
X07124495Y08570762D01*
X07124492Y08570774D01*
X07124486Y08570784D01*
X07124409Y08570969D01*
X07124304Y08571127D01*
X07124162Y08571269D01*
X07124050Y08571436D01*
X07123436Y08572050D01*
X07123269Y08572161D01*
X07123127Y08572303D01*
X07122970Y08572408D01*
X07122970Y08572408D01*
X07122970Y08572408D01*
X07122784Y08572485D01*
X07122775Y08572492D01*
X07122764Y08572494D01*
X07122576Y08572572D01*
X07122441Y08572628D01*
X07122432Y08572634D01*
X07122421Y08572636D01*
X07122235Y08572713D01*
X07122235D01*
X07122234Y08572713D01*
X07122050Y08572750D01*
X07121849D01*
X07121652Y08572789D01*
X06893500Y08572789D01*
X06871910D01*
X06871760Y08572759D01*
X06871758Y08572759D01*
X06871735Y08572755D01*
X06871708Y08572759D01*
X06871671Y08572758D01*
X06871591Y08572738D01*
X06871428Y08572731D01*
X06871313Y08572703D01*
X06871191Y08572647D01*
X06870977Y08572604D01*
X06870941Y08572580D01*
X06870898Y08572570D01*
X06870722Y08572441D01*
X06870599Y08572390D01*
X06870500Y08572324D01*
X06870385Y08572208D01*
X06870316Y08572162D01*
X06870289Y08572136D01*
X06870274Y08572113D01*
X06870256Y08572100D01*
X06870255Y08572098D01*
X06870131Y08572007D01*
X06869777Y08571622D01*
X06869706Y08571570D01*
X06869630Y08571487D01*
X06869337Y08571438D01*
X06868796Y08571467D01*
X06868444Y08571543D01*
X06868049Y08571782D01*
X06867942Y08571942D01*
X06867280Y08572384D01*
X06866500Y08572539D01*
X06724144Y08572539D01*
Y08630000D01*
X06724144Y08631562D01*
X06724753Y08634625D01*
X06725948Y08637511D01*
X06727683Y08640108D01*
X06729892Y08642317D01*
X06732489Y08644052D01*
X06735375Y08645247D01*
X06738438Y08645856D01*
X06740000Y08645856D01*
D02*
G37*
G36*
X06902704Y08474866D02*
X06902704Y08474866D01*
Y08474666D01*
X06902704Y08474666D01*
X06902698Y08474656D01*
X06902564Y08474335D01*
X06902562Y08474323D01*
X06902562Y08474323D01*
X06902421Y08474182D01*
X06902420Y08474181D01*
X06901948Y08473709D01*
X06901937Y08473707D01*
X06901615Y08473574D01*
X06901605Y08473567D01*
X06901605Y08473567D01*
X06901404Y08473567D01*
X06901404Y08473567D01*
X06890187Y08473567D01*
X06890187Y08473567D01*
X06890187Y08473567D01*
X06887250D01*
Y08470630D01*
X06887250Y08451321D01*
X06887250Y08435171D01*
Y08429713D01*
X06887250Y08406777D01*
X06765217D01*
X06763295Y08408699D01*
Y08428762D01*
X06763295Y08428762D01*
X06763148Y08429505D01*
X06762726Y08430135D01*
X06759750Y08433112D01*
Y08436810D01*
X06759750Y08482702D01*
X06759750Y08482702D01*
X06759750Y08482702D01*
Y08483972D01*
X06871193Y08483973D01*
X06902704Y08483973D01*
X06902704Y08474866D01*
D02*
G37*
G36*
X06757711Y08482702D02*
X06757711Y08482702D01*
X06757711Y08482702D01*
X06757711Y08436946D01*
X06757361Y08436665D01*
X06756537Y08436324D01*
X06750636Y08442225D01*
X06750006Y08442646D01*
X06749263Y08442794D01*
X06744953D01*
X06744442Y08443304D01*
Y08446442D01*
X06745684Y08446956D01*
X06748038Y08448762D01*
X06749844Y08451116D01*
X06750980Y08453858D01*
X06751367Y08456800D01*
X06750980Y08459742D01*
X06749844Y08462484D01*
X06748038Y08464838D01*
X06745684Y08466644D01*
X06742942Y08467780D01*
X06740000Y08468167D01*
X06737058Y08467780D01*
X06734316Y08466644D01*
X06731962Y08464838D01*
X06730156Y08462484D01*
X06729020Y08459742D01*
X06728633Y08456800D01*
X06729020Y08453858D01*
X06730156Y08451116D01*
X06731962Y08448762D01*
X06734316Y08446956D01*
X06737058Y08445820D01*
X06740000Y08445433D01*
X06740558Y08444944D01*
Y08442500D01*
X06740706Y08441757D01*
X06741127Y08441127D01*
X06742775Y08439478D01*
X06743405Y08439057D01*
X06744148Y08438909D01*
X06748458D01*
X06759410Y08427957D01*
Y08407894D01*
X06759559Y08407151D01*
X06759980Y08406521D01*
X06761184Y08405317D01*
X06760698Y08404144D01*
X06738438D01*
X06735375Y08404753D01*
X06732489Y08405948D01*
X06729892Y08407683D01*
X06727683Y08409892D01*
X06725948Y08412489D01*
X06724753Y08415375D01*
X06724144Y08418438D01*
X06724144Y08420000D01*
Y08483972D01*
X06757711Y08483972D01*
Y08482702D01*
D02*
G37*
%LPC*%
G36*
X07150000Y08559504D02*
X07146867Y08559091D01*
X07143948Y08557882D01*
X07141442Y08555959D01*
X07139518Y08553452D01*
X07138309Y08550533D01*
X07137896Y08547400D01*
X07138309Y08544268D01*
X07139518Y08541348D01*
X07141442Y08538842D01*
X07143948Y08536918D01*
X07146867Y08535709D01*
X07150000Y08535297D01*
X07153132Y08535709D01*
X07156052Y08536918D01*
X07158558Y08538842D01*
X07160482Y08541348D01*
X07161691Y08544268D01*
X07162103Y08547400D01*
X07161691Y08550533D01*
X07160482Y08553452D01*
X07158558Y08555959D01*
X07156052Y08557882D01*
X07153132Y08559091D01*
X07150000Y08559504D01*
D02*
G37*
G36*
X06907214Y08437635D02*
X06905263Y08437248D01*
X06903609Y08436143D01*
X06902504Y08434489D01*
X06902116Y08432538D01*
X06902504Y08430587D01*
X06903609Y08428933D01*
X06905263Y08427828D01*
X06907214Y08427440D01*
X06909165Y08427828D01*
X06910255Y08428557D01*
X06977031D01*
X06977837Y08427574D01*
X06977822Y08427500D01*
X06978210Y08425549D01*
X06979315Y08423895D01*
X06980969Y08422790D01*
X06982920Y08422402D01*
X06984871Y08422790D01*
X06986525Y08423895D01*
X06987630Y08425549D01*
X06988018Y08427500D01*
X06987630Y08429451D01*
X06986901Y08430541D01*
Y08430981D01*
X06986599Y08432504D01*
X06985735Y08433796D01*
X06984178Y08435353D01*
X06982886Y08436216D01*
X06981363Y08436519D01*
X06910255D01*
X06909165Y08437248D01*
X06907214Y08437635D01*
D02*
G37*
G36*
X06823714Y08439344D02*
X06822243Y08439051D01*
X06820996Y08438218D01*
X06820163Y08436971D01*
X06819870Y08435500D01*
X06820163Y08434029D01*
X06820996Y08432782D01*
X06821772Y08432264D01*
Y08431694D01*
X06821920Y08430950D01*
X06822341Y08430320D01*
X06822284Y08428756D01*
X06821450Y08427509D01*
X06821158Y08426038D01*
X06821450Y08424567D01*
X06822284Y08423320D01*
X06823531Y08422487D01*
X06825002Y08422194D01*
X06826473Y08422487D01*
X06827720Y08423320D01*
X06828553Y08424567D01*
X06828846Y08426038D01*
X06828553Y08427509D01*
X06827720Y08428756D01*
X06826944Y08429274D01*
Y08430406D01*
X06826944Y08430406D01*
X06826796Y08431149D01*
X06826375Y08431779D01*
X06826539Y08432943D01*
X06827265Y08434029D01*
X06827558Y08435500D01*
X06827265Y08436971D01*
X06826432Y08438218D01*
X06825185Y08439051D01*
X06823714Y08439344D01*
D02*
G37*
%LPD*%
D22*
X06982920Y08427500D02*
Y08430981D01*
X06981363Y08432538D02*
X06982920Y08430981D01*
X06909500Y08432538D02*
X06981363D01*
X06909500Y08453500D02*
X06917460D01*
X06982920Y08491477D02*
Y08497500D01*
X06917460Y08453500D02*
X06919240Y08455279D01*
X06981418Y08489976D02*
X06982920Y08491477D01*
X06919240Y08455279D02*
Y08488528D01*
X06920687Y08489976D01*
X06981418D01*
D24*
X07150000Y08443038D02*
Y08456800D01*
X06825002Y08426038D02*
Y08430406D01*
X06823714Y08431694D02*
X06825002Y08430406D01*
X06823714Y08431694D02*
Y08435500D01*
X06761353Y08407894D02*
Y08428762D01*
X06749263Y08440852D02*
X06761353Y08428762D01*
X06744148Y08440852D02*
X06749263D01*
X06742500Y08442500D02*
X06744148Y08440852D01*
X06761353Y08407894D02*
X06764413Y08404835D01*
X07123835D01*
X07128000Y08409000D02*
Y08429724D01*
X07123835Y08404835D02*
X07128000Y08409000D01*
Y08429724D02*
X07139891Y08441614D01*
X07148576D01*
X07150000Y08443038D01*
X06742500Y08442500D02*
Y08456800D01*
D29*
X06740000Y08547733D02*
D03*
Y08502267D02*
D03*
Y08456800D02*
D03*
X07150000Y08547400D02*
D03*
Y08502600D02*
D03*
Y08456800D02*
D03*
D30*
X06740000Y08593200D02*
D03*
X07150000D02*
D03*
D31*
X06740000Y08420000D02*
D03*
X07150000D02*
D03*
X07150000Y08630000D02*
D03*
X06740000D02*
D03*
D32*
X07122160Y08514080D02*
D03*
Y08503920D02*
D03*
X07112000Y08514080D02*
D03*
Y08503920D02*
D03*
X07101840Y08514080D02*
D03*
Y08503920D02*
D03*
X07091680Y08514080D02*
D03*
Y08503920D02*
D03*
X07081520Y08514080D02*
D03*
Y08503920D02*
D03*
X06870214Y08443288D02*
D03*
X06859214D02*
D03*
X06870214Y08454288D02*
D03*
X06859214D02*
D03*
X06793162Y08462750D02*
D03*
X06823714Y08435500D02*
D03*
X06825002Y08426038D02*
D03*
X06892087Y08481390D02*
D03*
X06886473D02*
D03*
X06824214Y08445538D02*
D03*
X06729730Y08472170D02*
D03*
Y08481060D02*
D03*
X06738620Y08472170D02*
D03*
Y08481060D02*
D03*
X06747510Y08472170D02*
D03*
Y08481060D02*
D03*
X06731000Y08534400D02*
D03*
Y08559800D02*
D03*
X06756400Y08534400D02*
D03*
Y08547100D02*
D03*
Y08559800D02*
D03*
X06769100Y08534400D02*
D03*
Y08547100D02*
D03*
Y08559800D02*
D03*
X06781800Y08534400D02*
D03*
Y08547100D02*
D03*
Y08559800D02*
D03*
X06794500Y08534400D02*
D03*
Y08547100D02*
D03*
Y08559800D02*
D03*
X06807200Y08534400D02*
D03*
Y08547100D02*
D03*
Y08559800D02*
D03*
X06819900Y08534400D02*
D03*
Y08547100D02*
D03*
Y08559800D02*
D03*
X06858000Y08534400D02*
D03*
Y08547100D02*
D03*
Y08559800D02*
D03*
X06766560Y08595360D02*
D03*
Y08615680D02*
D03*
Y08636000D02*
D03*
X06786880Y08595360D02*
D03*
Y08615680D02*
D03*
Y08636000D02*
D03*
X06807200Y08595360D02*
D03*
Y08615680D02*
D03*
Y08636000D02*
D03*
X06868160Y08595360D02*
D03*
Y08615680D02*
D03*
Y08636000D02*
D03*
X06888480Y08595360D02*
D03*
Y08636000D02*
D03*
X06908800Y08595360D02*
D03*
Y08636000D02*
D03*
X06929120Y08595360D02*
D03*
Y08636000D02*
D03*
X06949440Y08595360D02*
D03*
Y08615680D02*
D03*
Y08636000D02*
D03*
X06969760Y08595360D02*
D03*
Y08615680D02*
D03*
Y08636000D02*
D03*
X06990080Y08595360D02*
D03*
Y08615680D02*
D03*
Y08636000D02*
D03*
X07010400Y08595360D02*
D03*
Y08615680D02*
D03*
Y08636000D02*
D03*
X07051040Y08595360D02*
D03*
Y08615680D02*
D03*
Y08636000D02*
D03*
X07071360Y08595360D02*
D03*
Y08615680D02*
D03*
Y08636000D02*
D03*
X07091680Y08595360D02*
D03*
Y08615680D02*
D03*
Y08636000D02*
D03*
X07112000Y08595360D02*
D03*
Y08615680D02*
D03*
Y08636000D02*
D03*
X06897675Y08481390D02*
D03*
X06898640Y08413540D02*
D03*
X06908800D02*
D03*
Y08423700D02*
D03*
X06929120Y08413540D02*
D03*
Y08423700D02*
D03*
X06939280Y08413540D02*
D03*
X06949440D02*
D03*
X06959600D02*
D03*
X06969760D02*
D03*
X06979920D02*
D03*
X06990080D02*
D03*
Y08423700D02*
D03*
X07000240Y08413540D02*
D03*
Y08423700D02*
D03*
X07010400Y08413540D02*
D03*
Y08423700D02*
D03*
X06766560Y08423656D02*
D03*
Y08464296D02*
D03*
Y08474456D02*
D03*
X06776720Y08464296D02*
D03*
Y08474456D02*
D03*
X06807200Y08413496D02*
D03*
Y08423656D02*
D03*
Y08443976D02*
D03*
Y08454136D02*
D03*
X06827520Y08413496D02*
D03*
X06837680D02*
D03*
X06847840D02*
D03*
Y08423656D02*
D03*
Y08433816D02*
D03*
Y08443976D02*
D03*
Y08454136D02*
D03*
Y08464296D02*
D03*
Y08474456D02*
D03*
X06858000Y08413496D02*
D03*
Y08423656D02*
D03*
Y08464296D02*
D03*
Y08474456D02*
D03*
X06868160Y08413496D02*
D03*
Y08423656D02*
D03*
Y08464296D02*
D03*
Y08474456D02*
D03*
X06878320Y08413496D02*
D03*
Y08423656D02*
D03*
Y08464296D02*
D03*
D33*
X06907214Y08432538D02*
D03*
Y08453500D02*
D03*
X06982920Y08427500D02*
D03*
Y08497500D02*
D03*
M02*
