G04 Layer_Color=16777215*
%FSAX44Y44*%
%MOMM*%
G71*
G01*
G75*
%ADD24C,0.1270*%
%ADD39C,0.2500*%
%ADD40C,0.1016*%
G36*
X06934987Y08414487D02*
X06935269Y08414206D01*
X06935421Y08413839D01*
Y08413640D01*
Y08413441D01*
X06935269Y08413073D01*
X06934987Y08412792D01*
X06934619Y08412640D01*
X06934222D01*
X06933854Y08412792D01*
X06933573Y08413073D01*
X06933420Y08413441D01*
Y08413640D01*
Y08413839D01*
X06933573Y08414206D01*
X06933854Y08414487D01*
X06934222Y08414640D01*
X06934619D01*
X06934987Y08414487D01*
D02*
G37*
G36*
Y08491950D02*
X06935269Y08491669D01*
X06935421Y08491301D01*
Y08491102D01*
Y08490903D01*
X06935269Y08490536D01*
X06934987Y08490255D01*
X06934619Y08490103D01*
X06934222D01*
X06933854Y08490255D01*
X06933573Y08490536D01*
X06933420Y08490903D01*
Y08491102D01*
Y08491301D01*
X06933573Y08491669D01*
X06933854Y08491950D01*
X06934222Y08492103D01*
X06934619D01*
X06934987Y08491950D01*
D02*
G37*
G36*
X06782500Y08530000D02*
X06773750Y08525000D01*
Y08527500D01*
X06756250D01*
Y08532250D01*
X06773750D01*
Y08535000D01*
X06782500Y08530000D01*
D02*
G37*
D24*
X06846214Y08423288D02*
X06883214D01*
X06846214Y08474288D02*
X06883214D01*
Y08423288D02*
Y08474288D01*
X06846214Y08423288D02*
Y08474288D01*
X06879250Y08554750D02*
Y08623750D01*
X06850250D02*
X06879250D01*
X06794250D02*
X06823250D01*
X06794250Y08554750D02*
Y08623750D01*
X06850250Y08538750D02*
X06863250D01*
X06879250Y08554750D01*
X06794250D02*
X06810250Y08538750D01*
X06823250D01*
X07003499Y08545316D02*
X07016499D01*
X06987499Y08561316D02*
X07003499Y08545316D01*
X07056499D02*
X07072499Y08561316D01*
X07043499Y08545316D02*
X07056499D01*
X06987499Y08561316D02*
Y08630316D01*
X07016499D01*
X07043499D02*
X07072499D01*
Y08561316D02*
Y08630316D01*
X06895007Y08638480D02*
Y08643558D01*
X06892468Y08641019D01*
X06895853D01*
X06897546Y08638480D02*
Y08641866D01*
X06899239Y08643558D01*
X06900931Y08641866D01*
Y08638480D01*
Y08641019D01*
X06897546D01*
X06907703Y08643558D02*
Y08638480D01*
X06910242D01*
X06911088Y08639327D01*
Y08640173D01*
X06910242Y08641019D01*
X06907703D01*
X06910242D01*
X06911088Y08641866D01*
Y08642712D01*
X06910242Y08643558D01*
X06907703D01*
X06912781Y08641866D02*
Y08639327D01*
X06913627Y08638480D01*
X06916167D01*
Y08641866D01*
X06921245D02*
X06918706D01*
X06917859Y08641019D01*
Y08639327D01*
X06918706Y08638480D01*
X06921245D01*
X06922938D02*
Y08643558D01*
Y08640173D02*
X06925477Y08641866D01*
X06922938Y08640173D02*
X06925477Y08638480D01*
X06933094D02*
Y08643558D01*
X06935634D01*
X06936480Y08642712D01*
Y08641019D01*
X06935634Y08640173D01*
X06933094D01*
X06934788D02*
X06936480Y08638480D01*
X06940712D02*
X06939019D01*
X06938173Y08639327D01*
Y08641019D01*
X06939019Y08641866D01*
X06940712D01*
X06941558Y08641019D01*
Y08640173D01*
X06938173D01*
X06944944Y08636787D02*
X06945790D01*
X06946637Y08637634D01*
Y08641866D01*
X06944098D01*
X06943251Y08641019D01*
Y08639327D01*
X06944098Y08638480D01*
X06946637D01*
X06948329Y08641866D02*
Y08639327D01*
X06949176Y08638480D01*
X06951715D01*
Y08641866D01*
X06953408Y08638480D02*
X06955101D01*
X06954254D01*
Y08643558D01*
X06953408D01*
X06958486Y08641866D02*
X06960179D01*
X06961025Y08641019D01*
Y08638480D01*
X06958486D01*
X06957640Y08639327D01*
X06958486Y08640173D01*
X06961025D01*
X06963564Y08642712D02*
Y08641866D01*
X06962719D01*
X06964411D01*
X06963564D01*
Y08639327D01*
X06964411Y08638480D01*
X06967797D02*
X06969490D01*
X06970336Y08639327D01*
Y08641019D01*
X06969490Y08641866D01*
X06967797D01*
X06966950Y08641019D01*
Y08639327D01*
X06967797Y08638480D01*
X06972029Y08641866D02*
Y08638480D01*
Y08640173D01*
X06972875Y08641019D01*
X06973721Y08641866D01*
X06974568D01*
X06916132Y08490805D02*
Y08495884D01*
X06918671D01*
X06919517Y08495037D01*
Y08493345D01*
X06918671Y08492498D01*
X06916132D01*
X06917824D02*
X06919517Y08490805D01*
X06921210Y08491652D02*
X06922056Y08490805D01*
X06923749D01*
X06924595Y08491652D01*
Y08495037D01*
X06923749Y08495884D01*
X06922056D01*
X06921210Y08495037D01*
Y08494191D01*
X06922056Y08493345D01*
X06924595D01*
X06839714Y08481828D02*
Y08477596D01*
X06840560Y08476750D01*
X06842253D01*
X06843099Y08477596D01*
Y08481828D01*
X06844792Y08476750D02*
X06846485D01*
X06845639D01*
Y08481828D01*
X06844792Y08480982D01*
X06825214Y08415750D02*
X06820135D01*
Y08418289D01*
X06820982Y08419136D01*
X06822675D01*
X06823521Y08418289D01*
Y08415750D01*
Y08417443D02*
X06825214Y08419136D01*
X06820135Y08420828D02*
Y08424214D01*
X06820982D01*
X06824368Y08420828D01*
X06825214D01*
X06784343Y08405098D02*
Y08410176D01*
X06786882D01*
X06787729Y08409330D01*
Y08407637D01*
X06786882Y08406791D01*
X06784343D01*
X06786036D02*
X06787729Y08405098D01*
X06789421Y08409330D02*
X06790268Y08410176D01*
X06791960D01*
X06792807Y08409330D01*
Y08408483D01*
X06791960Y08407637D01*
X06792807Y08406791D01*
Y08405944D01*
X06791960Y08405098D01*
X06790268D01*
X06789421Y08405944D01*
Y08406791D01*
X06790268Y08407637D01*
X06789421Y08408483D01*
Y08409330D01*
X06790268Y08407637D02*
X06791960D01*
X06770714Y08406165D02*
Y08411243D01*
X06773253D01*
X06774100Y08410397D01*
Y08408704D01*
X06773253Y08407858D01*
X06770714D01*
X06772407D02*
X06774100Y08406165D01*
X06779178Y08411243D02*
X06777485Y08410397D01*
X06775792Y08408704D01*
Y08407011D01*
X06776639Y08406165D01*
X06778331D01*
X06779178Y08407011D01*
Y08407858D01*
X06778331Y08408704D01*
X06775792D01*
X06823214Y08446000D02*
X06818135D01*
Y08448539D01*
X06818982Y08449385D01*
X06820675D01*
X06821521Y08448539D01*
Y08446000D01*
Y08447693D02*
X06823214Y08449385D01*
Y08454464D02*
Y08451078D01*
X06819828Y08454464D01*
X06818982D01*
X06818135Y08453618D01*
Y08451925D01*
X06818982Y08451078D01*
X06859651Y08508687D02*
Y08513765D01*
X06862190D01*
X06863036Y08512919D01*
Y08511226D01*
X06862190Y08510380D01*
X06859651D01*
X06861344D02*
X06863036Y08508687D01*
X06868115Y08513765D02*
X06864729D01*
Y08511226D01*
X06866422Y08512073D01*
X06867269D01*
X06868115Y08511226D01*
Y08509534D01*
X06867269Y08508687D01*
X06865576D01*
X06864729Y08509534D01*
X06842887Y08508738D02*
Y08513817D01*
X06845426D01*
X06846273Y08512970D01*
Y08511277D01*
X06845426Y08510431D01*
X06842887D01*
X06844580D02*
X06846273Y08508738D01*
X06850505D02*
Y08513817D01*
X06847965Y08511277D01*
X06851351D01*
X06824714Y08485250D02*
X06819636D01*
Y08487789D01*
X06820482Y08488636D01*
X06822175D01*
X06823021Y08487789D01*
Y08485250D01*
Y08486943D02*
X06824714Y08488636D01*
Y08490328D02*
Y08492021D01*
Y08491175D01*
X06819636D01*
X06820482Y08490328D01*
X06784964Y08490208D02*
Y08495286D01*
X06787503D01*
X06788350Y08494440D01*
Y08492747D01*
X06787503Y08491900D01*
X06784964D01*
X06786657D02*
X06788350Y08490208D01*
X06790042Y08494440D02*
X06790889Y08495286D01*
X06792582D01*
X06793428Y08494440D01*
Y08493593D01*
X06792582Y08492747D01*
X06791735D01*
X06792582D01*
X06793428Y08491900D01*
Y08491054D01*
X06792582Y08490208D01*
X06790889D01*
X06790042Y08491054D01*
X06973849Y08409346D02*
Y08412732D01*
X06973003Y08413578D01*
X06971310D01*
X06970464Y08412732D01*
Y08409346D01*
X06971310Y08408500D01*
X06973003D01*
X06972157Y08410193D02*
X06973849Y08408500D01*
X06973003D02*
X06973849Y08409346D01*
X06978928Y08408500D02*
X06975543D01*
X06978928Y08411885D01*
Y08412732D01*
X06978082Y08413578D01*
X06976389D01*
X06975543Y08412732D01*
X06975850Y08567938D02*
Y08571323D01*
X06975003Y08572170D01*
X06973311D01*
X06972464Y08571323D01*
Y08567938D01*
X06973311Y08567091D01*
X06975003D01*
X06974157Y08568784D02*
X06975850Y08567091D01*
X06975003D02*
X06975850Y08567938D01*
X06977542Y08567091D02*
X06979235D01*
X06978389D01*
Y08572170D01*
X06977542Y08571323D01*
X07050972Y08411586D02*
Y08406508D01*
X07054357D01*
X07056050D02*
X07057743D01*
X07056897D01*
Y08411586D01*
X07056050Y08410740D01*
X06998667Y08640566D02*
X06997821Y08641412D01*
X06996128D01*
X06995281Y08640566D01*
Y08637180D01*
X06996128Y08636334D01*
X06997821D01*
X06998667Y08637180D01*
X07000360Y08636334D02*
X07002053D01*
X07001206D01*
Y08641412D01*
X07000360Y08640566D01*
X07007977Y08641412D02*
X07006285Y08640566D01*
X07004592Y08638873D01*
Y08637180D01*
X07005438Y08636334D01*
X07007131D01*
X07007977Y08637180D01*
Y08638027D01*
X07007131Y08638873D01*
X07004592D01*
X06893135Y08619633D02*
X06892289Y08620479D01*
X06890596D01*
X06889750Y08619633D01*
Y08616247D01*
X06890596Y08615400D01*
X06892289D01*
X06893135Y08616247D01*
X06894828Y08615400D02*
X06896521D01*
X06895675D01*
Y08620479D01*
X06894828Y08619633D01*
X06899060D02*
X06899907Y08620479D01*
X06901600D01*
X06902446Y08619633D01*
Y08618786D01*
X06901600Y08617940D01*
X06900753D01*
X06901600D01*
X06902446Y08617094D01*
Y08616247D01*
X06901600Y08615400D01*
X06899907D01*
X06899060Y08616247D01*
X06923616Y08619455D02*
X06922769Y08620301D01*
X06921077D01*
X06920230Y08619455D01*
Y08616069D01*
X06921077Y08615223D01*
X06922769D01*
X06923616Y08616069D01*
X06925308Y08615223D02*
X06927001D01*
X06926155D01*
Y08620301D01*
X06925308Y08619455D01*
X06932926Y08615223D02*
X06929540D01*
X06932926Y08618608D01*
Y08619455D01*
X06932079Y08620301D01*
X06930387D01*
X06929540Y08619455D01*
X06762939Y08446385D02*
X06762093Y08445539D01*
Y08443846D01*
X06762939Y08443000D01*
X06766325D01*
X06767172Y08443846D01*
Y08445539D01*
X06766325Y08446385D01*
X06767172Y08448079D02*
Y08449771D01*
Y08448925D01*
X06762093D01*
X06762939Y08448079D01*
X06767172Y08452310D02*
Y08454003D01*
Y08453157D01*
X06762093D01*
X06762939Y08452310D01*
X06917850Y08409982D02*
X06917003Y08410828D01*
X06915311D01*
X06914464Y08409982D01*
Y08406597D01*
X06915311Y08405750D01*
X06917003D01*
X06917850Y08406597D01*
X06919542Y08405750D02*
X06921235D01*
X06920389D01*
Y08410828D01*
X06919542Y08409982D01*
X06923774D02*
X06924621Y08410828D01*
X06926313D01*
X06927160Y08409982D01*
Y08406597D01*
X06926313Y08405750D01*
X06924621D01*
X06923774Y08406597D01*
Y08409982D01*
X06909495Y08461476D02*
X06908649Y08462323D01*
X06906956D01*
X06906110Y08461476D01*
Y08458091D01*
X06906956Y08457245D01*
X06908649D01*
X06909495Y08458091D01*
X06911188Y08462323D02*
X06914573D01*
Y08461476D01*
X06911188Y08458091D01*
Y08457245D01*
X06896442Y08502238D02*
X06895596Y08503085D01*
X06893903D01*
X06893057Y08502238D01*
Y08498853D01*
X06893903Y08498007D01*
X06895596D01*
X06896442Y08498853D01*
X06898135D02*
X06898982Y08498007D01*
X06900674D01*
X06901521Y08498853D01*
Y08502238D01*
X06900674Y08503085D01*
X06898982D01*
X06898135Y08502238D01*
Y08501392D01*
X06898982Y08500546D01*
X06901521D01*
X06785850Y08464482D02*
X06785003Y08465328D01*
X06783311D01*
X06782464Y08464482D01*
Y08461096D01*
X06783311Y08460250D01*
X06785003D01*
X06785850Y08461096D01*
X06787542Y08464482D02*
X06788389Y08465328D01*
X06790082D01*
X06790928Y08464482D01*
Y08463636D01*
X06790082Y08462789D01*
X06789235D01*
X06790082D01*
X06790928Y08461943D01*
Y08461096D01*
X06790082Y08460250D01*
X06788389D01*
X06787542Y08461096D01*
X06876630Y08512602D02*
X06875783Y08513448D01*
X06874091D01*
X06873244Y08512602D01*
Y08509216D01*
X06874091Y08508370D01*
X06875783D01*
X06876630Y08509216D01*
X06878322Y08512602D02*
X06879169Y08513448D01*
X06880862D01*
X06881708Y08512602D01*
Y08511755D01*
X06880862Y08510909D01*
X06881708Y08510063D01*
Y08509216D01*
X06880862Y08508370D01*
X06879169D01*
X06878322Y08509216D01*
Y08510063D01*
X06879169Y08510909D01*
X06878322Y08511755D01*
Y08512602D01*
X06879169Y08510909D02*
X06880862D01*
X06820732Y08474886D02*
X06819886Y08474039D01*
Y08472346D01*
X06820732Y08471500D01*
X06824117D01*
X06824964Y08472346D01*
Y08474039D01*
X06824117Y08474886D01*
X06824964Y08479117D02*
X06819886D01*
X06822425Y08476578D01*
Y08479964D01*
X06820232Y08462886D02*
X06819385Y08462039D01*
Y08460347D01*
X06820232Y08459500D01*
X06823618D01*
X06824464Y08460347D01*
Y08462039D01*
X06823618Y08462886D01*
X06819385Y08467964D02*
X06820232Y08466271D01*
X06821925Y08464578D01*
X06823618D01*
X06824464Y08465425D01*
Y08467117D01*
X06823618Y08467964D01*
X06822771D01*
X06821925Y08467117D01*
Y08464578D01*
X06821568Y08434385D02*
X06820721Y08433539D01*
Y08431846D01*
X06821568Y08431000D01*
X06824953D01*
X06825800Y08431846D01*
Y08433539D01*
X06824953Y08434385D01*
X06820721Y08439464D02*
Y08436078D01*
X06823260D01*
X06822414Y08437771D01*
Y08438618D01*
X06823260Y08439464D01*
X06824953D01*
X06825800Y08438618D01*
Y08436925D01*
X06824953Y08436078D01*
X07117394Y08581048D02*
X07116548Y08581895D01*
X07114855D01*
X07114009Y08581048D01*
Y08577662D01*
X07114855Y08576816D01*
X07116548D01*
X07117394Y08577662D01*
X07119087Y08576816D02*
X07120779D01*
X07119933D01*
Y08581895D01*
X07119087Y08581048D01*
X07125858Y08576816D02*
Y08581895D01*
X07123319Y08579355D01*
X07126704D01*
X07086425Y08580548D02*
X07085578Y08581395D01*
X07083885D01*
X07083039Y08580548D01*
Y08577162D01*
X07083885Y08576316D01*
X07085578D01*
X07086425Y08577162D01*
X07088118Y08576316D02*
X07089810D01*
X07088964D01*
Y08581395D01*
X07088118Y08580548D01*
X07095735Y08581395D02*
X07092349D01*
Y08578856D01*
X07094042Y08579702D01*
X07094889D01*
X07095735Y08578856D01*
Y08577162D01*
X07094889Y08576316D01*
X07093196D01*
X07092349Y08577162D01*
X06801666Y08630982D02*
X06800820Y08631829D01*
X06799127D01*
X06798281Y08630982D01*
Y08627596D01*
X06799127Y08626750D01*
X06800820D01*
X06801666Y08627596D01*
X06806745Y08626750D02*
X06803359D01*
X06806745Y08630135D01*
Y08630982D01*
X06805898Y08631829D01*
X06804205D01*
X06803359Y08630982D01*
X06755108Y08484423D02*
X06758494D01*
X06756801D01*
Y08479344D01*
X06760186D02*
X06761879D01*
X06761033D01*
Y08484423D01*
X06760186Y08483576D01*
X07145938Y08521190D02*
X07141874D01*
Y08518143D01*
X07143906Y08519159D01*
X07144922D01*
X07145938Y08518143D01*
Y08516111D01*
X07144922Y08515096D01*
X07142890D01*
X07141874Y08516111D01*
X07147969Y08521190D02*
Y08517127D01*
X07150000Y08515096D01*
X07152031Y08517127D01*
Y08521190D01*
X07154062Y08516111D02*
X07155078Y08515096D01*
X07157109D01*
X07158125Y08516111D01*
Y08520175D01*
X07157109Y08521190D01*
X07155078D01*
X07154062Y08520175D01*
Y08519159D01*
X07155078Y08518143D01*
X07158125D01*
X06727970Y08596586D02*
X06728817Y08597432D01*
Y08599125D01*
X06727970Y08599971D01*
X06724584D01*
X06723738Y08599125D01*
Y08597432D01*
X06724584Y08596586D01*
X06726277D01*
Y08598278D01*
X06723738Y08594893D02*
X06728817D01*
X06723738Y08591508D01*
X06728817D01*
Y08589814D02*
X06723738D01*
Y08587275D01*
X06724584Y08586429D01*
X06727970D01*
X06728817Y08587275D01*
Y08589814D01*
X06728817Y08554081D02*
X06725431D01*
X06723738Y08552388D01*
X06725431Y08550696D01*
X06728817D01*
Y08549003D02*
Y08547310D01*
Y08548157D01*
X06723738D01*
Y08549003D01*
Y08547310D01*
Y08544771D02*
X06728817D01*
X06723738Y08541385D01*
X06728817D01*
X07162120Y08493290D02*
X07165505D01*
X07167198Y08494982D01*
X07165505Y08496675D01*
X07162120D01*
Y08500908D02*
Y08499214D01*
X07162966Y08498368D01*
X07166351D01*
X07167198Y08499214D01*
Y08500908D01*
X07166351Y08501754D01*
X07162966D01*
X07162120Y08500908D01*
Y08503447D02*
X07166351D01*
X07167198Y08504293D01*
Y08505986D01*
X07166351Y08506832D01*
X07162120D01*
Y08508525D02*
Y08511910D01*
Y08510218D01*
X07167198D01*
X06728817Y08466110D02*
X06723738D01*
Y08463571D01*
X06724584Y08462725D01*
X06727970D01*
X06728817Y08463571D01*
Y08466110D01*
X06723738Y08461032D02*
X06727123D01*
X06728817Y08459339D01*
X06727123Y08457646D01*
X06723738D01*
X06726277D01*
Y08461032D01*
X06728817Y08455954D02*
Y08452568D01*
Y08454261D01*
X06723738D01*
Y08450875D02*
X06727123D01*
X06728817Y08449183D01*
X06727123Y08447490D01*
X06723738D01*
X06726277D01*
Y08450875D01*
X07162966Y08589814D02*
X07162120Y08588968D01*
Y08587275D01*
X07162966Y08586429D01*
X07166351D01*
X07167198Y08587275D01*
Y08588968D01*
X07166351Y08589814D01*
X07164659D01*
Y08588122D01*
X07167198Y08591508D02*
X07162120D01*
X07167198Y08594893D01*
X07162120D01*
Y08596586D02*
X07167198D01*
Y08599125D01*
X07166351Y08599971D01*
X07162966D01*
X07162120Y08599125D01*
Y08596586D01*
Y08447490D02*
X07167198D01*
Y08450029D01*
X07166351Y08450875D01*
X07162966D01*
X07162120Y08450029D01*
Y08447490D01*
X07167198Y08452568D02*
X07163812D01*
X07162120Y08454261D01*
X07163812Y08455954D01*
X07167198D01*
X07164659D01*
Y08452568D01*
X07162120Y08457646D02*
Y08461032D01*
Y08459339D01*
X07167198D01*
Y08462725D02*
X07163812D01*
X07162120Y08464418D01*
X07163812Y08466110D01*
X07167198D01*
X07164659D01*
Y08462725D01*
X06736614Y08560750D02*
X06733229D01*
X06736614Y08564136D01*
Y08564982D01*
X06735768Y08565828D01*
X06734075D01*
X06733229Y08564982D01*
X06740847Y08560750D02*
Y08565828D01*
X06738307Y08563289D01*
X06741693D01*
X06743386Y08565828D02*
Y08562443D01*
X06745078Y08560750D01*
X06746771Y08562443D01*
Y08565828D01*
X06728817Y08511577D02*
X06725431D01*
X06723738Y08509884D01*
X06725431Y08508192D01*
X06728817D01*
Y08503959D02*
Y08505652D01*
X06727970Y08506498D01*
X06724584D01*
X06723738Y08505652D01*
Y08503959D01*
X06724584Y08503113D01*
X06727970D01*
X06728817Y08503959D01*
Y08501420D02*
X06724584D01*
X06723738Y08500574D01*
Y08498881D01*
X06724584Y08498035D01*
X06728817D01*
Y08496342D02*
Y08492957D01*
Y08494649D01*
X06723738D01*
X07162120Y08541052D02*
X07165505D01*
X07167198Y08542745D01*
X07165505Y08544438D01*
X07162120D01*
Y08546130D02*
Y08547823D01*
Y08546977D01*
X07167198D01*
Y08546130D01*
Y08547823D01*
Y08550363D02*
X07162120D01*
X07167198Y08553748D01*
X07162120D01*
D39*
X06836464Y08479288D02*
G03*
X06836464Y08479288I-00001250J00000000D01*
G01*
D40*
X06760814Y08474500D02*
G03*
X06756750Y08474500I-00002032J-00000147D01*
G01*
X06730000Y08612679D02*
G03*
X06757321Y08640000I00010000J00017320D01*
G01*
X07132679D02*
G03*
X07160000Y08612679I00017320J-00010000D01*
G01*
X07160000Y08437321D02*
G03*
X07132679Y08410000I-00010000J-00017320D01*
G01*
X06757321D02*
G03*
X06730000Y08437321I-00017320J00010000D01*
G01*
X06923714Y08477330D02*
Y08479330D01*
X06918214Y08477330D02*
Y08479330D01*
X06990057Y08526258D02*
X07115057D01*
X06990057Y08401258D02*
X07115057D01*
X06990057Y08494766D02*
Y08526258D01*
X07115057Y08494766D02*
Y08526258D01*
X06990057Y08401258D02*
Y08432750D01*
X07115057Y08401258D02*
Y08432750D01*
X06790671Y08421458D02*
Y08423458D01*
X06785172Y08421458D02*
Y08423458D01*
X06806464Y08417750D02*
X06808464D01*
X06806464Y08423250D02*
X06808464D01*
X06777629Y08421458D02*
Y08423458D01*
X06772129Y08421458D02*
Y08423458D01*
X06866672Y08495081D02*
Y08497080D01*
X06861171Y08495081D02*
Y08497080D01*
X06849464Y08495081D02*
Y08497080D01*
X06843964Y08495081D02*
Y08497080D01*
X06790671Y08476000D02*
Y08478000D01*
X06785172Y08476000D02*
Y08478000D01*
X06805964Y08451793D02*
X06807964D01*
X06805964Y08446293D02*
X06807964D01*
X06806464Y08492920D02*
X06808464D01*
X06806464Y08487420D02*
X06808464D01*
X07101741Y08544566D02*
Y08557566D01*
X07078242Y08544566D02*
Y08557566D01*
X07133253Y08544566D02*
Y08557566D01*
X07109753Y08544566D02*
Y08557566D01*
X06913168Y08585750D02*
Y08598750D01*
X06889667Y08585750D02*
Y08598750D01*
X06944210Y08585750D02*
Y08598750D01*
X06920710Y08585750D02*
Y08598750D01*
X06776629Y08447500D02*
Y08448500D01*
X06770129Y08447500D02*
Y08448500D01*
X06915964Y08423750D02*
Y08424750D01*
X06922464Y08423750D02*
Y08424750D01*
X06897007Y08494698D02*
X06898007D01*
X06897007Y08488199D02*
X06898007D01*
X06874214Y08495580D02*
Y08496580D01*
X06880714Y08495580D02*
Y08496580D01*
X06917214Y08452288D02*
Y08453288D01*
X06923714Y08452288D02*
Y08453288D01*
X06806964Y08465835D02*
X06807964D01*
X06806964Y08459335D02*
X06807964D01*
X06806964Y08432250D02*
X06807964D01*
X06806964Y08438750D02*
X06807964D01*
X06806964Y08479877D02*
X06807964D01*
X06806964Y08473378D02*
X06807964D01*
X06790671Y08447500D02*
Y08448500D01*
X06784172Y08447500D02*
Y08448500D01*
M02*
