G04 Layer_Physical_Order=2*
G04 Layer_Color=32768*
%FSAX44Y44*%
%MOMM*%
G71*
G01*
G75*
%ADD34C,1.0160*%
%ADD35C,2.0080*%
%ADD36C,0.8080*%
%ADD37C,0.9080*%
D34*
X06720000Y08420000D02*
G03*
X06740000Y08400000I00020000J00000000D01*
G01*
X07150000D02*
G03*
X07170000Y08420000I00000000J00020000D01*
G01*
Y08630000D02*
G03*
X07150000Y08650000I-00020000J00000000D01*
G01*
X06740000D02*
G03*
X06720000Y08630000I00000000J-00020000D01*
G01*
X06740000Y08400000D02*
X07150000D01*
X07170000Y08420000D02*
X07170000D01*
X07170000D02*
Y08630000D01*
X07170000D01*
X07150000Y08650000D02*
Y08650000D01*
X06740000Y08650000D02*
X07150000D01*
X06740000D02*
Y08650000D01*
X06720000Y08630000D02*
X06720000D01*
X06720000Y08420000D02*
X06720000Y08630000D01*
D35*
X06740000Y08547733D02*
D03*
Y08502267D02*
D03*
Y08456800D02*
D03*
X07150000Y08547400D02*
D03*
Y08502600D02*
D03*
Y08456800D02*
D03*
D36*
X07122160Y08514080D02*
D03*
Y08503920D02*
D03*
X07112000Y08514080D02*
D03*
Y08503920D02*
D03*
X07101840Y08514080D02*
D03*
Y08503920D02*
D03*
X07091680Y08514080D02*
D03*
Y08503920D02*
D03*
X07081520Y08514080D02*
D03*
Y08503920D02*
D03*
X06870214Y08443288D02*
D03*
X06859214D02*
D03*
X06870214Y08454288D02*
D03*
X06859214D02*
D03*
X06793162Y08462750D02*
D03*
X06823714Y08435500D02*
D03*
X06825002Y08426038D02*
D03*
X06892087Y08481390D02*
D03*
X06886473D02*
D03*
X06824214Y08445538D02*
D03*
X06731000Y08534400D02*
D03*
Y08559800D02*
D03*
X06756400Y08534400D02*
D03*
Y08547100D02*
D03*
Y08559800D02*
D03*
X06769100Y08534400D02*
D03*
Y08547100D02*
D03*
Y08559800D02*
D03*
X06781800Y08534400D02*
D03*
Y08547100D02*
D03*
Y08559800D02*
D03*
X06794500Y08534400D02*
D03*
Y08547100D02*
D03*
Y08559800D02*
D03*
X06807200Y08534400D02*
D03*
Y08547100D02*
D03*
Y08559800D02*
D03*
X06819900Y08534400D02*
D03*
Y08547100D02*
D03*
Y08559800D02*
D03*
X06858000Y08534400D02*
D03*
Y08547100D02*
D03*
Y08559800D02*
D03*
X06897675Y08481390D02*
D03*
X06766560Y08423656D02*
D03*
Y08464296D02*
D03*
Y08474456D02*
D03*
X06776720Y08464296D02*
D03*
Y08474456D02*
D03*
X06807200Y08413496D02*
D03*
Y08423656D02*
D03*
Y08443976D02*
D03*
Y08454136D02*
D03*
X06827520Y08413496D02*
D03*
X06837680D02*
D03*
X06847840D02*
D03*
Y08423656D02*
D03*
Y08433816D02*
D03*
Y08443976D02*
D03*
Y08454136D02*
D03*
Y08464296D02*
D03*
Y08474456D02*
D03*
X06858000Y08413496D02*
D03*
Y08423656D02*
D03*
Y08464296D02*
D03*
Y08474456D02*
D03*
X06868160Y08413496D02*
D03*
Y08423656D02*
D03*
Y08464296D02*
D03*
Y08474456D02*
D03*
X06878320Y08413496D02*
D03*
Y08423656D02*
D03*
Y08464296D02*
D03*
D37*
X06907214Y08432538D02*
D03*
Y08453500D02*
D03*
X06982920Y08427500D02*
D03*
Y08497500D02*
D03*
M02*
