M48
;Layer_Color=9474304
;FILE_FORMAT=4:4
METRIC
;TYPE=PLATED
T1F00S00C0.3000
T2F00S00C0.4000
T3F00S00C1.5000
T4F00S00C2.0000
%
T01
X07112000Y08636000
X07091680
X07071360
X07051040
Y08615680
Y08595360
X07071360
Y08615680
X07091680
Y08595360
X07112000
Y08615680
Y08514080
X07122160
Y08503920
X07112000
X07101840
Y08514080
X07091680
Y08503920
X07081520
Y08514080
X07010400Y08595360
X06990080
X06969760
X06949440
X06929120
X06908800
X06888480
X06868160
Y08615680
Y08636000
X06888480
X06908800
X06929120
X06949440
Y08615680
X06969760
Y08636000
X06990080
Y08615680
X07010400
Y08636000
X06807200
X06786880
X06766560
Y08615680
Y08595360
X06786880
Y08615680
X06807200
Y08595360
Y08559800
X06794500
X06781800
X06769100
X06756400
Y08547100
Y08534400
X06769100
Y08547100
X06781800
Y08534400
X06794500
Y08547100
X06807200
Y08534400
X06819900
Y08547100
Y08559800
X06858000
Y08547100
Y08534400
Y08474456
X06847840
Y08464296
Y08454136
Y08443976
Y08433816
Y08423656
Y08413496
X06837680
X06827520
X06825002Y08426038
X06823714Y08435500
X06824214Y08445538
X06807200Y08443976
Y08454136
X06793162Y08462750
X06776720Y08464296
X06766560
Y08474456
X06776720
X06747510Y08472170
Y08481060
X06766560Y08423656
X06807200
Y08413496
X06858000
Y08423656
X06868160
Y08413496
X06878320
Y08423656
X06870214Y08443288
X06859214
Y08454288
X06870214
X06868160Y08464296
X06858000
X06868160Y08474456
X06878320Y08464296
X06886473Y08481390
X06892087
X06897675
X06898640Y08413540
X06908800
Y08423700
X06929120
Y08413540
X06939280
X06949440
X06959600
X06969760
X06979920
X06990080
Y08423700
X07000240
Y08413540
X07010400
Y08423700
X06738620Y08472170
X06729730
Y08481060
X06738620
X06731000Y08534400
Y08559800
T02
X06982920Y08497500
Y08427500
X06907214Y08432538
Y08453500
T03
X07150000Y08593200
Y08547400
Y08502600
Y08456800
X06740000
Y08502267
Y08547733
Y08593200
T04
X07150000Y08630000
X07150000Y08420000
X06740000
X06740000Y08630000
M30
