G04 Layer_Color=8388736*
%FSAX44Y44*%
%MOMM*%
G71*
G01*
G75*
%ADD35C,1.5000*%
G04:AMPARAMS|DCode=36|XSize=1.5mm|YSize=1.5mm|CornerRadius=0.15mm|HoleSize=0mm|Usage=FLASHONLY|Rotation=180.000|XOffset=0mm|YOffset=0mm|HoleType=Round|Shape=RoundedRectangle|*
%AMROUNDEDRECTD36*
21,1,1.5000,1.2000,0,0,180.0*
21,1,1.2000,1.5000,0,0,180.0*
1,1,0.3000,-0.6000,0.6000*
1,1,0.3000,0.6000,0.6000*
1,1,0.3000,0.6000,-0.6000*
1,1,0.3000,-0.6000,-0.6000*
%
%ADD36ROUNDEDRECTD36*%
%ADD49R,1.3000X0.9000*%
%ADD50R,1.3000X0.9000*%
G04:AMPARAMS|DCode=51|XSize=1.1532mm|YSize=2.8532mm|CornerRadius=0.1064mm|HoleSize=0mm|Usage=FLASHONLY|Rotation=90.000|XOffset=0mm|YOffset=0mm|HoleType=Round|Shape=RoundedRectangle|*
%AMROUNDEDRECTD51*
21,1,1.1532,2.6405,0,0,90.0*
21,1,0.9405,2.8532,0,0,90.0*
1,1,0.2127,1.3202,0.4703*
1,1,0.2127,1.3202,-0.4703*
1,1,0.2127,-1.3202,-0.4703*
1,1,0.2127,-1.3202,0.4703*
%
%ADD51ROUNDEDRECTD51*%
G04:AMPARAMS|DCode=52|XSize=5.7532mm|YSize=7.0032mm|CornerRadius=0.1293mm|HoleSize=0mm|Usage=FLASHONLY|Rotation=90.000|XOffset=0mm|YOffset=0mm|HoleType=Round|Shape=RoundedRectangle|*
%AMROUNDEDRECTD52*
21,1,5.7532,6.7445,0,0,90.0*
21,1,5.4945,7.0032,0,0,90.0*
1,1,0.2587,3.3723,2.7473*
1,1,0.2587,3.3723,-2.7473*
1,1,0.2587,-3.3723,-2.7473*
1,1,0.2587,-3.3723,2.7473*
%
%ADD52ROUNDEDRECTD52*%
G04:AMPARAMS|DCode=53|XSize=0.9532mm|YSize=0.7532mm|CornerRadius=0.1044mm|HoleSize=0mm|Usage=FLASHONLY|Rotation=180.000|XOffset=0mm|YOffset=0mm|HoleType=Round|Shape=RoundedRectangle|*
%AMROUNDEDRECTD53*
21,1,0.9532,0.5445,0,0,180.0*
21,1,0.7445,0.7532,0,0,180.0*
1,1,0.2087,-0.3723,0.2722*
1,1,0.2087,0.3723,0.2722*
1,1,0.2087,0.3723,-0.2722*
1,1,0.2087,-0.3723,-0.2722*
%
%ADD53ROUNDEDRECTD53*%
G04:AMPARAMS|DCode=54|XSize=0.9532mm|YSize=0.7532mm|CornerRadius=0.1044mm|HoleSize=0mm|Usage=FLASHONLY|Rotation=270.000|XOffset=0mm|YOffset=0mm|HoleType=Round|Shape=RoundedRectangle|*
%AMROUNDEDRECTD54*
21,1,0.9532,0.5445,0,0,270.0*
21,1,0.7445,0.7532,0,0,270.0*
1,1,0.2087,-0.2722,-0.3723*
1,1,0.2087,-0.2722,0.3723*
1,1,0.2087,0.2722,0.3723*
1,1,0.2087,0.2722,-0.3723*
%
%ADD54ROUNDEDRECTD54*%
G04:AMPARAMS|DCode=55|XSize=0.7532mm|YSize=1.0032mm|CornerRadius=0.1044mm|HoleSize=0mm|Usage=FLASHONLY|Rotation=180.000|XOffset=0mm|YOffset=0mm|HoleType=Round|Shape=RoundedRectangle|*
%AMROUNDEDRECTD55*
21,1,0.7532,0.7945,0,0,180.0*
21,1,0.5445,1.0032,0,0,180.0*
1,1,0.2087,-0.2722,0.3972*
1,1,0.2087,0.2722,0.3972*
1,1,0.2087,0.2722,-0.3972*
1,1,0.2087,-0.2722,-0.3972*
%
%ADD55ROUNDEDRECTD55*%
G04:AMPARAMS|DCode=56|XSize=0.5532mm|YSize=0.8032mm|CornerRadius=0.1034mm|HoleSize=0mm|Usage=FLASHONLY|Rotation=0.000|XOffset=0mm|YOffset=0mm|HoleType=Round|Shape=RoundedRectangle|*
%AMROUNDEDRECTD56*
21,1,0.5532,0.5965,0,0,0.0*
21,1,0.3465,0.8032,0,0,0.0*
1,1,0.2067,0.1732,-0.2983*
1,1,0.2067,-0.1732,-0.2983*
1,1,0.2067,-0.1732,0.2983*
1,1,0.2067,0.1732,0.2983*
%
%ADD56ROUNDEDRECTD56*%
G04:AMPARAMS|DCode=57|XSize=3.2032mm|YSize=1.3032mm|CornerRadius=0.1566mm|HoleSize=0mm|Usage=FLASHONLY|Rotation=270.000|XOffset=0mm|YOffset=0mm|HoleType=Round|Shape=RoundedRectangle|*
%AMROUNDEDRECTD57*
21,1,3.2032,0.9900,0,0,270.0*
21,1,2.8900,1.3032,0,0,270.0*
1,1,0.3132,-0.4950,-1.4450*
1,1,0.3132,-0.4950,1.4450*
1,1,0.3132,0.4950,1.4450*
1,1,0.3132,0.4950,-1.4450*
%
%ADD57ROUNDEDRECTD57*%
G04:AMPARAMS|DCode=58|XSize=1.0532mm|YSize=0.8032mm|CornerRadius=0.1046mm|HoleSize=0mm|Usage=FLASHONLY|Rotation=180.000|XOffset=0mm|YOffset=0mm|HoleType=Round|Shape=RoundedRectangle|*
%AMROUNDEDRECTD58*
21,1,1.0532,0.5940,0,0,180.0*
21,1,0.8440,0.8032,0,0,180.0*
1,1,0.2092,-0.4220,0.2970*
1,1,0.2092,0.4220,0.2970*
1,1,0.2092,0.4220,-0.2970*
1,1,0.2092,-0.4220,-0.2970*
%
%ADD58ROUNDEDRECTD58*%
G04:AMPARAMS|DCode=59|XSize=1.0532mm|YSize=0.8032mm|CornerRadius=0.1046mm|HoleSize=0mm|Usage=FLASHONLY|Rotation=90.000|XOffset=0mm|YOffset=0mm|HoleType=Round|Shape=RoundedRectangle|*
%AMROUNDEDRECTD59*
21,1,1.0532,0.5940,0,0,90.0*
21,1,0.8440,0.8032,0,0,90.0*
1,1,0.2092,0.2970,0.4220*
1,1,0.2092,0.2970,-0.4220*
1,1,0.2092,-0.2970,-0.4220*
1,1,0.2092,-0.2970,0.4220*
%
%ADD59ROUNDEDRECTD59*%
%ADD60O,0.7032X1.3532*%
G04:AMPARAMS|DCode=61|XSize=1.3032mm|YSize=2.7032mm|CornerRadius=0.1071mm|HoleSize=0mm|Usage=FLASHONLY|Rotation=270.000|XOffset=0mm|YOffset=0mm|HoleType=Round|Shape=RoundedRectangle|*
%AMROUNDEDRECTD61*
21,1,1.3032,2.4890,0,0,270.0*
21,1,1.0890,2.7032,0,0,270.0*
1,1,0.2142,-1.2445,-0.5445*
1,1,0.2142,-1.2445,0.5445*
1,1,0.2142,1.2445,0.5445*
1,1,0.2142,1.2445,-0.5445*
%
%ADD61ROUNDEDRECTD61*%
G04:AMPARAMS|DCode=62|XSize=1.3032mm|YSize=2.7032mm|CornerRadius=0.1071mm|HoleSize=0mm|Usage=FLASHONLY|Rotation=0.000|XOffset=0mm|YOffset=0mm|HoleType=Round|Shape=RoundedRectangle|*
%AMROUNDEDRECTD62*
21,1,1.3032,2.4890,0,0,0.0*
21,1,1.0890,2.7032,0,0,0.0*
1,1,0.2142,0.5445,-1.2445*
1,1,0.2142,-0.5445,-1.2445*
1,1,0.2142,-0.5445,1.2445*
1,1,0.2142,0.5445,1.2445*
%
%ADD62ROUNDEDRECTD62*%
G04:AMPARAMS|DCode=63|XSize=4.2032mm|YSize=2.4032mm|CornerRadius=0.3216mm|HoleSize=0mm|Usage=FLASHONLY|Rotation=90.000|XOffset=0mm|YOffset=0mm|HoleType=Round|Shape=RoundedRectangle|*
%AMROUNDEDRECTD63*
21,1,4.2032,1.7600,0,0,90.0*
21,1,3.5600,2.4032,0,0,90.0*
1,1,0.6432,0.8800,1.7800*
1,1,0.6432,0.8800,-1.7800*
1,1,0.6432,-0.8800,-1.7800*
1,1,0.6432,-0.8800,1.7800*
%
%ADD63ROUNDEDRECTD63*%
G04:AMPARAMS|DCode=64|XSize=1.8532mm|YSize=1.1532mm|CornerRadius=0.1064mm|HoleSize=0mm|Usage=FLASHONLY|Rotation=180.000|XOffset=0mm|YOffset=0mm|HoleType=Round|Shape=RoundedRectangle|*
%AMROUNDEDRECTD64*
21,1,1.8532,0.9405,0,0,180.0*
21,1,1.6405,1.1532,0,0,180.0*
1,1,0.2127,-0.8203,0.4703*
1,1,0.2127,0.8203,0.4703*
1,1,0.2127,0.8203,-0.4703*
1,1,0.2127,-0.8203,-0.4703*
%
%ADD64ROUNDEDRECTD64*%
%ADD65O,1.4532X0.8032*%
G04:AMPARAMS|DCode=66|XSize=1.4732mm|YSize=2.4032mm|CornerRadius=0.7366mm|HoleSize=0mm|Usage=FLASHONLY|Rotation=0.000|XOffset=0mm|YOffset=0mm|HoleType=Round|Shape=RoundedRectangle|*
%AMROUNDEDRECTD66*
21,1,1.4732,0.9300,0,0,0.0*
21,1,0.0000,2.4032,0,0,0.0*
1,1,1.4732,0.0000,-0.4650*
1,1,1.4732,0.0000,-0.4650*
1,1,1.4732,0.0000,0.4650*
1,1,1.4732,0.0000,0.4650*
%
%ADD66ROUNDEDRECTD66*%
G04:AMPARAMS|DCode=67|XSize=2.2032mm|YSize=2.2032mm|CornerRadius=0.6016mm|HoleSize=0mm|Usage=FLASHONLY|Rotation=0.000|XOffset=0mm|YOffset=0mm|HoleType=Round|Shape=RoundedRectangle|*
%AMROUNDEDRECTD67*
21,1,2.2032,1.0000,0,0,0.0*
21,1,1.0000,2.2032,0,0,0.0*
1,1,1.2032,0.5000,-0.5000*
1,1,1.2032,-0.5000,-0.5000*
1,1,1.2032,-0.5000,0.5000*
1,1,1.2032,0.5000,0.5000*
%
%ADD67ROUNDEDRECTD67*%
%ADD68C,3.0000*%
%ADD69O,3.0000X2.0000*%
G04:AMPARAMS|DCode=70|XSize=2.2032mm|YSize=2.2032mm|CornerRadius=0.3016mm|HoleSize=0mm|Usage=FLASHONLY|Rotation=0.000|XOffset=0mm|YOffset=0mm|HoleType=Round|Shape=RoundedRectangle|*
%AMROUNDEDRECTD70*
21,1,2.2032,1.6000,0,0,0.0*
21,1,1.6000,2.2032,0,0,0.0*
1,1,0.6032,0.8000,-0.8000*
1,1,0.6032,-0.8000,-0.8000*
1,1,0.6032,-0.8000,0.8000*
1,1,0.6032,0.8000,0.8000*
%
%ADD70ROUNDEDRECTD70*%
%ADD71C,2.2032*%
D35*
X10430593Y10062464D02*
D03*
Y10011664D02*
D03*
X10405193D02*
D03*
Y10037064D02*
D03*
Y10062464D02*
D03*
D36*
X10430593Y10037064D02*
D03*
D49*
X10382228Y10288582D02*
D03*
Y10303582D02*
D03*
D50*
X10411228D02*
D03*
Y10288582D02*
D03*
D51*
X10064728Y10102288D02*
D03*
Y10056489D02*
D03*
Y10127761D02*
D03*
Y10173561D02*
D03*
Y10244834D02*
D03*
Y10199033D02*
D03*
D52*
X10125728Y10079388D02*
D03*
Y10150661D02*
D03*
Y10221934D02*
D03*
D53*
X10180272Y10187900D02*
D03*
Y10173400D02*
D03*
X10192045Y10187900D02*
D03*
Y10173400D02*
D03*
X10174478Y10230985D02*
D03*
Y10245485D02*
D03*
X10336074Y10265310D02*
D03*
Y10279810D02*
D03*
X10316262Y10265310D02*
D03*
Y10279810D02*
D03*
X10428859Y10264445D02*
D03*
Y10249945D02*
D03*
X10417086Y10264445D02*
D03*
Y10249945D02*
D03*
X10440631Y10264445D02*
D03*
Y10249945D02*
D03*
X10189509Y10301180D02*
D03*
Y10286681D02*
D03*
D54*
X10185245Y10232644D02*
D03*
X10199745D02*
D03*
X10205096Y10244417D02*
D03*
X10190596D02*
D03*
X10410291Y10077538D02*
D03*
X10395791D02*
D03*
Y10089310D02*
D03*
X10410291D02*
D03*
X10199294Y10162794D02*
D03*
X10184794D02*
D03*
X10190509Y10275658D02*
D03*
X10176009D02*
D03*
Y10263885D02*
D03*
X10190509D02*
D03*
D55*
X10180272Y10198696D02*
D03*
X10199272D02*
D03*
X10189772Y10220696D02*
D03*
D56*
X10200939Y10045250D02*
D03*
X10187938D02*
D03*
Y10064750D02*
D03*
X10194438D02*
D03*
X10200939D02*
D03*
D57*
X10402168Y10129770D02*
D03*
Y10200770D02*
D03*
X10447168Y10129770D02*
D03*
Y10200770D02*
D03*
D58*
X10397288Y10226156D02*
D03*
Y10240656D02*
D03*
X10176759Y10286681D02*
D03*
Y10301180D02*
D03*
X10094214Y10313162D02*
D03*
Y10298662D02*
D03*
D59*
X10200750Y10078730D02*
D03*
X10186250D02*
D03*
D60*
X10174000Y10098698D02*
D03*
X10180500D02*
D03*
X10187000D02*
D03*
X10193500D02*
D03*
X10174000Y10141198D02*
D03*
X10180500D02*
D03*
X10187000D02*
D03*
X10193500D02*
D03*
D61*
X10220466Y10085666D02*
D03*
Y10105478D02*
D03*
Y10125798D02*
D03*
Y10145610D02*
D03*
Y10165676D02*
D03*
X10220212Y10185742D02*
D03*
Y10205554D02*
D03*
X10376421Y10225366D02*
D03*
Y10185488D02*
D03*
Y10165676D02*
D03*
Y10145356D02*
D03*
Y10125544D02*
D03*
Y10105478D02*
D03*
X10220212Y10225620D02*
D03*
X10376421Y10205300D02*
D03*
Y10085666D02*
D03*
D62*
X10248406Y10246194D02*
D03*
X10268726D02*
D03*
X10288538D02*
D03*
X10308857D02*
D03*
X10328669D02*
D03*
X10348481D02*
D03*
D63*
X10244032Y10288560D02*
D03*
X10209031D02*
D03*
D64*
X10077441Y10284677D02*
D03*
Y10311676D02*
D03*
X10268054Y10275786D02*
D03*
Y10302786D02*
D03*
X10288827Y10275786D02*
D03*
Y10302786D02*
D03*
D65*
X10162236Y10270236D02*
D03*
Y10282936D02*
D03*
Y10295636D02*
D03*
Y10308336D02*
D03*
X10108737Y10270236D02*
D03*
Y10282936D02*
D03*
Y10295636D02*
D03*
Y10308336D02*
D03*
D66*
X10200132Y10017750D02*
D03*
X10181032D02*
D03*
D67*
X10157968D02*
D03*
X10132060Y10018004D02*
D03*
D68*
X10470000Y10030000D02*
D03*
X10030000D02*
D03*
Y10300000D02*
D03*
X10470000D02*
D03*
D69*
X10022000Y10185000D02*
D03*
Y10145000D02*
D03*
X10478000D02*
D03*
Y10185000D02*
D03*
D70*
X10101632Y10018258D02*
D03*
D71*
X10073132D02*
D03*
M02*
