G04 Layer_Color=65535*
%FSAX44Y44*%
%MOMM*%
G71*
G01*
G75*
G36*
X10154497Y10085875D02*
X10154802Y10085841D01*
X10155089Y10085807D01*
X10155359Y10085740D01*
X10155613Y10085655D01*
X10155850Y10085571D01*
X10156053Y10085486D01*
X10156240Y10085402D01*
X10156409Y10085300D01*
X10156561Y10085215D01*
X10156696Y10085131D01*
X10156797Y10085046D01*
X10156882Y10084979D01*
X10156933Y10084944D01*
X10156967Y10084911D01*
X10156984Y10084894D01*
X10157170Y10084708D01*
X10157322Y10084505D01*
X10157457Y10084285D01*
X10157576Y10084082D01*
X10157677Y10083862D01*
X10157762Y10083659D01*
X10157880Y10083253D01*
X10157931Y10083067D01*
X10157965Y10082898D01*
X10157982Y10082745D01*
X10157999Y10082610D01*
X10158016Y10082509D01*
Y10082424D01*
Y10082374D01*
Y10082357D01*
X10157999Y10082052D01*
X10157965Y10081765D01*
X10157897Y10081494D01*
X10157830Y10081240D01*
X10157728Y10081003D01*
X10157626Y10080783D01*
X10157525Y10080580D01*
X10157407Y10080394D01*
X10157288Y10080242D01*
X10157187Y10080090D01*
X10157085Y10079971D01*
X10156984Y10079870D01*
X10156916Y10079785D01*
X10156848Y10079734D01*
X10156815Y10079700D01*
X10156797Y10079684D01*
X10156611Y10079548D01*
X10156392Y10079413D01*
X10155969Y10079210D01*
X10155529Y10079075D01*
X10155106Y10078973D01*
X10154920Y10078939D01*
X10154734Y10078923D01*
X10154581Y10078889D01*
X10154446D01*
X10154328Y10078871D01*
X10154175D01*
X10153837Y10078889D01*
X10153533Y10078923D01*
X10153228Y10078956D01*
X10152958Y10079024D01*
X10152704Y10079092D01*
X10152467Y10079176D01*
X10152247Y10079278D01*
X10152061Y10079362D01*
X10151892Y10079447D01*
X10151740Y10079548D01*
X10151604Y10079633D01*
X10151503Y10079700D01*
X10151418Y10079768D01*
X10151368Y10079819D01*
X10151334Y10079836D01*
X10151317Y10079853D01*
X10151131Y10080039D01*
X10150978Y10080242D01*
X10150843Y10080462D01*
X10150724Y10080665D01*
X10150623Y10080885D01*
X10150538Y10081088D01*
X10150420Y10081494D01*
X10150369Y10081680D01*
X10150336Y10081849D01*
X10150319Y10082001D01*
X10150302Y10082137D01*
X10150285Y10082238D01*
Y10082323D01*
Y10082374D01*
Y10082390D01*
X10150302Y10082644D01*
X10150319Y10082881D01*
X10150420Y10083337D01*
X10150555Y10083727D01*
X10150708Y10084065D01*
X10150792Y10084218D01*
X10150860Y10084336D01*
X10150928Y10084454D01*
X10150995Y10084539D01*
X10151046Y10084606D01*
X10151097Y10084674D01*
X10151114Y10084691D01*
X10151131Y10084708D01*
X10151334Y10084911D01*
X10151553Y10085097D01*
X10151790Y10085249D01*
X10152044Y10085402D01*
X10152298Y10085503D01*
X10152552Y10085604D01*
X10152805Y10085689D01*
X10153042Y10085740D01*
X10153262Y10085790D01*
X10153482Y10085825D01*
X10153685Y10085858D01*
X10153837Y10085875D01*
X10153989Y10085892D01*
X10154175D01*
X10154497Y10085875D01*
D02*
G37*
G36*
X10125706D02*
X10126010Y10085841D01*
X10126298Y10085807D01*
X10126568Y10085740D01*
X10126822Y10085655D01*
X10127059Y10085571D01*
X10127261Y10085486D01*
X10127448Y10085402D01*
X10127617Y10085300D01*
X10127769Y10085215D01*
X10127905Y10085131D01*
X10128006Y10085046D01*
X10128090Y10084979D01*
X10128141Y10084944D01*
X10128175Y10084911D01*
X10128192Y10084894D01*
X10128378Y10084708D01*
X10128530Y10084505D01*
X10128666Y10084285D01*
X10128784Y10084082D01*
X10128885Y10083862D01*
X10128970Y10083659D01*
X10129089Y10083253D01*
X10129139Y10083067D01*
X10129173Y10082898D01*
X10129190Y10082745D01*
X10129207Y10082610D01*
X10129224Y10082509D01*
Y10082424D01*
Y10082374D01*
Y10082357D01*
X10129207Y10082052D01*
X10129173Y10081765D01*
X10129105Y10081494D01*
X10129038Y10081240D01*
X10128936Y10081003D01*
X10128835Y10080783D01*
X10128734Y10080580D01*
X10128615Y10080394D01*
X10128497Y10080242D01*
X10128395Y10080090D01*
X10128293Y10079971D01*
X10128192Y10079870D01*
X10128124Y10079785D01*
X10128057Y10079734D01*
X10128023Y10079700D01*
X10128006Y10079684D01*
X10127820Y10079548D01*
X10127600Y10079413D01*
X10127177Y10079210D01*
X10126737Y10079075D01*
X10126314Y10078973D01*
X10126128Y10078939D01*
X10125942Y10078923D01*
X10125790Y10078889D01*
X10125654D01*
X10125536Y10078871D01*
X10125384D01*
X10125046Y10078889D01*
X10124741Y10078923D01*
X10124437Y10078956D01*
X10124166Y10079024D01*
X10123912Y10079092D01*
X10123676Y10079176D01*
X10123455Y10079278D01*
X10123270Y10079362D01*
X10123100Y10079447D01*
X10122948Y10079548D01*
X10122812Y10079633D01*
X10122711Y10079700D01*
X10122626Y10079768D01*
X10122576Y10079819D01*
X10122542Y10079836D01*
X10122525Y10079853D01*
X10122339Y10080039D01*
X10122187Y10080242D01*
X10122051Y10080462D01*
X10121933Y10080665D01*
X10121832Y10080885D01*
X10121747Y10081088D01*
X10121628Y10081494D01*
X10121578Y10081680D01*
X10121544Y10081849D01*
X10121527Y10082001D01*
X10121510Y10082137D01*
X10121493Y10082238D01*
Y10082323D01*
Y10082374D01*
Y10082390D01*
X10121510Y10082644D01*
X10121527Y10082881D01*
X10121628Y10083337D01*
X10121764Y10083727D01*
X10121916Y10084065D01*
X10122001Y10084218D01*
X10122068Y10084336D01*
X10122136Y10084454D01*
X10122203Y10084539D01*
X10122255Y10084606D01*
X10122305Y10084674D01*
X10122322Y10084691D01*
X10122339Y10084708D01*
X10122542Y10084911D01*
X10122762Y10085097D01*
X10122999Y10085249D01*
X10123253Y10085402D01*
X10123506Y10085503D01*
X10123760Y10085604D01*
X10124014Y10085689D01*
X10124250Y10085740D01*
X10124470Y10085790D01*
X10124691Y10085825D01*
X10124893Y10085858D01*
X10125046Y10085875D01*
X10125198Y10085892D01*
X10125384D01*
X10125706Y10085875D01*
D02*
G37*
G36*
X10262255D02*
X10262627Y10085858D01*
X10262931Y10085807D01*
X10263185Y10085773D01*
X10263405Y10085723D01*
X10263557Y10085672D01*
X10263641Y10085655D01*
X10263676Y10085638D01*
X10263912Y10085536D01*
X10264132Y10085435D01*
X10264302Y10085317D01*
X10264453Y10085198D01*
X10264589Y10085097D01*
X10264674Y10085012D01*
X10264724Y10084944D01*
X10264741Y10084928D01*
X10264860Y10084742D01*
X10264961Y10084556D01*
X10265029Y10084352D01*
X10265062Y10084183D01*
X10265096Y10084014D01*
X10265114Y10083896D01*
Y10083811D01*
Y10083777D01*
X10265096Y10083558D01*
X10265062Y10083354D01*
X10264995Y10083185D01*
X10264927Y10083016D01*
X10264877Y10082898D01*
X10264808Y10082796D01*
X10264775Y10082729D01*
X10264758Y10082712D01*
X10264623Y10082543D01*
X10264470Y10082407D01*
X10264335Y10082289D01*
X10264200Y10082205D01*
X10264082Y10082120D01*
X10263979Y10082069D01*
X10263912Y10082052D01*
X10263895Y10082035D01*
X10263794Y10082001D01*
X10263658Y10081951D01*
X10263387Y10081883D01*
X10263066Y10081815D01*
X10262762Y10081747D01*
X10262474Y10081680D01*
X10262339Y10081663D01*
X10262238Y10081629D01*
X10262153Y10081612D01*
X10262068D01*
X10262035Y10081595D01*
X10262018D01*
X10261713Y10081545D01*
X10261460Y10081494D01*
X10261273Y10081443D01*
X10261138Y10081409D01*
X10261036Y10081375D01*
X10260969Y10081342D01*
X10260935Y10081324D01*
X10260918D01*
X10260817Y10081257D01*
X10260748Y10081190D01*
X10260698Y10081122D01*
X10260664Y10081054D01*
X10260631Y10080953D01*
Y10080919D01*
Y10080901D01*
X10260647Y10080817D01*
X10260664Y10080732D01*
X10260748Y10080597D01*
X10260834Y10080530D01*
X10260851Y10080496D01*
X10260868D01*
X10260986Y10080428D01*
X10261105Y10080377D01*
X10261357Y10080309D01*
X10261476Y10080293D01*
X10261578Y10080276D01*
X10261663D01*
X10261831Y10080293D01*
X10261984Y10080309D01*
X10262119Y10080344D01*
X10262220Y10080377D01*
X10262306Y10080411D01*
X10262373Y10080428D01*
X10262407Y10080462D01*
X10262423D01*
X10262526Y10080546D01*
X10262610Y10080648D01*
X10262728Y10080885D01*
X10262778Y10080986D01*
X10262812Y10081054D01*
X10262847Y10081122D01*
Y10081138D01*
X10265400Y10080901D01*
X10265299Y10080563D01*
X10265148Y10080259D01*
X10264995Y10079988D01*
X10264825Y10079785D01*
X10264657Y10079616D01*
X10264521Y10079498D01*
X10264437Y10079413D01*
X10264403Y10079396D01*
X10264250Y10079312D01*
X10264065Y10079227D01*
X10263658Y10079092D01*
X10263236Y10079007D01*
X10262795Y10078939D01*
X10262593Y10078923D01*
X10262407Y10078906D01*
X10262238Y10078889D01*
X10262085D01*
X10261949Y10078871D01*
X10261781D01*
X10261324Y10078889D01*
X10260918Y10078923D01*
X10260563Y10078973D01*
X10260276Y10079041D01*
X10260039Y10079092D01*
X10259869Y10079142D01*
X10259768Y10079176D01*
X10259734Y10079193D01*
X10259463Y10079329D01*
X10259243Y10079464D01*
X10259041Y10079616D01*
X10258888Y10079752D01*
X10258770Y10079870D01*
X10258685Y10079971D01*
X10258634Y10080039D01*
X10258617Y10080056D01*
X10258499Y10080259D01*
X10258414Y10080462D01*
X10258347Y10080665D01*
X10258313Y10080834D01*
X10258279Y10080986D01*
X10258262Y10081088D01*
Y10081172D01*
Y10081190D01*
X10258279Y10081392D01*
X10258313Y10081595D01*
X10258364Y10081782D01*
X10258431Y10081934D01*
X10258499Y10082052D01*
X10258550Y10082153D01*
X10258584Y10082221D01*
X10258601Y10082238D01*
X10258735Y10082407D01*
X10258888Y10082559D01*
X10259058Y10082695D01*
X10259210Y10082796D01*
X10259344Y10082881D01*
X10259463Y10082932D01*
X10259531Y10082966D01*
X10259564Y10082982D01*
X10259818Y10083084D01*
X10260123Y10083168D01*
X10260444Y10083236D01*
X10260748Y10083287D01*
X10261036Y10083337D01*
X10261155Y10083354D01*
X10261273Y10083372D01*
X10261357D01*
X10261426Y10083389D01*
X10261476D01*
X10261764Y10083422D01*
X10262001Y10083473D01*
X10262203Y10083507D01*
X10262339Y10083541D01*
X10262457Y10083574D01*
X10262526Y10083608D01*
X10262559Y10083625D01*
X10262576D01*
X10262660Y10083676D01*
X10262711Y10083727D01*
X10262778Y10083862D01*
X10262812Y10083964D01*
Y10083981D01*
Y10083997D01*
X10262795Y10084082D01*
X10262778Y10084150D01*
X10262711Y10084268D01*
X10262660Y10084336D01*
X10262627Y10084370D01*
X10262542Y10084420D01*
X10262440Y10084471D01*
X10262220Y10084522D01*
X10262136Y10084539D01*
X10261831D01*
X10261680Y10084505D01*
X10261561Y10084471D01*
X10261443Y10084437D01*
X10261357Y10084404D01*
X10261290Y10084370D01*
X10261256Y10084352D01*
X10261239Y10084336D01*
X10261105Y10084200D01*
X10261002Y10084048D01*
X10260969Y10083981D01*
X10260935Y10083913D01*
X10260918Y10083879D01*
Y10083862D01*
X10258483Y10084099D01*
X10258584Y10084336D01*
X10258685Y10084539D01*
X10258804Y10084708D01*
X10258905Y10084860D01*
X10258989Y10084979D01*
X10259058Y10085063D01*
X10259108Y10085114D01*
X10259125Y10085131D01*
X10259277Y10085266D01*
X10259446Y10085385D01*
X10259598Y10085486D01*
X10259751Y10085571D01*
X10259886Y10085621D01*
X10259988Y10085672D01*
X10260055Y10085706D01*
X10260089D01*
X10260326Y10085773D01*
X10260597Y10085807D01*
X10260884Y10085841D01*
X10261172Y10085875D01*
X10261443D01*
X10261544Y10085892D01*
X10261848D01*
X10262255Y10085875D01*
D02*
G37*
G36*
X10177318D02*
X10177689Y10085858D01*
X10177994Y10085807D01*
X10178248Y10085773D01*
X10178467Y10085723D01*
X10178620Y10085672D01*
X10178704Y10085655D01*
X10178738Y10085638D01*
X10178975Y10085536D01*
X10179195Y10085435D01*
X10179364Y10085317D01*
X10179517Y10085198D01*
X10179651Y10085097D01*
X10179736Y10085012D01*
X10179787Y10084944D01*
X10179804Y10084928D01*
X10179922Y10084742D01*
X10180024Y10084556D01*
X10180092Y10084352D01*
X10180125Y10084183D01*
X10180159Y10084014D01*
X10180176Y10083896D01*
Y10083811D01*
Y10083777D01*
X10180159Y10083558D01*
X10180125Y10083354D01*
X10180058Y10083185D01*
X10179990Y10083016D01*
X10179940Y10082898D01*
X10179872Y10082796D01*
X10179838Y10082729D01*
X10179821Y10082712D01*
X10179686Y10082543D01*
X10179533Y10082407D01*
X10179398Y10082289D01*
X10179263Y10082205D01*
X10179144Y10082120D01*
X10179043Y10082069D01*
X10178975Y10082052D01*
X10178958Y10082035D01*
X10178857Y10082001D01*
X10178721Y10081951D01*
X10178451Y10081883D01*
X10178129Y10081815D01*
X10177825Y10081747D01*
X10177537Y10081680D01*
X10177402Y10081663D01*
X10177300Y10081629D01*
X10177216Y10081612D01*
X10177131D01*
X10177097Y10081595D01*
X10177081D01*
X10176776Y10081545D01*
X10176522Y10081494D01*
X10176336Y10081443D01*
X10176201Y10081409D01*
X10176099Y10081375D01*
X10176031Y10081342D01*
X10175998Y10081324D01*
X10175981D01*
X10175880Y10081257D01*
X10175812Y10081190D01*
X10175761Y10081122D01*
X10175727Y10081054D01*
X10175693Y10080953D01*
Y10080919D01*
Y10080901D01*
X10175710Y10080817D01*
X10175727Y10080732D01*
X10175812Y10080597D01*
X10175896Y10080530D01*
X10175913Y10080496D01*
X10175930D01*
X10176049Y10080428D01*
X10176167Y10080377D01*
X10176421Y10080309D01*
X10176539Y10080293D01*
X10176641Y10080276D01*
X10176725D01*
X10176895Y10080293D01*
X10177047Y10080309D01*
X10177182Y10080344D01*
X10177283Y10080377D01*
X10177368Y10080411D01*
X10177436Y10080428D01*
X10177469Y10080462D01*
X10177487D01*
X10177588Y10080546D01*
X10177673Y10080648D01*
X10177791Y10080885D01*
X10177842Y10080986D01*
X10177875Y10081054D01*
X10177910Y10081122D01*
Y10081138D01*
X10180464Y10080901D01*
X10180362Y10080563D01*
X10180210Y10080259D01*
X10180058Y10079988D01*
X10179888Y10079785D01*
X10179719Y10079616D01*
X10179584Y10079498D01*
X10179500Y10079413D01*
X10179465Y10079396D01*
X10179313Y10079312D01*
X10179127Y10079227D01*
X10178721Y10079092D01*
X10178298Y10079007D01*
X10177859Y10078939D01*
X10177656Y10078923D01*
X10177469Y10078906D01*
X10177300Y10078889D01*
X10177148D01*
X10177013Y10078871D01*
X10176844D01*
X10176387Y10078889D01*
X10175981Y10078923D01*
X10175626Y10078973D01*
X10175338Y10079041D01*
X10175101Y10079092D01*
X10174932Y10079142D01*
X10174830Y10079176D01*
X10174797Y10079193D01*
X10174526Y10079329D01*
X10174306Y10079464D01*
X10174103Y10079616D01*
X10173951Y10079752D01*
X10173832Y10079870D01*
X10173748Y10079971D01*
X10173697Y10080039D01*
X10173680Y10080056D01*
X10173562Y10080259D01*
X10173477Y10080462D01*
X10173409Y10080665D01*
X10173376Y10080834D01*
X10173342Y10080986D01*
X10173325Y10081088D01*
Y10081172D01*
Y10081190D01*
X10173342Y10081392D01*
X10173376Y10081595D01*
X10173427Y10081782D01*
X10173494Y10081934D01*
X10173562Y10082052D01*
X10173613Y10082153D01*
X10173646Y10082221D01*
X10173663Y10082238D01*
X10173799Y10082407D01*
X10173951Y10082559D01*
X10174120Y10082695D01*
X10174272Y10082796D01*
X10174407Y10082881D01*
X10174526Y10082932D01*
X10174594Y10082966D01*
X10174628Y10082982D01*
X10174882Y10083084D01*
X10175186Y10083168D01*
X10175507Y10083236D01*
X10175812Y10083287D01*
X10176099Y10083337D01*
X10176218Y10083354D01*
X10176336Y10083372D01*
X10176421D01*
X10176489Y10083389D01*
X10176539D01*
X10176827Y10083422D01*
X10177064Y10083473D01*
X10177266Y10083507D01*
X10177402Y10083541D01*
X10177520Y10083574D01*
X10177588Y10083608D01*
X10177622Y10083625D01*
X10177639D01*
X10177723Y10083676D01*
X10177774Y10083727D01*
X10177842Y10083862D01*
X10177875Y10083964D01*
Y10083981D01*
Y10083997D01*
X10177859Y10084082D01*
X10177842Y10084150D01*
X10177774Y10084268D01*
X10177723Y10084336D01*
X10177689Y10084370D01*
X10177605Y10084420D01*
X10177503Y10084471D01*
X10177283Y10084522D01*
X10177199Y10084539D01*
X10176895D01*
X10176742Y10084505D01*
X10176624Y10084471D01*
X10176505Y10084437D01*
X10176421Y10084404D01*
X10176353Y10084370D01*
X10176319Y10084352D01*
X10176302Y10084336D01*
X10176167Y10084200D01*
X10176066Y10084048D01*
X10176031Y10083981D01*
X10175998Y10083913D01*
X10175981Y10083879D01*
Y10083862D01*
X10173545Y10084099D01*
X10173646Y10084336D01*
X10173748Y10084539D01*
X10173867Y10084708D01*
X10173968Y10084860D01*
X10174052Y10084979D01*
X10174120Y10085063D01*
X10174171Y10085114D01*
X10174188Y10085131D01*
X10174340Y10085266D01*
X10174509Y10085385D01*
X10174661Y10085486D01*
X10174814Y10085571D01*
X10174949Y10085621D01*
X10175051Y10085672D01*
X10175118Y10085706D01*
X10175152D01*
X10175389Y10085773D01*
X10175660Y10085807D01*
X10175947Y10085841D01*
X10176235Y10085875D01*
X10176505D01*
X10176607Y10085892D01*
X10176911D01*
X10177318Y10085875D01*
D02*
G37*
G36*
X10238707Y10074429D02*
X10239113Y10074396D01*
X10239468Y10074345D01*
X10239756Y10074277D01*
X10239993Y10074210D01*
X10240161Y10074159D01*
X10240264Y10074125D01*
X10240280Y10074108D01*
X10240297D01*
X10240568Y10073973D01*
X10240787Y10073821D01*
X10240990Y10073668D01*
X10241143Y10073516D01*
X10241278Y10073381D01*
X10241379Y10073279D01*
X10241431Y10073212D01*
X10241448Y10073177D01*
X10241583Y10072924D01*
X10241702Y10072653D01*
X10241786Y10072383D01*
X10241870Y10072112D01*
X10241921Y10071858D01*
X10241954Y10071672D01*
X10241971Y10071588D01*
X10241989Y10071537D01*
Y10071503D01*
Y10071486D01*
X10239401Y10071283D01*
X10239350Y10071554D01*
X10239299Y10071774D01*
X10239232Y10071960D01*
X10239164Y10072112D01*
X10239096Y10072230D01*
X10239045Y10072315D01*
X10239011Y10072349D01*
X10238995Y10072366D01*
X10238859Y10072467D01*
X10238724Y10072552D01*
X10238588Y10072603D01*
X10238470Y10072653D01*
X10238351Y10072670D01*
X10238267Y10072687D01*
X10238182D01*
X10238013Y10072670D01*
X10237861Y10072636D01*
X10237726Y10072585D01*
X10237607Y10072535D01*
X10237506Y10072484D01*
X10237438Y10072433D01*
X10237404Y10072399D01*
X10237388Y10072383D01*
X10237286Y10072264D01*
X10237202Y10072146D01*
X10237151Y10072028D01*
X10237100Y10071909D01*
X10237083Y10071807D01*
X10237066Y10071723D01*
Y10071672D01*
Y10071655D01*
X10237083Y10071503D01*
X10237117Y10071368D01*
X10237167Y10071215D01*
X10237218Y10071097D01*
X10237286Y10070978D01*
X10237336Y10070894D01*
X10237371Y10070843D01*
X10237388Y10070826D01*
X10237455Y10070742D01*
X10237540Y10070640D01*
X10237742Y10070437D01*
X10237996Y10070234D01*
X10238233Y10070014D01*
X10238470Y10069828D01*
X10238656Y10069676D01*
X10238741Y10069625D01*
X10238792Y10069575D01*
X10238825Y10069557D01*
X10238842Y10069540D01*
X10239180Y10069287D01*
X10239485Y10069050D01*
X10239772Y10068813D01*
X10240027Y10068593D01*
X10240264Y10068373D01*
X10240466Y10068187D01*
X10240652Y10068001D01*
X10240804Y10067832D01*
X10240940Y10067680D01*
X10241075Y10067545D01*
X10241160Y10067426D01*
X10241244Y10067341D01*
X10241312Y10067257D01*
X10241345Y10067206D01*
X10241362Y10067172D01*
X10241379Y10067155D01*
X10241599Y10066783D01*
X10241786Y10066394D01*
X10241921Y10066039D01*
X10242023Y10065718D01*
X10242107Y10065430D01*
X10242124Y10065311D01*
X10242141Y10065210D01*
X10242158Y10065142D01*
X10242175Y10065074D01*
Y10065041D01*
Y10065024D01*
X10234427D01*
Y10067122D01*
X10238470D01*
X10238217Y10067341D01*
X10238030Y10067527D01*
X10237963Y10067578D01*
X10237912Y10067629D01*
X10237878Y10067646D01*
X10237861Y10067663D01*
X10237742Y10067764D01*
X10237590Y10067883D01*
X10237404Y10068001D01*
X10237235Y10068120D01*
X10237066Y10068238D01*
X10236931Y10068340D01*
X10236846Y10068407D01*
X10236812Y10068424D01*
X10236575Y10068593D01*
X10236356Y10068762D01*
X10236152Y10068932D01*
X10235966Y10069084D01*
X10235814Y10069236D01*
X10235662Y10069371D01*
X10235408Y10069625D01*
X10235222Y10069828D01*
X10235104Y10069980D01*
X10235019Y10070082D01*
X10235002Y10070116D01*
X10234833Y10070403D01*
X10234714Y10070691D01*
X10234613Y10070978D01*
X10234562Y10071215D01*
X10234528Y10071436D01*
X10234495Y10071605D01*
Y10071655D01*
Y10071706D01*
Y10071723D01*
Y10071740D01*
X10234512Y10072028D01*
X10234562Y10072298D01*
X10234630Y10072552D01*
X10234714Y10072755D01*
X10234799Y10072941D01*
X10234867Y10073059D01*
X10234918Y10073144D01*
X10234935Y10073177D01*
X10235104Y10073398D01*
X10235306Y10073600D01*
X10235510Y10073753D01*
X10235696Y10073888D01*
X10235865Y10073990D01*
X10236017Y10074074D01*
X10236102Y10074108D01*
X10236119Y10074125D01*
X10236136D01*
X10236440Y10074227D01*
X10236779Y10074311D01*
X10237134Y10074362D01*
X10237472Y10074413D01*
X10237776Y10074429D01*
X10237912D01*
X10238030Y10074446D01*
X10238250D01*
X10238707Y10074429D01*
D02*
G37*
G36*
X10271288Y10069304D02*
X10269105Y10068983D01*
X10268987Y10069101D01*
X10268885Y10069202D01*
X10268784Y10069287D01*
X10268700Y10069355D01*
X10268632Y10069406D01*
X10268582Y10069439D01*
X10268547Y10069473D01*
X10268530D01*
X10268395Y10069540D01*
X10268259Y10069575D01*
X10268040Y10069642D01*
X10267938D01*
X10267871Y10069659D01*
X10267803D01*
X10267600Y10069642D01*
X10267397Y10069592D01*
X10267245Y10069540D01*
X10267109Y10069473D01*
X10266991Y10069388D01*
X10266924Y10069338D01*
X10266873Y10069287D01*
X10266855Y10069270D01*
X10266737Y10069101D01*
X10266653Y10068915D01*
X10266586Y10068712D01*
X10266552Y10068509D01*
X10266517Y10068340D01*
X10266500Y10068187D01*
Y10068086D01*
Y10068069D01*
Y10068052D01*
X10266517Y10067764D01*
X10266552Y10067527D01*
X10266619Y10067325D01*
X10266670Y10067155D01*
X10266737Y10067020D01*
X10266805Y10066935D01*
X10266838Y10066868D01*
X10266855Y10066851D01*
X10266991Y10066716D01*
X10267144Y10066614D01*
X10267296Y10066547D01*
X10267430Y10066496D01*
X10267566Y10066462D01*
X10267667Y10066445D01*
X10267753D01*
X10267921Y10066462D01*
X10268091Y10066496D01*
X10268243Y10066547D01*
X10268362Y10066614D01*
X10268463Y10066665D01*
X10268530Y10066716D01*
X10268582Y10066749D01*
X10268599Y10066766D01*
X10268717Y10066902D01*
X10268801Y10067054D01*
X10268885Y10067206D01*
X10268937Y10067358D01*
X10268970Y10067494D01*
X10269004Y10067612D01*
X10269021Y10067680D01*
Y10067714D01*
X10271626Y10067426D01*
X10271559Y10067189D01*
X10271473Y10066970D01*
X10271406Y10066783D01*
X10271322Y10066631D01*
X10271271Y10066496D01*
X10271221Y10066411D01*
X10271187Y10066343D01*
X10271169Y10066326D01*
X10270933Y10066022D01*
X10270814Y10065887D01*
X10270696Y10065785D01*
X10270577Y10065684D01*
X10270493Y10065616D01*
X10270442Y10065565D01*
X10270425Y10065548D01*
X10270052Y10065328D01*
X10269867Y10065244D01*
X10269681Y10065176D01*
X10269529Y10065109D01*
X10269410Y10065074D01*
X10269342Y10065058D01*
X10269309Y10065041D01*
X10269055Y10064990D01*
X10268784Y10064940D01*
X10268513Y10064905D01*
X10268276Y10064888D01*
X10268057D01*
X10267888Y10064872D01*
X10267736D01*
X10267279Y10064888D01*
X10266873Y10064940D01*
X10266500Y10065007D01*
X10266196Y10065092D01*
X10265959Y10065159D01*
X10265858Y10065193D01*
X10265790Y10065227D01*
X10265723Y10065261D01*
X10265671Y10065278D01*
X10265654Y10065295D01*
X10265637D01*
X10265350Y10065481D01*
X10265096Y10065684D01*
X10264877Y10065887D01*
X10264690Y10066089D01*
X10264556Y10066276D01*
X10264453Y10066428D01*
X10264386Y10066530D01*
X10264369Y10066547D01*
Y10066563D01*
X10264216Y10066868D01*
X10264098Y10067189D01*
X10264031Y10067477D01*
X10263964Y10067731D01*
X10263929Y10067968D01*
X10263912Y10068137D01*
Y10068204D01*
Y10068255D01*
Y10068272D01*
Y10068289D01*
X10263929Y10068526D01*
X10263947Y10068746D01*
X10264048Y10069152D01*
X10264183Y10069524D01*
X10264352Y10069828D01*
X10264521Y10070065D01*
X10264589Y10070167D01*
X10264657Y10070251D01*
X10264707Y10070319D01*
X10264758Y10070369D01*
X10264775Y10070386D01*
X10264792Y10070403D01*
X10264961Y10070555D01*
X10265131Y10070691D01*
X10265316Y10070792D01*
X10265503Y10070894D01*
X10265874Y10071046D01*
X10266246Y10071147D01*
X10266552Y10071199D01*
X10266687Y10071232D01*
X10266805D01*
X10266907Y10071249D01*
X10267042D01*
X10267346Y10071232D01*
X10267482Y10071215D01*
X10267600Y10071199D01*
X10267719Y10071182D01*
X10267803Y10071165D01*
X10267854Y10071147D01*
X10267871D01*
X10268175Y10071063D01*
X10268328Y10071013D01*
X10268463Y10070961D01*
X10268564Y10070911D01*
X10268666Y10070877D01*
X10268717Y10070860D01*
X10268733Y10070843D01*
X10268513Y10072230D01*
X10264352D01*
Y10074294D01*
X10270476D01*
X10271288Y10069304D01*
D02*
G37*
G36*
X10289304Y10074413D02*
X10289558Y10074396D01*
X10289795Y10074345D01*
X10290015Y10074294D01*
X10290217Y10074243D01*
X10290403Y10074193D01*
X10290555Y10074142D01*
X10290708Y10074074D01*
X10290844Y10074023D01*
X10290945Y10073973D01*
X10291029Y10073922D01*
X10291115Y10073871D01*
X10291165Y10073854D01*
X10291182Y10073821D01*
X10291199D01*
X10291503Y10073567D01*
X10291740Y10073279D01*
X10291943Y10072975D01*
X10292095Y10072687D01*
X10292213Y10072433D01*
X10292247Y10072315D01*
X10292299Y10072213D01*
X10292314Y10072146D01*
X10292332Y10072078D01*
X10292349Y10072044D01*
Y10072028D01*
X10289913Y10071605D01*
X10289862Y10071841D01*
X10289811Y10072044D01*
X10289744Y10072197D01*
X10289692Y10072332D01*
X10289625Y10072433D01*
X10289591Y10072501D01*
X10289558Y10072535D01*
X10289541Y10072552D01*
X10289423Y10072653D01*
X10289304Y10072721D01*
X10289186Y10072772D01*
X10289067Y10072806D01*
X10288949Y10072822D01*
X10288864Y10072839D01*
X10288796D01*
X10288627Y10072822D01*
X10288491Y10072806D01*
X10288373Y10072755D01*
X10288271Y10072721D01*
X10288187Y10072670D01*
X10288137Y10072620D01*
X10288103Y10072603D01*
X10288086Y10072585D01*
X10288002Y10072484D01*
X10287933Y10072366D01*
X10287900Y10072264D01*
X10287866Y10072146D01*
X10287849Y10072061D01*
X10287832Y10071976D01*
Y10071926D01*
Y10071909D01*
X10287849Y10071757D01*
X10287883Y10071605D01*
X10287950Y10071469D01*
X10288002Y10071368D01*
X10288069Y10071266D01*
X10288137Y10071199D01*
X10288170Y10071165D01*
X10288187Y10071147D01*
X10288323Y10071046D01*
X10288458Y10070978D01*
X10288611Y10070911D01*
X10288729Y10070877D01*
X10288848Y10070860D01*
X10288949Y10070843D01*
X10289135D01*
X10289253Y10070860D01*
X10289371D01*
X10289490Y10069033D01*
X10289304Y10069084D01*
X10289135Y10069117D01*
X10288999Y10069152D01*
X10288881Y10069169D01*
X10288779Y10069185D01*
X10288661D01*
X10288458Y10069169D01*
X10288271Y10069135D01*
X10288120Y10069067D01*
X10287985Y10069016D01*
X10287883Y10068948D01*
X10287815Y10068881D01*
X10287765Y10068847D01*
X10287748Y10068830D01*
X10287629Y10068678D01*
X10287544Y10068526D01*
X10287494Y10068356D01*
X10287443Y10068204D01*
X10287426Y10068052D01*
X10287410Y10067933D01*
Y10067866D01*
Y10067832D01*
X10287426Y10067612D01*
X10287460Y10067409D01*
X10287528Y10067223D01*
X10287578Y10067088D01*
X10287646Y10066970D01*
X10287714Y10066885D01*
X10287748Y10066834D01*
X10287765Y10066817D01*
X10287900Y10066699D01*
X10288035Y10066597D01*
X10288187Y10066530D01*
X10288323Y10066496D01*
X10288441Y10066462D01*
X10288542Y10066445D01*
X10288627D01*
X10288813Y10066462D01*
X10288966Y10066496D01*
X10289117Y10066530D01*
X10289236Y10066597D01*
X10289321Y10066648D01*
X10289406Y10066682D01*
X10289440Y10066716D01*
X10289456Y10066733D01*
X10289558Y10066868D01*
X10289659Y10067037D01*
X10289795Y10067393D01*
X10289845Y10067562D01*
X10289879Y10067697D01*
X10289913Y10067781D01*
Y10067815D01*
X10292484Y10067460D01*
X10292383Y10067155D01*
X10292264Y10066868D01*
X10292163Y10066631D01*
X10292045Y10066411D01*
X10291943Y10066242D01*
X10291858Y10066124D01*
X10291791Y10066056D01*
X10291774Y10066022D01*
X10291587Y10065819D01*
X10291384Y10065650D01*
X10291182Y10065497D01*
X10290996Y10065379D01*
X10290826Y10065278D01*
X10290691Y10065210D01*
X10290607Y10065176D01*
X10290573Y10065159D01*
X10290269Y10065058D01*
X10289946Y10064990D01*
X10289608Y10064940D01*
X10289287Y10064905D01*
X10289016Y10064888D01*
X10288881D01*
X10288779Y10064872D01*
X10288577D01*
X10288120Y10064888D01*
X10287697Y10064940D01*
X10287341Y10064990D01*
X10287037Y10065074D01*
X10286801Y10065142D01*
X10286699Y10065176D01*
X10286631Y10065193D01*
X10286564Y10065227D01*
X10286512Y10065244D01*
X10286495Y10065261D01*
X10286478D01*
X10286191Y10065430D01*
X10285955Y10065616D01*
X10285752Y10065802D01*
X10285565Y10065988D01*
X10285430Y10066157D01*
X10285345Y10066293D01*
X10285277Y10066378D01*
X10285261Y10066411D01*
X10285109Y10066699D01*
X10285007Y10066970D01*
X10284923Y10067223D01*
X10284872Y10067477D01*
X10284838Y10067680D01*
X10284821Y10067832D01*
Y10067933D01*
Y10067950D01*
Y10067968D01*
X10284838Y10068204D01*
X10284855Y10068407D01*
X10284906Y10068593D01*
X10284956Y10068762D01*
X10285007Y10068881D01*
X10285042Y10068983D01*
X10285074Y10069050D01*
X10285092Y10069067D01*
X10285193Y10069236D01*
X10285311Y10069388D01*
X10285430Y10069524D01*
X10285548Y10069625D01*
X10285649Y10069710D01*
X10285735Y10069777D01*
X10285785Y10069811D01*
X10285802Y10069828D01*
X10285920Y10069896D01*
X10286056Y10069947D01*
X10286310Y10070048D01*
X10286428Y10070082D01*
X10286530Y10070116D01*
X10286597Y10070132D01*
X10286614D01*
X10286377Y10070268D01*
X10286174Y10070421D01*
X10286005Y10070573D01*
X10285870Y10070691D01*
X10285768Y10070809D01*
X10285701Y10070894D01*
X10285649Y10070961D01*
X10285634Y10070978D01*
X10285515Y10071165D01*
X10285430Y10071351D01*
X10285380Y10071537D01*
X10285328Y10071706D01*
X10285311Y10071841D01*
X10285294Y10071960D01*
Y10072028D01*
Y10072061D01*
X10285311Y10072247D01*
X10285328Y10072433D01*
X10285413Y10072772D01*
X10285548Y10073059D01*
X10285701Y10073296D01*
X10285853Y10073499D01*
X10285972Y10073651D01*
X10286073Y10073736D01*
X10286090Y10073770D01*
X10286107D01*
X10286276Y10073888D01*
X10286445Y10073990D01*
X10286868Y10074159D01*
X10287291Y10074277D01*
X10287731Y10074362D01*
X10287933Y10074396D01*
X10288120Y10074413D01*
X10288289Y10074429D01*
X10288441D01*
X10288577Y10074446D01*
X10288745D01*
X10289304Y10074413D01*
D02*
G37*
G36*
X10255995Y10074429D02*
X10256401Y10074396D01*
X10256757Y10074345D01*
X10257045Y10074277D01*
X10257281Y10074210D01*
X10257450Y10074159D01*
X10257551Y10074125D01*
X10257568Y10074108D01*
X10257585D01*
X10257856Y10073973D01*
X10258076Y10073821D01*
X10258279Y10073668D01*
X10258431Y10073516D01*
X10258567Y10073381D01*
X10258668Y10073279D01*
X10258719Y10073212D01*
X10258735Y10073177D01*
X10258871Y10072924D01*
X10258989Y10072653D01*
X10259075Y10072383D01*
X10259159Y10072112D01*
X10259210Y10071858D01*
X10259243Y10071672D01*
X10259260Y10071588D01*
X10259277Y10071537D01*
Y10071503D01*
Y10071486D01*
X10256689Y10071283D01*
X10256638Y10071554D01*
X10256587Y10071774D01*
X10256520Y10071960D01*
X10256453Y10072112D01*
X10256384Y10072230D01*
X10256334Y10072315D01*
X10256300Y10072349D01*
X10256283Y10072366D01*
X10256147Y10072467D01*
X10256012Y10072552D01*
X10255876Y10072603D01*
X10255758Y10072653D01*
X10255640Y10072670D01*
X10255555Y10072687D01*
X10255471D01*
X10255302Y10072670D01*
X10255150Y10072636D01*
X10255015Y10072585D01*
X10254896Y10072535D01*
X10254795Y10072484D01*
X10254727Y10072433D01*
X10254692Y10072399D01*
X10254677Y10072383D01*
X10254574Y10072264D01*
X10254490Y10072146D01*
X10254440Y10072028D01*
X10254388Y10071909D01*
X10254371Y10071807D01*
X10254354Y10071723D01*
Y10071672D01*
Y10071655D01*
X10254371Y10071503D01*
X10254406Y10071368D01*
X10254456Y10071215D01*
X10254507Y10071097D01*
X10254574Y10070978D01*
X10254625Y10070894D01*
X10254659Y10070843D01*
X10254677Y10070826D01*
X10254744Y10070742D01*
X10254828Y10070640D01*
X10255032Y10070437D01*
X10255284Y10070234D01*
X10255521Y10070014D01*
X10255758Y10069828D01*
X10255945Y10069676D01*
X10256029Y10069625D01*
X10256080Y10069575D01*
X10256115Y10069557D01*
X10256130Y10069540D01*
X10256469Y10069287D01*
X10256774Y10069050D01*
X10257062Y10068813D01*
X10257314Y10068593D01*
X10257551Y10068373D01*
X10257755Y10068187D01*
X10257941Y10068001D01*
X10258093Y10067832D01*
X10258229Y10067680D01*
X10258364Y10067545D01*
X10258448Y10067426D01*
X10258533Y10067341D01*
X10258601Y10067257D01*
X10258634Y10067206D01*
X10258651Y10067172D01*
X10258668Y10067155D01*
X10258888Y10066783D01*
X10259075Y10066394D01*
X10259210Y10066039D01*
X10259312Y10065718D01*
X10259396Y10065430D01*
X10259413Y10065311D01*
X10259430Y10065210D01*
X10259446Y10065142D01*
X10259463Y10065074D01*
Y10065041D01*
Y10065024D01*
X10251715D01*
Y10067122D01*
X10255758D01*
X10255505Y10067341D01*
X10255319Y10067527D01*
X10255251Y10067578D01*
X10255200Y10067629D01*
X10255166Y10067646D01*
X10255150Y10067663D01*
X10255032Y10067764D01*
X10254879Y10067883D01*
X10254692Y10068001D01*
X10254524Y10068120D01*
X10254354Y10068238D01*
X10254219Y10068340D01*
X10254135Y10068407D01*
X10254100Y10068424D01*
X10253864Y10068593D01*
X10253644Y10068762D01*
X10253441Y10068932D01*
X10253254Y10069084D01*
X10253103Y10069236D01*
X10252950Y10069371D01*
X10252697Y10069625D01*
X10252511Y10069828D01*
X10252393Y10069980D01*
X10252307Y10070082D01*
X10252291Y10070116D01*
X10252122Y10070403D01*
X10252003Y10070691D01*
X10251902Y10070978D01*
X10251851Y10071215D01*
X10251818Y10071436D01*
X10251783Y10071605D01*
Y10071655D01*
Y10071706D01*
Y10071723D01*
Y10071740D01*
X10251801Y10072028D01*
X10251851Y10072298D01*
X10251919Y10072552D01*
X10252003Y10072755D01*
X10252087Y10072941D01*
X10252156Y10073059D01*
X10252206Y10073144D01*
X10252223Y10073177D01*
X10252393Y10073398D01*
X10252595Y10073600D01*
X10252798Y10073753D01*
X10252985Y10073888D01*
X10253153Y10073990D01*
X10253306Y10074074D01*
X10253390Y10074108D01*
X10253407Y10074125D01*
X10253424D01*
X10253728Y10074227D01*
X10254067Y10074311D01*
X10254423Y10074362D01*
X10254761Y10074413D01*
X10255065Y10074429D01*
X10255200D01*
X10255319Y10074446D01*
X10255538D01*
X10255995Y10074429D01*
D02*
G37*
G36*
X10144517Y10085875D02*
X10144770Y10085841D01*
X10145007Y10085807D01*
X10145210Y10085757D01*
X10145362Y10085689D01*
X10145480Y10085655D01*
X10145548Y10085621D01*
X10145582Y10085604D01*
X10145785Y10085486D01*
X10145971Y10085334D01*
X10146157Y10085182D01*
X10146326Y10085012D01*
X10146462Y10084877D01*
X10146563Y10084758D01*
X10146648Y10084674D01*
X10146664Y10084641D01*
Y10085740D01*
X10149050D01*
Y10079024D01*
X10146479D01*
Y10082238D01*
X10146462Y10082559D01*
X10146428Y10082830D01*
X10146394Y10083050D01*
X10146326Y10083236D01*
X10146276Y10083354D01*
X10146242Y10083456D01*
X10146208Y10083507D01*
X10146191Y10083524D01*
X10146073Y10083642D01*
X10145955Y10083727D01*
X10145819Y10083795D01*
X10145701Y10083828D01*
X10145599Y10083862D01*
X10145515Y10083879D01*
X10145430D01*
X10145278Y10083862D01*
X10145142Y10083845D01*
X10145041Y10083795D01*
X10144940Y10083744D01*
X10144872Y10083693D01*
X10144821Y10083659D01*
X10144787Y10083625D01*
X10144770Y10083608D01*
X10144686Y10083490D01*
X10144635Y10083354D01*
X10144567Y10083067D01*
X10144550Y10082932D01*
X10144533Y10082813D01*
Y10082745D01*
Y10082712D01*
Y10079024D01*
X10141945D01*
Y10083287D01*
X10141979Y10083744D01*
X10142047Y10084150D01*
X10142131Y10084488D01*
X10142250Y10084758D01*
X10142368Y10084979D01*
X10142452Y10085131D01*
X10142520Y10085215D01*
X10142554Y10085249D01*
X10142808Y10085469D01*
X10143079Y10085621D01*
X10143349Y10085740D01*
X10143620Y10085807D01*
X10143857Y10085858D01*
X10144059Y10085875D01*
X10144127Y10085892D01*
X10144229D01*
X10144517Y10085875D01*
D02*
G37*
G36*
X10130780D02*
X10130949Y10085858D01*
X10131119Y10085807D01*
X10131254Y10085757D01*
X10131356Y10085706D01*
X10131440Y10085672D01*
X10131490Y10085638D01*
X10131508Y10085621D01*
X10131643Y10085503D01*
X10131761Y10085351D01*
X10131998Y10085029D01*
X10132083Y10084877D01*
X10132150Y10084758D01*
X10132201Y10084674D01*
X10132218Y10084641D01*
Y10085740D01*
X10134620D01*
Y10079024D01*
X10132032D01*
Y10081274D01*
Y10081561D01*
X10132015Y10081832D01*
X10131998Y10082069D01*
X10131964Y10082289D01*
X10131948Y10082492D01*
X10131913Y10082678D01*
X10131880Y10082830D01*
X10131829Y10082982D01*
X10131795Y10083101D01*
X10131761Y10083203D01*
X10131727Y10083287D01*
X10131711Y10083354D01*
X10131660Y10083439D01*
X10131643Y10083473D01*
X10131525Y10083608D01*
X10131389Y10083710D01*
X10131271Y10083795D01*
X10131135Y10083845D01*
X10131017Y10083879D01*
X10130933Y10083896D01*
X10130746D01*
X10130628Y10083862D01*
X10130391Y10083795D01*
X10130290Y10083760D01*
X10130205Y10083727D01*
X10130154Y10083710D01*
X10130137Y10083693D01*
X10129326Y10085536D01*
X10129579Y10085655D01*
X10129816Y10085740D01*
X10130019Y10085807D01*
X10130205Y10085841D01*
X10130357Y10085875D01*
X10130476Y10085892D01*
X10130577D01*
X10130780Y10085875D01*
D02*
G37*
G36*
X10215836Y10079024D02*
X10208494D01*
Y10081308D01*
X10212977D01*
Y10088294D01*
X10215836D01*
Y10079024D01*
D02*
G37*
G36*
X10207260D02*
X10204688D01*
Y10085740D01*
X10207260D01*
Y10079024D01*
D02*
G37*
G36*
X10099113Y10085875D02*
X10099282Y10085858D01*
X10099451Y10085807D01*
X10099586Y10085757D01*
X10099688Y10085706D01*
X10099772Y10085672D01*
X10099823Y10085638D01*
X10099840Y10085621D01*
X10099976Y10085503D01*
X10100094Y10085351D01*
X10100331Y10085029D01*
X10100415Y10084877D01*
X10100483Y10084758D01*
X10100533Y10084674D01*
X10100551Y10084641D01*
Y10085740D01*
X10102953D01*
Y10079024D01*
X10100364D01*
Y10081274D01*
Y10081561D01*
X10100348Y10081832D01*
X10100331Y10082069D01*
X10100297Y10082289D01*
X10100280Y10082492D01*
X10100246Y10082678D01*
X10100212Y10082830D01*
X10100162Y10082982D01*
X10100128Y10083101D01*
X10100094Y10083203D01*
X10100060Y10083287D01*
X10100043Y10083354D01*
X10099993Y10083439D01*
X10099976Y10083473D01*
X10099857Y10083608D01*
X10099722Y10083710D01*
X10099603Y10083795D01*
X10099468Y10083845D01*
X10099349Y10083879D01*
X10099265Y10083896D01*
X10099079D01*
X10098961Y10083862D01*
X10098724Y10083795D01*
X10098622Y10083760D01*
X10098538Y10083727D01*
X10098487Y10083710D01*
X10098470Y10083693D01*
X10097658Y10085536D01*
X10097912Y10085655D01*
X10098149Y10085740D01*
X10098351Y10085807D01*
X10098538Y10085841D01*
X10098690Y10085875D01*
X10098809Y10085892D01*
X10098910D01*
X10099113Y10085875D01*
D02*
G37*
G36*
X10297526D02*
X10297898Y10085858D01*
X10298202Y10085807D01*
X10298456Y10085773D01*
X10298676Y10085723D01*
X10298828Y10085672D01*
X10298912Y10085655D01*
X10298947Y10085638D01*
X10299183Y10085536D01*
X10299403Y10085435D01*
X10299572Y10085317D01*
X10299724Y10085198D01*
X10299860Y10085097D01*
X10299944Y10085012D01*
X10299995Y10084944D01*
X10300012Y10084928D01*
X10300131Y10084742D01*
X10300232Y10084556D01*
X10300299Y10084352D01*
X10300333Y10084183D01*
X10300367Y10084014D01*
X10300385Y10083896D01*
Y10083811D01*
Y10083777D01*
X10300367Y10083558D01*
X10300333Y10083354D01*
X10300266Y10083185D01*
X10300198Y10083016D01*
X10300148Y10082898D01*
X10300079Y10082796D01*
X10300045Y10082729D01*
X10300029Y10082712D01*
X10299894Y10082543D01*
X10299741Y10082407D01*
X10299606Y10082289D01*
X10299470Y10082205D01*
X10299352Y10082120D01*
X10299250Y10082069D01*
X10299183Y10082052D01*
X10299166Y10082035D01*
X10299065Y10082001D01*
X10298929Y10081951D01*
X10298658Y10081883D01*
X10298337Y10081815D01*
X10298032Y10081747D01*
X10297745Y10081680D01*
X10297610Y10081663D01*
X10297509Y10081629D01*
X10297423Y10081612D01*
X10297339D01*
X10297306Y10081595D01*
X10297289D01*
X10296984Y10081545D01*
X10296730Y10081494D01*
X10296544Y10081443D01*
X10296409Y10081409D01*
X10296307Y10081375D01*
X10296239Y10081342D01*
X10296206Y10081324D01*
X10296189D01*
X10296088Y10081257D01*
X10296019Y10081190D01*
X10295969Y10081122D01*
X10295935Y10081054D01*
X10295901Y10080953D01*
Y10080919D01*
Y10080901D01*
X10295918Y10080817D01*
X10295935Y10080732D01*
X10296019Y10080597D01*
X10296105Y10080530D01*
X10296121Y10080496D01*
X10296138D01*
X10296256Y10080428D01*
X10296375Y10080377D01*
X10296628Y10080309D01*
X10296747Y10080293D01*
X10296848Y10080276D01*
X10296934D01*
X10297102Y10080293D01*
X10297255Y10080309D01*
X10297390Y10080344D01*
X10297491Y10080377D01*
X10297576Y10080411D01*
X10297644Y10080428D01*
X10297677Y10080462D01*
X10297694D01*
X10297795Y10080546D01*
X10297881Y10080648D01*
X10297999Y10080885D01*
X10298049Y10080986D01*
X10298083Y10081054D01*
X10298118Y10081122D01*
Y10081138D01*
X10300671Y10080901D01*
X10300570Y10080563D01*
X10300417Y10080259D01*
X10300266Y10079988D01*
X10300096Y10079785D01*
X10299927Y10079616D01*
X10299792Y10079498D01*
X10299707Y10079413D01*
X10299674Y10079396D01*
X10299521Y10079312D01*
X10299335Y10079227D01*
X10298929Y10079092D01*
X10298506Y10079007D01*
X10298066Y10078939D01*
X10297864Y10078923D01*
X10297677Y10078906D01*
X10297509Y10078889D01*
X10297356D01*
X10297220Y10078871D01*
X10297052D01*
X10296594Y10078889D01*
X10296189Y10078923D01*
X10295834Y10078973D01*
X10295546Y10079041D01*
X10295309Y10079092D01*
X10295140Y10079142D01*
X10295039Y10079176D01*
X10295005Y10079193D01*
X10294734Y10079329D01*
X10294514Y10079464D01*
X10294312Y10079616D01*
X10294159Y10079752D01*
X10294041Y10079870D01*
X10293956Y10079971D01*
X10293905Y10080039D01*
X10293888Y10080056D01*
X10293770Y10080259D01*
X10293685Y10080462D01*
X10293617Y10080665D01*
X10293584Y10080834D01*
X10293550Y10080986D01*
X10293533Y10081088D01*
Y10081172D01*
Y10081190D01*
X10293550Y10081392D01*
X10293584Y10081595D01*
X10293634Y10081782D01*
X10293702Y10081934D01*
X10293770Y10082052D01*
X10293821Y10082153D01*
X10293854Y10082221D01*
X10293871Y10082238D01*
X10294006Y10082407D01*
X10294159Y10082559D01*
X10294327Y10082695D01*
X10294480Y10082796D01*
X10294615Y10082881D01*
X10294734Y10082932D01*
X10294802Y10082966D01*
X10294835Y10082982D01*
X10295089Y10083084D01*
X10295394Y10083168D01*
X10295715Y10083236D01*
X10296019Y10083287D01*
X10296307Y10083337D01*
X10296426Y10083354D01*
X10296544Y10083372D01*
X10296628D01*
X10296697Y10083389D01*
X10296747D01*
X10297035Y10083422D01*
X10297272Y10083473D01*
X10297474Y10083507D01*
X10297610Y10083541D01*
X10297728Y10083574D01*
X10297795Y10083608D01*
X10297830Y10083625D01*
X10297847D01*
X10297931Y10083676D01*
X10297982Y10083727D01*
X10298049Y10083862D01*
X10298083Y10083964D01*
Y10083981D01*
Y10083997D01*
X10298066Y10084082D01*
X10298049Y10084150D01*
X10297982Y10084268D01*
X10297931Y10084336D01*
X10297898Y10084370D01*
X10297812Y10084420D01*
X10297711Y10084471D01*
X10297491Y10084522D01*
X10297407Y10084539D01*
X10297102D01*
X10296949Y10084505D01*
X10296831Y10084471D01*
X10296713Y10084437D01*
X10296628Y10084404D01*
X10296561Y10084370D01*
X10296527Y10084352D01*
X10296510Y10084336D01*
X10296375Y10084200D01*
X10296273Y10084048D01*
X10296239Y10083981D01*
X10296206Y10083913D01*
X10296189Y10083879D01*
Y10083862D01*
X10293752Y10084099D01*
X10293854Y10084336D01*
X10293956Y10084539D01*
X10294075Y10084708D01*
X10294176Y10084860D01*
X10294260Y10084979D01*
X10294327Y10085063D01*
X10294379Y10085114D01*
X10294396Y10085131D01*
X10294548Y10085266D01*
X10294717Y10085385D01*
X10294869Y10085486D01*
X10295022Y10085571D01*
X10295157Y10085621D01*
X10295259Y10085672D01*
X10295326Y10085706D01*
X10295360D01*
X10295597Y10085773D01*
X10295868Y10085807D01*
X10296155Y10085841D01*
X10296443Y10085875D01*
X10296713D01*
X10296815Y10085892D01*
X10297119D01*
X10297526Y10085875D01*
D02*
G37*
G36*
X10120174Y10079024D02*
X10117585D01*
Y10088294D01*
X10120174D01*
Y10079024D01*
D02*
G37*
G36*
X10115860D02*
X10113272D01*
Y10088294D01*
X10115860D01*
Y10079024D01*
D02*
G37*
G36*
X10276667Y10074429D02*
X10277006Y10074396D01*
X10277310Y10074345D01*
X10277598Y10074277D01*
X10277852Y10074193D01*
X10278088Y10074108D01*
X10278308Y10074006D01*
X10278495Y10073922D01*
X10278663Y10073821D01*
X10278816Y10073719D01*
X10278934Y10073635D01*
X10279036Y10073550D01*
X10279120Y10073482D01*
X10279171Y10073431D01*
X10279204Y10073398D01*
X10279221Y10073381D01*
X10279391Y10073161D01*
X10279526Y10072924D01*
X10279662Y10072653D01*
X10279763Y10072366D01*
X10279932Y10071757D01*
X10280050Y10071147D01*
X10280084Y10070860D01*
X10280118Y10070590D01*
X10280135Y10070336D01*
X10280153Y10070116D01*
X10280168Y10069947D01*
Y10069811D01*
Y10069727D01*
Y10069693D01*
X10280153Y10069304D01*
X10280135Y10068932D01*
X10280101Y10068593D01*
X10280067Y10068306D01*
X10280034Y10068052D01*
X10280017Y10067866D01*
X10280000Y10067798D01*
X10279983Y10067748D01*
Y10067731D01*
Y10067714D01*
X10279916Y10067409D01*
X10279830Y10067122D01*
X10279746Y10066885D01*
X10279662Y10066699D01*
X10279594Y10066530D01*
X10279526Y10066428D01*
X10279492Y10066343D01*
X10279475Y10066326D01*
X10279290Y10066073D01*
X10279086Y10065853D01*
X10278900Y10065667D01*
X10278698Y10065515D01*
X10278545Y10065396D01*
X10278409Y10065311D01*
X10278325Y10065261D01*
X10278291Y10065244D01*
X10278004Y10065126D01*
X10277682Y10065024D01*
X10277361Y10064956D01*
X10277057Y10064922D01*
X10276786Y10064888D01*
X10276685D01*
X10276583Y10064872D01*
X10276379D01*
X10276007Y10064888D01*
X10275652Y10064922D01*
X10275331Y10064973D01*
X10275043Y10065058D01*
X10274773Y10065142D01*
X10274536Y10065244D01*
X10274316Y10065345D01*
X10274130Y10065464D01*
X10273961Y10065565D01*
X10273826Y10065667D01*
X10273707Y10065768D01*
X10273606Y10065853D01*
X10273521Y10065938D01*
X10273470Y10065988D01*
X10273453Y10066022D01*
X10273436Y10066039D01*
X10273284Y10066276D01*
X10273148Y10066530D01*
X10273030Y10066817D01*
X10272928Y10067104D01*
X10272777Y10067714D01*
X10272675Y10068323D01*
X10272642Y10068610D01*
X10272625Y10068864D01*
X10272607Y10069101D01*
X10272590Y10069321D01*
X10272573Y10069490D01*
Y10069608D01*
Y10069693D01*
Y10069727D01*
X10272590Y10070132D01*
X10272607Y10070539D01*
X10272659Y10070894D01*
X10272709Y10071215D01*
X10272760Y10071486D01*
X10272777Y10071605D01*
X10272793Y10071689D01*
X10272810Y10071774D01*
X10272827Y10071824D01*
X10272844Y10071858D01*
Y10071875D01*
X10272896Y10072078D01*
X10272963Y10072247D01*
X10273013Y10072416D01*
X10273064Y10072552D01*
X10273115Y10072670D01*
X10273165Y10072755D01*
X10273182Y10072806D01*
X10273199Y10072822D01*
X10273385Y10073127D01*
X10273488Y10073262D01*
X10273589Y10073364D01*
X10273673Y10073465D01*
X10273740Y10073533D01*
X10273792Y10073584D01*
X10273809Y10073600D01*
X10273961Y10073736D01*
X10274113Y10073854D01*
X10274282Y10073956D01*
X10274435Y10074041D01*
X10274569Y10074108D01*
X10274688Y10074175D01*
X10274756Y10074193D01*
X10274790Y10074210D01*
X10275027Y10074294D01*
X10275280Y10074345D01*
X10275533Y10074396D01*
X10275770Y10074413D01*
X10275990Y10074429D01*
X10276160Y10074446D01*
X10276312D01*
X10276667Y10074429D01*
D02*
G37*
G36*
X10263405Y10064872D02*
X10262119D01*
X10259768Y10074446D01*
X10261071D01*
X10263405Y10064872D01*
D02*
G37*
G36*
X10297559Y10074429D02*
X10297898Y10074396D01*
X10298202Y10074345D01*
X10298490Y10074277D01*
X10298743Y10074193D01*
X10298979Y10074108D01*
X10299200Y10074006D01*
X10299386Y10073922D01*
X10299556Y10073821D01*
X10299707Y10073719D01*
X10299825Y10073635D01*
X10299927Y10073550D01*
X10300012Y10073482D01*
X10300062Y10073431D01*
X10300096Y10073398D01*
X10300114Y10073381D01*
X10300283Y10073161D01*
X10300417Y10072924D01*
X10300553Y10072653D01*
X10300654Y10072366D01*
X10300824Y10071757D01*
X10300942Y10071147D01*
X10300977Y10070860D01*
X10301010Y10070590D01*
X10301027Y10070336D01*
X10301044Y10070116D01*
X10301061Y10069947D01*
Y10069811D01*
Y10069727D01*
Y10069693D01*
X10301044Y10069304D01*
X10301027Y10068932D01*
X10300994Y10068593D01*
X10300959Y10068306D01*
X10300925Y10068052D01*
X10300908Y10067866D01*
X10300891Y10067798D01*
X10300874Y10067748D01*
Y10067731D01*
Y10067714D01*
X10300807Y10067409D01*
X10300723Y10067122D01*
X10300637Y10066885D01*
X10300553Y10066699D01*
X10300486Y10066530D01*
X10300417Y10066428D01*
X10300385Y10066343D01*
X10300367Y10066326D01*
X10300181Y10066073D01*
X10299978Y10065853D01*
X10299792Y10065667D01*
X10299589Y10065515D01*
X10299437Y10065396D01*
X10299302Y10065311D01*
X10299216Y10065261D01*
X10299183Y10065244D01*
X10298895Y10065126D01*
X10298574Y10065024D01*
X10298253Y10064956D01*
X10297948Y10064922D01*
X10297677Y10064888D01*
X10297576D01*
X10297474Y10064872D01*
X10297272D01*
X10296899Y10064888D01*
X10296544Y10064922D01*
X10296223Y10064973D01*
X10295935Y10065058D01*
X10295664Y10065142D01*
X10295427Y10065244D01*
X10295208Y10065345D01*
X10295022Y10065464D01*
X10294852Y10065565D01*
X10294717Y10065667D01*
X10294598Y10065768D01*
X10294497Y10065853D01*
X10294413Y10065938D01*
X10294362Y10065988D01*
X10294344Y10066022D01*
X10294327Y10066039D01*
X10294176Y10066276D01*
X10294041Y10066530D01*
X10293922Y10066817D01*
X10293821Y10067104D01*
X10293668Y10067714D01*
X10293567Y10068323D01*
X10293533Y10068610D01*
X10293516Y10068864D01*
X10293499Y10069101D01*
X10293483Y10069321D01*
X10293466Y10069490D01*
Y10069608D01*
Y10069693D01*
Y10069727D01*
X10293483Y10070132D01*
X10293499Y10070539D01*
X10293550Y10070894D01*
X10293601Y10071215D01*
X10293651Y10071486D01*
X10293668Y10071605D01*
X10293685Y10071689D01*
X10293702Y10071774D01*
X10293719Y10071824D01*
X10293735Y10071858D01*
Y10071875D01*
X10293787Y10072078D01*
X10293854Y10072247D01*
X10293905Y10072416D01*
X10293956Y10072552D01*
X10294006Y10072670D01*
X10294058Y10072755D01*
X10294075Y10072806D01*
X10294092Y10072822D01*
X10294277Y10073127D01*
X10294379Y10073262D01*
X10294480Y10073364D01*
X10294564Y10073465D01*
X10294633Y10073533D01*
X10294683Y10073584D01*
X10294700Y10073600D01*
X10294852Y10073736D01*
X10295005Y10073854D01*
X10295173Y10073956D01*
X10295326Y10074041D01*
X10295461Y10074108D01*
X10295580Y10074175D01*
X10295647Y10074193D01*
X10295681Y10074210D01*
X10295918Y10074294D01*
X10296172Y10074345D01*
X10296426Y10074396D01*
X10296663Y10074413D01*
X10296882Y10074429D01*
X10297052Y10074446D01*
X10297203D01*
X10297559Y10074429D01*
D02*
G37*
G36*
X10284297Y10064872D02*
X10283011D01*
X10280659Y10074446D01*
X10281962D01*
X10284297Y10064872D01*
D02*
G37*
G36*
X10195283Y10074429D02*
X10195621Y10074396D01*
X10195925Y10074345D01*
X10196213Y10074277D01*
X10196467Y10074193D01*
X10196703Y10074108D01*
X10196923Y10074006D01*
X10197109Y10073922D01*
X10197278Y10073821D01*
X10197431Y10073719D01*
X10197549Y10073635D01*
X10197651Y10073550D01*
X10197736Y10073482D01*
X10197786Y10073431D01*
X10197820Y10073398D01*
X10197837Y10073381D01*
X10198006Y10073161D01*
X10198141Y10072924D01*
X10198277Y10072653D01*
X10198378Y10072366D01*
X10198547Y10071757D01*
X10198666Y10071147D01*
X10198699Y10070860D01*
X10198734Y10070590D01*
X10198750Y10070336D01*
X10198767Y10070116D01*
X10198784Y10069947D01*
Y10069811D01*
Y10069727D01*
Y10069693D01*
X10198767Y10069304D01*
X10198750Y10068932D01*
X10198716Y10068593D01*
X10198683Y10068306D01*
X10198649Y10068052D01*
X10198632Y10067866D01*
X10198615Y10067798D01*
X10198598Y10067748D01*
Y10067731D01*
Y10067714D01*
X10198530Y10067409D01*
X10198446Y10067122D01*
X10198361Y10066885D01*
X10198277Y10066699D01*
X10198209Y10066530D01*
X10198141Y10066428D01*
X10198107Y10066343D01*
X10198091Y10066326D01*
X10197905Y10066073D01*
X10197701Y10065853D01*
X10197515Y10065667D01*
X10197313Y10065515D01*
X10197160Y10065396D01*
X10197025Y10065311D01*
X10196940Y10065261D01*
X10196907Y10065244D01*
X10196619Y10065126D01*
X10196298Y10065024D01*
X10195976Y10064956D01*
X10195671Y10064922D01*
X10195401Y10064888D01*
X10195300D01*
X10195198Y10064872D01*
X10194995D01*
X10194623Y10064888D01*
X10194268Y10064922D01*
X10193946Y10064973D01*
X10193658Y10065058D01*
X10193388Y10065142D01*
X10193151Y10065244D01*
X10192931Y10065345D01*
X10192745Y10065464D01*
X10192576Y10065565D01*
X10192441Y10065667D01*
X10192322Y10065768D01*
X10192220Y10065853D01*
X10192136Y10065938D01*
X10192086Y10065988D01*
X10192068Y10066022D01*
X10192051Y10066039D01*
X10191899Y10066276D01*
X10191764Y10066530D01*
X10191646Y10066817D01*
X10191544Y10067104D01*
X10191392Y10067714D01*
X10191290Y10068323D01*
X10191256Y10068610D01*
X10191240Y10068864D01*
X10191223Y10069101D01*
X10191205Y10069321D01*
X10191189Y10069490D01*
Y10069608D01*
Y10069693D01*
Y10069727D01*
X10191205Y10070132D01*
X10191223Y10070539D01*
X10191273Y10070894D01*
X10191324Y10071215D01*
X10191375Y10071486D01*
X10191392Y10071605D01*
X10191409Y10071689D01*
X10191426Y10071774D01*
X10191442Y10071824D01*
X10191459Y10071858D01*
Y10071875D01*
X10191510Y10072078D01*
X10191578Y10072247D01*
X10191628Y10072416D01*
X10191679Y10072552D01*
X10191730Y10072670D01*
X10191781Y10072755D01*
X10191797Y10072806D01*
X10191815Y10072822D01*
X10192001Y10073127D01*
X10192102Y10073262D01*
X10192204Y10073364D01*
X10192288Y10073465D01*
X10192356Y10073533D01*
X10192407Y10073584D01*
X10192424Y10073600D01*
X10192576Y10073736D01*
X10192728Y10073854D01*
X10192897Y10073956D01*
X10193049Y10074041D01*
X10193185Y10074108D01*
X10193303Y10074175D01*
X10193371Y10074193D01*
X10193405Y10074210D01*
X10193641Y10074294D01*
X10193895Y10074345D01*
X10194149Y10074396D01*
X10194386Y10074413D01*
X10194606Y10074429D01*
X10194775Y10074446D01*
X10194927D01*
X10195283Y10074429D01*
D02*
G37*
G36*
X10187010D02*
X10187450Y10074362D01*
X10187839Y10074260D01*
X10188160Y10074159D01*
X10188296Y10074108D01*
X10188414Y10074057D01*
X10188533Y10074006D01*
X10188618Y10073956D01*
X10188685Y10073922D01*
X10188736Y10073888D01*
X10188752Y10073871D01*
X10188770D01*
X10188956Y10073736D01*
X10189125Y10073584D01*
X10189277Y10073414D01*
X10189396Y10073262D01*
X10189497Y10073110D01*
X10189582Y10072941D01*
X10189717Y10072653D01*
X10189802Y10072383D01*
X10189819Y10072264D01*
X10189835Y10072162D01*
X10189852Y10072095D01*
Y10072028D01*
Y10071993D01*
Y10071976D01*
X10189835Y10071723D01*
X10189802Y10071486D01*
X10189734Y10071266D01*
X10189666Y10071080D01*
X10189598Y10070928D01*
X10189531Y10070826D01*
X10189497Y10070742D01*
X10189480Y10070725D01*
X10189362Y10070590D01*
X10189227Y10070454D01*
X10189074Y10070336D01*
X10188939Y10070217D01*
X10188804Y10070132D01*
X10188702Y10070065D01*
X10188634Y10070031D01*
X10188600Y10070014D01*
X10188871Y10069896D01*
X10189125Y10069744D01*
X10189311Y10069608D01*
X10189480Y10069456D01*
X10189615Y10069338D01*
X10189700Y10069236D01*
X10189751Y10069169D01*
X10189767Y10069135D01*
X10189886Y10068915D01*
X10189988Y10068678D01*
X10190056Y10068458D01*
X10190089Y10068238D01*
X10190123Y10068035D01*
X10190140Y10067883D01*
Y10067781D01*
Y10067764D01*
Y10067748D01*
X10190123Y10067443D01*
X10190072Y10067155D01*
X10190021Y10066902D01*
X10189937Y10066682D01*
X10189869Y10066496D01*
X10189819Y10066360D01*
X10189767Y10066276D01*
X10189751Y10066242D01*
X10189582Y10066005D01*
X10189396Y10065802D01*
X10189193Y10065616D01*
X10189006Y10065481D01*
X10188837Y10065363D01*
X10188702Y10065278D01*
X10188600Y10065227D01*
X10188567Y10065210D01*
X10188245Y10065092D01*
X10187873Y10065007D01*
X10187501Y10064956D01*
X10187129Y10064922D01*
X10186807Y10064888D01*
X10186672D01*
X10186537Y10064872D01*
X10186013D01*
X10185742Y10064888D01*
X10185488Y10064922D01*
X10185268Y10064956D01*
X10185082Y10064973D01*
X10184947Y10065007D01*
X10184862Y10065024D01*
X10184828D01*
X10184575Y10065092D01*
X10184338Y10065159D01*
X10184152Y10065244D01*
X10183983Y10065311D01*
X10183847Y10065396D01*
X10183746Y10065447D01*
X10183678Y10065481D01*
X10183661Y10065497D01*
X10183492Y10065633D01*
X10183339Y10065785D01*
X10183204Y10065938D01*
X10183086Y10066089D01*
X10182984Y10066225D01*
X10182917Y10066326D01*
X10182883Y10066394D01*
X10182866Y10066428D01*
X10182764Y10066665D01*
X10182680Y10066885D01*
X10182629Y10067104D01*
X10182578Y10067308D01*
X10182561Y10067477D01*
X10182545Y10067612D01*
Y10067697D01*
Y10067731D01*
X10182561Y10068001D01*
X10182595Y10068238D01*
X10182663Y10068475D01*
X10182731Y10068661D01*
X10182798Y10068830D01*
X10182866Y10068948D01*
X10182900Y10069016D01*
X10182917Y10069050D01*
X10183069Y10069270D01*
X10183255Y10069456D01*
X10183441Y10069625D01*
X10183627Y10069761D01*
X10183796Y10069862D01*
X10183932Y10069947D01*
X10184016Y10069998D01*
X10184033Y10070014D01*
X10184050D01*
X10183847Y10070150D01*
X10183678Y10070302D01*
X10183525Y10070421D01*
X10183407Y10070539D01*
X10183323Y10070640D01*
X10183255Y10070725D01*
X10183221Y10070776D01*
X10183204Y10070792D01*
X10183086Y10070995D01*
X10183001Y10071199D01*
X10182933Y10071401D01*
X10182900Y10071588D01*
X10182866Y10071740D01*
X10182849Y10071858D01*
Y10071926D01*
Y10071960D01*
X10182866Y10072162D01*
X10182883Y10072349D01*
X10182984Y10072687D01*
X10183137Y10072991D01*
X10183289Y10073245D01*
X10183458Y10073448D01*
X10183610Y10073600D01*
X10183712Y10073702D01*
X10183729Y10073736D01*
X10183746D01*
X10183932Y10073854D01*
X10184117Y10073973D01*
X10184557Y10074142D01*
X10185014Y10074277D01*
X10185454Y10074362D01*
X10185674Y10074396D01*
X10185860Y10074413D01*
X10186046Y10074429D01*
X10186198D01*
X10186317Y10074446D01*
X10186503D01*
X10187010Y10074429D01*
D02*
G37*
G36*
X10247131D02*
X10247469Y10074396D01*
X10247775Y10074345D01*
X10248062Y10074277D01*
X10248315Y10074193D01*
X10248552Y10074108D01*
X10248772Y10074006D01*
X10248959Y10073922D01*
X10249127Y10073821D01*
X10249280Y10073719D01*
X10249398Y10073635D01*
X10249500Y10073550D01*
X10249584Y10073482D01*
X10249635Y10073431D01*
X10249669Y10073398D01*
X10249685Y10073381D01*
X10249855Y10073161D01*
X10249990Y10072924D01*
X10250126Y10072653D01*
X10250227Y10072366D01*
X10250396Y10071757D01*
X10250514Y10071147D01*
X10250548Y10070860D01*
X10250582Y10070590D01*
X10250599Y10070336D01*
X10250616Y10070116D01*
X10250632Y10069947D01*
Y10069811D01*
Y10069727D01*
Y10069693D01*
X10250616Y10069304D01*
X10250599Y10068932D01*
X10250565Y10068593D01*
X10250531Y10068306D01*
X10250498Y10068052D01*
X10250481Y10067866D01*
X10250464Y10067798D01*
X10250447Y10067748D01*
Y10067731D01*
Y10067714D01*
X10250380Y10067409D01*
X10250294Y10067122D01*
X10250210Y10066885D01*
X10250126Y10066699D01*
X10250057Y10066530D01*
X10249990Y10066428D01*
X10249956Y10066343D01*
X10249939Y10066326D01*
X10249753Y10066073D01*
X10249551Y10065853D01*
X10249364Y10065667D01*
X10249161Y10065515D01*
X10249009Y10065396D01*
X10248873Y10065311D01*
X10248789Y10065261D01*
X10248755Y10065244D01*
X10248468Y10065126D01*
X10248146Y10065024D01*
X10247825Y10064956D01*
X10247521Y10064922D01*
X10247250Y10064888D01*
X10247148D01*
X10247047Y10064872D01*
X10246843D01*
X10246471Y10064888D01*
X10246116Y10064922D01*
X10245795Y10064973D01*
X10245508Y10065058D01*
X10245237Y10065142D01*
X10245000Y10065244D01*
X10244780Y10065345D01*
X10244594Y10065464D01*
X10244425Y10065565D01*
X10244290Y10065667D01*
X10244171Y10065768D01*
X10244070Y10065853D01*
X10243984Y10065938D01*
X10243934Y10065988D01*
X10243917Y10066022D01*
X10243900Y10066039D01*
X10243748Y10066276D01*
X10243612Y10066530D01*
X10243494Y10066817D01*
X10243392Y10067104D01*
X10243241Y10067714D01*
X10243138Y10068323D01*
X10243105Y10068610D01*
X10243088Y10068864D01*
X10243071Y10069101D01*
X10243054Y10069321D01*
X10243037Y10069490D01*
Y10069608D01*
Y10069693D01*
Y10069727D01*
X10243054Y10070132D01*
X10243071Y10070539D01*
X10243123Y10070894D01*
X10243173Y10071215D01*
X10243224Y10071486D01*
X10243241Y10071605D01*
X10243257Y10071689D01*
X10243274Y10071774D01*
X10243291Y10071824D01*
X10243308Y10071858D01*
Y10071875D01*
X10243359Y10072078D01*
X10243427Y10072247D01*
X10243478Y10072416D01*
X10243528Y10072552D01*
X10243579Y10072670D01*
X10243629Y10072755D01*
X10243646Y10072806D01*
X10243663Y10072822D01*
X10243850Y10073127D01*
X10243951Y10073262D01*
X10244053Y10073364D01*
X10244137Y10073465D01*
X10244204Y10073533D01*
X10244255Y10073584D01*
X10244272Y10073600D01*
X10244425Y10073736D01*
X10244576Y10073854D01*
X10244746Y10073956D01*
X10244899Y10074041D01*
X10245034Y10074108D01*
X10245153Y10074175D01*
X10245220Y10074193D01*
X10245254Y10074210D01*
X10245491Y10074294D01*
X10245745Y10074345D01*
X10245997Y10074396D01*
X10246234Y10074413D01*
X10246455Y10074429D01*
X10246624Y10074446D01*
X10246776D01*
X10247131Y10074429D01*
D02*
G37*
G36*
X10229843D02*
X10230181Y10074396D01*
X10230485Y10074345D01*
X10230773Y10074277D01*
X10231027Y10074193D01*
X10231263Y10074108D01*
X10231484Y10074006D01*
X10231670Y10073922D01*
X10231839Y10073821D01*
X10231991Y10073719D01*
X10232109Y10073635D01*
X10232211Y10073550D01*
X10232296Y10073482D01*
X10232346Y10073431D01*
X10232380Y10073398D01*
X10232397Y10073381D01*
X10232566Y10073161D01*
X10232701Y10072924D01*
X10232837Y10072653D01*
X10232938Y10072366D01*
X10233107Y10071757D01*
X10233226Y10071147D01*
X10233260Y10070860D01*
X10233293Y10070590D01*
X10233311Y10070336D01*
X10233328Y10070116D01*
X10233344Y10069947D01*
Y10069811D01*
Y10069727D01*
Y10069693D01*
X10233328Y10069304D01*
X10233311Y10068932D01*
X10233277Y10068593D01*
X10233243Y10068306D01*
X10233209Y10068052D01*
X10233192Y10067866D01*
X10233175Y10067798D01*
X10233159Y10067748D01*
Y10067731D01*
Y10067714D01*
X10233091Y10067409D01*
X10233006Y10067122D01*
X10232922Y10066885D01*
X10232837Y10066699D01*
X10232769Y10066530D01*
X10232701Y10066428D01*
X10232668Y10066343D01*
X10232651Y10066326D01*
X10232465Y10066073D01*
X10232262Y10065853D01*
X10232076Y10065667D01*
X10231873Y10065515D01*
X10231721Y10065396D01*
X10231585Y10065311D01*
X10231500Y10065261D01*
X10231467Y10065244D01*
X10231179Y10065126D01*
X10230858Y10065024D01*
X10230536Y10064956D01*
X10230232Y10064922D01*
X10229961Y10064888D01*
X10229860D01*
X10229758Y10064872D01*
X10229555D01*
X10229183Y10064888D01*
X10228828Y10064922D01*
X10228506Y10064973D01*
X10228219Y10065058D01*
X10227948Y10065142D01*
X10227711Y10065244D01*
X10227491Y10065345D01*
X10227305Y10065464D01*
X10227136Y10065565D01*
X10227001Y10065667D01*
X10226882Y10065768D01*
X10226781Y10065853D01*
X10226696Y10065938D01*
X10226646Y10065988D01*
X10226628Y10066022D01*
X10226612Y10066039D01*
X10226459Y10066276D01*
X10226324Y10066530D01*
X10226205Y10066817D01*
X10226104Y10067104D01*
X10225952Y10067714D01*
X10225850Y10068323D01*
X10225817Y10068610D01*
X10225800Y10068864D01*
X10225782Y10069101D01*
X10225766Y10069321D01*
X10225749Y10069490D01*
Y10069608D01*
Y10069693D01*
Y10069727D01*
X10225766Y10070132D01*
X10225782Y10070539D01*
X10225834Y10070894D01*
X10225884Y10071215D01*
X10225935Y10071486D01*
X10225952Y10071605D01*
X10225969Y10071689D01*
X10225986Y10071774D01*
X10226003Y10071824D01*
X10226020Y10071858D01*
Y10071875D01*
X10226071Y10072078D01*
X10226138Y10072247D01*
X10226189Y10072416D01*
X10226240Y10072552D01*
X10226290Y10072670D01*
X10226341Y10072755D01*
X10226358Y10072806D01*
X10226375Y10072822D01*
X10226561Y10073127D01*
X10226663Y10073262D01*
X10226764Y10073364D01*
X10226849Y10073465D01*
X10226916Y10073533D01*
X10226967Y10073584D01*
X10226984Y10073600D01*
X10227136Y10073736D01*
X10227288Y10073854D01*
X10227457Y10073956D01*
X10227610Y10074041D01*
X10227745Y10074108D01*
X10227864Y10074175D01*
X10227931Y10074193D01*
X10227965Y10074210D01*
X10228202Y10074294D01*
X10228455Y10074345D01*
X10228709Y10074396D01*
X10228946Y10074413D01*
X10229166Y10074429D01*
X10229335Y10074446D01*
X10229487D01*
X10229843Y10074429D01*
D02*
G37*
G36*
X10216834Y10074125D02*
X10217020Y10073837D01*
X10217206Y10073584D01*
X10217392Y10073381D01*
X10217562Y10073195D01*
X10217697Y10073059D01*
X10217781Y10072991D01*
X10217798Y10072958D01*
X10217815D01*
X10218102Y10072738D01*
X10218441Y10072552D01*
X10218779Y10072383D01*
X10219101Y10072230D01*
X10219388Y10072112D01*
X10219524Y10072061D01*
X10219625Y10072010D01*
X10219727Y10071993D01*
X10219794Y10071960D01*
X10219828Y10071943D01*
X10219845D01*
Y10069845D01*
X10219524Y10069947D01*
X10219236Y10070031D01*
X10218999Y10070132D01*
X10218779Y10070217D01*
X10218610Y10070285D01*
X10218475Y10070336D01*
X10218407Y10070369D01*
X10218373Y10070386D01*
X10218154Y10070505D01*
X10217933Y10070640D01*
X10217714Y10070776D01*
X10217527Y10070894D01*
X10217375Y10071013D01*
X10217240Y10071097D01*
X10217172Y10071165D01*
X10217139Y10071182D01*
Y10065024D01*
X10214533D01*
Y10074446D01*
X10216665D01*
X10216834Y10074125D01*
D02*
G37*
G36*
X10208190D02*
X10208376Y10073837D01*
X10208562Y10073584D01*
X10208748Y10073381D01*
X10208917Y10073195D01*
X10209052Y10073059D01*
X10209137Y10072991D01*
X10209154Y10072958D01*
X10209171D01*
X10209459Y10072738D01*
X10209797Y10072552D01*
X10210135Y10072383D01*
X10210457Y10072230D01*
X10210744Y10072112D01*
X10210880Y10072061D01*
X10210981Y10072010D01*
X10211082Y10071993D01*
X10211150Y10071960D01*
X10211184Y10071943D01*
X10211201D01*
Y10069845D01*
X10210880Y10069947D01*
X10210592Y10070031D01*
X10210355Y10070132D01*
X10210135Y10070217D01*
X10209966Y10070285D01*
X10209830Y10070336D01*
X10209763Y10070369D01*
X10209729Y10070386D01*
X10209509Y10070505D01*
X10209290Y10070640D01*
X10209069Y10070776D01*
X10208883Y10070894D01*
X10208731Y10071013D01*
X10208596Y10071097D01*
X10208528Y10071165D01*
X10208494Y10071182D01*
Y10065024D01*
X10205889D01*
Y10074446D01*
X10208021D01*
X10208190Y10074125D01*
D02*
G37*
G36*
X10176945Y10069304D02*
X10174763Y10068983D01*
X10174645Y10069101D01*
X10174543Y10069202D01*
X10174442Y10069287D01*
X10174357Y10069355D01*
X10174289Y10069406D01*
X10174238Y10069439D01*
X10174205Y10069473D01*
X10174188D01*
X10174052Y10069540D01*
X10173917Y10069575D01*
X10173697Y10069642D01*
X10173596D01*
X10173528Y10069659D01*
X10173460D01*
X10173257Y10069642D01*
X10173054Y10069592D01*
X10172902Y10069540D01*
X10172767Y10069473D01*
X10172648Y10069388D01*
X10172581Y10069338D01*
X10172530Y10069287D01*
X10172513Y10069270D01*
X10172394Y10069101D01*
X10172310Y10068915D01*
X10172242Y10068712D01*
X10172208Y10068509D01*
X10172175Y10068340D01*
X10172158Y10068187D01*
Y10068086D01*
Y10068069D01*
Y10068052D01*
X10172175Y10067764D01*
X10172208Y10067527D01*
X10172276Y10067325D01*
X10172327Y10067155D01*
X10172394Y10067020D01*
X10172462Y10066935D01*
X10172496Y10066868D01*
X10172513Y10066851D01*
X10172648Y10066716D01*
X10172801Y10066614D01*
X10172953Y10066547D01*
X10173088Y10066496D01*
X10173223Y10066462D01*
X10173325Y10066445D01*
X10173409D01*
X10173578Y10066462D01*
X10173748Y10066496D01*
X10173900Y10066547D01*
X10174019Y10066614D01*
X10174120Y10066665D01*
X10174188Y10066716D01*
X10174238Y10066749D01*
X10174255Y10066766D01*
X10174374Y10066902D01*
X10174459Y10067054D01*
X10174543Y10067206D01*
X10174594Y10067358D01*
X10174628Y10067494D01*
X10174661Y10067612D01*
X10174678Y10067680D01*
Y10067714D01*
X10177283Y10067426D01*
X10177216Y10067189D01*
X10177131Y10066970D01*
X10177064Y10066783D01*
X10176979Y10066631D01*
X10176928Y10066496D01*
X10176877Y10066411D01*
X10176844Y10066343D01*
X10176827Y10066326D01*
X10176590Y10066022D01*
X10176472Y10065887D01*
X10176353Y10065785D01*
X10176235Y10065684D01*
X10176150Y10065616D01*
X10176099Y10065565D01*
X10176082Y10065548D01*
X10175710Y10065328D01*
X10175524Y10065244D01*
X10175338Y10065176D01*
X10175186Y10065109D01*
X10175067Y10065074D01*
X10175000Y10065058D01*
X10174966Y10065041D01*
X10174712Y10064990D01*
X10174442Y10064940D01*
X10174171Y10064905D01*
X10173934Y10064888D01*
X10173714D01*
X10173545Y10064872D01*
X10173393D01*
X10172936Y10064888D01*
X10172530Y10064940D01*
X10172158Y10065007D01*
X10171853Y10065092D01*
X10171616Y10065159D01*
X10171515Y10065193D01*
X10171447Y10065227D01*
X10171379Y10065261D01*
X10171329Y10065278D01*
X10171312Y10065295D01*
X10171295D01*
X10171008Y10065481D01*
X10170754Y10065684D01*
X10170534Y10065887D01*
X10170348Y10066089D01*
X10170212Y10066276D01*
X10170111Y10066428D01*
X10170043Y10066530D01*
X10170026Y10066547D01*
Y10066563D01*
X10169874Y10066868D01*
X10169756Y10067189D01*
X10169688Y10067477D01*
X10169620Y10067731D01*
X10169587Y10067968D01*
X10169570Y10068137D01*
Y10068204D01*
Y10068255D01*
Y10068272D01*
Y10068289D01*
X10169587Y10068526D01*
X10169603Y10068746D01*
X10169705Y10069152D01*
X10169840Y10069524D01*
X10170009Y10069828D01*
X10170178Y10070065D01*
X10170246Y10070167D01*
X10170314Y10070251D01*
X10170364Y10070319D01*
X10170416Y10070369D01*
X10170432Y10070386D01*
X10170449Y10070403D01*
X10170618Y10070555D01*
X10170787Y10070691D01*
X10170974Y10070792D01*
X10171160Y10070894D01*
X10171532Y10071046D01*
X10171904Y10071147D01*
X10172208Y10071199D01*
X10172344Y10071232D01*
X10172462D01*
X10172564Y10071249D01*
X10172699D01*
X10173004Y10071232D01*
X10173139Y10071215D01*
X10173257Y10071199D01*
X10173376Y10071182D01*
X10173460Y10071165D01*
X10173511Y10071147D01*
X10173528D01*
X10173832Y10071063D01*
X10173985Y10071013D01*
X10174120Y10070961D01*
X10174222Y10070911D01*
X10174323Y10070877D01*
X10174374Y10070860D01*
X10174391Y10070843D01*
X10174171Y10072230D01*
X10170009D01*
Y10074294D01*
X10176133D01*
X10176945Y10069304D01*
D02*
G37*
G36*
X10168301D02*
X10166119Y10068983D01*
X10166000Y10069101D01*
X10165898Y10069202D01*
X10165797Y10069287D01*
X10165713Y10069355D01*
X10165645Y10069406D01*
X10165594Y10069439D01*
X10165560Y10069473D01*
X10165543D01*
X10165408Y10069540D01*
X10165273Y10069575D01*
X10165053Y10069642D01*
X10164951D01*
X10164883Y10069659D01*
X10164816D01*
X10164613Y10069642D01*
X10164410Y10069592D01*
X10164258Y10069540D01*
X10164122Y10069473D01*
X10164004Y10069388D01*
X10163936Y10069338D01*
X10163885Y10069287D01*
X10163868Y10069270D01*
X10163750Y10069101D01*
X10163666Y10068915D01*
X10163598Y10068712D01*
X10163564Y10068509D01*
X10163530Y10068340D01*
X10163514Y10068187D01*
Y10068086D01*
Y10068069D01*
Y10068052D01*
X10163530Y10067764D01*
X10163564Y10067527D01*
X10163632Y10067325D01*
X10163683Y10067155D01*
X10163750Y10067020D01*
X10163818Y10066935D01*
X10163852Y10066868D01*
X10163868Y10066851D01*
X10164004Y10066716D01*
X10164156Y10066614D01*
X10164308Y10066547D01*
X10164444Y10066496D01*
X10164579Y10066462D01*
X10164681Y10066445D01*
X10164765D01*
X10164935Y10066462D01*
X10165104Y10066496D01*
X10165256Y10066547D01*
X10165374Y10066614D01*
X10165476Y10066665D01*
X10165543Y10066716D01*
X10165594Y10066749D01*
X10165611Y10066766D01*
X10165729Y10066902D01*
X10165814Y10067054D01*
X10165898Y10067206D01*
X10165949Y10067358D01*
X10165983Y10067494D01*
X10166017Y10067612D01*
X10166034Y10067680D01*
Y10067714D01*
X10168639Y10067426D01*
X10168572Y10067189D01*
X10168487Y10066970D01*
X10168419Y10066783D01*
X10168335Y10066631D01*
X10168284Y10066496D01*
X10168233Y10066411D01*
X10168199Y10066343D01*
X10168182Y10066326D01*
X10167946Y10066022D01*
X10167827Y10065887D01*
X10167709Y10065785D01*
X10167590Y10065684D01*
X10167506Y10065616D01*
X10167455Y10065565D01*
X10167438Y10065548D01*
X10167066Y10065328D01*
X10166880Y10065244D01*
X10166694Y10065176D01*
X10166542Y10065109D01*
X10166423Y10065074D01*
X10166356Y10065058D01*
X10166321Y10065041D01*
X10166068Y10064990D01*
X10165797Y10064940D01*
X10165527Y10064905D01*
X10165290Y10064888D01*
X10165070D01*
X10164901Y10064872D01*
X10164749D01*
X10164291Y10064888D01*
X10163885Y10064940D01*
X10163514Y10065007D01*
X10163209Y10065092D01*
X10162972Y10065159D01*
X10162870Y10065193D01*
X10162803Y10065227D01*
X10162736Y10065261D01*
X10162684Y10065278D01*
X10162668Y10065295D01*
X10162651D01*
X10162363Y10065481D01*
X10162109Y10065684D01*
X10161890Y10065887D01*
X10161703Y10066089D01*
X10161568Y10066276D01*
X10161467Y10066428D01*
X10161399Y10066530D01*
X10161382Y10066547D01*
Y10066563D01*
X10161230Y10066868D01*
X10161111Y10067189D01*
X10161044Y10067477D01*
X10160976Y10067731D01*
X10160942Y10067968D01*
X10160925Y10068137D01*
Y10068204D01*
Y10068255D01*
Y10068272D01*
Y10068289D01*
X10160942Y10068526D01*
X10160959Y10068746D01*
X10161061Y10069152D01*
X10161196Y10069524D01*
X10161365Y10069828D01*
X10161534Y10070065D01*
X10161602Y10070167D01*
X10161669Y10070251D01*
X10161721Y10070319D01*
X10161771Y10070369D01*
X10161788Y10070386D01*
X10161805Y10070403D01*
X10161974Y10070555D01*
X10162144Y10070691D01*
X10162329Y10070792D01*
X10162515Y10070894D01*
X10162888Y10071046D01*
X10163260Y10071147D01*
X10163564Y10071199D01*
X10163699Y10071232D01*
X10163818D01*
X10163920Y10071249D01*
X10164055D01*
X10164359Y10071232D01*
X10164495Y10071215D01*
X10164613Y10071199D01*
X10164731Y10071182D01*
X10164816Y10071165D01*
X10164867Y10071147D01*
X10164883D01*
X10165188Y10071063D01*
X10165341Y10071013D01*
X10165476Y10070961D01*
X10165577Y10070911D01*
X10165679Y10070877D01*
X10165729Y10070860D01*
X10165746Y10070843D01*
X10165527Y10072230D01*
X10161365D01*
Y10074294D01*
X10167489D01*
X10168301Y10069304D01*
D02*
G37*
G36*
X10202844Y10065024D02*
X10200087D01*
Y10067612D01*
X10202844D01*
Y10065024D01*
D02*
G37*
G36*
X10181242D02*
X10178484D01*
Y10067612D01*
X10181242D01*
Y10065024D01*
D02*
G37*
G36*
X10202844Y10069152D02*
X10200087D01*
Y10071740D01*
X10202844D01*
Y10069152D01*
D02*
G37*
G36*
X10181242D02*
X10178484D01*
Y10071740D01*
X10181242D01*
Y10069152D01*
D02*
G37*
G36*
X10163666Y10088430D02*
X10164055Y10088396D01*
X10164410Y10088328D01*
X10164749Y10088260D01*
X10165053Y10088159D01*
X10165341Y10088057D01*
X10165611Y10087939D01*
X10165831Y10087838D01*
X10166051Y10087719D01*
X10166220Y10087601D01*
X10166373Y10087499D01*
X10166508Y10087397D01*
X10166592Y10087330D01*
X10166677Y10087263D01*
X10166711Y10087228D01*
X10166727Y10087211D01*
X10166948Y10086974D01*
X10167134Y10086704D01*
X10167286Y10086433D01*
X10167438Y10086146D01*
X10167557Y10085841D01*
X10167641Y10085554D01*
X10167726Y10085266D01*
X10167794Y10084979D01*
X10167844Y10084708D01*
X10167878Y10084471D01*
X10167912Y10084251D01*
X10167928Y10084048D01*
Y10083896D01*
X10167946Y10083777D01*
Y10083710D01*
Y10083676D01*
X10167912Y10083067D01*
X10167878Y10082780D01*
X10167844Y10082509D01*
X10167776Y10082255D01*
X10167726Y10082018D01*
X10167658Y10081798D01*
X10167590Y10081612D01*
X10167540Y10081426D01*
X10167472Y10081274D01*
X10167404Y10081138D01*
X10167354Y10081037D01*
X10167320Y10080953D01*
X10167286Y10080885D01*
X10167252Y10080851D01*
Y10080834D01*
X10166981Y10080445D01*
X10166711Y10080124D01*
X10166423Y10079870D01*
X10166169Y10079650D01*
X10165949Y10079498D01*
X10165764Y10079379D01*
X10165696Y10079346D01*
X10165645Y10079312D01*
X10165628Y10079294D01*
X10165611D01*
X10165222Y10079160D01*
X10164816Y10079058D01*
X10164393Y10078973D01*
X10164004Y10078923D01*
X10163818Y10078906D01*
X10163649Y10078889D01*
X10163514D01*
X10163378Y10078871D01*
X10163124D01*
X10162684Y10078889D01*
X10162278Y10078923D01*
X10161923Y10078990D01*
X10161636Y10079058D01*
X10161399Y10079109D01*
X10161213Y10079176D01*
X10161162Y10079193D01*
X10161111Y10079210D01*
X10161094Y10079227D01*
X10161077D01*
X10160790Y10079379D01*
X10160519Y10079548D01*
X10160300Y10079717D01*
X10160096Y10079886D01*
X10159944Y10080056D01*
X10159825Y10080175D01*
X10159741Y10080259D01*
X10159724Y10080293D01*
X10159521Y10080580D01*
X10159369Y10080868D01*
X10159217Y10081155D01*
X10159115Y10081443D01*
X10159014Y10081680D01*
X10158963Y10081883D01*
X10158946Y10081951D01*
X10158929Y10082001D01*
X10158912Y10082035D01*
Y10082052D01*
X10161416Y10082830D01*
X10161500Y10082509D01*
X10161602Y10082238D01*
X10161703Y10082001D01*
X10161805Y10081815D01*
X10161890Y10081663D01*
X10161974Y10081561D01*
X10162025Y10081494D01*
X10162042Y10081477D01*
X10162211Y10081324D01*
X10162414Y10081206D01*
X10162617Y10081138D01*
X10162820Y10081071D01*
X10163006Y10081037D01*
X10163158Y10081020D01*
X10163293D01*
X10163598Y10081037D01*
X10163852Y10081105D01*
X10164089Y10081190D01*
X10164275Y10081308D01*
X10164410Y10081409D01*
X10164528Y10081494D01*
X10164596Y10081561D01*
X10164613Y10081578D01*
X10164698Y10081697D01*
X10164765Y10081832D01*
X10164883Y10082153D01*
X10164951Y10082509D01*
X10165019Y10082847D01*
X10165053Y10083168D01*
Y10083321D01*
X10165070Y10083439D01*
Y10083541D01*
Y10083625D01*
Y10083676D01*
Y10083693D01*
X10165053Y10084133D01*
X10165002Y10084505D01*
X10164951Y10084810D01*
X10164867Y10085063D01*
X10164799Y10085249D01*
X10164749Y10085402D01*
X10164698Y10085469D01*
X10164681Y10085503D01*
X10164579Y10085638D01*
X10164478Y10085773D01*
X10164241Y10085959D01*
X10163987Y10086112D01*
X10163750Y10086196D01*
X10163530Y10086264D01*
X10163344Y10086281D01*
X10163293Y10086298D01*
X10163040D01*
X10162888Y10086264D01*
X10162752Y10086248D01*
X10162634Y10086213D01*
X10162549Y10086180D01*
X10162465Y10086146D01*
X10162431Y10086129D01*
X10162414Y10086112D01*
X10162177Y10085959D01*
X10161991Y10085790D01*
X10161923Y10085723D01*
X10161855Y10085655D01*
X10161839Y10085621D01*
X10161822Y10085604D01*
X10161771Y10085520D01*
X10161721Y10085435D01*
X10161619Y10085233D01*
X10161585Y10085148D01*
X10161551Y10085063D01*
X10161534Y10085012D01*
Y10084996D01*
X10158997Y10085554D01*
X10159099Y10085825D01*
X10159200Y10086078D01*
X10159318Y10086298D01*
X10159437Y10086518D01*
X10159555Y10086721D01*
X10159691Y10086890D01*
X10159809Y10087059D01*
X10159927Y10087195D01*
X10160046Y10087330D01*
X10160147Y10087432D01*
X10160248Y10087533D01*
X10160333Y10087601D01*
X10160401Y10087668D01*
X10160452Y10087702D01*
X10160485Y10087736D01*
X10160502D01*
X10160706Y10087854D01*
X10160908Y10087973D01*
X10161348Y10088142D01*
X10161805Y10088278D01*
X10162262Y10088362D01*
X10162465Y10088396D01*
X10162651Y10088412D01*
X10162820Y10088430D01*
X10162972D01*
X10163091Y10088447D01*
X10163260D01*
X10163666Y10088430D01*
D02*
G37*
G36*
X10324896D02*
X10325284Y10088396D01*
X10325641Y10088328D01*
X10325979Y10088260D01*
X10326283Y10088159D01*
X10326571Y10088057D01*
X10326841Y10087939D01*
X10327062Y10087838D01*
X10327281Y10087719D01*
X10327450Y10087601D01*
X10327603Y10087499D01*
X10327738Y10087397D01*
X10327822Y10087330D01*
X10327906Y10087263D01*
X10327941Y10087228D01*
X10327958Y10087211D01*
X10328177Y10086974D01*
X10328364Y10086704D01*
X10328516Y10086433D01*
X10328668Y10086146D01*
X10328787Y10085841D01*
X10328871Y10085554D01*
X10328956Y10085266D01*
X10329023Y10084979D01*
X10329075Y10084708D01*
X10329108Y10084471D01*
X10329142Y10084251D01*
X10329159Y10084048D01*
Y10083896D01*
X10329176Y10083777D01*
Y10083710D01*
Y10083676D01*
X10329142Y10083067D01*
X10329108Y10082780D01*
X10329075Y10082509D01*
X10329006Y10082255D01*
X10328956Y10082018D01*
X10328888Y10081798D01*
X10328821Y10081612D01*
X10328770Y10081426D01*
X10328702Y10081274D01*
X10328634Y10081138D01*
X10328584Y10081037D01*
X10328550Y10080953D01*
X10328516Y10080885D01*
X10328483Y10080851D01*
Y10080834D01*
X10328212Y10080445D01*
X10327941Y10080124D01*
X10327654Y10079870D01*
X10327400Y10079650D01*
X10327180Y10079498D01*
X10326993Y10079379D01*
X10326926Y10079346D01*
X10326875Y10079312D01*
X10326858Y10079294D01*
X10326841D01*
X10326453Y10079160D01*
X10326046Y10079058D01*
X10325624Y10078973D01*
X10325234Y10078923D01*
X10325048Y10078906D01*
X10324879Y10078889D01*
X10324744D01*
X10324608Y10078871D01*
X10324354D01*
X10323915Y10078889D01*
X10323508Y10078923D01*
X10323153Y10078990D01*
X10322866Y10079058D01*
X10322629Y10079109D01*
X10322443Y10079176D01*
X10322393Y10079193D01*
X10322341Y10079210D01*
X10322324Y10079227D01*
X10322307D01*
X10322020Y10079379D01*
X10321749Y10079548D01*
X10321530Y10079717D01*
X10321327Y10079886D01*
X10321174Y10080056D01*
X10321056Y10080175D01*
X10320972Y10080259D01*
X10320955Y10080293D01*
X10320752Y10080580D01*
X10320599Y10080868D01*
X10320447Y10081155D01*
X10320345Y10081443D01*
X10320244Y10081680D01*
X10320193Y10081883D01*
X10320176Y10081951D01*
X10320159Y10082001D01*
X10320143Y10082035D01*
Y10082052D01*
X10322646Y10082830D01*
X10322731Y10082509D01*
X10322832Y10082238D01*
X10322933Y10082001D01*
X10323035Y10081815D01*
X10323120Y10081663D01*
X10323204Y10081561D01*
X10323254Y10081494D01*
X10323271Y10081477D01*
X10323441Y10081324D01*
X10323644Y10081206D01*
X10323848Y10081138D01*
X10324050Y10081071D01*
X10324236Y10081037D01*
X10324388Y10081020D01*
X10324524D01*
X10324828Y10081037D01*
X10325082Y10081105D01*
X10325319Y10081190D01*
X10325505Y10081308D01*
X10325641Y10081409D01*
X10325759Y10081494D01*
X10325826Y10081561D01*
X10325844Y10081578D01*
X10325928Y10081697D01*
X10325996Y10081832D01*
X10326115Y10082153D01*
X10326182Y10082509D01*
X10326249Y10082847D01*
X10326283Y10083168D01*
Y10083321D01*
X10326300Y10083439D01*
Y10083541D01*
Y10083625D01*
Y10083676D01*
Y10083693D01*
X10326283Y10084133D01*
X10326233Y10084505D01*
X10326182Y10084810D01*
X10326097Y10085063D01*
X10326029Y10085249D01*
X10325979Y10085402D01*
X10325928Y10085469D01*
X10325911Y10085503D01*
X10325809Y10085638D01*
X10325708Y10085773D01*
X10325471Y10085959D01*
X10325217Y10086112D01*
X10324980Y10086196D01*
X10324761Y10086264D01*
X10324574Y10086281D01*
X10324524Y10086298D01*
X10324270D01*
X10324117Y10086264D01*
X10323982Y10086248D01*
X10323864Y10086213D01*
X10323779Y10086180D01*
X10323695Y10086146D01*
X10323661Y10086129D01*
X10323644Y10086112D01*
X10323407Y10085959D01*
X10323221Y10085790D01*
X10323153Y10085723D01*
X10323086Y10085655D01*
X10323069Y10085621D01*
X10323052Y10085604D01*
X10323002Y10085520D01*
X10322950Y10085435D01*
X10322849Y10085233D01*
X10322815Y10085148D01*
X10322782Y10085063D01*
X10322765Y10085012D01*
Y10084996D01*
X10320227Y10085554D01*
X10320328Y10085825D01*
X10320430Y10086078D01*
X10320548Y10086298D01*
X10320667Y10086518D01*
X10320785Y10086721D01*
X10320920Y10086890D01*
X10321039Y10087059D01*
X10321157Y10087195D01*
X10321276Y10087330D01*
X10321377Y10087432D01*
X10321478Y10087533D01*
X10321564Y10087601D01*
X10321631Y10087668D01*
X10321682Y10087702D01*
X10321716Y10087736D01*
X10321732D01*
X10321936Y10087854D01*
X10322139Y10087973D01*
X10322578Y10088142D01*
X10323035Y10088278D01*
X10323492Y10088362D01*
X10323695Y10088396D01*
X10323881Y10088412D01*
X10324050Y10088430D01*
X10324203D01*
X10324321Y10088447D01*
X10324490D01*
X10324896Y10088430D01*
D02*
G37*
G36*
X10207260Y10086535D02*
X10204688D01*
Y10088294D01*
X10207260D01*
Y10086535D01*
D02*
G37*
G36*
X10139882Y10086958D02*
Y10085740D01*
X10140829D01*
Y10083862D01*
X10139882D01*
Y10081494D01*
X10139865Y10081105D01*
X10139847Y10080767D01*
X10139814Y10080479D01*
X10139780Y10080242D01*
X10139746Y10080073D01*
X10139712Y10079954D01*
X10139678Y10079870D01*
Y10079853D01*
X10139594Y10079684D01*
X10139475Y10079531D01*
X10139374Y10079396D01*
X10139255Y10079294D01*
X10139154Y10079210D01*
X10139069Y10079160D01*
X10139019Y10079125D01*
X10139001Y10079109D01*
X10138815Y10079024D01*
X10138578Y10078973D01*
X10138359Y10078923D01*
X10138122Y10078906D01*
X10137902Y10078889D01*
X10137733Y10078871D01*
X10137581D01*
X10137259Y10078889D01*
X10136955Y10078906D01*
X10136650Y10078939D01*
X10136379Y10078973D01*
X10136143Y10079007D01*
X10135956Y10079041D01*
X10135889Y10079058D01*
X10135838Y10079075D01*
X10135787D01*
X10135991Y10080851D01*
X10136177Y10080800D01*
X10136329Y10080767D01*
X10136464Y10080732D01*
X10136583Y10080715D01*
X10136667D01*
X10136735Y10080699D01*
X10136786D01*
X10136887Y10080715D01*
X10136989Y10080732D01*
X10137124Y10080800D01*
X10137192Y10080868D01*
X10137225Y10080901D01*
X10137242Y10080969D01*
X10137259Y10081054D01*
X10137276Y10081240D01*
X10137293Y10081324D01*
Y10081409D01*
Y10081460D01*
Y10081477D01*
Y10083862D01*
X10135872D01*
Y10085740D01*
X10137293D01*
Y10088294D01*
X10139882Y10086958D01*
D02*
G37*
G36*
X10185234D02*
Y10085740D01*
X10186182D01*
Y10083862D01*
X10185234D01*
Y10081494D01*
X10185217Y10081105D01*
X10185200Y10080767D01*
X10185167Y10080479D01*
X10185132Y10080242D01*
X10185099Y10080073D01*
X10185065Y10079954D01*
X10185031Y10079870D01*
Y10079853D01*
X10184947Y10079684D01*
X10184828Y10079531D01*
X10184727Y10079396D01*
X10184608Y10079294D01*
X10184507Y10079210D01*
X10184422Y10079160D01*
X10184371Y10079125D01*
X10184354Y10079109D01*
X10184169Y10079024D01*
X10183932Y10078973D01*
X10183712Y10078923D01*
X10183475Y10078906D01*
X10183255Y10078889D01*
X10183086Y10078871D01*
X10182933D01*
X10182612Y10078889D01*
X10182308Y10078906D01*
X10182003Y10078939D01*
X10181732Y10078973D01*
X10181495Y10079007D01*
X10181309Y10079041D01*
X10181242Y10079058D01*
X10181191Y10079075D01*
X10181140D01*
X10181343Y10080851D01*
X10181530Y10080800D01*
X10181682Y10080767D01*
X10181817Y10080732D01*
X10181935Y10080715D01*
X10182020D01*
X10182087Y10080699D01*
X10182139D01*
X10182240Y10080715D01*
X10182341Y10080732D01*
X10182477Y10080800D01*
X10182545Y10080868D01*
X10182578Y10080901D01*
X10182595Y10080969D01*
X10182612Y10081054D01*
X10182629Y10081240D01*
X10182646Y10081324D01*
Y10081409D01*
Y10081460D01*
Y10081477D01*
Y10083862D01*
X10181225D01*
Y10085740D01*
X10182646D01*
Y10088294D01*
X10185234Y10086958D01*
D02*
G37*
G36*
X10291774D02*
Y10085740D01*
X10292721D01*
Y10083862D01*
X10291774D01*
Y10081494D01*
X10291757Y10081105D01*
X10291740Y10080767D01*
X10291707Y10080479D01*
X10291672Y10080242D01*
X10291638Y10080073D01*
X10291604Y10079954D01*
X10291571Y10079870D01*
Y10079853D01*
X10291486Y10079684D01*
X10291367Y10079531D01*
X10291266Y10079396D01*
X10291147Y10079294D01*
X10291046Y10079210D01*
X10290962Y10079160D01*
X10290911Y10079125D01*
X10290894Y10079109D01*
X10290708Y10079024D01*
X10290471Y10078973D01*
X10290251Y10078923D01*
X10290015Y10078906D01*
X10289795Y10078889D01*
X10289625Y10078871D01*
X10289473D01*
X10289152Y10078889D01*
X10288848Y10078906D01*
X10288542Y10078939D01*
X10288271Y10078973D01*
X10288035Y10079007D01*
X10287849Y10079041D01*
X10287782Y10079058D01*
X10287731Y10079075D01*
X10287679D01*
X10287883Y10080851D01*
X10288069Y10080800D01*
X10288221Y10080767D01*
X10288357Y10080732D01*
X10288475Y10080715D01*
X10288560D01*
X10288627Y10080699D01*
X10288678D01*
X10288779Y10080715D01*
X10288881Y10080732D01*
X10289016Y10080800D01*
X10289084Y10080868D01*
X10289117Y10080901D01*
X10289135Y10080969D01*
X10289152Y10081054D01*
X10289169Y10081240D01*
X10289186Y10081324D01*
Y10081409D01*
Y10081460D01*
Y10081477D01*
Y10083862D01*
X10287765D01*
Y10085740D01*
X10289186D01*
Y10088294D01*
X10291774Y10086958D01*
D02*
G37*
G36*
X10200848Y10085875D02*
X10201068Y10085858D01*
X10201457Y10085757D01*
X10201795Y10085638D01*
X10202083Y10085486D01*
X10202320Y10085334D01*
X10202489Y10085198D01*
X10202540Y10085148D01*
X10202590Y10085097D01*
X10202607Y10085080D01*
X10202624Y10085063D01*
X10202759Y10084894D01*
X10202861Y10084725D01*
X10203047Y10084336D01*
X10203182Y10083947D01*
X10203267Y10083558D01*
X10203335Y10083220D01*
X10203351Y10083067D01*
Y10082932D01*
X10203369Y10082830D01*
Y10082745D01*
Y10082695D01*
Y10082678D01*
X10203351Y10082188D01*
X10203284Y10081747D01*
X10203182Y10081375D01*
X10203081Y10081054D01*
X10203030Y10080919D01*
X10202979Y10080800D01*
X10202928Y10080699D01*
X10202878Y10080614D01*
X10202844Y10080546D01*
X10202810Y10080496D01*
X10202794Y10080479D01*
Y10080462D01*
X10202624Y10080259D01*
X10202455Y10080073D01*
X10202269Y10079921D01*
X10202100Y10079785D01*
X10201913Y10079667D01*
X10201727Y10079582D01*
X10201558Y10079498D01*
X10201389Y10079447D01*
X10201085Y10079362D01*
X10200950Y10079329D01*
X10200831Y10079312D01*
X10200746Y10079294D01*
X10200611D01*
X10200358Y10079312D01*
X10200121Y10079346D01*
X10199901Y10079396D01*
X10199698Y10079447D01*
X10199545Y10079498D01*
X10199410Y10079548D01*
X10199343Y10079582D01*
X10199308Y10079599D01*
X10199174Y10079684D01*
X10199038Y10079785D01*
X10198903Y10079886D01*
X10198784Y10080005D01*
X10198683Y10080090D01*
X10198615Y10080175D01*
X10198564Y10080225D01*
X10198547Y10080242D01*
Y10079227D01*
X10198564Y10078973D01*
X10198598Y10078770D01*
X10198632Y10078601D01*
X10198683Y10078449D01*
X10198750Y10078347D01*
X10198784Y10078279D01*
X10198818Y10078229D01*
X10198835Y10078212D01*
X10198953Y10078110D01*
X10199089Y10078043D01*
X10199224Y10077975D01*
X10199359Y10077941D01*
X10199478Y10077924D01*
X10199579Y10077908D01*
X10199681D01*
X10199833Y10077924D01*
X10199968Y10077941D01*
X10200087Y10077975D01*
X10200188Y10078009D01*
X10200273Y10078043D01*
X10200341Y10078077D01*
X10200374Y10078110D01*
X10200391D01*
X10200459Y10078178D01*
X10200527Y10078246D01*
X10200611Y10078398D01*
X10200645Y10078466D01*
X10200662Y10078533D01*
X10200679Y10078568D01*
Y10078584D01*
X10203182Y10078871D01*
Y10078737D01*
Y10078635D01*
Y10078550D01*
Y10078533D01*
X10203165Y10078347D01*
X10203149Y10078178D01*
X10203064Y10077857D01*
X10202946Y10077569D01*
X10202810Y10077349D01*
X10202675Y10077163D01*
X10202557Y10077028D01*
X10202472Y10076943D01*
X10202438Y10076909D01*
X10202286Y10076808D01*
X10202100Y10076707D01*
X10201897Y10076622D01*
X10201677Y10076554D01*
X10201220Y10076453D01*
X10200764Y10076385D01*
X10200543Y10076351D01*
X10200323Y10076334D01*
X10200137Y10076317D01*
X10199968D01*
X10199833Y10076301D01*
X10199326D01*
X10199038Y10076334D01*
X10198767Y10076351D01*
X10198530Y10076385D01*
X10198344Y10076419D01*
X10198209Y10076436D01*
X10198124Y10076470D01*
X10198091D01*
X10197837Y10076537D01*
X10197617Y10076622D01*
X10197431Y10076689D01*
X10197262Y10076774D01*
X10197126Y10076859D01*
X10197042Y10076926D01*
X10196974Y10076960D01*
X10196957Y10076977D01*
X10196788Y10077112D01*
X10196653Y10077264D01*
X10196517Y10077434D01*
X10196416Y10077569D01*
X10196331Y10077704D01*
X10196281Y10077806D01*
X10196247Y10077891D01*
X10196230Y10077908D01*
X10196145Y10078127D01*
X10196078Y10078331D01*
X10196027Y10078533D01*
X10195993Y10078719D01*
X10195976Y10078871D01*
X10195959Y10078990D01*
Y10079058D01*
Y10079092D01*
Y10079396D01*
Y10085740D01*
X10198378D01*
Y10084742D01*
X10198547Y10084962D01*
X10198716Y10085131D01*
X10198869Y10085283D01*
X10199021Y10085419D01*
X10199139Y10085503D01*
X10199241Y10085571D01*
X10199308Y10085604D01*
X10199326Y10085621D01*
X10199528Y10085706D01*
X10199749Y10085773D01*
X10199968Y10085825D01*
X10200172Y10085858D01*
X10200358Y10085875D01*
X10200493Y10085892D01*
X10200628D01*
X10200848Y10085875D01*
D02*
G37*
G36*
X10270763D02*
X10270984Y10085858D01*
X10271187Y10085841D01*
X10271355Y10085807D01*
X10271490Y10085790D01*
X10271559Y10085773D01*
X10271592D01*
X10271813Y10085740D01*
X10271998Y10085689D01*
X10272168Y10085638D01*
X10272302Y10085588D01*
X10272405Y10085536D01*
X10272489Y10085503D01*
X10272540Y10085486D01*
X10272556Y10085469D01*
X10272726Y10085367D01*
X10272878Y10085249D01*
X10273013Y10085148D01*
X10273115Y10085046D01*
X10273199Y10084962D01*
X10273267Y10084894D01*
X10273301Y10084843D01*
X10273318Y10084826D01*
X10273402Y10084674D01*
X10273488Y10084505D01*
X10273555Y10084336D01*
X10273606Y10084183D01*
X10273656Y10084031D01*
X10273673Y10083913D01*
X10273707Y10083845D01*
Y10083811D01*
X10271237Y10083558D01*
X10271187Y10083710D01*
X10271118Y10083828D01*
X10271051Y10083929D01*
X10270984Y10084014D01*
X10270933Y10084082D01*
X10270881Y10084116D01*
X10270865Y10084150D01*
X10270848D01*
X10270713Y10084218D01*
X10270560Y10084268D01*
X10270256Y10084336D01*
X10270121D01*
X10270002Y10084352D01*
X10269731D01*
X10269579Y10084319D01*
X10269460Y10084285D01*
X10269376Y10084251D01*
X10269292Y10084218D01*
X10269241Y10084183D01*
X10269224Y10084167D01*
X10269207Y10084150D01*
X10269139Y10084065D01*
X10269088Y10083964D01*
X10269021Y10083760D01*
Y10083659D01*
X10269004Y10083574D01*
Y10083524D01*
Y10083507D01*
X10269359Y10083372D01*
X10269512Y10083321D01*
X10269647Y10083270D01*
X10269766Y10083236D01*
X10269850Y10083203D01*
X10269917Y10083185D01*
X10269934D01*
X10270020Y10083168D01*
X10270138Y10083135D01*
X10270408Y10083067D01*
X10270713Y10082999D01*
X10271034Y10082932D01*
X10271322Y10082881D01*
X10271458Y10082847D01*
X10271576Y10082830D01*
X10271677Y10082813D01*
X10271744Y10082796D01*
X10271796Y10082780D01*
X10271813D01*
X10272032Y10082729D01*
X10272235Y10082678D01*
X10272573Y10082559D01*
X10272861Y10082441D01*
X10273098Y10082323D01*
X10273267Y10082221D01*
X10273385Y10082137D01*
X10273453Y10082069D01*
X10273470Y10082052D01*
X10273622Y10081866D01*
X10273724Y10081646D01*
X10273809Y10081443D01*
X10273859Y10081240D01*
X10273893Y10081071D01*
X10273910Y10080936D01*
Y10080834D01*
Y10080817D01*
Y10080800D01*
X10273876Y10080496D01*
X10273809Y10080242D01*
X10273724Y10080005D01*
X10273606Y10079802D01*
X10273488Y10079633D01*
X10273402Y10079515D01*
X10273335Y10079447D01*
X10273301Y10079413D01*
X10273047Y10079227D01*
X10272743Y10079109D01*
X10272438Y10079007D01*
X10272151Y10078939D01*
X10271880Y10078906D01*
X10271761Y10078889D01*
X10271660D01*
X10271576Y10078871D01*
X10271458D01*
X10271135Y10078889D01*
X10270831Y10078923D01*
X10270560Y10078956D01*
X10270323Y10079007D01*
X10270138Y10079058D01*
X10269985Y10079109D01*
X10269901Y10079125D01*
X10269867Y10079142D01*
X10269681Y10079227D01*
X10269512Y10079346D01*
X10269342Y10079447D01*
X10269191Y10079565D01*
X10269055Y10079667D01*
X10268954Y10079752D01*
X10268885Y10079819D01*
X10268868Y10079836D01*
X10268835Y10079650D01*
X10268801Y10079515D01*
X10268784Y10079447D01*
Y10079413D01*
X10268733Y10079294D01*
X10268666Y10079176D01*
X10268599Y10079075D01*
X10268582Y10079041D01*
Y10079024D01*
X10266162D01*
X10266298Y10079294D01*
X10266332Y10079413D01*
X10266365Y10079515D01*
X10266399Y10079599D01*
X10266416Y10079650D01*
X10266433Y10079684D01*
Y10079700D01*
X10266450Y10079819D01*
X10266467Y10079938D01*
X10266483Y10080175D01*
Y10080276D01*
Y10080360D01*
Y10080428D01*
Y10080445D01*
Y10083405D01*
Y10083591D01*
X10266517Y10083760D01*
X10266552Y10083929D01*
X10266586Y10084082D01*
X10266619Y10084218D01*
X10266653Y10084319D01*
X10266670Y10084387D01*
X10266687Y10084404D01*
X10266754Y10084589D01*
X10266838Y10084758D01*
X10266924Y10084894D01*
X10267008Y10085012D01*
X10267075Y10085097D01*
X10267144Y10085165D01*
X10267178Y10085198D01*
X10267194Y10085215D01*
X10267380Y10085351D01*
X10267583Y10085469D01*
X10267770Y10085571D01*
X10267955Y10085638D01*
X10268125Y10085689D01*
X10268259Y10085723D01*
X10268345Y10085757D01*
X10268378D01*
X10268649Y10085807D01*
X10268954Y10085841D01*
X10269275Y10085858D01*
X10269563Y10085875D01*
X10269833Y10085892D01*
X10270510D01*
X10270763Y10085875D01*
D02*
G37*
G36*
X10362281Y10079024D02*
X10359473D01*
X10357849Y10084860D01*
X10356226Y10079024D01*
X10353400D01*
X10351354Y10088294D01*
X10354077D01*
X10355057Y10083101D01*
X10356495Y10088294D01*
X10359203D01*
X10360641Y10083118D01*
X10361621Y10088294D01*
X10364329D01*
X10362281Y10079024D01*
D02*
G37*
G36*
X10318925D02*
X10316354D01*
Y10082238D01*
X10316337Y10082559D01*
X10316302Y10082830D01*
X10316268Y10083050D01*
X10316201Y10083236D01*
X10316150Y10083354D01*
X10316116Y10083456D01*
X10316083Y10083507D01*
X10316066Y10083524D01*
X10315947Y10083642D01*
X10315829Y10083727D01*
X10315693Y10083795D01*
X10315575Y10083828D01*
X10315474Y10083862D01*
X10315389Y10083879D01*
X10315304D01*
X10315153Y10083862D01*
X10315017Y10083845D01*
X10314916Y10083795D01*
X10314813Y10083744D01*
X10314746Y10083693D01*
X10314695Y10083659D01*
X10314662Y10083625D01*
X10314645Y10083608D01*
X10314561Y10083490D01*
X10314509Y10083354D01*
X10314442Y10083067D01*
X10314425Y10082932D01*
X10314408Y10082813D01*
Y10082745D01*
Y10082712D01*
Y10079024D01*
X10311820D01*
Y10083287D01*
X10311853Y10083744D01*
X10311921Y10084150D01*
X10312006Y10084488D01*
X10312124Y10084758D01*
X10312242Y10084979D01*
X10312327Y10085131D01*
X10312395Y10085215D01*
X10312428Y10085249D01*
X10312682Y10085469D01*
X10312936Y10085621D01*
X10313224Y10085740D01*
X10313478Y10085807D01*
X10313715Y10085858D01*
X10313917Y10085875D01*
X10313984Y10085892D01*
X10314087D01*
X10314340Y10085875D01*
X10314576Y10085858D01*
X10314797Y10085825D01*
X10314966Y10085773D01*
X10315118Y10085723D01*
X10315220Y10085689D01*
X10315304Y10085672D01*
X10315321Y10085655D01*
X10315508Y10085554D01*
X10315693Y10085435D01*
X10315863Y10085300D01*
X10316031Y10085182D01*
X10316167Y10085063D01*
X10316268Y10084962D01*
X10316337Y10084894D01*
X10316354Y10084877D01*
Y10088294D01*
X10318925D01*
Y10079024D01*
D02*
G37*
G36*
X10194403D02*
X10191832D01*
Y10082238D01*
X10191815Y10082559D01*
X10191781Y10082830D01*
X10191747Y10083050D01*
X10191679Y10083236D01*
X10191628Y10083354D01*
X10191595Y10083456D01*
X10191561Y10083507D01*
X10191544Y10083524D01*
X10191426Y10083642D01*
X10191307Y10083727D01*
X10191172Y10083795D01*
X10191053Y10083828D01*
X10190952Y10083862D01*
X10190867Y10083879D01*
X10190782D01*
X10190630Y10083862D01*
X10190495Y10083845D01*
X10190394Y10083795D01*
X10190292Y10083744D01*
X10190225Y10083693D01*
X10190174Y10083659D01*
X10190140Y10083625D01*
X10190123Y10083608D01*
X10190038Y10083490D01*
X10189988Y10083354D01*
X10189920Y10083067D01*
X10189903Y10082932D01*
X10189886Y10082813D01*
Y10082745D01*
Y10082712D01*
Y10079024D01*
X10187298D01*
Y10083287D01*
X10187332Y10083744D01*
X10187399Y10084150D01*
X10187484Y10084488D01*
X10187603Y10084758D01*
X10187721Y10084979D01*
X10187805Y10085131D01*
X10187873Y10085215D01*
X10187907Y10085249D01*
X10188160Y10085469D01*
X10188414Y10085621D01*
X10188702Y10085740D01*
X10188956Y10085807D01*
X10189193Y10085858D01*
X10189396Y10085875D01*
X10189464Y10085892D01*
X10189565D01*
X10189819Y10085875D01*
X10190056Y10085858D01*
X10190275Y10085825D01*
X10190444Y10085773D01*
X10190596Y10085723D01*
X10190698Y10085689D01*
X10190782Y10085672D01*
X10190800Y10085655D01*
X10190986Y10085554D01*
X10191172Y10085435D01*
X10191341Y10085300D01*
X10191510Y10085182D01*
X10191646Y10085063D01*
X10191747Y10084962D01*
X10191815Y10084894D01*
X10191832Y10084877D01*
Y10088294D01*
X10194403D01*
Y10079024D01*
D02*
G37*
G36*
X10282064Y10085875D02*
X10282317Y10085858D01*
X10282538Y10085807D01*
X10282723Y10085757D01*
X10282876Y10085706D01*
X10282977Y10085672D01*
X10283062Y10085638D01*
X10283079Y10085621D01*
X10283281Y10085503D01*
X10283468Y10085385D01*
X10283636Y10085233D01*
X10283806Y10085080D01*
X10283942Y10084962D01*
X10284043Y10084843D01*
X10284110Y10084775D01*
X10284127Y10084742D01*
Y10085740D01*
X10286530D01*
Y10079024D01*
X10283942D01*
Y10082441D01*
X10283925Y10082712D01*
X10283890Y10082932D01*
X10283856Y10083118D01*
X10283806Y10083270D01*
X10283755Y10083389D01*
X10283705Y10083473D01*
X10283688Y10083524D01*
X10283671Y10083541D01*
X10283552Y10083659D01*
X10283434Y10083744D01*
X10283315Y10083795D01*
X10283197Y10083845D01*
X10283079Y10083862D01*
X10282994Y10083879D01*
X10282926D01*
X10282740Y10083845D01*
X10282588Y10083795D01*
X10282487Y10083744D01*
X10282469Y10083710D01*
X10282452D01*
X10282317Y10083574D01*
X10282233Y10083456D01*
X10282181Y10083354D01*
X10282166Y10083321D01*
Y10083304D01*
X10282148Y10083236D01*
X10282131Y10083152D01*
X10282114Y10082949D01*
Y10082864D01*
Y10082780D01*
Y10082729D01*
Y10082712D01*
Y10079024D01*
X10279526D01*
Y10082492D01*
X10279509Y10082745D01*
X10279475Y10082966D01*
X10279442Y10083152D01*
X10279391Y10083287D01*
X10279340Y10083405D01*
X10279290Y10083473D01*
X10279272Y10083524D01*
X10279255Y10083541D01*
X10279154Y10083659D01*
X10279019Y10083744D01*
X10278900Y10083795D01*
X10278782Y10083845D01*
X10278680Y10083862D01*
X10278596Y10083879D01*
X10278528D01*
X10278392Y10083862D01*
X10278257Y10083828D01*
X10278156Y10083760D01*
X10278054Y10083710D01*
X10277987Y10083642D01*
X10277936Y10083574D01*
X10277902Y10083541D01*
X10277886Y10083524D01*
X10277817Y10083439D01*
X10277783Y10083321D01*
X10277716Y10083101D01*
Y10082999D01*
X10277699Y10082915D01*
Y10082864D01*
Y10082847D01*
Y10079024D01*
X10275111D01*
Y10083236D01*
Y10083490D01*
X10275145Y10083710D01*
X10275212Y10084133D01*
X10275297Y10084471D01*
X10275415Y10084758D01*
X10275533Y10084979D01*
X10275619Y10085131D01*
X10275686Y10085215D01*
X10275720Y10085249D01*
X10275974Y10085469D01*
X10276244Y10085621D01*
X10276515Y10085740D01*
X10276786Y10085807D01*
X10277040Y10085858D01*
X10277225Y10085875D01*
X10277310Y10085892D01*
X10277412D01*
X10277682Y10085875D01*
X10277919Y10085858D01*
X10278138Y10085807D01*
X10278308Y10085773D01*
X10278461Y10085723D01*
X10278579Y10085672D01*
X10278646Y10085655D01*
X10278663Y10085638D01*
X10278850Y10085536D01*
X10279036Y10085402D01*
X10279221Y10085249D01*
X10279391Y10085097D01*
X10279543Y10084962D01*
X10279662Y10084843D01*
X10279729Y10084775D01*
X10279763Y10084742D01*
X10279882Y10084944D01*
X10280000Y10085114D01*
X10280135Y10085266D01*
X10280254Y10085385D01*
X10280355Y10085486D01*
X10280439Y10085554D01*
X10280508Y10085588D01*
X10280524Y10085604D01*
X10280710Y10085706D01*
X10280913Y10085773D01*
X10281133Y10085825D01*
X10281337Y10085858D01*
X10281522Y10085875D01*
X10281658Y10085892D01*
X10281793D01*
X10282064Y10085875D01*
D02*
G37*
G36*
X10304427Y10086535D02*
X10301855D01*
Y10088294D01*
X10304427D01*
Y10086535D01*
D02*
G37*
G36*
X10306406Y10085875D02*
X10306576Y10085858D01*
X10306744Y10085807D01*
X10306880Y10085757D01*
X10306981Y10085706D01*
X10307067Y10085672D01*
X10307117Y10085638D01*
X10307134Y10085621D01*
X10307269Y10085503D01*
X10307388Y10085351D01*
X10307625Y10085029D01*
X10307709Y10084877D01*
X10307777Y10084758D01*
X10307827Y10084674D01*
X10307844Y10084641D01*
Y10085740D01*
X10310247D01*
Y10079024D01*
X10307659D01*
Y10081274D01*
Y10081561D01*
X10307642Y10081832D01*
X10307625Y10082069D01*
X10307590Y10082289D01*
X10307573Y10082492D01*
X10307540Y10082678D01*
X10307506Y10082830D01*
X10307455Y10082982D01*
X10307422Y10083101D01*
X10307388Y10083203D01*
X10307354Y10083287D01*
X10307336Y10083354D01*
X10307286Y10083439D01*
X10307269Y10083473D01*
X10307151Y10083608D01*
X10307015Y10083710D01*
X10306897Y10083795D01*
X10306761Y10083845D01*
X10306643Y10083879D01*
X10306559Y10083896D01*
X10306372D01*
X10306254Y10083862D01*
X10306017Y10083795D01*
X10305916Y10083760D01*
X10305831Y10083727D01*
X10305780Y10083710D01*
X10305763Y10083693D01*
X10304951Y10085536D01*
X10305205Y10085655D01*
X10305442Y10085740D01*
X10305645Y10085807D01*
X10305831Y10085841D01*
X10305984Y10085875D01*
X10306102Y10085892D01*
X10306204D01*
X10306406Y10085875D01*
D02*
G37*
G36*
X10337533Y10079024D02*
X10334961D01*
Y10085740D01*
X10337533D01*
Y10079024D01*
D02*
G37*
G36*
X10346093D02*
X10343217D01*
Y10082813D01*
X10339613D01*
Y10084691D01*
X10343217D01*
Y10086298D01*
X10339004D01*
Y10088294D01*
X10346093D01*
Y10079024D01*
D02*
G37*
G36*
X10239485Y10085875D02*
X10239654Y10085858D01*
X10239824Y10085807D01*
X10239958Y10085757D01*
X10240060Y10085706D01*
X10240145Y10085672D01*
X10240195Y10085638D01*
X10240212Y10085621D01*
X10240348Y10085503D01*
X10240466Y10085351D01*
X10240703Y10085029D01*
X10240787Y10084877D01*
X10240856Y10084758D01*
X10240906Y10084674D01*
X10240923Y10084641D01*
Y10085740D01*
X10243325D01*
Y10079024D01*
X10240737D01*
Y10081274D01*
Y10081561D01*
X10240720Y10081832D01*
X10240703Y10082069D01*
X10240669Y10082289D01*
X10240652Y10082492D01*
X10240619Y10082678D01*
X10240585Y10082830D01*
X10240533Y10082982D01*
X10240500Y10083101D01*
X10240466Y10083203D01*
X10240432Y10083287D01*
X10240415Y10083354D01*
X10240365Y10083439D01*
X10240348Y10083473D01*
X10240229Y10083608D01*
X10240094Y10083710D01*
X10239976Y10083795D01*
X10239840Y10083845D01*
X10239722Y10083879D01*
X10239637Y10083896D01*
X10239451D01*
X10239333Y10083862D01*
X10239096Y10083795D01*
X10238995Y10083760D01*
X10238910Y10083727D01*
X10238859Y10083710D01*
X10238842Y10083693D01*
X10238030Y10085536D01*
X10238284Y10085655D01*
X10238521Y10085740D01*
X10238724Y10085807D01*
X10238910Y10085841D01*
X10239062Y10085875D01*
X10239180Y10085892D01*
X10239282D01*
X10239485Y10085875D01*
D02*
G37*
G36*
X10253204Y10086011D02*
X10250277D01*
Y10079024D01*
X10247418D01*
Y10086011D01*
X10244492D01*
Y10088294D01*
X10253204D01*
Y10086011D01*
D02*
G37*
G36*
X10304427Y10079024D02*
X10301855D01*
Y10085740D01*
X10304427D01*
Y10079024D01*
D02*
G37*
G36*
X10225817Y10085875D02*
X10226121Y10085858D01*
X10226409Y10085807D01*
X10226679Y10085740D01*
X10226933Y10085672D01*
X10227153Y10085588D01*
X10227373Y10085486D01*
X10227559Y10085402D01*
X10227728Y10085317D01*
X10227864Y10085215D01*
X10227999Y10085131D01*
X10228101Y10085063D01*
X10228185Y10084996D01*
X10228235Y10084962D01*
X10228270Y10084928D01*
X10228286Y10084911D01*
X10228455Y10084725D01*
X10228608Y10084522D01*
X10228743Y10084319D01*
X10228862Y10084099D01*
X10228963Y10083879D01*
X10229048Y10083676D01*
X10229166Y10083270D01*
X10229200Y10083084D01*
X10229233Y10082915D01*
X10229250Y10082745D01*
X10229268Y10082610D01*
X10229285Y10082509D01*
Y10082424D01*
Y10082374D01*
Y10082357D01*
X10229268Y10081951D01*
X10229200Y10081595D01*
X10229132Y10081257D01*
X10229031Y10080986D01*
X10228946Y10080750D01*
X10228862Y10080580D01*
X10228845Y10080513D01*
X10228811Y10080462D01*
X10228794Y10080445D01*
Y10080428D01*
X10228591Y10080140D01*
X10228388Y10079904D01*
X10228168Y10079700D01*
X10227965Y10079531D01*
X10227796Y10079413D01*
X10227643Y10079312D01*
X10227559Y10079261D01*
X10227525Y10079244D01*
X10227220Y10079125D01*
X10226882Y10079024D01*
X10226527Y10078956D01*
X10226189Y10078923D01*
X10225884Y10078889D01*
X10225766D01*
X10225648Y10078871D01*
X10225140D01*
X10224886Y10078889D01*
X10224633Y10078906D01*
X10224412Y10078939D01*
X10224193Y10078973D01*
X10224006Y10079007D01*
X10223837Y10079058D01*
X10223668Y10079092D01*
X10223533Y10079125D01*
X10223414Y10079176D01*
X10223313Y10079210D01*
X10223228Y10079244D01*
X10223160Y10079278D01*
X10223110Y10079294D01*
X10223093Y10079312D01*
X10223076D01*
X10222772Y10079498D01*
X10222501Y10079717D01*
X10222264Y10079971D01*
X10222061Y10080208D01*
X10221892Y10080428D01*
X10221757Y10080597D01*
X10221723Y10080665D01*
X10221689Y10080715D01*
X10221655Y10080750D01*
Y10080767D01*
X10224193Y10081003D01*
X10224277Y10080885D01*
X10224379Y10080800D01*
X10224446Y10080715D01*
X10224514Y10080665D01*
X10224615Y10080580D01*
X10224633Y10080563D01*
X10224649D01*
X10224785Y10080496D01*
X10224903Y10080462D01*
X10225123Y10080394D01*
X10225225D01*
X10225292Y10080377D01*
X10225359D01*
X10225580Y10080394D01*
X10225766Y10080445D01*
X10225935Y10080513D01*
X10226071Y10080597D01*
X10226189Y10080682D01*
X10226273Y10080750D01*
X10226324Y10080800D01*
X10226341Y10080817D01*
X10226426Y10080953D01*
X10226493Y10081088D01*
X10226595Y10081392D01*
X10226628Y10081528D01*
X10226646Y10081646D01*
X10226663Y10081714D01*
Y10081747D01*
X10221503D01*
Y10082035D01*
X10221520Y10082509D01*
X10221570Y10082932D01*
X10221638Y10083287D01*
X10221723Y10083608D01*
X10221807Y10083845D01*
X10221841Y10083947D01*
X10221875Y10084031D01*
X10221909Y10084099D01*
X10221926Y10084150D01*
X10221943Y10084167D01*
Y10084183D01*
X10222129Y10084471D01*
X10222332Y10084725D01*
X10222535Y10084944D01*
X10222755Y10085131D01*
X10222941Y10085266D01*
X10223093Y10085367D01*
X10223195Y10085435D01*
X10223212Y10085452D01*
X10223228D01*
X10223567Y10085604D01*
X10223939Y10085706D01*
X10224311Y10085790D01*
X10224666Y10085841D01*
X10224988Y10085875D01*
X10225140D01*
X10225258Y10085892D01*
X10225495D01*
X10225817Y10085875D01*
D02*
G37*
G36*
X10234461D02*
X10234766Y10085858D01*
X10235053Y10085807D01*
X10235323Y10085740D01*
X10235577Y10085672D01*
X10235797Y10085588D01*
X10236017Y10085486D01*
X10236203Y10085402D01*
X10236373Y10085317D01*
X10236508Y10085215D01*
X10236643Y10085131D01*
X10236744Y10085063D01*
X10236829Y10084996D01*
X10236880Y10084962D01*
X10236913Y10084928D01*
X10236931Y10084911D01*
X10237100Y10084725D01*
X10237252Y10084522D01*
X10237388Y10084319D01*
X10237506Y10084099D01*
X10237607Y10083879D01*
X10237692Y10083676D01*
X10237810Y10083270D01*
X10237844Y10083084D01*
X10237878Y10082915D01*
X10237895Y10082745D01*
X10237912Y10082610D01*
X10237928Y10082509D01*
Y10082424D01*
Y10082374D01*
Y10082357D01*
X10237912Y10081951D01*
X10237844Y10081595D01*
X10237776Y10081257D01*
X10237675Y10080986D01*
X10237590Y10080750D01*
X10237506Y10080580D01*
X10237489Y10080513D01*
X10237455Y10080462D01*
X10237438Y10080445D01*
Y10080428D01*
X10237235Y10080140D01*
X10237032Y10079904D01*
X10236812Y10079700D01*
X10236609Y10079531D01*
X10236440Y10079413D01*
X10236288Y10079312D01*
X10236203Y10079261D01*
X10236169Y10079244D01*
X10235865Y10079125D01*
X10235527Y10079024D01*
X10235172Y10078956D01*
X10234833Y10078923D01*
X10234528Y10078889D01*
X10234410D01*
X10234292Y10078871D01*
X10233784D01*
X10233530Y10078889D01*
X10233277Y10078906D01*
X10233057Y10078939D01*
X10232837Y10078973D01*
X10232651Y10079007D01*
X10232482Y10079058D01*
X10232313Y10079092D01*
X10232177Y10079125D01*
X10232059Y10079176D01*
X10231957Y10079210D01*
X10231873Y10079244D01*
X10231805Y10079278D01*
X10231754Y10079294D01*
X10231737Y10079312D01*
X10231721D01*
X10231416Y10079498D01*
X10231145Y10079717D01*
X10230908Y10079971D01*
X10230706Y10080208D01*
X10230536Y10080428D01*
X10230401Y10080597D01*
X10230367Y10080665D01*
X10230333Y10080715D01*
X10230300Y10080750D01*
Y10080767D01*
X10232837Y10081003D01*
X10232922Y10080885D01*
X10233023Y10080800D01*
X10233091Y10080715D01*
X10233159Y10080665D01*
X10233260Y10080580D01*
X10233277Y10080563D01*
X10233293D01*
X10233429Y10080496D01*
X10233547Y10080462D01*
X10233767Y10080394D01*
X10233869D01*
X10233937Y10080377D01*
X10234004D01*
X10234224Y10080394D01*
X10234410Y10080445D01*
X10234579Y10080513D01*
X10234714Y10080597D01*
X10234833Y10080682D01*
X10234918Y10080750D01*
X10234968Y10080800D01*
X10234985Y10080817D01*
X10235070Y10080953D01*
X10235137Y10081088D01*
X10235239Y10081392D01*
X10235273Y10081528D01*
X10235290Y10081646D01*
X10235306Y10081714D01*
Y10081747D01*
X10230147D01*
Y10082035D01*
X10230164Y10082509D01*
X10230215Y10082932D01*
X10230283Y10083287D01*
X10230367Y10083608D01*
X10230452Y10083845D01*
X10230485Y10083947D01*
X10230519Y10084031D01*
X10230553Y10084099D01*
X10230570Y10084150D01*
X10230587Y10084167D01*
Y10084183D01*
X10230773Y10084471D01*
X10230976Y10084725D01*
X10231179Y10084944D01*
X10231399Y10085131D01*
X10231585Y10085266D01*
X10231737Y10085367D01*
X10231839Y10085435D01*
X10231855Y10085452D01*
X10231873D01*
X10232211Y10085604D01*
X10232583Y10085706D01*
X10232955Y10085790D01*
X10233311Y10085841D01*
X10233632Y10085875D01*
X10233784D01*
X10233903Y10085892D01*
X10234139D01*
X10234461Y10085875D01*
D02*
G37*
G36*
X10337533Y10086535D02*
X10334961D01*
Y10088294D01*
X10337533D01*
Y10086535D01*
D02*
G37*
G36*
X10350491Y10079024D02*
X10347919D01*
Y10085740D01*
X10350491D01*
Y10079024D01*
D02*
G37*
G36*
Y10086535D02*
X10347919D01*
Y10088294D01*
X10350491D01*
Y10086535D01*
D02*
G37*
G36*
X10108484Y10085875D02*
X10108789Y10085858D01*
X10109077Y10085807D01*
X10109347Y10085740D01*
X10109601Y10085672D01*
X10109821Y10085588D01*
X10110041Y10085486D01*
X10110227Y10085402D01*
X10110396Y10085317D01*
X10110531Y10085215D01*
X10110667Y10085131D01*
X10110768Y10085063D01*
X10110853Y10084996D01*
X10110903Y10084962D01*
X10110938Y10084928D01*
X10110954Y10084911D01*
X10111124Y10084725D01*
X10111276Y10084522D01*
X10111411Y10084319D01*
X10111530Y10084099D01*
X10111631Y10083879D01*
X10111716Y10083676D01*
X10111834Y10083270D01*
X10111868Y10083084D01*
X10111901Y10082915D01*
X10111918Y10082745D01*
X10111935Y10082610D01*
X10111953Y10082509D01*
Y10082424D01*
Y10082374D01*
Y10082357D01*
X10111935Y10081951D01*
X10111868Y10081595D01*
X10111800Y10081257D01*
X10111699Y10080986D01*
X10111614Y10080750D01*
X10111530Y10080580D01*
X10111512Y10080513D01*
X10111479Y10080462D01*
X10111462Y10080445D01*
Y10080428D01*
X10111259Y10080140D01*
X10111056Y10079904D01*
X10110836Y10079700D01*
X10110633Y10079531D01*
X10110464Y10079413D01*
X10110311Y10079312D01*
X10110227Y10079261D01*
X10110193Y10079244D01*
X10109888Y10079125D01*
X10109550Y10079024D01*
X10109195Y10078956D01*
X10108857Y10078923D01*
X10108552Y10078889D01*
X10108434D01*
X10108315Y10078871D01*
X10107808D01*
X10107554Y10078889D01*
X10107300Y10078906D01*
X10107081Y10078939D01*
X10106860Y10078973D01*
X10106674Y10079007D01*
X10106505Y10079058D01*
X10106336Y10079092D01*
X10106201Y10079125D01*
X10106082Y10079176D01*
X10105981Y10079210D01*
X10105896Y10079244D01*
X10105829Y10079278D01*
X10105778Y10079294D01*
X10105761Y10079312D01*
X10105744D01*
X10105439Y10079498D01*
X10105169Y10079717D01*
X10104932Y10079971D01*
X10104729Y10080208D01*
X10104560Y10080428D01*
X10104424Y10080597D01*
X10104391Y10080665D01*
X10104357Y10080715D01*
X10104323Y10080750D01*
Y10080767D01*
X10106860Y10081003D01*
X10106945Y10080885D01*
X10107047Y10080800D01*
X10107114Y10080715D01*
X10107182Y10080665D01*
X10107283Y10080580D01*
X10107300Y10080563D01*
X10107318D01*
X10107452Y10080496D01*
X10107571Y10080462D01*
X10107791Y10080394D01*
X10107892D01*
X10107960Y10080377D01*
X10108028D01*
X10108248Y10080394D01*
X10108434Y10080445D01*
X10108603Y10080513D01*
X10108738Y10080597D01*
X10108857Y10080682D01*
X10108941Y10080750D01*
X10108992Y10080800D01*
X10109009Y10080817D01*
X10109094Y10080953D01*
X10109161Y10081088D01*
X10109263Y10081392D01*
X10109296Y10081528D01*
X10109313Y10081646D01*
X10109330Y10081714D01*
Y10081747D01*
X10104171D01*
Y10082035D01*
X10104188Y10082509D01*
X10104238Y10082932D01*
X10104306Y10083287D01*
X10104391Y10083608D01*
X10104475Y10083845D01*
X10104509Y10083947D01*
X10104543Y10084031D01*
X10104576Y10084099D01*
X10104594Y10084150D01*
X10104611Y10084167D01*
Y10084183D01*
X10104797Y10084471D01*
X10105000Y10084725D01*
X10105203Y10084944D01*
X10105422Y10085131D01*
X10105609Y10085266D01*
X10105761Y10085367D01*
X10105862Y10085435D01*
X10105880Y10085452D01*
X10105896D01*
X10106235Y10085604D01*
X10106606Y10085706D01*
X10106979Y10085790D01*
X10107334Y10085841D01*
X10107656Y10085875D01*
X10107808D01*
X10107926Y10085892D01*
X10108163D01*
X10108484Y10085875D01*
D02*
G37*
%LPC*%
G36*
X10154227Y10084116D02*
X10154142D01*
X10153956Y10084099D01*
X10153770Y10084048D01*
X10153618Y10083981D01*
X10153482Y10083896D01*
X10153381Y10083811D01*
X10153313Y10083744D01*
X10153262Y10083693D01*
X10153245Y10083676D01*
X10153127Y10083507D01*
X10153026Y10083304D01*
X10152958Y10083084D01*
X10152924Y10082881D01*
X10152890Y10082678D01*
X10152873Y10082526D01*
Y10082424D01*
Y10082407D01*
Y10082390D01*
X10152890Y10082052D01*
X10152924Y10081782D01*
X10152991Y10081545D01*
X10153059Y10081359D01*
X10153127Y10081206D01*
X10153195Y10081105D01*
X10153228Y10081037D01*
X10153245Y10081020D01*
X10153381Y10080885D01*
X10153533Y10080783D01*
X10153685Y10080715D01*
X10153837Y10080665D01*
X10153956Y10080631D01*
X10154057Y10080614D01*
X10154159D01*
X10154345Y10080631D01*
X10154531Y10080682D01*
X10154683Y10080750D01*
X10154819Y10080834D01*
X10154920Y10080901D01*
X10155004Y10080969D01*
X10155056Y10081020D01*
X10155072Y10081037D01*
X10155190Y10081223D01*
X10155275Y10081426D01*
X10155343Y10081646D01*
X10155377Y10081849D01*
X10155411Y10082052D01*
X10155427Y10082205D01*
Y10082272D01*
Y10082323D01*
Y10082339D01*
Y10082357D01*
X10155411Y10082661D01*
X10155377Y10082932D01*
X10155309Y10083168D01*
X10155242Y10083354D01*
X10155190Y10083490D01*
X10155123Y10083591D01*
X10155089Y10083659D01*
X10155072Y10083676D01*
X10154920Y10083828D01*
X10154767Y10083929D01*
X10154615Y10084014D01*
X10154464Y10084065D01*
X10154345Y10084099D01*
X10154227Y10084116D01*
D02*
G37*
G36*
X10125435D02*
X10125350D01*
X10125164Y10084099D01*
X10124978Y10084048D01*
X10124825Y10083981D01*
X10124691Y10083896D01*
X10124589Y10083811D01*
X10124521Y10083744D01*
X10124470Y10083693D01*
X10124454Y10083676D01*
X10124335Y10083507D01*
X10124233Y10083304D01*
X10124166Y10083084D01*
X10124132Y10082881D01*
X10124099Y10082678D01*
X10124081Y10082526D01*
Y10082424D01*
Y10082407D01*
Y10082390D01*
X10124099Y10082052D01*
X10124132Y10081782D01*
X10124200Y10081545D01*
X10124268Y10081359D01*
X10124335Y10081206D01*
X10124403Y10081105D01*
X10124437Y10081037D01*
X10124454Y10081020D01*
X10124589Y10080885D01*
X10124741Y10080783D01*
X10124893Y10080715D01*
X10125046Y10080665D01*
X10125164Y10080631D01*
X10125266Y10080614D01*
X10125367D01*
X10125553Y10080631D01*
X10125739Y10080682D01*
X10125891Y10080750D01*
X10126027Y10080834D01*
X10126128Y10080901D01*
X10126213Y10080969D01*
X10126263Y10081020D01*
X10126281Y10081037D01*
X10126399Y10081223D01*
X10126484Y10081426D01*
X10126551Y10081646D01*
X10126585Y10081849D01*
X10126619Y10082052D01*
X10126636Y10082205D01*
Y10082272D01*
Y10082323D01*
Y10082339D01*
Y10082357D01*
X10126619Y10082661D01*
X10126585Y10082932D01*
X10126517Y10083168D01*
X10126450Y10083354D01*
X10126399Y10083490D01*
X10126331Y10083591D01*
X10126298Y10083659D01*
X10126281Y10083676D01*
X10126128Y10083828D01*
X10125976Y10083929D01*
X10125824Y10084014D01*
X10125671Y10084065D01*
X10125553Y10084099D01*
X10125435Y10084116D01*
D02*
G37*
G36*
X10276431Y10072738D02*
X10276396D01*
X10276177Y10072704D01*
X10275990Y10072636D01*
X10275822Y10072535D01*
X10275686Y10072416D01*
X10275585Y10072298D01*
X10275518Y10072197D01*
X10275466Y10072129D01*
X10275449Y10072095D01*
X10275398Y10071960D01*
X10275348Y10071807D01*
X10275297Y10071622D01*
X10275264Y10071436D01*
X10275212Y10071029D01*
X10275161Y10070607D01*
X10275145Y10070234D01*
Y10070048D01*
X10275128Y10069913D01*
Y10069777D01*
Y10069693D01*
Y10069625D01*
Y10069608D01*
Y10069169D01*
X10275145Y10068796D01*
X10275178Y10068475D01*
X10275195Y10068221D01*
X10275229Y10068018D01*
X10275264Y10067883D01*
X10275280Y10067798D01*
Y10067764D01*
X10275331Y10067562D01*
X10275398Y10067375D01*
X10275466Y10067240D01*
X10275533Y10067104D01*
X10275602Y10067020D01*
X10275652Y10066953D01*
X10275686Y10066918D01*
X10275703Y10066902D01*
X10275822Y10066817D01*
X10275940Y10066749D01*
X10276041Y10066699D01*
X10276160Y10066665D01*
X10276244Y10066648D01*
X10276329Y10066631D01*
X10276396D01*
X10276599Y10066665D01*
X10276786Y10066733D01*
X10276938Y10066834D01*
X10277073Y10066953D01*
X10277175Y10067071D01*
X10277242Y10067172D01*
X10277294Y10067240D01*
X10277310Y10067274D01*
X10277361Y10067409D01*
X10277412Y10067562D01*
X10277445Y10067731D01*
X10277479Y10067917D01*
X10277546Y10068323D01*
X10277581Y10068729D01*
X10277598Y10069101D01*
Y10069270D01*
X10277615Y10069406D01*
Y10069524D01*
Y10069608D01*
Y10069676D01*
Y10069693D01*
Y10070014D01*
X10277598Y10070302D01*
X10277581Y10070555D01*
X10277563Y10070809D01*
X10277546Y10071013D01*
X10277531Y10071215D01*
X10277496Y10071384D01*
X10277462Y10071537D01*
X10277445Y10071672D01*
X10277412Y10071791D01*
X10277395Y10071875D01*
X10277378Y10071943D01*
X10277361Y10072010D01*
X10277344Y10072044D01*
X10277327Y10072078D01*
X10277208Y10072298D01*
X10277057Y10072467D01*
X10276904Y10072585D01*
X10276752Y10072653D01*
X10276616Y10072704D01*
X10276498Y10072721D01*
X10276431Y10072738D01*
D02*
G37*
G36*
X10297322D02*
X10297289D01*
X10297069Y10072704D01*
X10296882Y10072636D01*
X10296713Y10072535D01*
X10296578Y10072416D01*
X10296476Y10072298D01*
X10296409Y10072197D01*
X10296357Y10072129D01*
X10296342Y10072095D01*
X10296290Y10071960D01*
X10296239Y10071807D01*
X10296189Y10071622D01*
X10296155Y10071436D01*
X10296105Y10071029D01*
X10296053Y10070607D01*
X10296036Y10070234D01*
Y10070048D01*
X10296019Y10069913D01*
Y10069777D01*
Y10069693D01*
Y10069625D01*
Y10069608D01*
Y10069169D01*
X10296036Y10068796D01*
X10296071Y10068475D01*
X10296088Y10068221D01*
X10296121Y10068018D01*
X10296155Y10067883D01*
X10296172Y10067798D01*
Y10067764D01*
X10296223Y10067562D01*
X10296290Y10067375D01*
X10296357Y10067240D01*
X10296426Y10067104D01*
X10296493Y10067020D01*
X10296544Y10066953D01*
X10296578Y10066918D01*
X10296594Y10066902D01*
X10296713Y10066817D01*
X10296831Y10066749D01*
X10296934Y10066699D01*
X10297052Y10066665D01*
X10297136Y10066648D01*
X10297220Y10066631D01*
X10297289D01*
X10297491Y10066665D01*
X10297677Y10066733D01*
X10297830Y10066834D01*
X10297965Y10066953D01*
X10298066Y10067071D01*
X10298135Y10067172D01*
X10298185Y10067240D01*
X10298202Y10067274D01*
X10298253Y10067409D01*
X10298303Y10067562D01*
X10298337Y10067731D01*
X10298372Y10067917D01*
X10298439Y10068323D01*
X10298473Y10068729D01*
X10298490Y10069101D01*
Y10069270D01*
X10298506Y10069406D01*
Y10069524D01*
Y10069608D01*
Y10069676D01*
Y10069693D01*
Y10070014D01*
X10298490Y10070302D01*
X10298473Y10070555D01*
X10298456Y10070809D01*
X10298439Y10071013D01*
X10298422Y10071215D01*
X10298387Y10071384D01*
X10298354Y10071537D01*
X10298337Y10071672D01*
X10298303Y10071791D01*
X10298286Y10071875D01*
X10298269Y10071943D01*
X10298253Y10072010D01*
X10298236Y10072044D01*
X10298219Y10072078D01*
X10298101Y10072298D01*
X10297948Y10072467D01*
X10297795Y10072585D01*
X10297644Y10072653D01*
X10297509Y10072704D01*
X10297390Y10072721D01*
X10297322Y10072738D01*
D02*
G37*
G36*
X10195046D02*
X10195012D01*
X10194792Y10072704D01*
X10194606Y10072636D01*
X10194437Y10072535D01*
X10194301Y10072416D01*
X10194200Y10072298D01*
X10194132Y10072197D01*
X10194081Y10072129D01*
X10194064Y10072095D01*
X10194014Y10071960D01*
X10193963Y10071807D01*
X10193912Y10071622D01*
X10193878Y10071436D01*
X10193828Y10071029D01*
X10193777Y10070607D01*
X10193760Y10070234D01*
Y10070048D01*
X10193743Y10069913D01*
Y10069777D01*
Y10069693D01*
Y10069625D01*
Y10069608D01*
Y10069169D01*
X10193760Y10068796D01*
X10193794Y10068475D01*
X10193811Y10068221D01*
X10193845Y10068018D01*
X10193878Y10067883D01*
X10193895Y10067798D01*
Y10067764D01*
X10193946Y10067562D01*
X10194014Y10067375D01*
X10194081Y10067240D01*
X10194149Y10067104D01*
X10194217Y10067020D01*
X10194268Y10066953D01*
X10194301Y10066918D01*
X10194318Y10066902D01*
X10194437Y10066817D01*
X10194555Y10066749D01*
X10194656Y10066699D01*
X10194775Y10066665D01*
X10194860Y10066648D01*
X10194944Y10066631D01*
X10195012D01*
X10195215Y10066665D01*
X10195401Y10066733D01*
X10195553Y10066834D01*
X10195688Y10066953D01*
X10195790Y10067071D01*
X10195858Y10067172D01*
X10195908Y10067240D01*
X10195925Y10067274D01*
X10195976Y10067409D01*
X10196027Y10067562D01*
X10196061Y10067731D01*
X10196094Y10067917D01*
X10196162Y10068323D01*
X10196196Y10068729D01*
X10196213Y10069101D01*
Y10069270D01*
X10196230Y10069406D01*
Y10069524D01*
Y10069608D01*
Y10069676D01*
Y10069693D01*
Y10070014D01*
X10196213Y10070302D01*
X10196196Y10070555D01*
X10196179Y10070809D01*
X10196162Y10071013D01*
X10196145Y10071215D01*
X10196111Y10071384D01*
X10196078Y10071537D01*
X10196061Y10071672D01*
X10196027Y10071791D01*
X10196010Y10071875D01*
X10195993Y10071943D01*
X10195976Y10072010D01*
X10195959Y10072044D01*
X10195942Y10072078D01*
X10195824Y10072298D01*
X10195671Y10072467D01*
X10195519Y10072585D01*
X10195367Y10072653D01*
X10195232Y10072704D01*
X10195114Y10072721D01*
X10195046Y10072738D01*
D02*
G37*
G36*
X10186452Y10069253D02*
X10186368D01*
X10186182Y10069236D01*
X10186029Y10069185D01*
X10185877Y10069117D01*
X10185759Y10069050D01*
X10185640Y10068983D01*
X10185573Y10068915D01*
X10185522Y10068864D01*
X10185505Y10068847D01*
X10185386Y10068695D01*
X10185285Y10068526D01*
X10185217Y10068356D01*
X10185183Y10068204D01*
X10185150Y10068069D01*
X10185132Y10067950D01*
Y10067883D01*
Y10067849D01*
X10185150Y10067629D01*
X10185183Y10067443D01*
X10185251Y10067274D01*
X10185319Y10067122D01*
X10185386Y10067003D01*
X10185454Y10066918D01*
X10185488Y10066868D01*
X10185505Y10066851D01*
X10185640Y10066716D01*
X10185792Y10066631D01*
X10185928Y10066563D01*
X10186063Y10066512D01*
X10186182Y10066479D01*
X10186266Y10066462D01*
X10186351D01*
X10186520Y10066479D01*
X10186689Y10066512D01*
X10186824Y10066580D01*
X10186943Y10066648D01*
X10187061Y10066716D01*
X10187129Y10066783D01*
X10187180Y10066817D01*
X10187197Y10066834D01*
X10187315Y10066986D01*
X10187416Y10067155D01*
X10187484Y10067325D01*
X10187518Y10067494D01*
X10187552Y10067629D01*
X10187568Y10067748D01*
Y10067815D01*
Y10067849D01*
X10187552Y10068086D01*
X10187518Y10068272D01*
X10187450Y10068458D01*
X10187382Y10068593D01*
X10187332Y10068712D01*
X10187264Y10068796D01*
X10187230Y10068847D01*
X10187213Y10068864D01*
X10187078Y10068999D01*
X10186926Y10069084D01*
X10186790Y10069152D01*
X10186655Y10069202D01*
X10186537Y10069236D01*
X10186452Y10069253D01*
D02*
G37*
G36*
Y10072873D02*
X10186368D01*
X10186198Y10072856D01*
X10186063Y10072822D01*
X10185928Y10072772D01*
X10185809Y10072721D01*
X10185724Y10072670D01*
X10185657Y10072620D01*
X10185623Y10072585D01*
X10185606Y10072569D01*
X10185505Y10072451D01*
X10185437Y10072315D01*
X10185369Y10072197D01*
X10185336Y10072061D01*
X10185319Y10071960D01*
X10185302Y10071875D01*
Y10071807D01*
Y10071791D01*
X10185319Y10071622D01*
X10185353Y10071486D01*
X10185386Y10071351D01*
X10185437Y10071249D01*
X10185505Y10071165D01*
X10185538Y10071097D01*
X10185573Y10071063D01*
X10185590Y10071046D01*
X10185708Y10070961D01*
X10185826Y10070894D01*
X10185945Y10070843D01*
X10186063Y10070809D01*
X10186182Y10070792D01*
X10186249Y10070776D01*
X10186334D01*
X10186520Y10070792D01*
X10186672Y10070826D01*
X10186807Y10070860D01*
X10186926Y10070928D01*
X10187028Y10070978D01*
X10187095Y10071013D01*
X10187129Y10071046D01*
X10187146Y10071063D01*
X10187247Y10071182D01*
X10187315Y10071300D01*
X10187366Y10071436D01*
X10187399Y10071554D01*
X10187416Y10071655D01*
X10187433Y10071740D01*
Y10071807D01*
Y10071824D01*
X10187416Y10071993D01*
X10187382Y10072129D01*
X10187349Y10072264D01*
X10187281Y10072366D01*
X10187230Y10072451D01*
X10187197Y10072518D01*
X10187162Y10072552D01*
X10187146Y10072569D01*
X10187028Y10072670D01*
X10186892Y10072738D01*
X10186774Y10072806D01*
X10186638Y10072839D01*
X10186537Y10072856D01*
X10186452Y10072873D01*
D02*
G37*
G36*
X10246895Y10072738D02*
X10246860D01*
X10246641Y10072704D01*
X10246455Y10072636D01*
X10246285Y10072535D01*
X10246150Y10072416D01*
X10246049Y10072298D01*
X10245981Y10072197D01*
X10245930Y10072129D01*
X10245913Y10072095D01*
X10245863Y10071960D01*
X10245812Y10071807D01*
X10245760Y10071622D01*
X10245728Y10071436D01*
X10245676Y10071029D01*
X10245626Y10070607D01*
X10245609Y10070234D01*
Y10070048D01*
X10245592Y10069913D01*
Y10069777D01*
Y10069693D01*
Y10069625D01*
Y10069608D01*
Y10069169D01*
X10245609Y10068796D01*
X10245642Y10068475D01*
X10245659Y10068221D01*
X10245693Y10068018D01*
X10245728Y10067883D01*
X10245745Y10067798D01*
Y10067764D01*
X10245795Y10067562D01*
X10245863Y10067375D01*
X10245930Y10067240D01*
X10245997Y10067104D01*
X10246066Y10067020D01*
X10246116Y10066953D01*
X10246150Y10066918D01*
X10246167Y10066902D01*
X10246285Y10066817D01*
X10246404Y10066749D01*
X10246505Y10066699D01*
X10246624Y10066665D01*
X10246708Y10066648D01*
X10246793Y10066631D01*
X10246860D01*
X10247064Y10066665D01*
X10247250Y10066733D01*
X10247402Y10066834D01*
X10247537Y10066953D01*
X10247639Y10067071D01*
X10247706Y10067172D01*
X10247758Y10067240D01*
X10247775Y10067274D01*
X10247825Y10067409D01*
X10247876Y10067562D01*
X10247909Y10067731D01*
X10247943Y10067917D01*
X10248011Y10068323D01*
X10248044Y10068729D01*
X10248062Y10069101D01*
Y10069270D01*
X10248079Y10069406D01*
Y10069524D01*
Y10069608D01*
Y10069676D01*
Y10069693D01*
Y10070014D01*
X10248062Y10070302D01*
X10248044Y10070555D01*
X10248027Y10070809D01*
X10248011Y10071013D01*
X10247994Y10071215D01*
X10247960Y10071384D01*
X10247926Y10071537D01*
X10247909Y10071672D01*
X10247876Y10071791D01*
X10247859Y10071875D01*
X10247842Y10071943D01*
X10247825Y10072010D01*
X10247808Y10072044D01*
X10247791Y10072078D01*
X10247672Y10072298D01*
X10247521Y10072467D01*
X10247368Y10072585D01*
X10247216Y10072653D01*
X10247080Y10072704D01*
X10246962Y10072721D01*
X10246895Y10072738D01*
D02*
G37*
G36*
X10229606D02*
X10229572D01*
X10229352Y10072704D01*
X10229166Y10072636D01*
X10228997Y10072535D01*
X10228862Y10072416D01*
X10228760Y10072298D01*
X10228693Y10072197D01*
X10228641Y10072129D01*
X10228625Y10072095D01*
X10228574Y10071960D01*
X10228523Y10071807D01*
X10228472Y10071622D01*
X10228439Y10071436D01*
X10228388Y10071029D01*
X10228337Y10070607D01*
X10228320Y10070234D01*
Y10070048D01*
X10228303Y10069913D01*
Y10069777D01*
Y10069693D01*
Y10069625D01*
Y10069608D01*
Y10069169D01*
X10228320Y10068796D01*
X10228354Y10068475D01*
X10228371Y10068221D01*
X10228405Y10068018D01*
X10228439Y10067883D01*
X10228455Y10067798D01*
Y10067764D01*
X10228506Y10067562D01*
X10228574Y10067375D01*
X10228641Y10067240D01*
X10228709Y10067104D01*
X10228777Y10067020D01*
X10228828Y10066953D01*
X10228862Y10066918D01*
X10228878Y10066902D01*
X10228997Y10066817D01*
X10229116Y10066749D01*
X10229217Y10066699D01*
X10229335Y10066665D01*
X10229420Y10066648D01*
X10229504Y10066631D01*
X10229572D01*
X10229775Y10066665D01*
X10229961Y10066733D01*
X10230114Y10066834D01*
X10230248Y10066953D01*
X10230350Y10067071D01*
X10230418Y10067172D01*
X10230469Y10067240D01*
X10230485Y10067274D01*
X10230536Y10067409D01*
X10230587Y10067562D01*
X10230621Y10067731D01*
X10230655Y10067917D01*
X10230722Y10068323D01*
X10230756Y10068729D01*
X10230773Y10069101D01*
Y10069270D01*
X10230790Y10069406D01*
Y10069524D01*
Y10069608D01*
Y10069676D01*
Y10069693D01*
Y10070014D01*
X10230773Y10070302D01*
X10230756Y10070555D01*
X10230739Y10070809D01*
X10230722Y10071013D01*
X10230706Y10071215D01*
X10230671Y10071384D01*
X10230638Y10071537D01*
X10230621Y10071672D01*
X10230587Y10071791D01*
X10230570Y10071875D01*
X10230553Y10071943D01*
X10230536Y10072010D01*
X10230519Y10072044D01*
X10230502Y10072078D01*
X10230384Y10072298D01*
X10230232Y10072467D01*
X10230079Y10072585D01*
X10229927Y10072653D01*
X10229792Y10072704D01*
X10229673Y10072721D01*
X10229606Y10072738D01*
D02*
G37*
G36*
X10199799Y10084031D02*
X10199714D01*
X10199545Y10084014D01*
X10199376Y10083964D01*
X10199241Y10083896D01*
X10199122Y10083828D01*
X10199021Y10083760D01*
X10198953Y10083693D01*
X10198903Y10083642D01*
X10198885Y10083625D01*
X10198767Y10083473D01*
X10198683Y10083287D01*
X10198615Y10083101D01*
X10198581Y10082915D01*
X10198547Y10082762D01*
X10198530Y10082627D01*
Y10082543D01*
Y10082526D01*
Y10082509D01*
X10198547Y10082255D01*
X10198581Y10082018D01*
X10198632Y10081832D01*
X10198699Y10081680D01*
X10198767Y10081545D01*
X10198818Y10081460D01*
X10198852Y10081409D01*
X10198869Y10081392D01*
X10198987Y10081274D01*
X10199122Y10081190D01*
X10199275Y10081122D01*
X10199393Y10081088D01*
X10199512Y10081054D01*
X10199596Y10081037D01*
X10199681D01*
X10199867Y10081054D01*
X10200019Y10081088D01*
X10200154Y10081138D01*
X10200273Y10081206D01*
X10200374Y10081274D01*
X10200442Y10081324D01*
X10200476Y10081359D01*
X10200493Y10081375D01*
X10200594Y10081528D01*
X10200662Y10081697D01*
X10200729Y10081883D01*
X10200764Y10082052D01*
X10200780Y10082221D01*
X10200797Y10082357D01*
Y10082441D01*
Y10082475D01*
X10200780Y10082762D01*
X10200746Y10083016D01*
X10200713Y10083220D01*
X10200645Y10083372D01*
X10200594Y10083507D01*
X10200560Y10083591D01*
X10200527Y10083642D01*
X10200510Y10083659D01*
X10200391Y10083777D01*
X10200256Y10083879D01*
X10200137Y10083947D01*
X10200002Y10083981D01*
X10199883Y10084014D01*
X10199799Y10084031D01*
D02*
G37*
G36*
X10269021Y10082205D02*
X10269004D01*
Y10081782D01*
Y10081612D01*
X10269038Y10081460D01*
X10269055Y10081324D01*
X10269088Y10081223D01*
X10269122Y10081122D01*
X10269139Y10081054D01*
X10269174Y10081020D01*
Y10081003D01*
X10269241Y10080901D01*
X10269326Y10080800D01*
X10269495Y10080648D01*
X10269579Y10080597D01*
X10269630Y10080546D01*
X10269681Y10080530D01*
X10269697Y10080513D01*
X10269833Y10080445D01*
X10269985Y10080394D01*
X10270121Y10080360D01*
X10270239Y10080344D01*
X10270341Y10080327D01*
X10270425Y10080309D01*
X10270493D01*
X10270629Y10080327D01*
X10270763Y10080344D01*
X10270865Y10080377D01*
X10270950Y10080411D01*
X10271034Y10080445D01*
X10271085Y10080462D01*
X10271102Y10080496D01*
X10271118D01*
X10271187Y10080563D01*
X10271237Y10080648D01*
X10271288Y10080817D01*
X10271305Y10080885D01*
X10271322Y10080936D01*
Y10080969D01*
Y10080986D01*
X10271305Y10081088D01*
X10271288Y10081172D01*
X10271221Y10081324D01*
X10271152Y10081426D01*
X10271118Y10081443D01*
Y10081460D01*
X10271017Y10081545D01*
X10270865Y10081612D01*
X10270713Y10081680D01*
X10270543Y10081747D01*
X10270375Y10081798D01*
X10270239Y10081832D01*
X10270155Y10081849D01*
X10270121Y10081866D01*
X10269697Y10081984D01*
X10269512Y10082035D01*
X10269342Y10082086D01*
X10269207Y10082137D01*
X10269088Y10082170D01*
X10269021Y10082205D01*
D02*
G37*
G36*
X10225495Y10084370D02*
X10225394D01*
X10225208Y10084352D01*
X10225021Y10084319D01*
X10224886Y10084268D01*
X10224751Y10084200D01*
X10224666Y10084133D01*
X10224582Y10084082D01*
X10224548Y10084048D01*
X10224531Y10084031D01*
X10224412Y10083896D01*
X10224328Y10083727D01*
X10224260Y10083558D01*
X10224210Y10083389D01*
X10224175Y10083236D01*
X10224142Y10083101D01*
X10224125Y10083016D01*
Y10082999D01*
Y10082982D01*
X10226663D01*
X10226628Y10083185D01*
X10226595Y10083372D01*
X10226544Y10083524D01*
X10226493Y10083659D01*
X10226442Y10083744D01*
X10226409Y10083828D01*
X10226392Y10083862D01*
X10226375Y10083879D01*
X10226223Y10084048D01*
X10226071Y10084167D01*
X10225901Y10084251D01*
X10225749Y10084302D01*
X10225613Y10084352D01*
X10225495Y10084370D01*
D02*
G37*
G36*
X10234139D02*
X10234038D01*
X10233852Y10084352D01*
X10233666Y10084319D01*
X10233530Y10084268D01*
X10233395Y10084200D01*
X10233311Y10084133D01*
X10233226Y10084082D01*
X10233192Y10084048D01*
X10233175Y10084031D01*
X10233057Y10083896D01*
X10232972Y10083727D01*
X10232905Y10083558D01*
X10232854Y10083389D01*
X10232820Y10083236D01*
X10232786Y10083101D01*
X10232769Y10083016D01*
Y10082999D01*
Y10082982D01*
X10235306D01*
X10235273Y10083185D01*
X10235239Y10083372D01*
X10235189Y10083524D01*
X10235137Y10083659D01*
X10235087Y10083744D01*
X10235053Y10083828D01*
X10235036Y10083862D01*
X10235019Y10083879D01*
X10234867Y10084048D01*
X10234714Y10084167D01*
X10234545Y10084251D01*
X10234393Y10084302D01*
X10234258Y10084352D01*
X10234139Y10084370D01*
D02*
G37*
G36*
X10108163D02*
X10108062D01*
X10107875Y10084352D01*
X10107689Y10084319D01*
X10107554Y10084268D01*
X10107419Y10084200D01*
X10107334Y10084133D01*
X10107250Y10084082D01*
X10107216Y10084048D01*
X10107199Y10084031D01*
X10107081Y10083896D01*
X10106996Y10083727D01*
X10106928Y10083558D01*
X10106877Y10083389D01*
X10106843Y10083236D01*
X10106810Y10083101D01*
X10106793Y10083016D01*
Y10082999D01*
Y10082982D01*
X10109330D01*
X10109296Y10083185D01*
X10109263Y10083372D01*
X10109212Y10083524D01*
X10109161Y10083659D01*
X10109110Y10083744D01*
X10109077Y10083828D01*
X10109059Y10083862D01*
X10109043Y10083879D01*
X10108890Y10084048D01*
X10108738Y10084167D01*
X10108569Y10084251D01*
X10108417Y10084302D01*
X10108281Y10084352D01*
X10108163Y10084370D01*
D02*
G37*
%LPD*%
M02*
