M48
;Layer_Color=9474304
;FILE_FORMAT=4:4
METRIC
;TYPE=PLATED
T1F00S00C0.4000
T2F00S00C0.5000
T3F00S00C1.0000
T4F00S00C1.2000
T5F00S00C1.4000
T7F00S00C3.0000
%
T01
X10082087Y10244836
X10081500Y10173561
Y10102288
T02
X10447168Y10222992
X10406888Y10240656
X10397288Y10249154
X10409427Y10174060
Y10165678
Y10157296
X10429240
Y10165678
Y10174060
X10447168Y10108184
X10193500Y10109454
Y10117074
X10177018Y10165676
X10199294Y10207498
X10212872Y10237000
X10220960
X10229596
Y10246868
X10220960
X10212872
X10190596Y10253726
X10151110Y10290302
X10141204
Y10300970
X10151110
X10082276Y10301224
X10072878
X10096500Y10270236
X10079990Y10189718
X10071926
X10063861
X10055797
X10047732
Y10137211
X10055599
X10063466
X10071333
X10079200
Y10119272
X10071333
X10063466
X10055599
X10047732
Y10066530
X10055486Y10066530
X10063241
X10070995
X10078750
X10078750Y10047780
X10070995
X10063241
X10063241Y10038842
X10070995
X10078750
X10128504Y10032746
X10137648
Y10040874
X10146316Y10040961
Y10032746
X10154984
Y10040961
X10163651
Y10032746
X10172319
Y10040961
X10248138Y10313416
X10257318
X10266499
X10275679
X10284860
X10294039
X10303219
X10312400
T03
X10430593Y10062464
Y10037064
Y10011664
X10405193
Y10037064
Y10062464
X10200132Y10017750
X10181032
T04
X10101632Y10018258
X10073132
T05
X10157968Y10017750
X10132060Y10018004
T07
X10470000Y10300000
Y10030000
X10030000
Y10300000
M30
