G04 Layer_Physical_Order=2*
G04 Layer_Color=16711680*
%FSAX44Y44*%
%MOMM*%
G71*
G01*
G75*
%ADD26C,0.1270*%
G04:AMPARAMS|DCode=31|XSize=1.27mm|YSize=2.2mm|CornerRadius=0.635mm|HoleSize=0mm|Usage=FLASHONLY|Rotation=0.000|XOffset=0mm|YOffset=0mm|HoleType=Round|Shape=RoundedRectangle|*
%AMROUNDEDRECTD31*
21,1,1.2700,0.9300,0,0,0.0*
21,1,0.0000,2.2000,0,0,0.0*
1,1,1.2700,0.0000,-0.4650*
1,1,1.2700,0.0000,-0.4650*
1,1,1.2700,0.0000,0.4650*
1,1,1.2700,0.0000,0.4650*
%
%ADD31ROUNDEDRECTD31*%
G04:AMPARAMS|DCode=32|XSize=2mm|YSize=2mm|CornerRadius=0.5mm|HoleSize=0mm|Usage=FLASHONLY|Rotation=0.000|XOffset=0mm|YOffset=0mm|HoleType=Round|Shape=RoundedRectangle|*
%AMROUNDEDRECTD32*
21,1,2.0000,1.0000,0,0,0.0*
21,1,1.0000,2.0000,0,0,0.0*
1,1,1.0000,0.5000,-0.5000*
1,1,1.0000,-0.5000,-0.5000*
1,1,1.0000,-0.5000,0.5000*
1,1,1.0000,0.5000,0.5000*
%
%ADD32ROUNDEDRECTD32*%
%ADD33C,3.5000*%
%ADD34O,3.0000X2.0000*%
%ADD35C,1.5000*%
G04:AMPARAMS|DCode=36|XSize=1.5mm|YSize=1.5mm|CornerRadius=0.15mm|HoleSize=0mm|Usage=FLASHONLY|Rotation=180.000|XOffset=0mm|YOffset=0mm|HoleType=Round|Shape=RoundedRectangle|*
%AMROUNDEDRECTD36*
21,1,1.5000,1.2000,0,0,180.0*
21,1,1.2000,1.5000,0,0,180.0*
1,1,0.3000,-0.6000,0.6000*
1,1,0.3000,0.6000,0.6000*
1,1,0.3000,0.6000,-0.6000*
1,1,0.3000,-0.6000,-0.6000*
%
%ADD36ROUNDEDRECTD36*%
G04:AMPARAMS|DCode=37|XSize=2mm|YSize=2mm|CornerRadius=0.2mm|HoleSize=0mm|Usage=FLASHONLY|Rotation=0.000|XOffset=0mm|YOffset=0mm|HoleType=Round|Shape=RoundedRectangle|*
%AMROUNDEDRECTD37*
21,1,2.0000,1.6000,0,0,0.0*
21,1,1.6000,2.0000,0,0,0.0*
1,1,0.4000,0.8000,-0.8000*
1,1,0.4000,-0.8000,-0.8000*
1,1,0.4000,-0.8000,0.8000*
1,1,0.4000,0.8000,0.8000*
%
%ADD37ROUNDEDRECTD37*%
%ADD38C,2.0000*%
%ADD39C,0.7000*%
%ADD40C,0.5000*%
G36*
X10474263Y10328213D02*
X10478621Y10327166D01*
X10482761Y10325450D01*
X10486583Y10323109D01*
X10489991Y10320198D01*
X10492903Y10316790D01*
X10495244Y10312968D01*
X10496960Y10308827D01*
X10498007Y10304469D01*
X10498259Y10301261D01*
X10498281Y10300000D01*
D01*
X10498282Y10298732D01*
Y10030000D01*
X10498346Y10029846D01*
X10498007Y10025532D01*
X10496960Y10021173D01*
X10495245Y10017032D01*
X10492903Y10013210D01*
X10489991Y10009802D01*
X10486583Y10006891D01*
X10482761Y10004550D01*
X10478621Y10002834D01*
X10474263Y10001788D01*
X10471055Y10001535D01*
X10469794Y10001512D01*
D01*
X10468525Y10001512D01*
X10380845D01*
Y10057227D01*
X10380442Y10058199D01*
X10379469Y10058602D01*
X10216392D01*
X10215419Y10058199D01*
X10215017Y10057227D01*
Y10001512D01*
X10029794D01*
X10029639Y10001448D01*
X10025325Y10001788D01*
X10020967Y10002834D01*
X10016826Y10004549D01*
X10013005Y10006891D01*
X10009596Y10009802D01*
X10006685Y10013210D01*
X10004343Y10017032D01*
X10002628Y10021173D01*
X10001581Y10025532D01*
X10001242Y10029846D01*
X10001306Y10030000D01*
Y10300000D01*
X10001242Y10300155D01*
X10001581Y10304469D01*
X10002628Y10308827D01*
X10004343Y10312968D01*
X10006685Y10316790D01*
X10009596Y10320198D01*
X10013004Y10323109D01*
X10016826Y10325450D01*
X10020967Y10327166D01*
X10025325Y10328213D01*
X10029639Y10328552D01*
X10029794Y10328488D01*
X10469794D01*
X10469949Y10328552D01*
X10474263Y10328213D01*
D02*
G37*
%LPC*%
G36*
X10082087Y10248680D02*
X10080616Y10248387D01*
X10079370Y10247554D01*
X10078536Y10246307D01*
X10078244Y10244836D01*
X10078536Y10243365D01*
X10079370Y10242118D01*
X10080616Y10241284D01*
X10082087Y10240992D01*
X10083558Y10241284D01*
X10084806Y10242118D01*
X10086058Y10241705D01*
Y10203183D01*
X10084788Y10202271D01*
X10083550Y10202518D01*
X10043000D01*
X10041018Y10202123D01*
X10039338Y10201000D01*
X10038215Y10199320D01*
X10037820Y10197338D01*
X10037820Y10140267D01*
X10033171Y10137219D01*
X10032972Y10137023D01*
X10032726Y10136891D01*
X10032527Y10136728D01*
X10032170Y10136537D01*
X10031989Y10136389D01*
X10031771Y10136301D01*
X10028890Y10134412D01*
X10028510Y10134038D01*
X10028068Y10133743D01*
X10027797Y10133337D01*
X10027449Y10132995D01*
X10027241Y10132505D01*
X10026945Y10132062D01*
X10026849Y10131584D01*
X10026659Y10131135D01*
X10026654Y10130602D01*
X10026550Y10130080D01*
Y10060820D01*
X10026659Y10060276D01*
X10026669Y10059721D01*
X10026854Y10059294D01*
X10026945Y10058838D01*
X10027253Y10058376D01*
X10027474Y10057868D01*
X10034282Y10048054D01*
X10034797Y10047556D01*
X10035252Y10047002D01*
X10035518Y10046860D01*
X10035735Y10046650D01*
X10036108Y10046503D01*
X10036241Y10046394D01*
X10039714Y10044538D01*
X10042363Y10042363D01*
X10044538Y10039714D01*
X10046154Y10036691D01*
X10047148Y10033411D01*
X10047465Y10030197D01*
X10047553Y10029908D01*
X10047558Y10029606D01*
X10047844Y10028949D01*
X10048052Y10028263D01*
X10048243Y10028030D01*
X10048364Y10027753D01*
X10059814Y10011246D01*
X10060207Y10010509D01*
X10060570Y10010065D01*
X10060852Y10009567D01*
X10062337Y10007842D01*
X10062789Y10007488D01*
X10063173Y10007064D01*
X10065000Y10005706D01*
X10065518Y10005461D01*
X10065986Y10005130D01*
X10068066Y10004207D01*
X10068625Y10004080D01*
X10069155Y10003860D01*
X10071387Y10003415D01*
X10071960Y10003414D01*
X10072525Y10003316D01*
X10074800Y10003371D01*
X10075359Y10003496D01*
X10075932Y10003524D01*
X10078140Y10004076D01*
X10078658Y10004321D01*
X10079211Y10004473D01*
X10081244Y10005496D01*
X10081696Y10005848D01*
X10082202Y10006118D01*
X10083962Y10007562D01*
X10084326Y10008004D01*
X10084760Y10008379D01*
X10086160Y10010173D01*
X10086418Y10010685D01*
X10086760Y10011145D01*
X10087733Y10013202D01*
X10087872Y10013759D01*
X10088105Y10014282D01*
X10088604Y10016503D01*
X10088618Y10017076D01*
X10088729Y10017639D01*
X10088729Y10018776D01*
X10088729Y10018776D01*
Y10097713D01*
X10088640Y10098162D01*
X10088650Y10098619D01*
X10088445Y10099143D01*
X10088335Y10099695D01*
X10088327Y10099707D01*
X10087874Y10100915D01*
X10089373Y10102415D01*
X10089794Y10103045D01*
X10089942Y10103788D01*
Y10172061D01*
X10089794Y10172805D01*
X10089373Y10173434D01*
X10089247Y10173561D01*
X10089373Y10173688D01*
X10089794Y10174318D01*
X10089942Y10175061D01*
Y10243430D01*
X10089794Y10244174D01*
X10089373Y10244803D01*
X10089373Y10244803D01*
X10087968Y10246210D01*
X10087337Y10246631D01*
X10086594Y10246779D01*
X10085324D01*
X10084806Y10247554D01*
X10083558Y10248387D01*
X10082087Y10248680D01*
D02*
G37*
G36*
X10429240Y10178923D02*
X10427379Y10178553D01*
X10425801Y10177499D01*
X10424747Y10175921D01*
X10424376Y10174060D01*
X10424747Y10172199D01*
X10424996Y10171825D01*
X10423331Y10170161D01*
X10415336D01*
X10413672Y10171825D01*
X10413921Y10172199D01*
X10414292Y10174060D01*
X10413921Y10175921D01*
X10412867Y10177499D01*
X10411289Y10178553D01*
X10409427Y10178923D01*
X10407567Y10178553D01*
X10405989Y10177499D01*
X10404935Y10175921D01*
X10404564Y10174060D01*
X10404935Y10172199D01*
X10405989Y10170621D01*
X10406165Y10170504D01*
Y10169234D01*
X10405989Y10169117D01*
X10404935Y10167539D01*
X10404564Y10165678D01*
X10404935Y10163817D01*
X10405989Y10162239D01*
X10406165Y10162122D01*
Y10160852D01*
X10405989Y10160735D01*
X10404935Y10159157D01*
X10404564Y10157296D01*
X10404935Y10155435D01*
X10405989Y10153857D01*
X10407567Y10152803D01*
X10409427Y10152433D01*
X10411289Y10152803D01*
X10412867Y10153857D01*
X10413921Y10155435D01*
X10414292Y10157296D01*
X10413921Y10159157D01*
X10413672Y10159531D01*
X10415336Y10161196D01*
X10423331D01*
X10424996Y10159531D01*
X10424747Y10159157D01*
X10424376Y10157296D01*
X10424747Y10155435D01*
X10425801Y10153857D01*
X10427379Y10152803D01*
X10429240Y10152433D01*
X10431101Y10152803D01*
X10432679Y10153857D01*
X10433733Y10155435D01*
X10434104Y10157296D01*
X10433733Y10159157D01*
X10432679Y10160735D01*
X10432504Y10160852D01*
Y10162122D01*
X10432679Y10162239D01*
X10433733Y10163817D01*
X10434104Y10165678D01*
X10433733Y10167539D01*
X10432679Y10169117D01*
X10432504Y10169234D01*
Y10170504D01*
X10432679Y10170621D01*
X10433733Y10172199D01*
X10434104Y10174060D01*
X10433733Y10175921D01*
X10432679Y10177499D01*
X10431101Y10178553D01*
X10429240Y10178923D01*
D02*
G37*
G36*
X10430593Y10071310D02*
X10428304Y10071008D01*
X10426171Y10070125D01*
X10424338Y10068719D01*
X10422933Y10066887D01*
X10422050Y10064753D01*
X10421748Y10062464D01*
X10422050Y10060175D01*
X10422933Y10058041D01*
X10424338Y10056209D01*
X10426171Y10054803D01*
X10428304Y10053920D01*
X10430593Y10053618D01*
X10432883Y10053920D01*
X10435016Y10054803D01*
X10436848Y10056209D01*
X10438254Y10058041D01*
X10439138Y10060175D01*
X10439438Y10062464D01*
X10439138Y10064753D01*
X10438254Y10066887D01*
X10436848Y10068719D01*
X10435016Y10070125D01*
X10432883Y10071008D01*
X10430593Y10071310D01*
D02*
G37*
G36*
X10405193D02*
X10402904Y10071008D01*
X10400770Y10070125D01*
X10398939Y10068719D01*
X10397533Y10066887D01*
X10396649Y10064753D01*
X10396348Y10062464D01*
X10396649Y10060175D01*
X10397533Y10058041D01*
X10398939Y10056209D01*
X10400770Y10054803D01*
X10402904Y10053920D01*
X10405193Y10053618D01*
X10407483Y10053920D01*
X10409617Y10054803D01*
X10411448Y10056209D01*
X10412854Y10058041D01*
X10413738Y10060175D01*
X10414039Y10062464D01*
X10413738Y10064753D01*
X10412854Y10066887D01*
X10411448Y10068719D01*
X10409617Y10070125D01*
X10407483Y10071008D01*
X10405193Y10071310D01*
D02*
G37*
G36*
X10436593Y10045888D02*
X10435673D01*
Y10042144D01*
X10439418D01*
Y10043064D01*
X10439203Y10044145D01*
X10438590Y10045061D01*
X10437675Y10045673D01*
X10436593Y10045888D01*
D02*
G37*
G36*
X10425513D02*
X10424594D01*
X10423513Y10045673D01*
X10422596Y10045061D01*
X10421984Y10044145D01*
X10421769Y10043064D01*
Y10042144D01*
X10425513D01*
Y10045888D01*
D02*
G37*
G36*
X10439418Y10031984D02*
X10435673D01*
Y10028240D01*
X10436593D01*
X10437675Y10028455D01*
X10438590Y10029067D01*
X10439203Y10029983D01*
X10439418Y10031064D01*
Y10031984D01*
D02*
G37*
G36*
X10425513D02*
X10421769D01*
Y10031064D01*
X10421984Y10029983D01*
X10422596Y10029067D01*
X10423513Y10028455D01*
X10424594Y10028240D01*
X10425513D01*
Y10031984D01*
D02*
G37*
G36*
X10405193Y10045909D02*
X10402904Y10045609D01*
X10400770Y10044725D01*
X10398939Y10043319D01*
X10397533Y10041487D01*
X10396649Y10039354D01*
X10396348Y10037064D01*
X10396649Y10034775D01*
X10397533Y10032641D01*
X10398939Y10030809D01*
X10400770Y10029404D01*
X10402904Y10028520D01*
X10405193Y10028218D01*
X10407483Y10028520D01*
X10409617Y10029404D01*
X10411448Y10030809D01*
X10412854Y10032641D01*
X10413738Y10034775D01*
X10414039Y10037064D01*
X10413738Y10039354D01*
X10412854Y10041487D01*
X10411448Y10043319D01*
X10409617Y10044725D01*
X10407483Y10045609D01*
X10405193Y10045909D01*
D02*
G37*
G36*
X10137140Y10029381D02*
Y10023084D01*
X10143437D01*
X10142966Y10025450D01*
X10141580Y10027524D01*
X10139506Y10028911D01*
X10137140Y10029381D01*
D02*
G37*
G36*
X10126980D02*
X10124614Y10028911D01*
X10122540Y10027524D01*
X10121154Y10025450D01*
X10120683Y10023084D01*
X10126980D01*
Y10029381D01*
D02*
G37*
G36*
X10163048Y10029127D02*
Y10022830D01*
X10169345D01*
X10168874Y10025197D01*
X10167488Y10027271D01*
X10165414Y10028656D01*
X10163048Y10029127D01*
D02*
G37*
G36*
X10152888D02*
X10150522Y10028656D01*
X10148448Y10027271D01*
X10147062Y10025197D01*
X10146591Y10022830D01*
X10152888D01*
Y10029127D01*
D02*
G37*
G36*
X10109632Y10029592D02*
X10093632D01*
X10092356Y10029338D01*
X10091274Y10028616D01*
X10090552Y10027534D01*
X10090298Y10026258D01*
Y10010258D01*
X10090552Y10008982D01*
X10091274Y10007900D01*
X10092356Y10007178D01*
X10093632Y10006924D01*
X10109632D01*
X10110908Y10007178D01*
X10111990Y10007900D01*
X10112712Y10008982D01*
X10112966Y10010258D01*
Y10026258D01*
X10112712Y10027534D01*
X10111990Y10028616D01*
X10110908Y10029338D01*
X10109632Y10029592D01*
D02*
G37*
G36*
X10143437Y10012924D02*
X10137140D01*
Y10006627D01*
X10139506Y10007098D01*
X10141580Y10008484D01*
X10142966Y10010558D01*
X10143437Y10012924D01*
D02*
G37*
G36*
X10126980D02*
X10120683D01*
X10121154Y10010558D01*
X10122540Y10008484D01*
X10124614Y10007098D01*
X10126980Y10006627D01*
Y10012924D01*
D02*
G37*
G36*
X10169345Y10012670D02*
X10163048D01*
Y10006373D01*
X10165414Y10006844D01*
X10167488Y10008229D01*
X10168874Y10010303D01*
X10169345Y10012670D01*
D02*
G37*
G36*
X10152888D02*
X10146591D01*
X10147062Y10010303D01*
X10148448Y10008229D01*
X10150522Y10006844D01*
X10152888Y10006373D01*
Y10012670D01*
D02*
G37*
G36*
X10200132Y10030086D02*
X10198143Y10029824D01*
X10196289Y10029056D01*
X10194697Y10027834D01*
X10193476Y10026243D01*
X10192708Y10024389D01*
X10192446Y10022400D01*
Y10013100D01*
X10192708Y10011111D01*
X10193476Y10009257D01*
X10194697Y10007665D01*
X10196289Y10006444D01*
X10198143Y10005676D01*
X10200132Y10005414D01*
X10202121Y10005676D01*
X10203975Y10006444D01*
X10205566Y10007665D01*
X10206788Y10009257D01*
X10207556Y10011111D01*
X10207818Y10013100D01*
Y10022400D01*
X10207556Y10024389D01*
X10206788Y10026243D01*
X10205566Y10027834D01*
X10203975Y10029056D01*
X10202121Y10029824D01*
X10200132Y10030086D01*
D02*
G37*
G36*
X10181032D02*
X10179043Y10029824D01*
X10177189Y10029056D01*
X10175598Y10027834D01*
X10174376Y10026243D01*
X10173608Y10024389D01*
X10173346Y10022400D01*
Y10013100D01*
X10173608Y10011111D01*
X10174376Y10009257D01*
X10175598Y10007665D01*
X10177189Y10006444D01*
X10179043Y10005676D01*
X10181032Y10005414D01*
X10183021Y10005676D01*
X10184875Y10006444D01*
X10186467Y10007665D01*
X10187688Y10009257D01*
X10188456Y10011111D01*
X10188718Y10013100D01*
Y10022400D01*
X10188456Y10024389D01*
X10187688Y10026243D01*
X10186467Y10027834D01*
X10184875Y10029056D01*
X10183021Y10029824D01*
X10181032Y10030086D01*
D02*
G37*
G36*
X10430593Y10020510D02*
X10428304Y10020208D01*
X10426171Y10019324D01*
X10424338Y10017919D01*
X10422933Y10016087D01*
X10422050Y10013953D01*
X10421748Y10011664D01*
X10422050Y10009374D01*
X10422933Y10007241D01*
X10424338Y10005409D01*
X10426171Y10004003D01*
X10428304Y10003120D01*
X10430593Y10002819D01*
X10432883Y10003120D01*
X10435016Y10004003D01*
X10436848Y10005409D01*
X10438254Y10007241D01*
X10439138Y10009374D01*
X10439438Y10011664D01*
X10439138Y10013953D01*
X10438254Y10016087D01*
X10436848Y10017919D01*
X10435016Y10019324D01*
X10432883Y10020208D01*
X10430593Y10020510D01*
D02*
G37*
G36*
X10405193D02*
X10402904Y10020208D01*
X10400770Y10019324D01*
X10398939Y10017919D01*
X10397533Y10016087D01*
X10396649Y10013953D01*
X10396348Y10011664D01*
X10396649Y10009374D01*
X10397533Y10007241D01*
X10398939Y10005409D01*
X10400770Y10004003D01*
X10402904Y10003120D01*
X10405193Y10002819D01*
X10407483Y10003120D01*
X10409617Y10004003D01*
X10411448Y10005409D01*
X10412854Y10007241D01*
X10413738Y10009374D01*
X10414039Y10011664D01*
X10413738Y10013953D01*
X10412854Y10016087D01*
X10411448Y10017919D01*
X10409617Y10019324D01*
X10407483Y10020208D01*
X10405193Y10020510D01*
D02*
G37*
%LPD*%
G36*
X10083550Y10178137D02*
X10082280Y10177250D01*
X10081500Y10177405D01*
X10080029Y10177112D01*
X10078782Y10176279D01*
X10077949Y10175032D01*
X10077656Y10173561D01*
X10077949Y10172090D01*
X10078782Y10170843D01*
X10080029Y10170010D01*
X10081500Y10169717D01*
X10082280Y10169872D01*
X10083550Y10168986D01*
Y10106864D01*
X10082280Y10105977D01*
X10081500Y10106132D01*
X10080029Y10105840D01*
X10078782Y10105007D01*
X10077949Y10103760D01*
X10077656Y10102288D01*
X10077949Y10100817D01*
X10078782Y10099570D01*
X10080029Y10098737D01*
X10081500Y10098445D01*
X10082280Y10098600D01*
X10083550Y10097713D01*
Y10018776D01*
X10083550D01*
X10083550Y10017638D01*
X10083051Y10015417D01*
X10082078Y10013360D01*
X10080677Y10011566D01*
X10078917Y10010123D01*
X10076884Y10009101D01*
X10074676Y10008549D01*
X10072401Y10008494D01*
X10070169Y10008940D01*
X10068089Y10009864D01*
X10066262Y10011221D01*
X10064777Y10012946D01*
X10064242Y10013950D01*
X10052620Y10030705D01*
X10052253Y10034426D01*
X10050962Y10038683D01*
X10048865Y10042606D01*
X10046044Y10046044D01*
X10042606Y10048865D01*
X10038683Y10050962D01*
X10038538Y10051006D01*
X10031730Y10060820D01*
Y10130080D01*
X10034612Y10131970D01*
X10035419Y10132401D01*
X10036011Y10132888D01*
X10043000Y10137470D01*
X10043000Y10197338D01*
X10083550D01*
Y10178137D01*
D02*
G37*
D26*
X10086500Y10102288D02*
X10088000Y10103788D01*
Y10172061D01*
X10086500Y10173561D02*
X10088000Y10172061D01*
X10086500Y10173561D02*
X10088000Y10175061D01*
X10081500Y10173561D02*
X10086500D01*
X10081500Y10102288D02*
X10086500D01*
X10082087Y10244836D02*
X10086594D01*
X10088000Y10243430D01*
Y10175061D02*
Y10243430D01*
X10409427Y10165678D02*
X10429240D01*
X10409427Y10173322D02*
Y10174060D01*
Y10173322D02*
X10414531Y10168218D01*
X10424136D01*
X10429240Y10173322D02*
Y10174060D01*
X10424136Y10168218D02*
X10429240Y10173322D01*
X10409427Y10157296D02*
Y10158034D01*
X10414531Y10163138D01*
X10424136D01*
X10429240Y10157296D02*
Y10158034D01*
X10424136Y10163138D02*
X10429240Y10158034D01*
D31*
X10200132Y10017750D02*
D03*
X10181032D02*
D03*
D32*
X10157968D02*
D03*
X10132060Y10018004D02*
D03*
D33*
X10470000Y10030000D02*
D03*
X10030000D02*
D03*
Y10300000D02*
D03*
X10470000D02*
D03*
D34*
X10022000Y10185000D02*
D03*
Y10145000D02*
D03*
X10478000D02*
D03*
Y10185000D02*
D03*
D35*
X10430593Y10062464D02*
D03*
Y10011664D02*
D03*
X10405193D02*
D03*
Y10037064D02*
D03*
Y10062464D02*
D03*
D36*
X10430593Y10037064D02*
D03*
D37*
X10101632Y10018258D02*
D03*
D38*
X10073132D02*
D03*
D39*
X10447168Y10108184D02*
D03*
X10146316Y10040961D02*
D03*
X10137648Y10040874D02*
D03*
X10078750Y10038842D02*
D03*
X10070995D02*
D03*
X10063241D02*
D03*
X10047732Y10119272D02*
D03*
X10055599D02*
D03*
X10063466D02*
D03*
X10071333D02*
D03*
X10079200D02*
D03*
X10078750Y10066530D02*
D03*
X10070995D02*
D03*
X10063241D02*
D03*
X10055486D02*
D03*
X10047732Y10066530D02*
D03*
X10063241Y10047780D02*
D03*
X10070995D02*
D03*
X10078750D02*
D03*
X10229596Y10246868D02*
D03*
X10212872Y10237000D02*
D03*
X10220960D02*
D03*
X10229596D02*
D03*
X10199294Y10207498D02*
D03*
X10163651Y10032746D02*
D03*
X10172319Y10040961D02*
D03*
Y10032746D02*
D03*
X10154984D02*
D03*
X10193500Y10117074D02*
D03*
Y10109454D02*
D03*
X10177018Y10165676D02*
D03*
X10079200Y10137211D02*
D03*
X10071333D02*
D03*
X10063466D02*
D03*
X10055599D02*
D03*
X10047732D02*
D03*
X10079990Y10189718D02*
D03*
X10071926D02*
D03*
X10063861D02*
D03*
X10055797D02*
D03*
X10047732D02*
D03*
X10220960Y10246868D02*
D03*
X10212872D02*
D03*
X10137648Y10032746D02*
D03*
X10163651Y10040961D02*
D03*
X10154984D02*
D03*
X10146316Y10032746D02*
D03*
X10096500Y10270236D02*
D03*
X10141204Y10300970D02*
D03*
X10151110D02*
D03*
Y10290302D02*
D03*
X10190596Y10253726D02*
D03*
X10312400Y10313416D02*
D03*
X10248138D02*
D03*
X10266499D02*
D03*
X10294039D02*
D03*
X10128504Y10032746D02*
D03*
X10447168Y10222992D02*
D03*
X10257318Y10313416D02*
D03*
X10303219D02*
D03*
X10284860D02*
D03*
X10275679D02*
D03*
X10406888Y10240656D02*
D03*
X10397288Y10249154D02*
D03*
X10429240Y10157296D02*
D03*
X10409427D02*
D03*
Y10174060D02*
D03*
X10429240D02*
D03*
X10141204Y10290302D02*
D03*
X10429240Y10165678D02*
D03*
X10409427D02*
D03*
X10072878Y10301224D02*
D03*
X10082276D02*
D03*
D40*
X10081500Y10173561D02*
D03*
Y10102288D02*
D03*
X10082087Y10244836D02*
D03*
M02*
