G04 Layer_Physical_Order=2*
G04 Layer_Color=16711680*
%FSTAX44Y44*%
%MOMM*%
G71*
G01*
G75*
%ADD22C,0.2540*%
%ADD24C,1.0000*%
%ADD25C,2.5000*%
G04:AMPARAMS|DCode=26|XSize=2.5mm|YSize=2.5mm|CornerRadius=0.625mm|HoleSize=0mm|Usage=FLASHONLY|Rotation=90.000|XOffset=0mm|YOffset=0mm|HoleType=Round|Shape=RoundedRectangle|*
%AMROUNDEDRECTD26*
21,1,2.5000,1.2500,0,0,90.0*
21,1,1.2500,2.5000,0,0,90.0*
1,1,1.2500,0.6250,0.6250*
1,1,1.2500,0.6250,-0.6250*
1,1,1.2500,-0.6250,-0.6250*
1,1,1.2500,-0.6250,0.6250*
%
%ADD26ROUNDEDRECTD26*%
%ADD27C,0.6000*%
%ADD28C,0.5000*%
G36*
X06875Y0839675D02*
X06754974D01*
X06754078Y08397651D01*
X06754852Y0850975D01*
X06875D01*
Y0839675D01*
D02*
G37*
G36*
X0723907Y08383929D02*
X0688003D01*
X06879658D01*
X0687876Y08384827D01*
X0687876Y0839652D01*
Y0851425D01*
X06751Y0851425D01*
X06751Y0839525D01*
X0687749Y0839525D01*
X0687876D01*
X0687876Y08384827D01*
X06877862Y08383929D01*
X06667429D01*
Y08655571D01*
X0723907D01*
Y08383929D01*
D02*
G37*
%LPC*%
G36*
X0718875Y08496889D02*
X07185155Y08496415D01*
X07181805Y08495028D01*
X07178929Y08492821D01*
X07176722Y08489944D01*
X07175334Y08486595D01*
X07174861Y08483D01*
X07175334Y08479406D01*
X07176722Y08476055D01*
X07178929Y08473179D01*
X07181805Y08470972D01*
X07185155Y08469584D01*
X0718875Y08469111D01*
X07192345Y08469584D01*
X07195695Y08470972D01*
X07198571Y08473179D01*
X07200778Y08476055D01*
X07202166Y08479406D01*
X07202639Y08483D01*
X07202166Y08486595D01*
X07200778Y08489944D01*
X07198571Y08492821D01*
X07195695Y08495028D01*
X07192345Y08496415D01*
X0718875Y08496889D01*
D02*
G37*
G36*
X0672625Y08498113D02*
X06723301Y08497822D01*
X06720466Y08496962D01*
X06717854Y08495566D01*
X06715564Y08493687D01*
X06713684Y08491396D01*
X06712288Y08488784D01*
X06711428Y08485948D01*
X06711137Y08483D01*
X06711428Y08480052D01*
X06712288Y08477217D01*
X06713684Y08474604D01*
X06715564Y08472314D01*
X06717854Y08470434D01*
X06720466Y08469037D01*
X06723301Y08468177D01*
X0672625Y08467887D01*
X06729199Y08468177D01*
X06732034Y08469037D01*
X06734646Y08470434D01*
X06736936Y08472314D01*
X06738816Y08474604D01*
X06740212Y08477217D01*
X06741072Y08480052D01*
X06741363Y08483D01*
X06741072Y08485948D01*
X06740212Y08488784D01*
X06738816Y08491396D01*
X06736936Y08493687D01*
X06734646Y08495566D01*
X06732034Y08496962D01*
X06729199Y08497822D01*
X0672625Y08498113D01*
D02*
G37*
G36*
X07001Y08468104D02*
X06999334Y08467772D01*
X06997922Y08466829D01*
X06997595Y0846634D01*
X06921405D01*
X06921078Y08466829D01*
X06919666Y08467772D01*
X06918Y08468104D01*
X06916334Y08467772D01*
X06914921Y08466829D01*
X06913978Y08465416D01*
X06913646Y0846375D01*
X06913978Y08462084D01*
X06914921Y08460671D01*
X06916334Y08459728D01*
X06918Y08459396D01*
X06919666Y08459728D01*
X06921078Y08460671D01*
X06921405Y0846116D01*
X06997595D01*
X06997922Y08460671D01*
X06999334Y08459728D01*
X07001Y08459396D01*
X07002666Y08459728D01*
X07004078Y08460671D01*
X07005022Y08462084D01*
X07005353Y0846375D01*
X07005022Y08465416D01*
X07004078Y08466829D01*
X07002666Y08467772D01*
X07001Y08468104D01*
D02*
G37*
%LPD*%
D22*
X06918Y0846375D02*
X07001D01*
D24*
X06875Y0841525D02*
X06878938D01*
D25*
X0672625Y08483D02*
D03*
X0718875D02*
D03*
D26*
X0672625Y084322D02*
D03*
X0718875D02*
D03*
D27*
X0723392Y0864616D02*
D03*
Y08636D02*
D03*
Y0862584D02*
D03*
Y0861568D02*
D03*
Y0860552D02*
D03*
Y0859536D02*
D03*
Y085852D02*
D03*
Y0857504D02*
D03*
Y0856488D02*
D03*
Y0855472D02*
D03*
Y0854456D02*
D03*
Y085344D02*
D03*
Y0852424D02*
D03*
Y0851408D02*
D03*
Y0850392D02*
D03*
Y0849376D02*
D03*
Y084836D02*
D03*
Y0847344D02*
D03*
Y0846328D02*
D03*
Y0845312D02*
D03*
Y0844296D02*
D03*
Y084328D02*
D03*
Y0842264D02*
D03*
Y0841248D02*
D03*
Y0840232D02*
D03*
Y0839216D02*
D03*
X0722376Y0864616D02*
D03*
Y08636D02*
D03*
Y0862584D02*
D03*
Y0861568D02*
D03*
Y0860552D02*
D03*
Y0859536D02*
D03*
Y085852D02*
D03*
Y0857504D02*
D03*
Y0856488D02*
D03*
Y0855472D02*
D03*
Y0854456D02*
D03*
Y085344D02*
D03*
Y0852424D02*
D03*
Y0851408D02*
D03*
Y0850392D02*
D03*
Y0849376D02*
D03*
Y084836D02*
D03*
Y0847344D02*
D03*
Y0846328D02*
D03*
Y0845312D02*
D03*
Y0844296D02*
D03*
Y084328D02*
D03*
Y0842264D02*
D03*
Y0841248D02*
D03*
Y0840232D02*
D03*
Y0839216D02*
D03*
X072136Y0864616D02*
D03*
Y08636D02*
D03*
Y0862584D02*
D03*
Y0861568D02*
D03*
Y0860552D02*
D03*
Y0859536D02*
D03*
Y085852D02*
D03*
Y0857504D02*
D03*
Y0856488D02*
D03*
Y0839216D02*
D03*
X0720344Y0864616D02*
D03*
Y08636D02*
D03*
Y0857504D02*
D03*
Y0856488D02*
D03*
Y0845312D02*
D03*
Y0841248D02*
D03*
Y0839216D02*
D03*
X0719328Y0864616D02*
D03*
Y08636D02*
D03*
Y0857504D02*
D03*
Y0856488D02*
D03*
Y0845312D02*
D03*
Y0841248D02*
D03*
Y0839216D02*
D03*
X0718312Y0864616D02*
D03*
Y08636D02*
D03*
Y0857504D02*
D03*
Y0856488D02*
D03*
Y0845312D02*
D03*
Y0841248D02*
D03*
Y0839216D02*
D03*
X0717296Y0864616D02*
D03*
Y08636D02*
D03*
Y0862584D02*
D03*
Y0861568D02*
D03*
Y0860552D02*
D03*
Y0859536D02*
D03*
Y085852D02*
D03*
Y0857504D02*
D03*
Y0856488D02*
D03*
Y0845312D02*
D03*
Y0844296D02*
D03*
Y0841248D02*
D03*
Y0839216D02*
D03*
X071628Y0864616D02*
D03*
Y08636D02*
D03*
Y0862584D02*
D03*
Y0861568D02*
D03*
Y0860552D02*
D03*
Y0859536D02*
D03*
Y085852D02*
D03*
Y0857504D02*
D03*
Y0856488D02*
D03*
Y0839216D02*
D03*
X0715264Y0864616D02*
D03*
Y08636D02*
D03*
Y0862584D02*
D03*
Y0861568D02*
D03*
Y0860552D02*
D03*
Y0859536D02*
D03*
Y085852D02*
D03*
Y0857504D02*
D03*
Y0856488D02*
D03*
Y0839216D02*
D03*
X0714248Y0864616D02*
D03*
Y08636D02*
D03*
Y0862584D02*
D03*
Y0861568D02*
D03*
Y0860552D02*
D03*
Y0859536D02*
D03*
Y085852D02*
D03*
Y0857504D02*
D03*
Y0856488D02*
D03*
Y0839216D02*
D03*
X0713232Y0864616D02*
D03*
Y08636D02*
D03*
Y0862584D02*
D03*
Y0861568D02*
D03*
Y0860552D02*
D03*
Y0859536D02*
D03*
Y085852D02*
D03*
Y0857504D02*
D03*
Y0856488D02*
D03*
Y0839216D02*
D03*
X0712216Y0864616D02*
D03*
Y08636D02*
D03*
Y0862584D02*
D03*
Y0861568D02*
D03*
Y0860552D02*
D03*
Y0859536D02*
D03*
Y085852D02*
D03*
Y0857504D02*
D03*
Y0856488D02*
D03*
Y0839216D02*
D03*
X07112Y0864616D02*
D03*
Y08636D02*
D03*
Y0857504D02*
D03*
Y0856488D02*
D03*
Y0839216D02*
D03*
X0710184Y0864616D02*
D03*
Y08636D02*
D03*
Y0857504D02*
D03*
Y0856488D02*
D03*
Y0839216D02*
D03*
X0709168Y0864616D02*
D03*
Y08636D02*
D03*
Y0857504D02*
D03*
Y0856488D02*
D03*
Y0839216D02*
D03*
X0708152Y0864616D02*
D03*
Y08636D02*
D03*
Y0862584D02*
D03*
Y0861568D02*
D03*
Y0860552D02*
D03*
Y0859536D02*
D03*
Y085852D02*
D03*
Y0857504D02*
D03*
Y0856488D02*
D03*
Y0839216D02*
D03*
X0707136Y0864616D02*
D03*
Y08636D02*
D03*
Y0862584D02*
D03*
Y0861568D02*
D03*
Y0860552D02*
D03*
Y0859536D02*
D03*
Y085852D02*
D03*
Y0857504D02*
D03*
Y0856488D02*
D03*
Y0839216D02*
D03*
X070612Y0864616D02*
D03*
Y08636D02*
D03*
Y0862584D02*
D03*
Y0861568D02*
D03*
Y0860552D02*
D03*
Y0859536D02*
D03*
Y085852D02*
D03*
Y0857504D02*
D03*
Y0856488D02*
D03*
Y0855472D02*
D03*
Y0854456D02*
D03*
Y085344D02*
D03*
Y0852424D02*
D03*
Y0851408D02*
D03*
Y0850392D02*
D03*
Y0839216D02*
D03*
X0705104Y0864616D02*
D03*
Y08636D02*
D03*
Y0862584D02*
D03*
Y0861568D02*
D03*
Y0860552D02*
D03*
Y0859536D02*
D03*
Y085852D02*
D03*
Y0857504D02*
D03*
Y0856488D02*
D03*
Y0855472D02*
D03*
Y0854456D02*
D03*
Y085344D02*
D03*
Y0852424D02*
D03*
Y0851408D02*
D03*
Y0850392D02*
D03*
Y0839216D02*
D03*
X0704088Y0864616D02*
D03*
Y08636D02*
D03*
Y0862584D02*
D03*
Y0861568D02*
D03*
Y0860552D02*
D03*
Y0859536D02*
D03*
Y085852D02*
D03*
Y0857504D02*
D03*
Y0856488D02*
D03*
Y0855472D02*
D03*
Y0854456D02*
D03*
Y085344D02*
D03*
Y0852424D02*
D03*
Y0851408D02*
D03*
Y0850392D02*
D03*
Y0839216D02*
D03*
X0703072Y0864616D02*
D03*
Y08636D02*
D03*
Y0862584D02*
D03*
Y0861568D02*
D03*
Y0860552D02*
D03*
Y0859536D02*
D03*
Y085852D02*
D03*
Y0857504D02*
D03*
Y0856488D02*
D03*
Y0855472D02*
D03*
Y0854456D02*
D03*
Y085344D02*
D03*
Y0852424D02*
D03*
Y0851408D02*
D03*
Y0850392D02*
D03*
Y0839216D02*
D03*
X0702056Y0864616D02*
D03*
Y08636D02*
D03*
Y0852424D02*
D03*
Y0851408D02*
D03*
Y0850392D02*
D03*
Y0839216D02*
D03*
X070104Y0864616D02*
D03*
Y08636D02*
D03*
Y0852424D02*
D03*
Y0851408D02*
D03*
Y0850392D02*
D03*
Y0849376D02*
D03*
Y084836D02*
D03*
Y0847344D02*
D03*
Y0846328D02*
D03*
Y0839216D02*
D03*
X0700024Y0864616D02*
D03*
Y08636D02*
D03*
Y0839216D02*
D03*
X0699008Y0864616D02*
D03*
Y08636D02*
D03*
Y0862584D02*
D03*
Y0861568D02*
D03*
Y0860552D02*
D03*
Y0859536D02*
D03*
Y0839216D02*
D03*
X0697992Y0864616D02*
D03*
Y08636D02*
D03*
Y0862584D02*
D03*
Y0861568D02*
D03*
Y0860552D02*
D03*
Y0859536D02*
D03*
Y0839216D02*
D03*
X0696976Y0864616D02*
D03*
Y08636D02*
D03*
Y0862584D02*
D03*
Y0861568D02*
D03*
Y0860552D02*
D03*
Y0859536D02*
D03*
Y0839216D02*
D03*
X069596Y0864616D02*
D03*
Y08636D02*
D03*
Y0862584D02*
D03*
Y0861568D02*
D03*
Y0860552D02*
D03*
Y0859536D02*
D03*
Y0839216D02*
D03*
X0694944Y0864616D02*
D03*
Y08636D02*
D03*
Y0862584D02*
D03*
Y0861568D02*
D03*
Y0860552D02*
D03*
Y0859536D02*
D03*
Y0839216D02*
D03*
X0693928Y0864616D02*
D03*
Y08636D02*
D03*
Y0839216D02*
D03*
X0692912Y0864616D02*
D03*
Y08636D02*
D03*
Y0844296D02*
D03*
Y084328D02*
D03*
Y0842264D02*
D03*
Y0839216D02*
D03*
X0691896Y0864616D02*
D03*
Y08636D02*
D03*
Y0862584D02*
D03*
Y0844296D02*
D03*
Y084328D02*
D03*
Y0842264D02*
D03*
Y0839216D02*
D03*
X069088Y0864616D02*
D03*
Y08636D02*
D03*
Y0862584D02*
D03*
Y0861568D02*
D03*
Y0860552D02*
D03*
Y0859536D02*
D03*
Y0841248D02*
D03*
Y0839216D02*
D03*
X0689864Y0864616D02*
D03*
Y08636D02*
D03*
Y0862584D02*
D03*
Y0861568D02*
D03*
Y0860552D02*
D03*
Y0859536D02*
D03*
Y0842264D02*
D03*
Y0841248D02*
D03*
Y0839216D02*
D03*
X0688848Y0864616D02*
D03*
Y08636D02*
D03*
Y0862584D02*
D03*
Y0861568D02*
D03*
Y0860552D02*
D03*
Y0859536D02*
D03*
Y0839216D02*
D03*
X0687832Y0864616D02*
D03*
Y08636D02*
D03*
Y0862584D02*
D03*
Y0861568D02*
D03*
Y0860552D02*
D03*
Y0859536D02*
D03*
X0686816Y0864616D02*
D03*
Y08636D02*
D03*
Y0862584D02*
D03*
Y0861568D02*
D03*
Y0860552D02*
D03*
Y0859536D02*
D03*
Y084836D02*
D03*
Y0844296D02*
D03*
Y084328D02*
D03*
Y0842264D02*
D03*
Y0841248D02*
D03*
Y0839216D02*
D03*
X06858Y0864616D02*
D03*
Y08636D02*
D03*
Y0862584D02*
D03*
Y0861568D02*
D03*
Y0860552D02*
D03*
Y0859536D02*
D03*
Y0850392D02*
D03*
Y0849376D02*
D03*
Y084836D02*
D03*
Y0844296D02*
D03*
Y084328D02*
D03*
Y0839216D02*
D03*
X0684784Y0859536D02*
D03*
Y084836D02*
D03*
Y0844296D02*
D03*
Y084328D02*
D03*
Y0839216D02*
D03*
X0683768Y0859536D02*
D03*
Y0849376D02*
D03*
Y0839216D02*
D03*
X0682752Y0859536D02*
D03*
Y0839216D02*
D03*
X0681736Y0864616D02*
D03*
Y08636D02*
D03*
Y0862584D02*
D03*
Y0861568D02*
D03*
Y0860552D02*
D03*
Y0859536D02*
D03*
Y0850392D02*
D03*
Y0839216D02*
D03*
X068072Y0864616D02*
D03*
Y08636D02*
D03*
Y0862584D02*
D03*
Y0861568D02*
D03*
Y0860552D02*
D03*
Y0859536D02*
D03*
Y0850392D02*
D03*
Y0839216D02*
D03*
X0679704Y0864616D02*
D03*
Y08636D02*
D03*
Y0862584D02*
D03*
Y0861568D02*
D03*
Y0860552D02*
D03*
Y0859536D02*
D03*
Y0850392D02*
D03*
Y0839216D02*
D03*
X0678688Y0864616D02*
D03*
Y08636D02*
D03*
Y0862584D02*
D03*
Y0861568D02*
D03*
Y0860552D02*
D03*
Y0859536D02*
D03*
Y0850392D02*
D03*
Y0839216D02*
D03*
X0677672Y0864616D02*
D03*
Y08636D02*
D03*
Y0862584D02*
D03*
Y0861568D02*
D03*
Y0860552D02*
D03*
Y0859536D02*
D03*
Y0850392D02*
D03*
Y0849376D02*
D03*
Y084836D02*
D03*
Y0847344D02*
D03*
Y0846328D02*
D03*
Y0845312D02*
D03*
Y0844296D02*
D03*
Y084328D02*
D03*
Y0839216D02*
D03*
X0676656Y0864616D02*
D03*
Y08636D02*
D03*
Y0862584D02*
D03*
Y0861568D02*
D03*
Y0860552D02*
D03*
Y0859536D02*
D03*
Y0850392D02*
D03*
Y0849376D02*
D03*
Y084836D02*
D03*
Y0847344D02*
D03*
Y0846328D02*
D03*
Y0845312D02*
D03*
Y0844296D02*
D03*
Y084328D02*
D03*
Y0839216D02*
D03*
X067564Y0864616D02*
D03*
Y08636D02*
D03*
Y0862584D02*
D03*
Y0861568D02*
D03*
Y0860552D02*
D03*
Y0859536D02*
D03*
Y0839216D02*
D03*
X0674624Y0864616D02*
D03*
Y08636D02*
D03*
Y0862584D02*
D03*
Y0861568D02*
D03*
Y0860552D02*
D03*
Y0859536D02*
D03*
Y0845312D02*
D03*
Y0844296D02*
D03*
Y084328D02*
D03*
Y0842264D02*
D03*
Y0841248D02*
D03*
Y0840232D02*
D03*
Y0839216D02*
D03*
X0673608Y0864616D02*
D03*
Y08636D02*
D03*
Y0862584D02*
D03*
Y0861568D02*
D03*
Y0860552D02*
D03*
Y0859536D02*
D03*
Y0845312D02*
D03*
Y0841248D02*
D03*
Y0840232D02*
D03*
Y0839216D02*
D03*
X0672592Y0859536D02*
D03*
Y0845312D02*
D03*
Y0841248D02*
D03*
Y0840232D02*
D03*
Y0839216D02*
D03*
X0671576Y0859536D02*
D03*
Y0845312D02*
D03*
Y0841248D02*
D03*
Y0840232D02*
D03*
Y0839216D02*
D03*
X067056Y0859536D02*
D03*
Y0845312D02*
D03*
Y0844296D02*
D03*
Y084328D02*
D03*
Y0842264D02*
D03*
Y0841248D02*
D03*
Y0840232D02*
D03*
Y0839216D02*
D03*
X0669544Y0864616D02*
D03*
Y08636D02*
D03*
Y0862584D02*
D03*
Y0861568D02*
D03*
Y0860552D02*
D03*
Y0859536D02*
D03*
Y085852D02*
D03*
Y0857504D02*
D03*
Y0856488D02*
D03*
Y0855472D02*
D03*
Y0854456D02*
D03*
Y085344D02*
D03*
Y0852424D02*
D03*
Y0851408D02*
D03*
Y0850392D02*
D03*
Y0849376D02*
D03*
Y084836D02*
D03*
Y0847344D02*
D03*
Y0846328D02*
D03*
Y0845312D02*
D03*
Y0844296D02*
D03*
Y084328D02*
D03*
Y0842264D02*
D03*
Y0841248D02*
D03*
Y0840232D02*
D03*
Y0839216D02*
D03*
X0668528Y0864616D02*
D03*
Y08636D02*
D03*
Y0862584D02*
D03*
Y0861568D02*
D03*
Y0860552D02*
D03*
Y0859536D02*
D03*
Y085852D02*
D03*
Y0857504D02*
D03*
Y0856488D02*
D03*
Y0855472D02*
D03*
Y0854456D02*
D03*
Y085344D02*
D03*
Y0852424D02*
D03*
Y0851408D02*
D03*
Y0850392D02*
D03*
Y0849376D02*
D03*
Y084836D02*
D03*
Y0847344D02*
D03*
Y0846328D02*
D03*
Y0845312D02*
D03*
Y0844296D02*
D03*
Y084328D02*
D03*
Y0842264D02*
D03*
Y0841248D02*
D03*
Y0840232D02*
D03*
Y0839216D02*
D03*
X0667512Y0864616D02*
D03*
Y08636D02*
D03*
Y0862584D02*
D03*
Y0861568D02*
D03*
Y0860552D02*
D03*
Y0859536D02*
D03*
Y085852D02*
D03*
Y0857504D02*
D03*
Y0856488D02*
D03*
Y0855472D02*
D03*
Y0854456D02*
D03*
Y085344D02*
D03*
Y0852424D02*
D03*
Y0851408D02*
D03*
Y0850392D02*
D03*
Y0849376D02*
D03*
Y084836D02*
D03*
Y0847344D02*
D03*
Y0846328D02*
D03*
Y0845312D02*
D03*
Y0844296D02*
D03*
Y084328D02*
D03*
Y0842264D02*
D03*
Y0841248D02*
D03*
Y0840232D02*
D03*
Y0839216D02*
D03*
X07001Y0846375D02*
D03*
X0681925Y08443D02*
D03*
X06918Y0846375D02*
D03*
D28*
X06866Y08453873D02*
D03*
X06855D02*
D03*
X06866Y08464872D02*
D03*
X06855D02*
D03*
M02*
