G04 Layer_Physical_Order=1*
G04 Layer_Color=255*
%FSTAX44Y44*%
%MOMM*%
G71*
G01*
G75*
G04:AMPARAMS|DCode=10|XSize=0.85mm|YSize=0.6mm|CornerRadius=0.003mm|HoleSize=0mm|Usage=FLASHONLY|Rotation=90.000|XOffset=0mm|YOffset=0mm|HoleType=Round|Shape=RoundedRectangle|*
%AMROUNDEDRECTD10*
21,1,0.8500,0.5940,0,0,90.0*
21,1,0.8440,0.6000,0,0,90.0*
1,1,0.0060,0.2970,0.4220*
1,1,0.0060,0.2970,-0.4220*
1,1,0.0060,-0.2970,-0.4220*
1,1,0.0060,-0.2970,0.4220*
%
%ADD10ROUNDEDRECTD10*%
G04:AMPARAMS|DCode=11|XSize=0.85mm|YSize=0.6mm|CornerRadius=0.003mm|HoleSize=0mm|Usage=FLASHONLY|Rotation=180.000|XOffset=0mm|YOffset=0mm|HoleType=Round|Shape=RoundedRectangle|*
%AMROUNDEDRECTD11*
21,1,0.8500,0.5940,0,0,180.0*
21,1,0.8440,0.6000,0,0,180.0*
1,1,0.0060,-0.4220,0.2970*
1,1,0.0060,0.4220,0.2970*
1,1,0.0060,0.4220,-0.2970*
1,1,0.0060,-0.4220,-0.2970*
%
%ADD11ROUNDEDRECTD11*%
%ADD12R,1.8500X3.2500*%
%ADD13R,1.9500X4.2500*%
G04:AMPARAMS|DCode=14|XSize=2.1mm|YSize=4.2mm|CornerRadius=0.0105mm|HoleSize=0mm|Usage=FLASHONLY|Rotation=180.000|XOffset=0mm|YOffset=0mm|HoleType=Round|Shape=RoundedRectangle|*
%AMROUNDEDRECTD14*
21,1,2.1000,4.1790,0,0,180.0*
21,1,2.0790,4.2000,0,0,180.0*
1,1,0.0210,-1.0395,2.0895*
1,1,0.0210,1.0395,2.0895*
1,1,0.0210,1.0395,-2.0895*
1,1,0.0210,-1.0395,-2.0895*
%
%ADD14ROUNDEDRECTD14*%
G04:AMPARAMS|DCode=15|XSize=8.2mm|YSize=3.3mm|CornerRadius=0.0165mm|HoleSize=0mm|Usage=FLASHONLY|Rotation=90.000|XOffset=0mm|YOffset=0mm|HoleType=Round|Shape=RoundedRectangle|*
%AMROUNDEDRECTD15*
21,1,8.2000,3.2670,0,0,90.0*
21,1,8.1670,3.3000,0,0,90.0*
1,1,0.0330,1.6335,4.0835*
1,1,0.0330,1.6335,-4.0835*
1,1,0.0330,-1.6335,-4.0835*
1,1,0.0330,-1.6335,4.0835*
%
%ADD15ROUNDEDRECTD15*%
%ADD16R,0.6500X1.2000*%
%ADD17R,1.2000X0.6500*%
G04:AMPARAMS|DCode=18|XSize=0.75mm|YSize=0.55mm|CornerRadius=0.0028mm|HoleSize=0mm|Usage=FLASHONLY|Rotation=90.000|XOffset=0mm|YOffset=0mm|HoleType=Round|Shape=RoundedRectangle|*
%AMROUNDEDRECTD18*
21,1,0.7500,0.5445,0,0,90.0*
21,1,0.7445,0.5500,0,0,90.0*
1,1,0.0055,0.2722,0.3723*
1,1,0.0055,0.2722,-0.3723*
1,1,0.0055,-0.2722,-0.3723*
1,1,0.0055,-0.2722,0.3723*
%
%ADD18ROUNDEDRECTD18*%
G04:AMPARAMS|DCode=19|XSize=0.75mm|YSize=0.55mm|CornerRadius=0.0028mm|HoleSize=0mm|Usage=FLASHONLY|Rotation=0.000|XOffset=0mm|YOffset=0mm|HoleType=Round|Shape=RoundedRectangle|*
%AMROUNDEDRECTD19*
21,1,0.7500,0.5445,0,0,0.0*
21,1,0.7445,0.5500,0,0,0.0*
1,1,0.0055,0.3723,-0.2722*
1,1,0.0055,-0.3723,-0.2722*
1,1,0.0055,-0.3723,0.2722*
1,1,0.0055,0.3723,0.2722*
%
%ADD19ROUNDEDRECTD19*%
%ADD20R,2.4600X2.3100*%
%ADD21O,1.4000X0.4500*%
%ADD22C,0.2540*%
%ADD23C,0.1270*%
%ADD24C,1.0000*%
%ADD25C,2.5000*%
G04:AMPARAMS|DCode=26|XSize=2.5mm|YSize=2.5mm|CornerRadius=0.625mm|HoleSize=0mm|Usage=FLASHONLY|Rotation=90.000|XOffset=0mm|YOffset=0mm|HoleType=Round|Shape=RoundedRectangle|*
%AMROUNDEDRECTD26*
21,1,2.5000,1.2500,0,0,90.0*
21,1,1.2500,2.5000,0,0,90.0*
1,1,1.2500,0.6250,0.6250*
1,1,1.2500,0.6250,-0.6250*
1,1,1.2500,-0.6250,-0.6250*
1,1,1.2500,-0.6250,0.6250*
%
%ADD26ROUNDEDRECTD26*%
%ADD27C,0.6000*%
%ADD28C,0.5000*%
G36*
X07024Y08584D02*
Y0854D01*
X0700009Y0854D01*
Y08482D01*
X06915781Y08482D01*
X06906868Y08472443D01*
X06895544Y08472553D01*
X0689475Y08472711D01*
X0688525D01*
X06884976Y08472657D01*
X0687875Y08472718D01*
X0687875Y08494724D01*
X06879876Y08495437D01*
X0688002Y08495448D01*
X0688053Y08495346D01*
X06882484D01*
Y08501151D01*
Y08506955D01*
X0688053D01*
X0688002Y08506854D01*
X06879876Y08506865D01*
X0687875Y08507578D01*
X0687875Y085115D01*
X068275Y085115D01*
X0675225D01*
Y0846D01*
X06703D01*
Y08584D01*
X07024Y08584D01*
D02*
G37*
G36*
X07071Y08404D02*
X0695725Y08404D01*
X0695725Y0845325D01*
X06923Y0845325D01*
X06923Y084595D01*
X0693399Y08459501D01*
X06934068Y08480001D01*
X069865Y0848D01*
Y084585D01*
X07017D01*
Y0849751D01*
X07071D01*
X07071Y08404D01*
D02*
G37*
G36*
X06921625Y0845325D02*
X06921833Y0845275D01*
X06922028Y08452278D01*
X06922028Y08452278D01*
X06922028Y08452278D01*
X069225Y08452083D01*
X06923Y08451876D01*
X06955875Y08451875D01*
X06955875Y08416027D01*
X06954605Y08415007D01*
X0694073D01*
Y08413077D01*
X06920085D01*
X0691083Y08422332D01*
Y08440259D01*
X06910633Y08441251D01*
X06910071Y0844209D01*
X06907209Y08444954D01*
X06906368Y08445515D01*
X06905377Y08445712D01*
X06897728D01*
X06897195Y08446848D01*
X06897335Y08447156D01*
X06898066Y08448249D01*
X06898339Y08449622D01*
X06898066Y08450996D01*
X06897288Y0845216D01*
X06897897Y08453281D01*
X06898106Y08453533D01*
X06914373D01*
X06915364Y0845373D01*
X0691569Y08453948D01*
X06921625D01*
X06921625Y0845325D01*
D02*
G37*
G36*
X07214Y0845825D02*
X0716325D01*
Y08404D01*
X07073D01*
Y08559D01*
X07214D01*
Y0845825D01*
D02*
G37*
G36*
X07209808Y08405189D02*
X07204561Y08399942D01*
X06878D01*
Y08420016D01*
X06879262Y08420701D01*
X06880005Y08420552D01*
X06880005Y08420552D01*
X06883873D01*
Y08419525D01*
X06884285Y0841853D01*
X0688528Y08418118D01*
X0689372D01*
X06894715Y0841853D01*
X06895127Y08419525D01*
Y08425465D01*
X06894715Y0842646D01*
X0689372Y08426872D01*
X0688528D01*
X06884285Y0842646D01*
X06883873Y08425465D01*
Y08424437D01*
X06880809D01*
X06879692Y08425554D01*
Y08446445D01*
X06880927Y0844768D01*
X06882314D01*
X06882712Y08447085D01*
X06882828Y08447007D01*
Y08445947D01*
X06882665Y08445589D01*
X06881934Y08444496D01*
X06881661Y08443123D01*
X06881934Y08441749D01*
X06882712Y08440585D01*
X06883876Y08439807D01*
X0688525Y08439534D01*
X0689475D01*
X06896124Y08439807D01*
X0689721Y08440533D01*
X06904305D01*
X06905651Y08439187D01*
Y0842126D01*
X06905848Y08420269D01*
X06906409Y08419428D01*
X06917181Y08408656D01*
X06918022Y08408094D01*
X06919013Y08407897D01*
X0694073D01*
Y08405967D01*
X0695527D01*
X06955875Y08404948D01*
Y08404D01*
X06956278Y08403028D01*
X0695725Y08402625D01*
X07071Y08402625D01*
X07072028Y08403028D01*
X07073Y08402625D01*
X0716325D01*
X07164222Y08403028D01*
X07164625Y08404D01*
Y08456876D01*
X07209808D01*
Y08405189D01*
D02*
G37*
G36*
X06842263Y0850891D02*
Y08506741D01*
X06841776Y08506644D01*
X06840927Y08506077D01*
X06840359Y08505227D01*
X0684016Y08504225D01*
Y0849678D01*
X06840359Y08495779D01*
X06840927Y08494929D01*
X06841776Y08494362D01*
X06842778Y08494163D01*
X06848223D01*
X06849224Y08494362D01*
X06850073Y08494929D01*
X06850641Y08495779D01*
X0685084Y0849678D01*
Y08504225D01*
X06850641Y08505227D01*
X06850073Y08506077D01*
X06849224Y08506644D01*
X06848737Y08506741D01*
Y0850891D01*
X06875Y0850891D01*
Y08399942D01*
X06858692D01*
Y08404147D01*
X06859473D01*
X06860466Y08404557D01*
X06860877Y08405551D01*
Y08412996D01*
X06860466Y08413989D01*
X06859473Y084144D01*
X06854028D01*
X06853035Y08413989D01*
X06852623Y08412996D01*
Y08405551D01*
X06853035Y08404557D01*
X06854028Y08404147D01*
X06854808D01*
Y08399942D01*
X06820068D01*
X06819678Y08400443D01*
X06819547Y08401764D01*
X06819958Y08402757D01*
Y08410202D01*
X06819547Y08411195D01*
X06818554Y08411606D01*
X06813109D01*
X06812116Y08411195D01*
X06811705Y08410202D01*
Y08402757D01*
X06812116Y08401764D01*
X06813109Y08401353D01*
X06813889D01*
Y08400419D01*
X06814037Y08399675D01*
X06814458Y08399045D01*
X0681558Y08397924D01*
X06815094Y0839675D01*
X06754974D01*
X06754078Y08397651D01*
X067545Y08458796D01*
X06754642Y08459009D01*
X0675484Y0846D01*
Y08508017D01*
X06754846Y0850891D01*
X068275D01*
X06842263Y0850891D01*
D02*
G37*
G36*
X0723907Y08383929D02*
X06879271D01*
X06878Y08383929D01*
X06878Y0839376D01*
X06878137Y08394973D01*
X06878936Y08396058D01*
X07205366D01*
X07206108Y08396205D01*
X07206739Y08396627D01*
X07213123Y08403011D01*
X07213123Y08403011D01*
X07213544Y08403641D01*
X07213692Y08404385D01*
Y08456876D01*
X07214D01*
X07214972Y08457278D01*
X07215375Y0845825D01*
Y08559D01*
X07214972Y08559972D01*
X07214Y08560375D01*
X07073D01*
X07072028Y08559972D01*
X07071625Y08559D01*
Y08499303D01*
X07071Y08498885D01*
X07017D01*
X07016028Y08498483D01*
X07015626Y0849751D01*
Y08459875D01*
X07004998D01*
X07004395Y08461144D01*
X07005022Y08462084D01*
X07005353Y0846375D01*
X07005022Y08465416D01*
X07004078Y08466829D01*
X07002666Y08467772D01*
X07001Y08468104D01*
X07000424Y08467989D01*
X07000081Y08468331D01*
X06999241Y08468893D01*
X0699825Y0846909D01*
X0699757D01*
Y0847752D01*
X06989163D01*
X06988364Y08478721D01*
X0698865Y0847941D01*
X0700009Y0847941D01*
X07001081Y08479608D01*
X07001921Y08480169D01*
X07002482Y08481009D01*
X07002679Y08482D01*
Y0853741D01*
X07024Y0853741D01*
X07024991Y08537607D01*
X07025831Y08538169D01*
X07026393Y08539009D01*
X0702659Y0854D01*
Y08584D01*
X07026393Y08584991D01*
X07025831Y08585831D01*
X07024991Y08586393D01*
X07024Y0858659D01*
X06703Y0858659D01*
X06702009Y08586393D01*
X06701169Y08585831D01*
X06700607Y08584991D01*
X0670041Y08584D01*
Y0846D01*
X06700607Y08459009D01*
X06701169Y08458169D01*
X06702009Y08457607D01*
X06703Y0845741D01*
X06751D01*
Y0839525D01*
X06876922Y0839525D01*
X06878Y08394788D01*
X06878Y08394543D01*
Y08383929D01*
X06667429D01*
Y08655571D01*
X0723907D01*
Y08383929D01*
D02*
G37*
%LPC*%
G36*
X06905455Y08520054D02*
X06902252D01*
Y08516516D01*
X06907039D01*
Y0851847D01*
X06906919Y08519077D01*
X06906575Y0851959D01*
X06906061Y08519934D01*
X06905455Y08520054D01*
D02*
G37*
G36*
X0690022D02*
X06897015D01*
X06896409Y08519934D01*
X06895895Y0851959D01*
X06895551Y08519077D01*
X0689543Y0851847D01*
Y08516516D01*
X0690022D01*
Y08520054D01*
D02*
G37*
G36*
X06920073Y08519304D02*
X06917366D01*
Y08516016D01*
X06921655D01*
Y08517723D01*
X06921534Y08518328D01*
X06921191Y08518841D01*
X06920678Y08519184D01*
X06920073Y08519304D01*
D02*
G37*
G36*
X06915334D02*
X06912628D01*
X06912023Y08519184D01*
X06911509Y08518841D01*
X06911166Y08518328D01*
X06911046Y08517723D01*
Y08516016D01*
X06915334D01*
Y08519304D01*
D02*
G37*
G36*
X06907039Y08514484D02*
X06902252D01*
Y08510945D01*
X06905455D01*
X06906061Y08511066D01*
X06906575Y08511409D01*
X06906919Y08511924D01*
X06907039Y0851253D01*
Y08514484D01*
D02*
G37*
G36*
X0690022D02*
X0689543D01*
Y0851253D01*
X06895551Y08511924D01*
X06895895Y08511409D01*
X06896409Y08511066D01*
X06897015Y08510945D01*
X0690022D01*
Y08514484D01*
D02*
G37*
G36*
X06921655Y08513984D02*
X06917366D01*
Y08510696D01*
X06920073D01*
X06920678Y08510816D01*
X06921191Y08511159D01*
X06921534Y08511672D01*
X06921655Y08512277D01*
Y08513984D01*
D02*
G37*
G36*
X06915334D02*
X06911046D01*
Y08512277D01*
X06911166Y08511672D01*
X06911509Y08511159D01*
X06912023Y08510816D01*
X06912628Y08510696D01*
X06915334D01*
Y08513984D01*
D02*
G37*
G36*
X0688647Y08506955D02*
X06884516D01*
Y08502167D01*
X06888054D01*
Y08505371D01*
X06887934Y08505977D01*
X0688759Y08506491D01*
X06887076Y08506835D01*
X0688647Y08506955D01*
D02*
G37*
G36*
X06905455Y08505377D02*
X06897015D01*
X0689602Y08504965D01*
X06895608Y0850397D01*
Y0849803D01*
X0689602Y08497035D01*
X06897015Y08496623D01*
X06899293D01*
Y08485407D01*
X06898581Y08484734D01*
X06897288Y0848466D01*
X06896124Y08485438D01*
X0689475Y08485712D01*
X0688525D01*
X06883876Y08485438D01*
X06882712Y0848466D01*
X06881934Y08483496D01*
X06881661Y08482123D01*
X06881934Y08480749D01*
X06882712Y08479585D01*
X06883876Y08478807D01*
X0688525Y08478533D01*
X0689475D01*
X06896124Y08478807D01*
X06897288Y08479585D01*
X06897686Y0848018D01*
X06899373D01*
X06900116Y08480328D01*
X06900746Y08480749D01*
X06902608Y08482612D01*
X06902609Y08482612D01*
X0690303Y08483242D01*
X06903177Y08483985D01*
Y08496623D01*
X06905455D01*
X0690645Y08497035D01*
X06906862Y0849803D01*
Y08498558D01*
X06911224D01*
Y08497778D01*
X06911635Y08496785D01*
X06912628Y08496373D01*
X06920073D01*
X06921066Y08496785D01*
X06921478Y08497778D01*
Y08503223D01*
X06921066Y08504216D01*
X06920073Y08504627D01*
X06912628D01*
X06911635Y08504216D01*
X06911224Y08503223D01*
Y08502442D01*
X06906862D01*
Y0850397D01*
X0690645Y08504965D01*
X06905455Y08505377D01*
D02*
G37*
G36*
X06888054Y08500135D02*
X06884516D01*
Y08495346D01*
X0688647D01*
X06887076Y08495467D01*
X0688759Y08495811D01*
X06887934Y08496324D01*
X06888054Y08496931D01*
Y08500135D01*
D02*
G37*
G36*
X0689372Y08412549D02*
X06890516D01*
Y08409011D01*
X06895305D01*
Y08410965D01*
X06895184Y08411571D01*
X06894841Y08412086D01*
X06894326Y08412429D01*
X0689372Y08412549D01*
D02*
G37*
G36*
X06888484D02*
X0688528D01*
X06884673Y08412429D01*
X0688416Y08412086D01*
X06883816Y08411571D01*
X06883696Y08410965D01*
Y08409011D01*
X06888484D01*
Y08412549D01*
D02*
G37*
G36*
X06895305Y08406979D02*
X06890516D01*
Y08403441D01*
X0689372D01*
X06894326Y08403561D01*
X06894841Y08403904D01*
X06895184Y08404418D01*
X06895305Y08405025D01*
Y08406979D01*
D02*
G37*
G36*
X06888484D02*
X06883696D01*
Y08405025D01*
X06883816Y08404418D01*
X0688416Y08403904D01*
X06884673Y08403561D01*
X0688528Y08403441D01*
X06888484D01*
Y08406979D01*
D02*
G37*
G36*
X0687197Y08506955D02*
X06870016D01*
Y08502167D01*
X06873555D01*
Y08505371D01*
X06873434Y08505977D01*
X0687309Y08506491D01*
X06872576Y08506835D01*
X0687197Y08506955D01*
D02*
G37*
G36*
X06867983D02*
X0686603D01*
X06865424Y08506835D01*
X0686491Y08506491D01*
X06864566Y08505977D01*
X06864446Y08505371D01*
Y08502167D01*
X06867983D01*
Y08506955D01*
D02*
G37*
G36*
X06873555Y08500135D02*
X06870016D01*
Y08495346D01*
X0687197D01*
X06872576Y08495467D01*
X0687309Y08495811D01*
X06873434Y08496324D01*
X06873555Y08496931D01*
Y08500135D01*
D02*
G37*
G36*
X06867983D02*
X06864446D01*
Y08496931D01*
X06864566Y08496324D01*
X0686491Y08495811D01*
X06865424Y08495467D01*
X0686603Y08495346D01*
X06867983D01*
Y08500135D01*
D02*
G37*
G36*
X06795472Y08495535D02*
X06793766D01*
Y08491247D01*
X06797054D01*
Y08493954D01*
X06796934Y08494559D01*
X06796591Y08495072D01*
X06796078Y08495415D01*
X06795472Y08495535D01*
D02*
G37*
G36*
X06791734D02*
X06790027D01*
X06789422Y08495415D01*
X06788909Y08495072D01*
X06788566Y08494559D01*
X06788445Y08493954D01*
Y08491247D01*
X06791734D01*
Y08495535D01*
D02*
G37*
G36*
X06797054Y08489215D02*
X06793766D01*
Y08484927D01*
X06795472D01*
X06796078Y08485047D01*
X06796591Y0848539D01*
X06796934Y08485903D01*
X06797054Y08486509D01*
Y08489215D01*
D02*
G37*
G36*
X06791734D02*
X06788445D01*
Y08486509D01*
X06788566Y08485903D01*
X06788909Y0848539D01*
X06789422Y08485047D01*
X06790027Y08484927D01*
X06791734D01*
Y08489215D01*
D02*
G37*
G36*
X06833723Y0850563D02*
X06828278D01*
X06827285Y08505219D01*
X06826873Y08504225D01*
Y0849678D01*
X06827285Y08495787D01*
X06828278Y08495376D01*
X06829058D01*
Y08485712D01*
X0682625D01*
X06824877Y08485438D01*
X06823712Y0848466D01*
X06822935Y08483496D01*
X06822661Y08482123D01*
X06822935Y08480749D01*
X06823712Y08479585D01*
X06823582Y0847836D01*
X06822917Y0847765D01*
X06821609Y08477637D01*
X06820192Y08479055D01*
Y0848725D01*
X06820045Y08487993D01*
X06819623Y08488624D01*
X06816642Y08491605D01*
X06816012Y08492026D01*
X06815269Y08492173D01*
X06811377D01*
Y08493954D01*
X06810966Y08494947D01*
X06809973Y08495358D01*
X06804528D01*
X06803535Y08494947D01*
X06803123Y08493954D01*
Y08486509D01*
X06803535Y08485516D01*
X06804528Y08485104D01*
X06809973D01*
X06810966Y08485516D01*
X06811377Y08486509D01*
Y08488289D01*
X06814464D01*
X06816308Y08486445D01*
Y0847825D01*
X06816456Y08477507D01*
X06816877Y08476877D01*
X06819504Y08474249D01*
X06820134Y08473828D01*
X06820878Y0847368D01*
X06823314D01*
X06823712Y08473085D01*
X06823582Y0847186D01*
X06822836Y08471065D01*
X06819182D01*
X06813758Y08476489D01*
X06813128Y0847691D01*
X06812385Y08477057D01*
X06811627D01*
Y08479335D01*
X06811215Y0848033D01*
X0681022Y08480743D01*
X0680428D01*
X06803285Y0848033D01*
X06802873Y08479335D01*
Y08470895D01*
X06803285Y08469901D01*
X0680428Y08469489D01*
X0681022D01*
X06811215Y08469901D01*
X06811627Y08470895D01*
Y08471467D01*
X068128Y08471953D01*
X06817004Y08467749D01*
X06817634Y08467328D01*
X06818378Y0846718D01*
X06823314D01*
X06823712Y08466584D01*
X06823582Y0846536D01*
X06822836Y08464565D01*
X06815872D01*
X06815129Y08464417D01*
X06814499Y08463996D01*
X06812647Y08462144D01*
X06811377Y08462429D01*
Y08463723D01*
X06810966Y08464716D01*
X06809973Y08465127D01*
X06804528D01*
X06803535Y08464716D01*
X06803123Y08463723D01*
Y08456277D01*
X06803535Y08455284D01*
X06804528Y08454873D01*
X06809973D01*
X06810966Y08455284D01*
X06811377Y08456277D01*
Y08458058D01*
X0681325D01*
X06813994Y08458206D01*
X06814623Y08458627D01*
X06816677Y0846068D01*
X06823314D01*
X06823712Y08460085D01*
X06824877Y08459307D01*
X0682625Y08459033D01*
X0683575D01*
X06837123Y08459307D01*
X06838288Y08460085D01*
X06839066Y08461249D01*
X06839339Y08462623D01*
X06839066Y08463996D01*
X06838288Y0846516D01*
X06838172Y08465237D01*
Y08466508D01*
X06838288Y08466584D01*
X06839066Y08467749D01*
X06839339Y08469122D01*
X06839066Y08470496D01*
X06838336Y08471589D01*
X06838172Y08471947D01*
Y08472798D01*
X06838336Y08473156D01*
X06839066Y08474249D01*
X06839339Y08475623D01*
X06839066Y08476996D01*
X06838288Y0847816D01*
X06838172Y08478237D01*
Y08479507D01*
X06838288Y08479585D01*
X06839066Y08480749D01*
X06839339Y08482123D01*
X06839066Y08483496D01*
X06838288Y0848466D01*
X06837123Y08485438D01*
X0683575Y08485712D01*
X06832943D01*
Y08495376D01*
X06833723D01*
X06834716Y08495787D01*
X06835127Y0849678D01*
Y08504225D01*
X06834716Y08505219D01*
X06833723Y0850563D01*
D02*
G37*
G36*
X0679572Y0848092D02*
X06793766D01*
Y08476131D01*
X06797305D01*
Y08479335D01*
X06797184Y08479942D01*
X0679684Y08480456D01*
X06796326Y084808D01*
X0679572Y0848092D01*
D02*
G37*
G36*
X06791733D02*
X0678978D01*
X06789174Y084808D01*
X0678866Y08480456D01*
X06788316Y08479942D01*
X06788196Y08479335D01*
Y08476131D01*
X06791733D01*
Y0848092D01*
D02*
G37*
G36*
X06797305Y08474099D02*
X06793766D01*
Y08469311D01*
X0679572D01*
X06796326Y08469432D01*
X0679684Y08469775D01*
X06797184Y08470289D01*
X06797305Y08470895D01*
Y08474099D01*
D02*
G37*
G36*
X06791733D02*
X06788196D01*
Y08470895D01*
X06788316Y08470289D01*
X0678866Y08469775D01*
X06789174Y08469432D01*
X0678978Y08469311D01*
X06791733D01*
Y08474099D01*
D02*
G37*
G36*
X06795472Y08465305D02*
X06793766D01*
Y08461016D01*
X06797054D01*
Y08463723D01*
X06796934Y08464328D01*
X06796591Y08464841D01*
X06796078Y08465184D01*
X06795472Y08465305D01*
D02*
G37*
G36*
X06791735D02*
X06790027D01*
X06789422Y08465184D01*
X06788909Y08464841D01*
X06788566Y08464328D01*
X06788445Y08463723D01*
Y08461016D01*
X06791735D01*
Y08465305D01*
D02*
G37*
G36*
X06797054Y08458984D02*
X06793766D01*
Y08454695D01*
X06795472D01*
X06796078Y08454816D01*
X06796591Y08455159D01*
X06796934Y08455672D01*
X06797054Y08456277D01*
Y08458984D01*
D02*
G37*
G36*
X06791735D02*
X06788445D01*
Y08456277D01*
X06788566Y08455672D01*
X06788909Y08455159D01*
X06789422Y08454816D01*
X06790027Y08454695D01*
X06791735D01*
Y08458984D01*
D02*
G37*
G36*
X0683575Y08453212D02*
X0682625D01*
X06824877Y08452938D01*
X06823712Y0845216D01*
X06823314Y08451565D01*
X06815872D01*
X06815129Y08451417D01*
X06814499Y08450996D01*
X068128Y08449297D01*
X06811388Y08449681D01*
X06811215Y08450099D01*
X0681022Y08450511D01*
X0680428D01*
X06803285Y08450099D01*
X06802873Y08449105D01*
Y08440665D01*
X06803285Y0843967D01*
X0680428Y08439257D01*
X0681022D01*
X06811215Y0843967D01*
X06811627Y08440665D01*
Y0844304D01*
X06811878Y0844309D01*
X06812508Y08443511D01*
X06816677Y0844768D01*
X06823314D01*
X06823712Y08447085D01*
X06823828Y08447007D01*
Y08445947D01*
X06823665Y08445589D01*
X06822935Y08444496D01*
X06822661Y08443123D01*
X06822935Y08441749D01*
X06823712Y08440585D01*
X06823582Y0843936D01*
X06822836Y08438565D01*
X06813373D01*
X06813373Y08438565D01*
X06812629Y08438417D01*
X06811999Y08437996D01*
X06811999Y08437996D01*
X06808696Y08434692D01*
X0678725D01*
X06786507Y08434545D01*
X06785876Y08434124D01*
X06783848Y08432095D01*
X06783428Y08431465D01*
X06783279Y08430722D01*
Y08427222D01*
X06782252D01*
X06781257Y0842681D01*
X06780845Y08425815D01*
Y08423538D01*
X06776133D01*
Y08425099D01*
X06775722Y08426093D01*
X06774729Y08426504D01*
X06767284D01*
X06766291Y08426093D01*
X0676588Y08425099D01*
Y08419655D01*
X06766291Y08418661D01*
X06767284Y0841825D01*
X06774729D01*
X06775722Y08418661D01*
X06776132Y08419653D01*
X06780845D01*
Y08417375D01*
X06781257Y0841638D01*
X06782252Y08415968D01*
X06788192D01*
X06789187Y0841638D01*
X06789599Y08417375D01*
Y08425815D01*
X06789187Y0842681D01*
X06788192Y08427222D01*
X06787164D01*
Y08429918D01*
X06788054Y08430807D01*
X068095D01*
X06810244Y08430955D01*
X06810873Y08431376D01*
X06814177Y0843468D01*
X06823314D01*
X06823712Y08434084D01*
X06824269Y08433712D01*
X06823884Y08432442D01*
X068165D01*
X06815757Y08432294D01*
X06815126Y08431873D01*
X06813061Y08429808D01*
X0681264Y08429178D01*
X06812492Y08428434D01*
Y08427222D01*
X06811464D01*
X06810469Y0842681D01*
X06810057Y08425815D01*
Y08423538D01*
X06804099D01*
Y08425815D01*
X06803687Y0842681D01*
X06802692Y08427222D01*
X06796752D01*
X06795757Y0842681D01*
X06795345Y08425815D01*
Y08417375D01*
X06795757Y0841638D01*
X06796752Y08415968D01*
X0679778D01*
Y08415778D01*
X06797927Y08415035D01*
X06798348Y08414405D01*
X06800773Y08411979D01*
X06800372Y08410709D01*
X06799546D01*
X06798551Y08410297D01*
X06798139Y08409302D01*
Y08400862D01*
X06798551Y08399868D01*
X06799546Y08399456D01*
X06805486D01*
X06806481Y08399868D01*
X06806893Y08400862D01*
Y08409302D01*
X06806481Y08410297D01*
X06805486Y08410709D01*
X06804942D01*
Y084125D01*
X06804794Y08413243D01*
X06804373Y08413873D01*
X06803372Y08414875D01*
X0680367Y08416373D01*
X06803687Y0841638D01*
X06804099Y08417375D01*
Y08419653D01*
X06810057D01*
Y08417375D01*
X06810469Y0841638D01*
X06811464Y08415968D01*
X06817405D01*
X068184Y0841638D01*
X06818812Y08417375D01*
Y08425815D01*
X068184Y0842681D01*
X0681821Y08428263D01*
X0681835Y08428483D01*
X06818511Y08428558D01*
X06837725D01*
X06838361Y08427288D01*
X06838123Y08426714D01*
Y08419269D01*
X06838535Y08418276D01*
X06839528Y08417865D01*
X06840308D01*
Y084144D01*
X06839528D01*
X06838535Y08413989D01*
X06838123Y08412996D01*
Y08405551D01*
X06838535Y08404557D01*
X06839528Y08404147D01*
X06844973D01*
X06845966Y08404557D01*
X06846377Y08405551D01*
Y08412996D01*
X06845966Y08413989D01*
X06844973Y084144D01*
X06844193D01*
Y08417865D01*
X06844973D01*
X06845966Y08418276D01*
X06846377Y08419269D01*
Y08426714D01*
X06845966Y08427708D01*
X06844973Y08428119D01*
X06844193D01*
Y0844125D01*
X06844045Y08441993D01*
X06843624Y08442623D01*
X06841751Y08444496D01*
X06841121Y08444917D01*
X06840378Y08445065D01*
X06838685D01*
X06838288Y0844566D01*
X06838172Y08445737D01*
Y08446798D01*
X06838336Y08447156D01*
X06839066Y08448249D01*
X06839339Y08449622D01*
X06839066Y08450996D01*
X06838288Y0845216D01*
X06837123Y08452938D01*
X0683575Y08453212D01*
D02*
G37*
G36*
X0679572Y08450689D02*
X06793766D01*
Y08445901D01*
X06797305D01*
Y08449105D01*
X06797184Y08449711D01*
X0679684Y08450225D01*
X06796326Y08450568D01*
X0679572Y08450689D01*
D02*
G37*
G36*
X06791734D02*
X0678978D01*
X06789174Y08450568D01*
X0678866Y08450225D01*
X06788316Y08449711D01*
X06788196Y08449105D01*
Y08445901D01*
X06791734D01*
Y08450689D01*
D02*
G37*
G36*
X06797305Y08443868D02*
X06793766D01*
Y0843908D01*
X0679572D01*
X06796326Y084392D01*
X0679684Y08439544D01*
X06797184Y08440058D01*
X06797305Y08440665D01*
Y08443868D01*
D02*
G37*
G36*
X06791734D02*
X06788196D01*
Y08440665D01*
X06788316Y08440058D01*
X0678866Y08439544D01*
X06789174Y084392D01*
X0678978Y0843908D01*
X06791734D01*
Y08443868D01*
D02*
G37*
G36*
X06859473Y08428297D02*
X06857766D01*
Y08424008D01*
X06861055D01*
Y08426714D01*
X06860934Y0842732D01*
X06860591Y08427833D01*
X06860078Y08428176D01*
X06859473Y08428297D01*
D02*
G37*
G36*
X06855734D02*
X06854028D01*
X06853422Y08428176D01*
X06852909Y08427833D01*
X06852566Y0842732D01*
X06852446Y08426714D01*
Y08424008D01*
X06855734D01*
Y08428297D01*
D02*
G37*
G36*
X06861055Y08421976D02*
X06857766D01*
Y08417687D01*
X06859473D01*
X06860078Y08417808D01*
X06860591Y08418151D01*
X06860934Y08418664D01*
X06861055Y08419269D01*
Y08421976D01*
D02*
G37*
G36*
X06855734D02*
X06852446D01*
Y08419269D01*
X06852566Y08418664D01*
X06852909Y08418151D01*
X06853422Y08417808D01*
X06854028Y08417687D01*
X06855734D01*
Y08421976D01*
D02*
G37*
G36*
X06831904Y08427222D02*
X06825964D01*
X06824969Y0842681D01*
X06824557Y08425815D01*
Y08417375D01*
X06824969Y0841638D01*
X06825964Y08415968D01*
X06826992D01*
Y08411351D01*
X06826616Y08411195D01*
X06826205Y08410202D01*
Y08402757D01*
X06826616Y08401764D01*
X06827609Y08401353D01*
X06833054D01*
X06834047Y08401764D01*
X06834458Y08402757D01*
Y08410202D01*
X06834047Y08411195D01*
X06833054Y08411606D01*
X06830877D01*
Y08415968D01*
X06831904D01*
X06832899Y0841638D01*
X06833312Y08417375D01*
Y08425815D01*
X06832899Y0842681D01*
X06831904Y08427222D01*
D02*
G37*
G36*
X06774729Y08412004D02*
X06767284D01*
X06766291Y08411592D01*
X0676588Y08410599D01*
Y08405154D01*
X06766291Y08404161D01*
X06767284Y0840375D01*
X06774729D01*
X06775722Y08404161D01*
X06775743Y08404213D01*
X06777242Y08404512D01*
X06778044Y08403709D01*
X06778044Y08403709D01*
X06778674Y08403288D01*
X06779418Y0840314D01*
X06783639D01*
Y08400862D01*
X06784051Y08399868D01*
X06785046Y08399456D01*
X06790986D01*
X06791981Y08399868D01*
X06792393Y08400862D01*
Y08409302D01*
X06791981Y08410297D01*
X06790986Y08410709D01*
X06785046D01*
X06784051Y08410297D01*
X06783639Y08409302D01*
Y08407025D01*
X06780222D01*
X06777997Y0840925D01*
X06777366Y08409671D01*
X06776623Y08409819D01*
X06776133D01*
Y08410599D01*
X06775722Y08411592D01*
X06774729Y08412004D01*
D02*
G37*
%LPD*%
D10*
X0680725Y08444885D02*
D03*
X0679275D02*
D03*
X0680725Y08475115D02*
D03*
X0679275D02*
D03*
X06802516Y08405082D02*
D03*
X06788016D02*
D03*
X06799722Y08421595D02*
D03*
X06785222D02*
D03*
X068835Y08501151D02*
D03*
X06869D02*
D03*
X06814434Y08421595D02*
D03*
X06828934D02*
D03*
D11*
X06901235Y085155D02*
D03*
Y08501D02*
D03*
X06927302Y08471038D02*
D03*
Y08456537D02*
D03*
X068895Y08422495D02*
D03*
Y08407995D02*
D03*
D12*
X06932Y08606793D02*
D03*
Y08562792D02*
D03*
X07010043Y08606793D02*
D03*
Y08562792D02*
D03*
D13*
X06718915Y08624575D02*
D03*
Y08536074D02*
D03*
X06834957Y08626884D02*
D03*
Y08538384D02*
D03*
D14*
X07098085Y08604D02*
D03*
Y0853D02*
D03*
X07196127Y08605873D02*
D03*
Y08531873D02*
D03*
D15*
X07095213Y08454127D02*
D03*
X07048213D02*
D03*
D16*
X06953934Y0852644D02*
D03*
X06967396D02*
D03*
X06980604D02*
D03*
X06994066D02*
D03*
X0699305Y0847025D02*
D03*
X0698035D02*
D03*
X0696765D02*
D03*
X0695495D02*
D03*
D17*
X0700419Y08449603D02*
D03*
Y08436141D02*
D03*
Y08422933D02*
D03*
Y08409471D02*
D03*
X06948Y08410487D02*
D03*
Y08423187D02*
D03*
Y08435887D02*
D03*
Y08448587D02*
D03*
D18*
X0680725Y0846D02*
D03*
X0679275D02*
D03*
X0680725Y08490231D02*
D03*
X0679275D02*
D03*
X06831Y08500503D02*
D03*
X068455D02*
D03*
X06815831Y08406479D02*
D03*
X06830331D02*
D03*
X0685675Y08409274D02*
D03*
X0684225D02*
D03*
Y08422992D02*
D03*
X0685675D02*
D03*
D19*
X06916351Y085005D02*
D03*
Y08515D02*
D03*
X06771006Y08422377D02*
D03*
Y08407877D02*
D03*
D20*
X068605Y08459373D02*
D03*
D21*
X0689Y08436622D02*
D03*
Y08443123D02*
D03*
Y08449622D02*
D03*
Y08456122D02*
D03*
Y08462623D02*
D03*
Y08469122D02*
D03*
Y08475623D02*
D03*
Y08482123D02*
D03*
X06831Y08436622D02*
D03*
Y08443123D02*
D03*
Y08449622D02*
D03*
Y08456122D02*
D03*
Y08462623D02*
D03*
Y08469122D02*
D03*
Y08475623D02*
D03*
Y08482123D02*
D03*
D22*
X06919013Y08410487D02*
X06948D01*
X0690824Y0842126D02*
X06919013Y08410487D01*
X0690824Y0842126D02*
Y08440259D01*
X06905377Y08443123D02*
X0690824Y08440259D01*
X0689Y08443123D02*
X06905377D01*
X0689Y08456122D02*
X06914373D01*
X06914788Y08456537D01*
X06909Y0846375D02*
X06918D01*
X06907872Y08462623D02*
X06909Y0846375D01*
X0689Y08462623D02*
X06907872D01*
X06914788Y08456537D02*
X06927302D01*
X0699825Y084665D02*
X07001Y0846375D01*
X0699425Y084665D02*
X0699825D01*
X0699305Y084677D02*
X0699425Y084665D01*
X0699305Y084677D02*
Y0847025D01*
D23*
X06880005Y08422495D02*
X068895D01*
X0687775Y0842475D02*
X06880005Y08422495D01*
X0687775Y0842475D02*
Y0844725D01*
X06880123Y08449622D01*
X0689D01*
X06901235Y08501D02*
X06901735Y085005D01*
X06916351D01*
X0689Y08482123D02*
X06899373D01*
X06901235Y08483985D01*
Y08501D01*
X06815831Y08400419D02*
X0681825Y08398D01*
X0685675D01*
Y08409274D01*
Y08398D02*
X07205366D01*
X0721175Y08404385D01*
Y0845975D01*
X06914373Y08469122D02*
X0691625Y08471D01*
X0689Y08469122D02*
X06914373D01*
X06815831Y08400419D02*
Y08406479D01*
X0678725Y0843275D02*
X068095D01*
X06785222Y08430722D02*
X0678725Y0843275D01*
X06785222Y08421595D02*
Y08430722D01*
X068095Y0843275D02*
X06813373Y08436622D01*
X06831D01*
X0684225Y084305D02*
Y0844125D01*
Y08422992D02*
Y084305D01*
X068165D02*
X0684225D01*
X06814434Y08428434D02*
X068165Y084305D01*
X06814434Y08421595D02*
Y08428434D01*
X06799722Y08421595D02*
X06814434D01*
X06771006Y08422377D02*
X06771788Y08421595D01*
X06785222D01*
X06771006Y08407877D02*
X06776623D01*
X06779418Y08405082D01*
X06788016D01*
X06802516D02*
X06803Y08405566D01*
Y084125D01*
X06799722Y08415778D02*
X06803Y084125D01*
X06799722Y08415778D02*
Y08421595D01*
X06828934Y08407877D02*
X06830331Y08406479D01*
X06828934Y08407877D02*
Y08421595D01*
X0684225Y08409274D02*
Y08422992D01*
X06840378Y08443123D02*
X0684225Y0844125D01*
X06831Y08443123D02*
X06840378D01*
X0680725Y08444885D02*
X06811135D01*
X06815872Y08449622D01*
X06831D01*
X06815872Y08462623D02*
X06831D01*
X0681325Y0846D02*
X06815872Y08462623D01*
X0680725Y0846D02*
X0681325D01*
X06818378Y08469122D02*
X06831D01*
X06812385Y08475115D02*
X06818378Y08469122D01*
X0680725Y08475115D02*
X06812385D01*
X0680725Y08490231D02*
X06815269D01*
X0681825Y0848725D01*
Y0847825D02*
Y0848725D01*
Y0847825D02*
X06820878Y08475623D01*
X06831D01*
Y08482123D02*
Y08500503D01*
X068455D02*
Y0851375D01*
X0691625Y08471D02*
X06927264D01*
X06927302Y08471038D01*
D24*
X06874812Y0841525D02*
X0687875D01*
D25*
X0672625Y08483D02*
D03*
X0718875D02*
D03*
D26*
X0672625Y084322D02*
D03*
X0718875D02*
D03*
D27*
X0723392Y0864616D02*
D03*
Y08636D02*
D03*
Y0862584D02*
D03*
Y0861568D02*
D03*
Y0860552D02*
D03*
Y0859536D02*
D03*
Y085852D02*
D03*
Y0857504D02*
D03*
Y0856488D02*
D03*
Y0855472D02*
D03*
Y0854456D02*
D03*
Y085344D02*
D03*
Y0852424D02*
D03*
Y0851408D02*
D03*
Y0850392D02*
D03*
Y0849376D02*
D03*
Y084836D02*
D03*
Y0847344D02*
D03*
Y0846328D02*
D03*
Y0845312D02*
D03*
Y0844296D02*
D03*
Y084328D02*
D03*
Y0842264D02*
D03*
Y0841248D02*
D03*
Y0840232D02*
D03*
Y0839216D02*
D03*
X0722376Y0864616D02*
D03*
Y08636D02*
D03*
Y0862584D02*
D03*
Y0861568D02*
D03*
Y0860552D02*
D03*
Y0859536D02*
D03*
Y085852D02*
D03*
Y0857504D02*
D03*
Y0856488D02*
D03*
Y0855472D02*
D03*
Y0854456D02*
D03*
Y085344D02*
D03*
Y0852424D02*
D03*
Y0851408D02*
D03*
Y0850392D02*
D03*
Y0849376D02*
D03*
Y084836D02*
D03*
Y0847344D02*
D03*
Y0846328D02*
D03*
Y0845312D02*
D03*
Y0844296D02*
D03*
Y084328D02*
D03*
Y0842264D02*
D03*
Y0841248D02*
D03*
Y0840232D02*
D03*
Y0839216D02*
D03*
X072136Y0864616D02*
D03*
Y08636D02*
D03*
Y0862584D02*
D03*
Y0861568D02*
D03*
Y0860552D02*
D03*
Y0859536D02*
D03*
Y085852D02*
D03*
Y0857504D02*
D03*
Y0856488D02*
D03*
Y0839216D02*
D03*
X0720344Y0864616D02*
D03*
Y08636D02*
D03*
Y0857504D02*
D03*
Y0856488D02*
D03*
Y0845312D02*
D03*
Y0841248D02*
D03*
Y0839216D02*
D03*
X0719328Y0864616D02*
D03*
Y08636D02*
D03*
Y0857504D02*
D03*
Y0856488D02*
D03*
Y0845312D02*
D03*
Y0841248D02*
D03*
Y0839216D02*
D03*
X0718312Y0864616D02*
D03*
Y08636D02*
D03*
Y0857504D02*
D03*
Y0856488D02*
D03*
Y0845312D02*
D03*
Y0841248D02*
D03*
Y0839216D02*
D03*
X0717296Y0864616D02*
D03*
Y08636D02*
D03*
Y0862584D02*
D03*
Y0861568D02*
D03*
Y0860552D02*
D03*
Y0859536D02*
D03*
Y085852D02*
D03*
Y0857504D02*
D03*
Y0856488D02*
D03*
Y0845312D02*
D03*
Y0844296D02*
D03*
Y0841248D02*
D03*
Y0839216D02*
D03*
X071628Y0864616D02*
D03*
Y08636D02*
D03*
Y0862584D02*
D03*
Y0861568D02*
D03*
Y0860552D02*
D03*
Y0859536D02*
D03*
Y085852D02*
D03*
Y0857504D02*
D03*
Y0856488D02*
D03*
Y0839216D02*
D03*
X0715264Y0864616D02*
D03*
Y08636D02*
D03*
Y0862584D02*
D03*
Y0861568D02*
D03*
Y0860552D02*
D03*
Y0859536D02*
D03*
Y085852D02*
D03*
Y0857504D02*
D03*
Y0856488D02*
D03*
Y0839216D02*
D03*
X0714248Y0864616D02*
D03*
Y08636D02*
D03*
Y0862584D02*
D03*
Y0861568D02*
D03*
Y0860552D02*
D03*
Y0859536D02*
D03*
Y085852D02*
D03*
Y0857504D02*
D03*
Y0856488D02*
D03*
Y0839216D02*
D03*
X0713232Y0864616D02*
D03*
Y08636D02*
D03*
Y0862584D02*
D03*
Y0861568D02*
D03*
Y0860552D02*
D03*
Y0859536D02*
D03*
Y085852D02*
D03*
Y0857504D02*
D03*
Y0856488D02*
D03*
Y0839216D02*
D03*
X0712216Y0864616D02*
D03*
Y08636D02*
D03*
Y0862584D02*
D03*
Y0861568D02*
D03*
Y0860552D02*
D03*
Y0859536D02*
D03*
Y085852D02*
D03*
Y0857504D02*
D03*
Y0856488D02*
D03*
Y0839216D02*
D03*
X07112Y0864616D02*
D03*
Y08636D02*
D03*
Y0857504D02*
D03*
Y0856488D02*
D03*
Y0839216D02*
D03*
X0710184Y0864616D02*
D03*
Y08636D02*
D03*
Y0857504D02*
D03*
Y0856488D02*
D03*
Y0839216D02*
D03*
X0709168Y0864616D02*
D03*
Y08636D02*
D03*
Y0857504D02*
D03*
Y0856488D02*
D03*
Y0839216D02*
D03*
X0708152Y0864616D02*
D03*
Y08636D02*
D03*
Y0862584D02*
D03*
Y0861568D02*
D03*
Y0860552D02*
D03*
Y0859536D02*
D03*
Y085852D02*
D03*
Y0857504D02*
D03*
Y0856488D02*
D03*
Y0839216D02*
D03*
X0707136Y0864616D02*
D03*
Y08636D02*
D03*
Y0862584D02*
D03*
Y0861568D02*
D03*
Y0860552D02*
D03*
Y0859536D02*
D03*
Y085852D02*
D03*
Y0857504D02*
D03*
Y0856488D02*
D03*
Y0839216D02*
D03*
X070612Y0864616D02*
D03*
Y08636D02*
D03*
Y0862584D02*
D03*
Y0861568D02*
D03*
Y0860552D02*
D03*
Y0859536D02*
D03*
Y085852D02*
D03*
Y0857504D02*
D03*
Y0856488D02*
D03*
Y0855472D02*
D03*
Y0854456D02*
D03*
Y085344D02*
D03*
Y0852424D02*
D03*
Y0851408D02*
D03*
Y0850392D02*
D03*
Y0839216D02*
D03*
X0705104Y0864616D02*
D03*
Y08636D02*
D03*
Y0862584D02*
D03*
Y0861568D02*
D03*
Y0860552D02*
D03*
Y0859536D02*
D03*
Y085852D02*
D03*
Y0857504D02*
D03*
Y0856488D02*
D03*
Y0855472D02*
D03*
Y0854456D02*
D03*
Y085344D02*
D03*
Y0852424D02*
D03*
Y0851408D02*
D03*
Y0850392D02*
D03*
Y0839216D02*
D03*
X0704088Y0864616D02*
D03*
Y08636D02*
D03*
Y0862584D02*
D03*
Y0861568D02*
D03*
Y0860552D02*
D03*
Y0859536D02*
D03*
Y085852D02*
D03*
Y0857504D02*
D03*
Y0856488D02*
D03*
Y0855472D02*
D03*
Y0854456D02*
D03*
Y085344D02*
D03*
Y0852424D02*
D03*
Y0851408D02*
D03*
Y0850392D02*
D03*
Y0839216D02*
D03*
X0703072Y0864616D02*
D03*
Y08636D02*
D03*
Y0862584D02*
D03*
Y0861568D02*
D03*
Y0860552D02*
D03*
Y0859536D02*
D03*
Y085852D02*
D03*
Y0857504D02*
D03*
Y0856488D02*
D03*
Y0855472D02*
D03*
Y0854456D02*
D03*
Y085344D02*
D03*
Y0852424D02*
D03*
Y0851408D02*
D03*
Y0850392D02*
D03*
Y0839216D02*
D03*
X0702056Y0864616D02*
D03*
Y08636D02*
D03*
Y0852424D02*
D03*
Y0851408D02*
D03*
Y0850392D02*
D03*
Y0839216D02*
D03*
X070104Y0864616D02*
D03*
Y08636D02*
D03*
Y0852424D02*
D03*
Y0851408D02*
D03*
Y0850392D02*
D03*
Y0849376D02*
D03*
Y084836D02*
D03*
Y0847344D02*
D03*
Y0846328D02*
D03*
Y0839216D02*
D03*
X0700024Y0864616D02*
D03*
Y08636D02*
D03*
Y0839216D02*
D03*
X0699008Y0864616D02*
D03*
Y08636D02*
D03*
Y0862584D02*
D03*
Y0861568D02*
D03*
Y0860552D02*
D03*
Y0859536D02*
D03*
Y0839216D02*
D03*
X0697992Y0864616D02*
D03*
Y08636D02*
D03*
Y0862584D02*
D03*
Y0861568D02*
D03*
Y0860552D02*
D03*
Y0859536D02*
D03*
Y0839216D02*
D03*
X0696976Y0864616D02*
D03*
Y08636D02*
D03*
Y0862584D02*
D03*
Y0861568D02*
D03*
Y0860552D02*
D03*
Y0859536D02*
D03*
Y0839216D02*
D03*
X069596Y0864616D02*
D03*
Y08636D02*
D03*
Y0862584D02*
D03*
Y0861568D02*
D03*
Y0860552D02*
D03*
Y0859536D02*
D03*
Y0839216D02*
D03*
X0694944Y0864616D02*
D03*
Y08636D02*
D03*
Y0862584D02*
D03*
Y0861568D02*
D03*
Y0860552D02*
D03*
Y0859536D02*
D03*
Y0839216D02*
D03*
X0693928Y0864616D02*
D03*
Y08636D02*
D03*
Y0839216D02*
D03*
X0692912Y0864616D02*
D03*
Y08636D02*
D03*
Y0844296D02*
D03*
Y084328D02*
D03*
Y0842264D02*
D03*
Y0839216D02*
D03*
X0691896Y0864616D02*
D03*
Y08636D02*
D03*
Y0862584D02*
D03*
Y0844296D02*
D03*
Y084328D02*
D03*
Y0842264D02*
D03*
Y0839216D02*
D03*
X069088Y0864616D02*
D03*
Y08636D02*
D03*
Y0862584D02*
D03*
Y0861568D02*
D03*
Y0860552D02*
D03*
Y0859536D02*
D03*
Y0841248D02*
D03*
Y0839216D02*
D03*
X0689864Y0864616D02*
D03*
Y08636D02*
D03*
Y0862584D02*
D03*
Y0861568D02*
D03*
Y0860552D02*
D03*
Y0859536D02*
D03*
Y0842264D02*
D03*
Y0841248D02*
D03*
Y0839216D02*
D03*
X0688848Y0864616D02*
D03*
Y08636D02*
D03*
Y0862584D02*
D03*
Y0861568D02*
D03*
Y0860552D02*
D03*
Y0859536D02*
D03*
Y0839216D02*
D03*
X0687832Y0864616D02*
D03*
Y08636D02*
D03*
Y0862584D02*
D03*
Y0861568D02*
D03*
Y0860552D02*
D03*
Y0859536D02*
D03*
X0686816Y0864616D02*
D03*
Y08636D02*
D03*
Y0862584D02*
D03*
Y0861568D02*
D03*
Y0860552D02*
D03*
Y0859536D02*
D03*
Y084836D02*
D03*
Y0844296D02*
D03*
Y084328D02*
D03*
Y0842264D02*
D03*
Y0841248D02*
D03*
Y0839216D02*
D03*
X06858Y0864616D02*
D03*
Y08636D02*
D03*
Y0862584D02*
D03*
Y0861568D02*
D03*
Y0860552D02*
D03*
Y0859536D02*
D03*
Y0850392D02*
D03*
Y0849376D02*
D03*
Y084836D02*
D03*
Y0844296D02*
D03*
Y084328D02*
D03*
Y0839216D02*
D03*
X0684784Y0859536D02*
D03*
Y084836D02*
D03*
Y0844296D02*
D03*
Y084328D02*
D03*
Y0839216D02*
D03*
X0683768Y0859536D02*
D03*
Y0849376D02*
D03*
Y0839216D02*
D03*
X0682752Y0859536D02*
D03*
Y0839216D02*
D03*
X0681736Y0864616D02*
D03*
Y08636D02*
D03*
Y0862584D02*
D03*
Y0861568D02*
D03*
Y0860552D02*
D03*
Y0859536D02*
D03*
Y0850392D02*
D03*
Y0839216D02*
D03*
X068072Y0864616D02*
D03*
Y08636D02*
D03*
Y0862584D02*
D03*
Y0861568D02*
D03*
Y0860552D02*
D03*
Y0859536D02*
D03*
Y0850392D02*
D03*
Y0839216D02*
D03*
X0679704Y0864616D02*
D03*
Y08636D02*
D03*
Y0862584D02*
D03*
Y0861568D02*
D03*
Y0860552D02*
D03*
Y0859536D02*
D03*
Y0850392D02*
D03*
Y0839216D02*
D03*
X0678688Y0864616D02*
D03*
Y08636D02*
D03*
Y0862584D02*
D03*
Y0861568D02*
D03*
Y0860552D02*
D03*
Y0859536D02*
D03*
Y0850392D02*
D03*
Y0839216D02*
D03*
X0677672Y0864616D02*
D03*
Y08636D02*
D03*
Y0862584D02*
D03*
Y0861568D02*
D03*
Y0860552D02*
D03*
Y0859536D02*
D03*
Y0850392D02*
D03*
Y0849376D02*
D03*
Y084836D02*
D03*
Y0847344D02*
D03*
Y0846328D02*
D03*
Y0845312D02*
D03*
Y0844296D02*
D03*
Y084328D02*
D03*
Y0839216D02*
D03*
X0676656Y0864616D02*
D03*
Y08636D02*
D03*
Y0862584D02*
D03*
Y0861568D02*
D03*
Y0860552D02*
D03*
Y0859536D02*
D03*
Y0850392D02*
D03*
Y0849376D02*
D03*
Y084836D02*
D03*
Y0847344D02*
D03*
Y0846328D02*
D03*
Y0845312D02*
D03*
Y0844296D02*
D03*
Y084328D02*
D03*
Y0839216D02*
D03*
X067564Y0864616D02*
D03*
Y08636D02*
D03*
Y0862584D02*
D03*
Y0861568D02*
D03*
Y0860552D02*
D03*
Y0859536D02*
D03*
Y0839216D02*
D03*
X0674624Y0864616D02*
D03*
Y08636D02*
D03*
Y0862584D02*
D03*
Y0861568D02*
D03*
Y0860552D02*
D03*
Y0859536D02*
D03*
Y0845312D02*
D03*
Y0844296D02*
D03*
Y084328D02*
D03*
Y0842264D02*
D03*
Y0841248D02*
D03*
Y0840232D02*
D03*
Y0839216D02*
D03*
X0673608Y0864616D02*
D03*
Y08636D02*
D03*
Y0862584D02*
D03*
Y0861568D02*
D03*
Y0860552D02*
D03*
Y0859536D02*
D03*
Y0845312D02*
D03*
Y0841248D02*
D03*
Y0840232D02*
D03*
Y0839216D02*
D03*
X0672592Y0859536D02*
D03*
Y0845312D02*
D03*
Y0841248D02*
D03*
Y0840232D02*
D03*
Y0839216D02*
D03*
X0671576Y0859536D02*
D03*
Y0845312D02*
D03*
Y0841248D02*
D03*
Y0840232D02*
D03*
Y0839216D02*
D03*
X067056Y0859536D02*
D03*
Y0845312D02*
D03*
Y0844296D02*
D03*
Y084328D02*
D03*
Y0842264D02*
D03*
Y0841248D02*
D03*
Y0840232D02*
D03*
Y0839216D02*
D03*
X0669544Y0864616D02*
D03*
Y08636D02*
D03*
Y0862584D02*
D03*
Y0861568D02*
D03*
Y0860552D02*
D03*
Y0859536D02*
D03*
Y085852D02*
D03*
Y0857504D02*
D03*
Y0856488D02*
D03*
Y0855472D02*
D03*
Y0854456D02*
D03*
Y085344D02*
D03*
Y0852424D02*
D03*
Y0851408D02*
D03*
Y0850392D02*
D03*
Y0849376D02*
D03*
Y084836D02*
D03*
Y0847344D02*
D03*
Y0846328D02*
D03*
Y0845312D02*
D03*
Y0844296D02*
D03*
Y084328D02*
D03*
Y0842264D02*
D03*
Y0841248D02*
D03*
Y0840232D02*
D03*
Y0839216D02*
D03*
X0668528Y0864616D02*
D03*
Y08636D02*
D03*
Y0862584D02*
D03*
Y0861568D02*
D03*
Y0860552D02*
D03*
Y0859536D02*
D03*
Y085852D02*
D03*
Y0857504D02*
D03*
Y0856488D02*
D03*
Y0855472D02*
D03*
Y0854456D02*
D03*
Y085344D02*
D03*
Y0852424D02*
D03*
Y0851408D02*
D03*
Y0850392D02*
D03*
Y0849376D02*
D03*
Y084836D02*
D03*
Y0847344D02*
D03*
Y0846328D02*
D03*
Y0845312D02*
D03*
Y0844296D02*
D03*
Y084328D02*
D03*
Y0842264D02*
D03*
Y0841248D02*
D03*
Y0840232D02*
D03*
Y0839216D02*
D03*
X0667512Y0864616D02*
D03*
Y08636D02*
D03*
Y0862584D02*
D03*
Y0861568D02*
D03*
Y0860552D02*
D03*
Y0859536D02*
D03*
Y085852D02*
D03*
Y0857504D02*
D03*
Y0856488D02*
D03*
Y0855472D02*
D03*
Y0854456D02*
D03*
Y085344D02*
D03*
Y0852424D02*
D03*
Y0851408D02*
D03*
Y0850392D02*
D03*
Y0849376D02*
D03*
Y084836D02*
D03*
Y0847344D02*
D03*
Y0846328D02*
D03*
Y0845312D02*
D03*
Y0844296D02*
D03*
Y084328D02*
D03*
Y0842264D02*
D03*
Y0841248D02*
D03*
Y0840232D02*
D03*
Y0839216D02*
D03*
X07001Y0846375D02*
D03*
X0681925Y08443D02*
D03*
X06918Y0846375D02*
D03*
D28*
X06866Y08453873D02*
D03*
X06855D02*
D03*
X06866Y08464872D02*
D03*
X06855D02*
D03*
M02*
