G04 Layer_Color=16777215*
%FSTAX44Y44*%
%MOMM*%
G71*
G01*
G75*
%ADD22C,0.2540*%
%ADD23C,0.1270*%
%ADD29C,0.2500*%
%ADD30C,0.2000*%
%ADD31C,0.1016*%
G36*
X06938396Y08451721D02*
X06938677Y08451439D01*
X06938829Y08451072D01*
Y08450873D01*
Y08450674D01*
X06938677Y08450306D01*
X06938396Y08450025D01*
X06938029Y08449873D01*
X06937631D01*
X06937263Y08450025D01*
X06936982Y08450306D01*
X0693683Y08450674D01*
Y08450873D01*
Y08451072D01*
X06936982Y08451439D01*
X06937263Y08451721D01*
X06937631Y08451873D01*
X06938029D01*
X06938396Y08451721D01*
D02*
G37*
G36*
X06953231Y08460927D02*
X06953512Y08460646D01*
X06953664Y08460278D01*
Y08460079D01*
Y08459881D01*
X06953512Y08459513D01*
X06953231Y08459232D01*
X06952863Y0845908D01*
X06952465D01*
X06952098Y08459232D01*
X06951816Y08459513D01*
X06951664Y08459881D01*
Y08460079D01*
Y08460278D01*
X06951816Y08460646D01*
X06952098Y08460927D01*
X06952465Y0846108D01*
X06952863D01*
X06953231Y08460927D01*
D02*
G37*
D22*
X07156554Y08469407D02*
X07154015Y08466868D01*
Y08461789D01*
X07156554Y0845925D01*
X07166711D01*
X0716925Y08461789D01*
Y08466868D01*
X07166711Y08469407D01*
X07154015Y08482103D02*
Y08477025D01*
X07156554Y08474485D01*
X07166711D01*
X0716925Y08477025D01*
Y08482103D01*
X07166711Y08484642D01*
X07156554D01*
X07154015Y08482103D01*
Y0848972D02*
X07166711D01*
X0716925Y0849226D01*
Y08497338D01*
X07166711Y08499877D01*
X07154015D01*
Y08504955D02*
Y08515112D01*
Y08510034D01*
X0716925D01*
X06745304Y08474907D02*
X06742765Y08472368D01*
Y08467289D01*
X06745304Y0846475D01*
X06755461D01*
X06758Y08467289D01*
Y08472368D01*
X06755461Y08474907D01*
X06742765Y08479985D02*
Y08485063D01*
Y08482524D01*
X06758D01*
Y08479985D01*
Y08485063D01*
Y08492681D02*
X06742765D01*
X06758Y08502838D01*
X06742765D01*
D23*
X068127Y08438535D02*
Y08451235D01*
X067873Y08438535D02*
X068127D01*
X067873Y08451235D02*
X068127D01*
X067873Y08438535D02*
Y08451235D01*
X068Y08438535D02*
Y08451235D01*
X068127Y08468765D02*
Y08481465D01*
X067873Y08468765D02*
X068127D01*
X067873Y08481465D02*
X068127D01*
X067873Y08468765D02*
Y08481465D01*
X068Y08468765D02*
Y08481465D01*
X06894885Y0852095D02*
X06907585D01*
Y0849555D02*
Y0852095D01*
X06894885Y0849555D02*
Y0852095D01*
Y0849555D02*
X06907585D01*
X06894885Y0850825D02*
X06907585D01*
X06807966Y08398732D02*
Y08411432D01*
X06782566Y08398732D02*
X06807966D01*
X06782566Y08411432D02*
X06807966D01*
X06782566Y08398732D02*
Y08411432D01*
X06795266Y08398732D02*
Y08411432D01*
X06805172Y08415245D02*
Y08427945D01*
X06779772Y08415245D02*
X06805172D01*
X06779772Y08427945D02*
X06805172D01*
X06779772Y08415245D02*
Y08427945D01*
X06792472Y08415245D02*
Y08427945D01*
X0688895Y08494801D02*
Y08507501D01*
X0686355Y08494801D02*
X0688895D01*
X0686355Y08507501D02*
X0688895D01*
X0686355Y08494801D02*
Y08507501D01*
X0687625Y08494801D02*
Y08507501D01*
X06920952Y08476487D02*
X06933652D01*
Y08451088D02*
Y08476487D01*
X06920952Y08451088D02*
Y08476487D01*
Y08451088D02*
X06933652D01*
X06920952Y08463787D02*
X06933652D01*
X0688315Y08427945D02*
X0689585D01*
Y08402545D02*
Y08427945D01*
X0688315Y08402545D02*
Y08427945D01*
Y08402545D02*
X0689585D01*
X0688315Y08415245D02*
X0689585D01*
X06808984D02*
Y08427945D01*
X06834385D01*
X06808984Y08415245D02*
X06834385D01*
Y08427945D01*
X06821685Y08415245D02*
Y08427945D01*
X069595Y08566417D02*
Y08612292D01*
X0694425D02*
X069595D01*
X069045D02*
X0691975D01*
X069045Y08566417D02*
Y08612292D01*
X0694425Y08557292D02*
X06950375D01*
X069595Y08566417D01*
X069045D02*
X06913625Y08557292D01*
X0691975D01*
X07037543Y08566417D02*
Y08612292D01*
X07022292D02*
X07037543D01*
X06982543D02*
X06997792D01*
X06982543Y08566417D02*
Y08612292D01*
X07022292Y08557292D02*
X07028417D01*
X07037543Y08566417D01*
X06982543D02*
X06991667Y08557292D01*
X06997792D01*
X06770415Y085497D02*
Y08631824D01*
X06731665D02*
X06770415D01*
X06667415D02*
X06706165D01*
X06667415Y085497D02*
Y08631824D01*
X06731665Y08528824D02*
X0674954D01*
X06770415Y085497D01*
X06667415D02*
X0668829Y08528824D01*
X06706165D01*
X06886458Y08552009D02*
Y08634134D01*
X06847708D02*
X06886458D01*
X06783458D02*
X06822208D01*
X06783458Y08552009D02*
Y08634134D01*
X06847708Y08531133D02*
X06865582D01*
X06886458Y08552009D01*
X06783458D02*
X06804332Y08531133D01*
X06822208D01*
X07140585Y085405D02*
Y086095D01*
X07111585D02*
X07140585D01*
X07055585D02*
X07084585D01*
X07055585Y085405D02*
Y086095D01*
X07111585Y085245D02*
X07124585D01*
X07140585Y085405D01*
X07055585D02*
X07071585Y085245D01*
X07084585D01*
X07238627Y08542372D02*
Y08611373D01*
X07209628D02*
X07238627D01*
X07153627D02*
X07182628D01*
X07153627Y08542372D02*
Y08611373D01*
X07209628Y08526373D02*
X07222628D01*
X07238627Y08542372D01*
X07153627D02*
X07169628Y08526373D01*
X07182628D01*
X06842Y08433873D02*
X06879D01*
X06842Y08484872D02*
X06879D01*
Y08433873D02*
Y08484872D01*
X06842Y08433873D02*
Y08484872D01*
X06780886Y08449982D02*
X06780039Y08450828D01*
X06778347D01*
X067775Y08449982D01*
Y08446597D01*
X06778347Y0844575D01*
X06780039D01*
X06780886Y08446597D01*
X06782578Y0844575D02*
X06784271D01*
X06783425D01*
Y08450828D01*
X06782578Y08449982D01*
X06780635Y08480232D02*
X06779789Y08481078D01*
X06778096D01*
X0677725Y08480232D01*
Y08476846D01*
X06778096Y08476D01*
X06779789D01*
X06780635Y08476846D01*
X06785714Y08476D02*
X06782328D01*
X06785714Y08479385D01*
Y08480232D01*
X06784868Y08481078D01*
X06783174D01*
X06782328Y08480232D01*
X06900502Y08527994D02*
X06899656Y08528841D01*
X06897963D01*
X06897117Y08527994D01*
Y08524609D01*
X06897963Y08523762D01*
X06899656D01*
X06900502Y08524609D01*
X06902195Y08527994D02*
X06903041Y08528841D01*
X06904734D01*
X0690558Y08527994D01*
Y08527148D01*
X06904734Y08526302D01*
X06903888D01*
X06904734D01*
X0690558Y08525455D01*
Y08524609D01*
X06904734Y08523762D01*
X06903041D01*
X06902195Y08524609D01*
X06788135Y08393982D02*
X06787289Y08394828D01*
X06785596D01*
X0678475Y08393982D01*
Y08390596D01*
X06785596Y0838975D01*
X06787289D01*
X06788135Y08390596D01*
X06792368Y0838975D02*
Y08394828D01*
X06789828Y08392289D01*
X06793214D01*
X0679144Y0843504D02*
X06790594Y08435886D01*
X06788901D01*
X06788054Y0843504D01*
Y08431654D01*
X06788901Y08430807D01*
X06790594D01*
X0679144Y08431654D01*
X06796519Y08435886D02*
X06793133D01*
Y08433347D01*
X06794825Y08434193D01*
X06795672D01*
X06796519Y08433347D01*
Y08431654D01*
X06795672Y08430807D01*
X06793979D01*
X06793133Y08431654D01*
X06875635Y08515233D02*
X06874789Y08516079D01*
X06873096D01*
X0687225Y08515233D01*
Y08511847D01*
X06873096Y08511001D01*
X06874789D01*
X06875635Y08511847D01*
X06880714Y08516079D02*
X06879021Y08515233D01*
X06877328Y0851354D01*
Y08511847D01*
X06878174Y08511001D01*
X06879868D01*
X06880714Y08511847D01*
Y08512693D01*
X06879868Y0851354D01*
X06877328D01*
X06926385Y08482982D02*
X06925539Y08483828D01*
X06923846D01*
X06923Y08482982D01*
Y08479597D01*
X06923846Y0847875D01*
X06925539D01*
X06926385Y08479597D01*
X06928078Y08483828D02*
X06931464D01*
Y08482982D01*
X06928078Y08479597D01*
Y0847875D01*
X06888885Y08399732D02*
X06888039Y08400578D01*
X06886346D01*
X068855Y08399732D01*
Y08396346D01*
X06886346Y083955D01*
X06888039D01*
X06888885Y08396346D01*
X06890578Y08399732D02*
X06891425Y08400578D01*
X06893118D01*
X06893964Y08399732D01*
Y08398885D01*
X06893118Y08398039D01*
X06893964Y08397193D01*
Y08396346D01*
X06893118Y083955D01*
X06891425D01*
X06890578Y08396346D01*
Y08397193D01*
X06891425Y08398039D01*
X06890578Y08398885D01*
Y08399732D01*
X06891425Y08398039D02*
X06893118D01*
X06816447Y0843404D02*
X068156Y08434886D01*
X06813907D01*
X06813061Y0843404D01*
Y08430654D01*
X06813907Y08429808D01*
X068156D01*
X06816447Y08430654D01*
X0681814D02*
X06818986Y08429808D01*
X06820679D01*
X06821525Y08430654D01*
Y0843404D01*
X06820679Y08434886D01*
X06818986D01*
X0681814Y0843404D01*
Y08433193D01*
X06818986Y08432347D01*
X06821525D01*
X07029Y08509328D02*
Y0850425D01*
X07032386D01*
X07034078D02*
X07035771D01*
X07034925D01*
Y08509328D01*
X07034078Y08508482D01*
X06941136Y08525596D02*
Y08528982D01*
X06940289Y08529828D01*
X06938596D01*
X0693775Y08528982D01*
Y08525596D01*
X06938596Y0852475D01*
X06940289D01*
X06939443Y08526443D02*
X06941136Y0852475D01*
X06940289D02*
X06941136Y08525596D01*
X06942828Y0852475D02*
X06944521D01*
X06943675D01*
Y08529828D01*
X06942828Y08528982D01*
X06956885Y08398096D02*
Y08401482D01*
X06956039Y08402328D01*
X06954346D01*
X069535Y08401482D01*
Y08398096D01*
X06954346Y0839725D01*
X06956039D01*
X06955193Y08398943D02*
X06956885Y0839725D01*
X06956039D02*
X06956885Y08398096D01*
X06961964Y0839725D02*
X06958578D01*
X06961964Y08400635D01*
Y08401482D01*
X06961118Y08402328D01*
X06959425D01*
X06958578Y08401482D01*
X0678025Y0845775D02*
Y08462828D01*
X06782789D01*
X06783636Y08461982D01*
Y08460289D01*
X06782789Y08459443D01*
X0678025D01*
X06781943D02*
X06783636Y0845775D01*
X06785328D02*
X06787021D01*
X06786175D01*
Y08462828D01*
X06785328Y08461982D01*
X0677825Y084875D02*
Y08492578D01*
X06780789D01*
X06781636Y08491732D01*
Y08490039D01*
X06780789Y08489193D01*
X0677825D01*
X06779943D02*
X06781636Y084875D01*
X06786714D02*
X06783328D01*
X06786714Y08490886D01*
Y08491732D01*
X06785867Y08492578D01*
X06784175D01*
X06783328Y08491732D01*
X0683475Y08508D02*
Y08513079D01*
X06837289D01*
X06838135Y08512232D01*
Y08510539D01*
X06837289Y08509693D01*
X0683475D01*
X06836443D02*
X06838135Y08508D01*
X06839828Y08512232D02*
X06840675Y08513079D01*
X06842368D01*
X06843214Y08512232D01*
Y08511385D01*
X06842368Y08510539D01*
X06841521D01*
X06842368D01*
X06843214Y08509693D01*
Y08508846D01*
X06842368Y08508D01*
X06840675D01*
X06839828Y08508846D01*
X06912117Y08522012D02*
Y08527091D01*
X06914656D01*
X06915502Y08526245D01*
Y08524551D01*
X06914656Y08523705D01*
X06912117D01*
X06913809D02*
X06915502Y08522012D01*
X06919734D02*
Y08527091D01*
X06917195Y08524551D01*
X0692058D01*
X0676625Y08397D02*
Y08402078D01*
X06768789D01*
X06769636Y08401232D01*
Y08399539D01*
X06768789Y08398693D01*
X0676625D01*
X06767943D02*
X06769636Y08397D01*
X06774714Y08402078D02*
X06771328D01*
Y08399539D01*
X06773021Y08400386D01*
X06773868D01*
X06774714Y08399539D01*
Y08397847D01*
X06773868Y08397D01*
X06772175D01*
X06771328Y08397847D01*
X068185Y0839425D02*
Y08399328D01*
X06821039D01*
X06821885Y08398482D01*
Y08396789D01*
X06821039Y08395943D01*
X068185D01*
X06820193D02*
X06821885Y0839425D01*
X06826964Y08399328D02*
X06825271Y08398482D01*
X06823578Y08396789D01*
Y08395096D01*
X06824425Y0839425D01*
X06826118D01*
X06826964Y08395096D01*
Y08395943D01*
X06826118Y08396789D01*
X06823578D01*
X068635Y08404D02*
Y08409078D01*
X06866039D01*
X06866885Y08408232D01*
Y08406539D01*
X06866039Y08405693D01*
X068635D01*
X06865193D02*
X06866885Y08404D01*
X06868578Y08409078D02*
X06871964D01*
Y08408232D01*
X06868578Y08404846D01*
Y08404D01*
X0686275Y0842525D02*
Y08430328D01*
X06865289D01*
X06866136Y08429482D01*
Y08427789D01*
X06865289Y08426943D01*
X0686275D01*
X06864443D02*
X06866136Y0842525D01*
X06867828Y08429482D02*
X06868675Y08430328D01*
X06870367D01*
X06871214Y08429482D01*
Y08428636D01*
X06870367Y08427789D01*
X06871214Y08426943D01*
Y08426096D01*
X06870367Y0842525D01*
X06868675D01*
X06867828Y08426096D01*
Y08426943D01*
X06868675Y08427789D01*
X06867828Y08428636D01*
Y08429482D01*
X06868675Y08427789D02*
X06870367D01*
X0684175Y08492578D02*
Y08488347D01*
X06842596Y084875D01*
X06844289D01*
X06845135Y08488347D01*
Y08492578D01*
X06846828Y084875D02*
X06848521D01*
X06847675D01*
Y08492578D01*
X06846828Y08491732D01*
X06905635Y08548982D02*
X06904789Y08549828D01*
X06903096D01*
X0690225Y08548982D01*
Y08545596D01*
X06903096Y0854475D01*
X06904789D01*
X06905635Y08545596D01*
X06907328Y0854475D02*
X06909021D01*
X06908175D01*
Y08549828D01*
X06907328Y08548982D01*
X0691156D02*
X06912407Y08549828D01*
X069141D01*
X06914946Y08548982D01*
Y08545596D01*
X069141Y0854475D01*
X06912407D01*
X0691156Y08545596D01*
Y08548982D01*
X06984636Y08549732D02*
X06983789Y08550579D01*
X06982097D01*
X0698125Y08549732D01*
Y08546346D01*
X06982097Y085455D01*
X06983789D01*
X06984636Y08546346D01*
X06986328Y085455D02*
X06988021D01*
X06987175D01*
Y08550579D01*
X06986328Y08549732D01*
X0699056Y085455D02*
X06992253D01*
X06991407D01*
Y08550579D01*
X0699056Y08549732D01*
X06738386Y08523982D02*
X06737539Y08524828D01*
X06735847D01*
X06735Y08523982D01*
Y08520596D01*
X06735847Y0851975D01*
X06737539D01*
X06738386Y08520596D01*
X06740078Y0851975D02*
X06741771D01*
X06740925D01*
Y08524828D01*
X06740078Y08523982D01*
X06747696Y0851975D02*
X0674431D01*
X06747696Y08523135D01*
Y08523982D01*
X06746849Y08524828D01*
X06745157D01*
X0674431Y08523982D01*
X06809886Y08522982D02*
X06809039Y08523828D01*
X06807346D01*
X068065Y08522982D01*
Y08519597D01*
X06807346Y0851875D01*
X06809039D01*
X06809886Y08519597D01*
X06811578Y0851875D02*
X06813271D01*
X06812425D01*
Y08523828D01*
X06811578Y08522982D01*
X06815811D02*
X06816656Y08523828D01*
X0681835D01*
X06819196Y08522982D01*
Y08522136D01*
X0681835Y08521289D01*
X06817503D01*
X0681835D01*
X06819196Y08520443D01*
Y08519597D01*
X0681835Y0851875D01*
X06816656D01*
X06815811Y08519597D01*
X07074636Y08520232D02*
X07073789Y08521078D01*
X07072097D01*
X0707125Y08520232D01*
Y08516846D01*
X07072097Y08516D01*
X07073789D01*
X07074636Y08516846D01*
X07076328Y08516D02*
X07078021D01*
X07077175D01*
Y08521078D01*
X07076328Y08520232D01*
X07083099Y08516D02*
Y08521078D01*
X0708056Y08518539D01*
X07083946D01*
X07171885Y08519732D02*
X07171039Y08520579D01*
X07169346D01*
X071685Y08519732D01*
Y08516346D01*
X07169346Y085155D01*
X07171039D01*
X07171885Y08516346D01*
X07173578Y085155D02*
X07175271D01*
X07174424D01*
Y08520579D01*
X07173578Y08519732D01*
X07181196Y08520579D02*
X0717781D01*
Y08518039D01*
X07179503Y08518885D01*
X0718035D01*
X07181196Y08518039D01*
Y08516346D01*
X0718035Y085155D01*
X07178657D01*
X0717781Y08516346D01*
D29*
X0683225Y08489872D02*
G03*
X0683225Y08489872I-0000125J0D01*
G01*
D30*
X07028713Y08408047D02*
X07114713D01*
X07028713Y08500208D02*
X07114713D01*
D31*
X068Y0845492D02*
Y0846508D01*
X0678857Y0845492D02*
Y0846508D01*
Y0845492D02*
X0681143D01*
Y0846508D01*
X0678857D02*
X0681143D01*
X068Y08485151D02*
Y08495311D01*
X0678857Y08485151D02*
Y08495311D01*
Y08485151D02*
X0681143D01*
Y08495311D01*
X0678857D02*
X0681143D01*
X0683825Y08495423D02*
Y08505583D01*
X0684968Y08495423D02*
Y08505583D01*
X0682682D02*
X0684968D01*
X0682682Y08495423D02*
Y08505583D01*
Y08495423D02*
X0684968D01*
X06911271Y0850775D02*
X06921431D01*
X06911271Y0851918D02*
X06921431D01*
X06911271Y0849632D02*
Y0851918D01*
Y0849632D02*
X06921431D01*
Y0851918D01*
X06765927Y08415127D02*
X06776086D01*
X06765927Y08403697D02*
X06776086D01*
Y08426557D01*
X06765927D02*
X06776086D01*
X06765927Y08403697D02*
Y08426557D01*
X06823082Y084014D02*
Y08411559D01*
X06834512Y084014D02*
Y08411559D01*
X06811652D02*
X06834512D01*
X06811652Y084014D02*
Y08411559D01*
Y084014D02*
X06834512D01*
X068495Y08404193D02*
Y08414354D01*
X0683807Y08404193D02*
Y08414354D01*
Y08404193D02*
X0686093D01*
Y08414354D01*
X0683807D02*
X0686093D01*
X068495Y08417912D02*
Y08428072D01*
X0686093Y08417912D02*
Y08428072D01*
X0683807D02*
X0686093D01*
X0683807Y08417912D02*
Y08428072D01*
Y08417912D02*
X0686093D01*
M02*
