%TF.GenerationSoftware,Altium Limited,Altium Designer,20.1.8 (145)*%
G04 Layer_Color=8388736*
%FSLAX45Y45*%
%MOMM*%
%TF.SameCoordinates,D4C556C9-1411-47D8-9651-3FCF20F6754B*%
%TF.FilePolarity,Positive*%
%TF.FileFunction,Other,Top_Courtyard*%
%TF.Part,Single*%
G01*
G75*
%TA.AperFunction,NonConductor*%
%ADD49C,0.10000*%
%ADD52C,0.10160*%
%ADD76C,0.02540*%
%ADD78C,0.05000*%
D49*
X2070398Y2979380D02*
Y3059380D01*
X2030398Y3019380D02*
X2110398D01*
X1960328Y2761849D02*
X2040328D01*
X2000328Y2721849D02*
Y2801849D01*
X1920322Y2980384D02*
Y3060384D01*
X1880322Y3020384D02*
X1960322D01*
X4388613Y1908900D02*
Y1988900D01*
X4348613Y1948900D02*
X4428613D01*
X4388613Y1525745D02*
Y1605745D01*
X4348613Y1565745D02*
X4428613D01*
X4388613Y2259579D02*
Y2339579D01*
X4348613Y2299579D02*
X4428613D01*
X4388680Y886620D02*
Y966620D01*
X4348680Y926620D02*
X4428680D01*
X4388613Y1216600D02*
Y1296600D01*
X4348613Y1256600D02*
X4428613D01*
X2322900Y1810011D02*
X2402900D01*
X2362900Y1770011D02*
Y1850011D01*
X2324705Y1619136D02*
X2404704D01*
X2364704Y1579136D02*
Y1659136D01*
X2336817Y2358694D02*
Y2438694D01*
X2296817Y2398694D02*
X2376817D01*
X1997124Y2484542D02*
X2077123D01*
X2037123Y2444542D02*
Y2524542D01*
X1954583Y2198694D02*
Y2278694D01*
X1914583Y2238694D02*
X1994583D01*
X2333852Y1433340D02*
X2413852D01*
X2373852Y1393340D02*
Y1473340D01*
X2050518Y1711133D02*
Y1791133D01*
X2010517Y1751133D02*
X2090518D01*
X2455865Y570650D02*
Y650650D01*
X2415865Y610650D02*
X2495865D01*
X1256475Y748165D02*
X1356475D01*
X1306475Y698165D02*
Y798165D01*
X1256475Y1455810D02*
X1356475D01*
X1306475Y1405810D02*
Y1505810D01*
X1256475Y2168535D02*
X1356475D01*
X1306475Y2118535D02*
Y2218535D01*
X1654360Y2760438D02*
X1754360D01*
X1704360Y2710438D02*
Y2810438D01*
X3756335Y2789594D02*
X3856335D01*
X3806335Y2739594D02*
Y2839594D01*
X3486710Y2789594D02*
X3586710D01*
X3536710Y2739594D02*
Y2839594D01*
X1397828Y2760438D02*
X1497828D01*
X1447828Y2710438D02*
Y2810438D01*
X2473879Y3058550D02*
X2553879D01*
X2513879Y3018550D02*
Y3098550D01*
X2335038Y1200415D02*
X2415038D01*
X2375038Y1160416D02*
Y1240415D01*
X2058138Y1248861D02*
Y1328860D01*
X2018138Y1288861D02*
X2098138D01*
X4124480Y2512284D02*
X4204480D01*
X4164480Y2472284D02*
Y2552284D01*
X2260171Y2766929D02*
X2360171D01*
X2310171Y2716929D02*
Y2816929D01*
X2107538Y958265D02*
X2207538D01*
X2157538Y908265D02*
Y1008265D01*
X2107538Y553520D02*
X2207538D01*
X2157538Y503520D02*
Y603520D01*
X435409Y682174D02*
X535409D01*
X485409Y632174D02*
Y732174D01*
X3064344Y2826520D02*
Y2926520D01*
X3014344Y2876520D02*
X3114345D01*
X2543879Y2668559D02*
X2643879D01*
X2593879Y2618559D02*
Y2718559D01*
X2156823Y2061001D02*
X2256824D01*
X2206823Y2011001D02*
Y2111001D01*
D52*
X1945038Y778265D02*
Y1138265D01*
X2370038Y778265D02*
Y1138265D01*
X1945038D02*
X2370038D01*
X1945038Y778265D02*
X2370038D01*
X1945038Y373520D02*
Y733520D01*
X2370038Y373520D02*
Y733520D01*
X1945038D02*
X2370038D01*
X1945038Y373520D02*
X2370038D01*
X2754345Y2601520D02*
X3374344D01*
X2754345Y3151520D02*
X3374344D01*
Y2601520D02*
Y3151520D01*
X2754345Y2601520D02*
Y3151520D01*
X4630569Y2145011D02*
X5000003D01*
Y2615005D01*
X4630569D02*
X5000003D01*
X4630569Y2145011D02*
Y2615005D01*
X4752516Y2380000D02*
X4827516D01*
X4790016Y2342500D02*
Y2417500D01*
X2493879Y2448559D02*
Y2888559D01*
X2693879Y2448559D02*
Y2888559D01*
X2493879Y2448559D02*
X2693879D01*
X2493879Y2888559D02*
X2693879D01*
D76*
X4211115Y3660D02*
Y2403660D01*
X2611115Y3660D02*
X4211115D01*
X2611115Y2403660D02*
X4211115D01*
X2611115Y3660D02*
Y2403660D01*
D78*
X2015398Y3134380D02*
X2125398D01*
X2015398Y2904380D02*
Y3134380D01*
Y2904380D02*
X2125398D01*
Y3134380D01*
X1890328Y2711849D02*
Y2811849D01*
X2110328Y2711849D02*
Y2811849D01*
X1890328Y2711849D02*
X2110328D01*
X1890328Y2811849D02*
X2110328D01*
X1870322Y3130384D02*
X1970322D01*
X1870322Y2910384D02*
X1970322D01*
X1870322D02*
Y3130384D01*
X1970322Y2910384D02*
Y3130384D01*
X4338613Y2058900D02*
X4438613D01*
X4338613Y1838900D02*
X4438613D01*
X4338613D02*
Y2058900D01*
X4438613Y1838900D02*
Y2058900D01*
X4338613Y1675745D02*
X4438613D01*
X4338613Y1455745D02*
X4438613D01*
X4338613D02*
Y1675745D01*
X4438613Y1455745D02*
Y1675745D01*
X4338613Y2409579D02*
X4438613D01*
X4338613Y2189579D02*
X4438613D01*
X4338613D02*
Y2409579D01*
X4438613Y2189579D02*
Y2409579D01*
X4338680Y816620D02*
X4438680D01*
X4338680Y1036620D02*
X4438680D01*
Y816620D02*
Y1036620D01*
X4338680Y816620D02*
Y1036620D01*
X4338613Y1146600D02*
X4438613D01*
X4338613Y1366600D02*
X4438613D01*
Y1146600D02*
Y1366600D01*
X4338613Y1146600D02*
Y1366600D01*
X2472900Y1760011D02*
Y1860011D01*
X2252900Y1760011D02*
Y1860011D01*
X2472900D01*
X2252900Y1760011D02*
X2472900D01*
X2474704Y1569136D02*
Y1669136D01*
X2254704Y1569136D02*
Y1669136D01*
X2474704D01*
X2254704Y1569136D02*
X2474704D01*
X2286817Y2288694D02*
X2386817D01*
X2286817Y2508694D02*
X2386817D01*
Y2288694D02*
Y2508694D01*
X2286817Y2288694D02*
Y2508694D01*
X1927123Y2434542D02*
Y2534542D01*
X2147123Y2434542D02*
Y2534542D01*
X1927123Y2434542D02*
X2147123D01*
X1927123Y2534542D02*
X2147123D01*
X1904583Y2128694D02*
X2004583D01*
X1904583Y2348694D02*
X2004583D01*
Y2128694D02*
Y2348694D01*
X1904583Y2128694D02*
Y2348694D01*
X2483852Y1383340D02*
Y1483340D01*
X2263852Y1383340D02*
Y1483340D01*
X2483852D01*
X2263852Y1383340D02*
X2483852D01*
X2000517Y1641133D02*
X2100518D01*
X2000517Y1861133D02*
X2100518D01*
Y1641133D02*
Y1861133D01*
X2000517Y1641133D02*
Y1861133D01*
X2405865Y500650D02*
X2505865D01*
X2405865Y720650D02*
X2505865D01*
Y500650D02*
Y720650D01*
X2405865Y500650D02*
Y720650D01*
X756475Y1095665D02*
X1856475D01*
X756475Y400665D02*
X1856475D01*
Y1095665D01*
X756475Y400665D02*
Y1095665D01*
Y1803310D02*
X1856475D01*
X756475Y1108310D02*
X1856475D01*
Y1803310D01*
X756475Y1108310D02*
Y1803310D01*
Y2516035D02*
X1856475D01*
X756475Y1821035D02*
X1856475D01*
Y2516035D01*
X756475Y1821035D02*
Y2516035D01*
X1799360Y2565438D02*
Y2955438D01*
X1609360Y2565438D02*
Y2955438D01*
Y2565438D02*
X1799360D01*
X1609360Y2955438D02*
X1799360D01*
X3711335Y2594594D02*
Y2984594D01*
X3901335Y2594594D02*
Y2984594D01*
X3711335D02*
X3901335D01*
X3711335Y2594594D02*
X3901335D01*
X3441710D02*
Y2984594D01*
X3631710Y2594594D02*
Y2984594D01*
X3441710D02*
X3631710D01*
X3441710Y2594594D02*
X3631710D01*
X1542829Y2565438D02*
Y2955438D01*
X1352828Y2565438D02*
Y2955438D01*
Y2565438D02*
X1542829D01*
X1352828Y2955438D02*
X1542829D01*
X2628879Y3003550D02*
Y3113550D01*
X2398879D02*
X2628879D01*
X2398879Y3003550D02*
Y3113550D01*
Y3003550D02*
X2628879D01*
X2260038Y1145415D02*
Y1255415D01*
Y1145415D02*
X2490038D01*
Y1255415D01*
X2260038D02*
X2490038D01*
X2003138Y1173860D02*
X2113138D01*
Y1403861D01*
X2003138D02*
X2113138D01*
X2003138Y1173860D02*
Y1403861D01*
X4279480Y2457284D02*
Y2567284D01*
X4049480D02*
X4279480D01*
X4049480Y2457284D02*
Y2567284D01*
Y2457284D02*
X4279480D01*
X2475171Y2591929D02*
Y2941929D01*
X2145171Y2591929D02*
Y2941929D01*
Y2591929D02*
X2475171D01*
X2145171Y2941929D02*
X2475171D01*
X282909Y777174D02*
X687909D01*
X282909Y587174D02*
X687909D01*
Y777174D01*
X282909Y587174D02*
Y777174D01*
X2049323Y1901001D02*
X2364323D01*
X2049323Y2221001D02*
X2364323D01*
X2049323Y1901001D02*
Y2221001D01*
X2364323Y1901001D02*
Y2221001D01*
%TF.MD5,8bf3f7af181c001d203dfdc30ffb7dfa*%
M02*
