%TF.GenerationSoftware,Altium Limited,Altium Designer,20.1.8 (145)*%
G04 Layer_Color=16711935*
%FSLAX45Y45*%
%MOMM*%
%TF.SameCoordinates,D4C556C9-1411-47D8-9651-3FCF20F6754B*%
%TF.FilePolarity,Negative*%
%TF.FileFunction,Soldermask,Bot*%
%TF.Part,Single*%
G01*
G75*
%TA.AperFunction,ComponentPad*%
%ADD33O,1.60000X1.25000*%
%ADD34O,1.25000X1.60000*%
%TA.AperFunction,ViaPad*%
%ADD43O,3.60000X2.00000*%
%TA.AperFunction,WasherPad*%
%ADD44C,2.50000*%
%TA.AperFunction,ComponentPad*%
%ADD45C,0.80000*%
G04:AMPARAMS|DCode=46|XSize=1.9mm|YSize=1.9mm|CornerRadius=0.14mm|HoleSize=0mm|Usage=FLASHONLY|Rotation=0.000|XOffset=0mm|YOffset=0mm|HoleType=Round|Shape=RoundedRectangle|*
%AMROUNDEDRECTD46*
21,1,1.90000,1.62000,0,0,0.0*
21,1,1.62000,1.90000,0,0,0.0*
1,1,0.28000,0.81000,-0.81000*
1,1,0.28000,-0.81000,-0.81000*
1,1,0.28000,-0.81000,0.81000*
1,1,0.28000,0.81000,0.81000*
%
%ADD46ROUNDEDRECTD46*%
G04:AMPARAMS|DCode=47|XSize=1.9mm|YSize=1.9mm|CornerRadius=0.23mm|HoleSize=0mm|Usage=FLASHONLY|Rotation=180.000|XOffset=0mm|YOffset=0mm|HoleType=Round|Shape=RoundedRectangle|*
%AMROUNDEDRECTD47*
21,1,1.90000,1.44000,0,0,180.0*
21,1,1.44000,1.90000,0,0,180.0*
1,1,0.46000,-0.72000,0.72000*
1,1,0.46000,0.72000,0.72000*
1,1,0.46000,0.72000,-0.72000*
1,1,0.46000,-0.72000,-0.72000*
%
%ADD47ROUNDEDRECTD47*%
D33*
X4580860Y1125020D02*
D03*
Y871020D02*
D03*
Y617020D02*
D03*
X4834860D02*
D03*
Y871020D02*
D03*
Y1125020D02*
D03*
D34*
X1135263Y2774187D02*
D03*
X881263D02*
D03*
X627263D02*
D03*
Y3028187D02*
D03*
X881263D02*
D03*
X1135263D02*
D03*
D43*
X232500Y1345042D02*
D03*
X4767500D02*
D03*
Y1955020D02*
D03*
X232500D02*
D03*
D44*
X300000Y300000D02*
D03*
X4700000D02*
D03*
Y2900000D02*
D03*
X300000D02*
D03*
D45*
X4880016Y2380000D02*
D03*
X4700016D02*
D03*
D46*
X2190834Y241300D02*
D03*
X1290834D02*
D03*
X1590834D02*
D03*
X1890834D02*
D03*
D47*
X690880D02*
D03*
X990880D02*
D03*
%TF.MD5,b756ee2c8fc8b958e4e6729c658459ed*%
M02*
