%TF.GenerationSoftware,Altium Limited,Altium Designer,20.1.8 (145)*%
G04 Layer_Color=8388736*
%FSLAX45Y45*%
%MOMM*%
%TF.SameCoordinates,D4C556C9-1411-47D8-9651-3FCF20F6754B*%
%TF.FilePolarity,Negative*%
%TF.FileFunction,Soldermask,Top*%
%TF.Part,Single*%
G01*
G75*
%TA.AperFunction,SMDPad,CuDef*%
%ADD11C,0.75000*%
%TA.AperFunction,ComponentPad*%
%ADD33O,1.60000X1.25000*%
%ADD34O,1.25000X1.60000*%
%TA.AperFunction,ViaPad*%
%ADD43O,3.60000X2.00000*%
%TA.AperFunction,WasherPad*%
%ADD44C,2.50000*%
%TA.AperFunction,ComponentPad*%
%ADD45C,0.80000*%
G04:AMPARAMS|DCode=46|XSize=1.9mm|YSize=1.9mm|CornerRadius=0.14mm|HoleSize=0mm|Usage=FLASHONLY|Rotation=0.000|XOffset=0mm|YOffset=0mm|HoleType=Round|Shape=RoundedRectangle|*
%AMROUNDEDRECTD46*
21,1,1.90000,1.62000,0,0,0.0*
21,1,1.62000,1.90000,0,0,0.0*
1,1,0.28000,0.81000,-0.81000*
1,1,0.28000,-0.81000,-0.81000*
1,1,0.28000,-0.81000,0.81000*
1,1,0.28000,0.81000,0.81000*
%
%ADD46ROUNDEDRECTD46*%
G04:AMPARAMS|DCode=47|XSize=1.9mm|YSize=1.9mm|CornerRadius=0.23mm|HoleSize=0mm|Usage=FLASHONLY|Rotation=180.000|XOffset=0mm|YOffset=0mm|HoleType=Round|Shape=RoundedRectangle|*
%AMROUNDEDRECTD47*
21,1,1.90000,1.44000,0,0,180.0*
21,1,1.44000,1.90000,0,0,180.0*
1,1,0.46000,-0.72000,0.72000*
1,1,0.46000,0.72000,0.72000*
1,1,0.46000,0.72000,-0.72000*
1,1,0.46000,-0.72000,-0.72000*
%
%ADD47ROUNDEDRECTD47*%
%TA.AperFunction,NonConductor*%
%ADD55R,1.30000X0.90000*%
%ADD56R,1.30000X0.90000*%
%ADD57R,1.30000X0.90000*%
%ADD58R,1.30000X0.90000*%
%TA.AperFunction,SMDPad,CuDef*%
G04:AMPARAMS|DCode=59|XSize=0.9mm|YSize=0.9mm|CornerRadius=0.054mm|HoleSize=0mm|Usage=FLASHONLY|Rotation=180.000|XOffset=0mm|YOffset=0mm|HoleType=Round|Shape=RoundedRectangle|*
%AMROUNDEDRECTD59*
21,1,0.90000,0.79200,0,0,180.0*
21,1,0.79200,0.90000,0,0,180.0*
1,1,0.10800,-0.39600,0.39600*
1,1,0.10800,0.39600,0.39600*
1,1,0.10800,0.39600,-0.39600*
1,1,0.10800,-0.39600,-0.39600*
%
%ADD59ROUNDEDRECTD59*%
G04:AMPARAMS|DCode=60|XSize=0.9mm|YSize=0.85mm|CornerRadius=0.05375mm|HoleSize=0mm|Usage=FLASHONLY|Rotation=90.000|XOffset=0mm|YOffset=0mm|HoleType=Round|Shape=RoundedRectangle|*
%AMROUNDEDRECTD60*
21,1,0.90000,0.74250,0,0,90.0*
21,1,0.79250,0.85000,0,0,90.0*
1,1,0.10750,0.37125,0.39625*
1,1,0.10750,0.37125,-0.39625*
1,1,0.10750,-0.37125,-0.39625*
1,1,0.10750,-0.37125,0.39625*
%
%ADD60ROUNDEDRECTD60*%
%TA.AperFunction,ConnectorPad*%
G04:AMPARAMS|DCode=61|XSize=0.9mm|YSize=0.85mm|CornerRadius=0.05375mm|HoleSize=0mm|Usage=FLASHONLY|Rotation=0.000|XOffset=0mm|YOffset=0mm|HoleType=Round|Shape=RoundedRectangle|*
%AMROUNDEDRECTD61*
21,1,0.90000,0.74250,0,0,0.0*
21,1,0.79250,0.85000,0,0,0.0*
1,1,0.10750,0.39625,-0.37125*
1,1,0.10750,-0.39625,-0.37125*
1,1,0.10750,-0.39625,0.37125*
1,1,0.10750,0.39625,0.37125*
%
%ADD61ROUNDEDRECTD61*%
%TA.AperFunction,SMDPad,CuDef*%
G04:AMPARAMS|DCode=62|XSize=0.9mm|YSize=0.85mm|CornerRadius=0.05375mm|HoleSize=0mm|Usage=FLASHONLY|Rotation=0.000|XOffset=0mm|YOffset=0mm|HoleType=Round|Shape=RoundedRectangle|*
%AMROUNDEDRECTD62*
21,1,0.90000,0.74250,0,0,0.0*
21,1,0.79250,0.85000,0,0,0.0*
1,1,0.10750,0.39625,-0.37125*
1,1,0.10750,-0.39625,-0.37125*
1,1,0.10750,-0.39625,0.37125*
1,1,0.10750,0.39625,0.37125*
%
%ADD62ROUNDEDRECTD62*%
G04:AMPARAMS|DCode=63|XSize=1.05mm|YSize=2.5mm|CornerRadius=0.05475mm|HoleSize=0mm|Usage=FLASHONLY|Rotation=90.000|XOffset=0mm|YOffset=0mm|HoleType=Round|Shape=RoundedRectangle|*
%AMROUNDEDRECTD63*
21,1,1.05000,2.39050,0,0,90.0*
21,1,0.94050,2.50000,0,0,90.0*
1,1,0.10950,1.19525,0.47025*
1,1,0.10950,1.19525,-0.47025*
1,1,0.10950,-1.19525,-0.47025*
1,1,0.10950,-1.19525,0.47025*
%
%ADD63ROUNDEDRECTD63*%
G04:AMPARAMS|DCode=64|XSize=5.65mm|YSize=6.9mm|CornerRadius=0.07775mm|HoleSize=0mm|Usage=FLASHONLY|Rotation=90.000|XOffset=0mm|YOffset=0mm|HoleType=Round|Shape=RoundedRectangle|*
%AMROUNDEDRECTD64*
21,1,5.65000,6.74450,0,0,90.0*
21,1,5.49450,6.90000,0,0,90.0*
1,1,0.15550,3.37225,2.74725*
1,1,0.15550,3.37225,-2.74725*
1,1,0.15550,-3.37225,-2.74725*
1,1,0.15550,-3.37225,2.74725*
%
%ADD64ROUNDEDRECTD64*%
G04:AMPARAMS|DCode=65|XSize=1.75mm|YSize=1.05mm|CornerRadius=0.05475mm|HoleSize=0mm|Usage=FLASHONLY|Rotation=0.000|XOffset=0mm|YOffset=0mm|HoleType=Round|Shape=RoundedRectangle|*
%AMROUNDEDRECTD65*
21,1,1.75000,0.94050,0,0,0.0*
21,1,1.64050,1.05000,0,0,0.0*
1,1,0.10950,0.82025,-0.47025*
1,1,0.10950,-0.82025,-0.47025*
1,1,0.10950,-0.82025,0.47025*
1,1,0.10950,0.82025,0.47025*
%
%ADD65ROUNDEDRECTD65*%
G04:AMPARAMS|DCode=66|XSize=0.9mm|YSize=0.9mm|CornerRadius=0.054mm|HoleSize=0mm|Usage=FLASHONLY|Rotation=90.000|XOffset=0mm|YOffset=0mm|HoleType=Round|Shape=RoundedRectangle|*
%AMROUNDEDRECTD66*
21,1,0.90000,0.79200,0,0,90.0*
21,1,0.79200,0.90000,0,0,90.0*
1,1,0.10800,0.39600,0.39600*
1,1,0.10800,0.39600,-0.39600*
1,1,0.10800,-0.39600,-0.39600*
1,1,0.10800,-0.39600,0.39600*
%
%ADD66ROUNDEDRECTD66*%
G04:AMPARAMS|DCode=67|XSize=0.64mm|YSize=1mm|CornerRadius=0.0527mm|HoleSize=0mm|Usage=FLASHONLY|Rotation=0.000|XOffset=0mm|YOffset=0mm|HoleType=Round|Shape=RoundedRectangle|*
%AMROUNDEDRECTD67*
21,1,0.64000,0.89460,0,0,0.0*
21,1,0.53460,1.00000,0,0,0.0*
1,1,0.10540,0.26730,-0.44730*
1,1,0.10540,-0.26730,-0.44730*
1,1,0.10540,-0.26730,0.44730*
1,1,0.10540,0.26730,0.44730*
%
%ADD67ROUNDEDRECTD67*%
G04:AMPARAMS|DCode=68|XSize=0.7mm|YSize=1.15mm|CornerRadius=0.08mm|HoleSize=0mm|Usage=FLASHONLY|Rotation=90.000|XOffset=0mm|YOffset=0mm|HoleType=Round|Shape=RoundedRectangle|*
%AMROUNDEDRECTD68*
21,1,0.70000,0.99000,0,0,90.0*
21,1,0.54000,1.15000,0,0,90.0*
1,1,0.16000,0.49500,0.27000*
1,1,0.16000,0.49500,-0.27000*
1,1,0.16000,-0.49500,-0.27000*
1,1,0.16000,-0.49500,0.27000*
%
%ADD68ROUNDEDRECTD68*%
%TA.AperFunction,ConnectorPad*%
G04:AMPARAMS|DCode=69|XSize=1.1mm|YSize=2.1mm|CornerRadius=0.055mm|HoleSize=0mm|Usage=FLASHONLY|Rotation=270.000|XOffset=0mm|YOffset=0mm|HoleType=Round|Shape=RoundedRectangle|*
%AMROUNDEDRECTD69*
21,1,1.10000,1.99000,0,0,270.0*
21,1,0.99000,2.10000,0,0,270.0*
1,1,0.11000,-0.99500,-0.49500*
1,1,0.11000,-0.99500,0.49500*
1,1,0.11000,0.99500,0.49500*
1,1,0.11000,0.99500,-0.49500*
%
%ADD69ROUNDEDRECTD69*%
G04:AMPARAMS|DCode=70|XSize=1.1mm|YSize=2.1mm|CornerRadius=0.055mm|HoleSize=0mm|Usage=FLASHONLY|Rotation=0.000|XOffset=0mm|YOffset=0mm|HoleType=Round|Shape=RoundedRectangle|*
%AMROUNDEDRECTD70*
21,1,1.10000,1.99000,0,0,0.0*
21,1,0.99000,2.10000,0,0,0.0*
1,1,0.11000,0.49500,-0.99500*
1,1,0.11000,-0.49500,-0.99500*
1,1,0.11000,-0.49500,0.99500*
1,1,0.11000,0.49500,0.99500*
%
%ADD70ROUNDEDRECTD70*%
%TA.AperFunction,SMDPad,CuDef*%
%ADD71R,2.10000X3.20000*%
%TA.AperFunction,ConnectorPad*%
G04:AMPARAMS|DCode=72|XSize=1.5mm|YSize=1.15mm|CornerRadius=0.05525mm|HoleSize=0mm|Usage=FLASHONLY|Rotation=90.000|XOffset=0mm|YOffset=0mm|HoleType=Round|Shape=RoundedRectangle|*
%AMROUNDEDRECTD72*
21,1,1.50000,1.03950,0,0,90.0*
21,1,1.38950,1.15000,0,0,90.0*
1,1,0.11050,0.51975,0.69475*
1,1,0.11050,0.51975,-0.69475*
1,1,0.11050,-0.51975,-0.69475*
1,1,0.11050,-0.51975,0.69475*
%
%ADD72ROUNDEDRECTD72*%
%TA.AperFunction,SMDPad,CuDef*%
%ADD73R,1.15000X1.35000*%
G04:AMPARAMS|DCode=74|XSize=0.9mm|YSize=1.5mm|CornerRadius=0.054mm|HoleSize=0mm|Usage=FLASHONLY|Rotation=90.000|XOffset=0mm|YOffset=0mm|HoleType=Round|Shape=RoundedRectangle|*
%AMROUNDEDRECTD74*
21,1,0.90000,1.39200,0,0,90.0*
21,1,0.79200,1.50000,0,0,90.0*
1,1,0.10800,0.69600,0.39600*
1,1,0.10800,0.69600,-0.39600*
1,1,0.10800,-0.69600,-0.39600*
1,1,0.10800,-0.69600,0.39600*
%
%ADD74ROUNDEDRECTD74*%
G04:AMPARAMS|DCode=75|XSize=0.65mm|YSize=0.9mm|CornerRadius=0.05275mm|HoleSize=0mm|Usage=FLASHONLY|Rotation=270.000|XOffset=0mm|YOffset=0mm|HoleType=Round|Shape=RoundedRectangle|*
%AMROUNDEDRECTD75*
21,1,0.65000,0.79450,0,0,270.0*
21,1,0.54450,0.90000,0,0,270.0*
1,1,0.10550,-0.39725,-0.27225*
1,1,0.10550,-0.39725,0.27225*
1,1,0.10550,0.39725,0.27225*
1,1,0.10550,0.39725,-0.27225*
%
%ADD75ROUNDEDRECTD75*%
D11*
X233680Y990600D02*
D03*
X452120Y2288540D02*
D03*
X2781300Y2532380D02*
D03*
X2713920Y2887362D02*
D03*
X629920Y990600D02*
D03*
X3413760Y2819400D02*
D03*
X1846617Y1101408D02*
D03*
X2385060Y241100D02*
D03*
X4419600Y617020D02*
D03*
X3362960Y2583180D02*
D03*
X2435860Y1054100D02*
D03*
D33*
X4580860Y1125020D02*
D03*
Y871020D02*
D03*
Y617020D02*
D03*
X4834860D02*
D03*
Y871020D02*
D03*
Y1125020D02*
D03*
D34*
X1135263Y2774187D02*
D03*
X881263D02*
D03*
X627263D02*
D03*
Y3028187D02*
D03*
X881263D02*
D03*
X1135263D02*
D03*
D43*
X232500Y1345042D02*
D03*
X4767500D02*
D03*
Y1955020D02*
D03*
X232500D02*
D03*
D44*
X300000Y300000D02*
D03*
X4700000D02*
D03*
Y2900000D02*
D03*
X300000D02*
D03*
D45*
X4880016Y2380000D02*
D03*
X4700016D02*
D03*
D46*
X2190834Y241300D02*
D03*
X1290834D02*
D03*
X1590834D02*
D03*
X1890834D02*
D03*
D47*
X690880D02*
D03*
X990880D02*
D03*
D55*
X4048846Y2894035D02*
D03*
D56*
X4048846Y3044033D02*
D03*
D57*
X4338845Y3044033D02*
D03*
D58*
X4338845Y2894035D02*
D03*
D59*
X2070398Y2939380D02*
D03*
Y3099380D02*
D03*
X2058138Y1368861D02*
D03*
Y1208860D02*
D03*
D60*
X1920328Y2761849D02*
D03*
X2080328D02*
D03*
X2442900Y1810011D02*
D03*
X2282900D02*
D03*
X2444705Y1619136D02*
D03*
X2284704D02*
D03*
X1957123Y2484542D02*
D03*
X2117124D02*
D03*
X2453852Y1433340D02*
D03*
X2293852D02*
D03*
D61*
X1920322Y3100384D02*
D03*
Y2940384D02*
D03*
D62*
X4388613Y2028900D02*
D03*
Y1868900D02*
D03*
Y1645745D02*
D03*
Y1485745D02*
D03*
Y2379579D02*
D03*
Y2219578D02*
D03*
X4388680Y846620D02*
D03*
Y1006620D02*
D03*
X4388613Y1176600D02*
D03*
Y1336600D02*
D03*
X2336817Y2318694D02*
D03*
Y2478694D02*
D03*
X1954583Y2158694D02*
D03*
Y2318694D02*
D03*
X2050518Y1671133D02*
D03*
Y1831133D02*
D03*
X2455865Y530650D02*
D03*
Y690650D02*
D03*
D63*
X896475Y977165D02*
D03*
Y519165D02*
D03*
Y1684810D02*
D03*
Y1226810D02*
D03*
Y2397535D02*
D03*
Y1939535D02*
D03*
D64*
X1506475Y748165D02*
D03*
Y1455810D02*
D03*
Y2168535D02*
D03*
D65*
X1704360Y2620438D02*
D03*
Y2900438D02*
D03*
X3806335Y2929594D02*
D03*
Y2649594D02*
D03*
X3536710Y2929594D02*
D03*
Y2649594D02*
D03*
X1447828Y2620438D02*
D03*
Y2900438D02*
D03*
D66*
X2433879Y3058550D02*
D03*
X2593879D02*
D03*
X2455038Y1200415D02*
D03*
X2295038D02*
D03*
X4084480Y2512284D02*
D03*
X4244480D02*
D03*
X332909Y682174D02*
D03*
X637909D02*
D03*
D67*
X2215171Y2639429D02*
D03*
X2310171D02*
D03*
X2405171D02*
D03*
X2215171Y2894429D02*
D03*
X2310171D02*
D03*
X2405171D02*
D03*
D68*
X2020038Y1053265D02*
D03*
Y958265D02*
D03*
Y863265D02*
D03*
X2295038D02*
D03*
Y1053265D02*
D03*
X2020038Y648520D02*
D03*
Y553520D02*
D03*
Y458520D02*
D03*
X2295038D02*
D03*
Y648520D02*
D03*
D69*
X4171115Y853660D02*
D03*
Y2053660D02*
D03*
X2651115Y2253660D02*
D03*
X4171115Y1053660D02*
D03*
Y1253660D02*
D03*
Y1453660D02*
D03*
Y1653660D02*
D03*
Y1853660D02*
D03*
Y2253660D02*
D03*
X2651115Y2053660D02*
D03*
Y1853660D02*
D03*
Y1653660D02*
D03*
Y1453660D02*
D03*
Y1253660D02*
D03*
Y1053660D02*
D03*
Y853660D02*
D03*
D70*
X3911115Y2403660D02*
D03*
X3711115D02*
D03*
X3511115D02*
D03*
X3311115D02*
D03*
X3111115D02*
D03*
X2911115D02*
D03*
D71*
X3249345Y2876520D02*
D03*
X2879345D02*
D03*
D72*
X4717516Y2560000D02*
D03*
X4862516D02*
D03*
Y2200000D02*
D03*
X4717516D02*
D03*
D73*
X2593879Y2526059D02*
D03*
Y2811059D02*
D03*
D74*
X4343846Y3044034D02*
D03*
Y2894034D02*
D03*
X4043846D02*
D03*
Y3044034D02*
D03*
D75*
X2316823Y1966001D02*
D03*
Y2156001D02*
D03*
X2096823Y2061001D02*
D03*
%TF.MD5,c72b849dcf9372d634272d66fa44f743*%
M02*
