%TF.GenerationSoftware,Altium Limited,Altium Designer,20.1.8 (145)*%
G04 Layer_Color=255*
%FSLAX45Y45*%
%MOMM*%
%TF.SameCoordinates,D4C556C9-1411-47D8-9651-3FCF20F6754B*%
%TF.FilePolarity,Positive*%
%TF.FileFunction,Pads,Bot*%
%TF.Part,Single*%
G01*
G75*
%TA.AperFunction,ViaPad*%
%ADD32O,4.00000X2.40000*%
%TA.AperFunction,ComponentPad*%
%ADD33O,1.60000X1.25000*%
%ADD34O,1.25000X1.60000*%
%ADD35C,0.70000*%
G04:AMPARAMS|DCode=36|XSize=1.8mm|YSize=1.8mm|CornerRadius=0.09mm|HoleSize=0mm|Usage=FLASHONLY|Rotation=0.000|XOffset=0mm|YOffset=0mm|HoleType=Round|Shape=RoundedRectangle|*
%AMROUNDEDRECTD36*
21,1,1.80000,1.62000,0,0,0.0*
21,1,1.62000,1.80000,0,0,0.0*
1,1,0.18000,0.81000,-0.81000*
1,1,0.18000,-0.81000,-0.81000*
1,1,0.18000,-0.81000,0.81000*
1,1,0.18000,0.81000,0.81000*
%
%ADD36ROUNDEDRECTD36*%
G04:AMPARAMS|DCode=37|XSize=1.8mm|YSize=1.8mm|CornerRadius=0.18mm|HoleSize=0mm|Usage=FLASHONLY|Rotation=180.000|XOffset=0mm|YOffset=0mm|HoleType=Round|Shape=RoundedRectangle|*
%AMROUNDEDRECTD37*
21,1,1.80000,1.44000,0,0,180.0*
21,1,1.44000,1.80000,0,0,180.0*
1,1,0.36000,-0.72000,0.72000*
1,1,0.36000,0.72000,0.72000*
1,1,0.36000,0.72000,-0.72000*
1,1,0.36000,-0.72000,-0.72000*
%
%ADD37ROUNDEDRECTD37*%
%TA.AperFunction,ViaPad*%
%ADD38C,0.70000*%
%TA.AperFunction,TestPad*%
%ADD41C,1.50000*%
D32*
X232500Y1345042D02*
D03*
X4767500D02*
D03*
Y1955020D02*
D03*
X232500D02*
D03*
D33*
X4580860Y1125020D02*
D03*
Y871020D02*
D03*
Y617020D02*
D03*
X4834860D02*
D03*
Y871020D02*
D03*
Y1125020D02*
D03*
D34*
X1135263Y2774187D02*
D03*
X881263D02*
D03*
X627263D02*
D03*
Y3028187D02*
D03*
X881263D02*
D03*
X1135263D02*
D03*
D35*
X4880016Y2380000D02*
D03*
X4700016D02*
D03*
D36*
X2190834Y241300D02*
D03*
X1290834D02*
D03*
X1590834D02*
D03*
X1890834D02*
D03*
D37*
X690880D02*
D03*
X990880D02*
D03*
D38*
X2310171Y2782808D02*
D03*
D41*
X2228252Y2812649D02*
D03*
%TF.MD5,7036f862c65d4f5f2be5e5934b877be5*%
M02*
