M48
;Layer_Color=9474304
;FILE_FORMAT=4:4
METRIC
;TYPE=PLATED
T1F00S00C0.3000
T2F00S00C0.4000
T3F00S00C0.9000
T4F00S00C1.2000
;TYPE=NON_PLATED
T6F00S00C0.7000
T7F00S00C2.5000
%
T01
X00435795Y00175924
X00453575Y00176178
T02
X00308182Y00060432
X00330933
X00353684
X00376435
X00399185
X00421936
X00429150Y00051426
Y00040578
Y00029731
Y00018883
Y00008035
X00424448Y00242728
Y00259701
X00387886Y00255227
X00379620
X00371354
X00363088
X00354821
X00346555
Y00274945
X00354821
X00363088
X00371354
X00379620
X00387886
X00326605Y00314083
X00316495Y00308893
X00482582Y00244292
Y00231734
X00278725Y00225366
X00273239Y00234960
X00265112
X00256984
X00259388Y00241937
X00251260
X00249388Y00252606
X00251260Y00263324
X00259388
X00267516
X00269388Y00252606
X00267516Y00241937
X00265112Y00215772
X00273239
X00256984
X00251498Y00225366
X00231682Y00222608
Y00208437
X00225355Y00247869
X00231017Y00278281
X00234598Y00306387
X00227207Y00314343
X00268869Y00308716
X00180083Y00300041
X00171060
X00162038
X00153015
X00143992
X00134970
Y00280047
X00143992
X00153015
X00162038
X00171060
X00180083
X00189230Y00192278
X00205052Y00157868
X00205814Y00146131
X00189451Y00123821
X00212016Y00095827
X00202004Y00072209
Y00038470
X00255203Y00037678
Y00027529
Y00017380
Y00007230
Y00047828
X00262680Y00060432
X00285431
X00245572Y00128035
X00101120Y00133869
X00086610Y00131369
X00079618
X00072625Y00131369
Y00122654
Y00113938
X00079618
X00086610
X00101120Y00109546
Y00084997
Y00063595
X00086610Y00061958
X00079618
X00072625
Y00052569
Y00043180
X00079618
X00086610Y00043208
X00041899Y00059830
Y00068217
Y00076859
X00033291
X00024653
Y00068217
Y00059830
X00033291Y00059733
X00072625Y00185146
X00079618
X00086610
Y00202904
X00079618
X00072625
Y00194025
X00101120Y00206597
Y00226755
Y00181373
Y00156939
T03
X00458086Y00061702
Y00087102
Y00112502
X00483486
Y00087102
Y00061702
X00113526Y00277419
X00088126
X00062726
Y00302819
X00088126
X00113526
T04
X00069088Y00024130
X00099088
X00129083
X00159083
X00189083
X00219083
T06
X00470002Y00238000
X00488002
T07
X00470000Y00030000
Y00290000
X00030000
Y00030000
M30
