%TF.GenerationSoftware,Altium Limited,Altium Designer,20.1.8 (145)*%
G04 Layer_Physical_Order=1*
G04 Layer_Color=255*
%FSLAX45Y45*%
%MOMM*%
%TF.SameCoordinates,D4C556C9-1411-47D8-9651-3FCF20F6754B*%
%TF.FilePolarity,Positive*%
%TF.FileFunction,Copper,L1,Top,Signal*%
%TF.Part,Single*%
G01*
G75*
%TA.AperFunction,SMDPad,CuDef*%
G04:AMPARAMS|DCode=10|XSize=0.8mm|YSize=0.8mm|CornerRadius=0.004mm|HoleSize=0mm|Usage=FLASHONLY|Rotation=180.000|XOffset=0mm|YOffset=0mm|HoleType=Round|Shape=RoundedRectangle|*
%AMROUNDEDRECTD10*
21,1,0.80000,0.79200,0,0,180.0*
21,1,0.79200,0.80000,0,0,180.0*
1,1,0.00800,-0.39600,0.39600*
1,1,0.00800,0.39600,0.39600*
1,1,0.00800,0.39600,-0.39600*
1,1,0.00800,-0.39600,-0.39600*
%
%ADD10ROUNDEDRECTD10*%
%ADD11C,0.75000*%
G04:AMPARAMS|DCode=12|XSize=0.8mm|YSize=0.75mm|CornerRadius=0.00375mm|HoleSize=0mm|Usage=FLASHONLY|Rotation=90.000|XOffset=0mm|YOffset=0mm|HoleType=Round|Shape=RoundedRectangle|*
%AMROUNDEDRECTD12*
21,1,0.80000,0.74250,0,0,90.0*
21,1,0.79250,0.75000,0,0,90.0*
1,1,0.00750,0.37125,0.39625*
1,1,0.00750,0.37125,-0.39625*
1,1,0.00750,-0.37125,-0.39625*
1,1,0.00750,-0.37125,0.39625*
%
%ADD12ROUNDEDRECTD12*%
%TA.AperFunction,ConnectorPad*%
G04:AMPARAMS|DCode=13|XSize=0.8mm|YSize=0.75mm|CornerRadius=0.00375mm|HoleSize=0mm|Usage=FLASHONLY|Rotation=0.000|XOffset=0mm|YOffset=0mm|HoleType=Round|Shape=RoundedRectangle|*
%AMROUNDEDRECTD13*
21,1,0.80000,0.74250,0,0,0.0*
21,1,0.79250,0.75000,0,0,0.0*
1,1,0.00750,0.39625,-0.37125*
1,1,0.00750,-0.39625,-0.37125*
1,1,0.00750,-0.39625,0.37125*
1,1,0.00750,0.39625,0.37125*
%
%ADD13ROUNDEDRECTD13*%
%TA.AperFunction,SMDPad,CuDef*%
G04:AMPARAMS|DCode=14|XSize=0.8mm|YSize=0.75mm|CornerRadius=0.00375mm|HoleSize=0mm|Usage=FLASHONLY|Rotation=0.000|XOffset=0mm|YOffset=0mm|HoleType=Round|Shape=RoundedRectangle|*
%AMROUNDEDRECTD14*
21,1,0.80000,0.74250,0,0,0.0*
21,1,0.79250,0.75000,0,0,0.0*
1,1,0.00750,0.39625,-0.37125*
1,1,0.00750,-0.39625,-0.37125*
1,1,0.00750,-0.39625,0.37125*
1,1,0.00750,0.39625,0.37125*
%
%ADD14ROUNDEDRECTD14*%
G04:AMPARAMS|DCode=15|XSize=0.95mm|YSize=2.4mm|CornerRadius=0.00475mm|HoleSize=0mm|Usage=FLASHONLY|Rotation=90.000|XOffset=0mm|YOffset=0mm|HoleType=Round|Shape=RoundedRectangle|*
%AMROUNDEDRECTD15*
21,1,0.95000,2.39050,0,0,90.0*
21,1,0.94050,2.40000,0,0,90.0*
1,1,0.00950,1.19525,0.47025*
1,1,0.00950,1.19525,-0.47025*
1,1,0.00950,-1.19525,-0.47025*
1,1,0.00950,-1.19525,0.47025*
%
%ADD15ROUNDEDRECTD15*%
G04:AMPARAMS|DCode=16|XSize=5.55mm|YSize=6.8mm|CornerRadius=0.02775mm|HoleSize=0mm|Usage=FLASHONLY|Rotation=90.000|XOffset=0mm|YOffset=0mm|HoleType=Round|Shape=RoundedRectangle|*
%AMROUNDEDRECTD16*
21,1,5.55000,6.74450,0,0,90.0*
21,1,5.49450,6.80000,0,0,90.0*
1,1,0.05550,3.37225,2.74725*
1,1,0.05550,3.37225,-2.74725*
1,1,0.05550,-3.37225,-2.74725*
1,1,0.05550,-3.37225,2.74725*
%
%ADD16ROUNDEDRECTD16*%
G04:AMPARAMS|DCode=17|XSize=1.65mm|YSize=0.95mm|CornerRadius=0.00475mm|HoleSize=0mm|Usage=FLASHONLY|Rotation=0.000|XOffset=0mm|YOffset=0mm|HoleType=Round|Shape=RoundedRectangle|*
%AMROUNDEDRECTD17*
21,1,1.65000,0.94050,0,0,0.0*
21,1,1.64050,0.95000,0,0,0.0*
1,1,0.00950,0.82025,-0.47025*
1,1,0.00950,-0.82025,-0.47025*
1,1,0.00950,-0.82025,0.47025*
1,1,0.00950,0.82025,0.47025*
%
%ADD17ROUNDEDRECTD17*%
G04:AMPARAMS|DCode=18|XSize=0.8mm|YSize=0.8mm|CornerRadius=0.004mm|HoleSize=0mm|Usage=FLASHONLY|Rotation=90.000|XOffset=0mm|YOffset=0mm|HoleType=Round|Shape=RoundedRectangle|*
%AMROUNDEDRECTD18*
21,1,0.80000,0.79200,0,0,90.0*
21,1,0.79200,0.80000,0,0,90.0*
1,1,0.00800,0.39600,0.39600*
1,1,0.00800,0.39600,-0.39600*
1,1,0.00800,-0.39600,-0.39600*
1,1,0.00800,-0.39600,0.39600*
%
%ADD18ROUNDEDRECTD18*%
G04:AMPARAMS|DCode=19|XSize=0.54mm|YSize=0.9mm|CornerRadius=0.0027mm|HoleSize=0mm|Usage=FLASHONLY|Rotation=0.000|XOffset=0mm|YOffset=0mm|HoleType=Round|Shape=RoundedRectangle|*
%AMROUNDEDRECTD19*
21,1,0.54000,0.89460,0,0,0.0*
21,1,0.53460,0.90000,0,0,0.0*
1,1,0.00540,0.26730,-0.44730*
1,1,0.00540,-0.26730,-0.44730*
1,1,0.00540,-0.26730,0.44730*
1,1,0.00540,0.26730,0.44730*
%
%ADD19ROUNDEDRECTD19*%
G04:AMPARAMS|DCode=20|XSize=0.6mm|YSize=1.05mm|CornerRadius=0.03mm|HoleSize=0mm|Usage=FLASHONLY|Rotation=90.000|XOffset=0mm|YOffset=0mm|HoleType=Round|Shape=RoundedRectangle|*
%AMROUNDEDRECTD20*
21,1,0.60000,0.99000,0,0,90.0*
21,1,0.54000,1.05000,0,0,90.0*
1,1,0.06000,0.49500,0.27000*
1,1,0.06000,0.49500,-0.27000*
1,1,0.06000,-0.49500,-0.27000*
1,1,0.06000,-0.49500,0.27000*
%
%ADD20ROUNDEDRECTD20*%
%TA.AperFunction,ConnectorPad*%
G04:AMPARAMS|DCode=21|XSize=1mm|YSize=2mm|CornerRadius=0.005mm|HoleSize=0mm|Usage=FLASHONLY|Rotation=270.000|XOffset=0mm|YOffset=0mm|HoleType=Round|Shape=RoundedRectangle|*
%AMROUNDEDRECTD21*
21,1,1.00000,1.99000,0,0,270.0*
21,1,0.99000,2.00000,0,0,270.0*
1,1,0.01000,-0.99500,-0.49500*
1,1,0.01000,-0.99500,0.49500*
1,1,0.01000,0.99500,0.49500*
1,1,0.01000,0.99500,-0.49500*
%
%ADD21ROUNDEDRECTD21*%
G04:AMPARAMS|DCode=22|XSize=1mm|YSize=2mm|CornerRadius=0.005mm|HoleSize=0mm|Usage=FLASHONLY|Rotation=0.000|XOffset=0mm|YOffset=0mm|HoleType=Round|Shape=RoundedRectangle|*
%AMROUNDEDRECTD22*
21,1,1.00000,1.99000,0,0,0.0*
21,1,0.99000,2.00000,0,0,0.0*
1,1,0.01000,0.49500,-0.99500*
1,1,0.01000,-0.49500,-0.99500*
1,1,0.01000,-0.49500,0.99500*
1,1,0.01000,0.49500,0.99500*
%
%ADD22ROUNDEDRECTD22*%
%TA.AperFunction,SMDPad,CuDef*%
%ADD23R,2.00000X3.10000*%
%TA.AperFunction,ConnectorPad*%
G04:AMPARAMS|DCode=24|XSize=1.4mm|YSize=1.05mm|CornerRadius=0.00525mm|HoleSize=0mm|Usage=FLASHONLY|Rotation=90.000|XOffset=0mm|YOffset=0mm|HoleType=Round|Shape=RoundedRectangle|*
%AMROUNDEDRECTD24*
21,1,1.40000,1.03950,0,0,90.0*
21,1,1.38950,1.05000,0,0,90.0*
1,1,0.01050,0.51975,0.69475*
1,1,0.01050,0.51975,-0.69475*
1,1,0.01050,-0.51975,-0.69475*
1,1,0.01050,-0.51975,0.69475*
%
%ADD24ROUNDEDRECTD24*%
%TA.AperFunction,SMDPad,CuDef*%
%ADD25R,1.05000X1.25000*%
G04:AMPARAMS|DCode=26|XSize=0.8mm|YSize=1.4mm|CornerRadius=0.004mm|HoleSize=0mm|Usage=FLASHONLY|Rotation=90.000|XOffset=0mm|YOffset=0mm|HoleType=Round|Shape=RoundedRectangle|*
%AMROUNDEDRECTD26*
21,1,0.80000,1.39200,0,0,90.0*
21,1,0.79200,1.40000,0,0,90.0*
1,1,0.00800,0.69600,0.39600*
1,1,0.00800,0.69600,-0.39600*
1,1,0.00800,-0.69600,-0.39600*
1,1,0.00800,-0.69600,0.39600*
%
%ADD26ROUNDEDRECTD26*%
G04:AMPARAMS|DCode=27|XSize=0.55mm|YSize=0.8mm|CornerRadius=0.00275mm|HoleSize=0mm|Usage=FLASHONLY|Rotation=270.000|XOffset=0mm|YOffset=0mm|HoleType=Round|Shape=RoundedRectangle|*
%AMROUNDEDRECTD27*
21,1,0.55000,0.79450,0,0,270.0*
21,1,0.54450,0.80000,0,0,270.0*
1,1,0.00550,-0.39725,-0.27225*
1,1,0.00550,-0.39725,0.27225*
1,1,0.00550,0.39725,0.27225*
1,1,0.00550,0.39725,-0.27225*
%
%ADD27ROUNDEDRECTD27*%
%TA.AperFunction,Conductor*%
%ADD28C,0.12700*%
%ADD29C,0.15240*%
%ADD30C,0.50800*%
%ADD31C,0.30480*%
%TA.AperFunction,ViaPad*%
%ADD32O,4.00000X2.40000*%
%TA.AperFunction,ComponentPad*%
%ADD33O,1.60000X1.25000*%
%ADD34O,1.25000X1.60000*%
%ADD35C,0.70000*%
G04:AMPARAMS|DCode=36|XSize=1.8mm|YSize=1.8mm|CornerRadius=0.09mm|HoleSize=0mm|Usage=FLASHONLY|Rotation=0.000|XOffset=0mm|YOffset=0mm|HoleType=Round|Shape=RoundedRectangle|*
%AMROUNDEDRECTD36*
21,1,1.80000,1.62000,0,0,0.0*
21,1,1.62000,1.80000,0,0,0.0*
1,1,0.18000,0.81000,-0.81000*
1,1,0.18000,-0.81000,-0.81000*
1,1,0.18000,-0.81000,0.81000*
1,1,0.18000,0.81000,0.81000*
%
%ADD36ROUNDEDRECTD36*%
G04:AMPARAMS|DCode=37|XSize=1.8mm|YSize=1.8mm|CornerRadius=0.18mm|HoleSize=0mm|Usage=FLASHONLY|Rotation=180.000|XOffset=0mm|YOffset=0mm|HoleType=Round|Shape=RoundedRectangle|*
%AMROUNDEDRECTD37*
21,1,1.80000,1.44000,0,0,180.0*
21,1,1.44000,1.80000,0,0,180.0*
1,1,0.36000,-0.72000,0.72000*
1,1,0.36000,0.72000,0.72000*
1,1,0.36000,0.72000,-0.72000*
1,1,0.36000,-0.72000,-0.72000*
%
%ADD37ROUNDEDRECTD37*%
%TA.AperFunction,ViaPad*%
%ADD38C,0.70000*%
%ADD39C,0.66000*%
%ADD40C,0.56000*%
G36*
X4721865Y3177832D02*
X4743596Y3175260D01*
X4765058Y3170991D01*
X4786119Y3165051D01*
X4806650Y3157477D01*
X4826522Y3148316D01*
X4845615Y3137623D01*
X4863810Y3125466D01*
X4880995Y3111918D01*
X4897064Y3097064D01*
X4911918Y3080995D01*
X4925465Y3063810D01*
X4937622Y3045616D01*
X4948315Y3026523D01*
X4957476Y3006651D01*
X4965050Y2986120D01*
X4970990Y2965059D01*
X4975259Y2943597D01*
X4977831Y2921866D01*
X4977996Y2917671D01*
X4978545Y2900000D01*
X4978546Y2900000D01*
X4978546Y2882528D01*
Y300000D01*
X4978657Y299154D01*
X4977832Y278134D01*
X4975260Y256403D01*
X4970990Y234941D01*
X4965051Y213880D01*
X4957476Y193349D01*
X4948315Y173477D01*
X4937623Y154384D01*
X4925465Y136189D01*
X4911918Y119005D01*
X4897064Y102936D01*
X4880995Y88082D01*
X4863810Y74534D01*
X4845615Y62377D01*
X4826522Y51684D01*
X4806650Y42523D01*
X4786120Y34949D01*
X4765059Y29009D01*
X4743596Y24740D01*
X4721865Y22168D01*
X4700847Y21342D01*
X4699999Y21454D01*
X4224064D01*
Y554630D01*
X4223078Y559586D01*
X4220271Y563787D01*
X4216071Y566593D01*
X4211115Y567579D01*
X2611115D01*
X2606160Y566593D01*
X2601959Y563787D01*
X2599152Y559586D01*
X2598166Y554630D01*
Y21454D01*
X317589Y21453D01*
X317512Y21454D01*
X300000Y21454D01*
X282446Y21999D01*
X278135Y22168D01*
X256404Y24740D01*
X234941Y29009D01*
X213880Y34949D01*
X193350Y42523D01*
X173477Y51685D01*
X154385Y62377D01*
X136190Y74534D01*
X119005Y88082D01*
X102936Y102936D01*
X88082Y119005D01*
X74535Y136190D01*
X62377Y154385D01*
X51685Y173477D01*
X42523Y193350D01*
X34949Y213880D01*
X29010Y234941D01*
X24740Y256403D01*
X22168Y278134D01*
X21343Y299155D01*
X21454Y300000D01*
Y2900000D01*
X21342Y2900849D01*
X22168Y2921866D01*
X24740Y2943597D01*
X29009Y2965059D01*
X34949Y2986120D01*
X42523Y3006651D01*
X51684Y3026523D01*
X62377Y3045616D01*
X74534Y3063810D01*
X88082Y3080995D01*
X102936Y3097064D01*
X119005Y3111918D01*
X136189Y3125466D01*
X154384Y3137623D01*
X173477Y3148316D01*
X193349Y3157477D01*
X213880Y3165051D01*
X234941Y3170991D01*
X256403Y3175260D01*
X278134Y3177832D01*
X298851Y3178646D01*
X299610Y3178546D01*
X4699999Y3178547D01*
X4700845Y3178658D01*
X4721865Y3177832D01*
D02*
G37*
%LPC*%
G36*
X3189840Y3160079D02*
X3189838Y3160079D01*
X2347830D01*
X2343521Y3159511D01*
X2339504Y3157847D01*
X2336055Y3155201D01*
X2336055Y3155200D01*
X2288882Y3108028D01*
X2120765D01*
Y3138980D01*
X2119945Y3143100D01*
X2117611Y3146593D01*
X2114118Y3148927D01*
X2109998Y3149747D01*
X2030798D01*
X2026677Y3148927D01*
X2023184Y3146593D01*
X2020850Y3143100D01*
X2020031Y3138980D01*
Y3116033D01*
X1970688D01*
Y3137510D01*
X1969871Y3141620D01*
X1967542Y3145105D01*
X1964058Y3147433D01*
X1959947Y3148251D01*
X1880697D01*
X1876587Y3147433D01*
X1873102Y3145105D01*
X1870773Y3141620D01*
X1869956Y3137510D01*
Y3063259D01*
X1870773Y3059149D01*
X1873102Y3055664D01*
X1876587Y3053336D01*
X1880697Y3052518D01*
X1959947D01*
X1964058Y3053336D01*
X1967542Y3055664D01*
X1969871Y3059149D01*
X1970688Y3063259D01*
Y3082728D01*
X2020031D01*
Y3059780D01*
X2020850Y3055660D01*
X2023184Y3052167D01*
X2026677Y3049833D01*
X2030798Y3049013D01*
X2109998D01*
X2114118Y3049833D01*
X2117611Y3052167D01*
X2119945Y3055660D01*
X2120765Y3059780D01*
Y3074723D01*
X2295778D01*
X2295780Y3074723D01*
X2300090Y3075291D01*
X2304107Y3076954D01*
X2307555Y3079601D01*
X2354728Y3126774D01*
X3182942D01*
X3232692Y3077024D01*
Y3057881D01*
X3230034Y3054221D01*
X3219006Y3045786D01*
X3214912Y3044468D01*
X2912702Y3044468D01*
X2907747Y3043483D01*
X2905049Y3041680D01*
X2882975D01*
X2881973Y3041879D01*
X2881972Y3041879D01*
X2786882D01*
X2779346Y3041880D01*
X2769184Y3041680D01*
Y3035533D01*
X2641559Y2883918D01*
X2611812D01*
Y3008183D01*
X2633479D01*
X2637599Y3009003D01*
X2641092Y3011337D01*
X2643426Y3014830D01*
X2644246Y3018950D01*
Y3098150D01*
X2643426Y3102270D01*
X2641092Y3105763D01*
X2637599Y3108097D01*
X2633479Y3108917D01*
X2554279D01*
X2550159Y3108097D01*
X2546666Y3105763D01*
X2544332Y3102270D01*
X2543512Y3098150D01*
Y3018950D01*
X2544332Y3014830D01*
X2546666Y3011337D01*
X2550159Y3009003D01*
X2554279Y3008183D01*
X2575946D01*
Y2883918D01*
X2548917D01*
X2541379Y2883918D01*
X2531218Y2883719D01*
Y2877641D01*
X2370328Y2691197D01*
X2369516Y2689764D01*
X2368600Y2688393D01*
X2368525Y2688015D01*
X2368335Y2687681D01*
X2368133Y2686045D01*
X2367812Y2684429D01*
Y2684185D01*
X2367807Y2684159D01*
Y2594699D01*
X2367812Y2594673D01*
Y2594423D01*
X2368600Y2590459D01*
X2370846Y2587098D01*
X2374207Y2584852D01*
X2378171Y2584064D01*
X2432171D01*
X2436135Y2584852D01*
X2439496Y2587098D01*
X2441742Y2590459D01*
X2442530Y2594423D01*
Y2594673D01*
X2442535Y2594699D01*
Y2678453D01*
X2544197Y2738200D01*
X2645337D01*
X2769184Y2713015D01*
Y2711360D01*
X2778345D01*
X2779346Y2711161D01*
X2899752D01*
X2900754Y2711360D01*
X2905047D01*
X2907746Y2709556D01*
X2912701Y2708571D01*
X3217282Y2708570D01*
X3222237Y2709556D01*
X3224937Y2711360D01*
X3237860D01*
X3238861Y2711161D01*
X3348861D01*
X3349863Y2711360D01*
X3359505D01*
Y2718854D01*
X3396317Y2774886D01*
X3404417Y2772430D01*
X3413760Y2771509D01*
X3423103Y2772430D01*
X3432087Y2775155D01*
X3440367Y2779580D01*
X3447624Y2785536D01*
X3453580Y2792793D01*
X3458005Y2801073D01*
X3460730Y2810057D01*
X3461651Y2819400D01*
X3460730Y2828743D01*
X3458005Y2837727D01*
X3453580Y2846007D01*
X3447727Y2853138D01*
X3459939Y2871726D01*
X3618735D01*
X3619211Y2871820D01*
X3723834D01*
X3724310Y2871726D01*
X3888360D01*
X3892510Y2872551D01*
X3892862Y2872787D01*
X3963479D01*
Y2854434D01*
X3964298Y2850314D01*
X3966632Y2846821D01*
X3970125Y2844487D01*
X3974246Y2843667D01*
X4041764D01*
Y2562031D01*
X4040760Y2561832D01*
X4037267Y2559498D01*
X4034933Y2556005D01*
X4034113Y2551884D01*
Y2472684D01*
X4034933Y2468564D01*
X4037267Y2465071D01*
X4040760Y2462737D01*
X4044880Y2461917D01*
X4060691D01*
Y2278352D01*
X4060747Y2277793D01*
Y2244519D01*
X4022501D01*
X4015870Y2243647D01*
X4009691Y2241087D01*
X4004385Y2237016D01*
X3942595Y2175225D01*
X3938523Y2169919D01*
X3935964Y2163740D01*
X3935091Y2157109D01*
Y1801263D01*
X2763862D01*
X2761484Y1804160D01*
Y1903160D01*
X2760657Y1907320D01*
X2758301Y1910846D01*
X2754775Y1913202D01*
X2750616Y1914029D01*
X2551615D01*
X2547456Y1913202D01*
X2543930Y1910846D01*
X2541574Y1907320D01*
X2540747Y1903160D01*
Y1853291D01*
X2490039D01*
X2489949Y1853747D01*
X2487620Y1857231D01*
X2484135Y1859560D01*
X2480025Y1860378D01*
X2405775D01*
X2401664Y1859560D01*
X2398179Y1857231D01*
X2395851Y1853747D01*
X2395033Y1849636D01*
Y1770386D01*
X2395851Y1766276D01*
X2398179Y1762791D01*
X2401664Y1760462D01*
X2405775Y1759645D01*
X2480025D01*
X2484135Y1760462D01*
X2487620Y1762791D01*
X2489949Y1766276D01*
X2490766Y1770386D01*
Y1819986D01*
X2540747D01*
Y1804160D01*
X2541574Y1800001D01*
X2543930Y1796475D01*
X2544307Y1792644D01*
X2483433Y1731769D01*
X2299552D01*
Y1759645D01*
X2320025D01*
X2324135Y1760462D01*
X2327620Y1762791D01*
X2329949Y1766276D01*
X2330766Y1770386D01*
Y1849636D01*
X2329949Y1853747D01*
X2327620Y1857231D01*
X2324135Y1859560D01*
X2320025Y1860378D01*
X2245775D01*
X2241664Y1859560D01*
X2238179Y1857231D01*
X2235851Y1853747D01*
X2235033Y1849636D01*
Y1770386D01*
X2235851Y1766276D01*
X2238179Y1762791D01*
X2241664Y1760462D01*
X2245775Y1759645D01*
X2266247D01*
Y1669502D01*
X2247579D01*
X2243469Y1668684D01*
X2239984Y1666356D01*
X2237655Y1662871D01*
X2236838Y1658761D01*
Y1579511D01*
X2237655Y1575400D01*
X2239984Y1571915D01*
X2243469Y1569587D01*
X2247579Y1568769D01*
X2321829D01*
X2325940Y1569587D01*
X2329425Y1571915D01*
X2331753Y1575400D01*
X2332571Y1579511D01*
Y1658761D01*
X2331753Y1662871D01*
X2329425Y1666356D01*
X2325940Y1668684D01*
X2321829Y1669502D01*
X2299552D01*
Y1698464D01*
X2490329D01*
X2490331Y1698464D01*
X2494640Y1699032D01*
X2498657Y1700696D01*
X2502106Y1703342D01*
X2566721Y1767958D01*
X3935091D01*
Y1222349D01*
X3935964Y1215718D01*
X3938523Y1209539D01*
X3942595Y1204233D01*
X3989223Y1157604D01*
X3994529Y1153533D01*
X4000708Y1150974D01*
X4007339Y1150101D01*
X4338246D01*
Y1139475D01*
X4339064Y1135365D01*
X4341392Y1131880D01*
X4344877Y1129551D01*
X4348988Y1128734D01*
X4363027D01*
Y1054487D01*
X4349055D01*
X4344945Y1053669D01*
X4341460Y1051341D01*
X4339131Y1047856D01*
X4338314Y1043745D01*
Y969495D01*
X4339131Y965385D01*
X4341460Y961900D01*
X4344945Y959571D01*
X4349055Y958754D01*
X4428305D01*
X4432416Y959571D01*
X4435900Y961900D01*
X4438229Y965385D01*
X4439046Y969495D01*
Y975843D01*
X4711302D01*
X4717933Y976716D01*
X4724112Y979275D01*
X4729418Y983347D01*
X4798325Y1052253D01*
X4805560Y1050516D01*
X4817360Y1049588D01*
X4852360D01*
X4864160Y1050516D01*
X4875670Y1053280D01*
X4886606Y1057809D01*
X4896698Y1063994D01*
X4905699Y1071681D01*
X4913386Y1080682D01*
X4919571Y1090775D01*
X4924101Y1101710D01*
X4926864Y1113220D01*
X4927793Y1125020D01*
X4926864Y1136820D01*
X4924101Y1148330D01*
X4919571Y1159266D01*
X4913386Y1169358D01*
X4905699Y1178359D01*
X4896698Y1186046D01*
X4886606Y1192231D01*
X4875670Y1196761D01*
X4864160Y1199524D01*
X4852360Y1200453D01*
X4817360D01*
X4805560Y1199524D01*
X4794051Y1196761D01*
X4783115Y1192231D01*
X4773022Y1186046D01*
X4764022Y1178359D01*
X4756334Y1169358D01*
X4750150Y1159266D01*
X4745620Y1148330D01*
X4742857Y1136820D01*
X4741928Y1125020D01*
X4742857Y1113220D01*
X4745620Y1101710D01*
X4750150Y1090775D01*
X4755558Y1081949D01*
X4700691Y1027082D01*
X4439046D01*
Y1043745D01*
X4438229Y1047856D01*
X4435900Y1051341D01*
X4432416Y1053669D01*
X4428305Y1054487D01*
X4414265D01*
Y1128734D01*
X4428238D01*
X4432348Y1129551D01*
X4435833Y1131880D01*
X4438162Y1135365D01*
X4438979Y1139475D01*
Y1213725D01*
X4438162Y1217836D01*
X4435833Y1221321D01*
X4432348Y1223649D01*
X4428238Y1224467D01*
X4348988D01*
X4344877Y1223649D01*
X4341392Y1221321D01*
X4339064Y1217836D01*
X4338246Y1213725D01*
Y1201339D01*
X4283799D01*
X4281484Y1204160D01*
Y1280658D01*
X4309448D01*
X4309450Y1280658D01*
X4313760Y1281225D01*
X4317776Y1282889D01*
X4321225Y1285535D01*
X4324488Y1288798D01*
X4348666D01*
X4348988Y1288734D01*
X4428238D01*
X4428560Y1288798D01*
X4450514D01*
X4469102Y1270209D01*
Y1220128D01*
X4469102Y1220126D01*
X4469669Y1215816D01*
X4471333Y1211799D01*
X4473979Y1208351D01*
X4507235Y1175095D01*
X4502334Y1169358D01*
X4496150Y1159266D01*
X4491620Y1148330D01*
X4488857Y1136820D01*
X4487928Y1125020D01*
X4488857Y1113220D01*
X4491620Y1101710D01*
X4496150Y1090775D01*
X4502334Y1080682D01*
X4510022Y1071681D01*
X4519022Y1063994D01*
X4529115Y1057809D01*
X4540051Y1053280D01*
X4551560Y1050516D01*
X4563360Y1049588D01*
X4598360D01*
X4610160Y1050516D01*
X4621670Y1053280D01*
X4632606Y1057809D01*
X4642698Y1063994D01*
X4651699Y1071681D01*
X4659386Y1080682D01*
X4665571Y1090775D01*
X4670101Y1101710D01*
X4672864Y1113220D01*
X4673793Y1125020D01*
X4672864Y1136820D01*
X4670101Y1148330D01*
X4665571Y1159266D01*
X4659386Y1169358D01*
X4651699Y1178359D01*
X4642698Y1186046D01*
X4632606Y1192231D01*
X4621670Y1196761D01*
X4610160Y1199524D01*
X4598360Y1200453D01*
X4563360D01*
X4551560Y1199524D01*
X4540051Y1196761D01*
X4534832Y1194599D01*
X4502407Y1227024D01*
Y1277105D01*
X4502407Y1277107D01*
X4501840Y1281417D01*
X4500176Y1285434D01*
X4497530Y1288882D01*
X4469187Y1317225D01*
X4465738Y1319872D01*
X4461721Y1321535D01*
X4457411Y1322103D01*
X4457409Y1322103D01*
X4438979D01*
Y1373725D01*
X4438162Y1377836D01*
X4435833Y1381321D01*
X4432348Y1383649D01*
X4428238Y1384467D01*
X4348988D01*
X4344877Y1383649D01*
X4341392Y1381321D01*
X4339064Y1377836D01*
X4338246Y1373725D01*
Y1322103D01*
X4317590D01*
X4313280Y1321535D01*
X4309264Y1319872D01*
X4305815Y1317225D01*
X4305814Y1317224D01*
X4302552Y1313963D01*
X4270948D01*
X4270616Y1314029D01*
X4071615D01*
X4067456Y1313202D01*
X4063930Y1310845D01*
X4061574Y1307319D01*
X4060747Y1303160D01*
Y1204160D01*
X4058431Y1201339D01*
X4017951D01*
X3986329Y1232961D01*
Y1784610D01*
Y2146498D01*
X4033113Y2193281D01*
X4091792D01*
X4091873Y2193292D01*
X4270616D01*
X4274775Y2194119D01*
X4278301Y2196475D01*
X4280657Y2200001D01*
X4281484Y2204160D01*
Y2303160D01*
X4280657Y2307319D01*
X4278301Y2310846D01*
X4274775Y2313202D01*
X4270616Y2314029D01*
X4132155D01*
Y2465762D01*
X4134027Y2468564D01*
X4134847Y2472684D01*
Y2551884D01*
X4134027Y2556005D01*
X4131693Y2559498D01*
X4128200Y2561832D01*
X4124080Y2562651D01*
X4113228D01*
Y2843667D01*
X4113445D01*
X4117566Y2844487D01*
X4121059Y2846821D01*
X4123393Y2850314D01*
X4124212Y2854434D01*
Y2933634D01*
X4123393Y2937754D01*
X4121059Y2941247D01*
X4117566Y2943581D01*
X4113445Y2944401D01*
X3974246D01*
X3973491Y2944251D01*
X3899203D01*
Y2976619D01*
X3898378Y2980768D01*
X3896027Y2984286D01*
X3892510Y2986637D01*
X3888360Y2987462D01*
X3724310D01*
X3724264Y2987453D01*
X3618781D01*
X3618735Y2987462D01*
X3454685D01*
X3454639Y2987453D01*
X3442821D01*
X3359505Y3037228D01*
Y3041680D01*
X3348861Y3041880D01*
X3341807Y3041879D01*
X3265997D01*
Y3083921D01*
X3265430Y3088231D01*
X3263766Y3092248D01*
X3261120Y3095696D01*
X3261119Y3095697D01*
X3201615Y3155201D01*
X3198166Y3157847D01*
X3194150Y3159511D01*
X3189840Y3160079D01*
D02*
G37*
G36*
X1162263Y3113150D02*
Y3055187D01*
X1207400D01*
X1207250Y3057089D01*
X1204581Y3068210D01*
X1200204Y3078776D01*
X1194228Y3088528D01*
X1186800Y3097224D01*
X1178104Y3104652D01*
X1168352Y3110628D01*
X1162263Y3113150D01*
D02*
G37*
G36*
X908263D02*
Y3055187D01*
X953400D01*
X953250Y3057089D01*
X950581Y3068210D01*
X946204Y3078776D01*
X940228Y3088528D01*
X932800Y3097224D01*
X924104Y3104652D01*
X914352Y3110628D01*
X908263Y3113150D01*
D02*
G37*
G36*
X654263D02*
Y3055187D01*
X699400D01*
X699250Y3057089D01*
X696581Y3068210D01*
X692204Y3078776D01*
X686228Y3088528D01*
X678800Y3097224D01*
X670104Y3104652D01*
X660352Y3110628D01*
X654263Y3113150D01*
D02*
G37*
G36*
X1108263D02*
X1102174Y3110628D01*
X1092422Y3104652D01*
X1083726Y3097224D01*
X1076298Y3088528D01*
X1070322Y3078776D01*
X1065945Y3068210D01*
X1063275Y3057089D01*
X1063126Y3055187D01*
X1108263D01*
Y3113150D01*
D02*
G37*
G36*
X854263D02*
X848174Y3110628D01*
X838422Y3104652D01*
X829726Y3097224D01*
X822298Y3088528D01*
X816322Y3078776D01*
X811945Y3068210D01*
X809275Y3057089D01*
X809126Y3055187D01*
X854263D01*
Y3113150D01*
D02*
G37*
G36*
X600263D02*
X594174Y3110628D01*
X584422Y3104652D01*
X575726Y3097224D01*
X568298Y3088528D01*
X562322Y3078776D01*
X557945Y3068210D01*
X555275Y3057089D01*
X555126Y3055187D01*
X600263D01*
Y3113150D01*
D02*
G37*
G36*
X4413445Y3094401D02*
X4274246D01*
X4270125Y3093581D01*
X4266632Y3091247D01*
X4264298Y3087754D01*
X4263479Y3083634D01*
Y3027036D01*
X4242653D01*
X4242651Y3027037D01*
X4238341Y3026469D01*
X4234325Y3024805D01*
X4230876Y3022159D01*
X4211998Y3003281D01*
X4209351Y2999832D01*
X4207688Y2995815D01*
X4207120Y2991506D01*
X4207120Y2991504D01*
Y2817081D01*
X4207120Y2817079D01*
X4207688Y2812769D01*
X4209351Y2808752D01*
X4211998Y2805304D01*
X4467346Y2549955D01*
Y2174338D01*
X4410488Y2117479D01*
X4407842Y2114031D01*
X4406178Y2110014D01*
X4405610Y2105704D01*
X4405610Y2105702D01*
Y2076767D01*
X4348988D01*
X4344877Y2075949D01*
X4341392Y2073621D01*
X4339064Y2070136D01*
X4338246Y2066026D01*
Y1991775D01*
X4339064Y1987665D01*
X4341392Y1984180D01*
X4344877Y1981852D01*
X4348988Y1981034D01*
X4428238D01*
X4432348Y1981852D01*
X4435833Y1984180D01*
X4438162Y1987665D01*
X4438979Y1991775D01*
Y2066026D01*
X4438915Y2066346D01*
Y2098806D01*
X4495773Y2155664D01*
X4495774Y2155665D01*
X4498420Y2159114D01*
X4500084Y2163130D01*
X4500652Y2167440D01*
X4500651Y2167442D01*
Y2556851D01*
X4500652Y2556853D01*
X4500084Y2561163D01*
X4498420Y2565179D01*
X4495774Y2568628D01*
X4495773Y2568629D01*
X4240425Y2823977D01*
Y2984608D01*
X4249549Y2993731D01*
X4273923D01*
X4274246Y2993667D01*
X4413445D01*
X4417566Y2994487D01*
X4421059Y2996821D01*
X4423393Y3000314D01*
X4424212Y3004434D01*
Y3083634D01*
X4423393Y3087754D01*
X4421059Y3091247D01*
X4417566Y3093581D01*
X4413445Y3094401D01*
D02*
G37*
G36*
X2109998Y2989747D02*
X2030798D01*
X2026677Y2988927D01*
X2023184Y2986593D01*
X2020850Y2983100D01*
X2020031Y2978980D01*
Y2956032D01*
X1970688D01*
Y2977509D01*
X1969871Y2981620D01*
X1967542Y2985105D01*
X1964058Y2987433D01*
X1959947Y2988251D01*
X1880697D01*
X1876587Y2987433D01*
X1873102Y2985105D01*
X1870773Y2981620D01*
X1869956Y2977509D01*
Y2903259D01*
X1870773Y2899149D01*
X1873102Y2895664D01*
X1876587Y2893335D01*
X1880697Y2892518D01*
X1903675D01*
Y2812215D01*
X1883202D01*
X1879092Y2811398D01*
X1875607Y2809069D01*
X1873279Y2805584D01*
X1872461Y2801474D01*
Y2722224D01*
X1873279Y2718113D01*
X1875607Y2714629D01*
X1879092Y2712300D01*
X1883202Y2711483D01*
X1957453D01*
X1961563Y2712300D01*
X1965048Y2714629D01*
X1967377Y2718113D01*
X1968194Y2722224D01*
Y2801474D01*
X1967377Y2805584D01*
X1965048Y2809069D01*
X1961563Y2811398D01*
X1957453Y2812215D01*
X1936980D01*
Y2892518D01*
X1959947D01*
X1964058Y2893335D01*
X1967542Y2895664D01*
X1969871Y2899149D01*
X1970688Y2903259D01*
Y2922727D01*
X2020031D01*
Y2899780D01*
X2020850Y2895660D01*
X2023184Y2892167D01*
X2026677Y2889833D01*
X2030798Y2889013D01*
X2109998D01*
X2114118Y2889833D01*
X2117611Y2892167D01*
X2119945Y2895660D01*
X2120765Y2899780D01*
Y2910097D01*
X2177807D01*
Y2849699D01*
X2178616Y2845630D01*
X2180922Y2842180D01*
X2184372Y2839874D01*
X2188441Y2839065D01*
X2241901D01*
X2245971Y2839874D01*
X2249420Y2842180D01*
X2251726Y2845630D01*
X2252535Y2849699D01*
Y2939159D01*
X2251726Y2943229D01*
X2249420Y2946678D01*
X2245971Y2948984D01*
X2241901Y2949793D01*
X2188441D01*
X2184372Y2948984D01*
X2180922Y2946678D01*
X2178732Y2943402D01*
X2120765D01*
Y2978980D01*
X2119945Y2983100D01*
X2117611Y2986593D01*
X2114118Y2988927D01*
X2109998Y2989747D01*
D02*
G37*
G36*
X953400Y3001187D02*
X908263D01*
Y2943224D01*
X914352Y2945746D01*
X924104Y2951722D01*
X932800Y2959150D01*
X940228Y2967847D01*
X946204Y2977598D01*
X950581Y2988165D01*
X953250Y2999286D01*
X953400Y3001187D01*
D02*
G37*
G36*
X699400D02*
X654263D01*
Y2943224D01*
X660352Y2945746D01*
X670104Y2951722D01*
X678800Y2959150D01*
X686228Y2967847D01*
X692204Y2977598D01*
X696581Y2988165D01*
X699250Y2999286D01*
X699400Y3001187D01*
D02*
G37*
G36*
X1207400D02*
X1162263D01*
Y2943224D01*
X1168352Y2945746D01*
X1178104Y2951722D01*
X1186800Y2959150D01*
X1194228Y2967847D01*
X1200204Y2977598D01*
X1204581Y2988165D01*
X1207250Y2999286D01*
X1207400Y3001187D01*
D02*
G37*
G36*
X1108263D02*
X1063126D01*
X1063275Y2999286D01*
X1065945Y2988165D01*
X1070322Y2977598D01*
X1076298Y2967847D01*
X1083726Y2959150D01*
X1092422Y2951722D01*
X1102174Y2945746D01*
X1108263Y2943224D01*
Y3001187D01*
D02*
G37*
G36*
X854263D02*
X809126D01*
X809275Y2999286D01*
X811945Y2988165D01*
X816322Y2977598D01*
X822298Y2967847D01*
X829726Y2959150D01*
X838422Y2951722D01*
X848174Y2945746D01*
X854263Y2943224D01*
Y3001187D01*
D02*
G37*
G36*
X600263D02*
X555126D01*
X555275Y2999286D01*
X557945Y2988165D01*
X562322Y2977598D01*
X568298Y2967847D01*
X575726Y2959150D01*
X584422Y2951722D01*
X594174Y2945746D01*
X600263Y2943224D01*
Y3001187D01*
D02*
G37*
G36*
X1786385Y2958306D02*
X1731360D01*
Y2927438D01*
X1797228D01*
Y2947463D01*
X1796403Y2951613D01*
X1794052Y2955130D01*
X1790535Y2957481D01*
X1786385Y2958306D01*
D02*
G37*
G36*
X1677360D02*
X1622335D01*
X1618185Y2957481D01*
X1614668Y2955130D01*
X1612317Y2951613D01*
X1611492Y2947463D01*
Y2927438D01*
X1677360D01*
Y2958306D01*
D02*
G37*
G36*
X1529853D02*
X1474828D01*
Y2927438D01*
X1540697D01*
Y2947463D01*
X1539871Y2951613D01*
X1537521Y2955130D01*
X1534003Y2957481D01*
X1529853Y2958306D01*
D02*
G37*
G36*
X1420829D02*
X1365803D01*
X1361654Y2957481D01*
X1358136Y2955130D01*
X1355786Y2951613D01*
X1354960Y2947463D01*
Y2927438D01*
X1420829D01*
Y2958306D01*
D02*
G37*
G36*
X1797228Y2873438D02*
X1731360D01*
Y2842570D01*
X1786385D01*
X1790535Y2843395D01*
X1794052Y2845746D01*
X1796403Y2849263D01*
X1797228Y2853413D01*
Y2873438D01*
D02*
G37*
G36*
X1677360D02*
X1611492D01*
Y2853413D01*
X1612317Y2849263D01*
X1614668Y2845746D01*
X1618185Y2843395D01*
X1622335Y2842570D01*
X1677360D01*
Y2873438D01*
D02*
G37*
G36*
X1540697D02*
X1474828D01*
Y2842570D01*
X1529853D01*
X1534003Y2843395D01*
X1537521Y2845746D01*
X1539871Y2849263D01*
X1540697Y2853413D01*
Y2873438D01*
D02*
G37*
G36*
X1420829D02*
X1354960D01*
Y2853413D01*
X1355786Y2849263D01*
X1358136Y2845746D01*
X1361654Y2843395D01*
X1365803Y2842570D01*
X1420829D01*
Y2873438D01*
D02*
G37*
G36*
X2473479Y3108917D02*
X2394279D01*
X2390159Y3108097D01*
X2386666Y3105763D01*
X2384332Y3102270D01*
X2383512Y3098150D01*
Y3018950D01*
X2384332Y3014830D01*
X2386666Y3011337D01*
X2390159Y3009003D01*
X2394279Y3008183D01*
X2395156D01*
Y2949793D01*
X2378441D01*
X2374371Y2948984D01*
X2370922Y2946678D01*
X2368616Y2943229D01*
X2367807Y2939159D01*
Y2849699D01*
X2368616Y2845630D01*
X2370922Y2842180D01*
X2374371Y2839874D01*
X2378441Y2839065D01*
X2431901D01*
X2435970Y2839874D01*
X2439420Y2842180D01*
X2441726Y2845630D01*
X2442535Y2849699D01*
Y2939159D01*
X2441726Y2943229D01*
X2439420Y2946678D01*
X2435970Y2948984D01*
X2431901Y2949793D01*
X2431023D01*
Y3008183D01*
X2473479D01*
X2477599Y3009003D01*
X2481092Y3011337D01*
X2483426Y3014830D01*
X2484246Y3018950D01*
Y3098150D01*
X2483426Y3102270D01*
X2481092Y3105763D01*
X2477599Y3108097D01*
X2473479Y3108917D01*
D02*
G37*
G36*
X2336901Y2949793D02*
X2283441D01*
X2279371Y2948984D01*
X2275922Y2946678D01*
X2273616Y2943229D01*
X2272807Y2939159D01*
Y2849699D01*
X2273616Y2845630D01*
X2275922Y2842180D01*
X2279371Y2839874D01*
X2281649Y2839421D01*
X2282362Y2833112D01*
X2282722Y2827158D01*
X2282393Y2821719D01*
X2276279Y2816700D01*
X2271574Y2810967D01*
X2122207D01*
X2121563Y2811398D01*
X2117453Y2812215D01*
X2043203D01*
X2039092Y2811398D01*
X2035607Y2809069D01*
X2033279Y2805584D01*
X2032461Y2801474D01*
Y2722224D01*
X2033279Y2718113D01*
X2035607Y2714629D01*
X2039092Y2712300D01*
X2043203Y2711483D01*
X2117453D01*
X2121563Y2712300D01*
X2125048Y2714629D01*
X2127377Y2718113D01*
X2128194Y2722224D01*
Y2759729D01*
X2268420D01*
X2270318Y2756179D01*
X2276279Y2748916D01*
X2283542Y2742955D01*
X2291829Y2738526D01*
X2300820Y2735798D01*
X2310171Y2734877D01*
X2319522Y2735798D01*
X2328513Y2738526D01*
X2336800Y2742955D01*
X2344063Y2748916D01*
X2350024Y2756179D01*
X2354453Y2764466D01*
X2357181Y2773457D01*
X2358102Y2782808D01*
X2357181Y2792159D01*
X2354453Y2801151D01*
X2350024Y2809437D01*
X2344063Y2816700D01*
X2337948Y2821719D01*
X2337620Y2827158D01*
X2337980Y2833112D01*
X2338692Y2839421D01*
X2340970Y2839874D01*
X2344420Y2842180D01*
X2346726Y2845630D01*
X2347535Y2849699D01*
Y2939159D01*
X2346726Y2943229D01*
X2344420Y2946678D01*
X2340970Y2948984D01*
X2336901Y2949793D01*
D02*
G37*
G36*
X1162263Y2859150D02*
Y2801187D01*
X1207400D01*
X1207250Y2803089D01*
X1204581Y2814210D01*
X1200204Y2824776D01*
X1194228Y2834528D01*
X1186800Y2843224D01*
X1178104Y2850652D01*
X1168352Y2856628D01*
X1162263Y2859150D01*
D02*
G37*
G36*
X908263D02*
Y2801187D01*
X953400D01*
X953250Y2803089D01*
X950581Y2814210D01*
X946204Y2824776D01*
X940228Y2834528D01*
X932800Y2843224D01*
X924104Y2850652D01*
X914352Y2856628D01*
X908263Y2859150D01*
D02*
G37*
G36*
X654263D02*
Y2801187D01*
X699400D01*
X699250Y2803089D01*
X696581Y2814210D01*
X692204Y2824776D01*
X686228Y2834528D01*
X678800Y2843224D01*
X670104Y2850652D01*
X660352Y2856628D01*
X654263Y2859150D01*
D02*
G37*
G36*
X1108263D02*
X1102174Y2856628D01*
X1092422Y2850652D01*
X1083726Y2843224D01*
X1076298Y2834528D01*
X1070322Y2824776D01*
X1065945Y2814210D01*
X1063275Y2803089D01*
X1063126Y2801187D01*
X1108263D01*
Y2859150D01*
D02*
G37*
G36*
X854263D02*
X848174Y2856628D01*
X838422Y2850652D01*
X829726Y2843224D01*
X822298Y2834528D01*
X816322Y2824776D01*
X811945Y2814210D01*
X809275Y2803089D01*
X809126Y2801187D01*
X854263D01*
Y2859150D01*
D02*
G37*
G36*
X600263D02*
X594174Y2856628D01*
X584422Y2850652D01*
X575726Y2843224D01*
X568298Y2834528D01*
X562322Y2824776D01*
X557945Y2814210D01*
X555275Y2803089D01*
X555126Y2801187D01*
X600263D01*
Y2859150D01*
D02*
G37*
G36*
X953400Y2747187D02*
X908263D01*
Y2689224D01*
X914352Y2691746D01*
X924104Y2697722D01*
X932800Y2705150D01*
X940228Y2713847D01*
X946204Y2723598D01*
X950581Y2734165D01*
X953250Y2745286D01*
X953400Y2747187D01*
D02*
G37*
G36*
X699400D02*
X654263D01*
Y2689224D01*
X660352Y2691746D01*
X670104Y2697722D01*
X678800Y2705150D01*
X686228Y2713847D01*
X692204Y2723598D01*
X696581Y2734165D01*
X699250Y2745286D01*
X699400Y2747187D01*
D02*
G37*
G36*
X1207400D02*
X1162263D01*
Y2689224D01*
X1168352Y2691746D01*
X1178104Y2697722D01*
X1186800Y2705150D01*
X1194228Y2713847D01*
X1200204Y2723598D01*
X1204581Y2734165D01*
X1207250Y2745286D01*
X1207400Y2747187D01*
D02*
G37*
G36*
X1108263D02*
X1063126D01*
X1063275Y2745286D01*
X1065945Y2734165D01*
X1070322Y2723598D01*
X1076298Y2713847D01*
X1083726Y2705150D01*
X1092422Y2697722D01*
X1102174Y2691746D01*
X1108263Y2689224D01*
Y2747187D01*
D02*
G37*
G36*
X854263D02*
X809126D01*
X809275Y2745286D01*
X811945Y2734165D01*
X816322Y2723598D01*
X822298Y2713847D01*
X829726Y2705150D01*
X838422Y2697722D01*
X848174Y2691746D01*
X854263Y2689224D01*
Y2747187D01*
D02*
G37*
G36*
X600263D02*
X555126D01*
X555275Y2745286D01*
X557945Y2734165D01*
X562322Y2723598D01*
X568298Y2713847D01*
X575726Y2705150D01*
X584422Y2697722D01*
X594174Y2691746D01*
X600263Y2689224D01*
Y2747187D01*
D02*
G37*
G36*
X3618735Y2707462D02*
X3563716D01*
Y2676592D01*
X3629578D01*
Y2696619D01*
X3628752Y2700769D01*
X3626402Y2704286D01*
X3622884Y2706637D01*
X3618735Y2707462D01*
D02*
G37*
G36*
X3888360D02*
X3833335D01*
Y2676592D01*
X3899203D01*
Y2696619D01*
X3898378Y2700769D01*
X3896027Y2704286D01*
X3892510Y2706637D01*
X3888360Y2707462D01*
D02*
G37*
G36*
X3779335D02*
X3724310D01*
X3720160Y2706637D01*
X3716643Y2704286D01*
X3714292Y2700769D01*
X3713467Y2696619D01*
Y2676592D01*
X3779335D01*
Y2707462D01*
D02*
G37*
G36*
X3509716D02*
X3454685D01*
X3450535Y2706637D01*
X3447017Y2704286D01*
X3444667Y2700769D01*
X3443841Y2696619D01*
Y2676592D01*
X3509716D01*
Y2707462D01*
D02*
G37*
G36*
X2336901Y2694793D02*
X2283441D01*
X2279371Y2693984D01*
X2275922Y2691678D01*
X2273616Y2688229D01*
X2272807Y2684159D01*
Y2675161D01*
X2252535D01*
Y2684159D01*
X2251726Y2688229D01*
X2249420Y2691678D01*
X2245971Y2693984D01*
X2241901Y2694793D01*
X2188441D01*
X2184372Y2693984D01*
X2180922Y2691678D01*
X2178616Y2688229D01*
X2177807Y2684159D01*
Y2656170D01*
X1797228D01*
Y2667463D01*
X1796403Y2671613D01*
X1794052Y2675130D01*
X1790535Y2677481D01*
X1786385Y2678306D01*
X1622335D01*
X1618185Y2677481D01*
X1614668Y2675130D01*
X1612317Y2671613D01*
X1611492Y2667463D01*
Y2656170D01*
X1540697D01*
Y2667463D01*
X1539871Y2671613D01*
X1537521Y2675130D01*
X1534003Y2677481D01*
X1529853Y2678306D01*
X1365803D01*
X1361654Y2677481D01*
X1358136Y2675130D01*
X1355786Y2671613D01*
X1354960Y2667463D01*
Y2656170D01*
X822121D01*
X822118Y2656170D01*
X815147Y2655483D01*
X808444Y2653450D01*
X802266Y2650148D01*
X796852Y2645704D01*
X796850Y2645703D01*
X668199Y2517052D01*
X663755Y2511637D01*
X660453Y2505460D01*
X658420Y2498756D01*
X657734Y2491785D01*
Y2092024D01*
X483771D01*
X479807Y2091236D01*
X476446Y2088990D01*
X474200Y2085629D01*
X473412Y2081665D01*
X473406Y859398D01*
X473625Y858297D01*
X473647Y857176D01*
X589840Y328007D01*
Y323326D01*
X588624Y319318D01*
X588032Y313300D01*
Y169300D01*
X588624Y163282D01*
X589841Y159272D01*
Y151000D01*
X590629Y147036D01*
X592875Y143675D01*
X596236Y141429D01*
X600200Y140641D01*
X607599D01*
X612862Y139044D01*
X618880Y138452D01*
X762880D01*
X768898Y139044D01*
X774162Y140641D01*
X780201D01*
X784165Y141429D01*
X787526Y143675D01*
X789772Y147036D01*
X790560Y151000D01*
Y155961D01*
X791380Y157495D01*
X793136Y163282D01*
X793728Y169300D01*
Y313300D01*
X793533Y315281D01*
X895786Y395246D01*
X896201Y395728D01*
X896730Y396081D01*
X930232Y429583D01*
X932477Y432944D01*
X933266Y436908D01*
X933266Y436910D01*
Y448724D01*
X945838Y461297D01*
X1016000D01*
X1020150Y462122D01*
X1023667Y464473D01*
X1026018Y467990D01*
X1026843Y472140D01*
Y566190D01*
X1026018Y570340D01*
X1023667Y573857D01*
X1020150Y576208D01*
X1016000Y577033D01*
X933265D01*
X933262Y906724D01*
X945834Y919297D01*
X1016000D01*
X1020150Y920122D01*
X1023667Y922473D01*
X1026018Y925991D01*
X1026843Y930140D01*
Y960513D01*
X1060741D01*
X1060743Y960512D01*
X1065053Y961080D01*
X1069069Y962744D01*
X1072518Y965390D01*
X1093027Y985899D01*
X1093028Y985900D01*
X1095674Y989349D01*
X1097338Y993365D01*
X1097905Y997675D01*
X1097905Y997677D01*
Y1684810D01*
Y2397535D01*
Y2457954D01*
X1138320Y2498369D01*
X1909257D01*
Y2444917D01*
X1910074Y2440806D01*
X1912403Y2437322D01*
X1915888Y2434993D01*
X1919998Y2434175D01*
X1963331D01*
Y2366561D01*
X1914958D01*
X1910848Y2365743D01*
X1907363Y2363415D01*
X1905035Y2359930D01*
X1904217Y2355819D01*
Y2281569D01*
X1905035Y2277458D01*
X1907363Y2273974D01*
X1910848Y2271645D01*
X1914958Y2270828D01*
X1994208D01*
X1998319Y2271645D01*
X2001804Y2273974D01*
X2004132Y2277458D01*
X2004950Y2281569D01*
Y2355819D01*
X2004132Y2359930D01*
X2001804Y2363415D01*
X1998319Y2365743D01*
X1996636Y2366078D01*
Y2434650D01*
X1998359Y2434993D01*
X2001844Y2437322D01*
X2004172Y2440806D01*
X2004990Y2444917D01*
Y2524167D01*
X2004172Y2528277D01*
X2001844Y2531762D01*
X1998359Y2534091D01*
X1994248Y2534908D01*
X1919998D01*
X1915888Y2534091D01*
X1912403Y2531762D01*
X1912344Y2531674D01*
X1131422D01*
X1127113Y2531107D01*
X1123096Y2529443D01*
X1119647Y2526797D01*
X1069477Y2476627D01*
X1066831Y2473178D01*
X1065168Y2469162D01*
X1064600Y2464852D01*
X1064600Y2464850D01*
Y2414188D01*
X1026843D01*
Y2444560D01*
X1026018Y2448710D01*
X1023667Y2452228D01*
X1020150Y2454578D01*
X1016000Y2455404D01*
X776950D01*
X772800Y2454578D01*
X769283Y2452228D01*
X766932Y2448710D01*
X766107Y2444560D01*
Y2350510D01*
X766932Y2346361D01*
X769283Y2342843D01*
X772800Y2340492D01*
X776950Y2339667D01*
X1016000D01*
X1020150Y2340492D01*
X1023667Y2342843D01*
X1026018Y2346361D01*
X1026843Y2350510D01*
Y2380883D01*
X1064600D01*
Y1701463D01*
X1026843D01*
Y1731835D01*
X1026018Y1735985D01*
X1023667Y1739502D01*
X1020150Y1741853D01*
X1016000Y1742679D01*
X947503D01*
X944912Y1744162D01*
X933255Y1755251D01*
X933255Y1755252D01*
X933254Y1869094D01*
X945827Y1881667D01*
X1016000D01*
X1020150Y1882492D01*
X1023667Y1884843D01*
X1026018Y1888360D01*
X1026843Y1892510D01*
Y1986560D01*
X1026018Y1990710D01*
X1023667Y1994227D01*
X1020150Y1996578D01*
X1016000Y1997403D01*
X933253D01*
X933252Y2081665D01*
X932464Y2085629D01*
X930218Y2088990D01*
X926857Y2091236D01*
X922893Y2092024D01*
X729197D01*
Y2476985D01*
X836919Y2584706D01*
X1354960D01*
Y2573413D01*
X1355786Y2569263D01*
X1358136Y2565746D01*
X1361654Y2563395D01*
X1365803Y2562570D01*
X1529853D01*
X1534003Y2563395D01*
X1537521Y2565746D01*
X1539871Y2569263D01*
X1540697Y2573413D01*
Y2584706D01*
X1611492D01*
Y2573413D01*
X1612317Y2569263D01*
X1614668Y2565746D01*
X1618185Y2563395D01*
X1622335Y2562570D01*
X1786385D01*
X1790535Y2563395D01*
X1794052Y2565746D01*
X1796403Y2569263D01*
X1797228Y2573413D01*
Y2584706D01*
X2099190D01*
Y2534908D01*
X2079998D01*
X2075888Y2534091D01*
X2072403Y2531762D01*
X2070075Y2528277D01*
X2069257Y2524167D01*
Y2444917D01*
X2070075Y2440806D01*
X2072403Y2437322D01*
X2075888Y2434993D01*
X2079998Y2434175D01*
X2099190D01*
Y2217082D01*
X2099190Y2217080D01*
X2099801Y2212438D01*
X2101593Y2208113D01*
X2104443Y2204399D01*
X2175148Y2133694D01*
Y2031198D01*
X2119499Y1975549D01*
X2019364D01*
X2019362Y1975550D01*
X2014720Y1974938D01*
X2010395Y1973147D01*
X2006681Y1970297D01*
X2006680Y1970296D01*
X1935455Y1899071D01*
X1932605Y1895357D01*
X1930814Y1891032D01*
X1930202Y1886390D01*
X1930203Y1886388D01*
Y1277957D01*
X1930202Y1277955D01*
X1930814Y1273313D01*
X1932605Y1268988D01*
X1935455Y1265274D01*
X1972168Y1228561D01*
X1972169Y1228560D01*
X1975883Y1225710D01*
X1980208Y1223918D01*
X1984850Y1223307D01*
X1984852Y1223307D01*
X2007771D01*
Y1169261D01*
X2008590Y1165140D01*
X2010924Y1161647D01*
X2014417Y1159313D01*
X2018538Y1158493D01*
X2040204D01*
Y1093538D01*
X1970538D01*
X1967102Y1093086D01*
X1963901Y1091760D01*
X1961152Y1089650D01*
X1959042Y1086901D01*
X1957716Y1083700D01*
X1957264Y1080265D01*
Y1026265D01*
X1957716Y1022829D01*
X1959042Y1019628D01*
X1961152Y1016879D01*
X1963576Y1015018D01*
X1964521Y1010481D01*
Y1001048D01*
X1963576Y996511D01*
X1961152Y994650D01*
X1959042Y991901D01*
X1957716Y988700D01*
X1957264Y985264D01*
Y970963D01*
X2020034D01*
X2082811D01*
Y985264D01*
X2082359Y988700D01*
X2081033Y991901D01*
X2078923Y994650D01*
X2076499Y996511D01*
X2075554Y1001048D01*
Y1010481D01*
X2076499Y1015018D01*
X2078923Y1016879D01*
X2081033Y1019628D01*
X2082359Y1022829D01*
X2082811Y1026265D01*
Y1080265D01*
X2082359Y1083700D01*
X2081033Y1086901D01*
X2078923Y1089650D01*
X2076174Y1091760D01*
X2076071Y1091803D01*
Y1158493D01*
X2097737D01*
X2101858Y1159313D01*
X2105351Y1161647D01*
X2107685Y1165140D01*
X2108505Y1169261D01*
Y1248460D01*
X2107685Y1252581D01*
X2105351Y1256074D01*
X2101858Y1258408D01*
X2097737Y1259227D01*
X2018538D01*
X2018270Y1259174D01*
X1992278D01*
X1966069Y1285383D01*
Y1878962D01*
X2026790Y1939682D01*
X2126926D01*
X2126928Y1939682D01*
X2131569Y1940294D01*
X2135894Y1942085D01*
X2139609Y1944935D01*
X2205762Y2011089D01*
X2208612Y2014803D01*
X2210404Y2019128D01*
X2211015Y2023770D01*
X2211015Y2023772D01*
Y2141122D01*
X2210404Y2145764D01*
X2208612Y2150089D01*
X2205762Y2153803D01*
X2205761Y2153804D01*
X2135057Y2224508D01*
Y2434175D01*
X2154249D01*
X2158359Y2434993D01*
X2161844Y2437322D01*
X2164172Y2440806D01*
X2164990Y2444917D01*
Y2524167D01*
X2164172Y2528277D01*
X2161844Y2531762D01*
X2158359Y2534091D01*
X2154249Y2534908D01*
X2135057D01*
Y2584706D01*
X2185218D01*
X2188441Y2584065D01*
X2241901D01*
X2245971Y2584874D01*
X2249420Y2587180D01*
X2251726Y2590630D01*
X2252535Y2594699D01*
Y2603697D01*
X2272807D01*
Y2594699D01*
X2273616Y2590630D01*
X2275922Y2587180D01*
X2279371Y2584874D01*
X2283441Y2584065D01*
X2336901D01*
X2340970Y2584874D01*
X2344420Y2587180D01*
X2346726Y2590630D01*
X2347535Y2594699D01*
Y2684159D01*
X2346726Y2688229D01*
X2344420Y2691678D01*
X2340970Y2693984D01*
X2336901Y2694793D01*
D02*
G37*
G36*
X3899203Y2622592D02*
X3833335D01*
Y2591726D01*
X3888360D01*
X3892510Y2592551D01*
X3896027Y2594902D01*
X3898378Y2598419D01*
X3899203Y2602569D01*
Y2622592D01*
D02*
G37*
G36*
X3779335D02*
X3713467D01*
Y2602569D01*
X3714292Y2598419D01*
X3716643Y2594902D01*
X3720160Y2592551D01*
X3724310Y2591726D01*
X3779335D01*
Y2622592D01*
D02*
G37*
G36*
X3629578D02*
X3563716D01*
Y2591726D01*
X3618735D01*
X3622884Y2592551D01*
X3626402Y2594902D01*
X3628752Y2598419D01*
X3629578Y2602569D01*
Y2622592D01*
D02*
G37*
G36*
X3509716D02*
X3443841D01*
Y2602569D01*
X3444667Y2598419D01*
X3447017Y2594902D01*
X3450535Y2592551D01*
X3454685Y2591726D01*
X3509716D01*
Y2622592D01*
D02*
G37*
G36*
X4914491Y2640369D02*
X4875218D01*
Y2572694D01*
X4925385D01*
Y2629475D01*
X4924556Y2633644D01*
X4922195Y2637178D01*
X4918660Y2639540D01*
X4914491Y2640369D01*
D02*
G37*
G36*
X4849818D02*
X4810541D01*
X4806372Y2639540D01*
X4802837Y2637178D01*
X4800476Y2633644D01*
X4799647Y2629475D01*
Y2572694D01*
X4849818D01*
Y2640369D01*
D02*
G37*
G36*
X2656539Y2598719D02*
X2606579D01*
Y2538759D01*
X2656539D01*
Y2598719D01*
D02*
G37*
G36*
X2581179D02*
X2531219D01*
Y2538759D01*
X2581179D01*
Y2598719D01*
D02*
G37*
G36*
X4284080Y2562651D02*
X4257186D01*
Y2524984D01*
X4294847D01*
Y2551884D01*
X4294027Y2556005D01*
X4291693Y2559498D01*
X4288200Y2561832D01*
X4284080Y2562651D01*
D02*
G37*
G36*
X4231786D02*
X4204880D01*
X4200760Y2561832D01*
X4197267Y2559498D01*
X4194933Y2556005D01*
X4194113Y2551884D01*
Y2524984D01*
X4231786D01*
Y2562651D01*
D02*
G37*
G36*
X4769491Y2640369D02*
X4665541D01*
X4661372Y2639540D01*
X4657838Y2637178D01*
X4655476Y2633644D01*
X4654647Y2629475D01*
Y2513002D01*
X4625617D01*
X4625615Y2513003D01*
X4621305Y2512435D01*
X4617289Y2510771D01*
X4613840Y2508125D01*
X4613839Y2508124D01*
X4593989Y2488274D01*
X4591343Y2484826D01*
X4589679Y2480809D01*
X4589112Y2476499D01*
X4589112Y2476497D01*
Y2200000D01*
Y2124990D01*
X4523975Y2059852D01*
X4521329Y2056404D01*
X4519665Y2052387D01*
X4519097Y2048077D01*
X4519097Y2048075D01*
Y1799024D01*
X4513029Y1795780D01*
X4506831Y1790694D01*
X4501745Y1784497D01*
X4497966Y1777426D01*
X4495639Y1769754D01*
X4494853Y1761776D01*
X4495639Y1753797D01*
X4497966Y1746125D01*
X4501745Y1739055D01*
X4506831Y1732857D01*
X4513029Y1727771D01*
X4520099Y1723992D01*
X4527771Y1721665D01*
X4535750Y1720879D01*
X4543729Y1721665D01*
X4551400Y1723992D01*
X4558471Y1727771D01*
X4564668Y1732857D01*
X4569754Y1739055D01*
X4573534Y1746125D01*
X4575861Y1753797D01*
X4576647Y1761776D01*
X4575861Y1769754D01*
X4573534Y1777426D01*
X4569754Y1784497D01*
X4564668Y1790694D01*
X4558471Y1795780D01*
X4552402Y1799024D01*
Y2041179D01*
X4617540Y2106317D01*
X4620186Y2109765D01*
X4621850Y2113782D01*
X4622417Y2118092D01*
Y2183348D01*
X4654647D01*
Y2130525D01*
X4655476Y2126356D01*
X4657838Y2122822D01*
X4661372Y2120460D01*
X4665541Y2119631D01*
X4769491D01*
X4773660Y2120460D01*
X4777195Y2122822D01*
X4779556Y2126356D01*
X4780385Y2130525D01*
Y2269475D01*
X4779556Y2273644D01*
X4777195Y2277179D01*
X4773660Y2279540D01*
X4769491Y2280369D01*
X4665541D01*
X4661372Y2279540D01*
X4657838Y2277179D01*
X4655476Y2273644D01*
X4654647Y2269475D01*
Y2216653D01*
X4622417D01*
Y2469601D01*
X4632513Y2479697D01*
X4665207D01*
X4665541Y2479631D01*
X4769491D01*
X4773660Y2480460D01*
X4777195Y2482822D01*
X4779556Y2486356D01*
X4780385Y2490525D01*
Y2629475D01*
X4779556Y2633644D01*
X4777195Y2637178D01*
X4773660Y2639540D01*
X4769491Y2640369D01*
D02*
G37*
G36*
X2376442Y2526561D02*
X2349517D01*
Y2491393D01*
X2387183D01*
Y2515819D01*
X2386366Y2519930D01*
X2384037Y2523415D01*
X2380553Y2525743D01*
X2376442Y2526561D01*
D02*
G37*
G36*
X2324117D02*
X2297192D01*
X2293082Y2525743D01*
X2289597Y2523415D01*
X2287268Y2519930D01*
X2286451Y2515819D01*
Y2491393D01*
X2324117D01*
Y2526561D01*
D02*
G37*
G36*
X4925385Y2547294D02*
X4875218D01*
Y2479631D01*
X4914491D01*
X4918660Y2480460D01*
X4922195Y2482822D01*
X4924556Y2486356D01*
X4925385Y2490525D01*
Y2547294D01*
D02*
G37*
G36*
X4849818D02*
X4799647D01*
Y2490525D01*
X4800476Y2486356D01*
X4802837Y2482822D01*
X4806372Y2480460D01*
X4810541Y2479631D01*
X4849818D01*
Y2547294D01*
D02*
G37*
G36*
X4294847Y2499584D02*
X4257186D01*
Y2461917D01*
X4284080D01*
X4288200Y2462737D01*
X4291693Y2465071D01*
X4294027Y2468564D01*
X4294847Y2472684D01*
Y2499584D01*
D02*
G37*
G36*
X4231786D02*
X4194113D01*
Y2472684D01*
X4194933Y2468564D01*
X4197267Y2465071D01*
X4200760Y2462737D01*
X4204880Y2461917D01*
X4231786D01*
Y2499584D01*
D02*
G37*
G36*
X1169250Y2456449D02*
X1169249Y2456448D01*
X1168953Y2456390D01*
X1166478Y2456390D01*
X1166477Y2456389D01*
X1162514Y2455601D01*
X1159153Y2453355D01*
X1156907Y2449994D01*
X1156119Y2446031D01*
X1156118Y2446030D01*
X1156119Y2443547D01*
X1156062Y2443261D01*
X1156061Y2443260D01*
X1156062Y2442925D01*
Y1893810D01*
X1156120Y1893520D01*
Y1730827D01*
X1156062Y1730535D01*
Y1181085D01*
X1156120Y1180791D01*
Y1023186D01*
X1156062Y1022890D01*
Y473440D01*
X1156121Y473142D01*
Y471332D01*
X1156354Y470160D01*
X1156395Y468965D01*
X1156745Y468197D01*
X1156910Y467368D01*
X1157574Y466373D01*
X1158069Y465286D01*
X1158686Y464710D01*
X1159155Y464007D01*
X1160150Y463342D01*
X1161023Y462527D01*
X1161814Y462231D01*
X1162516Y461761D01*
X1163689Y461528D01*
X1163931Y461437D01*
X1164203Y461256D01*
X1164657Y461165D01*
X1164808Y461109D01*
X1165559Y460986D01*
X1169250Y460252D01*
X1170047D01*
X1413602Y420408D01*
X1489099Y328944D01*
X1488693Y327965D01*
X1487947Y322300D01*
Y160300D01*
X1488693Y154635D01*
X1490879Y149357D01*
X1494358Y144824D01*
X1498891Y141345D01*
X1504169Y139159D01*
X1509834Y138413D01*
X1671834D01*
X1677499Y139159D01*
X1681302Y140735D01*
X1684795Y141429D01*
X1688156Y143675D01*
X1690401Y147036D01*
X1690931Y149702D01*
X1692975Y154635D01*
X1693721Y160300D01*
Y322300D01*
X1693006Y327734D01*
X1853171Y463428D01*
X1853440Y463766D01*
X1853800Y464007D01*
X1854690Y465338D01*
X1855686Y466592D01*
X1855806Y467008D01*
X1856046Y467368D01*
X1856358Y468937D01*
X1856799Y470478D01*
X1856750Y470908D01*
X1856834Y471332D01*
Y473168D01*
X1856888Y473440D01*
Y1022890D01*
X1856834Y1023162D01*
Y1054703D01*
X1864944Y1057163D01*
X1873224Y1061589D01*
X1880481Y1067544D01*
X1886437Y1074802D01*
X1890863Y1083081D01*
X1893588Y1092065D01*
X1894508Y1101408D01*
X1893588Y1110751D01*
X1890863Y1119735D01*
X1886437Y1128015D01*
X1880481Y1135272D01*
X1873224Y1141228D01*
X1864944Y1145654D01*
X1856834Y1148114D01*
Y1180813D01*
X1856888Y1181085D01*
Y1730535D01*
X1856834Y1730807D01*
Y1893538D01*
X1856888Y1893810D01*
Y2443260D01*
X1856834Y2443532D01*
Y2446030D01*
X1856046Y2449994D01*
X1853800Y2453355D01*
X1850439Y2455601D01*
X1846475Y2456389D01*
X1843997D01*
X1843700Y2456448D01*
X1169582Y2456449D01*
X1169250Y2456449D01*
D02*
G37*
G36*
X2656539Y2513359D02*
X2606579D01*
Y2453399D01*
X2656539D01*
Y2513359D01*
D02*
G37*
G36*
X2581179D02*
X2531219D01*
Y2453399D01*
X2581179D01*
Y2513359D01*
D02*
G37*
G36*
X2387183Y2465993D02*
X2349517D01*
Y2430828D01*
X2376442D01*
X2380553Y2431645D01*
X2384037Y2433974D01*
X2386366Y2437459D01*
X2387183Y2441569D01*
Y2465993D01*
D02*
G37*
G36*
X2324117D02*
X2286451D01*
Y2441569D01*
X2287268Y2437459D01*
X2289597Y2433974D01*
X2293082Y2431645D01*
X2297192Y2430828D01*
X2324117D01*
Y2465993D01*
D02*
G37*
G36*
X4880016Y2427931D02*
X4870665Y2427010D01*
X4861674Y2424282D01*
X4853387Y2419853D01*
X4846124Y2413892D01*
X4840163Y2406629D01*
X4835734Y2398342D01*
X4833006Y2389351D01*
X4832085Y2380000D01*
X4833006Y2370649D01*
X4835734Y2361658D01*
X4840163Y2353371D01*
X4846124Y2346108D01*
X4853387Y2340147D01*
X4861674Y2335718D01*
X4870665Y2332990D01*
X4880016Y2332069D01*
X4889367Y2332990D01*
X4898359Y2335718D01*
X4906645Y2340147D01*
X4913908Y2346108D01*
X4919869Y2353371D01*
X4924299Y2361658D01*
X4927026Y2370649D01*
X4927947Y2380000D01*
X4927026Y2389351D01*
X4924299Y2398342D01*
X4919869Y2406629D01*
X4913908Y2413892D01*
X4906645Y2419853D01*
X4898359Y2424282D01*
X4889367Y2427010D01*
X4880016Y2427931D01*
D02*
G37*
G36*
X4700016D02*
X4690665Y2427010D01*
X4681674Y2424282D01*
X4673387Y2419853D01*
X4666124Y2413892D01*
X4660163Y2406629D01*
X4655734Y2398342D01*
X4653006Y2389351D01*
X4652085Y2380000D01*
X4653006Y2370649D01*
X4655734Y2361658D01*
X4660163Y2353371D01*
X4666124Y2346108D01*
X4673387Y2340147D01*
X4681674Y2335718D01*
X4690665Y2332990D01*
X4700016Y2332069D01*
X4709367Y2332990D01*
X4718358Y2335718D01*
X4726645Y2340147D01*
X4733908Y2346108D01*
X4739869Y2353371D01*
X4744298Y2361658D01*
X4747026Y2370649D01*
X4747947Y2380000D01*
X4747026Y2389351D01*
X4744298Y2398342D01*
X4739869Y2406629D01*
X4733908Y2413892D01*
X4726645Y2419853D01*
X4718358Y2424282D01*
X4709367Y2427010D01*
X4700016Y2427931D01*
D02*
G37*
G36*
X4113445Y3094401D02*
X3974246D01*
X3970125Y3093581D01*
X3966632Y3091247D01*
X3964298Y3087754D01*
X3963479Y3083634D01*
Y3004434D01*
X3964298Y3000314D01*
X3966632Y2996821D01*
X3970125Y2994487D01*
X3974246Y2993667D01*
X4113445D01*
X4113769Y2993731D01*
X4137004D01*
X4148209Y2982527D01*
Y2783593D01*
X4148208Y2783591D01*
X4148776Y2779281D01*
X4150440Y2775265D01*
X4153086Y2771816D01*
X4371960Y2552942D01*
Y2427445D01*
X4348988D01*
X4344877Y2426628D01*
X4341392Y2424299D01*
X4339064Y2420814D01*
X4338246Y2416704D01*
Y2342454D01*
X4339064Y2338343D01*
X4341392Y2334858D01*
X4344877Y2332530D01*
X4348988Y2331712D01*
X4428238D01*
X4432348Y2332530D01*
X4435833Y2334858D01*
X4438162Y2338343D01*
X4438979Y2342454D01*
Y2416704D01*
X4438162Y2420814D01*
X4435833Y2424299D01*
X4432348Y2426628D01*
X4428238Y2427445D01*
X4405265D01*
Y2559838D01*
X4405266Y2559840D01*
X4404698Y2564150D01*
X4403034Y2568166D01*
X4400388Y2571615D01*
X4400387Y2571616D01*
X4181514Y2790489D01*
Y2989425D01*
X4180946Y2993735D01*
X4179282Y2997751D01*
X4176636Y3001200D01*
X4176635Y3001201D01*
X4155677Y3022159D01*
X4152228Y3024805D01*
X4148212Y3026469D01*
X4143902Y3027037D01*
X4143900Y3027036D01*
X4124212D01*
Y3083634D01*
X4123393Y3087754D01*
X4121059Y3091247D01*
X4117566Y3093581D01*
X4113445Y3094401D01*
D02*
G37*
G36*
X3960615Y2514029D02*
X3861615D01*
X3857456Y2513202D01*
X3853930Y2510846D01*
X3851574Y2507320D01*
X3850747Y2503160D01*
Y2304160D01*
X3851574Y2300001D01*
X3853930Y2296475D01*
X3857456Y2294119D01*
X3861615Y2293291D01*
X3960615D01*
X3964775Y2294119D01*
X3968301Y2296475D01*
X3970657Y2300001D01*
X3971484Y2304160D01*
Y2503160D01*
X3970657Y2507320D01*
X3968301Y2510846D01*
X3964775Y2513202D01*
X3960615Y2514029D01*
D02*
G37*
G36*
X3760615D02*
X3661615D01*
X3657456Y2513202D01*
X3653930Y2510846D01*
X3651574Y2507320D01*
X3650747Y2503160D01*
Y2304160D01*
X3651574Y2300001D01*
X3653930Y2296475D01*
X3657456Y2294119D01*
X3661615Y2293291D01*
X3760615D01*
X3764775Y2294119D01*
X3768301Y2296475D01*
X3770657Y2300001D01*
X3771484Y2304160D01*
Y2503160D01*
X3770657Y2507320D01*
X3768301Y2510846D01*
X3764775Y2513202D01*
X3760615Y2514029D01*
D02*
G37*
G36*
X3560615D02*
X3461615D01*
X3457456Y2513202D01*
X3453930Y2510846D01*
X3451574Y2507320D01*
X3450746Y2503160D01*
Y2304160D01*
X3451574Y2300001D01*
X3453930Y2296475D01*
X3457456Y2294119D01*
X3461615Y2293291D01*
X3560615D01*
X3564774Y2294119D01*
X3568300Y2296475D01*
X3570657Y2300001D01*
X3571484Y2304160D01*
Y2503160D01*
X3570657Y2507320D01*
X3568300Y2510846D01*
X3564774Y2513202D01*
X3560615Y2514029D01*
D02*
G37*
G36*
X3360615D02*
X3261615D01*
X3257456Y2513202D01*
X3253930Y2510846D01*
X3251574Y2507320D01*
X3250747Y2503160D01*
Y2304160D01*
X3251574Y2300001D01*
X3253930Y2296475D01*
X3257456Y2294119D01*
X3261615Y2293291D01*
X3360615D01*
X3364775Y2294119D01*
X3368301Y2296475D01*
X3370657Y2300001D01*
X3371484Y2304160D01*
Y2503160D01*
X3370657Y2507320D01*
X3368301Y2510846D01*
X3364775Y2513202D01*
X3360615Y2514029D01*
D02*
G37*
G36*
X3160615D02*
X3061615D01*
X3057456Y2513202D01*
X3053930Y2510846D01*
X3051574Y2507320D01*
X3050747Y2503160D01*
Y2304160D01*
X3051574Y2300001D01*
X3053930Y2296475D01*
X3057456Y2294119D01*
X3061615Y2293291D01*
X3160615D01*
X3164774Y2294119D01*
X3168300Y2296475D01*
X3170657Y2300001D01*
X3171484Y2304160D01*
Y2503160D01*
X3170657Y2507320D01*
X3168300Y2510846D01*
X3164774Y2513202D01*
X3160615Y2514029D01*
D02*
G37*
G36*
X2960615D02*
X2861615D01*
X2857456Y2513202D01*
X2853930Y2510846D01*
X2851574Y2507320D01*
X2850747Y2503160D01*
Y2304160D01*
X2851574Y2300001D01*
X2853930Y2296475D01*
X2857456Y2294119D01*
X2861615Y2293291D01*
X2960615D01*
X2964775Y2294119D01*
X2968301Y2296475D01*
X2970657Y2300001D01*
X2971484Y2304160D01*
Y2503160D01*
X2970657Y2507320D01*
X2968301Y2510846D01*
X2964775Y2513202D01*
X2960615Y2514029D01*
D02*
G37*
G36*
X2750616Y2314029D02*
X2678117D01*
Y2280665D01*
X2761484D01*
Y2303160D01*
X2760657Y2307319D01*
X2758301Y2310846D01*
X2754775Y2313202D01*
X2750616Y2314029D01*
D02*
G37*
G36*
X2624117D02*
X2551615D01*
X2547456Y2313202D01*
X2543930Y2310846D01*
X2541574Y2307319D01*
X2540747Y2303160D01*
Y2280665D01*
X2624117D01*
Y2314029D01*
D02*
G37*
G36*
X4914491Y2280369D02*
X4875221D01*
Y2212697D01*
X4925385D01*
Y2269475D01*
X4924556Y2273644D01*
X4922195Y2277179D01*
X4918660Y2279540D01*
X4914491Y2280369D01*
D02*
G37*
G36*
X4849821D02*
X4810541D01*
X4806372Y2279540D01*
X4802837Y2277179D01*
X4800476Y2273644D01*
X4799647Y2269475D01*
Y2212697D01*
X4849821D01*
Y2280369D01*
D02*
G37*
G36*
X2761484Y2226665D02*
X2678117D01*
Y2193292D01*
X2750616D01*
X2754775Y2194119D01*
X2758301Y2196475D01*
X2760657Y2200001D01*
X2761484Y2204160D01*
Y2226665D01*
D02*
G37*
G36*
X2624117D02*
X2540747D01*
Y2204160D01*
X2541574Y2200001D01*
X2543930Y2196475D01*
X2547456Y2194119D01*
X2551615Y2193292D01*
X2624117D01*
Y2226665D01*
D02*
G37*
G36*
X2356548Y2193865D02*
X2329519D01*
Y2168703D01*
X2367188D01*
Y2183225D01*
X2366378Y2187297D01*
X2364071Y2190748D01*
X2360620Y2193055D01*
X2356548Y2193865D01*
D02*
G37*
G36*
X2304119D02*
X2277099D01*
X2273027Y2193055D01*
X2269575Y2190748D01*
X2267269Y2187297D01*
X2266459Y2183225D01*
Y2168703D01*
X2304119D01*
Y2193865D01*
D02*
G37*
G36*
X4925385Y2187297D02*
X4875221D01*
Y2119631D01*
X4914491D01*
X4918660Y2120460D01*
X4922195Y2122822D01*
X4924556Y2126356D01*
X4925385Y2130525D01*
Y2187297D01*
D02*
G37*
G36*
X4849821D02*
X4799647D01*
Y2130525D01*
X4800476Y2126356D01*
X4802837Y2122822D01*
X4806372Y2120460D01*
X4810541Y2119631D01*
X4849821D01*
Y2187297D01*
D02*
G37*
G36*
X2367188Y2143303D02*
X2329519D01*
Y2118136D01*
X2356548D01*
X2360620Y2118946D01*
X2364071Y2121253D01*
X2366378Y2124704D01*
X2367188Y2128776D01*
Y2143303D01*
D02*
G37*
G36*
X2304119D02*
X2266459D01*
Y2128776D01*
X2267269Y2124704D01*
X2269575Y2121253D01*
X2273027Y2118946D01*
X2277099Y2118136D01*
X2304119D01*
Y2143303D01*
D02*
G37*
G36*
X4428238Y2267445D02*
X4348988D01*
X4344877Y2266627D01*
X4341392Y2264299D01*
X4339064Y2260814D01*
X4338246Y2256704D01*
Y2182453D01*
X4338310Y2182133D01*
Y2161231D01*
X4291041Y2113963D01*
X4270948D01*
X4270616Y2114029D01*
X4071615D01*
X4067456Y2113202D01*
X4063930Y2110845D01*
X4061574Y2107319D01*
X4060747Y2103160D01*
Y2004160D01*
X4061574Y2000001D01*
X4063930Y1996475D01*
X4067456Y1994119D01*
X4071615Y1993291D01*
X4270616D01*
X4274775Y1994119D01*
X4278301Y1996475D01*
X4280657Y2000001D01*
X4281484Y2004160D01*
Y2078596D01*
X4297940Y2080658D01*
X4302249Y2081225D01*
X4306266Y2082889D01*
X4309715Y2085535D01*
X4366737Y2142558D01*
X4366738Y2142558D01*
X4369384Y2146007D01*
X4371048Y2150024D01*
X4371615Y2154334D01*
Y2171712D01*
X4428238D01*
X4432348Y2172530D01*
X4435833Y2174858D01*
X4438162Y2178343D01*
X4438979Y2182453D01*
Y2256704D01*
X4438162Y2260814D01*
X4435833Y2264299D01*
X4432348Y2266627D01*
X4428238Y2267445D01*
D02*
G37*
G36*
X1994208Y2206560D02*
X1914958D01*
X1910848Y2205743D01*
X1907363Y2203414D01*
X1905035Y2199930D01*
X1904217Y2195819D01*
Y2121569D01*
X1905035Y2117458D01*
X1907363Y2113973D01*
X1910848Y2111645D01*
X1914958Y2110827D01*
X1963331D01*
Y2079310D01*
X1963331Y2079308D01*
X1963898Y2074998D01*
X1965562Y2070982D01*
X1968208Y2067533D01*
X1986515Y2049227D01*
X1986516Y2049226D01*
X1989965Y2046579D01*
X1993981Y2044916D01*
X1998291Y2044348D01*
X2046459D01*
Y2033776D01*
X2047269Y2029704D01*
X2049575Y2026253D01*
X2053027Y2023946D01*
X2057099Y2023136D01*
X2136548D01*
X2140620Y2023946D01*
X2144071Y2026253D01*
X2146378Y2029704D01*
X2147188Y2033776D01*
Y2088225D01*
X2146378Y2092297D01*
X2144071Y2095749D01*
X2140620Y2098055D01*
X2136548Y2098865D01*
X2057099D01*
X2053027Y2098055D01*
X2049575Y2095749D01*
X2047269Y2092297D01*
X2046459Y2088225D01*
Y2077653D01*
X2005189D01*
X1996636Y2086206D01*
Y2111310D01*
X1998319Y2111645D01*
X2001804Y2113973D01*
X2004132Y2117458D01*
X2004950Y2121569D01*
Y2195819D01*
X2004132Y2199930D01*
X2001804Y2203414D01*
X1998319Y2205743D01*
X1994208Y2206560D01*
D02*
G37*
G36*
X2376442Y2366561D02*
X2297192D01*
X2293082Y2365743D01*
X2289597Y2363415D01*
X2287268Y2359930D01*
X2286451Y2355819D01*
Y2281569D01*
X2287268Y2277458D01*
X2289597Y2273974D01*
X2293082Y2271645D01*
X2297192Y2270828D01*
X2337912D01*
X2353814Y2265516D01*
X2354382Y2261207D01*
X2356046Y2257190D01*
X2358692Y2253741D01*
X2531239Y2081194D01*
X2531240Y2081193D01*
X2534689Y2078547D01*
X2538705Y2076883D01*
X2540747Y2076615D01*
Y2004160D01*
X2541574Y2000001D01*
X2543930Y1996475D01*
X2547456Y1994119D01*
X2551615Y1993291D01*
X2750616D01*
X2754775Y1994119D01*
X2758301Y1996475D01*
X2760657Y2000001D01*
X2761484Y2004160D01*
Y2103160D01*
X2760657Y2107319D01*
X2758301Y2110845D01*
X2754775Y2113202D01*
X2750616Y2114029D01*
X2551615D01*
X2547456Y2113202D01*
X2546782Y2112751D01*
X2387120Y2272414D01*
Y2281248D01*
X2387183Y2281569D01*
Y2355819D01*
X2386366Y2359930D01*
X2384037Y2363415D01*
X2380553Y2365743D01*
X2376442Y2366561D01*
D02*
G37*
G36*
X2356548Y2003865D02*
X2277099D01*
X2273027Y2003055D01*
X2269575Y2000749D01*
X2267269Y1997297D01*
X2266459Y1993225D01*
Y1958963D01*
X2232689D01*
X2228379Y1958396D01*
X2224363Y1956732D01*
X2220914Y1954086D01*
X2220913Y1954085D01*
X2154558Y1887730D01*
X2151912Y1884281D01*
X2150248Y1880265D01*
X2149680Y1875955D01*
X2149681Y1875953D01*
Y1847786D01*
X2100884D01*
Y1868258D01*
X2100066Y1872369D01*
X2097738Y1875854D01*
X2094253Y1878182D01*
X2090143Y1879000D01*
X2010893D01*
X2006782Y1878182D01*
X2003297Y1875854D01*
X2000969Y1872369D01*
X2000151Y1868258D01*
Y1794008D01*
X2000969Y1789898D01*
X2003297Y1786413D01*
X2006782Y1784084D01*
X2010893Y1783267D01*
X2090143D01*
X2094253Y1784084D01*
X2097738Y1786413D01*
X2100066Y1789898D01*
X2100884Y1794008D01*
Y1814481D01*
X2149681D01*
Y1496715D01*
X2149680Y1496713D01*
X2150248Y1492403D01*
X2151912Y1488386D01*
X2154558Y1484937D01*
X2184279Y1455216D01*
X2184280Y1455215D01*
X2187729Y1452569D01*
X2191745Y1450905D01*
X2196055Y1450338D01*
X2196057Y1450338D01*
X2245985D01*
Y1393715D01*
X2246803Y1389605D01*
X2249131Y1386120D01*
X2252616Y1383791D01*
X2256727Y1382974D01*
X2330977D01*
X2335088Y1383791D01*
X2338572Y1386120D01*
X2340901Y1389605D01*
X2341718Y1393715D01*
Y1472965D01*
X2340901Y1477076D01*
X2338572Y1480561D01*
X2335088Y1482889D01*
X2330977Y1483707D01*
X2256727D01*
X2256406Y1483643D01*
X2202953D01*
X2182986Y1503610D01*
Y1831133D01*
Y1869057D01*
X2239587Y1925658D01*
X2282971D01*
X2282973Y1925658D01*
X2287283Y1926226D01*
X2291300Y1927889D01*
X2291622Y1928136D01*
X2356548D01*
X2360620Y1928946D01*
X2364071Y1931253D01*
X2366378Y1934704D01*
X2367188Y1938776D01*
Y1993225D01*
X2366378Y1997297D01*
X2364071Y2000749D01*
X2360620Y2003055D01*
X2356548Y2003865D01*
D02*
G37*
G36*
X4428238Y1916767D02*
X4348988D01*
X4344877Y1915949D01*
X4341392Y1913621D01*
X4339064Y1910136D01*
X4338246Y1906025D01*
Y1879959D01*
X4281484D01*
Y1903160D01*
X4280657Y1907320D01*
X4278301Y1910846D01*
X4274775Y1913202D01*
X4270616Y1914029D01*
X4071615D01*
X4067456Y1913202D01*
X4063930Y1910846D01*
X4061574Y1907320D01*
X4060747Y1903160D01*
Y1804160D01*
X4061574Y1800001D01*
X4063930Y1796475D01*
X4067456Y1794119D01*
X4071615Y1793292D01*
X4270616D01*
X4274775Y1794119D01*
X4278301Y1796475D01*
X4280657Y1800001D01*
X4281484Y1804160D01*
Y1846654D01*
X4338246D01*
Y1831775D01*
X4339064Y1827665D01*
X4341392Y1824180D01*
X4344877Y1821851D01*
X4348988Y1821034D01*
X4428238D01*
X4432348Y1821851D01*
X4435833Y1824180D01*
X4438162Y1827665D01*
X4438979Y1831775D01*
Y1906025D01*
X4438162Y1910136D01*
X4435833Y1913621D01*
X4432348Y1915949D01*
X4428238Y1916767D01*
D02*
G37*
G36*
X4357950Y1800133D02*
X4349971Y1799347D01*
X4342299Y1797020D01*
X4335229Y1793240D01*
X4329031Y1788154D01*
X4323945Y1781957D01*
X4320166Y1774886D01*
X4317839Y1767214D01*
X4317053Y1759236D01*
X4317839Y1751257D01*
X4318648Y1748589D01*
X4284022Y1713963D01*
X4270948D01*
X4270616Y1714029D01*
X4071615D01*
X4067456Y1713202D01*
X4063930Y1710845D01*
X4061574Y1707319D01*
X4060747Y1703160D01*
Y1604160D01*
X4061574Y1600001D01*
X4063930Y1596475D01*
X4067456Y1594119D01*
X4071615Y1593291D01*
X4270616D01*
X4274775Y1594119D01*
X4278301Y1596475D01*
X4280657Y1600001D01*
X4281484Y1604160D01*
Y1667137D01*
X4290920Y1680658D01*
X4295230Y1681225D01*
X4299246Y1682889D01*
X4302695Y1685535D01*
X4339896Y1722736D01*
X4342299Y1721452D01*
X4349971Y1719125D01*
X4357950Y1718339D01*
X4365929Y1719125D01*
X4373600Y1721452D01*
X4380671Y1725231D01*
X4386868Y1730317D01*
X4391954Y1736515D01*
X4395734Y1743585D01*
X4398061Y1751257D01*
X4398847Y1759236D01*
X4398061Y1767214D01*
X4395734Y1774886D01*
X4391954Y1781957D01*
X4386868Y1788154D01*
X4380671Y1793240D01*
X4373600Y1797020D01*
X4365929Y1799347D01*
X4357950Y1800133D01*
D02*
G37*
G36*
X2090143Y1719000D02*
X2063215D01*
Y1683840D01*
X2100884D01*
Y1708258D01*
X2100066Y1712369D01*
X2097738Y1715854D01*
X2094253Y1718182D01*
X2090143Y1719000D01*
D02*
G37*
G36*
X2037815D02*
X2010893D01*
X2006782Y1718182D01*
X2003297Y1715854D01*
X2000969Y1712369D01*
X2000151Y1708258D01*
Y1683840D01*
X2037815D01*
Y1719000D01*
D02*
G37*
G36*
X2750616Y1714029D02*
X2551615D01*
X2547456Y1713202D01*
X2543930Y1710845D01*
X2541574Y1707319D01*
X2540747Y1703160D01*
Y1647100D01*
X2492571D01*
Y1658761D01*
X2491753Y1662871D01*
X2489425Y1666356D01*
X2485940Y1668684D01*
X2481830Y1669502D01*
X2407579D01*
X2403469Y1668684D01*
X2399984Y1666356D01*
X2397656Y1662871D01*
X2396838Y1658761D01*
Y1579511D01*
X2397656Y1575400D01*
X2399984Y1571915D01*
X2403469Y1569587D01*
X2407579Y1568769D01*
X2481830D01*
X2485940Y1569587D01*
X2489425Y1571915D01*
X2491753Y1575400D01*
X2492571Y1579511D01*
Y1613795D01*
X2540747D01*
Y1604160D01*
X2541574Y1600001D01*
X2543930Y1596475D01*
X2547456Y1594119D01*
X2551615Y1593291D01*
X2750616D01*
X2754775Y1594119D01*
X2758301Y1596475D01*
X2760657Y1600001D01*
X2761484Y1604160D01*
Y1637008D01*
X2791973D01*
X2832271Y1596710D01*
Y1017997D01*
X2753636Y939363D01*
X2543519D01*
X2543517Y939363D01*
X2539208Y938795D01*
X2535191Y937132D01*
X2531742Y934486D01*
X2531741Y934485D01*
X2520290Y923033D01*
X2517644Y919585D01*
X2515980Y915568D01*
X2515413Y911258D01*
X2515413Y911256D01*
Y796064D01*
X2515413Y796062D01*
X2515980Y791752D01*
X2517644Y787736D01*
X2520290Y784287D01*
X2531741Y772836D01*
X2531742Y772835D01*
X2535191Y770189D01*
X2539208Y768525D01*
X2543517Y767957D01*
X2543519Y767958D01*
X3892313D01*
X3945188Y715083D01*
X3948637Y712436D01*
X3952653Y710773D01*
X3956963Y710205D01*
X4472617D01*
X4472619Y710205D01*
X4476929Y710773D01*
X4480945Y712436D01*
X4484394Y715083D01*
X4498699Y729387D01*
X4698943D01*
X4761235Y667095D01*
X4756334Y661358D01*
X4750150Y651266D01*
X4745620Y640330D01*
X4742857Y628820D01*
X4741928Y617020D01*
X4742857Y605220D01*
X4745620Y593710D01*
X4750150Y582775D01*
X4756334Y572682D01*
X4764022Y563681D01*
X4773022Y555994D01*
X4783115Y549809D01*
X4794051Y545280D01*
X4805560Y542516D01*
X4817360Y541588D01*
X4852360D01*
X4864160Y542516D01*
X4875670Y545280D01*
X4886606Y549809D01*
X4896698Y555994D01*
X4905699Y563681D01*
X4913386Y572682D01*
X4919571Y582775D01*
X4924101Y593710D01*
X4926864Y605220D01*
X4927793Y617020D01*
X4926864Y628820D01*
X4924101Y640330D01*
X4919571Y651266D01*
X4913386Y661358D01*
X4905699Y670359D01*
X4896698Y678046D01*
X4886606Y684231D01*
X4875670Y688761D01*
X4864160Y691524D01*
X4852360Y692453D01*
X4817360D01*
X4805560Y691524D01*
X4794051Y688761D01*
X4788832Y686599D01*
X4717616Y757815D01*
X4714167Y760461D01*
X4710150Y762125D01*
X4705840Y762693D01*
X4705838Y762692D01*
X4519314D01*
X4512510Y779119D01*
X4534832Y801441D01*
X4540051Y799280D01*
X4551560Y796516D01*
X4563360Y795588D01*
X4598360D01*
X4610160Y796516D01*
X4621670Y799280D01*
X4632606Y803809D01*
X4642698Y809994D01*
X4651699Y817681D01*
X4659386Y826682D01*
X4665571Y836775D01*
X4670101Y847710D01*
X4672864Y859220D01*
X4673793Y871020D01*
X4672864Y882820D01*
X4670101Y894330D01*
X4665571Y905266D01*
X4659386Y915358D01*
X4651699Y924359D01*
X4642698Y932046D01*
X4632606Y938231D01*
X4621670Y942761D01*
X4610160Y945524D01*
X4598360Y946453D01*
X4563360D01*
X4551560Y945524D01*
X4540051Y942761D01*
X4529115Y938231D01*
X4519022Y932046D01*
X4510022Y924359D01*
X4502334Y915358D01*
X4496150Y905266D01*
X4491620Y894330D01*
X4488857Y882820D01*
X4487928Y871020D01*
X4488857Y859220D01*
X4491620Y847710D01*
X4496150Y836775D01*
X4502334Y826682D01*
X4507235Y820945D01*
X4455200Y768910D01*
X3974390D01*
X3921515Y821785D01*
X3918066Y824431D01*
X3914050Y826095D01*
X3909740Y826663D01*
X3909738Y826663D01*
X2761484D01*
Y903160D01*
X2763876Y906498D01*
X2764844Y906625D01*
X2768860Y908289D01*
X2772309Y910935D01*
X2860697Y999324D01*
X2860698Y999324D01*
X2863345Y1002773D01*
X2865008Y1006790D01*
X2865576Y1011100D01*
X2865576Y1011102D01*
Y1603607D01*
X2865008Y1607917D01*
X2863345Y1611934D01*
X2860698Y1615383D01*
X2810646Y1665435D01*
X2807197Y1668081D01*
X2803180Y1669745D01*
X2798870Y1670313D01*
X2798868Y1670313D01*
X2761484D01*
Y1703160D01*
X2760657Y1707319D01*
X2758301Y1710845D01*
X2754775Y1713202D01*
X2750616Y1714029D01*
D02*
G37*
G36*
X2100884Y1658440D02*
X2063215D01*
Y1623267D01*
X2090143D01*
X2094253Y1624084D01*
X2097738Y1626413D01*
X2100066Y1629897D01*
X2100884Y1634008D01*
Y1658440D01*
D02*
G37*
G36*
X2037815D02*
X2000151D01*
Y1634008D01*
X2000969Y1629897D01*
X2003297Y1626413D01*
X2006782Y1624084D01*
X2010893Y1623267D01*
X2037815D01*
Y1658440D01*
D02*
G37*
G36*
X4413445Y2944401D02*
X4274246D01*
X4270125Y2943581D01*
X4266632Y2941247D01*
X4264298Y2937754D01*
X4263479Y2933634D01*
Y2854434D01*
X4264298Y2850314D01*
X4266632Y2846821D01*
X4270125Y2844487D01*
X4274246Y2843667D01*
X4390843D01*
Y2738226D01*
X4390843Y2738224D01*
X4391411Y2733914D01*
X4393074Y2729897D01*
X4395720Y2726448D01*
X4526925Y2595244D01*
Y2146670D01*
X4466965Y2086711D01*
X4464319Y2083262D01*
X4462655Y2079245D01*
X4462087Y2074935D01*
X4462088Y2074933D01*
Y1821461D01*
X4435075Y1794448D01*
X4432429Y1790999D01*
X4430765Y1786983D01*
X4430197Y1782673D01*
X4430197Y1782671D01*
Y1710880D01*
X4412929Y1693612D01*
X4348988D01*
X4344877Y1692794D01*
X4341392Y1690466D01*
X4339064Y1686981D01*
X4338246Y1682870D01*
Y1608620D01*
X4339064Y1604509D01*
X4341392Y1601024D01*
X4344877Y1598696D01*
X4348988Y1597878D01*
X4428238D01*
X4432348Y1598696D01*
X4435833Y1601024D01*
X4438162Y1604509D01*
X4438979Y1608620D01*
Y1672561D01*
X4458624Y1692206D01*
X4458625Y1692207D01*
X4461271Y1695656D01*
X4462935Y1699672D01*
X4463502Y1703982D01*
Y1775775D01*
X4490514Y1802787D01*
X4490515Y1802788D01*
X4493161Y1806237D01*
X4494825Y1810253D01*
X4495393Y1814563D01*
Y2068038D01*
X4555351Y2127997D01*
X4555352Y2127997D01*
X4557999Y2131446D01*
X4559662Y2135463D01*
X4560230Y2139772D01*
X4560230Y2139774D01*
Y2602140D01*
X4560230Y2602142D01*
X4559662Y2606452D01*
X4557999Y2610468D01*
X4555352Y2613917D01*
X4555351Y2613918D01*
X4424148Y2745122D01*
Y2854111D01*
X4424212Y2854434D01*
Y2933634D01*
X4423393Y2937754D01*
X4421059Y2941247D01*
X4417566Y2943581D01*
X4413445Y2944401D01*
D02*
G37*
G36*
X4428238Y1533611D02*
X4348988D01*
X4344877Y1532794D01*
X4341392Y1530465D01*
X4339064Y1526980D01*
X4338246Y1522870D01*
Y1502397D01*
X4281484D01*
Y1503160D01*
X4280657Y1507320D01*
X4278301Y1510846D01*
X4274775Y1513202D01*
X4270616Y1514029D01*
X4071615D01*
X4067456Y1513202D01*
X4063930Y1510846D01*
X4061574Y1507320D01*
X4060747Y1503160D01*
Y1404160D01*
X4061574Y1400001D01*
X4063930Y1396475D01*
X4067456Y1394119D01*
X4071615Y1393292D01*
X4270616D01*
X4274775Y1394119D01*
X4278301Y1396475D01*
X4280657Y1400001D01*
X4281484Y1404160D01*
Y1469092D01*
X4338246D01*
Y1448620D01*
X4339064Y1444509D01*
X4341392Y1441024D01*
X4344877Y1438696D01*
X4348988Y1437878D01*
X4428238D01*
X4432348Y1438696D01*
X4435833Y1441024D01*
X4438162Y1444509D01*
X4438979Y1448620D01*
Y1522870D01*
X4438162Y1526980D01*
X4435833Y1530465D01*
X4432348Y1532794D01*
X4428238Y1533611D01*
D02*
G37*
G36*
X2750616Y1514029D02*
X2551615D01*
X2547456Y1513202D01*
X2543930Y1510846D01*
X2541574Y1507320D01*
X2540747Y1503160D01*
Y1449993D01*
X2501719D01*
Y1472965D01*
X2500901Y1477076D01*
X2498573Y1480561D01*
X2495088Y1482889D01*
X2490977Y1483707D01*
X2416727D01*
X2412616Y1482889D01*
X2409132Y1480561D01*
X2406803Y1477076D01*
X2405986Y1472965D01*
Y1393715D01*
X2406803Y1389605D01*
X2409132Y1386120D01*
X2412616Y1383791D01*
X2416727Y1382974D01*
X2490977D01*
X2495088Y1383791D01*
X2498573Y1386120D01*
X2500901Y1389605D01*
X2501719Y1393715D01*
Y1416688D01*
X2540747D01*
Y1404160D01*
X2541574Y1400001D01*
X2543930Y1396475D01*
X2547456Y1394119D01*
X2551615Y1393292D01*
X2750616D01*
X2754775Y1394119D01*
X2758301Y1396475D01*
X2760657Y1400001D01*
X2761484Y1404160D01*
Y1503160D01*
X2760657Y1507320D01*
X2758301Y1510846D01*
X2754775Y1513202D01*
X2750616Y1514029D01*
D02*
G37*
G36*
X2097737Y1419228D02*
X2070838D01*
Y1381561D01*
X2108505D01*
Y1408460D01*
X2107685Y1412581D01*
X2105351Y1416074D01*
X2101858Y1418408D01*
X2097737Y1419228D01*
D02*
G37*
G36*
X2045438D02*
X2018538D01*
X2014417Y1418408D01*
X2010924Y1416074D01*
X2008590Y1412581D01*
X2007771Y1408460D01*
Y1381561D01*
X2045438D01*
Y1419228D01*
D02*
G37*
G36*
X2482542Y1361757D02*
X2482540Y1361757D01*
X2428903D01*
X2428901Y1361757D01*
X2424591Y1361190D01*
X2420575Y1359526D01*
X2417126Y1356880D01*
X2374209Y1313963D01*
X2230859D01*
X2230857Y1313963D01*
X2226547Y1313395D01*
X2222531Y1311732D01*
X2219082Y1309086D01*
X2173133Y1263136D01*
X2170486Y1259687D01*
X2168823Y1255671D01*
X2168255Y1251361D01*
X2168255Y1251359D01*
Y938342D01*
X2133480Y903567D01*
X2083203D01*
X2078613Y914148D01*
X2078231Y921347D01*
X2078923Y921879D01*
X2081033Y924628D01*
X2082359Y927829D01*
X2082811Y931265D01*
Y945563D01*
X2020034D01*
X1957264D01*
Y931265D01*
X1957716Y927829D01*
X1959042Y924628D01*
X1961152Y921879D01*
X1963576Y920018D01*
X1964521Y915483D01*
Y906046D01*
X1963576Y901511D01*
X1961152Y899650D01*
X1959042Y896901D01*
X1957716Y893700D01*
X1957264Y890265D01*
Y836265D01*
X1957716Y832829D01*
X1959042Y829628D01*
X1961152Y826879D01*
X1963901Y824769D01*
X1967102Y823444D01*
X1970538Y822991D01*
X2069538D01*
X2072973Y823444D01*
X2076174Y824769D01*
X2078923Y826879D01*
X2081033Y829628D01*
X2082359Y832829D01*
X2082811Y836265D01*
Y870262D01*
X2140376D01*
X2140378Y870262D01*
X2144688Y870830D01*
X2148705Y872493D01*
X2152153Y875139D01*
X2196683Y919669D01*
X2199329Y923118D01*
X2200993Y927134D01*
X2201560Y931444D01*
X2201560Y931446D01*
Y1244463D01*
X2237755Y1280658D01*
X2381105D01*
X2381107Y1280658D01*
X2385417Y1281225D01*
X2389433Y1282889D01*
X2392882Y1285535D01*
X2435799Y1328452D01*
X2475644D01*
X2518561Y1285535D01*
X2522010Y1282889D01*
X2526026Y1281225D01*
X2530336Y1280658D01*
X2540747Y1267700D01*
Y1204160D01*
X2541574Y1200001D01*
X2543930Y1196475D01*
X2547456Y1194119D01*
X2551615Y1193291D01*
X2750616D01*
X2754775Y1194119D01*
X2758301Y1196475D01*
X2760657Y1200001D01*
X2761484Y1204160D01*
Y1303160D01*
X2760657Y1307319D01*
X2758301Y1310845D01*
X2754775Y1313202D01*
X2750616Y1314029D01*
X2551615D01*
X2551283Y1313963D01*
X2537234D01*
X2494317Y1356880D01*
X2490868Y1359526D01*
X2486852Y1361190D01*
X2482542Y1361757D01*
D02*
G37*
G36*
X2108505Y1356161D02*
X2070838D01*
Y1318494D01*
X2097737D01*
X2101858Y1319313D01*
X2105351Y1321647D01*
X2107685Y1325140D01*
X2108505Y1329261D01*
Y1356161D01*
D02*
G37*
G36*
X2045438D02*
X2007771D01*
Y1329261D01*
X2008590Y1325140D01*
X2010924Y1321647D01*
X2014417Y1319313D01*
X2018538Y1318494D01*
X2045438D01*
Y1356161D01*
D02*
G37*
G36*
X2494638Y1250782D02*
X2467743D01*
Y1213112D01*
X2505405D01*
Y1240015D01*
X2504585Y1244136D01*
X2502251Y1247629D01*
X2498758Y1249963D01*
X2494638Y1250782D01*
D02*
G37*
G36*
X2442343D02*
X2415438D01*
X2411318Y1249963D01*
X2407824Y1247629D01*
X2405490Y1244136D01*
X2404671Y1240015D01*
Y1213112D01*
X2442343D01*
Y1250782D01*
D02*
G37*
G36*
X2505405Y1187712D02*
X2467743D01*
Y1150048D01*
X2494638D01*
X2498758Y1150868D01*
X2502251Y1153202D01*
X2504585Y1156695D01*
X2505405Y1160816D01*
Y1187712D01*
D02*
G37*
G36*
X2442343D02*
X2404671D01*
Y1160816D01*
X2405490Y1156695D01*
X2407824Y1153202D01*
X2411318Y1150868D01*
X2415438Y1150048D01*
X2442343D01*
Y1187712D01*
D02*
G37*
G36*
X4270616Y1114029D02*
X4071615D01*
X4067456Y1113201D01*
X4063930Y1110845D01*
X4061574Y1107319D01*
X4060747Y1103160D01*
Y1004160D01*
X4061574Y1000001D01*
X4063930Y996475D01*
X4067456Y994119D01*
X4071615Y993291D01*
X4270616D01*
X4274775Y994119D01*
X4278301Y996475D01*
X4280657Y1000001D01*
X4281484Y1004160D01*
Y1103160D01*
X4280657Y1107319D01*
X4278301Y1110845D01*
X4274775Y1113201D01*
X4270616Y1114029D01*
D02*
G37*
G36*
X2750616D02*
X2551615D01*
X2547456Y1113201D01*
X2543930Y1110845D01*
X2541574Y1107319D01*
X2540747Y1103160D01*
Y1026376D01*
X2538614Y1026095D01*
X2534597Y1024431D01*
X2531149Y1021785D01*
X2454440Y945076D01*
X2451793Y941627D01*
X2450130Y937611D01*
X2449562Y933301D01*
X2449562Y933299D01*
Y738517D01*
X2416240D01*
X2412130Y737699D01*
X2408645Y735371D01*
X2406316Y731886D01*
X2405499Y727776D01*
Y653525D01*
X2406316Y649415D01*
X2408645Y645930D01*
X2412130Y643601D01*
X2416240Y642784D01*
X2495490D01*
X2499601Y643601D01*
X2503086Y645930D01*
X2505414Y649415D01*
X2506232Y653525D01*
Y727776D01*
X2505414Y731886D01*
X2503086Y735371D01*
X2499601Y737699D01*
X2495490Y738517D01*
X2482867D01*
Y926403D01*
X2549822Y993357D01*
X2551283D01*
X2551615Y993291D01*
X2750616D01*
X2754775Y994119D01*
X2758301Y996475D01*
X2760657Y1000001D01*
X2761484Y1004160D01*
Y1103160D01*
X2760657Y1107319D01*
X2758301Y1110845D01*
X2754775Y1113201D01*
X2750616Y1114029D01*
D02*
G37*
G36*
X4861860Y943157D02*
Y898012D01*
X4919827D01*
X4917301Y904109D01*
X4911325Y913861D01*
X4903897Y922557D01*
X4895201Y929985D01*
X4885449Y935961D01*
X4874883Y940338D01*
X4863762Y943008D01*
X4861860Y943157D01*
D02*
G37*
G36*
X4807860D02*
X4805959Y943008D01*
X4794838Y940338D01*
X4784271Y935961D01*
X4774520Y929985D01*
X4765823Y922557D01*
X4758395Y913861D01*
X4752420Y904109D01*
X4749894Y898012D01*
X4807860D01*
Y943157D01*
D02*
G37*
G36*
X2344538Y903538D02*
X2245538D01*
X2242102Y903086D01*
X2238901Y901760D01*
X2236152Y899650D01*
X2234042Y896901D01*
X2232716Y893700D01*
X2232264Y890265D01*
Y836265D01*
X2232716Y832829D01*
X2234042Y829628D01*
X2236152Y826879D01*
X2238901Y824769D01*
X2242102Y823444D01*
X2245538Y822991D01*
X2344538D01*
X2347973Y823444D01*
X2351174Y824769D01*
X2353923Y826879D01*
X2356033Y829628D01*
X2357359Y832829D01*
X2357811Y836265D01*
Y890265D01*
X2357359Y893700D01*
X2356033Y896901D01*
X2353923Y899650D01*
X2351174Y901760D01*
X2347973Y903086D01*
X2344538Y903538D01*
D02*
G37*
G36*
X4919820Y844012D02*
X4861860D01*
Y798883D01*
X4863762Y799033D01*
X4874883Y801702D01*
X4885449Y806079D01*
X4895201Y812055D01*
X4903897Y819483D01*
X4911325Y828179D01*
X4917301Y837931D01*
X4919820Y844012D01*
D02*
G37*
G36*
X4807860D02*
X4749901D01*
X4752420Y837931D01*
X4758395Y828179D01*
X4765823Y819483D01*
X4774520Y812055D01*
X4784271Y806079D01*
X4794838Y801702D01*
X4805959Y799033D01*
X4807860Y798883D01*
Y844012D01*
D02*
G37*
G36*
X4270616Y914029D02*
X4071615D01*
X4067456Y913202D01*
X4063930Y910846D01*
X4061574Y907319D01*
X4060747Y903160D01*
Y804160D01*
X4061574Y800001D01*
X4063930Y796475D01*
X4067456Y794119D01*
X4071615Y793292D01*
X4270616D01*
X4274775Y794119D01*
X4278301Y796475D01*
X4280657Y800001D01*
X4281484Y804160D01*
Y829968D01*
X4338314D01*
Y809495D01*
X4339131Y805384D01*
X4341460Y801900D01*
X4344945Y799571D01*
X4349055Y798754D01*
X4428305D01*
X4432416Y799571D01*
X4435900Y801900D01*
X4438229Y805384D01*
X4439046Y809495D01*
Y883745D01*
X4438229Y887856D01*
X4435900Y891341D01*
X4432416Y893669D01*
X4428305Y894487D01*
X4349055D01*
X4344945Y893669D01*
X4341460Y891341D01*
X4339131Y887856D01*
X4338314Y883745D01*
Y863273D01*
X4281484D01*
Y903160D01*
X4280657Y907319D01*
X4278301Y910846D01*
X4274775Y913202D01*
X4270616Y914029D01*
D02*
G37*
G36*
X372509Y732541D02*
X345603D01*
Y694872D01*
X383276D01*
Y721774D01*
X382456Y725894D01*
X380122Y729387D01*
X376629Y731721D01*
X372509Y732541D01*
D02*
G37*
G36*
X320203D02*
X293309D01*
X289189Y731721D01*
X285696Y729387D01*
X283362Y725894D01*
X282542Y721774D01*
Y694872D01*
X320203D01*
Y732541D01*
D02*
G37*
G36*
X2069538Y688794D02*
X2032736D01*
Y661221D01*
X2082811D01*
Y675520D01*
X2082359Y678955D01*
X2081033Y682157D01*
X2078923Y684906D01*
X2076174Y687015D01*
X2072973Y688341D01*
X2069538Y688794D01*
D02*
G37*
G36*
X2007336D02*
X1970538D01*
X1967102Y688341D01*
X1963901Y687015D01*
X1961152Y684906D01*
X1959042Y682157D01*
X1957716Y678955D01*
X1957264Y675520D01*
Y661221D01*
X2007336D01*
Y688794D01*
D02*
G37*
G36*
X4598360Y692453D02*
X4563360D01*
X4551560Y691524D01*
X4540051Y688761D01*
X4529115Y684231D01*
X4519022Y678046D01*
X4510022Y670359D01*
X4502334Y661358D01*
X4496150Y651266D01*
X4491620Y640330D01*
X4490021Y633673D01*
X4464353D01*
X4463845Y635347D01*
X4459419Y643627D01*
X4453464Y650884D01*
X4446206Y656840D01*
X4437927Y661265D01*
X4428943Y663991D01*
X4419600Y664911D01*
X4410257Y663991D01*
X4401273Y661265D01*
X4392993Y656840D01*
X4385736Y650884D01*
X4379780Y643627D01*
X4375354Y635347D01*
X4374846Y633673D01*
X4305135D01*
X4257963Y680845D01*
X4254514Y683492D01*
X4250497Y685155D01*
X4246187Y685723D01*
X4246185Y685723D01*
X2599985D01*
X2599983Y685723D01*
X2595673Y685155D01*
X2591657Y683492D01*
X2588208Y680845D01*
X2588207Y680844D01*
X2550278Y642916D01*
X2547632Y639467D01*
X2545968Y635450D01*
X2545401Y631140D01*
X2545401Y631138D01*
Y601539D01*
X2522315Y578453D01*
X2495812D01*
X2495490Y578517D01*
X2416240D01*
X2412130Y577699D01*
X2408645Y575371D01*
X2406316Y571886D01*
X2405976Y570173D01*
X2082811D01*
Y580520D01*
X2082359Y583955D01*
X2081033Y587157D01*
X2078923Y589906D01*
X2076499Y591766D01*
X2075554Y596304D01*
Y605736D01*
X2076499Y610274D01*
X2078923Y612134D01*
X2081033Y614883D01*
X2082359Y618085D01*
X2082811Y621520D01*
Y635821D01*
X2020036D01*
X1957264D01*
Y621520D01*
X1957716Y618085D01*
X1959042Y614883D01*
X1961152Y612134D01*
X1963576Y610274D01*
X1964521Y605736D01*
Y596304D01*
X1963576Y591766D01*
X1961152Y589906D01*
X1959042Y587157D01*
X1957716Y583955D01*
X1957264Y580520D01*
Y526520D01*
X1957716Y523085D01*
X1959042Y519883D01*
X1961152Y517134D01*
X1963576Y515274D01*
X1964521Y510739D01*
Y501302D01*
X1963576Y496767D01*
X1961152Y494906D01*
X1959042Y492157D01*
X1957716Y488956D01*
X1957264Y485520D01*
Y471221D01*
X2020036D01*
X2082811D01*
Y485520D01*
X2082359Y488956D01*
X2081033Y492157D01*
X2078923Y494906D01*
X2076499Y496767D01*
X2075555Y501302D01*
Y510739D01*
X2076499Y515274D01*
X2078923Y517134D01*
X2081033Y519883D01*
X2082359Y523085D01*
X2082811Y526520D01*
Y536868D01*
X2405499D01*
Y493525D01*
X2406316Y489415D01*
X2408645Y485930D01*
X2412130Y483601D01*
X2416240Y482784D01*
X2495490D01*
X2499601Y483601D01*
X2503086Y485930D01*
X2505414Y489415D01*
X2506232Y493525D01*
Y545148D01*
X2529211D01*
X2529213Y545148D01*
X2533522Y545715D01*
X2537539Y547379D01*
X2540988Y550025D01*
X2573828Y582865D01*
X2573829Y582866D01*
X2576475Y586315D01*
X2578139Y590331D01*
X2578706Y594641D01*
X2578706Y594643D01*
Y624243D01*
X2606881Y652418D01*
X4239289D01*
X4286462Y605246D01*
X4286462Y605245D01*
X4289911Y602599D01*
X4293928Y600935D01*
X4298238Y600368D01*
X4374846D01*
X4375354Y598693D01*
X4379780Y590413D01*
X4385736Y583156D01*
X4392993Y577201D01*
X4401273Y572775D01*
X4410257Y570050D01*
X4419600Y569129D01*
X4428943Y570050D01*
X4437927Y572775D01*
X4446206Y577201D01*
X4453464Y583156D01*
X4459419Y590413D01*
X4463845Y598693D01*
X4464353Y600368D01*
X4490021D01*
X4491620Y593710D01*
X4496150Y582775D01*
X4502334Y572682D01*
X4510022Y563681D01*
X4519022Y555994D01*
X4529115Y549809D01*
X4540051Y545280D01*
X4551560Y542516D01*
X4563360Y541588D01*
X4598360D01*
X4610160Y542516D01*
X4621670Y545280D01*
X4632606Y549809D01*
X4642698Y555994D01*
X4651699Y563681D01*
X4659386Y572682D01*
X4665571Y582775D01*
X4670101Y593710D01*
X4672864Y605220D01*
X4673793Y617020D01*
X4672864Y628820D01*
X4670101Y640330D01*
X4665571Y651266D01*
X4659386Y661358D01*
X4651699Y670359D01*
X4642698Y678046D01*
X4632606Y684231D01*
X4621670Y688761D01*
X4610160Y691524D01*
X4598360Y692453D01*
D02*
G37*
G36*
X383276Y669472D02*
X345603D01*
Y631807D01*
X372509D01*
X376629Y632627D01*
X380122Y634961D01*
X382456Y638454D01*
X383276Y642574D01*
Y669472D01*
D02*
G37*
G36*
X320203D02*
X282542D01*
Y642574D01*
X283362Y638454D01*
X285696Y634961D01*
X289189Y632627D01*
X293309Y631807D01*
X320203D01*
Y669472D01*
D02*
G37*
G36*
X2334637Y1250782D02*
X2255438D01*
X2251317Y1249963D01*
X2247824Y1247629D01*
X2245490Y1244136D01*
X2244671Y1240015D01*
Y1160816D01*
X2245490Y1156695D01*
X2247824Y1153202D01*
X2251317Y1150868D01*
X2255438Y1150048D01*
X2278385D01*
Y1093538D01*
X2245538D01*
X2242102Y1093086D01*
X2238901Y1091760D01*
X2236152Y1089650D01*
X2234042Y1086901D01*
X2232716Y1083700D01*
X2232264Y1080265D01*
Y1026265D01*
X2232716Y1022829D01*
X2234042Y1019628D01*
X2236152Y1016879D01*
X2238901Y1014769D01*
X2242102Y1013443D01*
X2245538Y1012991D01*
X2344538D01*
X2347973Y1013443D01*
X2351174Y1014769D01*
X2353923Y1016879D01*
X2356033Y1019628D01*
X2357359Y1022829D01*
X2357811Y1026265D01*
Y1037448D01*
X2391107D01*
X2391615Y1035773D01*
X2396040Y1027493D01*
X2401996Y1020236D01*
X2409253Y1014280D01*
X2414279Y1011594D01*
Y980067D01*
X2393293Y959081D01*
X2390646Y955632D01*
X2388983Y951615D01*
X2388415Y947305D01*
X2388415Y947303D01*
Y812345D01*
X2329172Y753102D01*
X2326526Y749653D01*
X2324862Y745637D01*
X2324294Y741327D01*
X2324295Y741325D01*
Y688794D01*
X2245538D01*
X2242102Y688341D01*
X2238901Y687015D01*
X2236152Y684906D01*
X2234042Y682157D01*
X2232716Y678955D01*
X2232264Y675520D01*
Y621520D01*
X2232716Y618085D01*
X2234042Y614883D01*
X2236152Y612134D01*
X2238901Y610025D01*
X2242102Y608699D01*
X2245538Y608247D01*
X2344538D01*
X2347973Y608699D01*
X2351174Y610025D01*
X2353923Y612134D01*
X2356033Y614883D01*
X2357359Y618085D01*
X2357811Y621520D01*
Y675520D01*
X2357600Y677127D01*
Y734429D01*
X2416842Y793672D01*
X2416843Y793672D01*
X2419489Y797121D01*
X2421153Y801138D01*
X2421721Y805447D01*
X2421720Y805449D01*
Y940408D01*
X2442706Y961394D01*
X2445352Y964842D01*
X2447016Y968859D01*
X2447584Y973169D01*
X2447584Y973171D01*
Y1007852D01*
X2454187Y1009855D01*
X2462467Y1014280D01*
X2469724Y1020236D01*
X2475680Y1027493D01*
X2480105Y1035773D01*
X2482830Y1044757D01*
X2483751Y1054100D01*
X2482830Y1063443D01*
X2480105Y1072427D01*
X2475680Y1080707D01*
X2469724Y1087964D01*
X2462467Y1093920D01*
X2454187Y1098345D01*
X2445203Y1101070D01*
X2435860Y1101991D01*
X2426517Y1101070D01*
X2417533Y1098345D01*
X2409253Y1093920D01*
X2401996Y1087964D01*
X2396040Y1080707D01*
X2391615Y1072427D01*
X2391107Y1070752D01*
X2357811D01*
Y1080265D01*
X2357359Y1083700D01*
X2356033Y1086901D01*
X2353923Y1089650D01*
X2351174Y1091760D01*
X2347973Y1093086D01*
X2344538Y1093538D01*
X2311690D01*
Y1150048D01*
X2334637D01*
X2338758Y1150868D01*
X2342251Y1153202D01*
X2344585Y1156695D01*
X2345405Y1160816D01*
Y1240015D01*
X2344585Y1244136D01*
X2342251Y1247629D01*
X2338758Y1249963D01*
X2334637Y1250782D01*
D02*
G37*
G36*
X2082811Y445821D02*
X2032736D01*
Y418247D01*
X2069538D01*
X2072973Y418699D01*
X2076174Y420025D01*
X2078923Y422135D01*
X2081033Y424884D01*
X2082359Y428085D01*
X2082811Y431520D01*
Y445821D01*
D02*
G37*
G36*
X2007336D02*
X1957264D01*
Y431520D01*
X1957716Y428085D01*
X1959042Y424884D01*
X1961152Y422135D01*
X1963901Y420025D01*
X1967102Y418699D01*
X1970538Y418247D01*
X2007336D01*
Y445821D01*
D02*
G37*
G36*
X1371834Y341625D02*
X1341634D01*
Y292100D01*
X1391159D01*
Y322300D01*
X1390501Y327302D01*
X1388570Y331963D01*
X1385499Y335965D01*
X1381497Y339036D01*
X1376836Y340967D01*
X1371834Y341625D01*
D02*
G37*
G36*
X1240034D02*
X1209834D01*
X1204832Y340967D01*
X1200172Y339036D01*
X1196169Y335965D01*
X1193098Y331963D01*
X1191167Y327302D01*
X1190509Y322300D01*
Y292100D01*
X1240034D01*
Y341625D01*
D02*
G37*
G36*
X1062880Y341703D02*
X1041674D01*
Y292098D01*
X1091283D01*
Y313300D01*
X1090315Y320651D01*
X1087478Y327501D01*
X1082964Y333384D01*
X1077081Y337898D01*
X1070231Y340735D01*
X1062880Y341703D01*
D02*
G37*
G36*
X940074D02*
X918880D01*
X911529Y340735D01*
X904679Y337898D01*
X898796Y333384D01*
X894282Y327501D01*
X891445Y320651D01*
X890477Y313300D01*
Y292098D01*
X940074D01*
Y341703D01*
D02*
G37*
G36*
X2344538Y498794D02*
X2245538D01*
X2242102Y498341D01*
X2238901Y497016D01*
X2236152Y494906D01*
X2234042Y492157D01*
X2232716Y488956D01*
X2232264Y485520D01*
Y431520D01*
X2232716Y428085D01*
X2234042Y424884D01*
X2236152Y422135D01*
X2238901Y420025D01*
X2242102Y418699D01*
X2244590Y418372D01*
Y344187D01*
X2109834D01*
X2104170Y343441D01*
X2098891Y341255D01*
X2094358Y337776D01*
X2090879Y333243D01*
X2088693Y327965D01*
X2087947Y322300D01*
Y160300D01*
X2088693Y154635D01*
X2090879Y149357D01*
X2094358Y144824D01*
X2098891Y141345D01*
X2104170Y139159D01*
X2109834Y138413D01*
X2271834D01*
X2277499Y139159D01*
X2282778Y141345D01*
X2287310Y144824D01*
X2290789Y149357D01*
X2292975Y154635D01*
X2293721Y160300D01*
Y224448D01*
X2340307D01*
X2340815Y222773D01*
X2345240Y214493D01*
X2351196Y207236D01*
X2358453Y201281D01*
X2366733Y196855D01*
X2375717Y194130D01*
X2385060Y193209D01*
X2394403Y194130D01*
X2403387Y196855D01*
X2411667Y201281D01*
X2418924Y207236D01*
X2424880Y214493D01*
X2429305Y222773D01*
X2432030Y231757D01*
X2432951Y241100D01*
X2432030Y250443D01*
X2429305Y259427D01*
X2424880Y267707D01*
X2418924Y274964D01*
X2411667Y280920D01*
X2403387Y285345D01*
X2394403Y288071D01*
X2385060Y288991D01*
X2375717Y288071D01*
X2366733Y285345D01*
X2358453Y280920D01*
X2351196Y274964D01*
X2345240Y267707D01*
X2340815Y259427D01*
X2340307Y257753D01*
X2293721D01*
Y322300D01*
X2292975Y327965D01*
X2290789Y333243D01*
X2287310Y337776D01*
X2282778Y341255D01*
X2277895Y343277D01*
Y418247D01*
X2344538D01*
X2347973Y418699D01*
X2351174Y420025D01*
X2353923Y422135D01*
X2356033Y424884D01*
X2357359Y428085D01*
X2357811Y431520D01*
Y485520D01*
X2357359Y488956D01*
X2356033Y492157D01*
X2353923Y494906D01*
X2351174Y497016D01*
X2347973Y498341D01*
X2344538Y498794D01*
D02*
G37*
G36*
X1391159Y190500D02*
X1341634D01*
Y140975D01*
X1371834D01*
X1376836Y141633D01*
X1381497Y143564D01*
X1385499Y146635D01*
X1388570Y150637D01*
X1390501Y155298D01*
X1391159Y160300D01*
Y190500D01*
D02*
G37*
G36*
X1240034D02*
X1190509D01*
Y160300D01*
X1191167Y155298D01*
X1193098Y150637D01*
X1196169Y146635D01*
X1200172Y143564D01*
X1204832Y141633D01*
X1209834Y140975D01*
X1240034D01*
Y190500D01*
D02*
G37*
G36*
X1091283Y190498D02*
X1041674D01*
Y140897D01*
X1062880D01*
X1070231Y141865D01*
X1077081Y144702D01*
X1082964Y149216D01*
X1087478Y155099D01*
X1090315Y161949D01*
X1091283Y169300D01*
Y190498D01*
D02*
G37*
G36*
X940074D02*
X890477D01*
Y169300D01*
X891445Y161949D01*
X894282Y155099D01*
X898796Y149216D01*
X904679Y144702D01*
X911529Y141865D01*
X918880Y140897D01*
X940074D01*
Y190498D01*
D02*
G37*
G36*
X1971834Y344187D02*
X1809834D01*
X1804170Y343441D01*
X1798891Y341255D01*
X1794358Y337776D01*
X1790880Y333243D01*
X1788693Y327965D01*
X1787947Y322300D01*
Y160300D01*
X1788693Y154635D01*
X1790880Y149357D01*
X1794358Y144824D01*
X1798891Y141345D01*
X1804170Y139159D01*
X1809834Y138413D01*
X1971834D01*
X1977499Y139159D01*
X1982778Y141345D01*
X1987310Y144824D01*
X1990789Y149357D01*
X1992975Y154635D01*
X1993721Y160300D01*
Y322300D01*
X1992975Y327965D01*
X1990789Y333243D01*
X1987310Y337776D01*
X1982778Y341255D01*
X1977499Y343441D01*
X1971834Y344187D01*
D02*
G37*
%LPD*%
G36*
X3439962Y2977094D02*
X3888350D01*
Y2882179D01*
X3454413D01*
X3348861Y2721520D01*
X3238861D01*
X3238858Y3018947D01*
X3251430Y3031520D01*
X3348861D01*
X3439962Y2977094D01*
D02*
G37*
G36*
X2899753Y3013740D02*
X2899752Y2721520D01*
X2779346D01*
X2646379Y2748559D01*
X2541379D01*
X2432171Y2684378D01*
Y2594423D01*
X2378171D01*
Y2684429D01*
X2541379Y2873559D01*
X2646379D01*
X2779346Y3031520D01*
X2881973D01*
X2899753Y3013740D01*
D02*
G37*
G36*
X1064600Y1004573D02*
X1053845Y993818D01*
X1026843D01*
Y1024190D01*
X1026018Y1028340D01*
X1023667Y1031857D01*
X1020150Y1034208D01*
X1016000Y1035033D01*
X947508D01*
X944918Y1036517D01*
X933261Y1047606D01*
X933261Y1047607D01*
X933260Y1156369D01*
X945832Y1168942D01*
X1016000D01*
X1020150Y1169767D01*
X1023667Y1172118D01*
X1026018Y1175635D01*
X1026843Y1179785D01*
Y1273835D01*
X1026018Y1277985D01*
X1023667Y1281502D01*
X1020150Y1283853D01*
X1016000Y1284678D01*
X933259D01*
X933256Y1614369D01*
X945829Y1626942D01*
X1016000D01*
X1020150Y1627767D01*
X1023667Y1630118D01*
X1026018Y1633636D01*
X1026843Y1637785D01*
Y1668158D01*
X1064600D01*
Y1004573D01*
D02*
G37*
G36*
X922896Y1755251D02*
X910324Y1742679D01*
X776950D01*
X772800Y1741853D01*
X769283Y1739502D01*
X766932Y1735985D01*
X766107Y1731835D01*
Y1637785D01*
X766932Y1633636D01*
X769283Y1630118D01*
X772800Y1627767D01*
X776950Y1626942D01*
X922897D01*
X922902Y1047606D01*
X910329Y1035033D01*
X776950D01*
X772800Y1034208D01*
X769283Y1031857D01*
X766932Y1028340D01*
X766107Y1024190D01*
Y930140D01*
X766932Y925991D01*
X769283Y922473D01*
X772800Y920122D01*
X776950Y919297D01*
X922903D01*
X922907Y436908D01*
X889405Y403406D01*
X780201Y318005D01*
Y151000D01*
X600200Y151000D01*
X600199Y329131D01*
X483765Y859398D01*
X483771Y2081665D01*
X922893D01*
X922896Y1755251D01*
D02*
G37*
G36*
X1846475Y1923757D02*
X1846379Y1922780D01*
X1846475Y1921803D01*
Y471332D01*
X1680832Y330998D01*
X1680831Y151000D01*
X1513407Y151000D01*
X1500834Y163572D01*
X1500836Y330998D01*
X1419115Y430003D01*
X1166480Y471332D01*
X1166478Y2446030D01*
X1846475D01*
Y1923757D01*
D02*
G37*
D10*
X2070398Y2939380D02*
D03*
Y3099380D02*
D03*
X2058138Y1368861D02*
D03*
Y1208860D02*
D03*
D11*
X233680Y990600D02*
D03*
X452120Y2288540D02*
D03*
X2781300Y2532380D02*
D03*
X2713920Y2887362D02*
D03*
X629920Y990600D02*
D03*
X3413760Y2819400D02*
D03*
X1846617Y1101408D02*
D03*
X2385060Y241100D02*
D03*
X4419600Y617020D02*
D03*
X3362960Y2583180D02*
D03*
X2435860Y1054100D02*
D03*
D12*
X1920328Y2761849D02*
D03*
X2080328D02*
D03*
X2442900Y1810011D02*
D03*
X2282900D02*
D03*
X2444705Y1619136D02*
D03*
X2284704D02*
D03*
X1957123Y2484542D02*
D03*
X2117124D02*
D03*
X2453852Y1433340D02*
D03*
X2293852D02*
D03*
D13*
X1920322Y3100384D02*
D03*
Y2940384D02*
D03*
D14*
X4388613Y2028900D02*
D03*
Y1868900D02*
D03*
Y1645745D02*
D03*
Y1485745D02*
D03*
Y2379579D02*
D03*
Y2219578D02*
D03*
X4388680Y846620D02*
D03*
Y1006620D02*
D03*
X4388613Y1176600D02*
D03*
Y1336600D02*
D03*
X2336817Y2318694D02*
D03*
Y2478694D02*
D03*
X1954583Y2158694D02*
D03*
Y2318694D02*
D03*
X2050518Y1671133D02*
D03*
Y1831133D02*
D03*
X2455865Y530650D02*
D03*
Y690650D02*
D03*
D15*
X896475Y977165D02*
D03*
Y519165D02*
D03*
Y1684810D02*
D03*
Y1226810D02*
D03*
Y2397535D02*
D03*
Y1939535D02*
D03*
D16*
X1506475Y748165D02*
D03*
Y1455810D02*
D03*
Y2168535D02*
D03*
D17*
X1704360Y2620438D02*
D03*
Y2900438D02*
D03*
X3806335Y2929594D02*
D03*
Y2649594D02*
D03*
X3536710Y2929594D02*
D03*
Y2649594D02*
D03*
X1447828Y2620438D02*
D03*
Y2900438D02*
D03*
D18*
X2433879Y3058550D02*
D03*
X2593879D02*
D03*
X2455038Y1200415D02*
D03*
X2295038D02*
D03*
X4084480Y2512284D02*
D03*
X4244480D02*
D03*
X332909Y682174D02*
D03*
X637909D02*
D03*
D19*
X2215171Y2639429D02*
D03*
X2310171D02*
D03*
X2405171D02*
D03*
X2215171Y2894429D02*
D03*
X2310171D02*
D03*
X2405171D02*
D03*
D20*
X2020038Y1053265D02*
D03*
Y958265D02*
D03*
Y863265D02*
D03*
X2295038D02*
D03*
Y1053265D02*
D03*
X2020038Y648520D02*
D03*
Y553520D02*
D03*
Y458520D02*
D03*
X2295038D02*
D03*
Y648520D02*
D03*
D21*
X4171115Y853660D02*
D03*
Y2053660D02*
D03*
X2651115Y2253660D02*
D03*
X4171115Y1053660D02*
D03*
Y1253660D02*
D03*
Y1453660D02*
D03*
Y1653660D02*
D03*
Y1853660D02*
D03*
Y2253660D02*
D03*
X2651115Y2053660D02*
D03*
Y1853660D02*
D03*
Y1653660D02*
D03*
Y1453660D02*
D03*
Y1253660D02*
D03*
Y1053660D02*
D03*
Y853660D02*
D03*
D22*
X3911115Y2403660D02*
D03*
X3711115D02*
D03*
X3511115D02*
D03*
X3311115D02*
D03*
X3111115D02*
D03*
X2911115D02*
D03*
D23*
X3249345Y2876520D02*
D03*
X2879345D02*
D03*
D24*
X4717516Y2560000D02*
D03*
X4862516D02*
D03*
Y2200000D02*
D03*
X4717516D02*
D03*
D25*
X2593879Y2526059D02*
D03*
Y2811059D02*
D03*
D26*
X4343846Y3044034D02*
D03*
Y2894034D02*
D03*
X4043846D02*
D03*
Y3044034D02*
D03*
D27*
X2316823Y1966001D02*
D03*
Y2156001D02*
D03*
X2096823Y2061001D02*
D03*
D28*
X2347830Y3143426D02*
X3189840D01*
X3249345Y2876520D02*
Y3083921D01*
X3189840Y3143426D02*
X3249345Y3083921D01*
X2078402Y3091376D02*
X2295780D01*
X2347830Y3143426D01*
X2070398Y3099380D02*
X2078402Y3091376D01*
X1920328Y3099380D02*
X2070398D01*
Y2939380D02*
X2083028Y2926750D01*
X2216888Y2896146D02*
Y2904383D01*
X2194521Y2926750D02*
X2216888Y2904383D01*
X2083028Y2926750D02*
X2194521D01*
X1920328Y2939380D02*
X2070398D01*
X1920328Y2761849D02*
Y2939380D01*
X2166333Y1496713D02*
Y1831133D01*
Y1875955D01*
X2050518Y1831133D02*
X2166333D01*
X2543517Y922710D02*
X2760534D01*
X2532065Y796062D02*
Y911258D01*
X2543517Y922710D01*
X2192480Y241100D02*
X2385060D01*
X4419600Y617020D02*
X4419600Y617020D01*
Y617020D02*
X4580860D01*
X4298238D02*
X4419600D01*
X2466215Y933301D02*
X2542924Y1010010D01*
X2466215Y701000D02*
Y933301D01*
X2542924Y1010010D02*
X2607465D01*
X2405068Y947305D02*
X2430931Y973169D01*
X2405068Y805447D02*
Y947305D01*
X2430931Y973169D02*
Y1049171D01*
X2435860Y1054100D01*
X2430931D02*
X2435860D01*
X2295873D02*
X2430931D01*
X2166333Y1496713D02*
X2196055Y1466990D01*
X2262702D01*
X2293852Y1433340D02*
Y1435840D01*
X2262702Y1466990D02*
X2293852Y1435840D01*
X2630795Y1433340D02*
X2651115Y1453660D01*
X2453852Y1433340D02*
X2630795D01*
X2230857Y1297310D02*
X2381107D01*
X2428901Y1345104D01*
X2482542D02*
X2530336Y1297310D01*
X2607465D01*
X2428901Y1345104D02*
X2482542D01*
X2295038Y1053265D02*
X2295873Y1054100D01*
X2295038Y648520D02*
X2317297D01*
X2490331Y1715117D02*
X2559824Y1784610D01*
X2282900Y1715117D02*
X2490331D01*
X2559824Y1784610D02*
X3960710D01*
X2282900Y1620940D02*
Y1715117D01*
Y1810011D01*
X2192480Y241100D02*
X2261243Y309863D01*
Y434870D01*
X2284893Y458520D02*
X2295038D01*
X2261243Y434870D02*
X2284893Y458520D01*
X4386113Y2219578D02*
X4388613D01*
X4354963Y2188428D02*
X4386113Y2219578D01*
X4354963Y2154334D02*
Y2188428D01*
X4388613Y2379579D02*
Y2559840D01*
X4422263Y2060050D02*
Y2105704D01*
X4483999Y2167440D01*
Y2556853D01*
X2282900Y1620940D02*
X2284704Y1619136D01*
X2444705D02*
X2456016Y1630448D01*
X2627903D02*
X2651115Y1653660D01*
X2456016Y1630448D02*
X2627903D01*
X2370467Y2265516D02*
X2543015Y2092968D01*
X2611807D02*
X2651115Y2053660D01*
X2370467Y2265516D02*
Y2312944D01*
X2543015Y2092968D02*
X2611807D01*
X1979983Y2079308D02*
Y2184094D01*
X1998291Y2061001D02*
X2096823D01*
X1979983Y2079308D02*
X1998291Y2061001D01*
X2232689Y1942311D02*
X2282973D01*
X2166333Y1875955D02*
X2232689Y1942311D01*
X2282973D02*
X2304123Y1963461D01*
X2442900Y1810011D02*
X2469527Y1836639D01*
X2634094D01*
X2336817Y2344094D02*
X2339317D01*
X2370467Y2312944D01*
X4605764Y2200000D02*
Y2476499D01*
X4625615Y2496350D02*
X4670350D01*
X4605764Y2476499D02*
X4625615Y2496350D01*
X4716500Y2542500D02*
Y2560000D01*
X4670350Y2496350D02*
X4716500Y2542500D01*
X4223773Y2817079D02*
Y2991506D01*
X4242651Y3010384D02*
X4310195D01*
X4223773Y2991506D02*
X4242651Y3010384D01*
X1081253Y2464852D02*
X1131422Y2515022D01*
X1081253Y1684810D02*
Y2397535D01*
Y2464852D01*
X1131422Y2515022D02*
X1979983D01*
X4077496Y3010384D02*
X4143902D01*
X4164861Y2783591D02*
Y2989425D01*
X4143902Y3010384D02*
X4164861Y2989425D01*
X4407496Y2738224D02*
Y2860384D01*
X4543577Y2139772D02*
Y2602142D01*
X4407496Y2738224D02*
X4543577Y2602142D01*
X4343846Y2894034D02*
X4373845D01*
X4407496Y2860384D01*
X4223773Y2817079D02*
X4483999Y2556853D01*
X4164861Y2783591D02*
X4388613Y2559840D01*
X4478740Y2074935D02*
X4543577Y2139772D01*
X4535750Y2048077D02*
X4605764Y2118092D01*
Y2200000D02*
X4717516D01*
X4605764Y2118092D02*
Y2200000D01*
X4446850Y1782673D02*
X4478740Y1814563D01*
Y2074935D01*
X4535750Y1761776D02*
Y2048077D01*
X4446850Y1703982D02*
Y1782673D01*
X4214766Y1697310D02*
X4290920D01*
X4352845Y1759236D02*
X4357950D01*
X4290920Y1697310D02*
X4352845Y1759236D01*
X3909740Y810010D02*
X3967492Y752258D01*
X4462098D01*
X2694766Y810010D02*
X3909740D01*
X4705840Y746040D02*
X4834860Y617020D01*
X4472619Y726858D02*
X4491801Y746040D01*
X4705840D01*
X2651115Y853660D02*
X2651116D01*
X2694766Y810010D01*
X3899211Y784610D02*
X3956963Y726858D01*
X4472619D01*
X2340947Y741327D02*
X2405068Y805447D01*
X2340947Y672170D02*
Y741327D01*
X2455865Y690650D02*
X2466215Y701000D01*
X4310195Y3010384D02*
X4343846Y3044034D01*
X4043846D02*
X4077496Y3010384D01*
X4388613Y1645745D02*
X4391113D01*
X4422263Y1676895D01*
Y1679395D01*
X4446850Y1703982D01*
X4388613Y2028900D02*
X4391113D01*
X4422263Y2060050D01*
X4203200Y1485745D02*
X4388613D01*
X4171115Y1453660D02*
X4203200Y1485745D01*
X4171115Y1653660D02*
X4214766Y1697310D01*
X4171115Y1853660D02*
X4180762Y1863307D01*
X4383019D02*
X4388613Y1868900D01*
X4180762Y1863307D02*
X4383019D01*
X4297939Y2097310D02*
X4354963Y2154334D01*
X4214766Y2097310D02*
X4297939D01*
X4485755Y1220126D02*
Y1277107D01*
X4419763Y1305450D02*
X4457411D01*
X4485755Y1277107D01*
X4388613Y1336600D02*
X4419763Y1305450D01*
X4309450Y1297310D02*
X4317590Y1305450D01*
X4214766Y1297310D02*
X4309450D01*
X4317590Y1305450D02*
X4357463D01*
X4388613Y1336600D01*
X2634094Y1836639D02*
X2651115Y1853660D01*
Y1653660D02*
X2798870D01*
X1979983Y2344094D02*
Y2515022D01*
X2599983Y669070D02*
X4246187D01*
X4298238Y617020D01*
X2562054Y631140D02*
X2599983Y669070D01*
X2562054Y594641D02*
Y631140D01*
X2529213Y561800D02*
X2562054Y594641D01*
X2140378Y886915D02*
X2184908Y931444D01*
X2043688Y886915D02*
X2140378D01*
X2020038Y863265D02*
X2043688Y886915D01*
X2184908Y1251361D02*
X2230857Y1297310D01*
X2607465D02*
X2651115Y1253660D01*
X2848923Y1011100D02*
Y1603607D01*
X2798870Y1653660D02*
X2848923Y1603607D01*
X4171115Y853660D02*
X4178155Y846620D01*
X4388680D01*
X4171115Y1253660D02*
X4214766Y1297310D01*
X4485755Y1220126D02*
X4580860Y1125020D01*
X2543517Y784610D02*
X3899211D01*
X4462098Y752258D02*
X4580860Y871020D01*
X2532065Y796062D02*
X2543517Y784610D01*
X2487015Y561800D02*
X2529213D01*
X2462700Y537485D02*
X2487015Y561800D01*
X2462700Y522370D02*
Y537485D01*
X2455866Y522370D02*
X2462700D01*
X2424715Y553520D02*
X2455866Y522370D01*
X2020038Y553520D02*
X2424715D01*
X4171115Y2053660D02*
X4214766Y2097310D01*
X2317297Y648520D02*
X2340947Y672170D01*
X2295038Y1053265D02*
Y1200415D01*
X2184908Y931444D02*
Y1251361D01*
X2760534Y922710D02*
X2848923Y1011100D01*
X2607465Y1010010D02*
X2651115Y1053660D01*
X896475Y1684810D02*
X1081253D01*
Y997675D02*
Y1684810D01*
X1060743Y977165D02*
X1081253Y997675D01*
X896475Y2397535D02*
X1081252D01*
X896475Y977165D02*
X1060743D01*
D29*
X2117124Y2217080D02*
Y2484542D01*
Y2620438D01*
X2405171Y2894429D02*
X2413090Y2902348D01*
Y3037761D01*
X2433879Y3058550D01*
X2117124Y2217080D02*
X2193081Y2141122D01*
X2593879Y2811059D02*
Y3058550D01*
X1984850Y1241241D02*
X2025757D01*
X2058138Y1208860D01*
Y1075645D02*
Y1208860D01*
X2020038Y1053265D02*
X2035758D01*
X2058138Y1075645D01*
X1948136Y1277955D02*
Y1886390D01*
Y1277955D02*
X1984850Y1241241D01*
X1948136Y1886390D02*
X2019362Y1957616D01*
X2126928D01*
X2193081Y2023770D01*
Y2141122D01*
D30*
X822118Y2620438D02*
X2117124D01*
X2213571D01*
X2215171Y2639429D02*
X2310171D01*
X2215171Y2622038D02*
Y2639429D01*
X2213571Y2620438D02*
X2215171Y2622038D01*
X693465Y2078024D02*
Y2491785D01*
X822118Y2620438D01*
X3806335Y2929594D02*
X3827410Y2908519D01*
X4029361D01*
X4077496Y2519269D02*
X4084480Y2512284D01*
X4029361Y2908519D02*
X4043846Y2894034D01*
X4077496Y2519269D02*
Y2879434D01*
X4043846Y2894034D02*
X4062896D01*
X4077496Y2879434D01*
X4096423Y2278352D02*
X4121115Y2253660D01*
X4096423Y2278352D02*
Y2500341D01*
X4121115Y2253660D02*
X4171115D01*
D31*
X2102588Y2785348D02*
X2307631D01*
X2080328Y2761849D02*
Y2763088D01*
X2102588Y2785348D01*
X2307631D02*
X2310171Y2782808D01*
X4388646Y1006654D02*
X4393838Y1001462D01*
X4711302D01*
X4834860Y1125020D01*
X3960710Y1784610D02*
Y2157109D01*
Y1222349D02*
Y1784610D01*
X4388646Y1006654D02*
X4388680Y1006620D01*
X3960710Y2157109D02*
X4022501Y2218900D01*
X3960710Y1222349D02*
X4007339Y1175720D01*
X4022501Y2218900D02*
X4091792D01*
X2310171Y2785348D02*
Y2894429D01*
X4387733Y1175720D02*
X4388613Y1176600D01*
X4007339Y1175720D02*
X4387733D01*
X4388613Y1176600D02*
X4388646Y1176567D01*
Y1006654D02*
Y1176567D01*
X4091792Y2218900D02*
X4126552Y2253660D01*
D32*
X232500Y1345042D02*
D03*
X4767500D02*
D03*
Y1955020D02*
D03*
X232500D02*
D03*
D33*
X4580860Y1125020D02*
D03*
Y871020D02*
D03*
Y617020D02*
D03*
X4834860D02*
D03*
Y871020D02*
D03*
Y1125020D02*
D03*
D34*
X1135263Y2774187D02*
D03*
X881263D02*
D03*
X627263D02*
D03*
Y3028187D02*
D03*
X881263D02*
D03*
X1135263D02*
D03*
D35*
X4880016Y2380000D02*
D03*
X4700016D02*
D03*
D36*
X2190834Y241300D02*
D03*
X1290834D02*
D03*
X1590834D02*
D03*
X1890834D02*
D03*
D37*
X690880D02*
D03*
X990880D02*
D03*
D38*
X2310171Y2782808D02*
D03*
D39*
X2345977Y3063865D02*
D03*
X3164955Y3088932D02*
D03*
X3266047Y3140829D02*
D03*
X2675159Y2633240D02*
D03*
X2050518Y1578682D02*
D03*
X2569835Y2349602D02*
D03*
X2732395D02*
D03*
X2651115D02*
D03*
X2552034Y173797D02*
D03*
Y275291D02*
D03*
X2316823Y2226081D02*
D03*
X2253546Y2478694D02*
D03*
X2316823Y2084368D02*
D03*
X3465551Y2552274D02*
D03*
X3548213D02*
D03*
Y2749454D02*
D03*
X3465551D02*
D03*
X3713537Y2552274D02*
D03*
X3796199D02*
D03*
Y2749454D02*
D03*
X3713537D02*
D03*
X3878861Y2552274D02*
D03*
Y2749454D02*
D03*
X3630875Y2552274D02*
D03*
Y2749454D02*
D03*
X1011197Y635946D02*
D03*
X418989Y598298D02*
D03*
X246527D02*
D03*
X418989Y768591D02*
D03*
X246527D02*
D03*
X332909Y597334D02*
D03*
Y768591D02*
D03*
X418989Y682174D02*
D03*
X246527D02*
D03*
X1800827Y3000409D02*
D03*
X1710601D02*
D03*
X1620375D02*
D03*
X1530148D02*
D03*
X1439922D02*
D03*
X1349696D02*
D03*
X1894508Y1238215D02*
D03*
X1892300Y1922780D02*
D03*
X4244480Y2597005D02*
D03*
Y2427278D02*
D03*
X2688694Y3087156D02*
D03*
X2272071Y3143426D02*
D03*
X1349696Y2800467D02*
D03*
X1439922D02*
D03*
X1530148D02*
D03*
X1620375D02*
D03*
X1710601D02*
D03*
X1800827D02*
D03*
X2651115Y2157719D02*
D03*
X2732395D02*
D03*
X2569835D02*
D03*
X2512599Y2419373D02*
D03*
X2593879D02*
D03*
X2675159D02*
D03*
X2552034Y72304D02*
D03*
X3081820Y604320D02*
D03*
X2854312D02*
D03*
X2626804D02*
D03*
X3309329D02*
D03*
X3536837D02*
D03*
X3764345D02*
D03*
X3991854D02*
D03*
X4219362D02*
D03*
X4291495Y80349D02*
D03*
Y188827D02*
D03*
Y297305D02*
D03*
Y405784D02*
D03*
Y514262D02*
D03*
X2552034Y478277D02*
D03*
Y376784D02*
D03*
X2514977Y2253660D02*
D03*
X2787254D02*
D03*
X2493879Y2526059D02*
D03*
X2693879D02*
D03*
X866101Y2029040D02*
D03*
X796176D02*
D03*
X726251D02*
D03*
Y1940250D02*
D03*
Y1851460D02*
D03*
X796176D02*
D03*
X866101D02*
D03*
X2512599Y2633240D02*
D03*
X2593879D02*
D03*
X2058138Y1461312D02*
D03*
X4825823Y2317340D02*
D03*
Y2442918D02*
D03*
X2120158Y958265D02*
D03*
X2020038Y384697D02*
D03*
X1011197Y849972D02*
D03*
Y1095462D02*
D03*
Y2065969D02*
D03*
Y2267553D02*
D03*
Y1813725D02*
D03*
Y1338692D02*
D03*
Y1569389D02*
D03*
X726251Y1226536D02*
D03*
Y1139380D02*
D03*
Y1313692D02*
D03*
Y525690D02*
D03*
Y431800D02*
D03*
Y619580D02*
D03*
X2455722Y1280354D02*
D03*
X2020038Y722094D02*
D03*
X796176Y1313692D02*
D03*
X866101D02*
D03*
Y432080D02*
D03*
X796176Y619580D02*
D03*
X866101D02*
D03*
Y1139380D02*
D03*
X796176D02*
D03*
Y431800D02*
D03*
D40*
X4357950Y1759236D02*
D03*
X4535750Y1761776D02*
D03*
%TF.MD5,a37e297ac926c7513704196480e0e53b*%
M02*
