G04 Layer_Physical_Order=1*
G04 Layer_Color=255*
%FSAX44Y44*%
%MOMM*%
G71*
G01*
G75*
G04:AMPARAMS|DCode=10|XSize=4.6mm|YSize=4.7mm|CornerRadius=0.023mm|HoleSize=0mm|Usage=FLASHONLY|Rotation=90.000|XOffset=0mm|YOffset=0mm|HoleType=Round|Shape=RoundedRectangle|*
%AMROUNDEDRECTD10*
21,1,4.6000,4.6540,0,0,90.0*
21,1,4.5540,4.7000,0,0,90.0*
1,1,0.0460,2.3270,2.2770*
1,1,0.0460,2.3270,-2.2770*
1,1,0.0460,-2.3270,-2.2770*
1,1,0.0460,-2.3270,2.2770*
%
%ADD10ROUNDEDRECTD10*%
G04:AMPARAMS|DCode=11|XSize=2.55mm|YSize=1.2mm|CornerRadius=0.006mm|HoleSize=0mm|Usage=FLASHONLY|Rotation=180.000|XOffset=0mm|YOffset=0mm|HoleType=Round|Shape=RoundedRectangle|*
%AMROUNDEDRECTD11*
21,1,2.5500,1.1880,0,0,180.0*
21,1,2.5380,1.2000,0,0,180.0*
1,1,0.0120,-1.2690,0.5940*
1,1,0.0120,1.2690,0.5940*
1,1,0.0120,1.2690,-0.5940*
1,1,0.0120,-1.2690,-0.5940*
%
%ADD11ROUNDEDRECTD11*%
G04:AMPARAMS|DCode=12|XSize=0.75mm|YSize=0.5mm|CornerRadius=0.0025mm|HoleSize=0mm|Usage=FLASHONLY|Rotation=0.000|XOffset=0mm|YOffset=0mm|HoleType=Round|Shape=RoundedRectangle|*
%AMROUNDEDRECTD12*
21,1,0.7500,0.4950,0,0,0.0*
21,1,0.7450,0.5000,0,0,0.0*
1,1,0.0050,0.3725,-0.2475*
1,1,0.0050,-0.3725,-0.2475*
1,1,0.0050,-0.3725,0.2475*
1,1,0.0050,0.3725,0.2475*
%
%ADD12ROUNDEDRECTD12*%
G04:AMPARAMS|DCode=13|XSize=0.75mm|YSize=0.5mm|CornerRadius=0.0025mm|HoleSize=0mm|Usage=FLASHONLY|Rotation=90.000|XOffset=0mm|YOffset=0mm|HoleType=Round|Shape=RoundedRectangle|*
%AMROUNDEDRECTD13*
21,1,0.7500,0.4950,0,0,90.0*
21,1,0.7450,0.5000,0,0,90.0*
1,1,0.0050,0.2475,0.3725*
1,1,0.0050,0.2475,-0.3725*
1,1,0.0050,-0.2475,-0.3725*
1,1,0.0050,-0.2475,0.3725*
%
%ADD13ROUNDEDRECTD13*%
G04:AMPARAMS|DCode=14|XSize=0.85mm|YSize=0.6mm|CornerRadius=0.003mm|HoleSize=0mm|Usage=FLASHONLY|Rotation=180.000|XOffset=0mm|YOffset=0mm|HoleType=Round|Shape=RoundedRectangle|*
%AMROUNDEDRECTD14*
21,1,0.8500,0.5940,0,0,180.0*
21,1,0.8440,0.6000,0,0,180.0*
1,1,0.0060,-0.4220,0.2970*
1,1,0.0060,0.4220,0.2970*
1,1,0.0060,0.4220,-0.2970*
1,1,0.0060,-0.4220,-0.2970*
%
%ADD14ROUNDEDRECTD14*%
G04:AMPARAMS|DCode=15|XSize=0.85mm|YSize=0.6mm|CornerRadius=0.003mm|HoleSize=0mm|Usage=FLASHONLY|Rotation=90.000|XOffset=0mm|YOffset=0mm|HoleType=Round|Shape=RoundedRectangle|*
%AMROUNDEDRECTD15*
21,1,0.8500,0.5940,0,0,90.0*
21,1,0.8440,0.6000,0,0,90.0*
1,1,0.0060,0.2970,0.4220*
1,1,0.0060,0.2970,-0.4220*
1,1,0.0060,-0.2970,-0.4220*
1,1,0.0060,-0.2970,0.4220*
%
%ADD15ROUNDEDRECTD15*%
G04:AMPARAMS|DCode=16|XSize=2.1mm|YSize=3.6mm|CornerRadius=0.0105mm|HoleSize=0mm|Usage=FLASHONLY|Rotation=180.000|XOffset=0mm|YOffset=0mm|HoleType=Round|Shape=RoundedRectangle|*
%AMROUNDEDRECTD16*
21,1,2.1000,3.5790,0,0,180.0*
21,1,2.0790,3.6000,0,0,180.0*
1,1,0.0210,-1.0395,1.7895*
1,1,0.0210,1.0395,1.7895*
1,1,0.0210,1.0395,-1.7895*
1,1,0.0210,-1.0395,-1.7895*
%
%ADD16ROUNDEDRECTD16*%
G04:AMPARAMS|DCode=17|XSize=2.1mm|YSize=3.6mm|CornerRadius=0.0105mm|HoleSize=0mm|Usage=FLASHONLY|Rotation=270.000|XOffset=0mm|YOffset=0mm|HoleType=Round|Shape=RoundedRectangle|*
%AMROUNDEDRECTD17*
21,1,2.1000,3.5790,0,0,270.0*
21,1,2.0790,3.6000,0,0,270.0*
1,1,0.0210,-1.7895,-1.0395*
1,1,0.0210,-1.7895,1.0395*
1,1,0.0210,1.7895,1.0395*
1,1,0.0210,1.7895,-1.0395*
%
%ADD17ROUNDEDRECTD17*%
%ADD18O,1.4000X0.4500*%
G04:AMPARAMS|DCode=19|XSize=1.1mm|YSize=1.1mm|CornerRadius=0.0055mm|HoleSize=0mm|Usage=FLASHONLY|Rotation=270.000|XOffset=0mm|YOffset=0mm|HoleType=Round|Shape=RoundedRectangle|*
%AMROUNDEDRECTD19*
21,1,1.1000,1.0890,0,0,270.0*
21,1,1.0890,1.1000,0,0,270.0*
1,1,0.0110,-0.5445,-0.5445*
1,1,0.0110,-0.5445,0.5445*
1,1,0.0110,0.5445,0.5445*
1,1,0.0110,0.5445,-0.5445*
%
%ADD19ROUNDEDRECTD19*%
G04:AMPARAMS|DCode=20|XSize=0.65mm|YSize=1.2mm|CornerRadius=0.0033mm|HoleSize=0mm|Usage=FLASHONLY|Rotation=0.000|XOffset=0mm|YOffset=0mm|HoleType=Round|Shape=RoundedRectangle|*
%AMROUNDEDRECTD20*
21,1,0.6500,1.1935,0,0,0.0*
21,1,0.6435,1.2000,0,0,0.0*
1,1,0.0065,0.3217,-0.5968*
1,1,0.0065,-0.3217,-0.5968*
1,1,0.0065,-0.3217,0.5968*
1,1,0.0065,0.3217,0.5968*
%
%ADD20ROUNDEDRECTD20*%
G04:AMPARAMS|DCode=21|XSize=0.254mm|YSize=0.508mm|CornerRadius=0.0013mm|HoleSize=0mm|Usage=FLASHONLY|Rotation=180.000|XOffset=0mm|YOffset=0mm|HoleType=Round|Shape=RoundedRectangle|*
%AMROUNDEDRECTD21*
21,1,0.2540,0.5055,0,0,180.0*
21,1,0.2515,0.5080,0,0,180.0*
1,1,0.0025,-0.1257,0.2527*
1,1,0.0025,0.1257,0.2527*
1,1,0.0025,0.1257,-0.2527*
1,1,0.0025,-0.1257,-0.2527*
%
%ADD21ROUNDEDRECTD21*%
%ADD22C,0.1270*%
%ADD23C,0.1524*%
%ADD24C,0.3048*%
%ADD25C,0.3810*%
%ADD26C,0.2032*%
%ADD27C,0.2540*%
%ADD28O,1.7000X2.7000*%
G04:AMPARAMS|DCode=29|XSize=2.7mm|YSize=1.7mm|CornerRadius=0.425mm|HoleSize=0mm|Usage=FLASHONLY|Rotation=270.000|XOffset=0mm|YOffset=0mm|HoleType=Round|Shape=RoundedRectangle|*
%AMROUNDEDRECTD29*
21,1,2.7000,0.8500,0,0,270.0*
21,1,1.8500,1.7000,0,0,270.0*
1,1,0.8500,-0.4250,-0.9250*
1,1,0.8500,-0.4250,0.9250*
1,1,0.8500,0.4250,0.9250*
1,1,0.8500,0.4250,-0.9250*
%
%ADD29ROUNDEDRECTD29*%
%ADD30C,3.0000*%
%ADD31O,3.2000X2.2000*%
%ADD32C,0.5000*%
%ADD33C,0.6000*%
%ADD34C,0.7000*%
G36*
X06780688Y08581389D02*
X06930699Y08581389D01*
X06930699Y08581389D01*
X06930699Y08581389D01*
X06930701D01*
X06931873Y08581342D01*
X06933470Y08581024D01*
X06935198Y08580308D01*
X06936754Y08579269D01*
X06938076Y08577946D01*
X06939116Y08576391D01*
X06939832Y08574663D01*
X06940197Y08572828D01*
X06940197Y08571893D01*
X06940197Y08513773D01*
X06939257D01*
Y08513633D01*
X06892256D01*
Y08513773D01*
X06761627Y08513773D01*
X06761296Y08513773D01*
X06760635D01*
X06758691Y08514160D01*
X06756859Y08514918D01*
X06755211Y08516019D01*
X06754510Y08516721D01*
X06742826Y08528403D01*
X06742826Y08528403D01*
X06742535Y08528666D01*
X06741884Y08529102D01*
X06741160Y08529402D01*
X06740392Y08529554D01*
X06740000Y08529574D01*
X06740000Y08556498D01*
X06742022Y08556498D01*
X06742705Y08556531D01*
X06743235Y08556637D01*
X06744044Y08556798D01*
X06745306Y08557321D01*
X06746442Y08558079D01*
X06746948Y08558538D01*
X06761254Y08572844D01*
X06762100Y08573690D01*
X06762100Y08573690D01*
X06762100Y08573690D01*
X06762100Y08573690D01*
X06763013Y08574603D01*
X06765010Y08576242D01*
X06767158Y08577677D01*
X06769435Y08578895D01*
X06771821Y08579883D01*
X06774293Y08580632D01*
X06776827Y08581136D01*
X06779397Y08581390D01*
X06780688Y08581389D01*
D02*
G37*
G36*
X07160000Y08645856D02*
X07161562Y08645856D01*
X07164625Y08645247D01*
X07167511Y08644052D01*
X07170108Y08642317D01*
X07172317Y08640108D01*
X07174052Y08637511D01*
X07175247Y08634625D01*
X07175856Y08631562D01*
X07175856Y08630000D01*
Y08420000D01*
X07175856Y08418438D01*
X07175247Y08415375D01*
X07174052Y08412489D01*
X07172317Y08409892D01*
X07170108Y08407683D01*
X07167511Y08405948D01*
X07164625Y08404753D01*
X07161562Y08404144D01*
X07012341D01*
X07011760Y08404939D01*
X07011578Y08405413D01*
X07011742Y08406236D01*
Y08406514D01*
X07012230Y08406840D01*
X07013181Y08408262D01*
X07013514Y08409940D01*
X07013181Y08411618D01*
X07012230Y08413040D01*
X07010807Y08413990D01*
X07009130Y08414324D01*
X07007452Y08413990D01*
X07006030Y08413040D01*
X07005079Y08411618D01*
X07004746Y08409940D01*
X07004984Y08408742D01*
X07004196Y08407472D01*
X06851335D01*
X06851335Y08438832D01*
X06851300Y08439009D01*
Y08439189D01*
X06851231Y08439357D01*
X06851196Y08439534D01*
X06851095Y08439684D01*
X06851026Y08439851D01*
X06850898Y08439979D01*
X06850798Y08440129D01*
X06850648Y08440229D01*
X06850519Y08440358D01*
X06850353Y08440427D01*
X06850203Y08440527D01*
X06850025Y08440562D01*
X06849858Y08440632D01*
X06848636Y08440875D01*
X06847903Y08441364D01*
X06847414Y08442097D01*
X06847242Y08442961D01*
X06847414Y08443825D01*
X06847706Y08444261D01*
X06847804Y08444500D01*
X06847928Y08444725D01*
X06848203Y08445590D01*
X06849500Y08445331D01*
X06859000D01*
X06860580Y08445646D01*
X06861218Y08446072D01*
X06863705D01*
X06863754Y08446000D01*
X06865341Y08444940D01*
X06867214Y08444567D01*
X06869087Y08444940D01*
X06870674Y08446000D01*
X06871735Y08447588D01*
X06872108Y08449461D01*
X06871735Y08451334D01*
X06870674Y08452922D01*
X06869087Y08453983D01*
X06867214Y08454355D01*
X06865341Y08453983D01*
X06864373Y08453336D01*
X06864327Y08453357D01*
X06864156Y08453830D01*
X06864140Y08454845D01*
X06864978Y08455683D01*
X06873884D01*
X06875084Y08454484D01*
X06874837Y08453889D01*
Y08447949D01*
X06875249Y08446954D01*
X06876244Y08446541D01*
X06884684D01*
X06885679Y08446954D01*
X06886091Y08447949D01*
Y08453889D01*
X06885679Y08454883D01*
X06884684Y08455295D01*
X06879238D01*
X06878635Y08456420D01*
X06878956Y08457338D01*
X06879175Y08457625D01*
X06884684D01*
X06885398Y08457767D01*
X06886003Y08458171D01*
X06886408Y08458777D01*
X06886467Y08459072D01*
X06889885D01*
X06889885Y08436498D01*
X06890024Y08435795D01*
X06890422Y08435200D01*
X06891320Y08434302D01*
X06891916Y08433904D01*
X06892618Y08433765D01*
X06939666Y08433765D01*
X06939975Y08433826D01*
X06940284Y08433872D01*
X06940323Y08433896D01*
X06940368Y08433904D01*
X06940629Y08434079D01*
X06940898Y08434240D01*
X06941772Y08435032D01*
X06942635Y08435814D01*
X06946490Y08438390D01*
X06950731Y08440147D01*
X06955279Y08441051D01*
X06957574Y08441164D01*
X06993320Y08441165D01*
X06994022Y08441304D01*
X06994618Y08441702D01*
X06995016Y08442298D01*
X06995155Y08443000D01*
X06995155Y08489442D01*
X06995016Y08490144D01*
X06994618Y08490740D01*
X06994022Y08491138D01*
X06993320Y08491277D01*
X06992892D01*
X06992577Y08491340D01*
X06946037D01*
X06945723Y08491277D01*
X06928308Y08491277D01*
X06927410Y08492175D01*
X06927410Y08506352D01*
X06927271Y08507054D01*
X06927173Y08507201D01*
X06927050Y08507816D01*
X06926646Y08508422D01*
X06926039Y08508828D01*
X06925324Y08508970D01*
X06925258D01*
X06924677Y08509085D01*
X06891720Y08509085D01*
X06891018Y08508945D01*
X06890422Y08508547D01*
X06890024Y08507952D01*
X06889885Y08507250D01*
X06889885Y08465850D01*
X06886467D01*
X06886408Y08466145D01*
X06886003Y08466750D01*
X06885398Y08467155D01*
X06884684Y08467297D01*
X06876244D01*
X06875530Y08467155D01*
X06874925Y08466750D01*
X06874520Y08466145D01*
X06874462Y08465850D01*
X06872437D01*
X06871703Y08466891D01*
X06871742Y08467120D01*
X06872108Y08468961D01*
X06871735Y08470834D01*
X06870674Y08472421D01*
X06869087Y08473483D01*
X06867214Y08473855D01*
X06865341Y08473483D01*
X06864941Y08473215D01*
X06864132Y08474202D01*
X06872596Y08482665D01*
X06873045Y08483337D01*
X06873203Y08484131D01*
X06873203Y08484131D01*
Y08490584D01*
X06879277Y08496658D01*
X06879277Y08496658D01*
X06879726Y08497331D01*
X06879884Y08498124D01*
X06880959Y08498627D01*
X06884189D01*
X06885180Y08499037D01*
X06885591Y08500029D01*
Y08504979D01*
X06885180Y08505970D01*
X06884189Y08506380D01*
X06876739D01*
X06875748Y08505970D01*
X06875338Y08504979D01*
Y08500029D01*
X06875740Y08499056D01*
Y08498982D01*
X06872127Y08495369D01*
X06870954Y08495854D01*
Y08501390D01*
X06871053D01*
X06871767Y08501532D01*
X06872372Y08501937D01*
X06872776Y08502542D01*
X06872919Y08503256D01*
Y08510668D01*
X06874089Y08511937D01*
X06891557D01*
X06892256Y08511798D01*
X06939257D01*
X06939956Y08511937D01*
X06940197D01*
X06940899Y08512077D01*
X06941494Y08512475D01*
X06941892Y08513071D01*
X06942032Y08513773D01*
X06942032Y08571893D01*
X06942032Y08572828D01*
X06941996Y08573005D01*
Y08573186D01*
X06941631Y08575021D01*
X06941562Y08575188D01*
X06941527Y08575365D01*
X06940811Y08577094D01*
X06940710Y08577244D01*
X06940641Y08577411D01*
X06939602Y08578966D01*
X06939474Y08579094D01*
X06939374Y08579244D01*
X06938051Y08580567D01*
X06937901Y08580667D01*
X06937773Y08580795D01*
X06936218Y08581834D01*
X06936050Y08581904D01*
X06935900Y08582004D01*
X06934172Y08582720D01*
X06933995Y08582755D01*
X06933828Y08582824D01*
X06932231Y08583142D01*
X06932087D01*
X06931946Y08583176D01*
X06930775Y08583223D01*
X06930737Y08583217D01*
X06930701Y08583224D01*
X06930700D01*
X06930699Y08583224D01*
X06780688Y08583224D01*
X06779397Y08583225D01*
X06779308Y08583207D01*
X06779217Y08583216D01*
X06776647Y08582963D01*
X06776559Y08582936D01*
X06776469D01*
X06773935Y08582433D01*
X06773851Y08582398D01*
X06773760Y08582389D01*
X06771289Y08581639D01*
X06771208Y08581596D01*
X06771119Y08581578D01*
X06768733Y08580590D01*
X06768657Y08580540D01*
X06768570Y08580513D01*
X06766292Y08579296D01*
X06766222Y08579238D01*
X06766138Y08579203D01*
X06763990Y08577768D01*
X06763926Y08577703D01*
X06763845Y08577661D01*
X06761849Y08576022D01*
X06761791Y08575952D01*
X06761715Y08575901D01*
X06760802Y08574988D01*
X06759957Y08574142D01*
X06759956Y08574142D01*
X06745682Y08559868D01*
X06745309Y08559530D01*
X06744437Y08558947D01*
X06743509Y08558563D01*
X06742877Y08558437D01*
X06742877Y08558437D01*
X06742480Y08558358D01*
X06741977Y08558333D01*
X06740423Y08558333D01*
X06740000Y08558389D01*
X06737311Y08558035D01*
X06734805Y08556997D01*
X06732654Y08555346D01*
X06731003Y08553195D01*
X06729965Y08550689D01*
X06729611Y08548000D01*
Y08538000D01*
X06729965Y08535311D01*
X06731003Y08532806D01*
X06732654Y08530654D01*
X06734805Y08529003D01*
X06737311Y08527965D01*
X06740000Y08527611D01*
X06740455Y08527671D01*
X06740625Y08527637D01*
X06741014Y08527476D01*
X06741403Y08527216D01*
X06741561Y08527073D01*
X06753212Y08515422D01*
X06753913Y08514722D01*
X06754063Y08514621D01*
X06754191Y08514493D01*
X06755811Y08513412D01*
X06755840Y08513390D01*
X06756093Y08512768D01*
X06756184Y08512186D01*
X06756098Y08511872D01*
X06755762Y08511370D01*
X06755623Y08510668D01*
X06755623Y08437920D01*
X06754086Y08436384D01*
X06753688Y08435789D01*
X06753549Y08435086D01*
X06753549Y08404144D01*
X06698438D01*
X06695375Y08404753D01*
X06692489Y08405948D01*
X06689892Y08407683D01*
X06687683Y08409892D01*
X06685948Y08412489D01*
X06684753Y08415375D01*
X06684144Y08418438D01*
X06684144Y08420000D01*
Y08630000D01*
X06684144Y08631562D01*
X06684753Y08634625D01*
X06685948Y08637511D01*
X06687683Y08640108D01*
X06689892Y08642317D01*
X06692489Y08644052D01*
X06695375Y08645247D01*
X06698438Y08645856D01*
X06700000D01*
X07160000Y08645856D01*
D02*
G37*
G36*
X06837205Y08511937D02*
Y08503583D01*
X06837346Y08502869D01*
X06837751Y08502264D01*
X06838356Y08501860D01*
X06839070Y08501718D01*
X06845010D01*
X06845724Y08501860D01*
X06846329Y08502264D01*
X06846734Y08502869D01*
X06846876Y08503583D01*
Y08511937D01*
X06848830D01*
X06849028Y08511696D01*
Y08508492D01*
X06853582D01*
X06858137D01*
Y08510668D01*
X06859307Y08511937D01*
X06863049D01*
X06863247Y08511696D01*
Y08503256D01*
X06863389Y08502542D01*
X06863793Y08501937D01*
X06864399Y08501532D01*
X06865113Y08501390D01*
X06865212D01*
Y08486772D01*
X06863364Y08484924D01*
X06862267Y08485005D01*
X06861669Y08486119D01*
X06862316Y08487087D01*
X06862589Y08488461D01*
X06862316Y08489835D01*
X06861538Y08490999D01*
X06860374Y08491777D01*
X06859000Y08492050D01*
X06849500D01*
X06848127Y08491777D01*
X06846962Y08490999D01*
X06846564Y08490403D01*
X06831826D01*
X06829482Y08492747D01*
Y08502177D01*
X06830510D01*
X06831505Y08502589D01*
X06831917Y08503583D01*
Y08511937D01*
X06837205D01*
D02*
G37*
G36*
X06924677Y08507250D02*
X06925575Y08506352D01*
X06925575Y08489442D01*
X06993320Y08489442D01*
X06993320Y08443000D01*
X06957530Y08442999D01*
X06955054Y08442878D01*
X06950196Y08441912D01*
X06945621Y08440016D01*
X06941503Y08437265D01*
X06940540Y08436392D01*
X06939666Y08435600D01*
Y08435600D01*
X06939666Y08435600D01*
X06892618Y08435600D01*
X06891720Y08436498D01*
X06891720Y08507250D01*
X06924677Y08507250D01*
D02*
G37*
G36*
X06772619Y08511938D02*
Y08504578D01*
X06772761Y08503867D01*
X06773165Y08503263D01*
X06773768Y08502859D01*
X06774480Y08502718D01*
X06779430D01*
X06780142Y08502859D01*
X06780746Y08503263D01*
X06781149Y08503867D01*
X06781291Y08504578D01*
Y08511938D01*
X06787578Y08511937D01*
Y08504578D01*
X06787989Y08503587D01*
X06788980Y08503177D01*
X06789513D01*
Y08495513D01*
X06789661Y08494770D01*
X06790082Y08494139D01*
X06790998Y08493223D01*
X06790706Y08492518D01*
X06790396Y08492029D01*
X06789127Y08491777D01*
X06788593Y08491420D01*
X06787750Y08491588D01*
X06787750Y08491588D01*
X06785914Y08493423D01*
X06785284Y08493845D01*
X06784541Y08493992D01*
X06782335D01*
Y08498381D01*
X06781924Y08499372D01*
X06780933Y08499783D01*
X06775983D01*
X06774991Y08499372D01*
X06774581Y08498381D01*
Y08490931D01*
X06774991Y08489940D01*
X06775983Y08489529D01*
X06780933D01*
X06781924Y08489940D01*
X06781993Y08490107D01*
X06783737D01*
X06784403Y08489441D01*
Y08483098D01*
X06784551Y08482354D01*
X06784972Y08481724D01*
X06786108Y08480588D01*
X06786738Y08480167D01*
X06787482Y08480018D01*
X06787565D01*
X06787914Y08479495D01*
X06788078Y08479136D01*
Y08478461D01*
X06787302Y08477553D01*
X06785977Y08477520D01*
X06784373Y08479124D01*
X06783743Y08479545D01*
X06783000Y08479692D01*
X06782834D01*
Y08485333D01*
X06782422Y08486329D01*
X06781428Y08486741D01*
X06775488D01*
X06774493Y08486329D01*
X06774080Y08485333D01*
Y08476893D01*
X06774493Y08475898D01*
X06775488Y08475486D01*
X06781428D01*
X06782198Y08475806D01*
X06783915Y08474088D01*
X06784546Y08473666D01*
X06785289Y08473519D01*
X06787565D01*
X06787915Y08472994D01*
X06788078Y08472637D01*
Y08471960D01*
X06787173Y08470903D01*
X06782335D01*
Y08471296D01*
X06781924Y08472287D01*
X06780933Y08472698D01*
X06775983D01*
X06774991Y08472287D01*
X06774581Y08471296D01*
Y08463846D01*
X06774991Y08462855D01*
X06775983Y08462444D01*
X06780933D01*
X06781924Y08462855D01*
X06782335Y08463846D01*
Y08467018D01*
X06787565D01*
X06787962Y08466423D01*
X06789127Y08465645D01*
X06790500Y08465372D01*
X06800000D01*
X06801373Y08465645D01*
X06802538Y08466423D01*
X06803316Y08467587D01*
X06803589Y08468961D01*
X06803316Y08470334D01*
X06802538Y08471498D01*
X06802422Y08471576D01*
Y08472846D01*
X06802538Y08472923D01*
X06803316Y08474088D01*
X06803589Y08475461D01*
X06803316Y08476834D01*
X06802585Y08477927D01*
X06802422Y08478286D01*
Y08479136D01*
X06802585Y08479495D01*
X06803316Y08480588D01*
X06803589Y08481961D01*
X06803316Y08483334D01*
X06802538Y08484499D01*
X06802422Y08484576D01*
Y08485846D01*
X06802538Y08485923D01*
X06803316Y08487087D01*
X06803589Y08488461D01*
X06803316Y08489835D01*
X06802538Y08490999D01*
X06801373Y08491777D01*
X06800000Y08492050D01*
X06797098D01*
X06797009Y08492498D01*
X06796588Y08493127D01*
X06793397Y08496318D01*
Y08503177D01*
X06793930D01*
X06794921Y08503587D01*
X06795332Y08504578D01*
Y08511937D01*
X06797662D01*
Y08504578D01*
X06797803Y08503867D01*
X06798207Y08503263D01*
X06798810Y08502859D01*
X06799523Y08502718D01*
X06804473D01*
X06805185Y08502859D01*
X06805789Y08503263D01*
X06806191Y08503867D01*
X06806334Y08504578D01*
Y08511937D01*
X06812621D01*
Y08504578D01*
X06813032Y08503587D01*
X06814023Y08503177D01*
X06818973D01*
X06819964Y08503587D01*
X06820374Y08504578D01*
Y08509058D01*
X06823163D01*
Y08503583D01*
X06823575Y08502589D01*
X06824570Y08502177D01*
X06825598D01*
Y08491942D01*
X06825746Y08491199D01*
X06826167Y08490569D01*
X06829648Y08487087D01*
X06830278Y08486666D01*
X06831022Y08486519D01*
X06845901D01*
X06846713Y08485310D01*
X06846474Y08484722D01*
X06845685Y08483541D01*
X06845371Y08481961D01*
X06845685Y08480381D01*
X06846474Y08479200D01*
X06846962Y08477999D01*
X06846185Y08476834D01*
X06845911Y08475461D01*
X06846185Y08474088D01*
X06846962Y08472923D01*
X06846474Y08471722D01*
X06845685Y08470541D01*
X06845371Y08468961D01*
X06845685Y08467381D01*
X06846580Y08466041D01*
Y08465381D01*
X06845685Y08464041D01*
X06845371Y08462461D01*
X06845685Y08460881D01*
X06846474Y08459700D01*
X06846962Y08458499D01*
X06846185Y08457335D01*
X06845911Y08455961D01*
X06846185Y08454587D01*
X06846962Y08453423D01*
X06846474Y08452222D01*
X06845685Y08451041D01*
X06845371Y08449461D01*
X06845685Y08447881D01*
X06846180Y08447141D01*
X06846475Y08446211D01*
X06846180Y08445281D01*
X06845685Y08444541D01*
X06845371Y08442961D01*
X06845685Y08441381D01*
X06846580Y08440041D01*
X06847920Y08439146D01*
X06849500Y08438832D01*
X06849500Y08407472D01*
X06821472D01*
X06820655Y08408289D01*
Y08411068D01*
X06821230Y08411182D01*
X06821833Y08411585D01*
X06822237Y08412189D01*
X06822379Y08412901D01*
Y08420351D01*
X06822237Y08421063D01*
X06821833Y08421667D01*
X06821230Y08422070D01*
X06820655Y08422184D01*
Y08424110D01*
X06821230Y08424224D01*
X06821833Y08424628D01*
X06822237Y08425231D01*
X06822379Y08425944D01*
Y08433394D01*
X06822237Y08434105D01*
X06821833Y08434709D01*
X06821230Y08435112D01*
X06820518Y08435254D01*
X06815568D01*
X06814855Y08435112D01*
X06814252Y08434709D01*
X06813848Y08434105D01*
X06813707Y08433394D01*
Y08425944D01*
X06813848Y08425231D01*
X06814252Y08424628D01*
X06814855Y08424224D01*
X06815430Y08424110D01*
Y08422184D01*
X06814855Y08422070D01*
X06814252Y08421667D01*
X06813848Y08421063D01*
X06813707Y08420351D01*
Y08412901D01*
X06813848Y08412189D01*
X06814252Y08411585D01*
X06814855Y08411182D01*
X06815430Y08411068D01*
Y08407208D01*
X06815629Y08406208D01*
X06816160Y08405413D01*
X06816048Y08404855D01*
X06815753Y08404144D01*
X06755384D01*
X06755384Y08435086D01*
X06757458Y08437160D01*
X06757458Y08510668D01*
X06758728Y08511938D01*
X06772619D01*
D02*
G37*
%LPC*%
G36*
X07103651Y08602928D02*
X07101815Y08602928D01*
X07101815Y08602928D01*
X07031228Y08602927D01*
X07030526Y08602787D01*
X07029930Y08602390D01*
X07029532Y08601794D01*
X07029393Y08601092D01*
X07029393Y08497422D01*
Y08493638D01*
X07029410Y08493549D01*
X07029402Y08493459D01*
X07030143Y08485928D01*
X07030170Y08485840D01*
Y08485750D01*
X07031646Y08478327D01*
X07031681Y08478243D01*
X07031690Y08478152D01*
X07033887Y08470911D01*
X07033930Y08470831D01*
X07033948Y08470741D01*
X07036844Y08463749D01*
X07036894Y08463674D01*
X07036921Y08463587D01*
X07040488Y08456913D01*
X07040546Y08456843D01*
X07040580Y08456758D01*
X07044785Y08450466D01*
X07044849Y08450402D01*
X07044893Y08450322D01*
X07049693Y08444471D01*
X07049764Y08444414D01*
X07049814Y08444338D01*
X07051649Y08442503D01*
X07051649Y08442503D01*
X07051649Y08442503D01*
X07052490Y08441663D01*
X07052490Y08441663D01*
X07052490D01*
X07052490Y08441663D01*
X07052631Y08441569D01*
X07053085Y08441265D01*
X07053787Y08441125D01*
X07102491Y08441126D01*
X07103193Y08441265D01*
X07103788Y08441663D01*
X07104186Y08442259D01*
X07104326Y08442961D01*
X07104326Y08490010D01*
X07104186Y08490712D01*
X07103788Y08491307D01*
X07079561Y08515534D01*
X07078651Y08516490D01*
X07076963Y08518547D01*
X07075497Y08520740D01*
X07074254Y08523067D01*
X07073244Y08525505D01*
X07072479Y08528029D01*
X07071964Y08530617D01*
X07071703Y08533265D01*
X07071671Y08534584D01*
X07071671Y08553404D01*
X07071697Y08553943D01*
X07071916Y08555042D01*
X07072327Y08556036D01*
X07072925Y08556930D01*
X07073686Y08557690D01*
X07074580Y08558288D01*
X07075574Y08558700D01*
X07076673Y08558918D01*
X07077217Y08558945D01*
X07106119Y08558945D01*
X07107227Y08558945D01*
X07107404Y08558981D01*
X07107585D01*
X07109759Y08559413D01*
X07109926Y08559482D01*
X07110103Y08559517D01*
X07112151Y08560366D01*
X07112301Y08560466D01*
X07112468Y08560535D01*
X07114312Y08561767D01*
X07114439Y08561895D01*
X07114589Y08561995D01*
X07115341Y08562747D01*
X07115533Y08562921D01*
X07116000Y08563233D01*
X07116477Y08563430D01*
X07117028Y08563540D01*
X07117287Y08563553D01*
X07119852Y08563553D01*
X07120292Y08563640D01*
X07122759Y08563965D01*
X07125264Y08565003D01*
X07127416Y08566654D01*
X07129067Y08568806D01*
X07130105Y08571311D01*
X07130459Y08574000D01*
Y08584000D01*
X07130105Y08586689D01*
X07129067Y08589194D01*
X07127416Y08591346D01*
X07125264Y08592997D01*
X07122759Y08594035D01*
X07121582Y08594189D01*
X07121534Y08594225D01*
X07121490Y08594236D01*
X07121452Y08594261D01*
X07121144Y08594323D01*
X07120840Y08594399D01*
X07120340Y08594424D01*
X07119403Y08594610D01*
X07118563Y08594958D01*
X07117769Y08595488D01*
X07117432Y08595795D01*
X07116297Y08596929D01*
X07116297Y08596929D01*
X07116297Y08596929D01*
X07114999Y08598228D01*
X07114848Y08598328D01*
X07114720Y08598456D01*
X07111666Y08600496D01*
X07111500Y08600566D01*
X07111349Y08600666D01*
X07107956Y08602072D01*
X07107778Y08602107D01*
X07107612Y08602176D01*
X07104009Y08602892D01*
X07103829D01*
X07103651Y08602928D01*
D02*
G37*
G36*
X06740000Y08594389D02*
X06737311Y08594035D01*
X06734805Y08592997D01*
X06732654Y08591346D01*
X06731003Y08589194D01*
X06729965Y08586689D01*
X06729611Y08584000D01*
Y08574000D01*
X06729965Y08571311D01*
X06731003Y08568806D01*
X06732654Y08566654D01*
X06734805Y08565003D01*
X06737311Y08563965D01*
X06740000Y08563611D01*
X06742689Y08563965D01*
X06745195Y08565003D01*
X06747346Y08566654D01*
X06748997Y08568806D01*
X06750035Y08571311D01*
X06750389Y08574000D01*
Y08584000D01*
X06750035Y08586689D01*
X06748997Y08589194D01*
X06747346Y08591346D01*
X06745195Y08592997D01*
X06742689Y08594035D01*
X06740000Y08594389D01*
D02*
G37*
G36*
X07120070Y08558389D02*
X07117381Y08558035D01*
X07114875Y08556997D01*
X07112724Y08555346D01*
X07111073Y08553195D01*
X07110035Y08550689D01*
X07109681Y08548000D01*
Y08538000D01*
X07110035Y08535311D01*
X07111073Y08532806D01*
X07112724Y08530654D01*
X07114875Y08529003D01*
X07117381Y08527965D01*
X07120070Y08527611D01*
X07122759Y08527965D01*
X07125264Y08529003D01*
X07127416Y08530654D01*
X07129067Y08532806D01*
X07130105Y08535311D01*
X07130459Y08538000D01*
Y08548000D01*
X07130105Y08550689D01*
X07129067Y08553195D01*
X07127416Y08555346D01*
X07125264Y08556997D01*
X07122759Y08558035D01*
X07120070Y08558389D01*
D02*
G37*
G36*
X06938024Y08508970D02*
X06931589D01*
X06930874Y08508828D01*
X06930268Y08508422D01*
X06929863Y08507816D01*
X06929720Y08507101D01*
Y08495166D01*
X06929863Y08494451D01*
X06930268Y08493845D01*
X06930874Y08493440D01*
X06931589Y08493298D01*
X06938024D01*
X06938739Y08493440D01*
X06939162Y08493723D01*
X06939934D01*
X06941047Y08492979D01*
X06942920Y08492606D01*
X06944793Y08492979D01*
X06946381Y08494039D01*
X06947441Y08495627D01*
X06947814Y08497500D01*
X06947441Y08499373D01*
X06946381Y08500961D01*
X06944793Y08502021D01*
X06942920Y08502394D01*
X06941163Y08502045D01*
X06940969Y08502073D01*
X06939893Y08502777D01*
Y08507101D01*
X06939750Y08507816D01*
X06939345Y08508422D01*
X06938739Y08508828D01*
X06938024Y08508970D01*
D02*
G37*
G36*
X06884189Y08491880D02*
X06876739D01*
X06875748Y08491470D01*
X06875338Y08490479D01*
Y08485529D01*
X06875748Y08484537D01*
X06876739Y08484127D01*
X06878522D01*
Y08481338D01*
X06876244D01*
X06875249Y08480926D01*
X06874837Y08479931D01*
Y08473991D01*
X06875249Y08472996D01*
X06876244Y08472584D01*
X06884684D01*
X06885679Y08472996D01*
X06886091Y08473991D01*
Y08479931D01*
X06885679Y08480926D01*
X06884684Y08481338D01*
X06882407D01*
Y08484127D01*
X06884189D01*
X06885180Y08484537D01*
X06885591Y08485529D01*
Y08490479D01*
X06885180Y08491470D01*
X06884189Y08491880D01*
D02*
G37*
G36*
X07120070Y08485854D02*
X07117520Y08485519D01*
X07115143Y08484534D01*
X07113102Y08482968D01*
X07111536Y08480927D01*
X07110552Y08478550D01*
X07110216Y08476000D01*
Y08466000D01*
X07110552Y08463450D01*
X07111536Y08461073D01*
X07113102Y08459032D01*
X07115143Y08457466D01*
X07117520Y08456481D01*
X07120070Y08456146D01*
X07122620Y08456481D01*
X07124997Y08457466D01*
X07127038Y08459032D01*
X07128604Y08461073D01*
X07129589Y08463450D01*
X07129924Y08466000D01*
Y08476000D01*
X07129589Y08478550D01*
X07128604Y08480927D01*
X07127038Y08482968D01*
X07124997Y08484534D01*
X07122620Y08485519D01*
X07120070Y08485854D01*
D02*
G37*
G36*
X06740000D02*
X06737449Y08485519D01*
X06735073Y08484534D01*
X06733032Y08482968D01*
X06731466Y08480927D01*
X06730482Y08478550D01*
X06730146Y08476000D01*
Y08466000D01*
X06730482Y08463450D01*
X06731466Y08461073D01*
X06733032Y08459032D01*
X06735073Y08457466D01*
X06737449Y08456481D01*
X06740000Y08456146D01*
X06742551Y08456481D01*
X06744927Y08457466D01*
X06746968Y08459032D01*
X06748534Y08461073D01*
X06749518Y08463450D01*
X06749854Y08466000D01*
Y08476000D01*
X06749518Y08478550D01*
X06748534Y08480927D01*
X06746968Y08482968D01*
X06744927Y08484534D01*
X06742551Y08485519D01*
X06740000Y08485854D01*
D02*
G37*
G36*
X06884684Y08440973D02*
X06881480D01*
Y08437435D01*
X06886268D01*
Y08439388D01*
X06886148Y08439995D01*
X06885804Y08440509D01*
X06885291Y08440852D01*
X06884684Y08440973D01*
D02*
G37*
G36*
X06879448D02*
X06876244D01*
X06875638Y08440852D01*
X06875124Y08440509D01*
X06874780Y08439995D01*
X06874659Y08439388D01*
Y08437435D01*
X06879448D01*
Y08440973D01*
D02*
G37*
G36*
X06886268Y08435403D02*
X06881480D01*
Y08431864D01*
X06884684D01*
X06885291Y08431985D01*
X06885804Y08432328D01*
X06886148Y08432842D01*
X06886268Y08433448D01*
Y08435403D01*
D02*
G37*
G36*
X06879448D02*
X06874659D01*
Y08433448D01*
X06874780Y08432842D01*
X06875124Y08432328D01*
X06875638Y08431985D01*
X06876244Y08431864D01*
X06879448D01*
Y08435403D01*
D02*
G37*
G36*
X06942920Y08432394D02*
X06941047Y08432021D01*
X06939934Y08431277D01*
X06938869D01*
X06938739Y08431364D01*
X06938024Y08431506D01*
X06931589D01*
X06930874Y08431364D01*
X06930268Y08430959D01*
X06929863Y08430353D01*
X06929720Y08429638D01*
Y08417703D01*
X06929863Y08416988D01*
X06930268Y08416382D01*
X06930874Y08415977D01*
X06931589Y08415835D01*
X06938024D01*
X06938739Y08415977D01*
X06939345Y08416382D01*
X06939750Y08416988D01*
X06939893Y08417703D01*
Y08422223D01*
X06940969Y08422927D01*
X06941163Y08422955D01*
X06942920Y08422606D01*
X06944793Y08422979D01*
X06946381Y08424039D01*
X06947441Y08425627D01*
X06947814Y08427500D01*
X06947441Y08429373D01*
X06946381Y08430961D01*
X06944793Y08432021D01*
X06942920Y08432394D01*
D02*
G37*
%LPD*%
G36*
X07107253Y08600376D02*
X07110647Y08598970D01*
X07113701Y08596930D01*
X07114999Y08595632D01*
X07116165Y08594465D01*
Y08594465D01*
X07116637Y08594038D01*
X07117693Y08593331D01*
X07118868Y08592845D01*
X07120115Y08592597D01*
X07120750Y08592566D01*
Y08566286D01*
X07119852Y08565388D01*
X07117241Y08565388D01*
X07117241Y08565388D01*
X07116802Y08565366D01*
X07115941Y08565195D01*
X07115131Y08564859D01*
X07114401Y08564371D01*
X07114075Y08564077D01*
X07114075Y08564077D01*
X07113292Y08563293D01*
X07111449Y08562061D01*
X07109401Y08561213D01*
X07107227Y08560781D01*
X07106119Y08560781D01*
X07077166Y08560781D01*
X07077166Y08560780D01*
X07076448Y08560745D01*
X07075038Y08560464D01*
X07073710Y08559915D01*
X07072516Y08559116D01*
X07071500Y08558100D01*
X07070701Y08556905D01*
X07070151Y08555577D01*
X07069871Y08554168D01*
X07069835Y08553449D01*
X07069835Y08534562D01*
X07069870Y08533152D01*
X07070146Y08530347D01*
X07070696Y08527583D01*
X07071514Y08524886D01*
X07072593Y08522281D01*
X07073922Y08519796D01*
X07075487Y08517452D01*
X07077275Y08515273D01*
X07078248Y08514253D01*
X07102491Y08490010D01*
X07102491Y08442961D01*
X07053787Y08442960D01*
X07053787Y08442960D01*
X07053787Y08442960D01*
X07052947Y08443801D01*
X07051112Y08445636D01*
X07046311Y08451486D01*
X07042106Y08457778D01*
X07038539Y08464452D01*
X07035643Y08471443D01*
X07033447Y08478685D01*
X07031970Y08486107D01*
X07031228Y08493638D01*
Y08497422D01*
X07031228Y08601092D01*
X07101815Y08601093D01*
X07101815Y08601093D01*
X07101815Y08601093D01*
X07103651Y08601093D01*
X07107253Y08600376D01*
D02*
G37*
%LPC*%
G36*
X06858137Y08506460D02*
X06854598D01*
Y08501672D01*
X06856553D01*
X06857159Y08501792D01*
X06857673Y08502136D01*
X06858016Y08502650D01*
X06858137Y08503256D01*
Y08506460D01*
D02*
G37*
G36*
X06852567D02*
X06849028D01*
Y08503256D01*
X06849149Y08502650D01*
X06849492Y08502136D01*
X06850006Y08501792D01*
X06850613Y08501672D01*
X06852567D01*
Y08506460D01*
D02*
G37*
G36*
X06766432Y08499960D02*
X06764973D01*
Y08495672D01*
X06768012D01*
Y08498381D01*
X06767892Y08498986D01*
X06767549Y08499498D01*
X06767037Y08499840D01*
X06766432Y08499960D01*
D02*
G37*
G36*
X06762941D02*
X06761483D01*
X06760878Y08499840D01*
X06760366Y08499498D01*
X06760023Y08498986D01*
X06759903Y08498381D01*
Y08495672D01*
X06762941D01*
Y08499960D01*
D02*
G37*
G36*
X06768012Y08493640D02*
X06764973D01*
Y08489352D01*
X06766432D01*
X06767037Y08489472D01*
X06767549Y08489814D01*
X06767892Y08490327D01*
X06768012Y08490931D01*
Y08493640D01*
D02*
G37*
G36*
X06762941D02*
X06759903D01*
Y08490931D01*
X06760023Y08490327D01*
X06760366Y08489814D01*
X06760878Y08489472D01*
X06761483Y08489352D01*
X06762941D01*
Y08493640D01*
D02*
G37*
G36*
X06766927Y08486918D02*
X06764974D01*
Y08482130D01*
X06768512D01*
Y08485333D01*
X06768391Y08485940D01*
X06768048Y08486454D01*
X06767534Y08486797D01*
X06766927Y08486918D01*
D02*
G37*
G36*
X06762942D02*
X06760988D01*
X06760381Y08486797D01*
X06759867Y08486454D01*
X06759524Y08485940D01*
X06759403Y08485333D01*
Y08482130D01*
X06762942D01*
Y08486918D01*
D02*
G37*
G36*
X06768512Y08480098D02*
X06764974D01*
Y08475309D01*
X06766927D01*
X06767534Y08475430D01*
X06768048Y08475773D01*
X06768391Y08476287D01*
X06768512Y08476893D01*
Y08480098D01*
D02*
G37*
G36*
X06762942D02*
X06759403D01*
Y08476893D01*
X06759524Y08476287D01*
X06759867Y08475773D01*
X06760381Y08475430D01*
X06760988Y08475309D01*
X06762942D01*
Y08480098D01*
D02*
G37*
G36*
X06766432Y08472875D02*
X06764973D01*
Y08468587D01*
X06768012D01*
Y08471296D01*
X06767892Y08471901D01*
X06767549Y08472413D01*
X06767037Y08472755D01*
X06766432Y08472875D01*
D02*
G37*
G36*
X06762941D02*
X06761483D01*
X06760878Y08472755D01*
X06760366Y08472413D01*
X06760023Y08471901D01*
X06759903Y08471296D01*
Y08468587D01*
X06762941D01*
Y08472875D01*
D02*
G37*
G36*
X06768012Y08466555D02*
X06764973D01*
Y08462267D01*
X06766432D01*
X06767037Y08462387D01*
X06767549Y08462729D01*
X06767892Y08463242D01*
X06768012Y08463846D01*
Y08466555D01*
D02*
G37*
G36*
X06762941D02*
X06759903D01*
Y08463846D01*
X06760023Y08463242D01*
X06760366Y08462729D01*
X06760878Y08462387D01*
X06761483Y08462267D01*
X06762941D01*
Y08466555D01*
D02*
G37*
G36*
X06766927Y08459833D02*
X06764974D01*
Y08455045D01*
X06768512D01*
Y08458248D01*
X06768391Y08458855D01*
X06768048Y08459369D01*
X06767534Y08459713D01*
X06766927Y08459833D01*
D02*
G37*
G36*
X06762942D02*
X06760988D01*
X06760381Y08459713D01*
X06759867Y08459369D01*
X06759524Y08458855D01*
X06759403Y08458248D01*
Y08455045D01*
X06762942D01*
Y08459833D01*
D02*
G37*
G36*
X06768512Y08453013D02*
X06764974D01*
Y08448224D01*
X06766927D01*
X06767534Y08448345D01*
X06768048Y08448688D01*
X06768391Y08449202D01*
X06768512Y08449808D01*
Y08453013D01*
D02*
G37*
G36*
X06762942D02*
X06759403D01*
Y08449808D01*
X06759524Y08449202D01*
X06759867Y08448688D01*
X06760381Y08448345D01*
X06760988Y08448224D01*
X06762942D01*
Y08453013D01*
D02*
G37*
G36*
X06845560Y08434973D02*
X06844102D01*
Y08430684D01*
X06847139D01*
Y08433394D01*
X06847019Y08433998D01*
X06846677Y08434510D01*
X06846165Y08434852D01*
X06845560Y08434973D01*
D02*
G37*
G36*
X06842069D02*
X06840610D01*
X06840005Y08434852D01*
X06839493Y08434510D01*
X06839151Y08433998D01*
X06839031Y08433394D01*
Y08430684D01*
X06842069D01*
Y08434973D01*
D02*
G37*
G36*
X06781428Y08459656D02*
X06775488D01*
X06774493Y08459243D01*
X06774080Y08458248D01*
Y08449808D01*
X06774493Y08448813D01*
X06775488Y08448401D01*
X06781428D01*
X06782422Y08448813D01*
X06782834Y08449808D01*
Y08454019D01*
X06787565D01*
X06787914Y08453494D01*
X06788078Y08453137D01*
Y08452285D01*
X06787914Y08451927D01*
X06787184Y08450834D01*
X06786911Y08449461D01*
X06787184Y08448088D01*
X06787962Y08446923D01*
X06787850Y08445695D01*
X06787173Y08444904D01*
X06782048D01*
X06781924Y08445202D01*
X06780933Y08445613D01*
X06775983D01*
X06774991Y08445202D01*
X06774581Y08444211D01*
Y08439340D01*
X06774355Y08439294D01*
X06773724Y08438873D01*
X06770698Y08435847D01*
X06768445D01*
X06767834Y08436761D01*
Y08444211D01*
X06767424Y08445202D01*
X06766432Y08445613D01*
X06761483D01*
X06760491Y08445202D01*
X06760081Y08444211D01*
Y08436761D01*
X06760374Y08436054D01*
X06757679Y08433359D01*
X06757258Y08432729D01*
X06757111Y08431986D01*
Y08413951D01*
X06757258Y08413208D01*
X06757679Y08412578D01*
X06758730Y08411528D01*
X06759360Y08411107D01*
X06759581Y08411063D01*
Y08408681D01*
X06759993Y08407686D01*
X06760988Y08407274D01*
X06766927D01*
X06767922Y08407686D01*
X06768335Y08408681D01*
Y08417121D01*
X06767922Y08418116D01*
X06766927Y08418528D01*
X06760995D01*
Y08421317D01*
X06766927D01*
X06767922Y08421729D01*
X06768335Y08422723D01*
Y08431163D01*
X06768868Y08431962D01*
X06771502D01*
X06772245Y08432110D01*
X06772876Y08432531D01*
X06775786Y08435441D01*
X06775983Y08435359D01*
X06780933D01*
X06781924Y08435770D01*
X06782335Y08436761D01*
Y08441019D01*
X06787565D01*
X06787962Y08440423D01*
X06789127Y08439645D01*
X06790500Y08439372D01*
X06800000D01*
X06801373Y08439645D01*
X06802538Y08440423D01*
X06803316Y08441588D01*
X06803589Y08442961D01*
X06803316Y08444334D01*
X06802538Y08445499D01*
X06802650Y08446727D01*
X06803327Y08447518D01*
X06804695D01*
X06805182Y08447032D01*
Y08440244D01*
X06802169Y08437231D01*
X06801748Y08436601D01*
X06801600Y08435858D01*
Y08434795D01*
X06801068D01*
X06800076Y08434385D01*
X06799666Y08433394D01*
Y08431611D01*
X06796877D01*
Y08433389D01*
X06796465Y08434384D01*
X06795470Y08434796D01*
X06787030D01*
X06786035Y08434384D01*
X06785623Y08433389D01*
Y08432361D01*
X06781934D01*
X06781428Y08432571D01*
X06775488D01*
X06774493Y08432158D01*
X06774080Y08431163D01*
Y08422723D01*
X06774493Y08421729D01*
X06775488Y08421317D01*
X06776516D01*
Y08418528D01*
X06775488D01*
X06774493Y08418116D01*
X06774080Y08417121D01*
Y08408681D01*
X06774493Y08407686D01*
X06775488Y08407274D01*
X06781428D01*
X06782422Y08407686D01*
X06782834Y08408681D01*
Y08417121D01*
X06782422Y08418116D01*
X06781428Y08418528D01*
X06780400D01*
Y08421317D01*
X06781428D01*
X06782422Y08421729D01*
X06782834Y08422723D01*
Y08428476D01*
X06785623D01*
Y08427448D01*
X06786035Y08426453D01*
X06787030Y08426041D01*
X06795470D01*
X06796465Y08426453D01*
X06796877Y08427448D01*
Y08427726D01*
X06799666D01*
Y08425944D01*
X06800076Y08424952D01*
X06801068Y08424542D01*
X06806017D01*
X06807009Y08424952D01*
X06807419Y08425944D01*
Y08433394D01*
X06807009Y08434385D01*
X06806729Y08434501D01*
X06806400Y08435969D01*
X06807929Y08437498D01*
X06826187D01*
X06826643Y08437042D01*
Y08434795D01*
X06826110D01*
X06825119Y08434385D01*
X06824708Y08433394D01*
Y08425944D01*
X06825119Y08424952D01*
X06826110Y08424542D01*
X06831060D01*
X06832051Y08424952D01*
X06832462Y08425944D01*
Y08433394D01*
X06832051Y08434385D01*
X06831060Y08434795D01*
X06830527D01*
Y08437847D01*
X06830380Y08438590D01*
X06829958Y08439220D01*
X06828365Y08440813D01*
X06827736Y08441234D01*
X06826992Y08441382D01*
X06809067D01*
Y08447836D01*
X06808919Y08448580D01*
X06808498Y08449210D01*
X06806874Y08450834D01*
X06806243Y08451255D01*
X06805500Y08451403D01*
X06802936D01*
X06802585Y08451927D01*
X06802422Y08452285D01*
Y08453137D01*
X06802585Y08453494D01*
X06803316Y08454587D01*
X06803589Y08455961D01*
X06803316Y08457335D01*
X06802538Y08458499D01*
X06801373Y08459277D01*
X06800000Y08459550D01*
X06790500D01*
X06789127Y08459277D01*
X06787962Y08458499D01*
X06787565Y08457903D01*
X06782834D01*
Y08458248D01*
X06782422Y08459243D01*
X06781428Y08459656D01*
D02*
G37*
G36*
X06847139Y08428652D02*
X06844102D01*
Y08424364D01*
X06845560D01*
X06846165Y08424484D01*
X06846677Y08424827D01*
X06847019Y08425339D01*
X06847139Y08425944D01*
Y08428652D01*
D02*
G37*
G36*
X06842069D02*
X06839031D01*
Y08425944D01*
X06839151Y08425339D01*
X06839493Y08424827D01*
X06840005Y08424484D01*
X06840610Y08424364D01*
X06842069D01*
Y08428652D01*
D02*
G37*
G36*
X06806017Y08421752D02*
X06801068D01*
X06800076Y08421342D01*
X06799666Y08420351D01*
Y08418568D01*
X06796877D01*
Y08418889D01*
X06796465Y08419883D01*
X06795470Y08420295D01*
X06787030D01*
X06786035Y08419883D01*
X06785623Y08418889D01*
Y08412949D01*
X06786035Y08411954D01*
X06787030Y08411541D01*
X06795470D01*
X06796465Y08411954D01*
X06796877Y08412949D01*
Y08414684D01*
X06799666D01*
Y08412901D01*
X06800076Y08411910D01*
X06801068Y08411499D01*
X06806017D01*
X06807009Y08411910D01*
X06807419Y08412901D01*
Y08420351D01*
X06807009Y08421342D01*
X06806017Y08421752D01*
D02*
G37*
%LPD*%
D10*
X07078467Y08466500D02*
D03*
X06969307D02*
D03*
D11*
X07088108Y08570059D02*
D03*
Y08541558D02*
D03*
X07088108Y08585617D02*
D03*
Y08614117D02*
D03*
X06915250Y08573934D02*
D03*
Y08602434D02*
D03*
X06884208Y08573934D02*
D03*
Y08602434D02*
D03*
D12*
X06880464Y08502504D02*
D03*
Y08488004D02*
D03*
D13*
X06803542Y08429669D02*
D03*
X06818043D02*
D03*
X06843085Y08429669D02*
D03*
X06828585D02*
D03*
X06803542Y08416626D02*
D03*
X06818043D02*
D03*
X06801998Y08508303D02*
D03*
X06816498D02*
D03*
X06776955D02*
D03*
X06791455D02*
D03*
X06763958Y08467571D02*
D03*
X06778458D02*
D03*
X06763958Y08440486D02*
D03*
X06778458D02*
D03*
X06763958Y08494656D02*
D03*
X06778458D02*
D03*
D14*
X06791250Y08415919D02*
D03*
Y08430419D02*
D03*
X06880464Y08436418D02*
D03*
Y08450919D02*
D03*
Y08462461D02*
D03*
Y08476961D02*
D03*
D15*
X06853583Y08507476D02*
D03*
X06868083D02*
D03*
X06827540Y08507803D02*
D03*
X06842040D02*
D03*
X06763958Y08454028D02*
D03*
X06778458D02*
D03*
X06763958Y08426943D02*
D03*
X06778458D02*
D03*
X06763958Y08481113D02*
D03*
X06778458D02*
D03*
X06763958Y08412901D02*
D03*
X06778458D02*
D03*
D16*
X06812000Y08620854D02*
D03*
Y08537354D02*
D03*
D17*
X07050057Y08589559D02*
D03*
X06966557D02*
D03*
D18*
X06854250Y08442961D02*
D03*
Y08449461D02*
D03*
Y08455961D02*
D03*
Y08462461D02*
D03*
Y08468961D02*
D03*
Y08475461D02*
D03*
Y08481961D02*
D03*
Y08488461D02*
D03*
X06795250Y08442961D02*
D03*
Y08449461D02*
D03*
Y08455961D02*
D03*
Y08462461D02*
D03*
Y08468961D02*
D03*
Y08475461D02*
D03*
Y08481961D02*
D03*
Y08488461D02*
D03*
D19*
X06817130Y08458091D02*
D03*
Y08473331D02*
D03*
X06832370Y08458091D02*
D03*
Y08473331D02*
D03*
D20*
X06895690Y08557324D02*
D03*
X06909153D02*
D03*
X06922361D02*
D03*
X06935823D02*
D03*
X06934807Y08501133D02*
D03*
X06922106D02*
D03*
X06909407D02*
D03*
X06896707D02*
D03*
X06895690Y08479861D02*
D03*
X06909153D02*
D03*
X06922361D02*
D03*
X06935823D02*
D03*
X06934807Y08423671D02*
D03*
X06922106D02*
D03*
X06909407D02*
D03*
X06896707D02*
D03*
D21*
X06755625Y08509400D02*
D03*
X06757625D02*
D03*
D22*
X06877050Y08450919D02*
Y08455264D01*
X06778458Y08430419D02*
X06791250D01*
X06778458Y08492050D02*
X06784541D01*
X06775098Y08437500D02*
X06778458D01*
Y08442961D02*
X06795250D01*
X06778458Y08477750D02*
X06783000D01*
X06880464Y08476961D02*
Y08488004D01*
X06816498Y08511000D02*
X06827540D01*
X06874689Y08457625D02*
X06877050Y08455264D01*
X06864174Y08457625D02*
X06874689D01*
X06862509Y08455961D02*
X06864174Y08457625D01*
X06854250Y08455961D02*
X06862509D01*
X06877050Y08450919D02*
X06880464D01*
X06795214Y08488497D02*
Y08491754D01*
X06791455Y08495513D02*
X06795214Y08491754D01*
X06791455Y08495513D02*
Y08508303D01*
X06827540Y08491942D02*
Y08507803D01*
Y08491942D02*
X06831022Y08488461D01*
X06854250D01*
X06778458Y08477750D02*
Y08481113D01*
Y08467571D02*
X06779847Y08468961D01*
X06795250D01*
X06778458Y08454028D02*
X06780390Y08455961D01*
X06795250D01*
X06778458Y08440486D02*
Y08442961D01*
X06795250Y08449461D02*
X06805500D01*
X06792000Y08429669D02*
X06803542D01*
X06791250Y08430419D02*
X06792000Y08429669D01*
X06778458Y08412901D02*
Y08426943D01*
Y08430419D01*
X06763958Y08426943D02*
Y08432851D01*
X06765011Y08433904D01*
X06791250Y08415919D02*
X06791957Y08416626D01*
X06803542D01*
X06795214Y08488497D02*
X06795250Y08488461D01*
X06828585Y08429669D02*
Y08437847D01*
X06778458Y08492050D02*
Y08494656D01*
X06787482Y08481961D02*
X06795250D01*
X06784541Y08492050D02*
X06786377Y08490214D01*
X06786345Y08490182D02*
X06786377Y08490214D01*
Y08490214D01*
X06786345Y08483098D02*
Y08490182D01*
Y08483098D02*
X06787482Y08481961D01*
X06783000Y08477750D02*
X06785289Y08475461D01*
X06795250D01*
X06827540Y08507803D02*
Y08511000D01*
X06816498Y08508303D02*
Y08511000D01*
X06778458Y08437500D02*
Y08440486D01*
X06765011Y08433904D02*
X06771502D01*
X06775098Y08437500D01*
X06762750Y08439279D02*
X06763958Y08440486D01*
X06805500Y08449461D02*
X06807125Y08447836D01*
X06803542Y08429669D02*
Y08435858D01*
X06807125Y08439440D01*
Y08447836D01*
Y08439440D02*
X06826992D01*
X06828585Y08437847D01*
X06762750Y08435683D02*
Y08439279D01*
X06760103Y08412901D02*
X06763958D01*
X06759053Y08431986D02*
X06762750Y08435683D01*
X06759053Y08413951D02*
X06760103Y08412901D01*
X06759053Y08413951D02*
Y08431986D01*
D23*
X06877812Y08498124D02*
Y08502504D01*
X06871131Y08484131D02*
Y08491442D01*
X06862461Y08475461D02*
X06871131Y08484131D01*
Y08491442D02*
X06877812Y08498124D01*
Y08502504D02*
X06880464D01*
X07009130Y08406236D02*
Y08409432D01*
X07007754Y08404860D02*
X07009130Y08406236D01*
X06820390Y08404860D02*
X07007754D01*
X06854250Y08475461D02*
X06862461D01*
X06818043Y08407208D02*
Y08416626D01*
Y08407208D02*
X06820390Y08404860D01*
X06818043Y08416626D02*
Y08429669D01*
D24*
X06854250Y08462461D02*
X06880464D01*
X06897211D01*
X06854250Y08468961D02*
X06867214D01*
X06854250Y08449461D02*
X06867214D01*
X06854214Y08468961D02*
X06854250D01*
D25*
X06934807Y08497500D02*
X06942920D01*
X06934807Y08427500D02*
X06942920D01*
X06934807Y08423671D02*
Y08427500D01*
Y08497500D02*
Y08501133D01*
Y08501273D01*
D26*
X06864461Y08481961D02*
X06868083Y08485583D01*
X06854250Y08481961D02*
X06864461D01*
X06868083Y08485583D02*
Y08507476D01*
D27*
Y08516000D01*
X06842040Y08509053D02*
Y08515000D01*
X06801998Y08509553D02*
Y08515000D01*
X06776955Y08509553D02*
Y08515000D01*
D28*
X07120070Y08543000D02*
D03*
Y08579000D02*
D03*
Y08471000D02*
D03*
X06740000Y08543000D02*
D03*
Y08579000D02*
D03*
Y08471000D02*
D03*
D29*
X07120070Y08507000D02*
D03*
X06740000D02*
D03*
D30*
X06700000Y08420000D02*
D03*
X07160000D02*
D03*
X07160000Y08630000D02*
D03*
X06700000Y08630000D02*
D03*
D31*
X07156563Y08498000D02*
D03*
Y08552000D02*
D03*
X06705362Y08498000D02*
D03*
X06704346Y08552000D02*
D03*
D32*
X06880004Y08550005D02*
D03*
Y08540005D02*
D03*
X06870004Y08550005D02*
D03*
Y08540005D02*
D03*
X06860004Y08550005D02*
D03*
Y08540005D02*
D03*
X06850004Y08550005D02*
D03*
Y08540005D02*
D03*
X06840004Y08550005D02*
D03*
Y08540005D02*
D03*
X06830004Y08550005D02*
D03*
Y08540005D02*
D03*
X06790004Y08550005D02*
D03*
Y08540005D02*
D03*
X06780004Y08550005D02*
D03*
Y08540005D02*
D03*
X06770004Y08550005D02*
D03*
Y08540005D02*
D03*
X06760004Y08550005D02*
D03*
Y08540005D02*
D03*
X07009130Y08409940D02*
D03*
X06751574Y08513064D02*
D03*
X07008008Y08520010D02*
D03*
Y08512010D02*
D03*
X07000008Y08520010D02*
D03*
Y08512010D02*
D03*
X06992008Y08520010D02*
D03*
Y08512010D02*
D03*
X06984008Y08520010D02*
D03*
Y08512010D02*
D03*
X06976008Y08520010D02*
D03*
Y08512010D02*
D03*
X06968008Y08520010D02*
D03*
Y08512010D02*
D03*
X06990080Y08422800D02*
D03*
Y08412640D02*
D03*
X06979920Y08422800D02*
D03*
Y08412640D02*
D03*
X06969760Y08422800D02*
D03*
Y08412640D02*
D03*
X06959600Y08422800D02*
D03*
Y08412640D02*
D03*
X06949440Y08422800D02*
D03*
Y08412640D02*
D03*
X06939280D02*
D03*
X06929120D02*
D03*
X06918960D02*
D03*
X06908800D02*
D03*
X06898640D02*
D03*
X06888480Y08422800D02*
D03*
Y08412640D02*
D03*
X06878320Y08422800D02*
D03*
Y08412640D02*
D03*
X06868160Y08422800D02*
D03*
Y08412640D02*
D03*
X06858000Y08422800D02*
D03*
Y08412640D02*
D03*
X06751574Y08500920D02*
D03*
X07091908Y08506986D02*
D03*
X07103931D02*
D03*
X07098000D02*
D03*
X06785500Y08462461D02*
D03*
X07103931Y08519147D02*
D03*
X07098000D02*
D03*
Y08513000D02*
D03*
X07103931D02*
D03*
X07091908D02*
D03*
Y08519147D02*
D03*
X06813320Y08465711D02*
D03*
X06824750Y08454281D02*
D03*
Y08477141D02*
D03*
X06836180Y08465711D02*
D03*
X06770560Y08446960D02*
D03*
Y08467280D02*
D03*
Y08487600D02*
D03*
Y08497760D02*
D03*
X06801040D02*
D03*
X06811200Y08416480D02*
D03*
Y08426640D02*
D03*
Y08487600D02*
D03*
Y08497760D02*
D03*
X06821360Y08446960D02*
D03*
Y08487600D02*
D03*
Y08497760D02*
D03*
X06831520Y08416480D02*
D03*
Y08446960D02*
D03*
X06841680Y08416480D02*
D03*
Y08446960D02*
D03*
Y08457120D02*
D03*
Y08477440D02*
D03*
Y08497760D02*
D03*
X06851840D02*
D03*
X06766560Y08636000D02*
D03*
X06786880D02*
D03*
X06827520D02*
D03*
X06847840D02*
D03*
X06868160D02*
D03*
X06888480D02*
D03*
X06908800D02*
D03*
X06929120D02*
D03*
X06949440D02*
D03*
X06969760D02*
D03*
X06990080D02*
D03*
X07010400D02*
D03*
X07030720D02*
D03*
X07051040D02*
D03*
X07071360D02*
D03*
X07091680D02*
D03*
X06751544Y08507000D02*
D03*
D33*
X06867214Y08468961D02*
D03*
X06942920Y08427500D02*
D03*
Y08497500D02*
D03*
X06867214Y08449461D02*
D03*
D34*
X06824750Y08465711D02*
D03*
M02*
