G04 Layer_Color=16777215*
%FSAX44Y44*%
%MOMM*%
G71*
G01*
G75*
%ADD22C,0.1270*%
%ADD27C,0.2540*%
%ADD35C,0.1016*%
%ADD36C,0.2500*%
G36*
X06774758Y08525978D02*
X06766008Y08520978D01*
Y08523478D01*
X06748508D01*
Y08528228D01*
X06766008D01*
Y08530978D01*
X06774758Y08525978D01*
D02*
G37*
D22*
X06806250Y08440211D02*
Y08484041D01*
X06813420Y08491211D01*
X06843250D01*
X06806250Y08440211D02*
X06843250D01*
Y08491211D01*
X06867507Y08638480D02*
Y08643558D01*
X06864968Y08641019D01*
X06868353D01*
X06870046Y08638480D02*
Y08641866D01*
X06871739Y08643558D01*
X06873432Y08641866D01*
Y08638480D01*
Y08641019D01*
X06870046D01*
X06880203Y08643558D02*
Y08638480D01*
X06882742D01*
X06883588Y08639327D01*
Y08640173D01*
X06882742Y08641019D01*
X06880203D01*
X06882742D01*
X06883588Y08641866D01*
Y08642712D01*
X06882742Y08643558D01*
X06880203D01*
X06885281Y08641866D02*
Y08639327D01*
X06886128Y08638480D01*
X06888667D01*
Y08641866D01*
X06893745D02*
X06891206D01*
X06890359Y08641019D01*
Y08639327D01*
X06891206Y08638480D01*
X06893745D01*
X06895438D02*
Y08643558D01*
Y08640173D02*
X06897977Y08641866D01*
X06895438Y08640173D02*
X06897977Y08638480D01*
X06905594D02*
Y08643558D01*
X06908134D01*
X06908980Y08642712D01*
Y08641019D01*
X06908134Y08640173D01*
X06905594D01*
X06907288D02*
X06908980Y08638480D01*
X06913212D02*
X06911519D01*
X06910673Y08639327D01*
Y08641019D01*
X06911519Y08641866D01*
X06913212D01*
X06914059Y08641019D01*
Y08640173D01*
X06910673D01*
X06917444Y08636787D02*
X06918290D01*
X06919137Y08637634D01*
Y08641866D01*
X06916598D01*
X06915751Y08641019D01*
Y08639327D01*
X06916598Y08638480D01*
X06919137D01*
X06920829Y08641866D02*
Y08639327D01*
X06921676Y08638480D01*
X06924215D01*
Y08641866D01*
X06925908Y08638480D02*
X06927601D01*
X06926754D01*
Y08643558D01*
X06925908D01*
X06930986Y08641866D02*
X06932679D01*
X06933525Y08641019D01*
Y08638480D01*
X06930986D01*
X06930140Y08639327D01*
X06930986Y08640173D01*
X06933525D01*
X06936065Y08642712D02*
Y08641866D01*
X06935219D01*
X06936911D01*
X06936065D01*
Y08639327D01*
X06936911Y08638480D01*
X06940297D02*
X06941990D01*
X06942836Y08639327D01*
Y08641019D01*
X06941990Y08641866D01*
X06940297D01*
X06939450Y08641019D01*
Y08639327D01*
X06940297Y08638480D01*
X06944529Y08641866D02*
Y08638480D01*
Y08640173D01*
X06945375Y08641019D01*
X06946221Y08641866D01*
X06947068D01*
X06875632Y08507728D02*
Y08512807D01*
X06878171D01*
X06879017Y08511960D01*
Y08510268D01*
X06878171Y08509421D01*
X06875632D01*
X06877324D02*
X06879017Y08507728D01*
X06880710Y08508575D02*
X06881556Y08507728D01*
X06883249D01*
X06884095Y08508575D01*
Y08511960D01*
X06883249Y08512807D01*
X06881556D01*
X06880710Y08511960D01*
Y08511114D01*
X06881556Y08510268D01*
X06884095D01*
X06793271Y08497832D02*
Y08493600D01*
X06794118Y08492754D01*
X06795811D01*
X06796657Y08493600D01*
Y08497832D01*
X06798350Y08492754D02*
X06800043D01*
X06799196D01*
Y08497832D01*
X06798350Y08496985D01*
X06860750Y08425231D02*
X06855672D01*
Y08427770D01*
X06856518Y08428617D01*
X06858211D01*
X06859057Y08427770D01*
Y08425231D01*
Y08426924D02*
X06860750Y08428617D01*
X06855672Y08430309D02*
Y08433695D01*
X06856518D01*
X06859904Y08430309D01*
X06860750D01*
X06853750Y08425339D02*
X06848672D01*
Y08427878D01*
X06849518Y08428724D01*
X06851211D01*
X06852057Y08427878D01*
Y08425339D01*
Y08427032D02*
X06853750Y08428724D01*
X06849518Y08430417D02*
X06848672Y08431264D01*
Y08432957D01*
X06849518Y08433803D01*
X06850364D01*
X06851211Y08432957D01*
X06852057Y08433803D01*
X06852903D01*
X06853750Y08432957D01*
Y08431264D01*
X06852903Y08430417D01*
X06852057D01*
X06851211Y08431264D01*
X06850364Y08430417D01*
X06849518D01*
X06851211Y08431264D02*
Y08432957D01*
X06805639Y08405500D02*
Y08410579D01*
X06808178D01*
X06809025Y08409732D01*
Y08408039D01*
X06808178Y08407193D01*
X06805639D01*
X06807332D02*
X06809025Y08405500D01*
X06814103Y08410579D02*
X06812410Y08409732D01*
X06810718Y08408039D01*
Y08406346D01*
X06811564Y08405500D01*
X06813257D01*
X06814103Y08406346D01*
Y08407193D01*
X06813257Y08408039D01*
X06810718D01*
X06759194Y08436356D02*
X06754116D01*
Y08438895D01*
X06754962Y08439742D01*
X06756655D01*
X06757501Y08438895D01*
Y08436356D01*
Y08438049D02*
X06759194Y08439742D01*
Y08444820D02*
Y08441434D01*
X06755808Y08444820D01*
X06754962D01*
X06754116Y08443973D01*
Y08442281D01*
X06754962Y08441434D01*
X06805487Y08513071D02*
Y08518149D01*
X06808026D01*
X06808873Y08517302D01*
Y08515610D01*
X06808026Y08514763D01*
X06805487D01*
X06807180D02*
X06808873Y08513071D01*
X06813951Y08518149D02*
X06810565D01*
Y08515610D01*
X06812258Y08516456D01*
X06813105D01*
X06813951Y08515610D01*
Y08513917D01*
X06813105Y08513071D01*
X06811412D01*
X06810565Y08513917D01*
X06780617Y08513633D02*
Y08518712D01*
X06783156D01*
X06784003Y08517866D01*
Y08516173D01*
X06783156Y08515327D01*
X06780617D01*
X06782310D02*
X06784003Y08513633D01*
X06788235D02*
Y08518712D01*
X06785696Y08516173D01*
X06789081D01*
X06766927Y08500500D02*
Y08505578D01*
X06769467D01*
X06770313Y08504732D01*
Y08503039D01*
X06769467Y08502193D01*
X06766927D01*
X06768620D02*
X06770313Y08500500D01*
X06772006D02*
X06773699D01*
X06772852D01*
Y08505578D01*
X06772006Y08504732D01*
X06760023Y08463242D02*
X06754945D01*
Y08465781D01*
X06755792Y08466627D01*
X06757484D01*
X06758331Y08465781D01*
Y08463242D01*
Y08464935D02*
X06760023Y08466627D01*
X06755792Y08468320D02*
X06754945Y08469166D01*
Y08470859D01*
X06755792Y08471705D01*
X06756638D01*
X06757484Y08470859D01*
Y08470013D01*
Y08470859D01*
X06758331Y08471705D01*
X06759177D01*
X06760023Y08470859D01*
Y08469166D01*
X06759177Y08468320D01*
X06946306Y08433240D02*
Y08436626D01*
X06945460Y08437473D01*
X06943766D01*
X06942920Y08436626D01*
Y08433240D01*
X06943766Y08432394D01*
X06945460D01*
X06944613Y08434087D02*
X06946306Y08432394D01*
X06945460D02*
X06946306Y08433240D01*
X06951384Y08432394D02*
X06947999D01*
X06951384Y08435779D01*
Y08436626D01*
X06950538Y08437473D01*
X06948845D01*
X06947999Y08436626D01*
X06947491Y08550994D02*
Y08554380D01*
X06946645Y08555226D01*
X06944952D01*
X06944106Y08554380D01*
Y08550994D01*
X06944952Y08550148D01*
X06946645D01*
X06945799Y08551841D02*
X06947491Y08550148D01*
X06946645D02*
X06947491Y08550994D01*
X06949185Y08550148D02*
X06950877D01*
X06950031D01*
Y08555226D01*
X06949185Y08554380D01*
X07055932Y08539173D02*
Y08534094D01*
X07059318D01*
X07061011D02*
X07062703D01*
X07061857D01*
Y08539173D01*
X07061011Y08538326D01*
X06875925Y08615566D02*
X06875079Y08616413D01*
X06873386D01*
X06872540Y08615566D01*
Y08612181D01*
X06873386Y08611335D01*
X06875079D01*
X06875925Y08612181D01*
X06877618Y08611335D02*
X06879311D01*
X06878465D01*
Y08616413D01*
X06877618Y08615566D01*
X06881851D02*
X06882697Y08616413D01*
X06884390D01*
X06885236Y08615566D01*
Y08614720D01*
X06884390Y08613874D01*
X06883543D01*
X06884390D01*
X06885236Y08613027D01*
Y08612181D01*
X06884390Y08611335D01*
X06882697D01*
X06881851Y08612181D01*
X06906406Y08615389D02*
X06905559Y08616235D01*
X06903867D01*
X06903020Y08615389D01*
Y08612003D01*
X06903867Y08611157D01*
X06905559D01*
X06906406Y08612003D01*
X06908098Y08611157D02*
X06909791D01*
X06908945D01*
Y08616235D01*
X06908098Y08615389D01*
X06915716Y08611157D02*
X06912330D01*
X06915716Y08614542D01*
Y08615389D01*
X06914869Y08616235D01*
X06913177D01*
X06912330Y08615389D01*
X06789340Y08408732D02*
X06788493Y08409578D01*
X06786800D01*
X06785954Y08408732D01*
Y08405347D01*
X06786800Y08404500D01*
X06788493D01*
X06789340Y08405347D01*
X06791032Y08404500D02*
X06792725D01*
X06791879D01*
Y08409578D01*
X06791032Y08408732D01*
X06795264Y08404500D02*
X06796957D01*
X06796110D01*
Y08409578D01*
X06795264Y08408732D01*
X06877635Y08430685D02*
X06876789Y08431532D01*
X06875096D01*
X06874250Y08430685D01*
Y08427300D01*
X06875096Y08426453D01*
X06876789D01*
X06877635Y08427300D01*
X06879329Y08426453D02*
X06881021D01*
X06880175D01*
Y08431532D01*
X06879329Y08430685D01*
X06883560D02*
X06884407Y08431532D01*
X06886099D01*
X06886946Y08430685D01*
Y08427300D01*
X06886099Y08426453D01*
X06884407D01*
X06883560Y08427300D01*
Y08430685D01*
X06868727Y08477714D02*
X06867880Y08478561D01*
X06866188D01*
X06865341Y08477714D01*
Y08474329D01*
X06866188Y08473483D01*
X06867880D01*
X06868727Y08474329D01*
X06870419Y08478561D02*
X06873805D01*
Y08477714D01*
X06870419Y08474329D01*
Y08473483D01*
X06859886Y08517775D02*
X06859039Y08518621D01*
X06857346D01*
X06856500Y08517775D01*
Y08514390D01*
X06857346Y08513543D01*
X06859039D01*
X06859886Y08514390D01*
X06861578D02*
X06862425Y08513543D01*
X06864117D01*
X06864964Y08514390D01*
Y08517775D01*
X06864117Y08518621D01*
X06862425D01*
X06861578Y08517775D01*
Y08516929D01*
X06862425Y08516082D01*
X06864964D01*
X06755128Y08412128D02*
X06754282Y08411281D01*
Y08409589D01*
X06755128Y08408742D01*
X06758514D01*
X06759360Y08409589D01*
Y08411281D01*
X06758514Y08412128D01*
X06755128Y08413821D02*
X06754282Y08414667D01*
Y08416360D01*
X06755128Y08417206D01*
X06755974D01*
X06756821Y08416360D01*
Y08415513D01*
Y08416360D01*
X06757667Y08417206D01*
X06758514D01*
X06759360Y08416360D01*
Y08414667D01*
X06758514Y08413821D01*
X06833394Y08518232D02*
X06832547Y08519078D01*
X06830854D01*
X06830008Y08518232D01*
Y08514846D01*
X06830854Y08514000D01*
X06832547D01*
X06833394Y08514846D01*
X06835086Y08518232D02*
X06835933Y08519078D01*
X06837626D01*
X06838472Y08518232D01*
Y08517386D01*
X06837626Y08516539D01*
X06838472Y08515693D01*
Y08514846D01*
X06837626Y08514000D01*
X06835933D01*
X06835086Y08514846D01*
Y08515693D01*
X06835933Y08516539D01*
X06835086Y08517386D01*
Y08518232D01*
X06835933Y08516539D02*
X06837626D01*
X06755171Y08480279D02*
X06754325Y08479433D01*
Y08477740D01*
X06755171Y08476893D01*
X06758557D01*
X06759403Y08477740D01*
Y08479433D01*
X06758557Y08480279D01*
X06759403Y08484511D02*
X06754325D01*
X06756864Y08481972D01*
Y08485358D01*
X06755171Y08453194D02*
X06754325Y08452347D01*
Y08450655D01*
X06755171Y08449808D01*
X06758557D01*
X06759403Y08450655D01*
Y08452347D01*
X06758557Y08453194D01*
X06754325Y08458273D02*
X06755171Y08456580D01*
X06756864Y08454887D01*
X06758557D01*
X06759403Y08455733D01*
Y08457426D01*
X06758557Y08458273D01*
X06757711D01*
X06756864Y08457426D01*
Y08454887D01*
X06755128Y08425992D02*
X06754282Y08425145D01*
Y08423452D01*
X06755128Y08422606D01*
X06758514D01*
X06759360Y08423452D01*
Y08425145D01*
X06758514Y08425992D01*
X06754282Y08431070D02*
Y08427684D01*
X06756821D01*
X06755974Y08429377D01*
Y08430223D01*
X06756821Y08431070D01*
X06758514D01*
X06759360Y08430223D01*
Y08428531D01*
X06758514Y08427684D01*
X07080886Y08634974D02*
X07080039Y08635821D01*
X07078347D01*
X07077500Y08634974D01*
Y08631589D01*
X07078347Y08630742D01*
X07080039D01*
X07080886Y08631589D01*
X07082578Y08630742D02*
X07084271D01*
X07083425D01*
Y08635821D01*
X07082578Y08634974D01*
X07089349Y08630742D02*
Y08635821D01*
X07086810Y08633281D01*
X07090196D01*
X07080886Y08627474D02*
X07080039Y08628321D01*
X07078347D01*
X07077500Y08627474D01*
Y08624089D01*
X07078347Y08623242D01*
X07080039D01*
X07080886Y08624089D01*
X07082578Y08623242D02*
X07084271D01*
X07083425D01*
Y08628321D01*
X07082578Y08627474D01*
X07090196Y08628321D02*
X07086810D01*
Y08625781D01*
X07088503Y08626628D01*
X07089349D01*
X07090196Y08625781D01*
Y08624089D01*
X07089349Y08623242D01*
X07087657D01*
X07086810Y08624089D01*
X06752875Y08518990D02*
X06756260D01*
X06754568D01*
Y08513911D01*
X06757953D02*
X06759646D01*
X06758799D01*
Y08518990D01*
X06757953Y08518143D01*
X07103906Y08577917D02*
Y08573854D01*
X07106953D01*
X07105938Y08575886D01*
Y08576902D01*
X07106953Y08577917D01*
X07108984D01*
X07110000Y08576902D01*
Y08574870D01*
X07108984Y08573854D01*
X07103906Y08579949D02*
X07107969D01*
X07110000Y08581980D01*
X07107969Y08584011D01*
X07103906D01*
X07108984Y08586042D02*
X07110000Y08587058D01*
Y08589090D01*
X07108984Y08590106D01*
X07104922D01*
X07103906Y08589090D01*
Y08587058D01*
X07104922Y08586042D01*
X07105938D01*
X07106953Y08587058D01*
Y08590106D01*
X06727970Y08514432D02*
X06728817Y08515278D01*
Y08516971D01*
X06727970Y08517818D01*
X06724584D01*
X06723738Y08516971D01*
Y08515278D01*
X06724584Y08514432D01*
X06726277D01*
Y08516125D01*
X06723738Y08512739D02*
X06728817D01*
X06723738Y08509354D01*
X06728817D01*
Y08507661D02*
X06723738D01*
Y08505122D01*
X06724584Y08504276D01*
X06727970D01*
X06728817Y08505122D01*
Y08507661D01*
X06728817Y08552861D02*
X06725431D01*
X06723738Y08551168D01*
X06725431Y08549476D01*
X06728817D01*
Y08547783D02*
Y08546090D01*
Y08546937D01*
X06723738D01*
Y08547783D01*
Y08546090D01*
Y08543551D02*
X06728817D01*
X06723738Y08540165D01*
X06728817D01*
X07132120Y08572670D02*
X07135505D01*
X07137198Y08574363D01*
X07135505Y08576055D01*
X07132120D01*
Y08580287D02*
Y08578594D01*
X07132966Y08577748D01*
X07136351D01*
X07137198Y08578594D01*
Y08580287D01*
X07136351Y08581133D01*
X07132966D01*
X07132120Y08580287D01*
Y08582827D02*
X07136351D01*
X07137198Y08583673D01*
Y08585366D01*
X07136351Y08586212D01*
X07132120D01*
Y08587905D02*
Y08591290D01*
Y08589598D01*
X07137198D01*
X06728817Y08484890D02*
X06723738D01*
Y08482351D01*
X06724584Y08481505D01*
X06727970D01*
X06728817Y08482351D01*
Y08484890D01*
X06723738Y08479812D02*
X06727123D01*
X06728817Y08478119D01*
X06727123Y08476426D01*
X06723738D01*
X06726277D01*
Y08479812D01*
X06728817Y08474734D02*
Y08471348D01*
Y08473041D01*
X06723738D01*
Y08469655D02*
X06727123D01*
X06728817Y08467963D01*
X06727123Y08466270D01*
X06723738D01*
X06726277D01*
Y08469655D01*
X07132966Y08507661D02*
X07132120Y08506815D01*
Y08505122D01*
X07132966Y08504276D01*
X07136351D01*
X07137198Y08505122D01*
Y08506815D01*
X07136351Y08507661D01*
X07134659D01*
Y08505969D01*
X07137198Y08509354D02*
X07132120D01*
X07137198Y08512739D01*
X07132120D01*
Y08514432D02*
X07137198D01*
Y08516971D01*
X07136351Y08517818D01*
X07132966D01*
X07132120Y08516971D01*
Y08514432D01*
Y08466270D02*
X07137198D01*
Y08468809D01*
X07136351Y08469655D01*
X07132966D01*
X07132120Y08468809D01*
Y08466270D01*
X07137198Y08471348D02*
X07133812D01*
X07132120Y08473041D01*
X07133812Y08474734D01*
X07137198D01*
X07134659D01*
Y08471348D01*
X07132120Y08476426D02*
Y08479812D01*
Y08478119D01*
X07137198D01*
Y08481505D02*
X07133812D01*
X07132120Y08483198D01*
X07133812Y08484890D01*
X07137198D01*
X07134659D01*
Y08481505D01*
X06750250Y08549365D02*
Y08552750D01*
X06753636Y08549365D01*
X06754482D01*
X06755328Y08550211D01*
Y08551904D01*
X06754482Y08552750D01*
X06750250Y08545132D02*
X06755328D01*
X06752789Y08547672D01*
Y08544286D01*
X06755328Y08542593D02*
X06751943D01*
X06750250Y08540900D01*
X06751943Y08539208D01*
X06755328D01*
X06728817Y08591290D02*
X06725431D01*
X06723738Y08589598D01*
X06725431Y08587905D01*
X06728817D01*
Y08583673D02*
Y08585366D01*
X06727970Y08586212D01*
X06724584D01*
X06723738Y08585366D01*
Y08583673D01*
X06724584Y08582827D01*
X06727970D01*
X06728817Y08583673D01*
Y08581133D02*
X06724584D01*
X06723738Y08580287D01*
Y08578594D01*
X06724584Y08577748D01*
X06728817D01*
Y08576055D02*
Y08572670D01*
Y08574363D01*
X06723738D01*
X07132120Y08540165D02*
X07135505D01*
X07137198Y08541858D01*
X07135505Y08543551D01*
X07132120D01*
Y08545244D02*
Y08546937D01*
Y08546090D01*
X07137198D01*
Y08545244D01*
Y08546937D01*
Y08549476D02*
X07132120D01*
X07137198Y08552861D01*
X07132120D01*
D27*
X06891119Y08495856D02*
G03*
X06891119Y08495856I-00000508J00000000D01*
G01*
Y08418393D02*
G03*
X06891119Y08418393I-00000508J00000000D01*
G01*
D35*
X06758686Y08508384D02*
G03*
X06754622Y08508384I-00002032J-00000147D01*
G01*
X06720000Y08630000D02*
G03*
X06720000Y08630000I-00020000J00000000D01*
G01*
X07180000D02*
G03*
X07180000Y08630000I-00020000J00000000D01*
G01*
X07180000Y08420000D02*
G03*
X07180000Y08420000I-00020000J00000000D01*
G01*
X06720000D02*
G03*
X06720000Y08420000I-00020000J00000000D01*
G01*
X07093887Y08402000D02*
Y08439992D01*
X06953887Y08402000D02*
Y08439992D01*
X07093887Y08493008D02*
Y08531000D01*
X06953887Y08493008D02*
Y08531000D01*
Y08402000D02*
X07093887D01*
X06953887Y08531000D02*
X07093887D01*
X07099858Y08549308D02*
Y08562308D01*
X07076357Y08549308D02*
Y08562308D01*
Y08593367D02*
Y08606367D01*
X07099858Y08593367D02*
Y08606367D01*
X06903500Y08581684D02*
Y08594684D01*
X06927000Y08581684D02*
Y08594684D01*
X06872457Y08581684D02*
Y08594684D01*
X06895958Y08581684D02*
Y08594684D01*
X06883214Y08494254D02*
Y08496254D01*
X06877714Y08494254D02*
Y08496254D01*
X06809792Y08432418D02*
X06811793D01*
X06809792Y08426918D02*
X06811793D01*
X06834835Y08426918D02*
X06836835D01*
X06834835Y08432418D02*
X06836835D01*
X06809792Y08419376D02*
X06811793D01*
X06809792Y08413876D02*
X06811793D01*
X06808248Y08511053D02*
X06810248D01*
X06808248Y08505554D02*
X06810248D01*
X06783205Y08511053D02*
X06785205D01*
X06783205Y08505554D02*
X06785205D01*
X06770208Y08470321D02*
X06772208D01*
X06770208Y08464821D02*
X06772208D01*
X06770208Y08443236D02*
X06772208D01*
X06770208Y08437736D02*
X06772208D01*
X06770208Y08497406D02*
X06772208D01*
X06770208Y08491906D02*
X06772208D01*
X06788000Y08422668D02*
Y08423668D01*
X06794500Y08422668D02*
Y08423668D01*
X06877214Y08443168D02*
Y08444169D01*
X06883714Y08443168D02*
Y08444169D01*
X06860333Y08510726D02*
X06861332D01*
X06860333Y08504226D02*
X06861332D01*
X06834290Y08511053D02*
X06835290D01*
X06834290Y08504553D02*
X06835290D01*
X06877214Y08469211D02*
Y08470211D01*
X06883714Y08469211D02*
Y08470211D01*
X06770707Y08457278D02*
X06771708D01*
X06770707Y08450778D02*
X06771708D01*
X06770707Y08430193D02*
X06771708D01*
X06770707Y08423693D02*
X06771708D01*
X06770707Y08484363D02*
X06771708D01*
X06770707Y08477864D02*
X06771708D01*
X06770707Y08416151D02*
X06771708D01*
X06770707Y08409651D02*
X06771708D01*
X06863500Y08548104D02*
Y08630604D01*
X06825500D02*
X06863500D01*
X06760500D02*
X06798500D01*
X06760500Y08548104D02*
Y08630604D01*
X06825500Y08527604D02*
X06843000D01*
X06863500Y08548104D01*
X06760500D02*
X06781000Y08527604D01*
X06798500D01*
X07059807Y08558558D02*
Y08576058D01*
X07039307Y08538058D02*
X07059807Y08558558D01*
X07039307Y08641058D02*
X07059807Y08620558D01*
Y08603058D02*
Y08620558D01*
X06956807Y08538058D02*
X07039307D01*
X06956807D02*
Y08576058D01*
Y08603058D02*
Y08641058D01*
X07039307D01*
X06944548Y08629564D02*
X06943702Y08630410D01*
X06942009D01*
X06941163Y08629564D01*
Y08626179D01*
X06942009Y08625332D01*
X06943702D01*
X06944548Y08626179D01*
X06946241Y08625332D02*
X06947933D01*
X06947087D01*
Y08630410D01*
X06946241Y08629564D01*
X06953859Y08630410D02*
X06952166Y08629564D01*
X06950473Y08627871D01*
Y08626179D01*
X06951319Y08625332D01*
X06953012D01*
X06953859Y08626179D01*
Y08627025D01*
X06953012Y08627871D01*
X06950473D01*
X06778499Y08639216D02*
X06777652Y08640062D01*
X06775959D01*
X06775113Y08639216D01*
Y08635831D01*
X06775959Y08634984D01*
X06777652D01*
X06778499Y08635831D01*
X06783577Y08634984D02*
X06780191D01*
X06783577Y08638370D01*
Y08639216D01*
X06782731Y08640062D01*
X06781038D01*
X06780191Y08639216D01*
D36*
X06807500Y08491211D02*
G03*
X06807500Y08491211I-00001250J00000000D01*
G01*
M02*
