G04 Layer_Physical_Order=4*
G04 Layer_Color=16711680*
%FSAX44Y44*%
%MOMM*%
G71*
G01*
G75*
%ADD23C,0.1524*%
%ADD25C,0.3810*%
%ADD28O,1.7000X2.7000*%
G04:AMPARAMS|DCode=29|XSize=2.7mm|YSize=1.7mm|CornerRadius=0.425mm|HoleSize=0mm|Usage=FLASHONLY|Rotation=270.000|XOffset=0mm|YOffset=0mm|HoleType=Round|Shape=RoundedRectangle|*
%AMROUNDEDRECTD29*
21,1,2.7000,0.8500,0,0,270.0*
21,1,1.8500,1.7000,0,0,270.0*
1,1,0.8500,-0.4250,-0.9250*
1,1,0.8500,-0.4250,0.9250*
1,1,0.8500,0.4250,0.9250*
1,1,0.8500,0.4250,-0.9250*
%
%ADD29ROUNDEDRECTD29*%
%ADD30C,3.0000*%
%ADD31O,3.2000X2.2000*%
%ADD32C,0.5000*%
%ADD33C,0.6000*%
%ADD34C,0.7000*%
G36*
X07160000Y08645856D02*
X07160000D01*
X07160000D01*
X07161562Y08645856D01*
X07164625Y08645247D01*
X07167511Y08644052D01*
X07170108Y08642317D01*
X07172317Y08640108D01*
X07174052Y08637511D01*
X07175247Y08634625D01*
X07175856Y08631562D01*
X07175856Y08630000D01*
Y08630000D01*
Y08630000D01*
Y08420000D01*
Y08420000D01*
Y08420000D01*
X07175856Y08418438D01*
X07175247Y08415375D01*
X07174052Y08412489D01*
X07172317Y08409892D01*
X07170108Y08407683D01*
X07167511Y08405948D01*
X07164625Y08404753D01*
X07161562Y08404144D01*
X06698438D01*
X06695375Y08404753D01*
X06692489Y08405948D01*
X06689892Y08407683D01*
X06687683Y08409892D01*
X06685948Y08412489D01*
X06684753Y08415375D01*
X06684144Y08418438D01*
X06684144Y08420000D01*
Y08420000D01*
Y08420000D01*
Y08630000D01*
Y08630000D01*
Y08630000D01*
X06684144Y08631562D01*
X06684753Y08634625D01*
X06685948Y08637511D01*
X06687683Y08640108D01*
X06689892Y08642317D01*
X06692489Y08644052D01*
X06695375Y08645247D01*
X06698438Y08645856D01*
X06700000D01*
X07160000Y08645856D01*
D02*
G37*
%LPC*%
G36*
X07120070Y08558389D02*
X07119153Y08558268D01*
X07119140Y08558273D01*
X07119139Y08558273D01*
X07119100Y08558273D01*
X07118978Y08558298D01*
X07118837Y08558298D01*
X07118794Y08558306D01*
X07118754D01*
X07118754Y08558306D01*
X07118619Y08558333D01*
X07118479Y08558333D01*
X07118478Y08558333D01*
X07073827Y08558333D01*
X07024840Y08558333D01*
X06945172Y08558332D01*
X06842826Y08558331D01*
X06805089Y08558331D01*
X06740439Y08558331D01*
X06740439Y08558331D01*
X06740000Y08558389D01*
X06737311Y08558035D01*
X06734805Y08556997D01*
X06732654Y08555346D01*
X06731003Y08553195D01*
X06729965Y08550689D01*
X06729611Y08548000D01*
Y08538000D01*
X06729965Y08535311D01*
X06731003Y08532806D01*
X06732654Y08530654D01*
X06734805Y08529003D01*
X06737311Y08527965D01*
X06740000Y08527611D01*
X06740968Y08527739D01*
X06742382D01*
X06778568Y08527739D01*
X06797533D01*
X06909927Y08527739D01*
X06929921D01*
X07119100Y08527739D01*
X07119100D01*
X07120070Y08527611D01*
X07122759Y08527965D01*
X07125264Y08529003D01*
X07127416Y08530654D01*
X07129067Y08532806D01*
X07130105Y08535311D01*
X07130459Y08538000D01*
Y08548000D01*
X07130105Y08550689D01*
X07129067Y08553195D01*
X07127416Y08555346D01*
X07125264Y08556997D01*
X07122759Y08558035D01*
X07120070Y08558389D01*
D02*
G37*
G36*
X06942920Y08502394D02*
X06941047Y08502021D01*
X06939934Y08501277D01*
X06925190D01*
X06923745Y08500990D01*
X06922519Y08500171D01*
X06895086Y08472739D01*
X06870200D01*
X06869087Y08473483D01*
X06867214Y08473855D01*
X06865341Y08473483D01*
X06863754Y08472421D01*
X06862692Y08470834D01*
X06862320Y08468961D01*
X06862692Y08467088D01*
X06863754Y08465500D01*
X06865341Y08464440D01*
X06867214Y08464067D01*
X06869087Y08464440D01*
X06870200Y08465183D01*
X06896651D01*
X06898096Y08465471D01*
X06899322Y08466290D01*
X06926755Y08493723D01*
X06939934D01*
X06941047Y08492979D01*
X06942920Y08492606D01*
X06944793Y08492979D01*
X06946381Y08494039D01*
X06947441Y08495627D01*
X06947814Y08497500D01*
X06947441Y08499373D01*
X06946381Y08500961D01*
X06944793Y08502021D01*
X06942920Y08502394D01*
D02*
G37*
G36*
X07120070Y08485854D02*
X07117520Y08485519D01*
X07115143Y08484534D01*
X07113102Y08482968D01*
X07111536Y08480927D01*
X07110552Y08478550D01*
X07110216Y08476000D01*
Y08466000D01*
X07110552Y08463450D01*
X07111536Y08461073D01*
X07113102Y08459032D01*
X07115143Y08457466D01*
X07117520Y08456481D01*
X07120070Y08456146D01*
X07122620Y08456481D01*
X07124997Y08457466D01*
X07127038Y08459032D01*
X07128604Y08461073D01*
X07129589Y08463450D01*
X07129924Y08466000D01*
Y08476000D01*
X07129589Y08478550D01*
X07128604Y08480927D01*
X07127038Y08482968D01*
X07124997Y08484534D01*
X07122620Y08485519D01*
X07120070Y08485854D01*
D02*
G37*
G36*
X06740000D02*
X06737449Y08485519D01*
X06735073Y08484534D01*
X06733032Y08482968D01*
X06731466Y08480927D01*
X06730482Y08478550D01*
X06730146Y08476000D01*
Y08466000D01*
X06730482Y08463450D01*
X06731466Y08461073D01*
X06733032Y08459032D01*
X06735073Y08457466D01*
X06737449Y08456481D01*
X06740000Y08456146D01*
X06742551Y08456481D01*
X06744927Y08457466D01*
X06746968Y08459032D01*
X06748534Y08461073D01*
X06749518Y08463450D01*
X06749854Y08466000D01*
Y08476000D01*
X06749518Y08478550D01*
X06748534Y08480927D01*
X06746968Y08482968D01*
X06744927Y08484534D01*
X06742551Y08485519D01*
X06740000Y08485854D01*
D02*
G37*
G36*
X06867214Y08454355D02*
X06865341Y08453983D01*
X06863754Y08452922D01*
X06862692Y08451334D01*
X06862320Y08449461D01*
X06862692Y08447588D01*
X06863754Y08446000D01*
X06865341Y08444940D01*
X06867214Y08444567D01*
X06869087Y08444940D01*
X06870200Y08445684D01*
X06896474D01*
X06917329Y08424829D01*
X06918555Y08424010D01*
X06920000Y08423723D01*
X06939934D01*
X06941047Y08422979D01*
X06942920Y08422606D01*
X06944793Y08422979D01*
X06946381Y08424039D01*
X06947441Y08425627D01*
X06947814Y08427500D01*
X06947441Y08429373D01*
X06946381Y08430961D01*
X06944793Y08432021D01*
X06942920Y08432394D01*
X06941047Y08432021D01*
X06939934Y08431277D01*
X06921565D01*
X06900710Y08452132D01*
X06899485Y08452951D01*
X06898039Y08453239D01*
X06870200D01*
X06869087Y08453983D01*
X06867214Y08454355D01*
D02*
G37*
G36*
X06769523Y08627336D02*
X06768821Y08627197D01*
X06768225Y08626799D01*
X06733308Y08591882D01*
X06733262Y08591813D01*
X06732654Y08591346D01*
X06731003Y08589194D01*
X06729965Y08586689D01*
X06729611Y08584000D01*
Y08574000D01*
X06729965Y08571311D01*
X06731003Y08568806D01*
X06732654Y08566654D01*
X06734805Y08565003D01*
X06737311Y08563965D01*
X06740000Y08563611D01*
X06740959Y08563737D01*
X07119111D01*
X07120070Y08563611D01*
X07122759Y08563965D01*
X07125264Y08565003D01*
X07127416Y08566654D01*
X07129067Y08568806D01*
X07130105Y08571311D01*
X07130459Y08574000D01*
Y08576388D01*
X07132612D01*
X07132756Y08576244D01*
Y08415340D01*
X07129968Y08412552D01*
X07012556D01*
X07012230Y08413040D01*
X07010807Y08413990D01*
X07009130Y08414324D01*
X07007452Y08413990D01*
X07006030Y08413040D01*
X07005079Y08411618D01*
X07004746Y08409940D01*
X07005079Y08408262D01*
X07006030Y08406840D01*
X07007452Y08405889D01*
X07009130Y08405556D01*
X07010807Y08405889D01*
X07012230Y08406840D01*
X07012556Y08407328D01*
X07131050D01*
X07132050Y08407527D01*
X07132897Y08408093D01*
X07137215Y08412411D01*
X07137781Y08413259D01*
X07137980Y08414258D01*
Y08577326D01*
X07137781Y08578326D01*
X07137215Y08579173D01*
X07135541Y08580847D01*
X07134694Y08581414D01*
X07133694Y08581612D01*
X07130459D01*
Y08584000D01*
X07130105Y08586689D01*
X07129067Y08589194D01*
X07127416Y08591346D01*
X07127326Y08591415D01*
X07127273Y08591555D01*
X07127130Y08591708D01*
X07127014Y08591881D01*
X07092099Y08626798D01*
X07091503Y08627196D01*
X07091503D01*
X07091503Y08627196D01*
X07091150Y08627266D01*
X07090801Y08627336D01*
X07090801D01*
X07090801D01*
X06769523Y08627336D01*
D02*
G37*
G36*
X06862318Y08513845D02*
X06757250D01*
X06756548Y08513705D01*
X06755952Y08513307D01*
X06755554Y08512712D01*
X06755415Y08512010D01*
X06755414Y08410448D01*
X06755554Y08409745D01*
X06755952Y08409150D01*
X06756548Y08408752D01*
X06757250Y08408613D01*
X06848348D01*
X06849050Y08408752D01*
X06849646Y08409150D01*
X06850043Y08409745D01*
X06850183Y08410448D01*
Y08488115D01*
X06862318D01*
X06863020Y08488254D01*
X06863616Y08488652D01*
X06864014Y08489247D01*
X06864153Y08489950D01*
Y08512010D01*
X06864014Y08512712D01*
X06863616Y08513307D01*
X06863020Y08513705D01*
X06862318Y08513845D01*
D02*
G37*
%LPD*%
G36*
X07118479Y08556498D02*
X07118619Y08556498D01*
X07118754Y08556471D01*
X07118794D01*
X07118796Y08556471D01*
X07118832Y08556458D01*
X07118847Y08556455D01*
X07119300Y08556294D01*
X07119559Y08556068D01*
X07119717Y08555908D01*
X07120070Y08555318D01*
Y08530300D01*
X07119100Y08529574D01*
X06929921Y08529574D01*
X06909927D01*
X06797533Y08529574D01*
X06778568D01*
X06742382Y08529574D01*
X06740000D01*
X06740000Y08555378D01*
X06740437Y08556491D01*
X06740439Y08556496D01*
X06805089Y08556496D01*
X06842826Y08556497D01*
X06945172Y08556497D01*
X07024840Y08556497D01*
X07073827Y08556498D01*
X07118478Y08556498D01*
X07118479Y08556498D01*
D02*
G37*
G36*
X07090801Y08625500D02*
X07125716Y08590583D01*
X07119919Y08565573D01*
X06739890D01*
X06734606Y08590584D01*
X06769523Y08625501D01*
X07090801Y08625500D01*
D02*
G37*
G36*
X06862318Y08489950D02*
X06848348D01*
Y08410448D01*
X06757250D01*
X06757250Y08512010D01*
X06862318D01*
Y08489950D01*
D02*
G37*
D23*
X07135368Y08414258D02*
Y08577326D01*
X07133694Y08579000D02*
X07135368Y08577326D01*
X07120070Y08579000D02*
X07133694D01*
X07009130Y08409940D02*
X07131050D01*
X07135368Y08414258D01*
D25*
X06867214Y08468961D02*
X06896651D01*
X06925190Y08497500D02*
X06942920D01*
X06896651Y08468961D02*
X06925190Y08497500D01*
X06867214Y08449461D02*
X06898039D01*
X06920000Y08427500D01*
X06942920D01*
D28*
X07120070Y08543000D02*
D03*
Y08579000D02*
D03*
Y08471000D02*
D03*
X06740000Y08543000D02*
D03*
Y08579000D02*
D03*
Y08471000D02*
D03*
D29*
X07120070Y08507000D02*
D03*
X06740000D02*
D03*
D30*
X06700000Y08420000D02*
D03*
X07160000D02*
D03*
X07160000Y08630000D02*
D03*
X06700000Y08630000D02*
D03*
D31*
X07156563Y08498000D02*
D03*
Y08552000D02*
D03*
X06705362Y08498000D02*
D03*
X06704346Y08552000D02*
D03*
D32*
X06880004Y08550005D02*
D03*
Y08540005D02*
D03*
X06870004Y08550005D02*
D03*
Y08540005D02*
D03*
X06860004Y08550005D02*
D03*
Y08540005D02*
D03*
X06850004Y08550005D02*
D03*
Y08540005D02*
D03*
X06840004Y08550005D02*
D03*
Y08540005D02*
D03*
X06830004Y08550005D02*
D03*
Y08540005D02*
D03*
X06790004Y08550005D02*
D03*
Y08540005D02*
D03*
X06780004Y08550005D02*
D03*
Y08540005D02*
D03*
X06770004Y08550005D02*
D03*
Y08540005D02*
D03*
X06760004Y08550005D02*
D03*
Y08540005D02*
D03*
X07009130Y08409940D02*
D03*
X06751574Y08513064D02*
D03*
X07008008Y08520010D02*
D03*
Y08512010D02*
D03*
X07000008Y08520010D02*
D03*
Y08512010D02*
D03*
X06992008Y08520010D02*
D03*
Y08512010D02*
D03*
X06984008Y08520010D02*
D03*
Y08512010D02*
D03*
X06976008Y08520010D02*
D03*
Y08512010D02*
D03*
X06968008Y08520010D02*
D03*
Y08512010D02*
D03*
X06990080Y08422800D02*
D03*
Y08412640D02*
D03*
X06979920Y08422800D02*
D03*
Y08412640D02*
D03*
X06969760Y08422800D02*
D03*
Y08412640D02*
D03*
X06959600Y08422800D02*
D03*
Y08412640D02*
D03*
X06949440Y08422800D02*
D03*
Y08412640D02*
D03*
X06939280D02*
D03*
X06929120D02*
D03*
X06918960D02*
D03*
X06908800D02*
D03*
X06898640D02*
D03*
X06888480Y08422800D02*
D03*
Y08412640D02*
D03*
X06878320Y08422800D02*
D03*
Y08412640D02*
D03*
X06868160Y08422800D02*
D03*
Y08412640D02*
D03*
X06858000Y08422800D02*
D03*
Y08412640D02*
D03*
X06751574Y08500920D02*
D03*
X07091908Y08506986D02*
D03*
X07103931D02*
D03*
X07098000D02*
D03*
X06785500Y08462461D02*
D03*
X07103931Y08519147D02*
D03*
X07098000D02*
D03*
Y08513000D02*
D03*
X07103931D02*
D03*
X07091908D02*
D03*
Y08519147D02*
D03*
X06813320Y08465711D02*
D03*
X06824750Y08454281D02*
D03*
Y08477141D02*
D03*
X06836180Y08465711D02*
D03*
X06770560Y08446960D02*
D03*
Y08467280D02*
D03*
Y08487600D02*
D03*
Y08497760D02*
D03*
X06801040D02*
D03*
X06811200Y08416480D02*
D03*
Y08426640D02*
D03*
Y08487600D02*
D03*
Y08497760D02*
D03*
X06821360Y08446960D02*
D03*
Y08487600D02*
D03*
Y08497760D02*
D03*
X06831520Y08416480D02*
D03*
Y08446960D02*
D03*
X06841680Y08416480D02*
D03*
Y08446960D02*
D03*
Y08457120D02*
D03*
Y08477440D02*
D03*
Y08497760D02*
D03*
X06851840D02*
D03*
X06766560Y08636000D02*
D03*
X06786880D02*
D03*
X06827520D02*
D03*
X06847840D02*
D03*
X06868160D02*
D03*
X06888480D02*
D03*
X06908800D02*
D03*
X06929120D02*
D03*
X06949440D02*
D03*
X06969760D02*
D03*
X06990080D02*
D03*
X07010400D02*
D03*
X07030720D02*
D03*
X07051040D02*
D03*
X07071360D02*
D03*
X07091680D02*
D03*
X06751544Y08507000D02*
D03*
D33*
X06867214Y08468961D02*
D03*
X06942920Y08427500D02*
D03*
Y08497500D02*
D03*
X06867214Y08449461D02*
D03*
D34*
X06824750Y08465711D02*
D03*
M02*
