G04 Layer_Color=8388736*
%FSAX44Y44*%
%MOMM*%
G71*
G01*
G75*
G04:AMPARAMS|DCode=19|XSize=1.1mm|YSize=1.1mm|CornerRadius=0.0055mm|HoleSize=0mm|Usage=FLASHONLY|Rotation=270.000|XOffset=0mm|YOffset=0mm|HoleType=Round|Shape=RoundedRectangle|*
%AMROUNDEDRECTD19*
21,1,1.1000,1.0890,0,0,270.0*
21,1,1.0890,1.1000,0,0,270.0*
1,1,0.0110,-0.5445,-0.5445*
1,1,0.0110,-0.5445,0.5445*
1,1,0.0110,0.5445,0.5445*
1,1,0.0110,0.5445,-0.5445*
%
%ADD19ROUNDEDRECTD19*%
%ADD28O,1.7000X2.7000*%
G04:AMPARAMS|DCode=29|XSize=2.7mm|YSize=1.7mm|CornerRadius=0.425mm|HoleSize=0mm|Usage=FLASHONLY|Rotation=270.000|XOffset=0mm|YOffset=0mm|HoleType=Round|Shape=RoundedRectangle|*
%AMROUNDEDRECTD29*
21,1,2.7000,0.8500,0,0,270.0*
21,1,1.8500,1.7000,0,0,270.0*
1,1,0.8500,-0.4250,-0.9250*
1,1,0.8500,-0.4250,0.9250*
1,1,0.8500,0.4250,0.9250*
1,1,0.8500,0.4250,-0.9250*
%
%ADD29ROUNDEDRECTD29*%
%ADD30C,3.0000*%
G04:AMPARAMS|DCode=37|XSize=4.7016mm|YSize=4.8016mm|CornerRadius=0.0738mm|HoleSize=0mm|Usage=FLASHONLY|Rotation=90.000|XOffset=0mm|YOffset=0mm|HoleType=Round|Shape=RoundedRectangle|*
%AMROUNDEDRECTD37*
21,1,4.7016,4.6540,0,0,90.0*
21,1,4.5540,4.8016,0,0,90.0*
1,1,0.1476,2.3270,2.2770*
1,1,0.1476,2.3270,-2.2770*
1,1,0.1476,-2.3270,-2.2770*
1,1,0.1476,-2.3270,2.2770*
%
%ADD37ROUNDEDRECTD37*%
G04:AMPARAMS|DCode=38|XSize=2.6516mm|YSize=1.3016mm|CornerRadius=0.0568mm|HoleSize=0mm|Usage=FLASHONLY|Rotation=180.000|XOffset=0mm|YOffset=0mm|HoleType=Round|Shape=RoundedRectangle|*
%AMROUNDEDRECTD38*
21,1,2.6516,1.1880,0,0,180.0*
21,1,2.5380,1.3016,0,0,180.0*
1,1,0.1136,-1.2690,0.5940*
1,1,0.1136,1.2690,0.5940*
1,1,0.1136,1.2690,-0.5940*
1,1,0.1136,-1.2690,-0.5940*
%
%ADD38ROUNDEDRECTD38*%
G04:AMPARAMS|DCode=39|XSize=0.8516mm|YSize=0.6016mm|CornerRadius=0.0533mm|HoleSize=0mm|Usage=FLASHONLY|Rotation=0.000|XOffset=0mm|YOffset=0mm|HoleType=Round|Shape=RoundedRectangle|*
%AMROUNDEDRECTD39*
21,1,0.8516,0.4950,0,0,0.0*
21,1,0.7450,0.6016,0,0,0.0*
1,1,0.1066,0.3725,-0.2475*
1,1,0.1066,-0.3725,-0.2475*
1,1,0.1066,-0.3725,0.2475*
1,1,0.1066,0.3725,0.2475*
%
%ADD39ROUNDEDRECTD39*%
G04:AMPARAMS|DCode=40|XSize=0.8516mm|YSize=0.6016mm|CornerRadius=0.0533mm|HoleSize=0mm|Usage=FLASHONLY|Rotation=90.000|XOffset=0mm|YOffset=0mm|HoleType=Round|Shape=RoundedRectangle|*
%AMROUNDEDRECTD40*
21,1,0.8516,0.4950,0,0,90.0*
21,1,0.7450,0.6016,0,0,90.0*
1,1,0.1066,0.2475,0.3725*
1,1,0.1066,0.2475,-0.3725*
1,1,0.1066,-0.2475,-0.3725*
1,1,0.1066,-0.2475,0.3725*
%
%ADD40ROUNDEDRECTD40*%
G04:AMPARAMS|DCode=41|XSize=0.9516mm|YSize=0.7016mm|CornerRadius=0.0538mm|HoleSize=0mm|Usage=FLASHONLY|Rotation=180.000|XOffset=0mm|YOffset=0mm|HoleType=Round|Shape=RoundedRectangle|*
%AMROUNDEDRECTD41*
21,1,0.9516,0.5940,0,0,180.0*
21,1,0.8440,0.7016,0,0,180.0*
1,1,0.1076,-0.4220,0.2970*
1,1,0.1076,0.4220,0.2970*
1,1,0.1076,0.4220,-0.2970*
1,1,0.1076,-0.4220,-0.2970*
%
%ADD41ROUNDEDRECTD41*%
G04:AMPARAMS|DCode=42|XSize=0.9516mm|YSize=0.7016mm|CornerRadius=0.0538mm|HoleSize=0mm|Usage=FLASHONLY|Rotation=90.000|XOffset=0mm|YOffset=0mm|HoleType=Round|Shape=RoundedRectangle|*
%AMROUNDEDRECTD42*
21,1,0.9516,0.5940,0,0,90.0*
21,1,0.8440,0.7016,0,0,90.0*
1,1,0.1076,0.2970,0.4220*
1,1,0.1076,0.2970,-0.4220*
1,1,0.1076,-0.2970,-0.4220*
1,1,0.1076,-0.2970,0.4220*
%
%ADD42ROUNDEDRECTD42*%
G04:AMPARAMS|DCode=43|XSize=2.2016mm|YSize=3.7016mm|CornerRadius=0.0613mm|HoleSize=0mm|Usage=FLASHONLY|Rotation=180.000|XOffset=0mm|YOffset=0mm|HoleType=Round|Shape=RoundedRectangle|*
%AMROUNDEDRECTD43*
21,1,2.2016,3.5790,0,0,180.0*
21,1,2.0790,3.7016,0,0,180.0*
1,1,0.1226,-1.0395,1.7895*
1,1,0.1226,1.0395,1.7895*
1,1,0.1226,1.0395,-1.7895*
1,1,0.1226,-1.0395,-1.7895*
%
%ADD43ROUNDEDRECTD43*%
G04:AMPARAMS|DCode=44|XSize=2.2016mm|YSize=3.7016mm|CornerRadius=0.0613mm|HoleSize=0mm|Usage=FLASHONLY|Rotation=270.000|XOffset=0mm|YOffset=0mm|HoleType=Round|Shape=RoundedRectangle|*
%AMROUNDEDRECTD44*
21,1,2.2016,3.5790,0,0,270.0*
21,1,2.0790,3.7016,0,0,270.0*
1,1,0.1226,-1.7895,-1.0395*
1,1,0.1226,-1.7895,1.0395*
1,1,0.1226,1.7895,1.0395*
1,1,0.1226,1.7895,-1.0395*
%
%ADD44ROUNDEDRECTD44*%
%ADD45O,1.5016X0.5516*%
G04:AMPARAMS|DCode=46|XSize=0.7516mm|YSize=1.3016mm|CornerRadius=0.0541mm|HoleSize=0mm|Usage=FLASHONLY|Rotation=0.000|XOffset=0mm|YOffset=0mm|HoleType=Round|Shape=RoundedRectangle|*
%AMROUNDEDRECTD46*
21,1,0.7516,1.1935,0,0,0.0*
21,1,0.6435,1.3016,0,0,0.0*
1,1,0.1081,0.3217,-0.5968*
1,1,0.1081,-0.3217,-0.5968*
1,1,0.1081,-0.3217,0.5968*
1,1,0.1081,0.3217,0.5968*
%
%ADD46ROUNDEDRECTD46*%
G36*
X06939356Y08564135D02*
X06939452Y08564105D01*
X06939540Y08564058D01*
X06939617Y08563995D01*
X06939681Y08563917D01*
X06939728Y08563829D01*
X06939757Y08563733D01*
X06939767Y08563633D01*
Y08558633D01*
Y08513633D01*
X06939757Y08513534D01*
X06939728Y08513438D01*
X06939681Y08513350D01*
X06939617Y08513273D01*
X06939540Y08513209D01*
X06939452Y08513162D01*
X06939356Y08513133D01*
X06939257Y08513123D01*
X06892256D01*
X06892157Y08513133D01*
X06892061Y08513162D01*
X06891973Y08513209D01*
X06891896Y08513273D01*
X06891832Y08513350D01*
X06891785Y08513438D01*
X06891756Y08513534D01*
X06891746Y08513633D01*
Y08558633D01*
Y08563633D01*
X06891756Y08563733D01*
X06891785Y08563829D01*
X06891832Y08563917D01*
X06891896Y08563995D01*
X06891973Y08564058D01*
X06892061Y08564105D01*
X06892157Y08564135D01*
X06892256Y08564144D01*
X06899257D01*
X06899356Y08564135D01*
X06899452Y08564105D01*
X06899540Y08564058D01*
X06899617Y08563995D01*
X06899681Y08563917D01*
X06899728Y08563829D01*
X06899757Y08563733D01*
X06899767Y08563633D01*
Y08559144D01*
X06905096D01*
Y08563633D01*
X06905106Y08563733D01*
X06905135Y08563829D01*
X06905182Y08563917D01*
X06905246Y08563995D01*
X06905323Y08564058D01*
X06905411Y08564105D01*
X06905507Y08564135D01*
X06905607Y08564144D01*
X06912607D01*
X06912706Y08564135D01*
X06912802Y08564105D01*
X06912890Y08564058D01*
X06912968Y08563995D01*
X06913031Y08563917D01*
X06913078Y08563829D01*
X06913107Y08563733D01*
X06913117Y08563633D01*
Y08559144D01*
X06918396D01*
Y08563633D01*
X06918406Y08563733D01*
X06918435Y08563829D01*
X06918482Y08563917D01*
X06918546Y08563995D01*
X06918623Y08564058D01*
X06918712Y08564105D01*
X06918807Y08564135D01*
X06918907Y08564144D01*
X06925906D01*
X06926006Y08564135D01*
X06926102Y08564105D01*
X06926190Y08564058D01*
X06926268Y08563995D01*
X06926331Y08563917D01*
X06926378Y08563829D01*
X06926407Y08563733D01*
X06926417Y08563633D01*
Y08559144D01*
X06931746D01*
Y08563633D01*
X06931756Y08563733D01*
X06931785Y08563829D01*
X06931832Y08563917D01*
X06931896Y08563995D01*
X06931973Y08564058D01*
X06932061Y08564105D01*
X06932157Y08564135D01*
X06932256Y08564144D01*
X06939257D01*
X06939356Y08564135D01*
D02*
G37*
G36*
Y08486671D02*
X06939452Y08486642D01*
X06939540Y08486595D01*
X06939617Y08486532D01*
X06939681Y08486454D01*
X06939728Y08486366D01*
X06939757Y08486270D01*
X06939767Y08486171D01*
Y08481171D01*
Y08436171D01*
X06939757Y08436071D01*
X06939728Y08435975D01*
X06939681Y08435887D01*
X06939617Y08435810D01*
X06939540Y08435746D01*
X06939452Y08435699D01*
X06939356Y08435670D01*
X06939257Y08435660D01*
X06892256D01*
X06892157Y08435670D01*
X06892061Y08435699D01*
X06891973Y08435746D01*
X06891896Y08435810D01*
X06891832Y08435887D01*
X06891785Y08435975D01*
X06891756Y08436071D01*
X06891746Y08436171D01*
Y08481171D01*
Y08486171D01*
X06891756Y08486270D01*
X06891785Y08486366D01*
X06891832Y08486454D01*
X06891896Y08486532D01*
X06891973Y08486595D01*
X06892061Y08486642D01*
X06892157Y08486671D01*
X06892256Y08486681D01*
X06899257D01*
X06899356Y08486671D01*
X06899452Y08486642D01*
X06899540Y08486595D01*
X06899617Y08486532D01*
X06899681Y08486454D01*
X06899728Y08486366D01*
X06899757Y08486270D01*
X06899767Y08486171D01*
Y08481681D01*
X06905096D01*
Y08486171D01*
X06905106Y08486270D01*
X06905135Y08486366D01*
X06905182Y08486454D01*
X06905246Y08486532D01*
X06905323Y08486595D01*
X06905411Y08486642D01*
X06905507Y08486671D01*
X06905607Y08486681D01*
X06912607D01*
X06912706Y08486671D01*
X06912802Y08486642D01*
X06912890Y08486595D01*
X06912968Y08486532D01*
X06913031Y08486454D01*
X06913078Y08486366D01*
X06913107Y08486270D01*
X06913117Y08486171D01*
Y08481681D01*
X06918396D01*
Y08486171D01*
X06918406Y08486270D01*
X06918435Y08486366D01*
X06918482Y08486454D01*
X06918546Y08486532D01*
X06918623Y08486595D01*
X06918712Y08486642D01*
X06918807Y08486671D01*
X06918907Y08486681D01*
X06925906D01*
X06926006Y08486671D01*
X06926102Y08486642D01*
X06926190Y08486595D01*
X06926268Y08486532D01*
X06926331Y08486454D01*
X06926378Y08486366D01*
X06926407Y08486270D01*
X06926417Y08486171D01*
Y08481681D01*
X06931746D01*
Y08486171D01*
X06931756Y08486270D01*
X06931785Y08486366D01*
X06931832Y08486454D01*
X06931896Y08486532D01*
X06931973Y08486595D01*
X06932061Y08486642D01*
X06932157Y08486671D01*
X06932256Y08486681D01*
X06939257D01*
X06939356Y08486671D01*
D02*
G37*
D19*
X06817130Y08458091D02*
D03*
Y08473331D02*
D03*
X06832370Y08458091D02*
D03*
Y08473331D02*
D03*
D28*
X07120070Y08543000D02*
D03*
Y08579000D02*
D03*
Y08471000D02*
D03*
X06740000Y08543000D02*
D03*
Y08579000D02*
D03*
Y08471000D02*
D03*
D29*
X07120070Y08507000D02*
D03*
X06740000D02*
D03*
D30*
X06700000Y08420000D02*
D03*
X07160000D02*
D03*
X07160000Y08630000D02*
D03*
X06700000Y08630000D02*
D03*
D37*
X07078467Y08466500D02*
D03*
X06969307D02*
D03*
D38*
X07088108Y08570059D02*
D03*
Y08541558D02*
D03*
X07088108Y08585617D02*
D03*
Y08614117D02*
D03*
X06915250Y08573934D02*
D03*
Y08602434D02*
D03*
X06884208Y08573934D02*
D03*
Y08602434D02*
D03*
D39*
X06880464Y08502504D02*
D03*
Y08488004D02*
D03*
D40*
X06803542Y08429669D02*
D03*
X06818043D02*
D03*
X06843085Y08429669D02*
D03*
X06828585D02*
D03*
X06803542Y08416626D02*
D03*
X06818043D02*
D03*
X06801998Y08508303D02*
D03*
X06816498D02*
D03*
X06776955D02*
D03*
X06791455D02*
D03*
X06763958Y08467571D02*
D03*
X06778458D02*
D03*
X06763958Y08440486D02*
D03*
X06778458D02*
D03*
X06763958Y08494656D02*
D03*
X06778458D02*
D03*
D41*
X06791250Y08415919D02*
D03*
Y08430419D02*
D03*
X06880464Y08436418D02*
D03*
Y08450919D02*
D03*
Y08462461D02*
D03*
Y08476961D02*
D03*
D42*
X06853583Y08507476D02*
D03*
X06868083D02*
D03*
X06827540Y08507803D02*
D03*
X06842040D02*
D03*
X06763958Y08454028D02*
D03*
X06778458D02*
D03*
X06763958Y08426943D02*
D03*
X06778458D02*
D03*
X06763958Y08481113D02*
D03*
X06778458D02*
D03*
X06763958Y08412901D02*
D03*
X06778458D02*
D03*
D43*
X06812000Y08620854D02*
D03*
Y08537354D02*
D03*
D44*
X07050057Y08589559D02*
D03*
X06966557D02*
D03*
D45*
X06854250Y08442961D02*
D03*
Y08449461D02*
D03*
Y08455961D02*
D03*
Y08462461D02*
D03*
Y08468961D02*
D03*
Y08475461D02*
D03*
Y08481961D02*
D03*
Y08488461D02*
D03*
X06795250Y08442961D02*
D03*
Y08449461D02*
D03*
Y08455961D02*
D03*
Y08462461D02*
D03*
Y08468961D02*
D03*
Y08475461D02*
D03*
Y08481961D02*
D03*
Y08488461D02*
D03*
D46*
X06895690Y08557324D02*
D03*
X06909153D02*
D03*
X06922361D02*
D03*
X06935823D02*
D03*
X06934807Y08501133D02*
D03*
X06922106D02*
D03*
X06909407D02*
D03*
X06896707D02*
D03*
X06895690Y08479861D02*
D03*
X06909153D02*
D03*
X06922361D02*
D03*
X06935823D02*
D03*
X06934807Y08423671D02*
D03*
X06922106D02*
D03*
X06909407D02*
D03*
X06896707D02*
D03*
M02*
