M48
;Layer_Color=9474304
;FILE_FORMAT=4:4
METRIC
;TYPE=PLATED
T1F00S00C0.3000
T2F00S00C0.4000
T3F00S00C1.5000
T4F00S00C2.0000
%
T01
X07091680Y08636000
X07071360
X07051040
X07030720
X07010400
X06990080
X06969760
X06949440
X06929120
X06908800
X06888480
X06868160
X06847840
X06827520
X06786880
X06766560
X06770004Y08550005
X06780004
X06790004
Y08540005
X06780004
X06770004
X06760004
Y08550005
X06751574Y08513064
X06751544Y08507000
X06751574Y08500920
X06770560Y08497760
Y08487600
Y08467280
X06785500Y08462461
X06770560Y08446960
X06821360
X06831520
X06841680
Y08457120
X06836180Y08465711
X06824750
X06813320
X06824750Y08454281
Y08477141
X06821360Y08487600
X06811200
Y08497760
X06801040
X06821360
X06841680
X06851840
X06841680Y08477440
Y08416480
X06831520
X06811200
Y08426640
X06858000Y08422800
X06868160
X06878320
X06888480
Y08412640
X06898640
X06908800
X06918960
X06929120
X06939280
X06949440
X06959600
X06969760
X06979920
X06990080
Y08422800
X06979920
X06969760
X06959600
X06949440
X07009130Y08409940
X07008008Y08512010
Y08520010
X07000008
Y08512010
X06992008
Y08520010
X06984008
Y08512010
X06976008
Y08520010
X06968008
Y08512010
X06880004Y08540005
Y08550005
X06870004
Y08540005
X06860004
Y08550005
X06850004
Y08540005
X06840004
Y08550005
X06830004
Y08540005
X06858000Y08412640
X06868160
X06878320
X07091908Y08506986
Y08513000
X07098000
X07103931
Y08506986
X07098000
Y08519147
X07103931
X07091908
T02
X06942920Y08497500
Y08427500
X06867214Y08449461
Y08468961
T03
X07120070Y08579000
Y08543000
Y08507000
Y08471000
X06740000
Y08507000
Y08543000
Y08579000
T04
X07160000Y08630000
X07160000Y08420000
X06700000
X06700000Y08630000
M30
