G04*
G04 #@! TF.GenerationSoftware,Altium Limited,Altium Designer,20.1.8 (145)*
G04*
G04 Layer_Color=65535*
%FSAX44Y44*%
%MOMM*%
G71*
G04*
G04 #@! TF.SameCoordinates,10942F88-9478-473C-A78C-30CC682ACA8F*
G04*
G04*
G04 #@! TF.FilePolarity,Positive*
G04*
G01*
G75*
%ADD64C,0.5080*%
G36*
X00208641Y00124454D02*
X00208758Y00124424D01*
X00208905Y00124380D01*
X00209066Y00124307D01*
X00209213Y00124219D01*
X00209360Y00124101D01*
X00209375Y00124087D01*
X00209419Y00124043D01*
X00209477Y00123954D01*
X00209536Y00123852D01*
X00209595Y00123720D01*
X00209654Y00123558D01*
X00209698Y00123382D01*
X00209712Y00123176D01*
Y00123147D01*
Y00123074D01*
X00209698Y00122956D01*
X00209668Y00122809D01*
X00209624Y00122648D01*
X00209566Y00122486D01*
X00209492Y00122310D01*
X00209375Y00122163D01*
X00209360Y00122149D01*
X00209316Y00122105D01*
X00209228Y00122046D01*
X00209125Y00121987D01*
X00208993Y00121914D01*
X00208831Y00121855D01*
X00208641Y00121811D01*
X00208435Y00121796D01*
X00208332D01*
X00208230Y00121811D01*
X00208097Y00121840D01*
X00207951Y00121884D01*
X00207804Y00121958D01*
X00207657Y00122046D01*
X00207525Y00122163D01*
X00207510Y00122178D01*
X00207481Y00122237D01*
X00207422Y00122310D01*
X00207363Y00122428D01*
X00207305Y00122574D01*
X00207246Y00122751D01*
X00207216Y00122941D01*
X00207202Y00123176D01*
Y00123206D01*
Y00123264D01*
X00207216Y00123367D01*
X00207246Y00123499D01*
X00207290Y00123631D01*
X00207349Y00123793D01*
X00207437Y00123940D01*
X00207554Y00124087D01*
X00207569Y00124101D01*
X00207613Y00124145D01*
X00207686Y00124204D01*
X00207789Y00124277D01*
X00207921Y00124351D01*
X00208068Y00124410D01*
X00208244Y00124454D01*
X00208435Y00124468D01*
X00208523D01*
X00208641Y00124454D01*
D02*
G37*
G36*
X00211415Y00115748D02*
X00373980D01*
Y00100897D01*
X00098898D01*
Y00115748D01*
X00205102D01*
Y00117964D01*
X00205117Y00117891D01*
X00205132Y00117803D01*
X00205161Y00117700D01*
X00205220Y00117451D01*
X00205337Y00117186D01*
X00205425Y00117040D01*
X00205513Y00116907D01*
X00205631Y00116761D01*
X00205763Y00116629D01*
X00205910Y00116496D01*
X00206086Y00116379D01*
X00206101D01*
X00206130Y00116350D01*
X00206189Y00116320D01*
X00206262Y00116276D01*
X00206350Y00116232D01*
X00206468Y00116173D01*
X00206600Y00116129D01*
X00206747Y00116071D01*
X00206908Y00116012D01*
X00207084Y00115953D01*
X00207481Y00115850D01*
X00207936Y00115777D01*
X00208186Y00115762D01*
X00208435Y00115748D01*
X00208597D01*
X00208714Y00115762D01*
X00208846Y00115777D01*
X00209022Y00115806D01*
X00209213Y00115836D01*
X00209419Y00115865D01*
X00209639Y00115924D01*
X00209874Y00115983D01*
X00210109Y00116071D01*
X00210373Y00116159D01*
X00210623Y00116276D01*
X00210872Y00116408D01*
X00211136Y00116555D01*
X00211386Y00116731D01*
X00210344Y00118023D01*
X00210329Y00118008D01*
X00210300Y00117994D01*
X00210256Y00117950D01*
X00210182Y00117891D01*
X00210109Y00117832D01*
X00210006Y00117774D01*
X00209771Y00117627D01*
X00209477Y00117465D01*
X00209154Y00117348D01*
X00208787Y00117245D01*
X00208582Y00117230D01*
X00208391Y00117216D01*
X00208274D01*
X00208141Y00117230D01*
X00207965Y00117245D01*
X00207789Y00117275D01*
X00207584Y00117304D01*
X00207393Y00117363D01*
X00207202Y00117436D01*
X00207187Y00117451D01*
X00207128Y00117480D01*
X00207055Y00117524D01*
X00206967Y00117598D01*
X00206879Y00117671D01*
X00206805Y00117774D01*
X00206747Y00117891D01*
X00206732Y00118023D01*
Y00118038D01*
Y00118053D01*
X00206747Y00118126D01*
X00206791Y00118229D01*
X00206864Y00118346D01*
X00206923Y00118405D01*
X00206982Y00118449D01*
X00207070Y00118508D01*
X00207173Y00118552D01*
X00207290Y00118596D01*
X00207437Y00118625D01*
X00207584Y00118654D01*
X00207892D01*
X00207980Y00118640D01*
X00208097D01*
X00208244Y00118625D01*
X00208420Y00118610D01*
X00208611Y00118581D01*
X00208641D01*
X00208699Y00118566D01*
X00208802D01*
X00208920Y00118552D01*
X00209184Y00118537D01*
X00209316Y00118522D01*
X00209507D01*
X00209595Y00118537D01*
X00209698D01*
X00209830Y00118566D01*
X00209977Y00118581D01*
X00210285Y00118684D01*
X00210446Y00118743D01*
X00210608Y00118831D01*
X00210755Y00118919D01*
X00210887Y00119036D01*
X00210990Y00119183D01*
X00211078Y00119345D01*
X00211136Y00119535D01*
X00211151Y00119756D01*
Y00119770D01*
Y00119814D01*
X00211136Y00119888D01*
X00211122Y00119976D01*
X00211078Y00120079D01*
X00211034Y00120196D01*
X00210960Y00120314D01*
X00210872Y00120446D01*
X00210857Y00120460D01*
X00210813Y00120504D01*
X00210755Y00120563D01*
X00210681Y00120637D01*
X00210578Y00120710D01*
X00210476Y00120798D01*
X00210344Y00120871D01*
X00210212Y00120945D01*
X00210226Y00120959D01*
X00210256Y00120989D01*
X00210329Y00121033D01*
X00210402Y00121092D01*
X00210490Y00121180D01*
X00210593Y00121268D01*
X00210696Y00121385D01*
X00210813Y00121517D01*
X00210931Y00121679D01*
X00211034Y00121840D01*
X00211136Y00122031D01*
X00211224Y00122222D01*
X00211298Y00122442D01*
X00211357Y00122677D01*
X00211401Y00122927D01*
X00211415Y00123191D01*
Y00115748D01*
D02*
G37*
G36*
X00373980D02*
X00211415D01*
Y00123308D01*
X00211401Y00123382D01*
X00211386Y00123485D01*
X00211371Y00123587D01*
X00211313Y00123852D01*
X00211210Y00124160D01*
X00211136Y00124321D01*
X00211063Y00124468D01*
X00210960Y00124630D01*
X00210857Y00124791D01*
X00210725Y00124938D01*
X00210578Y00125085D01*
X00210564Y00125099D01*
X00210534Y00125114D01*
X00210490Y00125158D01*
X00210432Y00125202D01*
X00210344Y00125261D01*
X00210256Y00125320D01*
X00210138Y00125393D01*
X00210006Y00125467D01*
X00209712Y00125599D01*
X00209360Y00125716D01*
X00208964Y00125804D01*
X00208743Y00125819D01*
X00208523Y00125834D01*
X00208362D01*
X00208274Y00125819D01*
X00208186D01*
X00207951Y00125790D01*
X00207701Y00125745D01*
X00207437Y00125672D01*
X00207158Y00125584D01*
X00206908Y00125467D01*
X00206262Y00126230D01*
X00205102Y00125188D01*
X00205910Y00124600D01*
X00205895Y00124571D01*
X00205837Y00124498D01*
X00205778Y00124366D01*
X00205690Y00124189D01*
X00205616Y00123969D01*
X00205543Y00123720D01*
X00205499Y00123441D01*
X00205484Y00123132D01*
Y00123118D01*
Y00123074D01*
Y00123015D01*
X00205499Y00122927D01*
X00205513Y00122824D01*
X00205528Y00122706D01*
X00205572Y00122428D01*
X00205660Y00122119D01*
X00205792Y00121796D01*
X00205881Y00121635D01*
X00205983Y00121473D01*
X00206101Y00121327D01*
X00206233Y00121180D01*
X00206248Y00121165D01*
X00206262Y00121150D01*
X00206306Y00121121D01*
X00206365Y00121062D01*
X00206438Y00121018D01*
X00206527Y00120959D01*
X00206747Y00120827D01*
X00207026Y00120695D01*
X00207334Y00120578D01*
X00207701Y00120490D01*
X00207906Y00120475D01*
X00208112Y00120460D01*
X00208230D01*
X00208391Y00120475D01*
X00208582Y00120490D01*
X00208861Y00120519D01*
X00208876D01*
X00208920Y00120504D01*
X00208964Y00120490D01*
X00209022Y00120460D01*
X00209110Y00120416D01*
X00209213Y00120372D01*
X00209228D01*
X00209257Y00120343D01*
X00209360Y00120284D01*
X00209477Y00120196D01*
X00209507Y00120152D01*
X00209522Y00120093D01*
Y00120079D01*
X00209507Y00120049D01*
X00209492Y00120005D01*
X00209463Y00119961D01*
X00209404Y00119917D01*
X00209331Y00119873D01*
X00209213Y00119844D01*
X00209066Y00119829D01*
X00208978D01*
X00208905Y00119844D01*
X00208802D01*
X00208685Y00119873D01*
X00208538Y00119888D01*
X00208376Y00119917D01*
X00208362D01*
X00208288Y00119932D01*
X00208200Y00119946D01*
X00208083Y00119976D01*
X00207965Y00119991D01*
X00207818Y00120005D01*
X00207540Y00120020D01*
X00207437D01*
X00207319Y00120005D01*
X00207158Y00119991D01*
X00206967Y00119961D01*
X00206761Y00119917D01*
X00206541Y00119858D01*
X00206321Y00119770D01*
X00206086Y00119668D01*
X00205866Y00119550D01*
X00205660Y00119389D01*
X00205484Y00119198D01*
X00205323Y00118977D01*
X00205205Y00118713D01*
X00205132Y00118405D01*
X00205102Y00118067D01*
Y00115748D01*
X00098898D01*
Y00131377D01*
X00373980D01*
Y00115748D01*
D02*
G37*
%LPC*%
G36*
X00174962Y00113663D02*
X00169412D01*
D01*
X00168957D01*
X00169412D01*
Y00112195D01*
X00173009D01*
Y00110448D01*
X00172995Y00110462D01*
X00172936Y00110477D01*
X00172833Y00110506D01*
X00172716Y00110550D01*
X00172554Y00110595D01*
X00172378Y00110624D01*
X00172187Y00110639D01*
X00171967Y00110653D01*
X00171820D01*
X00171732Y00110639D01*
X00171600Y00110624D01*
X00171468Y00110609D01*
X00171306Y00110580D01*
X00171145Y00110550D01*
X00170778Y00110448D01*
X00170602Y00110389D01*
X00170411Y00110301D01*
X00170235Y00110198D01*
X00170058Y00110095D01*
X00169882Y00109963D01*
X00169735Y00109816D01*
X00169721Y00109802D01*
X00169706Y00109772D01*
X00169662Y00109728D01*
X00169618Y00109670D01*
X00169559Y00109581D01*
X00169486Y00109479D01*
X00169412Y00109347D01*
X00169339Y00109214D01*
X00169280Y00109053D01*
X00169207Y00108877D01*
X00169133Y00108671D01*
X00169075Y00108466D01*
X00169031Y00108245D01*
X00168987Y00107996D01*
X00168972Y00107732D01*
X00168957Y00107453D01*
Y00107291D01*
X00168972Y00107203D01*
X00168987Y00107115D01*
X00169016Y00106866D01*
X00169060Y00106587D01*
X00169148Y00106278D01*
X00169251Y00105941D01*
X00169398Y00105588D01*
X00169574Y00105236D01*
X00169809Y00104898D01*
X00170088Y00104590D01*
X00170249Y00104443D01*
X00170425Y00104311D01*
X00170616Y00104179D01*
X00170837Y00104061D01*
X00171057Y00103973D01*
X00171292Y00103885D01*
X00171556Y00103812D01*
X00171835Y00103768D01*
X00172128Y00103738D01*
X00172451Y00103724D01*
X00172584D01*
X00172686Y00103738D01*
X00172819Y00103753D01*
X00172965Y00103768D01*
X00173127Y00103797D01*
X00173303Y00103827D01*
X00173699Y00103929D01*
X00173905Y00104003D01*
X00174110Y00104091D01*
X00174331Y00104193D01*
X00174551Y00104311D01*
X00174756Y00104443D01*
X00174962Y00104590D01*
X00174272Y00106014D01*
X00174257Y00105999D01*
X00174228Y00105985D01*
X00174169Y00105941D01*
X00174096Y00105882D01*
X00174008Y00105823D01*
X00173890Y00105750D01*
X00173641Y00105603D01*
X00173362Y00105456D01*
X00173053Y00105324D01*
X00172745Y00105221D01*
X00172598Y00105206D01*
X00172451Y00105192D01*
X00172378D01*
X00172290Y00105206D01*
X00172187Y00105221D01*
X00172055Y00105251D01*
X00171923Y00105295D01*
X00171761Y00105368D01*
X00171600Y00105456D01*
X00171453Y00105559D01*
X00171292Y00105691D01*
X00171159Y00105867D01*
X00171027Y00106073D01*
X00170925Y00106308D01*
X00170837Y00106572D01*
X00170778Y00106895D01*
X00170763Y00107262D01*
Y00107277D01*
Y00107306D01*
Y00107365D01*
Y00107423D01*
X00170778Y00107600D01*
X00170807Y00107820D01*
X00170851Y00108055D01*
X00170925Y00108290D01*
X00171013Y00108525D01*
X00171145Y00108715D01*
X00171159Y00108730D01*
X00171218Y00108789D01*
X00171306Y00108862D01*
X00171453Y00108950D01*
X00171629Y00109038D01*
X00171849Y00109112D01*
X00172114Y00109170D01*
X00172422Y00109185D01*
X00172495D01*
X00172554Y00109170D01*
X00172716Y00109141D01*
X00172921Y00109082D01*
X00173171Y00108994D01*
X00173435Y00108848D01*
X00173567Y00108759D01*
X00173714Y00108657D01*
X00173861Y00108539D01*
X00174008Y00108392D01*
X00174683Y00108833D01*
Y00113663D01*
X00174962D01*
D02*
G37*
G36*
X00303922Y00113795D02*
Y00112180D01*
X00303907Y00112195D01*
X00303863Y00112283D01*
X00303775Y00112415D01*
X00303657Y00112577D01*
X00303510Y00112753D01*
X00303320Y00112958D01*
X00303099Y00113149D01*
X00302850Y00113325D01*
X00302835D01*
X00302820Y00113340D01*
X00302776Y00113369D01*
X00302718Y00113399D01*
X00302571Y00113472D01*
X00302365Y00113560D01*
X00302116Y00113648D01*
X00301837Y00113722D01*
X00301528Y00113780D01*
X00301206Y00113795D01*
X00301059D01*
D01*
D01*
D01*
X00297418D01*
X00301059D01*
X00300956Y00113780D01*
X00300839D01*
X00300692Y00113766D01*
X00300530Y00113736D01*
X00300354Y00113707D01*
X00299972Y00113633D01*
X00299576Y00113501D01*
X00299194Y00113340D01*
X00299018Y00113223D01*
X00298857Y00113105D01*
X00298842Y00113090D01*
X00298813Y00113076D01*
X00298783Y00113032D01*
X00298724Y00112973D01*
X00298666Y00112914D01*
X00298592Y00112826D01*
X00298431Y00112606D01*
X00298269Y00112342D01*
X00298137Y00112019D01*
X00298078Y00111828D01*
X00298034Y00111637D01*
X00298020Y00111431D01*
X00298005Y00111211D01*
Y00111196D01*
Y00111167D01*
Y00111094D01*
X00298020Y00111006D01*
X00298034Y00110903D01*
X00298064Y00110771D01*
X00298093Y00110624D01*
X00298137Y00110448D01*
X00298196Y00110257D01*
X00298269Y00110037D01*
X00298357Y00109816D01*
X00298460Y00109567D01*
X00298592Y00109303D01*
X00298739Y00109038D01*
X00298901Y00108745D01*
X00299091Y00108436D01*
X00301088Y00105397D01*
X00297418D01*
Y00103856D01*
X00303922Y00103856D01*
Y00113795D01*
D02*
G37*
G36*
X00261258Y00113795D02*
X00258671D01*
X00261258D01*
Y00112180D01*
X00261243Y00112195D01*
X00261199Y00112283D01*
X00261111Y00112415D01*
X00260994Y00112577D01*
X00260847Y00112753D01*
X00260656Y00112958D01*
X00260436Y00113149D01*
X00260186Y00113325D01*
X00260172D01*
X00260157Y00113340D01*
X00260113Y00113369D01*
X00260054Y00113399D01*
X00259907Y00113472D01*
X00259702Y00113560D01*
X00259452Y00113648D01*
X00259173Y00113722D01*
X00258865Y00113780D01*
X00258542Y00113795D01*
X00254754D01*
X00258395D01*
X00258292Y00113780D01*
X00258175D01*
X00258028Y00113766D01*
X00257867Y00113736D01*
X00257691Y00113707D01*
X00257309Y00113633D01*
X00256912Y00113501D01*
X00256531Y00113340D01*
X00256355Y00113223D01*
X00256193Y00113105D01*
X00256178Y00113090D01*
X00256149Y00113076D01*
X00256120Y00113032D01*
X00256061Y00112973D01*
X00256002Y00112914D01*
X00255929Y00112826D01*
X00255767Y00112606D01*
X00255606Y00112342D01*
X00255474Y00112019D01*
X00255415Y00111828D01*
X00255371Y00111637D01*
X00255356Y00111431D01*
X00255341Y00111211D01*
Y00111196D01*
Y00111167D01*
Y00111094D01*
X00255356Y00111006D01*
X00255371Y00110903D01*
X00255400Y00110771D01*
X00255430Y00110624D01*
X00255474Y00110448D01*
X00255532Y00110257D01*
X00255606Y00110037D01*
X00255694Y00109816D01*
X00255797Y00109567D01*
X00255929Y00109303D01*
X00256075Y00109038D01*
X00256237Y00108745D01*
X00256428Y00108436D01*
X00258424Y00105397D01*
X00254754D01*
Y00103856D01*
X00261155D01*
Y00104355D01*
X00258072Y00108906D01*
X00258057Y00108921D01*
X00258028Y00108965D01*
X00257984Y00109038D01*
X00257925Y00109141D01*
X00257852Y00109258D01*
X00257779Y00109391D01*
X00257691Y00109537D01*
X00257602Y00109714D01*
X00257441Y00110066D01*
X00257294Y00110462D01*
X00257235Y00110653D01*
X00257191Y00110844D01*
X00257162Y00111035D01*
X00257147Y00111211D01*
Y00111226D01*
Y00111255D01*
X00257162Y00111314D01*
Y00111387D01*
X00257221Y00111564D01*
X00257265Y00111666D01*
X00257309Y00111769D01*
X00257382Y00111872D01*
X00257470Y00111975D01*
X00257588Y00112063D01*
X00257705Y00112151D01*
X00257867Y00112224D01*
X00258043Y00112283D01*
X00258248Y00112312D01*
X00258483Y00112327D01*
X00258586D01*
X00258645Y00112312D01*
X00258733Y00112297D01*
X00258836Y00112268D01*
X00259056Y00112195D01*
X00259188Y00112136D01*
X00259320Y00112063D01*
X00259452Y00111975D01*
X00259584Y00111872D01*
X00259716Y00111754D01*
X00259849Y00111608D01*
X00259981Y00111446D01*
X00260098Y00111255D01*
X00261258Y00112165D01*
Y00105133D01*
Y00113795D01*
D02*
G37*
G36*
X00245256D02*
Y00112180D01*
X00245241Y00112195D01*
X00245197Y00112283D01*
X00245109Y00112415D01*
X00244991Y00112577D01*
X00244844Y00112753D01*
X00244654Y00112958D01*
X00244433Y00113149D01*
X00244184Y00113325D01*
X00244169D01*
X00244154Y00113340D01*
X00244110Y00113369D01*
X00244052Y00113399D01*
X00243905Y00113472D01*
X00243699Y00113560D01*
X00243450Y00113648D01*
X00243171Y00113722D01*
X00242862Y00113780D01*
X00242540Y00113795D01*
X00242393D01*
X00242290Y00113780D01*
X00242172D01*
X00242026Y00113766D01*
X00241864Y00113736D01*
X00241688Y00113707D01*
X00241306Y00113633D01*
X00240910Y00113501D01*
X00240528Y00113340D01*
X00240352Y00113223D01*
X00240191Y00113105D01*
X00240176Y00113090D01*
X00240146Y00113076D01*
X00240117Y00113032D01*
X00240058Y00112973D01*
X00240000Y00112914D01*
X00239926Y00112826D01*
X00239765Y00112606D01*
X00239603Y00112342D01*
X00239471Y00112019D01*
X00239412Y00111828D01*
X00239368Y00111637D01*
X00239354Y00111431D01*
X00239339Y00111211D01*
Y00111196D01*
Y00111167D01*
Y00111094D01*
X00239354Y00111006D01*
X00239368Y00110903D01*
X00239398Y00110771D01*
X00239427Y00110624D01*
X00239471Y00110448D01*
X00239530Y00110257D01*
X00239603Y00110037D01*
X00239691Y00109816D01*
X00239794Y00109567D01*
X00239926Y00109303D01*
X00240073Y00109038D01*
X00240235Y00108745D01*
X00240425Y00108436D01*
X00242422Y00105397D01*
X00238752D01*
Y00103856D01*
X00245256D01*
Y00113795D01*
D02*
G37*
G36*
X00183081D02*
X00177091D01*
X00180365D01*
X00180277Y00113780D01*
X00180144D01*
X00180012Y00113766D01*
X00179851Y00113736D01*
X00179675Y00113707D01*
X00179322Y00113633D01*
X00178941Y00113516D01*
X00178573Y00113340D01*
X00178397Y00113237D01*
X00178236Y00113120D01*
X00178221D01*
X00178207Y00113090D01*
X00178162Y00113046D01*
X00178104Y00113002D01*
X00178045Y00112929D01*
X00177972Y00112841D01*
X00177825Y00112635D01*
X00177678Y00112371D01*
X00177546Y00112048D01*
X00177443Y00111681D01*
X00177428Y00111475D01*
X00177414Y00111255D01*
Y00111241D01*
Y00111196D01*
X00177428Y00111123D01*
Y00111020D01*
X00177458Y00110903D01*
X00177472Y00110771D01*
X00177516Y00110609D01*
X00177561Y00110448D01*
X00177634Y00110272D01*
X00177707Y00110095D01*
X00177810Y00109919D01*
X00177927Y00109743D01*
X00178074Y00109567D01*
X00178236Y00109391D01*
X00178427Y00109229D01*
X00178647Y00109082D01*
X00178632Y00109068D01*
X00178573Y00109053D01*
X00178500Y00109009D01*
X00178397Y00108935D01*
X00178280Y00108862D01*
X00178148Y00108759D01*
X00178016Y00108642D01*
X00177869Y00108495D01*
X00177722Y00108334D01*
X00177590Y00108157D01*
X00177458Y00107952D01*
X00177340Y00107732D01*
X00177237Y00107497D01*
X00177164Y00107233D01*
X00177105Y00106954D01*
X00177091Y00106645D01*
Y00106513D01*
X00177105Y00106410D01*
X00177120Y00106293D01*
X00177135Y00106161D01*
X00177164Y00106014D01*
X00177208Y00105852D01*
X00177311Y00105500D01*
X00177384Y00105324D01*
X00177487Y00105148D01*
X00177590Y00104972D01*
X00177707Y00104795D01*
X00177854Y00104634D01*
X00178016Y00104487D01*
X00178030Y00104473D01*
X00178060Y00104458D01*
X00178118Y00104414D01*
X00178192Y00104370D01*
X00178280Y00104311D01*
X00178397Y00104252D01*
X00178529Y00104179D01*
X00178676Y00104105D01*
X00178852Y00104032D01*
X00179043Y00103959D01*
X00179249Y00103900D01*
X00179484Y00103841D01*
X00179733Y00103797D01*
X00179998Y00103753D01*
X00180277Y00103738D01*
X00180570Y00103724D01*
X00180717D01*
X00180820Y00103738D01*
X00180937Y00103753D01*
X00181084Y00103768D01*
X00181260Y00103797D01*
X00181436Y00103841D01*
X00181833Y00103959D01*
X00182038Y00104032D01*
X00182244Y00104120D01*
X00182464Y00104238D01*
X00182670Y00104370D01*
X00182875Y00104516D01*
X00183081Y00104678D01*
X00182214Y00106014D01*
X00182200Y00105999D01*
X00182185Y00105985D01*
X00182141Y00105941D01*
X00182082Y00105882D01*
X00181921Y00105750D01*
X00181715Y00105603D01*
X00181480Y00105456D01*
X00181187Y00105324D01*
X00180878Y00105221D01*
X00180717Y00105206D01*
X00180555Y00105192D01*
X00180482D01*
X00180409Y00105206D01*
X00180291Y00105221D01*
X00180174Y00105236D01*
X00180027Y00105280D01*
X00179880Y00105324D01*
X00179719Y00105383D01*
X00179572Y00105471D01*
X00179425Y00105574D01*
X00179278Y00105691D01*
X00179161Y00105852D01*
X00179043Y00106029D01*
X00178970Y00106234D01*
X00178911Y00106469D01*
X00178897Y00106748D01*
Y00106763D01*
Y00106777D01*
Y00106866D01*
X00178926Y00106998D01*
X00178955Y00107159D01*
X00179014Y00107335D01*
X00179102Y00107526D01*
X00179219Y00107717D01*
X00179381Y00107893D01*
X00179396Y00107908D01*
X00179469Y00107967D01*
X00179572Y00108040D01*
X00179719Y00108128D01*
X00179909Y00108202D01*
X00180130Y00108275D01*
X00180379Y00108334D01*
X00180673Y00108348D01*
X00180966D01*
Y00109772D01*
X00180658D01*
X00180585Y00109787D01*
X00180482D01*
X00180365Y00109816D01*
X00180247Y00109831D01*
X00179968Y00109934D01*
X00179821Y00109993D01*
X00179689Y00110081D01*
X00179572Y00110169D01*
X00179454Y00110286D01*
X00179352Y00110433D01*
X00179278Y00110595D01*
X00179234Y00110785D01*
X00179219Y00111006D01*
Y00111020D01*
Y00111064D01*
X00179234Y00111123D01*
Y00111211D01*
X00179263Y00111314D01*
X00179293Y00111431D01*
X00179337Y00111549D01*
X00179396Y00111666D01*
X00179469Y00111784D01*
X00179557Y00111916D01*
X00179675Y00112019D01*
X00179807Y00112121D01*
X00179968Y00112210D01*
X00180159Y00112268D01*
X00180365Y00112312D01*
X00180614Y00112327D01*
X00180644D01*
X00180732Y00112312D01*
X00180878Y00112297D01*
X00181055Y00112239D01*
X00181275Y00112165D01*
X00181510Y00112048D01*
X00181759Y00111872D01*
X00181877Y00111769D01*
X00182009Y00111652D01*
X00182816Y00112841D01*
X00182802Y00112855D01*
X00182758Y00112900D01*
X00182684Y00112973D01*
X00182581Y00113061D01*
X00182449Y00113164D01*
X00182273Y00113281D01*
X00182082Y00113399D01*
X00181847Y00113501D01*
X00181833D01*
X00181818Y00113516D01*
X00181730Y00113545D01*
X00181598Y00113589D01*
X00181422Y00113648D01*
X00181231Y00113707D01*
X00180996Y00113751D01*
X00180761Y00113780D01*
X00180511Y00113795D01*
X00183081D01*
D02*
G37*
G36*
X00195251Y00113663D02*
D01*
Y00111373D01*
X00195222Y00111387D01*
X00195163Y00111417D01*
X00195061Y00111461D01*
X00194928Y00111534D01*
X00194767Y00111622D01*
X00194591Y00111740D01*
X00194385Y00111857D01*
X00194150Y00112004D01*
X00193915Y00112165D01*
X00193680Y00112342D01*
X00193167Y00112723D01*
X00192682Y00113178D01*
X00192447Y00113413D01*
X00192227Y00113663D01*
X00191537D01*
Y00103856D01*
X00193269D01*
Y00110888D01*
X00195251Y00109699D01*
Y00104282D01*
Y00113663D01*
D02*
G37*
G36*
X00296082Y00113795D02*
Y00110683D01*
X00296067Y00110771D01*
X00296052Y00110903D01*
X00296038Y00111050D01*
X00296008Y00111196D01*
X00295979Y00111373D01*
X00295876Y00111754D01*
X00295803Y00111945D01*
X00295715Y00112136D01*
X00295627Y00112342D01*
X00295509Y00112532D01*
X00295377Y00112709D01*
X00295230Y00112885D01*
X00295216Y00112900D01*
X00295186Y00112929D01*
X00295142Y00112973D01*
X00295069Y00113032D01*
X00294995Y00113090D01*
X00294893Y00113178D01*
X00294775Y00113252D01*
X00294628Y00113340D01*
X00294482Y00113428D01*
X00294320Y00113501D01*
X00293953Y00113648D01*
X00293748Y00113707D01*
X00293527Y00113751D01*
X00293292Y00113780D01*
X00293057Y00113795D01*
X00296082D01*
X00292969D01*
X00292911Y00113780D01*
X00292837D01*
X00292735Y00113766D01*
X00292529Y00113722D01*
X00292265Y00113663D01*
X00291971Y00113575D01*
X00291663Y00113428D01*
X00291340Y00113252D01*
X00291031Y00113032D01*
X00290870Y00112900D01*
X00290723Y00112738D01*
X00290576Y00112577D01*
X00290429Y00112400D01*
X00290297Y00112195D01*
X00290165Y00111975D01*
X00290063Y00111740D01*
X00289945Y00111490D01*
X00289857Y00111211D01*
X00289784Y00110918D01*
X00289725Y00110595D01*
X00289681Y00110257D01*
X00289651Y00109890D01*
X00289637Y00109493D01*
Y00109420D01*
X00289651Y00109317D01*
Y00109185D01*
X00289681Y00109024D01*
X00289710Y00108833D01*
X00289754Y00108613D01*
X00289798Y00108363D01*
X00289872Y00108099D01*
X00289960Y00107820D01*
X00290063Y00107526D01*
X00290195Y00107203D01*
X00290341Y00106880D01*
X00290518Y00106557D01*
X00290723Y00106205D01*
X00290958Y00105867D01*
X00290973Y00105852D01*
X00291017Y00105794D01*
X00291090Y00105691D01*
X00291193Y00105574D01*
X00291310Y00105427D01*
X00291457Y00105265D01*
X00291619Y00105089D01*
X00291810Y00104913D01*
X00292015Y00104722D01*
X00292235Y00104531D01*
X00292485Y00104340D01*
X00292735Y00104164D01*
X00292999Y00104017D01*
X00293263Y00103870D01*
X00293542Y00103753D01*
X00293836Y00103665D01*
X00289637D01*
D01*
X00296082D01*
Y00113795D01*
D02*
G37*
G36*
X00274427Y00113663D02*
X00268878D01*
Y00112195D01*
X00272474D01*
Y00110448D01*
X00272460Y00110462D01*
X00272401Y00110477D01*
X00272298Y00110506D01*
X00272181Y00110550D01*
X00272019Y00110595D01*
X00271843Y00110624D01*
X00271652Y00110639D01*
X00271432Y00110653D01*
X00271285D01*
X00271197Y00110639D01*
X00271065Y00110624D01*
X00270933Y00110609D01*
X00270771Y00110580D01*
X00270610Y00110550D01*
X00270243Y00110448D01*
X00270067Y00110389D01*
X00269876Y00110301D01*
X00269700Y00110198D01*
X00269524Y00110095D01*
X00269347Y00109963D01*
X00269200Y00109816D01*
X00269186Y00109802D01*
X00269171Y00109772D01*
X00269127Y00109728D01*
X00269083Y00109670D01*
X00269024Y00109581D01*
X00268951Y00109479D01*
X00268878Y00109347D01*
X00268804Y00109214D01*
X00268745Y00109053D01*
X00268672Y00108877D01*
X00268599Y00108671D01*
X00268540Y00108466D01*
X00268496Y00108245D01*
X00268452Y00107996D01*
X00268437Y00107732D01*
X00268422Y00107453D01*
Y00107291D01*
X00268437Y00107203D01*
X00268452Y00107115D01*
X00268481Y00106866D01*
X00268525Y00106587D01*
X00268613Y00106278D01*
X00268716Y00105941D01*
X00268863Y00105588D01*
X00269039Y00105236D01*
X00269274Y00104898D01*
X00269553Y00104590D01*
X00269714Y00104443D01*
X00269890Y00104311D01*
X00270081Y00104179D01*
X00270302Y00104061D01*
X00270522Y00103973D01*
X00270757Y00103885D01*
X00271021Y00103812D01*
X00271300Y00103768D01*
X00271594Y00103738D01*
X00271917Y00103724D01*
X00272049D01*
X00272151Y00103738D01*
X00272284Y00103753D01*
X00272430Y00103768D01*
X00272592Y00103797D01*
X00272768Y00103827D01*
X00273165Y00103929D01*
X00273370Y00104003D01*
X00273575Y00104091D01*
X00273796Y00104193D01*
X00274016Y00104311D01*
X00274221Y00104443D01*
X00274427Y00104590D01*
X00273737Y00106014D01*
X00273722Y00105999D01*
X00273693Y00105985D01*
X00273634Y00105941D01*
X00273561Y00105882D01*
X00273473Y00105823D01*
X00273355Y00105750D01*
X00273106Y00105603D01*
X00272827Y00105456D01*
X00272519Y00105324D01*
X00272210Y00105221D01*
X00272063Y00105206D01*
X00271917Y00105192D01*
X00271843D01*
X00271755Y00105206D01*
X00271652Y00105221D01*
X00271520Y00105251D01*
X00271388Y00105295D01*
X00271227Y00105368D01*
X00271065Y00105456D01*
X00270918Y00105559D01*
X00270757Y00105691D01*
X00270625Y00105867D01*
X00270492Y00106073D01*
X00270390Y00106308D01*
X00270302Y00106572D01*
X00270243Y00106895D01*
X00270228Y00107262D01*
Y00107277D01*
Y00107306D01*
Y00107365D01*
Y00107423D01*
X00270243Y00107600D01*
X00270272Y00107820D01*
X00270316Y00108055D01*
X00270390Y00108290D01*
X00270478Y00108525D01*
X00270610Y00108715D01*
X00270625Y00108730D01*
X00270683Y00108789D01*
X00270771Y00108862D01*
X00270918Y00108950D01*
X00271094Y00109038D01*
X00271315Y00109112D01*
X00271579Y00109170D01*
X00271887Y00109185D01*
X00271961D01*
X00272019Y00109170D01*
X00272181Y00109141D01*
X00272386Y00109082D01*
X00272636Y00108994D01*
X00272900Y00108848D01*
X00273032Y00108759D01*
X00273179Y00108657D01*
X00273326Y00108539D01*
X00273473Y00108392D01*
X00274148Y00108833D01*
Y00113663D01*
X00274427D01*
D02*
G37*
G36*
X00187896Y00111329D02*
D01*
Y00110213D01*
X00187881Y00110301D01*
X00187852Y00110418D01*
X00187808Y00110550D01*
X00187749Y00110697D01*
X00187676Y00110844D01*
X00187558Y00110976D01*
X00187544Y00110991D01*
X00187500Y00111035D01*
X00187426Y00111094D01*
X00187323Y00111152D01*
X00187191Y00111211D01*
X00187045Y00111270D01*
X00186883Y00111314D01*
X00186707Y00111329D01*
X00186619D01*
X00186531Y00111314D01*
X00186413Y00111285D01*
X00186281Y00111241D01*
X00186134Y00111182D01*
X00185987Y00111094D01*
X00185855Y00110976D01*
X00185841Y00110962D01*
X00185797Y00110918D01*
X00185738Y00110844D01*
X00185679Y00110741D01*
X00185620Y00110609D01*
X00185562Y00110462D01*
X00185518Y00110301D01*
X00185503Y00110125D01*
Y00110037D01*
X00185518Y00109949D01*
X00185547Y00109831D01*
X00185591Y00109699D01*
X00185650Y00109552D01*
X00185738Y00109405D01*
X00185855Y00109273D01*
X00185870Y00109258D01*
X00185914Y00109214D01*
X00185987Y00109156D01*
X00186090Y00109097D01*
X00186222Y00109038D01*
X00186369Y00108980D01*
X00186531Y00108935D01*
X00186707Y00108921D01*
X00186795D01*
X00186883Y00108935D01*
X00187001Y00108965D01*
X00187133Y00109009D01*
X00187279Y00109068D01*
X00187426Y00109156D01*
X00187558Y00109273D01*
X00187573Y00109288D01*
X00187617Y00109332D01*
X00187661Y00109405D01*
X00187720Y00109508D01*
X00187793Y00109640D01*
X00187837Y00109787D01*
X00187881Y00109949D01*
X00187896Y00110125D01*
Y00104810D01*
X00187881Y00104898D01*
X00187852Y00105016D01*
X00187808Y00105148D01*
X00187749Y00105295D01*
X00187676Y00105441D01*
X00187558Y00105574D01*
X00187544Y00105588D01*
X00187500Y00105632D01*
X00187426Y00105691D01*
X00187323Y00105750D01*
X00187191Y00105808D01*
X00187045Y00105867D01*
X00186883Y00105911D01*
X00186707Y00105926D01*
X00186619D01*
X00186531Y00105911D01*
X00186413Y00105882D01*
X00186281Y00105838D01*
X00186134Y00105779D01*
X00185987Y00105691D01*
X00185855Y00105574D01*
X00185841Y00105559D01*
X00185797Y00105515D01*
X00185738Y00105441D01*
X00185679Y00105339D01*
X00185620Y00105206D01*
X00185562Y00105060D01*
X00185518Y00104898D01*
X00185503Y00104722D01*
Y00104634D01*
X00185518Y00104546D01*
X00185547Y00104428D01*
X00185591Y00104296D01*
X00185650Y00104150D01*
X00185738Y00104003D01*
X00185855Y00103870D01*
X00185870Y00103856D01*
X00185914Y00103812D01*
X00185987Y00103753D01*
X00186090Y00103694D01*
X00186222Y00103636D01*
X00186369Y00103577D01*
X00186531Y00103533D01*
X00186707Y00103518D01*
X00185503D01*
Y00104634D01*
Y00103518D01*
D01*
X00187896D01*
Y00111329D01*
D02*
G37*
G36*
X00283015Y00113795D02*
X00276013D01*
D01*
X00279345D01*
X00279286Y00113780D01*
X00279213D01*
X00279110Y00113766D01*
X00278905Y00113722D01*
X00278640Y00113648D01*
X00278347Y00113531D01*
X00278039Y00113384D01*
X00277716Y00113178D01*
X00277569Y00113046D01*
X00277407Y00112914D01*
X00277246Y00112753D01*
X00277099Y00112577D01*
X00276952Y00112386D01*
X00276805Y00112180D01*
X00276673Y00111945D01*
X00276541Y00111696D01*
X00276438Y00111417D01*
X00276321Y00111123D01*
X00276233Y00110800D01*
X00276159Y00110462D01*
X00276101Y00110095D01*
X00276057Y00109699D01*
X00276027Y00109273D01*
X00276013Y00108818D01*
Y00108833D01*
Y00108598D01*
X00276027Y00108436D01*
X00276042Y00108231D01*
X00276057Y00108011D01*
X00276086Y00107746D01*
X00276130Y00107482D01*
X00276174Y00107189D01*
X00276233Y00106880D01*
X00276306Y00106572D01*
X00276409Y00106264D01*
X00276512Y00105955D01*
X00276629Y00105662D01*
X00276776Y00105368D01*
X00276938Y00105104D01*
X00276952Y00105089D01*
X00276982Y00105045D01*
X00277040Y00104972D01*
X00277114Y00104883D01*
X00277202Y00104781D01*
X00277319Y00104663D01*
X00277451Y00104546D01*
X00277613Y00104414D01*
X00277774Y00104282D01*
X00277980Y00104164D01*
X00278185Y00104047D01*
X00278420Y00103944D01*
X00278670Y00103856D01*
X00278934Y00103782D01*
X00279213Y00103738D01*
X00279521Y00103724D01*
X00279595D01*
X00279698Y00103738D01*
X00279815D01*
X00279962Y00103768D01*
X00280138Y00103797D01*
X00280314Y00103827D01*
X00280520Y00103885D01*
X00280740Y00103959D01*
X00280960Y00104032D01*
X00281180Y00104135D01*
X00281386Y00104267D01*
X00281606Y00104414D01*
X00281812Y00104575D01*
X00281988Y00104781D01*
X00282164Y00105001D01*
X00282179Y00105016D01*
X00282193Y00105060D01*
X00282237Y00105133D01*
X00282296Y00105251D01*
X00282355Y00105383D01*
X00282428Y00105544D01*
X00282516Y00105750D01*
X00282590Y00105985D01*
X00282663Y00106249D01*
X00282751Y00106543D01*
X00282825Y00106880D01*
X00282883Y00107233D01*
X00282942Y00107629D01*
X00282971Y00108069D01*
X00283001Y00108525D01*
X00283015Y00109024D01*
Y00109214D01*
X00283001Y00109361D01*
X00282986Y00109537D01*
X00282957Y00109728D01*
X00282927Y00109963D01*
X00282898Y00110198D01*
X00282839Y00110462D01*
X00282781Y00110741D01*
X00282707Y00111020D01*
X00282605Y00111299D01*
X00282502Y00111593D01*
X00282370Y00111872D01*
X00282223Y00112151D01*
X00282047Y00112415D01*
X00282032Y00112430D01*
X00282003Y00112474D01*
X00281944Y00112547D01*
X00281870Y00112635D01*
X00281768Y00112738D01*
X00281650Y00112855D01*
X00281503Y00112973D01*
X00281357Y00113105D01*
X00281166Y00113237D01*
X00280975Y00113355D01*
X00280755Y00113472D01*
X00280534Y00113575D01*
X00280285Y00113663D01*
X00280006Y00113736D01*
X00279727Y00113780D01*
X00279433Y00113795D01*
X00283015D01*
D01*
D02*
G37*
G36*
X00253682D02*
X00246680D01*
D01*
X00250012D01*
X00249953Y00113780D01*
X00249880D01*
X00249777Y00113766D01*
X00249572Y00113722D01*
X00249307Y00113648D01*
X00249014Y00113531D01*
X00248706Y00113384D01*
X00248383Y00113178D01*
X00248236Y00113046D01*
X00248074Y00112914D01*
X00247913Y00112753D01*
X00247766Y00112577D01*
X00247619Y00112386D01*
X00247472Y00112180D01*
X00247340Y00111945D01*
X00247208Y00111696D01*
X00247105Y00111417D01*
X00246988Y00111123D01*
X00246900Y00110800D01*
X00246826Y00110462D01*
X00246768Y00110095D01*
X00246724Y00109699D01*
X00246694Y00109273D01*
X00246680Y00108818D01*
D01*
Y00108598D01*
X00246694Y00108436D01*
X00246709Y00108231D01*
X00246724Y00108011D01*
X00246753Y00107746D01*
X00246797Y00107482D01*
X00246841Y00107189D01*
X00246900Y00106880D01*
X00246973Y00106572D01*
X00247076Y00106264D01*
X00247179Y00105955D01*
X00247296Y00105662D01*
X00247443Y00105368D01*
X00247605Y00105104D01*
X00247619Y00105089D01*
X00247649Y00105045D01*
X00247707Y00104972D01*
X00247781Y00104883D01*
X00247869Y00104781D01*
X00247986Y00104663D01*
X00248118Y00104546D01*
X00248280Y00104414D01*
X00248441Y00104282D01*
X00248647Y00104164D01*
X00248852Y00104047D01*
X00249087Y00103944D01*
X00249337Y00103856D01*
X00249601Y00103782D01*
X00249880Y00103738D01*
X00250188Y00103724D01*
X00250262D01*
X00250364Y00103738D01*
X00250482D01*
X00250629Y00103768D01*
X00250805Y00103797D01*
X00250981Y00103827D01*
X00251187Y00103885D01*
X00251407Y00103959D01*
X00251627Y00104032D01*
X00251847Y00104135D01*
X00252053Y00104267D01*
X00252273Y00104414D01*
X00252479Y00104575D01*
X00252655Y00104781D01*
X00252831Y00105001D01*
X00252846Y00105016D01*
X00252860Y00105060D01*
X00252904Y00105133D01*
X00252963Y00105251D01*
X00253022Y00105383D01*
X00253095Y00105544D01*
X00253183Y00105750D01*
X00253257Y00105985D01*
X00253330Y00106249D01*
X00253418Y00106543D01*
X00253492Y00106880D01*
X00253550Y00107233D01*
X00253609Y00107629D01*
X00253638Y00108069D01*
X00253668Y00108525D01*
X00253682Y00109024D01*
Y00109214D01*
X00253668Y00109361D01*
X00253653Y00109537D01*
X00253624Y00109728D01*
X00253594Y00109963D01*
X00253565Y00110198D01*
X00253506Y00110462D01*
X00253448Y00110741D01*
X00253374Y00111020D01*
X00253271Y00111299D01*
X00253169Y00111593D01*
X00253036Y00111872D01*
X00252890Y00112151D01*
X00252714Y00112415D01*
X00252699Y00112430D01*
X00252670Y00112474D01*
X00252611Y00112547D01*
X00252537Y00112635D01*
X00252435Y00112738D01*
X00252317Y00112855D01*
X00252170Y00112973D01*
X00252024Y00113105D01*
X00251833Y00113237D01*
X00251642Y00113355D01*
X00251422Y00113472D01*
X00251201Y00113575D01*
X00250952Y00113663D01*
X00250673Y00113736D01*
X00250394Y00113780D01*
X00250100Y00113795D01*
X00253682D01*
D01*
D02*
G37*
G36*
X00234098D02*
X00234010D01*
X00233951Y00113780D01*
X00233878D01*
X00233775Y00113766D01*
X00233569Y00113722D01*
X00233305Y00113648D01*
X00233011Y00113531D01*
X00232703Y00113384D01*
X00232380Y00113178D01*
X00232233Y00113046D01*
X00232072Y00112914D01*
X00231910Y00112753D01*
X00231763Y00112577D01*
X00231617Y00112386D01*
X00231470Y00112180D01*
X00231338Y00111945D01*
X00231206Y00111696D01*
X00231103Y00111417D01*
X00230985Y00111123D01*
X00230897Y00110800D01*
X00230824Y00110462D01*
X00230765Y00110095D01*
X00230721Y00109699D01*
X00230692Y00109273D01*
X00230677Y00108818D01*
D01*
Y00108598D01*
X00230692Y00108436D01*
X00230706Y00108231D01*
X00230721Y00108011D01*
X00230751Y00107746D01*
X00230795Y00107482D01*
X00230839Y00107189D01*
X00230897Y00106880D01*
X00230971Y00106572D01*
X00231073Y00106264D01*
X00231176Y00105955D01*
X00231294Y00105662D01*
X00231441Y00105368D01*
X00231602Y00105104D01*
X00231617Y00105089D01*
X00231646Y00105045D01*
X00231705Y00104972D01*
X00231778Y00104883D01*
X00231866Y00104781D01*
X00231984Y00104663D01*
X00232116Y00104546D01*
X00232277Y00104414D01*
X00232439Y00104282D01*
X00232644Y00104164D01*
X00232850Y00104047D01*
X00233085Y00103944D01*
X00233334Y00103856D01*
X00233599Y00103782D01*
X00233878Y00103738D01*
X00234186Y00103724D01*
X00230677D01*
X00237680D01*
X00234259D01*
X00234362Y00103738D01*
X00234480D01*
X00234626Y00103768D01*
X00234802Y00103797D01*
X00234979Y00103827D01*
X00235184Y00103885D01*
X00235404Y00103959D01*
X00235625Y00104032D01*
X00235845Y00104135D01*
X00236050Y00104267D01*
X00236271Y00104414D01*
X00236476Y00104575D01*
X00236652Y00104781D01*
X00236828Y00105001D01*
X00236843Y00105016D01*
X00236858Y00105060D01*
X00236902Y00105133D01*
X00236961Y00105251D01*
X00237019Y00105383D01*
X00237093Y00105544D01*
X00237181Y00105750D01*
X00237254Y00105985D01*
X00237328Y00106249D01*
X00237416Y00106543D01*
X00237489Y00106880D01*
X00237548Y00107233D01*
X00237607Y00107629D01*
X00237636Y00108069D01*
X00237665Y00108525D01*
X00237680Y00109024D01*
Y00109214D01*
X00237665Y00109361D01*
X00237651Y00109537D01*
X00237621Y00109728D01*
X00237592Y00109963D01*
X00237563Y00110198D01*
X00237504Y00110462D01*
X00237445Y00110741D01*
X00237372Y00111020D01*
X00237269Y00111299D01*
X00237166Y00111593D01*
X00237034Y00111872D01*
X00236887Y00112151D01*
X00236711Y00112415D01*
X00236696Y00112430D01*
X00236667Y00112474D01*
X00236608Y00112547D01*
X00236535Y00112635D01*
X00236432Y00112738D01*
X00236315Y00112855D01*
X00236168Y00112973D01*
X00236021Y00113105D01*
X00235830Y00113237D01*
X00235639Y00113355D01*
X00235419Y00113472D01*
X00235199Y00113575D01*
X00234949Y00113663D01*
X00234670Y00113736D01*
X00234391Y00113780D01*
X00234098Y00113795D01*
D02*
G37*
G36*
X00214337D02*
X00213970D01*
X00213882Y00113780D01*
X00213764D01*
X00213632Y00113766D01*
X00213339Y00113707D01*
X00213001Y00113633D01*
X00212663Y00113516D01*
X00212326Y00113340D01*
X00212164Y00113237D01*
X00212017Y00113120D01*
X00212003D01*
X00211988Y00113090D01*
X00211944Y00113046D01*
X00211900Y00113002D01*
X00211782Y00112855D01*
X00211635Y00112650D01*
X00211489Y00112386D01*
X00211371Y00112092D01*
X00211283Y00111725D01*
X00211269Y00111534D01*
X00211254Y00111329D01*
Y00111299D01*
Y00111226D01*
X00211269Y00111108D01*
X00211313Y00110947D01*
X00211357Y00110756D01*
X00211430Y00110550D01*
X00211533Y00110316D01*
X00211680Y00110066D01*
X00211694Y00110037D01*
X00211753Y00109963D01*
X00211841Y00109846D01*
X00211959Y00109699D01*
X00212091Y00109552D01*
X00212252Y00109391D01*
X00212414Y00109258D01*
X00212605Y00109141D01*
X00212590D01*
X00212575Y00109126D01*
X00212502Y00109082D01*
X00212370Y00109009D01*
X00212223Y00108906D01*
X00212047Y00108759D01*
X00211841Y00108568D01*
X00211635Y00108348D01*
X00211430Y00108084D01*
Y00108069D01*
X00211401Y00108055D01*
X00211386Y00108011D01*
X00211342Y00107952D01*
X00211254Y00107805D01*
X00211151Y00107614D01*
X00211063Y00107394D01*
X00210975Y00107159D01*
X00210916Y00106895D01*
X00210887Y00106645D01*
D01*
Y00106513D01*
X00210902Y00106410D01*
X00210916Y00106293D01*
X00210931Y00106161D01*
X00210960Y00106014D01*
X00210990Y00105852D01*
X00211107Y00105500D01*
X00211166Y00105324D01*
X00211254Y00105148D01*
X00211357Y00104972D01*
X00211474Y00104795D01*
X00211606Y00104634D01*
X00211768Y00104487D01*
X00211782Y00104473D01*
X00211812Y00104458D01*
X00211856Y00104414D01*
X00211929Y00104370D01*
X00212017Y00104311D01*
X00212120Y00104252D01*
X00212252Y00104179D01*
X00212384Y00104105D01*
X00212546Y00104032D01*
X00212722Y00103959D01*
X00212913Y00103900D01*
X00213133Y00103841D01*
X00213353Y00103797D01*
X00213603Y00103753D01*
X00213852Y00103738D01*
X00214131Y00103724D01*
X00210887D01*
D01*
X00217288D01*
Y00103768D01*
Y00103724D01*
X00214278D01*
X00214381Y00103738D01*
X00214513Y00103753D01*
X00214660Y00103768D01*
X00214821Y00103782D01*
X00214983Y00103812D01*
X00215365Y00103900D01*
X00215746Y00104047D01*
X00215952Y00104120D01*
X00216128Y00104223D01*
X00216304Y00104340D01*
X00216466Y00104473D01*
X00216480Y00104487D01*
X00216495Y00104502D01*
X00216539Y00104546D01*
X00216598Y00104619D01*
X00216656Y00104693D01*
X00216730Y00104781D01*
X00216803Y00104898D01*
X00216877Y00105030D01*
X00216950Y00105177D01*
X00217024Y00105339D01*
X00217097Y00105515D01*
X00217156Y00105706D01*
X00217214Y00105911D01*
X00217258Y00106146D01*
X00217273Y00106381D01*
X00217288Y00106645D01*
Y00103768D01*
Y00106645D01*
Y00106777D01*
X00217258Y00106910D01*
X00217229Y00107100D01*
X00217185Y00107321D01*
X00217112Y00107556D01*
X00217009Y00107820D01*
X00216862Y00108084D01*
Y00108099D01*
X00216847Y00108113D01*
X00216789Y00108202D01*
X00216686Y00108334D01*
X00216554Y00108495D01*
X00216392Y00108671D01*
X00216201Y00108848D01*
X00215981Y00109038D01*
X00215732Y00109200D01*
X00215761Y00109214D01*
X00215820Y00109258D01*
X00215923Y00109347D01*
X00216040Y00109449D01*
X00216172Y00109581D01*
X00216319Y00109743D01*
X00216466Y00109934D01*
X00216598Y00110139D01*
X00216612Y00110169D01*
X00216656Y00110242D01*
X00216701Y00110360D01*
X00216759Y00110521D01*
X00216833Y00110697D01*
X00216877Y00110903D01*
X00216921Y00111108D01*
X00216936Y00111329D01*
Y00111343D01*
Y00111373D01*
Y00111431D01*
X00216921Y00111519D01*
X00216906Y00111608D01*
X00216891Y00111725D01*
X00216833Y00111975D01*
X00216745Y00112268D01*
X00216598Y00112562D01*
X00216510Y00112709D01*
X00216407Y00112855D01*
X00216275Y00112988D01*
X00216143Y00113120D01*
X00216128Y00113134D01*
X00216099Y00113149D01*
X00216055Y00113178D01*
X00215996Y00113223D01*
X00215923Y00113281D01*
X00215820Y00113340D01*
X00215717Y00113399D01*
X00215585Y00113457D01*
X00215291Y00113575D01*
X00214953Y00113692D01*
X00214542Y00113766D01*
X00214337Y00113795D01*
D02*
G37*
G36*
X00208905Y00111329D02*
X00206512D01*
X00207628D01*
X00207540Y00111314D01*
X00207422Y00111285D01*
X00207290Y00111241D01*
X00207143Y00111182D01*
X00206996Y00111094D01*
X00206864Y00110976D01*
X00206849Y00110962D01*
X00206805Y00110918D01*
X00206747Y00110844D01*
X00206688Y00110741D01*
X00206629Y00110609D01*
X00206570Y00110462D01*
X00206527Y00110301D01*
X00206512Y00110125D01*
Y00110037D01*
X00206527Y00109949D01*
X00206556Y00109831D01*
X00206600Y00109699D01*
X00206659Y00109552D01*
X00206747Y00109405D01*
X00206864Y00109273D01*
X00206879Y00109258D01*
X00206923Y00109214D01*
X00206996Y00109156D01*
X00207099Y00109097D01*
X00207231Y00109038D01*
X00207378Y00108980D01*
X00207540Y00108935D01*
X00207716Y00108921D01*
X00207804D01*
X00207892Y00108935D01*
X00208009Y00108965D01*
X00208141Y00109009D01*
X00208288Y00109068D01*
X00208435Y00109156D01*
X00208567Y00109273D01*
X00208582Y00109288D01*
X00208626Y00109332D01*
X00208670Y00109405D01*
X00208729Y00109508D01*
X00208802Y00109640D01*
X00208846Y00109787D01*
X00208890Y00109949D01*
X00208905Y00110125D01*
Y00104810D01*
X00208890Y00104898D01*
X00208861Y00105016D01*
X00208817Y00105148D01*
X00208758Y00105295D01*
X00208685Y00105441D01*
X00208567Y00105574D01*
X00208552Y00105588D01*
X00208508Y00105632D01*
X00208435Y00105691D01*
X00208332Y00105750D01*
X00208200Y00105808D01*
X00208053Y00105867D01*
X00207892Y00105911D01*
X00207716Y00105926D01*
X00207628D01*
X00207540Y00105911D01*
X00207422Y00105882D01*
X00207290Y00105838D01*
X00207143Y00105779D01*
X00206996Y00105691D01*
X00206864Y00105574D01*
X00206849Y00105559D01*
X00206805Y00105515D01*
X00206747Y00105441D01*
X00206688Y00105339D01*
X00206629Y00105206D01*
X00206570Y00105060D01*
X00206527Y00104898D01*
X00206512Y00104722D01*
Y00104634D01*
X00206527Y00104546D01*
X00206556Y00104428D01*
X00206600Y00104296D01*
X00206659Y00104150D01*
X00206747Y00104003D01*
X00206864Y00103870D01*
X00206879Y00103856D01*
X00206923Y00103812D01*
X00206996Y00103753D01*
X00207099Y00103694D01*
X00207231Y00103636D01*
X00207378Y00103577D01*
X00207540Y00103533D01*
X00207716Y00103518D01*
X00207804D01*
X00207892Y00103533D01*
X00208009Y00103562D01*
X00208141Y00103606D01*
X00208288Y00103665D01*
X00208435Y00103753D01*
X00208567Y00103870D01*
X00208582Y00103885D01*
X00208626Y00103929D01*
X00208670Y00104003D01*
X00208729Y00104105D01*
X00208802Y00104238D01*
X00208846Y00104384D01*
X00208890Y00104546D01*
X00208905Y00104722D01*
Y00103533D01*
Y00111329D01*
D02*
G37*
G36*
X00221986Y00113795D02*
X00221898D01*
X00221839Y00113780D01*
X00221766D01*
X00221663Y00113766D01*
X00221457Y00113722D01*
X00221193Y00113648D01*
X00220899Y00113531D01*
X00220591Y00113384D01*
X00220268Y00113178D01*
X00220121Y00113046D01*
X00219960Y00112914D01*
X00219798Y00112753D01*
X00219652Y00112577D01*
X00219505Y00112386D01*
X00219358Y00112180D01*
X00219226Y00111945D01*
X00219094Y00111696D01*
X00218991Y00111417D01*
X00218873Y00111123D01*
X00218785Y00110800D01*
X00218712Y00110462D01*
X00218653Y00110095D01*
X00218609Y00109699D01*
X00218580Y00109273D01*
X00218565Y00108818D01*
D01*
Y00108598D01*
X00218580Y00108436D01*
X00218594Y00108231D01*
X00218609Y00108011D01*
X00218638Y00107746D01*
X00218682Y00107482D01*
X00218727Y00107189D01*
X00218785Y00106880D01*
X00218859Y00106572D01*
X00218962Y00106264D01*
X00219064Y00105955D01*
X00219182Y00105662D01*
X00219328Y00105368D01*
X00219490Y00105104D01*
X00219505Y00105089D01*
X00219534Y00105045D01*
X00219593Y00104972D01*
X00219666Y00104883D01*
X00219754Y00104781D01*
X00219872Y00104663D01*
X00220004Y00104546D01*
X00220165Y00104414D01*
X00220327Y00104282D01*
X00220532Y00104164D01*
X00220738Y00104047D01*
X00220973Y00103944D01*
X00221222Y00103856D01*
X00221487Y00103782D01*
X00221766Y00103738D01*
X00222074Y00103724D01*
X00218565D01*
X00225568D01*
Y00104414D01*
Y00103724D01*
X00222147D01*
X00222250Y00103738D01*
X00222367D01*
X00222514Y00103768D01*
X00222691Y00103797D01*
X00222867Y00103827D01*
X00223072Y00103885D01*
X00223292Y00103959D01*
X00223513Y00104032D01*
X00223733Y00104135D01*
X00223938Y00104267D01*
X00224159Y00104414D01*
X00224364Y00104575D01*
X00224540Y00104781D01*
X00224716Y00105001D01*
X00224731Y00105016D01*
X00224746Y00105060D01*
X00224790Y00105133D01*
X00224849Y00105251D01*
X00224907Y00105383D01*
X00224981Y00105544D01*
X00225069Y00105750D01*
X00225142Y00105985D01*
X00225216Y00106249D01*
X00225304Y00106543D01*
X00225377Y00106880D01*
X00225436Y00107233D01*
X00225495Y00107629D01*
X00225524Y00108069D01*
X00225553Y00108525D01*
X00225568Y00109024D01*
Y00104414D01*
Y00109024D01*
Y00109214D01*
X00225553Y00109361D01*
X00225539Y00109537D01*
X00225509Y00109728D01*
X00225480Y00109963D01*
X00225451Y00110198D01*
X00225392Y00110462D01*
X00225333Y00110741D01*
X00225260Y00111020D01*
X00225157Y00111299D01*
X00225054Y00111593D01*
X00224922Y00111872D01*
X00224775Y00112151D01*
X00224599Y00112415D01*
X00224584Y00112430D01*
X00224555Y00112474D01*
X00224496Y00112547D01*
X00224423Y00112635D01*
X00224320Y00112738D01*
X00224203Y00112855D01*
X00224056Y00112973D01*
X00223909Y00113105D01*
X00223718Y00113237D01*
X00223527Y00113355D01*
X00223307Y00113472D01*
X00223087Y00113575D01*
X00222837Y00113663D01*
X00222558Y00113736D01*
X00222279Y00113780D01*
X00221986Y00113795D01*
D02*
G37*
G36*
X00200977D02*
X00200889D01*
X00200830Y00113780D01*
X00200757D01*
X00200654Y00113766D01*
X00200448Y00113722D01*
X00200184Y00113648D01*
X00199891Y00113531D01*
X00199582Y00113384D01*
X00199259Y00113178D01*
X00199112Y00113046D01*
X00198951Y00112914D01*
X00198790Y00112753D01*
X00198643Y00112577D01*
X00198496Y00112386D01*
X00198349Y00112180D01*
X00198217Y00111945D01*
X00198085Y00111696D01*
X00197982Y00111417D01*
X00197865Y00111123D01*
X00197777Y00110800D01*
X00197703Y00110462D01*
X00197644Y00110095D01*
X00197600Y00109699D01*
X00197571Y00109273D01*
X00197556Y00108818D01*
D01*
Y00108598D01*
X00197571Y00108436D01*
X00197586Y00108231D01*
X00197600Y00108011D01*
X00197630Y00107746D01*
X00197674Y00107482D01*
X00197718Y00107189D01*
X00197777Y00106880D01*
X00197850Y00106572D01*
X00197953Y00106264D01*
X00198055Y00105955D01*
X00198173Y00105662D01*
X00198320Y00105368D01*
X00198481Y00105104D01*
X00198496Y00105089D01*
X00198525Y00105045D01*
X00198584Y00104972D01*
X00198657Y00104883D01*
X00198745Y00104781D01*
X00198863Y00104663D01*
X00198995Y00104546D01*
X00199156Y00104414D01*
X00199318Y00104282D01*
X00199524Y00104164D01*
X00199729Y00104047D01*
X00199964Y00103944D01*
X00200214Y00103856D01*
X00200478Y00103782D01*
X00200757Y00103738D01*
X00201065Y00103724D01*
X00197556D01*
X00204559D01*
Y00104414D01*
Y00103724D01*
X00201138D01*
X00201241Y00103738D01*
X00201359D01*
X00201506Y00103768D01*
X00201682Y00103797D01*
X00201858Y00103827D01*
X00202063Y00103885D01*
X00202284Y00103959D01*
X00202504Y00104032D01*
X00202724Y00104135D01*
X00202930Y00104267D01*
X00203150Y00104414D01*
X00203355Y00104575D01*
X00203531Y00104781D01*
X00203708Y00105001D01*
X00203722Y00105016D01*
X00203737Y00105060D01*
X00203781Y00105133D01*
X00203840Y00105251D01*
X00203899Y00105383D01*
X00203972Y00105544D01*
X00204060Y00105750D01*
X00204133Y00105985D01*
X00204207Y00106249D01*
X00204295Y00106543D01*
X00204368Y00106880D01*
X00204427Y00107233D01*
X00204486Y00107629D01*
X00204515Y00108069D01*
X00204545Y00108525D01*
X00204559Y00109024D01*
Y00104414D01*
Y00109024D01*
Y00109214D01*
X00204545Y00109361D01*
X00204530Y00109537D01*
X00204501Y00109728D01*
X00204471Y00109963D01*
X00204442Y00110198D01*
X00204383Y00110462D01*
X00204324Y00110741D01*
X00204251Y00111020D01*
X00204148Y00111299D01*
X00204045Y00111593D01*
X00203913Y00111872D01*
X00203766Y00112151D01*
X00203590Y00112415D01*
X00203576Y00112430D01*
X00203546Y00112474D01*
X00203487Y00112547D01*
X00203414Y00112635D01*
X00203311Y00112738D01*
X00203194Y00112855D01*
X00203047Y00112973D01*
X00202900Y00113105D01*
X00202709Y00113237D01*
X00202519Y00113355D01*
X00202298Y00113472D01*
X00202078Y00113575D01*
X00201828Y00113663D01*
X00201550Y00113736D01*
X00201271Y00113780D01*
X00200977Y00113795D01*
D02*
G37*
G36*
X00288741Y00113663D02*
X00283559D01*
D01*
X00287244Y00103856D01*
X00288741D01*
X00285056Y00113663D01*
X00288741D01*
Y00104355D01*
Y00113663D01*
D02*
G37*
G36*
X00267409D02*
X00262227D01*
D01*
X00265912Y00103856D01*
X00267409D01*
X00263724Y00113663D01*
X00267409D01*
Y00104135D01*
Y00113663D01*
D02*
G37*
G36*
X00274427D02*
D01*
Y00103944D01*
Y00113663D01*
D02*
G37*
G36*
X00174962D02*
D01*
Y00103768D01*
Y00113663D01*
D02*
G37*
%LPD*%
G36*
X00301308Y00112312D02*
X00301396Y00112298D01*
X00301499Y00112268D01*
X00301719Y00112195D01*
X00301852Y00112136D01*
X00301984Y00112063D01*
X00302116Y00111975D01*
X00302248Y00111872D01*
X00302380Y00111754D01*
X00302512Y00111608D01*
X00302644Y00111446D01*
X00302762Y00111255D01*
X00303922Y00112165D01*
Y00103856D01*
X00303819D01*
Y00104355D01*
X00300736Y00108906D01*
X00300721Y00108921D01*
X00300692Y00108965D01*
X00300648Y00109038D01*
X00300589Y00109141D01*
X00300515Y00109258D01*
X00300442Y00109391D01*
X00300354Y00109537D01*
X00300266Y00109714D01*
X00300105Y00110066D01*
X00299958Y00110462D01*
X00299899Y00110653D01*
X00299855Y00110844D01*
X00299825Y00111035D01*
X00299811Y00111211D01*
Y00111226D01*
Y00111255D01*
X00299825Y00111314D01*
Y00111387D01*
X00299884Y00111564D01*
X00299928Y00111666D01*
X00299972Y00111769D01*
X00300046Y00111872D01*
X00300134Y00111975D01*
X00300251Y00112063D01*
X00300369Y00112151D01*
X00300530Y00112224D01*
X00300706Y00112283D01*
X00300912Y00112312D01*
X00301147Y00112327D01*
X00301250D01*
X00301308Y00112312D01*
D02*
G37*
G36*
X00242642D02*
X00242730Y00112297D01*
X00242833Y00112268D01*
X00243053Y00112195D01*
X00243185Y00112136D01*
X00243318Y00112063D01*
X00243450Y00111975D01*
X00243582Y00111872D01*
X00243714Y00111754D01*
X00243846Y00111608D01*
X00243978Y00111446D01*
X00244096Y00111255D01*
X00245256Y00112165D01*
Y00103856D01*
X00245153D01*
Y00104355D01*
X00242070Y00108906D01*
X00242055Y00108921D01*
X00242026Y00108965D01*
X00241982Y00109038D01*
X00241923Y00109141D01*
X00241849Y00109258D01*
X00241776Y00109391D01*
X00241688Y00109537D01*
X00241600Y00109714D01*
X00241438Y00110066D01*
X00241292Y00110462D01*
X00241233Y00110653D01*
X00241189Y00110844D01*
X00241159Y00111035D01*
X00241145Y00111211D01*
Y00111226D01*
Y00111255D01*
X00241159Y00111314D01*
Y00111387D01*
X00241218Y00111564D01*
X00241262Y00111666D01*
X00241306Y00111769D01*
X00241380Y00111872D01*
X00241468Y00111975D01*
X00241585Y00112063D01*
X00241703Y00112151D01*
X00241864Y00112224D01*
X00242040Y00112283D01*
X00242246Y00112312D01*
X00242481Y00112327D01*
X00242584D01*
X00242642Y00112312D01*
D02*
G37*
G36*
X00293190Y00112297D02*
X00293322Y00112268D01*
X00293483Y00112210D01*
X00293645Y00112136D01*
X00293806Y00112019D01*
X00293953Y00111857D01*
X00293968Y00111842D01*
X00294012Y00111769D01*
X00294070Y00111666D01*
X00294129Y00111534D01*
X00294203Y00111343D01*
X00294261Y00111138D01*
X00294305Y00110888D01*
X00294320Y00110595D01*
Y00110580D01*
Y00110565D01*
Y00110521D01*
Y00110462D01*
X00294305Y00110316D01*
X00294276Y00110125D01*
X00294232Y00109919D01*
X00294159Y00109699D01*
X00294070Y00109493D01*
X00293938Y00109303D01*
X00293924Y00109288D01*
X00293865Y00109229D01*
X00293792Y00109156D01*
X00293674Y00109068D01*
X00293527Y00108980D01*
X00293366Y00108906D01*
X00293175Y00108848D01*
X00292955Y00108833D01*
X00292896D01*
X00292808Y00108848D01*
X00292720Y00108862D01*
X00292602Y00108877D01*
X00292470Y00108921D01*
X00292338Y00108965D01*
X00292191Y00109038D01*
X00292059Y00109126D01*
X00291927Y00109244D01*
X00291795Y00109376D01*
X00291677Y00109537D01*
X00291575Y00109728D01*
X00291501Y00109949D01*
X00291457Y00110198D01*
X00291443Y00110492D01*
Y00110506D01*
Y00110565D01*
X00291457Y00110668D01*
X00291472Y00110785D01*
X00291487Y00110918D01*
X00291516Y00111079D01*
X00291575Y00111241D01*
X00291633Y00111417D01*
X00291707Y00111578D01*
X00291810Y00111740D01*
X00291942Y00111901D01*
X00292089Y00112048D01*
X00292265Y00112151D01*
X00292470Y00112254D01*
X00292705Y00112312D01*
X00292969Y00112327D01*
X00293072D01*
X00293190Y00112297D01*
D02*
G37*
G36*
X00296082Y00103665D02*
X00293836D01*
X00294760Y00104634D01*
X00294731Y00104649D01*
X00294672Y00104693D01*
X00294570Y00104751D01*
X00294438Y00104839D01*
X00294261Y00104942D01*
X00294070Y00105089D01*
X00293865Y00105236D01*
X00293645Y00105412D01*
X00293410Y00105618D01*
X00293175Y00105838D01*
X00292925Y00106073D01*
X00292690Y00106337D01*
X00292470Y00106616D01*
X00292265Y00106910D01*
X00292074Y00107233D01*
X00291898Y00107556D01*
X00291912Y00107541D01*
X00291971Y00107526D01*
X00292074Y00107497D01*
X00292206Y00107467D01*
X00292367Y00107423D01*
X00292558Y00107394D01*
X00292778Y00107379D01*
X00293028Y00107365D01*
X00293160D01*
X00293263Y00107379D01*
X00293381Y00107394D01*
X00293513Y00107409D01*
X00293659Y00107438D01*
X00293821Y00107467D01*
X00294173Y00107570D01*
X00294364Y00107644D01*
X00294540Y00107732D01*
X00294731Y00107820D01*
X00294907Y00107937D01*
X00295084Y00108069D01*
X00295245Y00108216D01*
X00295260Y00108231D01*
X00295274Y00108260D01*
X00295318Y00108304D01*
X00295377Y00108378D01*
X00295436Y00108466D01*
X00295509Y00108568D01*
X00295583Y00108686D01*
X00295656Y00108833D01*
X00295744Y00108980D01*
X00295818Y00109156D01*
X00295891Y00109347D01*
X00295950Y00109552D01*
X00296008Y00109772D01*
X00296052Y00110022D01*
X00296067Y00110272D01*
X00296082Y00110536D01*
Y00103665D01*
D02*
G37*
G36*
X00187896Y00103518D02*
X00186795D01*
X00186883Y00103533D01*
X00187001Y00103562D01*
X00187133Y00103606D01*
X00187279Y00103665D01*
X00187426Y00103753D01*
X00187558Y00103870D01*
X00187573Y00103885D01*
X00187617Y00103929D01*
X00187661Y00104003D01*
X00187720Y00104105D01*
X00187793Y00104238D01*
X00187837Y00104384D01*
X00187881Y00104546D01*
X00187896Y00104722D01*
Y00103518D01*
D02*
G37*
G36*
X00279624Y00112371D02*
X00279742Y00112342D01*
X00279874Y00112297D01*
X00280021Y00112210D01*
X00280167Y00112107D01*
X00280329Y00111960D01*
X00280505Y00111784D01*
X00280652Y00111549D01*
X00280799Y00111270D01*
X00280872Y00111108D01*
X00280931Y00110932D01*
X00280989Y00110741D01*
X00281048Y00110521D01*
X00281092Y00110301D01*
X00281136Y00110066D01*
X00281166Y00109802D01*
X00281195Y00109523D01*
X00281210Y00109229D01*
Y00108906D01*
Y00108891D01*
Y00108818D01*
Y00108715D01*
Y00108583D01*
X00281195Y00108422D01*
Y00108245D01*
X00281180Y00108040D01*
X00281166Y00107820D01*
X00281122Y00107350D01*
X00281048Y00106866D01*
X00281019Y00106645D01*
X00280960Y00106425D01*
X00280901Y00106220D01*
X00280843Y00106029D01*
Y00106014D01*
X00280828Y00105985D01*
X00280799Y00105941D01*
X00280769Y00105882D01*
X00280681Y00105735D01*
X00280534Y00105574D01*
X00280373Y00105412D01*
X00280153Y00105265D01*
X00280021Y00105206D01*
X00279888Y00105162D01*
X00279742Y00105133D01*
X00279580Y00105118D01*
X00279492D01*
X00279419Y00105133D01*
X00279257Y00105162D01*
X00279052Y00105221D01*
X00278831Y00105324D01*
X00278611Y00105471D01*
X00278494Y00105559D01*
X00278406Y00105676D01*
X00278303Y00105794D01*
X00278230Y00105941D01*
Y00105955D01*
X00278215Y00105985D01*
X00278185Y00106029D01*
X00278171Y00106102D01*
X00278127Y00106205D01*
X00278097Y00106322D01*
X00278068Y00106454D01*
X00278024Y00106631D01*
X00277980Y00106821D01*
X00277950Y00107027D01*
X00277906Y00107277D01*
X00277877Y00107541D01*
X00277862Y00107849D01*
X00277833Y00108172D01*
X00277818Y00108525D01*
Y00108906D01*
Y00108935D01*
Y00108994D01*
Y00109097D01*
Y00109229D01*
X00277833Y00109391D01*
Y00109567D01*
X00277848Y00109772D01*
X00277862Y00109993D01*
X00277921Y00110448D01*
X00277980Y00110888D01*
X00278024Y00111108D01*
X00278083Y00111299D01*
X00278141Y00111490D01*
X00278215Y00111637D01*
Y00111652D01*
X00278230Y00111666D01*
X00278288Y00111754D01*
X00278376Y00111872D01*
X00278508Y00112019D01*
X00278685Y00112165D01*
X00278905Y00112283D01*
X00279154Y00112371D01*
X00279301Y00112386D01*
X00279463Y00112400D01*
X00279536D01*
X00279624Y00112371D01*
D02*
G37*
G36*
X00250291D02*
X00250409Y00112342D01*
X00250541Y00112297D01*
X00250688Y00112210D01*
X00250834Y00112107D01*
X00250996Y00111960D01*
X00251172Y00111784D01*
X00251319Y00111549D01*
X00251466Y00111270D01*
X00251539Y00111108D01*
X00251598Y00110932D01*
X00251656Y00110741D01*
X00251715Y00110521D01*
X00251759Y00110301D01*
X00251803Y00110066D01*
X00251833Y00109802D01*
X00251862Y00109523D01*
X00251877Y00109229D01*
Y00108906D01*
Y00108891D01*
Y00108818D01*
Y00108715D01*
Y00108583D01*
X00251862Y00108422D01*
Y00108245D01*
X00251847Y00108040D01*
X00251833Y00107820D01*
X00251789Y00107350D01*
X00251715Y00106866D01*
X00251686Y00106645D01*
X00251627Y00106425D01*
X00251568Y00106220D01*
X00251510Y00106029D01*
Y00106014D01*
X00251495Y00105985D01*
X00251466Y00105941D01*
X00251436Y00105882D01*
X00251348Y00105735D01*
X00251201Y00105574D01*
X00251040Y00105412D01*
X00250820Y00105265D01*
X00250688Y00105206D01*
X00250555Y00105162D01*
X00250409Y00105133D01*
X00250247Y00105118D01*
X00250159D01*
X00250086Y00105133D01*
X00249924Y00105162D01*
X00249719Y00105221D01*
X00249498Y00105324D01*
X00249278Y00105471D01*
X00249161Y00105559D01*
X00249073Y00105676D01*
X00248970Y00105794D01*
X00248896Y00105941D01*
Y00105955D01*
X00248882Y00105985D01*
X00248852Y00106029D01*
X00248838Y00106102D01*
X00248794Y00106205D01*
X00248764Y00106322D01*
X00248735Y00106454D01*
X00248691Y00106631D01*
X00248647Y00106821D01*
X00248617Y00107027D01*
X00248573Y00107277D01*
X00248544Y00107541D01*
X00248529Y00107849D01*
X00248500Y00108172D01*
X00248485Y00108525D01*
Y00108906D01*
Y00108935D01*
Y00108994D01*
Y00109097D01*
Y00109229D01*
X00248500Y00109391D01*
Y00109567D01*
X00248515Y00109772D01*
X00248529Y00109993D01*
X00248588Y00110448D01*
X00248647Y00110888D01*
X00248691Y00111108D01*
X00248750Y00111299D01*
X00248808Y00111490D01*
X00248882Y00111637D01*
Y00111652D01*
X00248896Y00111666D01*
X00248955Y00111754D01*
X00249043Y00111872D01*
X00249175Y00112019D01*
X00249352Y00112165D01*
X00249572Y00112283D01*
X00249821Y00112371D01*
X00249968Y00112386D01*
X00250130Y00112400D01*
X00250203D01*
X00250291Y00112371D01*
D02*
G37*
G36*
X00234289D02*
X00234406Y00112342D01*
X00234538Y00112297D01*
X00234685Y00112210D01*
X00234832Y00112107D01*
X00234993Y00111960D01*
X00235170Y00111784D01*
X00235316Y00111549D01*
X00235463Y00111270D01*
X00235536Y00111108D01*
X00235595Y00110932D01*
X00235654Y00110741D01*
X00235713Y00110521D01*
X00235757Y00110301D01*
X00235801Y00110066D01*
X00235830Y00109802D01*
X00235860Y00109523D01*
X00235874Y00109229D01*
Y00108906D01*
Y00108891D01*
Y00108818D01*
Y00108715D01*
Y00108583D01*
X00235860Y00108422D01*
Y00108245D01*
X00235845Y00108040D01*
X00235830Y00107820D01*
X00235786Y00107350D01*
X00235713Y00106866D01*
X00235683Y00106645D01*
X00235625Y00106425D01*
X00235566Y00106220D01*
X00235507Y00106029D01*
Y00106014D01*
X00235492Y00105985D01*
X00235463Y00105941D01*
X00235434Y00105882D01*
X00235346Y00105735D01*
X00235199Y00105574D01*
X00235037Y00105412D01*
X00234817Y00105265D01*
X00234685Y00105206D01*
X00234553Y00105162D01*
X00234406Y00105133D01*
X00234245Y00105118D01*
X00234156D01*
X00234083Y00105133D01*
X00233922Y00105162D01*
X00233716Y00105221D01*
X00233496Y00105324D01*
X00233276Y00105471D01*
X00233158Y00105559D01*
X00233070Y00105676D01*
X00232967Y00105794D01*
X00232894Y00105941D01*
Y00105955D01*
X00232879Y00105985D01*
X00232850Y00106029D01*
X00232835Y00106102D01*
X00232791Y00106205D01*
X00232762Y00106322D01*
X00232732Y00106454D01*
X00232688Y00106631D01*
X00232644Y00106821D01*
X00232615Y00107027D01*
X00232571Y00107277D01*
X00232542Y00107541D01*
X00232527Y00107849D01*
X00232498Y00108172D01*
X00232483Y00108525D01*
Y00108906D01*
Y00108935D01*
Y00108994D01*
Y00109097D01*
Y00109229D01*
X00232498Y00109391D01*
Y00109567D01*
X00232512Y00109772D01*
X00232527Y00109993D01*
X00232586Y00110448D01*
X00232644Y00110888D01*
X00232688Y00111108D01*
X00232747Y00111299D01*
X00232806Y00111490D01*
X00232879Y00111637D01*
Y00111652D01*
X00232894Y00111666D01*
X00232953Y00111754D01*
X00233041Y00111872D01*
X00233173Y00112019D01*
X00233349Y00112165D01*
X00233569Y00112283D01*
X00233819Y00112371D01*
X00233966Y00112386D01*
X00234127Y00112400D01*
X00234200D01*
X00234289Y00112371D01*
D02*
G37*
G36*
X00214278Y00112312D02*
X00214454Y00112283D01*
X00214645Y00112210D01*
X00214851Y00112092D01*
X00214953Y00112019D01*
X00215027Y00111916D01*
X00215100Y00111813D01*
X00215159Y00111681D01*
X00215188Y00111534D01*
X00215203Y00111358D01*
Y00111343D01*
Y00111285D01*
X00215188Y00111196D01*
X00215159Y00111079D01*
X00215100Y00110947D01*
X00215042Y00110800D01*
X00214939Y00110639D01*
X00214807Y00110477D01*
X00214792Y00110462D01*
X00214733Y00110404D01*
X00214645Y00110330D01*
X00214542Y00110242D01*
X00214410Y00110139D01*
X00214263Y00110037D01*
X00214102Y00109934D01*
X00213941Y00109860D01*
X00213926Y00109875D01*
X00213882Y00109890D01*
X00213808Y00109949D01*
X00213720Y00110007D01*
X00213617Y00110095D01*
X00213515Y00110213D01*
X00213397Y00110345D01*
X00213295Y00110506D01*
X00213280Y00110521D01*
X00213251Y00110580D01*
X00213206Y00110683D01*
X00213148Y00110785D01*
X00213089Y00110918D01*
X00213045Y00111064D01*
X00213016Y00111211D01*
X00213001Y00111358D01*
Y00111373D01*
Y00111431D01*
X00213016Y00111505D01*
X00213045Y00111608D01*
X00213074Y00111725D01*
X00213133Y00111842D01*
X00213206Y00111960D01*
X00213309Y00112063D01*
X00213324Y00112077D01*
X00213368Y00112107D01*
X00213427Y00112151D01*
X00213529Y00112195D01*
X00213632Y00112239D01*
X00213779Y00112283D01*
X00213926Y00112312D01*
X00214102Y00112327D01*
X00214205D01*
X00214278Y00112312D01*
D02*
G37*
G36*
X00214307Y00108480D02*
X00214352Y00108466D01*
X00214410Y00108422D01*
X00214484Y00108363D01*
X00214587Y00108290D01*
X00214689Y00108202D01*
X00214924Y00107996D01*
X00215159Y00107732D01*
X00215262Y00107570D01*
X00215365Y00107409D01*
X00215438Y00107233D01*
X00215497Y00107056D01*
X00215541Y00106851D01*
X00215555Y00106645D01*
Y00106616D01*
Y00106543D01*
X00215541Y00106425D01*
X00215511Y00106278D01*
X00215467Y00106117D01*
X00215394Y00105941D01*
X00215306Y00105764D01*
X00215174Y00105603D01*
X00215159Y00105588D01*
X00215100Y00105544D01*
X00215012Y00105471D01*
X00214895Y00105397D01*
X00214748Y00105324D01*
X00214572Y00105251D01*
X00214366Y00105206D01*
X00214131Y00105192D01*
X00214014D01*
X00213896Y00105206D01*
X00213750Y00105236D01*
X00213573Y00105280D01*
X00213397Y00105339D01*
X00213206Y00105427D01*
X00213045Y00105544D01*
X00213030Y00105559D01*
X00212971Y00105618D01*
X00212913Y00105691D01*
X00212825Y00105808D01*
X00212751Y00105941D01*
X00212678Y00106102D01*
X00212634Y00106293D01*
X00212619Y00106513D01*
Y00106528D01*
Y00106557D01*
X00212634Y00106616D01*
X00212649Y00106689D01*
X00212663Y00106777D01*
X00212707Y00106880D01*
X00212766Y00107012D01*
X00212825Y00107144D01*
X00212913Y00107291D01*
X00213030Y00107438D01*
X00213162Y00107600D01*
X00213324Y00107776D01*
X00213515Y00107952D01*
X00213735Y00108128D01*
X00213999Y00108319D01*
X00214293Y00108495D01*
X00214307Y00108480D01*
D02*
G37*
G36*
X00208905Y00110213D02*
X00208890Y00110301D01*
X00208861Y00110418D01*
X00208817Y00110550D01*
X00208758Y00110697D01*
X00208685Y00110844D01*
X00208567Y00110976D01*
X00208552Y00110991D01*
X00208508Y00111035D01*
X00208435Y00111094D01*
X00208332Y00111152D01*
X00208200Y00111211D01*
X00208053Y00111270D01*
X00207892Y00111314D01*
X00207716Y00111329D01*
X00208905D01*
Y00110213D01*
D02*
G37*
G36*
X00222177Y00112371D02*
X00222294Y00112342D01*
X00222426Y00112297D01*
X00222573Y00112210D01*
X00222720Y00112107D01*
X00222881Y00111960D01*
X00223057Y00111784D01*
X00223204Y00111549D01*
X00223351Y00111270D01*
X00223424Y00111108D01*
X00223483Y00110932D01*
X00223542Y00110741D01*
X00223601Y00110521D01*
X00223645Y00110301D01*
X00223689Y00110066D01*
X00223718Y00109802D01*
X00223748Y00109523D01*
X00223762Y00109229D01*
Y00108906D01*
Y00108891D01*
Y00108818D01*
Y00108715D01*
Y00108583D01*
X00223748Y00108422D01*
Y00108245D01*
X00223733Y00108040D01*
X00223718Y00107820D01*
X00223674Y00107350D01*
X00223601Y00106866D01*
X00223571Y00106645D01*
X00223513Y00106425D01*
X00223454Y00106220D01*
X00223395Y00106029D01*
Y00106014D01*
X00223381Y00105985D01*
X00223351Y00105941D01*
X00223322Y00105882D01*
X00223234Y00105735D01*
X00223087Y00105574D01*
X00222925Y00105412D01*
X00222705Y00105265D01*
X00222573Y00105206D01*
X00222441Y00105162D01*
X00222294Y00105133D01*
X00222133Y00105118D01*
X00222045D01*
X00221971Y00105133D01*
X00221810Y00105162D01*
X00221604Y00105221D01*
X00221384Y00105324D01*
X00221164Y00105471D01*
X00221046Y00105559D01*
X00220958Y00105676D01*
X00220855Y00105794D01*
X00220782Y00105941D01*
Y00105955D01*
X00220767Y00105985D01*
X00220738Y00106029D01*
X00220723Y00106102D01*
X00220679Y00106205D01*
X00220650Y00106322D01*
X00220620Y00106454D01*
X00220576Y00106631D01*
X00220532Y00106821D01*
X00220503Y00107027D01*
X00220459Y00107277D01*
X00220430Y00107541D01*
X00220415Y00107849D01*
X00220385Y00108172D01*
X00220371Y00108525D01*
Y00108906D01*
Y00108935D01*
Y00108994D01*
Y00109097D01*
Y00109229D01*
X00220385Y00109391D01*
Y00109567D01*
X00220400Y00109772D01*
X00220415Y00109993D01*
X00220474Y00110448D01*
X00220532Y00110888D01*
X00220576Y00111108D01*
X00220635Y00111299D01*
X00220694Y00111490D01*
X00220767Y00111637D01*
Y00111652D01*
X00220782Y00111666D01*
X00220841Y00111754D01*
X00220929Y00111872D01*
X00221061Y00112019D01*
X00221237Y00112165D01*
X00221457Y00112283D01*
X00221707Y00112371D01*
X00221854Y00112386D01*
X00222015Y00112400D01*
X00222089D01*
X00222177Y00112371D01*
D02*
G37*
G36*
X00201168D02*
X00201285Y00112342D01*
X00201417Y00112297D01*
X00201564Y00112210D01*
X00201711Y00112107D01*
X00201873Y00111960D01*
X00202049Y00111784D01*
X00202195Y00111549D01*
X00202342Y00111270D01*
X00202416Y00111108D01*
X00202474Y00110932D01*
X00202533Y00110741D01*
X00202592Y00110521D01*
X00202636Y00110301D01*
X00202680Y00110066D01*
X00202709Y00109802D01*
X00202739Y00109523D01*
X00202753Y00109229D01*
Y00108906D01*
Y00108891D01*
Y00108818D01*
Y00108715D01*
Y00108583D01*
X00202739Y00108422D01*
Y00108245D01*
X00202724Y00108040D01*
X00202709Y00107820D01*
X00202665Y00107350D01*
X00202592Y00106866D01*
X00202563Y00106645D01*
X00202504Y00106425D01*
X00202445Y00106220D01*
X00202386Y00106029D01*
Y00106014D01*
X00202372Y00105985D01*
X00202342Y00105941D01*
X00202313Y00105882D01*
X00202225Y00105735D01*
X00202078Y00105574D01*
X00201917Y00105412D01*
X00201696Y00105265D01*
X00201564Y00105206D01*
X00201432Y00105162D01*
X00201285Y00105133D01*
X00201124Y00105118D01*
X00201036D01*
X00200962Y00105133D01*
X00200801Y00105162D01*
X00200595Y00105221D01*
X00200375Y00105324D01*
X00200155Y00105471D01*
X00200037Y00105559D01*
X00199949Y00105676D01*
X00199846Y00105794D01*
X00199773Y00105941D01*
Y00105955D01*
X00199758Y00105985D01*
X00199729Y00106029D01*
X00199714Y00106102D01*
X00199670Y00106205D01*
X00199641Y00106322D01*
X00199612Y00106454D01*
X00199568Y00106631D01*
X00199524Y00106821D01*
X00199494Y00107027D01*
X00199450Y00107277D01*
X00199421Y00107541D01*
X00199406Y00107849D01*
X00199377Y00108172D01*
X00199362Y00108525D01*
Y00108906D01*
Y00108935D01*
Y00108994D01*
Y00109097D01*
Y00109229D01*
X00199377Y00109391D01*
Y00109567D01*
X00199391Y00109772D01*
X00199406Y00109993D01*
X00199465Y00110448D01*
X00199524Y00110888D01*
X00199568Y00111108D01*
X00199626Y00111299D01*
X00199685Y00111490D01*
X00199758Y00111637D01*
Y00111652D01*
X00199773Y00111666D01*
X00199832Y00111754D01*
X00199920Y00111872D01*
X00200052Y00112019D01*
X00200228Y00112165D01*
X00200448Y00112283D01*
X00200698Y00112371D01*
X00200845Y00112386D01*
X00201006Y00112400D01*
X00201080D01*
X00201168Y00112371D01*
D02*
G37*
%LPC*%
G36*
X00343766Y00128462D02*
X00341917D01*
X00341843Y00128447D01*
X00341755Y00128432D01*
X00341652Y00128388D01*
X00341535Y00128344D01*
X00341417Y00128271D01*
X00341315Y00128168D01*
X00341300Y00128153D01*
X00341270Y00128124D01*
X00341227Y00128065D01*
X00341168Y00127977D01*
X00341109Y00127874D01*
X00341065Y00127772D01*
X00341036Y00127639D01*
X00341021Y00127493D01*
Y00127507D01*
Y00127419D01*
X00341036Y00127346D01*
X00341050Y00127258D01*
X00341094Y00127140D01*
X00341138Y00127023D01*
X00341212Y00126920D01*
X00341315Y00126803D01*
X00341329Y00126788D01*
X00341359Y00126758D01*
X00341417Y00126714D01*
X00341505Y00126671D01*
X00341608Y00126612D01*
X00341711Y00126568D01*
X00341843Y00126538D01*
X00341990Y00126524D01*
X00342063D01*
X00342137Y00126538D01*
X00342225Y00126553D01*
X00342342Y00126597D01*
X00342460Y00126641D01*
X00342562Y00126714D01*
X00342680Y00126803D01*
X00342695Y00126817D01*
X00342724Y00126847D01*
X00342768Y00126920D01*
X00342812Y00126993D01*
X00342871Y00127096D01*
X00342915Y00127214D01*
X00342944Y00127346D01*
X00342959Y00127493D01*
Y00127507D01*
Y00127566D01*
X00342944Y00127639D01*
X00342929Y00127727D01*
X00342886Y00127830D01*
X00342841Y00127948D01*
X00342768Y00128065D01*
X00342680Y00128168D01*
X00342665Y00128183D01*
X00342636Y00128212D01*
X00342562Y00128256D01*
X00342489Y00128315D01*
X00342386Y00128373D01*
X00342269Y00128418D01*
X00342137Y00128447D01*
X00341990Y00128462D01*
X00343766D01*
D02*
G37*
G36*
X00331728D02*
X00329878D01*
X00329804Y00128447D01*
X00329716Y00128432D01*
X00329614Y00128388D01*
X00329496Y00128344D01*
X00329379Y00128271D01*
X00329276Y00128168D01*
X00329261Y00128153D01*
X00329232Y00128124D01*
X00329188Y00128065D01*
X00329129Y00127977D01*
X00329071Y00127874D01*
X00329026Y00127772D01*
X00328997Y00127639D01*
X00328982Y00127493D01*
Y00127507D01*
Y00127419D01*
X00328997Y00127346D01*
X00329012Y00127258D01*
X00329056Y00127140D01*
X00329100Y00127023D01*
X00329173Y00126920D01*
X00329276Y00126803D01*
X00329291Y00126788D01*
X00329320Y00126758D01*
X00329379Y00126714D01*
X00329467Y00126671D01*
X00329570Y00126612D01*
X00329672Y00126568D01*
X00329804Y00126538D01*
X00329951Y00126524D01*
X00330025D01*
X00330098Y00126538D01*
X00330186Y00126553D01*
X00330304Y00126597D01*
X00330421Y00126641D01*
X00330524Y00126714D01*
X00330641Y00126803D01*
X00330656Y00126817D01*
X00330685Y00126847D01*
X00330729Y00126920D01*
X00330774Y00126993D01*
X00330832Y00127096D01*
X00330876Y00127214D01*
X00330906Y00127346D01*
X00330920Y00127493D01*
Y00127507D01*
Y00127566D01*
X00330906Y00127639D01*
X00330891Y00127727D01*
X00330847Y00127830D01*
X00330803Y00127948D01*
X00330729Y00128065D01*
X00330641Y00128168D01*
X00330627Y00128183D01*
X00330597Y00128212D01*
X00330524Y00128256D01*
X00330451Y00128315D01*
X00330348Y00128373D01*
X00330230Y00128418D01*
X00330098Y00128447D01*
X00329951Y00128462D01*
X00331728D01*
D02*
G37*
G36*
X00301279Y00128462D02*
X00299429D01*
X00299356Y00128447D01*
X00299268Y00128432D01*
X00299165Y00128388D01*
X00299047Y00128344D01*
X00298930Y00128271D01*
X00298827Y00128168D01*
X00298813Y00128153D01*
X00298783Y00128124D01*
X00298739Y00128065D01*
X00298680Y00127977D01*
X00298622Y00127874D01*
X00298578Y00127772D01*
X00298548Y00127639D01*
X00298534Y00127493D01*
D01*
Y00127419D01*
X00298548Y00127346D01*
X00298563Y00127258D01*
X00298607Y00127140D01*
X00298651Y00127023D01*
X00298724Y00126920D01*
X00298827Y00126803D01*
X00298842Y00126788D01*
X00298871Y00126758D01*
X00298930Y00126714D01*
X00299018Y00126670D01*
X00299121Y00126612D01*
X00299224Y00126568D01*
X00299356Y00126538D01*
X00299503Y00126524D01*
X00299576D01*
X00299649Y00126538D01*
X00299737Y00126553D01*
X00299855Y00126597D01*
X00299972Y00126641D01*
X00300075Y00126714D01*
X00300193Y00126803D01*
X00300207Y00126817D01*
X00300237Y00126847D01*
X00300281Y00126920D01*
X00300325Y00126993D01*
X00300383Y00127096D01*
X00300427Y00127214D01*
X00300457Y00127346D01*
X00300471Y00127493D01*
Y00127507D01*
Y00127566D01*
X00300457Y00127639D01*
X00300442Y00127727D01*
X00300398Y00127830D01*
X00300354Y00127948D01*
X00300281Y00128065D01*
X00300193Y00128168D01*
X00300178Y00128183D01*
X00300149Y00128212D01*
X00300075Y00128256D01*
X00300002Y00128315D01*
X00299899Y00128373D01*
X00299781Y00128418D01*
X00299649Y00128447D01*
X00299503Y00128462D01*
X00301279D01*
D02*
G37*
G36*
X00215394D02*
X00212649D01*
D01*
X00213544D01*
X00213471Y00128447D01*
X00213383Y00128432D01*
X00213280Y00128388D01*
X00213162Y00128344D01*
X00213045Y00128271D01*
X00212942Y00128168D01*
X00212927Y00128153D01*
X00212898Y00128124D01*
X00212854Y00128065D01*
X00212795Y00127977D01*
X00212737Y00127874D01*
X00212693Y00127772D01*
X00212663Y00127639D01*
X00212649Y00127493D01*
Y00127493D01*
Y00127419D01*
X00212663Y00127346D01*
X00212678Y00127258D01*
X00212722Y00127140D01*
X00212766Y00127023D01*
X00212839Y00126920D01*
X00212942Y00126803D01*
X00212957Y00126788D01*
X00212986Y00126758D01*
X00213045Y00126714D01*
X00213133Y00126670D01*
X00213236Y00126612D01*
X00213339Y00126568D01*
X00213471Y00126538D01*
X00213617Y00126524D01*
X00213691D01*
X00213764Y00126538D01*
X00213852Y00126553D01*
X00213970Y00126597D01*
X00214087Y00126641D01*
X00214190Y00126714D01*
X00214307Y00126803D01*
X00214322Y00126817D01*
X00214352Y00126847D01*
X00214396Y00126920D01*
X00214440Y00126993D01*
X00214498Y00127096D01*
X00214542Y00127214D01*
X00214572Y00127346D01*
X00214587Y00127493D01*
Y00127507D01*
Y00127566D01*
X00214572Y00127639D01*
X00214557Y00127727D01*
X00214513Y00127830D01*
X00214469Y00127948D01*
X00214396Y00128065D01*
X00214307Y00128168D01*
X00214293Y00128183D01*
X00214263Y00128212D01*
X00214190Y00128256D01*
X00214117Y00128315D01*
X00214014Y00128373D01*
X00213896Y00128418D01*
X00213764Y00128447D01*
X00213617Y00128462D01*
X00215394D01*
D02*
G37*
G36*
X00274163Y00125819D02*
X00271699D01*
X00274163D01*
D01*
D02*
G37*
G36*
X00313039Y00128755D02*
D01*
Y00125232D01*
X00313024D01*
X00313009Y00125261D01*
X00312921Y00125320D01*
X00312774Y00125423D01*
X00312569Y00125525D01*
X00312319Y00125628D01*
X00312011Y00125731D01*
X00311659Y00125790D01*
X00311262Y00125819D01*
X00311130D01*
X00311042Y00125804D01*
X00310924Y00125790D01*
X00310807Y00125775D01*
X00310499Y00125731D01*
X00310176Y00125643D01*
X00309823Y00125511D01*
X00309662Y00125423D01*
X00309486Y00125320D01*
X00309339Y00125202D01*
X00309192Y00125070D01*
X00309177Y00125056D01*
X00309163Y00125041D01*
X00309119Y00124997D01*
X00309075Y00124938D01*
X00309016Y00124850D01*
X00308957Y00124762D01*
X00308884Y00124644D01*
X00308810Y00124527D01*
X00308752Y00124380D01*
X00308678Y00124219D01*
X00308620Y00124043D01*
X00308561Y00123852D01*
X00308517Y00123646D01*
X00308473Y00123426D01*
X00308458Y00123191D01*
X00308443Y00122941D01*
Y00122956D01*
Y00118552D01*
X00314727D01*
Y00128344D01*
X00313039Y00128755D01*
D02*
G37*
G36*
X00204001Y00128755D02*
X00197718D01*
X00202313D01*
Y00125232D01*
X00202298D01*
X00202284Y00125261D01*
X00202195Y00125320D01*
X00202049Y00125422D01*
X00201843Y00125525D01*
X00201594Y00125628D01*
X00201285Y00125731D01*
X00200933Y00125790D01*
X00200537Y00125819D01*
X00200404D01*
X00200316Y00125804D01*
X00200199Y00125790D01*
X00200081Y00125775D01*
X00199773Y00125731D01*
X00199450Y00125643D01*
X00199098Y00125511D01*
X00198936Y00125422D01*
X00198760Y00125320D01*
X00198613Y00125202D01*
X00198466Y00125070D01*
X00198452Y00125056D01*
X00198437Y00125041D01*
X00198393Y00124997D01*
X00198349Y00124938D01*
X00198290Y00124850D01*
X00198232Y00124762D01*
X00198158Y00124644D01*
X00198085Y00124527D01*
X00198026Y00124380D01*
X00197953Y00124219D01*
X00197894Y00124043D01*
X00197835Y00123852D01*
X00197791Y00123646D01*
X00197747Y00123426D01*
X00197732Y00123191D01*
X00197718Y00122941D01*
Y00122941D01*
Y00118552D01*
X00199391D01*
Y00122941D01*
Y00122956D01*
Y00122971D01*
Y00123044D01*
X00199406Y00123176D01*
X00199450Y00123323D01*
X00199494Y00123485D01*
X00199568Y00123661D01*
X00199670Y00123837D01*
X00199817Y00123998D01*
X00199832Y00124013D01*
X00199891Y00124057D01*
X00199979Y00124131D01*
X00200111Y00124204D01*
X00200258Y00124277D01*
X00200448Y00124351D01*
X00200654Y00124395D01*
X00200889Y00124410D01*
X00200962D01*
X00201036Y00124395D01*
X00201153Y00124380D01*
X00201271Y00124351D01*
X00201417Y00124307D01*
X00201564Y00124248D01*
X00201726Y00124175D01*
X00201740Y00124160D01*
X00201799Y00124131D01*
X00201858Y00124087D01*
X00201946Y00124028D01*
X00202152Y00123866D01*
X00202240Y00123778D01*
X00202313Y00123675D01*
Y00118552D01*
X00204001D01*
Y00128344D01*
X00202313Y00128755D01*
X00204001D01*
D01*
D02*
G37*
G36*
X00285438Y00125819D02*
Y00125687D01*
X00284293D01*
X00283955Y00125056D01*
X00283941Y00125070D01*
X00283926Y00125085D01*
X00283882Y00125129D01*
X00283823Y00125173D01*
X00283676Y00125290D01*
X00283471Y00125437D01*
X00283221Y00125584D01*
X00282913Y00125702D01*
X00282560Y00125790D01*
X00282370Y00125804D01*
X00282164Y00125819D01*
X00282032D01*
X00281929Y00125804D01*
X00281812Y00125790D01*
X00281679Y00125775D01*
X00281357Y00125716D01*
X00281019Y00125628D01*
X00280652Y00125496D01*
X00280490Y00125408D01*
X00280314Y00125305D01*
X00280167Y00125173D01*
X00280021Y00125041D01*
X00280006Y00125056D01*
X00279962Y00125099D01*
X00279888Y00125158D01*
X00279786Y00125246D01*
X00279668Y00125334D01*
X00279507Y00125422D01*
X00279331Y00125511D01*
X00279140Y00125599D01*
X00279110Y00125613D01*
X00279037Y00125628D01*
X00278934Y00125672D01*
X00278787Y00125716D01*
X00278611Y00125745D01*
X00278420Y00125790D01*
X00278215Y00125804D01*
X00278009Y00125819D01*
X00279192D01*
X00277892D01*
X00277818Y00125804D01*
X00277716D01*
X00277598Y00125790D01*
X00277334Y00125731D01*
X00277040Y00125657D01*
X00276732Y00125525D01*
X00276424Y00125364D01*
X00276292Y00125246D01*
X00276159Y00125129D01*
X00276145Y00125114D01*
X00276130Y00125099D01*
X00276101Y00125056D01*
X00276057Y00124997D01*
X00275998Y00124938D01*
X00275939Y00124850D01*
X00275822Y00124630D01*
X00275704Y00124366D01*
X00275587Y00124043D01*
X00275513Y00123675D01*
X00275484Y00123470D01*
Y00118552D01*
X00277158D01*
Y00123015D01*
Y00123029D01*
Y00123074D01*
X00277172Y00123147D01*
Y00123235D01*
X00277202Y00123338D01*
X00277231Y00123455D01*
X00277260Y00123587D01*
X00277319Y00123720D01*
X00277378Y00123852D01*
X00277466Y00123984D01*
X00277569Y00124101D01*
X00277686Y00124204D01*
X00277833Y00124292D01*
X00278009Y00124366D01*
X00278200Y00124410D01*
X00278420Y00124424D01*
X00278479D01*
X00278552Y00124410D01*
X00278655Y00124395D01*
X00278773Y00124366D01*
X00278890Y00124336D01*
X00279022Y00124277D01*
X00279154Y00124204D01*
X00279169Y00124189D01*
X00279213Y00124160D01*
X00279272Y00124116D01*
X00279345Y00124057D01*
X00279492Y00123896D01*
X00279566Y00123793D01*
X00279624Y00123690D01*
Y00118552D01*
X00278802D01*
X00281298D01*
Y00123279D01*
Y00123308D01*
Y00123367D01*
X00281313Y00123455D01*
X00281342Y00123573D01*
X00281386Y00123705D01*
X00281445Y00123837D01*
X00281518Y00123984D01*
X00281635Y00124101D01*
X00281650Y00124116D01*
X00281694Y00124145D01*
X00281768Y00124204D01*
X00281870Y00124263D01*
X00282003Y00124321D01*
X00282149Y00124380D01*
X00282340Y00124410D01*
X00282546Y00124424D01*
X00282605D01*
X00282663Y00124410D01*
X00282751Y00124395D01*
X00282854Y00124366D01*
X00282971Y00124321D01*
X00283104Y00124263D01*
X00283236Y00124189D01*
X00283250Y00124175D01*
X00283295Y00124145D01*
X00283353Y00124101D01*
X00283441Y00124043D01*
X00283617Y00123881D01*
X00283691Y00123778D01*
X00283764Y00123675D01*
Y00118552D01*
X00285438D01*
Y00125819D01*
D02*
G37*
G36*
X00248089D02*
Y00125687D01*
X00246415D01*
Y00125026D01*
X00246401Y00125041D01*
X00246386Y00125056D01*
X00246342Y00125099D01*
X00246283Y00125144D01*
X00246224Y00125217D01*
X00246136Y00125276D01*
X00245931Y00125422D01*
X00245667Y00125569D01*
X00245344Y00125702D01*
X00244977Y00125790D01*
X00244771Y00125804D01*
X00244566Y00125819D01*
X00244419D01*
X00244272Y00125804D01*
X00244081Y00125790D01*
X00243861Y00125760D01*
X00243641Y00125702D01*
X00243435Y00125643D01*
X00243244Y00125555D01*
X00243964Y00124131D01*
X00243978Y00124145D01*
X00244037Y00124175D01*
X00244125Y00124219D01*
X00244257Y00124277D01*
X00244404Y00124336D01*
X00244566Y00124380D01*
X00244742Y00124410D01*
X00244947Y00124424D01*
X00244977D01*
X00245050Y00124410D01*
X00245153Y00124395D01*
X00245285Y00124366D01*
X00245446Y00124292D01*
X00245623Y00124204D01*
X00245799Y00124072D01*
X00245975Y00123896D01*
X00245990Y00123866D01*
X00246048Y00123808D01*
X00246107Y00123690D01*
X00246195Y00123543D01*
X00246269Y00123352D01*
X00246342Y00123132D01*
X00246401Y00122883D01*
X00246415Y00122604D01*
Y00118552D01*
X00243244D01*
D01*
X00248089D01*
Y00125819D01*
D02*
G37*
G36*
X00164421D02*
Y00125687D01*
X00163232D01*
X00162923Y00125012D01*
X00162909Y00125026D01*
X00162894Y00125041D01*
X00162850Y00125085D01*
X00162791Y00125144D01*
X00162718Y00125202D01*
X00162630Y00125261D01*
X00162527Y00125334D01*
X00162409Y00125422D01*
X00162277Y00125496D01*
X00162131Y00125569D01*
X00161969Y00125628D01*
X00161778Y00125687D01*
X00161587Y00125745D01*
X00161382Y00125790D01*
X00161147Y00125804D01*
X00160912Y00125819D01*
X00160795D01*
X00160707Y00125804D01*
X00160589Y00125790D01*
X00160472Y00125775D01*
X00160178Y00125731D01*
X00159855Y00125628D01*
X00159517Y00125496D01*
X00159356Y00125408D01*
X00159194Y00125305D01*
X00159047Y00125188D01*
X00158901Y00125056D01*
X00158886Y00125041D01*
X00158871Y00125026D01*
X00158827Y00124982D01*
X00158783Y00124909D01*
X00158724Y00124835D01*
X00158666Y00124747D01*
X00158592Y00124630D01*
X00158519Y00124498D01*
X00158460Y00124366D01*
X00158387Y00124204D01*
X00158328Y00124028D01*
X00158269Y00123837D01*
X00158225Y00123631D01*
X00158181Y00123411D01*
X00158167Y00123176D01*
X00158152Y00122927D01*
Y00118552D01*
X00159826D01*
Y00122662D01*
Y00122677D01*
Y00122706D01*
Y00122751D01*
Y00122809D01*
X00159840Y00122971D01*
X00159870Y00123176D01*
X00159914Y00123382D01*
X00159972Y00123617D01*
X00160061Y00123822D01*
X00160178Y00123998D01*
X00160193Y00124013D01*
X00160251Y00124072D01*
X00160325Y00124131D01*
X00160457Y00124219D01*
X00160618Y00124292D01*
X00160809Y00124366D01*
X00161044Y00124410D01*
X00161323Y00124424D01*
X00161382D01*
X00161455Y00124410D01*
X00161558Y00124395D01*
X00161675Y00124366D01*
X00161808Y00124336D01*
X00161954Y00124277D01*
X00162116Y00124204D01*
X00162131Y00124189D01*
X00162189Y00124175D01*
X00162263Y00124131D01*
X00162351Y00124072D01*
X00162556Y00123910D01*
X00162659Y00123808D01*
X00162747Y00123705D01*
Y00118552D01*
X00161286D01*
X00164421D01*
Y00125819D01*
D02*
G37*
G36*
X00271388D02*
X00267659D01*
X00271227D01*
X00271124Y00125804D01*
X00270992Y00125790D01*
X00270830Y00125775D01*
X00270654Y00125760D01*
X00270478Y00125731D01*
X00270081Y00125643D01*
X00269685Y00125511D01*
X00269494Y00125422D01*
X00269318Y00125320D01*
X00269142Y00125202D01*
X00268995Y00125070D01*
X00268980Y00125056D01*
X00268966Y00125041D01*
X00268922Y00124982D01*
X00268878Y00124923D01*
X00268819Y00124835D01*
X00268760Y00124718D01*
X00268687Y00124586D01*
X00268613Y00124439D01*
X00268540Y00124263D01*
X00268466Y00124057D01*
X00268408Y00123822D01*
X00268349Y00123573D01*
X00268305Y00123279D01*
X00268261Y00122971D01*
X00268246Y00122618D01*
X00268232Y00122251D01*
Y00120724D01*
Y00120710D01*
Y00120666D01*
Y00120592D01*
X00268217Y00120504D01*
Y00120387D01*
X00268202Y00120255D01*
X00268158Y00119976D01*
X00268085Y00119668D01*
X00267997Y00119374D01*
X00267923Y00119242D01*
X00267850Y00119124D01*
X00267762Y00119022D01*
X00267659Y00118948D01*
X00267674Y00118933D01*
X00267703Y00118889D01*
X00267747Y00118831D01*
X00267806Y00118757D01*
X00267953Y00118610D01*
X00268041Y00118552D01*
X00268129Y00118508D01*
X00268144D01*
X00268173Y00118493D01*
X00268232Y00118478D01*
X00268290Y00118464D01*
X00268378Y00118449D01*
X00268481Y00118434D01*
X00268716Y00118420D01*
X00268775D01*
X00268848Y00118434D01*
X00268922Y00118449D01*
X00269024Y00118478D01*
X00269142Y00118537D01*
X00269245Y00118596D01*
X00269362Y00118684D01*
X00269377Y00118699D01*
X00269406Y00118728D01*
X00269465Y00118787D01*
X00269524Y00118860D01*
X00269641Y00119036D01*
X00269700Y00119139D01*
X00269744Y00119256D01*
X00269758Y00119242D01*
X00269788Y00119198D01*
X00269846Y00119124D01*
X00269935Y00119051D01*
X00270037Y00118948D01*
X00270170Y00118845D01*
X00270346Y00118743D01*
X00270536Y00118654D01*
X00270566Y00118640D01*
X00270639Y00118625D01*
X00270742Y00118581D01*
X00270889Y00118537D01*
X00271065Y00118493D01*
X00271271Y00118464D01*
X00271476Y00118434D01*
X00271711Y00118420D01*
X00271967D01*
X00271814D01*
X00271902Y00118434D01*
X00271990D01*
X00272107Y00118449D01*
X00272372Y00118493D01*
X00272651Y00118566D01*
X00272959Y00118654D01*
X00273253Y00118801D01*
X00273517Y00118992D01*
X00273546Y00119022D01*
X00273620Y00119095D01*
X00273722Y00119227D01*
X00273840Y00119418D01*
X00273957Y00119638D01*
X00274060Y00119917D01*
X00274133Y00120255D01*
X00274148Y00120431D01*
X00274163Y00120622D01*
Y00118464D01*
Y00120739D01*
X00274148Y00120827D01*
X00274133Y00120930D01*
X00274119Y00121047D01*
X00274045Y00121327D01*
X00273943Y00121635D01*
X00273869Y00121796D01*
X00273781Y00121958D01*
X00273678Y00122119D01*
X00273546Y00122281D01*
X00273414Y00122428D01*
X00273253Y00122560D01*
X00273238Y00122574D01*
X00273209Y00122589D01*
X00273150Y00122618D01*
X00273076Y00122677D01*
X00272988Y00122721D01*
X00272871Y00122780D01*
X00272739Y00122853D01*
X00272577Y00122912D01*
X00272401Y00122985D01*
X00272195Y00123044D01*
X00271990Y00123103D01*
X00271740Y00123162D01*
X00271491Y00123206D01*
X00271212Y00123235D01*
X00270918Y00123250D01*
X00270610Y00123264D01*
X00270492D01*
X00270419Y00123250D01*
X00270316Y00123235D01*
X00270199Y00123220D01*
X00270067Y00123191D01*
X00269920Y00123162D01*
Y00123176D01*
Y00123220D01*
X00269935Y00123279D01*
X00269949Y00123352D01*
X00269964Y00123455D01*
X00270008Y00123558D01*
X00270052Y00123675D01*
X00270111Y00123793D01*
X00270199Y00123910D01*
X00270302Y00124028D01*
X00270434Y00124131D01*
X00270595Y00124233D01*
X00270771Y00124307D01*
X00270977Y00124366D01*
X00271227Y00124410D01*
X00271506Y00124424D01*
X00271667D01*
X00271740Y00124410D01*
X00271828D01*
X00272049Y00124380D01*
X00272298Y00124351D01*
X00272563Y00124292D01*
X00272827Y00124219D01*
X00273076Y00124116D01*
X00273429Y00125408D01*
X00273414D01*
X00273385Y00125422D01*
X00273341Y00125452D01*
X00273282Y00125467D01*
X00273194Y00125511D01*
X00273091Y00125540D01*
X00272988Y00125569D01*
X00272856Y00125613D01*
X00272563Y00125687D01*
X00272210Y00125760D01*
X00271814Y00125804D01*
X00271388Y00125819D01*
D02*
G37*
G36*
X00356216Y00128315D02*
X00354410D01*
X00352575Y00122428D01*
X00350608Y00128315D01*
X00349844D01*
X00347862Y00122428D01*
X00346027Y00128315D01*
X00344221D01*
X00347378Y00118420D01*
X00344221D01*
X00356216D01*
X00353016D01*
X00356216Y00128315D01*
D02*
G37*
G36*
X00288917Y00127757D02*
D01*
Y00125687D01*
X00286950D01*
Y00124351D01*
X00288917D01*
Y00121224D01*
Y00121209D01*
Y00121194D01*
Y00121106D01*
X00288903Y00120959D01*
X00288888Y00120798D01*
X00288859Y00120622D01*
X00288815Y00120446D01*
X00288756Y00120284D01*
X00288682Y00120137D01*
X00288668Y00120123D01*
X00288638Y00120093D01*
X00288580Y00120035D01*
X00288492Y00119991D01*
X00288374Y00119932D01*
X00288227Y00119873D01*
X00288051Y00119844D01*
X00287846Y00119829D01*
X00287743D01*
X00287625Y00119844D01*
X00287479Y00119873D01*
X00287302Y00119902D01*
X00287112Y00119961D01*
X00286921Y00120049D01*
X00286715Y00120152D01*
Y00127757D01*
Y00118610D01*
X00286745Y00118596D01*
X00286818Y00118581D01*
X00286950Y00118552D01*
X00287141Y00118522D01*
X00287376Y00118478D01*
X00287670Y00118449D01*
X00287992Y00118434D01*
X00288374Y00118420D01*
X00286715D01*
X00291413D01*
X00288477D01*
X00288550Y00118434D01*
X00288638D01*
X00288741Y00118449D01*
X00288976Y00118493D01*
X00289240Y00118566D01*
X00289519Y00118669D01*
X00289784Y00118816D01*
X00290019Y00119022D01*
X00290048Y00119051D01*
X00290107Y00119139D01*
X00290195Y00119271D01*
X00290297Y00119462D01*
X00290415Y00119697D01*
X00290503Y00119991D01*
X00290562Y00120343D01*
X00290591Y00120724D01*
Y00124351D01*
X00291413D01*
Y00125702D01*
Y00125687D01*
X00290591D01*
Y00127140D01*
X00288917Y00127757D01*
D02*
G37*
G36*
X00193974D02*
D01*
Y00125687D01*
X00192007D01*
Y00124351D01*
X00193974D01*
Y00121224D01*
Y00121209D01*
Y00121194D01*
Y00121106D01*
X00193959Y00120959D01*
X00193945Y00120798D01*
X00193915Y00120622D01*
X00193871Y00120446D01*
X00193813Y00120284D01*
X00193739Y00120137D01*
X00193724Y00120123D01*
X00193695Y00120093D01*
X00193636Y00120035D01*
X00193548Y00119991D01*
X00193431Y00119932D01*
X00193284Y00119873D01*
X00193108Y00119844D01*
X00192902Y00119829D01*
X00192800D01*
X00192682Y00119844D01*
X00192535Y00119873D01*
X00192359Y00119902D01*
X00192168Y00119961D01*
X00191977Y00120049D01*
X00191772Y00120152D01*
Y00127757D01*
Y00118610D01*
X00191801Y00118596D01*
X00191875Y00118581D01*
X00192007Y00118552D01*
X00192198Y00118522D01*
X00192432Y00118478D01*
X00192726Y00118449D01*
X00193049Y00118434D01*
X00193431Y00118420D01*
X00191772D01*
X00196470D01*
X00193534D01*
X00193607Y00118434D01*
X00193695D01*
X00193798Y00118449D01*
X00194033Y00118493D01*
X00194297Y00118566D01*
X00194576Y00118669D01*
X00194840Y00118816D01*
X00195075Y00119022D01*
X00195105Y00119051D01*
X00195163Y00119139D01*
X00195251Y00119271D01*
X00195354Y00119462D01*
X00195471Y00119697D01*
X00195560Y00119991D01*
X00195618Y00120343D01*
X00195648Y00120724D01*
Y00124351D01*
X00196470D01*
Y00125702D01*
Y00125687D01*
X00195648D01*
Y00127140D01*
X00193974Y00127757D01*
D02*
G37*
G36*
X00231338Y00125819D02*
X00231191D01*
X00231073Y00125804D01*
X00230941Y00125790D01*
X00230795Y00125775D01*
X00230618Y00125745D01*
X00230442Y00125702D01*
X00230046Y00125584D01*
X00229840Y00125511D01*
X00229635Y00125422D01*
X00229415Y00125320D01*
X00229224Y00125188D01*
X00229018Y00125041D01*
X00228842Y00124879D01*
X00228827Y00124865D01*
X00228798Y00124835D01*
X00228754Y00124791D01*
X00228695Y00124718D01*
X00228622Y00124615D01*
X00228548Y00124512D01*
X00228460Y00124380D01*
X00228372Y00124233D01*
X00228284Y00124072D01*
X00228196Y00123896D01*
X00228123Y00123705D01*
X00228049Y00123499D01*
X00227990Y00123279D01*
X00227946Y00123044D01*
X00227917Y00122795D01*
X00227902Y00122530D01*
Y00122398D01*
X00227917Y00122295D01*
X00227932Y00122163D01*
X00227961Y00122016D01*
X00228005Y00121826D01*
X00228049Y00121605D01*
X00233144D01*
Y00121591D01*
Y00121561D01*
X00233129Y00121517D01*
Y00121459D01*
X00233099Y00121312D01*
X00233055Y00121121D01*
X00232982Y00120915D01*
X00232879Y00120695D01*
X00232747Y00120475D01*
X00232571Y00120284D01*
X00232542Y00120269D01*
X00232468Y00120211D01*
X00232351Y00120137D01*
X00232189Y00120049D01*
X00231984Y00119961D01*
X00231734Y00119888D01*
X00231441Y00119829D01*
X00231117Y00119814D01*
X00231015D01*
X00230927Y00119829D01*
X00230839D01*
X00230721Y00119844D01*
X00230471Y00119888D01*
X00230193Y00119961D01*
X00229899Y00120064D01*
X00229635Y00120211D01*
X00229385Y00120416D01*
X00228724Y00119139D01*
X00228739Y00119124D01*
X00228769Y00119110D01*
X00228813Y00119080D01*
X00228886Y00119022D01*
X00228989Y00118977D01*
X00229091Y00118919D01*
X00229224Y00118845D01*
X00229385Y00118787D01*
X00229561Y00118713D01*
X00229752Y00118654D01*
X00229972Y00118581D01*
X00230207Y00118537D01*
X00230457Y00118493D01*
X00230736Y00118449D01*
X00231029Y00118434D01*
X00231352Y00118420D01*
X00227902D01*
D01*
X00234876D01*
Y00122193D01*
X00234861Y00122310D01*
X00234846Y00122457D01*
X00234817Y00122618D01*
X00234788Y00122809D01*
X00234744Y00123000D01*
X00234685Y00123220D01*
X00234626Y00123441D01*
X00234538Y00123661D01*
X00234435Y00123896D01*
X00234318Y00124131D01*
X00234171Y00124351D01*
X00234010Y00124556D01*
X00233834Y00124762D01*
X00233819Y00124777D01*
X00233790Y00124806D01*
X00233731Y00124865D01*
X00233643Y00124923D01*
X00233540Y00125012D01*
X00233422Y00125099D01*
X00233290Y00125188D01*
X00233129Y00125290D01*
X00232953Y00125393D01*
X00232762Y00125481D01*
X00232556Y00125569D01*
X00232336Y00125657D01*
X00232101Y00125716D01*
X00231866Y00125775D01*
X00231602Y00125804D01*
X00231338Y00125819D01*
D02*
G37*
G36*
X00126264Y00125819D02*
X00126118D01*
X00126000Y00125804D01*
X00125868Y00125789D01*
X00125721Y00125775D01*
X00125545Y00125745D01*
X00125369Y00125702D01*
X00124972Y00125584D01*
X00124767Y00125511D01*
X00124561Y00125422D01*
X00124341Y00125320D01*
X00124150Y00125188D01*
X00123945Y00125041D01*
X00123769Y00124879D01*
X00123754Y00124865D01*
X00123724Y00124835D01*
X00123680Y00124791D01*
X00123622Y00124718D01*
X00123548Y00124615D01*
X00123475Y00124512D01*
X00123387Y00124380D01*
X00123299Y00124233D01*
X00123211Y00124072D01*
X00123123Y00123896D01*
X00123049Y00123705D01*
X00122976Y00123499D01*
X00122917Y00123279D01*
X00122873Y00123044D01*
X00122844Y00122795D01*
X00122829Y00122530D01*
Y00122398D01*
X00122844Y00122295D01*
X00122858Y00122163D01*
X00122888Y00122016D01*
X00122932Y00121826D01*
X00122976Y00121605D01*
X00128070D01*
Y00121591D01*
Y00121561D01*
X00128055Y00121517D01*
Y00121459D01*
X00128026Y00121312D01*
X00127982Y00121121D01*
X00127909Y00120915D01*
X00127806Y00120695D01*
X00127674Y00120475D01*
X00127498Y00120284D01*
X00127468Y00120269D01*
X00127395Y00120211D01*
X00127277Y00120137D01*
X00127116Y00120049D01*
X00126910Y00119961D01*
X00126661Y00119888D01*
X00126367Y00119829D01*
X00126044Y00119814D01*
X00125941D01*
X00125853Y00119829D01*
X00125765D01*
X00125648Y00119844D01*
X00125398Y00119888D01*
X00125119Y00119961D01*
X00124826Y00120064D01*
X00124561Y00120211D01*
X00124312Y00120416D01*
X00123651Y00119139D01*
X00123666Y00119124D01*
X00123695Y00119110D01*
X00123739Y00119080D01*
X00123813Y00119022D01*
X00123915Y00118977D01*
X00124018Y00118919D01*
X00124150Y00118845D01*
X00124312Y00118787D01*
X00124488Y00118713D01*
X00124679Y00118654D01*
X00124899Y00118581D01*
X00125134Y00118537D01*
X00125384Y00118493D01*
X00125662Y00118449D01*
X00125956Y00118434D01*
X00126279Y00118420D01*
X00122829D01*
D01*
X00129803D01*
Y00122193D01*
X00129788Y00122310D01*
X00129773Y00122457D01*
X00129744Y00122618D01*
X00129714Y00122809D01*
X00129670Y00123000D01*
X00129612Y00123220D01*
X00129553Y00123441D01*
X00129465Y00123661D01*
X00129362Y00123896D01*
X00129245Y00124131D01*
X00129098Y00124351D01*
X00128936Y00124556D01*
X00128760Y00124762D01*
X00128745Y00124776D01*
X00128716Y00124806D01*
X00128657Y00124865D01*
X00128569Y00124923D01*
X00128467Y00125011D01*
X00128349Y00125099D01*
X00128217Y00125188D01*
X00128055Y00125290D01*
X00127879Y00125393D01*
X00127688Y00125481D01*
X00127483Y00125569D01*
X00127263Y00125657D01*
X00127028Y00125716D01*
X00126793Y00125775D01*
X00126529Y00125804D01*
X00126264Y00125819D01*
D02*
G37*
G36*
X00257206Y00128315D02*
X00249117D01*
Y00126773D01*
X00252361D01*
Y00118552D01*
X00249117D01*
X00254094D01*
Y00126773D01*
X00257206D01*
Y00119330D01*
Y00128315D01*
D02*
G37*
G36*
X00180864Y00128476D02*
X00173435D01*
D01*
X00176239D01*
X00176122Y00128462D01*
X00175975D01*
X00175813Y00128447D01*
X00175623Y00128418D01*
X00175432Y00128388D01*
X00175006Y00128315D01*
X00174551Y00128183D01*
X00174110Y00128021D01*
X00173890Y00127904D01*
X00173699Y00127786D01*
X00174419Y00126347D01*
X00174448Y00126377D01*
X00174536Y00126435D01*
X00174668Y00126538D01*
X00174771Y00126582D01*
X00174874Y00126641D01*
X00174991Y00126700D01*
X00175138Y00126744D01*
X00175285Y00126803D01*
X00175446Y00126847D01*
X00175637Y00126876D01*
X00175843Y00126905D01*
X00176048Y00126935D01*
X00176401D01*
X00176489Y00126920D01*
X00176591Y00126905D01*
X00176709Y00126876D01*
X00176988Y00126803D01*
X00177149Y00126758D01*
X00177311Y00126685D01*
X00177472Y00126597D01*
X00177634Y00126509D01*
X00177810Y00126377D01*
X00177972Y00126245D01*
X00178133Y00126083D01*
X00178280Y00125907D01*
X00178295Y00125892D01*
X00178309Y00125863D01*
X00178353Y00125804D01*
X00178397Y00125716D01*
X00178456Y00125628D01*
X00178529Y00125496D01*
X00178603Y00125364D01*
X00178662Y00125202D01*
X00178735Y00125026D01*
X00178808Y00124821D01*
X00178882Y00124615D01*
X00178941Y00124380D01*
X00178985Y00124145D01*
X00179029Y00123881D01*
X00179043Y00123602D01*
X00179058Y00123323D01*
Y00123308D01*
Y00123250D01*
Y00123176D01*
X00179043Y00123059D01*
X00179029Y00122941D01*
X00179014Y00122780D01*
X00178999Y00122618D01*
X00178970Y00122428D01*
X00178882Y00122031D01*
X00178750Y00121620D01*
X00178676Y00121415D01*
X00178573Y00121209D01*
X00178471Y00121018D01*
X00178339Y00120842D01*
X00178324Y00120827D01*
X00178309Y00120798D01*
X00178265Y00120754D01*
X00178207Y00120695D01*
X00178133Y00120637D01*
X00178045Y00120548D01*
X00177942Y00120475D01*
X00177825Y00120387D01*
X00177546Y00120225D01*
X00177223Y00120079D01*
X00177047Y00120020D01*
X00176841Y00119976D01*
X00176636Y00119946D01*
X00176415Y00119932D01*
X00176283D01*
X00176180Y00119946D01*
X00176078Y00119961D01*
X00175931Y00119991D01*
X00175784Y00120020D01*
X00175623Y00120049D01*
X00175285Y00120167D01*
X00175094Y00120255D01*
X00174918Y00120343D01*
X00174742Y00120460D01*
X00174566Y00120592D01*
X00174404Y00120739D01*
X00174242Y00120915D01*
X00173435Y00119521D01*
X00173450Y00119506D01*
X00173479Y00119477D01*
X00173552Y00119418D01*
X00173641Y00119345D01*
X00173743Y00119256D01*
X00173876Y00119168D01*
X00174037Y00119066D01*
X00174228Y00118963D01*
X00174433Y00118845D01*
X00174668Y00118743D01*
X00174918Y00118654D01*
X00175197Y00118566D01*
X00175505Y00118493D01*
X00175828Y00118434D01*
X00176180Y00118405D01*
X00176548Y00118390D01*
X00176636D01*
X00176738Y00118405D01*
X00176885D01*
X00177061Y00118434D01*
X00177252Y00118464D01*
X00177472Y00118508D01*
X00177722Y00118552D01*
X00177972Y00118625D01*
X00178221Y00118713D01*
X00178500Y00118831D01*
X00178764Y00118948D01*
X00179014Y00119110D01*
X00179278Y00119286D01*
X00179513Y00119491D01*
X00179733Y00119726D01*
X00179748Y00119741D01*
X00179777Y00119785D01*
X00179836Y00119873D01*
X00179909Y00119976D01*
X00179998Y00120108D01*
X00180086Y00120269D01*
X00180188Y00120475D01*
X00180291Y00120695D01*
X00180409Y00120945D01*
X00180511Y00121209D01*
X00180599Y00121517D01*
X00180688Y00121840D01*
X00180761Y00122193D01*
X00180820Y00122574D01*
X00180849Y00122971D01*
X00180864Y00123397D01*
Y00118581D01*
Y00123514D01*
Y00123499D01*
X00180849Y00123602D01*
Y00123764D01*
X00180820Y00123940D01*
X00180790Y00124160D01*
X00180761Y00124395D01*
X00180702Y00124659D01*
X00180644Y00124938D01*
X00180555Y00125232D01*
X00180453Y00125525D01*
X00180335Y00125834D01*
X00180188Y00126142D01*
X00180027Y00126435D01*
X00179836Y00126729D01*
X00179616Y00127008D01*
X00179601Y00127023D01*
X00179557Y00127067D01*
X00179484Y00127140D01*
X00179381Y00127243D01*
X00179263Y00127346D01*
X00179117Y00127478D01*
X00178941Y00127610D01*
X00178735Y00127742D01*
X00178515Y00127874D01*
X00178280Y00128006D01*
X00178016Y00128139D01*
X00177722Y00128241D01*
X00177428Y00128344D01*
X00177105Y00128418D01*
X00176753Y00128462D01*
X00176401Y00128476D01*
X00180864D01*
D01*
D02*
G37*
G36*
X00297198Y00125819D02*
X00292191D01*
X00294599D01*
X00294511Y00125804D01*
X00294408D01*
X00294291Y00125790D01*
X00294159Y00125775D01*
X00294026Y00125760D01*
X00293703Y00125687D01*
X00293351Y00125599D01*
X00292969Y00125481D01*
X00292602Y00125305D01*
X00293087Y00124028D01*
X00293116Y00124043D01*
X00293190Y00124101D01*
X00293307Y00124175D01*
X00293483Y00124263D01*
X00293689Y00124351D01*
X00293953Y00124424D01*
X00294261Y00124483D01*
X00294599Y00124498D01*
X00294672D01*
X00294731Y00124483D01*
X00294878Y00124468D01*
X00295025Y00124410D01*
X00295186Y00124321D01*
X00295333Y00124204D01*
X00295392Y00124116D01*
X00295421Y00124028D01*
X00295450Y00123910D01*
X00295465Y00123793D01*
Y00123778D01*
Y00123749D01*
X00295450Y00123705D01*
X00295436Y00123631D01*
X00295392Y00123558D01*
X00295348Y00123485D01*
X00295274Y00123397D01*
X00295186Y00123308D01*
X00295172Y00123294D01*
X00295128Y00123264D01*
X00295054Y00123220D01*
X00294922Y00123147D01*
X00294760Y00123059D01*
X00294555Y00122956D01*
X00294291Y00122839D01*
X00294129Y00122780D01*
X00293968Y00122706D01*
X00293953D01*
X00293924Y00122692D01*
X00293880Y00122662D01*
X00293821Y00122648D01*
X00293645Y00122560D01*
X00293439Y00122457D01*
X00293219Y00122325D01*
X00292999Y00122178D01*
X00292793Y00122002D01*
X00292617Y00121811D01*
X00292602Y00121782D01*
X00292544Y00121723D01*
X00292485Y00121605D01*
X00292397Y00121459D01*
X00292323Y00121268D01*
X00292250Y00121062D01*
X00292206Y00120813D01*
X00292191Y00120548D01*
Y00120446D01*
X00292206Y00120387D01*
X00292221Y00120299D01*
X00292235Y00120196D01*
X00292279Y00119976D01*
X00292367Y00119726D01*
X00292500Y00119462D01*
X00292588Y00119330D01*
X00292690Y00119212D01*
X00292808Y00119095D01*
X00292940Y00118977D01*
X00292955D01*
X00292969Y00118948D01*
X00293013Y00118933D01*
X00293072Y00118889D01*
X00293146Y00118845D01*
X00293234Y00118801D01*
X00293351Y00118757D01*
X00293469Y00118699D01*
X00293601Y00118640D01*
X00293748Y00118596D01*
X00294085Y00118508D01*
X00294482Y00118449D01*
X00294937Y00118420D01*
X00295388D01*
X00295186D01*
X00295348Y00118434D01*
X00295524Y00118449D01*
X00295715Y00118464D01*
X00295906Y00118493D01*
X00296082Y00118537D01*
X00296096D01*
X00296155Y00118566D01*
X00296258Y00118596D01*
X00296375Y00118640D01*
X00296537Y00118699D01*
X00296713Y00118772D01*
X00296933Y00118875D01*
X00297168Y00119007D01*
X00296581Y00120343D01*
X00296566D01*
X00296552Y00120314D01*
X00296508Y00120284D01*
X00296449Y00120255D01*
X00296302Y00120152D01*
X00296096Y00120049D01*
X00295847Y00119932D01*
X00295553Y00119829D01*
X00295245Y00119770D01*
X00294907Y00119741D01*
X00294819D01*
X00294746Y00119756D01*
X00294599Y00119785D01*
X00294408Y00119829D01*
X00294232Y00119917D01*
X00294070Y00120035D01*
X00294012Y00120108D01*
X00293968Y00120211D01*
X00293938Y00120314D01*
X00293924Y00120431D01*
Y00120446D01*
Y00120504D01*
X00293938Y00120578D01*
X00293953Y00120666D01*
X00293997Y00120769D01*
X00294041Y00120871D01*
X00294114Y00120989D01*
X00294217Y00121092D01*
X00294232Y00121106D01*
X00294276Y00121136D01*
X00294349Y00121194D01*
X00294467Y00121268D01*
X00294628Y00121356D01*
X00294819Y00121459D01*
X00295069Y00121576D01*
X00295362Y00121708D01*
X00295377Y00121723D01*
X00295436Y00121738D01*
X00295539Y00121782D01*
X00295641Y00121855D01*
X00295788Y00121928D01*
X00295950Y00122016D01*
X00296111Y00122134D01*
X00296273Y00122266D01*
X00296449Y00122413D01*
X00296610Y00122574D01*
X00296772Y00122751D01*
X00296904Y00122941D01*
X00297021Y00123147D01*
X00297124Y00123367D01*
X00297183Y00123602D01*
X00297198Y00123852D01*
Y00118581D01*
Y00123940D01*
X00297183Y00123998D01*
X00297153Y00124175D01*
X00297110Y00124380D01*
X00297021Y00124615D01*
X00296904Y00124850D01*
X00296728Y00125085D01*
X00296610Y00125188D01*
X00296493Y00125290D01*
X00296478D01*
X00296464Y00125320D01*
X00296420Y00125334D01*
X00296361Y00125379D01*
X00296214Y00125452D01*
X00296008Y00125555D01*
X00295744Y00125657D01*
X00295436Y00125731D01*
X00295084Y00125790D01*
X00294702Y00125819D01*
X00297198D01*
D01*
D02*
G37*
G36*
X00343766Y00128462D02*
Y00125687D01*
X00341168D01*
Y00118552D01*
X00343766D01*
X00342856D01*
Y00124321D01*
X00343766D01*
Y00128462D01*
D02*
G37*
G36*
X00339127Y00128315D02*
X00332697D01*
Y00126773D01*
X00337395D01*
Y00124483D01*
X00333959D01*
Y00123015D01*
X00337395D01*
Y00118552D01*
X00332697D01*
X00339127D01*
Y00128315D01*
D02*
G37*
G36*
X00331728Y00128462D02*
Y00125687D01*
X00329129D01*
Y00118552D01*
X00331728D01*
X00330817D01*
Y00124321D01*
X00331728D01*
Y00128462D01*
D02*
G37*
G36*
X00306638Y00125819D02*
X00301793D01*
X00302967D01*
X00302820Y00125804D01*
X00302630Y00125790D01*
X00302409Y00125760D01*
X00302189Y00125702D01*
X00301984Y00125643D01*
X00301793Y00125555D01*
X00302512Y00124131D01*
X00302527Y00124145D01*
X00302586Y00124175D01*
X00302674Y00124219D01*
X00302806Y00124277D01*
X00302953Y00124336D01*
X00303114Y00124380D01*
X00303290Y00124410D01*
X00303496Y00124424D01*
X00303525D01*
X00303599Y00124410D01*
X00303701Y00124395D01*
X00303834Y00124366D01*
X00303995Y00124292D01*
X00304171Y00124204D01*
X00304347Y00124072D01*
X00304524Y00123896D01*
X00304538Y00123866D01*
X00304597Y00123808D01*
X00304656Y00123690D01*
X00304744Y00123543D01*
X00304817Y00123352D01*
X00304890Y00123132D01*
X00304949Y00122883D01*
X00304964Y00122604D01*
Y00118552D01*
X00306638D01*
Y00125819D01*
D02*
G37*
G36*
X00301279Y00128462D02*
Y00125687D01*
X00298680D01*
Y00118552D01*
X00301279D01*
X00300369D01*
Y00124321D01*
X00301279D01*
Y00128462D01*
D02*
G37*
G36*
X00222367Y00128315D02*
X00220635D01*
Y00120093D01*
X00216216D01*
Y00118552D01*
X00222367D01*
Y00128315D01*
D02*
G37*
G36*
X00215394Y00128462D02*
Y00125687D01*
X00212795D01*
Y00118552D01*
X00214484D01*
Y00124321D01*
X00215394D01*
Y00128462D01*
D02*
G37*
G36*
X00150943Y00125819D02*
X00146099D01*
X00147273D01*
X00147126Y00125804D01*
X00146936Y00125789D01*
X00146715Y00125760D01*
X00146495Y00125702D01*
X00146290Y00125643D01*
X00146099Y00125555D01*
X00146818Y00124131D01*
X00146833Y00124145D01*
X00146891Y00124175D01*
X00146980Y00124219D01*
X00147112Y00124277D01*
X00147259Y00124336D01*
X00147420Y00124380D01*
X00147596Y00124410D01*
X00147802Y00124424D01*
X00147831D01*
X00147905Y00124410D01*
X00148007Y00124395D01*
X00148139Y00124366D01*
X00148301Y00124292D01*
X00148477Y00124204D01*
X00148653Y00124072D01*
X00148829Y00123896D01*
X00148844Y00123866D01*
X00148903Y00123808D01*
X00148961Y00123690D01*
X00149050Y00123543D01*
X00149123Y00123352D01*
X00149196Y00123132D01*
X00149255Y00122883D01*
X00149270Y00122604D01*
Y00118552D01*
X00150943D01*
Y00125819D01*
D02*
G37*
G36*
X00121508D02*
X00116663D01*
X00117837D01*
X00117690Y00125804D01*
X00117500Y00125789D01*
X00117280Y00125760D01*
X00117059Y00125702D01*
X00116854Y00125643D01*
X00116663Y00125555D01*
X00117382Y00124131D01*
X00117397Y00124145D01*
X00117456Y00124175D01*
X00117544Y00124219D01*
X00117676Y00124277D01*
X00117823Y00124336D01*
X00117984Y00124380D01*
X00118160Y00124410D01*
X00118366Y00124424D01*
X00118395D01*
X00118469Y00124410D01*
X00118571Y00124395D01*
X00118703Y00124366D01*
X00118865Y00124292D01*
X00119041Y00124204D01*
X00119217Y00124072D01*
X00119394Y00123896D01*
X00119408Y00123866D01*
X00119467Y00123808D01*
X00119526Y00123690D01*
X00119614Y00123543D01*
X00119687Y00123352D01*
X00119761Y00123132D01*
X00119819Y00122883D01*
X00119834Y00122604D01*
Y00118552D01*
X00121508D01*
Y00125819D01*
D02*
G37*
G36*
X00323448Y00128476D02*
X00316019D01*
D01*
X00318823D01*
X00318706Y00128462D01*
X00318559D01*
X00318397Y00128447D01*
X00318206Y00128418D01*
X00318015Y00128388D01*
X00317590Y00128315D01*
X00317135Y00128183D01*
X00316694Y00128021D01*
X00316474Y00127904D01*
X00316283Y00127786D01*
X00317003Y00126348D01*
X00317032Y00126377D01*
X00317120Y00126436D01*
X00317252Y00126538D01*
X00317355Y00126582D01*
X00317458Y00126641D01*
X00317575Y00126700D01*
X00317722Y00126744D01*
X00317869Y00126803D01*
X00318030Y00126847D01*
X00318221Y00126876D01*
X00318427Y00126905D01*
X00318632Y00126935D01*
X00318985D01*
X00319073Y00126920D01*
X00319175Y00126905D01*
X00319293Y00126876D01*
X00319572Y00126803D01*
X00319733Y00126758D01*
X00319895Y00126685D01*
X00320056Y00126597D01*
X00320218Y00126509D01*
X00320394Y00126377D01*
X00320555Y00126245D01*
X00320717Y00126083D01*
X00320864Y00125907D01*
X00320878Y00125892D01*
X00320893Y00125863D01*
X00320937Y00125804D01*
X00320981Y00125716D01*
X00321040Y00125628D01*
X00321113Y00125496D01*
X00321187Y00125364D01*
X00321245Y00125202D01*
X00321319Y00125026D01*
X00321392Y00124821D01*
X00321466Y00124615D01*
X00321524Y00124380D01*
X00321568Y00124145D01*
X00321612Y00123881D01*
X00321627Y00123602D01*
X00321642Y00123323D01*
Y00123308D01*
Y00123250D01*
Y00123176D01*
X00321627Y00123059D01*
X00321612Y00122941D01*
X00321598Y00122780D01*
X00321583Y00122618D01*
X00321554Y00122428D01*
X00321466Y00122031D01*
X00321334Y00121620D01*
X00321260Y00121415D01*
X00321157Y00121209D01*
X00321054Y00121018D01*
X00320922Y00120842D01*
X00320908Y00120827D01*
X00320893Y00120798D01*
X00320849Y00120754D01*
X00320790Y00120695D01*
X00320717Y00120637D01*
X00320629Y00120548D01*
X00320526Y00120475D01*
X00320409Y00120387D01*
X00320130Y00120225D01*
X00319807Y00120079D01*
X00319631Y00120020D01*
X00319425Y00119976D01*
X00319219Y00119946D01*
X00318999Y00119932D01*
X00318867D01*
X00318764Y00119946D01*
X00318661Y00119961D01*
X00318515Y00119991D01*
X00318368Y00120020D01*
X00318206Y00120049D01*
X00317869Y00120167D01*
X00317678Y00120255D01*
X00317502Y00120343D01*
X00317325Y00120460D01*
X00317149Y00120592D01*
X00316988Y00120739D01*
X00316826Y00120915D01*
X00316019Y00119521D01*
X00316034Y00119506D01*
X00316063Y00119477D01*
X00316136Y00119418D01*
X00316224Y00119345D01*
X00316327Y00119256D01*
X00316459Y00119168D01*
X00316621Y00119066D01*
X00316812Y00118963D01*
X00317017Y00118845D01*
X00317252Y00118743D01*
X00317502Y00118654D01*
X00317781Y00118566D01*
X00318089Y00118493D01*
X00318412Y00118434D01*
X00318764Y00118405D01*
X00319131Y00118390D01*
X00319219D01*
X00319322Y00118405D01*
X00319469D01*
X00319645Y00118434D01*
X00319836Y00118464D01*
X00320056Y00118508D01*
X00320306Y00118552D01*
X00320555Y00118625D01*
X00320805Y00118713D01*
X00321084Y00118831D01*
X00321348Y00118948D01*
X00321598Y00119110D01*
X00321862Y00119286D01*
X00322097Y00119491D01*
X00322317Y00119726D01*
X00322332Y00119741D01*
X00322361Y00119785D01*
X00322420Y00119873D01*
X00322493Y00119976D01*
X00322581Y00120108D01*
X00322669Y00120269D01*
X00322772Y00120475D01*
X00322875Y00120695D01*
X00322992Y00120945D01*
X00323095Y00121209D01*
X00323183Y00121517D01*
X00323271Y00121840D01*
X00323345Y00122193D01*
X00323404Y00122574D01*
X00323433Y00122971D01*
X00323448Y00123397D01*
Y00118537D01*
Y00123543D01*
Y00123499D01*
X00323433Y00123602D01*
Y00123764D01*
X00323404Y00123940D01*
X00323374Y00124160D01*
X00323345Y00124395D01*
X00323286Y00124659D01*
X00323227Y00124938D01*
X00323139Y00125232D01*
X00323036Y00125525D01*
X00322919Y00125834D01*
X00322772Y00126142D01*
X00322611Y00126436D01*
X00322420Y00126729D01*
X00322200Y00127008D01*
X00322185Y00127023D01*
X00322141Y00127067D01*
X00322067Y00127140D01*
X00321965Y00127243D01*
X00321847Y00127346D01*
X00321701Y00127478D01*
X00321524Y00127610D01*
X00321319Y00127742D01*
X00321099Y00127874D01*
X00320864Y00128006D01*
X00320599Y00128139D01*
X00320306Y00128241D01*
X00320012Y00128344D01*
X00319689Y00128418D01*
X00319337Y00128462D01*
X00318985Y00128476D01*
X00323448D01*
D01*
D02*
G37*
G36*
X00242716Y00125819D02*
X00235742D01*
X00239031D01*
X00238913Y00125804D01*
X00238781Y00125790D01*
X00238634Y00125775D01*
X00238458Y00125745D01*
X00238282Y00125702D01*
X00237885Y00125584D01*
X00237680Y00125511D01*
X00237474Y00125422D01*
X00237254Y00125320D01*
X00237063Y00125188D01*
X00236858Y00125041D01*
X00236682Y00124879D01*
X00236667Y00124865D01*
X00236638Y00124835D01*
X00236594Y00124791D01*
X00236535Y00124718D01*
X00236462Y00124615D01*
X00236388Y00124512D01*
X00236300Y00124380D01*
X00236212Y00124233D01*
X00236124Y00124072D01*
X00236036Y00123896D01*
X00235962Y00123705D01*
X00235889Y00123499D01*
X00235830Y00123279D01*
X00235786Y00123044D01*
X00235757Y00122795D01*
X00235742Y00122530D01*
Y00122398D01*
X00235757Y00122295D01*
X00235771Y00122163D01*
X00235801Y00122016D01*
X00235845Y00121826D01*
X00235889Y00121605D01*
X00240983D01*
Y00121591D01*
Y00121561D01*
X00240969Y00121517D01*
Y00121459D01*
X00240939Y00121312D01*
X00240895Y00121121D01*
X00240822Y00120915D01*
X00240719Y00120695D01*
X00240587Y00120475D01*
X00240411Y00120284D01*
X00240381Y00120269D01*
X00240308Y00120211D01*
X00240191Y00120137D01*
X00240029Y00120049D01*
X00239823Y00119961D01*
X00239574Y00119888D01*
X00239280Y00119829D01*
X00238957Y00119814D01*
X00238855D01*
X00238766Y00119829D01*
X00238678D01*
X00238561Y00119844D01*
X00238311Y00119888D01*
X00238032Y00119961D01*
X00237739Y00120064D01*
X00237474Y00120211D01*
X00237225Y00120416D01*
X00236564Y00119139D01*
X00236579Y00119124D01*
X00236608Y00119110D01*
X00236652Y00119080D01*
X00236726Y00119022D01*
X00236828Y00118977D01*
X00236931Y00118919D01*
X00237063Y00118845D01*
X00237225Y00118787D01*
X00237401Y00118713D01*
X00237592Y00118654D01*
X00237812Y00118581D01*
X00238047Y00118537D01*
X00238297Y00118493D01*
X00238575Y00118449D01*
X00238869Y00118434D01*
X00239192Y00118420D01*
X00239354D01*
X00239456Y00118434D01*
X00239603Y00118449D01*
X00239765Y00118464D01*
X00239941Y00118493D01*
X00240132Y00118537D01*
X00240543Y00118654D01*
X00240748Y00118728D01*
X00240969Y00118816D01*
X00241189Y00118933D01*
X00241394Y00119066D01*
X00241585Y00119212D01*
X00241776Y00119374D01*
X00241791Y00119389D01*
X00241820Y00119418D01*
X00241864Y00119477D01*
X00241923Y00119550D01*
X00241996Y00119653D01*
X00242070Y00119770D01*
X00242158Y00119902D01*
X00242246Y00120064D01*
X00242334Y00120240D01*
X00242422Y00120446D01*
X00242495Y00120666D01*
X00242569Y00120901D01*
X00242628Y00121150D01*
X00242672Y00121429D01*
X00242701Y00121723D01*
X00242716Y00122031D01*
Y00118464D01*
Y00122193D01*
X00242701Y00122310D01*
X00242686Y00122457D01*
X00242657Y00122618D01*
X00242628Y00122809D01*
X00242584Y00123000D01*
X00242525Y00123220D01*
X00242466Y00123441D01*
X00242378Y00123661D01*
X00242275Y00123896D01*
X00242158Y00124131D01*
X00242011Y00124351D01*
X00241849Y00124556D01*
X00241673Y00124762D01*
X00241659Y00124777D01*
X00241629Y00124806D01*
X00241570Y00124865D01*
X00241482Y00124923D01*
X00241380Y00125012D01*
X00241262Y00125099D01*
X00241130Y00125188D01*
X00240969Y00125290D01*
X00240792Y00125393D01*
X00240602Y00125481D01*
X00240396Y00125569D01*
X00240176Y00125657D01*
X00239941Y00125716D01*
X00239706Y00125775D01*
X00239442Y00125804D01*
X00239177Y00125819D01*
X00242716D01*
D01*
D02*
G37*
G36*
X00137114Y00128755D02*
X00134662D01*
D01*
X00135440D01*
Y00120724D01*
Y00120710D01*
Y00120666D01*
Y00120607D01*
X00135425Y00120519D01*
X00135411Y00120416D01*
X00135396Y00120299D01*
X00135337Y00120035D01*
X00135249Y00119756D01*
X00135117Y00119506D01*
X00135029Y00119389D01*
X00134912Y00119286D01*
X00134794Y00119198D01*
X00134662Y00119139D01*
Y00119124D01*
X00134677Y00119110D01*
X00134735Y00119022D01*
X00134838Y00118919D01*
X00134970Y00118787D01*
X00135161Y00118654D01*
X00135381Y00118537D01*
X00135660Y00118449D01*
X00135822Y00118434D01*
X00135983Y00118420D01*
X00136027D01*
X00136086Y00118434D01*
X00136159Y00118449D01*
X00136336Y00118508D01*
X00136438Y00118552D01*
X00136541Y00118610D01*
X00136659Y00118699D01*
X00136761Y00118801D01*
X00136849Y00118933D01*
X00136938Y00119080D01*
X00137011Y00119256D01*
X00137070Y00119477D01*
X00137099Y00119712D01*
X00137114Y00119991D01*
Y00118434D01*
Y00128344D01*
Y00128344D01*
X00135440Y00128755D01*
X00137114D01*
D02*
G37*
G36*
X00266896Y00125819D02*
X00264297D01*
X00264209Y00125804D01*
X00264106D01*
X00263989Y00125790D01*
X00263857Y00125775D01*
X00263724Y00125760D01*
X00263402Y00125687D01*
X00263049Y00125599D01*
X00262667Y00125481D01*
X00262300Y00125305D01*
X00262785Y00124028D01*
X00262814Y00124043D01*
X00262888Y00124101D01*
X00263005Y00124175D01*
X00263181Y00124263D01*
X00263387Y00124351D01*
X00263651Y00124424D01*
X00263959Y00124483D01*
X00264297Y00124498D01*
X00264370D01*
X00264429Y00124483D01*
X00264576Y00124468D01*
X00264723Y00124410D01*
X00264884Y00124321D01*
X00265031Y00124204D01*
X00265090Y00124116D01*
X00265119Y00124028D01*
X00265149Y00123910D01*
X00265163Y00123793D01*
Y00123778D01*
Y00123749D01*
X00265149Y00123705D01*
X00265134Y00123631D01*
X00265090Y00123558D01*
X00265046Y00123485D01*
X00264972Y00123397D01*
X00264884Y00123308D01*
X00264870Y00123294D01*
X00264825Y00123264D01*
X00264752Y00123220D01*
X00264620Y00123147D01*
X00264459Y00123059D01*
X00264253Y00122956D01*
X00263989Y00122839D01*
X00263827Y00122780D01*
X00263666Y00122706D01*
X00263651D01*
X00263622Y00122692D01*
X00263578Y00122662D01*
X00263519Y00122648D01*
X00263343Y00122560D01*
X00263137Y00122457D01*
X00262917Y00122325D01*
X00262697Y00122178D01*
X00262491Y00122002D01*
X00262315Y00121811D01*
X00262300Y00121782D01*
X00262242Y00121723D01*
X00262183Y00121605D01*
X00262095Y00121459D01*
X00262021Y00121268D01*
X00261948Y00121062D01*
X00261904Y00120813D01*
X00261889Y00120548D01*
Y00120446D01*
X00261904Y00120387D01*
X00261919Y00120299D01*
X00261933Y00120196D01*
X00261977Y00119976D01*
X00262066Y00119726D01*
X00262198Y00119462D01*
X00262286Y00119330D01*
X00262388Y00119212D01*
X00262506Y00119095D01*
X00262638Y00118977D01*
X00262653D01*
X00262667Y00118948D01*
X00262711Y00118933D01*
X00262770Y00118889D01*
X00262844Y00118845D01*
X00262932Y00118801D01*
X00263049Y00118757D01*
X00263167Y00118699D01*
X00263299Y00118640D01*
X00263445Y00118596D01*
X00263783Y00118508D01*
X00264180Y00118449D01*
X00264635Y00118420D01*
X00261889D01*
X00266896D01*
Y00123940D01*
X00266881Y00123998D01*
X00266852Y00124175D01*
X00266807Y00124380D01*
X00266719Y00124615D01*
X00266602Y00124850D01*
X00266426Y00125085D01*
X00266308Y00125188D01*
X00266191Y00125290D01*
X00266176D01*
X00266161Y00125320D01*
X00266117Y00125334D01*
X00266059Y00125379D01*
X00265912Y00125452D01*
X00265706Y00125555D01*
X00265442Y00125657D01*
X00265134Y00125731D01*
X00264781Y00125790D01*
X00264400Y00125819D01*
X00266896D01*
D02*
G37*
G36*
X00190950D02*
X00188351D01*
X00188263Y00125804D01*
X00188160D01*
X00188043Y00125790D01*
X00187911Y00125775D01*
X00187779Y00125760D01*
X00187456Y00125687D01*
X00187103Y00125599D01*
X00186721Y00125481D01*
X00186355Y00125305D01*
X00186839Y00124028D01*
X00186868Y00124043D01*
X00186942Y00124101D01*
X00187059Y00124175D01*
X00187235Y00124263D01*
X00187441Y00124351D01*
X00187705Y00124424D01*
X00188013Y00124483D01*
X00188351Y00124498D01*
X00188425D01*
X00188483Y00124483D01*
X00188630Y00124468D01*
X00188777Y00124410D01*
X00188938Y00124321D01*
X00189085Y00124204D01*
X00189144Y00124116D01*
X00189173Y00124028D01*
X00189203Y00123910D01*
X00189217Y00123793D01*
Y00123778D01*
Y00123749D01*
X00189203Y00123705D01*
X00189188Y00123631D01*
X00189144Y00123558D01*
X00189100Y00123485D01*
X00189027Y00123397D01*
X00188938Y00123308D01*
X00188924Y00123294D01*
X00188880Y00123264D01*
X00188806Y00123220D01*
X00188674Y00123147D01*
X00188513Y00123059D01*
X00188307Y00122956D01*
X00188043Y00122839D01*
X00187881Y00122780D01*
X00187720Y00122706D01*
X00187705D01*
X00187676Y00122692D01*
X00187632Y00122662D01*
X00187573Y00122648D01*
X00187397Y00122560D01*
X00187191Y00122457D01*
X00186971Y00122325D01*
X00186751Y00122178D01*
X00186545Y00122002D01*
X00186369Y00121811D01*
X00186355Y00121782D01*
X00186296Y00121723D01*
X00186237Y00121605D01*
X00186149Y00121459D01*
X00186076Y00121268D01*
X00186002Y00121062D01*
X00185958Y00120813D01*
X00185943Y00120548D01*
Y00120446D01*
X00185958Y00120387D01*
X00185973Y00120299D01*
X00185987Y00120196D01*
X00186031Y00119976D01*
X00186120Y00119726D01*
X00186252Y00119462D01*
X00186340Y00119330D01*
X00186443Y00119212D01*
X00186560Y00119095D01*
X00186692Y00118977D01*
X00186707D01*
X00186721Y00118948D01*
X00186766Y00118933D01*
X00186824Y00118889D01*
X00186898Y00118845D01*
X00186986Y00118801D01*
X00187103Y00118757D01*
X00187221Y00118699D01*
X00187353Y00118640D01*
X00187500Y00118596D01*
X00187837Y00118508D01*
X00188234Y00118449D01*
X00188689Y00118420D01*
X00185943D01*
X00190950D01*
Y00123940D01*
X00190935Y00123998D01*
X00190906Y00124175D01*
X00190862Y00124380D01*
X00190774Y00124615D01*
X00190656Y00124850D01*
X00190480Y00125085D01*
X00190362Y00125188D01*
X00190245Y00125290D01*
X00190230D01*
X00190216Y00125320D01*
X00190172Y00125334D01*
X00190113Y00125379D01*
X00189966Y00125452D01*
X00189761Y00125555D01*
X00189496Y00125657D01*
X00189188Y00125731D01*
X00188836Y00125790D01*
X00188454Y00125819D01*
X00190950D01*
D02*
G37*
G36*
X00169177D02*
X00165742D01*
X00169016D01*
X00168913Y00125804D01*
X00168766Y00125790D01*
X00168620Y00125760D01*
X00168444Y00125731D01*
X00168253Y00125702D01*
X00167841Y00125569D01*
X00167636Y00125496D01*
X00167430Y00125393D01*
X00167210Y00125290D01*
X00167019Y00125144D01*
X00166828Y00124997D01*
X00166652Y00124821D01*
X00166638Y00124806D01*
X00166608Y00124777D01*
X00166564Y00124718D01*
X00166506Y00124644D01*
X00166447Y00124542D01*
X00166359Y00124424D01*
X00166285Y00124277D01*
X00166197Y00124116D01*
X00166109Y00123940D01*
X00166036Y00123734D01*
X00165948Y00123514D01*
X00165889Y00123279D01*
X00165830Y00123015D01*
X00165786Y00122736D01*
X00165757Y00122442D01*
X00165742Y00122134D01*
Y00121973D01*
X00165757Y00121855D01*
X00165772Y00121708D01*
X00165786Y00121547D01*
X00165816Y00121356D01*
X00165860Y00121150D01*
X00165962Y00120724D01*
X00166036Y00120504D01*
X00166138Y00120269D01*
X00166241Y00120049D01*
X00166359Y00119829D01*
X00166506Y00119609D01*
X00166667Y00119418D01*
X00166682Y00119403D01*
X00166711Y00119374D01*
X00166755Y00119330D01*
X00166828Y00119256D01*
X00166931Y00119183D01*
X00167034Y00119110D01*
X00167166Y00119007D01*
X00167328Y00118919D01*
X00167489Y00118831D01*
X00167680Y00118743D01*
X00167886Y00118654D01*
X00168106Y00118581D01*
X00168355Y00118508D01*
X00168605Y00118464D01*
X00168884Y00118434D01*
X00169177Y00118420D01*
X00165742D01*
X00172598D01*
X00169339D01*
X00169442Y00118434D01*
X00169589Y00118449D01*
X00169735Y00118478D01*
X00169912Y00118508D01*
X00170102Y00118552D01*
X00170308Y00118596D01*
X00170513Y00118669D01*
X00170719Y00118743D01*
X00170925Y00118845D01*
X00171130Y00118963D01*
X00171336Y00119095D01*
X00171527Y00119256D01*
X00171703Y00119433D01*
X00171717Y00119447D01*
X00171747Y00119477D01*
X00171791Y00119535D01*
X00171835Y00119623D01*
X00171908Y00119726D01*
X00171982Y00119844D01*
X00172070Y00119991D01*
X00172143Y00120152D01*
X00172231Y00120328D01*
X00172319Y00120534D01*
X00172393Y00120754D01*
X00172451Y00121004D01*
X00172510Y00121253D01*
X00172554Y00121532D01*
X00172584Y00121826D01*
X00172598Y00122134D01*
Y00122295D01*
X00172584Y00122398D01*
X00172569Y00122545D01*
X00172554Y00122706D01*
X00172525Y00122883D01*
X00172481Y00123074D01*
X00172363Y00123499D01*
X00172290Y00123720D01*
X00172202Y00123940D01*
X00172099Y00124160D01*
X00171967Y00124380D01*
X00171820Y00124586D01*
X00171659Y00124791D01*
X00171644Y00124806D01*
X00171615Y00124835D01*
X00171556Y00124879D01*
X00171483Y00124953D01*
X00171394Y00125026D01*
X00171277Y00125114D01*
X00171145Y00125217D01*
X00170998Y00125305D01*
X00170822Y00125408D01*
X00170646Y00125496D01*
X00170440Y00125584D01*
X00170220Y00125657D01*
X00169985Y00125731D01*
X00169721Y00125775D01*
X00169457Y00125804D01*
X00169177Y00125819D01*
D02*
G37*
G36*
X00156919Y00127757D02*
X00152221Y00127757D01*
Y00118610D01*
X00152250Y00118596D01*
X00152324Y00118581D01*
X00152456Y00118552D01*
X00152647Y00118522D01*
X00152881Y00118478D01*
X00153175Y00118449D01*
X00153498Y00118434D01*
X00153880Y00118420D01*
X00156919Y00118420D01*
X00153982Y00118420D01*
X00154056Y00118434D01*
X00154144D01*
X00154247Y00118449D01*
X00154482Y00118493D01*
X00154746Y00118566D01*
X00155025Y00118669D01*
X00155289Y00118816D01*
X00155524Y00119022D01*
X00155553Y00119051D01*
X00155612Y00119139D01*
X00155700Y00119271D01*
X00155803Y00119462D01*
X00155920Y00119697D01*
X00156009Y00119991D01*
X00156067Y00120343D01*
X00156097Y00120724D01*
Y00124351D01*
X00156919D01*
Y00125687D01*
Y00125687D01*
X00156097D01*
Y00127140D01*
X00154423Y00127757D01*
X00156919Y00127757D01*
D02*
G37*
G36*
X00142149Y00125819D02*
X00141988D01*
X00141885Y00125804D01*
X00141738Y00125789D01*
X00141592Y00125760D01*
X00141415Y00125731D01*
X00141224Y00125702D01*
X00140813Y00125569D01*
X00140608Y00125496D01*
X00140402Y00125393D01*
X00140182Y00125290D01*
X00139991Y00125144D01*
X00139800Y00124997D01*
X00139624Y00124821D01*
X00139610Y00124806D01*
X00139580Y00124776D01*
X00139536Y00124718D01*
X00139477Y00124644D01*
X00139419Y00124542D01*
X00139331Y00124424D01*
X00139257Y00124277D01*
X00139169Y00124116D01*
X00139081Y00123940D01*
X00139008Y00123734D01*
X00138920Y00123514D01*
X00138861Y00123279D01*
X00138802Y00123015D01*
X00138758Y00122736D01*
X00138729Y00122442D01*
X00138714Y00122134D01*
Y00121972D01*
X00138729Y00121855D01*
X00138743Y00121708D01*
X00138758Y00121547D01*
X00138787Y00121356D01*
X00138832Y00121150D01*
X00138934Y00120724D01*
X00139008Y00120504D01*
X00139110Y00120269D01*
X00139213Y00120049D01*
X00139331Y00119829D01*
X00139477Y00119609D01*
X00139639Y00119418D01*
X00139654Y00119403D01*
X00139683Y00119374D01*
X00139727Y00119330D01*
X00139800Y00119256D01*
X00139903Y00119183D01*
X00140006Y00119110D01*
X00140138Y00119007D01*
X00140300Y00118919D01*
X00140461Y00118831D01*
X00140652Y00118743D01*
X00140857Y00118654D01*
X00141078Y00118581D01*
X00141327Y00118508D01*
X00141577Y00118464D01*
X00141856Y00118434D01*
X00142149Y00118420D01*
X00138714D01*
D01*
X00145570D01*
X00142311D01*
X00142414Y00118434D01*
X00142561Y00118449D01*
X00142707Y00118478D01*
X00142884Y00118508D01*
X00143074Y00118552D01*
X00143280Y00118596D01*
X00143485Y00118669D01*
X00143691Y00118743D01*
X00143897Y00118845D01*
X00144102Y00118963D01*
X00144308Y00119095D01*
X00144498Y00119256D01*
X00144675Y00119433D01*
X00144689Y00119447D01*
X00144719Y00119477D01*
X00144763Y00119535D01*
X00144807Y00119623D01*
X00144880Y00119726D01*
X00144953Y00119844D01*
X00145042Y00119991D01*
X00145115Y00120152D01*
X00145203Y00120328D01*
X00145291Y00120534D01*
X00145365Y00120754D01*
X00145423Y00121004D01*
X00145482Y00121253D01*
X00145526Y00121532D01*
X00145555Y00121826D01*
X00145570Y00122134D01*
Y00122295D01*
X00145555Y00122398D01*
X00145541Y00122545D01*
X00145526Y00122706D01*
X00145497Y00122883D01*
X00145453Y00123074D01*
X00145335Y00123499D01*
X00145262Y00123720D01*
X00145174Y00123940D01*
X00145071Y00124160D01*
X00144939Y00124380D01*
X00144792Y00124586D01*
X00144630Y00124791D01*
X00144616Y00124806D01*
X00144586Y00124835D01*
X00144528Y00124879D01*
X00144454Y00124953D01*
X00144366Y00125026D01*
X00144249Y00125114D01*
X00144117Y00125217D01*
X00143970Y00125305D01*
X00143794Y00125408D01*
X00143617Y00125496D01*
X00143412Y00125584D01*
X00143192Y00125657D01*
X00142957Y00125731D01*
X00142693Y00125775D01*
X00142428Y00125804D01*
X00142149Y00125819D01*
D02*
G37*
G36*
X00131418Y00128755D02*
D01*
Y00120724D01*
Y00120710D01*
Y00120666D01*
Y00120607D01*
X00131403Y00120519D01*
X00131388Y00120416D01*
X00131373Y00120299D01*
X00131315Y00120035D01*
X00131227Y00119756D01*
X00131095Y00119506D01*
X00131006Y00119389D01*
X00130889Y00119286D01*
X00130772Y00119198D01*
X00130639Y00119139D01*
Y00119124D01*
X00130654Y00119110D01*
X00130713Y00119022D01*
X00130815Y00118919D01*
X00130948Y00118787D01*
X00131138Y00118654D01*
X00131359Y00118537D01*
X00131638Y00118449D01*
X00131799Y00118434D01*
X00131961Y00118420D01*
X00130639D01*
X00133091D01*
Y00128344D01*
X00131418Y00128755D01*
D02*
G37*
%LPD*%
G36*
X00311761Y00124395D02*
X00311879Y00124380D01*
X00311996Y00124351D01*
X00312143Y00124307D01*
X00312290Y00124248D01*
X00312451Y00124175D01*
X00312466Y00124160D01*
X00312525Y00124131D01*
X00312584Y00124087D01*
X00312672Y00124028D01*
X00312877Y00123866D01*
X00312965Y00123778D01*
X00313039Y00123675D01*
Y00118552D01*
X00310117D01*
Y00122941D01*
Y00122956D01*
Y00122971D01*
Y00123044D01*
X00310132Y00123176D01*
X00310176Y00123323D01*
X00310220Y00123485D01*
X00310293Y00123661D01*
X00310396Y00123837D01*
X00310543Y00123998D01*
X00310557Y00124013D01*
X00310616Y00124057D01*
X00310704Y00124131D01*
X00310836Y00124204D01*
X00310983Y00124277D01*
X00311174Y00124351D01*
X00311380Y00124395D01*
X00311614Y00124410D01*
X00311688D01*
X00311761Y00124395D01*
D02*
G37*
G36*
X00270727Y00121973D02*
X00270860D01*
X00271006Y00121943D01*
X00271168Y00121914D01*
X00271344Y00121884D01*
X00271520Y00121826D01*
X00271696Y00121752D01*
X00271873Y00121679D01*
X00272034Y00121561D01*
X00272181Y00121444D01*
X00272313Y00121297D01*
X00272401Y00121121D01*
X00272460Y00120930D01*
X00272489Y00120695D01*
Y00120681D01*
Y00120651D01*
X00272474Y00120607D01*
Y00120548D01*
X00272430Y00120387D01*
X00272357Y00120225D01*
X00272298Y00120123D01*
X00272225Y00120049D01*
X00272137Y00119961D01*
X00272034Y00119888D01*
X00271902Y00119829D01*
X00271755Y00119785D01*
X00271594Y00119756D01*
X00271403Y00119741D01*
X00271344D01*
X00271271Y00119756D01*
X00271168Y00119770D01*
X00271050Y00119785D01*
X00270933Y00119814D01*
X00270786Y00119858D01*
X00270654Y00119932D01*
X00270507Y00120005D01*
X00270375Y00120108D01*
X00270258Y00120225D01*
X00270140Y00120372D01*
X00270037Y00120534D01*
X00269964Y00120739D01*
X00269920Y00120959D01*
X00269905Y00121224D01*
Y00121899D01*
X00269920D01*
X00269979Y00121914D01*
X00270052Y00121928D01*
X00270140Y00121943D01*
X00270360Y00121973D01*
X00270463Y00121987D01*
X00270639D01*
X00270727Y00121973D01*
D02*
G37*
G36*
X00352296Y00118420D02*
X00348097D01*
X00350241Y00124586D01*
X00352296Y00118420D01*
D02*
G37*
G36*
X00231441Y00124410D02*
X00231529Y00124395D01*
X00231646Y00124380D01*
X00231778Y00124336D01*
X00231910Y00124292D01*
X00232057Y00124233D01*
X00232219Y00124145D01*
X00232365Y00124043D01*
X00232512Y00123910D01*
X00232659Y00123764D01*
X00232777Y00123587D01*
X00232894Y00123367D01*
X00232997Y00123132D01*
X00233070Y00122853D01*
X00229576D01*
Y00122868D01*
X00229591Y00122927D01*
X00229605Y00123000D01*
X00229620Y00123103D01*
X00229664Y00123220D01*
X00229708Y00123352D01*
X00229781Y00123499D01*
X00229855Y00123646D01*
X00229958Y00123793D01*
X00230075Y00123925D01*
X00230222Y00124057D01*
X00230383Y00124175D01*
X00230574Y00124277D01*
X00230780Y00124351D01*
X00231029Y00124410D01*
X00231308Y00124424D01*
X00231367D01*
X00231441Y00124410D01*
D02*
G37*
G36*
X00234876Y00118420D02*
X00231514D01*
X00231617Y00118434D01*
X00231763Y00118449D01*
X00231925Y00118464D01*
X00232101Y00118493D01*
X00232292Y00118537D01*
X00232703Y00118654D01*
X00232909Y00118728D01*
X00233129Y00118816D01*
X00233349Y00118933D01*
X00233555Y00119066D01*
X00233745Y00119212D01*
X00233936Y00119374D01*
X00233951Y00119389D01*
X00233980Y00119418D01*
X00234024Y00119477D01*
X00234083Y00119550D01*
X00234156Y00119653D01*
X00234230Y00119770D01*
X00234318Y00119902D01*
X00234406Y00120064D01*
X00234494Y00120240D01*
X00234582Y00120446D01*
X00234656Y00120666D01*
X00234729Y00120901D01*
X00234788Y00121150D01*
X00234832Y00121429D01*
X00234861Y00121723D01*
X00234876Y00122031D01*
Y00118420D01*
D02*
G37*
G36*
X00126367Y00124410D02*
X00126455Y00124395D01*
X00126573Y00124380D01*
X00126705Y00124336D01*
X00126837Y00124292D01*
X00126984Y00124233D01*
X00127145Y00124145D01*
X00127292Y00124043D01*
X00127439Y00123910D01*
X00127586Y00123764D01*
X00127703Y00123587D01*
X00127821Y00123367D01*
X00127923Y00123132D01*
X00127997Y00122853D01*
X00124503D01*
Y00122868D01*
X00124517Y00122927D01*
X00124532Y00123000D01*
X00124547Y00123103D01*
X00124591Y00123220D01*
X00124635Y00123352D01*
X00124708Y00123499D01*
X00124782Y00123646D01*
X00124884Y00123793D01*
X00125002Y00123925D01*
X00125149Y00124057D01*
X00125310Y00124175D01*
X00125501Y00124277D01*
X00125707Y00124351D01*
X00125956Y00124410D01*
X00126235Y00124424D01*
X00126294D01*
X00126367Y00124410D01*
D02*
G37*
G36*
X00129803Y00118420D02*
X00126440D01*
X00126543Y00118434D01*
X00126690Y00118449D01*
X00126852Y00118464D01*
X00127028Y00118493D01*
X00127219Y00118537D01*
X00127630Y00118654D01*
X00127835Y00118728D01*
X00128055Y00118816D01*
X00128276Y00118933D01*
X00128481Y00119066D01*
X00128672Y00119212D01*
X00128863Y00119374D01*
X00128878Y00119389D01*
X00128907Y00119418D01*
X00128951Y00119477D01*
X00129010Y00119550D01*
X00129083Y00119653D01*
X00129157Y00119770D01*
X00129245Y00119902D01*
X00129333Y00120064D01*
X00129421Y00120240D01*
X00129509Y00120446D01*
X00129582Y00120666D01*
X00129656Y00120901D01*
X00129714Y00121150D01*
X00129759Y00121429D01*
X00129788Y00121723D01*
X00129803Y00122031D01*
Y00118420D01*
D02*
G37*
G36*
X00306638Y00125687D02*
X00304964D01*
Y00125026D01*
X00304949Y00125041D01*
X00304935Y00125056D01*
X00304890Y00125100D01*
X00304832Y00125144D01*
X00304773Y00125217D01*
X00304685Y00125276D01*
X00304480Y00125423D01*
X00304215Y00125569D01*
X00303892Y00125702D01*
X00303525Y00125790D01*
X00303320Y00125804D01*
X00303114Y00125819D01*
X00306638D01*
Y00125687D01*
D02*
G37*
G36*
X00150943Y00125687D02*
X00149270D01*
Y00125026D01*
X00149255Y00125041D01*
X00149240Y00125056D01*
X00149196Y00125099D01*
X00149138Y00125144D01*
X00149079Y00125217D01*
X00148991Y00125276D01*
X00148785Y00125422D01*
X00148521Y00125569D01*
X00148198Y00125702D01*
X00147831Y00125789D01*
X00147626Y00125804D01*
X00147420Y00125819D01*
X00150943D01*
Y00125687D01*
D02*
G37*
G36*
X00121508D02*
X00119834D01*
Y00125026D01*
X00119819Y00125041D01*
X00119805Y00125056D01*
X00119761Y00125099D01*
X00119702Y00125144D01*
X00119643Y00125217D01*
X00119555Y00125276D01*
X00119349Y00125422D01*
X00119085Y00125569D01*
X00118762Y00125702D01*
X00118395Y00125789D01*
X00118190Y00125804D01*
X00117984Y00125819D01*
X00121508D01*
Y00125687D01*
D02*
G37*
G36*
X00239280Y00124410D02*
X00239368Y00124395D01*
X00239486Y00124380D01*
X00239618Y00124336D01*
X00239750Y00124292D01*
X00239897Y00124233D01*
X00240058Y00124145D01*
X00240205Y00124043D01*
X00240352Y00123910D01*
X00240499Y00123764D01*
X00240616Y00123587D01*
X00240734Y00123367D01*
X00240836Y00123132D01*
X00240910Y00122853D01*
X00237416D01*
Y00122868D01*
X00237430Y00122927D01*
X00237445Y00123000D01*
X00237460Y00123103D01*
X00237504Y00123220D01*
X00237548Y00123352D01*
X00237621Y00123499D01*
X00237695Y00123646D01*
X00237797Y00123793D01*
X00237915Y00123925D01*
X00238062Y00124057D01*
X00238223Y00124175D01*
X00238414Y00124277D01*
X00238620Y00124351D01*
X00238869Y00124410D01*
X00239148Y00124424D01*
X00239207D01*
X00239280Y00124410D01*
D02*
G37*
G36*
X00266896Y00118420D02*
X00264884D01*
X00265046Y00118434D01*
X00265222Y00118449D01*
X00265413Y00118464D01*
X00265604Y00118493D01*
X00265780Y00118537D01*
X00265795D01*
X00265853Y00118566D01*
X00265956Y00118596D01*
X00266073Y00118640D01*
X00266235Y00118699D01*
X00266411Y00118772D01*
X00266631Y00118875D01*
X00266866Y00119007D01*
X00266279Y00120343D01*
X00266264D01*
X00266250Y00120314D01*
X00266206Y00120284D01*
X00266147Y00120255D01*
X00266000Y00120152D01*
X00265795Y00120049D01*
X00265545Y00119932D01*
X00265251Y00119829D01*
X00264943Y00119770D01*
X00264605Y00119741D01*
X00264517D01*
X00264444Y00119756D01*
X00264297Y00119785D01*
X00264106Y00119829D01*
X00263930Y00119917D01*
X00263769Y00120035D01*
X00263710Y00120108D01*
X00263666Y00120211D01*
X00263636Y00120314D01*
X00263622Y00120431D01*
Y00120446D01*
Y00120504D01*
X00263636Y00120578D01*
X00263651Y00120666D01*
X00263695Y00120769D01*
X00263739Y00120871D01*
X00263813Y00120989D01*
X00263915Y00121092D01*
X00263930Y00121106D01*
X00263974Y00121136D01*
X00264047Y00121194D01*
X00264165Y00121268D01*
X00264326Y00121356D01*
X00264517Y00121459D01*
X00264767Y00121576D01*
X00265060Y00121708D01*
X00265075Y00121723D01*
X00265134Y00121738D01*
X00265237Y00121782D01*
X00265339Y00121855D01*
X00265486Y00121928D01*
X00265648Y00122016D01*
X00265809Y00122134D01*
X00265971Y00122266D01*
X00266147Y00122413D01*
X00266308Y00122574D01*
X00266470Y00122751D01*
X00266602Y00122941D01*
X00266719Y00123147D01*
X00266822Y00123367D01*
X00266881Y00123602D01*
X00266896Y00123852D01*
Y00118420D01*
D02*
G37*
G36*
X00190950D02*
X00188938D01*
X00189100Y00118434D01*
X00189276Y00118449D01*
X00189467Y00118464D01*
X00189658Y00118493D01*
X00189834Y00118537D01*
X00189849D01*
X00189907Y00118566D01*
X00190010Y00118596D01*
X00190128Y00118640D01*
X00190289Y00118699D01*
X00190465Y00118772D01*
X00190686Y00118875D01*
X00190920Y00119007D01*
X00190333Y00120343D01*
X00190318D01*
X00190304Y00120314D01*
X00190260Y00120284D01*
X00190201Y00120255D01*
X00190054Y00120152D01*
X00189849Y00120049D01*
X00189599Y00119932D01*
X00189305Y00119829D01*
X00188997Y00119770D01*
X00188659Y00119741D01*
X00188571D01*
X00188498Y00119756D01*
X00188351Y00119785D01*
X00188160Y00119829D01*
X00187984Y00119917D01*
X00187823Y00120035D01*
X00187764Y00120108D01*
X00187720Y00120211D01*
X00187691Y00120314D01*
X00187676Y00120431D01*
Y00120446D01*
Y00120504D01*
X00187691Y00120578D01*
X00187705Y00120666D01*
X00187749Y00120769D01*
X00187793Y00120871D01*
X00187867Y00120989D01*
X00187969Y00121092D01*
X00187984Y00121106D01*
X00188028Y00121136D01*
X00188102Y00121194D01*
X00188219Y00121268D01*
X00188381Y00121356D01*
X00188571Y00121459D01*
X00188821Y00121576D01*
X00189115Y00121708D01*
X00189129Y00121723D01*
X00189188Y00121738D01*
X00189291Y00121782D01*
X00189394Y00121855D01*
X00189540Y00121928D01*
X00189702Y00122016D01*
X00189863Y00122134D01*
X00190025Y00122266D01*
X00190201Y00122413D01*
X00190362Y00122574D01*
X00190524Y00122751D01*
X00190656Y00122941D01*
X00190774Y00123147D01*
X00190876Y00123367D01*
X00190935Y00123602D01*
X00190950Y00123852D01*
Y00118420D01*
D02*
G37*
G36*
X00169310Y00124439D02*
X00169442Y00124424D01*
X00169618Y00124380D01*
X00169823Y00124307D01*
X00170029Y00124189D01*
X00170220Y00124043D01*
X00170411Y00123837D01*
X00170425Y00123808D01*
X00170484Y00123720D01*
X00170557Y00123587D01*
X00170631Y00123397D01*
X00170719Y00123147D01*
X00170792Y00122853D01*
X00170851Y00122516D01*
X00170866Y00122134D01*
Y00122105D01*
Y00122031D01*
X00170851Y00121914D01*
X00170837Y00121767D01*
X00170807Y00121591D01*
X00170778Y00121385D01*
X00170719Y00121180D01*
X00170660Y00120959D01*
X00170572Y00120739D01*
X00170455Y00120534D01*
X00170323Y00120328D01*
X00170147Y00120152D01*
X00169956Y00120005D01*
X00169735Y00119888D01*
X00169471Y00119814D01*
X00169177Y00119785D01*
X00169104D01*
X00169045Y00119800D01*
X00168913Y00119814D01*
X00168737Y00119858D01*
X00168531Y00119932D01*
X00168326Y00120035D01*
X00168120Y00120181D01*
X00167944Y00120387D01*
X00167930Y00120416D01*
X00167871Y00120504D01*
X00167798Y00120637D01*
X00167709Y00120842D01*
X00167621Y00121092D01*
X00167548Y00121385D01*
X00167489Y00121738D01*
X00167474Y00122134D01*
Y00122163D01*
Y00122237D01*
X00167489Y00122354D01*
X00167504Y00122501D01*
X00167533Y00122677D01*
X00167563Y00122868D01*
X00167621Y00123074D01*
X00167680Y00123294D01*
X00167783Y00123514D01*
X00167886Y00123720D01*
X00168032Y00123910D01*
X00168194Y00124087D01*
X00168385Y00124233D01*
X00168620Y00124351D01*
X00168884Y00124424D01*
X00169177Y00124454D01*
X00169251D01*
X00169310Y00124439D01*
D02*
G37*
G36*
X00154423Y00125687D02*
X00152456D01*
Y00124351D01*
X00154423D01*
Y00121224D01*
Y00121209D01*
Y00121194D01*
Y00121106D01*
X00154408Y00120959D01*
X00154394Y00120798D01*
X00154364Y00120622D01*
X00154320Y00120446D01*
X00154261Y00120284D01*
X00154188Y00120137D01*
X00154173Y00120123D01*
X00154144Y00120093D01*
X00154085Y00120035D01*
X00153997Y00119991D01*
X00153880Y00119932D01*
X00153733Y00119873D01*
X00153557Y00119844D01*
X00153351Y00119829D01*
X00153248D01*
X00153131Y00119844D01*
X00152984Y00119873D01*
X00152808Y00119902D01*
X00152617Y00119961D01*
X00152426Y00120049D01*
X00152221Y00120152D01*
Y00127757D01*
X00154423D01*
Y00125687D01*
D02*
G37*
G36*
X00142282Y00124439D02*
X00142414Y00124424D01*
X00142590Y00124380D01*
X00142795Y00124307D01*
X00143001Y00124189D01*
X00143192Y00124043D01*
X00143383Y00123837D01*
X00143397Y00123808D01*
X00143456Y00123720D01*
X00143530Y00123587D01*
X00143603Y00123397D01*
X00143691Y00123147D01*
X00143764Y00122853D01*
X00143823Y00122516D01*
X00143838Y00122134D01*
Y00122105D01*
Y00122031D01*
X00143823Y00121914D01*
X00143808Y00121767D01*
X00143779Y00121591D01*
X00143750Y00121385D01*
X00143691Y00121180D01*
X00143632Y00120959D01*
X00143544Y00120739D01*
X00143427Y00120534D01*
X00143295Y00120328D01*
X00143118Y00120152D01*
X00142928Y00120005D01*
X00142707Y00119888D01*
X00142443Y00119814D01*
X00142149Y00119785D01*
X00142076D01*
X00142017Y00119800D01*
X00141885Y00119814D01*
X00141709Y00119858D01*
X00141503Y00119932D01*
X00141298Y00120035D01*
X00141092Y00120181D01*
X00140916Y00120387D01*
X00140901Y00120416D01*
X00140843Y00120504D01*
X00140769Y00120636D01*
X00140681Y00120842D01*
X00140593Y00121092D01*
X00140520Y00121385D01*
X00140461Y00121737D01*
X00140446Y00122134D01*
Y00122163D01*
Y00122237D01*
X00140461Y00122354D01*
X00140476Y00122501D01*
X00140505Y00122677D01*
X00140534Y00122868D01*
X00140593Y00123074D01*
X00140652Y00123294D01*
X00140755Y00123514D01*
X00140857Y00123720D01*
X00141004Y00123910D01*
X00141166Y00124087D01*
X00141357Y00124233D01*
X00141592Y00124351D01*
X00141856Y00124424D01*
X00142149Y00124453D01*
X00142223D01*
X00142282Y00124439D01*
D02*
G37*
G36*
X00133091Y00118420D02*
X00132005D01*
X00132063Y00118434D01*
X00132137Y00118449D01*
X00132313Y00118508D01*
X00132416Y00118552D01*
X00132519Y00118610D01*
X00132636Y00118699D01*
X00132739Y00118801D01*
X00132827Y00118933D01*
X00132915Y00119080D01*
X00132988Y00119256D01*
X00133047Y00119477D01*
X00133076Y00119712D01*
X00133091Y00119991D01*
Y00118420D01*
D02*
G37*
D64*
X00099056Y00100897D02*
X00373980D01*
X00099056D02*
Y00131386D01*
X00373980D01*
Y00100897D02*
Y00131386D01*
M02*
