G04*
G04 #@! TF.GenerationSoftware,Altium Limited,Altium Designer,20.1.8 (145)*
G04*
G04 Layer_Color=32768*
%FSAX44Y44*%
%MOMM*%
G71*
G04*
G04 #@! TF.SameCoordinates,513F2EBE-DBB5-41E4-B840-0BD9831D4F27*
G04*
G04*
G04 #@! TF.FilePolarity,Negative*
G04*
G01*
G75*
G04:AMPARAMS|DCode=17|XSize=0.9mm|YSize=0.8mm|CornerRadius=0.0535mm|HoleSize=0mm|Usage=FLASHONLY|Rotation=90.000|XOffset=0mm|YOffset=0mm|HoleType=Round|Shape=RoundedRectangle|*
%AMROUNDEDRECTD17*
21,1,0.9000,0.6930,0,0,90.0*
21,1,0.7930,0.8000,0,0,90.0*
1,1,0.1070,0.3465,0.3965*
1,1,0.1070,0.3465,-0.3965*
1,1,0.1070,-0.3465,-0.3965*
1,1,0.1070,-0.3465,0.3965*
%
%ADD17ROUNDEDRECTD17*%
G04:AMPARAMS|DCode=18|XSize=4.4mm|YSize=4.66mm|CornerRadius=0.0715mm|HoleSize=0mm|Usage=FLASHONLY|Rotation=90.000|XOffset=0mm|YOffset=0mm|HoleType=Round|Shape=RoundedRectangle|*
%AMROUNDEDRECTD18*
21,1,4.4000,4.5170,0,0,90.0*
21,1,4.2570,4.6600,0,0,90.0*
1,1,0.1430,2.2585,2.1285*
1,1,0.1430,2.2585,-2.1285*
1,1,0.1430,-2.2585,-2.1285*
1,1,0.1430,-2.2585,2.1285*
%
%ADD18ROUNDEDRECTD18*%
G04:AMPARAMS|DCode=23|XSize=0.9mm|YSize=0.8mm|CornerRadius=0.0535mm|HoleSize=0mm|Usage=FLASHONLY|Rotation=0.000|XOffset=0mm|YOffset=0mm|HoleType=Round|Shape=RoundedRectangle|*
%AMROUNDEDRECTD23*
21,1,0.9000,0.6930,0,0,0.0*
21,1,0.7930,0.8000,0,0,0.0*
1,1,0.1070,0.3965,-0.3465*
1,1,0.1070,-0.3965,-0.3465*
1,1,0.1070,-0.3965,0.3465*
1,1,0.1070,0.3965,0.3465*
%
%ADD23ROUNDEDRECTD23*%
G04:AMPARAMS|DCode=24|XSize=4.4mm|YSize=4.66mm|CornerRadius=0.0715mm|HoleSize=0mm|Usage=FLASHONLY|Rotation=0.000|XOffset=0mm|YOffset=0mm|HoleType=Round|Shape=RoundedRectangle|*
%AMROUNDEDRECTD24*
21,1,4.4000,4.5170,0,0,0.0*
21,1,4.2570,4.6600,0,0,0.0*
1,1,0.1430,2.1285,-2.2585*
1,1,0.1430,-2.1285,-2.2585*
1,1,0.1430,-2.1285,2.2585*
1,1,0.1430,2.1285,2.2585*
%
%ADD24ROUNDEDRECTD24*%
%ADD31C,0.2000*%
%ADD32R,3.1000X0.4000*%
%ADD33R,3.1000X0.2500*%
%ADD34R,0.2500X3.1000*%
%ADD35R,0.2500X3.1000*%
%ADD36R,0.4000X3.1000*%
%ADD37R,0.4000X3.1000*%
G04:AMPARAMS|DCode=38|XSize=6.6016mm|YSize=5.1016mm|CornerRadius=0.0758mm|HoleSize=0mm|Usage=FLASHONLY|Rotation=90.000|XOffset=0mm|YOffset=0mm|HoleType=Round|Shape=RoundedRectangle|*
%AMROUNDEDRECTD38*
21,1,6.6016,4.9500,0,0,90.0*
21,1,6.4500,5.1016,0,0,90.0*
1,1,0.1516,2.4750,3.2250*
1,1,0.1516,2.4750,-3.2250*
1,1,0.1516,-2.4750,-3.2250*
1,1,0.1516,-2.4750,3.2250*
%
%ADD38ROUNDEDRECTD38*%
G04:AMPARAMS|DCode=39|XSize=2.45mm|YSize=2.2mm|CornerRadius=0.0605mm|HoleSize=0mm|Usage=FLASHONLY|Rotation=180.000|XOffset=0mm|YOffset=0mm|HoleType=Round|Shape=RoundedRectangle|*
%AMROUNDEDRECTD39*
21,1,2.4500,2.0790,0,0,180.0*
21,1,2.3290,2.2000,0,0,180.0*
1,1,0.1210,-1.1645,1.0395*
1,1,0.1210,1.1645,1.0395*
1,1,0.1210,1.1645,-1.0395*
1,1,0.1210,-1.1645,-1.0395*
%
%ADD39ROUNDEDRECTD39*%
G04:AMPARAMS|DCode=40|XSize=1.5224mm|YSize=0.45mm|CornerRadius=0.0518mm|HoleSize=0mm|Usage=FLASHONLY|Rotation=270.000|XOffset=0mm|YOffset=0mm|HoleType=Round|Shape=RoundedRectangle|*
%AMROUNDEDRECTD40*
21,1,1.5224,0.3465,0,0,270.0*
21,1,1.4189,0.4500,0,0,270.0*
1,1,0.1035,-0.1733,-0.7095*
1,1,0.1035,-0.1733,0.7095*
1,1,0.1035,0.1733,0.7095*
1,1,0.1035,0.1733,-0.7095*
%
%ADD40ROUNDEDRECTD40*%
G04:AMPARAMS|DCode=41|XSize=0.95mm|YSize=0.6mm|CornerRadius=0.0525mm|HoleSize=0mm|Usage=FLASHONLY|Rotation=270.000|XOffset=0mm|YOffset=0mm|HoleType=Round|Shape=RoundedRectangle|*
%AMROUNDEDRECTD41*
21,1,0.9500,0.4950,0,0,270.0*
21,1,0.8450,0.6000,0,0,270.0*
1,1,0.1050,-0.2475,-0.4225*
1,1,0.1050,-0.2475,0.4225*
1,1,0.1050,0.2475,0.4225*
1,1,0.1050,0.2475,-0.4225*
%
%ADD41ROUNDEDRECTD41*%
G04:AMPARAMS|DCode=42|XSize=1.3mm|YSize=0.8mm|CornerRadius=0.0535mm|HoleSize=0mm|Usage=FLASHONLY|Rotation=180.000|XOffset=0mm|YOffset=0mm|HoleType=Round|Shape=RoundedRectangle|*
%AMROUNDEDRECTD42*
21,1,1.3000,0.6930,0,0,180.0*
21,1,1.1930,0.8000,0,0,180.0*
1,1,0.1070,-0.5965,0.3465*
1,1,0.1070,0.5965,0.3465*
1,1,0.1070,0.5965,-0.3465*
1,1,0.1070,-0.5965,-0.3465*
%
%ADD42ROUNDEDRECTD42*%
G04:AMPARAMS|DCode=43|XSize=0.95mm|YSize=0.6mm|CornerRadius=0.0525mm|HoleSize=0mm|Usage=FLASHONLY|Rotation=180.000|XOffset=0mm|YOffset=0mm|HoleType=Round|Shape=RoundedRectangle|*
%AMROUNDEDRECTD43*
21,1,0.9500,0.4950,0,0,180.0*
21,1,0.8450,0.6000,0,0,180.0*
1,1,0.1050,-0.4225,0.2475*
1,1,0.1050,0.4225,0.2475*
1,1,0.1050,0.4225,-0.2475*
1,1,0.1050,-0.4225,-0.2475*
%
%ADD43ROUNDEDRECTD43*%
G04:AMPARAMS|DCode=44|XSize=1.75mm|YSize=0.9mm|CornerRadius=0.054mm|HoleSize=0mm|Usage=FLASHONLY|Rotation=90.000|XOffset=0mm|YOffset=0mm|HoleType=Round|Shape=RoundedRectangle|*
%AMROUNDEDRECTD44*
21,1,1.7500,0.7920,0,0,90.0*
21,1,1.6420,0.9000,0,0,90.0*
1,1,0.1080,0.3960,0.8210*
1,1,0.1080,0.3960,-0.8210*
1,1,0.1080,-0.3960,-0.8210*
1,1,0.1080,-0.3960,0.8210*
%
%ADD44ROUNDEDRECTD44*%
G04:AMPARAMS|DCode=45|XSize=1.75mm|YSize=0.9mm|CornerRadius=0.054mm|HoleSize=0mm|Usage=FLASHONLY|Rotation=0.000|XOffset=0mm|YOffset=0mm|HoleType=Round|Shape=RoundedRectangle|*
%AMROUNDEDRECTD45*
21,1,1.7500,0.7920,0,0,0.0*
21,1,1.6420,0.9000,0,0,0.0*
1,1,0.1080,0.8210,-0.3960*
1,1,0.1080,-0.8210,-0.3960*
1,1,0.1080,-0.8210,0.3960*
1,1,0.1080,0.8210,0.3960*
%
%ADD45ROUNDEDRECTD45*%
G04:AMPARAMS|DCode=46|XSize=0.95mm|YSize=0.65mm|CornerRadius=0.0527mm|HoleSize=0mm|Usage=FLASHONLY|Rotation=180.000|XOffset=0mm|YOffset=0mm|HoleType=Round|Shape=RoundedRectangle|*
%AMROUNDEDRECTD46*
21,1,0.9500,0.5445,0,0,180.0*
21,1,0.8445,0.6500,0,0,180.0*
1,1,0.1055,-0.4223,0.2723*
1,1,0.1055,0.4223,0.2723*
1,1,0.1055,0.4223,-0.2723*
1,1,0.1055,-0.4223,-0.2723*
%
%ADD46ROUNDEDRECTD46*%
G04:AMPARAMS|DCode=47|XSize=1.3mm|YSize=0.8mm|CornerRadius=0.0535mm|HoleSize=0mm|Usage=FLASHONLY|Rotation=90.000|XOffset=0mm|YOffset=0mm|HoleType=Round|Shape=RoundedRectangle|*
%AMROUNDEDRECTD47*
21,1,1.3000,0.6930,0,0,90.0*
21,1,1.1930,0.8000,0,0,90.0*
1,1,0.1070,0.3465,0.5965*
1,1,0.1070,0.3465,-0.5965*
1,1,0.1070,-0.3465,-0.5965*
1,1,0.1070,-0.3465,0.5965*
%
%ADD47ROUNDEDRECTD47*%
G04:AMPARAMS|DCode=48|XSize=0.95mm|YSize=0.65mm|CornerRadius=0.0527mm|HoleSize=0mm|Usage=FLASHONLY|Rotation=90.000|XOffset=0mm|YOffset=0mm|HoleType=Round|Shape=RoundedRectangle|*
%AMROUNDEDRECTD48*
21,1,0.9500,0.5445,0,0,90.0*
21,1,0.8445,0.6500,0,0,90.0*
1,1,0.1055,0.2723,0.4223*
1,1,0.1055,0.2723,-0.4223*
1,1,0.1055,-0.2723,-0.4223*
1,1,0.1055,-0.2723,0.4223*
%
%ADD48ROUNDEDRECTD48*%
%ADD49O,3.6000X2.0000*%
%ADD50C,2.6000*%
%ADD51C,1.6000*%
D17*
X00194013Y00130250D02*
D03*
Y00185300D02*
D03*
X00207013D02*
D03*
X00219013D02*
D03*
X00232013D02*
D03*
Y00130250D02*
D03*
X00219013D02*
D03*
X00207013D02*
D03*
D18*
X00213013Y00160775D02*
D03*
D23*
X00244013Y00157750D02*
D03*
Y00145750D02*
D03*
Y00132750D02*
D03*
X00299063D02*
D03*
Y00145750D02*
D03*
Y00157750D02*
D03*
Y00170750D02*
D03*
X00244013D02*
D03*
D24*
X00274538Y00151750D02*
D03*
D31*
X00248013Y00061354D02*
G03*
X00248013Y00061354I-00004000J00000000D01*
G01*
X00258013Y00071354D02*
G03*
X00258013Y00071354I-00004000J00000000D01*
G01*
Y00061354D02*
G03*
X00258013Y00061354I-00004000J00000000D01*
G01*
Y00051354D02*
G03*
X00258013Y00051354I-00004000J00000000D01*
G01*
X00248013D02*
G03*
X00248013Y00051354I-00004000J00000000D01*
G01*
Y00071354D02*
G03*
X00248013Y00071354I-00004000J00000000D01*
G01*
X00238013D02*
G03*
X00238013Y00071354I-00004000J00000000D01*
G01*
Y00061354D02*
G03*
X00238013Y00061354I-00004000J00000000D01*
G01*
Y00051354D02*
G03*
X00238013Y00051354I-00004000J00000000D01*
G01*
D32*
X00244013Y00066354D02*
D03*
Y00056354D02*
D03*
D33*
Y00047104D02*
D03*
X00244013Y00075604D02*
D03*
D34*
X00229763Y00061354D02*
D03*
D35*
X00258263Y00061354D02*
D03*
D36*
X00249013D02*
D03*
D37*
X00239013Y00061354D02*
D03*
D38*
X00162003Y00150000D02*
D03*
X00072003D02*
D03*
D39*
X00121753Y00073999D02*
D03*
Y00015499D02*
D03*
X00169755D02*
D03*
Y00073999D02*
D03*
X00073750Y00015499D02*
D03*
Y00073999D02*
D03*
D40*
X00224513Y00089802D02*
D03*
X00231013D02*
D03*
X00237513D02*
D03*
X00244013D02*
D03*
X00250513D02*
D03*
X00257013D02*
D03*
X00263513D02*
D03*
X00263513Y00032906D02*
D03*
X00257013D02*
D03*
X00250513D02*
D03*
X00244013D02*
D03*
X00237513D02*
D03*
X00231013D02*
D03*
X00224513D02*
D03*
D41*
X00279000Y00069500D02*
D03*
X00293000D02*
D03*
X00279000Y00056280D02*
D03*
X00293000D02*
D03*
X00262025Y00009240D02*
D03*
X00248025D02*
D03*
D42*
X00272565Y00104309D02*
D03*
Y00121309D02*
D03*
D43*
X00287066Y00095271D02*
D03*
Y00109271D02*
D03*
D44*
X00015742Y00158750D02*
D03*
X00044242D02*
D03*
D45*
X00269064Y00182753D02*
D03*
Y00211253D02*
D03*
X00289067D02*
D03*
Y00182753D02*
D03*
D46*
X00212832Y00046906D02*
D03*
Y00032906D02*
D03*
X00280024Y00008516D02*
D03*
Y00022516D02*
D03*
D47*
X00228989Y00012252D02*
D03*
X00211989D02*
D03*
D48*
X00279000Y00043471D02*
D03*
X00293000D02*
D03*
D49*
X00324840Y00085000D02*
D03*
Y00135000D02*
D03*
X00025000Y00085000D02*
D03*
Y00135000D02*
D03*
D50*
X00324840Y00025000D02*
D03*
Y00195000D02*
D03*
X00025000Y00025000D02*
D03*
Y00195000D02*
D03*
D51*
X00317090Y00060749D02*
D03*
X00013781D02*
D03*
X00033781D02*
D03*
X00333590Y00158750D02*
D03*
X00313590D02*
D03*
X00337090Y00060749D02*
D03*
X00205026Y00085703D02*
D03*
Y00065703D02*
D03*
M02*
