M48
;Layer_Color=9474304
;FILE_FORMAT=4:4
METRIC
;TYPE=PLATED
T1F00S00C0.4000
T2F00S00C1.0000
T3F00S00C2.0000
%
T01
X00072599Y00032287
X00080099Y00032287
X00087599Y00032287
X00095099Y00032287
X00102599Y00032287
X00110099Y00032287
X00117599Y00032287
X00125099Y00032287
X00132599Y00032287
X00140099Y00032287
X00147599Y00032287
X00155099Y00032287
X00162599Y00032287
X00170099Y00032287
X00177599Y00032287
X00185099Y00032287
X00185000Y00040000
X00177500Y00040000
X00170000Y00040000
X00162500Y00040000
X00155000Y00040000
X00147500Y00040000
X00140000Y00040000
X00132500Y00040000
X00125000Y00040000
X00117500Y00040000
X00110000Y00040000
X00102500Y00040000
X00095000Y00040000
X00087500Y00040000
X00080000Y00040000
X00072500Y00040000
X00032713Y00151599
X00032713Y00159099
X00032713Y00166599
X00025000Y00166500
X00025000Y00159000
X00025000Y00151500
X00195000Y00120000
X00202500Y00120000
X00210000Y00120000
X00217500Y00120000
X00217599Y00112287
X00210099Y00112287
X00202599Y00112287
X00195099Y00112287
X00235513Y00104809
X00258803Y00104809
X00252437Y00121809
X00244970Y00151725
X00244013Y00071354
X00244013Y00061354
X00234013Y00061354
X00224013Y00061354
X00224013Y00051354
X00234013Y00051354
X00244013Y00051354
X00254013Y00051354
X00254013Y00061354
X00254013Y00071354
X00264013Y00071354
X00264013Y00061354
X00264013Y00051354
X00279250Y00033300
X00271534Y00022516
X00250513Y00022516
X00239900Y00020912
X00239013Y00010794
X00214912Y00023879
X00208200Y00023781
X00224013Y00071354
X00234013Y00071354
X00302050Y00035463
X00293500Y00020516
X00290285Y00194778
X00282785Y00194778
X00275285Y00194778
X00267785Y00194778
X00267785Y00202648
X00275285Y00202648
X00282785Y00202648
X00290285Y00202648
T02
X00013781Y00060749
X00033781Y00060749
X00205026Y00065703
X00205026Y00085703
X00317090Y00060749
X00337090Y00060749
X00333590Y00158750
X00313590Y00158750
T03
X00025000Y00025000
X00324840Y00025000
X00324840Y00195000
X00025000Y00195000
M30
