%TF.GenerationSoftware,Altium Limited,Altium Designer,20.1.8 (145)*%
G04 Layer_Color=255*
%FSLAX45Y45*%
%MOMM*%
%TF.SameCoordinates,7C767931-0862-4B48-A7A2-9337087A75ED*%
%TF.FilePolarity,Positive*%
%TF.FileFunction,Pads,Top*%
%TF.Part,Single*%
G01*
G75*
%TA.AperFunction,SMDPad,CuDef*%
G04:AMPARAMS|DCode=10|XSize=0.8mm|YSize=0.8mm|CornerRadius=0.004mm|HoleSize=0mm|Usage=FLASHONLY|Rotation=180.000|XOffset=0mm|YOffset=0mm|HoleType=Round|Shape=RoundedRectangle|*
%AMROUNDEDRECTD10*
21,1,0.80000,0.79200,0,0,180.0*
21,1,0.79200,0.80000,0,0,180.0*
1,1,0.00800,-0.39600,0.39600*
1,1,0.00800,0.39600,0.39600*
1,1,0.00800,0.39600,-0.39600*
1,1,0.00800,-0.39600,-0.39600*
%
%ADD10ROUNDEDRECTD10*%
%ADD11C,0.75000*%
G04:AMPARAMS|DCode=12|XSize=0.8mm|YSize=0.75mm|CornerRadius=0.00375mm|HoleSize=0mm|Usage=FLASHONLY|Rotation=90.000|XOffset=0mm|YOffset=0mm|HoleType=Round|Shape=RoundedRectangle|*
%AMROUNDEDRECTD12*
21,1,0.80000,0.74250,0,0,90.0*
21,1,0.79250,0.75000,0,0,90.0*
1,1,0.00750,0.37125,0.39625*
1,1,0.00750,0.37125,-0.39625*
1,1,0.00750,-0.37125,-0.39625*
1,1,0.00750,-0.37125,0.39625*
%
%ADD12ROUNDEDRECTD12*%
G04:AMPARAMS|DCode=13|XSize=0.8mm|YSize=0.75mm|CornerRadius=0.00375mm|HoleSize=0mm|Usage=FLASHONLY|Rotation=0.000|XOffset=0mm|YOffset=0mm|HoleType=Round|Shape=RoundedRectangle|*
%AMROUNDEDRECTD13*
21,1,0.80000,0.74250,0,0,0.0*
21,1,0.79250,0.75000,0,0,0.0*
1,1,0.00750,0.39625,-0.37125*
1,1,0.00750,-0.39625,-0.37125*
1,1,0.00750,-0.39625,0.37125*
1,1,0.00750,0.39625,0.37125*
%
%ADD13ROUNDEDRECTD13*%
G04:AMPARAMS|DCode=14|XSize=0.95mm|YSize=2.4mm|CornerRadius=0.00475mm|HoleSize=0mm|Usage=FLASHONLY|Rotation=90.000|XOffset=0mm|YOffset=0mm|HoleType=Round|Shape=RoundedRectangle|*
%AMROUNDEDRECTD14*
21,1,0.95000,2.39050,0,0,90.0*
21,1,0.94050,2.40000,0,0,90.0*
1,1,0.00950,1.19525,0.47025*
1,1,0.00950,1.19525,-0.47025*
1,1,0.00950,-1.19525,-0.47025*
1,1,0.00950,-1.19525,0.47025*
%
%ADD14ROUNDEDRECTD14*%
G04:AMPARAMS|DCode=15|XSize=5.55mm|YSize=6.8mm|CornerRadius=0.02775mm|HoleSize=0mm|Usage=FLASHONLY|Rotation=90.000|XOffset=0mm|YOffset=0mm|HoleType=Round|Shape=RoundedRectangle|*
%AMROUNDEDRECTD15*
21,1,5.55000,6.74450,0,0,90.0*
21,1,5.49450,6.80000,0,0,90.0*
1,1,0.05550,3.37225,2.74725*
1,1,0.05550,3.37225,-2.74725*
1,1,0.05550,-3.37225,-2.74725*
1,1,0.05550,-3.37225,2.74725*
%
%ADD15ROUNDEDRECTD15*%
G04:AMPARAMS|DCode=16|XSize=1.65mm|YSize=0.95mm|CornerRadius=0.00475mm|HoleSize=0mm|Usage=FLASHONLY|Rotation=0.000|XOffset=0mm|YOffset=0mm|HoleType=Round|Shape=RoundedRectangle|*
%AMROUNDEDRECTD16*
21,1,1.65000,0.94050,0,0,0.0*
21,1,1.64050,0.95000,0,0,0.0*
1,1,0.00950,0.82025,-0.47025*
1,1,0.00950,-0.82025,-0.47025*
1,1,0.00950,-0.82025,0.47025*
1,1,0.00950,0.82025,0.47025*
%
%ADD16ROUNDEDRECTD16*%
G04:AMPARAMS|DCode=17|XSize=0.8mm|YSize=0.8mm|CornerRadius=0.004mm|HoleSize=0mm|Usage=FLASHONLY|Rotation=90.000|XOffset=0mm|YOffset=0mm|HoleType=Round|Shape=RoundedRectangle|*
%AMROUNDEDRECTD17*
21,1,0.80000,0.79200,0,0,90.0*
21,1,0.79200,0.80000,0,0,90.0*
1,1,0.00800,0.39600,0.39600*
1,1,0.00800,0.39600,-0.39600*
1,1,0.00800,-0.39600,-0.39600*
1,1,0.00800,-0.39600,0.39600*
%
%ADD17ROUNDEDRECTD17*%
G04:AMPARAMS|DCode=18|XSize=0.54mm|YSize=0.9mm|CornerRadius=0.0027mm|HoleSize=0mm|Usage=FLASHONLY|Rotation=0.000|XOffset=0mm|YOffset=0mm|HoleType=Round|Shape=RoundedRectangle|*
%AMROUNDEDRECTD18*
21,1,0.54000,0.89460,0,0,0.0*
21,1,0.53460,0.90000,0,0,0.0*
1,1,0.00540,0.26730,-0.44730*
1,1,0.00540,-0.26730,-0.44730*
1,1,0.00540,-0.26730,0.44730*
1,1,0.00540,0.26730,0.44730*
%
%ADD18ROUNDEDRECTD18*%
G04:AMPARAMS|DCode=19|XSize=0.6mm|YSize=1.05mm|CornerRadius=0.03mm|HoleSize=0mm|Usage=FLASHONLY|Rotation=90.000|XOffset=0mm|YOffset=0mm|HoleType=Round|Shape=RoundedRectangle|*
%AMROUNDEDRECTD19*
21,1,0.60000,0.99000,0,0,90.0*
21,1,0.54000,1.05000,0,0,90.0*
1,1,0.06000,0.49500,0.27000*
1,1,0.06000,0.49500,-0.27000*
1,1,0.06000,-0.49500,-0.27000*
1,1,0.06000,-0.49500,0.27000*
%
%ADD19ROUNDEDRECTD19*%
%TA.AperFunction,ConnectorPad*%
G04:AMPARAMS|DCode=20|XSize=1mm|YSize=2mm|CornerRadius=0.005mm|HoleSize=0mm|Usage=FLASHONLY|Rotation=270.000|XOffset=0mm|YOffset=0mm|HoleType=Round|Shape=RoundedRectangle|*
%AMROUNDEDRECTD20*
21,1,1.00000,1.99000,0,0,270.0*
21,1,0.99000,2.00000,0,0,270.0*
1,1,0.01000,-0.99500,-0.49500*
1,1,0.01000,-0.99500,0.49500*
1,1,0.01000,0.99500,0.49500*
1,1,0.01000,0.99500,-0.49500*
%
%ADD20ROUNDEDRECTD20*%
G04:AMPARAMS|DCode=21|XSize=1mm|YSize=2mm|CornerRadius=0.005mm|HoleSize=0mm|Usage=FLASHONLY|Rotation=0.000|XOffset=0mm|YOffset=0mm|HoleType=Round|Shape=RoundedRectangle|*
%AMROUNDEDRECTD21*
21,1,1.00000,1.99000,0,0,0.0*
21,1,0.99000,2.00000,0,0,0.0*
1,1,0.01000,0.49500,-0.99500*
1,1,0.01000,-0.49500,-0.99500*
1,1,0.01000,-0.49500,0.99500*
1,1,0.01000,0.49500,0.99500*
%
%ADD21ROUNDEDRECTD21*%
%TA.AperFunction,SMDPad,CuDef*%
%ADD22R,2.00000X3.10000*%
%TA.AperFunction,ConnectorPad*%
G04:AMPARAMS|DCode=23|XSize=1.4mm|YSize=1.05mm|CornerRadius=0.00525mm|HoleSize=0mm|Usage=FLASHONLY|Rotation=90.000|XOffset=0mm|YOffset=0mm|HoleType=Round|Shape=RoundedRectangle|*
%AMROUNDEDRECTD23*
21,1,1.40000,1.03950,0,0,90.0*
21,1,1.38950,1.05000,0,0,90.0*
1,1,0.01050,0.51975,0.69475*
1,1,0.01050,0.51975,-0.69475*
1,1,0.01050,-0.51975,-0.69475*
1,1,0.01050,-0.51975,0.69475*
%
%ADD23ROUNDEDRECTD23*%
%TA.AperFunction,SMDPad,CuDef*%
%ADD24R,1.05000X1.25000*%
G04:AMPARAMS|DCode=25|XSize=0.8mm|YSize=1.4mm|CornerRadius=0.004mm|HoleSize=0mm|Usage=FLASHONLY|Rotation=90.000|XOffset=0mm|YOffset=0mm|HoleType=Round|Shape=RoundedRectangle|*
%AMROUNDEDRECTD25*
21,1,0.80000,1.39200,0,0,90.0*
21,1,0.79200,1.40000,0,0,90.0*
1,1,0.00800,0.69600,0.39600*
1,1,0.00800,0.69600,-0.39600*
1,1,0.00800,-0.69600,-0.39600*
1,1,0.00800,-0.69600,0.39600*
%
%ADD25ROUNDEDRECTD25*%
G04:AMPARAMS|DCode=26|XSize=0.55mm|YSize=0.8mm|CornerRadius=0.00275mm|HoleSize=0mm|Usage=FLASHONLY|Rotation=270.000|XOffset=0mm|YOffset=0mm|HoleType=Round|Shape=RoundedRectangle|*
%AMROUNDEDRECTD26*
21,1,0.55000,0.79450,0,0,270.0*
21,1,0.54450,0.80000,0,0,270.0*
1,1,0.00550,-0.39725,-0.27225*
1,1,0.00550,-0.39725,0.27225*
1,1,0.00550,0.39725,0.27225*
1,1,0.00550,0.39725,-0.27225*
%
%ADD26ROUNDEDRECTD26*%
%TA.AperFunction,ViaPad*%
%ADD31O,4.00000X2.40000*%
%TA.AperFunction,ComponentPad*%
%ADD32O,1.60000X1.25000*%
%ADD33O,1.25000X1.60000*%
%ADD34C,0.70000*%
G04:AMPARAMS|DCode=35|XSize=1.8mm|YSize=1.8mm|CornerRadius=0.09mm|HoleSize=0mm|Usage=FLASHONLY|Rotation=0.000|XOffset=0mm|YOffset=0mm|HoleType=Round|Shape=RoundedRectangle|*
%AMROUNDEDRECTD35*
21,1,1.80000,1.62000,0,0,0.0*
21,1,1.62000,1.80000,0,0,0.0*
1,1,0.18000,0.81000,-0.81000*
1,1,0.18000,-0.81000,-0.81000*
1,1,0.18000,-0.81000,0.81000*
1,1,0.18000,0.81000,0.81000*
%
%ADD35ROUNDEDRECTD35*%
G04:AMPARAMS|DCode=36|XSize=1.8mm|YSize=1.8mm|CornerRadius=0.18mm|HoleSize=0mm|Usage=FLASHONLY|Rotation=180.000|XOffset=0mm|YOffset=0mm|HoleType=Round|Shape=RoundedRectangle|*
%AMROUNDEDRECTD36*
21,1,1.80000,1.44000,0,0,180.0*
21,1,1.44000,1.80000,0,0,180.0*
1,1,0.36000,-0.72000,0.72000*
1,1,0.36000,0.72000,0.72000*
1,1,0.36000,0.72000,-0.72000*
1,1,0.36000,-0.72000,-0.72000*
%
%ADD36ROUNDEDRECTD36*%
%TA.AperFunction,ViaPad*%
%ADD37C,0.70000*%
D10*
X2070398Y2939380D02*
D03*
Y3099380D02*
D03*
X2058138Y1368861D02*
D03*
Y1208860D02*
D03*
D11*
X233680Y990600D02*
D03*
X452120Y2288540D02*
D03*
X2781300Y2532380D02*
D03*
X2713920Y2887362D02*
D03*
X629920Y990600D02*
D03*
X3413760Y2819400D02*
D03*
X1846617Y1101408D02*
D03*
X2385060Y241100D02*
D03*
X4419600Y617020D02*
D03*
X3362960Y2583180D02*
D03*
X2435860Y1054100D02*
D03*
D12*
X1920328Y2761849D02*
D03*
X2080328D02*
D03*
X2442900Y1810011D02*
D03*
X2282900D02*
D03*
X2444705Y1619136D02*
D03*
X2284704D02*
D03*
X1957123Y2484542D02*
D03*
X2117124D02*
D03*
X2453852Y1433340D02*
D03*
X2293852D02*
D03*
D13*
X1920322Y3100384D02*
D03*
Y2940384D02*
D03*
X4388613Y2028900D02*
D03*
Y1868900D02*
D03*
Y1645745D02*
D03*
Y1485745D02*
D03*
Y2379579D02*
D03*
Y2219578D02*
D03*
X4388680Y846620D02*
D03*
Y1006620D02*
D03*
X4388613Y1176600D02*
D03*
Y1336600D02*
D03*
X2336817Y2318694D02*
D03*
Y2478694D02*
D03*
X1954583Y2158694D02*
D03*
Y2318694D02*
D03*
X2050518Y1671133D02*
D03*
Y1831133D02*
D03*
X2455865Y530650D02*
D03*
Y690650D02*
D03*
D14*
X896475Y977165D02*
D03*
Y519165D02*
D03*
Y1684810D02*
D03*
Y1226810D02*
D03*
Y2397535D02*
D03*
Y1939535D02*
D03*
D15*
X1506475Y748165D02*
D03*
Y1455810D02*
D03*
Y2168535D02*
D03*
D16*
X1704360Y2620438D02*
D03*
Y2900438D02*
D03*
X3806335Y2929594D02*
D03*
Y2649594D02*
D03*
X3536710Y2929594D02*
D03*
Y2649594D02*
D03*
X1447828Y2620438D02*
D03*
Y2900438D02*
D03*
D17*
X2433879Y3058550D02*
D03*
X2593879D02*
D03*
X2455038Y1200415D02*
D03*
X2295038D02*
D03*
X4084480Y2512284D02*
D03*
X4244480D02*
D03*
X332909Y682174D02*
D03*
X637909D02*
D03*
D18*
X2215171Y2639429D02*
D03*
X2310171D02*
D03*
X2405171D02*
D03*
X2215171Y2894429D02*
D03*
X2310171D02*
D03*
X2405171D02*
D03*
D19*
X2020038Y1053265D02*
D03*
Y958265D02*
D03*
Y863265D02*
D03*
X2295038D02*
D03*
Y1053265D02*
D03*
X2020038Y648520D02*
D03*
Y553520D02*
D03*
Y458520D02*
D03*
X2295038D02*
D03*
Y648520D02*
D03*
D20*
X4171115Y853660D02*
D03*
Y2053660D02*
D03*
X2651115Y2253660D02*
D03*
X4171115Y1053660D02*
D03*
Y1253660D02*
D03*
Y1453660D02*
D03*
Y1653660D02*
D03*
Y1853660D02*
D03*
Y2253660D02*
D03*
X2651115Y2053660D02*
D03*
Y1853660D02*
D03*
Y1653660D02*
D03*
Y1453660D02*
D03*
Y1253660D02*
D03*
Y1053660D02*
D03*
Y853660D02*
D03*
D21*
X3911115Y2403660D02*
D03*
X3711115D02*
D03*
X3511115D02*
D03*
X3311115D02*
D03*
X3111115D02*
D03*
X2911115D02*
D03*
D22*
X3249345Y2876520D02*
D03*
X2879345D02*
D03*
D23*
X4717516Y2560000D02*
D03*
X4862516D02*
D03*
Y2200000D02*
D03*
X4717516D02*
D03*
D24*
X2593879Y2526059D02*
D03*
Y2811059D02*
D03*
D25*
X4343846Y3044034D02*
D03*
Y2894034D02*
D03*
X4043846D02*
D03*
Y3044034D02*
D03*
D26*
X2316823Y1966001D02*
D03*
Y2156001D02*
D03*
X2096823Y2061001D02*
D03*
D31*
X232500Y1345042D02*
D03*
X4767500D02*
D03*
Y1955020D02*
D03*
X232500D02*
D03*
D32*
X4580860Y1125020D02*
D03*
Y871020D02*
D03*
Y617020D02*
D03*
X4834860D02*
D03*
Y871020D02*
D03*
Y1125020D02*
D03*
D33*
X1135263Y2774187D02*
D03*
X881263D02*
D03*
X627263D02*
D03*
Y3028187D02*
D03*
X881263D02*
D03*
X1135263D02*
D03*
D34*
X4880016Y2380000D02*
D03*
X4700016D02*
D03*
D35*
X2190834Y241300D02*
D03*
X1290834D02*
D03*
X1590834D02*
D03*
X1890834D02*
D03*
D36*
X690880D02*
D03*
X990880D02*
D03*
D37*
X2310171Y2782808D02*
D03*
%TF.MD5,3b4a26413e02ccd1f94014e1a75a6ded*%
M02*
