%TF.GenerationSoftware,Altium Limited,Altium Designer,20.1.8 (145)*%
G04 Layer_Color=255*
%FSLAX45Y45*%
%MOMM*%
%TF.SameCoordinates,7C767931-0862-4B48-A7A2-9337087A75ED*%
%TF.FilePolarity,Positive*%
%TF.FileFunction,Pads,Bot*%
%TF.Part,Single*%
G01*
G75*
%TA.AperFunction,ViaPad*%
%ADD31O,4.00000X2.40000*%
%TA.AperFunction,ComponentPad*%
%ADD32O,1.60000X1.25000*%
%ADD33O,1.25000X1.60000*%
%ADD34C,0.70000*%
G04:AMPARAMS|DCode=35|XSize=1.8mm|YSize=1.8mm|CornerRadius=0.09mm|HoleSize=0mm|Usage=FLASHONLY|Rotation=0.000|XOffset=0mm|YOffset=0mm|HoleType=Round|Shape=RoundedRectangle|*
%AMROUNDEDRECTD35*
21,1,1.80000,1.62000,0,0,0.0*
21,1,1.62000,1.80000,0,0,0.0*
1,1,0.18000,0.81000,-0.81000*
1,1,0.18000,-0.81000,-0.81000*
1,1,0.18000,-0.81000,0.81000*
1,1,0.18000,0.81000,0.81000*
%
%ADD35ROUNDEDRECTD35*%
G04:AMPARAMS|DCode=36|XSize=1.8mm|YSize=1.8mm|CornerRadius=0.18mm|HoleSize=0mm|Usage=FLASHONLY|Rotation=180.000|XOffset=0mm|YOffset=0mm|HoleType=Round|Shape=RoundedRectangle|*
%AMROUNDEDRECTD36*
21,1,1.80000,1.44000,0,0,180.0*
21,1,1.44000,1.80000,0,0,180.0*
1,1,0.36000,-0.72000,0.72000*
1,1,0.36000,0.72000,0.72000*
1,1,0.36000,0.72000,-0.72000*
1,1,0.36000,-0.72000,-0.72000*
%
%ADD36ROUNDEDRECTD36*%
%TA.AperFunction,ViaPad*%
%ADD37C,0.70000*%
%TA.AperFunction,TestPad*%
%ADD40C,1.50000*%
D31*
X232500Y1345042D02*
D03*
X4767500D02*
D03*
Y1955020D02*
D03*
X232500D02*
D03*
D32*
X4580860Y1125020D02*
D03*
Y871020D02*
D03*
Y617020D02*
D03*
X4834860D02*
D03*
Y871020D02*
D03*
Y1125020D02*
D03*
D33*
X1135263Y2774187D02*
D03*
X881263D02*
D03*
X627263D02*
D03*
Y3028187D02*
D03*
X881263D02*
D03*
X1135263D02*
D03*
D34*
X4880016Y2380000D02*
D03*
X4700016D02*
D03*
D35*
X2190834Y241300D02*
D03*
X1290834D02*
D03*
X1590834D02*
D03*
X1890834D02*
D03*
D36*
X690880D02*
D03*
X990880D02*
D03*
D37*
X2310171Y2782808D02*
D03*
D40*
X2307631Y2785348D02*
D03*
%TF.MD5,0f2e285455d5b60635ad188a6932e8df*%
M02*
