%TF.GenerationSoftware,Altium Limited,Altium Designer,20.1.8 (145)*%
G04 Layer_Physical_Order=4*
G04 Layer_Color=16711680*
%FSLAX45Y45*%
%MOMM*%
%TF.SameCoordinates,7C767931-0862-4B48-A7A2-9337087A75ED*%
%TF.FilePolarity,Positive*%
%TF.FileFunction,Copper,L4,Bot,Signal*%
%TF.Part,Single*%
G01*
G75*
%TA.AperFunction,Conductor*%
%ADD27C,0.12700*%
%TA.AperFunction,ViaPad*%
%ADD31O,4.00000X2.40000*%
%TA.AperFunction,ComponentPad*%
%ADD32O,1.60000X1.25000*%
%ADD33O,1.25000X1.60000*%
%ADD34C,0.70000*%
G04:AMPARAMS|DCode=35|XSize=1.8mm|YSize=1.8mm|CornerRadius=0.09mm|HoleSize=0mm|Usage=FLASHONLY|Rotation=0.000|XOffset=0mm|YOffset=0mm|HoleType=Round|Shape=RoundedRectangle|*
%AMROUNDEDRECTD35*
21,1,1.80000,1.62000,0,0,0.0*
21,1,1.62000,1.80000,0,0,0.0*
1,1,0.18000,0.81000,-0.81000*
1,1,0.18000,-0.81000,-0.81000*
1,1,0.18000,-0.81000,0.81000*
1,1,0.18000,0.81000,0.81000*
%
%ADD35ROUNDEDRECTD35*%
G04:AMPARAMS|DCode=36|XSize=1.8mm|YSize=1.8mm|CornerRadius=0.18mm|HoleSize=0mm|Usage=FLASHONLY|Rotation=180.000|XOffset=0mm|YOffset=0mm|HoleType=Round|Shape=RoundedRectangle|*
%AMROUNDEDRECTD36*
21,1,1.80000,1.44000,0,0,180.0*
21,1,1.44000,1.80000,0,0,180.0*
1,1,0.36000,-0.72000,0.72000*
1,1,0.36000,0.72000,0.72000*
1,1,0.36000,0.72000,-0.72000*
1,1,0.36000,-0.72000,-0.72000*
%
%ADD36ROUNDEDRECTD36*%
%TA.AperFunction,ViaPad*%
%ADD37C,0.70000*%
%ADD38C,0.66000*%
%ADD39C,0.56000*%
%TA.AperFunction,TestPad*%
%ADD40C,1.50000*%
G36*
X4721865Y3177832D02*
X4743596Y3175260D01*
X4765058Y3170991D01*
X4786119Y3165051D01*
X4806650Y3157477D01*
X4826522Y3148316D01*
X4845615Y3137623D01*
X4863810Y3125466D01*
X4880995Y3111918D01*
X4897064Y3097064D01*
X4911918Y3080995D01*
X4925465Y3063810D01*
X4937622Y3045616D01*
X4948315Y3026523D01*
X4957476Y3006651D01*
X4965050Y2986120D01*
X4970990Y2965059D01*
X4975259Y2943597D01*
X4977831Y2921866D01*
X4977996Y2917671D01*
X4978545Y2900000D01*
X4978546Y2900000D01*
X4978546Y2882528D01*
Y300000D01*
X4978657Y299154D01*
X4977832Y278134D01*
X4975260Y256403D01*
X4970990Y234941D01*
X4965051Y213880D01*
X4957476Y193349D01*
X4948315Y173477D01*
X4937623Y154384D01*
X4925465Y136189D01*
X4911918Y119005D01*
X4897064Y102936D01*
X4880995Y88082D01*
X4863810Y74534D01*
X4845615Y62377D01*
X4826522Y51684D01*
X4806650Y42523D01*
X4786120Y34949D01*
X4765059Y29009D01*
X4743596Y24740D01*
X4721865Y22168D01*
X4700847Y21342D01*
X4699999Y21454D01*
X4224064D01*
Y554630D01*
X4223078Y559586D01*
X4220271Y563787D01*
X4216071Y566593D01*
X4211115Y567579D01*
X2611115D01*
X2606160Y566593D01*
X2601959Y563787D01*
X2599152Y559586D01*
X2598166Y554630D01*
Y21454D01*
X317589Y21453D01*
X317512Y21454D01*
X300000Y21454D01*
X282446Y21999D01*
X278135Y22168D01*
X256404Y24740D01*
X234941Y29009D01*
X213880Y34949D01*
X193350Y42523D01*
X173477Y51685D01*
X154385Y62377D01*
X136190Y74534D01*
X119005Y88082D01*
X102936Y102936D01*
X88082Y119005D01*
X74535Y136190D01*
X62377Y154385D01*
X51685Y173477D01*
X42523Y193350D01*
X34949Y213880D01*
X29010Y234941D01*
X24740Y256403D01*
X22168Y278134D01*
X21343Y299155D01*
X21454Y300000D01*
Y2900000D01*
X21342Y2900849D01*
X22168Y2921866D01*
X24740Y2943597D01*
X29009Y2965059D01*
X34949Y2986120D01*
X42523Y3006651D01*
X51684Y3026523D01*
X62377Y3045616D01*
X74534Y3063810D01*
X88082Y3080995D01*
X102936Y3097064D01*
X119005Y3111918D01*
X136189Y3125466D01*
X154384Y3137623D01*
X173477Y3148316D01*
X193349Y3157477D01*
X213880Y3165051D01*
X234941Y3170991D01*
X256403Y3175260D01*
X278134Y3177832D01*
X298851Y3178646D01*
X299610Y3178546D01*
X4699999Y3178547D01*
X4700845Y3178658D01*
X4721865Y3177832D01*
D02*
G37*
%LPC*%
G36*
X1162263Y3113150D02*
Y3055187D01*
X1207400D01*
X1207250Y3057089D01*
X1204581Y3068210D01*
X1200204Y3078776D01*
X1194228Y3088528D01*
X1186800Y3097224D01*
X1178104Y3104652D01*
X1168352Y3110628D01*
X1162263Y3113150D01*
D02*
G37*
G36*
X908263D02*
Y3055187D01*
X953400D01*
X953250Y3057089D01*
X950581Y3068210D01*
X946204Y3078776D01*
X940228Y3088528D01*
X932800Y3097224D01*
X924104Y3104652D01*
X914352Y3110628D01*
X908263Y3113150D01*
D02*
G37*
G36*
X654263D02*
Y3055187D01*
X699400D01*
X699250Y3057089D01*
X696581Y3068210D01*
X692204Y3078776D01*
X686228Y3088528D01*
X678800Y3097224D01*
X670104Y3104652D01*
X660352Y3110628D01*
X654263Y3113150D01*
D02*
G37*
G36*
X1108263D02*
X1102174Y3110628D01*
X1092422Y3104652D01*
X1083726Y3097224D01*
X1076298Y3088528D01*
X1070322Y3078776D01*
X1065945Y3068210D01*
X1063275Y3057089D01*
X1063126Y3055187D01*
X1108263D01*
Y3113150D01*
D02*
G37*
G36*
X854263D02*
X848174Y3110628D01*
X838422Y3104652D01*
X829726Y3097224D01*
X822298Y3088528D01*
X816322Y3078776D01*
X811945Y3068210D01*
X809275Y3057089D01*
X809126Y3055187D01*
X854263D01*
Y3113150D01*
D02*
G37*
G36*
X600263D02*
X594174Y3110628D01*
X584422Y3104652D01*
X575726Y3097224D01*
X568298Y3088528D01*
X562322Y3078776D01*
X557945Y3068210D01*
X555275Y3057089D01*
X555126Y3055187D01*
X600263D01*
Y3113150D01*
D02*
G37*
G36*
X699400Y3001187D02*
X654263D01*
Y2943224D01*
X660352Y2945746D01*
X670104Y2951722D01*
X678800Y2959150D01*
X686228Y2967847D01*
X692204Y2977598D01*
X696581Y2988165D01*
X699250Y2999286D01*
X699400Y3001187D01*
D02*
G37*
G36*
X1207400D02*
X1162263D01*
Y2943224D01*
X1168352Y2945746D01*
X1178104Y2951722D01*
X1186800Y2959150D01*
X1194228Y2967847D01*
X1200204Y2977598D01*
X1204581Y2988165D01*
X1207250Y2999286D01*
X1207400Y3001187D01*
D02*
G37*
G36*
X953400D02*
X908263D01*
Y2943224D01*
X914352Y2945746D01*
X924104Y2951722D01*
X932800Y2959150D01*
X940228Y2967847D01*
X946204Y2977598D01*
X950581Y2988165D01*
X953250Y2999286D01*
X953400Y3001187D01*
D02*
G37*
G36*
X1108263D02*
X1063126D01*
X1063275Y2999286D01*
X1065945Y2988165D01*
X1070322Y2977598D01*
X1076298Y2967847D01*
X1083726Y2959150D01*
X1092422Y2951722D01*
X1102174Y2945746D01*
X1108263Y2943224D01*
Y3001187D01*
D02*
G37*
G36*
X854263D02*
X809126D01*
X809275Y2999286D01*
X811945Y2988165D01*
X816322Y2977598D01*
X822298Y2967847D01*
X829726Y2959150D01*
X838422Y2951722D01*
X848174Y2945746D01*
X854263Y2943224D01*
Y3001187D01*
D02*
G37*
G36*
X600263D02*
X555126D01*
X555275Y2999286D01*
X557945Y2988165D01*
X562322Y2977598D01*
X568298Y2967847D01*
X575726Y2959150D01*
X584422Y2951722D01*
X594174Y2945746D01*
X600263Y2943224D01*
Y3001187D01*
D02*
G37*
G36*
X1162263Y2859150D02*
Y2801187D01*
X1207400D01*
X1207250Y2803089D01*
X1204581Y2814210D01*
X1200204Y2824776D01*
X1194228Y2834528D01*
X1186800Y2843224D01*
X1178104Y2850652D01*
X1168352Y2856628D01*
X1162263Y2859150D01*
D02*
G37*
G36*
X908263D02*
Y2801187D01*
X953400D01*
X953250Y2803089D01*
X950581Y2814210D01*
X946204Y2824776D01*
X940228Y2834528D01*
X932800Y2843224D01*
X924104Y2850652D01*
X914352Y2856628D01*
X908263Y2859150D01*
D02*
G37*
G36*
X654263D02*
Y2801187D01*
X699400D01*
X699250Y2803089D01*
X696581Y2814210D01*
X692204Y2824776D01*
X686228Y2834528D01*
X678800Y2843224D01*
X670104Y2850652D01*
X660352Y2856628D01*
X654263Y2859150D01*
D02*
G37*
G36*
X1108263D02*
X1102174Y2856628D01*
X1092422Y2850652D01*
X1083726Y2843224D01*
X1076298Y2834528D01*
X1070322Y2824776D01*
X1065945Y2814210D01*
X1063275Y2803089D01*
X1063126Y2801187D01*
X1108263D01*
Y2859150D01*
D02*
G37*
G36*
X854263D02*
X848174Y2856628D01*
X838422Y2850652D01*
X829726Y2843224D01*
X822298Y2834528D01*
X816322Y2824776D01*
X811945Y2814210D01*
X809275Y2803089D01*
X809126Y2801187D01*
X854263D01*
Y2859150D01*
D02*
G37*
G36*
X600263D02*
X594174Y2856628D01*
X584422Y2850652D01*
X575726Y2843224D01*
X568298Y2834528D01*
X562322Y2824776D01*
X557945Y2814210D01*
X555275Y2803089D01*
X555126Y2801187D01*
X600263D01*
Y2859150D01*
D02*
G37*
G36*
X2310171Y2817977D02*
X2303310Y2817302D01*
X2296712Y2815300D01*
X2290632Y2812050D01*
X2285303Y2807677D01*
X2280929Y2802347D01*
X2277679Y2796267D01*
X2275677Y2789669D01*
X2275002Y2782808D01*
X2275677Y2775947D01*
X2277679Y2769350D01*
X2280929Y2763269D01*
X2285303Y2757940D01*
X2290632Y2753566D01*
X2296712Y2750316D01*
X2303310Y2748315D01*
X2310171Y2747639D01*
X2317032Y2748315D01*
X2323630Y2750316D01*
X2329710Y2753566D01*
X2335039Y2757940D01*
X2339413Y2763269D01*
X2342663Y2769350D01*
X2344664Y2775947D01*
X2345340Y2782808D01*
X2344664Y2789669D01*
X2342663Y2796267D01*
X2339413Y2802347D01*
X2335039Y2807677D01*
X2329710Y2812050D01*
X2323630Y2815300D01*
X2317032Y2817302D01*
X2310171Y2817977D01*
D02*
G37*
G36*
X2912702Y3044468D02*
X2907747Y3043483D01*
X2903546Y3040676D01*
X2900739Y3036475D01*
X2899753Y3031519D01*
X2899752Y2721520D01*
X2900738Y2716564D01*
X2903545Y2712363D01*
X2907746Y2709556D01*
X2912701Y2708571D01*
X3217282Y2708570D01*
X3222237Y2709556D01*
X3226438Y2712363D01*
X3229245Y2716564D01*
X3230231Y2721519D01*
X3230232Y3031519D01*
X3229246Y3036474D01*
X3226439Y3040675D01*
X3222238Y3043482D01*
X3217283Y3044468D01*
X2912702Y3044468D01*
D02*
G37*
G36*
X953400Y2747187D02*
X908263D01*
Y2689224D01*
X914352Y2691746D01*
X924104Y2697722D01*
X932800Y2705150D01*
X940228Y2713847D01*
X946204Y2723598D01*
X950581Y2734165D01*
X953250Y2745286D01*
X953400Y2747187D01*
D02*
G37*
G36*
X699400D02*
X654263D01*
Y2689224D01*
X660352Y2691746D01*
X670104Y2697722D01*
X678800Y2705150D01*
X686228Y2713847D01*
X692204Y2723598D01*
X696581Y2734165D01*
X699250Y2745286D01*
X699400Y2747187D01*
D02*
G37*
G36*
X1207400D02*
X1162263D01*
Y2689224D01*
X1168352Y2691746D01*
X1178104Y2697722D01*
X1186800Y2705150D01*
X1194228Y2713847D01*
X1200204Y2723598D01*
X1204581Y2734165D01*
X1207250Y2745286D01*
X1207400Y2747187D01*
D02*
G37*
G36*
X1108263D02*
X1063126D01*
X1063275Y2745286D01*
X1065945Y2734165D01*
X1070322Y2723598D01*
X1076298Y2713847D01*
X1083726Y2705150D01*
X1092422Y2697722D01*
X1102174Y2691746D01*
X1108263Y2689224D01*
Y2747187D01*
D02*
G37*
G36*
X854263D02*
X809126D01*
X809275Y2745286D01*
X811945Y2734165D01*
X816322Y2723598D01*
X822298Y2713847D01*
X829726Y2705150D01*
X838422Y2697722D01*
X848174Y2691746D01*
X854263Y2689224D01*
Y2747187D01*
D02*
G37*
G36*
X600263D02*
X555126D01*
X555275Y2745286D01*
X557945Y2734165D01*
X562322Y2723598D01*
X568298Y2713847D01*
X575726Y2705150D01*
X584422Y2697722D01*
X594174Y2691746D01*
X600263Y2689224D01*
Y2747187D01*
D02*
G37*
G36*
X4880016Y2427931D02*
X4870665Y2427010D01*
X4861674Y2424282D01*
X4853387Y2419853D01*
X4846124Y2413892D01*
X4840163Y2406629D01*
X4835734Y2398342D01*
X4833006Y2389351D01*
X4832085Y2380000D01*
X4833006Y2370649D01*
X4835734Y2361658D01*
X4840163Y2353371D01*
X4846124Y2346108D01*
X4853387Y2340147D01*
X4861674Y2335718D01*
X4870665Y2332990D01*
X4880016Y2332069D01*
X4889367Y2332990D01*
X4898359Y2335718D01*
X4906645Y2340147D01*
X4913908Y2346108D01*
X4919869Y2353371D01*
X4924299Y2361658D01*
X4927026Y2370649D01*
X4927947Y2380000D01*
X4927026Y2389351D01*
X4924299Y2398342D01*
X4919869Y2406629D01*
X4913908Y2413892D01*
X4906645Y2419853D01*
X4898359Y2424282D01*
X4889367Y2427010D01*
X4880016Y2427931D01*
D02*
G37*
G36*
X4700016D02*
X4690665Y2427010D01*
X4681674Y2424282D01*
X4673387Y2419853D01*
X4666124Y2413892D01*
X4660163Y2406629D01*
X4655734Y2398342D01*
X4653006Y2389351D01*
X4652085Y2380000D01*
X4653006Y2370649D01*
X4655734Y2361658D01*
X4660163Y2353371D01*
X4666124Y2346108D01*
X4673387Y2340147D01*
X4681674Y2335718D01*
X4690665Y2332990D01*
X4700016Y2332069D01*
X4709367Y2332990D01*
X4718358Y2335718D01*
X4726645Y2340147D01*
X4733908Y2346108D01*
X4739869Y2353371D01*
X4744298Y2361658D01*
X4747026Y2370649D01*
X4747947Y2380000D01*
X4747026Y2389351D01*
X4744298Y2398342D01*
X4739869Y2406629D01*
X4733908Y2413892D01*
X4726645Y2419853D01*
X4718358Y2424282D01*
X4709367Y2427010D01*
X4700016Y2427931D01*
D02*
G37*
G36*
X4535750Y1802673D02*
X4527771Y1801887D01*
X4520099Y1799560D01*
X4513029Y1795780D01*
X4506831Y1790694D01*
X4501745Y1784497D01*
X4498502Y1778428D01*
X4393840D01*
X4391954Y1781957D01*
X4386868Y1788154D01*
X4380671Y1793240D01*
X4373600Y1797020D01*
X4365929Y1799347D01*
X4357950Y1800133D01*
X4349971Y1799347D01*
X4342299Y1797020D01*
X4335229Y1793240D01*
X4329031Y1788154D01*
X4323945Y1781957D01*
X4320166Y1774886D01*
X4317839Y1767214D01*
X4317053Y1759236D01*
X4317839Y1751257D01*
X4320166Y1743585D01*
X4323945Y1736515D01*
X4329031Y1730317D01*
X4335229Y1725231D01*
X4342299Y1721452D01*
X4349971Y1719125D01*
X4357950Y1718339D01*
X4365929Y1719125D01*
X4373600Y1721452D01*
X4380671Y1725231D01*
X4386868Y1730317D01*
X4391954Y1736515D01*
X4395734Y1743585D01*
X4396200Y1745123D01*
X4498502D01*
X4501745Y1739055D01*
X4506831Y1732857D01*
X4513029Y1727771D01*
X4520099Y1723992D01*
X4527771Y1721665D01*
X4535750Y1720879D01*
X4543729Y1721665D01*
X4551400Y1723992D01*
X4558471Y1727771D01*
X4564668Y1732857D01*
X4569754Y1739055D01*
X4573534Y1746125D01*
X4575861Y1753797D01*
X4576647Y1761776D01*
X4575861Y1769754D01*
X4573534Y1777426D01*
X4569754Y1784497D01*
X4564668Y1790694D01*
X4558471Y1795780D01*
X4551400Y1799560D01*
X4543729Y1801887D01*
X4535750Y1802673D01*
D02*
G37*
G36*
X4852360Y1200453D02*
X4817360D01*
X4805560Y1199524D01*
X4794051Y1196761D01*
X4783115Y1192231D01*
X4773022Y1186046D01*
X4764022Y1178359D01*
X4756334Y1169358D01*
X4750150Y1159266D01*
X4745620Y1148330D01*
X4742857Y1136820D01*
X4741928Y1125020D01*
X4742857Y1113220D01*
X4745620Y1101710D01*
X4750150Y1090775D01*
X4756334Y1080682D01*
X4764022Y1071681D01*
X4773022Y1063994D01*
X4783115Y1057809D01*
X4794051Y1053280D01*
X4805560Y1050516D01*
X4817360Y1049588D01*
X4852360D01*
X4864160Y1050516D01*
X4875670Y1053280D01*
X4886606Y1057809D01*
X4896698Y1063994D01*
X4905699Y1071681D01*
X4913386Y1080682D01*
X4919571Y1090775D01*
X4924101Y1101710D01*
X4926864Y1113220D01*
X4927793Y1125020D01*
X4926864Y1136820D01*
X4924101Y1148330D01*
X4919571Y1159266D01*
X4913386Y1169358D01*
X4905699Y1178359D01*
X4896698Y1186046D01*
X4886606Y1192231D01*
X4875670Y1196761D01*
X4864160Y1199524D01*
X4852360Y1200453D01*
D02*
G37*
G36*
X4598360D02*
X4563360D01*
X4551560Y1199524D01*
X4540051Y1196761D01*
X4529115Y1192231D01*
X4519022Y1186046D01*
X4510022Y1178359D01*
X4502334Y1169358D01*
X4496150Y1159266D01*
X4491620Y1148330D01*
X4488857Y1136820D01*
X4487928Y1125020D01*
X4488857Y1113220D01*
X4491620Y1101710D01*
X4496150Y1090775D01*
X4502334Y1080682D01*
X4510022Y1071681D01*
X4519022Y1063994D01*
X4529115Y1057809D01*
X4540051Y1053280D01*
X4551560Y1050516D01*
X4563360Y1049588D01*
X4598360D01*
X4610160Y1050516D01*
X4621670Y1053280D01*
X4632606Y1057809D01*
X4642698Y1063994D01*
X4651699Y1071681D01*
X4659386Y1080682D01*
X4665571Y1090775D01*
X4670101Y1101710D01*
X4672864Y1113220D01*
X4673793Y1125020D01*
X4672864Y1136820D01*
X4670101Y1148330D01*
X4665571Y1159266D01*
X4659386Y1169358D01*
X4651699Y1178359D01*
X4642698Y1186046D01*
X4632606Y1192231D01*
X4621670Y1196761D01*
X4610160Y1199524D01*
X4598360Y1200453D01*
D02*
G37*
G36*
X4861860Y943157D02*
Y898012D01*
X4919827D01*
X4917301Y904109D01*
X4911325Y913861D01*
X4903897Y922557D01*
X4895201Y929985D01*
X4885449Y935961D01*
X4874883Y940338D01*
X4863762Y943008D01*
X4861860Y943157D01*
D02*
G37*
G36*
X4807860D02*
X4805959Y943008D01*
X4794838Y940338D01*
X4784271Y935961D01*
X4774520Y929985D01*
X4765823Y922557D01*
X4758395Y913861D01*
X4752420Y904109D01*
X4749894Y898012D01*
X4807860D01*
Y943157D01*
D02*
G37*
G36*
X4919820Y844012D02*
X4861860D01*
Y798883D01*
X4863762Y799033D01*
X4874883Y801702D01*
X4885449Y806079D01*
X4895201Y812055D01*
X4903897Y819483D01*
X4911325Y828179D01*
X4917301Y837931D01*
X4919820Y844012D01*
D02*
G37*
G36*
X4807860D02*
X4749901D01*
X4752420Y837931D01*
X4758395Y828179D01*
X4765823Y819483D01*
X4774520Y812055D01*
X4784271Y806079D01*
X4794838Y801702D01*
X4805959Y799033D01*
X4807860Y798883D01*
Y844012D01*
D02*
G37*
G36*
X4598360Y946453D02*
X4563360D01*
X4551560Y945524D01*
X4540051Y942761D01*
X4529115Y938231D01*
X4519022Y932046D01*
X4510022Y924359D01*
X4502334Y915358D01*
X4496150Y905266D01*
X4491620Y894330D01*
X4488857Y882820D01*
X4487928Y871020D01*
X4488857Y859220D01*
X4491620Y847710D01*
X4496150Y836775D01*
X4502334Y826682D01*
X4510022Y817681D01*
X4519022Y809994D01*
X4529115Y803809D01*
X4540051Y799280D01*
X4551560Y796516D01*
X4563360Y795588D01*
X4598360D01*
X4610160Y796516D01*
X4621670Y799280D01*
X4632606Y803809D01*
X4642698Y809994D01*
X4651699Y817681D01*
X4659386Y826682D01*
X4665571Y836775D01*
X4670101Y847710D01*
X4672864Y859220D01*
X4673793Y871020D01*
X4672864Y882820D01*
X4670101Y894330D01*
X4665571Y905266D01*
X4659386Y915358D01*
X4651699Y924359D01*
X4642698Y932046D01*
X4632606Y938231D01*
X4621670Y942761D01*
X4610160Y945524D01*
X4598360Y946453D01*
D02*
G37*
G36*
X4852360Y692453D02*
X4817360D01*
X4805560Y691524D01*
X4794051Y688761D01*
X4783115Y684231D01*
X4773022Y678046D01*
X4764022Y670359D01*
X4756334Y661358D01*
X4750150Y651266D01*
X4745620Y640330D01*
X4742857Y628820D01*
X4741928Y617020D01*
X4742857Y605220D01*
X4745620Y593710D01*
X4750150Y582775D01*
X4756334Y572682D01*
X4764022Y563681D01*
X4773022Y555994D01*
X4783115Y549809D01*
X4794051Y545280D01*
X4805560Y542516D01*
X4817360Y541588D01*
X4852360D01*
X4864160Y542516D01*
X4875670Y545280D01*
X4886606Y549809D01*
X4896698Y555994D01*
X4905699Y563681D01*
X4913386Y572682D01*
X4919571Y582775D01*
X4924101Y593710D01*
X4926864Y605220D01*
X4927793Y617020D01*
X4926864Y628820D01*
X4924101Y640330D01*
X4919571Y651266D01*
X4913386Y661358D01*
X4905699Y670359D01*
X4896698Y678046D01*
X4886606Y684231D01*
X4875670Y688761D01*
X4864160Y691524D01*
X4852360Y692453D01*
D02*
G37*
G36*
X4598360D02*
X4563360D01*
X4551560Y691524D01*
X4540051Y688761D01*
X4529115Y684231D01*
X4519022Y678046D01*
X4510022Y670359D01*
X4502334Y661358D01*
X4496150Y651266D01*
X4491620Y640330D01*
X4488857Y628820D01*
X4487928Y617020D01*
X4488857Y605220D01*
X4491620Y593710D01*
X4496150Y582775D01*
X4502334Y572682D01*
X4510022Y563681D01*
X4519022Y555994D01*
X4529115Y549809D01*
X4540051Y545280D01*
X4551560Y542516D01*
X4563360Y541588D01*
X4598360D01*
X4610160Y542516D01*
X4621670Y545280D01*
X4632606Y549809D01*
X4642698Y555994D01*
X4651699Y563681D01*
X4659386Y572682D01*
X4665571Y582775D01*
X4670101Y593710D01*
X4672864Y605220D01*
X4673793Y617020D01*
X4672864Y628820D01*
X4670101Y640330D01*
X4665571Y651266D01*
X4659386Y661358D01*
X4651699Y670359D01*
X4642698Y678046D01*
X4632606Y684231D01*
X4621670Y688761D01*
X4610160Y691524D01*
X4598360Y692453D01*
D02*
G37*
G36*
X1371834Y341625D02*
X1341634D01*
Y292100D01*
X1391159D01*
Y322300D01*
X1390501Y327302D01*
X1388570Y331963D01*
X1385499Y335965D01*
X1381497Y339036D01*
X1376836Y340967D01*
X1371834Y341625D01*
D02*
G37*
G36*
X1240034D02*
X1209834D01*
X1204832Y340967D01*
X1200172Y339036D01*
X1196169Y335965D01*
X1193098Y331963D01*
X1191167Y327302D01*
X1190509Y322300D01*
Y292100D01*
X1240034D01*
Y341625D01*
D02*
G37*
G36*
X1062880Y341703D02*
X1041674D01*
Y292098D01*
X1091283D01*
Y313300D01*
X1090315Y320651D01*
X1087478Y327501D01*
X1082964Y333384D01*
X1077081Y337898D01*
X1070231Y340735D01*
X1062880Y341703D01*
D02*
G37*
G36*
X940074D02*
X918880D01*
X911529Y340735D01*
X904679Y337898D01*
X898796Y333384D01*
X894282Y327501D01*
X891445Y320651D01*
X890477Y313300D01*
Y292098D01*
X940074D01*
Y341703D01*
D02*
G37*
G36*
X1391159Y190500D02*
X1341634D01*
Y140975D01*
X1371834D01*
X1376836Y141633D01*
X1381497Y143564D01*
X1385499Y146635D01*
X1388570Y150637D01*
X1390501Y155298D01*
X1391159Y160300D01*
Y190500D01*
D02*
G37*
G36*
X1240034D02*
X1190509D01*
Y160300D01*
X1191167Y155298D01*
X1193098Y150637D01*
X1196169Y146635D01*
X1200172Y143564D01*
X1204832Y141633D01*
X1209834Y140975D01*
X1240034D01*
Y190500D01*
D02*
G37*
G36*
X1091283Y190498D02*
X1041674D01*
Y140897D01*
X1062880D01*
X1070231Y141865D01*
X1077081Y144702D01*
X1082964Y149216D01*
X1087478Y155099D01*
X1090315Y161949D01*
X1091283Y169300D01*
Y190498D01*
D02*
G37*
G36*
X940074D02*
X890477D01*
Y169300D01*
X891445Y161949D01*
X894282Y155099D01*
X898796Y149216D01*
X904679Y144702D01*
X911529Y141865D01*
X918880Y140897D01*
X940074D01*
Y190498D01*
D02*
G37*
G36*
X922893Y2092024D02*
X483771D01*
X479807Y2091236D01*
X476446Y2088990D01*
X474200Y2085629D01*
X473412Y2081665D01*
X473406Y859398D01*
X473625Y858297D01*
X473647Y857176D01*
X589840Y328007D01*
Y323326D01*
X588624Y319318D01*
X588032Y313300D01*
Y169300D01*
X588624Y163282D01*
X589841Y159272D01*
Y151000D01*
X590629Y147036D01*
X592875Y143675D01*
X596236Y141429D01*
X600200Y140641D01*
X607599D01*
X612862Y139044D01*
X618880Y138452D01*
X762880D01*
X768898Y139044D01*
X774162Y140641D01*
X780201D01*
X784165Y141429D01*
X787526Y143675D01*
X789772Y147036D01*
X790560Y151000D01*
Y155961D01*
X791380Y157495D01*
X793136Y163282D01*
X793728Y169300D01*
Y313300D01*
X793533Y315281D01*
X895786Y395246D01*
X896201Y395728D01*
X896730Y396081D01*
X930232Y429583D01*
X932477Y432944D01*
X933266Y436908D01*
X933266Y436910D01*
X933252Y2081665D01*
X932464Y2085629D01*
X930218Y2088990D01*
X926857Y2091236D01*
X922893Y2092024D01*
D02*
G37*
G36*
X2271834Y344187D02*
X2109834D01*
X2104170Y343441D01*
X2098891Y341255D01*
X2094358Y337776D01*
X2090879Y333243D01*
X2088693Y327965D01*
X2087947Y322300D01*
Y160300D01*
X2088693Y154635D01*
X2090879Y149357D01*
X2094358Y144824D01*
X2098891Y141345D01*
X2104170Y139159D01*
X2109834Y138413D01*
X2271834D01*
X2277499Y139159D01*
X2282778Y141345D01*
X2287310Y144824D01*
X2290789Y149357D01*
X2292975Y154635D01*
X2293721Y160300D01*
Y322300D01*
X2292975Y327965D01*
X2290789Y333243D01*
X2287310Y337776D01*
X2282778Y341255D01*
X2277499Y343441D01*
X2271834Y344187D01*
D02*
G37*
G36*
X1971834D02*
X1809834D01*
X1804170Y343441D01*
X1798891Y341255D01*
X1794358Y337776D01*
X1790880Y333243D01*
X1788693Y327965D01*
X1787947Y322300D01*
Y160300D01*
X1788693Y154635D01*
X1790880Y149357D01*
X1794358Y144824D01*
X1798891Y141345D01*
X1804170Y139159D01*
X1809834Y138413D01*
X1971834D01*
X1977499Y139159D01*
X1982778Y141345D01*
X1987310Y144824D01*
X1990789Y149357D01*
X1992975Y154635D01*
X1993721Y160300D01*
Y322300D01*
X1992975Y327965D01*
X1990789Y333243D01*
X1987310Y337776D01*
X1982778Y341255D01*
X1977499Y343441D01*
X1971834Y344187D01*
D02*
G37*
G36*
X1671834D02*
X1509834D01*
X1504169Y343441D01*
X1498891Y341255D01*
X1494358Y337776D01*
X1490879Y333243D01*
X1488693Y327965D01*
X1487947Y322300D01*
Y160300D01*
X1488693Y154635D01*
X1490879Y149357D01*
X1494358Y144824D01*
X1498891Y141345D01*
X1504169Y139159D01*
X1509834Y138413D01*
X1671834D01*
X1677499Y139159D01*
X1682777Y141345D01*
X1687310Y144824D01*
X1690789Y149357D01*
X1692975Y154635D01*
X1693721Y160300D01*
Y322300D01*
X1692975Y327965D01*
X1690789Y333243D01*
X1687310Y337776D01*
X1682777Y341255D01*
X1677499Y343441D01*
X1671834Y344187D01*
D02*
G37*
%LPD*%
G36*
X922907Y436908D02*
X889405Y403406D01*
X780201Y318005D01*
Y151000D01*
X600200Y151000D01*
X600199Y329131D01*
X483765Y859398D01*
X483771Y2081665D01*
X922893D01*
X922907Y436908D01*
D02*
G37*
D27*
X4357950Y1761776D02*
X4535750D01*
D31*
X232500Y1345042D02*
D03*
X4767500D02*
D03*
Y1955020D02*
D03*
X232500D02*
D03*
D32*
X4580860Y1125020D02*
D03*
Y871020D02*
D03*
Y617020D02*
D03*
X4834860D02*
D03*
Y871020D02*
D03*
Y1125020D02*
D03*
D33*
X1135263Y2774187D02*
D03*
X881263D02*
D03*
X627263D02*
D03*
Y3028187D02*
D03*
X881263D02*
D03*
X1135263D02*
D03*
D34*
X4880016Y2380000D02*
D03*
X4700016D02*
D03*
D35*
X2190834Y241300D02*
D03*
X1290834D02*
D03*
X1590834D02*
D03*
X1890834D02*
D03*
D36*
X690880D02*
D03*
X990880D02*
D03*
D37*
X2310171Y2782808D02*
D03*
D38*
X2345977Y3063865D02*
D03*
X3164955Y3088932D02*
D03*
X3266047Y3140829D02*
D03*
X2675159Y2633240D02*
D03*
X2050518Y1578682D02*
D03*
X2569835Y2349602D02*
D03*
X2732395D02*
D03*
X2651115D02*
D03*
X2552034Y173797D02*
D03*
Y275291D02*
D03*
X2316823Y2226081D02*
D03*
X2253546Y2478694D02*
D03*
X2316823Y2084368D02*
D03*
X3465551Y2552274D02*
D03*
X3548213D02*
D03*
Y2749454D02*
D03*
X3465551D02*
D03*
X3713537Y2552274D02*
D03*
X3796199D02*
D03*
Y2749454D02*
D03*
X3713537D02*
D03*
X3878861Y2552274D02*
D03*
Y2749454D02*
D03*
X3630875Y2552274D02*
D03*
Y2749454D02*
D03*
X1011197Y635946D02*
D03*
X418989Y598298D02*
D03*
X246527D02*
D03*
X418989Y768591D02*
D03*
X246527D02*
D03*
X332909Y597334D02*
D03*
Y768591D02*
D03*
X418989Y682174D02*
D03*
X246527D02*
D03*
X1800827Y3000409D02*
D03*
X1710601D02*
D03*
X1620375D02*
D03*
X1530148D02*
D03*
X1439922D02*
D03*
X1349696D02*
D03*
X1894508Y1238215D02*
D03*
X1892300Y1922780D02*
D03*
X4244480Y2597005D02*
D03*
Y2427278D02*
D03*
X2688694Y3087156D02*
D03*
X2272071Y3143426D02*
D03*
X1349696Y2800467D02*
D03*
X1439922D02*
D03*
X1530148D02*
D03*
X1620375D02*
D03*
X1710601D02*
D03*
X1800827D02*
D03*
X2651115Y2157719D02*
D03*
X2732395D02*
D03*
X2569835D02*
D03*
X2512599Y2419373D02*
D03*
X2593879D02*
D03*
X2675159D02*
D03*
X2552034Y72304D02*
D03*
X3081820Y604320D02*
D03*
X2854312D02*
D03*
X2626804D02*
D03*
X3309329D02*
D03*
X3536837D02*
D03*
X3764345D02*
D03*
X3991854D02*
D03*
X4219362D02*
D03*
X4291495Y80349D02*
D03*
Y188827D02*
D03*
Y297305D02*
D03*
Y405784D02*
D03*
Y514262D02*
D03*
X2552034Y478277D02*
D03*
Y376784D02*
D03*
X2514977Y2253660D02*
D03*
X2787254D02*
D03*
X2493879Y2526059D02*
D03*
X2693879D02*
D03*
X866101Y2029040D02*
D03*
X796176D02*
D03*
X726251D02*
D03*
Y1940250D02*
D03*
Y1851460D02*
D03*
X796176D02*
D03*
X866101D02*
D03*
X2512599Y2633240D02*
D03*
X2593879D02*
D03*
X2058138Y1461312D02*
D03*
X4825823Y2317340D02*
D03*
Y2442918D02*
D03*
X2120158Y958265D02*
D03*
X2020038Y384697D02*
D03*
X1011197Y849972D02*
D03*
Y1095462D02*
D03*
Y2065969D02*
D03*
Y2267553D02*
D03*
Y1813725D02*
D03*
Y1338692D02*
D03*
Y1569389D02*
D03*
X726251Y1226536D02*
D03*
Y1139380D02*
D03*
Y1313692D02*
D03*
Y525690D02*
D03*
Y431800D02*
D03*
Y619580D02*
D03*
X2455722Y1280354D02*
D03*
X2020038Y722094D02*
D03*
X796176Y1313692D02*
D03*
X866101D02*
D03*
Y432080D02*
D03*
X796176Y619580D02*
D03*
X866101D02*
D03*
Y1139380D02*
D03*
X796176D02*
D03*
Y431800D02*
D03*
D39*
X4357950Y1759236D02*
D03*
X4535750Y1761776D02*
D03*
D40*
X2307631Y2785348D02*
D03*
%TF.MD5,abecd61d3a5fa08f8a3d4950955d12eb*%
M02*
