%TF.GenerationSoftware,Altium Limited,Altium Designer,20.1.8 (145)*%
G04 Layer_Color=16777215*
%FSLAX24Y24*%
%MOIN*%
%TF.SameCoordinates,EFFAC6F7-03CC-4013-BD78-E1C7C4EA7A57*%
%TF.FilePolarity,Positive*%
%TF.FileFunction,Legend,Top*%
%TF.Part,Single*%
G01*
G75*
%TA.AperFunction,NonConductor*%
%ADD39C,0.0050*%
%ADD44C,0.0040*%
%ADD45C,0.0060*%
%ADD46C,0.0098*%
%ADD47C,0.0100*%
%ADD48C,0.0080*%
D39*
X9700Y272D02*
X9660Y312D01*
X9580D01*
X9540Y272D01*
Y112D01*
X9580Y72D01*
X9660D01*
X9700Y112D01*
X9780Y72D02*
X9900D01*
X9940Y112D01*
X9900Y152D01*
X9820D01*
X9780Y192D01*
X9820Y232D01*
X9940D01*
X10020Y72D02*
X10140D01*
X10180Y112D01*
X10140Y152D01*
X10060D01*
X10020Y192D01*
X10060Y232D01*
X10180D01*
X7300Y4277D02*
X7380D01*
X7340D01*
Y4037D01*
X7300D01*
X7380D01*
X7660Y4237D02*
X7620Y4277D01*
X7540D01*
X7500Y4237D01*
Y4077D01*
X7540Y4037D01*
X7620D01*
X7660Y4077D01*
X7740Y4237D02*
X7780Y4277D01*
X7860D01*
X7900Y4237D01*
Y4197D01*
X7860Y4157D01*
X7820D01*
X7860D01*
X7900Y4117D01*
Y4077D01*
X7860Y4037D01*
X7780D01*
X7740Y4077D01*
X7216Y3923D02*
X7296D01*
X7256D01*
Y3683D01*
X7216D01*
X7296D01*
X7576Y3883D02*
X7536Y3923D01*
X7456D01*
X7416Y3883D01*
Y3723D01*
X7456Y3683D01*
X7536D01*
X7576Y3723D01*
X7816Y3683D02*
X7656D01*
X7816Y3843D01*
Y3883D01*
X7776Y3923D01*
X7696D01*
X7656Y3883D01*
X11739Y130D02*
X11499D01*
Y250D01*
X11539Y290D01*
X11619D01*
X11659Y250D01*
Y130D01*
Y210D02*
X11739Y290D01*
Y410D02*
Y490D01*
X11699Y530D01*
X11619D01*
X11579Y490D01*
Y410D01*
X11619Y370D01*
X11699D01*
X11739Y410D01*
Y610D02*
X11579D01*
Y730D01*
X11619Y770D01*
X11739D01*
X7904Y258D02*
X7864Y218D01*
Y138D01*
X7904Y98D01*
X8064D01*
X8104Y138D01*
Y218D01*
X8064Y258D01*
X7864Y338D02*
X8104D01*
Y458D01*
X8064Y498D01*
X8024D01*
X7984D01*
X7944Y458D01*
Y338D01*
Y578D02*
X8064D01*
X8104Y618D01*
Y738D01*
X8144D01*
X8184Y698D01*
Y658D01*
X8104Y738D02*
X7944D01*
X8184Y818D02*
X7944D01*
Y937D01*
X7984Y977D01*
X8064D01*
X8104Y937D01*
Y818D01*
X5927Y2319D02*
X5887Y2359D01*
X5807D01*
X5767Y2319D01*
Y2159D01*
X5807Y2119D01*
X5887D01*
X5927Y2159D01*
X6167Y2119D02*
X6007D01*
X6167Y2279D01*
Y2319D01*
X6127Y2359D01*
X6047D01*
X6007Y2319D01*
X7500Y1540D02*
X7460Y1500D01*
Y1420D01*
X7500Y1380D01*
X7660D01*
X7700Y1420D01*
Y1500D01*
X7660Y1540D01*
X7700Y1620D02*
Y1700D01*
Y1660D01*
X7460D01*
X7500Y1620D01*
X11995Y1943D02*
X11755D01*
Y2063D01*
X11795Y2103D01*
X11875D01*
X11915Y2063D01*
Y1943D01*
Y2023D02*
X11995Y2103D01*
X11795Y2223D02*
X11835D01*
Y2183D01*
Y2263D01*
Y2223D01*
X11955D01*
X11995Y2263D01*
Y2543D02*
Y2383D01*
X11835Y2543D01*
X11795D01*
X11755Y2503D01*
Y2423D01*
X11795Y2383D01*
X8630Y4137D02*
X8710D01*
X8670D01*
Y3897D01*
X8630D01*
X8710D01*
X8989Y4097D02*
X8949Y4137D01*
X8869D01*
X8830Y4097D01*
Y3937D01*
X8869Y3897D01*
X8949D01*
X8989Y3937D01*
X9069Y3897D02*
X9149D01*
X9109D01*
Y4137D01*
X9069Y4097D01*
X11625Y3870D02*
X11385D01*
Y3990D01*
X11425Y4030D01*
X11505D01*
X11545Y3990D01*
Y3870D01*
Y3950D02*
X11625Y4030D01*
Y4110D02*
Y4190D01*
Y4150D01*
X11465D01*
Y4110D01*
X11625Y4310D02*
Y4390D01*
Y4350D01*
X11385D01*
Y4310D01*
X11625Y4510D02*
Y4590D01*
Y4550D01*
X11465D01*
Y4510D01*
X11625Y4710D02*
X11465D01*
Y4750D01*
X11505Y4790D01*
X11625D01*
X11505D01*
X11465Y4830D01*
X11505Y4870D01*
X11625D01*
X11758Y2718D02*
Y2958D01*
X11878D01*
X11918Y2918D01*
Y2838D01*
X11878Y2798D01*
X11758D01*
X11838D02*
X11918Y2718D01*
X12038Y2918D02*
Y2878D01*
X11998D01*
X12078D01*
X12038D01*
Y2758D01*
X12078Y2718D01*
X12198D02*
X12278D01*
X12238D01*
Y2958D01*
X12198Y2918D01*
X11017Y3540D02*
Y3780D01*
X11137D01*
X11177Y3740D01*
Y3660D01*
X11137Y3620D01*
X11017D01*
X11097D02*
X11177Y3540D01*
X11257Y3780D02*
Y3540D01*
X11377D01*
X11417Y3580D01*
Y3620D01*
Y3660D01*
X11377Y3700D01*
X11257D01*
X11497Y3540D02*
X11577D01*
X11537D01*
Y3780D01*
X11497Y3740D01*
X7307Y8369D02*
Y8129D01*
X7467D01*
X7547D02*
X7627D01*
X7587D01*
Y8369D01*
X7547Y8329D01*
X7775Y1339D02*
X7735Y1299D01*
Y1219D01*
X7775Y1179D01*
X7935D01*
X7975Y1219D01*
Y1299D01*
X7935Y1339D01*
X7815Y1419D02*
X7975Y1499D01*
X7815Y1579D01*
Y1819D02*
Y1699D01*
X7855Y1659D01*
X7935D01*
X7975Y1699D01*
Y1819D01*
X7815Y2059D02*
Y1939D01*
X7855Y1899D01*
X7935D01*
X7975Y1939D01*
Y2059D01*
X4463Y3702D02*
X4423Y3742D01*
X4343D01*
X4303Y3702D01*
Y3542D01*
X4343Y3502D01*
X4423D01*
X4463Y3542D01*
X4583Y3502D02*
X4663D01*
X4703Y3542D01*
Y3622D01*
X4663Y3662D01*
X4583D01*
X4543Y3622D01*
Y3542D01*
X4583Y3502D01*
X4783Y3662D02*
Y3542D01*
X4823Y3502D01*
X4942D01*
Y3662D01*
X5062Y3702D02*
Y3662D01*
X5022D01*
X5102D01*
X5062D01*
Y3542D01*
X5102Y3502D01*
X5382D02*
X5222D01*
X5382Y3662D01*
Y3702D01*
X5342Y3742D01*
X5262D01*
X5222Y3702D01*
X2613D02*
X2573Y3742D01*
X2493D01*
X2453Y3702D01*
Y3542D01*
X2493Y3502D01*
X2573D01*
X2613Y3542D01*
X2733Y3502D02*
X2813D01*
X2853Y3542D01*
Y3622D01*
X2813Y3662D01*
X2733D01*
X2693Y3622D01*
Y3542D01*
X2733Y3502D01*
X2933Y3662D02*
Y3542D01*
X2973Y3502D01*
X3093D01*
Y3662D01*
X3213Y3702D02*
Y3662D01*
X3173D01*
X3253D01*
X3213D01*
Y3542D01*
X3253Y3502D01*
X3373D02*
X3453D01*
X3413D01*
Y3742D01*
X3373Y3702D01*
X8822Y7804D02*
X8782Y7764D01*
Y7684D01*
X8822Y7644D01*
X8982D01*
X9022Y7684D01*
Y7764D01*
X8982Y7804D01*
X9022Y7884D02*
Y7964D01*
Y7924D01*
X8862D01*
Y7884D01*
X9022Y8084D02*
X8862D01*
Y8204D01*
X8902Y8244D01*
X9022D01*
Y8323D02*
Y8403D01*
Y8363D01*
X8782D01*
X8822Y8323D01*
X11068Y1466D02*
X11028Y1506D01*
X10948D01*
X10908Y1466D01*
Y1306D01*
X10948Y1266D01*
X11028D01*
X11068Y1306D01*
X11188Y1266D02*
Y1466D01*
Y1386D01*
X11148D01*
X11228D01*
X11188D01*
Y1466D01*
X11228Y1506D01*
X11388Y1266D02*
Y1466D01*
Y1386D01*
X11348D01*
X11428D01*
X11388D01*
Y1466D01*
X11428Y1506D01*
X9947Y4125D02*
X9908Y4085D01*
Y4005D01*
X9947Y3965D01*
X10107D01*
X10147Y4005D01*
Y4085D01*
X10107Y4125D01*
X9908Y4205D02*
X10147D01*
Y4325D01*
X10107Y4365D01*
X10067D01*
X10027D01*
X9987Y4325D01*
Y4205D01*
X10147Y4445D02*
Y4565D01*
X10107Y4605D01*
X10067Y4565D01*
Y4485D01*
X10027Y4445D01*
X9987Y4485D01*
Y4605D01*
X9947Y4724D02*
X9987D01*
Y4684D01*
Y4764D01*
Y4724D01*
X10107D01*
X10147Y4764D01*
X9447Y4634D02*
Y4874D01*
X9527Y4794D01*
X9607Y4874D01*
Y4634D01*
X9687D02*
X9767D01*
X9727D01*
Y4874D01*
X9687Y4834D01*
X7486Y7559D02*
Y7799D01*
X7566Y7719D01*
X7646Y7799D01*
Y7559D01*
X7886D02*
X7726D01*
X7886Y7719D01*
Y7759D01*
X7846Y7799D01*
X7766D01*
X7726Y7759D01*
X9172Y7801D02*
X9132Y7761D01*
Y7681D01*
X9172Y7641D01*
X9332D01*
X9372Y7681D01*
Y7761D01*
X9332Y7801D01*
X9372Y7881D02*
Y7961D01*
Y7921D01*
X9212D01*
Y7881D01*
X9372Y8081D02*
X9212D01*
Y8201D01*
X9252Y8241D01*
X9372D01*
Y8481D02*
Y8321D01*
X9212Y8481D01*
X9172D01*
X9132Y8441D01*
Y8361D01*
X9172Y8321D01*
D44*
X1942Y984D02*
G03*
X1942Y984I-964J0D01*
G01*
Y7677D02*
G03*
X1942Y7677I-964J0D01*
G01*
X13753Y984D02*
G03*
X13753Y984I-964J0D01*
G01*
Y7677D02*
G03*
X13753Y7677I-964J0D01*
G01*
X5975Y2765D02*
Y2824D01*
Y2923D02*
Y2982D01*
X5857Y2923D02*
X6093D01*
X5857Y2824D02*
X6093D01*
X7235Y1426D02*
Y1486D01*
Y1584D02*
Y1643D01*
X7116Y1584D02*
X7353D01*
X7116Y1486D02*
X7353D01*
X5394Y3238D02*
X5679D01*
X5394Y285D02*
X5679D01*
X3908Y3238D02*
X4193D01*
X3908Y285D02*
X4193D01*
X5679D02*
Y3238D01*
X3908Y285D02*
Y3238D01*
X8239Y1463D02*
Y1522D01*
Y1620D02*
Y1679D01*
X8121Y1620D02*
X8357D01*
X8121Y1522D02*
X8357D01*
X8654Y339D02*
Y634D01*
X8772Y339D02*
Y634D01*
Y486D02*
X8850D01*
X8575D02*
X8654D01*
X6270Y2519D02*
X7451D01*
X6270Y2834D02*
X7451D01*
X6270Y2519D02*
Y2834D01*
X7451Y2519D02*
Y2834D01*
X6250Y1948D02*
X6486D01*
X6250Y1082D02*
X6486D01*
X6250D02*
Y1948D01*
X6486Y1082D02*
X6486Y1948D01*
X10580Y4270D02*
Y4329D01*
Y4427D02*
Y4486D01*
X10462Y4427D02*
X10698D01*
X10462Y4329D02*
X10698D01*
X11181Y3272D02*
X11210Y3337D01*
X11235Y3271D01*
X11261Y3205D01*
X11290Y3270D01*
X11318Y3335D01*
X11344Y3269D01*
X11370Y3203D01*
X11398Y3268D01*
X11180Y2781D02*
X11209Y2846D01*
X11235Y2780D01*
X11260Y2714D01*
X11289Y2779D01*
X11318Y2844D01*
X11343Y2778D01*
X11369Y2712D01*
X11398Y2777D01*
X11339Y1769D02*
X11398D01*
X11181D02*
X11240D01*
X11240Y1651D02*
Y1887D01*
X11339Y1651D02*
Y1887D01*
X11014Y516D02*
X11042Y581D01*
X11068Y515D01*
X11094Y449D01*
X11122Y514D01*
X11151Y579D01*
X11177Y513D01*
X11202Y447D01*
X11231Y512D01*
X10089Y394D02*
Y630D01*
X10188Y394D02*
Y630D01*
X10188Y512D02*
X10247D01*
X10030D02*
X10089D01*
X2018Y285D02*
Y3238D01*
X3789Y285D02*
Y3238D01*
X2018Y285D02*
X2303D01*
X2018Y3238D02*
X2303D01*
X3504Y285D02*
X3789D01*
X3504Y3238D02*
X3789D01*
X11180Y2277D02*
X11209Y2342D01*
X11235Y2276D01*
X11260Y2210D01*
X11289Y2275D01*
X11318Y2340D01*
X11343Y2274D01*
X11369Y2208D01*
X11398Y2272D01*
X11116Y4487D02*
X11181Y4459D01*
X11115Y4433D02*
X11181Y4459D01*
X11049Y4407D02*
X11115Y4433D01*
X11049Y4407D02*
X11114Y4378D01*
X11179Y4350D01*
X11113Y4324D02*
X11179Y4350D01*
X11047Y4298D02*
X11113Y4324D01*
X11047Y4298D02*
X11112Y4270D01*
X11243Y7845D02*
Y8101D01*
Y7412D02*
Y7667D01*
X10987D02*
X11499D01*
X10987Y7845D02*
X11499D01*
X10101D02*
Y8101D01*
Y7412D02*
Y7667D01*
X9845D02*
X10357D01*
X9845Y7845D02*
X10357D01*
D45*
X7875Y5108D02*
G03*
X7875Y5108I-30J0D01*
G01*
X9617Y6516D02*
G03*
X9617Y6516I-30J0D01*
G01*
X8602Y2296D02*
G03*
X8602Y2536I0J120D01*
G01*
X8702Y1264D02*
G03*
X8702Y1264I-30J0D01*
G01*
X2067Y3386D02*
Y8425D01*
X7146D01*
Y3386D02*
Y8425D01*
X2067Y3386D02*
X7146D01*
X7402Y4981D02*
X9371D01*
Y7344D01*
X7402D02*
X9371D01*
X7402Y4981D02*
Y7344D01*
X9460Y6959D02*
X11822D01*
Y4990D02*
Y6959D01*
X9460Y4990D02*
X11822D01*
X9460D02*
Y6959D01*
X8602Y1575D02*
Y3256D01*
X10612Y1575D02*
Y3256D01*
D46*
X2253Y812D02*
G03*
X2253Y812I-49J0D01*
G01*
X4143D02*
G03*
X4143Y812I-49J0D01*
G01*
D47*
X3403Y1533D02*
G03*
X2404Y1533I-499J-1070D01*
G01*
X5293D02*
G03*
X4294Y1533I-499J-1070D01*
G01*
X4282Y1890D02*
X5305D01*
X4793Y1112D02*
Y1644D01*
Y1890D02*
Y2402D01*
X7451Y3169D02*
Y3267D01*
X2904Y1890D02*
Y2402D01*
Y1112D02*
Y1644D01*
X2392Y1890D02*
X3415D01*
D48*
X5878Y1925D02*
X6112D01*
%TF.MD5,3fcb59efd237865f28475ca0f1a9775a*%
M02*
