%TF.GenerationSoftware,Altium Limited,Altium Designer,20.1.8 (145)*%
G04 Layer_Physical_Order=2*
G04 Layer_Color=16711680*
%FSLAX24Y24*%
%MOIN*%
%TF.SameCoordinates,EFFAC6F7-03CC-4013-BD78-E1C7C4EA7A57*%
%TF.FilePolarity,Positive*%
%TF.FileFunction,Copper,L2,Bot,Signal*%
%TF.Part,Single*%
G01*
G75*
%TA.AperFunction,Conductor*%
%ADD27C,0.0050*%
%ADD29C,0.0100*%
%ADD30C,0.0669*%
%TA.AperFunction,ComponentPad*%
%ADD33C,0.0669*%
%TA.AperFunction,ViaPad*%
%ADD34C,0.0984*%
%ADD35O,0.1575X0.0945*%
%ADD36C,0.0236*%
%ADD37C,0.0256*%
%ADD38C,0.0669*%
G36*
X13059Y8546D02*
X13223Y8478D01*
X13372Y8379D01*
X13497Y8253D01*
X13596Y8105D01*
X13665Y7941D01*
X13699Y7766D01*
Y7677D01*
Y984D01*
Y895D01*
X13665Y721D01*
X13596Y556D01*
X13497Y408D01*
X13372Y282D01*
X13223Y183D01*
X13059Y115D01*
X12884Y80D01*
X895D01*
X721Y115D01*
X556Y183D01*
X408Y282D01*
X282Y408D01*
X183Y556D01*
X115Y721D01*
X80Y895D01*
Y984D01*
Y7677D01*
Y7766D01*
X115Y7941D01*
X183Y8105D01*
X282Y8253D01*
X408Y8379D01*
X556Y8478D01*
X721Y8546D01*
X895Y8581D01*
X12884D01*
X13059Y8546D01*
D02*
G37*
%LPC*%
G36*
X13173Y6635D02*
X12386D01*
X12369Y6634D01*
X12353Y6633D01*
X12336Y6631D01*
X12319Y6629D01*
X12303Y6626D01*
X12286Y6622D01*
X12270Y6617D01*
X12254Y6612D01*
X12239Y6605D01*
X12223Y6599D01*
X12208Y6591D01*
X12194Y6583D01*
X12179Y6574D01*
X12165Y6565D01*
X12152Y6555D01*
X12139Y6545D01*
X12126Y6534D01*
X12114Y6522D01*
X12102Y6510D01*
X12091Y6497D01*
X12081Y6484D01*
X12071Y6471D01*
X12062Y6457D01*
X12053Y6442D01*
X12045Y6428D01*
X12037Y6413D01*
X12031Y6397D01*
X12025Y6382D01*
X12019Y6366D01*
X12014Y6350D01*
X12010Y6333D01*
X12007Y6317D01*
X12005Y6300D01*
X12003Y6284D01*
X12002Y6267D01*
X12001Y6250D01*
X12002Y6233D01*
X12003Y6216D01*
X12005Y6200D01*
X12007Y6183D01*
X12010Y6167D01*
X12014Y6150D01*
X12019Y6134D01*
X12025Y6118D01*
X12031Y6103D01*
X12037Y6087D01*
X12045Y6072D01*
X12053Y6058D01*
X12062Y6043D01*
X12071Y6029D01*
X12081Y6016D01*
X12091Y6003D01*
X12102Y5990D01*
X12114Y5978D01*
X12126Y5966D01*
X12139Y5955D01*
X12152Y5945D01*
X12165Y5935D01*
X12179Y5926D01*
X12194Y5917D01*
X12208Y5909D01*
X12223Y5901D01*
X12239Y5895D01*
X12254Y5888D01*
X12270Y5883D01*
X12286Y5878D01*
X12303Y5874D01*
X12319Y5871D01*
X12336Y5869D01*
X12353Y5867D01*
X12369Y5866D01*
X12386Y5865D01*
X13173D01*
X13190Y5866D01*
X13207Y5867D01*
X13224Y5869D01*
X13240Y5871D01*
X13257Y5874D01*
X13273Y5878D01*
X13289Y5883D01*
X13305Y5888D01*
X13321Y5895D01*
X13336Y5901D01*
X13351Y5909D01*
X13366Y5917D01*
X13380Y5926D01*
X13394Y5935D01*
X13408Y5945D01*
X13421Y5955D01*
X13433Y5966D01*
X13446Y5978D01*
X13457Y5990D01*
X13468Y6003D01*
X13479Y6016D01*
X13489Y6029D01*
X13498Y6043D01*
X13507Y6058D01*
X13515Y6072D01*
X13522Y6087D01*
X13529Y6103D01*
X13535Y6118D01*
X13540Y6134D01*
X13545Y6150D01*
X13549Y6167D01*
X13552Y6183D01*
X13555Y6200D01*
X13557Y6216D01*
X13558Y6233D01*
X13558Y6250D01*
X13558Y6267D01*
X13557Y6284D01*
X13555Y6300D01*
X13552Y6317D01*
X13549Y6333D01*
X13545Y6350D01*
X13540Y6366D01*
X13535Y6382D01*
X13529Y6397D01*
X13522Y6413D01*
X13515Y6428D01*
X13507Y6442D01*
X13498Y6457D01*
X13489Y6471D01*
X13479Y6484D01*
X13468Y6497D01*
X13457Y6510D01*
X13446Y6522D01*
X13433Y6534D01*
X13421Y6545D01*
X13408Y6555D01*
X13394Y6565D01*
X13380Y6574D01*
X13366Y6583D01*
X13351Y6591D01*
X13336Y6599D01*
X13321Y6605D01*
X13305Y6612D01*
X13289Y6617D01*
X13273Y6622D01*
X13257Y6626D01*
X13240Y6629D01*
X13224Y6631D01*
X13207Y6633D01*
X13190Y6634D01*
X13173Y6635D01*
D02*
G37*
G36*
X9644Y6142D02*
X9633Y6141D01*
X9623Y6140D01*
X9612Y6138D01*
X9601Y6136D01*
X9590Y6133D01*
X9580Y6129D01*
X9570Y6124D01*
X9560Y6119D01*
X9551Y6113D01*
X9542Y6107D01*
X9534Y6100D01*
X9526Y6092D01*
X9518Y6084D01*
X9511Y6076D01*
X9505Y6067D01*
X9499Y6058D01*
X9494Y6048D01*
X9489Y6038D01*
X9485Y6027D01*
X9482Y6017D01*
X9480Y6006D01*
X9478Y5995D01*
X9477Y5984D01*
X9476Y5973D01*
X9477Y5962D01*
X9478Y5951D01*
X9480Y5941D01*
X9482Y5930D01*
X9485Y5919D01*
X9489Y5909D01*
X9494Y5899D01*
X9499Y5889D01*
X9505Y5880D01*
X9511Y5871D01*
X9518Y5863D01*
X9526Y5854D01*
X9534Y5847D01*
X9542Y5840D01*
X9544Y5838D01*
Y5014D01*
X9545Y5005D01*
X9546Y4996D01*
X9548Y4988D01*
X9550Y4980D01*
X9554Y4972D01*
X9558Y4964D01*
X9562Y4956D01*
X9568Y4950D01*
X9574Y4943D01*
X9696Y4820D01*
X9696Y4818D01*
X9695Y4807D01*
X9695Y4796D01*
X9695Y4785D01*
X9696Y4774D01*
X9698Y4763D01*
X9700Y4752D01*
X9703Y4742D01*
X9707Y4731D01*
X9712Y4721D01*
X9717Y4712D01*
X9723Y4702D01*
X9729Y4693D01*
X9736Y4685D01*
X9744Y4677D01*
X9752Y4669D01*
X9760Y4662D01*
X9769Y4656D01*
X9779Y4650D01*
X9788Y4645D01*
X9798Y4640D01*
X9809Y4636D01*
X9819Y4633D01*
X9830Y4631D01*
X9841Y4629D01*
X9852Y4628D01*
X9863Y4627D01*
X9874Y4628D01*
X9885Y4629D01*
X9896Y4631D01*
X9906Y4633D01*
X9917Y4636D01*
X9927Y4640D01*
X9937Y4645D01*
X9947Y4650D01*
X9956Y4656D01*
X9965Y4662D01*
X9974Y4669D01*
X9982Y4677D01*
X9989Y4685D01*
X9996Y4693D01*
X10003Y4702D01*
X10008Y4712D01*
X10014Y4721D01*
X10018Y4731D01*
X10022Y4742D01*
X10025Y4752D01*
X10028Y4763D01*
X10029Y4774D01*
X10031Y4785D01*
X10031Y4796D01*
X10031Y4807D01*
X10029Y4818D01*
X10028Y4828D01*
X10025Y4839D01*
X10022Y4850D01*
X10018Y4860D01*
X10014Y4870D01*
X10008Y4880D01*
X10003Y4889D01*
X9996Y4898D01*
X9989Y4907D01*
X9982Y4915D01*
X9974Y4922D01*
X9965Y4929D01*
X9956Y4935D01*
X9947Y4941D01*
X9937Y4946D01*
X9927Y4951D01*
X9917Y4955D01*
X9906Y4958D01*
X9896Y4961D01*
X9885Y4962D01*
X9874Y4963D01*
X9863Y4964D01*
X9852Y4963D01*
X9841Y4962D01*
X9838Y4962D01*
X9745Y5055D01*
Y5838D01*
X9747Y5840D01*
X9755Y5847D01*
X9763Y5854D01*
X9771Y5863D01*
X9778Y5871D01*
X9784Y5880D01*
X9790Y5889D01*
X9795Y5899D01*
X9800Y5909D01*
X9804Y5919D01*
X9807Y5930D01*
X9809Y5941D01*
X9811Y5951D01*
X9812Y5962D01*
X9813Y5973D01*
X9812Y5984D01*
X9811Y5995D01*
X9809Y6006D01*
X9807Y6017D01*
X9804Y6027D01*
X9800Y6038D01*
X9795Y6048D01*
X9790Y6058D01*
X9784Y6067D01*
X9778Y6076D01*
X9771Y6084D01*
X9763Y6092D01*
X9755Y6100D01*
X9747Y6107D01*
X9738Y6113D01*
X9729Y6119D01*
X9719Y6124D01*
X9709Y6129D01*
X9699Y6133D01*
X9688Y6136D01*
X9677Y6138D01*
X9666Y6140D01*
X9655Y6141D01*
X9644Y6142D01*
D02*
G37*
G36*
X3930Y7235D02*
X3924Y7235D01*
X3919Y7234D01*
X3913Y7232D01*
X3908Y7230D01*
X3903Y7227D01*
X3899Y7224D01*
X3895Y7220D01*
X3891Y7216D01*
X3888Y7212D01*
X3885Y7207D01*
X3883Y7202D01*
X3881Y7196D01*
X3880Y7191D01*
X3880Y7185D01*
X3880Y4626D01*
X3880Y4620D01*
X3881Y4615D01*
X3883Y4609D01*
X3885Y4604D01*
X3888Y4599D01*
X3891Y4595D01*
X3895Y4591D01*
X3899Y4587D01*
X3903Y4584D01*
X3908Y4581D01*
X3913Y4579D01*
X3919Y4577D01*
X3924Y4576D01*
X3930Y4576D01*
X5285Y4576D01*
X5291Y4576D01*
X5296Y4577D01*
X5302Y4579D01*
X5307Y4581D01*
X5312Y4584D01*
X5316Y4587D01*
X5321Y4591D01*
X5324Y4595D01*
X5328Y4599D01*
X5330Y4604D01*
X5333Y4609D01*
X5334Y4615D01*
X5335Y4620D01*
X5335Y4626D01*
X5335Y7185D01*
X5335Y7191D01*
X5334Y7196D01*
X5333Y7202D01*
X5330Y7207D01*
X5328Y7212D01*
X5324Y7216D01*
X5321Y7220D01*
X5316Y7224D01*
X5312Y7227D01*
X5307Y7230D01*
X5302Y7232D01*
X5296Y7234D01*
X5291Y7235D01*
X5285Y7235D01*
X3930Y7235D01*
D02*
G37*
G36*
X10189Y4295D02*
X10178Y4294D01*
X10167Y4293D01*
X10156Y4291D01*
X10146Y4289D01*
X10135Y4286D01*
X10125Y4282D01*
X10115Y4277D01*
X10105Y4272D01*
X10096Y4266D01*
X10087Y4260D01*
X10078Y4253D01*
X10070Y4245D01*
X10063Y4237D01*
X10056Y4229D01*
X10054Y4226D01*
X9407D01*
X9406Y4229D01*
X9399Y4237D01*
X9391Y4245D01*
X9383Y4253D01*
X9375Y4260D01*
X9366Y4266D01*
X9356Y4272D01*
X9347Y4277D01*
X9337Y4282D01*
X9326Y4286D01*
X9316Y4289D01*
X9305Y4291D01*
X9294Y4293D01*
X9283Y4294D01*
X9272Y4295D01*
X9261Y4294D01*
X9250Y4293D01*
X9239Y4291D01*
X9229Y4289D01*
X9218Y4286D01*
X9208Y4282D01*
X9198Y4277D01*
X9188Y4272D01*
X9179Y4266D01*
X9170Y4260D01*
X9161Y4253D01*
X9153Y4245D01*
X9146Y4237D01*
X9139Y4229D01*
X9132Y4220D01*
X9127Y4210D01*
X9121Y4201D01*
X9117Y4191D01*
X9113Y4180D01*
X9110Y4170D01*
X9107Y4159D01*
X9105Y4148D01*
X9104Y4137D01*
X9104Y4126D01*
X9104Y4115D01*
X9105Y4104D01*
X9107Y4094D01*
X9110Y4083D01*
X9113Y4072D01*
X9117Y4062D01*
X9121Y4052D01*
X9127Y4042D01*
X9132Y4033D01*
X9139Y4024D01*
X9146Y4015D01*
X9153Y4007D01*
X9161Y4000D01*
X9170Y3993D01*
X9179Y3986D01*
X9188Y3981D01*
X9198Y3975D01*
X9208Y3971D01*
X9218Y3967D01*
X9229Y3964D01*
X9239Y3961D01*
X9250Y3960D01*
X9261Y3958D01*
X9272Y3958D01*
X9283Y3958D01*
X9294Y3960D01*
X9305Y3961D01*
X9316Y3964D01*
X9326Y3967D01*
X9337Y3971D01*
X9347Y3975D01*
X9356Y3981D01*
X9366Y3986D01*
X9375Y3993D01*
X9383Y4000D01*
X9391Y4007D01*
X9399Y4015D01*
X9406Y4024D01*
X9407Y4026D01*
X10054D01*
X10056Y4024D01*
X10063Y4015D01*
X10070Y4007D01*
X10078Y4000D01*
X10087Y3993D01*
X10096Y3986D01*
X10105Y3981D01*
X10115Y3975D01*
X10125Y3971D01*
X10135Y3967D01*
X10146Y3964D01*
X10156Y3961D01*
X10167Y3960D01*
X10178Y3958D01*
X10189Y3958D01*
X10200Y3958D01*
X10211Y3960D01*
X10222Y3961D01*
X10233Y3964D01*
X10243Y3967D01*
X10253Y3971D01*
X10264Y3975D01*
X10273Y3981D01*
X10283Y3986D01*
X10292Y3993D01*
X10300Y4000D01*
X10308Y4007D01*
X10316Y4015D01*
X10323Y4024D01*
X10329Y4033D01*
X10335Y4042D01*
X10340Y4052D01*
X10345Y4062D01*
X10348Y4072D01*
X10352Y4083D01*
X10354Y4094D01*
X10356Y4104D01*
X10357Y4115D01*
X10357Y4126D01*
X10357Y4137D01*
X10356Y4148D01*
X10354Y4159D01*
X10352Y4170D01*
X10348Y4180D01*
X10345Y4191D01*
X10340Y4201D01*
X10335Y4210D01*
X10329Y4220D01*
X10323Y4229D01*
X10316Y4237D01*
X10308Y4245D01*
X10300Y4253D01*
X10292Y4260D01*
X10283Y4266D01*
X10273Y4272D01*
X10264Y4277D01*
X10253Y4282D01*
X10243Y4286D01*
X10233Y4289D01*
X10222Y4291D01*
X10211Y4293D01*
X10200Y4294D01*
X10189Y4295D01*
D02*
G37*
G36*
X1468Y2776D02*
X1451Y2776D01*
X1434Y2775D01*
X1418Y2773D01*
X1401Y2771D01*
X1384Y2767D01*
X1368Y2763D01*
X1352Y2759D01*
X1336Y2753D01*
X1321Y2747D01*
X1305Y2740D01*
X1290Y2733D01*
X1275Y2725D01*
X1261Y2716D01*
X1247Y2707D01*
X1234Y2697D01*
X1220Y2686D01*
X1208Y2675D01*
X1196Y2664D01*
X1184Y2652D01*
X1173Y2639D01*
X1163Y2626D01*
X1153Y2612D01*
X1143Y2598D01*
X1135Y2584D01*
X1126Y2569D01*
X1119Y2554D01*
X1112Y2539D01*
X1106Y2523D01*
X1101Y2507D01*
X1096Y2491D01*
X1092Y2475D01*
X1089Y2459D01*
X1086Y2442D01*
X1084Y2425D01*
X1083Y2408D01*
X1083Y2392D01*
X1083Y2375D01*
X1084Y2358D01*
X1086Y2341D01*
X1089Y2325D01*
X1092Y2308D01*
X1096Y2292D01*
X1101Y2276D01*
X1106Y2260D01*
X1112Y2244D01*
X1119Y2229D01*
X1126Y2214D01*
X1135Y2199D01*
X1143Y2185D01*
X1153Y2171D01*
X1163Y2157D01*
X1173Y2144D01*
X1184Y2132D01*
X1196Y2120D01*
X1208Y2108D01*
X1220Y2097D01*
X1234Y2086D01*
X1247Y2077D01*
X1261Y2067D01*
X1275Y2059D01*
X1290Y2050D01*
X1305Y2043D01*
X1321Y2036D01*
X1336Y2030D01*
X1352Y2025D01*
X1368Y2020D01*
X1384Y2016D01*
X1401Y2013D01*
X1418Y2010D01*
X1434Y2008D01*
X1451Y2007D01*
X1468Y2007D01*
X1485Y2007D01*
X1501Y2008D01*
X1518Y2010D01*
X1535Y2013D01*
X1551Y2016D01*
X1567Y2020D01*
X1583Y2025D01*
X1599Y2030D01*
X1615Y2036D01*
X1630Y2043D01*
X1645Y2050D01*
X1660Y2059D01*
X1674Y2067D01*
X1688Y2077D01*
X1702Y2086D01*
X1715Y2097D01*
X1728Y2108D01*
X1740Y2120D01*
X1751Y2132D01*
X1762Y2144D01*
X1773Y2157D01*
X1783Y2171D01*
X1792Y2185D01*
X1801Y2199D01*
X1809Y2214D01*
X1816Y2229D01*
X1823Y2244D01*
X1829Y2260D01*
X1835Y2276D01*
X1839Y2292D01*
X1843Y2308D01*
X1847Y2325D01*
X1849Y2341D01*
X1851Y2358D01*
X1852Y2375D01*
X1852Y2392D01*
X1852Y2408D01*
X1851Y2425D01*
X1849Y2442D01*
X1847Y2459D01*
X1843Y2475D01*
X1839Y2491D01*
X1835Y2507D01*
X1829Y2523D01*
X1823Y2539D01*
X1816Y2554D01*
X1809Y2569D01*
X1801Y2584D01*
X1792Y2598D01*
X1783Y2612D01*
X1773Y2626D01*
X1762Y2639D01*
X1751Y2652D01*
X1740Y2664D01*
X1728Y2675D01*
X1715Y2686D01*
X1702Y2697D01*
X1688Y2707D01*
X1674Y2716D01*
X1660Y2725D01*
X1645Y2733D01*
X1630Y2740D01*
X1615Y2747D01*
X1599Y2753D01*
X1583Y2759D01*
X1567Y2763D01*
X1551Y2767D01*
X1535Y2771D01*
X1518Y2773D01*
X1501Y2775D01*
X1485Y2776D01*
X1468Y2776D01*
D02*
G37*
G36*
X10730Y1547D02*
X10719Y1546D01*
X10708Y1545D01*
X10697Y1544D01*
X10686Y1541D01*
X10676Y1538D01*
X10665Y1534D01*
X10655Y1529D01*
X10646Y1524D01*
X10636Y1518D01*
X10627Y1512D01*
X10619Y1505D01*
X10611Y1498D01*
X10603Y1489D01*
X10596Y1481D01*
X10590Y1472D01*
X10584Y1463D01*
X10579Y1453D01*
X10574Y1443D01*
X10570Y1433D01*
X10567Y1422D01*
X10565Y1411D01*
X10563Y1401D01*
X10562Y1390D01*
X10561Y1379D01*
X10562Y1368D01*
X10563Y1357D01*
X10563Y1354D01*
X10196Y987D01*
X9998D01*
X9996Y989D01*
X9989Y997D01*
X9982Y1005D01*
X9974Y1013D01*
X9965Y1020D01*
X9956Y1026D01*
X9947Y1032D01*
X9937Y1037D01*
X9927Y1042D01*
X9917Y1046D01*
X9906Y1049D01*
X9896Y1051D01*
X9885Y1053D01*
X9874Y1054D01*
X9863Y1055D01*
X9863D01*
Y886D01*
X9695Y886D01*
X9695Y875D01*
X9696Y865D01*
X9698Y854D01*
X9700Y843D01*
X9703Y832D01*
X9707Y822D01*
X9712Y812D01*
X9717Y802D01*
X9723Y793D01*
X9729Y784D01*
X9736Y776D01*
X9744Y768D01*
X9752Y760D01*
X9760Y753D01*
X9769Y747D01*
X9779Y741D01*
X9788Y736D01*
X9798Y731D01*
X9809Y727D01*
X9819Y724D01*
X9830Y721D01*
X9841Y720D01*
X9852Y719D01*
X9863Y718D01*
X9874Y719D01*
X9885Y720D01*
X9896Y721D01*
X9906Y724D01*
X9917Y727D01*
X9927Y731D01*
X9937Y736D01*
X9947Y741D01*
X9956Y747D01*
X9965Y753D01*
X9974Y760D01*
X9982Y768D01*
X9989Y776D01*
X9996Y784D01*
X9998Y786D01*
X10238D01*
X10246Y787D01*
X10255Y788D01*
X10263Y790D01*
X10272Y792D01*
X10280Y796D01*
X10288Y800D01*
X10295Y804D01*
X10302Y810D01*
X10308Y816D01*
X10705Y1212D01*
X10708Y1212D01*
X10719Y1211D01*
X10730Y1210D01*
X10741Y1211D01*
X10752Y1212D01*
X10763Y1214D01*
X10773Y1216D01*
X10784Y1219D01*
X10794Y1223D01*
X10804Y1228D01*
X10814Y1233D01*
X10823Y1239D01*
X10832Y1245D01*
X10841Y1252D01*
X10849Y1260D01*
X10856Y1268D01*
X10863Y1276D01*
X10870Y1285D01*
X10875Y1294D01*
X10881Y1304D01*
X10885Y1314D01*
X10889Y1325D01*
X10892Y1335D01*
X10895Y1346D01*
X10896Y1357D01*
X10898Y1368D01*
X10898Y1379D01*
X10898Y1390D01*
X10896Y1401D01*
X10895Y1411D01*
X10892Y1422D01*
X10889Y1433D01*
X10885Y1443D01*
X10881Y1453D01*
X10875Y1463D01*
X10870Y1472D01*
X10863Y1481D01*
X10856Y1489D01*
X10849Y1498D01*
X10841Y1505D01*
X10832Y1512D01*
X10823Y1518D01*
X10814Y1524D01*
X10804Y1529D01*
X10794Y1534D01*
X10784Y1538D01*
X10773Y1541D01*
X10763Y1544D01*
X10752Y1545D01*
X10741Y1546D01*
X10730Y1547D01*
D02*
G37*
G36*
X11381Y1464D02*
X11370Y1463D01*
X11359Y1462D01*
X11348Y1460D01*
X11337Y1458D01*
X11327Y1455D01*
X11317Y1451D01*
X11307Y1446D01*
X11297Y1441D01*
X11287Y1435D01*
X11279Y1429D01*
X11270Y1422D01*
X11262Y1414D01*
X11254Y1406D01*
X11247Y1398D01*
X11241Y1389D01*
X11235Y1380D01*
X11230Y1371D01*
X11076D01*
X11068Y1370D01*
X11061Y1369D01*
X11054Y1367D01*
X11047Y1365D01*
X11040Y1362D01*
X11034Y1358D01*
X11028Y1354D01*
X11023Y1349D01*
X11023Y1349D01*
X10315Y641D01*
X9805D01*
X9775Y671D01*
X9769Y676D01*
X9763Y681D01*
X9757Y684D01*
X9750Y687D01*
X9743Y690D01*
X9736Y692D01*
X9729Y693D01*
X9722Y693D01*
X9615D01*
X9610Y702D01*
X9604Y712D01*
X9598Y720D01*
X9591Y729D01*
X9583Y737D01*
X9575Y745D01*
X9567Y752D01*
X9558Y758D01*
X9549Y764D01*
X9539Y769D01*
X9529Y773D01*
X9519Y777D01*
X9508Y781D01*
X9497Y783D01*
X9487Y785D01*
X9476Y786D01*
X9465Y786D01*
X9454Y786D01*
X9443Y785D01*
X9432Y783D01*
X9421Y781D01*
X9410Y777D01*
X9400Y773D01*
X9390Y769D01*
X9380Y764D01*
X9371Y758D01*
X9362Y752D01*
X9354Y745D01*
X9346Y737D01*
X9338Y729D01*
X9331Y720D01*
X9325Y712D01*
X9319Y702D01*
X9314Y692D01*
X9309Y682D01*
X9305Y672D01*
X9302Y662D01*
X9300Y651D01*
X9298Y640D01*
X9297Y629D01*
X9296Y618D01*
X9297Y607D01*
X9298Y596D01*
X9300Y585D01*
X9302Y575D01*
X9305Y564D01*
X9309Y554D01*
X9314Y544D01*
X9319Y534D01*
X9325Y525D01*
X9331Y516D01*
X9338Y507D01*
X9346Y499D01*
X9354Y492D01*
X9362Y485D01*
X9371Y478D01*
X9380Y472D01*
X9390Y467D01*
X9400Y463D01*
X9410Y459D01*
X9421Y456D01*
X9432Y453D01*
X9443Y451D01*
X9454Y450D01*
X9465Y450D01*
X9476Y450D01*
X9487Y451D01*
X9497Y453D01*
X9508Y456D01*
X9519Y459D01*
X9529Y463D01*
X9539Y467D01*
X9549Y472D01*
X9558Y478D01*
X9567Y485D01*
X9575Y492D01*
X9583Y499D01*
X9591Y507D01*
X9598Y516D01*
X9604Y525D01*
X9610Y534D01*
X9615Y543D01*
X9691D01*
X9720Y513D01*
X9720Y513D01*
X9726Y508D01*
X9732Y504D01*
X9738Y500D01*
X9745Y497D01*
X9752Y494D01*
X9759Y493D01*
X9766Y491D01*
X9774Y491D01*
X9774Y491D01*
X10346D01*
X10354Y491D01*
X10361Y493D01*
X10368Y494D01*
X10375Y497D01*
X10382Y500D01*
X10388Y504D01*
X10394Y508D01*
X10399Y513D01*
X11107Y1220D01*
X11230D01*
X11235Y1211D01*
X11241Y1202D01*
X11247Y1193D01*
X11254Y1185D01*
X11262Y1177D01*
X11270Y1169D01*
X11279Y1162D01*
X11287Y1156D01*
X11297Y1150D01*
X11307Y1145D01*
X11317Y1140D01*
X11327Y1136D01*
X11337Y1133D01*
X11348Y1131D01*
X11359Y1129D01*
X11370Y1128D01*
X11381Y1127D01*
X11392Y1128D01*
X11403Y1129D01*
X11414Y1131D01*
X11424Y1133D01*
X11435Y1136D01*
X11445Y1140D01*
X11455Y1145D01*
X11465Y1150D01*
X11474Y1156D01*
X11483Y1162D01*
X11492Y1169D01*
X11500Y1177D01*
X11507Y1185D01*
X11514Y1193D01*
X11521Y1202D01*
X11527Y1211D01*
X11532Y1221D01*
X11536Y1231D01*
X11540Y1241D01*
X11543Y1252D01*
X11546Y1263D01*
X11548Y1274D01*
X11549Y1285D01*
X11549Y1296D01*
X11549Y1307D01*
X11548Y1317D01*
X11546Y1328D01*
X11543Y1339D01*
X11540Y1350D01*
X11536Y1360D01*
X11532Y1370D01*
X11527Y1380D01*
X11521Y1389D01*
X11514Y1398D01*
X11507Y1406D01*
X11500Y1414D01*
X11492Y1422D01*
X11483Y1429D01*
X11474Y1435D01*
X11465Y1441D01*
X11455Y1446D01*
X11445Y1451D01*
X11435Y1455D01*
X11424Y1458D01*
X11414Y1460D01*
X11403Y1462D01*
X11392Y1463D01*
X11381Y1464D01*
D02*
G37*
G36*
X11123Y1069D02*
X11112Y1069D01*
X11101Y1068D01*
X11090Y1066D01*
X11079Y1063D01*
X11069Y1060D01*
X11058Y1056D01*
X11048Y1052D01*
X11039Y1047D01*
X11029Y1041D01*
X11020Y1034D01*
X11012Y1027D01*
X11004Y1020D01*
X10996Y1012D01*
X10989Y1003D01*
X10983Y994D01*
X10977Y985D01*
X10972Y975D01*
X10967Y965D01*
X10963Y955D01*
X10960Y945D01*
X10958Y934D01*
X10956Y923D01*
X10955Y912D01*
X10954Y901D01*
X10955Y890D01*
X10956Y879D01*
X10958Y868D01*
X10960Y857D01*
X10963Y848D01*
X10505Y389D01*
X8020D01*
X8011Y392D01*
X8003Y396D01*
X7963Y428D01*
X7963Y439D01*
X7962Y450D01*
X7960Y460D01*
X7958Y471D01*
X7955Y482D01*
X7951Y492D01*
X7946Y502D01*
X7941Y512D01*
X7935Y521D01*
X7929Y530D01*
X7922Y539D01*
X7914Y547D01*
X7906Y554D01*
X7898Y561D01*
X7889Y568D01*
X7879Y573D01*
X7870Y579D01*
X7860Y583D01*
X7849Y587D01*
X7839Y590D01*
X7828Y593D01*
X7817Y594D01*
X7806Y596D01*
X7795Y596D01*
X7784Y596D01*
X7773Y594D01*
X7762Y593D01*
X7752Y590D01*
X7741Y587D01*
X7731Y583D01*
X7721Y579D01*
X7711Y573D01*
X7702Y568D01*
X7693Y561D01*
X7684Y554D01*
X7676Y547D01*
X7669Y539D01*
X7662Y530D01*
X7655Y521D01*
X7650Y512D01*
X7644Y502D01*
X7640Y492D01*
X7636Y482D01*
X7633Y471D01*
X7630Y460D01*
X7629Y450D01*
X7627Y439D01*
X7627Y428D01*
X7627Y417D01*
X7629Y406D01*
X7630Y395D01*
X7633Y384D01*
X7636Y374D01*
X7640Y363D01*
X7644Y353D01*
X7650Y344D01*
X7655Y334D01*
X7662Y325D01*
X7669Y317D01*
X7676Y309D01*
X7684Y301D01*
X7693Y294D01*
X7702Y288D01*
X7711Y282D01*
X7721Y277D01*
X7731Y272D01*
X7741Y268D01*
X7752Y265D01*
X7762Y263D01*
X7773Y261D01*
X7784Y260D01*
X7795Y259D01*
X7806Y260D01*
X7817Y261D01*
X7828Y263D01*
X7839Y265D01*
X7849Y268D01*
X7856Y261D01*
X7856Y261D01*
X7861Y256D01*
X7867Y252D01*
X7873Y248D01*
X7880Y245D01*
X7887Y242D01*
X7894Y241D01*
X7901Y240D01*
X7909Y239D01*
X7909Y239D01*
X10536D01*
X10543Y240D01*
X10551Y241D01*
X10558Y242D01*
X10565Y245D01*
X10571Y248D01*
X10578Y252D01*
X10584Y256D01*
X10589Y261D01*
X11069Y741D01*
X11079Y739D01*
X11090Y736D01*
X11101Y734D01*
X11112Y733D01*
X11123Y733D01*
X11134Y733D01*
X11145Y734D01*
X11155Y736D01*
X11166Y739D01*
X11177Y742D01*
X11187Y746D01*
X11197Y750D01*
X11207Y755D01*
X11216Y761D01*
X11225Y768D01*
X11234Y775D01*
X11242Y782D01*
X11249Y790D01*
X11256Y799D01*
X11262Y808D01*
X11268Y817D01*
X11273Y827D01*
X11278Y837D01*
X11282Y847D01*
X11285Y857D01*
X11288Y868D01*
X11289Y879D01*
X11290Y890D01*
X11291Y901D01*
X11290Y912D01*
X11289Y923D01*
X11288Y934D01*
X11285Y945D01*
X11282Y955D01*
X11278Y965D01*
X11273Y975D01*
X11268Y985D01*
X11262Y994D01*
X11256Y1003D01*
X11249Y1012D01*
X11242Y1020D01*
X11234Y1027D01*
X11225Y1034D01*
X11216Y1041D01*
X11207Y1047D01*
X11197Y1052D01*
X11187Y1056D01*
X11177Y1060D01*
X11166Y1063D01*
X11155Y1066D01*
X11145Y1068D01*
X11134Y1069D01*
X11123Y1069D01*
D02*
G37*
G36*
X7166Y1043D02*
X7149Y1043D01*
X7132Y1042D01*
X7115Y1040D01*
X7099Y1038D01*
X7082Y1034D01*
X7066Y1030D01*
X7050Y1026D01*
X7034Y1020D01*
X7018Y1014D01*
X7003Y1007D01*
X6988Y1000D01*
X6973Y992D01*
X6959Y983D01*
X6945Y974D01*
X6931Y964D01*
X6918Y953D01*
X6906Y942D01*
X6894Y931D01*
X6882Y919D01*
X6871Y906D01*
X6860Y893D01*
X6850Y879D01*
X6841Y865D01*
X6832Y851D01*
X6824Y836D01*
X6817Y821D01*
X6810Y806D01*
X6804Y790D01*
X6799Y774D01*
X6794Y758D01*
X6790Y742D01*
X6787Y725D01*
X6784Y709D01*
X6782Y692D01*
X6781Y675D01*
X6781Y659D01*
X6781Y642D01*
X6782Y625D01*
X6784Y608D01*
X6787Y592D01*
X6790Y575D01*
X6794Y559D01*
X6799Y543D01*
X6804Y527D01*
X6810Y511D01*
X6817Y496D01*
X6824Y481D01*
X6832Y466D01*
X6841Y452D01*
X6850Y438D01*
X6860Y424D01*
X6871Y411D01*
X6882Y399D01*
X6894Y387D01*
X6906Y375D01*
X6918Y364D01*
X6931Y353D01*
X6945Y344D01*
X6959Y334D01*
X6973Y325D01*
X6988Y317D01*
X7003Y310D01*
X7018Y303D01*
X7034Y297D01*
X7050Y292D01*
X7066Y287D01*
X7082Y283D01*
X7099Y280D01*
X7115Y277D01*
X7132Y275D01*
X7149Y274D01*
X7166Y274D01*
X7182Y274D01*
X7199Y275D01*
X7216Y277D01*
X7232Y280D01*
X7249Y283D01*
X7265Y287D01*
X7281Y292D01*
X7297Y297D01*
X7313Y303D01*
X7328Y310D01*
X7343Y317D01*
X7358Y325D01*
X7372Y334D01*
X7386Y344D01*
X7400Y353D01*
X7413Y364D01*
X7425Y375D01*
X7438Y387D01*
X7449Y399D01*
X7460Y411D01*
X7471Y424D01*
X7481Y438D01*
X7490Y452D01*
X7499Y466D01*
X7507Y481D01*
X7514Y496D01*
X7521Y511D01*
X7527Y527D01*
X7532Y543D01*
X7537Y559D01*
X7541Y575D01*
X7544Y592D01*
X7547Y608D01*
X7549Y625D01*
X7550Y642D01*
X7550Y659D01*
X7550Y675D01*
X7549Y692D01*
X7547Y709D01*
X7544Y725D01*
X7541Y742D01*
X7537Y758D01*
X7532Y774D01*
X7527Y790D01*
X7521Y806D01*
X7514Y821D01*
X7507Y836D01*
X7499Y851D01*
X7490Y865D01*
X7481Y879D01*
X7471Y893D01*
X7460Y906D01*
X7449Y919D01*
X7438Y931D01*
X7425Y942D01*
X7413Y953D01*
X7400Y964D01*
X7386Y974D01*
X7372Y983D01*
X7358Y992D01*
X7343Y1000D01*
X7328Y1007D01*
X7313Y1014D01*
X7297Y1020D01*
X7281Y1026D01*
X7265Y1030D01*
X7249Y1034D01*
X7232Y1038D01*
X7216Y1040D01*
X7199Y1042D01*
X7182Y1043D01*
X7166Y1043D01*
D02*
G37*
G36*
X6252D02*
X6235Y1043D01*
X6219Y1042D01*
X6202Y1040D01*
X6185Y1038D01*
X6169Y1034D01*
X6152Y1030D01*
X6136Y1026D01*
X6120Y1020D01*
X6105Y1014D01*
X6089Y1007D01*
X6074Y1000D01*
X6060Y992D01*
X6045Y983D01*
X6031Y974D01*
X6018Y964D01*
X6005Y953D01*
X5992Y942D01*
X5980Y931D01*
X5968Y919D01*
X5957Y906D01*
X5947Y893D01*
X5937Y879D01*
X5928Y865D01*
X5919Y851D01*
X5911Y836D01*
X5903Y821D01*
X5897Y806D01*
X5891Y790D01*
X5885Y774D01*
X5880Y758D01*
X5876Y742D01*
X5873Y725D01*
X5871Y709D01*
X5869Y692D01*
X5868Y675D01*
X5867Y659D01*
X5868Y642D01*
X5869Y625D01*
X5871Y608D01*
X5873Y592D01*
X5876Y575D01*
X5880Y559D01*
X5885Y543D01*
X5891Y527D01*
X5897Y511D01*
X5903Y496D01*
X5911Y481D01*
X5919Y466D01*
X5928Y452D01*
X5937Y438D01*
X5947Y424D01*
X5957Y411D01*
X5968Y399D01*
X5980Y387D01*
X5992Y375D01*
X6005Y364D01*
X6018Y353D01*
X6031Y344D01*
X6045Y334D01*
X6060Y325D01*
X6074Y317D01*
X6089Y310D01*
X6105Y303D01*
X6120Y297D01*
X6136Y292D01*
X6152Y287D01*
X6169Y283D01*
X6185Y280D01*
X6202Y277D01*
X6219Y275D01*
X6235Y274D01*
X6252Y274D01*
X6269Y274D01*
X6286Y275D01*
X6302Y277D01*
X6319Y280D01*
X6335Y283D01*
X6352Y287D01*
X6368Y292D01*
X6384Y297D01*
X6399Y303D01*
X6415Y310D01*
X6430Y317D01*
X6444Y325D01*
X6459Y334D01*
X6473Y344D01*
X6486Y353D01*
X6499Y364D01*
X6512Y375D01*
X6524Y387D01*
X6536Y399D01*
X6547Y411D01*
X6557Y424D01*
X6567Y438D01*
X6577Y452D01*
X6585Y466D01*
X6593Y481D01*
X6601Y496D01*
X6607Y511D01*
X6614Y527D01*
X6619Y543D01*
X6624Y559D01*
X6628Y575D01*
X6631Y592D01*
X6633Y608D01*
X6635Y625D01*
X6636Y642D01*
X6637Y659D01*
X6636Y675D01*
X6635Y692D01*
X6633Y709D01*
X6631Y725D01*
X6628Y742D01*
X6624Y758D01*
X6619Y774D01*
X6614Y790D01*
X6607Y806D01*
X6601Y821D01*
X6593Y836D01*
X6585Y851D01*
X6577Y865D01*
X6567Y879D01*
X6557Y893D01*
X6547Y906D01*
X6536Y919D01*
X6524Y931D01*
X6512Y942D01*
X6499Y953D01*
X6486Y964D01*
X6473Y974D01*
X6459Y983D01*
X6444Y992D01*
X6430Y1000D01*
X6415Y1007D01*
X6399Y1014D01*
X6384Y1020D01*
X6368Y1026D01*
X6352Y1030D01*
X6335Y1034D01*
X6319Y1038D01*
X6302Y1040D01*
X6286Y1042D01*
X6269Y1043D01*
X6252Y1043D01*
D02*
G37*
%LPD*%
D27*
X7909Y314D02*
X10536D01*
X7795Y428D02*
X7909Y314D01*
X10536D02*
X11123Y901D01*
X9465Y618D02*
X9722D01*
X9774Y566D01*
X10346D01*
X11076Y1296D01*
X11381D01*
D29*
X9863Y886D02*
X10238D01*
X9863Y4796D02*
Y4796D01*
X9644Y5014D02*
Y5973D01*
Y5014D02*
X9863Y4796D01*
X10238Y886D02*
X10730Y1379D01*
X9272Y4126D02*
X10189D01*
D30*
X12386Y6250D02*
X13173D01*
D33*
X7166Y659D02*
D03*
X6252D02*
D03*
D34*
X984Y7677D02*
D03*
Y984D02*
D03*
X12789D02*
D03*
Y7677D02*
D03*
D35*
Y3346D02*
D03*
Y5315D02*
D03*
X984Y3346D02*
D03*
Y5315D02*
D03*
D36*
X6864Y2797D02*
D03*
X6270Y1760D02*
D03*
Y1260D02*
D03*
X7795Y428D02*
D03*
X9863Y886D02*
D03*
X9465Y618D02*
D03*
X11123Y901D02*
D03*
X11381Y1296D02*
D03*
X9714Y7978D02*
D03*
Y7668D02*
D03*
X10863Y7978D02*
D03*
Y7668D02*
D03*
X10730Y1379D02*
D03*
X9272Y4126D02*
D03*
X10394Y2416D02*
D03*
Y2022D02*
D03*
X7677Y4724D02*
D03*
X7681Y4421D02*
D03*
X10394Y2809D02*
D03*
X10189Y4126D02*
D03*
X9863Y4796D02*
D03*
X8819Y2022D02*
D03*
Y2809D02*
D03*
X9644Y5973D02*
D03*
X8483Y920D02*
D03*
X8218Y916D02*
D03*
X8819Y2416D02*
D03*
X3150Y1575D02*
D03*
X2854D02*
D03*
X3445D02*
D03*
X3740D02*
D03*
X3744Y1271D02*
D03*
X3449D02*
D03*
X2858D02*
D03*
X3153D02*
D03*
X4331Y1575D02*
D03*
X4035D02*
D03*
X4626D02*
D03*
X4921D02*
D03*
X4925Y1271D02*
D03*
X4630D02*
D03*
X4039D02*
D03*
X4335D02*
D03*
X5217Y1575D02*
D03*
X5220Y1271D02*
D03*
X7972Y4724D02*
D03*
X8268D02*
D03*
X8563D02*
D03*
X8567Y4421D02*
D03*
X8272D02*
D03*
X7976D02*
D03*
X10480Y7668D02*
D03*
X10097D02*
D03*
X11246D02*
D03*
X11629D02*
D03*
Y7978D02*
D03*
X11246D02*
D03*
X10097D02*
D03*
X10480D02*
D03*
D37*
X9607Y2416D02*
D03*
X9213Y2022D02*
D03*
Y2416D02*
D03*
Y2809D02*
D03*
X9607D02*
D03*
X10001D02*
D03*
Y2416D02*
D03*
Y2022D02*
D03*
X9607D02*
D03*
D38*
X12386Y6250D02*
D03*
X1468Y2392D02*
D03*
X13173Y6250D02*
D03*
X8072Y3374D02*
D03*
Y2587D02*
D03*
%TF.MD5,97869c9e8cb4572e04d75ed7667ba56a*%
M02*
