M48
;Layer_Color=9474304
;FILE_FORMAT=2:4
INCH,LZ
;TYPE=PLATED
T1F00S00C0.0157
T2F00S00C0.0472
T3F00S00C0.0787
%
T01
X002858Y001271
X003153
X003449
X003744
X004039
X004335
X00463
X004925
X00522
X005217Y001575
X004921
X004626
X004331
X004035
X00374
X003445
X00315
X002854
X00627Y00176
Y00126
X006864Y002797
X008819Y002809
X009213
Y002416
X008819
Y002022
X009213
X009607
Y002416
Y002809
X010001
Y002416
Y002022
X010394
Y002416
Y002809
X010189Y004126
X009272
X008567Y004421
X008272
X007976
X007681
X007677Y004724
X007972
X008268
X008563
X009863Y004796
X009644Y005973
X009863Y000886
X009465Y000618
X008483Y00092
X008218Y000916
X007795Y000428
X011123Y000901
X011381Y001296
X01073Y001379
X010863Y007668
Y007978
X011246
Y007668
X011629
Y007978
X01048
Y007668
X010097
Y007978
X009714
Y007668
T02
X001468Y002392
X006252Y000659
X007166
X008072Y002587
Y003374
X012386Y00625
X013173
T03
X000984Y000984
X012789
Y007677
X000984Y007677
M30
