%TF.GenerationSoftware,Altium Limited,Altium Designer,20.1.8 (145)*%
G04 Layer_Color=16711935*
%FSLAX24Y24*%
%MOIN*%
%TF.SameCoordinates,2251247C-4072-41CD-9A68-8E7E2D596FDF*%
%TF.FilePolarity,Negative*%
%TF.FileFunction,Soldermask,Bot*%
%TF.Part,Single*%
G01*
G75*
%TA.AperFunction,ViaPad*%
%ADD36C,0.0276*%
%TA.AperFunction,ComponentPad*%
%ADD37C,0.0591*%
G04:AMPARAMS|DCode=38|XSize=59.1mil|YSize=59.1mil|CornerRadius=5.9mil|HoleSize=0mil|Usage=FLASHONLY|Rotation=180.000|XOffset=0mil|YOffset=0mil|HoleType=Round|Shape=RoundedRectangle|*
%AMROUNDEDRECTD38*
21,1,0.0591,0.0472,0,0,180.0*
21,1,0.0472,0.0591,0,0,180.0*
1,1,0.0118,-0.0236,0.0236*
1,1,0.0118,0.0236,0.0236*
1,1,0.0118,0.0236,-0.0236*
1,1,0.0118,-0.0236,-0.0236*
%
%ADD38ROUNDEDRECTD38*%
%ADD49C,0.0315*%
G04:AMPARAMS|DCode=50|XSize=66.9mil|YSize=82.7mil|CornerRadius=8.3mil|HoleSize=0mil|Usage=FLASHONLY|Rotation=0.000|XOffset=0mil|YOffset=0mil|HoleType=Round|Shape=RoundedRectangle|*
%AMROUNDEDRECTD50*
21,1,0.0669,0.0661,0,0,0.0*
21,1,0.0504,0.0827,0,0,0.0*
1,1,0.0165,0.0252,-0.0331*
1,1,0.0165,-0.0252,-0.0331*
1,1,0.0165,-0.0252,0.0331*
1,1,0.0165,0.0252,0.0331*
%
%ADD50ROUNDEDRECTD50*%
%ADD51C,0.0748*%
%TA.AperFunction,ViaPad*%
%ADD52O,0.1417X0.0787*%
%ADD53C,0.1378*%
%TA.AperFunction,ComponentPad*%
G04:AMPARAMS|DCode=54|XSize=55.1mil|YSize=82.7mil|CornerRadius=27.6mil|HoleSize=0mil|Usage=FLASHONLY|Rotation=0.000|XOffset=0mil|YOffset=0mil|HoleType=Round|Shape=RoundedRectangle|*
%AMROUNDEDRECTD54*
21,1,0.0551,0.0276,0,0,0.0*
21,1,0.0000,0.0827,0,0,0.0*
1,1,0.0551,0.0000,-0.0138*
1,1,0.0551,0.0000,-0.0138*
1,1,0.0551,0.0000,0.0138*
1,1,0.0551,0.0000,0.0138*
%
%ADD54ROUNDEDRECTD54*%
G04:AMPARAMS|DCode=55|XSize=82.7mil|YSize=82.7mil|CornerRadius=21.7mil|HoleSize=0mil|Usage=FLASHONLY|Rotation=0.000|XOffset=0mil|YOffset=0mil|HoleType=Round|Shape=RoundedRectangle|*
%AMROUNDEDRECTD55*
21,1,0.0827,0.0394,0,0,0.0*
21,1,0.0394,0.0827,0,0,0.0*
1,1,0.0433,0.0197,-0.0197*
1,1,0.0433,-0.0197,-0.0197*
1,1,0.0433,-0.0197,0.0197*
1,1,0.0433,0.0197,0.0197*
%
%ADD55ROUNDEDRECTD55*%
D36*
X5759Y10852D02*
D03*
D37*
X15735Y4379D02*
D03*
Y3379D02*
D03*
Y2379D02*
D03*
X16735D02*
D03*
Y4379D02*
D03*
D38*
Y3379D02*
D03*
D49*
X16139Y9370D02*
D03*
X16848D02*
D03*
D50*
X3926Y749D02*
D03*
D51*
X2779D02*
D03*
D52*
X915Y7697D02*
D03*
Y5295D02*
D03*
X16407Y7697D02*
D03*
Y5295D02*
D03*
D53*
X16142Y11417D02*
D03*
Y1181D02*
D03*
X1181D02*
D03*
Y11417D02*
D03*
D54*
X7899Y699D02*
D03*
X7107D02*
D03*
D55*
X6219D02*
D03*
X5199Y709D02*
D03*
%TF.MD5,d25fc2c1311247c5a4ec0eaa9a77e706*%
M02*
