%TF.GenerationSoftware,Altium Limited,Altium Designer,20.1.8 (145)*%
G04 Layer_Color=65535*
%FSLAX24Y24*%
%MOIN*%
%TF.SameCoordinates,2251247C-4072-41CD-9A68-8E7E2D596FDF*%
%TF.FilePolarity,Positive*%
%TF.FileFunction,Legend,Bot*%
%TF.Part,Single*%
G01*
G75*
%TA.AperFunction,NonConductor*%
%ADD48C,0.0200*%
G36*
X8140Y4913D02*
X8145Y4911D01*
X8151Y4910D01*
X8157Y4907D01*
X8163Y4903D01*
X8169Y4899D01*
X8169Y4898D01*
X8171Y4896D01*
X8173Y4893D01*
X8176Y4889D01*
X8178Y4884D01*
X8180Y4877D01*
X8182Y4870D01*
X8183Y4862D01*
Y4861D01*
Y4858D01*
X8182Y4854D01*
X8181Y4848D01*
X8179Y4842D01*
X8177Y4835D01*
X8174Y4828D01*
X8169Y4822D01*
X8169Y4822D01*
X8167Y4820D01*
X8164Y4818D01*
X8160Y4816D01*
X8154Y4813D01*
X8148Y4810D01*
X8140Y4809D01*
X8132Y4808D01*
X8128D01*
X8124Y4809D01*
X8119Y4810D01*
X8113Y4811D01*
X8108Y4814D01*
X8102Y4818D01*
X8097Y4822D01*
X8096Y4823D01*
X8095Y4825D01*
X8092Y4828D01*
X8090Y4833D01*
X8088Y4839D01*
X8086Y4846D01*
X8084Y4853D01*
X8084Y4862D01*
Y4864D01*
Y4866D01*
X8084Y4870D01*
X8086Y4875D01*
X8087Y4880D01*
X8090Y4887D01*
X8093Y4892D01*
X8098Y4898D01*
X8098Y4899D01*
X8100Y4900D01*
X8103Y4903D01*
X8107Y4906D01*
X8112Y4909D01*
X8118Y4911D01*
X8125Y4913D01*
X8132Y4913D01*
X8136D01*
X8140Y4913D01*
D02*
G37*
G36*
X8250Y4570D02*
X14650D01*
Y3985D01*
X3820D01*
Y4570D01*
X8001D01*
Y4657D01*
X8002Y4654D01*
X8002Y4651D01*
X8003Y4647D01*
X8006Y4637D01*
X8010Y4627D01*
X8014Y4621D01*
X8017Y4616D01*
X8022Y4610D01*
X8027Y4605D01*
X8033Y4599D01*
X8040Y4595D01*
X8040D01*
X8042Y4594D01*
X8044Y4592D01*
X8047Y4591D01*
X8050Y4589D01*
X8055Y4587D01*
X8060Y4585D01*
X8066Y4583D01*
X8072Y4580D01*
X8079Y4578D01*
X8095Y4574D01*
X8113Y4571D01*
X8123Y4570D01*
X8132Y4570D01*
X8139D01*
X8143Y4570D01*
X8149Y4571D01*
X8155Y4572D01*
X8163Y4573D01*
X8171Y4575D01*
X8180Y4577D01*
X8189Y4579D01*
X8198Y4583D01*
X8209Y4586D01*
X8218Y4591D01*
X8228Y4596D01*
X8239Y4602D01*
X8249Y4609D01*
X8208Y4659D01*
X8207Y4659D01*
X8206Y4658D01*
X8204Y4657D01*
X8201Y4654D01*
X8198Y4652D01*
X8194Y4650D01*
X8185Y4644D01*
X8173Y4638D01*
X8161Y4633D01*
X8146Y4629D01*
X8138Y4628D01*
X8131Y4628D01*
X8126D01*
X8121Y4628D01*
X8114Y4629D01*
X8107Y4630D01*
X8099Y4631D01*
X8091Y4633D01*
X8084Y4636D01*
X8083Y4637D01*
X8081Y4638D01*
X8078Y4640D01*
X8075Y4643D01*
X8071Y4646D01*
X8068Y4650D01*
X8066Y4654D01*
X8065Y4659D01*
Y4660D01*
Y4661D01*
X8066Y4664D01*
X8068Y4668D01*
X8071Y4672D01*
X8073Y4674D01*
X8075Y4676D01*
X8079Y4679D01*
X8083Y4680D01*
X8087Y4682D01*
X8093Y4683D01*
X8099Y4684D01*
X8111D01*
X8114Y4684D01*
X8119D01*
X8125Y4683D01*
X8132Y4683D01*
X8139Y4681D01*
X8140D01*
X8143Y4681D01*
X8147D01*
X8151Y4680D01*
X8162Y4680D01*
X8167Y4679D01*
X8175D01*
X8178Y4680D01*
X8182D01*
X8187Y4681D01*
X8193Y4681D01*
X8205Y4685D01*
X8212Y4688D01*
X8218Y4691D01*
X8224Y4695D01*
X8229Y4699D01*
X8233Y4705D01*
X8236Y4711D01*
X8239Y4719D01*
X8239Y4728D01*
Y4728D01*
Y4730D01*
X8239Y4733D01*
X8238Y4736D01*
X8236Y4740D01*
X8235Y4745D01*
X8232Y4750D01*
X8228Y4755D01*
X8228Y4755D01*
X8226Y4757D01*
X8224Y4759D01*
X8221Y4762D01*
X8217Y4765D01*
X8213Y4769D01*
X8208Y4772D01*
X8202Y4774D01*
X8203Y4775D01*
X8204Y4776D01*
X8207Y4778D01*
X8210Y4780D01*
X8213Y4784D01*
X8217Y4787D01*
X8221Y4792D01*
X8226Y4797D01*
X8231Y4803D01*
X8235Y4810D01*
X8239Y4817D01*
X8242Y4825D01*
X8245Y4833D01*
X8247Y4843D01*
X8249Y4853D01*
X8250Y4863D01*
Y4570D01*
D02*
G37*
G36*
X14650D02*
X8250D01*
Y4868D01*
X8249Y4870D01*
X8249Y4874D01*
X8248Y4879D01*
X8246Y4889D01*
X8242Y4901D01*
X8239Y4907D01*
X8236Y4913D01*
X8232Y4920D01*
X8228Y4926D01*
X8223Y4932D01*
X8217Y4937D01*
X8216Y4938D01*
X8215Y4939D01*
X8213Y4940D01*
X8211Y4942D01*
X8208Y4944D01*
X8204Y4947D01*
X8199Y4950D01*
X8194Y4953D01*
X8183Y4958D01*
X8169Y4962D01*
X8153Y4966D01*
X8145Y4966D01*
X8136Y4967D01*
X8129D01*
X8126Y4966D01*
X8123D01*
X8113Y4965D01*
X8103Y4963D01*
X8093Y4961D01*
X8082Y4957D01*
X8072Y4953D01*
X8047Y4983D01*
X8001Y4942D01*
X8033Y4918D01*
X8032Y4917D01*
X8030Y4914D01*
X8028Y4909D01*
X8024Y4902D01*
X8021Y4894D01*
X8019Y4884D01*
X8017Y4873D01*
X8016Y4861D01*
Y4860D01*
Y4858D01*
Y4856D01*
X8017Y4853D01*
X8017Y4848D01*
X8018Y4844D01*
X8020Y4833D01*
X8023Y4821D01*
X8028Y4808D01*
X8032Y4802D01*
X8036Y4795D01*
X8040Y4790D01*
X8046Y4784D01*
X8046Y4783D01*
X8047Y4783D01*
X8049Y4781D01*
X8051Y4779D01*
X8054Y4777D01*
X8057Y4775D01*
X8066Y4770D01*
X8077Y4765D01*
X8089Y4760D01*
X8103Y4757D01*
X8112Y4756D01*
X8120Y4755D01*
X8124D01*
X8131Y4756D01*
X8138Y4757D01*
X8149Y4758D01*
X8150D01*
X8151Y4757D01*
X8153Y4757D01*
X8155Y4755D01*
X8159Y4754D01*
X8163Y4752D01*
X8164D01*
X8165Y4751D01*
X8169Y4748D01*
X8173Y4745D01*
X8175Y4743D01*
X8175Y4741D01*
Y4740D01*
X8175Y4739D01*
X8174Y4737D01*
X8173Y4736D01*
X8171Y4734D01*
X8168Y4732D01*
X8163Y4731D01*
X8157Y4731D01*
X8154D01*
X8151Y4731D01*
X8147D01*
X8142Y4732D01*
X8136Y4733D01*
X8130Y4734D01*
X8129D01*
X8127Y4735D01*
X8123Y4735D01*
X8119Y4736D01*
X8114Y4737D01*
X8108Y4737D01*
X8097Y4738D01*
X8093D01*
X8088Y4737D01*
X8082Y4737D01*
X8075Y4736D01*
X8066Y4734D01*
X8058Y4732D01*
X8049Y4728D01*
X8040Y4724D01*
X8031Y4720D01*
X8023Y4713D01*
X8016Y4706D01*
X8010Y4697D01*
X8005Y4687D01*
X8002Y4674D01*
X8001Y4661D01*
Y4570D01*
X3820D01*
Y5185D01*
X14650D01*
Y4570D01*
D02*
G37*
%LPC*%
G36*
X11615Y4488D02*
X11451D01*
X11615D01*
D01*
D02*
G37*
G36*
X9602Y4493D02*
X9346D01*
Y4102D01*
X9598D01*
Y4121D01*
X9476Y4301D01*
X9476Y4301D01*
X9474Y4303D01*
X9473Y4306D01*
X9470Y4310D01*
X9468Y4314D01*
X9465Y4320D01*
X9461Y4325D01*
X9458Y4332D01*
X9451Y4346D01*
X9446Y4362D01*
X9443Y4369D01*
X9442Y4377D01*
X9440Y4384D01*
X9440Y4391D01*
Y4392D01*
Y4393D01*
X9440Y4395D01*
Y4398D01*
X9443Y4405D01*
X9444Y4409D01*
X9446Y4413D01*
X9449Y4417D01*
X9453Y4421D01*
X9457Y4425D01*
X9462Y4428D01*
X9468Y4431D01*
X9475Y4433D01*
X9483Y4435D01*
X9492Y4435D01*
X9496D01*
X9499Y4435D01*
X9502Y4434D01*
X9506Y4433D01*
X9515Y4430D01*
X9520Y4428D01*
X9525Y4425D01*
X9531Y4421D01*
X9536Y4417D01*
X9541Y4413D01*
X9546Y4407D01*
X9551Y4401D01*
X9556Y4393D01*
X9602Y4429D01*
Y4429D01*
X9601Y4430D01*
X9599Y4433D01*
X9596Y4439D01*
X9591Y4445D01*
X9585Y4452D01*
X9578Y4460D01*
X9569Y4468D01*
X9559Y4475D01*
X9559D01*
X9558Y4475D01*
X9557Y4476D01*
X9554Y4477D01*
X9548Y4480D01*
X9540Y4484D01*
X9531Y4487D01*
X9520Y4490D01*
X9507Y4492D01*
X9495Y4493D01*
X9602D01*
D01*
D02*
G37*
G36*
X11877Y4488D02*
X11730Y4488D01*
Y4102D01*
X11799Y4102D01*
Y4379D01*
X11877Y4332D01*
Y4398D01*
X11875Y4398D01*
X11873Y4399D01*
X11869Y4401D01*
X11864Y4404D01*
X11858Y4407D01*
X11851Y4412D01*
X11843Y4417D01*
X11833Y4422D01*
X11824Y4429D01*
X11815Y4436D01*
X11795Y4451D01*
X11775Y4469D01*
X11766Y4478D01*
X11758Y4488D01*
X11877Y4488D01*
D01*
D02*
G37*
G36*
X8775Y4488D02*
X8629D01*
Y4102D01*
X8697D01*
Y4379D01*
X8775Y4332D01*
Y4398D01*
Y4398D01*
X8774Y4398D01*
X8772Y4399D01*
X8768Y4401D01*
X8762Y4404D01*
X8756Y4407D01*
X8749Y4412D01*
X8741Y4417D01*
X8732Y4422D01*
X8723Y4429D01*
X8713Y4436D01*
X8693Y4451D01*
X8674Y4469D01*
X8665Y4478D01*
X8656Y4488D01*
X8775D01*
D01*
D02*
G37*
G36*
X7948D02*
X7802D01*
Y4102D01*
X7870D01*
Y4379D01*
X7948Y4332D01*
Y4398D01*
X7947Y4398D01*
X7945Y4399D01*
X7940Y4401D01*
X7935Y4404D01*
X7929Y4407D01*
X7922Y4412D01*
X7914Y4417D01*
X7905Y4422D01*
X7895Y4429D01*
X7886Y4436D01*
X7866Y4451D01*
X7847Y4469D01*
X7838Y4478D01*
X7829Y4488D01*
X7948D01*
D01*
D02*
G37*
G36*
X7633D02*
X7487D01*
Y4102D01*
X7555D01*
Y4379D01*
X7633Y4332D01*
Y4398D01*
X7632Y4398D01*
X7630Y4399D01*
X7625Y4401D01*
X7620Y4404D01*
X7614Y4407D01*
X7607Y4412D01*
X7599Y4417D01*
X7590Y4422D01*
X7580Y4429D01*
X7571Y4436D01*
X7551Y4451D01*
X7532Y4469D01*
X7523Y4478D01*
X7514Y4488D01*
X7633D01*
D01*
D02*
G37*
G36*
X8171Y4396D02*
X8076D01*
Y4088D01*
D01*
Y4132D01*
X8077Y4129D01*
X8078Y4124D01*
X8080Y4119D01*
X8082Y4113D01*
X8086Y4107D01*
X8090Y4102D01*
X8091Y4102D01*
X8092Y4100D01*
X8095Y4098D01*
X8099Y4095D01*
X8105Y4093D01*
X8110Y4091D01*
X8117Y4089D01*
X8124Y4088D01*
X8127D01*
X8131Y4089D01*
X8135Y4090D01*
X8140Y4092D01*
X8146Y4094D01*
X8152Y4098D01*
X8157Y4102D01*
X8158Y4103D01*
X8160Y4105D01*
X8161Y4107D01*
X8164Y4112D01*
X8166Y4117D01*
X8168Y4123D01*
X8170Y4129D01*
X8171Y4136D01*
Y4139D01*
X8170Y4143D01*
X8169Y4147D01*
X8167Y4153D01*
X8165Y4158D01*
X8162Y4164D01*
X8157Y4169D01*
X8157Y4170D01*
X8155Y4172D01*
X8152Y4174D01*
X8148Y4176D01*
X8143Y4179D01*
X8137Y4181D01*
X8131Y4183D01*
X8124Y4183D01*
X8120D01*
X8117Y4183D01*
X8112Y4181D01*
X8107Y4180D01*
X8101Y4177D01*
X8095Y4174D01*
X8090Y4169D01*
X8090Y4169D01*
X8088Y4167D01*
X8086Y4164D01*
X8083Y4160D01*
X8081Y4155D01*
X8079Y4149D01*
X8077Y4143D01*
X8076Y4136D01*
Y4345D01*
X8077Y4342D01*
X8078Y4337D01*
X8080Y4332D01*
X8082Y4326D01*
X8086Y4320D01*
X8090Y4315D01*
X8091Y4314D01*
X8092Y4313D01*
X8095Y4310D01*
X8099Y4308D01*
X8105Y4306D01*
X8110Y4303D01*
X8117Y4302D01*
X8124Y4301D01*
X8127D01*
X8131Y4302D01*
X8135Y4303D01*
X8140Y4305D01*
X8146Y4307D01*
X8152Y4310D01*
X8157Y4315D01*
X8158Y4316D01*
X8160Y4317D01*
X8161Y4320D01*
X8164Y4324D01*
X8166Y4329D01*
X8168Y4335D01*
X8170Y4342D01*
X8171Y4349D01*
Y4352D01*
X8170Y4355D01*
X8169Y4360D01*
X8167Y4365D01*
X8165Y4371D01*
X8162Y4377D01*
X8157Y4382D01*
X8157Y4383D01*
X8155Y4384D01*
X8152Y4387D01*
X8148Y4389D01*
X8143Y4391D01*
X8137Y4394D01*
X8131Y4395D01*
X8124Y4396D01*
X8171D01*
D02*
G37*
G36*
X7343D02*
X7249D01*
Y4088D01*
D01*
Y4132D01*
X7250Y4129D01*
X7251Y4124D01*
X7253Y4119D01*
X7255Y4113D01*
X7258Y4107D01*
X7263Y4102D01*
X7264Y4102D01*
X7265Y4100D01*
X7268Y4098D01*
X7272Y4095D01*
X7278Y4093D01*
X7283Y4091D01*
X7290Y4089D01*
X7297Y4088D01*
X7300D01*
X7304Y4089D01*
X7308Y4090D01*
X7313Y4092D01*
X7319Y4094D01*
X7325Y4098D01*
X7330Y4102D01*
X7331Y4103D01*
X7332Y4105D01*
X7334Y4107D01*
X7336Y4112D01*
X7339Y4117D01*
X7341Y4123D01*
X7343Y4129D01*
X7343Y4136D01*
Y4139D01*
X7343Y4143D01*
X7342Y4147D01*
X7340Y4153D01*
X7338Y4158D01*
X7335Y4164D01*
X7330Y4169D01*
X7330Y4170D01*
X7328Y4172D01*
X7325Y4174D01*
X7321Y4176D01*
X7316Y4179D01*
X7310Y4181D01*
X7304Y4183D01*
X7297Y4183D01*
X7293D01*
X7290Y4183D01*
X7285Y4181D01*
X7280Y4180D01*
X7274Y4177D01*
X7268Y4174D01*
X7263Y4169D01*
X7262Y4169D01*
X7261Y4167D01*
X7258Y4164D01*
X7256Y4160D01*
X7254Y4155D01*
X7251Y4149D01*
X7250Y4143D01*
X7249Y4136D01*
Y4345D01*
X7250Y4342D01*
X7251Y4337D01*
X7253Y4332D01*
X7255Y4326D01*
X7258Y4320D01*
X7263Y4315D01*
X7264Y4314D01*
X7265Y4313D01*
X7268Y4310D01*
X7272Y4308D01*
X7278Y4306D01*
X7283Y4303D01*
X7290Y4302D01*
X7297Y4301D01*
X7300D01*
X7304Y4302D01*
X7308Y4303D01*
X7313Y4305D01*
X7319Y4307D01*
X7325Y4310D01*
X7330Y4315D01*
X7331Y4316D01*
X7332Y4317D01*
X7334Y4320D01*
X7336Y4324D01*
X7339Y4329D01*
X7341Y4335D01*
X7343Y4342D01*
X7343Y4349D01*
Y4352D01*
X7343Y4355D01*
X7342Y4360D01*
X7340Y4365D01*
X7338Y4371D01*
X7335Y4377D01*
X7330Y4382D01*
X7330Y4383D01*
X7328Y4384D01*
X7325Y4387D01*
X7321Y4389D01*
X7316Y4391D01*
X7310Y4394D01*
X7304Y4395D01*
X7297Y4396D01*
X7343D01*
D02*
G37*
G36*
X9792Y4493D02*
X9789D01*
X9787Y4492D01*
X9784D01*
X9780Y4492D01*
X9772Y4490D01*
X9761Y4487D01*
X9750Y4483D01*
X9737Y4477D01*
X9725Y4469D01*
X9719Y4464D01*
X9713Y4458D01*
X9706Y4452D01*
X9700Y4445D01*
X9695Y4438D01*
X9689Y4429D01*
X9684Y4420D01*
X9679Y4410D01*
X9674Y4399D01*
X9670Y4388D01*
X9666Y4375D01*
X9663Y4362D01*
X9661Y4347D01*
X9659Y4332D01*
X9658Y4315D01*
X9658Y4297D01*
Y4493D01*
D01*
Y4096D01*
D01*
Y4288D01*
X9658Y4282D01*
X9659Y4274D01*
X9659Y4265D01*
X9661Y4255D01*
X9662Y4244D01*
X9664Y4233D01*
X9666Y4221D01*
X9669Y4209D01*
X9673Y4196D01*
X9677Y4184D01*
X9682Y4173D01*
X9688Y4161D01*
X9694Y4151D01*
X9695Y4150D01*
X9696Y4149D01*
X9698Y4146D01*
X9701Y4142D01*
X9705Y4138D01*
X9709Y4133D01*
X9714Y4129D01*
X9721Y4124D01*
X9727Y4118D01*
X9735Y4114D01*
X9743Y4109D01*
X9753Y4105D01*
X9762Y4102D01*
X9773Y4099D01*
X9784Y4097D01*
X9796Y4096D01*
X9658D01*
X9933D01*
X9799D01*
X9803Y4097D01*
X9807D01*
X9813Y4098D01*
X9820Y4099D01*
X9827Y4101D01*
X9835Y4103D01*
X9844Y4106D01*
X9852Y4109D01*
X9861Y4113D01*
X9869Y4118D01*
X9878Y4124D01*
X9886Y4130D01*
X9893Y4138D01*
X9900Y4147D01*
X9900Y4147D01*
X9901Y4149D01*
X9903Y4152D01*
X9905Y4157D01*
X9907Y4162D01*
X9910Y4168D01*
X9914Y4176D01*
X9917Y4186D01*
X9920Y4196D01*
X9923Y4207D01*
X9926Y4221D01*
X9928Y4235D01*
X9931Y4250D01*
X9932Y4268D01*
X9933Y4286D01*
X9933Y4305D01*
Y4313D01*
X9933Y4318D01*
X9932Y4325D01*
X9931Y4333D01*
X9930Y4342D01*
X9929Y4351D01*
X9926Y4362D01*
X9924Y4373D01*
X9921Y4384D01*
X9917Y4395D01*
X9913Y4406D01*
X9908Y4417D01*
X9902Y4428D01*
X9895Y4439D01*
X9895Y4439D01*
X9894Y4441D01*
X9891Y4444D01*
X9888Y4447D01*
X9884Y4451D01*
X9880Y4456D01*
X9874Y4461D01*
X9868Y4466D01*
X9861Y4471D01*
X9853Y4476D01*
X9844Y4480D01*
X9836Y4484D01*
X9826Y4488D01*
X9815Y4491D01*
X9804Y4492D01*
X9792Y4493D01*
D02*
G37*
G36*
X7031D02*
X7028D01*
X7025Y4492D01*
X7023D01*
X7019Y4492D01*
X7010Y4490D01*
X7000Y4487D01*
X6989Y4483D01*
X6976Y4477D01*
X6964Y4469D01*
X6958Y4464D01*
X6952Y4458D01*
X6945Y4452D01*
X6939Y4445D01*
X6934Y4438D01*
X6928Y4429D01*
X6923Y4420D01*
X6917Y4410D01*
X6913Y4399D01*
X6909Y4388D01*
X6905Y4375D01*
X6902Y4362D01*
X6900Y4347D01*
X6898Y4332D01*
X6897Y4315D01*
X6897Y4297D01*
Y4493D01*
D01*
Y4096D01*
D01*
Y4288D01*
X6897Y4282D01*
X6898Y4274D01*
X6898Y4265D01*
X6899Y4255D01*
X6901Y4244D01*
X6903Y4233D01*
X6905Y4221D01*
X6908Y4209D01*
X6912Y4196D01*
X6916Y4184D01*
X6921Y4173D01*
X6927Y4161D01*
X6933Y4151D01*
X6934Y4150D01*
X6935Y4149D01*
X6937Y4146D01*
X6940Y4142D01*
X6943Y4138D01*
X6948Y4133D01*
X6953Y4129D01*
X6960Y4124D01*
X6966Y4118D01*
X6974Y4114D01*
X6982Y4109D01*
X6991Y4105D01*
X7001Y4102D01*
X7012Y4099D01*
X7023Y4097D01*
X7035Y4096D01*
X6897D01*
X7172D01*
X7038D01*
X7042Y4097D01*
X7046D01*
X7052Y4098D01*
X7059Y4099D01*
X7066Y4101D01*
X7074Y4103D01*
X7083Y4106D01*
X7091Y4109D01*
X7100Y4113D01*
X7108Y4118D01*
X7117Y4124D01*
X7125Y4130D01*
X7132Y4138D01*
X7139Y4147D01*
X7139Y4147D01*
X7140Y4149D01*
X7142Y4152D01*
X7144Y4157D01*
X7146Y4162D01*
X7149Y4168D01*
X7153Y4176D01*
X7156Y4186D01*
X7158Y4196D01*
X7162Y4207D01*
X7165Y4221D01*
X7167Y4235D01*
X7169Y4250D01*
X7171Y4268D01*
X7172Y4286D01*
X7172Y4305D01*
Y4313D01*
X7172Y4318D01*
X7171Y4325D01*
X7170Y4333D01*
X7169Y4342D01*
X7168Y4351D01*
X7165Y4362D01*
X7163Y4373D01*
X7160Y4384D01*
X7156Y4395D01*
X7152Y4406D01*
X7147Y4417D01*
X7141Y4428D01*
X7134Y4439D01*
X7134Y4439D01*
X7132Y4441D01*
X7130Y4444D01*
X7127Y4447D01*
X7123Y4451D01*
X7119Y4456D01*
X7113Y4461D01*
X7107Y4466D01*
X7099Y4471D01*
X7092Y4476D01*
X7083Y4480D01*
X7075Y4484D01*
X7065Y4488D01*
X7054Y4491D01*
X7043Y4492D01*
X7031Y4493D01*
D02*
G37*
G36*
X6847D02*
X6593D01*
Y4094D01*
D01*
Y4321D01*
X6594Y4317D01*
Y4312D01*
X6595Y4305D01*
X6596Y4298D01*
X6598Y4289D01*
X6600Y4279D01*
X6602Y4269D01*
X6606Y4258D01*
X6610Y4246D01*
X6615Y4233D01*
X6621Y4221D01*
X6628Y4208D01*
X6636Y4194D01*
X6645Y4181D01*
X6646Y4180D01*
X6647Y4178D01*
X6650Y4174D01*
X6654Y4169D01*
X6659Y4164D01*
X6665Y4157D01*
X6671Y4150D01*
X6679Y4143D01*
X6687Y4136D01*
X6695Y4128D01*
X6705Y4121D01*
X6715Y4114D01*
X6726Y4108D01*
X6736Y4102D01*
X6747Y4098D01*
X6758Y4094D01*
D01*
X6795Y4132D01*
X6794Y4133D01*
X6791Y4135D01*
X6787Y4137D01*
X6782Y4140D01*
X6775Y4144D01*
X6768Y4150D01*
X6760Y4156D01*
X6751Y4163D01*
X6742Y4171D01*
X6732Y4180D01*
X6723Y4189D01*
X6713Y4199D01*
X6705Y4210D01*
X6697Y4222D01*
X6689Y4235D01*
X6682Y4247D01*
X6683Y4247D01*
X6685Y4246D01*
X6689Y4245D01*
X6694Y4244D01*
X6701Y4242D01*
X6708Y4241D01*
X6717Y4240D01*
X6727Y4240D01*
X6732D01*
X6736Y4240D01*
X6741Y4241D01*
X6746Y4242D01*
X6752Y4243D01*
X6758Y4244D01*
X6772Y4248D01*
X6779Y4251D01*
X6786Y4254D01*
X6794Y4258D01*
X6801Y4262D01*
X6808Y4268D01*
X6814Y4273D01*
X6815Y4274D01*
X6815Y4275D01*
X6817Y4277D01*
X6819Y4280D01*
X6821Y4283D01*
X6824Y4287D01*
X6827Y4292D01*
X6830Y4298D01*
X6834Y4303D01*
X6836Y4310D01*
X6839Y4318D01*
X6842Y4326D01*
X6844Y4335D01*
X6846Y4344D01*
X6846Y4354D01*
X6847Y4365D01*
Y4370D01*
X6846Y4374D01*
X6846Y4379D01*
X6845Y4385D01*
X6844Y4391D01*
X6843Y4398D01*
X6839Y4413D01*
X6836Y4420D01*
X6832Y4428D01*
X6829Y4436D01*
X6824Y4443D01*
X6819Y4450D01*
X6813Y4457D01*
X6813Y4458D01*
X6812Y4459D01*
X6810Y4461D01*
X6807Y4463D01*
X6804Y4465D01*
X6800Y4469D01*
X6795Y4472D01*
X6790Y4475D01*
X6784Y4479D01*
X6778Y4481D01*
X6763Y4487D01*
X6755Y4490D01*
X6746Y4491D01*
X6737Y4492D01*
X6728Y4493D01*
X6847D01*
D01*
D02*
G37*
G36*
X10646D02*
X10632D01*
X10628Y4492D01*
X10624D01*
X10618Y4492D01*
X10607Y4490D01*
X10593Y4487D01*
X10580Y4482D01*
X10567Y4475D01*
X10561Y4471D01*
X10555Y4466D01*
X10554D01*
X10554Y4465D01*
X10552Y4464D01*
X10550Y4462D01*
X10546Y4456D01*
X10540Y4448D01*
X10534Y4438D01*
X10529Y4426D01*
X10526Y4412D01*
X10525Y4404D01*
X10525Y4396D01*
Y4395D01*
Y4392D01*
X10525Y4387D01*
X10527Y4381D01*
X10529Y4373D01*
X10532Y4365D01*
X10536Y4356D01*
X10541Y4346D01*
X10542Y4345D01*
X10544Y4342D01*
X10548Y4338D01*
X10552Y4332D01*
X10558Y4326D01*
X10564Y4320D01*
X10570Y4314D01*
X10578Y4310D01*
X10577D01*
X10577Y4309D01*
X10574Y4307D01*
X10569Y4305D01*
X10563Y4301D01*
X10556Y4295D01*
X10548Y4287D01*
X10540Y4279D01*
X10532Y4268D01*
Y4268D01*
X10530Y4267D01*
X10530Y4265D01*
X10528Y4263D01*
X10525Y4257D01*
X10521Y4250D01*
X10517Y4241D01*
X10514Y4232D01*
X10511Y4221D01*
X10510Y4212D01*
Y4493D01*
D01*
Y4096D01*
D01*
Y4206D01*
X10511Y4202D01*
X10511Y4198D01*
X10512Y4192D01*
X10513Y4187D01*
X10514Y4180D01*
X10519Y4166D01*
X10521Y4160D01*
X10525Y4153D01*
X10529Y4146D01*
X10533Y4139D01*
X10539Y4132D01*
X10545Y4127D01*
X10546Y4126D01*
X10547Y4125D01*
X10548Y4124D01*
X10551Y4122D01*
X10555Y4120D01*
X10559Y4117D01*
X10564Y4114D01*
X10569Y4112D01*
X10576Y4109D01*
X10583Y4106D01*
X10590Y4103D01*
X10599Y4101D01*
X10607Y4099D01*
X10617Y4098D01*
X10627Y4097D01*
X10638Y4096D01*
X10644D01*
X10648Y4097D01*
X10653Y4098D01*
X10659Y4098D01*
X10665Y4099D01*
X10672Y4100D01*
X10687Y4103D01*
X10702Y4109D01*
X10710Y4112D01*
X10717Y4116D01*
X10724Y4121D01*
X10730Y4126D01*
X10730Y4127D01*
X10731Y4127D01*
X10733Y4129D01*
X10735Y4132D01*
X10737Y4135D01*
X10740Y4138D01*
X10743Y4143D01*
X10746Y4148D01*
X10749Y4154D01*
X10752Y4160D01*
X10755Y4167D01*
X10757Y4175D01*
X10759Y4183D01*
X10761Y4192D01*
X10762Y4201D01*
X10762Y4212D01*
Y4217D01*
X10761Y4222D01*
X10760Y4229D01*
X10758Y4238D01*
X10755Y4247D01*
X10751Y4258D01*
X10746Y4268D01*
Y4269D01*
X10745Y4269D01*
X10743Y4273D01*
X10739Y4278D01*
X10733Y4284D01*
X10727Y4291D01*
X10719Y4298D01*
X10711Y4306D01*
X10701Y4312D01*
X10702Y4313D01*
X10704Y4314D01*
X10709Y4318D01*
X10713Y4322D01*
X10718Y4327D01*
X10724Y4333D01*
X10730Y4341D01*
X10735Y4349D01*
X10736Y4350D01*
X10737Y4353D01*
X10739Y4358D01*
X10741Y4364D01*
X10744Y4371D01*
X10746Y4379D01*
X10748Y4387D01*
X10748Y4396D01*
Y4396D01*
Y4398D01*
Y4400D01*
X10748Y4403D01*
X10747Y4407D01*
X10747Y4412D01*
X10744Y4421D01*
X10741Y4433D01*
X10735Y4444D01*
X10732Y4450D01*
X10728Y4456D01*
X10722Y4461D01*
X10717Y4466D01*
X10717Y4467D01*
X10715Y4468D01*
X10714Y4469D01*
X10711Y4470D01*
X10709Y4473D01*
X10704Y4475D01*
X10700Y4477D01*
X10695Y4480D01*
X10684Y4484D01*
X10670Y4489D01*
X10654Y4492D01*
X10646Y4493D01*
D02*
G37*
G36*
X10125D02*
X10119D01*
X10115Y4492D01*
X10110D01*
X10105Y4492D01*
X10098Y4491D01*
X10091Y4490D01*
X10076Y4487D01*
X10061Y4481D01*
X10046Y4475D01*
X10039Y4470D01*
X10032Y4466D01*
X10032Y4465D01*
X10031Y4465D01*
X10029Y4463D01*
X10027Y4461D01*
X10025Y4458D01*
X10022Y4455D01*
X10015Y4446D01*
X10009Y4436D01*
X10004Y4423D01*
X10002Y4416D01*
X10000Y4408D01*
X9999Y4400D01*
X9999Y4391D01*
Y4391D01*
Y4390D01*
Y4387D01*
X9999Y4383D01*
X10000Y4379D01*
X10001Y4374D01*
X10002Y4368D01*
X10004Y4361D01*
X10006Y4354D01*
X10009Y4345D01*
X10013Y4336D01*
X10017Y4327D01*
X10022Y4316D01*
X10028Y4306D01*
X10034Y4294D01*
X10042Y4282D01*
X10120Y4162D01*
X9976D01*
Y4493D01*
D01*
Y4102D01*
X10232D01*
X10228D01*
Y4121D01*
X10106Y4301D01*
X10106Y4301D01*
X10105Y4303D01*
X10103Y4306D01*
X10100Y4310D01*
X10098Y4314D01*
X10095Y4320D01*
X10091Y4325D01*
X10088Y4332D01*
X10081Y4346D01*
X10076Y4362D01*
X10073Y4369D01*
X10072Y4377D01*
X10070Y4384D01*
X10070Y4391D01*
Y4392D01*
Y4393D01*
X10070Y4395D01*
Y4398D01*
X10073Y4405D01*
X10074Y4409D01*
X10076Y4413D01*
X10079Y4417D01*
X10083Y4421D01*
X10087Y4425D01*
X10092Y4428D01*
X10098Y4431D01*
X10105Y4433D01*
X10113Y4435D01*
X10122Y4435D01*
X10126D01*
X10129Y4435D01*
X10132Y4434D01*
X10136Y4433D01*
X10145Y4430D01*
X10150Y4428D01*
X10155Y4425D01*
X10161Y4421D01*
X10166Y4417D01*
X10171Y4413D01*
X10176Y4407D01*
X10181Y4401D01*
X10186Y4393D01*
X10232Y4429D01*
Y4429D01*
X10231Y4430D01*
X10229Y4433D01*
X10226Y4439D01*
X10221Y4445D01*
X10215Y4452D01*
X10208Y4460D01*
X10199Y4468D01*
X10189Y4475D01*
X10189D01*
X10188Y4475D01*
X10187Y4476D01*
X10184Y4477D01*
X10178Y4480D01*
X10170Y4484D01*
X10161Y4487D01*
X10150Y4490D01*
X10137Y4492D01*
X10125Y4493D01*
D02*
G37*
G36*
X11404Y4488D02*
X11374D01*
Y4257D01*
X11336D01*
Y4102D01*
D01*
Y4202D01*
X11374D01*
Y4102D01*
X11336D01*
X11461D01*
X11440D01*
Y4202D01*
X11615D01*
Y4241D01*
X11404Y4488D01*
D02*
G37*
G36*
X11314D02*
X11110D01*
Y4102D01*
D01*
Y4488D01*
X11255Y4102D01*
X11110D01*
X11314D01*
D01*
X11169Y4488D01*
X11314D01*
D02*
G37*
G36*
X10329D02*
X10270D01*
X10415Y4102D01*
X10270D01*
Y4488D01*
Y4102D01*
X10474D01*
D01*
X10329Y4488D01*
D02*
G37*
G36*
X11088Y4493D02*
X10813D01*
Y4096D01*
D01*
Y4288D01*
X10813Y4282D01*
X10814Y4274D01*
X10814Y4265D01*
X10815Y4255D01*
X10817Y4244D01*
X10819Y4233D01*
X10821Y4221D01*
X10824Y4209D01*
X10828Y4196D01*
X10832Y4184D01*
X10837Y4173D01*
X10843Y4161D01*
X10849Y4151D01*
X10850Y4150D01*
X10851Y4149D01*
X10853Y4146D01*
X10856Y4142D01*
X10859Y4138D01*
X10864Y4133D01*
X10869Y4129D01*
X10876Y4124D01*
X10882Y4118D01*
X10890Y4114D01*
X10898Y4109D01*
X10907Y4105D01*
X10917Y4102D01*
X10928Y4099D01*
X10939Y4097D01*
X10951Y4096D01*
X11088D01*
X10954D01*
X10958Y4097D01*
X10962D01*
X10968Y4098D01*
X10975Y4099D01*
X10982Y4101D01*
X10990Y4103D01*
X10999Y4106D01*
X11007Y4109D01*
X11016Y4113D01*
X11024Y4118D01*
X11033Y4124D01*
X11041Y4130D01*
X11048Y4138D01*
X11055Y4147D01*
X11055Y4147D01*
X11056Y4149D01*
X11058Y4152D01*
X11060Y4157D01*
X11062Y4162D01*
X11065Y4168D01*
X11069Y4176D01*
X11071Y4186D01*
X11074Y4196D01*
X11078Y4207D01*
X11081Y4221D01*
X11083Y4235D01*
X11085Y4250D01*
X11087Y4268D01*
X11088Y4286D01*
X11088Y4305D01*
Y4313D01*
X11088Y4318D01*
X11087Y4325D01*
X11086Y4333D01*
X11085Y4342D01*
X11084Y4351D01*
X11081Y4362D01*
X11079Y4373D01*
X11076Y4384D01*
X11072Y4395D01*
X11068Y4406D01*
X11063Y4417D01*
X11057Y4428D01*
X11050Y4439D01*
X11050Y4439D01*
X11048Y4441D01*
X11046Y4444D01*
X11043Y4447D01*
X11039Y4451D01*
X11035Y4456D01*
X11029Y4461D01*
X11023Y4466D01*
X11015Y4471D01*
X11008Y4476D01*
X10999Y4480D01*
X10991Y4484D01*
X10981Y4488D01*
X10970Y4491D01*
X10959Y4492D01*
X10947Y4493D01*
X11088D01*
D02*
G37*
G36*
X10762Y4096D02*
X10664D01*
X10762D01*
D01*
D02*
G37*
G36*
X9303Y4493D02*
X9028D01*
Y4096D01*
D01*
Y4288D01*
X9028Y4282D01*
X9029Y4274D01*
X9029Y4265D01*
X9031Y4255D01*
X9032Y4244D01*
X9034Y4233D01*
X9036Y4221D01*
X9039Y4209D01*
X9043Y4196D01*
X9047Y4184D01*
X9052Y4173D01*
X9058Y4161D01*
X9064Y4151D01*
X9065Y4150D01*
X9066Y4149D01*
X9068Y4146D01*
X9071Y4142D01*
X9075Y4138D01*
X9079Y4133D01*
X9084Y4129D01*
X9091Y4124D01*
X9097Y4118D01*
X9105Y4114D01*
X9113Y4109D01*
X9122Y4105D01*
X9132Y4102D01*
X9143Y4099D01*
X9154Y4097D01*
X9166Y4096D01*
X9169D01*
X9173Y4097D01*
X9177D01*
X9183Y4098D01*
X9190Y4099D01*
X9197Y4101D01*
X9205Y4103D01*
X9214Y4106D01*
X9222Y4109D01*
X9231Y4113D01*
X9239Y4118D01*
X9248Y4124D01*
X9256Y4130D01*
X9263Y4138D01*
X9270Y4147D01*
X9270Y4147D01*
X9271Y4149D01*
X9273Y4152D01*
X9275Y4157D01*
X9277Y4162D01*
X9280Y4168D01*
X9284Y4176D01*
X9287Y4186D01*
X9290Y4196D01*
X9293Y4207D01*
X9296Y4221D01*
X9298Y4235D01*
X9301Y4250D01*
X9302Y4268D01*
X9303Y4286D01*
X9303Y4305D01*
Y4313D01*
X9303Y4318D01*
X9302Y4325D01*
X9301Y4333D01*
X9300Y4342D01*
X9299Y4351D01*
X9296Y4362D01*
X9294Y4373D01*
X9291Y4384D01*
X9287Y4395D01*
X9283Y4406D01*
X9278Y4417D01*
X9272Y4428D01*
X9265Y4439D01*
X9265Y4439D01*
X9264Y4441D01*
X9261Y4444D01*
X9258Y4447D01*
X9254Y4451D01*
X9250Y4456D01*
X9244Y4461D01*
X9238Y4466D01*
X9231Y4471D01*
X9223Y4476D01*
X9214Y4480D01*
X9206Y4484D01*
X9196Y4488D01*
X9185Y4491D01*
X9174Y4492D01*
X9162Y4493D01*
X9303D01*
D01*
D02*
G37*
G36*
X8512D02*
X8236D01*
Y4096D01*
D01*
Y4288D01*
X8236Y4282D01*
X8237Y4274D01*
X8238Y4265D01*
X8239Y4255D01*
X8240Y4244D01*
X8242Y4233D01*
X8245Y4221D01*
X8247Y4209D01*
X8251Y4196D01*
X8255Y4184D01*
X8260Y4173D01*
X8266Y4161D01*
X8272Y4151D01*
X8273Y4150D01*
X8274Y4149D01*
X8276Y4146D01*
X8279Y4142D01*
X8283Y4138D01*
X8287Y4133D01*
X8292Y4129D01*
X8299Y4124D01*
X8305Y4118D01*
X8313Y4114D01*
X8321Y4109D01*
X8331Y4105D01*
X8340Y4102D01*
X8351Y4099D01*
X8362Y4097D01*
X8374Y4096D01*
X8377D01*
X8381Y4097D01*
X8386D01*
X8391Y4098D01*
X8398Y4099D01*
X8405Y4101D01*
X8413Y4103D01*
X8422Y4106D01*
X8431Y4109D01*
X8439Y4113D01*
X8447Y4118D01*
X8456Y4124D01*
X8464Y4130D01*
X8471Y4138D01*
X8478Y4147D01*
X8479Y4147D01*
X8479Y4149D01*
X8481Y4152D01*
X8483Y4157D01*
X8486Y4162D01*
X8488Y4168D01*
X8492Y4176D01*
X8495Y4186D01*
X8498Y4196D01*
X8501Y4207D01*
X8504Y4221D01*
X8506Y4235D01*
X8509Y4250D01*
X8510Y4268D01*
X8511Y4286D01*
X8512Y4305D01*
Y4313D01*
X8511Y4318D01*
X8510Y4325D01*
X8509Y4333D01*
X8508Y4342D01*
X8507Y4351D01*
X8505Y4362D01*
X8502Y4373D01*
X8499Y4384D01*
X8495Y4395D01*
X8491Y4406D01*
X8486Y4417D01*
X8480Y4428D01*
X8473Y4439D01*
X8473Y4439D01*
X8472Y4441D01*
X8469Y4444D01*
X8466Y4447D01*
X8462Y4451D01*
X8458Y4456D01*
X8452Y4461D01*
X8446Y4466D01*
X8439Y4471D01*
X8431Y4476D01*
X8423Y4480D01*
X8414Y4484D01*
X8404Y4488D01*
X8393Y4491D01*
X8382Y4492D01*
X8371Y4493D01*
X8512D01*
D01*
D02*
G37*
%LPD*%
G36*
X9485Y4492D02*
X9480D01*
X9474Y4492D01*
X9468Y4491D01*
X9461Y4490D01*
X9446Y4487D01*
X9431Y4481D01*
X9416Y4475D01*
X9409Y4470D01*
X9402Y4466D01*
X9402Y4465D01*
X9401Y4465D01*
X9399Y4463D01*
X9397Y4461D01*
X9395Y4458D01*
X9392Y4455D01*
X9385Y4446D01*
X9379Y4436D01*
X9374Y4423D01*
X9372Y4416D01*
X9370Y4408D01*
X9369Y4400D01*
X9369Y4391D01*
Y4391D01*
Y4390D01*
Y4387D01*
X9369Y4383D01*
X9370Y4379D01*
X9371Y4374D01*
X9372Y4368D01*
X9374Y4361D01*
X9376Y4354D01*
X9379Y4345D01*
X9383Y4336D01*
X9387Y4327D01*
X9392Y4316D01*
X9398Y4306D01*
X9404Y4294D01*
X9411Y4282D01*
X9490Y4162D01*
X9346D01*
Y4493D01*
X9489D01*
X9485Y4492D01*
D02*
G37*
G36*
X8117Y4395D02*
X8112Y4394D01*
X8107Y4392D01*
X8101Y4390D01*
X8095Y4387D01*
X8090Y4382D01*
X8090Y4381D01*
X8088Y4380D01*
X8086Y4377D01*
X8083Y4373D01*
X8081Y4368D01*
X8079Y4362D01*
X8077Y4355D01*
X8076Y4349D01*
Y4396D01*
X8120D01*
X8117Y4395D01*
D02*
G37*
G36*
X7290D02*
X7285Y4394D01*
X7280Y4392D01*
X7274Y4390D01*
X7268Y4387D01*
X7263Y4382D01*
X7262Y4381D01*
X7261Y4380D01*
X7258Y4377D01*
X7256Y4373D01*
X7254Y4368D01*
X7251Y4362D01*
X7250Y4355D01*
X7249Y4349D01*
Y4396D01*
X7293D01*
X7290Y4395D01*
D02*
G37*
G36*
X9800Y4437D02*
X9805Y4436D01*
X9810Y4434D01*
X9816Y4431D01*
X9821Y4427D01*
X9828Y4421D01*
X9835Y4414D01*
X9840Y4405D01*
X9846Y4394D01*
X9849Y4387D01*
X9851Y4380D01*
X9854Y4373D01*
X9856Y4364D01*
X9858Y4355D01*
X9859Y4346D01*
X9861Y4336D01*
X9862Y4325D01*
X9862Y4313D01*
Y4301D01*
Y4300D01*
Y4297D01*
Y4293D01*
Y4288D01*
X9862Y4281D01*
Y4275D01*
X9861Y4266D01*
X9861Y4258D01*
X9859Y4239D01*
X9856Y4220D01*
X9855Y4212D01*
X9852Y4203D01*
X9850Y4195D01*
X9848Y4187D01*
Y4187D01*
X9847Y4186D01*
X9846Y4184D01*
X9845Y4181D01*
X9842Y4176D01*
X9836Y4169D01*
X9829Y4163D01*
X9821Y4157D01*
X9816Y4155D01*
X9810Y4153D01*
X9805Y4152D01*
X9798Y4151D01*
X9795D01*
X9792Y4152D01*
X9785Y4153D01*
X9777Y4155D01*
X9769Y4160D01*
X9760Y4165D01*
X9755Y4169D01*
X9752Y4173D01*
X9748Y4178D01*
X9745Y4184D01*
Y4184D01*
X9744Y4186D01*
X9743Y4187D01*
X9743Y4190D01*
X9741Y4194D01*
X9740Y4199D01*
X9739Y4204D01*
X9737Y4211D01*
X9735Y4218D01*
X9734Y4227D01*
X9732Y4236D01*
X9731Y4247D01*
X9731Y4259D01*
X9729Y4272D01*
X9729Y4286D01*
Y4301D01*
Y4302D01*
Y4304D01*
Y4308D01*
Y4313D01*
X9729Y4320D01*
Y4327D01*
X9730Y4335D01*
X9731Y4343D01*
X9733Y4361D01*
X9735Y4379D01*
X9737Y4387D01*
X9739Y4395D01*
X9742Y4402D01*
X9744Y4408D01*
Y4409D01*
X9745Y4409D01*
X9747Y4413D01*
X9751Y4417D01*
X9756Y4423D01*
X9763Y4429D01*
X9772Y4433D01*
X9781Y4437D01*
X9787Y4438D01*
X9794Y4438D01*
X9796D01*
X9800Y4437D01*
D02*
G37*
G36*
X7039D02*
X7043Y4436D01*
X7049Y4434D01*
X7054Y4431D01*
X7060Y4427D01*
X7067Y4421D01*
X7073Y4414D01*
X7079Y4405D01*
X7085Y4394D01*
X7088Y4387D01*
X7090Y4380D01*
X7093Y4373D01*
X7095Y4364D01*
X7097Y4355D01*
X7098Y4346D01*
X7099Y4336D01*
X7101Y4325D01*
X7101Y4313D01*
Y4301D01*
Y4300D01*
Y4297D01*
Y4293D01*
Y4288D01*
X7101Y4281D01*
Y4275D01*
X7100Y4266D01*
X7099Y4258D01*
X7098Y4239D01*
X7095Y4220D01*
X7094Y4212D01*
X7091Y4203D01*
X7089Y4195D01*
X7087Y4187D01*
Y4187D01*
X7086Y4186D01*
X7085Y4184D01*
X7084Y4181D01*
X7080Y4176D01*
X7075Y4169D01*
X7068Y4163D01*
X7060Y4157D01*
X7054Y4155D01*
X7049Y4153D01*
X7043Y4152D01*
X7037Y4151D01*
X7034D01*
X7031Y4152D01*
X7024Y4153D01*
X7016Y4155D01*
X7008Y4160D01*
X6999Y4165D01*
X6994Y4169D01*
X6991Y4173D01*
X6987Y4178D01*
X6984Y4184D01*
Y4184D01*
X6983Y4186D01*
X6982Y4187D01*
X6982Y4190D01*
X6980Y4194D01*
X6979Y4199D01*
X6978Y4204D01*
X6976Y4211D01*
X6974Y4218D01*
X6973Y4227D01*
X6971Y4236D01*
X6970Y4247D01*
X6969Y4259D01*
X6968Y4272D01*
X6968Y4286D01*
Y4301D01*
Y4302D01*
Y4304D01*
Y4308D01*
Y4313D01*
X6968Y4320D01*
Y4327D01*
X6969Y4335D01*
X6969Y4343D01*
X6972Y4361D01*
X6974Y4379D01*
X6976Y4387D01*
X6978Y4395D01*
X6980Y4402D01*
X6983Y4408D01*
Y4409D01*
X6984Y4409D01*
X6986Y4413D01*
X6990Y4417D01*
X6995Y4423D01*
X7002Y4429D01*
X7010Y4433D01*
X7020Y4437D01*
X7026Y4438D01*
X7032Y4438D01*
X7035D01*
X7039Y4437D01*
D02*
G37*
G36*
X6722Y4492D02*
X6719D01*
X6715Y4492D01*
X6707Y4490D01*
X6697Y4488D01*
X6685Y4484D01*
X6673Y4479D01*
X6660Y4472D01*
X6648Y4463D01*
X6642Y4458D01*
X6636Y4451D01*
X6630Y4445D01*
X6624Y4438D01*
X6619Y4430D01*
X6614Y4421D01*
X6610Y4412D01*
X6605Y4402D01*
X6602Y4391D01*
X6599Y4380D01*
X6597Y4367D01*
X6595Y4354D01*
X6594Y4339D01*
X6593Y4324D01*
Y4493D01*
X6724D01*
X6722Y4492D01*
D02*
G37*
G36*
X6733Y4434D02*
X6738Y4433D01*
X6745Y4431D01*
X6751Y4428D01*
X6757Y4423D01*
X6763Y4417D01*
X6764Y4416D01*
X6765Y4413D01*
X6768Y4409D01*
X6770Y4404D01*
X6773Y4396D01*
X6775Y4388D01*
X6777Y4379D01*
X6778Y4367D01*
Y4366D01*
Y4366D01*
Y4364D01*
Y4362D01*
X6777Y4356D01*
X6776Y4349D01*
X6774Y4340D01*
X6771Y4332D01*
X6768Y4324D01*
X6763Y4316D01*
X6762Y4316D01*
X6760Y4313D01*
X6757Y4310D01*
X6752Y4307D01*
X6746Y4303D01*
X6740Y4301D01*
X6732Y4298D01*
X6724Y4298D01*
X6721D01*
X6718Y4298D01*
X6715Y4299D01*
X6710Y4299D01*
X6705Y4301D01*
X6700Y4303D01*
X6694Y4306D01*
X6689Y4309D01*
X6683Y4314D01*
X6678Y4319D01*
X6673Y4325D01*
X6669Y4333D01*
X6667Y4342D01*
X6665Y4351D01*
X6664Y4363D01*
Y4364D01*
Y4366D01*
X6665Y4370D01*
X6665Y4375D01*
X6666Y4380D01*
X6667Y4386D01*
X6669Y4392D01*
X6672Y4399D01*
X6675Y4406D01*
X6679Y4412D01*
X6684Y4418D01*
X6690Y4424D01*
X6697Y4428D01*
X6705Y4432D01*
X6714Y4435D01*
X6724Y4435D01*
X6728D01*
X6733Y4434D01*
D02*
G37*
G36*
X10644Y4435D02*
X10651Y4433D01*
X10658Y4431D01*
X10666Y4426D01*
X10670Y4423D01*
X10673Y4419D01*
X10676Y4415D01*
X10678Y4410D01*
X10680Y4404D01*
X10680Y4397D01*
Y4396D01*
Y4394D01*
X10680Y4391D01*
X10678Y4386D01*
X10676Y4381D01*
X10674Y4375D01*
X10670Y4369D01*
X10665Y4362D01*
X10664Y4362D01*
X10662Y4359D01*
X10658Y4357D01*
X10654Y4353D01*
X10649Y4349D01*
X10643Y4345D01*
X10637Y4341D01*
X10630Y4338D01*
X10630Y4339D01*
X10628Y4339D01*
X10625Y4342D01*
X10622Y4344D01*
X10618Y4347D01*
X10614Y4352D01*
X10609Y4357D01*
X10605Y4364D01*
X10604Y4364D01*
X10603Y4366D01*
X10602Y4370D01*
X10599Y4375D01*
X10597Y4380D01*
X10595Y4385D01*
X10594Y4391D01*
X10593Y4397D01*
Y4398D01*
Y4400D01*
X10594Y4403D01*
X10595Y4407D01*
X10596Y4412D01*
X10599Y4416D01*
X10602Y4421D01*
X10606Y4425D01*
X10606Y4425D01*
X10608Y4427D01*
X10610Y4428D01*
X10614Y4430D01*
X10618Y4432D01*
X10624Y4433D01*
X10630Y4435D01*
X10637Y4435D01*
X10641D01*
X10644Y4435D01*
D02*
G37*
G36*
X10645Y4284D02*
X10647Y4283D01*
X10649Y4281D01*
X10652Y4279D01*
X10656Y4276D01*
X10660Y4273D01*
X10669Y4265D01*
X10678Y4254D01*
X10683Y4248D01*
X10687Y4242D01*
X10689Y4235D01*
X10692Y4228D01*
X10693Y4220D01*
X10694Y4212D01*
Y4210D01*
Y4207D01*
X10693Y4203D01*
X10692Y4197D01*
X10691Y4191D01*
X10688Y4184D01*
X10684Y4177D01*
X10679Y4170D01*
X10678Y4170D01*
X10676Y4168D01*
X10673Y4165D01*
X10668Y4162D01*
X10662Y4160D01*
X10655Y4157D01*
X10647Y4155D01*
X10638Y4154D01*
X10633D01*
X10629Y4155D01*
X10623Y4156D01*
X10616Y4158D01*
X10609Y4160D01*
X10602Y4164D01*
X10595Y4168D01*
X10595Y4169D01*
X10592Y4171D01*
X10590Y4174D01*
X10587Y4179D01*
X10584Y4184D01*
X10581Y4190D01*
X10579Y4198D01*
X10578Y4206D01*
Y4207D01*
Y4208D01*
X10579Y4210D01*
X10580Y4213D01*
X10580Y4217D01*
X10582Y4221D01*
X10584Y4226D01*
X10587Y4231D01*
X10590Y4237D01*
X10595Y4243D01*
X10600Y4249D01*
X10606Y4256D01*
X10614Y4263D01*
X10622Y4270D01*
X10633Y4277D01*
X10644Y4284D01*
X10645Y4284D01*
D02*
G37*
G36*
X11539Y4257D02*
X11440D01*
Y4372D01*
X11539Y4257D01*
D02*
G37*
G36*
X10941Y4492D02*
X10939D01*
X10935Y4492D01*
X10926Y4490D01*
X10916Y4487D01*
X10904Y4483D01*
X10892Y4477D01*
X10880Y4469D01*
X10874Y4464D01*
X10867Y4458D01*
X10861Y4452D01*
X10855Y4445D01*
X10850Y4438D01*
X10844Y4429D01*
X10839Y4420D01*
X10833Y4410D01*
X10829Y4399D01*
X10825Y4388D01*
X10821Y4375D01*
X10818Y4362D01*
X10816Y4347D01*
X10814Y4332D01*
X10813Y4315D01*
X10813Y4297D01*
Y4493D01*
X10944D01*
X10941Y4492D01*
D02*
G37*
G36*
X10955Y4437D02*
X10959Y4436D01*
X10965Y4434D01*
X10970Y4431D01*
X10976Y4427D01*
X10982Y4421D01*
X10989Y4414D01*
X10995Y4405D01*
X11001Y4394D01*
X11004Y4387D01*
X11006Y4380D01*
X11008Y4373D01*
X11011Y4364D01*
X11013Y4355D01*
X11014Y4346D01*
X11015Y4336D01*
X11017Y4325D01*
X11017Y4313D01*
Y4301D01*
Y4300D01*
Y4297D01*
Y4293D01*
Y4288D01*
X11017Y4281D01*
Y4275D01*
X11016Y4266D01*
X11015Y4258D01*
X11014Y4239D01*
X11011Y4220D01*
X11010Y4212D01*
X11007Y4203D01*
X11005Y4195D01*
X11003Y4187D01*
Y4187D01*
X11002Y4186D01*
X11001Y4184D01*
X11000Y4181D01*
X10996Y4176D01*
X10991Y4169D01*
X10984Y4163D01*
X10976Y4157D01*
X10970Y4155D01*
X10965Y4153D01*
X10959Y4152D01*
X10953Y4151D01*
X10950D01*
X10947Y4152D01*
X10940Y4153D01*
X10932Y4155D01*
X10924Y4160D01*
X10915Y4165D01*
X10910Y4169D01*
X10907Y4173D01*
X10903Y4178D01*
X10900Y4184D01*
Y4184D01*
X10899Y4186D01*
X10898Y4187D01*
X10898Y4190D01*
X10896Y4194D01*
X10895Y4199D01*
X10893Y4204D01*
X10892Y4211D01*
X10890Y4218D01*
X10889Y4227D01*
X10887Y4236D01*
X10886Y4247D01*
X10885Y4259D01*
X10884Y4272D01*
X10884Y4286D01*
Y4301D01*
Y4302D01*
Y4304D01*
Y4308D01*
Y4313D01*
X10884Y4320D01*
Y4327D01*
X10885Y4335D01*
X10885Y4343D01*
X10888Y4361D01*
X10890Y4379D01*
X10892Y4387D01*
X10894Y4395D01*
X10896Y4402D01*
X10899Y4408D01*
Y4409D01*
X10900Y4409D01*
X10902Y4413D01*
X10906Y4417D01*
X10911Y4423D01*
X10918Y4429D01*
X10926Y4433D01*
X10936Y4437D01*
X10942Y4438D01*
X10948Y4438D01*
X10951D01*
X10955Y4437D01*
D02*
G37*
G36*
X9157Y4492D02*
X9154D01*
X9150Y4492D01*
X9142Y4490D01*
X9131Y4487D01*
X9120Y4483D01*
X9107Y4477D01*
X9095Y4469D01*
X9089Y4464D01*
X9083Y4458D01*
X9076Y4452D01*
X9070Y4445D01*
X9065Y4438D01*
X9059Y4429D01*
X9054Y4420D01*
X9049Y4410D01*
X9044Y4399D01*
X9040Y4388D01*
X9036Y4375D01*
X9033Y4362D01*
X9031Y4347D01*
X9029Y4332D01*
X9028Y4315D01*
X9028Y4297D01*
Y4493D01*
X9159D01*
X9157Y4492D01*
D02*
G37*
G36*
X9170Y4437D02*
X9175Y4436D01*
X9180Y4434D01*
X9185Y4431D01*
X9191Y4427D01*
X9198Y4421D01*
X9205Y4414D01*
X9210Y4405D01*
X9216Y4394D01*
X9219Y4387D01*
X9221Y4380D01*
X9224Y4373D01*
X9226Y4364D01*
X9228Y4355D01*
X9229Y4346D01*
X9231Y4336D01*
X9232Y4325D01*
X9232Y4313D01*
Y4301D01*
Y4300D01*
Y4297D01*
Y4293D01*
Y4288D01*
X9232Y4281D01*
Y4275D01*
X9231Y4266D01*
X9231Y4258D01*
X9229Y4239D01*
X9226Y4220D01*
X9225Y4212D01*
X9222Y4203D01*
X9220Y4195D01*
X9218Y4187D01*
Y4187D01*
X9217Y4186D01*
X9216Y4184D01*
X9215Y4181D01*
X9211Y4176D01*
X9206Y4169D01*
X9199Y4163D01*
X9191Y4157D01*
X9185Y4155D01*
X9180Y4153D01*
X9175Y4152D01*
X9168Y4151D01*
X9165D01*
X9162Y4152D01*
X9155Y4153D01*
X9147Y4155D01*
X9139Y4160D01*
X9130Y4165D01*
X9125Y4169D01*
X9122Y4173D01*
X9118Y4178D01*
X9115Y4184D01*
Y4184D01*
X9114Y4186D01*
X9113Y4187D01*
X9113Y4190D01*
X9111Y4194D01*
X9110Y4199D01*
X9109Y4204D01*
X9107Y4211D01*
X9105Y4218D01*
X9104Y4227D01*
X9102Y4236D01*
X9101Y4247D01*
X9101Y4259D01*
X9099Y4272D01*
X9099Y4286D01*
Y4301D01*
Y4302D01*
Y4304D01*
Y4308D01*
Y4313D01*
X9099Y4320D01*
Y4327D01*
X9100Y4335D01*
X9101Y4343D01*
X9103Y4361D01*
X9105Y4379D01*
X9107Y4387D01*
X9109Y4395D01*
X9111Y4402D01*
X9114Y4408D01*
Y4409D01*
X9115Y4409D01*
X9117Y4413D01*
X9121Y4417D01*
X9126Y4423D01*
X9133Y4429D01*
X9142Y4433D01*
X9151Y4437D01*
X9157Y4438D01*
X9164Y4438D01*
X9166D01*
X9170Y4437D01*
D02*
G37*
G36*
X8365Y4492D02*
X8362D01*
X8358Y4492D01*
X8350Y4490D01*
X8339Y4487D01*
X8328Y4483D01*
X8316Y4477D01*
X8303Y4469D01*
X8297Y4464D01*
X8291Y4458D01*
X8284Y4452D01*
X8279Y4445D01*
X8273Y4438D01*
X8267Y4429D01*
X8262Y4420D01*
X8257Y4410D01*
X8253Y4399D01*
X8248Y4388D01*
X8245Y4375D01*
X8242Y4362D01*
X8239Y4347D01*
X8238Y4332D01*
X8236Y4315D01*
X8236Y4297D01*
Y4493D01*
X8367D01*
X8365Y4492D01*
D02*
G37*
G36*
X8378Y4437D02*
X8383Y4436D01*
X8388Y4434D01*
X8394Y4431D01*
X8399Y4427D01*
X8406Y4421D01*
X8413Y4414D01*
X8418Y4405D01*
X8424Y4394D01*
X8427Y4387D01*
X8429Y4380D01*
X8432Y4373D01*
X8434Y4364D01*
X8436Y4355D01*
X8438Y4346D01*
X8439Y4336D01*
X8440Y4325D01*
X8440Y4313D01*
Y4301D01*
Y4300D01*
Y4297D01*
Y4293D01*
Y4288D01*
X8440Y4281D01*
Y4275D01*
X8439Y4266D01*
X8439Y4258D01*
X8437Y4239D01*
X8434Y4220D01*
X8433Y4212D01*
X8431Y4203D01*
X8428Y4195D01*
X8426Y4187D01*
Y4187D01*
X8425Y4186D01*
X8424Y4184D01*
X8423Y4181D01*
X8420Y4176D01*
X8414Y4169D01*
X8407Y4163D01*
X8399Y4157D01*
X8394Y4155D01*
X8388Y4153D01*
X8383Y4152D01*
X8376Y4151D01*
X8373D01*
X8370Y4152D01*
X8364Y4153D01*
X8355Y4155D01*
X8347Y4160D01*
X8338Y4165D01*
X8334Y4169D01*
X8330Y4173D01*
X8326Y4178D01*
X8323Y4184D01*
Y4184D01*
X8323Y4186D01*
X8321Y4187D01*
X8321Y4190D01*
X8319Y4194D01*
X8318Y4199D01*
X8317Y4204D01*
X8315Y4211D01*
X8313Y4218D01*
X8312Y4227D01*
X8310Y4236D01*
X8309Y4247D01*
X8309Y4259D01*
X8307Y4272D01*
X8307Y4286D01*
Y4301D01*
Y4302D01*
Y4304D01*
Y4308D01*
Y4313D01*
X8307Y4320D01*
Y4327D01*
X8308Y4335D01*
X8309Y4343D01*
X8311Y4361D01*
X8313Y4379D01*
X8315Y4387D01*
X8317Y4395D01*
X8320Y4402D01*
X8323Y4408D01*
Y4409D01*
X8323Y4409D01*
X8325Y4413D01*
X8329Y4417D01*
X8334Y4423D01*
X8341Y4429D01*
X8350Y4433D01*
X8360Y4437D01*
X8365Y4438D01*
X8372Y4438D01*
X8375D01*
X8378Y4437D01*
D02*
G37*
%LPC*%
G36*
X13460Y5070D02*
X13388D01*
X13385Y5070D01*
X13381Y5069D01*
X13377Y5068D01*
X13373Y5066D01*
X13368Y5063D01*
X13364Y5059D01*
X13363Y5058D01*
X13362Y5057D01*
X13360Y5055D01*
X13358Y5051D01*
X13356Y5047D01*
X13354Y5043D01*
X13353Y5038D01*
X13352Y5032D01*
Y5033D01*
Y5029D01*
X13353Y5027D01*
X13353Y5023D01*
X13355Y5018D01*
X13357Y5014D01*
X13360Y5010D01*
X13364Y5005D01*
X13364Y5005D01*
X13366Y5003D01*
X13368Y5002D01*
X13371Y5000D01*
X13375Y4998D01*
X13379Y4996D01*
X13385Y4995D01*
X13390Y4994D01*
X13393D01*
X13396Y4995D01*
X13400Y4995D01*
X13404Y4997D01*
X13409Y4999D01*
X13413Y5002D01*
X13418Y5005D01*
X13418Y5006D01*
X13419Y5007D01*
X13421Y5010D01*
X13423Y5013D01*
X13425Y5017D01*
X13427Y5021D01*
X13428Y5027D01*
X13429Y5032D01*
Y5033D01*
Y5035D01*
X13428Y5038D01*
X13427Y5042D01*
X13426Y5046D01*
X13424Y5050D01*
X13421Y5055D01*
X13418Y5059D01*
X13417Y5059D01*
X13416Y5061D01*
X13413Y5062D01*
X13410Y5065D01*
X13406Y5067D01*
X13401Y5069D01*
X13396Y5070D01*
X13390Y5070D01*
X13460D01*
D02*
G37*
G36*
X11788Y5070D02*
X11715D01*
X11712Y5070D01*
X11708Y5069D01*
X11704Y5068D01*
X11700Y5066D01*
X11695Y5063D01*
X11691Y5059D01*
X11691Y5058D01*
X11689Y5057D01*
X11688Y5055D01*
X11685Y5051D01*
X11683Y5047D01*
X11681Y5043D01*
X11680Y5038D01*
X11680Y5032D01*
D01*
Y5029D01*
X11680Y5027D01*
X11681Y5023D01*
X11682Y5018D01*
X11684Y5014D01*
X11687Y5010D01*
X11691Y5005D01*
X11692Y5005D01*
X11693Y5003D01*
X11695Y5002D01*
X11699Y5000D01*
X11703Y4998D01*
X11707Y4996D01*
X11712Y4995D01*
X11718Y4994D01*
X11721D01*
X11723Y4995D01*
X11727Y4995D01*
X11732Y4997D01*
X11736Y4999D01*
X11740Y5002D01*
X11745Y5005D01*
X11745Y5006D01*
X11747Y5007D01*
X11748Y5010D01*
X11750Y5013D01*
X11752Y5017D01*
X11754Y5021D01*
X11755Y5027D01*
X11756Y5032D01*
Y5033D01*
Y5035D01*
X11755Y5038D01*
X11755Y5042D01*
X11753Y5046D01*
X11751Y5050D01*
X11748Y5055D01*
X11745Y5059D01*
X11744Y5059D01*
X11743Y5061D01*
X11740Y5062D01*
X11737Y5065D01*
X11733Y5067D01*
X11729Y5069D01*
X11723Y5070D01*
X11718Y5070D01*
X11788D01*
D02*
G37*
G36*
X8406D02*
X8298D01*
D01*
X8334D01*
X8331Y5070D01*
X8327Y5069D01*
X8323Y5068D01*
X8318Y5066D01*
X8314Y5063D01*
X8310Y5059D01*
X8309Y5058D01*
X8308Y5057D01*
X8306Y5055D01*
X8304Y5051D01*
X8302Y5047D01*
X8300Y5043D01*
X8299Y5038D01*
X8298Y5032D01*
Y5032D01*
Y5029D01*
X8299Y5027D01*
X8299Y5023D01*
X8301Y5018D01*
X8303Y5014D01*
X8306Y5010D01*
X8310Y5005D01*
X8310Y5005D01*
X8312Y5003D01*
X8314Y5002D01*
X8317Y5000D01*
X8321Y4998D01*
X8325Y4996D01*
X8331Y4995D01*
X8336Y4994D01*
X8339D01*
X8342Y4995D01*
X8346Y4995D01*
X8350Y4997D01*
X8355Y4999D01*
X8359Y5002D01*
X8364Y5005D01*
X8364Y5006D01*
X8365Y5007D01*
X8367Y5010D01*
X8369Y5013D01*
X8371Y5017D01*
X8373Y5021D01*
X8374Y5027D01*
X8375Y5032D01*
Y5033D01*
Y5035D01*
X8374Y5038D01*
X8373Y5042D01*
X8372Y5046D01*
X8370Y5050D01*
X8367Y5055D01*
X8364Y5059D01*
X8363Y5059D01*
X8362Y5061D01*
X8359Y5062D01*
X8356Y5065D01*
X8352Y5067D01*
X8347Y5069D01*
X8342Y5070D01*
X8336Y5070D01*
X8406D01*
D02*
G37*
G36*
X10720Y4966D02*
X10623D01*
X10720D01*
D01*
D02*
G37*
G36*
X12317Y5082D02*
X12070D01*
X12251D01*
Y4943D01*
X12250D01*
X12249Y4944D01*
X12246Y4947D01*
X12240Y4951D01*
X12232Y4955D01*
X12222Y4959D01*
X12210Y4963D01*
X12196Y4965D01*
X12181Y4966D01*
X12175D01*
X12172Y4966D01*
X12167Y4965D01*
X12163Y4965D01*
X12151Y4963D01*
X12138Y4959D01*
X12124Y4954D01*
X12118Y4951D01*
X12111Y4947D01*
X12105Y4942D01*
X12099Y4937D01*
X12099Y4936D01*
X12098Y4936D01*
X12096Y4934D01*
X12095Y4932D01*
X12092Y4928D01*
X12090Y4925D01*
X12087Y4920D01*
X12084Y4916D01*
X12082Y4910D01*
X12079Y4903D01*
X12077Y4896D01*
X12074Y4889D01*
X12073Y4881D01*
X12071Y4872D01*
X12070Y4863D01*
X12070Y4853D01*
Y4854D01*
Y4680D01*
X12136D01*
Y4853D01*
Y4854D01*
Y4854D01*
Y4857D01*
X12136Y4862D01*
X12138Y4868D01*
X12140Y4874D01*
X12143Y4881D01*
X12147Y4888D01*
X12152Y4895D01*
X12153Y4895D01*
X12155Y4897D01*
X12159Y4900D01*
X12164Y4903D01*
X12170Y4906D01*
X12177Y4909D01*
X12185Y4910D01*
X12195Y4911D01*
X12197D01*
X12200Y4910D01*
X12205Y4910D01*
X12210Y4909D01*
X12215Y4907D01*
X12221Y4905D01*
X12227Y4902D01*
X12228Y4901D01*
X12230Y4900D01*
X12233Y4898D01*
X12236Y4896D01*
X12244Y4890D01*
X12248Y4886D01*
X12251Y4882D01*
Y4680D01*
X12317D01*
Y5066D01*
X12251Y5082D01*
X12317D01*
D01*
D02*
G37*
G36*
X7958Y5082D02*
X7710D01*
X7891D01*
Y4943D01*
X7891D01*
X7890Y4944D01*
X7887Y4947D01*
X7881Y4951D01*
X7873Y4955D01*
X7863Y4959D01*
X7851Y4963D01*
X7837Y4965D01*
X7821Y4966D01*
X7816D01*
X7813Y4966D01*
X7808Y4965D01*
X7803Y4965D01*
X7791Y4963D01*
X7779Y4959D01*
X7765Y4954D01*
X7758Y4951D01*
X7751Y4947D01*
X7746Y4942D01*
X7740Y4937D01*
X7739Y4936D01*
X7739Y4936D01*
X7737Y4934D01*
X7735Y4932D01*
X7733Y4928D01*
X7731Y4925D01*
X7728Y4920D01*
X7725Y4916D01*
X7723Y4910D01*
X7720Y4903D01*
X7717Y4896D01*
X7715Y4889D01*
X7713Y4881D01*
X7712Y4872D01*
X7711Y4863D01*
X7710Y4853D01*
Y4853D01*
Y4680D01*
X7776D01*
Y4853D01*
Y4854D01*
Y4854D01*
Y4857D01*
X7777Y4862D01*
X7779Y4868D01*
X7780Y4874D01*
X7783Y4881D01*
X7787Y4888D01*
X7793Y4895D01*
X7794Y4895D01*
X7796Y4897D01*
X7799Y4900D01*
X7805Y4903D01*
X7810Y4906D01*
X7818Y4909D01*
X7826Y4910D01*
X7835Y4911D01*
X7838D01*
X7841Y4910D01*
X7846Y4910D01*
X7850Y4909D01*
X7856Y4907D01*
X7862Y4905D01*
X7868Y4902D01*
X7869Y4901D01*
X7871Y4900D01*
X7873Y4898D01*
X7877Y4896D01*
X7885Y4890D01*
X7888Y4886D01*
X7891Y4882D01*
Y4680D01*
X7958D01*
Y5066D01*
X7891Y5082D01*
X7958D01*
D01*
D02*
G37*
G36*
X11164Y4966D02*
Y4961D01*
X11119D01*
X11106Y4936D01*
X11105Y4937D01*
X11104Y4937D01*
X11103Y4939D01*
X11100Y4941D01*
X11095Y4946D01*
X11087Y4951D01*
X11077Y4957D01*
X11065Y4962D01*
X11051Y4965D01*
X11043Y4966D01*
X11035Y4966D01*
X11030D01*
X11026Y4966D01*
X11021Y4965D01*
X11016Y4965D01*
X11003Y4962D01*
X10990Y4959D01*
X10976Y4954D01*
X10969Y4950D01*
X10962Y4946D01*
X10956Y4941D01*
X10951Y4936D01*
X10950Y4936D01*
X10948Y4938D01*
X10946Y4940D01*
X10941Y4944D01*
X10937Y4947D01*
X10930Y4951D01*
X10924Y4954D01*
X10916Y4958D01*
X10915Y4958D01*
X10912Y4959D01*
X10908Y4961D01*
X10902Y4962D01*
X10895Y4963D01*
X10888Y4965D01*
X10880Y4966D01*
X10872Y4966D01*
X10918D01*
X10867D01*
X10864Y4966D01*
X10860D01*
X10855Y4965D01*
X10845Y4963D01*
X10833Y4960D01*
X10821Y4955D01*
X10809Y4948D01*
X10804Y4944D01*
X10799Y4939D01*
X10798Y4939D01*
X10798Y4938D01*
X10796Y4936D01*
X10795Y4934D01*
X10792Y4932D01*
X10790Y4928D01*
X10785Y4920D01*
X10781Y4909D01*
X10776Y4896D01*
X10773Y4882D01*
X10772Y4874D01*
Y4680D01*
X10838D01*
Y4856D01*
Y4857D01*
Y4858D01*
X10839Y4861D01*
Y4865D01*
X10840Y4869D01*
X10841Y4873D01*
X10842Y4879D01*
X10844Y4884D01*
X10847Y4889D01*
X10850Y4894D01*
X10854Y4899D01*
X10859Y4903D01*
X10865Y4906D01*
X10872Y4909D01*
X10879Y4911D01*
X10888Y4911D01*
X10890D01*
X10893Y4911D01*
X10897Y4910D01*
X10902Y4909D01*
X10906Y4908D01*
X10911Y4906D01*
X10917Y4903D01*
X10917Y4902D01*
X10919Y4901D01*
X10921Y4899D01*
X10924Y4897D01*
X10930Y4891D01*
X10933Y4887D01*
X10935Y4883D01*
Y4680D01*
X10903D01*
X11001D01*
Y4866D01*
Y4868D01*
Y4870D01*
X11002Y4873D01*
X11003Y4878D01*
X11004Y4883D01*
X11007Y4888D01*
X11010Y4894D01*
X11014Y4899D01*
X11015Y4899D01*
X11017Y4900D01*
X11019Y4903D01*
X11024Y4905D01*
X11029Y4907D01*
X11035Y4910D01*
X11042Y4911D01*
X11050Y4911D01*
X11052D01*
X11055Y4911D01*
X11058Y4910D01*
X11062Y4909D01*
X11067Y4907D01*
X11072Y4905D01*
X11077Y4902D01*
X11078Y4902D01*
X11080Y4900D01*
X11082Y4899D01*
X11085Y4896D01*
X11092Y4890D01*
X11095Y4886D01*
X11098Y4882D01*
Y4680D01*
X11164D01*
Y4966D01*
D02*
G37*
G36*
X9694D02*
Y4961D01*
X9628D01*
Y4935D01*
X9627Y4936D01*
X9627Y4936D01*
X9625Y4938D01*
X9622Y4940D01*
X9620Y4943D01*
X9617Y4945D01*
X9609Y4951D01*
X9598Y4957D01*
X9585Y4962D01*
X9571Y4965D01*
X9563Y4966D01*
X9555Y4966D01*
X9549D01*
X9543Y4966D01*
X9536Y4965D01*
X9527Y4964D01*
X9518Y4962D01*
X9510Y4959D01*
X9503Y4956D01*
X9531Y4900D01*
X9532Y4900D01*
X9534Y4902D01*
X9537Y4903D01*
X9543Y4906D01*
X9548Y4908D01*
X9555Y4910D01*
X9562Y4911D01*
X9570Y4911D01*
X9571D01*
X9574Y4911D01*
X9578Y4910D01*
X9583Y4909D01*
X9590Y4906D01*
X9596Y4903D01*
X9603Y4898D01*
X9610Y4891D01*
X9611Y4890D01*
X9613Y4887D01*
X9616Y4883D01*
X9619Y4877D01*
X9622Y4869D01*
X9625Y4861D01*
X9627Y4851D01*
X9628Y4840D01*
Y4680D01*
X9503D01*
D01*
X9694D01*
Y4966D01*
D02*
G37*
G36*
X10611D02*
X10464D01*
X10604D01*
X10600Y4966D01*
X10595Y4965D01*
X10589Y4965D01*
X10582Y4964D01*
X10575Y4963D01*
X10559Y4959D01*
X10544Y4954D01*
X10536Y4951D01*
X10529Y4947D01*
X10522Y4942D01*
X10517Y4937D01*
X10516Y4936D01*
X10515Y4936D01*
X10514Y4933D01*
X10512Y4931D01*
X10510Y4928D01*
X10507Y4923D01*
X10504Y4918D01*
X10502Y4912D01*
X10499Y4905D01*
X10496Y4897D01*
X10494Y4888D01*
X10491Y4878D01*
X10489Y4866D01*
X10488Y4854D01*
X10487Y4840D01*
X10487Y4826D01*
Y4766D01*
Y4765D01*
Y4764D01*
Y4761D01*
X10486Y4757D01*
Y4753D01*
X10485Y4747D01*
X10484Y4736D01*
X10481Y4724D01*
X10477Y4713D01*
X10474Y4707D01*
X10472Y4703D01*
X10468Y4699D01*
X10464Y4696D01*
X10465Y4695D01*
X10466Y4694D01*
X10467Y4691D01*
X10470Y4688D01*
X10476Y4683D01*
X10479Y4680D01*
X10483Y4679D01*
X10483D01*
X10484Y4678D01*
X10487Y4677D01*
X10489Y4677D01*
X10492Y4676D01*
X10496Y4676D01*
X10506Y4675D01*
X10508D01*
X10511Y4676D01*
X10514Y4676D01*
X10518Y4677D01*
X10522Y4680D01*
X10526Y4682D01*
X10531Y4685D01*
X10532Y4686D01*
X10533Y4687D01*
X10535Y4690D01*
X10537Y4692D01*
X10542Y4699D01*
X10544Y4703D01*
X10546Y4708D01*
X10547Y4707D01*
X10548Y4706D01*
X10550Y4703D01*
X10554Y4700D01*
X10558Y4696D01*
X10563Y4692D01*
X10570Y4688D01*
X10577Y4684D01*
X10578Y4684D01*
X10581Y4683D01*
X10585Y4681D01*
X10591Y4680D01*
X10598Y4678D01*
X10606Y4677D01*
X10614Y4676D01*
X10624Y4675D01*
X10634D01*
X10628D01*
X10631Y4676D01*
X10635D01*
X10639Y4676D01*
X10650Y4678D01*
X10661Y4681D01*
X10673Y4684D01*
X10684Y4690D01*
X10695Y4698D01*
X10696Y4699D01*
X10699Y4702D01*
X10703Y4707D01*
X10707Y4714D01*
X10712Y4723D01*
X10716Y4734D01*
X10719Y4747D01*
X10719Y4754D01*
X10720Y4762D01*
Y4677D01*
Y4766D01*
X10719Y4770D01*
X10719Y4774D01*
X10718Y4779D01*
X10715Y4790D01*
X10711Y4802D01*
X10709Y4808D01*
X10705Y4814D01*
X10701Y4821D01*
X10696Y4827D01*
X10691Y4833D01*
X10684Y4838D01*
X10684Y4839D01*
X10683Y4839D01*
X10680Y4840D01*
X10677Y4843D01*
X10674Y4844D01*
X10669Y4847D01*
X10664Y4850D01*
X10658Y4852D01*
X10651Y4855D01*
X10643Y4857D01*
X10635Y4859D01*
X10625Y4862D01*
X10615Y4864D01*
X10604Y4865D01*
X10592Y4865D01*
X10580Y4866D01*
X10576D01*
X10573Y4865D01*
X10569Y4865D01*
X10564Y4864D01*
X10559Y4863D01*
X10553Y4862D01*
Y4862D01*
Y4864D01*
X10554Y4866D01*
X10554Y4869D01*
X10555Y4873D01*
X10556Y4877D01*
X10558Y4882D01*
X10561Y4887D01*
X10564Y4891D01*
X10568Y4896D01*
X10573Y4900D01*
X10580Y4904D01*
X10587Y4907D01*
X10595Y4909D01*
X10604Y4911D01*
X10615Y4911D01*
X10622D01*
X10625Y4911D01*
X10628D01*
X10637Y4910D01*
X10647Y4909D01*
X10657Y4906D01*
X10667Y4903D01*
X10677Y4899D01*
X10691Y4950D01*
X10691D01*
X10689Y4951D01*
X10688Y4952D01*
X10685Y4953D01*
X10682Y4954D01*
X10678Y4955D01*
X10674Y4957D01*
X10669Y4958D01*
X10657Y4961D01*
X10643Y4964D01*
X10628Y4966D01*
X10611Y4966D01*
D02*
G37*
G36*
X11301Y5043D02*
D01*
Y4961D01*
X11224D01*
Y4909D01*
X11301D01*
Y4785D01*
Y4785D01*
Y4784D01*
Y4781D01*
X11300Y4775D01*
X11300Y4769D01*
X11299Y4762D01*
X11297Y4755D01*
X11295Y4748D01*
X11292Y4743D01*
X11291Y4742D01*
X11290Y4741D01*
X11288Y4739D01*
X11284Y4737D01*
X11280Y4735D01*
X11274Y4732D01*
X11267Y4731D01*
X11259Y4731D01*
X11255D01*
X11250Y4731D01*
X11244Y4732D01*
X11237Y4733D01*
X11230Y4736D01*
X11222Y4739D01*
X11214Y4743D01*
Y5043D01*
Y4683D01*
X11215Y4682D01*
X11218Y4681D01*
X11224Y4680D01*
X11231Y4679D01*
X11240Y4677D01*
X11252Y4676D01*
X11265Y4676D01*
X11280Y4675D01*
X11214D01*
X11399D01*
X11284D01*
X11287Y4676D01*
X11290D01*
X11294Y4676D01*
X11303Y4678D01*
X11314Y4681D01*
X11325Y4685D01*
X11335Y4691D01*
X11344Y4699D01*
X11345Y4700D01*
X11348Y4703D01*
X11351Y4709D01*
X11355Y4716D01*
X11360Y4725D01*
X11363Y4737D01*
X11366Y4751D01*
X11367Y4766D01*
Y4909D01*
X11399D01*
Y4962D01*
Y4961D01*
X11367D01*
Y5018D01*
X11301Y5043D01*
D02*
G37*
G36*
X7563D02*
D01*
Y4961D01*
X7486D01*
Y4909D01*
X7563D01*
Y4785D01*
Y4785D01*
Y4784D01*
Y4781D01*
X7562Y4775D01*
X7562Y4769D01*
X7561Y4762D01*
X7559Y4755D01*
X7557Y4748D01*
X7554Y4743D01*
X7553Y4742D01*
X7552Y4741D01*
X7550Y4739D01*
X7546Y4737D01*
X7542Y4735D01*
X7536Y4732D01*
X7529Y4731D01*
X7521Y4731D01*
X7517D01*
X7512Y4731D01*
X7506Y4732D01*
X7499Y4733D01*
X7492Y4736D01*
X7484Y4739D01*
X7476Y4743D01*
Y5043D01*
Y4683D01*
X7477Y4682D01*
X7480Y4681D01*
X7486Y4680D01*
X7493Y4679D01*
X7502Y4677D01*
X7514Y4676D01*
X7527Y4676D01*
X7542Y4675D01*
X7476D01*
X7661D01*
X7546D01*
X7549Y4676D01*
X7552D01*
X7556Y4676D01*
X7565Y4678D01*
X7576Y4681D01*
X7587Y4685D01*
X7597Y4691D01*
X7606Y4699D01*
X7608Y4700D01*
X7610Y4703D01*
X7613Y4709D01*
X7617Y4716D01*
X7622Y4725D01*
X7625Y4737D01*
X7628Y4751D01*
X7629Y4766D01*
Y4909D01*
X7661D01*
Y4962D01*
Y4961D01*
X7629D01*
Y5018D01*
X7563Y5043D01*
D02*
G37*
G36*
X9034Y4966D02*
X9028D01*
X9024Y4966D01*
X9018Y4965D01*
X9013Y4965D01*
X9006Y4963D01*
X8999Y4962D01*
X8983Y4957D01*
X8975Y4954D01*
X8967Y4951D01*
X8958Y4947D01*
X8951Y4942D01*
X8943Y4936D01*
X8936Y4929D01*
X8935Y4929D01*
X8934Y4928D01*
X8932Y4926D01*
X8930Y4923D01*
X8927Y4919D01*
X8924Y4915D01*
X8921Y4910D01*
X8917Y4904D01*
X8914Y4898D01*
X8910Y4891D01*
X8907Y4883D01*
X8905Y4875D01*
X8902Y4866D01*
X8901Y4857D01*
X8899Y4847D01*
X8899Y4837D01*
Y4832D01*
X8899Y4828D01*
X8900Y4822D01*
X8901Y4817D01*
X8903Y4809D01*
X8905Y4800D01*
X9105D01*
Y4800D01*
Y4799D01*
X9105Y4797D01*
Y4795D01*
X9103Y4789D01*
X9102Y4781D01*
X9099Y4773D01*
X9095Y4765D01*
X9090Y4756D01*
X9083Y4748D01*
X9081Y4748D01*
X9079Y4746D01*
X9074Y4743D01*
X9068Y4739D01*
X9059Y4736D01*
X9050Y4733D01*
X9038Y4731D01*
X9025Y4730D01*
X9021D01*
X9018Y4731D01*
X9014D01*
X9010Y4731D01*
X9000Y4733D01*
X8989Y4736D01*
X8977Y4740D01*
X8967Y4746D01*
X8957Y4754D01*
X8931Y4703D01*
X8932Y4703D01*
X8933Y4702D01*
X8935Y4701D01*
X8938Y4699D01*
X8942Y4697D01*
X8946Y4695D01*
X8951Y4692D01*
X8957Y4690D01*
X8964Y4687D01*
X8972Y4684D01*
X8980Y4681D01*
X8990Y4680D01*
X8999Y4678D01*
X9010Y4676D01*
X9022Y4676D01*
X9035Y4675D01*
X8899D01*
D01*
X9173D01*
Y4824D01*
X9173Y4828D01*
X9172Y4834D01*
X9171Y4840D01*
X9170Y4848D01*
X9168Y4855D01*
X9166Y4864D01*
X9164Y4873D01*
X9160Y4881D01*
X9156Y4891D01*
X9151Y4900D01*
X9146Y4909D01*
X9139Y4917D01*
X9132Y4925D01*
X9132Y4925D01*
X9131Y4927D01*
X9128Y4929D01*
X9125Y4931D01*
X9121Y4935D01*
X9116Y4938D01*
X9111Y4942D01*
X9105Y4946D01*
X9098Y4950D01*
X9090Y4953D01*
X9082Y4957D01*
X9073Y4960D01*
X9064Y4962D01*
X9055Y4965D01*
X9044Y4966D01*
X9034Y4966D01*
D02*
G37*
G36*
X4897Y4966D02*
X4892D01*
X4887Y4966D01*
X4882Y4965D01*
X4876Y4965D01*
X4869Y4963D01*
X4862Y4962D01*
X4846Y4957D01*
X4838Y4954D01*
X4830Y4951D01*
X4822Y4947D01*
X4814Y4942D01*
X4806Y4936D01*
X4799Y4929D01*
X4798Y4929D01*
X4797Y4928D01*
X4796Y4926D01*
X4793Y4923D01*
X4790Y4919D01*
X4787Y4915D01*
X4784Y4910D01*
X4781Y4904D01*
X4777Y4898D01*
X4774Y4891D01*
X4771Y4883D01*
X4768Y4875D01*
X4766Y4866D01*
X4764Y4857D01*
X4763Y4847D01*
X4762Y4837D01*
Y4832D01*
X4763Y4828D01*
X4763Y4822D01*
X4764Y4817D01*
X4766Y4809D01*
X4768Y4800D01*
X4968D01*
Y4800D01*
Y4799D01*
X4968Y4797D01*
Y4795D01*
X4967Y4789D01*
X4965Y4781D01*
X4962Y4773D01*
X4958Y4765D01*
X4953Y4756D01*
X4946Y4748D01*
X4945Y4748D01*
X4942Y4746D01*
X4937Y4743D01*
X4931Y4739D01*
X4923Y4736D01*
X4913Y4733D01*
X4901Y4731D01*
X4889Y4730D01*
X4885D01*
X4881Y4731D01*
X4878D01*
X4873Y4731D01*
X4863Y4733D01*
X4852Y4736D01*
X4841Y4740D01*
X4830Y4746D01*
X4820Y4754D01*
X4794Y4703D01*
X4795Y4703D01*
X4796Y4702D01*
X4798Y4701D01*
X4801Y4699D01*
X4805Y4697D01*
X4809Y4695D01*
X4814Y4692D01*
X4820Y4690D01*
X4827Y4687D01*
X4835Y4684D01*
X4844Y4681D01*
X4853Y4680D01*
X4863Y4678D01*
X4874Y4676D01*
X4885Y4676D01*
X4898Y4675D01*
X4762D01*
D01*
X5037D01*
Y4824D01*
X5036Y4828D01*
X5035Y4834D01*
X5034Y4840D01*
X5033Y4848D01*
X5031Y4855D01*
X5029Y4864D01*
X5027Y4873D01*
X5023Y4881D01*
X5019Y4891D01*
X5015Y4900D01*
X5009Y4909D01*
X5002Y4917D01*
X4996Y4925D01*
X4995Y4925D01*
X4994Y4927D01*
X4992Y4929D01*
X4988Y4931D01*
X4984Y4935D01*
X4979Y4938D01*
X4974Y4942D01*
X4968Y4946D01*
X4961Y4950D01*
X4953Y4953D01*
X4945Y4957D01*
X4937Y4960D01*
X4927Y4962D01*
X4918Y4965D01*
X4908Y4966D01*
X4897Y4966D01*
D02*
G37*
G36*
X10052Y5065D02*
X9734D01*
Y5004D01*
X9862D01*
Y4680D01*
X9734D01*
X9930D01*
Y5004D01*
X10052D01*
Y4711D01*
Y5065D01*
D02*
G37*
G36*
X7047Y5071D02*
X6754D01*
D01*
X6865D01*
X6860Y5070D01*
X6854D01*
X6848Y5070D01*
X6841Y5069D01*
X6833Y5068D01*
X6816Y5065D01*
X6798Y5059D01*
X6781Y5053D01*
X6772Y5048D01*
X6765Y5044D01*
X6793Y4987D01*
X6794Y4988D01*
X6798Y4991D01*
X6803Y4995D01*
X6807Y4996D01*
X6811Y4999D01*
X6816Y5001D01*
X6821Y5003D01*
X6827Y5005D01*
X6834Y5007D01*
X6841Y5008D01*
X6849Y5009D01*
X6857Y5010D01*
X6871D01*
X6875Y5010D01*
X6879Y5009D01*
X6883Y5008D01*
X6894Y5005D01*
X6901Y5003D01*
X6907Y5000D01*
X6913Y4997D01*
X6920Y4994D01*
X6927Y4988D01*
X6933Y4983D01*
X6939Y4977D01*
X6945Y4970D01*
X6946Y4969D01*
X6946Y4968D01*
X6948Y4966D01*
X6950Y4962D01*
X6952Y4959D01*
X6955Y4954D01*
X6958Y4948D01*
X6960Y4942D01*
X6963Y4935D01*
X6966Y4927D01*
X6969Y4919D01*
X6971Y4910D01*
X6973Y4900D01*
X6975Y4890D01*
X6975Y4879D01*
X6976Y4868D01*
Y4868D01*
Y4865D01*
Y4862D01*
X6975Y4858D01*
X6975Y4853D01*
X6974Y4847D01*
X6973Y4840D01*
X6972Y4833D01*
X6969Y4817D01*
X6964Y4801D01*
X6961Y4793D01*
X6957Y4785D01*
X6953Y4777D01*
X6947Y4770D01*
X6947Y4770D01*
X6946Y4769D01*
X6945Y4767D01*
X6942Y4765D01*
X6939Y4762D01*
X6936Y4759D01*
X6932Y4756D01*
X6927Y4753D01*
X6916Y4746D01*
X6904Y4740D01*
X6897Y4738D01*
X6889Y4736D01*
X6880Y4735D01*
X6872Y4735D01*
X6867D01*
X6862Y4735D01*
X6858Y4736D01*
X6853Y4737D01*
X6847Y4738D01*
X6841Y4739D01*
X6827Y4744D01*
X6820Y4747D01*
X6813Y4751D01*
X6806Y4755D01*
X6799Y4761D01*
X6793Y4766D01*
X6786Y4773D01*
X6754Y4718D01*
X6755Y4718D01*
X6756Y4717D01*
X6759Y4714D01*
X6763Y4711D01*
X6767Y4708D01*
X6772Y4705D01*
X6778Y4701D01*
X6786Y4696D01*
X6794Y4692D01*
X6803Y4688D01*
X6813Y4684D01*
X6824Y4681D01*
X6836Y4678D01*
X6849Y4676D01*
X6862Y4674D01*
X6877Y4674D01*
X6880D01*
X6884Y4674D01*
X6890D01*
X6897Y4676D01*
X6905Y4677D01*
X6913Y4679D01*
X6923Y4680D01*
X6933Y4683D01*
X6943Y4687D01*
X6954Y4691D01*
X6964Y4696D01*
X6974Y4702D01*
X6984Y4709D01*
X6994Y4717D01*
X7002Y4727D01*
X7003Y4727D01*
X7004Y4729D01*
X7006Y4732D01*
X7009Y4736D01*
X7013Y4742D01*
X7016Y4748D01*
X7020Y4756D01*
X7024Y4765D01*
X7029Y4774D01*
X7033Y4785D01*
X7036Y4797D01*
X7040Y4810D01*
X7043Y4824D01*
X7045Y4839D01*
X7046Y4854D01*
X7047Y4871D01*
Y4681D01*
Y4876D01*
Y4875D01*
X7046Y4879D01*
Y4885D01*
X7045Y4892D01*
X7044Y4901D01*
X7043Y4910D01*
X7041Y4921D01*
X7038Y4932D01*
X7035Y4943D01*
X7031Y4955D01*
X7026Y4967D01*
X7020Y4979D01*
X7014Y4991D01*
X7006Y5002D01*
X6998Y5013D01*
X6997Y5014D01*
X6995Y5016D01*
X6993Y5018D01*
X6989Y5022D01*
X6984Y5027D01*
X6978Y5032D01*
X6971Y5037D01*
X6963Y5042D01*
X6954Y5047D01*
X6945Y5053D01*
X6935Y5058D01*
X6923Y5062D01*
X6912Y5066D01*
X6899Y5069D01*
X6885Y5070D01*
X6871Y5071D01*
X7047D01*
D01*
D02*
G37*
G36*
X11627Y4966D02*
X11430D01*
X11525D01*
X11521Y4966D01*
X11517D01*
X11513Y4965D01*
X11507Y4965D01*
X11502Y4964D01*
X11489Y4961D01*
X11476Y4958D01*
X11460Y4953D01*
X11446Y4946D01*
X11465Y4896D01*
X11466Y4896D01*
X11469Y4899D01*
X11474Y4902D01*
X11481Y4905D01*
X11489Y4909D01*
X11499Y4911D01*
X11511Y4914D01*
X11525Y4914D01*
X11528D01*
X11530Y4914D01*
X11536Y4913D01*
X11541Y4911D01*
X11548Y4907D01*
X11554Y4903D01*
X11556Y4899D01*
X11557Y4896D01*
X11558Y4891D01*
X11559Y4887D01*
Y4886D01*
Y4885D01*
X11558Y4883D01*
X11558Y4880D01*
X11556Y4877D01*
X11554Y4874D01*
X11551Y4871D01*
X11548Y4868D01*
X11547Y4867D01*
X11545Y4866D01*
X11543Y4864D01*
X11537Y4861D01*
X11531Y4858D01*
X11523Y4854D01*
X11513Y4849D01*
X11506Y4847D01*
X11500Y4844D01*
X11499D01*
X11498Y4843D01*
X11496Y4842D01*
X11494Y4842D01*
X11487Y4838D01*
X11479Y4834D01*
X11470Y4829D01*
X11462Y4823D01*
X11454Y4816D01*
X11447Y4809D01*
X11446Y4807D01*
X11444Y4805D01*
X11441Y4800D01*
X11438Y4795D01*
X11435Y4787D01*
X11432Y4779D01*
X11430Y4769D01*
X11430Y4759D01*
Y4755D01*
X11430Y4753D01*
X11431Y4749D01*
X11432Y4745D01*
X11433Y4736D01*
X11437Y4727D01*
X11442Y4716D01*
X11445Y4711D01*
X11450Y4706D01*
X11454Y4702D01*
X11459Y4697D01*
X11460D01*
X11460Y4696D01*
X11462Y4695D01*
X11465Y4694D01*
X11467Y4692D01*
X11471Y4690D01*
X11476Y4688D01*
X11480Y4686D01*
X11485Y4684D01*
X11491Y4682D01*
X11504Y4679D01*
X11520Y4676D01*
X11538Y4675D01*
X11556D01*
X11548D01*
X11554Y4676D01*
X11561Y4676D01*
X11569Y4677D01*
X11576Y4678D01*
X11583Y4680D01*
X11584D01*
X11586Y4681D01*
X11590Y4682D01*
X11595Y4684D01*
X11601Y4686D01*
X11608Y4689D01*
X11617Y4693D01*
X11626Y4698D01*
X11603Y4751D01*
X11602D01*
X11602Y4750D01*
X11600Y4748D01*
X11597Y4747D01*
X11592Y4743D01*
X11584Y4739D01*
X11574Y4735D01*
X11562Y4731D01*
X11550Y4728D01*
X11537Y4727D01*
X11533D01*
X11530Y4728D01*
X11525Y4729D01*
X11517Y4731D01*
X11510Y4734D01*
X11504Y4739D01*
X11502Y4742D01*
X11500Y4746D01*
X11499Y4750D01*
X11498Y4754D01*
Y4755D01*
Y4757D01*
X11499Y4760D01*
X11499Y4764D01*
X11501Y4768D01*
X11503Y4772D01*
X11506Y4776D01*
X11510Y4780D01*
X11510Y4781D01*
X11512Y4782D01*
X11515Y4784D01*
X11519Y4787D01*
X11526Y4791D01*
X11533Y4795D01*
X11543Y4799D01*
X11555Y4805D01*
X11555Y4805D01*
X11558Y4806D01*
X11562Y4807D01*
X11566Y4810D01*
X11571Y4813D01*
X11578Y4817D01*
X11584Y4821D01*
X11591Y4827D01*
X11597Y4832D01*
X11604Y4839D01*
X11610Y4846D01*
X11615Y4853D01*
X11620Y4861D01*
X11624Y4870D01*
X11626Y4879D01*
X11627Y4889D01*
Y4681D01*
Y4892D01*
X11626Y4895D01*
X11625Y4902D01*
X11623Y4910D01*
X11620Y4919D01*
X11615Y4928D01*
X11608Y4937D01*
X11604Y4942D01*
X11599Y4946D01*
X11599D01*
X11598Y4947D01*
X11596Y4947D01*
X11594Y4949D01*
X11588Y4952D01*
X11580Y4956D01*
X11570Y4960D01*
X11558Y4963D01*
X11544Y4965D01*
X11529Y4966D01*
X11627D01*
D01*
D02*
G37*
G36*
X13460Y5070D02*
Y4961D01*
X13358D01*
Y4680D01*
X13460D01*
X13425D01*
Y4907D01*
X13460D01*
Y5070D01*
D02*
G37*
G36*
X13278Y5065D02*
X13025D01*
Y5004D01*
X13210D01*
Y4914D01*
X13074D01*
Y4856D01*
X13210D01*
Y4680D01*
X13025D01*
X13278D01*
Y5065D01*
D02*
G37*
G36*
X12986Y5070D02*
X12878D01*
D01*
X12914D01*
X12911Y5070D01*
X12907Y5069D01*
X12903Y5068D01*
X12899Y5066D01*
X12894Y5063D01*
X12890Y5059D01*
X12889Y5058D01*
X12888Y5057D01*
X12886Y5055D01*
X12884Y5051D01*
X12882Y5047D01*
X12880Y5043D01*
X12879Y5038D01*
X12878Y5032D01*
Y5033D01*
Y5029D01*
X12879Y5027D01*
X12879Y5023D01*
X12881Y5018D01*
X12883Y5014D01*
X12886Y5010D01*
X12890Y5005D01*
X12890Y5005D01*
X12892Y5003D01*
X12894Y5002D01*
X12897Y5000D01*
X12901Y4998D01*
X12905Y4996D01*
X12911Y4995D01*
X12916Y4994D01*
X12919D01*
X12922Y4995D01*
X12926Y4995D01*
X12930Y4997D01*
X12935Y4999D01*
X12939Y5002D01*
X12944Y5005D01*
X12944Y5006D01*
X12945Y5007D01*
X12947Y5010D01*
X12949Y5013D01*
X12951Y5017D01*
X12953Y5021D01*
X12954Y5027D01*
X12955Y5032D01*
Y5033D01*
Y5035D01*
X12954Y5038D01*
X12953Y5042D01*
X12952Y5046D01*
X12950Y5050D01*
X12947Y5055D01*
X12944Y5059D01*
X12943Y5059D01*
X12942Y5061D01*
X12939Y5062D01*
X12936Y5065D01*
X12932Y5067D01*
X12927Y5069D01*
X12922Y5070D01*
X12916Y5070D01*
X12986D01*
Y4961D01*
X12884D01*
Y4680D01*
X12951D01*
Y4907D01*
X12986D01*
Y5070D01*
D02*
G37*
G36*
X11999Y4966D02*
X11808D01*
X11854D01*
X11848Y4966D01*
X11841Y4965D01*
X11832Y4964D01*
X11823Y4962D01*
X11815Y4959D01*
X11808Y4956D01*
X11836Y4900D01*
X11837Y4900D01*
X11839Y4902D01*
X11843Y4903D01*
X11848Y4906D01*
X11854Y4908D01*
X11860Y4910D01*
X11867Y4911D01*
X11875Y4911D01*
X11876D01*
X11879Y4911D01*
X11883Y4910D01*
X11888Y4909D01*
X11895Y4906D01*
X11902Y4903D01*
X11908Y4898D01*
X11915Y4891D01*
X11916Y4890D01*
X11918Y4887D01*
X11921Y4883D01*
X11924Y4877D01*
X11927Y4869D01*
X11930Y4861D01*
X11932Y4851D01*
X11933Y4840D01*
Y4680D01*
X11999D01*
Y4966D01*
D02*
G37*
G36*
X11788Y5070D02*
Y4961D01*
X11685D01*
Y4680D01*
X11788D01*
X11752D01*
Y4907D01*
X11788D01*
Y5070D01*
D02*
G37*
G36*
X8681Y5065D02*
X8613D01*
Y4741D01*
X8439D01*
Y4680D01*
X8681D01*
Y5065D01*
D02*
G37*
G36*
X8406Y5070D02*
Y4961D01*
X8304D01*
Y4680D01*
X8371D01*
Y4907D01*
X8406D01*
Y5070D01*
D02*
G37*
G36*
X6400Y4966D02*
X6153D01*
D01*
X6257D01*
X6253Y4966D01*
X6249Y4965D01*
X6244Y4965D01*
X6232Y4963D01*
X6220Y4959D01*
X6206Y4954D01*
X6200Y4950D01*
X6194Y4946D01*
X6188Y4942D01*
X6182Y4936D01*
X6182Y4936D01*
X6181Y4935D01*
X6179Y4933D01*
X6178Y4931D01*
X6175Y4928D01*
X6173Y4924D01*
X6170Y4920D01*
X6167Y4914D01*
X6165Y4909D01*
X6162Y4903D01*
X6160Y4896D01*
X6157Y4888D01*
X6156Y4880D01*
X6154Y4872D01*
X6153Y4862D01*
X6153Y4853D01*
Y4680D01*
X6219D01*
Y4842D01*
Y4843D01*
Y4844D01*
Y4846D01*
Y4848D01*
X6219Y4854D01*
X6220Y4862D01*
X6222Y4870D01*
X6224Y4880D01*
X6228Y4888D01*
X6232Y4895D01*
X6233Y4895D01*
X6235Y4898D01*
X6238Y4900D01*
X6243Y4903D01*
X6250Y4906D01*
X6257Y4909D01*
X6267Y4911D01*
X6278Y4911D01*
X6280D01*
X6283Y4911D01*
X6287Y4910D01*
X6291Y4909D01*
X6297Y4908D01*
X6302Y4906D01*
X6309Y4903D01*
X6309Y4902D01*
X6312Y4902D01*
X6315Y4900D01*
X6318Y4898D01*
X6326Y4891D01*
X6330Y4887D01*
X6334Y4883D01*
Y4680D01*
X6400D01*
Y4966D01*
D02*
G37*
G36*
X5869Y4966D02*
X5678D01*
X5724D01*
X5719Y4966D01*
X5711Y4965D01*
X5702Y4964D01*
X5694Y4962D01*
X5686Y4959D01*
X5678Y4956D01*
X5706Y4900D01*
X5707Y4900D01*
X5709Y4902D01*
X5713Y4903D01*
X5718Y4906D01*
X5724Y4908D01*
X5730Y4910D01*
X5737Y4911D01*
X5745Y4911D01*
X5746D01*
X5749Y4911D01*
X5753Y4910D01*
X5759Y4909D01*
X5765Y4906D01*
X5772Y4903D01*
X5779Y4898D01*
X5786Y4891D01*
X5786Y4890D01*
X5789Y4887D01*
X5791Y4883D01*
X5794Y4877D01*
X5797Y4869D01*
X5800Y4861D01*
X5802Y4851D01*
X5803Y4840D01*
Y4680D01*
X5869D01*
Y4966D01*
D02*
G37*
G36*
X4710D02*
X4519D01*
X4566D01*
X4560Y4966D01*
X4552Y4965D01*
X4544Y4964D01*
X4535Y4962D01*
X4527Y4959D01*
X4519Y4956D01*
X4548Y4900D01*
X4548Y4900D01*
X4550Y4902D01*
X4554Y4903D01*
X4559Y4906D01*
X4565Y4908D01*
X4571Y4910D01*
X4578Y4911D01*
X4586Y4911D01*
X4588D01*
X4590Y4911D01*
X4594Y4910D01*
X4600Y4909D01*
X4606Y4906D01*
X4613Y4903D01*
X4620Y4898D01*
X4627Y4891D01*
X4627Y4890D01*
X4630Y4887D01*
X4632Y4883D01*
X4635Y4877D01*
X4638Y4869D01*
X4641Y4861D01*
X4644Y4851D01*
X4644Y4840D01*
Y4680D01*
X4710D01*
Y4966D01*
D02*
G37*
G36*
X12660Y5071D02*
X12368D01*
D01*
X12478D01*
X12474Y5070D01*
X12468D01*
X12462Y5070D01*
X12454Y5069D01*
X12447Y5068D01*
X12430Y5065D01*
X12412Y5059D01*
X12395Y5053D01*
X12386Y5048D01*
X12378Y5044D01*
X12407Y4987D01*
X12408Y4988D01*
X12411Y4991D01*
X12416Y4995D01*
X12421Y4996D01*
X12425Y4999D01*
X12429Y5001D01*
X12435Y5003D01*
X12441Y5005D01*
X12447Y5007D01*
X12455Y5008D01*
X12463Y5009D01*
X12471Y5010D01*
X12485D01*
X12488Y5010D01*
X12492Y5009D01*
X12497Y5008D01*
X12508Y5005D01*
X12514Y5003D01*
X12521Y5000D01*
X12527Y4997D01*
X12533Y4994D01*
X12540Y4988D01*
X12547Y4983D01*
X12553Y4977D01*
X12559Y4970D01*
X12559Y4969D01*
X12560Y4968D01*
X12562Y4966D01*
X12563Y4962D01*
X12566Y4959D01*
X12569Y4954D01*
X12571Y4948D01*
X12574Y4942D01*
X12577Y4935D01*
X12579Y4927D01*
X12582Y4919D01*
X12585Y4910D01*
X12586Y4900D01*
X12588Y4890D01*
X12589Y4879D01*
X12589Y4868D01*
Y4868D01*
Y4865D01*
Y4862D01*
X12589Y4858D01*
X12588Y4853D01*
X12588Y4847D01*
X12587Y4840D01*
X12586Y4833D01*
X12582Y4817D01*
X12577Y4801D01*
X12574Y4793D01*
X12570Y4785D01*
X12566Y4777D01*
X12561Y4770D01*
X12560Y4770D01*
X12560Y4769D01*
X12558Y4767D01*
X12556Y4765D01*
X12553Y4762D01*
X12549Y4759D01*
X12545Y4756D01*
X12541Y4753D01*
X12530Y4746D01*
X12517Y4740D01*
X12510Y4738D01*
X12502Y4736D01*
X12494Y4735D01*
X12485Y4735D01*
X12480D01*
X12476Y4735D01*
X12472Y4736D01*
X12466Y4737D01*
X12460Y4738D01*
X12454Y4739D01*
X12441Y4744D01*
X12433Y4747D01*
X12426Y4751D01*
X12419Y4755D01*
X12412Y4761D01*
X12406Y4766D01*
X12400Y4773D01*
X12368Y4718D01*
X12369Y4718D01*
X12370Y4717D01*
X12373Y4714D01*
X12376Y4711D01*
X12380Y4708D01*
X12385Y4705D01*
X12392Y4701D01*
X12399Y4696D01*
X12407Y4692D01*
X12416Y4688D01*
X12426Y4684D01*
X12437Y4681D01*
X12449Y4678D01*
X12462Y4676D01*
X12476Y4674D01*
X12490Y4674D01*
X12494D01*
X12498Y4674D01*
X12504D01*
X12511Y4676D01*
X12518Y4677D01*
X12527Y4679D01*
X12537Y4680D01*
X12547Y4683D01*
X12556Y4687D01*
X12567Y4691D01*
X12578Y4696D01*
X12588Y4702D01*
X12598Y4709D01*
X12607Y4717D01*
X12616Y4727D01*
X12616Y4727D01*
X12618Y4729D01*
X12620Y4732D01*
X12623Y4736D01*
X12626Y4742D01*
X12630Y4748D01*
X12634Y4756D01*
X12638Y4765D01*
X12643Y4774D01*
X12647Y4785D01*
X12650Y4797D01*
X12653Y4810D01*
X12656Y4824D01*
X12659Y4839D01*
X12660Y4854D01*
X12660Y4871D01*
Y4680D01*
Y4877D01*
Y4875D01*
X12660Y4879D01*
Y4885D01*
X12659Y4892D01*
X12658Y4901D01*
X12656Y4910D01*
X12654Y4921D01*
X12652Y4932D01*
X12648Y4943D01*
X12644Y4955D01*
X12640Y4967D01*
X12634Y4979D01*
X12627Y4991D01*
X12620Y5002D01*
X12611Y5013D01*
X12611Y5014D01*
X12609Y5016D01*
X12606Y5018D01*
X12602Y5022D01*
X12597Y5027D01*
X12592Y5032D01*
X12585Y5037D01*
X12577Y5042D01*
X12568Y5047D01*
X12559Y5053D01*
X12548Y5058D01*
X12537Y5062D01*
X12525Y5066D01*
X12512Y5069D01*
X12499Y5070D01*
X12485Y5071D01*
X12660D01*
D01*
D02*
G37*
G36*
X9482Y4966D02*
X9207D01*
X9337D01*
X9332Y4966D01*
X9327Y4965D01*
X9321Y4965D01*
X9314Y4963D01*
X9307Y4962D01*
X9292Y4957D01*
X9284Y4954D01*
X9276Y4951D01*
X9267Y4947D01*
X9259Y4942D01*
X9251Y4936D01*
X9244Y4929D01*
X9244Y4929D01*
X9243Y4928D01*
X9241Y4926D01*
X9239Y4923D01*
X9236Y4919D01*
X9233Y4915D01*
X9229Y4910D01*
X9226Y4904D01*
X9222Y4898D01*
X9219Y4891D01*
X9216Y4883D01*
X9213Y4875D01*
X9211Y4866D01*
X9209Y4857D01*
X9208Y4847D01*
X9207Y4837D01*
Y4832D01*
X9208Y4828D01*
X9209Y4822D01*
X9210Y4817D01*
X9211Y4809D01*
X9213Y4800D01*
X9414D01*
Y4800D01*
Y4799D01*
X9413Y4797D01*
Y4795D01*
X9412Y4789D01*
X9410Y4781D01*
X9407Y4773D01*
X9403Y4765D01*
X9398Y4756D01*
X9391Y4748D01*
X9390Y4748D01*
X9387Y4746D01*
X9383Y4743D01*
X9376Y4739D01*
X9368Y4736D01*
X9358Y4733D01*
X9347Y4731D01*
X9334Y4730D01*
X9330D01*
X9327Y4731D01*
X9323D01*
X9318Y4731D01*
X9309Y4733D01*
X9298Y4736D01*
X9286Y4740D01*
X9276Y4746D01*
X9266Y4754D01*
X9240Y4703D01*
X9240Y4703D01*
X9242Y4702D01*
X9243Y4701D01*
X9246Y4699D01*
X9250Y4697D01*
X9254Y4695D01*
X9259Y4692D01*
X9266Y4690D01*
X9273Y4687D01*
X9280Y4684D01*
X9289Y4681D01*
X9298Y4680D01*
X9308Y4678D01*
X9319Y4676D01*
X9331Y4676D01*
X9343Y4675D01*
X9350D01*
X9354Y4676D01*
X9359Y4676D01*
X9366Y4677D01*
X9373Y4678D01*
X9380Y4680D01*
X9396Y4684D01*
X9405Y4687D01*
X9413Y4691D01*
X9422Y4695D01*
X9430Y4701D01*
X9437Y4706D01*
X9445Y4713D01*
X9446Y4713D01*
X9447Y4714D01*
X9448Y4717D01*
X9451Y4720D01*
X9454Y4724D01*
X9457Y4728D01*
X9460Y4733D01*
X9463Y4740D01*
X9467Y4747D01*
X9470Y4755D01*
X9473Y4764D01*
X9476Y4773D01*
X9479Y4783D01*
X9480Y4794D01*
X9481Y4805D01*
X9482Y4817D01*
Y4677D01*
Y4824D01*
X9481Y4828D01*
X9481Y4834D01*
X9480Y4840D01*
X9479Y4848D01*
X9477Y4855D01*
X9474Y4864D01*
X9472Y4873D01*
X9469Y4881D01*
X9465Y4891D01*
X9460Y4900D01*
X9454Y4909D01*
X9448Y4917D01*
X9441Y4925D01*
X9440Y4925D01*
X9439Y4927D01*
X9437Y4929D01*
X9433Y4931D01*
X9429Y4935D01*
X9425Y4938D01*
X9420Y4942D01*
X9413Y4946D01*
X9406Y4950D01*
X9399Y4953D01*
X9391Y4957D01*
X9382Y4960D01*
X9373Y4962D01*
X9364Y4965D01*
X9353Y4966D01*
X9343Y4966D01*
X9482D01*
D01*
D02*
G37*
G36*
X5324Y5082D02*
X5228D01*
D01*
X5259D01*
Y4766D01*
Y4765D01*
Y4764D01*
Y4761D01*
X5258Y4758D01*
X5257Y4754D01*
X5257Y4749D01*
X5255Y4739D01*
X5251Y4728D01*
X5246Y4718D01*
X5242Y4713D01*
X5238Y4709D01*
X5233Y4706D01*
X5228Y4703D01*
Y4703D01*
X5228Y4702D01*
X5231Y4699D01*
X5235Y4695D01*
X5240Y4690D01*
X5248Y4684D01*
X5256Y4680D01*
X5267Y4676D01*
X5274Y4676D01*
X5280Y4675D01*
X5282D01*
X5284Y4676D01*
X5287Y4676D01*
X5294Y4679D01*
X5298Y4680D01*
X5302Y4683D01*
X5307Y4686D01*
X5311Y4690D01*
X5314Y4695D01*
X5318Y4701D01*
X5320Y4708D01*
X5323Y4717D01*
X5324Y4726D01*
X5324Y4737D01*
Y4676D01*
Y5066D01*
Y5066D01*
X5259Y5082D01*
X5324D01*
D02*
G37*
G36*
X5166D02*
X5070D01*
D01*
X5100D01*
Y4766D01*
Y4765D01*
Y4764D01*
Y4761D01*
X5100Y4758D01*
X5099Y4754D01*
X5098Y4749D01*
X5096Y4739D01*
X5093Y4728D01*
X5087Y4718D01*
X5084Y4713D01*
X5079Y4709D01*
X5075Y4706D01*
X5070Y4703D01*
Y4703D01*
X5070Y4702D01*
X5072Y4699D01*
X5076Y4695D01*
X5082Y4690D01*
X5089Y4684D01*
X5098Y4680D01*
X5109Y4676D01*
X5115Y4676D01*
X5122Y4675D01*
X5123D01*
X5126Y4676D01*
X5128Y4676D01*
X5135Y4679D01*
X5139Y4680D01*
X5144Y4683D01*
X5148Y4686D01*
X5152Y4690D01*
X5156Y4695D01*
X5159Y4701D01*
X5162Y4708D01*
X5164Y4717D01*
X5165Y4726D01*
X5166Y4737D01*
Y4676D01*
Y5066D01*
X5100Y5082D01*
X5166D01*
D02*
G37*
G36*
X13951Y5065D02*
X13478D01*
D01*
X13603Y4675D01*
X13631D01*
X13715Y4918D01*
X13796Y4675D01*
X13825D01*
X13951Y5065D01*
D01*
D02*
G37*
G36*
X10434Y4966D02*
X10332D01*
X10328Y4966D01*
X10324D01*
X10320Y4965D01*
X10314Y4965D01*
X10309Y4964D01*
X10296Y4961D01*
X10283Y4958D01*
X10267Y4953D01*
X10253Y4946D01*
X10272Y4896D01*
X10273Y4896D01*
X10276Y4899D01*
X10281Y4902D01*
X10288Y4905D01*
X10296Y4909D01*
X10306Y4911D01*
X10318Y4914D01*
X10332Y4914D01*
X10335D01*
X10337Y4914D01*
X10343Y4913D01*
X10348Y4911D01*
X10355Y4907D01*
X10361Y4903D01*
X10363Y4899D01*
X10364Y4896D01*
X10365Y4891D01*
X10366Y4887D01*
Y4886D01*
Y4885D01*
X10365Y4883D01*
X10365Y4880D01*
X10363Y4877D01*
X10361Y4874D01*
X10358Y4871D01*
X10355Y4868D01*
X10354Y4867D01*
X10352Y4866D01*
X10350Y4864D01*
X10344Y4861D01*
X10338Y4858D01*
X10330Y4854D01*
X10320Y4849D01*
X10313Y4847D01*
X10307Y4844D01*
X10306D01*
X10305Y4843D01*
X10303Y4842D01*
X10301Y4842D01*
X10294Y4838D01*
X10286Y4834D01*
X10277Y4829D01*
X10269Y4823D01*
X10261Y4816D01*
X10254Y4809D01*
X10253Y4807D01*
X10251Y4805D01*
X10248Y4800D01*
X10245Y4795D01*
X10242Y4787D01*
X10239Y4779D01*
X10237Y4769D01*
X10237Y4759D01*
Y4755D01*
X10237Y4753D01*
X10238Y4749D01*
X10239Y4745D01*
X10240Y4736D01*
X10244Y4727D01*
X10249Y4716D01*
X10252Y4711D01*
X10257Y4706D01*
X10261Y4702D01*
X10266Y4697D01*
X10267D01*
X10267Y4696D01*
X10269Y4695D01*
X10272Y4694D01*
X10274Y4692D01*
X10278Y4690D01*
X10283Y4688D01*
X10287Y4686D01*
X10292Y4684D01*
X10298Y4682D01*
X10311Y4679D01*
X10327Y4676D01*
X10345Y4675D01*
X10237D01*
X10434D01*
Y4892D01*
X10433Y4895D01*
X10432Y4902D01*
X10431Y4910D01*
X10427Y4919D01*
X10422Y4928D01*
X10415Y4937D01*
X10411Y4942D01*
X10406Y4946D01*
X10406D01*
X10405Y4947D01*
X10403Y4947D01*
X10401Y4949D01*
X10395Y4952D01*
X10387Y4956D01*
X10377Y4960D01*
X10365Y4963D01*
X10351Y4965D01*
X10336Y4966D01*
X10434D01*
D02*
G37*
G36*
X7444D02*
X7342D01*
X7338Y4966D01*
X7334D01*
X7330Y4965D01*
X7324Y4965D01*
X7319Y4964D01*
X7306Y4961D01*
X7293Y4958D01*
X7278Y4953D01*
X7263Y4946D01*
X7282Y4896D01*
X7283Y4896D01*
X7286Y4899D01*
X7291Y4902D01*
X7298Y4905D01*
X7306Y4909D01*
X7316Y4911D01*
X7328Y4914D01*
X7342Y4914D01*
X7345D01*
X7347Y4914D01*
X7353Y4913D01*
X7358Y4911D01*
X7365Y4907D01*
X7371Y4903D01*
X7373Y4899D01*
X7374Y4896D01*
X7375Y4891D01*
X7376Y4887D01*
Y4886D01*
Y4885D01*
X7375Y4883D01*
X7375Y4880D01*
X7373Y4877D01*
X7371Y4874D01*
X7368Y4871D01*
X7365Y4868D01*
X7364Y4867D01*
X7362Y4866D01*
X7360Y4864D01*
X7354Y4861D01*
X7348Y4858D01*
X7340Y4854D01*
X7330Y4849D01*
X7323Y4847D01*
X7317Y4844D01*
X7316D01*
X7315Y4843D01*
X7313Y4842D01*
X7311Y4842D01*
X7304Y4838D01*
X7296Y4834D01*
X7287Y4829D01*
X7279Y4823D01*
X7271Y4816D01*
X7264Y4809D01*
X7263Y4807D01*
X7261Y4805D01*
X7258Y4800D01*
X7255Y4795D01*
X7252Y4787D01*
X7249Y4779D01*
X7247Y4769D01*
X7247Y4759D01*
Y4755D01*
X7247Y4753D01*
X7248Y4749D01*
X7249Y4745D01*
X7250Y4736D01*
X7254Y4727D01*
X7259Y4716D01*
X7262Y4711D01*
X7267Y4706D01*
X7271Y4702D01*
X7276Y4697D01*
X7277D01*
X7278Y4696D01*
X7279Y4695D01*
X7282Y4694D01*
X7284Y4692D01*
X7288Y4690D01*
X7293Y4688D01*
X7297Y4686D01*
X7302Y4684D01*
X7308Y4682D01*
X7321Y4679D01*
X7337Y4676D01*
X7355Y4675D01*
X7247D01*
X7444D01*
Y4892D01*
X7443Y4895D01*
X7442Y4902D01*
X7441Y4910D01*
X7437Y4919D01*
X7432Y4928D01*
X7425Y4937D01*
X7421Y4942D01*
X7416Y4946D01*
X7416D01*
X7415Y4947D01*
X7413Y4947D01*
X7411Y4949D01*
X7405Y4952D01*
X7397Y4956D01*
X7387Y4960D01*
X7375Y4963D01*
X7361Y4965D01*
X7346Y4966D01*
X7444D01*
D02*
G37*
G36*
X6587D02*
X6452D01*
X6580D01*
X6576Y4966D01*
X6571Y4965D01*
X6565Y4964D01*
X6558Y4963D01*
X6550Y4962D01*
X6534Y4957D01*
X6526Y4954D01*
X6518Y4950D01*
X6509Y4946D01*
X6502Y4940D01*
X6494Y4934D01*
X6487Y4927D01*
X6487Y4927D01*
X6486Y4925D01*
X6484Y4923D01*
X6482Y4920D01*
X6479Y4916D01*
X6476Y4911D01*
X6473Y4906D01*
X6469Y4899D01*
X6466Y4892D01*
X6463Y4884D01*
X6460Y4876D01*
X6457Y4866D01*
X6455Y4856D01*
X6453Y4845D01*
X6452Y4833D01*
X6452Y4821D01*
Y4815D01*
X6452Y4810D01*
X6453Y4805D01*
X6453Y4798D01*
X6454Y4791D01*
X6456Y4783D01*
X6460Y4766D01*
X6463Y4757D01*
X6467Y4748D01*
X6471Y4739D01*
X6476Y4731D01*
X6482Y4722D01*
X6488Y4714D01*
X6489Y4714D01*
X6490Y4713D01*
X6491Y4711D01*
X6494Y4708D01*
X6498Y4705D01*
X6502Y4702D01*
X6508Y4698D01*
X6514Y4695D01*
X6520Y4691D01*
X6528Y4688D01*
X6536Y4684D01*
X6545Y4681D01*
X6554Y4679D01*
X6564Y4677D01*
X6575Y4676D01*
X6587Y4675D01*
X6452D01*
X6721D01*
X6593D01*
X6597Y4676D01*
X6603Y4676D01*
X6609Y4677D01*
X6616Y4679D01*
X6623Y4680D01*
X6631Y4682D01*
X6639Y4685D01*
X6647Y4688D01*
X6656Y4692D01*
X6664Y4696D01*
X6672Y4702D01*
X6679Y4708D01*
X6686Y4715D01*
X6687Y4716D01*
X6688Y4717D01*
X6690Y4719D01*
X6691Y4722D01*
X6694Y4727D01*
X6697Y4731D01*
X6701Y4737D01*
X6704Y4743D01*
X6707Y4750D01*
X6710Y4758D01*
X6713Y4767D01*
X6716Y4777D01*
X6718Y4787D01*
X6720Y4798D01*
X6721Y4809D01*
X6721Y4821D01*
Y4828D01*
X6721Y4832D01*
X6720Y4837D01*
X6720Y4844D01*
X6719Y4851D01*
X6717Y4858D01*
X6712Y4875D01*
X6709Y4884D01*
X6706Y4892D01*
X6702Y4901D01*
X6697Y4910D01*
X6691Y4918D01*
X6684Y4926D01*
X6684Y4927D01*
X6683Y4928D01*
X6680Y4929D01*
X6678Y4932D01*
X6674Y4935D01*
X6669Y4939D01*
X6664Y4943D01*
X6658Y4946D01*
X6652Y4950D01*
X6645Y4954D01*
X6636Y4957D01*
X6628Y4960D01*
X6619Y4963D01*
X6608Y4965D01*
X6598Y4966D01*
X6587Y4966D01*
D02*
G37*
G36*
X6104Y5043D02*
X5919Y5043D01*
Y4683D01*
X5920Y4682D01*
X5923Y4681D01*
X5928Y4680D01*
X5936Y4679D01*
X5945Y4677D01*
X5957Y4676D01*
X5969Y4676D01*
X5985Y4675D01*
X6104Y4675D01*
X5989Y4675D01*
X5991Y4676D01*
X5995D01*
X5999Y4676D01*
X6008Y4678D01*
X6019Y4681D01*
X6030Y4685D01*
X6040Y4691D01*
X6049Y4699D01*
X6050Y4700D01*
X6053Y4703D01*
X6056Y4709D01*
X6060Y4716D01*
X6065Y4725D01*
X6068Y4737D01*
X6071Y4751D01*
X6072Y4766D01*
Y4909D01*
X6104D01*
Y4961D01*
Y4961D01*
X6072D01*
Y5018D01*
X6006Y5043D01*
X6104Y5043D01*
D02*
G37*
G36*
X5523Y4966D02*
X5516D01*
X5512Y4966D01*
X5507Y4965D01*
X5501Y4964D01*
X5494Y4963D01*
X5486Y4962D01*
X5470Y4957D01*
X5462Y4954D01*
X5454Y4950D01*
X5445Y4946D01*
X5438Y4940D01*
X5430Y4934D01*
X5423Y4927D01*
X5423Y4927D01*
X5422Y4925D01*
X5420Y4923D01*
X5418Y4920D01*
X5415Y4916D01*
X5412Y4911D01*
X5409Y4906D01*
X5405Y4899D01*
X5402Y4892D01*
X5399Y4884D01*
X5396Y4876D01*
X5393Y4866D01*
X5391Y4856D01*
X5389Y4845D01*
X5388Y4833D01*
X5387Y4821D01*
Y4815D01*
X5388Y4810D01*
X5389Y4805D01*
X5389Y4798D01*
X5390Y4791D01*
X5392Y4783D01*
X5396Y4766D01*
X5399Y4757D01*
X5403Y4748D01*
X5407Y4739D01*
X5412Y4731D01*
X5418Y4722D01*
X5424Y4714D01*
X5424Y4714D01*
X5426Y4713D01*
X5427Y4711D01*
X5430Y4708D01*
X5434Y4705D01*
X5438Y4702D01*
X5444Y4698D01*
X5450Y4695D01*
X5456Y4691D01*
X5464Y4688D01*
X5472Y4684D01*
X5481Y4681D01*
X5490Y4679D01*
X5500Y4677D01*
X5511Y4676D01*
X5523Y4675D01*
X5387D01*
D01*
X5657D01*
X5529D01*
X5533Y4676D01*
X5539Y4676D01*
X5545Y4677D01*
X5552Y4679D01*
X5559Y4680D01*
X5567Y4682D01*
X5575Y4685D01*
X5583Y4688D01*
X5591Y4692D01*
X5600Y4696D01*
X5608Y4702D01*
X5615Y4708D01*
X5622Y4715D01*
X5623Y4716D01*
X5624Y4717D01*
X5626Y4719D01*
X5627Y4722D01*
X5630Y4727D01*
X5633Y4731D01*
X5637Y4737D01*
X5639Y4743D01*
X5643Y4750D01*
X5646Y4758D01*
X5649Y4767D01*
X5652Y4777D01*
X5654Y4787D01*
X5656Y4798D01*
X5657Y4809D01*
X5657Y4821D01*
Y4828D01*
X5657Y4832D01*
X5656Y4837D01*
X5656Y4844D01*
X5654Y4851D01*
X5653Y4858D01*
X5648Y4875D01*
X5645Y4884D01*
X5642Y4892D01*
X5638Y4901D01*
X5633Y4910D01*
X5627Y4918D01*
X5620Y4926D01*
X5620Y4927D01*
X5619Y4928D01*
X5616Y4929D01*
X5613Y4932D01*
X5610Y4935D01*
X5605Y4939D01*
X5600Y4943D01*
X5594Y4946D01*
X5587Y4950D01*
X5580Y4954D01*
X5572Y4957D01*
X5564Y4960D01*
X5554Y4963D01*
X5544Y4965D01*
X5534Y4966D01*
X5523Y4966D01*
D02*
G37*
%LPD*%
G36*
X10585Y4815D02*
X10590D01*
X10596Y4814D01*
X10602Y4813D01*
X10609Y4811D01*
X10616Y4809D01*
X10623Y4806D01*
X10630Y4803D01*
X10636Y4799D01*
X10642Y4794D01*
X10647Y4788D01*
X10651Y4781D01*
X10653Y4774D01*
X10654Y4765D01*
Y4764D01*
Y4763D01*
X10654Y4761D01*
Y4759D01*
X10652Y4753D01*
X10649Y4746D01*
X10647Y4742D01*
X10644Y4739D01*
X10640Y4736D01*
X10636Y4733D01*
X10631Y4731D01*
X10625Y4729D01*
X10619Y4728D01*
X10611Y4727D01*
X10609D01*
X10606Y4728D01*
X10602Y4728D01*
X10598Y4729D01*
X10593Y4730D01*
X10587Y4732D01*
X10582Y4735D01*
X10576Y4737D01*
X10571Y4742D01*
X10566Y4746D01*
X10562Y4752D01*
X10558Y4758D01*
X10555Y4766D01*
X10553Y4775D01*
X10552Y4785D01*
Y4812D01*
X10553D01*
X10555Y4813D01*
X10558Y4813D01*
X10562Y4814D01*
X10570Y4815D01*
X10574Y4816D01*
X10581D01*
X10585Y4815D01*
D02*
G37*
G36*
X9038Y4911D02*
X9042Y4910D01*
X9046Y4910D01*
X9051Y4908D01*
X9057Y4906D01*
X9062Y4904D01*
X9069Y4900D01*
X9075Y4896D01*
X9080Y4891D01*
X9086Y4885D01*
X9091Y4879D01*
X9095Y4870D01*
X9099Y4861D01*
X9102Y4850D01*
X8965D01*
Y4850D01*
X8965Y4853D01*
X8966Y4855D01*
X8966Y4859D01*
X8968Y4864D01*
X8970Y4869D01*
X8973Y4875D01*
X8976Y4881D01*
X8980Y4887D01*
X8984Y4892D01*
X8990Y4897D01*
X8996Y4902D01*
X9004Y4906D01*
X9012Y4909D01*
X9022Y4911D01*
X9033Y4911D01*
X9035D01*
X9038Y4911D01*
D02*
G37*
G36*
X9173Y4675D02*
X9041D01*
X9045Y4676D01*
X9051Y4676D01*
X9057Y4677D01*
X9064Y4678D01*
X9072Y4680D01*
X9088Y4684D01*
X9096Y4687D01*
X9105Y4691D01*
X9113Y4695D01*
X9121Y4701D01*
X9129Y4706D01*
X9136Y4713D01*
X9137Y4713D01*
X9138Y4714D01*
X9140Y4717D01*
X9142Y4720D01*
X9145Y4724D01*
X9148Y4728D01*
X9151Y4733D01*
X9155Y4740D01*
X9158Y4747D01*
X9162Y4755D01*
X9165Y4764D01*
X9168Y4773D01*
X9170Y4783D01*
X9172Y4794D01*
X9173Y4805D01*
X9173Y4817D01*
Y4675D01*
D02*
G37*
G36*
X4901Y4911D02*
X4905Y4910D01*
X4909Y4910D01*
X4915Y4908D01*
X4920Y4906D01*
X4926Y4904D01*
X4932Y4900D01*
X4938Y4896D01*
X4944Y4891D01*
X4949Y4885D01*
X4954Y4879D01*
X4959Y4870D01*
X4963Y4861D01*
X4966Y4850D01*
X4828D01*
Y4850D01*
X4829Y4853D01*
X4829Y4855D01*
X4830Y4859D01*
X4831Y4864D01*
X4833Y4869D01*
X4836Y4875D01*
X4839Y4881D01*
X4843Y4887D01*
X4848Y4892D01*
X4853Y4897D01*
X4860Y4902D01*
X4867Y4906D01*
X4875Y4909D01*
X4885Y4911D01*
X4896Y4911D01*
X4898D01*
X4901Y4911D01*
D02*
G37*
G36*
X5037Y4675D02*
X4904D01*
X4908Y4676D01*
X4914Y4676D01*
X4920Y4677D01*
X4927Y4678D01*
X4935Y4680D01*
X4951Y4684D01*
X4959Y4687D01*
X4968Y4691D01*
X4976Y4695D01*
X4985Y4701D01*
X4992Y4706D01*
X5000Y4713D01*
X5000Y4713D01*
X5001Y4714D01*
X5003Y4717D01*
X5005Y4720D01*
X5008Y4724D01*
X5011Y4728D01*
X5015Y4733D01*
X5018Y4740D01*
X5022Y4747D01*
X5025Y4755D01*
X5028Y4764D01*
X5031Y4773D01*
X5033Y4783D01*
X5035Y4794D01*
X5036Y4805D01*
X5037Y4817D01*
Y4675D01*
D02*
G37*
G36*
X11999Y4961D02*
X11933D01*
Y4935D01*
X11932Y4936D01*
X11932Y4936D01*
X11930Y4938D01*
X11928Y4940D01*
X11925Y4943D01*
X11922Y4945D01*
X11914Y4951D01*
X11903Y4957D01*
X11891Y4962D01*
X11876Y4965D01*
X11868Y4966D01*
X11860Y4966D01*
X11999D01*
Y4961D01*
D02*
G37*
G36*
X6400Y4961D02*
X6353D01*
X6341Y4935D01*
X6340Y4935D01*
X6339Y4936D01*
X6338Y4937D01*
X6335Y4940D01*
X6332Y4942D01*
X6329Y4944D01*
X6325Y4947D01*
X6320Y4951D01*
X6315Y4954D01*
X6309Y4957D01*
X6303Y4959D01*
X6295Y4961D01*
X6288Y4963D01*
X6280Y4965D01*
X6271Y4966D01*
X6261Y4966D01*
X6400D01*
Y4961D01*
D02*
G37*
G36*
X5869Y4961D02*
X5803D01*
Y4935D01*
X5802Y4936D01*
X5802Y4936D01*
X5800Y4938D01*
X5798Y4940D01*
X5796Y4943D01*
X5792Y4945D01*
X5784Y4951D01*
X5774Y4957D01*
X5761Y4962D01*
X5746Y4965D01*
X5738Y4966D01*
X5730Y4966D01*
X5869D01*
Y4961D01*
D02*
G37*
G36*
X4710D02*
X4644D01*
Y4935D01*
X4644Y4936D01*
X4643Y4936D01*
X4641Y4938D01*
X4639Y4940D01*
X4637Y4943D01*
X4633Y4945D01*
X4625Y4951D01*
X4615Y4957D01*
X4602Y4962D01*
X4588Y4965D01*
X4579Y4966D01*
X4571Y4966D01*
X4710D01*
Y4961D01*
D02*
G37*
G36*
X9347Y4911D02*
X9350Y4910D01*
X9355Y4910D01*
X9360Y4908D01*
X9365Y4906D01*
X9371Y4904D01*
X9377Y4900D01*
X9383Y4896D01*
X9389Y4891D01*
X9395Y4885D01*
X9399Y4879D01*
X9404Y4870D01*
X9408Y4861D01*
X9411Y4850D01*
X9273D01*
Y4850D01*
X9274Y4853D01*
X9275Y4855D01*
X9275Y4859D01*
X9277Y4864D01*
X9279Y4869D01*
X9281Y4875D01*
X9284Y4881D01*
X9288Y4887D01*
X9293Y4892D01*
X9299Y4897D01*
X9305Y4902D01*
X9313Y4906D01*
X9321Y4909D01*
X9331Y4911D01*
X9342Y4911D01*
X9344D01*
X9347Y4911D01*
D02*
G37*
G36*
X13807Y4833D02*
X13730Y5065D01*
X13879D01*
X13807Y4833D01*
D02*
G37*
G36*
X13622D02*
X13549Y5065D01*
X13700D01*
X13622Y4833D01*
D02*
G37*
G36*
X10434Y4675D02*
X10355D01*
X10361Y4676D01*
X10368Y4676D01*
X10376Y4677D01*
X10383Y4678D01*
X10390Y4680D01*
X10391D01*
X10393Y4681D01*
X10397Y4682D01*
X10402Y4684D01*
X10408Y4686D01*
X10415Y4689D01*
X10424Y4693D01*
X10433Y4698D01*
X10410Y4751D01*
X10409D01*
X10409Y4750D01*
X10407Y4748D01*
X10404Y4747D01*
X10399Y4743D01*
X10391Y4739D01*
X10381Y4735D01*
X10369Y4731D01*
X10357Y4728D01*
X10344Y4727D01*
X10340D01*
X10337Y4728D01*
X10332Y4729D01*
X10324Y4731D01*
X10317Y4734D01*
X10311Y4739D01*
X10309Y4742D01*
X10307Y4746D01*
X10306Y4750D01*
X10305Y4754D01*
Y4755D01*
Y4757D01*
X10306Y4760D01*
X10306Y4764D01*
X10308Y4768D01*
X10310Y4772D01*
X10313Y4776D01*
X10317Y4780D01*
X10317Y4781D01*
X10319Y4782D01*
X10322Y4784D01*
X10326Y4787D01*
X10333Y4791D01*
X10340Y4795D01*
X10350Y4799D01*
X10362Y4805D01*
X10362Y4805D01*
X10365Y4806D01*
X10369Y4807D01*
X10373Y4810D01*
X10378Y4813D01*
X10385Y4817D01*
X10391Y4821D01*
X10398Y4827D01*
X10404Y4832D01*
X10411Y4839D01*
X10417Y4846D01*
X10422Y4853D01*
X10427Y4861D01*
X10431Y4870D01*
X10433Y4879D01*
X10434Y4889D01*
Y4675D01*
D02*
G37*
G36*
X7444D02*
X7365D01*
X7371Y4676D01*
X7378Y4676D01*
X7386Y4677D01*
X7393Y4678D01*
X7400Y4680D01*
X7401D01*
X7403Y4681D01*
X7407Y4682D01*
X7412Y4684D01*
X7418Y4686D01*
X7425Y4689D01*
X7434Y4693D01*
X7443Y4698D01*
X7420Y4751D01*
X7419D01*
X7419Y4750D01*
X7417Y4748D01*
X7414Y4747D01*
X7409Y4743D01*
X7401Y4739D01*
X7391Y4735D01*
X7379Y4731D01*
X7367Y4728D01*
X7354Y4727D01*
X7350D01*
X7347Y4728D01*
X7342Y4729D01*
X7334Y4731D01*
X7327Y4734D01*
X7321Y4739D01*
X7319Y4742D01*
X7317Y4746D01*
X7316Y4750D01*
X7315Y4754D01*
Y4755D01*
Y4757D01*
X7316Y4760D01*
X7316Y4764D01*
X7318Y4768D01*
X7320Y4772D01*
X7323Y4776D01*
X7327Y4780D01*
X7327Y4781D01*
X7329Y4782D01*
X7332Y4784D01*
X7336Y4787D01*
X7343Y4791D01*
X7350Y4795D01*
X7360Y4799D01*
X7372Y4805D01*
X7372Y4805D01*
X7375Y4806D01*
X7379Y4807D01*
X7383Y4810D01*
X7388Y4813D01*
X7395Y4817D01*
X7401Y4821D01*
X7408Y4827D01*
X7414Y4832D01*
X7421Y4839D01*
X7427Y4846D01*
X7432Y4853D01*
X7437Y4861D01*
X7441Y4870D01*
X7443Y4879D01*
X7444Y4889D01*
Y4675D01*
D02*
G37*
G36*
X6592Y4912D02*
X6597Y4911D01*
X6604Y4910D01*
X6612Y4907D01*
X6620Y4902D01*
X6628Y4896D01*
X6635Y4888D01*
X6636Y4887D01*
X6638Y4884D01*
X6641Y4879D01*
X6644Y4871D01*
X6647Y4861D01*
X6650Y4850D01*
X6653Y4836D01*
X6653Y4821D01*
Y4820D01*
Y4817D01*
X6653Y4813D01*
X6652Y4807D01*
X6651Y4800D01*
X6650Y4792D01*
X6647Y4784D01*
X6645Y4775D01*
X6642Y4766D01*
X6637Y4758D01*
X6632Y4750D01*
X6625Y4743D01*
X6617Y4737D01*
X6609Y4733D01*
X6598Y4730D01*
X6587Y4729D01*
X6584D01*
X6582Y4729D01*
X6576Y4730D01*
X6569Y4732D01*
X6561Y4735D01*
X6553Y4739D01*
X6545Y4744D01*
X6538Y4753D01*
X6538Y4754D01*
X6535Y4757D01*
X6532Y4762D01*
X6529Y4770D01*
X6526Y4780D01*
X6523Y4792D01*
X6520Y4806D01*
X6520Y4821D01*
Y4822D01*
Y4825D01*
X6520Y4830D01*
X6521Y4836D01*
X6522Y4843D01*
X6523Y4850D01*
X6526Y4858D01*
X6528Y4867D01*
X6532Y4876D01*
X6536Y4884D01*
X6542Y4891D01*
X6548Y4898D01*
X6556Y4904D01*
X6565Y4909D01*
X6575Y4911D01*
X6587Y4913D01*
X6590D01*
X6592Y4912D01*
D02*
G37*
G36*
X6006Y4961D02*
X5928D01*
Y4909D01*
X6006D01*
Y4785D01*
Y4785D01*
Y4784D01*
Y4781D01*
X6005Y4775D01*
X6005Y4769D01*
X6004Y4762D01*
X6002Y4755D01*
X6000Y4748D01*
X5997Y4743D01*
X5996Y4742D01*
X5995Y4741D01*
X5993Y4739D01*
X5989Y4737D01*
X5985Y4735D01*
X5979Y4732D01*
X5972Y4731D01*
X5964Y4731D01*
X5960D01*
X5955Y4731D01*
X5949Y4732D01*
X5942Y4733D01*
X5935Y4736D01*
X5927Y4739D01*
X5919Y4743D01*
Y5043D01*
X6006D01*
Y4961D01*
D02*
G37*
G36*
X5528Y4912D02*
X5533Y4911D01*
X5540Y4910D01*
X5548Y4907D01*
X5556Y4902D01*
X5564Y4896D01*
X5571Y4888D01*
X5572Y4887D01*
X5574Y4884D01*
X5577Y4879D01*
X5580Y4871D01*
X5583Y4861D01*
X5586Y4850D01*
X5589Y4836D01*
X5589Y4821D01*
Y4820D01*
Y4817D01*
X5589Y4813D01*
X5588Y4807D01*
X5587Y4800D01*
X5586Y4792D01*
X5583Y4784D01*
X5581Y4775D01*
X5578Y4766D01*
X5573Y4758D01*
X5568Y4750D01*
X5561Y4743D01*
X5553Y4737D01*
X5545Y4733D01*
X5534Y4730D01*
X5523Y4729D01*
X5520D01*
X5518Y4729D01*
X5512Y4730D01*
X5505Y4732D01*
X5497Y4735D01*
X5489Y4739D01*
X5481Y4744D01*
X5474Y4753D01*
X5474Y4754D01*
X5471Y4757D01*
X5468Y4762D01*
X5465Y4770D01*
X5461Y4780D01*
X5459Y4792D01*
X5456Y4806D01*
X5456Y4821D01*
Y4822D01*
Y4825D01*
X5456Y4830D01*
X5457Y4836D01*
X5458Y4843D01*
X5459Y4850D01*
X5461Y4858D01*
X5464Y4867D01*
X5468Y4876D01*
X5472Y4884D01*
X5478Y4891D01*
X5484Y4898D01*
X5491Y4904D01*
X5501Y4909D01*
X5511Y4911D01*
X5523Y4913D01*
X5526D01*
X5528Y4912D01*
D02*
G37*
D48*
X3900Y3972D02*
X14724D01*
X3900D02*
Y5173D01*
X14724D01*
Y3972D02*
Y5173D01*
%TF.MD5,133c48c9ceb372759f09ffa39d8b2e9e*%
M02*
