%TF.GenerationSoftware,Altium Limited,Altium Designer,20.1.8 (145)*%
G04 Layer_Physical_Order=2*
G04 Layer_Color=16711680*
%FSLAX24Y24*%
%MOIN*%
%TF.SameCoordinates,2251247C-4072-41CD-9A68-8E7E2D596FDF*%
%TF.FilePolarity,Positive*%
%TF.FileFunction,Copper,L2,Bot,Signal*%
%TF.Part,Single*%
G01*
G75*
%TA.AperFunction,Conductor*%
%ADD10C,0.0050*%
%TA.AperFunction,ComponentPad*%
%ADD35C,0.0276*%
%TA.AperFunction,ViaPad*%
%ADD36C,0.0276*%
%TA.AperFunction,ComponentPad*%
%ADD37C,0.0591*%
G04:AMPARAMS|DCode=38|XSize=59.1mil|YSize=59.1mil|CornerRadius=5.9mil|HoleSize=0mil|Usage=FLASHONLY|Rotation=180.000|XOffset=0mil|YOffset=0mil|HoleType=Round|Shape=RoundedRectangle|*
%AMROUNDEDRECTD38*
21,1,0.0591,0.0472,0,0,180.0*
21,1,0.0472,0.0591,0,0,180.0*
1,1,0.0118,-0.0236,0.0236*
1,1,0.0118,0.0236,0.0236*
1,1,0.0118,0.0236,-0.0236*
1,1,0.0118,-0.0236,-0.0236*
%
%ADD38ROUNDEDRECTD38*%
G04:AMPARAMS|DCode=39|XSize=63mil|YSize=78.7mil|CornerRadius=6.3mil|HoleSize=0mil|Usage=FLASHONLY|Rotation=0.000|XOffset=0mil|YOffset=0mil|HoleType=Round|Shape=RoundedRectangle|*
%AMROUNDEDRECTD39*
21,1,0.0630,0.0661,0,0,0.0*
21,1,0.0504,0.0787,0,0,0.0*
1,1,0.0126,0.0252,-0.0331*
1,1,0.0126,-0.0252,-0.0331*
1,1,0.0126,-0.0252,0.0331*
1,1,0.0126,0.0252,0.0331*
%
%ADD39ROUNDEDRECTD39*%
%ADD40C,0.0709*%
%TA.AperFunction,ViaPad*%
%ADD41O,0.1575X0.0945*%
%ADD42C,0.1496*%
%TA.AperFunction,ComponentPad*%
G04:AMPARAMS|DCode=43|XSize=51.2mil|YSize=78.7mil|CornerRadius=25.6mil|HoleSize=0mil|Usage=FLASHONLY|Rotation=0.000|XOffset=0mil|YOffset=0mil|HoleType=Round|Shape=RoundedRectangle|*
%AMROUNDEDRECTD43*
21,1,0.0512,0.0276,0,0,0.0*
21,1,0.0000,0.0787,0,0,0.0*
1,1,0.0512,0.0000,-0.0138*
1,1,0.0512,0.0000,-0.0138*
1,1,0.0512,0.0000,0.0138*
1,1,0.0512,0.0000,0.0138*
%
%ADD43ROUNDEDRECTD43*%
G04:AMPARAMS|DCode=44|XSize=78.7mil|YSize=78.7mil|CornerRadius=19.7mil|HoleSize=0mil|Usage=FLASHONLY|Rotation=0.000|XOffset=0mil|YOffset=0mil|HoleType=Round|Shape=RoundedRectangle|*
%AMROUNDEDRECTD44*
21,1,0.0787,0.0394,0,0,0.0*
21,1,0.0394,0.0787,0,0,0.0*
1,1,0.0394,0.0197,-0.0197*
1,1,0.0394,-0.0197,-0.0197*
1,1,0.0394,-0.0197,0.0197*
1,1,0.0394,0.0197,0.0197*
%
%ADD44ROUNDEDRECTD44*%
%TA.AperFunction,ViaPad*%
%ADD45C,0.0260*%
%ADD46C,0.0220*%
%TA.AperFunction,TestPad*%
%ADD47C,0.0591*%
G36*
X16228Y12511D02*
X16313Y12501D01*
X16398Y12484D01*
X16481Y12461D01*
X16562Y12431D01*
X16640Y12395D01*
X16715Y12353D01*
X16787Y12305D01*
X16854Y12252D01*
X16918Y12193D01*
X16976Y12130D01*
X17029Y12062D01*
X17077Y11991D01*
X17119Y11915D01*
X17155Y11837D01*
X17185Y11756D01*
X17209Y11673D01*
X17225Y11589D01*
X17236Y11503D01*
X17237Y11467D01*
X17238Y11417D01*
X17238Y11417D01*
X17238Y11369D01*
Y1181D01*
X17239Y1178D01*
X17236Y1095D01*
X17225Y1009D01*
X17209Y925D01*
X17185Y842D01*
X17155Y761D01*
X17119Y683D01*
X17077Y608D01*
X17029Y536D01*
X16976Y469D01*
X16918Y405D01*
X16854Y347D01*
X16787Y293D01*
X16715Y246D01*
X16640Y203D01*
X16562Y167D01*
X16481Y138D01*
X16398Y114D01*
X16313Y97D01*
X16228Y87D01*
X16191Y86D01*
X16142Y84D01*
X16142Y84D01*
X16093Y84D01*
X14862D01*
Y2253D01*
X14858Y2273D01*
X14847Y2289D01*
X14831Y2300D01*
X14811Y2304D01*
X8391D01*
X8371Y2300D01*
X8355Y2289D01*
X8344Y2273D01*
X8340Y2253D01*
Y84D01*
X1181D01*
X1178Y84D01*
X1095Y87D01*
X1009Y97D01*
X925Y114D01*
X842Y138D01*
X761Y167D01*
X683Y203D01*
X608Y246D01*
X536Y293D01*
X469Y347D01*
X405Y405D01*
X347Y469D01*
X293Y536D01*
X246Y608D01*
X203Y683D01*
X167Y761D01*
X138Y842D01*
X114Y925D01*
X97Y1009D01*
X87Y1095D01*
X84Y1178D01*
X84Y1181D01*
Y11432D01*
X87Y11503D01*
X97Y11589D01*
X114Y11673D01*
X138Y11756D01*
X167Y11837D01*
X203Y11915D01*
X246Y11991D01*
X293Y12062D01*
X347Y12130D01*
X405Y12193D01*
X469Y12252D01*
X536Y12305D01*
X608Y12353D01*
X683Y12395D01*
X761Y12431D01*
X842Y12461D01*
X925Y12484D01*
X1009Y12501D01*
X1095Y12511D01*
X1178Y12514D01*
X1181Y12514D01*
X16142D01*
X16145Y12514D01*
X16228Y12511D01*
D02*
G37*
%LPC*%
G36*
X12542Y12394D02*
X12511Y12391D01*
X12480Y12382D01*
X12453Y12367D01*
X12428Y12347D01*
X12408Y12323D01*
X12401Y12309D01*
X5186D01*
X5179Y12323D01*
X5159Y12347D01*
X5134Y12367D01*
X5106Y12382D01*
X5076Y12391D01*
X5045Y12394D01*
X5013Y12391D01*
X4983Y12382D01*
X4955Y12367D01*
X4931Y12347D01*
X4911Y12323D01*
X4896Y12295D01*
X4887Y12265D01*
X4884Y12233D01*
X4887Y12202D01*
X4896Y12172D01*
X4911Y12144D01*
X4931Y12119D01*
X4955Y12099D01*
X4983Y12085D01*
X5013Y12075D01*
X5045Y12072D01*
X5076Y12075D01*
X5106Y12085D01*
X5134Y12099D01*
X5159Y12119D01*
X5179Y12144D01*
X5186Y12158D01*
X12401D01*
X12408Y12144D01*
X12428Y12119D01*
X12453Y12099D01*
X12480Y12085D01*
X12511Y12075D01*
X12542Y12072D01*
X12573Y12075D01*
X12604Y12085D01*
X12632Y12099D01*
X12656Y12119D01*
X12676Y12144D01*
X12691Y12172D01*
X12700Y12202D01*
X12703Y12233D01*
X12700Y12265D01*
X12691Y12295D01*
X12676Y12323D01*
X12656Y12347D01*
X12632Y12367D01*
X12604Y12382D01*
X12573Y12391D01*
X12542Y12394D01*
D02*
G37*
G36*
X5759Y10990D02*
X5732Y10987D01*
X5706Y10979D01*
X5682Y10967D01*
X5661Y10949D01*
X5643Y10928D01*
X5631Y10905D01*
X5623Y10879D01*
X5620Y10852D01*
X5623Y10825D01*
X5631Y10799D01*
X5643Y10775D01*
X5661Y10754D01*
X5682Y10736D01*
X5706Y10724D01*
X5732Y10716D01*
X5759Y10713D01*
X5786Y10716D01*
X5812Y10724D01*
X5836Y10736D01*
X5857Y10754D01*
X5874Y10775D01*
X5887Y10799D01*
X5894Y10825D01*
X5897Y10852D01*
X5894Y10879D01*
X5887Y10905D01*
X5874Y10928D01*
X5857Y10949D01*
X5836Y10967D01*
X5812Y10979D01*
X5786Y10987D01*
X5759Y10990D01*
D02*
G37*
G36*
X9509Y12103D02*
X8131D01*
X8111Y12099D01*
X8095Y12088D01*
X8084Y12072D01*
X8080Y12052D01*
X8080Y10477D01*
X8084Y10458D01*
X8095Y10441D01*
X8111Y10430D01*
X8131Y10426D01*
X9509D01*
X9528Y10430D01*
X9545Y10441D01*
X9556Y10458D01*
X9560Y10477D01*
X9560Y12052D01*
X9556Y12072D01*
X9545Y12088D01*
X9528Y12099D01*
X9509Y12103D01*
D02*
G37*
G36*
X16848Y9559D02*
X16811Y9555D01*
X16776Y9544D01*
X16743Y9527D01*
X16715Y9504D01*
X16691Y9475D01*
X16674Y9442D01*
X16663Y9407D01*
X16659Y9370D01*
X16663Y9333D01*
X16674Y9298D01*
X16691Y9265D01*
X16715Y9237D01*
X16743Y9213D01*
X16776Y9196D01*
X16811Y9185D01*
X16848Y9181D01*
X16885Y9185D01*
X16920Y9196D01*
X16953Y9213D01*
X16981Y9237D01*
X17005Y9265D01*
X17022Y9298D01*
X17033Y9333D01*
X17037Y9370D01*
X17033Y9407D01*
X17022Y9442D01*
X17005Y9475D01*
X16981Y9504D01*
X16953Y9527D01*
X16920Y9544D01*
X16885Y9555D01*
X16848Y9559D01*
D02*
G37*
G36*
X16139D02*
X16103Y9555D01*
X16067Y9544D01*
X16035Y9527D01*
X16006Y9504D01*
X15982Y9475D01*
X15965Y9442D01*
X15954Y9407D01*
X15951Y9370D01*
X15954Y9333D01*
X15965Y9298D01*
X15982Y9265D01*
X16006Y9237D01*
X16035Y9213D01*
X16067Y9196D01*
X16103Y9185D01*
X16139Y9181D01*
X16176Y9185D01*
X16212Y9196D01*
X16244Y9213D01*
X16273Y9237D01*
X16296Y9265D01*
X16314Y9298D01*
X16324Y9333D01*
X16328Y9370D01*
X16324Y9407D01*
X16314Y9442D01*
X16296Y9475D01*
X16273Y9504D01*
X16244Y9527D01*
X16212Y9544D01*
X16176Y9555D01*
X16139Y9559D01*
D02*
G37*
G36*
X6453Y10251D02*
X6421Y10248D01*
X6391Y10239D01*
X6363Y10224D01*
X6339Y10204D01*
X6319Y10179D01*
X6304Y10151D01*
X6295Y10121D01*
X6292Y10090D01*
X6295Y10058D01*
X6304Y10028D01*
X6319Y10000D01*
X6339Y9976D01*
X6363Y9956D01*
X6377Y9949D01*
Y9031D01*
X6377Y9031D01*
X6380Y9011D01*
X6387Y8993D01*
X6398Y8979D01*
X6393Y8964D01*
X6390Y8932D01*
X6393Y8901D01*
X6403Y8871D01*
X6417Y8843D01*
X6437Y8819D01*
X6462Y8799D01*
X6490Y8784D01*
X6520Y8775D01*
X6551Y8771D01*
X6583Y8775D01*
X6613Y8784D01*
X6641Y8799D01*
X6665Y8819D01*
X6685Y8843D01*
X6700Y8871D01*
X6709Y8901D01*
X6712Y8932D01*
X6709Y8964D01*
X6700Y8994D01*
X6685Y9022D01*
X6665Y9046D01*
X6641Y9066D01*
X6613Y9081D01*
X6583Y9090D01*
X6551Y9093D01*
X6528Y9114D01*
Y9949D01*
X6542Y9956D01*
X6567Y9976D01*
X6587Y10000D01*
X6602Y10028D01*
X6611Y10058D01*
X6614Y10090D01*
X6611Y10121D01*
X6602Y10151D01*
X6587Y10179D01*
X6567Y10204D01*
X6542Y10224D01*
X6514Y10239D01*
X6484Y10248D01*
X6453Y10251D01*
D02*
G37*
G36*
X15724Y9114D02*
X15692Y9111D01*
X15662Y9102D01*
X15634Y9087D01*
X15610Y9067D01*
X15590Y9042D01*
X15575Y9015D01*
X15566Y8984D01*
X15563Y8953D01*
X15566Y8922D01*
X15575Y8891D01*
X15590Y8864D01*
X15610Y8839D01*
X15634Y8819D01*
X15648Y8812D01*
Y8591D01*
X15648Y8591D01*
X15651Y8571D01*
X15658Y8553D01*
X15670Y8537D01*
X15674Y8533D01*
Y8413D01*
X15661Y8406D01*
X15636Y8386D01*
X15616Y8361D01*
X15601Y8334D01*
X15592Y8303D01*
X15589Y8272D01*
X15592Y8240D01*
X15601Y8210D01*
X15616Y8182D01*
X15636Y8158D01*
X15661Y8138D01*
X15689Y8123D01*
X15719Y8114D01*
X15750Y8111D01*
X15782Y8114D01*
X15812Y8123D01*
X15840Y8138D01*
X15864Y8158D01*
X15884Y8182D01*
X15899Y8210D01*
X15908Y8240D01*
X15911Y8272D01*
X15908Y8303D01*
X15899Y8334D01*
X15884Y8361D01*
X15864Y8386D01*
X15840Y8406D01*
X15826Y8413D01*
Y8565D01*
X15826Y8565D01*
X15823Y8584D01*
X15816Y8602D01*
X15804Y8618D01*
X15804Y8618D01*
X15800Y8622D01*
Y8812D01*
X15813Y8819D01*
X15838Y8839D01*
X15858Y8864D01*
X15873Y8891D01*
X15882Y8922D01*
X15885Y8953D01*
X15882Y8984D01*
X15873Y9015D01*
X15858Y9042D01*
X15838Y9067D01*
X15813Y9087D01*
X15786Y9102D01*
X15755Y9111D01*
X15724Y9114D01*
D02*
G37*
G36*
X16735Y4725D02*
X16690Y4722D01*
X16645Y4713D01*
X16602Y4699D01*
X16562Y4679D01*
X16524Y4654D01*
X16490Y4624D01*
X16460Y4590D01*
X16435Y4552D01*
X16415Y4512D01*
X16401Y4469D01*
X16392Y4424D01*
X16389Y4379D01*
X16392Y4334D01*
X16401Y4290D01*
X16415Y4247D01*
X16435Y4206D01*
X16460Y4169D01*
X16490Y4135D01*
X16524Y4105D01*
X16562Y4080D01*
X16602Y4060D01*
X16645Y4045D01*
X16690Y4036D01*
X16735Y4033D01*
X16780Y4036D01*
X16824Y4045D01*
X16867Y4060D01*
X16908Y4080D01*
X16946Y4105D01*
X16980Y4135D01*
X17009Y4169D01*
X17035Y4206D01*
X17055Y4247D01*
X17069Y4290D01*
X17078Y4334D01*
X17081Y4379D01*
X17078Y4424D01*
X17069Y4469D01*
X17055Y4512D01*
X17035Y4552D01*
X17009Y4590D01*
X16980Y4624D01*
X16946Y4654D01*
X16908Y4679D01*
X16867Y4699D01*
X16824Y4713D01*
X16780Y4722D01*
X16735Y4725D01*
D02*
G37*
G36*
X15735D02*
X15690Y4722D01*
X15645Y4713D01*
X15602Y4699D01*
X15562Y4679D01*
X15524Y4654D01*
X15490Y4624D01*
X15460Y4590D01*
X15435Y4552D01*
X15415Y4512D01*
X15401Y4469D01*
X15392Y4424D01*
X15389Y4379D01*
X15392Y4334D01*
X15401Y4290D01*
X15415Y4247D01*
X15435Y4206D01*
X15460Y4169D01*
X15490Y4135D01*
X15524Y4105D01*
X15562Y4080D01*
X15602Y4060D01*
X15645Y4045D01*
X15690Y4036D01*
X15735Y4033D01*
X15780Y4036D01*
X15824Y4045D01*
X15867Y4060D01*
X15908Y4080D01*
X15946Y4105D01*
X15980Y4135D01*
X16009Y4169D01*
X16035Y4206D01*
X16055Y4247D01*
X16069Y4290D01*
X16078Y4334D01*
X16081Y4379D01*
X16078Y4424D01*
X16069Y4469D01*
X16055Y4512D01*
X16035Y4552D01*
X16009Y4590D01*
X15980Y4624D01*
X15946Y4654D01*
X15908Y4679D01*
X15867Y4699D01*
X15824Y4713D01*
X15780Y4722D01*
X15735Y4725D01*
D02*
G37*
G36*
X16971Y3725D02*
X16935D01*
Y3579D01*
X17081D01*
Y3615D01*
X17077Y3644D01*
X17066Y3670D01*
X17049Y3693D01*
X17026Y3711D01*
X17000Y3722D01*
X16971Y3725D01*
D02*
G37*
G36*
X16535D02*
X16499D01*
X16470Y3722D01*
X16444Y3711D01*
X16421Y3693D01*
X16403Y3670D01*
X16392Y3644D01*
X16389Y3615D01*
Y3579D01*
X16535D01*
Y3725D01*
D02*
G37*
G36*
X15735Y3725D02*
X15690Y3722D01*
X15645Y3713D01*
X15602Y3699D01*
X15562Y3679D01*
X15524Y3654D01*
X15490Y3624D01*
X15460Y3590D01*
X15435Y3552D01*
X15415Y3512D01*
X15401Y3469D01*
X15392Y3424D01*
X15389Y3379D01*
X15392Y3334D01*
X15401Y3290D01*
X15415Y3247D01*
X15435Y3206D01*
X15460Y3169D01*
X15490Y3135D01*
X15524Y3105D01*
X15562Y3080D01*
X15602Y3060D01*
X15645Y3045D01*
X15690Y3036D01*
X15735Y3033D01*
X15780Y3036D01*
X15824Y3045D01*
X15867Y3060D01*
X15908Y3080D01*
X15946Y3105D01*
X15980Y3135D01*
X16009Y3169D01*
X16035Y3206D01*
X16055Y3247D01*
X16069Y3290D01*
X16078Y3334D01*
X16081Y3379D01*
X16078Y3424D01*
X16069Y3469D01*
X16055Y3512D01*
X16035Y3552D01*
X16009Y3590D01*
X15980Y3624D01*
X15946Y3654D01*
X15908Y3679D01*
X15867Y3699D01*
X15824Y3713D01*
X15780Y3722D01*
X15735Y3725D01*
D02*
G37*
G36*
X17081Y3179D02*
X16935D01*
Y3033D01*
X16971D01*
X17000Y3037D01*
X17026Y3048D01*
X17049Y3065D01*
X17066Y3088D01*
X17077Y3115D01*
X17081Y3143D01*
Y3179D01*
D02*
G37*
G36*
X16535D02*
X16389D01*
Y3143D01*
X16392Y3115D01*
X16403Y3088D01*
X16421Y3065D01*
X16444Y3048D01*
X16470Y3037D01*
X16499Y3033D01*
X16535D01*
Y3179D01*
D02*
G37*
G36*
X16735Y2725D02*
X16690Y2722D01*
X16645Y2713D01*
X16602Y2699D01*
X16562Y2679D01*
X16524Y2654D01*
X16490Y2624D01*
X16460Y2590D01*
X16435Y2552D01*
X16415Y2512D01*
X16401Y2469D01*
X16392Y2424D01*
X16389Y2379D01*
X16392Y2334D01*
X16401Y2290D01*
X16415Y2247D01*
X16435Y2206D01*
X16460Y2169D01*
X16490Y2135D01*
X16524Y2105D01*
X16562Y2080D01*
X16602Y2060D01*
X16645Y2045D01*
X16690Y2036D01*
X16735Y2033D01*
X16780Y2036D01*
X16824Y2045D01*
X16867Y2060D01*
X16908Y2080D01*
X16946Y2105D01*
X16980Y2135D01*
X17009Y2169D01*
X17035Y2206D01*
X17055Y2247D01*
X17069Y2290D01*
X17078Y2334D01*
X17081Y2379D01*
X17078Y2424D01*
X17069Y2469D01*
X17055Y2512D01*
X17035Y2552D01*
X17009Y2590D01*
X16980Y2624D01*
X16946Y2654D01*
X16908Y2679D01*
X16867Y2699D01*
X16824Y2713D01*
X16780Y2722D01*
X16735Y2725D01*
D02*
G37*
G36*
X15735D02*
X15690Y2722D01*
X15645Y2713D01*
X15602Y2699D01*
X15562Y2679D01*
X15524Y2654D01*
X15490Y2624D01*
X15460Y2590D01*
X15435Y2552D01*
X15415Y2512D01*
X15401Y2469D01*
X15392Y2424D01*
X15389Y2379D01*
X15392Y2334D01*
X15401Y2290D01*
X15415Y2247D01*
X15435Y2206D01*
X15460Y2169D01*
X15490Y2135D01*
X15524Y2105D01*
X15562Y2080D01*
X15602Y2060D01*
X15645Y2045D01*
X15690Y2036D01*
X15735Y2033D01*
X15780Y2036D01*
X15824Y2045D01*
X15867Y2060D01*
X15908Y2080D01*
X15946Y2105D01*
X15980Y2135D01*
X16009Y2169D01*
X16035Y2206D01*
X16055Y2247D01*
X16069Y2290D01*
X16078Y2334D01*
X16081Y2379D01*
X16078Y2424D01*
X16069Y2469D01*
X16055Y2512D01*
X16035Y2552D01*
X16009Y2590D01*
X15980Y2624D01*
X15946Y2654D01*
X15908Y2679D01*
X15867Y2699D01*
X15824Y2713D01*
X15780Y2722D01*
X15735Y2725D01*
D02*
G37*
G36*
X5399Y1153D02*
Y909D01*
X5643D01*
X5641Y944D01*
X5632Y982D01*
X5617Y1018D01*
X5596Y1051D01*
X5571Y1081D01*
X5542Y1106D01*
X5508Y1126D01*
X5473Y1141D01*
X5435Y1150D01*
X5399Y1153D01*
D02*
G37*
G36*
X4999D02*
X4964Y1150D01*
X4926Y1141D01*
X4890Y1126D01*
X4857Y1106D01*
X4827Y1081D01*
X4802Y1051D01*
X4782Y1018D01*
X4767Y982D01*
X4758Y944D01*
X4755Y909D01*
X4999D01*
Y1153D01*
D02*
G37*
G36*
X6419Y1143D02*
Y899D01*
X6663D01*
X6661Y934D01*
X6652Y972D01*
X6637Y1008D01*
X6616Y1041D01*
X6591Y1071D01*
X6562Y1096D01*
X6528Y1116D01*
X6493Y1131D01*
X6455Y1140D01*
X6419Y1143D01*
D02*
G37*
G36*
X6019D02*
X5984Y1140D01*
X5946Y1131D01*
X5910Y1116D01*
X5877Y1096D01*
X5847Y1071D01*
X5822Y1041D01*
X5802Y1008D01*
X5787Y972D01*
X5778Y934D01*
X5775Y899D01*
X6019D01*
Y1143D01*
D02*
G37*
G36*
X5643Y509D02*
X5399D01*
Y265D01*
X5435Y267D01*
X5473Y276D01*
X5508Y291D01*
X5542Y312D01*
X5571Y337D01*
X5596Y366D01*
X5617Y400D01*
X5632Y435D01*
X5641Y473D01*
X5643Y509D01*
D02*
G37*
G36*
X4999D02*
X4755D01*
X4758Y473D01*
X4767Y435D01*
X4782Y400D01*
X4802Y366D01*
X4827Y337D01*
X4857Y312D01*
X4890Y291D01*
X4926Y276D01*
X4964Y267D01*
X4999Y265D01*
Y509D01*
D02*
G37*
G36*
X6663Y499D02*
X6419D01*
Y255D01*
X6455Y257D01*
X6493Y266D01*
X6528Y281D01*
X6562Y302D01*
X6591Y327D01*
X6616Y356D01*
X6637Y390D01*
X6652Y425D01*
X6661Y463D01*
X6663Y499D01*
D02*
G37*
G36*
X6019D02*
X5775D01*
X5778Y463D01*
X5787Y425D01*
X5802Y390D01*
X5822Y356D01*
X5847Y327D01*
X5877Y302D01*
X5910Y281D01*
X5946Y266D01*
X5984Y257D01*
X6019Y255D01*
Y499D01*
D02*
G37*
G36*
X7899Y1143D02*
X7851Y1140D01*
X7804Y1128D01*
X7760Y1110D01*
X7719Y1085D01*
X7682Y1054D01*
X7651Y1017D01*
X7626Y976D01*
X7607Y931D01*
X7596Y885D01*
X7592Y837D01*
Y561D01*
X7596Y513D01*
X7607Y466D01*
X7626Y422D01*
X7651Y381D01*
X7682Y344D01*
X7719Y313D01*
X7760Y288D01*
X7804Y269D01*
X7851Y258D01*
X7899Y254D01*
X7947Y258D01*
X7994Y269D01*
X8039Y288D01*
X8080Y313D01*
X8116Y344D01*
X8147Y381D01*
X8173Y422D01*
X8191Y466D01*
X8202Y513D01*
X8206Y561D01*
Y837D01*
X8202Y885D01*
X8191Y931D01*
X8173Y976D01*
X8147Y1017D01*
X8116Y1054D01*
X8080Y1085D01*
X8039Y1110D01*
X7994Y1128D01*
X7947Y1140D01*
X7899Y1143D01*
D02*
G37*
G36*
X7107D02*
X7059Y1140D01*
X7012Y1128D01*
X6968Y1110D01*
X6927Y1085D01*
X6890Y1054D01*
X6859Y1017D01*
X6834Y976D01*
X6815Y931D01*
X6804Y885D01*
X6800Y837D01*
Y561D01*
X6804Y513D01*
X6815Y466D01*
X6834Y422D01*
X6859Y381D01*
X6890Y344D01*
X6927Y313D01*
X6968Y288D01*
X7012Y269D01*
X7059Y258D01*
X7107Y254D01*
X7155Y258D01*
X7202Y269D01*
X7247Y288D01*
X7288Y313D01*
X7324Y344D01*
X7355Y381D01*
X7381Y422D01*
X7399Y466D01*
X7410Y513D01*
X7414Y561D01*
Y837D01*
X7410Y885D01*
X7399Y931D01*
X7381Y976D01*
X7355Y1017D01*
X7324Y1054D01*
X7288Y1085D01*
X7247Y1110D01*
X7202Y1128D01*
X7155Y1140D01*
X7107Y1143D01*
D02*
G37*
G36*
X3134Y8321D02*
X1904Y8321D01*
X1864Y8317D01*
X1827Y8306D01*
X1792Y8287D01*
X1762Y8262D01*
X1737Y8232D01*
X1718Y8197D01*
X1707Y8160D01*
X1703Y8120D01*
X1703Y7704D01*
X1700Y7651D01*
X1693Y7605D01*
X1682Y7560D01*
X1666Y7516D01*
X1647Y7474D01*
X1623Y7435D01*
X1595Y7397D01*
X1564Y7363D01*
X1530Y7332D01*
X1493Y7304D01*
X1453Y7281D01*
X1411Y7261D01*
X1367Y7245D01*
X1322Y7234D01*
X1277Y7227D01*
X1225Y7225D01*
X1181D01*
X1142Y7221D01*
X1104Y7209D01*
X1069Y7191D01*
X1039Y7166D01*
X1014Y7135D01*
X995Y7101D01*
X984Y7063D01*
X980Y7024D01*
X980Y5969D01*
X984Y5929D01*
X995Y5892D01*
X1014Y5857D01*
X1039Y5827D01*
X1069Y5802D01*
X1104Y5783D01*
X1142Y5772D01*
X1181Y5768D01*
X1225D01*
X1277Y5765D01*
X1322Y5758D01*
X1367Y5747D01*
X1411Y5732D01*
X1453Y5712D01*
X1493Y5688D01*
X1530Y5660D01*
X1564Y5629D01*
X1595Y5595D01*
X1623Y5558D01*
X1647Y5518D01*
X1666Y5476D01*
X1682Y5432D01*
X1693Y5388D01*
X1700Y5342D01*
X1702Y5295D01*
X1700Y5249D01*
X1693Y5203D01*
X1682Y5158D01*
X1666Y5115D01*
X1647Y5073D01*
X1623Y5033D01*
X1595Y4996D01*
X1564Y4962D01*
X1530Y4931D01*
X1493Y4903D01*
X1453Y4879D01*
X1411Y4859D01*
X1367Y4844D01*
X1322Y4832D01*
X1277Y4826D01*
X1225Y4823D01*
X1181D01*
X1142Y4819D01*
X1104Y4808D01*
X1069Y4789D01*
X1039Y4764D01*
X1014Y4734D01*
X995Y4699D01*
X984Y4661D01*
X980Y4622D01*
X980Y2130D01*
X982Y2115D01*
X982Y2099D01*
X984Y2095D01*
X984Y2091D01*
X988Y2076D01*
X992Y2061D01*
X994Y2057D01*
X995Y2053D01*
X1003Y2040D01*
X1009Y2026D01*
X1012Y2022D01*
X1014Y2018D01*
X1024Y2007D01*
X1033Y1994D01*
X1036Y1991D01*
X1039Y1988D01*
X1051Y1978D01*
X1062Y1968D01*
X1066Y1966D01*
X1069Y1963D01*
X1083Y1956D01*
X1096Y1948D01*
X1100Y1946D01*
X1104Y1944D01*
X1119Y1940D01*
X1133Y1935D01*
X1138Y1934D01*
X1142Y1933D01*
X1157Y1931D01*
X1172Y1929D01*
X1246Y1926D01*
X1311Y1918D01*
X1375Y1903D01*
X1437Y1884D01*
X1497Y1859D01*
X1555Y1829D01*
X1610Y1794D01*
X1662Y1754D01*
X1710Y1710D01*
X1754Y1662D01*
X1794Y1610D01*
X1829Y1555D01*
X1844Y1525D01*
X1847Y1521D01*
X1848Y1518D01*
X1867Y1485D01*
X1881Y1451D01*
X2267Y534D01*
X2277Y511D01*
X2283Y499D01*
X2289Y486D01*
X2314Y444D01*
X2323Y433D01*
X2330Y421D01*
X2361Y382D01*
X2371Y373D01*
X2380Y362D01*
X2416Y328D01*
X2427Y320D01*
X2437Y310D01*
X2477Y282D01*
X2489Y275D01*
X2501Y267D01*
X2545Y245D01*
X2558Y239D01*
X2570Y234D01*
X2617Y217D01*
X2630Y214D01*
X2643Y210D01*
X2692Y200D01*
X2705Y198D01*
X2719Y196D01*
X2768Y193D01*
X2782Y193D01*
X2796Y193D01*
X2845Y197D01*
X2859Y199D01*
X2873Y201D01*
X2921Y211D01*
X2934Y215D01*
X2948Y219D01*
X2994Y236D01*
X3006Y242D01*
X3019Y247D01*
X3063Y270D01*
X3074Y278D01*
X3086Y285D01*
X3126Y314D01*
X3137Y323D01*
X3147Y332D01*
X3183Y366D01*
X3192Y377D01*
X3201Y387D01*
X3232Y426D01*
X3239Y437D01*
X3247Y449D01*
X3272Y491D01*
X3278Y504D01*
X3284Y516D01*
X3303Y562D01*
X3307Y575D01*
X3312Y588D01*
X3324Y636D01*
X3326Y650D01*
X3329Y664D01*
X3334Y713D01*
X3334Y726D01*
X3335Y740D01*
X3334Y761D01*
X3334Y8120D01*
X3331Y8160D01*
X3319Y8197D01*
X3301Y8232D01*
X3276Y8262D01*
X3245Y8287D01*
X3210Y8306D01*
X3173Y8317D01*
X3134Y8321D01*
D02*
G37*
G36*
X4178Y1343D02*
X3674D01*
X3633Y1340D01*
X3593Y1330D01*
X3555Y1315D01*
X3519Y1293D01*
X3488Y1266D01*
X3461Y1235D01*
X3439Y1199D01*
X3423Y1161D01*
X3414Y1121D01*
X3411Y1080D01*
Y418D01*
X3414Y377D01*
X3423Y337D01*
X3439Y298D01*
X3461Y263D01*
X3488Y232D01*
X3519Y205D01*
X3555Y183D01*
X3593Y167D01*
X3633Y158D01*
X3674Y154D01*
X4178D01*
X4220Y158D01*
X4260Y167D01*
X4298Y183D01*
X4333Y205D01*
X4365Y232D01*
X4392Y263D01*
X4413Y298D01*
X4429Y337D01*
X4439Y377D01*
X4442Y418D01*
Y1080D01*
X4439Y1121D01*
X4429Y1161D01*
X4413Y1199D01*
X4392Y1235D01*
X4365Y1266D01*
X4333Y1293D01*
X4298Y1315D01*
X4260Y1330D01*
X4220Y1340D01*
X4178Y1343D01*
D02*
G37*
%LPD*%
G36*
X3134Y759D02*
X3133Y759D01*
X3134Y734D01*
X3129Y685D01*
X3117Y638D01*
X3098Y592D01*
X3074Y550D01*
X3043Y511D01*
X3008Y477D01*
X2968Y448D01*
X2925Y424D01*
X2878Y407D01*
X2830Y397D01*
X2781Y393D01*
X2732Y397D01*
X2684Y406D01*
X2637Y423D01*
X2594Y446D01*
X2554Y474D01*
X2518Y508D01*
X2487Y546D01*
X2462Y589D01*
X2453Y611D01*
X2067Y1529D01*
X2047Y1575D01*
Y1575D01*
X2023Y1618D01*
X2003Y1656D01*
X1958Y1725D01*
X1908Y1791D01*
X1852Y1852D01*
X1791Y1908D01*
X1725Y1958D01*
X1656Y2003D01*
X1582Y2041D01*
X1506Y2073D01*
X1427Y2098D01*
X1346Y2116D01*
X1264Y2126D01*
X1181Y2130D01*
X1181Y4622D01*
X1230D01*
X1296Y4625D01*
X1362Y4635D01*
X1426Y4651D01*
X1488Y4673D01*
X1548Y4702D01*
X1604Y4736D01*
X1657Y4775D01*
X1706Y4819D01*
X1751Y4868D01*
X1790Y4921D01*
X1824Y4978D01*
X1852Y5038D01*
X1875Y5100D01*
X1891Y5164D01*
X1900Y5229D01*
X1904Y5295D01*
X1900Y5361D01*
X1891Y5427D01*
X1875Y5491D01*
X1852Y5553D01*
X1824Y5613D01*
X1790Y5669D01*
X1751Y5723D01*
X1706Y5771D01*
X1657Y5816D01*
X1604Y5855D01*
X1548Y5889D01*
X1488Y5917D01*
X1426Y5940D01*
X1362Y5956D01*
X1296Y5965D01*
X1230Y5969D01*
X1181D01*
X1181Y7024D01*
X1230D01*
X1296Y7027D01*
X1362Y7037D01*
X1426Y7053D01*
X1488Y7075D01*
X1548Y7103D01*
X1604Y7137D01*
X1657Y7176D01*
X1706Y7221D01*
X1751Y7270D01*
X1790Y7323D01*
X1824Y7380D01*
X1852Y7439D01*
X1875Y7501D01*
X1891Y7566D01*
X1900Y7631D01*
X1904Y7697D01*
X1904D01*
X1904Y8120D01*
X3134Y8120D01*
X3134Y759D01*
D02*
G37*
D10*
X15724Y8591D02*
Y8953D01*
Y8591D02*
X15750Y8565D01*
Y8272D02*
Y8565D01*
X5045Y12233D02*
X12542D01*
X6453Y9031D02*
X6551Y8932D01*
X6453Y9031D02*
Y10090D01*
D35*
X16139Y9370D02*
D03*
X16848D02*
D03*
D36*
X5759Y10852D02*
D03*
D37*
X15735Y4379D02*
D03*
Y3379D02*
D03*
Y2379D02*
D03*
X16735D02*
D03*
Y4379D02*
D03*
D38*
Y3379D02*
D03*
D39*
X3926Y749D02*
D03*
D40*
X2779D02*
D03*
D41*
X915Y7697D02*
D03*
Y5295D02*
D03*
X16407Y7697D02*
D03*
Y5295D02*
D03*
D42*
X16142Y11417D02*
D03*
Y1181D02*
D03*
X1181D02*
D03*
Y11417D02*
D03*
D43*
X7899Y699D02*
D03*
X7107D02*
D03*
D44*
X6219D02*
D03*
X5199Y709D02*
D03*
D45*
X7295Y5071D02*
D03*
X929Y9130D02*
D03*
X7568Y4945D02*
D03*
X7430Y2290D02*
D03*
Y1770D02*
D03*
X7257Y3650D02*
D03*
X6672Y1870D02*
D03*
X6860Y5060D02*
D03*
X7744Y10039D02*
D03*
X7138D02*
D03*
X6836D02*
D03*
X3931Y10855D02*
D03*
X2390D02*
D03*
X3160D02*
D03*
X4316D02*
D03*
X3546D02*
D03*
X2775D02*
D03*
X640Y9130D02*
D03*
X7441Y10039D02*
D03*
X7744Y9469D02*
D03*
Y9754D02*
D03*
X8907Y9609D02*
D03*
X8268Y9319D02*
D03*
X8587Y9609D02*
D03*
Y9321D02*
D03*
X8907D02*
D03*
X2969Y7988D02*
D03*
Y7289D02*
D03*
Y5172D02*
D03*
Y4486D02*
D03*
X6034Y1512D02*
D03*
X6396D02*
D03*
X5673D02*
D03*
X5312D02*
D03*
X6570Y1289D02*
D03*
X8268Y9609D02*
D03*
X14414Y9449D02*
D03*
X12143Y11550D02*
D03*
X14739Y9449D02*
D03*
X5127Y1289D02*
D03*
X11833Y11550D02*
D03*
X11522D02*
D03*
X7352Y7325D02*
D03*
X11196Y11550D02*
D03*
X10869D02*
D03*
X2053Y7289D02*
D03*
X2359D02*
D03*
X2664D02*
D03*
X2053Y5172D02*
D03*
X2359D02*
D03*
X2664D02*
D03*
X5488Y1289D02*
D03*
X6210D02*
D03*
X2969Y1701D02*
D03*
X2664D02*
D03*
X2359D02*
D03*
X2053Y2439D02*
D03*
X2359D02*
D03*
X2664D02*
D03*
X2969D02*
D03*
X2664Y4486D02*
D03*
X2359D02*
D03*
X2053D02*
D03*
X2359Y1369D02*
D03*
X2664D02*
D03*
X2969D02*
D03*
X10216Y11550D02*
D03*
X10542D02*
D03*
X5849Y1289D02*
D03*
X2664Y7988D02*
D03*
X2359D02*
D03*
X2053D02*
D03*
D46*
X15724Y8953D02*
D03*
X15750Y8272D02*
D03*
X12542Y12233D02*
D03*
X6453Y10090D02*
D03*
X6551Y8932D02*
D03*
X5045Y12233D02*
D03*
D47*
X5759Y10852D02*
D03*
%TF.MD5,6459093fa2d8b4da8dd328efaef34846*%
M02*
