M48
;Layer_Color=9474304
;FILE_FORMAT=2:4
INCH,LZ
;TYPE=PLATED
T1F00S00C0.0118
T2F00S00C0.0157
T3F00S00C0.0354
T4F00S00C0.0394
T5F00S00C0.0433
T6F00S00C0.0472
T8F00S00C0.0984
%
T01
X01575Y008272
X015724Y008953
X012542Y012233
X005045
X006453Y01009
X006551Y008932
T02
X014414Y009449
X014739
X012143Y01155
X011833
X011522
X011196
X010869
X010542
X010216
X008907Y009609
Y009321
X008587
Y009609
X008268
Y009319
X007744Y009469
Y009754
Y010039
X007441
X007138
X006836
X005759Y010852
X004316Y010855
X003931
X003546
X00316
X002775
X00239
X002359Y007988
X002664
X002969
Y007289
X002664
X002359
X002053
Y007988
X000929Y00913
X00064
X002053Y005172
X002359
X002664
X002969
Y004486
X002664
X002359
X002053
Y002439
X002359
X002664
X002969
Y001701
X002664
X002359
Y001369
X002664
X002969
X005127Y001289
X005488
X005849
X00621
X00657
X006396Y001512
X006034
X005673
X005312
X006672Y00187
X00743Y00177
Y00229
X007257Y00365
X007295Y005071
X007568Y004945
X00686Y00506
X007352Y007325
T03
X007107Y000699
X007899
T04
X015735Y002379
Y003379
Y004379
X016735
Y003379
Y002379
T05
X002779Y000749
X003926
T06
X005199Y000709
X006219Y000699
T08
X016142Y001181
Y011417
X001181
Y001181
M30
