%TF.GenerationSoftware,Altium Limited,Altium Designer,20.1.8 (145)*%
G04 Layer_Physical_Order=1*
G04 Layer_Color=2232046*
%FSLAX24Y24*%
%MOIN*%
%TF.SameCoordinates,2251247C-4072-41CD-9A68-8E7E2D596FDF*%
%TF.FilePolarity,Positive*%
%TF.FileFunction,Copper,L1,Top,Signal*%
%TF.Part,Single*%
G01*
G75*
%TA.AperFunction,Conductor*%
%ADD10C,0.0050*%
%TA.AperFunction,SMDPad,CuDef*%
G04:AMPARAMS|DCode=11|XSize=21.7mil|YSize=31.5mil|CornerRadius=0.1mil|HoleSize=0mil|Usage=FLASHONLY|Rotation=270.000|XOffset=0mil|YOffset=0mil|HoleType=Round|Shape=RoundedRectangle|*
%AMROUNDEDRECTD11*
21,1,0.0217,0.0313,0,0,270.0*
21,1,0.0214,0.0315,0,0,270.0*
1,1,0.0002,-0.0156,-0.0107*
1,1,0.0002,-0.0156,0.0107*
1,1,0.0002,0.0156,0.0107*
1,1,0.0002,0.0156,-0.0107*
%
%ADD11ROUNDEDRECTD11*%
G04:AMPARAMS|DCode=12|XSize=55.1mil|YSize=41.3mil|CornerRadius=0.2mil|HoleSize=0mil|Usage=FLASHONLY|Rotation=90.000|XOffset=0mil|YOffset=0mil|HoleType=Round|Shape=RoundedRectangle|*
%AMROUNDEDRECTD12*
21,1,0.0551,0.0409,0,0,90.0*
21,1,0.0547,0.0413,0,0,90.0*
1,1,0.0004,0.0205,0.0274*
1,1,0.0004,0.0205,-0.0274*
1,1,0.0004,-0.0205,-0.0274*
1,1,0.0004,-0.0205,0.0274*
%
%ADD12ROUNDEDRECTD12*%
G04:AMPARAMS|DCode=13|XSize=33.5mil|YSize=23.6mil|CornerRadius=0.1mil|HoleSize=0mil|Usage=FLASHONLY|Rotation=270.000|XOffset=0mil|YOffset=0mil|HoleType=Round|Shape=RoundedRectangle|*
%AMROUNDEDRECTD13*
21,1,0.0335,0.0234,0,0,270.0*
21,1,0.0332,0.0236,0,0,270.0*
1,1,0.0002,-0.0117,-0.0166*
1,1,0.0002,-0.0117,0.0166*
1,1,0.0002,0.0117,0.0166*
1,1,0.0002,0.0117,-0.0166*
%
%ADD13ROUNDEDRECTD13*%
G04:AMPARAMS|DCode=14|XSize=21.7mil|YSize=29.5mil|CornerRadius=0.1mil|HoleSize=0mil|Usage=FLASHONLY|Rotation=270.000|XOffset=0mil|YOffset=0mil|HoleType=Round|Shape=RoundedRectangle|*
%AMROUNDEDRECTD14*
21,1,0.0217,0.0293,0,0,270.0*
21,1,0.0214,0.0295,0,0,270.0*
1,1,0.0002,-0.0147,-0.0107*
1,1,0.0002,-0.0147,0.0107*
1,1,0.0002,0.0147,0.0107*
1,1,0.0002,0.0147,-0.0107*
%
%ADD14ROUNDEDRECTD14*%
G04:AMPARAMS|DCode=15|XSize=29.5mil|YSize=21.7mil|CornerRadius=0.1mil|HoleSize=0mil|Usage=FLASHONLY|Rotation=90.000|XOffset=0mil|YOffset=0mil|HoleType=Round|Shape=RoundedRectangle|*
%AMROUNDEDRECTD15*
21,1,0.0295,0.0214,0,0,90.0*
21,1,0.0293,0.0217,0,0,90.0*
1,1,0.0002,0.0107,0.0147*
1,1,0.0002,0.0107,-0.0147*
1,1,0.0002,-0.0107,-0.0147*
1,1,0.0002,-0.0107,0.0147*
%
%ADD15ROUNDEDRECTD15*%
G04:AMPARAMS|DCode=16|XSize=218.5mil|YSize=267.7mil|CornerRadius=1.1mil|HoleSize=0mil|Usage=FLASHONLY|Rotation=90.000|XOffset=0mil|YOffset=0mil|HoleType=Round|Shape=RoundedRectangle|*
%AMROUNDEDRECTD16*
21,1,0.2185,0.2655,0,0,90.0*
21,1,0.2163,0.2677,0,0,90.0*
1,1,0.0022,0.1328,0.1082*
1,1,0.0022,0.1328,-0.1082*
1,1,0.0022,-0.1328,-0.1082*
1,1,0.0022,-0.1328,0.1082*
%
%ADD16ROUNDEDRECTD16*%
G04:AMPARAMS|DCode=17|XSize=37.4mil|YSize=104.3mil|CornerRadius=0.2mil|HoleSize=0mil|Usage=FLASHONLY|Rotation=90.000|XOffset=0mil|YOffset=0mil|HoleType=Round|Shape=RoundedRectangle|*
%AMROUNDEDRECTD17*
21,1,0.0374,0.1040,0,0,90.0*
21,1,0.0370,0.1043,0,0,90.0*
1,1,0.0004,0.0520,0.0185*
1,1,0.0004,0.0520,-0.0185*
1,1,0.0004,-0.0520,-0.0185*
1,1,0.0004,-0.0520,0.0185*
%
%ADD17ROUNDEDRECTD17*%
G04:AMPARAMS|DCode=18|XSize=13.8mil|YSize=23.6mil|CornerRadius=0.1mil|HoleSize=0mil|Usage=FLASHONLY|Rotation=90.000|XOffset=0mil|YOffset=0mil|HoleType=Round|Shape=RoundedRectangle|*
%AMROUNDEDRECTD18*
21,1,0.0138,0.0235,0,0,90.0*
21,1,0.0136,0.0236,0,0,90.0*
1,1,0.0001,0.0117,0.0068*
1,1,0.0001,0.0117,-0.0068*
1,1,0.0001,-0.0117,-0.0068*
1,1,0.0001,-0.0117,0.0068*
%
%ADD18ROUNDEDRECTD18*%
G04:AMPARAMS|DCode=19|XSize=33.5mil|YSize=23.6mil|CornerRadius=0.1mil|HoleSize=0mil|Usage=FLASHONLY|Rotation=180.000|XOffset=0mil|YOffset=0mil|HoleType=Round|Shape=RoundedRectangle|*
%AMROUNDEDRECTD19*
21,1,0.0335,0.0234,0,0,180.0*
21,1,0.0332,0.0236,0,0,180.0*
1,1,0.0002,-0.0166,0.0117*
1,1,0.0002,0.0166,0.0117*
1,1,0.0002,0.0166,-0.0117*
1,1,0.0002,-0.0166,-0.0117*
%
%ADD19ROUNDEDRECTD19*%
G04:AMPARAMS|DCode=20|XSize=21.7mil|YSize=31.5mil|CornerRadius=0.1mil|HoleSize=0mil|Usage=FLASHONLY|Rotation=180.000|XOffset=0mil|YOffset=0mil|HoleType=Round|Shape=RoundedRectangle|*
%AMROUNDEDRECTD20*
21,1,0.0217,0.0313,0,0,180.0*
21,1,0.0214,0.0315,0,0,180.0*
1,1,0.0002,-0.0107,0.0156*
1,1,0.0002,0.0107,0.0156*
1,1,0.0002,0.0107,-0.0156*
1,1,0.0002,-0.0107,-0.0156*
%
%ADD20ROUNDEDRECTD20*%
G04:AMPARAMS|DCode=21|XSize=29.5mil|YSize=21.7mil|CornerRadius=0.1mil|HoleSize=0mil|Usage=FLASHONLY|Rotation=180.000|XOffset=0mil|YOffset=0mil|HoleType=Round|Shape=RoundedRectangle|*
%AMROUNDEDRECTD21*
21,1,0.0295,0.0214,0,0,180.0*
21,1,0.0293,0.0217,0,0,180.0*
1,1,0.0002,-0.0147,0.0107*
1,1,0.0002,0.0147,0.0107*
1,1,0.0002,0.0147,-0.0107*
1,1,0.0002,-0.0147,-0.0107*
%
%ADD21ROUNDEDRECTD21*%
G04:AMPARAMS|DCode=22|XSize=100.4mil|YSize=47.2mil|CornerRadius=0.2mil|HoleSize=0mil|Usage=FLASHONLY|Rotation=0.000|XOffset=0mil|YOffset=0mil|HoleType=Round|Shape=RoundedRectangle|*
%AMROUNDEDRECTD22*
21,1,0.1004,0.0468,0,0,0.0*
21,1,0.0999,0.0472,0,0,0.0*
1,1,0.0005,0.0500,-0.0234*
1,1,0.0005,-0.0500,-0.0234*
1,1,0.0005,-0.0500,0.0234*
1,1,0.0005,0.0500,0.0234*
%
%ADD22ROUNDEDRECTD22*%
%TA.AperFunction,ConnectorPad*%
G04:AMPARAMS|DCode=23|XSize=43.3mil|YSize=90.6mil|CornerRadius=0.2mil|HoleSize=0mil|Usage=FLASHONLY|Rotation=270.000|XOffset=0mil|YOffset=0mil|HoleType=Round|Shape=RoundedRectangle|*
%AMROUNDEDRECTD23*
21,1,0.0433,0.0901,0,0,270.0*
21,1,0.0429,0.0906,0,0,270.0*
1,1,0.0004,-0.0451,-0.0214*
1,1,0.0004,-0.0451,0.0214*
1,1,0.0004,0.0451,0.0214*
1,1,0.0004,0.0451,-0.0214*
%
%ADD23ROUNDEDRECTD23*%
G04:AMPARAMS|DCode=24|XSize=43.3mil|YSize=90.6mil|CornerRadius=0.2mil|HoleSize=0mil|Usage=FLASHONLY|Rotation=0.000|XOffset=0mil|YOffset=0mil|HoleType=Round|Shape=RoundedRectangle|*
%AMROUNDEDRECTD24*
21,1,0.0433,0.0901,0,0,0.0*
21,1,0.0429,0.0906,0,0,0.0*
1,1,0.0004,0.0214,-0.0451*
1,1,0.0004,-0.0214,-0.0451*
1,1,0.0004,-0.0214,0.0451*
1,1,0.0004,0.0214,0.0451*
%
%ADD24ROUNDEDRECTD24*%
%TA.AperFunction,SMDPad,CuDef*%
G04:AMPARAMS|DCode=25|XSize=21.3mil|YSize=29.5mil|CornerRadius=0.1mil|HoleSize=0mil|Usage=FLASHONLY|Rotation=0.000|XOffset=0mil|YOffset=0mil|HoleType=Round|Shape=RoundedRectangle|*
%AMROUNDEDRECTD25*
21,1,0.0213,0.0293,0,0,0.0*
21,1,0.0210,0.0295,0,0,0.0*
1,1,0.0002,0.0105,-0.0147*
1,1,0.0002,-0.0105,-0.0147*
1,1,0.0002,-0.0105,0.0147*
1,1,0.0002,0.0105,0.0147*
%
%ADD25ROUNDEDRECTD25*%
%TA.AperFunction,SMDPad,SMDef*%
G04:AMPARAMS|DCode=26|XSize=59.1mil|YSize=78.7mil|CornerRadius=0.3mil|HoleSize=0mil|Usage=FLASHONLY|Rotation=0.000|XOffset=0mil|YOffset=0mil|HoleType=Round|Shape=RoundedRectangle|*
%AMROUNDEDRECTD26*
21,1,0.0591,0.0782,0,0,0.0*
21,1,0.0585,0.0787,0,0,0.0*
1,1,0.0006,0.0292,-0.0391*
1,1,0.0006,-0.0292,-0.0391*
1,1,0.0006,-0.0292,0.0391*
1,1,0.0006,0.0292,0.0391*
%
%ADD26ROUNDEDRECTD26*%
%TA.AperFunction,SMDPad,CuDef*%
G04:AMPARAMS|DCode=27|XSize=72.8mil|YSize=39.4mil|CornerRadius=0.2mil|HoleSize=0mil|Usage=FLASHONLY|Rotation=180.000|XOffset=0mil|YOffset=0mil|HoleType=Round|Shape=RoundedRectangle|*
%AMROUNDEDRECTD27*
21,1,0.0728,0.0390,0,0,180.0*
21,1,0.0724,0.0394,0,0,180.0*
1,1,0.0004,-0.0362,0.0195*
1,1,0.0004,0.0362,0.0195*
1,1,0.0004,0.0362,-0.0195*
1,1,0.0004,-0.0362,-0.0195*
%
%ADD27ROUNDEDRECTD27*%
G04:AMPARAMS|DCode=28|XSize=157.5mil|YSize=86.6mil|CornerRadius=8.7mil|HoleSize=0mil|Usage=FLASHONLY|Rotation=90.000|XOffset=0mil|YOffset=0mil|HoleType=Round|Shape=RoundedRectangle|*
%AMROUNDEDRECTD28*
21,1,0.1575,0.0693,0,0,90.0*
21,1,0.1402,0.0866,0,0,90.0*
1,1,0.0173,0.0346,0.0701*
1,1,0.0173,0.0346,-0.0701*
1,1,0.0173,-0.0346,-0.0701*
1,1,0.0173,-0.0346,0.0701*
%
%ADD28ROUNDEDRECTD28*%
%TA.AperFunction,Conductor*%
%ADD29C,0.0300*%
%ADD30C,0.0120*%
%ADD31C,0.0320*%
%ADD32C,0.0080*%
%ADD33C,0.0060*%
%ADD34C,0.0200*%
%TA.AperFunction,ComponentPad*%
%ADD35C,0.0276*%
%TA.AperFunction,ViaPad*%
%ADD36C,0.0276*%
%TA.AperFunction,ComponentPad*%
%ADD37C,0.0591*%
G04:AMPARAMS|DCode=38|XSize=59.1mil|YSize=59.1mil|CornerRadius=5.9mil|HoleSize=0mil|Usage=FLASHONLY|Rotation=180.000|XOffset=0mil|YOffset=0mil|HoleType=Round|Shape=RoundedRectangle|*
%AMROUNDEDRECTD38*
21,1,0.0591,0.0472,0,0,180.0*
21,1,0.0472,0.0591,0,0,180.0*
1,1,0.0118,-0.0236,0.0236*
1,1,0.0118,0.0236,0.0236*
1,1,0.0118,0.0236,-0.0236*
1,1,0.0118,-0.0236,-0.0236*
%
%ADD38ROUNDEDRECTD38*%
G04:AMPARAMS|DCode=39|XSize=63mil|YSize=78.7mil|CornerRadius=6.3mil|HoleSize=0mil|Usage=FLASHONLY|Rotation=0.000|XOffset=0mil|YOffset=0mil|HoleType=Round|Shape=RoundedRectangle|*
%AMROUNDEDRECTD39*
21,1,0.0630,0.0661,0,0,0.0*
21,1,0.0504,0.0787,0,0,0.0*
1,1,0.0126,0.0252,-0.0331*
1,1,0.0126,-0.0252,-0.0331*
1,1,0.0126,-0.0252,0.0331*
1,1,0.0126,0.0252,0.0331*
%
%ADD39ROUNDEDRECTD39*%
%ADD40C,0.0709*%
%TA.AperFunction,ViaPad*%
%ADD41O,0.1575X0.0945*%
%ADD42C,0.1496*%
%TA.AperFunction,ComponentPad*%
G04:AMPARAMS|DCode=43|XSize=51.2mil|YSize=78.7mil|CornerRadius=25.6mil|HoleSize=0mil|Usage=FLASHONLY|Rotation=0.000|XOffset=0mil|YOffset=0mil|HoleType=Round|Shape=RoundedRectangle|*
%AMROUNDEDRECTD43*
21,1,0.0512,0.0276,0,0,0.0*
21,1,0.0000,0.0787,0,0,0.0*
1,1,0.0512,0.0000,-0.0138*
1,1,0.0512,0.0000,-0.0138*
1,1,0.0512,0.0000,0.0138*
1,1,0.0512,0.0000,0.0138*
%
%ADD43ROUNDEDRECTD43*%
G04:AMPARAMS|DCode=44|XSize=78.7mil|YSize=78.7mil|CornerRadius=19.7mil|HoleSize=0mil|Usage=FLASHONLY|Rotation=0.000|XOffset=0mil|YOffset=0mil|HoleType=Round|Shape=RoundedRectangle|*
%AMROUNDEDRECTD44*
21,1,0.0787,0.0394,0,0,0.0*
21,1,0.0394,0.0787,0,0,0.0*
1,1,0.0394,0.0197,-0.0197*
1,1,0.0394,-0.0197,-0.0197*
1,1,0.0394,-0.0197,0.0197*
1,1,0.0394,0.0197,0.0197*
%
%ADD44ROUNDEDRECTD44*%
%TA.AperFunction,ViaPad*%
%ADD45C,0.0260*%
%ADD46C,0.0220*%
G36*
X16228Y12511D02*
X16313Y12501D01*
X16398Y12484D01*
X16481Y12461D01*
X16562Y12431D01*
X16640Y12395D01*
X16715Y12353D01*
X16787Y12305D01*
X16854Y12252D01*
X16918Y12193D01*
X16976Y12130D01*
X17029Y12062D01*
X17077Y11991D01*
X17119Y11915D01*
X17155Y11837D01*
X17185Y11756D01*
X17209Y11673D01*
X17225Y11589D01*
X17236Y11503D01*
X17237Y11472D01*
X17238Y11417D01*
X17238Y11417D01*
X17238Y11364D01*
Y1181D01*
X17239Y1178D01*
X17236Y1095D01*
X17225Y1009D01*
X17209Y925D01*
X17185Y842D01*
X17155Y761D01*
X17119Y683D01*
X17077Y608D01*
X17029Y536D01*
X16976Y469D01*
X16918Y405D01*
X16854Y347D01*
X16787Y293D01*
X16715Y246D01*
X16640Y203D01*
X16562Y167D01*
X16481Y138D01*
X16398Y114D01*
X16313Y97D01*
X16228Y87D01*
X16196Y86D01*
X16142Y84D01*
X16142Y84D01*
X16088Y84D01*
X14862D01*
Y2253D01*
X14912Y2281D01*
X15404D01*
X15415Y2247D01*
X15435Y2206D01*
X15460Y2169D01*
X15490Y2135D01*
X15524Y2105D01*
X15562Y2080D01*
X15602Y2060D01*
X15645Y2045D01*
X15690Y2036D01*
X15735Y2033D01*
X15780Y2036D01*
X15824Y2045D01*
X15867Y2060D01*
X15908Y2080D01*
X15946Y2105D01*
X15980Y2135D01*
X16009Y2169D01*
X16035Y2206D01*
X16055Y2247D01*
X16067Y2284D01*
X16087Y2296D01*
X16129Y2309D01*
X16136Y2306D01*
X16155Y2304D01*
X16398D01*
X16401Y2290D01*
X16415Y2247D01*
X16435Y2206D01*
X16460Y2169D01*
X16490Y2135D01*
X16524Y2105D01*
X16562Y2080D01*
X16602Y2060D01*
X16645Y2045D01*
X16690Y2036D01*
X16735Y2033D01*
X16780Y2036D01*
X16824Y2045D01*
X16867Y2060D01*
X16908Y2080D01*
X16946Y2105D01*
X16980Y2135D01*
X17009Y2169D01*
X17035Y2206D01*
X17055Y2247D01*
X17069Y2290D01*
X17078Y2334D01*
X17081Y2379D01*
X17078Y2424D01*
X17069Y2469D01*
X17055Y2512D01*
X17035Y2552D01*
X17009Y2590D01*
X16980Y2624D01*
X16946Y2654D01*
X16908Y2679D01*
X16867Y2699D01*
X16824Y2713D01*
X16780Y2722D01*
X16735Y2725D01*
X16690Y2722D01*
X16645Y2713D01*
X16602Y2699D01*
X16562Y2679D01*
X16524Y2654D01*
X16490Y2624D01*
X16460Y2590D01*
X16435Y2552D01*
X16415Y2512D01*
X16401Y2469D01*
X16398Y2455D01*
X16224D01*
X16219Y2490D01*
X16203Y2543D01*
X16182Y2594D01*
X16155Y2643D01*
X16123Y2688D01*
X16086Y2730D01*
X16044Y2767D01*
X15999Y2799D01*
X15950Y2826D01*
X15899Y2847D01*
X15859Y2859D01*
X15808Y2880D01*
X15811Y2899D01*
Y3042D01*
X15824Y3045D01*
X15867Y3060D01*
X15908Y3080D01*
X15946Y3105D01*
X15980Y3135D01*
X16009Y3169D01*
X16035Y3206D01*
X16055Y3247D01*
X16069Y3290D01*
X16078Y3334D01*
X16081Y3379D01*
X16078Y3424D01*
X16069Y3469D01*
X16055Y3512D01*
X16035Y3552D01*
X16009Y3590D01*
X15980Y3624D01*
X15946Y3654D01*
X15908Y3679D01*
X15867Y3699D01*
X15824Y3713D01*
X15780Y3722D01*
X15735Y3725D01*
X15690Y3722D01*
X15645Y3713D01*
X15602Y3699D01*
X15562Y3679D01*
X15524Y3654D01*
X15490Y3624D01*
X15460Y3590D01*
X15435Y3552D01*
X15415Y3512D01*
X15401Y3469D01*
X15392Y3424D01*
X15389Y3379D01*
X15392Y3334D01*
X15401Y3290D01*
X15415Y3247D01*
X15435Y3206D01*
X15460Y3169D01*
X15490Y3135D01*
X15524Y3105D01*
X15562Y3080D01*
X15602Y3060D01*
X15645Y3045D01*
X15659Y3042D01*
Y2970D01*
X15602Y2960D01*
X15537Y2942D01*
X15475Y2916D01*
X15417Y2884D01*
X15362Y2845D01*
X15312Y2800D01*
X15267Y2750D01*
X15229Y2696D01*
X15196Y2637D01*
X15194Y2632D01*
X8563D01*
Y3106D01*
X9041D01*
X9055Y3107D01*
X9067Y3113D01*
X9078Y3121D01*
X9087Y3132D01*
X9092Y3145D01*
X9094Y3158D01*
Y3587D01*
X9095Y3589D01*
X9232D01*
X9232Y3589D01*
X9252Y3591D01*
X9270Y3599D01*
X9286Y3611D01*
X9323Y3649D01*
X9323Y3649D01*
X9336Y3664D01*
X9343Y3683D01*
X9346Y3702D01*
X9346Y3702D01*
Y6486D01*
X9343Y6505D01*
X9336Y6524D01*
X9323Y6539D01*
X9323Y6539D01*
X9287Y6576D01*
X9271Y6588D01*
X9253Y6596D01*
X9233Y6598D01*
X9233Y6598D01*
X9094D01*
Y6737D01*
X9095Y6739D01*
X9275D01*
X9275Y6739D01*
X9294Y6741D01*
X9313Y6749D01*
X9328Y6761D01*
X9365Y6797D01*
X9365Y6797D01*
X9377Y6813D01*
X9385Y6831D01*
X9387Y6851D01*
X9387Y6851D01*
Y7341D01*
X10845Y8799D01*
X10899Y8799D01*
X11021Y8677D01*
X11038Y8666D01*
X11057Y8662D01*
X11764Y8662D01*
X11765Y8662D01*
X13671D01*
Y3755D01*
X13675Y3726D01*
X13686Y3700D01*
X13704Y3677D01*
X13978Y3403D01*
Y3112D01*
X13982Y3083D01*
X13993Y3056D01*
X14010Y3033D01*
X14076Y2968D01*
X14099Y2950D01*
X14126Y2939D01*
X14155Y2935D01*
X15149D01*
X15177Y2939D01*
X15204Y2950D01*
X15227Y2968D01*
X15298Y3039D01*
X15316Y3062D01*
X15327Y3088D01*
X15331Y3117D01*
Y3544D01*
X15600Y3813D01*
X16280D01*
X16308Y3817D01*
X16335Y3828D01*
X16358Y3845D01*
X16582Y4070D01*
X16602Y4060D01*
X16645Y4045D01*
X16690Y4036D01*
X16735Y4033D01*
X16780Y4036D01*
X16824Y4045D01*
X16867Y4060D01*
X16908Y4080D01*
X16946Y4105D01*
X16980Y4135D01*
X17009Y4169D01*
X17035Y4206D01*
X17055Y4247D01*
X17069Y4290D01*
X17078Y4334D01*
X17081Y4379D01*
X17078Y4424D01*
X17069Y4469D01*
X17055Y4512D01*
X17035Y4552D01*
X17009Y4590D01*
X16980Y4624D01*
X16946Y4654D01*
X16908Y4679D01*
X16867Y4699D01*
X16824Y4713D01*
X16780Y4722D01*
X16735Y4725D01*
X16690Y4722D01*
X16645Y4713D01*
X16602Y4699D01*
X16562Y4679D01*
X16524Y4654D01*
X16490Y4624D01*
X16460Y4590D01*
X16435Y4552D01*
X16415Y4512D01*
X16401Y4469D01*
X16392Y4424D01*
X16389Y4379D01*
X16392Y4334D01*
X16401Y4290D01*
X16415Y4247D01*
X16425Y4226D01*
X16234Y4035D01*
X15940D01*
X15923Y4090D01*
X15946Y4105D01*
X15980Y4135D01*
X16009Y4169D01*
X16035Y4206D01*
X16055Y4247D01*
X16069Y4290D01*
X16078Y4334D01*
X16081Y4379D01*
X16078Y4424D01*
X16069Y4469D01*
X16055Y4512D01*
X16035Y4552D01*
X16009Y4590D01*
X15980Y4624D01*
X15946Y4654D01*
X15908Y4679D01*
X15867Y4699D01*
X15824Y4713D01*
X15780Y4722D01*
X15735Y4725D01*
X15690Y4722D01*
X15645Y4713D01*
X15602Y4699D01*
X15562Y4679D01*
X15524Y4654D01*
X15490Y4624D01*
X15460Y4590D01*
X15435Y4552D01*
X15415Y4512D01*
X15401Y4469D01*
X15392Y4424D01*
X15389Y4379D01*
X15392Y4334D01*
X15401Y4290D01*
X15415Y4247D01*
X15435Y4206D01*
X15460Y4169D01*
X15479Y4147D01*
X15072Y3740D01*
X14237D01*
X14093Y3884D01*
Y4867D01*
X14148D01*
Y4728D01*
X14150Y4715D01*
X14155Y4702D01*
X14164Y4691D01*
X14175Y4683D01*
X14187Y4677D01*
X14201Y4676D01*
X15102D01*
X15116Y4677D01*
X15129Y4683D01*
X15139Y4691D01*
X15148Y4702D01*
X15153Y4715D01*
X15155Y4728D01*
Y5157D01*
X15153Y5171D01*
X15148Y5183D01*
X15139Y5194D01*
X15129Y5203D01*
X15116Y5208D01*
X15102Y5210D01*
X14201D01*
X14187Y5208D01*
X14175Y5203D01*
X14164Y5194D01*
X14155Y5183D01*
X14150Y5171D01*
X14148Y5157D01*
Y5018D01*
X14093D01*
Y8405D01*
X15024D01*
X15053Y8350D01*
X15053Y8350D01*
X14652D01*
X14650Y8350D01*
X14201D01*
X14187Y8348D01*
X14175Y8343D01*
X14164Y8334D01*
X14155Y8323D01*
X14150Y8311D01*
X14148Y8297D01*
Y7868D01*
X14150Y7855D01*
X14155Y7842D01*
X14164Y7831D01*
X14175Y7823D01*
X14187Y7817D01*
X14201Y7816D01*
X15102D01*
X15116Y7817D01*
X15129Y7823D01*
X15139Y7831D01*
X15148Y7842D01*
X15153Y7855D01*
X15155Y7868D01*
Y8144D01*
X15159Y8147D01*
X15212Y8122D01*
X15214Y8119D01*
Y7378D01*
X15155D01*
Y7517D01*
X15153Y7531D01*
X15148Y7543D01*
X15139Y7554D01*
X15129Y7563D01*
X15116Y7568D01*
X15102Y7570D01*
X14201D01*
X14187Y7568D01*
X14175Y7563D01*
X14164Y7554D01*
X14155Y7543D01*
X14150Y7531D01*
X14148Y7517D01*
Y7088D01*
X14150Y7075D01*
X14155Y7062D01*
X14164Y7051D01*
X14175Y7043D01*
X14187Y7037D01*
X14201Y7036D01*
X15102D01*
X15116Y7037D01*
X15129Y7043D01*
X15139Y7051D01*
X15148Y7062D01*
X15153Y7075D01*
X15155Y7088D01*
Y7227D01*
X15253D01*
X15253Y7227D01*
X15259Y7228D01*
X15298Y7205D01*
X15314Y7189D01*
Y6631D01*
X15281Y6598D01*
X15155D01*
Y6737D01*
X15153Y6751D01*
X15148Y6763D01*
X15139Y6774D01*
X15129Y6783D01*
X15116Y6788D01*
X15102Y6790D01*
X14201D01*
X14187Y6788D01*
X14175Y6783D01*
X14164Y6774D01*
X14155Y6763D01*
X14150Y6751D01*
X14148Y6737D01*
Y6308D01*
X14150Y6295D01*
X14155Y6282D01*
X14164Y6271D01*
X14175Y6263D01*
X14187Y6257D01*
X14201Y6256D01*
X15102D01*
X15116Y6257D01*
X15129Y6263D01*
X15139Y6271D01*
X15148Y6282D01*
X15153Y6295D01*
X15155Y6308D01*
Y6447D01*
X15313D01*
X15313Y6447D01*
X15332Y6450D01*
X15351Y6457D01*
X15364Y6468D01*
X15385Y6465D01*
X15419Y6451D01*
Y5826D01*
X15392Y5798D01*
X15155D01*
Y5937D01*
X15153Y5951D01*
X15148Y5963D01*
X15139Y5974D01*
X15129Y5983D01*
X15116Y5988D01*
X15102Y5990D01*
X14201D01*
X14187Y5988D01*
X14175Y5983D01*
X14164Y5974D01*
X14155Y5963D01*
X14150Y5951D01*
X14148Y5937D01*
Y5508D01*
X14150Y5495D01*
X14155Y5482D01*
X14164Y5471D01*
X14175Y5463D01*
X14187Y5457D01*
X14201Y5456D01*
X15102D01*
X15116Y5457D01*
X15129Y5463D01*
X15139Y5471D01*
X15148Y5482D01*
X15153Y5495D01*
X15155Y5508D01*
Y5647D01*
X15423D01*
X15423Y5647D01*
X15443Y5650D01*
X15461Y5657D01*
X15476Y5669D01*
X15549Y5741D01*
X15549Y5741D01*
X15561Y5757D01*
X15568Y5775D01*
X15571Y5795D01*
Y8135D01*
X15621Y8166D01*
X15632Y8164D01*
X15636Y8158D01*
X15661Y8138D01*
X15689Y8123D01*
X15719Y8114D01*
X15750Y8111D01*
X15782Y8114D01*
X15812Y8123D01*
X15840Y8138D01*
X15864Y8158D01*
X15884Y8182D01*
X15899Y8210D01*
X15908Y8240D01*
X15911Y8272D01*
X15908Y8303D01*
X15899Y8334D01*
X15884Y8361D01*
X15864Y8386D01*
X15840Y8406D01*
X15812Y8421D01*
X15782Y8430D01*
X15750Y8433D01*
X15719Y8430D01*
X15709Y8427D01*
X15705Y8428D01*
X15664Y8453D01*
X15655Y8465D01*
Y8586D01*
X15951D01*
Y8388D01*
X15953Y8374D01*
X15958Y8362D01*
X15967Y8351D01*
X15977Y8342D01*
X15990Y8337D01*
X16004Y8335D01*
X16413D01*
X16426Y8337D01*
X16439Y8342D01*
X16450Y8351D01*
X16458Y8362D01*
X16464Y8374D01*
X16465Y8388D01*
Y8660D01*
X16466Y8661D01*
Y9080D01*
X16517Y9131D01*
X16517Y9131D01*
X16529Y9147D01*
X16536Y9165D01*
X16539Y9184D01*
X16539Y9184D01*
Y9574D01*
X16539Y9574D01*
X16536Y9594D01*
X16529Y9612D01*
X16517Y9627D01*
X16517Y9627D01*
X16466Y9679D01*
Y10079D01*
X16465Y10081D01*
Y10352D01*
X16464Y10366D01*
X16458Y10379D01*
X16450Y10389D01*
X16439Y10398D01*
X16426Y10403D01*
X16413Y10405D01*
X16004D01*
X15990Y10403D01*
X15977Y10398D01*
X15967Y10389D01*
X15958Y10379D01*
X15953Y10366D01*
X15951Y10352D01*
Y9805D01*
X15953Y9792D01*
X15958Y9779D01*
X15967Y9768D01*
X15977Y9760D01*
X15990Y9754D01*
X16004Y9753D01*
X16314D01*
Y9647D01*
X16314Y9647D01*
X16317Y9628D01*
X16324Y9609D01*
X16337Y9594D01*
X16388Y9543D01*
Y9216D01*
X16337Y9165D01*
X16324Y9149D01*
X16317Y9131D01*
X16314Y9111D01*
X16314Y9111D01*
Y8987D01*
X16004D01*
X15990Y8986D01*
X15977Y8980D01*
X15967Y8972D01*
X15958Y8961D01*
X15953Y8949D01*
X15951Y8935D01*
Y8737D01*
X15611D01*
X15611Y8737D01*
X15610Y8737D01*
X15567Y8765D01*
X15564Y8768D01*
X15571Y8805D01*
X15626Y8826D01*
X15634Y8819D01*
X15662Y8804D01*
X15692Y8795D01*
X15724Y8792D01*
X15755Y8795D01*
X15786Y8804D01*
X15813Y8819D01*
X15838Y8839D01*
X15858Y8864D01*
X15873Y8891D01*
X15882Y8922D01*
X15885Y8953D01*
X15882Y8984D01*
X15873Y9015D01*
X15858Y9042D01*
X15838Y9067D01*
X15813Y9087D01*
X15786Y9102D01*
X15755Y9111D01*
X15724Y9114D01*
X15703Y9112D01*
X15669Y9138D01*
X15655Y9154D01*
Y9285D01*
X15655Y9285D01*
X15652Y9304D01*
X15645Y9323D01*
X15633Y9338D01*
X15633Y9338D01*
X15471Y9500D01*
Y10708D01*
X15471Y10708D01*
X15469Y10727D01*
X15461Y10746D01*
X15449Y10761D01*
X15449Y10761D01*
X15251Y10959D01*
Y11253D01*
X15248Y11272D01*
X15241Y11290D01*
X15229Y11306D01*
X15229Y11306D01*
X15160Y11374D01*
Y11669D01*
X15160Y11669D01*
X15158Y11688D01*
X15150Y11707D01*
X15138Y11722D01*
X15138Y11722D01*
X15082Y11778D01*
Y12077D01*
X15082Y12077D01*
X15080Y12097D01*
X15072Y12115D01*
X15060Y12131D01*
X15060Y12131D01*
X15021Y12169D01*
X15006Y12182D01*
X14987Y12189D01*
X14968Y12192D01*
X14968Y12192D01*
X14842D01*
Y12263D01*
X14841Y12276D01*
X14835Y12288D01*
X14827Y12299D01*
X14817Y12307D01*
X14804Y12312D01*
X14791Y12314D01*
X14576D01*
X14563Y12312D01*
X14551Y12307D01*
X14540Y12299D01*
X14532Y12288D01*
X14527Y12276D01*
X14525Y12263D01*
Y11969D01*
X14527Y11956D01*
X14532Y11944D01*
X14540Y11933D01*
X14551Y11925D01*
X14563Y11920D01*
X14576Y11918D01*
X14791D01*
X14804Y11920D01*
X14817Y11925D01*
X14827Y11933D01*
X14835Y11944D01*
X14841Y11956D01*
X14842Y11969D01*
Y12040D01*
X14931D01*
Y11747D01*
X14931Y11747D01*
X14924Y11739D01*
X14842D01*
Y11810D01*
X14841Y11823D01*
X14835Y11835D01*
X14827Y11846D01*
X14817Y11854D01*
X14804Y11859D01*
X14791Y11861D01*
X14576D01*
X14563Y11859D01*
X14551Y11854D01*
X14540Y11846D01*
X14532Y11835D01*
X14527Y11823D01*
X14525Y11810D01*
Y11517D01*
X14527Y11503D01*
X14532Y11491D01*
X14540Y11480D01*
X14551Y11472D01*
X14563Y11467D01*
X14576Y11465D01*
X14791D01*
X14804Y11467D01*
X14817Y11472D01*
X14827Y11480D01*
X14835Y11491D01*
X14841Y11503D01*
X14842Y11517D01*
Y11587D01*
X14909D01*
Y11340D01*
X14858Y11292D01*
X14842Y11293D01*
Y11354D01*
X14841Y11367D01*
X14835Y11379D01*
X14827Y11390D01*
X14817Y11398D01*
X14804Y11403D01*
X14791Y11405D01*
X14576D01*
X14563Y11403D01*
X14551Y11398D01*
X14540Y11390D01*
X14532Y11379D01*
X14527Y11367D01*
X14525Y11354D01*
Y11061D01*
X14527Y11047D01*
X14532Y11035D01*
X14540Y11024D01*
X14551Y11016D01*
X14563Y11011D01*
X14576Y11009D01*
X14791D01*
X14804Y11011D01*
X14817Y11016D01*
X14827Y11024D01*
X14835Y11035D01*
X14841Y11047D01*
X14842Y11061D01*
Y11131D01*
X14899D01*
Y10845D01*
X14899Y10845D01*
X14902Y10826D01*
X14910Y10807D01*
X14922Y10792D01*
X14928Y10785D01*
X14928Y10785D01*
X14956Y10758D01*
X14935Y10707D01*
X14842D01*
Y10901D01*
X14841Y10914D01*
X14835Y10927D01*
X14827Y10937D01*
X14817Y10945D01*
X14804Y10951D01*
X14791Y10952D01*
X14576D01*
X14563Y10951D01*
X14551Y10945D01*
X14540Y10937D01*
X14532Y10927D01*
X14527Y10914D01*
X14525Y10901D01*
Y10608D01*
X14527Y10594D01*
X14532Y10582D01*
X14540Y10571D01*
X14551Y10563D01*
X14563Y10558D01*
X14576Y10556D01*
X14678D01*
X14684Y10555D01*
X15016D01*
X15020Y10552D01*
Y10417D01*
X15004Y10400D01*
X14965Y10376D01*
X14960Y10377D01*
X14960Y10377D01*
X14842D01*
Y10448D01*
X14841Y10461D01*
X14835Y10474D01*
X14827Y10484D01*
X14817Y10493D01*
X14804Y10498D01*
X14791Y10499D01*
X14576D01*
X14563Y10498D01*
X14551Y10493D01*
X14540Y10484D01*
X14532Y10474D01*
X14527Y10461D01*
X14525Y10448D01*
Y10155D01*
X14527Y10142D01*
X14532Y10129D01*
X14540Y10118D01*
X14551Y10110D01*
X14563Y10105D01*
X14576Y10103D01*
X14791D01*
X14804Y10105D01*
X14817Y10110D01*
X14827Y10118D01*
X14835Y10129D01*
X14841Y10142D01*
X14842Y10155D01*
Y10226D01*
X14920D01*
Y9303D01*
X14920Y9303D01*
X14922Y9283D01*
X14930Y9265D01*
X14942Y9249D01*
X15001Y9190D01*
X14980Y9140D01*
X14224D01*
Y9604D01*
X14230D01*
X14243Y9605D01*
X14255Y9611D01*
X14266Y9619D01*
X14274Y9629D01*
X14280Y9642D01*
X14281Y9655D01*
Y9988D01*
X14280Y10001D01*
X14274Y10013D01*
X14266Y10024D01*
X14255Y10032D01*
X14243Y10037D01*
X14230Y10039D01*
X14188D01*
Y10103D01*
X14220D01*
X14233Y10105D01*
X14246Y10110D01*
X14256Y10118D01*
X14265Y10129D01*
X14270Y10142D01*
X14271Y10155D01*
Y10448D01*
X14270Y10461D01*
X14265Y10474D01*
X14256Y10484D01*
X14246Y10493D01*
X14233Y10498D01*
X14220Y10499D01*
X14188D01*
Y10556D01*
X14220D01*
X14233Y10558D01*
X14246Y10563D01*
X14256Y10571D01*
X14265Y10582D01*
X14270Y10594D01*
X14271Y10608D01*
Y10901D01*
X14270Y10914D01*
X14265Y10927D01*
X14256Y10937D01*
X14246Y10945D01*
X14233Y10951D01*
X14220Y10952D01*
X14006D01*
X13992Y10951D01*
X13980Y10945D01*
X13969Y10937D01*
X13961Y10927D01*
X13956Y10914D01*
X13954Y10901D01*
Y10608D01*
X13956Y10594D01*
X13961Y10582D01*
X13969Y10571D01*
X13980Y10563D01*
X13992Y10558D01*
X14006Y10556D01*
X14037D01*
Y10499D01*
X14006D01*
X13992Y10498D01*
X13980Y10493D01*
X13969Y10484D01*
X13961Y10474D01*
X13956Y10461D01*
X13954Y10448D01*
Y10155D01*
X13956Y10142D01*
X13961Y10129D01*
X13969Y10118D01*
X13980Y10110D01*
X13992Y10105D01*
X14006Y10103D01*
X14037D01*
Y10039D01*
X13996D01*
X13982Y10037D01*
X13970Y10032D01*
X13959Y10024D01*
X13951Y10013D01*
X13946Y10001D01*
X13944Y9988D01*
Y9655D01*
X13946Y9642D01*
X13951Y9629D01*
X13959Y9619D01*
X13970Y9611D01*
X13982Y9605D01*
X13996Y9604D01*
X14002D01*
Y9083D01*
X11815D01*
Y9149D01*
X11817Y9150D01*
X12245D01*
X12259Y9152D01*
X12272Y9157D01*
X12283Y9166D01*
X12291Y9176D01*
X12296Y9189D01*
X12298Y9203D01*
Y10104D01*
X12296Y10118D01*
X12291Y10130D01*
X12283Y10141D01*
X12272Y10149D01*
X12259Y10155D01*
X12245Y10157D01*
X11817D01*
X11815Y10158D01*
Y10217D01*
X12297Y10631D01*
X12298Y10632D01*
X12300Y10633D01*
X12304Y10640D01*
X12309Y10646D01*
X12310Y10648D01*
X12311Y10650D01*
X12313Y10658D01*
X12315Y10666D01*
X12314Y10667D01*
X12315Y10669D01*
Y10675D01*
X12315Y10677D01*
Y11140D01*
X12534Y11359D01*
X12549Y11378D01*
X12558Y11400D01*
X12561Y11423D01*
Y11675D01*
X13017D01*
X13031Y11676D01*
X13044Y11682D01*
X13055Y11690D01*
X13064Y11701D01*
X13069Y11714D01*
X13071Y11728D01*
Y12510D01*
X13075Y12514D01*
X13202D01*
X13206Y12510D01*
Y11728D01*
X13208Y11714D01*
X13213Y11701D01*
X13222Y11690D01*
X13233Y11682D01*
X13246Y11676D01*
X13259Y11675D01*
X13844D01*
X13858Y11676D01*
X13871Y11682D01*
X13882Y11690D01*
X13890Y11701D01*
X13896Y11714D01*
X13897Y11728D01*
Y12040D01*
X13954D01*
Y11969D01*
X13956Y11956D01*
X13961Y11944D01*
X13969Y11933D01*
X13980Y11925D01*
X13992Y11920D01*
X14006Y11918D01*
X14220D01*
X14233Y11920D01*
X14246Y11925D01*
X14256Y11933D01*
X14265Y11944D01*
X14270Y11956D01*
X14271Y11969D01*
Y12263D01*
X14270Y12276D01*
X14265Y12288D01*
X14256Y12299D01*
X14246Y12307D01*
X14233Y12312D01*
X14220Y12314D01*
X14006D01*
X13992Y12312D01*
X13980Y12307D01*
X13969Y12299D01*
X13961Y12288D01*
X13956Y12276D01*
X13954Y12263D01*
Y12192D01*
X13897D01*
Y12510D01*
X13901Y12514D01*
X16142D01*
X16145Y12514D01*
X16228Y12511D01*
D02*
G37*
G36*
X1181Y12514D02*
X12375D01*
X12379Y12510D01*
Y12080D01*
X12379Y12079D01*
Y11461D01*
X12157Y11239D01*
X9993Y11239D01*
Y11966D01*
X9990Y11992D01*
X9982Y12018D01*
X9970Y12042D01*
X9952Y12063D01*
X9932Y12080D01*
X9908Y12092D01*
X9882Y12100D01*
X9855Y12103D01*
X9511D01*
X9509Y12103D01*
X8131D01*
X8129Y12103D01*
X7785D01*
X7758Y12100D01*
X7732Y12092D01*
X7708Y12080D01*
X7687Y12063D01*
X7670Y12042D01*
X7658Y12018D01*
X7650Y11992D01*
X7647Y11966D01*
Y11541D01*
X6807Y11541D01*
X6768Y11580D01*
Y12217D01*
X6765Y12238D01*
X6757Y12258D01*
X6744Y12274D01*
X6702Y12317D01*
X6685Y12330D01*
X6665Y12338D01*
X6645Y12341D01*
X6423D01*
Y12407D01*
X6421Y12420D01*
X6416Y12432D01*
X6408Y12443D01*
X6397Y12451D01*
X6385Y12456D01*
X6372Y12458D01*
X6157D01*
X6144Y12456D01*
X6131Y12451D01*
X6121Y12443D01*
X6113Y12432D01*
X6107Y12420D01*
X6106Y12407D01*
Y12113D01*
X6107Y12100D01*
X6113Y12088D01*
X6121Y12077D01*
X6131Y12069D01*
X6144Y12064D01*
X6157Y12062D01*
X6372D01*
X6385Y12064D01*
X6397Y12069D01*
X6408Y12077D01*
X6416Y12088D01*
X6421Y12100D01*
X6423Y12113D01*
Y12179D01*
X6607D01*
Y11525D01*
X6605Y11524D01*
X6601Y11522D01*
X6597Y11520D01*
X6577Y11508D01*
X6573Y11505D01*
X6569Y11503D01*
X6552Y11487D01*
X6549Y11483D01*
X6545Y11480D01*
X6531Y11461D01*
X6529Y11457D01*
X6526Y11453D01*
X6515Y11432D01*
X6514Y11428D01*
X6512Y11424D01*
X6505Y11401D01*
X6504Y11397D01*
X6503Y11392D01*
X6502Y11380D01*
X6502Y11380D01*
X6468Y11085D01*
X6468Y11085D01*
X6468Y11085D01*
X6466Y11067D01*
X6460Y11034D01*
X6451Y11002D01*
X6438Y10971D01*
X6421Y10942D01*
X6401Y10915D01*
X6378Y10891D01*
X6353Y10869D01*
X6325Y10851D01*
X6296Y10835D01*
X6265Y10823D01*
X6232Y10815D01*
X6215Y10812D01*
X6196Y10809D01*
X6191Y10808D01*
X6187Y10807D01*
X6148Y10795D01*
X6144Y10792D01*
X6140Y10791D01*
X6104Y10771D01*
X6100Y10769D01*
X6096Y10766D01*
X6064Y10741D01*
X6061Y10737D01*
X6057Y10734D01*
X6030Y10704D01*
X6028Y10700D01*
X6025Y10696D01*
X6004Y10661D01*
X6003Y10657D01*
X6000Y10653D01*
X5986Y10614D01*
X5985Y10610D01*
X5983Y10606D01*
X5976Y10565D01*
X5976Y10561D01*
X5975Y10556D01*
X5975Y10536D01*
X5975Y10536D01*
X5975Y10536D01*
X5975Y10191D01*
X5920Y10155D01*
X5915Y10157D01*
Y10394D01*
X5914Y10407D01*
X5908Y10419D01*
X5900Y10430D01*
X5890Y10438D01*
X5877Y10443D01*
X5864Y10445D01*
X5653D01*
X5640Y10443D01*
X5628Y10438D01*
X5617Y10430D01*
X5609Y10419D01*
X5604Y10407D01*
X5602Y10398D01*
X5541D01*
X5540Y10407D01*
X5534Y10419D01*
X5526Y10430D01*
X5516Y10438D01*
X5503Y10443D01*
X5490Y10445D01*
X5279D01*
X5266Y10443D01*
X5254Y10438D01*
X5243Y10430D01*
X5235Y10419D01*
X5230Y10407D01*
X5228Y10398D01*
X4948D01*
X4928Y10414D01*
X4894Y10433D01*
X4856Y10444D01*
X4817Y10448D01*
X4489D01*
Y10481D01*
X4487Y10495D01*
X4482Y10507D01*
X4473Y10518D01*
X4462Y10527D01*
X4450Y10532D01*
X4436Y10534D01*
X3437D01*
X3423Y10532D01*
X3410Y10527D01*
X3399Y10518D01*
X3391Y10507D01*
X3386Y10495D01*
X3384Y10481D01*
Y10448D01*
X3329D01*
Y10481D01*
X3327Y10495D01*
X3322Y10507D01*
X3313Y10518D01*
X3302Y10527D01*
X3290Y10532D01*
X3276Y10534D01*
X2277D01*
X2263Y10532D01*
X2250Y10527D01*
X2239Y10518D01*
X2231Y10507D01*
X2226Y10495D01*
X2224Y10481D01*
Y10448D01*
X1747D01*
X1708Y10444D01*
X1670Y10433D01*
X1635Y10414D01*
X1605Y10389D01*
X1511Y10295D01*
X1486Y10265D01*
X1467Y10230D01*
X1456Y10192D01*
X1452Y10153D01*
Y9997D01*
X1452Y9997D01*
X1447Y9985D01*
X1445Y9971D01*
Y9757D01*
X1447Y9743D01*
X1452Y9731D01*
X1452Y9731D01*
Y9249D01*
X1452Y9249D01*
X1447Y9237D01*
X1445Y9223D01*
Y9134D01*
X1345Y9134D01*
X1306Y9130D01*
X1268Y9119D01*
X1233Y9100D01*
X1203Y9075D01*
X1178Y9045D01*
X1159Y9010D01*
X1148Y8973D01*
X1144Y8933D01*
X1144Y8360D01*
X1145Y8355D01*
X1144Y8350D01*
X1147Y8335D01*
X1148Y8320D01*
X1149Y8316D01*
X1150Y8311D01*
X1155Y8297D01*
X1159Y8283D01*
X1162Y8278D01*
X1163Y8274D01*
X1171Y8261D01*
X1178Y8248D01*
X1181Y8244D01*
X1184Y8240D01*
X1194Y8229D01*
X1203Y8218D01*
X1207Y8214D01*
X1210Y8211D01*
X1222Y8202D01*
X1233Y8193D01*
X1238Y8190D01*
X1242Y8187D01*
X1255Y8181D01*
X1268Y8174D01*
X1273Y8173D01*
X1277Y8170D01*
X1292Y8167D01*
X1306Y8163D01*
X1311Y8162D01*
X1316Y8161D01*
X1322Y8160D01*
X1367Y8149D01*
X1411Y8133D01*
X1453Y8113D01*
X1493Y8089D01*
X1530Y8062D01*
X1564Y8031D01*
X1595Y7996D01*
X1623Y7959D01*
X1647Y7919D01*
X1666Y7878D01*
X1682Y7834D01*
X1693Y7789D01*
X1700Y7743D01*
X1702Y7697D01*
X1700Y7651D01*
X1693Y7605D01*
X1682Y7560D01*
X1666Y7516D01*
X1647Y7474D01*
X1623Y7435D01*
X1595Y7397D01*
X1564Y7363D01*
X1530Y7332D01*
X1493Y7304D01*
X1453Y7281D01*
X1411Y7261D01*
X1367Y7245D01*
X1322Y7234D01*
X1277Y7227D01*
X1225Y7225D01*
X1181D01*
X1142Y7221D01*
X1104Y7209D01*
X1069Y7191D01*
X1039Y7166D01*
X1014Y7135D01*
X995Y7101D01*
X984Y7063D01*
X980Y7024D01*
X980Y5969D01*
X984Y5929D01*
X995Y5892D01*
X1014Y5857D01*
X1039Y5827D01*
X1069Y5802D01*
X1104Y5783D01*
X1142Y5772D01*
X1181Y5768D01*
X1225D01*
X1277Y5765D01*
X1322Y5758D01*
X1367Y5747D01*
X1411Y5732D01*
X1453Y5712D01*
X1493Y5688D01*
X1530Y5660D01*
X1564Y5629D01*
X1595Y5595D01*
X1623Y5558D01*
X1647Y5518D01*
X1666Y5476D01*
X1682Y5432D01*
X1693Y5388D01*
X1700Y5342D01*
X1702Y5295D01*
X1700Y5249D01*
X1693Y5203D01*
X1682Y5158D01*
X1666Y5115D01*
X1647Y5073D01*
X1623Y5033D01*
X1595Y4996D01*
X1564Y4962D01*
X1530Y4931D01*
X1493Y4903D01*
X1453Y4879D01*
X1411Y4859D01*
X1367Y4844D01*
X1322Y4832D01*
X1277Y4826D01*
X1225Y4823D01*
X1181D01*
X1142Y4819D01*
X1104Y4808D01*
X1069Y4789D01*
X1039Y4764D01*
X1014Y4734D01*
X995Y4699D01*
X984Y4661D01*
X980Y4622D01*
X980Y2130D01*
X982Y2115D01*
X982Y2099D01*
X984Y2095D01*
X984Y2091D01*
X988Y2076D01*
X992Y2061D01*
X994Y2057D01*
X995Y2053D01*
X1003Y2040D01*
X1009Y2026D01*
X1012Y2022D01*
X1014Y2018D01*
X1024Y2007D01*
X1033Y1994D01*
X1036Y1991D01*
X1039Y1988D01*
X1051Y1978D01*
X1062Y1968D01*
X1066Y1966D01*
X1069Y1963D01*
X1083Y1956D01*
X1096Y1948D01*
X1100Y1946D01*
X1104Y1944D01*
X1119Y1940D01*
X1133Y1935D01*
X1138Y1934D01*
X1142Y1933D01*
X1157Y1931D01*
X1172Y1929D01*
X1246Y1926D01*
X1311Y1918D01*
X1375Y1903D01*
X1437Y1884D01*
X1497Y1859D01*
X1555Y1829D01*
X1610Y1794D01*
X1662Y1754D01*
X1710Y1710D01*
X1754Y1662D01*
X1794Y1610D01*
X1829Y1555D01*
X1845Y1524D01*
X1847Y1521D01*
X1849Y1517D01*
X1867Y1485D01*
X1881Y1451D01*
X2267Y534D01*
X2277Y511D01*
X2283Y499D01*
X2289Y486D01*
X2314Y444D01*
X2323Y433D01*
X2330Y421D01*
X2361Y382D01*
X2371Y373D01*
X2380Y362D01*
X2416Y328D01*
X2427Y320D01*
X2437Y310D01*
X2477Y282D01*
X2489Y275D01*
X2501Y267D01*
X2545Y245D01*
X2558Y239D01*
X2570Y234D01*
X2617Y217D01*
X2630Y214D01*
X2643Y210D01*
X2692Y200D01*
X2705Y198D01*
X2719Y196D01*
X2768Y193D01*
X2782Y193D01*
X2796Y193D01*
X2845Y197D01*
X2859Y199D01*
X2873Y201D01*
X2921Y211D01*
X2934Y215D01*
X2948Y219D01*
X2994Y236D01*
X3006Y242D01*
X3019Y247D01*
X3063Y270D01*
X3074Y278D01*
X3086Y285D01*
X3126Y314D01*
X3137Y323D01*
X3147Y332D01*
X3183Y366D01*
X3192Y377D01*
X3202Y387D01*
X3232Y426D01*
X3239Y438D01*
X3247Y449D01*
X3272Y491D01*
X3278Y504D01*
X3284Y516D01*
X3303Y562D01*
X3307Y575D01*
X3312Y588D01*
X3324Y636D01*
X3326Y650D01*
X3329Y664D01*
X3334Y713D01*
X3334Y726D01*
X3335Y740D01*
X3334Y762D01*
X3334Y3424D01*
X3333Y3440D01*
X3332Y3456D01*
X3331Y3460D01*
X3331Y3464D01*
X3326Y3479D01*
X3322Y3494D01*
X3320Y3498D01*
X3319Y3501D01*
X3312Y3515D01*
X3305Y3530D01*
X3302Y3533D01*
X3301Y3536D01*
X3290Y3548D01*
X3281Y3561D01*
X3278Y3564D01*
X3276Y3567D01*
X3263Y3577D01*
X3251Y3587D01*
X3201Y3623D01*
X3190Y3630D01*
X3178Y3638D01*
X3173Y3640D01*
X3167Y3643D01*
X3154Y3648D01*
X3142Y3653D01*
X3136Y3654D01*
X3130Y3656D01*
X3120Y3658D01*
X3120Y3662D01*
Y3771D01*
X3335D01*
X3335Y3771D01*
X3354Y3774D01*
X3355Y3775D01*
X3394Y3759D01*
X3394Y3759D01*
X3410Y3741D01*
X3410Y1853D01*
X3410Y784D01*
X3411Y783D01*
Y418D01*
X3414Y377D01*
X3423Y337D01*
X3439Y298D01*
X3461Y263D01*
X3488Y232D01*
X3519Y205D01*
X3555Y183D01*
X3593Y167D01*
X3633Y158D01*
X3674Y154D01*
X4178D01*
X4220Y158D01*
X4260Y167D01*
X4298Y183D01*
X4333Y205D01*
X4365Y232D01*
X4392Y263D01*
X4413Y298D01*
X4429Y337D01*
X4439Y377D01*
X4442Y418D01*
Y781D01*
X4442Y784D01*
X4442Y784D01*
X4442Y784D01*
X4442Y996D01*
X5098Y1652D01*
X6242Y1652D01*
X6245Y1652D01*
X6246D01*
X6249Y1652D01*
X6251Y1652D01*
X6278D01*
X6311Y1655D01*
X6343Y1663D01*
X6374Y1675D01*
X6402Y1693D01*
X6427Y1714D01*
X6449Y1740D01*
X6466Y1768D01*
X6479Y1799D01*
X6487Y1831D01*
X6489Y1864D01*
Y1891D01*
X6489Y1892D01*
X6489Y1895D01*
Y1896D01*
X6489Y1899D01*
Y1942D01*
X6492Y1949D01*
X6544Y1996D01*
X6622D01*
Y2164D01*
Y2333D01*
X6506D01*
X6489Y2386D01*
Y2513D01*
X6492Y2520D01*
X6544Y2567D01*
X6838D01*
X6851Y2568D01*
X6864Y2573D01*
X6875Y2582D01*
X6883Y2592D01*
X6888Y2605D01*
X6890Y2618D01*
Y2659D01*
X7815D01*
X7824Y2651D01*
Y2406D01*
X7782D01*
X7762Y2402D01*
X7745Y2391D01*
X7734Y2374D01*
X7730Y2354D01*
Y2218D01*
X7734Y2198D01*
X7745Y2181D01*
X7762Y2170D01*
X7782Y2166D01*
X8017D01*
X8036Y2170D01*
X8053Y2181D01*
X8064Y2198D01*
X8068Y2218D01*
Y2354D01*
X8064Y2374D01*
X8053Y2391D01*
X8036Y2402D01*
X8017Y2406D01*
X7975D01*
Y2682D01*
X7975Y2682D01*
X7972Y2701D01*
X7965Y2720D01*
X7953Y2735D01*
X7953Y2735D01*
X7899Y2789D01*
X7884Y2801D01*
X7866Y2808D01*
X7846Y2811D01*
X7846Y2811D01*
X6890D01*
Y2852D01*
X6888Y2865D01*
X6883Y2878D01*
X6875Y2889D01*
X6864Y2897D01*
X6851Y2902D01*
X6838Y2904D01*
X6617D01*
Y3117D01*
X6784D01*
X6797Y3119D01*
X6810Y3124D01*
X6820Y3132D01*
X6829Y3143D01*
X6834Y3155D01*
X6835Y3169D01*
Y3383D01*
X6834Y3397D01*
X6829Y3409D01*
X6820Y3420D01*
X6810Y3428D01*
X6797Y3433D01*
X6784Y3435D01*
X6491D01*
X6489Y3436D01*
Y3811D01*
X6544Y3865D01*
X6784D01*
X6797Y3867D01*
X6810Y3872D01*
X6820Y3880D01*
X6829Y3891D01*
X6834Y3904D01*
X6835Y3917D01*
Y4131D01*
X6834Y4145D01*
X6829Y4157D01*
X6820Y4168D01*
X6810Y4176D01*
X6797Y4181D01*
X6784Y4183D01*
X6491D01*
X6489Y4184D01*
Y4493D01*
X6499Y4504D01*
X6544Y4527D01*
X6564Y4524D01*
X6564Y4524D01*
X6834D01*
Y4434D01*
X6836Y4421D01*
X6841Y4408D01*
X6849Y4397D01*
X6860Y4389D01*
X6872Y4384D01*
X6886Y4382D01*
X6927D01*
Y3344D01*
X6927Y3344D01*
X6929Y3325D01*
X6937Y3307D01*
X6949Y3291D01*
X7018Y3223D01*
X7018Y3222D01*
X7033Y3210D01*
X7051Y3203D01*
X7071Y3200D01*
X7071Y3200D01*
X7365D01*
Y3169D01*
X7366Y3155D01*
X7371Y3143D01*
X7380Y3132D01*
X7390Y3124D01*
X7403Y3119D01*
X7416Y3117D01*
X7709D01*
X7722Y3119D01*
X7735Y3124D01*
X7746Y3132D01*
X7754Y3143D01*
X7759Y3155D01*
X7761Y3169D01*
Y3383D01*
X7759Y3397D01*
X7754Y3409D01*
X7746Y3420D01*
X7735Y3428D01*
X7722Y3433D01*
X7709Y3435D01*
X7416D01*
X7403Y3433D01*
X7390Y3428D01*
X7380Y3420D01*
X7371Y3409D01*
X7366Y3397D01*
X7365Y3383D01*
Y3352D01*
X7102D01*
X7078Y3376D01*
Y4382D01*
X7119D01*
X7133Y4384D01*
X7145Y4389D01*
X7156Y4397D01*
X7164Y4408D01*
X7169Y4421D01*
X7171Y4434D01*
Y4766D01*
X7169Y4780D01*
X7164Y4792D01*
X7156Y4803D01*
X7145Y4811D01*
X7133Y4816D01*
X7119Y4818D01*
X6886D01*
X6872Y4816D01*
X6860Y4811D01*
X6849Y4803D01*
X6841Y4792D01*
X6836Y4780D01*
X6834Y4766D01*
Y4676D01*
X6595D01*
X6591Y4680D01*
Y8522D01*
X6655D01*
Y8491D01*
X6657Y8477D01*
X6662Y8465D01*
X6671Y8454D01*
X6681Y8446D01*
X6694Y8441D01*
X6707Y8439D01*
X7000D01*
X7013Y8441D01*
X7026Y8446D01*
X7036Y8454D01*
X7045Y8465D01*
X7050Y8477D01*
X7052Y8491D01*
Y8705D01*
X7050Y8718D01*
X7045Y8731D01*
X7036Y8741D01*
X7026Y8750D01*
X7013Y8755D01*
X7000Y8756D01*
X6707D01*
X6694Y8755D01*
X6681Y8750D01*
X6671Y8741D01*
X6662Y8731D01*
X6657Y8718D01*
X6655Y8705D01*
Y8673D01*
X6591D01*
Y8777D01*
X6613Y8784D01*
X6641Y8799D01*
X6665Y8819D01*
X6685Y8843D01*
X6700Y8871D01*
X6709Y8901D01*
X6712Y8932D01*
X6710Y8955D01*
X6717Y8972D01*
X6753Y9010D01*
X7000D01*
X7013Y9012D01*
X7026Y9017D01*
X7036Y9025D01*
X7045Y9036D01*
X7050Y9048D01*
X7052Y9061D01*
Y9093D01*
X7108D01*
Y9061D01*
X7110Y9048D01*
X7115Y9036D01*
X7123Y9025D01*
X7134Y9017D01*
X7146Y9012D01*
X7160Y9010D01*
X7453D01*
X7466Y9012D01*
X7479Y9017D01*
X7489Y9025D01*
X7498Y9036D01*
X7503Y9048D01*
X7504Y9061D01*
Y9276D01*
X7503Y9289D01*
X7498Y9302D01*
X7489Y9312D01*
X7479Y9320D01*
X7466Y9326D01*
X7453Y9327D01*
X7160D01*
X7146Y9326D01*
X7134Y9320D01*
X7123Y9312D01*
X7115Y9302D01*
X7110Y9289D01*
X7108Y9276D01*
Y9244D01*
X7052D01*
Y9276D01*
X7050Y9289D01*
X7045Y9302D01*
X7036Y9312D01*
X7026Y9320D01*
X7013Y9326D01*
X7000Y9327D01*
X6707D01*
X6694Y9326D01*
X6681Y9320D01*
X6671Y9312D01*
X6662Y9302D01*
X6657Y9289D01*
X6655Y9276D01*
Y9244D01*
X6545D01*
X6539Y9250D01*
Y9696D01*
X6539Y9696D01*
X6537Y9716D01*
X6529Y9734D01*
X6517Y9750D01*
X6517Y9750D01*
X6408Y9859D01*
X6392Y9871D01*
X6374Y9878D01*
X6355Y9881D01*
X6355Y9881D01*
X3467D01*
X3467Y9881D01*
X3448Y9878D01*
X3429Y9871D01*
X3414Y9859D01*
X3414Y9859D01*
X3316Y9761D01*
X3304Y9746D01*
X3297Y9727D01*
X3294Y9708D01*
X3294Y9708D01*
Y9515D01*
X3120D01*
Y9624D01*
X3119Y9638D01*
X3113Y9650D01*
X3105Y9661D01*
X3094Y9670D01*
X3082Y9675D01*
X3068Y9677D01*
X2029D01*
X2015Y9675D01*
X2002Y9670D01*
X1992Y9661D01*
X1983Y9650D01*
X1978Y9638D01*
X1976Y9624D01*
Y9254D01*
X1978Y9240D01*
X1983Y9228D01*
X1992Y9217D01*
X2002Y9209D01*
X2015Y9203D01*
X2029Y9202D01*
X3068D01*
X3082Y9203D01*
X3094Y9209D01*
X3105Y9217D01*
X3113Y9228D01*
X3119Y9240D01*
X3120Y9254D01*
Y9363D01*
X3294D01*
Y8439D01*
X3239Y8428D01*
X3231Y8449D01*
X3227Y8456D01*
X3224Y8464D01*
X3190Y8531D01*
X3185Y8538D01*
X3182Y8545D01*
X3142Y8610D01*
X3137Y8616D01*
X3133Y8623D01*
X3089Y8684D01*
X3083Y8690D01*
X3079Y8697D01*
X3029Y8754D01*
X3024Y8760D01*
X3019Y8766D01*
X2965Y8820D01*
X2959Y8825D01*
X2953Y8830D01*
X2896Y8880D01*
X2889Y8884D01*
X2883Y8889D01*
X2822Y8934D01*
X2815Y8938D01*
X2809Y8943D01*
X2744Y8982D01*
X2737Y8986D01*
X2730Y8990D01*
X2663Y9024D01*
X2655Y9027D01*
X2648Y9031D01*
X2578Y9060D01*
X2571Y9062D01*
X2563Y9066D01*
X2491Y9089D01*
X2483Y9091D01*
X2476Y9093D01*
X2402Y9111D01*
X2394Y9112D01*
X2387Y9114D01*
X2312Y9126D01*
X2304Y9126D01*
X2296Y9128D01*
X2229Y9133D01*
X2222Y9133D01*
X2216Y9134D01*
X2169Y9134D01*
X2168Y9134D01*
X2167Y9134D01*
X2167Y9134D01*
X2167Y9134D01*
X2167D01*
X2166Y9134D01*
X1900Y9134D01*
X1861Y9173D01*
Y9223D01*
X1859Y9237D01*
X1854Y9249D01*
X1854Y9249D01*
Y9731D01*
X1854Y9731D01*
X1859Y9743D01*
X1861Y9757D01*
Y9971D01*
X1859Y9985D01*
X1857Y9991D01*
X1877Y10046D01*
X2224D01*
Y10013D01*
X2226Y10000D01*
X2231Y9987D01*
X2239Y9976D01*
X2250Y9967D01*
X2263Y9962D01*
X2277Y9960D01*
X3276D01*
X3290Y9962D01*
X3302Y9967D01*
X3313Y9976D01*
X3322Y9987D01*
X3327Y10000D01*
X3329Y10013D01*
Y10046D01*
X3384D01*
Y10013D01*
X3386Y10000D01*
X3391Y9987D01*
X3399Y9976D01*
X3410Y9967D01*
X3423Y9962D01*
X3437Y9960D01*
X4436D01*
X4450Y9962D01*
X4462Y9967D01*
X4473Y9976D01*
X4482Y9987D01*
X4487Y10000D01*
X4489Y10013D01*
Y10046D01*
X4817D01*
X4856Y10050D01*
X4894Y10061D01*
X4928Y10080D01*
X4948Y10096D01*
X5228D01*
X5230Y10087D01*
X5235Y10075D01*
X5243Y10064D01*
X5254Y10056D01*
X5266Y10051D01*
X5279Y10049D01*
X5490D01*
X5503Y10051D01*
X5516Y10056D01*
X5526Y10064D01*
X5534Y10075D01*
X5540Y10087D01*
X5541Y10096D01*
X5602D01*
X5604Y10087D01*
X5609Y10075D01*
X5617Y10064D01*
X5628Y10056D01*
X5640Y10051D01*
X5653Y10049D01*
X5684D01*
X5686Y10041D01*
X5693Y10022D01*
X5705Y10007D01*
X5741Y9971D01*
X5741Y9971D01*
X5756Y9959D01*
X5775Y9951D01*
X5794Y9949D01*
X5794Y9949D01*
X6269D01*
X6269Y9949D01*
X6289Y9951D01*
X6307Y9959D01*
X6323Y9971D01*
X6328Y9977D01*
X6339Y9976D01*
X6363Y9956D01*
X6391Y9941D01*
X6421Y9932D01*
X6453Y9929D01*
X6484Y9932D01*
X6514Y9941D01*
X6542Y9956D01*
X6567Y9976D01*
X6587Y10000D01*
X6602Y10028D01*
X6611Y10058D01*
X6614Y10090D01*
X6611Y10121D01*
X6602Y10151D01*
X6587Y10179D01*
X6567Y10204D01*
X6542Y10224D01*
X6521Y10235D01*
X6512Y10260D01*
X6507Y10298D01*
X6635Y10427D01*
X8080Y10426D01*
X8082Y10427D01*
X8129D01*
X8131Y10426D01*
X9509D01*
X9511Y10427D01*
X9549D01*
X9587Y10411D01*
X9587Y10411D01*
X9587Y10411D01*
X9597Y10409D01*
X9607Y10407D01*
X9607Y10407D01*
X9607Y10407D01*
X9940Y10407D01*
X10200Y10147D01*
X10199Y10141D01*
X10191Y10130D01*
X10186Y10118D01*
X10184Y10104D01*
Y9203D01*
X10186Y9189D01*
X10191Y9176D01*
X10199Y9166D01*
X10210Y9157D01*
X10223Y9152D01*
X10237Y9150D01*
X10665D01*
X10667Y9149D01*
X10667Y9052D01*
X10670Y9040D01*
X10671Y9033D01*
X10671Y9033D01*
X10671Y9033D01*
X10676Y9025D01*
X10682Y9016D01*
X10765Y8933D01*
X9258Y7426D01*
X9246Y7411D01*
X9238Y7392D01*
X9236Y7373D01*
X9236Y7373D01*
Y6890D01*
X8108D01*
X8108Y6890D01*
X8088Y6887D01*
X8078Y6883D01*
X8050Y6895D01*
X8024Y6914D01*
Y7046D01*
X8580D01*
X8580Y7046D01*
X9031D01*
X9045Y7047D01*
X9057Y7053D01*
X9068Y7061D01*
X9077Y7072D01*
X9082Y7085D01*
X9084Y7098D01*
Y7527D01*
X9082Y7541D01*
X9077Y7553D01*
X9068Y7564D01*
X9057Y7573D01*
X9045Y7578D01*
X9031Y7580D01*
X8130D01*
X8116Y7578D01*
X8103Y7573D01*
X8093Y7564D01*
X8084Y7553D01*
X8079Y7541D01*
X8077Y7527D01*
Y7197D01*
X7983D01*
X7983Y7197D01*
X7964Y7194D01*
X7946Y7187D01*
X7930Y7175D01*
X7930Y7175D01*
X7895Y7140D01*
X7883Y7124D01*
X7876Y7106D01*
X7873Y7087D01*
X7873Y7087D01*
Y6968D01*
X7758D01*
X7745Y6966D01*
X7732Y6961D01*
X7722Y6953D01*
X7714Y6942D01*
X7708Y6930D01*
X7707Y6917D01*
Y6623D01*
X7701Y6617D01*
X7459D01*
X7453Y6623D01*
Y6917D01*
X7452Y6930D01*
X7446Y6942D01*
X7438Y6953D01*
X7428Y6961D01*
X7415Y6966D01*
X7402Y6968D01*
X7187D01*
X7174Y6966D01*
X7162Y6961D01*
X7151Y6953D01*
X7143Y6942D01*
X7138Y6930D01*
X7136Y6917D01*
Y6623D01*
X7138Y6610D01*
X7143Y6598D01*
X7151Y6587D01*
X7162Y6579D01*
X7174Y6574D01*
X7187Y6572D01*
X7219D01*
Y6508D01*
X7187D01*
X7174Y6506D01*
X7162Y6501D01*
X7151Y6493D01*
X7143Y6482D01*
X7138Y6470D01*
X7136Y6457D01*
Y6163D01*
X7138Y6150D01*
X7143Y6138D01*
X7151Y6127D01*
X7162Y6119D01*
X7174Y6114D01*
X7187Y6112D01*
X7402D01*
X7415Y6114D01*
X7428Y6119D01*
X7438Y6127D01*
X7446Y6138D01*
X7452Y6150D01*
X7453Y6163D01*
Y6457D01*
X7461Y6466D01*
X7699D01*
X7707Y6457D01*
Y6163D01*
X7708Y6150D01*
X7714Y6138D01*
X7722Y6127D01*
X7732Y6119D01*
X7745Y6114D01*
X7758Y6112D01*
X7973D01*
X7986Y6114D01*
X7998Y6119D01*
X8009Y6127D01*
X8017Y6138D01*
X8022Y6150D01*
X8024Y6163D01*
Y6357D01*
X8087D01*
Y6308D01*
X8089Y6295D01*
X8094Y6282D01*
X8103Y6271D01*
X8113Y6263D01*
X8126Y6257D01*
X8140Y6256D01*
X9041D01*
X9055Y6257D01*
X9067Y6263D01*
X9078Y6271D01*
X9087Y6282D01*
X9092Y6295D01*
X9094Y6308D01*
Y6447D01*
X9194D01*
Y3740D01*
X8276D01*
X8260Y3756D01*
X8237Y3795D01*
X8238Y3802D01*
Y3886D01*
X9041D01*
X9055Y3887D01*
X9067Y3893D01*
X9078Y3901D01*
X9087Y3912D01*
X9092Y3925D01*
X9094Y3938D01*
Y4367D01*
X9092Y4381D01*
X9087Y4393D01*
X9078Y4404D01*
X9067Y4413D01*
X9055Y4418D01*
X9041Y4420D01*
X8140D01*
X8126Y4418D01*
X8113Y4413D01*
X8103Y4404D01*
X8094Y4393D01*
X8089Y4381D01*
X8087Y4367D01*
Y4155D01*
X8087Y4153D01*
Y3885D01*
X8064Y3840D01*
X8045Y3837D01*
X8026Y3830D01*
X8011Y3818D01*
X8011Y3818D01*
X7909Y3716D01*
X7897Y3700D01*
X7890Y3682D01*
X7887Y3663D01*
X7887Y3663D01*
Y3085D01*
X7887Y3085D01*
X7890Y3065D01*
X7897Y3047D01*
X7909Y3031D01*
X8013Y2928D01*
X8013Y2928D01*
X8029Y2916D01*
X8047Y2908D01*
X8066Y2905D01*
X8066Y2905D01*
X8211D01*
Y2418D01*
X8211Y2418D01*
X8214Y2398D01*
X8221Y2380D01*
X8233Y2364D01*
Y2349D01*
X8221Y2334D01*
X8214Y2316D01*
X8211Y2296D01*
X8211Y2296D01*
Y2108D01*
X8209Y2106D01*
X7299D01*
X7297Y2118D01*
X7293Y2123D01*
X7289Y2130D01*
X7287Y2158D01*
X7289Y2186D01*
X7293Y2193D01*
X7297Y2198D01*
X7301Y2218D01*
Y2236D01*
X7132D01*
X6962D01*
Y2218D01*
X6966Y2198D01*
X6970Y2193D01*
X6974Y2186D01*
X6976Y2158D01*
X6974Y2130D01*
X6970Y2123D01*
X6966Y2118D01*
X6962Y2098D01*
Y1962D01*
X6966Y1942D01*
X6970Y1937D01*
X6974Y1930D01*
X6976Y1902D01*
X6974Y1874D01*
X6970Y1867D01*
X6966Y1862D01*
X6962Y1842D01*
Y1824D01*
X7132D01*
X7301D01*
Y1842D01*
X7297Y1862D01*
X7293Y1867D01*
X7289Y1874D01*
X7287Y1902D01*
X7289Y1930D01*
X7293Y1937D01*
X7297Y1942D01*
X7299Y1954D01*
X8240D01*
X8240Y1954D01*
X8260Y1957D01*
X8278Y1964D01*
X8285Y1970D01*
X8340Y1955D01*
Y84D01*
X1181D01*
X1178Y84D01*
X1095Y87D01*
X1009Y97D01*
X925Y114D01*
X842Y138D01*
X761Y167D01*
X683Y203D01*
X608Y246D01*
X536Y293D01*
X469Y347D01*
X405Y405D01*
X347Y469D01*
X293Y536D01*
X246Y608D01*
X203Y683D01*
X167Y761D01*
X138Y842D01*
X114Y925D01*
X97Y1009D01*
X87Y1095D01*
X84Y1178D01*
X84Y1181D01*
Y11432D01*
X87Y11503D01*
X97Y11589D01*
X114Y11673D01*
X138Y11756D01*
X167Y11837D01*
X203Y11915D01*
X246Y11991D01*
X293Y12062D01*
X347Y12130D01*
X405Y12193D01*
X469Y12252D01*
X536Y12305D01*
X608Y12353D01*
X683Y12395D01*
X761Y12431D01*
X842Y12461D01*
X925Y12484D01*
X1009Y12501D01*
X1095Y12511D01*
X1178Y12514D01*
X1181Y12514D01*
D02*
G37*
G36*
X8080Y11454D02*
X8080Y10477D01*
X6614Y10477D01*
X6346Y10210D01*
X6339Y10204D01*
X6333Y10196D01*
X6237Y10100D01*
X6026D01*
X6026Y10536D01*
X6026Y10556D01*
X6034Y10596D01*
X6048Y10635D01*
X6069Y10670D01*
X6096Y10701D01*
X6128Y10727D01*
X6164Y10746D01*
X6203Y10759D01*
X6223Y10762D01*
X6242Y10765D01*
X6280Y10775D01*
X6317Y10789D01*
X6352Y10807D01*
X6384Y10829D01*
X6414Y10854D01*
X6440Y10883D01*
X6464Y10914D01*
X6483Y10948D01*
X6499Y10984D01*
X6510Y11022D01*
X6517Y11060D01*
X6519Y11080D01*
X6519Y11080D01*
X6552Y11375D01*
X6554Y11386D01*
X6560Y11409D01*
X6571Y11430D01*
X6586Y11449D01*
X6603Y11465D01*
X6624Y11477D01*
X6646Y11485D01*
X6669Y11490D01*
X6681Y11490D01*
X6681Y11490D01*
X8045Y11490D01*
X8080Y11454D01*
D02*
G37*
G36*
X12264Y11188D02*
X12264Y10669D01*
X11764Y10240D01*
Y8713D01*
X11057Y8713D01*
X10718Y9052D01*
X10718Y9701D01*
X10718Y9701D01*
Y10104D01*
X10716Y10118D01*
X10711Y10130D01*
X10703Y10141D01*
X10692Y10149D01*
X10679Y10155D01*
X10665Y10157D01*
X10263D01*
X9962Y10458D01*
X9607Y10458D01*
X9560Y10477D01*
X9560Y11188D01*
X12264Y11188D01*
D02*
G37*
G36*
X2166Y8933D02*
X2166Y8933D01*
X2167D01*
X2213Y8933D01*
X2280Y8927D01*
X2355Y8916D01*
X2429Y8898D01*
X2501Y8874D01*
X2571Y8845D01*
X2639Y8811D01*
X2704Y8771D01*
X2765Y8727D01*
X2823Y8677D01*
X2877Y8624D01*
X2926Y8566D01*
X2971Y8505D01*
X3011Y8440D01*
X3045Y8372D01*
X3074Y8302D01*
X3098Y8230D01*
X3115Y8156D01*
X3127Y8081D01*
X3133Y8005D01*
X3134Y7967D01*
X3134Y7056D01*
X3084Y7020D01*
X3068Y7021D01*
X2029D01*
X1989Y7017D01*
X1951Y7006D01*
X1916Y6987D01*
X1885Y6962D01*
X1860Y6931D01*
X1841Y6896D01*
X1830Y6858D01*
X1826Y6818D01*
Y6448D01*
X1830Y6408D01*
X1841Y6370D01*
X1860Y6335D01*
X1885Y6305D01*
X1916Y6279D01*
X1951Y6261D01*
X1989Y6249D01*
X2029Y6245D01*
X3068D01*
X3084Y6247D01*
X3134Y6210D01*
X3134Y4270D01*
X3084Y4234D01*
X3068Y4235D01*
X2029D01*
X1989Y4231D01*
X1951Y4220D01*
X1916Y4201D01*
X1885Y4176D01*
X1860Y4145D01*
X1841Y4110D01*
X1830Y4072D01*
X1826Y4032D01*
Y3662D01*
X1830Y3622D01*
X1841Y3584D01*
X1860Y3549D01*
X1885Y3519D01*
X1916Y3493D01*
X1951Y3475D01*
X1989Y3463D01*
X2029Y3459D01*
X3068D01*
X3084Y3461D01*
X3134Y3424D01*
X3134Y759D01*
X3134Y759D01*
X3134Y734D01*
X3129Y685D01*
X3117Y638D01*
X3098Y592D01*
X3074Y550D01*
X3043Y511D01*
X3008Y477D01*
X2968Y448D01*
X2925Y424D01*
X2878Y407D01*
X2830Y397D01*
X2781Y393D01*
X2732Y397D01*
X2684Y406D01*
X2637Y423D01*
X2594Y446D01*
X2554Y474D01*
X2518Y508D01*
X2487Y546D01*
X2462Y589D01*
X2453Y611D01*
X2067Y1529D01*
X2047Y1575D01*
X2023Y1617D01*
X2003Y1656D01*
X1958Y1725D01*
X1908Y1791D01*
X1852Y1852D01*
X1791Y1908D01*
X1725Y1958D01*
X1656Y2003D01*
X1582Y2041D01*
X1506Y2073D01*
X1427Y2098D01*
X1346Y2116D01*
X1264Y2126D01*
X1181Y2130D01*
X1181Y4622D01*
X1230D01*
X1296Y4625D01*
X1362Y4635D01*
X1426Y4651D01*
X1488Y4673D01*
X1548Y4702D01*
X1604Y4736D01*
X1657Y4775D01*
X1706Y4819D01*
X1751Y4868D01*
X1790Y4921D01*
X1824Y4978D01*
X1852Y5038D01*
X1875Y5100D01*
X1891Y5164D01*
X1900Y5229D01*
X1904Y5295D01*
X1900Y5361D01*
X1891Y5427D01*
X1875Y5491D01*
X1852Y5553D01*
X1824Y5613D01*
X1790Y5669D01*
X1751Y5723D01*
X1706Y5771D01*
X1657Y5816D01*
X1604Y5855D01*
X1548Y5889D01*
X1488Y5917D01*
X1426Y5940D01*
X1362Y5956D01*
X1296Y5965D01*
X1230Y5969D01*
X1181D01*
X1181Y7024D01*
X1230D01*
X1296Y7027D01*
X1362Y7037D01*
X1426Y7053D01*
X1488Y7075D01*
X1548Y7103D01*
X1604Y7137D01*
X1657Y7176D01*
X1706Y7221D01*
X1751Y7270D01*
X1790Y7323D01*
X1824Y7380D01*
X1852Y7439D01*
X1875Y7501D01*
X1891Y7566D01*
X1900Y7631D01*
X1904Y7697D01*
X1900Y7763D01*
X1891Y7828D01*
X1875Y7892D01*
X1852Y7955D01*
X1824Y8014D01*
X1790Y8071D01*
X1751Y8124D01*
X1706Y8173D01*
X1657Y8217D01*
X1604Y8257D01*
X1548Y8291D01*
X1488Y8319D01*
X1426Y8341D01*
X1362Y8357D01*
X1345Y8360D01*
X1345Y8933D01*
X2166Y8933D01*
X2166Y8933D01*
D02*
G37*
G36*
X6242Y9630D02*
X6280Y9621D01*
X6288Y9584D01*
X6288Y1899D01*
X6288Y1898D01*
X6243Y1853D01*
X6242Y1853D01*
X5015Y1853D01*
X4241Y1080D01*
X4241Y784D01*
X4206Y749D01*
X3647Y749D01*
X3611Y784D01*
X3611Y1853D01*
X3611Y9619D01*
X3658Y9630D01*
X6242Y9630D01*
D02*
G37*
%LPC*%
G36*
X14220Y11861D02*
X14006D01*
X13992Y11859D01*
X13980Y11854D01*
X13969Y11846D01*
X13961Y11835D01*
X13956Y11823D01*
X13954Y11810D01*
Y11616D01*
X13168D01*
X13168Y11616D01*
X13148Y11614D01*
X13130Y11606D01*
X13114Y11594D01*
X13114Y11594D01*
X12942Y11422D01*
X12930Y11406D01*
X12922Y11388D01*
X12920Y11368D01*
X12920Y11368D01*
Y11146D01*
X12433D01*
X12419Y11144D01*
X12406Y11138D01*
X12395Y11130D01*
X12386Y11119D01*
X12381Y11106D01*
X12379Y11092D01*
Y10311D01*
X12381Y10297D01*
X12386Y10284D01*
X12395Y10273D01*
X12406Y10265D01*
X12419Y10259D01*
X12433Y10257D01*
X13017D01*
X13031Y10259D01*
X13044Y10265D01*
X13055Y10273D01*
X13064Y10284D01*
X13069Y10297D01*
X13071Y10311D01*
Y10700D01*
X13071Y10702D01*
Y11337D01*
X13199Y11465D01*
X14004D01*
X14006Y11465D01*
X14220D01*
X14233Y11467D01*
X14246Y11472D01*
X14256Y11480D01*
X14265Y11491D01*
X14270Y11503D01*
X14271Y11517D01*
Y11810D01*
X14270Y11823D01*
X14265Y11835D01*
X14256Y11846D01*
X14246Y11854D01*
X14233Y11859D01*
X14220Y11861D01*
D02*
G37*
G36*
Y11405D02*
X14006D01*
X13992Y11403D01*
X13980Y11398D01*
X13969Y11390D01*
X13961Y11379D01*
X13956Y11367D01*
X13954Y11354D01*
Y11283D01*
X13858D01*
X13838Y11280D01*
X13820Y11273D01*
X13805Y11261D01*
X13805Y11261D01*
X13768Y11224D01*
X13756Y11209D01*
X13749Y11191D01*
X13746Y11171D01*
X13702Y11146D01*
X13259D01*
X13246Y11144D01*
X13233Y11138D01*
X13222Y11130D01*
X13213Y11119D01*
X13208Y11106D01*
X13206Y11092D01*
Y10311D01*
X13208Y10297D01*
X13213Y10284D01*
X13222Y10273D01*
X13233Y10265D01*
X13246Y10259D01*
X13259Y10257D01*
X13844D01*
X13858Y10259D01*
X13871Y10265D01*
X13882Y10273D01*
X13890Y10284D01*
X13896Y10297D01*
X13897Y10311D01*
Y10701D01*
X13898Y10702D01*
Y11131D01*
X13954D01*
Y11061D01*
X13956Y11047D01*
X13961Y11035D01*
X13969Y11024D01*
X13980Y11016D01*
X13992Y11011D01*
X14006Y11009D01*
X14220D01*
X14233Y11011D01*
X14246Y11016D01*
X14256Y11024D01*
X14265Y11035D01*
X14270Y11047D01*
X14271Y11061D01*
Y11354D01*
X14270Y11367D01*
X14265Y11379D01*
X14256Y11390D01*
X14246Y11398D01*
X14233Y11403D01*
X14220Y11405D01*
D02*
G37*
G36*
X16984Y10405D02*
X16829D01*
Y10129D01*
X17036D01*
Y10352D01*
X17034Y10366D01*
X17029Y10379D01*
X17021Y10389D01*
X17010Y10398D01*
X16997Y10403D01*
X16984Y10405D01*
D02*
G37*
G36*
X16729D02*
X16575D01*
X16561Y10403D01*
X16548Y10398D01*
X16537Y10389D01*
X16529Y10379D01*
X16524Y10366D01*
X16522Y10352D01*
Y10129D01*
X16729D01*
Y10405D01*
D02*
G37*
G36*
X14801Y10039D02*
X14734D01*
Y9871D01*
X14852D01*
Y9988D01*
X14850Y10001D01*
X14845Y10013D01*
X14837Y10024D01*
X14826Y10032D01*
X14814Y10037D01*
X14801Y10039D01*
D02*
G37*
G36*
X14634D02*
X14567D01*
X14553Y10037D01*
X14541Y10032D01*
X14530Y10024D01*
X14522Y10013D01*
X14517Y10001D01*
X14515Y9988D01*
Y9871D01*
X14634D01*
Y10039D01*
D02*
G37*
G36*
X17036Y10029D02*
X16829D01*
Y9753D01*
X16984D01*
X16997Y9754D01*
X17010Y9760D01*
X17021Y9768D01*
X17029Y9779D01*
X17034Y9792D01*
X17036Y9805D01*
Y10029D01*
D02*
G37*
G36*
X16729D02*
X16522D01*
Y9805D01*
X16524Y9792D01*
X16529Y9779D01*
X16537Y9768D01*
X16548Y9760D01*
X16561Y9754D01*
X16575Y9753D01*
X16729D01*
Y10029D01*
D02*
G37*
G36*
X14852Y9771D02*
X14734D01*
Y9604D01*
X14801D01*
X14814Y9605D01*
X14826Y9611D01*
X14837Y9619D01*
X14845Y9629D01*
X14850Y9642D01*
X14852Y9655D01*
Y9771D01*
D02*
G37*
G36*
X14634D02*
X14515D01*
Y9655D01*
X14517Y9642D01*
X14522Y9629D01*
X14530Y9619D01*
X14541Y9611D01*
X14553Y9605D01*
X14567Y9604D01*
X14634D01*
Y9771D01*
D02*
G37*
G36*
X16848Y9559D02*
X16811Y9555D01*
X16776Y9544D01*
X16743Y9527D01*
X16715Y9504D01*
X16691Y9475D01*
X16674Y9442D01*
X16663Y9407D01*
X16659Y9370D01*
X16663Y9333D01*
X16674Y9298D01*
X16691Y9265D01*
X16715Y9237D01*
X16743Y9213D01*
X16776Y9196D01*
X16811Y9185D01*
X16848Y9181D01*
X16885Y9185D01*
X16920Y9196D01*
X16953Y9213D01*
X16981Y9237D01*
X17005Y9265D01*
X17022Y9298D01*
X17033Y9333D01*
X17037Y9370D01*
X17033Y9407D01*
X17022Y9442D01*
X17005Y9475D01*
X16981Y9504D01*
X16953Y9527D01*
X16920Y9544D01*
X16885Y9555D01*
X16848Y9559D01*
D02*
G37*
G36*
X16139D02*
X16103Y9555D01*
X16067Y9544D01*
X16035Y9527D01*
X16006Y9504D01*
X15982Y9475D01*
X15965Y9442D01*
X15954Y9407D01*
X15951Y9370D01*
X15954Y9333D01*
X15965Y9298D01*
X15982Y9265D01*
X16006Y9237D01*
X16035Y9213D01*
X16067Y9196D01*
X16103Y9185D01*
X16139Y9181D01*
X16176Y9185D01*
X16212Y9196D01*
X16244Y9213D01*
X16273Y9237D01*
X16296Y9265D01*
X16314Y9298D01*
X16324Y9333D01*
X16328Y9370D01*
X16324Y9407D01*
X16314Y9442D01*
X16296Y9475D01*
X16273Y9504D01*
X16244Y9527D01*
X16212Y9544D01*
X16176Y9555D01*
X16139Y9559D01*
D02*
G37*
G36*
X13805Y10157D02*
X13377D01*
X13363Y10155D01*
X13350Y10149D01*
X13339Y10141D01*
X13331Y10130D01*
X13326Y10118D01*
X13324Y10104D01*
Y9203D01*
X13326Y9189D01*
X13331Y9176D01*
X13339Y9166D01*
X13350Y9157D01*
X13363Y9152D01*
X13377Y9150D01*
X13805D01*
X13819Y9152D01*
X13832Y9157D01*
X13843Y9166D01*
X13851Y9176D01*
X13856Y9189D01*
X13858Y9203D01*
Y10104D01*
X13856Y10118D01*
X13851Y10130D01*
X13843Y10141D01*
X13832Y10149D01*
X13819Y10155D01*
X13805Y10157D01*
D02*
G37*
G36*
X13025D02*
X12597D01*
X12583Y10155D01*
X12570Y10149D01*
X12559Y10141D01*
X12551Y10130D01*
X12546Y10118D01*
X12544Y10104D01*
Y9203D01*
X12546Y9189D01*
X12551Y9176D01*
X12559Y9166D01*
X12570Y9157D01*
X12583Y9152D01*
X12597Y9150D01*
X13025D01*
X13039Y9152D01*
X13052Y9157D01*
X13063Y9166D01*
X13071Y9176D01*
X13076Y9189D01*
X13078Y9203D01*
Y10104D01*
X13076Y10118D01*
X13071Y10130D01*
X13063Y10141D01*
X13052Y10149D01*
X13039Y10155D01*
X13025Y10157D01*
D02*
G37*
G36*
X16984Y8987D02*
X16829D01*
Y8711D01*
X17036D01*
Y8935D01*
X17034Y8949D01*
X17029Y8961D01*
X17021Y8972D01*
X17010Y8980D01*
X16997Y8986D01*
X16984Y8987D01*
D02*
G37*
G36*
X16729D02*
X16575D01*
X16561Y8986D01*
X16548Y8980D01*
X16537Y8972D01*
X16529Y8961D01*
X16524Y8949D01*
X16522Y8935D01*
Y8711D01*
X16729D01*
Y8987D01*
D02*
G37*
G36*
X17036Y8611D02*
X16829D01*
Y8335D01*
X16984D01*
X16997Y8337D01*
X17010Y8342D01*
X17021Y8351D01*
X17029Y8362D01*
X17034Y8374D01*
X17036Y8388D01*
Y8611D01*
D02*
G37*
G36*
X16729D02*
X16522D01*
Y8388D01*
X16524Y8374D01*
X16529Y8362D01*
X16537Y8351D01*
X16548Y8342D01*
X16561Y8337D01*
X16575Y8335D01*
X16729D01*
Y8611D01*
D02*
G37*
G36*
X15102Y4420D02*
X14201D01*
X14187Y4418D01*
X14175Y4413D01*
X14164Y4404D01*
X14155Y4393D01*
X14150Y4381D01*
X14148Y4367D01*
Y3938D01*
X14150Y3925D01*
X14155Y3912D01*
X14164Y3901D01*
X14175Y3893D01*
X14187Y3887D01*
X14201Y3886D01*
X15102D01*
X15116Y3887D01*
X15129Y3893D01*
X15139Y3901D01*
X15148Y3912D01*
X15153Y3925D01*
X15155Y3938D01*
Y4367D01*
X15153Y4381D01*
X15148Y4393D01*
X15139Y4404D01*
X15129Y4413D01*
X15116Y4418D01*
X15102Y4420D01*
D02*
G37*
G36*
X16971Y3725D02*
X16935D01*
Y3579D01*
X17081D01*
Y3615D01*
X17077Y3644D01*
X17066Y3670D01*
X17049Y3693D01*
X17026Y3711D01*
X17000Y3722D01*
X16971Y3725D01*
D02*
G37*
G36*
X16535D02*
X16499D01*
X16470Y3722D01*
X16444Y3711D01*
X16421Y3693D01*
X16403Y3670D01*
X16392Y3644D01*
X16389Y3615D01*
Y3579D01*
X16535D01*
Y3725D01*
D02*
G37*
G36*
X17081Y3179D02*
X16935D01*
Y3033D01*
X16971D01*
X17000Y3037D01*
X17026Y3048D01*
X17049Y3065D01*
X17066Y3088D01*
X17077Y3115D01*
X17081Y3143D01*
Y3179D01*
D02*
G37*
G36*
X16535D02*
X16389D01*
Y3143D01*
X16392Y3115D01*
X16403Y3088D01*
X16421Y3065D01*
X16444Y3048D01*
X16470Y3037D01*
X16499Y3033D01*
X16535D01*
Y3179D01*
D02*
G37*
G36*
X5425Y12451D02*
X5191D01*
X5178Y12449D01*
X5165Y12444D01*
X5155Y12436D01*
X5147Y12425D01*
X5146Y12423D01*
X5130Y12407D01*
X5100Y12392D01*
X5085Y12389D01*
X5076Y12391D01*
X5045Y12394D01*
X5013Y12391D01*
X4983Y12382D01*
X4961Y12370D01*
X4940Y12377D01*
X4906Y12398D01*
Y12399D01*
X4904Y12413D01*
X4899Y12425D01*
X4891Y12436D01*
X4880Y12444D01*
X4868Y12449D01*
X4854Y12451D01*
X4620D01*
X4607Y12449D01*
X4595Y12444D01*
X4584Y12436D01*
X4576Y12425D01*
X4571Y12413D01*
X4569Y12399D01*
Y12067D01*
X4571Y12054D01*
X4576Y12041D01*
X4584Y12031D01*
X4595Y12022D01*
X4607Y12017D01*
X4620Y12016D01*
X4662D01*
Y11938D01*
X4630D01*
X4617Y11937D01*
X4604Y11932D01*
X4594Y11923D01*
X4586Y11913D01*
X4580Y11900D01*
X4579Y11887D01*
Y11594D01*
X4580Y11580D01*
X4586Y11568D01*
X4594Y11557D01*
X4604Y11549D01*
X4617Y11544D01*
X4630Y11542D01*
X4685D01*
Y11451D01*
X4675Y11449D01*
X4662Y11444D01*
X4652Y11436D01*
X4644Y11425D01*
X4638Y11413D01*
X4637Y11400D01*
Y11185D01*
X4638Y11172D01*
X4644Y11159D01*
X4652Y11149D01*
X4662Y11141D01*
X4675Y11135D01*
X4688Y11134D01*
X4981D01*
X4995Y11135D01*
X5007Y11141D01*
X5018Y11149D01*
X5026Y11159D01*
X5031Y11172D01*
X5033Y11185D01*
Y11217D01*
X5228D01*
Y11104D01*
X5230Y11091D01*
X5235Y11079D01*
X5243Y11068D01*
X5254Y11060D01*
X5266Y11055D01*
X5279Y11053D01*
X5490D01*
X5503Y11055D01*
X5516Y11060D01*
X5526Y11068D01*
X5534Y11079D01*
X5540Y11091D01*
X5541Y11104D01*
Y11398D01*
X5540Y11411D01*
X5534Y11423D01*
X5526Y11434D01*
X5516Y11442D01*
X5503Y11447D01*
X5490Y11449D01*
X5279D01*
X5266Y11447D01*
X5254Y11442D01*
X5243Y11434D01*
X5235Y11423D01*
X5230Y11411D01*
X5228Y11398D01*
Y11368D01*
X5033D01*
Y11400D01*
X5031Y11413D01*
X5026Y11425D01*
X5018Y11436D01*
X5007Y11444D01*
X4995Y11449D01*
X4981Y11451D01*
X4836D01*
Y11542D01*
X4845D01*
X4858Y11544D01*
X4870Y11549D01*
X4881Y11557D01*
X4889Y11568D01*
X4894Y11580D01*
X4896Y11594D01*
Y11887D01*
X4894Y11900D01*
X4889Y11913D01*
X4881Y11923D01*
X4870Y11932D01*
X4858Y11937D01*
X4845Y11938D01*
X4813D01*
Y12016D01*
X4854D01*
X4868Y12017D01*
X4880Y12022D01*
X4891Y12031D01*
X4899Y12041D01*
X4904Y12054D01*
X4906Y12067D01*
Y12069D01*
X4940Y12090D01*
X4961Y12096D01*
X4983Y12085D01*
X5013Y12075D01*
X5045Y12072D01*
X5076Y12075D01*
X5085Y12078D01*
X5100Y12075D01*
X5130Y12059D01*
X5146Y12043D01*
X5147Y12041D01*
X5155Y12031D01*
X5165Y12022D01*
X5178Y12017D01*
X5191Y12016D01*
X5233D01*
Y11938D01*
X5201D01*
X5188Y11937D01*
X5175Y11932D01*
X5165Y11923D01*
X5156Y11913D01*
X5151Y11900D01*
X5150Y11887D01*
Y11594D01*
X5151Y11580D01*
X5156Y11568D01*
X5165Y11557D01*
X5175Y11549D01*
X5188Y11544D01*
X5201Y11542D01*
X5415D01*
X5429Y11544D01*
X5441Y11549D01*
X5452Y11557D01*
X5460Y11568D01*
X5465Y11580D01*
X5467Y11594D01*
Y11887D01*
X5465Y11900D01*
X5460Y11913D01*
X5452Y11923D01*
X5441Y11932D01*
X5429Y11937D01*
X5415Y11938D01*
X5384D01*
Y12016D01*
X5425D01*
X5439Y12017D01*
X5451Y12022D01*
X5462Y12031D01*
X5470Y12041D01*
X5475Y12054D01*
X5477Y12067D01*
Y12399D01*
X5475Y12413D01*
X5470Y12425D01*
X5462Y12436D01*
X5451Y12444D01*
X5439Y12449D01*
X5425Y12451D01*
D02*
G37*
G36*
X12262Y12300D02*
X11869D01*
Y12120D01*
X12315D01*
Y12247D01*
X12313Y12261D01*
X12308Y12274D01*
X12300Y12285D01*
X12289Y12293D01*
X12276Y12298D01*
X12262Y12300D01*
D02*
G37*
G36*
X11656D02*
X11263D01*
X11249Y12298D01*
X11237Y12293D01*
X11226Y12285D01*
X11217Y12274D01*
X11212Y12261D01*
X11210Y12247D01*
Y12120D01*
X11656D01*
Y12300D01*
D02*
G37*
G36*
X11101D02*
X10708D01*
Y12120D01*
X11154D01*
Y12247D01*
X11152Y12261D01*
X11147Y12274D01*
X11138Y12285D01*
X11127Y12293D01*
X11114Y12298D01*
X11101Y12300D01*
D02*
G37*
G36*
X10495D02*
X10102D01*
X10088Y12298D01*
X10075Y12293D01*
X10064Y12285D01*
X10056Y12274D01*
X10051Y12261D01*
X10049Y12247D01*
Y12120D01*
X10495D01*
Y12300D01*
D02*
G37*
G36*
X12315Y11907D02*
X11869D01*
Y11727D01*
X12262D01*
X12276Y11729D01*
X12289Y11734D01*
X12300Y11742D01*
X12308Y11753D01*
X12313Y11766D01*
X12315Y11780D01*
Y11907D01*
D02*
G37*
G36*
X11656D02*
X11210D01*
Y11780D01*
X11212Y11766D01*
X11217Y11753D01*
X11226Y11742D01*
X11237Y11734D01*
X11249Y11729D01*
X11263Y11727D01*
X11656D01*
Y11907D01*
D02*
G37*
G36*
X11154D02*
X10708D01*
Y11727D01*
X11101D01*
X11114Y11729D01*
X11127Y11734D01*
X11138Y11742D01*
X11147Y11753D01*
X11152Y11766D01*
X11154Y11780D01*
Y11907D01*
D02*
G37*
G36*
X10495D02*
X10049D01*
Y11780D01*
X10051Y11766D01*
X10056Y11753D01*
X10064Y11742D01*
X10075Y11734D01*
X10088Y11729D01*
X10102Y11727D01*
X10495D01*
Y11907D01*
D02*
G37*
G36*
X5801Y12458D02*
X5586D01*
X5573Y12456D01*
X5561Y12451D01*
X5550Y12443D01*
X5542Y12432D01*
X5537Y12420D01*
X5535Y12407D01*
Y12113D01*
X5537Y12100D01*
X5542Y12088D01*
X5550Y12077D01*
X5561Y12069D01*
X5573Y12064D01*
X5586Y12062D01*
X5613D01*
Y11999D01*
X5577D01*
X5563Y11997D01*
X5551Y11992D01*
X5540Y11984D01*
X5532Y11973D01*
X5527Y11961D01*
X5525Y11947D01*
Y11615D01*
X5527Y11602D01*
X5532Y11589D01*
X5540Y11578D01*
X5551Y11570D01*
X5563Y11565D01*
X5577Y11563D01*
X5810D01*
X5824Y11565D01*
X5836Y11570D01*
X5847Y11578D01*
X5855Y11589D01*
X5860Y11602D01*
X5862Y11615D01*
Y11947D01*
X5860Y11961D01*
X5855Y11973D01*
X5847Y11984D01*
X5836Y11992D01*
X5824Y11997D01*
X5810Y11999D01*
X5774D01*
Y12062D01*
X5801D01*
X5814Y12064D01*
X5826Y12069D01*
X5837Y12077D01*
X5845Y12088D01*
X5850Y12100D01*
X5852Y12113D01*
Y12407D01*
X5850Y12420D01*
X5845Y12432D01*
X5837Y12443D01*
X5826Y12451D01*
X5814Y12456D01*
X5801Y12458D01*
D02*
G37*
G36*
X4436Y11636D02*
X4043D01*
Y11456D01*
X4489D01*
Y11583D01*
X4487Y11597D01*
X4482Y11610D01*
X4473Y11621D01*
X4462Y11629D01*
X4450Y11634D01*
X4436Y11636D01*
D02*
G37*
G36*
X3830D02*
X3437D01*
X3423Y11634D01*
X3410Y11629D01*
X3399Y11621D01*
X3391Y11610D01*
X3386Y11597D01*
X3384Y11583D01*
Y11456D01*
X3830D01*
Y11636D01*
D02*
G37*
G36*
X3276D02*
X2883D01*
Y11456D01*
X3329D01*
Y11583D01*
X3327Y11597D01*
X3322Y11610D01*
X3313Y11621D01*
X3302Y11629D01*
X3290Y11634D01*
X3276Y11636D01*
D02*
G37*
G36*
X2670D02*
X2277D01*
X2263Y11634D01*
X2250Y11629D01*
X2239Y11621D01*
X2231Y11610D01*
X2226Y11597D01*
X2224Y11583D01*
Y11456D01*
X2670D01*
Y11636D01*
D02*
G37*
G36*
X4489Y11243D02*
X4043D01*
Y11063D01*
X4436D01*
X4450Y11065D01*
X4462Y11070D01*
X4473Y11078D01*
X4482Y11089D01*
X4487Y11102D01*
X4489Y11116D01*
Y11243D01*
D02*
G37*
G36*
X3830D02*
X3384D01*
Y11116D01*
X3386Y11102D01*
X3391Y11089D01*
X3399Y11078D01*
X3410Y11070D01*
X3423Y11065D01*
X3437Y11063D01*
X3830D01*
Y11243D01*
D02*
G37*
G36*
X3329D02*
X2883D01*
Y11063D01*
X3276D01*
X3290Y11065D01*
X3302Y11070D01*
X3313Y11078D01*
X3322Y11089D01*
X3327Y11102D01*
X3329Y11116D01*
Y11243D01*
D02*
G37*
G36*
X2670D02*
X2224D01*
Y11116D01*
X2226Y11102D01*
X2231Y11089D01*
X2239Y11078D01*
X2250Y11070D01*
X2263Y11065D01*
X2277Y11063D01*
X2670D01*
Y11243D01*
D02*
G37*
G36*
X6381Y11999D02*
X6147D01*
X6134Y11997D01*
X6122Y11992D01*
X6111Y11984D01*
X6103Y11973D01*
X6098Y11961D01*
X6096Y11947D01*
Y11615D01*
X6098Y11602D01*
X6103Y11589D01*
X6110Y11579D01*
Y11449D01*
X6027D01*
X6014Y11447D01*
X6002Y11442D01*
X5991Y11434D01*
X5983Y11423D01*
X5978Y11411D01*
X5976Y11398D01*
Y11104D01*
X5978Y11091D01*
X5983Y11079D01*
X5991Y11068D01*
X6002Y11060D01*
X6014Y11055D01*
X6027Y11053D01*
X6238D01*
X6251Y11055D01*
X6264Y11060D01*
X6274Y11068D01*
X6282Y11079D01*
X6288Y11091D01*
X6289Y11104D01*
Y11398D01*
X6288Y11411D01*
X6282Y11423D01*
X6274Y11434D01*
X6272Y11436D01*
Y11563D01*
X6381D01*
X6395Y11565D01*
X6407Y11570D01*
X6418Y11578D01*
X6426Y11589D01*
X6431Y11602D01*
X6433Y11615D01*
Y11947D01*
X6431Y11961D01*
X6426Y11973D01*
X6418Y11984D01*
X6407Y11992D01*
X6395Y11997D01*
X6381Y11999D01*
D02*
G37*
G36*
X5864Y11449D02*
X5653D01*
X5640Y11447D01*
X5628Y11442D01*
X5617Y11434D01*
X5609Y11423D01*
X5604Y11411D01*
X5602Y11398D01*
Y11104D01*
X5604Y11091D01*
X5609Y11079D01*
X5617Y11068D01*
X5628Y11060D01*
X5640Y11055D01*
X5641Y11055D01*
X5643Y11000D01*
X5625Y10985D01*
X5602Y10956D01*
X5584Y10924D01*
X5574Y10888D01*
X5570Y10852D01*
X5553Y10833D01*
X5032D01*
X5031Y10842D01*
X5026Y10855D01*
X5018Y10865D01*
X5007Y10873D01*
X4995Y10879D01*
X4981Y10880D01*
X4688D01*
X4675Y10879D01*
X4662Y10873D01*
X4652Y10865D01*
X4644Y10855D01*
X4638Y10842D01*
X4637Y10829D01*
Y10614D01*
X4638Y10601D01*
X4644Y10589D01*
X4652Y10578D01*
X4662Y10570D01*
X4675Y10565D01*
X4688Y10563D01*
X4981D01*
X4995Y10565D01*
X5007Y10570D01*
X5018Y10578D01*
X5026Y10589D01*
X5031Y10601D01*
X5032Y10611D01*
X5629D01*
X5657Y10614D01*
X5684Y10625D01*
X5707Y10643D01*
X5730Y10666D01*
X5759Y10663D01*
X5795Y10666D01*
X5831Y10677D01*
X5863Y10695D01*
X5892Y10718D01*
X5915Y10747D01*
X5933Y10779D01*
X5944Y10815D01*
X5947Y10852D01*
X5944Y10888D01*
X5933Y10924D01*
X5915Y10956D01*
X5892Y10985D01*
X5874Y11000D01*
X5876Y11055D01*
X5877Y11055D01*
X5890Y11060D01*
X5900Y11068D01*
X5908Y11079D01*
X5914Y11091D01*
X5915Y11104D01*
Y11398D01*
X5914Y11411D01*
X5908Y11423D01*
X5900Y11434D01*
X5890Y11442D01*
X5877Y11447D01*
X5864Y11449D01*
D02*
G37*
G36*
X7390Y9887D02*
X7134D01*
Y9746D01*
X7442D01*
Y9834D01*
X7441Y9848D01*
X7435Y9860D01*
X7427Y9871D01*
X7416Y9880D01*
X7403Y9885D01*
X7390Y9887D01*
D02*
G37*
G36*
X6921D02*
X6666D01*
X6652Y9885D01*
X6639Y9880D01*
X6628Y9871D01*
X6620Y9860D01*
X6615Y9848D01*
X6613Y9834D01*
Y9746D01*
X6921D01*
Y9887D01*
D02*
G37*
G36*
X943Y9649D02*
X837D01*
Y9540D01*
X995D01*
Y9597D01*
X993Y9611D01*
X988Y9623D01*
X980Y9634D01*
X969Y9642D01*
X957Y9647D01*
X943Y9649D01*
D02*
G37*
G36*
X737D02*
X631D01*
X617Y9647D01*
X605Y9642D01*
X594Y9634D01*
X586Y9623D01*
X581Y9611D01*
X579Y9597D01*
Y9540D01*
X737D01*
Y9649D01*
D02*
G37*
G36*
X7442Y9533D02*
X7134D01*
Y9392D01*
X7390D01*
X7403Y9394D01*
X7416Y9399D01*
X7427Y9407D01*
X7435Y9418D01*
X7441Y9431D01*
X7442Y9444D01*
Y9533D01*
D02*
G37*
G36*
X6921D02*
X6613D01*
Y9444D01*
X6615Y9431D01*
X6620Y9418D01*
X6628Y9407D01*
X6639Y9399D01*
X6652Y9394D01*
X6666Y9392D01*
X6921D01*
Y9533D01*
D02*
G37*
G36*
X995Y9440D02*
X837D01*
Y9331D01*
X943D01*
X957Y9333D01*
X969Y9338D01*
X980Y9346D01*
X988Y9357D01*
X993Y9369D01*
X995Y9383D01*
Y9440D01*
D02*
G37*
G36*
X737D02*
X579D01*
Y9383D01*
X581Y9369D01*
X586Y9357D01*
X594Y9346D01*
X605Y9338D01*
X617Y9333D01*
X631Y9331D01*
X737D01*
Y9440D01*
D02*
G37*
G36*
X7906Y9327D02*
X7809D01*
Y9219D01*
X7957D01*
Y9276D01*
X7956Y9289D01*
X7950Y9302D01*
X7942Y9312D01*
X7932Y9320D01*
X7919Y9326D01*
X7906Y9327D01*
D02*
G37*
G36*
X7709D02*
X7613D01*
X7599Y9326D01*
X7587Y9320D01*
X7576Y9312D01*
X7568Y9302D01*
X7563Y9289D01*
X7561Y9276D01*
Y9219D01*
X7709D01*
Y9327D01*
D02*
G37*
G36*
X9865Y10157D02*
X9437D01*
X9423Y10155D01*
X9410Y10149D01*
X9399Y10141D01*
X9391Y10130D01*
X9386Y10118D01*
X9384Y10104D01*
Y9203D01*
X9386Y9189D01*
X9391Y9176D01*
X9399Y9166D01*
X9410Y9157D01*
X9423Y9152D01*
X9437Y9150D01*
X9865D01*
X9879Y9152D01*
X9892Y9157D01*
X9903Y9166D01*
X9911Y9176D01*
X9916Y9189D01*
X9918Y9203D01*
Y10104D01*
X9916Y10118D01*
X9911Y10130D01*
X9903Y10141D01*
X9892Y10149D01*
X9879Y10155D01*
X9865Y10157D01*
D02*
G37*
G36*
X7957Y9119D02*
X7809D01*
Y9010D01*
X7906D01*
X7919Y9012D01*
X7932Y9017D01*
X7942Y9025D01*
X7950Y9036D01*
X7956Y9048D01*
X7957Y9061D01*
Y9119D01*
D02*
G37*
G36*
X7709D02*
X7561D01*
Y9061D01*
X7563Y9048D01*
X7568Y9036D01*
X7576Y9025D01*
X7587Y9017D01*
X7599Y9012D01*
X7613Y9010D01*
X7709D01*
Y9119D01*
D02*
G37*
G36*
X9031Y9150D02*
X8687D01*
Y8989D01*
X9084D01*
Y9097D01*
X9082Y9111D01*
X9077Y9123D01*
X9068Y9134D01*
X9057Y9143D01*
X9045Y9148D01*
X9031Y9150D01*
D02*
G37*
G36*
X8474D02*
X8130D01*
X8116Y9148D01*
X8103Y9143D01*
X8093Y9134D01*
X8084Y9123D01*
X8079Y9111D01*
X8077Y9097D01*
Y8989D01*
X8474D01*
Y9150D01*
D02*
G37*
G36*
X9084Y8776D02*
X8687D01*
Y8616D01*
X9031D01*
X9045Y8617D01*
X9057Y8623D01*
X9068Y8631D01*
X9077Y8642D01*
X9082Y8655D01*
X9084Y8668D01*
Y8776D01*
D02*
G37*
G36*
X8474D02*
X8077D01*
Y8668D01*
X8079Y8655D01*
X8084Y8642D01*
X8093Y8631D01*
X8103Y8623D01*
X8116Y8617D01*
X8130Y8616D01*
X8474D01*
Y8776D01*
D02*
G37*
G36*
X7453Y8756D02*
X7160D01*
X7146Y8755D01*
X7134Y8750D01*
X7123Y8741D01*
X7115Y8731D01*
X7110Y8718D01*
X7108Y8705D01*
Y8491D01*
X7110Y8477D01*
X7115Y8465D01*
X7123Y8454D01*
X7131Y8449D01*
X7131Y8446D01*
X7132Y8426D01*
X7128Y8390D01*
X7120Y8384D01*
X7112Y8373D01*
X7107Y8361D01*
X7105Y8348D01*
Y8035D01*
X7107Y8021D01*
X7112Y8009D01*
X7120Y7998D01*
X7131Y7990D01*
X7143Y7985D01*
X7157Y7983D01*
X7371D01*
X7385Y7985D01*
X7397Y7990D01*
X7408Y7998D01*
X7416Y8009D01*
X7421Y8021D01*
X7423Y8035D01*
Y8348D01*
X7421Y8361D01*
X7416Y8373D01*
X7408Y8384D01*
X7407Y8384D01*
X7416Y8428D01*
X7422Y8439D01*
X7453D01*
X7466Y8441D01*
X7479Y8446D01*
X7489Y8454D01*
X7498Y8465D01*
X7503Y8477D01*
X7504Y8491D01*
Y8705D01*
X7503Y8718D01*
X7498Y8731D01*
X7489Y8741D01*
X7479Y8750D01*
X7466Y8755D01*
X7453Y8756D01*
D02*
G37*
G36*
X7906D02*
X7613D01*
X7599Y8755D01*
X7587Y8750D01*
X7576Y8741D01*
X7568Y8731D01*
X7563Y8718D01*
X7561Y8705D01*
Y8491D01*
X7563Y8477D01*
X7568Y8465D01*
X7576Y8454D01*
X7587Y8446D01*
X7599Y8441D01*
X7613Y8439D01*
X7684D01*
Y8128D01*
X7684Y8128D01*
X7686Y8108D01*
X7694Y8090D01*
X7706Y8075D01*
X7741Y8039D01*
X7741Y8039D01*
X7757Y8027D01*
X7775Y8020D01*
X7795Y8017D01*
X8077D01*
Y7878D01*
X8079Y7865D01*
X8084Y7852D01*
X8093Y7841D01*
X8103Y7833D01*
X8116Y7827D01*
X8130Y7826D01*
X9031D01*
X9045Y7827D01*
X9057Y7833D01*
X9068Y7841D01*
X9077Y7852D01*
X9082Y7865D01*
X9084Y7878D01*
Y8307D01*
X9082Y8321D01*
X9077Y8333D01*
X9068Y8344D01*
X9057Y8353D01*
X9045Y8358D01*
X9031Y8360D01*
X8130D01*
X8116Y8358D01*
X8103Y8353D01*
X8093Y8344D01*
X8084Y8333D01*
X8079Y8321D01*
X8077Y8307D01*
Y8168D01*
X7835D01*
Y8439D01*
X7906D01*
X7919Y8441D01*
X7932Y8446D01*
X7942Y8454D01*
X7950Y8465D01*
X7956Y8477D01*
X7957Y8491D01*
Y8705D01*
X7956Y8718D01*
X7950Y8731D01*
X7942Y8741D01*
X7932Y8750D01*
X7919Y8755D01*
X7906Y8756D01*
D02*
G37*
G36*
X7745Y7533D02*
X7688D01*
Y7375D01*
X7797D01*
Y7481D01*
X7795Y7495D01*
X7790Y7507D01*
X7782Y7518D01*
X7771Y7526D01*
X7759Y7531D01*
X7745Y7533D01*
D02*
G37*
G36*
X7588D02*
X7531D01*
X7518Y7531D01*
X7505Y7526D01*
X7494Y7518D01*
X7486Y7507D01*
X7481Y7495D01*
X7479Y7481D01*
Y7375D01*
X7588D01*
Y7533D01*
D02*
G37*
G36*
X7797Y7275D02*
X7688D01*
Y7117D01*
X7745D01*
X7759Y7119D01*
X7771Y7124D01*
X7782Y7132D01*
X7790Y7143D01*
X7795Y7155D01*
X7797Y7169D01*
Y7275D01*
D02*
G37*
G36*
X7588D02*
X7479D01*
Y7169D01*
X7481Y7155D01*
X7486Y7143D01*
X7494Y7132D01*
X7505Y7124D01*
X7518Y7119D01*
X7531Y7117D01*
X7588D01*
Y7275D01*
D02*
G37*
G36*
X6997Y7533D02*
X6783D01*
X6769Y7531D01*
X6757Y7526D01*
X6746Y7518D01*
X6738Y7507D01*
X6733Y7495D01*
X6731Y7481D01*
Y7169D01*
X6733Y7155D01*
X6738Y7143D01*
X6746Y7132D01*
X6757Y7124D01*
X6769Y7119D01*
X6783Y7117D01*
X6814D01*
Y6075D01*
X6713D01*
X6700Y6073D01*
X6688Y6068D01*
X6677Y6059D01*
X6669Y6049D01*
X6664Y6036D01*
X6662Y6023D01*
Y5809D01*
X6664Y5795D01*
X6669Y5783D01*
X6677Y5772D01*
X6688Y5764D01*
X6700Y5759D01*
X6713Y5757D01*
X7007D01*
X7020Y5759D01*
X7032Y5764D01*
X7043Y5772D01*
X7051Y5783D01*
X7056Y5795D01*
X7058Y5809D01*
Y5840D01*
X7137D01*
Y5709D01*
X7138Y5696D01*
X7143Y5683D01*
X7152Y5673D01*
X7162Y5665D01*
X7175Y5659D01*
X7188Y5658D01*
X7402D01*
X7416Y5659D01*
X7428Y5665D01*
X7439Y5673D01*
X7447Y5683D01*
X7452Y5696D01*
X7454Y5709D01*
Y6002D01*
X7452Y6016D01*
X7447Y6028D01*
X7439Y6039D01*
X7428Y6047D01*
X7416Y6052D01*
X7402Y6054D01*
X7188D01*
X7175Y6052D01*
X7162Y6047D01*
X7152Y6039D01*
X7143Y6028D01*
X7138Y6016D01*
X7137Y6002D01*
Y5991D01*
X7058D01*
Y6023D01*
X7056Y6036D01*
X7051Y6049D01*
X7043Y6059D01*
X7032Y6068D01*
X7020Y6073D01*
X7007Y6075D01*
X6966D01*
Y7117D01*
X6997D01*
X7011Y7119D01*
X7023Y7124D01*
X7034Y7132D01*
X7042Y7143D01*
X7047Y7155D01*
X7049Y7169D01*
Y7481D01*
X7047Y7495D01*
X7042Y7507D01*
X7034Y7518D01*
X7023Y7526D01*
X7011Y7531D01*
X6997Y7533D01*
D02*
G37*
G36*
X7973Y6054D02*
X7759D01*
X7746Y6052D01*
X7733Y6047D01*
X7723Y6039D01*
X7714Y6028D01*
X7709Y6016D01*
X7707Y6002D01*
Y5709D01*
X7709Y5696D01*
X7714Y5683D01*
X7723Y5673D01*
X7733Y5665D01*
X7746Y5659D01*
X7759Y5658D01*
X7973D01*
X7987Y5659D01*
X7999Y5665D01*
X8010Y5673D01*
X8018Y5683D01*
X8023Y5696D01*
X8025Y5709D01*
Y5780D01*
X8087D01*
Y5518D01*
X8089Y5505D01*
X8094Y5492D01*
X8103Y5481D01*
X8113Y5473D01*
X8126Y5467D01*
X8140Y5466D01*
X9041D01*
X9055Y5467D01*
X9067Y5473D01*
X9078Y5481D01*
X9087Y5492D01*
X9092Y5505D01*
X9094Y5518D01*
Y5947D01*
X9092Y5961D01*
X9087Y5973D01*
X9078Y5984D01*
X9067Y5993D01*
X9055Y5998D01*
X9041Y6000D01*
X8140D01*
X8126Y5998D01*
X8113Y5993D01*
X8103Y5984D01*
X8094Y5973D01*
X8089Y5961D01*
X8087Y5947D01*
Y5931D01*
X8025D01*
Y6002D01*
X8023Y6016D01*
X8018Y6028D01*
X8010Y6039D01*
X7999Y6047D01*
X7987Y6052D01*
X7973Y6054D01*
D02*
G37*
G36*
X7402Y5599D02*
X7345D01*
Y5451D01*
X7454D01*
Y5547D01*
X7452Y5560D01*
X7447Y5573D01*
X7439Y5584D01*
X7428Y5592D01*
X7416Y5597D01*
X7402Y5599D01*
D02*
G37*
G36*
X7245D02*
X7188D01*
X7175Y5597D01*
X7162Y5592D01*
X7152Y5584D01*
X7143Y5573D01*
X7138Y5560D01*
X7137Y5547D01*
Y5451D01*
X7245D01*
Y5599D01*
D02*
G37*
G36*
X7007Y5504D02*
X6910D01*
Y5395D01*
X7058D01*
Y5452D01*
X7056Y5465D01*
X7051Y5478D01*
X7043Y5489D01*
X7032Y5497D01*
X7020Y5502D01*
X7007Y5504D01*
D02*
G37*
G36*
X6810D02*
X6713D01*
X6700Y5502D01*
X6688Y5497D01*
X6677Y5489D01*
X6669Y5478D01*
X6664Y5465D01*
X6662Y5452D01*
Y5395D01*
X6810D01*
Y5504D01*
D02*
G37*
G36*
X7454Y5351D02*
X7345D01*
Y5202D01*
X7402D01*
X7416Y5204D01*
X7428Y5209D01*
X7439Y5218D01*
X7447Y5228D01*
X7452Y5241D01*
X7454Y5254D01*
Y5351D01*
D02*
G37*
G36*
X7245D02*
X7137D01*
Y5254D01*
X7138Y5241D01*
X7143Y5228D01*
X7152Y5218D01*
X7162Y5209D01*
X7175Y5204D01*
X7188Y5202D01*
X7245D01*
Y5351D01*
D02*
G37*
G36*
X7058Y5295D02*
X6910D01*
Y5186D01*
X7007D01*
X7020Y5188D01*
X7032Y5193D01*
X7043Y5201D01*
X7051Y5212D01*
X7056Y5224D01*
X7058Y5238D01*
Y5295D01*
D02*
G37*
G36*
X6810D02*
X6662D01*
Y5238D01*
X6664Y5224D01*
X6669Y5212D01*
X6677Y5201D01*
X6688Y5193D01*
X6700Y5188D01*
X6713Y5186D01*
X6810D01*
Y5295D01*
D02*
G37*
G36*
X7973Y5599D02*
X7759D01*
X7746Y5597D01*
X7733Y5592D01*
X7723Y5584D01*
X7714Y5573D01*
X7709Y5560D01*
X7707Y5547D01*
Y5254D01*
X7709Y5241D01*
X7714Y5228D01*
X7723Y5218D01*
X7733Y5209D01*
X7746Y5204D01*
X7759Y5202D01*
X7866D01*
Y4953D01*
Y4153D01*
X7816Y4103D01*
X7761Y4107D01*
Y4131D01*
X7759Y4145D01*
X7754Y4157D01*
X7746Y4168D01*
X7735Y4176D01*
X7722Y4181D01*
X7709Y4183D01*
X7416D01*
X7403Y4181D01*
X7390Y4176D01*
X7380Y4168D01*
X7371Y4157D01*
X7366Y4145D01*
X7365Y4131D01*
Y3917D01*
X7366Y3904D01*
X7371Y3891D01*
X7380Y3880D01*
X7390Y3872D01*
X7403Y3867D01*
X7416Y3865D01*
X7709D01*
X7722Y3867D01*
X7735Y3872D01*
X7746Y3880D01*
X7754Y3891D01*
X7759Y3904D01*
X7761Y3917D01*
Y3948D01*
X7844D01*
X7844Y3948D01*
X7864Y3951D01*
X7882Y3959D01*
X7898Y3971D01*
X7995Y4068D01*
X7995Y4068D01*
X8007Y4084D01*
X8015Y4102D01*
X8017Y4122D01*
Y4877D01*
X8087D01*
Y4738D01*
X8089Y4725D01*
X8094Y4712D01*
X8103Y4701D01*
X8113Y4693D01*
X8126Y4687D01*
X8140Y4686D01*
X9041D01*
X9055Y4687D01*
X9067Y4693D01*
X9078Y4701D01*
X9087Y4712D01*
X9092Y4725D01*
X9094Y4738D01*
Y5167D01*
X9092Y5181D01*
X9087Y5193D01*
X9078Y5204D01*
X9067Y5213D01*
X9055Y5218D01*
X9041Y5220D01*
X8140D01*
X8126Y5218D01*
X8113Y5213D01*
X8103Y5204D01*
X8094Y5193D01*
X8089Y5181D01*
X8087Y5167D01*
Y5028D01*
X8017D01*
Y5227D01*
X8018Y5228D01*
X8023Y5241D01*
X8025Y5254D01*
Y5547D01*
X8023Y5560D01*
X8018Y5573D01*
X8010Y5584D01*
X7999Y5592D01*
X7987Y5597D01*
X7973Y5599D01*
D02*
G37*
G36*
X7690Y4818D02*
X7623D01*
Y4650D01*
X7742D01*
Y4766D01*
X7740Y4780D01*
X7735Y4792D01*
X7727Y4803D01*
X7716Y4811D01*
X7704Y4816D01*
X7690Y4818D01*
D02*
G37*
G36*
X7523D02*
X7456D01*
X7443Y4816D01*
X7431Y4811D01*
X7420Y4803D01*
X7412Y4792D01*
X7407Y4780D01*
X7405Y4766D01*
Y4650D01*
X7523D01*
Y4818D01*
D02*
G37*
G36*
X7742Y4550D02*
X7623D01*
Y4382D01*
X7690D01*
X7704Y4384D01*
X7716Y4389D01*
X7727Y4397D01*
X7735Y4408D01*
X7740Y4421D01*
X7742Y4434D01*
Y4550D01*
D02*
G37*
G36*
X7523D02*
X7405D01*
Y4434D01*
X7407Y4421D01*
X7412Y4408D01*
X7420Y4397D01*
X7431Y4389D01*
X7443Y4384D01*
X7456Y4382D01*
X7523D01*
Y4550D01*
D02*
G37*
G36*
X7709Y3809D02*
X7613D01*
Y3700D01*
X7761D01*
Y3757D01*
X7759Y3771D01*
X7754Y3783D01*
X7746Y3794D01*
X7735Y3802D01*
X7722Y3807D01*
X7709Y3809D01*
D02*
G37*
G36*
X7513D02*
X7416D01*
X7403Y3807D01*
X7390Y3802D01*
X7380Y3794D01*
X7371Y3783D01*
X7366Y3771D01*
X7365Y3757D01*
Y3700D01*
X7513D01*
Y3809D01*
D02*
G37*
G36*
X7761Y3600D02*
X7613D01*
Y3491D01*
X7709D01*
X7722Y3493D01*
X7735Y3498D01*
X7746Y3506D01*
X7754Y3517D01*
X7759Y3529D01*
X7761Y3543D01*
Y3600D01*
D02*
G37*
G36*
X7513D02*
X7365D01*
Y3543D01*
X7366Y3529D01*
X7371Y3517D01*
X7380Y3506D01*
X7390Y3498D01*
X7403Y3493D01*
X7416Y3491D01*
X7513D01*
Y3600D01*
D02*
G37*
G36*
X7249Y2406D02*
X7182D01*
Y2336D01*
X7301D01*
Y2354D01*
X7297Y2374D01*
X7285Y2391D01*
X7269Y2402D01*
X7249Y2406D01*
D02*
G37*
G36*
X7082D02*
X7014D01*
X6994Y2402D01*
X6978Y2391D01*
X6966Y2374D01*
X6962Y2354D01*
Y2336D01*
X7082D01*
Y2406D01*
D02*
G37*
G36*
X6838Y2333D02*
X6722D01*
Y2214D01*
X6890D01*
Y2281D01*
X6888Y2295D01*
X6883Y2307D01*
X6875Y2318D01*
X6864Y2326D01*
X6851Y2331D01*
X6838Y2333D01*
D02*
G37*
G36*
X6890Y2114D02*
X6722D01*
Y1996D01*
X6838D01*
X6851Y1997D01*
X6864Y2003D01*
X6875Y2011D01*
X6883Y2021D01*
X6888Y2034D01*
X6890Y2047D01*
Y2114D01*
D02*
G37*
G36*
X7301Y1724D02*
X7182D01*
Y1654D01*
X7249D01*
X7269Y1658D01*
X7285Y1669D01*
X7297Y1686D01*
X7301Y1706D01*
Y1724D01*
D02*
G37*
G36*
X7082D02*
X6962D01*
Y1706D01*
X6966Y1686D01*
X6978Y1669D01*
X6994Y1658D01*
X7014Y1654D01*
X7082D01*
Y1724D01*
D02*
G37*
G36*
X5399Y1153D02*
Y909D01*
X5643D01*
X5641Y944D01*
X5632Y982D01*
X5617Y1018D01*
X5596Y1051D01*
X5571Y1081D01*
X5542Y1106D01*
X5508Y1126D01*
X5473Y1141D01*
X5435Y1150D01*
X5399Y1153D01*
D02*
G37*
G36*
X4999D02*
X4964Y1150D01*
X4926Y1141D01*
X4890Y1126D01*
X4857Y1106D01*
X4827Y1081D01*
X4802Y1051D01*
X4782Y1018D01*
X4767Y982D01*
X4758Y944D01*
X4755Y909D01*
X4999D01*
Y1153D01*
D02*
G37*
G36*
X6419Y1143D02*
Y899D01*
X6663D01*
X6661Y934D01*
X6652Y972D01*
X6637Y1008D01*
X6616Y1041D01*
X6591Y1071D01*
X6562Y1096D01*
X6528Y1116D01*
X6493Y1131D01*
X6455Y1140D01*
X6419Y1143D01*
D02*
G37*
G36*
X6019D02*
X5984Y1140D01*
X5946Y1131D01*
X5910Y1116D01*
X5877Y1096D01*
X5847Y1071D01*
X5822Y1041D01*
X5802Y1008D01*
X5787Y972D01*
X5778Y934D01*
X5775Y899D01*
X6019D01*
Y1143D01*
D02*
G37*
G36*
X5643Y509D02*
X5399D01*
Y265D01*
X5435Y267D01*
X5473Y276D01*
X5508Y291D01*
X5542Y312D01*
X5571Y337D01*
X5596Y366D01*
X5617Y400D01*
X5632Y435D01*
X5641Y473D01*
X5643Y509D01*
D02*
G37*
G36*
X4999D02*
X4755D01*
X4758Y473D01*
X4767Y435D01*
X4782Y400D01*
X4802Y366D01*
X4827Y337D01*
X4857Y312D01*
X4890Y291D01*
X4926Y276D01*
X4964Y267D01*
X4999Y265D01*
Y509D01*
D02*
G37*
G36*
X6663Y499D02*
X6419D01*
Y255D01*
X6455Y257D01*
X6493Y266D01*
X6528Y281D01*
X6562Y302D01*
X6591Y327D01*
X6616Y356D01*
X6637Y390D01*
X6652Y425D01*
X6661Y463D01*
X6663Y499D01*
D02*
G37*
G36*
X6019D02*
X5775D01*
X5778Y463D01*
X5787Y425D01*
X5802Y390D01*
X5822Y356D01*
X5847Y327D01*
X5877Y302D01*
X5910Y281D01*
X5946Y266D01*
X5984Y257D01*
X6019Y255D01*
Y499D01*
D02*
G37*
G36*
X8017Y1894D02*
X7782D01*
X7762Y1890D01*
X7745Y1879D01*
X7734Y1862D01*
X7730Y1842D01*
Y1706D01*
X7734Y1686D01*
X7745Y1669D01*
X7762Y1658D01*
X7782Y1654D01*
X7824D01*
Y1133D01*
X7804Y1128D01*
X7760Y1110D01*
X7719Y1085D01*
X7682Y1054D01*
X7651Y1017D01*
X7626Y976D01*
X7607Y931D01*
X7596Y885D01*
X7592Y837D01*
Y561D01*
X7596Y513D01*
X7607Y466D01*
X7626Y422D01*
X7651Y381D01*
X7682Y344D01*
X7719Y313D01*
X7760Y288D01*
X7804Y269D01*
X7851Y258D01*
X7899Y254D01*
X7947Y258D01*
X7994Y269D01*
X8039Y288D01*
X8080Y313D01*
X8116Y344D01*
X8147Y381D01*
X8173Y422D01*
X8191Y466D01*
X8202Y513D01*
X8206Y561D01*
Y837D01*
X8202Y885D01*
X8191Y931D01*
X8173Y976D01*
X8147Y1017D01*
X8116Y1054D01*
X8080Y1085D01*
X8039Y1110D01*
X7994Y1128D01*
X7975Y1133D01*
Y1654D01*
X8017D01*
X8036Y1658D01*
X8053Y1669D01*
X8064Y1686D01*
X8068Y1706D01*
Y1842D01*
X8064Y1862D01*
X8053Y1879D01*
X8036Y1890D01*
X8017Y1894D01*
D02*
G37*
G36*
X7107Y1143D02*
X7059Y1140D01*
X7012Y1128D01*
X6968Y1110D01*
X6927Y1085D01*
X6890Y1054D01*
X6859Y1017D01*
X6834Y976D01*
X6815Y931D01*
X6804Y885D01*
X6800Y837D01*
Y561D01*
X6804Y513D01*
X6815Y466D01*
X6834Y422D01*
X6859Y381D01*
X6890Y344D01*
X6927Y313D01*
X6968Y288D01*
X7012Y269D01*
X7059Y258D01*
X7107Y254D01*
X7155Y258D01*
X7202Y269D01*
X7247Y288D01*
X7288Y313D01*
X7324Y344D01*
X7355Y381D01*
X7381Y422D01*
X7399Y466D01*
X7410Y513D01*
X7414Y561D01*
Y837D01*
X7410Y885D01*
X7399Y931D01*
X7381Y976D01*
X7355Y1017D01*
X7324Y1054D01*
X7288Y1085D01*
X7247Y1110D01*
X7202Y1128D01*
X7155Y1140D01*
X7107Y1143D01*
D02*
G37*
G36*
X11445Y10157D02*
X11017D01*
X11003Y10155D01*
X10990Y10149D01*
X10979Y10141D01*
X10971Y10130D01*
X10966Y10118D01*
X10964Y10104D01*
Y9203D01*
X10966Y9189D01*
X10971Y9176D01*
X10979Y9166D01*
X10990Y9157D01*
X11003Y9152D01*
X11017Y9150D01*
X11445D01*
X11459Y9152D01*
X11472Y9157D01*
X11483Y9166D01*
X11491Y9176D01*
X11496Y9189D01*
X11498Y9203D01*
Y10104D01*
X11496Y10118D01*
X11491Y10130D01*
X11483Y10141D01*
X11472Y10149D01*
X11459Y10155D01*
X11445Y10157D01*
D02*
G37*
%LPD*%
D10*
X16155Y2379D02*
G03*
X15322Y2457I-420J0D01*
G01*
X15735Y2899D02*
G03*
X15245Y2557I0J-522D01*
G01*
X6564Y4600D02*
X7003D01*
X6516Y4648D02*
Y8598D01*
Y4648D02*
X6564Y4600D01*
X7071Y3276D02*
X7563D01*
X7003Y3344D02*
Y4600D01*
Y3344D02*
X7071Y3276D01*
X6542Y2735D02*
Y3276D01*
X6542Y3276D02*
X6637D01*
X6542Y3276D02*
X6542Y3276D01*
X6542Y2735D02*
X6672D01*
X7942Y4122D02*
Y4953D01*
X7844Y4024D02*
X7942Y4122D01*
X7563Y4024D02*
X7844D01*
X6672Y2735D02*
X7846D01*
X7899Y2286D02*
Y2682D01*
X7846Y2735D02*
X7899Y2682D01*
Y699D02*
Y1774D01*
X8348Y2357D02*
Y2357D01*
X8287Y2296D02*
X8348Y2357D01*
X8348D01*
X8240Y2030D02*
X8287Y2077D01*
Y2296D01*
X7131Y2030D02*
X8240D01*
X8163Y3802D02*
Y4153D01*
X8348Y2357D02*
X15652Y2357D01*
X15675Y2379D01*
X7942Y4953D02*
Y5401D01*
X8287Y2418D02*
Y2947D01*
X15675Y2379D02*
X15735D01*
X8387Y2493D02*
Y2988D01*
X8294Y3081D02*
X8387Y2988D01*
X8108Y3081D02*
X8294D01*
X8253Y2981D02*
X8287Y2947D01*
X8066Y2981D02*
X8253D01*
X8063Y3126D02*
X8108Y3081D01*
X8063Y3126D02*
Y3619D01*
X7963Y3085D02*
X8066Y2981D01*
X7963Y3085D02*
Y3663D01*
X8487Y3373D02*
X8590D01*
X8487Y3373D02*
X8487Y3373D01*
X8487Y2593D02*
Y3373D01*
X8063Y3619D02*
X8108Y3664D01*
X9232D01*
X15579Y9098D02*
X15724Y8953D01*
X15579Y9098D02*
Y9285D01*
X15395Y9469D02*
X15579Y9285D01*
X15479Y8475D02*
Y9243D01*
X15379Y8517D02*
Y9202D01*
X15095Y9344D02*
X15279Y9160D01*
Y8567D02*
Y9160D01*
X14995Y9303D02*
X15179Y9119D01*
Y8617D02*
Y9119D01*
X15195Y9386D02*
X15379Y9202D01*
X15295Y9427D02*
X15479Y9243D01*
X16208Y8661D02*
X16390D01*
Y9111D01*
Y9647D02*
Y10079D01*
X16208Y10079D02*
X16390D01*
X16390Y10079D01*
X16463Y9184D02*
Y9574D01*
X16390Y9111D02*
X16463Y9184D01*
X16390Y9647D02*
X16463Y9574D01*
X15395Y9469D02*
Y10708D01*
X15611Y8661D02*
X16208D01*
X15579Y8630D02*
X15611Y8661D01*
X15579Y8434D02*
Y8630D01*
X15194Y8481D02*
X15279Y8567D01*
X15144Y8581D02*
X15179Y8617D01*
X14010Y8581D02*
X15144D01*
X15390Y8244D02*
X15579Y8434D01*
X15290Y8286D02*
X15479Y8475D01*
X15137Y8274D02*
X15379Y8517D01*
X15559Y8272D02*
X15750D01*
X14052Y8481D02*
X15194D01*
X15495Y5795D02*
Y8208D01*
X15559Y8272D01*
X14652Y7303D02*
X15253D01*
X15290Y7340D02*
Y8286D01*
X15253Y7303D02*
X15290Y7340D01*
X15295Y9427D02*
Y10666D01*
X15195Y9386D02*
Y10625D01*
X15095Y9344D02*
Y10583D01*
X14995Y9303D02*
Y10266D01*
X14652Y5723D02*
X15423D01*
X15495Y5795D01*
X14960Y10301D02*
X14995Y10266D01*
X15048Y10631D02*
X15095Y10583D01*
X14684Y10301D02*
X14960D01*
X14652Y6523D02*
X15313D01*
X15390Y6600D02*
Y8244D01*
X15313Y6523D02*
X15390Y6600D01*
X14684Y11207D02*
X14938D01*
X14684Y12116D02*
X14968D01*
X13858Y11207D02*
X14113D01*
X13822Y11171D02*
X13858Y11207D01*
X13822Y10702D02*
Y11171D01*
X13552Y10702D02*
X13822D01*
X14968Y12116D02*
X15007Y12077D01*
Y11747D02*
Y12077D01*
Y11747D02*
X15085Y11669D01*
Y11343D02*
Y11669D01*
Y11343D02*
X15175Y11253D01*
Y10928D02*
Y11253D01*
Y10928D02*
X15395Y10708D01*
X14017Y4943D02*
X14652D01*
X7875Y6433D02*
X8590D01*
Y6523D01*
X7875Y6310D02*
Y6433D01*
X7795Y8093D02*
X8580D01*
X7759Y8128D02*
Y8598D01*
Y8128D02*
X7795Y8093D01*
X7983Y7121D02*
X8580D01*
X7949Y6770D02*
Y7087D01*
X7983Y7121D01*
X7865Y6770D02*
X7949D01*
X9275Y6814D02*
X9312Y6851D01*
Y7373D01*
X10879Y8940D01*
X8108Y6814D02*
X9275D01*
X12995Y10702D02*
Y11368D01*
X12725Y10702D02*
X12995D01*
X13168Y11541D02*
X14113D01*
X13552Y12116D02*
X14113D01*
X13552D02*
Y12119D01*
X12995Y11368D02*
X13168Y11541D01*
X14113D02*
Y11663D01*
X6335Y10090D02*
X6453D01*
X6269Y10024D02*
X6335Y10090D01*
X5794Y10024D02*
X6269D01*
X5759Y10060D02*
X5794Y10024D01*
X5759Y10060D02*
Y10247D01*
X6516Y8897D02*
X6551Y8932D01*
X6516Y8598D02*
Y8897D01*
Y8598D02*
X6854D01*
X8523Y2557D02*
X15245D01*
X8487Y2593D02*
X8523Y2557D01*
X8423Y2457D02*
X15322D01*
X8387Y2493D02*
X8423Y2457D01*
X8287Y2418D02*
X8348Y2357D01*
X4737Y11740D02*
Y12233D01*
X8063Y6577D02*
Y6769D01*
X8108Y6814D01*
X7295Y6541D02*
X8027D01*
X8063Y6577D01*
X8580Y7121D02*
Y7313D01*
X14652Y3373D02*
Y3564D01*
X14164Y3564D02*
X14652D01*
X14652Y3564D01*
X3370Y6669D02*
Y9404D01*
X2548Y3847D02*
X3335D01*
X3370Y3882D02*
Y6597D01*
X3335Y3847D02*
X3370Y3882D01*
X7295Y6541D02*
Y6770D01*
Y6310D02*
Y6541D01*
X4737Y11740D02*
X4761D01*
Y11292D02*
Y11740D01*
X3370Y9474D02*
Y9708D01*
X3467Y9805D02*
X6355D01*
X3370Y9708D02*
X3467Y9805D01*
X3335Y9439D02*
X3370Y9404D01*
X2548Y9439D02*
X3335D01*
X3370Y9474D01*
X3334Y6633D02*
X3370Y6669D01*
X2548Y6633D02*
X3334D01*
X3370Y6597D01*
X14113Y9821D02*
Y10301D01*
Y10744D01*
X15735Y4296D02*
Y4379D01*
Y4279D02*
Y4296D01*
X15103Y3664D02*
X15735Y4296D01*
X14206Y3664D02*
X15103D01*
X14975Y10845D02*
X14982Y10838D01*
X14684Y10631D02*
X15048D01*
X14684D02*
Y10744D01*
Y11663D02*
X14949D01*
X14985Y11627D01*
Y11302D02*
Y11627D01*
X14938Y11207D02*
X14975Y11170D01*
Y10845D02*
Y11170D01*
X15075Y10887D02*
X15295Y10666D01*
X14982Y10838D02*
X15195Y10625D01*
X14985Y11302D02*
X15075Y11211D01*
Y10887D02*
Y11211D01*
X4835Y11292D02*
X5385D01*
X4761D02*
X4835D01*
X5308Y11740D02*
Y12233D01*
X6890Y5916D02*
Y7325D01*
X6860Y5916D02*
X6890D01*
X6860D02*
X6890D01*
X7305D01*
Y5856D02*
Y5916D01*
X9232Y3664D02*
X9270Y3702D01*
Y6486D01*
X9233Y6523D02*
X9270Y6486D01*
X8590Y6523D02*
X9233D01*
X5385Y11251D02*
Y11292D01*
X5045Y12233D02*
X5308D01*
X6355Y9805D02*
X6463Y9696D01*
X7295Y6310D02*
X7295Y6310D01*
X6463Y9219D02*
Y9696D01*
Y9219D02*
X6514Y9169D01*
X8590Y5733D02*
Y5856D01*
X7866D02*
X8590D01*
X7264Y8191D02*
Y8598D01*
X7264Y8598D02*
X7306D01*
X7264Y8598D02*
X7264Y8598D01*
X6514Y9169D02*
X6854D01*
X7306D01*
X7942Y4953D02*
X8590D01*
X7866Y5401D02*
X7942D01*
X8163Y4153D02*
X8590D01*
X7963Y3663D02*
X8064Y3764D01*
X8125D01*
X8163Y3802D01*
X13917Y3811D02*
X14164Y3564D01*
X14017Y3853D02*
Y4943D01*
X13917Y3811D02*
Y8488D01*
X14017Y3853D02*
X14206Y3664D01*
X14652Y8274D02*
X15137D01*
X14652Y8083D02*
Y8274D01*
X16155Y2379D02*
X16675D01*
X15735Y2899D02*
Y3379D01*
X13917Y8488D02*
X14010Y8581D01*
X14017Y8447D02*
X14052Y8481D01*
X14017Y4943D02*
Y8447D01*
D11*
X787Y9490D02*
D03*
X1653Y9864D02*
D03*
Y9116D02*
D03*
D12*
X16208Y8661D02*
D03*
X16779D02*
D03*
Y10079D02*
D03*
X16208D02*
D03*
D13*
X7003Y4600D02*
D03*
X7573D02*
D03*
X4737Y12233D02*
D03*
X5308D02*
D03*
X5693Y11781D02*
D03*
X6264D02*
D03*
X14684Y9821D02*
D03*
X14113D02*
D03*
D14*
X7563Y3276D02*
D03*
Y3650D02*
D03*
Y4024D02*
D03*
X6637D02*
D03*
Y3276D02*
D03*
D15*
X14684Y11663D02*
D03*
X14113D02*
D03*
X14684Y11207D02*
D03*
X14113D02*
D03*
Y12116D02*
D03*
X14684D02*
D03*
X14113Y10754D02*
D03*
X14684D02*
D03*
Y10301D02*
D03*
X14113D02*
D03*
X5308Y11740D02*
D03*
X4737D02*
D03*
X7295Y6770D02*
D03*
X7865D02*
D03*
X7295Y6310D02*
D03*
X7865D02*
D03*
X6264Y12260D02*
D03*
X5693D02*
D03*
X7295Y5856D02*
D03*
X7866D02*
D03*
X7295Y5401D02*
D03*
X7866D02*
D03*
D16*
X4950Y2946D02*
D03*
Y5732D02*
D03*
Y8538D02*
D03*
D17*
X2548Y2044D02*
D03*
Y3847D02*
D03*
Y6633D02*
D03*
Y4830D02*
D03*
Y7636D02*
D03*
Y9439D02*
D03*
D18*
X7899Y2286D02*
D03*
Y1774D02*
D03*
X7132D02*
D03*
X7131Y2030D02*
D03*
X7132Y2286D02*
D03*
D19*
X6672Y2164D02*
D03*
Y2735D02*
D03*
D20*
X6890Y7325D02*
D03*
X7638D02*
D03*
X7264Y8191D02*
D03*
D21*
X6860Y5916D02*
D03*
Y5345D02*
D03*
X4835Y10722D02*
D03*
Y11292D02*
D03*
X7306Y9169D02*
D03*
Y8598D02*
D03*
X6854D02*
D03*
Y9169D02*
D03*
X7759Y8598D02*
D03*
Y9169D02*
D03*
D22*
X3936Y11349D02*
D03*
Y10247D02*
D03*
X10601Y10911D02*
D03*
Y12014D02*
D03*
X2776Y11349D02*
D03*
Y10247D02*
D03*
X11763Y10911D02*
D03*
Y12014D02*
D03*
D23*
X14652Y3373D02*
D03*
Y8083D02*
D03*
X8580Y8883D02*
D03*
X14652Y4153D02*
D03*
Y4943D02*
D03*
Y5723D02*
D03*
Y6523D02*
D03*
Y7303D02*
D03*
Y8873D02*
D03*
X8580Y8093D02*
D03*
Y7313D02*
D03*
X8590Y6523D02*
D03*
Y5733D02*
D03*
Y4953D02*
D03*
Y4153D02*
D03*
Y3373D02*
D03*
D24*
X13591Y9653D02*
D03*
X12811D02*
D03*
X12031D02*
D03*
X11231D02*
D03*
X10451D02*
D03*
X9651D02*
D03*
D25*
X6133Y11251D02*
D03*
X5759D02*
D03*
X5385D02*
D03*
X6133Y10247D02*
D03*
X5759D02*
D03*
X5385D02*
D03*
D26*
X13552Y12119D02*
D03*
X12725D02*
D03*
Y10702D02*
D03*
X13552D02*
D03*
D27*
X7028Y9639D02*
D03*
Y11293D02*
D03*
D28*
X9509Y11265D02*
D03*
X8131D02*
D03*
D29*
X1653Y8933D02*
Y9116D01*
Y9864D01*
Y10153D01*
X1747Y10247D01*
X2776D01*
X3956D02*
X4817D01*
X2776D02*
X3936D01*
D30*
X13782Y3755D02*
Y8873D01*
Y3755D02*
X14089Y3449D01*
X4835Y10722D02*
X5629D01*
X5759Y10852D02*
Y10852D01*
X5629Y10722D02*
X5759Y10852D01*
Y10852D02*
Y11251D01*
X15554Y3924D02*
X16280D01*
X16735Y4379D01*
X15220Y3590D02*
X15554Y3924D01*
X15220Y3117D02*
Y3590D01*
X14089Y3112D02*
Y3449D01*
X14113Y8873D02*
X14113Y8873D01*
Y9821D01*
X14089Y3112D02*
X14155Y3046D01*
X15149D01*
X15220Y3117D01*
D31*
X13782Y8873D02*
X14113D01*
X11763D02*
X13782D01*
X14137D02*
X14652D01*
D32*
X12542Y12079D02*
X12725D01*
Y12119D01*
X11763Y11148D02*
X12195D01*
X12470Y11423D02*
Y12079D01*
X12195Y11148D02*
X12470Y11423D01*
X12542Y12233D02*
Y12243D01*
Y12079D02*
Y12233D01*
X12470Y12079D02*
X12542D01*
X11763Y10891D02*
Y11148D01*
D33*
X6264Y12260D02*
X6645D01*
X6133Y11251D02*
X6191D01*
Y11781D02*
X6264D01*
X6191Y11251D02*
Y11781D01*
X6687Y11293D02*
Y12217D01*
X6645Y12260D02*
X6687Y12217D01*
X5693Y11781D02*
Y12260D01*
X6687Y11293D02*
X7028D01*
D34*
X4817Y10247D02*
X5385D01*
X5759D01*
D35*
X16139Y9370D02*
D03*
X16848D02*
D03*
D36*
X5759Y10852D02*
D03*
D37*
X15735Y4379D02*
D03*
Y3379D02*
D03*
Y2379D02*
D03*
X16735D02*
D03*
Y4379D02*
D03*
D38*
Y3379D02*
D03*
D39*
X3926Y749D02*
D03*
D40*
X2779D02*
D03*
D41*
X915Y7697D02*
D03*
Y5295D02*
D03*
X16407Y7697D02*
D03*
Y5295D02*
D03*
D42*
X16142Y11417D02*
D03*
Y1181D02*
D03*
X1181D02*
D03*
Y11417D02*
D03*
D43*
X7899Y699D02*
D03*
X7107D02*
D03*
D44*
X6219D02*
D03*
X5199Y709D02*
D03*
D45*
X7295Y5071D02*
D03*
X929Y9130D02*
D03*
X7568Y4945D02*
D03*
X7430Y2290D02*
D03*
Y1770D02*
D03*
X7257Y3650D02*
D03*
X6672Y1870D02*
D03*
X6860Y5060D02*
D03*
X7744Y10039D02*
D03*
X7138D02*
D03*
X6836D02*
D03*
X3931Y10855D02*
D03*
X2390D02*
D03*
X3160D02*
D03*
X4316D02*
D03*
X3546D02*
D03*
X2775D02*
D03*
X640Y9130D02*
D03*
X7441Y10039D02*
D03*
X7744Y9469D02*
D03*
Y9754D02*
D03*
X8907Y9609D02*
D03*
X8268Y9319D02*
D03*
X8587Y9609D02*
D03*
Y9321D02*
D03*
X8907D02*
D03*
X2969Y7988D02*
D03*
Y7289D02*
D03*
Y5172D02*
D03*
Y4486D02*
D03*
X6034Y1512D02*
D03*
X6396D02*
D03*
X5673D02*
D03*
X5312D02*
D03*
X6570Y1289D02*
D03*
X8268Y9609D02*
D03*
X14414Y9449D02*
D03*
X12143Y11550D02*
D03*
X14739Y9449D02*
D03*
X5127Y1289D02*
D03*
X11833Y11550D02*
D03*
X11522D02*
D03*
X7352Y7325D02*
D03*
X11196Y11550D02*
D03*
X10869D02*
D03*
X2053Y7289D02*
D03*
X2359D02*
D03*
X2664D02*
D03*
X2053Y5172D02*
D03*
X2359D02*
D03*
X2664D02*
D03*
X5488Y1289D02*
D03*
X6210D02*
D03*
X2969Y1701D02*
D03*
X2664D02*
D03*
X2359D02*
D03*
X2053Y2439D02*
D03*
X2359D02*
D03*
X2664D02*
D03*
X2969D02*
D03*
X2664Y4486D02*
D03*
X2359D02*
D03*
X2053D02*
D03*
X2359Y1369D02*
D03*
X2664D02*
D03*
X2969D02*
D03*
X10216Y11550D02*
D03*
X10542D02*
D03*
X5849Y1289D02*
D03*
X2664Y7988D02*
D03*
X2359D02*
D03*
X2053D02*
D03*
D46*
X15724Y8953D02*
D03*
X15750Y8272D02*
D03*
X12542Y12233D02*
D03*
X6453Y10090D02*
D03*
X6551Y8932D02*
D03*
X5045Y12233D02*
D03*
%TF.MD5,c4df2f589547220b663a854f7830debf*%
M02*
