G04 Layer_Color=16777215*
%FSAX44Y44*%
%MOMM*%
G71*
G01*
G75*
%ADD22C,0.1270*%
%ADD24C,0.1524*%
%ADD25C,0.2032*%
%ADD34C,0.5000*%
%ADD35C,0.2500*%
%ADD36C,0.1016*%
%ADD37C,0.2000*%
D22*
X10457190Y10734771D02*
X10464810D01*
X10457190Y10732230D02*
X10464810D01*
X10850626Y10646876D02*
Y10741619D01*
X10782456Y10690376D02*
X10790076D01*
X10782456Y10692916D02*
X10790076D01*
X10818496Y10769413D02*
Y10777032D01*
X10821035Y10769413D02*
Y10777032D01*
X10750703Y10667794D02*
Y10675414D01*
X10753243Y10667794D02*
Y10675414D01*
X10772339Y10813638D02*
X10779958D01*
X10772339Y10816178D02*
X10779958D01*
X10807700Y10588202D02*
X10850626D01*
X10807700D02*
Y10646876D01*
X10850626D01*
X10807700D02*
Y10741619D01*
X10850626D01*
Y10588202D02*
Y10646876D01*
X10543075Y10800439D02*
X10723414D01*
Y10604860D02*
Y10800439D01*
X10543075Y10604860D02*
Y10800439D01*
Y10604860D02*
X10723414D01*
D24*
X10734224Y10770293D02*
X10801223D01*
X10734224Y10739292D02*
X10801223D01*
Y10770293D01*
X10734224Y10739292D02*
Y10770293D01*
X10823729Y10746818D02*
Y10761042D01*
X10828302Y10746818D02*
Y10761042D01*
X10819158Y10753929D02*
X10823729D01*
X10828302D02*
X10832874D01*
X10751365Y10699750D02*
X10755938D01*
X10760509D02*
X10765081D01*
X10755938Y10692638D02*
Y10706862D01*
X10760509Y10692638D02*
Y10706862D01*
D25*
X10481310Y10612516D02*
X10498835Y10605658D01*
X10461244Y10575658D02*
Y10635658D01*
X10512732Y10580511D02*
Y10629534D01*
X10468732Y10580511D02*
Y10629534D01*
X10498835Y10605658D02*
X10512732D01*
X10468732D02*
X10481310D01*
X10787141Y10605658D02*
X10799719D01*
X10755719D02*
X10769615D01*
X10799719Y10581781D02*
Y10630803D01*
X10755719Y10581781D02*
Y10630803D01*
X10807207Y10575658D02*
Y10635658D01*
X10769615Y10605658D02*
X10787141Y10598799D01*
D34*
X10479895Y10675966D02*
G03*
X10479895Y10675966I-00001000J00000000D01*
G01*
D35*
X10802473Y10784043D02*
G03*
X10802473Y10784043I-00001250J00000000D01*
G01*
X10797000Y10834086D02*
G03*
X10797000Y10834086I-00001250J00000000D01*
G01*
X10750808Y10831160D02*
G03*
X10750809Y10831230I-00001248J00000070D01*
G01*
D36*
X10449974Y10819000D02*
G03*
X10449974Y10819000I-00024975J00000000D01*
G01*
Y10569000D02*
G03*
X10449974Y10569000I-00024975J00000000D01*
G01*
X10899949D02*
G03*
X10899949Y10569000I-00024975J00000000D01*
G01*
Y10819000D02*
G03*
X10899949Y10819000I-00024975J00000000D01*
G01*
X10473337Y10680000D02*
X10508337D01*
X10473337Y10708000D02*
X10508337D01*
X10473561Y10692476D02*
Y10695524D01*
X10508359Y10692476D02*
Y10695524D01*
X10461000Y10734771D02*
Y10736294D01*
Y10730706D02*
Y10732230D01*
X10786266Y10688853D02*
Y10690376D01*
Y10692916D02*
Y10694441D01*
X10816971Y10773223D02*
X10818496D01*
X10821035D02*
X10822560D01*
X10749178Y10671604D02*
X10750703D01*
X10753243D02*
X10754767D01*
X10776149Y10812114D02*
Y10813638D01*
Y10816178D02*
Y10817703D01*
X10774562Y10672062D02*
X10775483Y10674136D01*
X10776754Y10670326D01*
X10778024Y10674136D01*
X10779293Y10670326D01*
X10780310Y10672104D01*
X10510206Y10759800D02*
X10511222Y10761578D01*
X10512491Y10757769D01*
X10513762Y10761578D01*
X10515032Y10757769D01*
X10515953Y10759841D01*
X10515032Y10745068D02*
X10515953Y10747142D01*
X10513762Y10748878D02*
X10515032Y10745068D01*
X10512491D02*
X10513762Y10748878D01*
X10511222D02*
X10512491Y10745068D01*
X10510206Y10747100D02*
X10511222Y10748878D01*
X10510206Y10734399D02*
X10511222Y10736178D01*
X10512491Y10732368D01*
X10513762Y10736178D01*
X10515032Y10732368D01*
X10515953Y10734442D01*
X10803750Y10831335D02*
X10813750D01*
Y10822593D02*
Y10831335D01*
X10803750Y10801335D02*
X10813750D01*
Y10810077D01*
X10750856Y10810000D02*
X10756855D01*
Y10831390D01*
X10750856Y10828390D02*
X10753856Y10831390D01*
X10756855D01*
X10750856Y10828390D02*
X10750856Y10810000D01*
X10591941Y10837644D02*
Y10831550D01*
X10593972Y10833582D01*
X10596003Y10831550D01*
Y10837644D01*
X10598035Y10831550D02*
X10600066D01*
X10599050D01*
Y10835613D01*
X10598035D01*
X10607177Y10837644D02*
X10603113D01*
Y10834597D01*
X10605145D01*
X10603113D01*
Y10831550D01*
X10609208D02*
X10611239D01*
X10610223D01*
Y10835613D01*
X10609208D01*
X10624442Y10836628D02*
X10623427Y10837644D01*
X10621395D01*
X10620380Y10836628D01*
Y10832566D01*
X10621395Y10831550D01*
X10623427D01*
X10624442Y10832566D01*
X10626473Y10837644D02*
Y10831550D01*
Y10834597D01*
X10627489Y10835613D01*
X10629520D01*
X10630536Y10834597D01*
Y10831550D01*
X10632568Y10835613D02*
Y10831550D01*
Y10833582D01*
X10633584Y10834597D01*
X10634600Y10835613D01*
X10635615D01*
X10638662Y10831550D02*
X10640693D01*
X10639678D01*
Y10835613D01*
X10638662D01*
X10643740Y10831550D02*
X10646787D01*
X10647803Y10832566D01*
X10646787Y10833582D01*
X10644756D01*
X10643740Y10834597D01*
X10644756Y10835613D01*
X10647803D01*
X10650850Y10836628D02*
Y10835613D01*
X10649834D01*
X10651865D01*
X10650850D01*
Y10832566D01*
X10651865Y10831550D01*
X10654912D02*
Y10835613D01*
X10655928D01*
X10656943Y10834597D01*
Y10831550D01*
Y10834597D01*
X10657959Y10835613D01*
X10658975Y10834597D01*
Y10831550D01*
X10662023Y10835613D02*
X10664054D01*
X10665070Y10834597D01*
Y10831550D01*
X10662023D01*
X10661007Y10832566D01*
X10662023Y10833582D01*
X10665070D01*
X10667101Y10831550D02*
X10670148D01*
X10671163Y10832566D01*
X10670148Y10833582D01*
X10668116D01*
X10667101Y10834597D01*
X10668116Y10835613D01*
X10671163D01*
X10600066Y10827893D02*
X10604128D01*
X10602097D01*
Y10821798D01*
X10606161Y10825861D02*
Y10821798D01*
Y10823829D01*
X10607177Y10824846D01*
X10608192Y10825861D01*
X10609208D01*
X10615302Y10821798D02*
X10613270D01*
X10612255Y10822814D01*
Y10824846D01*
X10613270Y10825861D01*
X10615302D01*
X10616317Y10824846D01*
Y10823829D01*
X10612255D01*
X10621395Y10821798D02*
X10619364D01*
X10618348Y10822814D01*
Y10824846D01*
X10619364Y10825861D01*
X10621395D01*
X10622411Y10824846D01*
Y10823829D01*
X10618348D01*
X10630536Y10827893D02*
Y10821798D01*
X10634600D01*
X10636631D02*
X10638662D01*
X10637646D01*
Y10825861D01*
X10636631D01*
X10643740Y10819767D02*
X10644756D01*
X10645771Y10820782D01*
Y10825861D01*
X10642725D01*
X10641709Y10824846D01*
Y10822814D01*
X10642725Y10821798D01*
X10645771D01*
X10647803Y10827893D02*
Y10821798D01*
Y10824846D01*
X10648818Y10825861D01*
X10650850D01*
X10651865Y10824846D01*
Y10821798D01*
X10654912Y10826877D02*
Y10825861D01*
X10653896D01*
X10655928D01*
X10654912D01*
Y10822814D01*
X10655928Y10821798D01*
X10658975D02*
X10662023D01*
X10663038Y10822814D01*
X10662023Y10823829D01*
X10659991D01*
X10658975Y10824846D01*
X10659991Y10825861D01*
X10663038D01*
X10593972Y10815094D02*
X10592957Y10816110D01*
X10590925D01*
X10589910Y10815094D01*
Y10811031D01*
X10590925Y10810016D01*
X10592957D01*
X10593972Y10811031D01*
X10597019Y10810016D02*
X10599050D01*
X10600066Y10811031D01*
Y10813063D01*
X10599050Y10814078D01*
X10597019D01*
X10596003Y10813063D01*
Y10811031D01*
X10597019Y10810016D01*
X10602097D02*
Y10814078D01*
X10605145D01*
X10606161Y10813063D01*
Y10810016D01*
X10609208Y10815094D02*
Y10814078D01*
X10608192D01*
X10610223D01*
X10609208D01*
Y10811031D01*
X10610223Y10810016D01*
X10613270Y10814078D02*
Y10810016D01*
Y10812047D01*
X10614286Y10813063D01*
X10615302Y10814078D01*
X10616317D01*
X10620380Y10810016D02*
X10622411D01*
X10623427Y10811031D01*
Y10813063D01*
X10622411Y10814078D01*
X10620380D01*
X10619364Y10813063D01*
Y10811031D01*
X10620380Y10810016D01*
X10625458D02*
X10627489D01*
X10626473D01*
Y10816110D01*
X10625458D01*
X10630536Y10810016D02*
X10632568D01*
X10631552D01*
Y10816110D01*
X10630536D01*
X10638662Y10810016D02*
X10636631D01*
X10635615Y10811031D01*
Y10813063D01*
X10636631Y10814078D01*
X10638662D01*
X10639678Y10813063D01*
Y10812047D01*
X10635615D01*
X10641709Y10814078D02*
Y10810016D01*
Y10812047D01*
X10642725Y10813063D01*
X10643740Y10814078D01*
X10644756D01*
X10653896D02*
X10655928Y10810016D01*
X10657959Y10814078D01*
X10659991Y10815094D02*
X10661007Y10816110D01*
X10663038D01*
X10664054Y10815094D01*
Y10811031D01*
X10663038Y10810016D01*
X10661007D01*
X10659991Y10811031D01*
Y10815094D01*
X10666085Y10810016D02*
Y10811031D01*
X10667101D01*
Y10810016D01*
X10666085D01*
X10671163D02*
X10673195D01*
X10672179D01*
Y10816110D01*
X10671163Y10815094D01*
X10852656Y10679047D02*
Y10677015D01*
X10853672Y10676000D01*
X10857734D01*
X10858750Y10677015D01*
Y10679047D01*
X10857734Y10680062D01*
X10853672D01*
X10852656Y10679047D01*
Y10682094D02*
X10857734D01*
X10858750Y10683109D01*
Y10685142D01*
X10857734Y10686157D01*
X10852656D01*
Y10688188D02*
Y10692251D01*
Y10690220D01*
X10858750D01*
Y10694282D02*
X10852656D01*
Y10697329D01*
X10853672Y10698345D01*
X10855703D01*
X10856719Y10697329D01*
Y10694282D01*
X10852656Y10700376D02*
X10857734D01*
X10858750Y10701392D01*
Y10703423D01*
X10857734Y10704438D01*
X10852656D01*
Y10706470D02*
Y10710532D01*
Y10708501D01*
X10858750D01*
X10449019Y10733136D02*
X10448171Y10732289D01*
Y10730597D01*
X10449019Y10729750D01*
X10452404D01*
X10453250Y10730597D01*
Y10732289D01*
X10452404Y10733136D01*
X10448171Y10734828D02*
Y10738214D01*
X10449019D01*
X10452404Y10734828D01*
X10453250D01*
X10858242Y10611750D02*
X10853164D01*
Y10614290D01*
X10854010Y10615135D01*
X10855703D01*
X10856549Y10614290D01*
Y10611750D01*
X10853164Y10616829D02*
X10858242D01*
X10856549Y10618521D01*
X10858242Y10620214D01*
X10853164D01*
X10858242Y10621907D02*
X10853164D01*
Y10624446D01*
X10854010Y10625292D01*
X10855703D01*
X10856549Y10624446D01*
Y10621907D01*
Y10623600D02*
X10858242Y10625292D01*
X10775312Y10834329D02*
X10774297Y10835344D01*
X10772266D01*
X10771250Y10834329D01*
Y10830266D01*
X10772266Y10829250D01*
X10774297D01*
X10775312Y10830266D01*
X10781406Y10829250D02*
X10777344D01*
X10781406Y10833313D01*
Y10834329D01*
X10780391Y10835344D01*
X10778359D01*
X10777344Y10834329D01*
X10824156Y10805250D02*
X10830250D01*
Y10809313D01*
X10824156Y10811344D02*
X10830250D01*
Y10814391D01*
X10829235Y10815406D01*
X10825172D01*
X10824156Y10814391D01*
Y10811344D01*
Y10820485D02*
Y10818453D01*
X10825172Y10817438D01*
X10829235D01*
X10830250Y10818453D01*
Y10820485D01*
X10829235Y10821500D01*
X10825172D01*
X10824156Y10820485D01*
X10830250Y10827595D02*
Y10823531D01*
X10826188Y10827595D01*
X10825172D01*
X10824156Y10826580D01*
Y10824547D01*
X10825172Y10823531D01*
X10499500Y10729750D02*
X10493406D01*
Y10732797D01*
X10494421Y10733812D01*
X10496453D01*
X10497468Y10732797D01*
Y10729750D01*
Y10731781D02*
X10499500Y10733812D01*
Y10738892D02*
X10493406D01*
X10496453Y10735844D01*
Y10739907D01*
X10499500Y10742100D02*
X10493406D01*
Y10745146D01*
X10494421Y10746162D01*
X10496453D01*
X10497468Y10745146D01*
Y10742100D01*
Y10744131D02*
X10499500Y10746162D01*
Y10752257D02*
Y10748195D01*
X10495437Y10752257D01*
X10494421D01*
X10493406Y10751241D01*
Y10749210D01*
X10494421Y10748195D01*
X10480750Y10717094D02*
Y10711000D01*
X10484813D01*
X10490907Y10717094D02*
X10486844D01*
Y10711000D01*
X10490907D01*
X10486844Y10714047D02*
X10488876D01*
X10492938Y10717094D02*
Y10711000D01*
X10495985D01*
X10497001Y10712015D01*
Y10716078D01*
X10495985Y10717094D01*
X10492938D01*
X10499032Y10711000D02*
X10501063D01*
X10500048D01*
Y10717094D01*
X10499032Y10716078D01*
X10499500Y10754965D02*
X10493406D01*
Y10758011D01*
X10494421Y10759027D01*
X10496453D01*
X10497468Y10758011D01*
Y10754965D01*
Y10756996D02*
X10499500Y10759027D01*
X10494421Y10761060D02*
X10493406Y10762075D01*
Y10764106D01*
X10494421Y10765122D01*
X10495437D01*
X10496453Y10764106D01*
Y10763091D01*
Y10764106D01*
X10497468Y10765122D01*
X10498484D01*
X10499500Y10764106D01*
Y10762075D01*
X10498484Y10761060D01*
X10733922Y10670563D02*
X10732906Y10669547D01*
Y10667516D01*
X10733922Y10666500D01*
X10737985D01*
X10739000Y10667516D01*
Y10669547D01*
X10737985Y10670563D01*
X10739000Y10675641D02*
X10732906D01*
X10735953Y10672594D01*
Y10676656D01*
X10833922Y10772562D02*
X10832906Y10771547D01*
Y10769515D01*
X10833922Y10768500D01*
X10837985D01*
X10839000Y10769515D01*
Y10771547D01*
X10837985Y10772562D01*
X10833922Y10774594D02*
X10832906Y10775609D01*
Y10777642D01*
X10833922Y10778657D01*
X10834938D01*
X10835953Y10777642D01*
Y10776626D01*
Y10777642D01*
X10836969Y10778657D01*
X10837985D01*
X10839000Y10777642D01*
Y10775609D01*
X10837985Y10774594D01*
X10740900Y10716737D02*
X10746993D01*
Y10720800D01*
X10740900Y10722831D02*
X10746993D01*
Y10725878D01*
X10745978Y10726893D01*
X10741915D01*
X10740900Y10725878D01*
Y10722831D01*
Y10731971D02*
Y10729940D01*
X10741915Y10728925D01*
X10745978D01*
X10746993Y10729940D01*
Y10731971D01*
X10745978Y10732987D01*
X10741915D01*
X10740900Y10731971D01*
X10746993Y10735018D02*
Y10737050D01*
Y10736034D01*
X10740900D01*
X10741915Y10735018D01*
X10543812Y10809844D02*
X10539750D01*
Y10803750D01*
X10543812D01*
X10539750Y10806797D02*
X10541781D01*
X10549907Y10808828D02*
X10548892Y10809844D01*
X10546859D01*
X10545844Y10808828D01*
Y10807812D01*
X10546859Y10806797D01*
X10548892D01*
X10549907Y10805781D01*
Y10804766D01*
X10548892Y10803750D01*
X10546859D01*
X10545844Y10804766D01*
X10551938Y10803750D02*
Y10809844D01*
X10554985D01*
X10556001Y10808828D01*
Y10806797D01*
X10554985Y10805781D01*
X10551938D01*
X10558032Y10808828D02*
X10559048Y10809844D01*
X10561079D01*
X10562095Y10808828D01*
Y10807812D01*
X10561079Y10806797D01*
X10560063D01*
X10561079D01*
X10562095Y10805781D01*
Y10804766D01*
X10561079Y10803750D01*
X10559048D01*
X10558032Y10804766D01*
X10568188Y10803750D02*
X10564126D01*
X10568188Y10807812D01*
Y10808828D01*
X10567173Y10809844D01*
X10565142D01*
X10564126Y10808828D01*
X10732512Y10700275D02*
X10731497Y10699259D01*
Y10697228D01*
X10732512Y10696212D01*
X10736576D01*
X10737592Y10697228D01*
Y10699259D01*
X10736576Y10700275D01*
X10737592Y10702306D02*
Y10704338D01*
Y10703323D01*
X10731497D01*
X10732512Y10702306D01*
X10847422Y10753812D02*
X10846406Y10752797D01*
Y10750765D01*
X10847422Y10749750D01*
X10851484D01*
X10852500Y10750765D01*
Y10752797D01*
X10851484Y10753812D01*
X10846406Y10759907D02*
Y10755844D01*
X10849453D01*
X10848438Y10757876D01*
Y10758892D01*
X10849453Y10759907D01*
X10851484D01*
X10852500Y10758892D01*
Y10756860D01*
X10851484Y10755844D01*
X10763500Y10641750D02*
Y10647844D01*
X10766547D01*
X10767562Y10646829D01*
Y10644797D01*
X10766547Y10643782D01*
X10763500D01*
X10765531D02*
X10767562Y10641750D01*
X10773657Y10647844D02*
X10769594D01*
Y10641750D01*
X10773657D01*
X10769594Y10644797D02*
X10771626D01*
X10779751Y10646829D02*
X10778735Y10647844D01*
X10776704D01*
X10775688Y10646829D01*
Y10645813D01*
X10776704Y10644797D01*
X10778735D01*
X10779751Y10643782D01*
Y10642766D01*
X10778735Y10641750D01*
X10776704D01*
X10775688Y10642766D01*
X10785845Y10647844D02*
X10781782D01*
Y10641750D01*
X10785845D01*
X10781782Y10644797D02*
X10783813D01*
X10787876Y10647844D02*
X10791938D01*
X10789907D01*
Y10641750D01*
X10750000Y10807844D02*
Y10802766D01*
X10751016Y10801750D01*
X10753047D01*
X10754062Y10802766D01*
Y10807844D01*
X10756094Y10801750D02*
X10758125D01*
X10757109D01*
Y10807844D01*
X10756094Y10806829D01*
X10484696Y10646804D02*
X10481310D01*
Y10644265D01*
X10483003D01*
X10481310D01*
Y10641726D01*
X10486388Y10646804D02*
Y10642572D01*
X10487235Y10641726D01*
X10488927D01*
X10489774Y10642572D01*
Y10646804D01*
X10491467Y10641726D02*
Y10646804D01*
X10494852Y10641726D01*
Y10646804D01*
X10499930Y10645957D02*
X10499084Y10646804D01*
X10497391D01*
X10496545Y10645957D01*
Y10642572D01*
X10497391Y10641726D01*
X10499084D01*
X10499930Y10642572D01*
X10795250Y10667750D02*
X10790172D01*
Y10670289D01*
X10791018Y10671135D01*
X10792711D01*
X10793557Y10670289D01*
Y10667750D01*
Y10669443D02*
X10795250Y10671135D01*
X10790172Y10676213D02*
Y10672828D01*
X10792711D01*
X10791864Y10674521D01*
Y10675367D01*
X10792711Y10676213D01*
X10794403D01*
X10795250Y10675367D01*
Y10673674D01*
X10794403Y10672828D01*
X10785636Y10708574D02*
X10784789Y10709420D01*
X10783097D01*
X10782250Y10708574D01*
Y10705188D01*
X10783097Y10704342D01*
X10784789D01*
X10785636Y10705188D01*
X10790714Y10709420D02*
X10789021Y10708574D01*
X10787328Y10706881D01*
Y10705188D01*
X10788175Y10704342D01*
X10789867D01*
X10790714Y10705188D01*
Y10706035D01*
X10789867Y10706881D01*
X10787328D01*
X10812268Y10597635D02*
X10811422Y10596790D01*
Y10595096D01*
X10812268Y10594250D01*
X10815653D01*
X10816500Y10595096D01*
Y10596790D01*
X10815653Y10597635D01*
X10813961D01*
Y10595942D01*
X10816500Y10599329D02*
X10811422D01*
X10816500Y10602714D01*
X10811422D01*
Y10604407D02*
X10816500D01*
Y10606946D01*
X10815653Y10607792D01*
X10812268D01*
X10811422Y10606946D01*
Y10604407D01*
X10816000Y10632385D02*
Y10629000D01*
X10812615Y10632385D01*
X10811768D01*
X10810922Y10631539D01*
Y10629846D01*
X10811768Y10629000D01*
X10816000Y10636617D02*
X10810922D01*
X10813461Y10634078D01*
Y10637463D01*
X10812615Y10639156D02*
X10816000Y10640850D01*
X10812615Y10642543D01*
X10816000Y10652886D02*
Y10649500D01*
X10812615Y10652886D01*
X10811768D01*
X10810922Y10652040D01*
Y10650347D01*
X10811768Y10649500D01*
X10816000Y10657118D02*
X10810922D01*
X10813461Y10654579D01*
Y10657964D01*
X10812615Y10659657D02*
X10816000Y10661350D01*
X10812615Y10663042D01*
X10811838Y10676444D02*
X10810991Y10675597D01*
Y10673904D01*
X10811838Y10673058D01*
X10815223D01*
X10816071Y10673904D01*
Y10675597D01*
X10815223Y10676444D01*
X10813530D01*
Y10674751D01*
X10816071Y10678136D02*
X10810991D01*
X10816071Y10681522D01*
X10810991D01*
Y10683214D02*
X10816071D01*
Y10685754D01*
X10815223Y10686600D01*
X10811838D01*
X10810991Y10685754D01*
Y10683214D01*
X10810569Y10727029D02*
Y10723644D01*
X10813108D01*
X10812261Y10725336D01*
Y10726183D01*
X10813108Y10727029D01*
X10814800D01*
X10815647Y10726183D01*
Y10724490D01*
X10814800Y10723644D01*
X10812261Y10728722D02*
X10815647Y10730414D01*
X10812261Y10732107D01*
X10814800Y10733800D02*
X10815647Y10734646D01*
Y10736339D01*
X10814800Y10737185D01*
X10811415D01*
X10810569Y10736339D01*
Y10734646D01*
X10811415Y10733800D01*
X10812261D01*
X10813108Y10734646D01*
Y10737185D01*
X10810823Y10695574D02*
X10815901D01*
Y10698113D01*
X10815054Y10698960D01*
X10811669D01*
X10810823Y10698113D01*
Y10695574D01*
X10815901Y10700653D02*
X10812515D01*
X10810823Y10702345D01*
X10812515Y10704038D01*
X10815901D01*
X10813362D01*
Y10700653D01*
X10810823Y10705731D02*
Y10709116D01*
Y10707423D01*
X10815901D01*
Y10710809D02*
X10812515D01*
X10810823Y10712502D01*
X10812515Y10714194D01*
X10815901D01*
X10813362D01*
Y10710809D01*
D37*
X10520934Y10575658D02*
Y10635658D01*
X10461244D02*
X10520934D01*
X10461244Y10575658D02*
X10520934D01*
X10747517Y10635658D02*
X10807207D01*
X10747517Y10575658D02*
X10807207D01*
X10747517D02*
Y10635658D01*
M02*
