G04 Layer_Color=65535*
%FSAX44Y44*%
%MOMM*%
G71*
G01*
G75*
%ADD24C,0.1524*%
%ADD36C,0.1016*%
G36*
X10501122Y10764104D02*
X10498701D01*
Y10756646D01*
X10497002D01*
Y10764104D01*
X10494581D01*
Y10765487D01*
X10501122D01*
Y10764104D01*
D02*
G37*
G36*
X10519543Y10761187D02*
X10522250Y10756646D01*
X10520236D01*
X10518567Y10759894D01*
X10516868Y10756646D01*
X10514747D01*
X10517529Y10761232D01*
X10515017Y10765487D01*
X10516987D01*
X10518522Y10762421D01*
X10520115Y10765487D01*
X10522070D01*
X10519543Y10761187D01*
D02*
G37*
G36*
X10476992Y10756899D02*
X10475323D01*
Y10760569D01*
X10475007D01*
X10474857Y10760554D01*
X10474706Y10760538D01*
X10474586Y10760509D01*
X10474481Y10760464D01*
X10474391Y10760419D01*
X10474331Y10760388D01*
X10474286Y10760374D01*
X10474270Y10760359D01*
X10474165Y10760269D01*
X10474060Y10760178D01*
X10473910Y10759967D01*
X10473865Y10759877D01*
X10473820Y10759802D01*
X10473789Y10759757D01*
Y10759742D01*
X10472542Y10756899D01*
X10470586D01*
X10472000Y10759862D01*
X10472104Y10760057D01*
X10472195Y10760238D01*
X10472285Y10760388D01*
X10472375Y10760509D01*
X10472435Y10760614D01*
X10472496Y10760674D01*
X10472526Y10760719D01*
X10472542Y10760735D01*
X10472646Y10760840D01*
X10472751Y10760914D01*
X10472856Y10760975D01*
X10472947Y10761035D01*
X10473022Y10761066D01*
X10473082Y10761080D01*
X10473127Y10761095D01*
X10473142D01*
X10472842Y10761171D01*
X10472706Y10761200D01*
X10472587Y10761245D01*
X10472496Y10761276D01*
X10472421Y10761306D01*
X10472375Y10761335D01*
X10472361D01*
X10472104Y10761471D01*
X10472000Y10761547D01*
X10471909Y10761621D01*
X10471849Y10761682D01*
X10471790Y10761727D01*
X10471759Y10761757D01*
X10471744Y10761772D01*
X10471578Y10761997D01*
X10471459Y10762208D01*
X10471414Y10762299D01*
X10471383Y10762373D01*
X10471354Y10762418D01*
Y10762434D01*
X10471263Y10762720D01*
X10471233Y10762870D01*
X10471218Y10763005D01*
X10471202Y10763125D01*
Y10763215D01*
Y10763275D01*
Y10763291D01*
X10471218Y10763531D01*
X10471233Y10763757D01*
X10471278Y10763953D01*
X10471323Y10764117D01*
X10471368Y10764253D01*
X10471398Y10764343D01*
X10471428Y10764419D01*
X10471443Y10764434D01*
X10471533Y10764598D01*
X10471639Y10764750D01*
X10471744Y10764869D01*
X10471849Y10764990D01*
X10471940Y10765065D01*
X10472015Y10765140D01*
X10472075Y10765170D01*
X10472090Y10765186D01*
X10472256Y10765291D01*
X10472421Y10765381D01*
X10472587Y10765455D01*
X10472751Y10765516D01*
X10472887Y10765546D01*
X10472992Y10765576D01*
X10473068Y10765607D01*
X10473097D01*
X10473563Y10765681D01*
X10473774Y10765712D01*
X10473984Y10765726D01*
X10474165Y10765742D01*
X10476992D01*
Y10756899D01*
D02*
G37*
G36*
X10456809Y10825226D02*
X10454930D01*
Y10829353D01*
X10454575D01*
X10454407Y10829337D01*
X10454237Y10829320D01*
X10454102Y10829286D01*
X10453983Y10829235D01*
X10453882Y10829185D01*
X10453815Y10829150D01*
X10453763Y10829133D01*
X10453746Y10829116D01*
X10453628Y10829015D01*
X10453510Y10828914D01*
X10453341Y10828677D01*
X10453290Y10828575D01*
X10453240Y10828491D01*
X10453206Y10828440D01*
Y10828423D01*
X10451802Y10825226D01*
X10449602D01*
X10451193Y10828558D01*
X10451311Y10828778D01*
X10451412Y10828982D01*
X10451514Y10829150D01*
X10451615Y10829286D01*
X10451683Y10829404D01*
X10451750Y10829471D01*
X10451785Y10829523D01*
X10451802Y10829540D01*
X10451920Y10829658D01*
X10452039Y10829742D01*
X10452157Y10829811D01*
X10452258Y10829878D01*
X10452343Y10829912D01*
X10452411Y10829929D01*
X10452461Y10829946D01*
X10452478D01*
X10452140Y10830031D01*
X10451987Y10830065D01*
X10451852Y10830115D01*
X10451750Y10830149D01*
X10451666Y10830183D01*
X10451615Y10830216D01*
X10451598D01*
X10451311Y10830369D01*
X10451193Y10830453D01*
X10451091Y10830537D01*
X10451023Y10830605D01*
X10450956Y10830657D01*
X10450922Y10830690D01*
X10450905Y10830707D01*
X10450719Y10830961D01*
X10450583Y10831198D01*
X10450532Y10831299D01*
X10450499Y10831383D01*
X10450465Y10831434D01*
Y10831451D01*
X10450364Y10831772D01*
X10450330Y10831942D01*
X10450312Y10832094D01*
X10450295Y10832229D01*
Y10832330D01*
Y10832399D01*
Y10832416D01*
X10450312Y10832686D01*
X10450330Y10832939D01*
X10450381Y10833160D01*
X10450431Y10833346D01*
X10450482Y10833499D01*
X10450515Y10833600D01*
X10450549Y10833684D01*
X10450566Y10833701D01*
X10450668Y10833887D01*
X10450786Y10834056D01*
X10450905Y10834192D01*
X10451023Y10834327D01*
X10451124Y10834412D01*
X10451210Y10834496D01*
X10451277Y10834530D01*
X10451294Y10834547D01*
X10451479Y10834666D01*
X10451666Y10834767D01*
X10451852Y10834851D01*
X10452039Y10834919D01*
X10452190Y10834952D01*
X10452308Y10834987D01*
X10452394Y10835021D01*
X10452427D01*
X10452952Y10835105D01*
X10453188Y10835139D01*
X10453425Y10835156D01*
X10453628Y10835173D01*
X10456809D01*
Y10825226D01*
D02*
G37*
G36*
X10522360Y10835325D02*
X10522664Y10835292D01*
X10522935Y10835240D01*
X10523171Y10835189D01*
X10523358Y10835139D01*
X10523510Y10835088D01*
X10523612Y10835055D01*
X10523628Y10835038D01*
X10523645D01*
X10523916Y10834902D01*
X10524170Y10834767D01*
X10524390Y10834597D01*
X10524575Y10834446D01*
X10524728Y10834310D01*
X10524846Y10834192D01*
X10524915Y10834124D01*
X10524948Y10834091D01*
X10525134Y10833837D01*
X10525303Y10833583D01*
X10525455Y10833312D01*
X10525574Y10833058D01*
X10525675Y10832821D01*
X10525743Y10832653D01*
X10525776Y10832584D01*
X10525793Y10832534D01*
X10525811Y10832500D01*
Y10832483D01*
X10525912Y10832094D01*
X10525980Y10831705D01*
X10526047Y10831316D01*
X10526082Y10830944D01*
X10526099Y10830623D01*
Y10830487D01*
X10526115Y10830369D01*
Y10830284D01*
Y10830216D01*
Y10830166D01*
Y10830149D01*
X10526099Y10829692D01*
X10526064Y10829269D01*
X10526030Y10828879D01*
X10525963Y10828508D01*
X10525895Y10828169D01*
X10525811Y10827865D01*
X10525709Y10827577D01*
X10525625Y10827323D01*
X10525540Y10827103D01*
X10525438Y10826901D01*
X10525354Y10826732D01*
X10525286Y10826597D01*
X10525219Y10826494D01*
X10525167Y10826427D01*
X10525151Y10826376D01*
X10525134Y10826360D01*
X10524930Y10826123D01*
X10524728Y10825936D01*
X10524491Y10825751D01*
X10524254Y10825615D01*
X10524000Y10825480D01*
X10523763Y10825378D01*
X10523510Y10825294D01*
X10523273Y10825226D01*
X10523053Y10825159D01*
X10522850Y10825125D01*
X10522664Y10825090D01*
X10522495Y10825073D01*
X10522360D01*
X10522258Y10825057D01*
X10522174D01*
X10521869Y10825073D01*
X10521565Y10825107D01*
X10521294Y10825142D01*
X10521057Y10825209D01*
X10520872Y10825260D01*
X10520719Y10825294D01*
X10520618Y10825327D01*
X10520583Y10825344D01*
X10520312Y10825480D01*
X10520076Y10825615D01*
X10519856Y10825768D01*
X10519653Y10825919D01*
X10519501Y10826055D01*
X10519399Y10826173D01*
X10519315Y10826241D01*
X10519298Y10826274D01*
X10519094Y10826528D01*
X10518926Y10826799D01*
X10518773Y10827070D01*
X10518655Y10827323D01*
X10518553Y10827561D01*
X10518469Y10827729D01*
X10518452Y10827798D01*
X10518435Y10827848D01*
X10518418Y10827882D01*
Y10827899D01*
X10518317Y10828287D01*
X10518232Y10828677D01*
X10518181Y10829066D01*
X10518131Y10829438D01*
X10518114Y10829760D01*
Y10829895D01*
X10518097Y10830013D01*
Y10830098D01*
Y10830166D01*
Y10830216D01*
Y10830233D01*
X10518114Y10830690D01*
X10518147Y10831113D01*
X10518181Y10831519D01*
X10518250Y10831891D01*
X10518334Y10832229D01*
X10518418Y10832534D01*
X10518502Y10832821D01*
X10518588Y10833075D01*
X10518689Y10833295D01*
X10518773Y10833499D01*
X10518857Y10833667D01*
X10518943Y10833802D01*
X10519010Y10833904D01*
X10519044Y10833972D01*
X10519078Y10834022D01*
X10519094Y10834039D01*
X10519298Y10834276D01*
X10519501Y10834463D01*
X10519738Y10834648D01*
X10519974Y10834801D01*
X10520228Y10834919D01*
X10520465Y10835021D01*
X10520719Y10835105D01*
X10520956Y10835173D01*
X10521176Y10835240D01*
X10521378Y10835275D01*
X10521565Y10835308D01*
X10521733Y10835325D01*
X10521869Y10835342D01*
X10522056D01*
X10522360Y10835325D01*
D02*
G37*
G36*
X10491273Y10761187D02*
X10493979Y10756646D01*
X10491964D01*
X10490295Y10759894D01*
X10488596Y10756646D01*
X10486476D01*
X10489258Y10761232D01*
X10486747Y10765487D01*
X10488717D01*
X10490250Y10762421D01*
X10491844Y10765487D01*
X10493799D01*
X10491273Y10761187D01*
D02*
G37*
G36*
X10529062Y10756646D02*
X10527393D01*
Y10760315D01*
X10527078D01*
X10526926Y10760300D01*
X10526776Y10760284D01*
X10526656Y10760255D01*
X10526550Y10760210D01*
X10526461Y10760165D01*
X10526400Y10760134D01*
X10526355Y10760120D01*
X10526340Y10760105D01*
X10526235Y10760015D01*
X10526130Y10759924D01*
X10525979Y10759713D01*
X10525934Y10759623D01*
X10525889Y10759548D01*
X10525859Y10759503D01*
Y10759489D01*
X10524611Y10756646D01*
X10522656D01*
X10524070Y10759608D01*
X10524175Y10759803D01*
X10524265Y10759984D01*
X10524355Y10760134D01*
X10524446Y10760255D01*
X10524506Y10760360D01*
X10524565Y10760420D01*
X10524596Y10760465D01*
X10524611Y10760481D01*
X10524717Y10760586D01*
X10524822Y10760660D01*
X10524927Y10760721D01*
X10525017Y10760781D01*
X10525093Y10760812D01*
X10525153Y10760826D01*
X10525198Y10760841D01*
X10525212D01*
X10524912Y10760917D01*
X10524777Y10760946D01*
X10524656Y10760991D01*
X10524565Y10761022D01*
X10524491Y10761052D01*
X10524446Y10761082D01*
X10524431D01*
X10524175Y10761217D01*
X10524070Y10761293D01*
X10523979Y10761367D01*
X10523920Y10761428D01*
X10523860Y10761473D01*
X10523829Y10761503D01*
X10523815Y10761517D01*
X10523649Y10761743D01*
X10523529Y10761954D01*
X10523484Y10762045D01*
X10523453Y10762119D01*
X10523423Y10762164D01*
Y10762179D01*
X10523333Y10762465D01*
X10523303Y10762616D01*
X10523287Y10762751D01*
X10523273Y10762871D01*
Y10762961D01*
Y10763021D01*
Y10763037D01*
X10523287Y10763278D01*
X10523303Y10763502D01*
X10523348Y10763699D01*
X10523394Y10763864D01*
X10523439Y10763999D01*
X10523468Y10764089D01*
X10523499Y10764164D01*
X10523513Y10764180D01*
X10523604Y10764344D01*
X10523708Y10764495D01*
X10523815Y10764615D01*
X10523920Y10764736D01*
X10524010Y10764811D01*
X10524084Y10764886D01*
X10524146Y10764916D01*
X10524160Y10764932D01*
X10524325Y10765037D01*
X10524491Y10765127D01*
X10524656Y10765201D01*
X10524822Y10765262D01*
X10524957Y10765292D01*
X10525062Y10765322D01*
X10525138Y10765353D01*
X10525167D01*
X10525634Y10765427D01*
X10525844Y10765458D01*
X10526055Y10765472D01*
X10526235Y10765487D01*
X10529062D01*
Y10756646D01*
D02*
G37*
G36*
X10521661Y10748097D02*
X10521931Y10748066D01*
X10522173Y10748021D01*
X10522383Y10747977D01*
X10522548Y10747932D01*
X10522683Y10747887D01*
X10522773Y10747856D01*
X10522789Y10747842D01*
X10522804D01*
X10523044Y10747721D01*
X10523270Y10747601D01*
X10523466Y10747450D01*
X10523630Y10747316D01*
X10523766Y10747195D01*
X10523872Y10747090D01*
X10523932Y10747029D01*
X10523961Y10747000D01*
X10524127Y10746774D01*
X10524277Y10746548D01*
X10524413Y10746307D01*
X10524518Y10746082D01*
X10524608Y10745872D01*
X10524668Y10745721D01*
X10524698Y10745660D01*
X10524713Y10745616D01*
X10524729Y10745586D01*
Y10745571D01*
X10524819Y10745225D01*
X10524879Y10744879D01*
X10524939Y10744534D01*
X10524969Y10744203D01*
X10524984Y10743917D01*
Y10743796D01*
X10524999Y10743691D01*
Y10743616D01*
Y10743556D01*
Y10743511D01*
Y10743496D01*
X10524984Y10743090D01*
X10524954Y10742714D01*
X10524924Y10742368D01*
X10524865Y10742037D01*
X10524803Y10741736D01*
X10524729Y10741466D01*
X10524639Y10741210D01*
X10524563Y10740985D01*
X10524489Y10740789D01*
X10524398Y10740609D01*
X10524323Y10740458D01*
X10524263Y10740338D01*
X10524203Y10740248D01*
X10524158Y10740188D01*
X10524142Y10740143D01*
X10524127Y10740127D01*
X10523947Y10739917D01*
X10523766Y10739751D01*
X10523556Y10739586D01*
X10523345Y10739465D01*
X10523120Y10739346D01*
X10522909Y10739255D01*
X10522683Y10739180D01*
X10522473Y10739120D01*
X10522278Y10739060D01*
X10522097Y10739030D01*
X10521931Y10739000D01*
X10521781Y10738984D01*
X10521661D01*
X10521571Y10738970D01*
X10521495D01*
X10521226Y10738984D01*
X10520955Y10739015D01*
X10520714Y10739045D01*
X10520503Y10739105D01*
X10520338Y10739150D01*
X10520203Y10739180D01*
X10520112Y10739210D01*
X10520082Y10739225D01*
X10519841Y10739346D01*
X10519631Y10739465D01*
X10519436Y10739601D01*
X10519255Y10739736D01*
X10519120Y10739857D01*
X10519030Y10739962D01*
X10518954Y10740022D01*
X10518939Y10740052D01*
X10518759Y10740278D01*
X10518608Y10740519D01*
X10518473Y10740759D01*
X10518368Y10740985D01*
X10518278Y10741195D01*
X10518203Y10741345D01*
X10518187Y10741405D01*
X10518173Y10741450D01*
X10518158Y10741481D01*
Y10741495D01*
X10518068Y10741842D01*
X10517992Y10742188D01*
X10517947Y10742533D01*
X10517902Y10742864D01*
X10517887Y10743149D01*
Y10743270D01*
X10517872Y10743375D01*
Y10743451D01*
Y10743511D01*
Y10743556D01*
Y10743571D01*
X10517887Y10743977D01*
X10517917Y10744353D01*
X10517947Y10744713D01*
X10518007Y10745044D01*
X10518082Y10745345D01*
X10518158Y10745616D01*
X10518232Y10745872D01*
X10518308Y10746097D01*
X10518398Y10746293D01*
X10518473Y10746473D01*
X10518549Y10746624D01*
X10518623Y10746743D01*
X10518684Y10746833D01*
X10518713Y10746895D01*
X10518744Y10746940D01*
X10518759Y10746954D01*
X10518939Y10747164D01*
X10519120Y10747330D01*
X10519330Y10747495D01*
X10519541Y10747631D01*
X10519767Y10747736D01*
X10519977Y10747826D01*
X10520203Y10747902D01*
X10520413Y10747961D01*
X10520608Y10748021D01*
X10520789Y10748052D01*
X10520955Y10748082D01*
X10521105Y10748097D01*
X10521226Y10748112D01*
X10521390D01*
X10521661Y10748097D01*
D02*
G37*
G36*
X10514022D02*
X10514308Y10748066D01*
X10514564Y10748007D01*
X10514789Y10747961D01*
X10514969Y10747902D01*
X10515105Y10747842D01*
X10515195Y10747811D01*
X10515210Y10747797D01*
X10515226D01*
X10515466Y10747661D01*
X10515676Y10747526D01*
X10515872Y10747375D01*
X10516038Y10747225D01*
X10516173Y10747090D01*
X10516262Y10746984D01*
X10516338Y10746909D01*
X10516353Y10746879D01*
X10516519Y10746653D01*
X10516654Y10746412D01*
X10516774Y10746172D01*
X10516864Y10745931D01*
X10516940Y10745736D01*
X10517000Y10745586D01*
X10517014Y10745526D01*
X10517030Y10745481D01*
X10517045Y10745450D01*
Y10745436D01*
X10517120Y10745105D01*
X10517180Y10744774D01*
X10517211Y10744443D01*
X10517240Y10744142D01*
X10517256Y10743887D01*
X10517271Y10743766D01*
Y10743677D01*
Y10743601D01*
Y10743541D01*
Y10743511D01*
Y10743496D01*
X10517256Y10743059D01*
X10517225Y10742668D01*
X10517195Y10742323D01*
X10517150Y10742023D01*
X10517120Y10741887D01*
X10517104Y10741766D01*
X10517090Y10741676D01*
X10517059Y10741586D01*
X10517045Y10741526D01*
Y10741481D01*
X10517030Y10741450D01*
Y10741436D01*
X10516925Y10741135D01*
X10516819Y10740850D01*
X10516699Y10740609D01*
X10516593Y10740413D01*
X10516488Y10740248D01*
X10516414Y10740127D01*
X10516353Y10740052D01*
X10516338Y10740022D01*
X10516157Y10739827D01*
X10515977Y10739677D01*
X10515797Y10739526D01*
X10515631Y10739420D01*
X10515496Y10739331D01*
X10515376Y10739270D01*
X10515300Y10739241D01*
X10515271Y10739225D01*
X10515029Y10739135D01*
X10514805Y10739075D01*
X10514564Y10739030D01*
X10514368Y10739000D01*
X10514188Y10738984D01*
X10514037Y10738970D01*
X10513917D01*
X10513617Y10738984D01*
X10513331Y10739015D01*
X10513075Y10739060D01*
X10512849Y10739120D01*
X10512684Y10739180D01*
X10512549Y10739225D01*
X10512458Y10739255D01*
X10512428Y10739270D01*
X10512188Y10739406D01*
X10511978Y10739541D01*
X10511782Y10739691D01*
X10511616Y10739841D01*
X10511497Y10739977D01*
X10511390Y10740083D01*
X10511331Y10740143D01*
X10511316Y10740172D01*
X10511150Y10740413D01*
X10511014Y10740654D01*
X10510880Y10740895D01*
X10510790Y10741135D01*
X10510714Y10741331D01*
X10510654Y10741495D01*
X10510640Y10741556D01*
X10510624Y10741602D01*
X10510609Y10741616D01*
Y10741631D01*
X10510533Y10741962D01*
X10510474Y10742292D01*
X10510428Y10742623D01*
X10510398Y10742925D01*
X10510383Y10743180D01*
X10510369Y10743301D01*
Y10743390D01*
Y10743466D01*
Y10743525D01*
Y10743556D01*
Y10743571D01*
X10510383Y10744008D01*
X10510414Y10744398D01*
X10510443Y10744758D01*
X10510488Y10745060D01*
X10510519Y10745179D01*
X10510549Y10745300D01*
X10510564Y10745391D01*
X10510579Y10745481D01*
X10510594Y10745541D01*
X10510609Y10745586D01*
X10510624Y10745616D01*
Y10745631D01*
X10510729Y10745931D01*
X10510835Y10746217D01*
X10510955Y10746458D01*
X10511075Y10746653D01*
X10511180Y10746819D01*
X10511256Y10746940D01*
X10511316Y10747000D01*
X10511331Y10747029D01*
X10511497Y10747225D01*
X10511676Y10747390D01*
X10511857Y10747526D01*
X10512023Y10747646D01*
X10512158Y10747736D01*
X10512278Y10747797D01*
X10512354Y10747826D01*
X10512383Y10747842D01*
X10512623Y10747932D01*
X10512849Y10747992D01*
X10513075Y10748052D01*
X10513286Y10748082D01*
X10513466Y10748097D01*
X10513601Y10748112D01*
X10513722D01*
X10514022Y10748097D01*
D02*
G37*
G36*
X10496738Y10739374D02*
X10495220D01*
Y10742111D01*
Y10745780D01*
X10494739Y10744637D01*
X10492378Y10739374D01*
X10490333D01*
Y10748215D01*
X10491852D01*
Y10745764D01*
Y10741870D01*
X10492288Y10742893D01*
X10494694Y10748215D01*
X10496738D01*
Y10739374D01*
D02*
G37*
G36*
X10489160D02*
X10486919D01*
X10486499Y10739388D01*
X10486107Y10739419D01*
X10485776Y10739479D01*
X10485476Y10739540D01*
X10485355Y10739554D01*
X10485236Y10739585D01*
X10485145Y10739614D01*
X10485070Y10739645D01*
X10485010Y10739659D01*
X10484950Y10739675D01*
X10484935Y10739690D01*
X10484919D01*
X10484619Y10739825D01*
X10484348Y10739961D01*
X10484108Y10740111D01*
X10483912Y10740261D01*
X10483746Y10740397D01*
X10483627Y10740502D01*
X10483567Y10740562D01*
X10483536Y10740592D01*
X10483341Y10740833D01*
X10483175Y10741073D01*
X10483040Y10741313D01*
X10482935Y10741539D01*
X10482844Y10741735D01*
X10482784Y10741901D01*
X10482770Y10741960D01*
X10482754Y10742006D01*
X10482739Y10742020D01*
Y10742035D01*
X10482649Y10742351D01*
X10482589Y10742682D01*
X10482544Y10742998D01*
X10482513Y10743284D01*
X10482499Y10743539D01*
X10482484Y10743645D01*
Y10743734D01*
Y10743795D01*
Y10743855D01*
Y10743885D01*
Y10743900D01*
X10482499Y10744307D01*
X10482529Y10744681D01*
X10482559Y10745012D01*
X10482604Y10745299D01*
X10482664Y10745524D01*
X10482679Y10745614D01*
X10482694Y10745690D01*
X10482709Y10745764D01*
X10482725Y10745809D01*
X10482739Y10745825D01*
Y10745840D01*
X10482844Y10746125D01*
X10482965Y10746396D01*
X10483101Y10746621D01*
X10483220Y10746818D01*
X10483325Y10746968D01*
X10483416Y10747087D01*
X10483477Y10747148D01*
X10483506Y10747178D01*
X10483701Y10747358D01*
X10483927Y10747524D01*
X10484138Y10747659D01*
X10484333Y10747765D01*
X10484514Y10747855D01*
X10484648Y10747915D01*
X10484755Y10747946D01*
X10484769Y10747960D01*
X10484784D01*
X10485070Y10748051D01*
X10485371Y10748110D01*
X10485671Y10748156D01*
X10485942Y10748186D01*
X10486183Y10748201D01*
X10486288Y10748215D01*
X10489160D01*
Y10739374D01*
D02*
G37*
G36*
X10500753Y10748351D02*
X10501099Y10748320D01*
X10501400Y10748260D01*
X10501671Y10748201D01*
X10501896Y10748141D01*
X10501986Y10748110D01*
X10502062Y10748080D01*
X10502136Y10748065D01*
X10502181Y10748051D01*
X10502197Y10748035D01*
X10502212D01*
X10502498Y10747900D01*
X10502754Y10747765D01*
X10502994Y10747615D01*
X10503190Y10747463D01*
X10503340Y10747329D01*
X10503459Y10747223D01*
X10503535Y10747148D01*
X10503566Y10747118D01*
X10503761Y10746877D01*
X10503926Y10746637D01*
X10504061Y10746381D01*
X10504182Y10746156D01*
X10504272Y10745945D01*
X10504332Y10745795D01*
X10504363Y10745735D01*
X10504377Y10745690D01*
X10504392Y10745659D01*
Y10745645D01*
X10504482Y10745314D01*
X10504558Y10744968D01*
X10504603Y10744637D01*
X10504648Y10744321D01*
X10504663Y10744065D01*
Y10743945D01*
X10504678Y10743855D01*
Y10743765D01*
Y10743705D01*
Y10743674D01*
Y10743660D01*
X10504663Y10743269D01*
X10504633Y10742908D01*
X10504587Y10742577D01*
X10504542Y10742291D01*
X10504497Y10742065D01*
X10504468Y10741960D01*
X10504452Y10741885D01*
X10504437Y10741825D01*
X10504423Y10741780D01*
X10504407Y10741749D01*
Y10741735D01*
X10504302Y10741434D01*
X10504166Y10741163D01*
X10504047Y10740923D01*
X10503911Y10740728D01*
X10503806Y10740562D01*
X10503716Y10740442D01*
X10503640Y10740366D01*
X10503625Y10740337D01*
X10503430Y10740140D01*
X10503219Y10739976D01*
X10503009Y10739825D01*
X10502814Y10739705D01*
X10502633Y10739614D01*
X10502498Y10739554D01*
X10502407Y10739509D01*
X10502393Y10739495D01*
X10502378D01*
X10502092Y10739404D01*
X10501805Y10739344D01*
X10501536Y10739283D01*
X10501279Y10739254D01*
X10501055Y10739238D01*
X10500964D01*
X10500874Y10739224D01*
X10500437D01*
X10500167Y10739238D01*
X10499927Y10739269D01*
X10499701Y10739299D01*
X10499535Y10739314D01*
X10499401Y10739344D01*
X10499310Y10739359D01*
X10499280D01*
X10499039Y10739404D01*
X10498799Y10739479D01*
X10498588Y10739540D01*
X10498392Y10739614D01*
X10498228Y10739675D01*
X10498107Y10739719D01*
X10498032Y10739750D01*
X10498002Y10739764D01*
Y10744486D01*
X10501144D01*
Y10743118D01*
X10499641D01*
Y10740847D01*
X10499716Y10740833D01*
X10499775Y10740802D01*
X10499821Y10740787D01*
X10499836D01*
X10499911Y10740773D01*
X10499972Y10740757D01*
X10500017Y10740742D01*
X10500032D01*
X10500106Y10740728D01*
X10500182D01*
X10500242Y10740713D01*
X10500527D01*
X10500753Y10740728D01*
X10500979Y10740742D01*
X10501160Y10740773D01*
X10501324Y10740818D01*
X10501445Y10740847D01*
X10501550Y10740878D01*
X10501610Y10740892D01*
X10501626Y10740908D01*
X10501791Y10740999D01*
X10501926Y10741088D01*
X10502062Y10741194D01*
X10502167Y10741284D01*
X10502242Y10741373D01*
X10502317Y10741449D01*
X10502347Y10741494D01*
X10502362Y10741509D01*
X10502543Y10741825D01*
X10502618Y10741991D01*
X10502678Y10742141D01*
X10502723Y10742277D01*
X10502754Y10742382D01*
X10502783Y10742441D01*
Y10742472D01*
X10502859Y10742908D01*
X10502874Y10743134D01*
X10502888Y10743329D01*
X10502904Y10743494D01*
Y10743629D01*
Y10743719D01*
Y10743734D01*
Y10743750D01*
X10502888Y10744021D01*
X10502874Y10744261D01*
X10502843Y10744486D01*
X10502814Y10744681D01*
X10502783Y10744833D01*
X10502769Y10744952D01*
X10502738Y10745028D01*
Y10745057D01*
X10502664Y10745269D01*
X10502588Y10745464D01*
X10502512Y10745630D01*
X10502438Y10745764D01*
X10502362Y10745885D01*
X10502302Y10745961D01*
X10502272Y10746021D01*
X10502257Y10746035D01*
X10502136Y10746185D01*
X10502002Y10746306D01*
X10501866Y10746411D01*
X10501746Y10746501D01*
X10501626Y10746561D01*
X10501536Y10746606D01*
X10501475Y10746637D01*
X10501460Y10746652D01*
X10501279Y10746727D01*
X10501084Y10746787D01*
X10500903Y10746818D01*
X10500724Y10746847D01*
X10500588Y10746863D01*
X10500468Y10746877D01*
X10500137D01*
X10499911Y10746847D01*
X10499701Y10746832D01*
X10499520Y10746802D01*
X10499370Y10746772D01*
X10499249Y10746742D01*
X10499175Y10746727D01*
X10499144Y10746711D01*
X10498918Y10746652D01*
X10498723Y10746592D01*
X10498528Y10746532D01*
X10498363Y10746471D01*
X10498228Y10746411D01*
X10498123Y10746381D01*
X10498062Y10746351D01*
X10498032Y10746335D01*
Y10747975D01*
X10498468Y10748080D01*
X10498663Y10748141D01*
X10498844Y10748170D01*
X10498994Y10748201D01*
X10499099Y10748231D01*
X10499175Y10748246D01*
X10499204D01*
X10499625Y10748320D01*
X10499821Y10748336D01*
X10500001Y10748351D01*
X10500151Y10748365D01*
X10500377D01*
X10500753Y10748351D01*
D02*
G37*
G36*
X10531855Y10746609D02*
X10529916D01*
Y10740488D01*
X10531855D01*
Y10739120D01*
X10526277D01*
Y10740488D01*
X10528217D01*
Y10746609D01*
X10526277D01*
Y10747961D01*
X10531855D01*
Y10746609D01*
D02*
G37*
G36*
X10464962Y10825226D02*
X10458973D01*
Y10826816D01*
X10463051D01*
Y10829574D01*
X10459160D01*
Y10831113D01*
X10463051D01*
Y10833583D01*
X10458973D01*
Y10835173D01*
X10464962D01*
Y10825226D01*
D02*
G37*
G36*
X10459846Y10748351D02*
X10460088Y10748336D01*
X10460312Y10748291D01*
X10460508Y10748260D01*
X10460674Y10748215D01*
X10460795Y10748170D01*
X10460869Y10748156D01*
X10460900Y10748141D01*
X10461110Y10748051D01*
X10461305Y10747960D01*
X10461486Y10747855D01*
X10461636Y10747765D01*
X10461757Y10747675D01*
X10461847Y10747599D01*
X10461907Y10747554D01*
X10461921Y10747539D01*
X10462073Y10747389D01*
X10462207Y10747239D01*
X10462313Y10747073D01*
X10462404Y10746937D01*
X10462478Y10746802D01*
X10462538Y10746697D01*
X10462568Y10746637D01*
X10462583Y10746606D01*
X10462659Y10746396D01*
X10462719Y10746185D01*
X10462764Y10745990D01*
X10462794Y10745809D01*
X10462809Y10745645D01*
X10462825Y10745509D01*
Y10745433D01*
Y10745419D01*
Y10745404D01*
X10462809Y10745133D01*
X10462794Y10744893D01*
X10462764Y10744681D01*
X10462719Y10744502D01*
X10462689Y10744352D01*
X10462659Y10744246D01*
X10462644Y10744186D01*
X10462628Y10744155D01*
X10462538Y10743976D01*
X10462449Y10743810D01*
X10462343Y10743660D01*
X10462252Y10743539D01*
X10462178Y10743448D01*
X10462102Y10743374D01*
X10462057Y10743329D01*
X10462042Y10743314D01*
X10461892Y10743193D01*
X10461726Y10743103D01*
X10461576Y10743013D01*
X10461440Y10742953D01*
X10461305Y10742893D01*
X10461215Y10742863D01*
X10461155Y10742848D01*
X10461125Y10742832D01*
X10460704Y10742758D01*
X10460508Y10742727D01*
X10460328Y10742712D01*
X10460162D01*
X10460043Y10742697D01*
X10459937D01*
X10459591Y10742712D01*
X10459441Y10742727D01*
X10459305Y10742758D01*
X10459186Y10742772D01*
X10459095Y10742787D01*
X10459034Y10742803D01*
X10459020D01*
X10458855Y10742848D01*
X10458689Y10742893D01*
X10458553Y10742938D01*
X10458434Y10742983D01*
X10458328Y10743027D01*
X10458253Y10743058D01*
X10458208Y10743088D01*
X10458192D01*
X10458208Y10742908D01*
X10458237Y10742712D01*
X10458268Y10742546D01*
X10458298Y10742382D01*
X10458344Y10742246D01*
X10458373Y10742125D01*
X10458403Y10742051D01*
X10458418Y10741991D01*
X10458434Y10741975D01*
X10458494Y10741840D01*
X10458568Y10741704D01*
X10458644Y10741599D01*
X10458734Y10741494D01*
X10458794Y10741418D01*
X10458855Y10741359D01*
X10458899Y10741329D01*
X10458915Y10741313D01*
X10459050Y10741223D01*
X10459186Y10741149D01*
X10459336Y10741073D01*
X10459471Y10741028D01*
X10459591Y10740983D01*
X10459681Y10740953D01*
X10459741Y10740923D01*
X10459772D01*
X10459982Y10740878D01*
X10460193Y10740847D01*
X10460419Y10740818D01*
X10460629Y10740802D01*
X10460809D01*
X10460959Y10740787D01*
X10462297D01*
Y10739374D01*
X10461035D01*
X10460795Y10739388D01*
X10460583D01*
X10460388Y10739404D01*
X10460222Y10739419D01*
X10460103D01*
X10460027Y10739434D01*
X10459998D01*
X10459772Y10739464D01*
X10459561Y10739509D01*
X10459365Y10739554D01*
X10459186Y10739600D01*
X10459050Y10739645D01*
X10458929Y10739675D01*
X10458870Y10739690D01*
X10458839Y10739705D01*
X10458644Y10739795D01*
X10458448Y10739885D01*
X10458282Y10739976D01*
X10458132Y10740066D01*
X10458013Y10740140D01*
X10457922Y10740201D01*
X10457861Y10740247D01*
X10457847Y10740261D01*
X10457682Y10740411D01*
X10457531Y10740562D01*
X10457411Y10740713D01*
X10457290Y10740847D01*
X10457200Y10740968D01*
X10457140Y10741073D01*
X10457095Y10741133D01*
X10457080Y10741163D01*
X10456959Y10741373D01*
X10456854Y10741599D01*
X10456780Y10741825D01*
X10456704Y10742035D01*
X10456644Y10742216D01*
X10456599Y10742351D01*
X10456583Y10742411D01*
Y10742456D01*
X10456569Y10742472D01*
Y10742487D01*
X10456509Y10742787D01*
X10456464Y10743103D01*
X10456433Y10743403D01*
X10456404Y10743690D01*
Y10743931D01*
X10456388Y10744036D01*
Y10744126D01*
Y10744200D01*
Y10744261D01*
Y10744291D01*
Y10744307D01*
X10456404Y10744727D01*
X10456418Y10745103D01*
X10456464Y10745433D01*
X10456509Y10745704D01*
X10456554Y10745945D01*
X10456569Y10746035D01*
X10456583Y10746111D01*
X10456599Y10746171D01*
X10456614Y10746216D01*
X10456628Y10746230D01*
Y10746246D01*
X10456719Y10746532D01*
X10456840Y10746772D01*
X10456945Y10746982D01*
X10457050Y10747163D01*
X10457156Y10747299D01*
X10457230Y10747404D01*
X10457290Y10747479D01*
X10457306Y10747494D01*
X10457471Y10747659D01*
X10457651Y10747794D01*
X10457817Y10747915D01*
X10457982Y10748005D01*
X10458118Y10748065D01*
X10458223Y10748125D01*
X10458298Y10748141D01*
X10458328Y10748156D01*
X10458553Y10748231D01*
X10458779Y10748276D01*
X10458989Y10748320D01*
X10459186Y10748336D01*
X10459351Y10748351D01*
X10459471Y10748365D01*
X10459591D01*
X10459846Y10748351D01*
D02*
G37*
G36*
X10466451Y10765876D02*
X10466737Y10765862D01*
X10467008Y10765831D01*
X10467233Y10765786D01*
X10467413Y10765742D01*
X10467549Y10765712D01*
X10467639Y10765697D01*
X10467654Y10765681D01*
X10467670D01*
X10467894Y10765591D01*
X10468090Y10765500D01*
X10468270Y10765411D01*
X10468420Y10765321D01*
X10468541Y10765245D01*
X10468632Y10765186D01*
X10468691Y10765140D01*
X10468707Y10765125D01*
X10468842Y10764990D01*
X10468977Y10764855D01*
X10469067Y10764719D01*
X10469158Y10764584D01*
X10469218Y10764479D01*
X10469279Y10764388D01*
X10469293Y10764329D01*
X10469308Y10764313D01*
X10469369Y10764133D01*
X10469414Y10763967D01*
X10469443Y10763802D01*
X10469458Y10763636D01*
X10469474Y10763516D01*
X10469489Y10763411D01*
Y10763351D01*
Y10763320D01*
X10469474Y10763110D01*
X10469458Y10762930D01*
X10469429Y10762765D01*
X10469398Y10762614D01*
X10469369Y10762509D01*
X10469338Y10762418D01*
X10469308Y10762358D01*
Y10762344D01*
X10469158Y10762073D01*
X10469082Y10761952D01*
X10468993Y10761847D01*
X10468932Y10761772D01*
X10468872Y10761711D01*
X10468842Y10761666D01*
X10468827Y10761652D01*
X10468586Y10761456D01*
X10468361Y10761306D01*
X10468256Y10761245D01*
X10468180Y10761200D01*
X10468135Y10761185D01*
X10468120Y10761171D01*
X10467834Y10761035D01*
X10467699Y10760975D01*
X10467579Y10760914D01*
X10467489Y10760869D01*
X10467399Y10760840D01*
X10467354Y10760825D01*
X10467339Y10760809D01*
X10467037Y10760704D01*
X10466902Y10760659D01*
X10466782Y10760614D01*
X10466692Y10760569D01*
X10466602Y10760554D01*
X10466556Y10760524D01*
X10466542D01*
X10466271Y10760419D01*
X10466150Y10760374D01*
X10466045Y10760328D01*
X10465970Y10760283D01*
X10465895Y10760253D01*
X10465864Y10760238D01*
X10465850Y10760223D01*
X10465640Y10760088D01*
X10465488Y10759967D01*
X10465428Y10759907D01*
X10465383Y10759877D01*
X10465369Y10759847D01*
X10465354Y10759833D01*
X10465293Y10759742D01*
X10465233Y10759667D01*
X10465188Y10759486D01*
X10465173Y10759412D01*
X10465157Y10759351D01*
Y10759305D01*
Y10759291D01*
X10465173Y10759126D01*
X10465203Y10758990D01*
X10465248Y10758885D01*
X10465264Y10758870D01*
Y10758855D01*
X10465354Y10758719D01*
X10465443Y10758615D01*
X10465533Y10758539D01*
X10465549Y10758508D01*
X10465564D01*
X10465730Y10758419D01*
X10465909Y10758358D01*
X10465985Y10758329D01*
X10466045Y10758313D01*
X10466090Y10758298D01*
X10466106D01*
X10466376Y10758253D01*
X10466511Y10758239D01*
X10466632D01*
X10466752Y10758223D01*
X10467158D01*
X10467368Y10758239D01*
X10467458D01*
X10467518Y10758253D01*
X10467579D01*
X10467820Y10758298D01*
X10467939Y10758313D01*
X10468046Y10758329D01*
X10468135Y10758344D01*
X10468196Y10758358D01*
X10468241Y10758374D01*
X10468256D01*
X10468511Y10758434D01*
X10468632Y10758464D01*
X10468737Y10758479D01*
X10468812Y10758508D01*
X10468887Y10758524D01*
X10468932Y10758539D01*
X10468948D01*
X10469188Y10758615D01*
X10469293Y10758644D01*
X10469384Y10758674D01*
X10469458Y10758705D01*
X10469519Y10758734D01*
X10469564Y10758750D01*
X10469579D01*
Y10757111D01*
X10469113Y10756990D01*
X10468903Y10756945D01*
X10468707Y10756899D01*
X10468541Y10756870D01*
X10468406Y10756855D01*
X10468331Y10756840D01*
X10468301D01*
X10467804Y10756794D01*
X10467579Y10756765D01*
X10467368D01*
X10467203Y10756749D01*
X10466947D01*
X10466661Y10756765D01*
X10466392Y10756780D01*
X10466150Y10756810D01*
X10465925Y10756840D01*
X10465759Y10756870D01*
X10465624Y10756885D01*
X10465533Y10756915D01*
X10465504D01*
X10465264Y10756990D01*
X10465038Y10757065D01*
X10464843Y10757156D01*
X10464677Y10757230D01*
X10464526Y10757306D01*
X10464436Y10757366D01*
X10464362Y10757411D01*
X10464346Y10757427D01*
X10464181Y10757561D01*
X10464031Y10757712D01*
X10463895Y10757848D01*
X10463790Y10757998D01*
X10463700Y10758118D01*
X10463639Y10758208D01*
X10463610Y10758268D01*
X10463594Y10758298D01*
X10463503Y10758508D01*
X10463444Y10758719D01*
X10463384Y10758929D01*
X10463353Y10759141D01*
X10463339Y10759305D01*
X10463324Y10759441D01*
Y10759531D01*
Y10759546D01*
Y10759562D01*
X10463339Y10759757D01*
X10463353Y10759938D01*
X10463384Y10760088D01*
X10463414Y10760238D01*
X10463459Y10760343D01*
X10463489Y10760419D01*
X10463503Y10760479D01*
X10463519Y10760494D01*
X10463594Y10760645D01*
X10463669Y10760780D01*
X10463760Y10760885D01*
X10463834Y10760990D01*
X10463910Y10761080D01*
X10463955Y10761140D01*
X10464000Y10761171D01*
X10464015Y10761185D01*
X10464255Y10761396D01*
X10464467Y10761547D01*
X10464572Y10761606D01*
X10464647Y10761652D01*
X10464692Y10761666D01*
X10464707Y10761682D01*
X10464993Y10761832D01*
X10465128Y10761892D01*
X10465264Y10761937D01*
X10465369Y10761982D01*
X10465443Y10762013D01*
X10465504Y10762042D01*
X10465519D01*
X10465819Y10762163D01*
X10465955Y10762208D01*
X10466075Y10762253D01*
X10466166Y10762299D01*
X10466240Y10762313D01*
X10466301Y10762344D01*
X10466316D01*
X10466587Y10762449D01*
X10466707Y10762494D01*
X10466812Y10762539D01*
X10466902Y10762568D01*
X10466963Y10762599D01*
X10467008Y10762629D01*
X10467023D01*
X10467218Y10762749D01*
X10467368Y10762870D01*
X10467429Y10762915D01*
X10467473Y10762960D01*
X10467489Y10762975D01*
X10467504Y10762990D01*
X10467563Y10763065D01*
X10467609Y10763156D01*
X10467654Y10763306D01*
X10467670Y10763381D01*
X10467684Y10763427D01*
Y10763456D01*
Y10763472D01*
X10467670Y10763636D01*
X10467639Y10763757D01*
X10467625Y10763846D01*
X10467609Y10763862D01*
Y10763877D01*
X10467518Y10763998D01*
X10467429Y10764103D01*
X10467354Y10764163D01*
X10467339Y10764177D01*
X10467323D01*
X10467158Y10764268D01*
X10467008Y10764329D01*
X10466932Y10764358D01*
X10466873Y10764374D01*
X10466842Y10764388D01*
X10466827D01*
X10466571Y10764434D01*
X10466331Y10764448D01*
X10466226Y10764463D01*
X10465880D01*
X10465714Y10764448D01*
X10465654D01*
X10465594Y10764434D01*
X10465549D01*
X10465338Y10764403D01*
X10465157Y10764374D01*
X10465098Y10764358D01*
X10465038D01*
X10465007Y10764343D01*
X10464993D01*
X10464781Y10764313D01*
X10464617Y10764268D01*
X10464541Y10764253D01*
X10464496Y10764238D01*
X10464467Y10764222D01*
X10464452D01*
X10464271Y10764177D01*
X10464121Y10764133D01*
X10464060Y10764117D01*
X10464015Y10764103D01*
X10463986Y10764088D01*
X10463970D01*
Y10765607D01*
X10464136Y10765636D01*
X10464301Y10765667D01*
X10464362Y10765681D01*
X10464421Y10765697D01*
X10464467D01*
X10464662Y10765742D01*
X10464827Y10765771D01*
X10464902D01*
X10464962Y10765786D01*
X10465007D01*
X10465203Y10765817D01*
X10465399Y10765847D01*
X10465474D01*
X10465533Y10765862D01*
X10465579D01*
X10465790Y10765876D01*
X10465955Y10765892D01*
X10466121D01*
X10466451Y10765876D01*
D02*
G37*
G36*
X10462075Y10764358D02*
X10459655D01*
Y10756899D01*
X10457955D01*
Y10764358D01*
X10455535D01*
Y10765742D01*
X10462075D01*
Y10764358D01*
D02*
G37*
G36*
X10499945Y10825226D02*
X10498068D01*
Y10829557D01*
X10494684D01*
Y10825226D01*
X10492806D01*
Y10835173D01*
X10494684D01*
Y10831180D01*
X10498068D01*
Y10835173D01*
X10499945D01*
Y10825226D01*
D02*
G37*
G36*
X10477335Y10743510D02*
X10475605D01*
X10475215Y10743494D01*
X10474899Y10743448D01*
X10474613Y10743389D01*
X10474402Y10743329D01*
X10474222Y10743269D01*
X10474102Y10743208D01*
X10474042Y10743163D01*
X10474011Y10743148D01*
X10473846Y10742998D01*
X10473726Y10742832D01*
X10473635Y10742667D01*
X10473575Y10742487D01*
X10473545Y10742336D01*
X10473516Y10742216D01*
Y10742125D01*
Y10742111D01*
Y10742096D01*
X10473545Y10741855D01*
X10473606Y10741630D01*
X10473680Y10741449D01*
X10473785Y10741299D01*
X10473892Y10741178D01*
X10473966Y10741088D01*
X10474027Y10741028D01*
X10474056Y10741013D01*
X10474268Y10740892D01*
X10474523Y10740802D01*
X10474778Y10740728D01*
X10475034Y10740682D01*
X10475260Y10740652D01*
X10475349D01*
X10475439Y10740637D01*
X10475605D01*
X10475981Y10740652D01*
X10476146D01*
X10476312Y10740668D01*
X10476432D01*
X10476538Y10740682D01*
X10476628D01*
X10476808Y10740713D01*
X10476974Y10740728D01*
X10477124Y10740757D01*
X10477245Y10740787D01*
X10477350Y10740818D01*
X10477440Y10740833D01*
X10477485Y10740847D01*
X10477500D01*
Y10739404D01*
X10477350Y10739388D01*
X10477214Y10739359D01*
X10477155D01*
X10477124Y10739344D01*
X10477079D01*
X10476914Y10739329D01*
X10476763Y10739314D01*
X10476703Y10739299D01*
X10476613D01*
X10476432Y10739283D01*
X10476282Y10739269D01*
X10476222Y10739254D01*
X10476132D01*
X10475967Y10739238D01*
X10475680D01*
X10475365Y10739254D01*
X10475079Y10739269D01*
X10474808Y10739299D01*
X10474583Y10739344D01*
X10474387Y10739374D01*
X10474237Y10739404D01*
X10474192Y10739419D01*
X10474147D01*
X10474132Y10739434D01*
X10474116D01*
X10473861Y10739509D01*
X10473621Y10739600D01*
X10473409Y10739705D01*
X10473214Y10739795D01*
X10473079Y10739871D01*
X10472959Y10739945D01*
X10472899Y10739990D01*
X10472869Y10740006D01*
X10472688Y10740156D01*
X10472523Y10740306D01*
X10472373Y10740457D01*
X10472252Y10740607D01*
X10472162Y10740728D01*
X10472102Y10740833D01*
X10472057Y10740892D01*
X10472041Y10740923D01*
X10471936Y10741133D01*
X10471862Y10741359D01*
X10471816Y10741570D01*
X10471771Y10741765D01*
X10471755Y10741946D01*
X10471741Y10742080D01*
Y10742170D01*
Y10742186D01*
Y10742201D01*
X10471755Y10742487D01*
X10471786Y10742727D01*
X10471831Y10742953D01*
X10471876Y10743148D01*
X10471936Y10743298D01*
X10471981Y10743403D01*
X10472012Y10743464D01*
X10472026Y10743494D01*
X10472147Y10743674D01*
X10472267Y10743840D01*
X10472388Y10743976D01*
X10472507Y10744095D01*
X10472614Y10744186D01*
X10472704Y10744246D01*
X10472764Y10744291D01*
X10472778Y10744307D01*
X10472959Y10744412D01*
X10473140Y10744502D01*
X10473320Y10744576D01*
X10473500Y10744637D01*
X10473635Y10744667D01*
X10473756Y10744697D01*
X10473831Y10744727D01*
X10473861D01*
X10474327Y10744802D01*
X10474537Y10744833D01*
X10474733Y10744847D01*
X10474913Y10744862D01*
X10475786D01*
Y10746652D01*
X10472222D01*
Y10748215D01*
X10477335D01*
Y10743510D01*
D02*
G37*
G36*
X10468042Y10739374D02*
X10466147D01*
X10463441Y10746246D01*
X10465215D01*
X10466659Y10742277D01*
X10467080Y10741073D01*
X10467500Y10742336D01*
X10468944Y10746246D01*
X10470779D01*
X10468042Y10739374D01*
D02*
G37*
G36*
X10483486Y10825226D02*
X10481625D01*
X10481067Y10827189D01*
X10477599D01*
X10477041Y10825226D01*
X10474977D01*
X10477920Y10835173D01*
X10480542D01*
X10483486Y10825226D01*
D02*
G37*
G36*
X10533998D02*
X10532120D01*
Y10829353D01*
X10531765D01*
X10531595Y10829337D01*
X10531427Y10829320D01*
X10531292Y10829286D01*
X10531173Y10829235D01*
X10531072Y10829185D01*
X10531003Y10829150D01*
X10530953Y10829133D01*
X10530936Y10829116D01*
X10530818Y10829015D01*
X10530699Y10828914D01*
X10530530Y10828677D01*
X10530480Y10828575D01*
X10530428Y10828491D01*
X10530396Y10828440D01*
Y10828423D01*
X10528990Y10825226D01*
X10526792D01*
X10528381Y10828558D01*
X10528500Y10828778D01*
X10528602Y10828982D01*
X10528704Y10829150D01*
X10528805Y10829286D01*
X10528872Y10829404D01*
X10528940Y10829471D01*
X10528975Y10829523D01*
X10528990Y10829540D01*
X10529109Y10829658D01*
X10529227Y10829742D01*
X10529346Y10829811D01*
X10529447Y10829878D01*
X10529532Y10829912D01*
X10529600Y10829929D01*
X10529651Y10829946D01*
X10529668D01*
X10529329Y10830031D01*
X10529177Y10830065D01*
X10529042Y10830115D01*
X10528940Y10830149D01*
X10528855Y10830183D01*
X10528805Y10830216D01*
X10528788D01*
X10528500Y10830369D01*
X10528381Y10830453D01*
X10528280Y10830537D01*
X10528213Y10830605D01*
X10528145Y10830657D01*
X10528112Y10830690D01*
X10528094Y10830707D01*
X10527908Y10830961D01*
X10527773Y10831198D01*
X10527722Y10831299D01*
X10527688Y10831383D01*
X10527655Y10831434D01*
Y10831451D01*
X10527552Y10831772D01*
X10527520Y10831942D01*
X10527502Y10832094D01*
X10527485Y10832229D01*
Y10832330D01*
Y10832399D01*
Y10832416D01*
X10527502Y10832686D01*
X10527520Y10832939D01*
X10527570Y10833160D01*
X10527621Y10833346D01*
X10527671Y10833499D01*
X10527705Y10833600D01*
X10527739Y10833684D01*
X10527756Y10833701D01*
X10527858Y10833887D01*
X10527976Y10834056D01*
X10528094Y10834192D01*
X10528213Y10834327D01*
X10528314Y10834412D01*
X10528398Y10834496D01*
X10528467Y10834530D01*
X10528484Y10834547D01*
X10528669Y10834666D01*
X10528855Y10834767D01*
X10529042Y10834851D01*
X10529227Y10834919D01*
X10529380Y10834952D01*
X10529498Y10834987D01*
X10529583Y10835021D01*
X10529617D01*
X10530142Y10835105D01*
X10530378Y10835139D01*
X10530615Y10835156D01*
X10530818Y10835173D01*
X10533998D01*
Y10825226D01*
D02*
G37*
G36*
X10490692D02*
X10484703D01*
Y10826816D01*
X10488781D01*
Y10829574D01*
X10484890D01*
Y10831113D01*
X10488781D01*
Y10833583D01*
X10484703D01*
Y10835173D01*
X10490692D01*
Y10825226D01*
D02*
G37*
G36*
X10513055Y10835325D02*
X10513445Y10835292D01*
X10513783Y10835223D01*
X10514087Y10835156D01*
X10514341Y10835088D01*
X10514443Y10835055D01*
X10514528Y10835021D01*
X10514612Y10835004D01*
X10514663Y10834987D01*
X10514680Y10834969D01*
X10514696D01*
X10515018Y10834818D01*
X10515305Y10834666D01*
X10515576Y10834496D01*
X10515796Y10834327D01*
X10515966Y10834175D01*
X10516101Y10834056D01*
X10516185Y10833972D01*
X10516219Y10833938D01*
X10516439Y10833667D01*
X10516625Y10833396D01*
X10516777Y10833109D01*
X10516913Y10832855D01*
X10517014Y10832618D01*
X10517081Y10832449D01*
X10517115Y10832382D01*
X10517133Y10832330D01*
X10517150Y10832297D01*
Y10832280D01*
X10517251Y10831908D01*
X10517335Y10831519D01*
X10517386Y10831146D01*
X10517437Y10830791D01*
X10517454Y10830504D01*
Y10830369D01*
X10517471Y10830267D01*
Y10830166D01*
Y10830098D01*
Y10830065D01*
Y10830048D01*
X10517454Y10829607D01*
X10517421Y10829202D01*
X10517369Y10828829D01*
X10517318Y10828508D01*
X10517268Y10828254D01*
X10517234Y10828136D01*
X10517217Y10828051D01*
X10517200Y10827983D01*
X10517183Y10827932D01*
X10517167Y10827899D01*
Y10827882D01*
X10517048Y10827544D01*
X10516896Y10827239D01*
X10516760Y10826969D01*
X10516608Y10826748D01*
X10516489Y10826562D01*
X10516388Y10826427D01*
X10516304Y10826343D01*
X10516287Y10826309D01*
X10516067Y10826089D01*
X10515830Y10825902D01*
X10515593Y10825734D01*
X10515374Y10825598D01*
X10515170Y10825497D01*
X10515018Y10825428D01*
X10514917Y10825378D01*
X10514900Y10825361D01*
X10514883D01*
X10514562Y10825260D01*
X10514240Y10825192D01*
X10513936Y10825125D01*
X10513647Y10825090D01*
X10513394Y10825073D01*
X10513292D01*
X10513191Y10825057D01*
X10512700D01*
X10512396Y10825073D01*
X10512125Y10825107D01*
X10511871Y10825142D01*
X10511686Y10825159D01*
X10511533Y10825192D01*
X10511432Y10825209D01*
X10511398D01*
X10511127Y10825260D01*
X10510857Y10825344D01*
X10510620Y10825413D01*
X10510400Y10825497D01*
X10510214Y10825564D01*
X10510078Y10825615D01*
X10509994Y10825649D01*
X10509960Y10825665D01*
Y10830978D01*
X10513496D01*
Y10829438D01*
X10511804D01*
Y10826884D01*
X10511888Y10826866D01*
X10511956Y10826833D01*
X10512007Y10826816D01*
X10512024D01*
X10512108Y10826799D01*
X10512177Y10826782D01*
X10512227Y10826765D01*
X10512244D01*
X10512328Y10826748D01*
X10512413D01*
X10512480Y10826732D01*
X10512802D01*
X10513055Y10826748D01*
X10513309Y10826765D01*
X10513512Y10826799D01*
X10513699Y10826851D01*
X10513834Y10826884D01*
X10513953Y10826918D01*
X10514020Y10826935D01*
X10514037Y10826952D01*
X10514222Y10827053D01*
X10514375Y10827155D01*
X10514528Y10827273D01*
X10514646Y10827374D01*
X10514730Y10827476D01*
X10514814Y10827561D01*
X10514849Y10827611D01*
X10514866Y10827628D01*
X10515068Y10827983D01*
X10515154Y10828169D01*
X10515221Y10828339D01*
X10515272Y10828491D01*
X10515305Y10828610D01*
X10515339Y10828677D01*
Y10828711D01*
X10515424Y10829202D01*
X10515441Y10829456D01*
X10515458Y10829675D01*
X10515475Y10829861D01*
Y10830013D01*
Y10830115D01*
Y10830132D01*
Y10830149D01*
X10515458Y10830453D01*
X10515441Y10830724D01*
X10515406Y10830978D01*
X10515374Y10831198D01*
X10515339Y10831367D01*
X10515322Y10831501D01*
X10515288Y10831587D01*
Y10831620D01*
X10515204Y10831857D01*
X10515120Y10832078D01*
X10515035Y10832263D01*
X10514950Y10832416D01*
X10514866Y10832551D01*
X10514799Y10832635D01*
X10514764Y10832703D01*
X10514747Y10832720D01*
X10514612Y10832889D01*
X10514459Y10833025D01*
X10514308Y10833143D01*
X10514172Y10833245D01*
X10514037Y10833312D01*
X10513936Y10833363D01*
X10513867Y10833396D01*
X10513850Y10833413D01*
X10513647Y10833499D01*
X10513428Y10833566D01*
X10513225Y10833600D01*
X10513021Y10833634D01*
X10512870Y10833650D01*
X10512734Y10833667D01*
X10512362D01*
X10512108Y10833634D01*
X10511871Y10833617D01*
X10511669Y10833583D01*
X10511499Y10833549D01*
X10511364Y10833514D01*
X10511279Y10833499D01*
X10511245Y10833481D01*
X10510991Y10833413D01*
X10510771Y10833346D01*
X10510552Y10833279D01*
X10510366Y10833210D01*
X10510214Y10833143D01*
X10510095Y10833109D01*
X10510028Y10833075D01*
X10509994Y10833058D01*
Y10834902D01*
X10510485Y10835021D01*
X10510704Y10835088D01*
X10510907Y10835122D01*
X10511077Y10835156D01*
X10511195Y10835189D01*
X10511279Y10835206D01*
X10511313D01*
X10511787Y10835292D01*
X10512007Y10835308D01*
X10512209Y10835325D01*
X10512379Y10835342D01*
X10512633D01*
X10513055Y10835325D01*
D02*
G37*
G36*
X10474283Y10825226D02*
X10471763D01*
X10471289Y10825243D01*
X10470850Y10825277D01*
X10470477Y10825344D01*
X10470139Y10825413D01*
X10470004Y10825428D01*
X10469868Y10825463D01*
X10469767Y10825497D01*
X10469681Y10825531D01*
X10469614Y10825547D01*
X10469547Y10825564D01*
X10469530Y10825581D01*
X10469513D01*
X10469175Y10825734D01*
X10468870Y10825886D01*
X10468600Y10826055D01*
X10468379Y10826224D01*
X10468193Y10826376D01*
X10468058Y10826494D01*
X10467991Y10826562D01*
X10467957Y10826597D01*
X10467737Y10826866D01*
X10467550Y10827137D01*
X10467399Y10827408D01*
X10467280Y10827662D01*
X10467179Y10827882D01*
X10467111Y10828068D01*
X10467094Y10828136D01*
X10467076Y10828186D01*
X10467059Y10828203D01*
Y10828220D01*
X10466958Y10828575D01*
X10466891Y10828948D01*
X10466840Y10829303D01*
X10466807Y10829624D01*
X10466790Y10829912D01*
X10466772Y10830031D01*
Y10830132D01*
Y10830199D01*
Y10830267D01*
Y10830300D01*
Y10830317D01*
X10466790Y10830775D01*
X10466823Y10831198D01*
X10466857Y10831570D01*
X10466908Y10831891D01*
X10466975Y10832145D01*
X10466992Y10832246D01*
X10467009Y10832330D01*
X10467026Y10832416D01*
X10467043Y10832466D01*
X10467059Y10832483D01*
Y10832500D01*
X10467179Y10832821D01*
X10467313Y10833126D01*
X10467466Y10833380D01*
X10467601Y10833600D01*
X10467720Y10833768D01*
X10467821Y10833904D01*
X10467889Y10833972D01*
X10467922Y10834005D01*
X10468142Y10834209D01*
X10468396Y10834395D01*
X10468633Y10834547D01*
X10468853Y10834666D01*
X10469056Y10834767D01*
X10469208Y10834834D01*
X10469326Y10834868D01*
X10469343Y10834885D01*
X10469360D01*
X10469681Y10834987D01*
X10470021Y10835055D01*
X10470359Y10835105D01*
X10470663Y10835139D01*
X10470934Y10835156D01*
X10471052Y10835173D01*
X10474283D01*
Y10825226D01*
D02*
G37*
G36*
X10542524D02*
X10540630D01*
Y10828423D01*
X10539681D01*
X10539327Y10828440D01*
X10538988Y10828457D01*
X10538684Y10828508D01*
X10538430Y10828558D01*
X10538210Y10828593D01*
X10538058Y10828643D01*
X10537957Y10828660D01*
X10537922Y10828677D01*
X10537653Y10828795D01*
X10537399Y10828914D01*
X10537179Y10829032D01*
X10537009Y10829150D01*
X10536857Y10829252D01*
X10536738Y10829337D01*
X10536671Y10829404D01*
X10536654Y10829421D01*
X10536469Y10829607D01*
X10536316Y10829811D01*
X10536198Y10829996D01*
X10536079Y10830166D01*
X10535995Y10830317D01*
X10535944Y10830453D01*
X10535909Y10830521D01*
X10535892Y10830554D01*
X10535808Y10830808D01*
X10535741Y10831062D01*
X10535690Y10831299D01*
X10535656Y10831519D01*
X10535638Y10831705D01*
X10535623Y10831857D01*
Y10831959D01*
Y10831992D01*
X10535638Y10832263D01*
X10535656Y10832534D01*
X10535707Y10832754D01*
X10535757Y10832957D01*
X10535808Y10833126D01*
X10535842Y10833245D01*
X10535876Y10833312D01*
X10535892Y10833346D01*
X10536011Y10833566D01*
X10536129Y10833752D01*
X10536265Y10833921D01*
X10536383Y10834073D01*
X10536501Y10834192D01*
X10536586Y10834276D01*
X10536654Y10834327D01*
X10536671Y10834344D01*
X10536857Y10834479D01*
X10537076Y10834614D01*
X10537280Y10834716D01*
X10537466Y10834801D01*
X10537653Y10834868D01*
X10537787Y10834919D01*
X10537872Y10834937D01*
X10537889Y10834952D01*
X10537905D01*
X10538193Y10835021D01*
X10538481Y10835088D01*
X10538768Y10835122D01*
X10539039Y10835139D01*
X10539276Y10835156D01*
X10539446Y10835173D01*
X10542524D01*
Y10825226D01*
D02*
G37*
%LPC*%
G36*
X10475323Y10764358D02*
X10474601D01*
X10474315Y10764343D01*
X10474060Y10764313D01*
X10473849Y10764268D01*
X10473669Y10764222D01*
X10473534Y10764163D01*
X10473444Y10764117D01*
X10473384Y10764088D01*
X10473368Y10764072D01*
X10473232Y10763953D01*
X10473127Y10763802D01*
X10473053Y10763651D01*
X10472992Y10763501D01*
X10472963Y10763365D01*
X10472947Y10763246D01*
Y10763170D01*
Y10763156D01*
Y10763141D01*
X10472963Y10762915D01*
X10473007Y10762749D01*
X10473037Y10762675D01*
X10473068Y10762629D01*
X10473082Y10762599D01*
Y10762584D01*
X10473187Y10762418D01*
X10473293Y10762299D01*
X10473384Y10762208D01*
X10473413Y10762194D01*
X10473428Y10762178D01*
X10473594Y10762073D01*
X10473774Y10761997D01*
X10473849Y10761968D01*
X10473894Y10761952D01*
X10473939Y10761937D01*
X10473955D01*
X10474196Y10761892D01*
X10474420Y10761877D01*
X10474526Y10761862D01*
X10475323D01*
Y10764358D01*
D02*
G37*
G36*
X10454930Y10833617D02*
X10454119D01*
X10453798Y10833600D01*
X10453510Y10833566D01*
X10453273Y10833514D01*
X10453070Y10833464D01*
X10452917Y10833396D01*
X10452816Y10833346D01*
X10452749Y10833312D01*
X10452732Y10833295D01*
X10452579Y10833160D01*
X10452461Y10832991D01*
X10452377Y10832821D01*
X10452308Y10832653D01*
X10452275Y10832500D01*
X10452258Y10832365D01*
Y10832280D01*
Y10832263D01*
Y10832246D01*
X10452275Y10831992D01*
X10452325Y10831807D01*
X10452360Y10831722D01*
X10452394Y10831671D01*
X10452411Y10831637D01*
Y10831620D01*
X10452529Y10831434D01*
X10452648Y10831299D01*
X10452749Y10831198D01*
X10452782Y10831180D01*
X10452799Y10831163D01*
X10452986Y10831045D01*
X10453188Y10830961D01*
X10453273Y10830927D01*
X10453324Y10830909D01*
X10453374Y10830894D01*
X10453391D01*
X10453662Y10830842D01*
X10453916Y10830825D01*
X10454034Y10830808D01*
X10454930D01*
Y10833617D01*
D02*
G37*
G36*
X10522190Y10833650D02*
X10522106D01*
X10521903Y10833634D01*
X10521733Y10833617D01*
X10521412Y10833514D01*
X10521141Y10833380D01*
X10520922Y10833210D01*
X10520753Y10833042D01*
X10520635Y10832906D01*
X10520566Y10832804D01*
X10520549Y10832788D01*
Y10832771D01*
X10520465Y10832601D01*
X10520397Y10832416D01*
X10520278Y10831992D01*
X10520194Y10831570D01*
X10520127Y10831130D01*
X10520110Y10830944D01*
X10520093Y10830758D01*
Y10830588D01*
X10520076Y10830436D01*
Y10830317D01*
Y10830233D01*
Y10830166D01*
Y10830149D01*
Y10829844D01*
X10520093Y10829574D01*
X10520110Y10829320D01*
X10520127Y10829100D01*
X10520160Y10828931D01*
X10520177Y10828795D01*
X10520194Y10828711D01*
Y10828677D01*
X10520245Y10828457D01*
X10520295Y10828254D01*
X10520364Y10828068D01*
X10520431Y10827916D01*
X10520482Y10827781D01*
X10520532Y10827695D01*
X10520549Y10827628D01*
X10520566Y10827611D01*
X10520668Y10827458D01*
X10520769Y10827340D01*
X10520872Y10827222D01*
X10520973Y10827137D01*
X10521057Y10827053D01*
X10521124Y10827002D01*
X10521176Y10826985D01*
X10521193Y10826969D01*
X10521345Y10826901D01*
X10521497Y10826851D01*
X10521649Y10826799D01*
X10521785Y10826782D01*
X10521920Y10826765D01*
X10522021Y10826748D01*
X10522106D01*
X10522308Y10826765D01*
X10522478Y10826782D01*
X10522799Y10826884D01*
X10523070Y10827019D01*
X10523290Y10827189D01*
X10523459Y10827340D01*
X10523578Y10827476D01*
X10523645Y10827577D01*
X10523662Y10827594D01*
Y10827611D01*
X10523746Y10827781D01*
X10523815Y10827966D01*
X10523933Y10828390D01*
X10524017Y10828812D01*
X10524069Y10829252D01*
X10524102Y10829438D01*
Y10829624D01*
X10524119Y10829794D01*
X10524136Y10829946D01*
Y10830065D01*
Y10830149D01*
Y10830216D01*
Y10830233D01*
Y10830537D01*
X10524119Y10830808D01*
X10524102Y10831062D01*
X10524086Y10831265D01*
X10524069Y10831451D01*
X10524052Y10831570D01*
X10524034Y10831654D01*
Y10831688D01*
X10523983Y10831925D01*
X10523933Y10832128D01*
X10523865Y10832314D01*
X10523815Y10832466D01*
X10523763Y10832584D01*
X10523713Y10832686D01*
X10523696Y10832737D01*
X10523679Y10832754D01*
X10523578Y10832906D01*
X10523477Y10833042D01*
X10523374Y10833160D01*
X10523273Y10833245D01*
X10523188Y10833329D01*
X10523121Y10833380D01*
X10523070Y10833396D01*
X10523053Y10833413D01*
X10522900Y10833499D01*
X10522749Y10833549D01*
X10522579Y10833600D01*
X10522427Y10833617D01*
X10522308Y10833634D01*
X10522190Y10833650D01*
D02*
G37*
G36*
X10527393Y10764104D02*
X10526671D01*
X10526385Y10764089D01*
X10526130Y10764059D01*
X10525919Y10764014D01*
X10525739Y10763969D01*
X10525603Y10763909D01*
X10525513Y10763864D01*
X10525453Y10763833D01*
X10525438Y10763818D01*
X10525303Y10763699D01*
X10525198Y10763547D01*
X10525122Y10763397D01*
X10525062Y10763247D01*
X10525032Y10763112D01*
X10525017Y10762992D01*
Y10762916D01*
Y10762902D01*
Y10762886D01*
X10525032Y10762661D01*
X10525077Y10762495D01*
X10525107Y10762421D01*
X10525138Y10762375D01*
X10525153Y10762345D01*
Y10762330D01*
X10525258Y10762164D01*
X10525363Y10762045D01*
X10525453Y10761954D01*
X10525483Y10761938D01*
X10525498Y10761924D01*
X10525664Y10761819D01*
X10525844Y10761743D01*
X10525919Y10761714D01*
X10525964Y10761698D01*
X10526010Y10761683D01*
X10526024D01*
X10526265Y10761638D01*
X10526490Y10761624D01*
X10526595Y10761608D01*
X10527393D01*
Y10764104D01*
D02*
G37*
G36*
X10521511Y10746609D02*
X10521436D01*
X10521255Y10746593D01*
X10521105Y10746578D01*
X10520819Y10746488D01*
X10520579Y10746367D01*
X10520383Y10746217D01*
X10520233Y10746067D01*
X10520127Y10745947D01*
X10520067Y10745857D01*
X10520052Y10745841D01*
Y10745826D01*
X10519977Y10745676D01*
X10519917Y10745510D01*
X10519812Y10745134D01*
X10519736Y10744758D01*
X10519677Y10744368D01*
X10519661Y10744203D01*
X10519646Y10744037D01*
Y10743887D01*
X10519631Y10743751D01*
Y10743646D01*
Y10743571D01*
Y10743511D01*
Y10743496D01*
Y10743225D01*
X10519646Y10742985D01*
X10519661Y10742759D01*
X10519677Y10742563D01*
X10519706Y10742413D01*
X10519722Y10742292D01*
X10519736Y10742218D01*
Y10742188D01*
X10519781Y10741992D01*
X10519827Y10741812D01*
X10519886Y10741647D01*
X10519948Y10741511D01*
X10519991Y10741390D01*
X10520037Y10741316D01*
X10520052Y10741255D01*
X10520067Y10741240D01*
X10520157Y10741105D01*
X10520248Y10741000D01*
X10520338Y10740895D01*
X10520428Y10740819D01*
X10520503Y10740743D01*
X10520564Y10740699D01*
X10520608Y10740684D01*
X10520624Y10740669D01*
X10520759Y10740609D01*
X10520895Y10740564D01*
X10521029Y10740519D01*
X10521150Y10740503D01*
X10521270Y10740488D01*
X10521360Y10740474D01*
X10521436D01*
X10521616Y10740488D01*
X10521766Y10740503D01*
X10522052Y10740593D01*
X10522292Y10740714D01*
X10522488Y10740864D01*
X10522638Y10741000D01*
X10522744Y10741119D01*
X10522804Y10741210D01*
X10522819Y10741226D01*
Y10741240D01*
X10522894Y10741390D01*
X10522954Y10741556D01*
X10523059Y10741932D01*
X10523135Y10742308D01*
X10523180Y10742699D01*
X10523209Y10742864D01*
Y10743030D01*
X10523225Y10743180D01*
X10523240Y10743315D01*
Y10743420D01*
Y10743496D01*
Y10743556D01*
Y10743571D01*
Y10743842D01*
X10523225Y10744082D01*
X10523209Y10744308D01*
X10523195Y10744489D01*
X10523180Y10744653D01*
X10523165Y10744758D01*
X10523149Y10744834D01*
Y10744865D01*
X10523104Y10745074D01*
X10523059Y10745255D01*
X10522999Y10745420D01*
X10522954Y10745555D01*
X10522909Y10745660D01*
X10522864Y10745751D01*
X10522849Y10745796D01*
X10522834Y10745812D01*
X10522744Y10745947D01*
X10522654Y10746067D01*
X10522563Y10746172D01*
X10522473Y10746248D01*
X10522397Y10746322D01*
X10522338Y10746367D01*
X10522292Y10746383D01*
X10522278Y10746398D01*
X10522142Y10746473D01*
X10522007Y10746519D01*
X10521857Y10746564D01*
X10521721Y10746578D01*
X10521616Y10746593D01*
X10521511Y10746609D01*
D02*
G37*
G36*
X10512052Y10743977D02*
Y10743887D01*
Y10743811D01*
Y10743751D01*
Y10743737D01*
X10512037Y10743661D01*
Y10743586D01*
Y10743525D01*
Y10743511D01*
Y10743210D01*
X10512052Y10742954D01*
X10512083Y10742714D01*
X10512097Y10742504D01*
X10512128Y10742338D01*
X10512158Y10742202D01*
X10512173Y10742128D01*
Y10742097D01*
X10512233Y10741887D01*
X10512294Y10741692D01*
X10512354Y10741511D01*
X10512413Y10741376D01*
X10512458Y10741255D01*
X10512504Y10741165D01*
X10512534Y10741105D01*
X10512549Y10741090D01*
X10512639Y10740955D01*
X10512744Y10740834D01*
X10512834Y10740729D01*
X10512925Y10740654D01*
X10513000Y10740593D01*
X10513060Y10740533D01*
X10513105Y10740519D01*
X10513120Y10740503D01*
X10513241Y10740443D01*
X10513375Y10740398D01*
X10513496Y10740369D01*
X10513601Y10740353D01*
X10513691Y10740338D01*
X10513767Y10740323D01*
X10513827D01*
X10514022Y10740338D01*
X10514188Y10740369D01*
X10514353Y10740413D01*
X10514489Y10740474D01*
X10514594Y10740533D01*
X10514669Y10740579D01*
X10514729Y10740609D01*
X10514744Y10740624D01*
X10514879Y10740759D01*
X10515000Y10740909D01*
X10515105Y10741074D01*
X10515195Y10741226D01*
X10515255Y10741376D01*
X10515300Y10741495D01*
X10515331Y10741571D01*
X10515345Y10741602D01*
X10512052Y10743977D01*
D02*
G37*
G36*
X10513887Y10746759D02*
X10513827D01*
X10513632Y10746743D01*
X10513466Y10746714D01*
X10513301Y10746653D01*
X10513165Y10746593D01*
X10513060Y10746533D01*
X10512985Y10746473D01*
X10512925Y10746443D01*
X10512910Y10746428D01*
X10512775Y10746293D01*
X10512654Y10746143D01*
X10512549Y10745977D01*
X10512458Y10745826D01*
X10512383Y10745676D01*
X10512338Y10745555D01*
X10512308Y10745481D01*
X10512294Y10745465D01*
Y10745450D01*
X10515602Y10743059D01*
Y10743149D01*
Y10743225D01*
Y10743270D01*
Y10743285D01*
Y10743375D01*
Y10743466D01*
Y10743525D01*
Y10743541D01*
Y10743842D01*
X10515586Y10744113D01*
X10515557Y10744353D01*
X10515526Y10744563D01*
X10515511Y10744729D01*
X10515481Y10744865D01*
X10515466Y10744939D01*
Y10744969D01*
X10515405Y10745179D01*
X10515345Y10745375D01*
X10515286Y10745541D01*
X10515226Y10745691D01*
X10515181Y10745812D01*
X10515135Y10745886D01*
X10515105Y10745947D01*
X10515090Y10745962D01*
X10515000Y10746112D01*
X10514895Y10746233D01*
X10514805Y10746338D01*
X10514714Y10746412D01*
X10514639Y10746473D01*
X10514579Y10746533D01*
X10514548Y10746548D01*
X10514534Y10746564D01*
X10514413Y10746624D01*
X10514279Y10746683D01*
X10514158Y10746714D01*
X10514053Y10746729D01*
X10513962Y10746743D01*
X10513887Y10746759D01*
D02*
G37*
G36*
X10487491Y10746818D02*
X10486649D01*
X10486409Y10746802D01*
X10486183Y10746787D01*
X10485988Y10746757D01*
X10485837Y10746711D01*
X10485702Y10746666D01*
X10485596Y10746637D01*
X10485536Y10746621D01*
X10485521Y10746606D01*
X10485355Y10746532D01*
X10485205Y10746426D01*
X10485085Y10746335D01*
X10484979Y10746246D01*
X10484890Y10746156D01*
X10484829Y10746080D01*
X10484800Y10746035D01*
X10484784Y10746021D01*
X10484694Y10745870D01*
X10484604Y10745704D01*
X10484543Y10745540D01*
X10484484Y10745388D01*
X10484438Y10745254D01*
X10484408Y10745148D01*
X10484393Y10745088D01*
Y10745057D01*
X10484318Y10744622D01*
X10484303Y10744412D01*
X10484288Y10744216D01*
X10484274Y10744050D01*
Y10743915D01*
Y10743824D01*
Y10743810D01*
Y10743795D01*
Y10743510D01*
X10484303Y10743253D01*
X10484333Y10742998D01*
X10484379Y10742772D01*
X10484424Y10742562D01*
X10484484Y10742382D01*
X10484529Y10742216D01*
X10484589Y10742065D01*
X10484648Y10741930D01*
X10484709Y10741810D01*
X10484769Y10741720D01*
X10484814Y10741630D01*
X10484860Y10741570D01*
X10484890Y10741525D01*
X10484905Y10741509D01*
X10484919Y10741494D01*
X10485040Y10741373D01*
X10485176Y10741254D01*
X10485476Y10741073D01*
X10485776Y10740953D01*
X10486078Y10740863D01*
X10486348Y10740818D01*
X10486469Y10740787D01*
X10486573D01*
X10486649Y10740773D01*
X10487491D01*
Y10746818D01*
D02*
G37*
G36*
X10459802Y10746982D02*
X10459531D01*
X10459396Y10746952D01*
X10459275Y10746937D01*
X10459170Y10746908D01*
X10459080Y10746877D01*
X10459020Y10746847D01*
X10458989Y10746832D01*
X10458975Y10746818D01*
X10458779Y10746666D01*
X10458613Y10746516D01*
X10458568Y10746442D01*
X10458524Y10746381D01*
X10458508Y10746351D01*
X10458494Y10746335D01*
X10458373Y10746080D01*
X10458298Y10745825D01*
X10458268Y10745719D01*
X10458253Y10745630D01*
X10458237Y10745569D01*
Y10745554D01*
X10458208Y10745374D01*
X10458177Y10745193D01*
X10458163Y10745012D01*
Y10744847D01*
X10458148Y10744712D01*
Y10744592D01*
Y10744517D01*
Y10744486D01*
X10458268Y10744426D01*
X10458373Y10744381D01*
X10458463Y10744336D01*
X10458479Y10744321D01*
X10458494D01*
X10458629Y10744276D01*
X10458749Y10744231D01*
X10458855Y10744200D01*
X10458870Y10744186D01*
X10458884D01*
X10459034Y10744141D01*
X10459155Y10744126D01*
X10459260Y10744095D01*
X10459291D01*
X10459441Y10744081D01*
X10459561Y10744065D01*
X10459681D01*
X10459922Y10744081D01*
X10460133Y10744126D01*
X10460312Y10744171D01*
X10460464Y10744246D01*
X10460583Y10744307D01*
X10460659Y10744352D01*
X10460719Y10744396D01*
X10460734Y10744412D01*
X10460854Y10744562D01*
X10460945Y10744727D01*
X10461019Y10744907D01*
X10461064Y10745073D01*
X10461095Y10745238D01*
X10461110Y10745359D01*
Y10745449D01*
Y10745464D01*
Y10745479D01*
X10461095Y10745719D01*
X10461080Y10745809D01*
X10461064Y10745900D01*
X10461050Y10745975D01*
X10461035Y10746035D01*
X10461019Y10746066D01*
Y10746080D01*
X10460929Y10746276D01*
X10460839Y10746426D01*
X10460795Y10746487D01*
X10460764Y10746532D01*
X10460734Y10746547D01*
Y10746561D01*
X10460583Y10746697D01*
X10460433Y10746787D01*
X10460374Y10746818D01*
X10460328Y10746847D01*
X10460298Y10746863D01*
X10460283D01*
X10460072Y10746937D01*
X10459877Y10746968D01*
X10459802Y10746982D01*
D02*
G37*
G36*
X10479308Y10833346D02*
X10478021Y10828711D01*
X10480627D01*
X10479308Y10833346D01*
D02*
G37*
G36*
X10532120Y10833617D02*
X10531309D01*
X10530988Y10833600D01*
X10530699Y10833566D01*
X10530463Y10833514D01*
X10530260Y10833464D01*
X10530107Y10833396D01*
X10530006Y10833346D01*
X10529938Y10833312D01*
X10529922Y10833295D01*
X10529769Y10833160D01*
X10529651Y10832991D01*
X10529565Y10832821D01*
X10529498Y10832653D01*
X10529464Y10832500D01*
X10529447Y10832365D01*
Y10832280D01*
Y10832263D01*
Y10832246D01*
X10529464Y10831992D01*
X10529515Y10831807D01*
X10529550Y10831722D01*
X10529583Y10831671D01*
X10529600Y10831637D01*
Y10831620D01*
X10529718Y10831434D01*
X10529836Y10831299D01*
X10529938Y10831198D01*
X10529972Y10831180D01*
X10529989Y10831163D01*
X10530175Y10831045D01*
X10530378Y10830961D01*
X10530463Y10830927D01*
X10530514Y10830909D01*
X10530564Y10830894D01*
X10530581D01*
X10530852Y10830842D01*
X10531106Y10830825D01*
X10531224Y10830808D01*
X10532120D01*
Y10833617D01*
D02*
G37*
G36*
X10472406Y10833600D02*
X10471459D01*
X10471188Y10833583D01*
X10470934Y10833566D01*
X10470714Y10833531D01*
X10470544Y10833481D01*
X10470393Y10833430D01*
X10470275Y10833396D01*
X10470206Y10833380D01*
X10470189Y10833363D01*
X10470004Y10833279D01*
X10469834Y10833160D01*
X10469698Y10833058D01*
X10469580Y10832957D01*
X10469479Y10832855D01*
X10469412Y10832771D01*
X10469377Y10832720D01*
X10469360Y10832703D01*
X10469259Y10832534D01*
X10469158Y10832347D01*
X10469089Y10832162D01*
X10469022Y10831992D01*
X10468971Y10831841D01*
X10468938Y10831722D01*
X10468921Y10831654D01*
Y10831620D01*
X10468837Y10831130D01*
X10468820Y10830894D01*
X10468802Y10830673D01*
X10468785Y10830487D01*
Y10830334D01*
Y10830233D01*
Y10830216D01*
Y10830199D01*
Y10829878D01*
X10468820Y10829590D01*
X10468853Y10829303D01*
X10468904Y10829049D01*
X10468955Y10828812D01*
X10469022Y10828610D01*
X10469073Y10828423D01*
X10469141Y10828254D01*
X10469208Y10828102D01*
X10469276Y10827966D01*
X10469343Y10827865D01*
X10469395Y10827764D01*
X10469446Y10827695D01*
X10469479Y10827645D01*
X10469496Y10827628D01*
X10469513Y10827611D01*
X10469648Y10827476D01*
X10469800Y10827340D01*
X10470139Y10827137D01*
X10470477Y10827002D01*
X10470815Y10826901D01*
X10471119Y10826851D01*
X10471255Y10826816D01*
X10471373D01*
X10471459Y10826799D01*
X10472406D01*
Y10833600D01*
D02*
G37*
G36*
X10540630Y10833617D02*
X10539462D01*
X10539293Y10833600D01*
X10539141Y10833583D01*
X10538988Y10833549D01*
X10538887Y10833531D01*
X10538802Y10833499D01*
X10538751Y10833481D01*
X10538734D01*
X10538464Y10833380D01*
X10538363Y10833312D01*
X10538260Y10833262D01*
X10538193Y10833210D01*
X10538142Y10833160D01*
X10538109Y10833143D01*
X10538092Y10833126D01*
X10537922Y10832957D01*
X10537804Y10832771D01*
X10537771Y10832703D01*
X10537737Y10832635D01*
X10537720Y10832601D01*
Y10832584D01*
X10537635Y10832330D01*
X10537601Y10832111D01*
X10537584Y10832009D01*
Y10831942D01*
Y10831891D01*
Y10831874D01*
X10537601Y10831570D01*
X10537618Y10831434D01*
X10537653Y10831316D01*
X10537668Y10831215D01*
X10537703Y10831146D01*
X10537720Y10831096D01*
Y10831079D01*
X10537838Y10830842D01*
X10537957Y10830657D01*
X10538024Y10830588D01*
X10538058Y10830537D01*
X10538092Y10830504D01*
X10538109Y10830487D01*
X10538312Y10830317D01*
X10538514Y10830199D01*
X10538600Y10830149D01*
X10538667Y10830132D01*
X10538718Y10830098D01*
X10538734D01*
X10539022Y10830031D01*
X10539175Y10830013D01*
X10539310Y10829996D01*
X10539429Y10829979D01*
X10540630D01*
Y10833617D01*
D02*
G37*
%LPD*%
D24*
X10453370Y10752328D02*
X10535667D01*
X10507726Y10734294D02*
Y10769346D01*
X10480040Y10734294D02*
Y10769346D01*
X10453370Y10734294D02*
Y10769346D01*
Y10734294D02*
X10535667D01*
Y10769346D01*
X10453370D02*
X10535667D01*
D36*
X10662406Y10830127D02*
X10661390Y10831143D01*
X10659359D01*
X10658344Y10830127D01*
Y10826064D01*
X10659359Y10825049D01*
X10661390D01*
X10662406Y10826064D01*
Y10830127D01*
X10653264Y10825049D02*
Y10831143D01*
X10656311Y10828096D01*
X10652249D01*
X10650217Y10825049D02*
X10646155Y10829111D01*
X10644124Y10830127D02*
X10643108Y10831143D01*
X10641077D01*
X10640061Y10830127D01*
Y10826064D01*
X10641077Y10825049D01*
X10643108D01*
X10644124Y10826064D01*
Y10830127D01*
X10638030Y10825049D02*
X10635999D01*
X10637014D01*
Y10831143D01*
X10638030Y10830127D01*
X10632952Y10825049D02*
X10628888Y10829111D01*
X10622794Y10825049D02*
X10626857D01*
X10622794Y10829111D01*
Y10830127D01*
X10623810Y10831143D01*
X10625841D01*
X10626857Y10830127D01*
X10620763D02*
X10619747Y10831143D01*
X10617716D01*
X10616700Y10830127D01*
Y10826064D01*
X10617716Y10825049D01*
X10619747D01*
X10620763Y10826064D01*
Y10830127D01*
X10610607Y10825049D02*
X10614669D01*
X10610607Y10829111D01*
Y10830127D01*
X10611622Y10831143D01*
X10613654D01*
X10614669Y10830127D01*
X10608575D02*
X10607560Y10831143D01*
X10605529D01*
X10604513Y10830127D01*
Y10826064D01*
X10605529Y10825049D01*
X10607560D01*
X10608575Y10826064D01*
Y10830127D01*
X10655295Y10815298D02*
X10653264D01*
X10654280D01*
Y10821392D01*
X10655295Y10820376D01*
X10646155Y10821392D02*
X10648186Y10820376D01*
X10650217Y10818345D01*
Y10816313D01*
X10649202Y10815298D01*
X10647170D01*
X10646155Y10816313D01*
Y10817329D01*
X10647170Y10818345D01*
X10650217D01*
X10644124Y10819360D02*
X10643108D01*
Y10818345D01*
X10644124D01*
Y10819360D01*
Y10816313D02*
X10643108D01*
Y10815298D01*
X10644124D01*
Y10816313D01*
X10639045Y10820376D02*
X10638030Y10821392D01*
X10635999D01*
X10634983Y10820376D01*
Y10819360D01*
X10635999Y10818345D01*
X10637014D01*
X10635999D01*
X10634983Y10817329D01*
Y10816313D01*
X10635999Y10815298D01*
X10638030D01*
X10639045Y10816313D01*
X10632952Y10820376D02*
X10631936Y10821392D01*
X10629905D01*
X10628888Y10820376D01*
Y10819360D01*
X10629905Y10818345D01*
X10628888Y10817329D01*
Y10816313D01*
X10629905Y10815298D01*
X10631936D01*
X10632952Y10816313D01*
Y10817329D01*
X10631936Y10818345D01*
X10632952Y10819360D01*
Y10820376D01*
X10631936Y10818345D02*
X10629905D01*
X10626857Y10819360D02*
X10625841D01*
Y10818345D01*
X10626857D01*
Y10819360D01*
Y10816313D02*
X10625841D01*
Y10815298D01*
X10626857D01*
Y10816313D01*
X10621779Y10820376D02*
X10620763Y10821392D01*
X10618732D01*
X10617716Y10820376D01*
Y10819360D01*
X10618732Y10818345D01*
X10619747D01*
X10618732D01*
X10617716Y10817329D01*
Y10816313D01*
X10618732Y10815298D01*
X10620763D01*
X10621779Y10816313D01*
X10615685Y10820376D02*
X10614669Y10821392D01*
X10612638D01*
X10611622Y10820376D01*
Y10816313D01*
X10612638Y10815298D01*
X10614669D01*
X10615685Y10816313D01*
Y10820376D01*
M02*
