M48
;Layer_Color=9474304
;FILE_FORMAT=4:4
METRIC
;TYPE=PLATED
T1F00S00C0.3500
T2F00S00C0.5080
T3F00S00C1.0000
T4F00S00C1.6000
T6F00S00C2.4000
%
T01
X10831500Y10833000
X10819000
X10733250Y10827500
X10720750
T02
X10670814Y10704342
X10652526
Y10686053
Y10668020
X10634238
Y10686053
Y10704342
X10615950
Y10686053
X10670814
X10713466Y10620100
X10553446
X10733278
X10735000Y10681750
X10759222
X10735500Y10819750
X10805000Y10825835
X10690250Y10789500
X10652526Y10722885
X10634238
X10471000Y10740750
T03
X10833531Y10706371
Y10680972
Y10655571
Y10731771
X10520934Y10785200
Y10810601
X10495533
X10470134
Y10785200
X10495533
T04
X10833531Y10634647
Y10601627
T06
X10425000Y10569000
X10874974
Y10819000
X10425000
M30
