G04 Layer_Physical_Order=1*
G04 Layer_Color=255*
%FSAX44Y44*%
%MOMM*%
G71*
G01*
G75*
G04:AMPARAMS|DCode=10|XSize=1.9mm|YSize=2.6mm|CornerRadius=0.0095mm|HoleSize=0mm|Usage=FLASHONLY|Rotation=90.000|XOffset=0mm|YOffset=0mm|HoleType=Round|Shape=RoundedRectangle|*
%AMROUNDEDRECTD10*
21,1,1.9000,2.5810,0,0,90.0*
21,1,1.8810,2.6000,0,0,90.0*
1,1,0.0190,1.2905,0.9405*
1,1,0.0190,1.2905,-0.9405*
1,1,0.0190,-1.2905,-0.9405*
1,1,0.0190,-1.2905,0.9405*
%
%ADD10ROUNDEDRECTD10*%
G04:AMPARAMS|DCode=11|XSize=1mm|YSize=2.15mm|CornerRadius=0.005mm|HoleSize=0mm|Usage=FLASHONLY|Rotation=0.000|XOffset=0mm|YOffset=0mm|HoleType=Round|Shape=RoundedRectangle|*
%AMROUNDEDRECTD11*
21,1,1.0000,2.1400,0,0,0.0*
21,1,0.9900,2.1500,0,0,0.0*
1,1,0.0100,0.4950,-1.0700*
1,1,0.0100,-0.4950,-1.0700*
1,1,0.0100,-0.4950,1.0700*
1,1,0.0100,0.4950,1.0700*
%
%ADD11ROUNDEDRECTD11*%
G04:AMPARAMS|DCode=12|XSize=3.25mm|YSize=2.15mm|CornerRadius=0.0108mm|HoleSize=0mm|Usage=FLASHONLY|Rotation=0.000|XOffset=0mm|YOffset=0mm|HoleType=Round|Shape=RoundedRectangle|*
%AMROUNDEDRECTD12*
21,1,3.2500,2.1285,0,0,0.0*
21,1,3.2285,2.1500,0,0,0.0*
1,1,0.0215,1.6142,-1.0642*
1,1,0.0215,-1.6142,-1.0642*
1,1,0.0215,-1.6142,1.0642*
1,1,0.0215,1.6142,1.0642*
%
%ADD12ROUNDEDRECTD12*%
G04:AMPARAMS|DCode=13|XSize=0.85mm|YSize=0.6mm|CornerRadius=0.003mm|HoleSize=0mm|Usage=FLASHONLY|Rotation=0.000|XOffset=0mm|YOffset=0mm|HoleType=Round|Shape=RoundedRectangle|*
%AMROUNDEDRECTD13*
21,1,0.8500,0.5940,0,0,0.0*
21,1,0.8440,0.6000,0,0,0.0*
1,1,0.0060,0.4220,-0.2970*
1,1,0.0060,-0.4220,-0.2970*
1,1,0.0060,-0.4220,0.2970*
1,1,0.0060,0.4220,0.2970*
%
%ADD13ROUNDEDRECTD13*%
G04:AMPARAMS|DCode=14|XSize=1.65mm|YSize=0.95mm|CornerRadius=0.0048mm|HoleSize=0mm|Usage=FLASHONLY|Rotation=90.000|XOffset=0mm|YOffset=0mm|HoleType=Round|Shape=RoundedRectangle|*
%AMROUNDEDRECTD14*
21,1,1.6500,0.9405,0,0,90.0*
21,1,1.6405,0.9500,0,0,90.0*
1,1,0.0095,0.4703,0.8203*
1,1,0.0095,0.4703,-0.8203*
1,1,0.0095,-0.4703,-0.8203*
1,1,0.0095,-0.4703,0.8203*
%
%ADD14ROUNDEDRECTD14*%
G04:AMPARAMS|DCode=15|XSize=2.1mm|YSize=1.1mm|CornerRadius=0.055mm|HoleSize=0mm|Usage=FLASHONLY|Rotation=270.000|XOffset=0mm|YOffset=0mm|HoleType=Round|Shape=RoundedRectangle|*
%AMROUNDEDRECTD15*
21,1,2.1000,0.9900,0,0,270.0*
21,1,1.9900,1.1000,0,0,270.0*
1,1,0.1100,-0.4950,-0.9950*
1,1,0.1100,-0.4950,0.9950*
1,1,0.1100,0.4950,0.9950*
1,1,0.1100,0.4950,-0.9950*
%
%ADD15ROUNDEDRECTD15*%
G04:AMPARAMS|DCode=16|XSize=0.85mm|YSize=0.6mm|CornerRadius=0.003mm|HoleSize=0mm|Usage=FLASHONLY|Rotation=90.000|XOffset=0mm|YOffset=0mm|HoleType=Round|Shape=RoundedRectangle|*
%AMROUNDEDRECTD16*
21,1,0.8500,0.5940,0,0,90.0*
21,1,0.8440,0.6000,0,0,90.0*
1,1,0.0060,0.2970,0.4220*
1,1,0.0060,0.2970,-0.4220*
1,1,0.0060,-0.2970,-0.4220*
1,1,0.0060,-0.2970,0.4220*
%
%ADD16ROUNDEDRECTD16*%
G04:AMPARAMS|DCode=17|XSize=0.75mm|YSize=0.55mm|CornerRadius=0.0028mm|HoleSize=0mm|Usage=FLASHONLY|Rotation=270.000|XOffset=0mm|YOffset=0mm|HoleType=Round|Shape=RoundedRectangle|*
%AMROUNDEDRECTD17*
21,1,0.7500,0.5445,0,0,270.0*
21,1,0.7445,0.5500,0,0,270.0*
1,1,0.0055,-0.2722,-0.3723*
1,1,0.0055,-0.2722,0.3723*
1,1,0.0055,0.2722,0.3723*
1,1,0.0055,0.2722,-0.3723*
%
%ADD17ROUNDEDRECTD17*%
G04:AMPARAMS|DCode=18|XSize=0.55mm|YSize=0.8mm|CornerRadius=0.0028mm|HoleSize=0mm|Usage=FLASHONLY|Rotation=90.000|XOffset=0mm|YOffset=0mm|HoleType=Round|Shape=RoundedRectangle|*
%AMROUNDEDRECTD18*
21,1,0.5500,0.7945,0,0,90.0*
21,1,0.5445,0.8000,0,0,90.0*
1,1,0.0055,0.3972,0.2722*
1,1,0.0055,0.3972,-0.2722*
1,1,0.0055,-0.3972,-0.2722*
1,1,0.0055,-0.3972,0.2722*
%
%ADD18ROUNDEDRECTD18*%
G04:AMPARAMS|DCode=19|XSize=1.333mm|YSize=1.333mm|CornerRadius=0.0067mm|HoleSize=0mm|Usage=FLASHONLY|Rotation=180.000|XOffset=0mm|YOffset=0mm|HoleType=Round|Shape=RoundedRectangle|*
%AMROUNDEDRECTD19*
21,1,1.3330,1.3197,0,0,180.0*
21,1,1.3197,1.3330,0,0,180.0*
1,1,0.0133,-0.6598,0.6598*
1,1,0.0133,0.6598,0.6598*
1,1,0.0133,0.6598,-0.6598*
1,1,0.0133,-0.6598,-0.6598*
%
%ADD19ROUNDEDRECTD19*%
G04:AMPARAMS|DCode=20|XSize=0.9mm|YSize=0.9mm|CornerRadius=0.0045mm|HoleSize=0mm|Usage=FLASHONLY|Rotation=180.000|XOffset=0mm|YOffset=0mm|HoleType=Round|Shape=RoundedRectangle|*
%AMROUNDEDRECTD20*
21,1,0.9000,0.8910,0,0,180.0*
21,1,0.8910,0.9000,0,0,180.0*
1,1,0.0090,-0.4455,0.4455*
1,1,0.0090,0.4455,0.4455*
1,1,0.0090,0.4455,-0.4455*
1,1,0.0090,-0.4455,-0.4455*
%
%ADD20ROUNDEDRECTD20*%
G04:AMPARAMS|DCode=21|XSize=0.35mm|YSize=0.6mm|CornerRadius=0.0018mm|HoleSize=0mm|Usage=FLASHONLY|Rotation=90.000|XOffset=0mm|YOffset=0mm|HoleType=Round|Shape=RoundedRectangle|*
%AMROUNDEDRECTD21*
21,1,0.3500,0.5965,0,0,90.0*
21,1,0.3465,0.6000,0,0,90.0*
1,1,0.0035,0.2983,0.1732*
1,1,0.0035,0.2983,-0.1732*
1,1,0.0035,-0.2983,-0.1732*
1,1,0.0035,-0.2983,0.1732*
%
%ADD21ROUNDEDRECTD21*%
%ADD22C,0.1270*%
%ADD23C,0.4064*%
%ADD24C,0.1524*%
%ADD25C,0.2032*%
G04:AMPARAMS|DCode=26|XSize=1.27mm|YSize=2.8mm|CornerRadius=0.635mm|HoleSize=0mm|Usage=FLASHONLY|Rotation=90.000|XOffset=0mm|YOffset=0mm|HoleType=Round|Shape=RoundedRectangle|*
%AMROUNDEDRECTD26*
21,1,1.2700,1.5300,0,0,90.0*
21,1,0.0000,2.8000,0,0,90.0*
1,1,1.2700,0.7650,0.0000*
1,1,1.2700,0.7650,0.0000*
1,1,1.2700,-0.7650,0.0000*
1,1,1.2700,-0.7650,0.0000*
%
%ADD26ROUNDEDRECTD26*%
G04:AMPARAMS|DCode=27|XSize=1.27mm|YSize=2.8mm|CornerRadius=0.1588mm|HoleSize=0mm|Usage=FLASHONLY|Rotation=90.000|XOffset=0mm|YOffset=0mm|HoleType=Round|Shape=RoundedRectangle|*
%AMROUNDEDRECTD27*
21,1,1.2700,2.4825,0,0,90.0*
21,1,0.9525,2.8000,0,0,90.0*
1,1,0.3175,1.2412,0.4763*
1,1,0.3175,1.2412,-0.4763*
1,1,0.3175,-1.2412,-0.4763*
1,1,0.3175,-1.2412,0.4763*
%
%ADD27ROUNDEDRECTD27*%
%ADD28O,2.8000X2.0000*%
%ADD29C,1.5000*%
%ADD30O,3.0000X2.0000*%
%ADD31C,3.2000*%
%ADD32C,0.7620*%
%ADD33C,0.5250*%
G36*
X10728937Y10800686D02*
X10728937Y10800686D01*
X10730112Y10799900D01*
X10731500Y10799624D01*
X10731500Y10799624D01*
X10739999D01*
X10741097Y10798525D01*
Y10796348D01*
X10739773D01*
X10739159Y10796226D01*
X10738638Y10795878D01*
X10738290Y10795356D01*
X10738168Y10794742D01*
Y10773342D01*
X10738290Y10772728D01*
X10738638Y10772208D01*
X10739159Y10771860D01*
X10739773Y10771738D01*
X10741097D01*
Y10709554D01*
X10740021D01*
X10739408Y10709432D01*
X10738888Y10709086D01*
X10738540Y10708566D01*
X10738418Y10707953D01*
Y10691548D01*
X10738540Y10690934D01*
X10738888Y10690415D01*
X10739408Y10690067D01*
X10740021Y10689945D01*
X10741097D01*
Y10678500D01*
X10741294Y10677509D01*
X10741146Y10677288D01*
X10740632Y10676945D01*
X10740289Y10676431D01*
X10740168Y10675824D01*
Y10667384D01*
X10740289Y10666777D01*
X10740632Y10666263D01*
X10740677Y10665806D01*
X10733687Y10658813D01*
X10732900Y10657638D01*
X10732625Y10656250D01*
X10732625Y10656250D01*
Y10636426D01*
X10729469D01*
Y10637255D01*
X10729347Y10637867D01*
X10729000Y10638386D01*
X10728914Y10638445D01*
X10728899Y10638481D01*
Y10639819D01*
X10728914Y10639856D01*
X10729000Y10639913D01*
X10729347Y10640433D01*
X10729469Y10641045D01*
Y10649955D01*
X10729347Y10650568D01*
X10729000Y10651086D01*
X10728914Y10651144D01*
X10728899Y10651180D01*
Y10652520D01*
X10728914Y10652556D01*
X10729000Y10652614D01*
X10729347Y10653132D01*
X10729469Y10653745D01*
Y10662655D01*
X10729347Y10663267D01*
X10729000Y10663787D01*
X10728914Y10663844D01*
X10728899Y10663881D01*
Y10665219D01*
X10728914Y10665255D01*
X10729000Y10665314D01*
X10729347Y10665833D01*
X10729469Y10666445D01*
Y10675355D01*
X10729347Y10675967D01*
X10729000Y10676486D01*
X10728914Y10676544D01*
X10728899Y10676581D01*
Y10677919D01*
X10728914Y10677955D01*
X10729000Y10678014D01*
X10729347Y10678533D01*
X10729469Y10679146D01*
Y10688055D01*
X10729347Y10688667D01*
X10729000Y10689186D01*
X10728914Y10689244D01*
X10728899Y10689281D01*
Y10690619D01*
X10728914Y10690656D01*
X10729000Y10690714D01*
X10729347Y10691233D01*
X10729469Y10691844D01*
Y10700754D01*
X10729347Y10701367D01*
X10729000Y10701886D01*
X10728914Y10701945D01*
X10728899Y10701981D01*
Y10703319D01*
X10728914Y10703356D01*
X10729000Y10703414D01*
X10729347Y10703933D01*
X10729469Y10704545D01*
Y10713455D01*
X10729347Y10714067D01*
X10729000Y10714586D01*
X10728914Y10714645D01*
X10728899Y10714681D01*
Y10716019D01*
X10728914Y10716056D01*
X10729000Y10716113D01*
X10729347Y10716633D01*
X10729469Y10717245D01*
Y10726155D01*
X10729347Y10726768D01*
X10729000Y10727286D01*
X10728914Y10727345D01*
X10728899Y10727382D01*
Y10728719D01*
X10728914Y10728756D01*
X10729000Y10728813D01*
X10729347Y10729332D01*
X10729469Y10729945D01*
Y10738855D01*
X10729347Y10739468D01*
X10729000Y10739987D01*
X10728914Y10740044D01*
X10728899Y10740081D01*
Y10741418D01*
X10728914Y10741455D01*
X10729000Y10741514D01*
X10729347Y10742032D01*
X10729469Y10742645D01*
Y10751555D01*
X10729347Y10752167D01*
X10729000Y10752687D01*
X10728914Y10752744D01*
X10728899Y10752781D01*
Y10754119D01*
X10728914Y10754155D01*
X10729000Y10754214D01*
X10729347Y10754733D01*
X10729469Y10755345D01*
Y10764255D01*
X10729347Y10764867D01*
X10729000Y10765386D01*
X10728914Y10765444D01*
X10728899Y10765481D01*
Y10766819D01*
X10728914Y10766855D01*
X10729000Y10766914D01*
X10729347Y10767433D01*
X10729469Y10768044D01*
Y10776956D01*
X10729347Y10777567D01*
X10729000Y10778086D01*
X10728914Y10778145D01*
X10728899Y10778181D01*
Y10779519D01*
X10728914Y10779556D01*
X10729000Y10779614D01*
X10729347Y10780133D01*
X10729469Y10780745D01*
Y10789655D01*
X10729347Y10790267D01*
X10729000Y10790786D01*
X10728481Y10791133D01*
X10727870Y10791255D01*
X10725079D01*
Y10802883D01*
X10726252Y10803370D01*
X10728937Y10800686D01*
D02*
G37*
G36*
X10462874Y10841410D02*
X10463359Y10840237D01*
X10457792Y10834669D01*
X10457006Y10833492D01*
X10456730Y10832104D01*
X10456730Y10832104D01*
Y10825861D01*
X10450927Y10820057D01*
X10450140Y10818882D01*
X10449865Y10817494D01*
X10449865Y10817494D01*
Y10801844D01*
X10449865Y10801844D01*
X10450140Y10800457D01*
X10450927Y10799280D01*
X10461726Y10788481D01*
X10461343Y10787556D01*
X10461031Y10785200D01*
X10461343Y10782844D01*
X10462252Y10780649D01*
X10463486Y10779039D01*
X10463074Y10777770D01*
X10454144D01*
X10454144Y10777770D01*
X10452756Y10777494D01*
X10451581Y10776708D01*
X10451580Y10776708D01*
X10447467Y10772595D01*
X10446681Y10771418D01*
X10446405Y10770031D01*
X10446405Y10770031D01*
Y10726250D01*
Y10690969D01*
X10446405Y10690969D01*
X10446681Y10689581D01*
X10447467Y10688406D01*
X10450686Y10685187D01*
X10450686Y10685187D01*
X10451863Y10684401D01*
X10453250Y10684125D01*
X10453250Y10684125D01*
X10455531D01*
Y10672095D01*
X10455657Y10671464D01*
X10456014Y10670928D01*
X10456550Y10670570D01*
X10457181Y10670444D01*
X10482992D01*
X10483624Y10670570D01*
X10484159Y10670928D01*
X10484517Y10671464D01*
X10484642Y10672095D01*
Y10690905D01*
X10484517Y10691537D01*
X10484159Y10692073D01*
X10483624Y10692430D01*
X10482992Y10692556D01*
X10457181D01*
X10456550Y10692430D01*
X10456014Y10692073D01*
X10455841Y10691812D01*
X10454736Y10691676D01*
X10454399Y10691727D01*
X10453657Y10692471D01*
Y10723920D01*
X10455195D01*
Y10723280D01*
X10455316Y10722673D01*
X10455659Y10722159D01*
X10456173Y10721816D01*
X10456780Y10721696D01*
X10465220D01*
X10465826Y10721816D01*
X10466340Y10722159D01*
X10466683Y10722673D01*
X10466804Y10723280D01*
Y10729220D01*
X10466683Y10729827D01*
X10466340Y10730341D01*
X10465826Y10730684D01*
X10465220Y10730804D01*
X10456780D01*
X10456173Y10730684D01*
X10455659Y10730341D01*
X10455316Y10729827D01*
X10455195Y10729220D01*
Y10728580D01*
X10453657D01*
Y10768529D01*
X10455646Y10770519D01*
X10474713D01*
X10474713Y10770519D01*
X10476101Y10770795D01*
X10477278Y10771581D01*
X10483754Y10778057D01*
X10483754Y10778057D01*
X10484540Y10779233D01*
X10484816Y10780620D01*
X10484816Y10780620D01*
Y10789779D01*
X10484816Y10789779D01*
X10484540Y10791167D01*
X10483754Y10792344D01*
X10483754Y10792344D01*
X10477278Y10798820D01*
X10476101Y10799606D01*
X10474713Y10799882D01*
X10474713Y10799882D01*
X10468899D01*
X10468485Y10800435D01*
X10469181Y10801624D01*
X10470134Y10801498D01*
X10472490Y10801808D01*
X10474685Y10802717D01*
X10476570Y10804164D01*
X10478016Y10806049D01*
X10478926Y10808245D01*
X10479236Y10810601D01*
X10478926Y10812955D01*
X10478016Y10815151D01*
X10476570Y10817036D01*
X10474685Y10818483D01*
X10472490Y10819392D01*
X10472335Y10819412D01*
Y10827142D01*
X10472640Y10827448D01*
X10493021D01*
X10493645Y10826178D01*
X10493500Y10825962D01*
X10493333Y10825120D01*
Y10819412D01*
X10493179Y10819392D01*
X10490983Y10818483D01*
X10489098Y10817036D01*
X10487651Y10815151D01*
X10486742Y10812955D01*
X10486432Y10810601D01*
X10486742Y10808245D01*
X10487651Y10806049D01*
X10489098Y10804164D01*
X10490983Y10802717D01*
X10493179Y10801808D01*
X10495533Y10801498D01*
X10497889Y10801808D01*
X10500085Y10802717D01*
X10501970Y10804164D01*
X10503417Y10806049D01*
X10504326Y10808245D01*
X10504636Y10810601D01*
X10504326Y10812955D01*
X10503417Y10815151D01*
X10501970Y10817036D01*
X10500085Y10818483D01*
X10497889Y10819392D01*
X10497736Y10819412D01*
Y10824208D01*
X10498182Y10824653D01*
X10550233D01*
X10550343Y10824545D01*
Y10813259D01*
X10549072Y10812581D01*
X10548993Y10812634D01*
X10548149Y10812802D01*
X10529746D01*
X10529725Y10812955D01*
X10528816Y10815151D01*
X10527371Y10817036D01*
X10525485Y10818483D01*
X10523290Y10819392D01*
X10520934Y10819702D01*
X10518578Y10819392D01*
X10516383Y10818483D01*
X10514498Y10817036D01*
X10513052Y10815151D01*
X10512142Y10812955D01*
X10511832Y10810601D01*
X10512142Y10808245D01*
X10513052Y10806049D01*
X10514498Y10804164D01*
X10516383Y10802717D01*
X10518578Y10801808D01*
X10520934Y10801498D01*
X10523290Y10801808D01*
X10525485Y10802717D01*
X10527371Y10804164D01*
X10528816Y10806049D01*
X10529725Y10808245D01*
X10529746Y10808398D01*
X10547239D01*
X10547549Y10808088D01*
Y10791271D01*
X10547529Y10791255D01*
X10538619D01*
X10538008Y10791133D01*
X10537488Y10790786D01*
X10537141Y10790267D01*
X10537020Y10789655D01*
Y10787401D01*
X10529746D01*
X10529725Y10787556D01*
X10528816Y10789751D01*
X10527371Y10791636D01*
X10525485Y10793082D01*
X10523290Y10793992D01*
X10520934Y10794302D01*
X10518578Y10793992D01*
X10516383Y10793082D01*
X10514498Y10791636D01*
X10513052Y10789751D01*
X10512142Y10787556D01*
X10511832Y10785200D01*
X10512142Y10782844D01*
X10513052Y10780649D01*
X10514498Y10778763D01*
X10516383Y10777318D01*
X10518578Y10776409D01*
X10520934Y10776099D01*
X10523290Y10776409D01*
X10525485Y10777318D01*
X10527371Y10778763D01*
X10528816Y10780649D01*
X10529725Y10782844D01*
X10529746Y10782999D01*
X10537020D01*
Y10780745D01*
X10537141Y10780133D01*
X10537488Y10779614D01*
X10537576Y10779556D01*
X10537589Y10779519D01*
Y10778181D01*
X10537576Y10778145D01*
X10537488Y10778086D01*
X10537141Y10777567D01*
X10537020Y10776956D01*
Y10768044D01*
X10537141Y10767433D01*
X10537488Y10766914D01*
X10537576Y10766855D01*
X10537589Y10766819D01*
Y10765481D01*
X10537576Y10765444D01*
X10537488Y10765386D01*
X10537141Y10764867D01*
X10537020Y10764255D01*
Y10762131D01*
X10524554D01*
Y10763523D01*
X10524434Y10764128D01*
X10524091Y10764641D01*
X10523578Y10764984D01*
X10522972Y10765105D01*
X10517528D01*
X10516923Y10764984D01*
X10516409Y10764641D01*
X10516066Y10764128D01*
X10515946Y10763523D01*
Y10756078D01*
X10516066Y10755472D01*
X10516409Y10754958D01*
X10516923Y10754615D01*
X10517528Y10754496D01*
X10522972D01*
X10523578Y10754615D01*
X10524091Y10754958D01*
X10524434Y10755472D01*
X10524554Y10756078D01*
Y10757469D01*
X10537020D01*
Y10755345D01*
X10537141Y10754733D01*
X10537488Y10754214D01*
X10537576Y10754155D01*
X10537589Y10754119D01*
Y10752781D01*
X10537576Y10752744D01*
X10537488Y10752687D01*
X10537141Y10752167D01*
X10537020Y10751555D01*
Y10749431D01*
X10524554D01*
Y10750823D01*
X10524434Y10751428D01*
X10524091Y10751941D01*
X10523578Y10752284D01*
X10522972Y10752405D01*
X10517528D01*
X10516923Y10752284D01*
X10516409Y10751941D01*
X10516066Y10751428D01*
X10515946Y10750823D01*
Y10743378D01*
X10516066Y10742772D01*
X10516409Y10742258D01*
X10516923Y10741917D01*
X10517528Y10741796D01*
X10522972D01*
X10523578Y10741917D01*
X10524091Y10742258D01*
X10524434Y10742772D01*
X10524554Y10743378D01*
Y10744769D01*
X10537020D01*
Y10742645D01*
X10537141Y10742032D01*
X10537488Y10741514D01*
X10537576Y10741455D01*
X10537589Y10741418D01*
Y10740081D01*
X10537576Y10740044D01*
X10537488Y10739987D01*
X10537141Y10739468D01*
X10537020Y10738855D01*
Y10736731D01*
X10524554D01*
Y10738123D01*
X10524434Y10738728D01*
X10524091Y10739241D01*
X10523578Y10739584D01*
X10522972Y10739705D01*
X10517528D01*
X10516923Y10739584D01*
X10516409Y10739241D01*
X10516066Y10738728D01*
X10515946Y10738123D01*
Y10730677D01*
X10516066Y10730072D01*
X10516409Y10729559D01*
X10516923Y10729216D01*
X10517528Y10729095D01*
X10522972D01*
X10523578Y10729216D01*
X10524091Y10729559D01*
X10524434Y10730072D01*
X10524554Y10730677D01*
Y10732069D01*
X10537020D01*
Y10729945D01*
X10537141Y10729332D01*
X10537488Y10728813D01*
X10537576Y10728756D01*
X10537589Y10728719D01*
Y10727382D01*
X10537576Y10727345D01*
X10537488Y10727286D01*
X10537141Y10726768D01*
X10537020Y10726155D01*
Y10717245D01*
X10537141Y10716633D01*
X10537488Y10716113D01*
X10537576Y10716056D01*
X10537589Y10716019D01*
Y10714681D01*
X10537576Y10714645D01*
X10537488Y10714586D01*
X10537141Y10714067D01*
X10537020Y10713455D01*
Y10704545D01*
X10537141Y10703933D01*
X10537488Y10703414D01*
X10537576Y10703356D01*
X10537589Y10703319D01*
Y10701981D01*
X10537576Y10701945D01*
X10537488Y10701886D01*
X10537141Y10701367D01*
X10537020Y10700754D01*
Y10691844D01*
X10537141Y10691233D01*
X10537488Y10690714D01*
X10537576Y10690656D01*
X10537589Y10690619D01*
Y10689281D01*
X10537576Y10689244D01*
X10537488Y10689186D01*
X10537141Y10688667D01*
X10537020Y10688055D01*
Y10679146D01*
X10537141Y10678533D01*
X10537488Y10678014D01*
X10537576Y10677955D01*
X10537589Y10677919D01*
Y10676581D01*
X10537576Y10676544D01*
X10537488Y10676486D01*
X10537141Y10675967D01*
X10537020Y10675355D01*
Y10666445D01*
X10537141Y10665833D01*
X10537488Y10665314D01*
X10537576Y10665255D01*
X10537589Y10665219D01*
Y10663881D01*
X10537576Y10663844D01*
X10537488Y10663787D01*
X10537141Y10663267D01*
X10537020Y10662655D01*
Y10653745D01*
X10537141Y10653132D01*
X10537488Y10652614D01*
X10537576Y10652556D01*
X10537589Y10652520D01*
Y10651180D01*
X10537576Y10651144D01*
X10537488Y10651086D01*
X10537141Y10650568D01*
X10537020Y10649955D01*
Y10647701D01*
X10519796D01*
Y10661107D01*
X10519636Y10661917D01*
X10519177Y10662603D01*
X10518491Y10663062D01*
X10517682Y10663223D01*
X10507782D01*
X10506973Y10663062D01*
X10506287Y10662603D01*
X10505829Y10661917D01*
X10505668Y10661107D01*
Y10641207D01*
X10505829Y10640398D01*
X10506287Y10639712D01*
X10506973Y10639254D01*
X10507782Y10639093D01*
X10510531D01*
Y10572222D01*
X10507782D01*
X10506973Y10572062D01*
X10506287Y10571603D01*
X10505829Y10570917D01*
X10505668Y10570107D01*
Y10550208D01*
X10505829Y10549398D01*
X10506287Y10548712D01*
X10506973Y10548254D01*
X10507782Y10548093D01*
X10517682D01*
X10518491Y10548254D01*
X10519177Y10548712D01*
X10519636Y10549398D01*
X10519796Y10550208D01*
Y10570107D01*
X10519636Y10570917D01*
X10519177Y10571603D01*
X10518491Y10572062D01*
X10517682Y10572222D01*
X10514933D01*
Y10639093D01*
X10517682D01*
X10518491Y10639254D01*
X10519177Y10639712D01*
X10519636Y10640398D01*
X10519796Y10641207D01*
Y10643298D01*
X10537020D01*
Y10641045D01*
X10537141Y10640433D01*
X10537488Y10639913D01*
X10537576Y10639856D01*
X10537589Y10639819D01*
Y10638481D01*
X10537576Y10638445D01*
X10537488Y10638386D01*
X10537141Y10637867D01*
X10537020Y10637255D01*
Y10628345D01*
X10537141Y10627733D01*
X10537488Y10627214D01*
X10538008Y10626868D01*
X10538619Y10626746D01*
X10547529D01*
X10548142Y10626868D01*
X10548661Y10627214D01*
X10549008Y10627733D01*
X10549130Y10628345D01*
Y10637255D01*
X10549008Y10637867D01*
X10548661Y10638386D01*
X10548573Y10638445D01*
X10548560Y10638481D01*
Y10639819D01*
X10548573Y10639856D01*
X10548661Y10639913D01*
X10549008Y10640433D01*
X10549130Y10641045D01*
Y10649955D01*
X10549008Y10650568D01*
X10548661Y10651086D01*
X10548573Y10651144D01*
X10548560Y10651180D01*
Y10652520D01*
X10548573Y10652556D01*
X10548661Y10652614D01*
X10549008Y10653132D01*
X10549130Y10653745D01*
Y10656034D01*
X10549792Y10656166D01*
X10550507Y10656643D01*
X10551290Y10657427D01*
X10551768Y10658141D01*
X10551935Y10658983D01*
Y10666620D01*
X10554100Y10668787D01*
X10554578Y10669501D01*
X10554745Y10670343D01*
Y10825457D01*
X10554602Y10826178D01*
X10554636Y10826388D01*
X10555337Y10827448D01*
X10713439D01*
X10713765Y10827123D01*
Y10825519D01*
X10713932Y10824677D01*
X10714409Y10823962D01*
X10717883Y10820488D01*
Y10794808D01*
X10715194Y10792119D01*
X10714717Y10791405D01*
X10714548Y10790563D01*
Y10646428D01*
X10714717Y10645586D01*
X10714774Y10645498D01*
X10714722Y10645420D01*
X10714554Y10644578D01*
Y10632831D01*
X10713317Y10631593D01*
X10709402D01*
X10708560Y10631426D01*
X10707845Y10630948D01*
X10703782Y10626885D01*
X10703304Y10626171D01*
X10703137Y10625328D01*
Y10615930D01*
X10703304Y10615088D01*
X10703782Y10614374D01*
X10708099Y10610055D01*
X10708813Y10609579D01*
X10709656Y10609410D01*
X10752726D01*
X10753518Y10608619D01*
Y10572222D01*
X10750769D01*
X10749960Y10572061D01*
X10749274Y10571603D01*
X10748816Y10570917D01*
X10748655Y10570107D01*
Y10550208D01*
X10748816Y10549398D01*
X10749274Y10548712D01*
X10749960Y10548253D01*
X10750769Y10548093D01*
X10760669D01*
X10761478Y10548253D01*
X10762164Y10548712D01*
X10762623Y10549398D01*
X10762783Y10550208D01*
Y10570107D01*
X10762623Y10570917D01*
X10762164Y10571603D01*
X10761478Y10572061D01*
X10760669Y10572222D01*
X10757920D01*
Y10609531D01*
X10757753Y10610374D01*
X10757275Y10611088D01*
X10756752Y10611613D01*
X10757275Y10612136D01*
X10757753Y10612850D01*
X10757920Y10613693D01*
Y10639093D01*
X10760669D01*
X10761478Y10639254D01*
X10762164Y10639712D01*
X10762623Y10640398D01*
X10762783Y10641207D01*
Y10650956D01*
X10782407D01*
X10783250Y10651124D01*
X10783964Y10651600D01*
X10786322Y10653959D01*
X10786799Y10654673D01*
X10786967Y10655515D01*
Y10666799D01*
X10787488D01*
X10788093Y10666920D01*
X10788607Y10667263D01*
X10788949Y10667776D01*
X10789070Y10668381D01*
Y10675826D01*
X10788949Y10676432D01*
X10788607Y10676945D01*
X10788093Y10677288D01*
X10787488Y10677408D01*
X10786967D01*
Y10679843D01*
X10790486D01*
X10791091Y10679962D01*
X10791606Y10680306D01*
X10791949Y10680820D01*
X10792070Y10681427D01*
Y10687367D01*
X10791949Y10687972D01*
X10791606Y10688486D01*
X10791091Y10688831D01*
X10790486Y10688951D01*
X10782046D01*
X10781439Y10688831D01*
X10780925Y10688486D01*
X10780582Y10687972D01*
X10780461Y10687367D01*
Y10681427D01*
X10780582Y10680820D01*
X10780925Y10680306D01*
X10781439Y10679962D01*
X10782046Y10679843D01*
X10782565D01*
Y10677408D01*
X10782043D01*
X10781438Y10677288D01*
X10780924Y10676945D01*
X10780581Y10676432D01*
X10780461Y10675826D01*
Y10668381D01*
X10780581Y10667776D01*
X10780924Y10667263D01*
X10781438Y10666920D01*
X10782043Y10666799D01*
X10782565D01*
Y10656427D01*
X10781495Y10655359D01*
X10762783D01*
Y10661107D01*
X10762623Y10661917D01*
X10762164Y10662603D01*
X10761478Y10663062D01*
X10760669Y10663221D01*
X10750769D01*
X10749960Y10663062D01*
X10749274Y10662603D01*
X10748816Y10661917D01*
X10748655Y10661107D01*
Y10641207D01*
X10748816Y10640398D01*
X10749274Y10639712D01*
X10749960Y10639254D01*
X10750769Y10639093D01*
X10753518D01*
Y10614604D01*
X10752726Y10613813D01*
X10710568D01*
X10707539Y10616842D01*
Y10624417D01*
X10710314Y10627191D01*
X10714229D01*
X10715071Y10627358D01*
X10715785Y10627836D01*
X10716132Y10628182D01*
X10717480Y10627736D01*
X10717482Y10627733D01*
X10717828Y10627214D01*
X10718347Y10626868D01*
X10718960Y10626746D01*
X10727870D01*
X10728481Y10626868D01*
X10729000Y10627214D01*
X10729347Y10627733D01*
X10729469Y10628345D01*
Y10629175D01*
X10734550D01*
X10734550Y10629175D01*
X10735938Y10629451D01*
X10737114Y10630237D01*
X10738813Y10631936D01*
X10738813Y10631936D01*
X10739600Y10633113D01*
X10739875Y10634500D01*
Y10654749D01*
X10747286Y10662159D01*
X10748073Y10663336D01*
X10748348Y10664723D01*
X10748154Y10665702D01*
X10748300Y10665920D01*
X10748813Y10666263D01*
X10749156Y10666777D01*
X10749277Y10667384D01*
Y10675824D01*
X10749156Y10676431D01*
X10748813Y10676945D01*
X10748300Y10677288D01*
X10748152Y10677509D01*
X10748348Y10678500D01*
Y10685768D01*
X10767620D01*
X10768064Y10685322D01*
Y10677408D01*
X10767543D01*
X10766937Y10677288D01*
X10766425Y10676945D01*
X10766082Y10676432D01*
X10765961Y10675826D01*
Y10668381D01*
X10766082Y10667776D01*
X10766425Y10667263D01*
X10766937Y10666920D01*
X10767543Y10666799D01*
X10772988D01*
X10773594Y10666920D01*
X10774106Y10667263D01*
X10774449Y10667776D01*
X10774570Y10668381D01*
Y10675826D01*
X10774449Y10676432D01*
X10774106Y10676945D01*
X10773594Y10677288D01*
X10772988Y10677408D01*
X10772467D01*
Y10686234D01*
X10772300Y10687076D01*
X10771823Y10687791D01*
X10770088Y10689525D01*
X10769374Y10690002D01*
X10768531Y10690171D01*
X10751923D01*
X10751702Y10690336D01*
X10751007Y10691440D01*
X10751028Y10691548D01*
Y10707953D01*
X10750906Y10708566D01*
X10750559Y10709086D01*
X10750039Y10709432D01*
X10749425Y10709554D01*
X10748348D01*
Y10771738D01*
X10749673D01*
X10750287Y10771860D01*
X10750808Y10772208D01*
X10751156Y10772728D01*
X10751278Y10773342D01*
Y10794742D01*
X10751156Y10795356D01*
X10750808Y10795878D01*
X10750287Y10796226D01*
X10749673Y10796348D01*
X10748348D01*
Y10800027D01*
X10748348Y10800027D01*
X10748073Y10801415D01*
X10747286Y10802590D01*
X10744064Y10805814D01*
X10742887Y10806599D01*
X10741500Y10806876D01*
X10741500Y10806876D01*
X10733002D01*
X10730695Y10809183D01*
Y10822806D01*
X10731964Y10823525D01*
X10733250Y10823270D01*
X10734869Y10823591D01*
X10736241Y10824509D01*
X10736769Y10825299D01*
X10739645D01*
X10739672Y10825166D01*
X10740012Y10824656D01*
Y10823844D01*
X10739672Y10823334D01*
X10739552Y10822732D01*
Y10822017D01*
X10744105D01*
X10748660D01*
Y10822732D01*
X10748540Y10823334D01*
X10748199Y10823844D01*
Y10824656D01*
X10748540Y10825166D01*
X10748660Y10825768D01*
Y10829232D01*
X10748540Y10829834D01*
X10748199Y10830344D01*
X10747690Y10830685D01*
X10747089Y10830804D01*
X10741123D01*
X10740522Y10830685D01*
X10740012Y10830344D01*
X10739672Y10829834D01*
X10739645Y10829701D01*
X10736769D01*
X10736241Y10830491D01*
X10734869Y10831409D01*
X10733250Y10831730D01*
X10731837Y10831449D01*
X10731631Y10831409D01*
X10730497Y10832178D01*
X10730419Y10832568D01*
X10729633Y10833745D01*
X10729633Y10833745D01*
X10728749Y10834629D01*
X10729235Y10835802D01*
X10760782D01*
X10761403Y10834937D01*
X10761539Y10834532D01*
X10761405Y10833856D01*
Y10830804D01*
X10760624D01*
X10760022Y10830685D01*
X10759512Y10830344D01*
X10759171Y10829834D01*
X10759052Y10829232D01*
Y10825768D01*
X10759171Y10825166D01*
X10759512Y10824656D01*
Y10823844D01*
X10759171Y10823334D01*
X10759052Y10822732D01*
Y10819268D01*
X10759171Y10818666D01*
X10759512Y10818157D01*
Y10817344D01*
X10759171Y10816833D01*
X10759052Y10816233D01*
Y10812767D01*
X10759171Y10812166D01*
X10759512Y10811656D01*
X10760022Y10811316D01*
X10760624Y10811196D01*
X10766588D01*
X10767190Y10811316D01*
X10767700Y10811656D01*
X10768041Y10812166D01*
X10768160Y10812767D01*
Y10816233D01*
X10768041Y10816833D01*
X10767700Y10817344D01*
Y10817540D01*
X10768757Y10818669D01*
X10770447D01*
X10770465Y10818582D01*
X10770808Y10818068D01*
X10771322Y10817725D01*
X10771929Y10817604D01*
X10780369D01*
X10780975Y10817725D01*
X10781489Y10818068D01*
X10781832Y10818582D01*
X10781849Y10818669D01*
X10783285D01*
X10783920Y10818035D01*
Y10808250D01*
X10784097Y10807358D01*
X10784602Y10806602D01*
X10786017Y10805187D01*
X10786772Y10804681D01*
X10787665Y10804504D01*
X10790195D01*
Y10804113D01*
X10790316Y10803507D01*
X10790659Y10802994D01*
X10791172Y10802651D01*
X10791777Y10802531D01*
X10799723D01*
X10800328Y10802651D01*
X10800841Y10802994D01*
X10801184Y10803507D01*
X10801304Y10804113D01*
Y10809558D01*
X10801184Y10810162D01*
X10800841Y10810676D01*
X10800328Y10811019D01*
X10799723Y10811139D01*
X10791777D01*
X10791172Y10811019D01*
X10790659Y10810676D01*
X10790316Y10810162D01*
X10790195Y10809558D01*
Y10809166D01*
X10788630D01*
X10788580Y10809215D01*
Y10819000D01*
X10788403Y10819891D01*
X10787898Y10820648D01*
X10785898Y10822648D01*
X10785142Y10823153D01*
X10784250Y10823331D01*
X10781953D01*
Y10825128D01*
X10781832Y10825735D01*
X10781489Y10826249D01*
X10780975Y10826592D01*
X10780369Y10826713D01*
X10771929D01*
X10771322Y10826592D01*
X10770808Y10826249D01*
X10770465Y10825735D01*
X10770344Y10825128D01*
Y10823331D01*
X10768041D01*
X10768041Y10823334D01*
X10767700Y10823844D01*
Y10824656D01*
X10768041Y10825166D01*
X10768160Y10825768D01*
Y10829232D01*
X10768041Y10829834D01*
X10767700Y10830344D01*
X10767190Y10830685D01*
X10766588Y10830804D01*
X10765807D01*
Y10832944D01*
X10765898Y10833036D01*
X10814740D01*
X10814769Y10833000D01*
X10815092Y10831381D01*
X10816008Y10830009D01*
X10817382Y10829092D01*
X10819000Y10828770D01*
X10820370Y10829042D01*
X10821639Y10828363D01*
Y10820640D01*
X10813778D01*
X10813173Y10820519D01*
X10812659Y10820176D01*
X10812316Y10819663D01*
X10812196Y10819058D01*
Y10813612D01*
X10812316Y10813007D01*
X10812659Y10812494D01*
X10813173Y10812151D01*
X10813778Y10812031D01*
X10821639D01*
Y10787684D01*
X10797278D01*
Y10794742D01*
X10797156Y10795356D01*
X10796808Y10795878D01*
X10796287Y10796226D01*
X10795673Y10796348D01*
X10785773D01*
X10785159Y10796226D01*
X10784639Y10795878D01*
X10784291Y10795356D01*
X10784169Y10794742D01*
Y10773342D01*
X10784291Y10772728D01*
X10784639Y10772208D01*
X10785159Y10771860D01*
X10785773Y10771738D01*
X10795673D01*
X10796287Y10771860D01*
X10796808Y10772208D01*
X10797156Y10772728D01*
X10797278Y10773342D01*
Y10780432D01*
X10824426D01*
Y10779027D01*
X10824045D01*
X10823439Y10778906D01*
X10822925Y10778563D01*
X10822582Y10778048D01*
X10822461Y10777443D01*
Y10769003D01*
X10822582Y10768396D01*
X10822925Y10767882D01*
X10823439Y10767539D01*
X10824045Y10767418D01*
X10829985D01*
X10830592Y10767539D01*
X10831106Y10767882D01*
X10831449Y10768396D01*
X10831570Y10769003D01*
Y10777443D01*
X10831449Y10778048D01*
X10831106Y10778563D01*
X10830592Y10778906D01*
X10829985Y10779027D01*
X10829606D01*
Y10780417D01*
X10835205D01*
X10835890Y10779733D01*
Y10763734D01*
X10834813D01*
X10834200Y10763613D01*
X10833680Y10763265D01*
X10833333Y10762745D01*
X10833210Y10762133D01*
Y10745728D01*
X10833333Y10745115D01*
X10833680Y10744595D01*
X10834200Y10744247D01*
X10834813Y10744125D01*
X10835890D01*
Y10739713D01*
X10825881D01*
X10823826Y10739442D01*
X10821910Y10738649D01*
X10820266Y10737386D01*
X10819004Y10735742D01*
X10818210Y10733827D01*
X10817939Y10731771D01*
X10818210Y10729716D01*
X10819004Y10727800D01*
X10820266Y10726156D01*
X10821910Y10724894D01*
X10823826Y10724100D01*
X10825881Y10723829D01*
X10841182D01*
X10843237Y10724100D01*
X10845153Y10724894D01*
X10846797Y10726156D01*
X10848059Y10727800D01*
X10848853Y10729716D01*
X10849124Y10731771D01*
X10848853Y10733827D01*
X10848059Y10735742D01*
X10846797Y10737386D01*
X10845153Y10738649D01*
X10843237Y10739442D01*
X10843141Y10739456D01*
Y10744125D01*
X10844218D01*
X10844832Y10744247D01*
X10845352Y10744595D01*
X10845698Y10745115D01*
X10845820Y10745728D01*
Y10762133D01*
X10845698Y10762745D01*
X10845352Y10763265D01*
X10844832Y10763613D01*
X10844218Y10763734D01*
X10843141D01*
Y10781234D01*
X10843141Y10781234D01*
X10842865Y10782622D01*
X10842079Y10783798D01*
X10842079Y10783798D01*
X10841018Y10784858D01*
X10841505Y10786033D01*
X10849604D01*
X10852549Y10783088D01*
Y10710411D01*
X10850709Y10708573D01*
X10848793D01*
X10848059Y10710342D01*
X10846797Y10711987D01*
X10845153Y10713250D01*
X10843237Y10714043D01*
X10841182Y10714313D01*
X10825881D01*
X10823826Y10714043D01*
X10821910Y10713250D01*
X10820266Y10711987D01*
X10819004Y10710342D01*
X10818210Y10708427D01*
X10817939Y10706371D01*
X10818210Y10704315D01*
X10819004Y10702400D01*
X10820266Y10700756D01*
X10821910Y10699493D01*
X10823826Y10698700D01*
X10825881Y10698429D01*
X10841182D01*
X10843237Y10698700D01*
X10845153Y10699493D01*
X10846797Y10700756D01*
X10848059Y10702400D01*
X10848793Y10704170D01*
X10851621D01*
X10852463Y10704337D01*
X10853177Y10704814D01*
X10856306Y10707943D01*
X10856783Y10708657D01*
X10856952Y10709500D01*
Y10784000D01*
X10856783Y10784843D01*
X10856306Y10785557D01*
X10852073Y10789790D01*
X10851359Y10790267D01*
X10850516Y10790435D01*
X10831658D01*
Y10828801D01*
X10833119Y10829092D01*
X10834491Y10830009D01*
X10835408Y10831381D01*
X10835730Y10833000D01*
X10835408Y10834619D01*
X10834491Y10835991D01*
X10833119Y10836908D01*
X10831500Y10837230D01*
X10829882Y10836908D01*
X10829845Y10836884D01*
X10828365Y10837423D01*
X10827830Y10838225D01*
X10827830Y10838225D01*
X10825818Y10840237D01*
X10826304Y10841410D01*
X10874974D01*
X10877181D01*
X10881511Y10840549D01*
X10885590Y10838860D01*
X10889260Y10836407D01*
X10892382Y10833286D01*
X10894834Y10829615D01*
X10896523Y10825537D01*
X10897385Y10821207D01*
Y10819000D01*
X10897385Y10569000D01*
Y10566793D01*
X10896523Y10562463D01*
X10894834Y10558385D01*
X10892382Y10554714D01*
X10889260Y10551593D01*
X10885590Y10549141D01*
X10881511Y10547451D01*
X10877181Y10546589D01*
X10874974Y10546589D01*
X10726589D01*
Y10600758D01*
X10726565Y10600884D01*
X10726577Y10601012D01*
X10726495Y10601838D01*
X10726385Y10602202D01*
X10726311Y10602576D01*
X10725677Y10604104D01*
X10725117Y10604944D01*
X10723947Y10606115D01*
X10723107Y10606676D01*
X10723107Y10606676D01*
X10721578Y10607308D01*
X10721208Y10607382D01*
X10720848Y10607493D01*
X10720022Y10607577D01*
X10719890Y10607563D01*
X10719760Y10607589D01*
X10547245Y10607589D01*
X10547119Y10607565D01*
X10546991Y10607577D01*
X10546163Y10607495D01*
X10545798Y10607385D01*
X10545426Y10607311D01*
X10543895Y10606677D01*
X10543055Y10606116D01*
X10541885Y10604945D01*
X10541323Y10604104D01*
X10540690Y10602574D01*
X10540615Y10602201D01*
X10540504Y10601837D01*
X10540422Y10601008D01*
X10540436Y10600881D01*
X10540410Y10600754D01*
Y10546589D01*
X10422793D01*
X10418463Y10547451D01*
X10414385Y10549141D01*
X10410714Y10551593D01*
X10407593Y10554714D01*
X10405140Y10558385D01*
X10403451Y10562463D01*
X10402589Y10566793D01*
Y10569000D01*
Y10819000D01*
Y10821207D01*
X10403451Y10825537D01*
X10405140Y10829615D01*
X10407593Y10833286D01*
X10410714Y10836407D01*
X10414385Y10838860D01*
X10418463Y10840549D01*
X10422793Y10841410D01*
X10425000D01*
X10462874D01*
D02*
G37*
%LPC*%
G36*
X10799723Y10830139D02*
X10796766D01*
Y10826851D01*
X10801304D01*
Y10828557D01*
X10801184Y10829163D01*
X10800841Y10829677D01*
X10800328Y10830020D01*
X10799723Y10830139D01*
D02*
G37*
G36*
X10794734D02*
X10791777D01*
X10791172Y10830020D01*
X10790659Y10829677D01*
X10790316Y10829163D01*
X10790195Y10828557D01*
Y10826851D01*
X10794734D01*
Y10830139D01*
D02*
G37*
G36*
X10801304Y10824819D02*
X10796766D01*
Y10821531D01*
X10799723D01*
X10800328Y10821652D01*
X10800841Y10821993D01*
X10801184Y10822507D01*
X10801304Y10823113D01*
Y10824819D01*
D02*
G37*
G36*
X10794734D02*
X10790195D01*
Y10823113D01*
X10790316Y10822507D01*
X10790659Y10821993D01*
X10791172Y10821652D01*
X10791777Y10821531D01*
X10794734D01*
Y10824819D01*
D02*
G37*
G36*
X10748660Y10819984D02*
X10744105D01*
X10739552D01*
Y10819268D01*
X10739672Y10818666D01*
X10740012Y10818157D01*
Y10817344D01*
X10739672Y10816833D01*
X10739552Y10816233D01*
Y10812767D01*
X10739672Y10812166D01*
X10740012Y10811656D01*
X10740522Y10811316D01*
X10741123Y10811196D01*
X10747089D01*
X10747690Y10811316D01*
X10748199Y10811656D01*
X10748540Y10812166D01*
X10748660Y10812767D01*
Y10816233D01*
X10748540Y10816833D01*
X10748199Y10817344D01*
Y10818157D01*
X10748540Y10818666D01*
X10748660Y10819268D01*
Y10819984D01*
D02*
G37*
G36*
X10780369Y10812213D02*
X10777166D01*
Y10808674D01*
X10781953D01*
Y10810629D01*
X10781832Y10811234D01*
X10781489Y10811748D01*
X10780975Y10812092D01*
X10780369Y10812213D01*
D02*
G37*
G36*
X10775133D02*
X10771929D01*
X10771322Y10812092D01*
X10770808Y10811748D01*
X10770465Y10811234D01*
X10770344Y10810629D01*
Y10808674D01*
X10775133D01*
Y10812213D01*
D02*
G37*
G36*
X10682169Y10806155D02*
X10673259D01*
X10672648Y10806033D01*
X10672129Y10805686D01*
X10672070Y10805599D01*
X10672034Y10805585D01*
X10670696D01*
X10670659Y10805599D01*
X10670601Y10805686D01*
X10670082Y10806033D01*
X10669469Y10806155D01*
X10660559D01*
X10659948Y10806033D01*
X10659429Y10805686D01*
X10659370Y10805599D01*
X10659333Y10805585D01*
X10657996D01*
X10657959Y10805599D01*
X10657900Y10805686D01*
X10657382Y10806033D01*
X10656770Y10806155D01*
X10647860D01*
X10647247Y10806033D01*
X10646729Y10805686D01*
X10646670Y10805599D01*
X10646633Y10805585D01*
X10645295D01*
X10645259Y10805599D01*
X10645200Y10805686D01*
X10644681Y10806033D01*
X10644070Y10806155D01*
X10635160D01*
X10634547Y10806033D01*
X10634028Y10805686D01*
X10633970Y10805599D01*
X10633933Y10805585D01*
X10632595D01*
X10632559Y10805599D01*
X10632501Y10805686D01*
X10631981Y10806033D01*
X10631370Y10806155D01*
X10622460D01*
X10621847Y10806033D01*
X10621328Y10805686D01*
X10621270Y10805599D01*
X10621233Y10805585D01*
X10619895D01*
X10619858Y10805599D01*
X10619801Y10805686D01*
X10619282Y10806033D01*
X10618669Y10806155D01*
X10609760D01*
X10609147Y10806033D01*
X10608628Y10805686D01*
X10608571Y10805599D01*
X10608534Y10805585D01*
X10607196D01*
X10607159Y10805599D01*
X10607101Y10805686D01*
X10606582Y10806033D01*
X10605969Y10806155D01*
X10597059D01*
X10596448Y10806033D01*
X10595928Y10805686D01*
X10595870Y10805599D01*
X10595834Y10805585D01*
X10594496D01*
X10594459Y10805599D01*
X10594401Y10805686D01*
X10593882Y10806033D01*
X10593269Y10806155D01*
X10584359D01*
X10583748Y10806033D01*
X10583229Y10805686D01*
X10583170Y10805599D01*
X10583134Y10805585D01*
X10581796D01*
X10581759Y10805599D01*
X10581700Y10805686D01*
X10581182Y10806033D01*
X10580570Y10806155D01*
X10571659D01*
X10571047Y10806033D01*
X10570529Y10805686D01*
X10570182Y10805167D01*
X10570060Y10804554D01*
Y10795645D01*
X10570182Y10795033D01*
X10570529Y10794514D01*
X10571047Y10794167D01*
X10571659Y10794045D01*
X10580570D01*
X10581182Y10794167D01*
X10581700Y10794514D01*
X10581759Y10794601D01*
X10581796Y10794615D01*
X10583134D01*
X10583170Y10794601D01*
X10583229Y10794514D01*
X10583748Y10794167D01*
X10584359Y10794045D01*
X10593269D01*
X10593882Y10794167D01*
X10594401Y10794514D01*
X10594459Y10794601D01*
X10594496Y10794615D01*
X10595834D01*
X10595870Y10794601D01*
X10595928Y10794514D01*
X10596448Y10794167D01*
X10597059Y10794045D01*
X10605969D01*
X10606582Y10794167D01*
X10607101Y10794514D01*
X10607159Y10794601D01*
X10607196Y10794615D01*
X10608534D01*
X10608571Y10794601D01*
X10608628Y10794514D01*
X10609147Y10794167D01*
X10609760Y10794045D01*
X10618669D01*
X10619282Y10794167D01*
X10619801Y10794514D01*
X10619858Y10794601D01*
X10619895Y10794615D01*
X10621233D01*
X10621270Y10794601D01*
X10621328Y10794514D01*
X10621847Y10794167D01*
X10622460Y10794045D01*
X10631370D01*
X10631981Y10794167D01*
X10632501Y10794514D01*
X10632559Y10794601D01*
X10632595Y10794615D01*
X10633933D01*
X10633970Y10794601D01*
X10634028Y10794514D01*
X10634547Y10794167D01*
X10635160Y10794045D01*
X10644070D01*
X10644681Y10794167D01*
X10645200Y10794514D01*
X10645259Y10794601D01*
X10645295Y10794615D01*
X10646633D01*
X10646670Y10794601D01*
X10646729Y10794514D01*
X10647247Y10794167D01*
X10647860Y10794045D01*
X10656770D01*
X10657382Y10794167D01*
X10657900Y10794514D01*
X10657959Y10794601D01*
X10657996Y10794615D01*
X10659333D01*
X10659370Y10794601D01*
X10659429Y10794514D01*
X10659948Y10794167D01*
X10660559Y10794045D01*
X10669469D01*
X10670082Y10794167D01*
X10670601Y10794514D01*
X10670659Y10794601D01*
X10670696Y10794615D01*
X10672034D01*
X10672070Y10794601D01*
X10672129Y10794514D01*
X10672648Y10794167D01*
X10673259Y10794045D01*
X10682169D01*
X10682782Y10794167D01*
X10683301Y10794514D01*
X10683647Y10795033D01*
X10683770Y10795645D01*
Y10804554D01*
X10683647Y10805167D01*
X10683301Y10805686D01*
X10682782Y10806033D01*
X10682169Y10806155D01*
D02*
G37*
G36*
X10781953Y10806643D02*
X10777166D01*
Y10803104D01*
X10780369D01*
X10780975Y10803224D01*
X10781489Y10803568D01*
X10781832Y10804082D01*
X10781953Y10804689D01*
Y10806643D01*
D02*
G37*
G36*
X10775133D02*
X10770344D01*
Y10804689D01*
X10770465Y10804082D01*
X10770808Y10803568D01*
X10771322Y10803224D01*
X10771929Y10803104D01*
X10775133D01*
Y10806643D01*
D02*
G37*
G36*
X10815486Y10779027D02*
X10813533D01*
Y10774238D01*
X10817070D01*
Y10777443D01*
X10816949Y10778048D01*
X10816606Y10778563D01*
X10816091Y10778906D01*
X10815486Y10779027D01*
D02*
G37*
G36*
X10811500D02*
X10809546D01*
X10808939Y10778906D01*
X10808425Y10778563D01*
X10808082Y10778048D01*
X10807961Y10777443D01*
Y10774238D01*
X10811500D01*
Y10779027D01*
D02*
G37*
G36*
X10817070Y10772206D02*
X10813533D01*
Y10767418D01*
X10815486D01*
X10816091Y10767539D01*
X10816606Y10767882D01*
X10816949Y10768396D01*
X10817070Y10769003D01*
Y10772206D01*
D02*
G37*
G36*
X10811500D02*
X10807961D01*
Y10769003D01*
X10808082Y10768396D01*
X10808425Y10767882D01*
X10808939Y10767539D01*
X10809546Y10767418D01*
X10811500D01*
Y10772206D01*
D02*
G37*
G36*
X10508473Y10765105D02*
X10503027D01*
X10502422Y10764984D01*
X10501909Y10764641D01*
X10501566Y10764128D01*
X10501445Y10763523D01*
Y10762131D01*
X10491050D01*
X10490159Y10761953D01*
X10489402Y10761448D01*
X10477852Y10749899D01*
X10477346Y10749142D01*
X10477169Y10748250D01*
Y10717556D01*
X10457181D01*
X10456550Y10717430D01*
X10456014Y10717073D01*
X10455657Y10716537D01*
X10455531Y10715905D01*
Y10697095D01*
X10455657Y10696464D01*
X10456014Y10695928D01*
X10456550Y10695570D01*
X10457181Y10695444D01*
X10482992D01*
X10483624Y10695570D01*
X10484159Y10695928D01*
X10484517Y10696464D01*
X10484642Y10697095D01*
Y10715905D01*
X10484517Y10716537D01*
X10484159Y10717073D01*
X10483624Y10717430D01*
X10482992Y10717556D01*
X10481831D01*
Y10747285D01*
X10492015Y10757469D01*
X10501445D01*
Y10756078D01*
X10501566Y10755472D01*
X10501909Y10754958D01*
X10502422Y10754615D01*
X10503027Y10754496D01*
X10508473D01*
X10509078Y10754615D01*
X10509591Y10754958D01*
X10509934Y10755472D01*
X10510055Y10756078D01*
Y10763523D01*
X10509934Y10764128D01*
X10509591Y10764641D01*
X10509078Y10764984D01*
X10508473Y10765105D01*
D02*
G37*
G36*
Y10752405D02*
X10503027D01*
X10502422Y10752284D01*
X10501909Y10751941D01*
X10501566Y10751428D01*
X10501445Y10750823D01*
Y10749431D01*
X10495601D01*
X10494708Y10749253D01*
X10493951Y10748748D01*
X10489102Y10743898D01*
X10488596Y10743142D01*
X10488419Y10742250D01*
Y10685000D01*
X10488596Y10684108D01*
X10489102Y10683352D01*
X10492601Y10679852D01*
X10493358Y10679347D01*
X10494250Y10679169D01*
X10497532D01*
Y10672095D01*
X10497657Y10671464D01*
X10498015Y10670928D01*
X10498550Y10670570D01*
X10499182Y10670444D01*
X10524991D01*
X10525624Y10670570D01*
X10526160Y10670928D01*
X10526517Y10671464D01*
X10526643Y10672095D01*
Y10690905D01*
X10526517Y10691537D01*
X10526160Y10692073D01*
X10525624Y10692430D01*
X10524991Y10692556D01*
X10499182D01*
X10498550Y10692430D01*
X10498015Y10692073D01*
X10497657Y10691537D01*
X10497532Y10690905D01*
Y10683831D01*
X10495216D01*
X10493081Y10685966D01*
Y10741284D01*
X10496565Y10744769D01*
X10501445D01*
Y10743378D01*
X10501566Y10742772D01*
X10501909Y10742258D01*
X10502422Y10741917D01*
X10503027Y10741796D01*
X10508473D01*
X10509078Y10741917D01*
X10509591Y10742258D01*
X10509934Y10742772D01*
X10510055Y10743378D01*
Y10750823D01*
X10509934Y10751428D01*
X10509591Y10751941D01*
X10509078Y10752284D01*
X10508473Y10752405D01*
D02*
G37*
G36*
X10465220Y10745304D02*
X10462017D01*
Y10741766D01*
X10466804D01*
Y10743719D01*
X10466683Y10744326D01*
X10466340Y10744840D01*
X10465826Y10745184D01*
X10465220Y10745304D01*
D02*
G37*
G36*
X10459984D02*
X10456780D01*
X10456173Y10745184D01*
X10455659Y10744840D01*
X10455316Y10744326D01*
X10455195Y10743719D01*
Y10741766D01*
X10459984D01*
Y10745304D01*
D02*
G37*
G36*
X10466804Y10739734D02*
X10462017D01*
Y10736195D01*
X10465220D01*
X10465826Y10736316D01*
X10466340Y10736660D01*
X10466683Y10737174D01*
X10466804Y10737780D01*
Y10739734D01*
D02*
G37*
G36*
X10459984D02*
X10455195D01*
Y10737780D01*
X10455316Y10737174D01*
X10455659Y10736660D01*
X10456173Y10736316D01*
X10456780Y10736195D01*
X10459984D01*
Y10739734D01*
D02*
G37*
G36*
X10790486Y10703451D02*
X10787281D01*
Y10699912D01*
X10792070D01*
Y10701866D01*
X10791949Y10702473D01*
X10791606Y10702987D01*
X10791091Y10703330D01*
X10790486Y10703451D01*
D02*
G37*
G36*
X10785249D02*
X10782046D01*
X10781439Y10703330D01*
X10780925Y10702987D01*
X10780582Y10702473D01*
X10780461Y10701866D01*
Y10699912D01*
X10785249D01*
Y10703451D01*
D02*
G37*
G36*
X10508473Y10739705D02*
X10503027D01*
X10502422Y10739584D01*
X10501909Y10739241D01*
X10501566Y10738728D01*
X10501445Y10738123D01*
Y10730677D01*
X10501566Y10730072D01*
X10501909Y10729559D01*
X10502422Y10729216D01*
X10503027Y10729095D01*
X10503419D01*
Y10717556D01*
X10499182D01*
X10498550Y10717430D01*
X10498015Y10717073D01*
X10497657Y10716537D01*
X10497532Y10715905D01*
Y10697095D01*
X10497657Y10696464D01*
X10498015Y10695928D01*
X10498550Y10695570D01*
X10499182Y10695444D01*
X10524991D01*
X10525624Y10695570D01*
X10526160Y10695928D01*
X10526517Y10696464D01*
X10526643Y10697095D01*
Y10715905D01*
X10526517Y10716537D01*
X10526160Y10717073D01*
X10525624Y10717430D01*
X10524991Y10717556D01*
X10508081D01*
Y10729095D01*
X10508473D01*
X10509078Y10729216D01*
X10509591Y10729559D01*
X10509934Y10730072D01*
X10510055Y10730677D01*
Y10738123D01*
X10509934Y10738728D01*
X10509591Y10739241D01*
X10509078Y10739584D01*
X10508473Y10739705D01*
D02*
G37*
G36*
X10792070Y10697881D02*
X10787281D01*
Y10694342D01*
X10790486D01*
X10791091Y10694463D01*
X10791606Y10694806D01*
X10791949Y10695320D01*
X10792070Y10695927D01*
Y10697881D01*
D02*
G37*
G36*
X10785249D02*
X10780461D01*
Y10695927D01*
X10780582Y10695320D01*
X10780925Y10694806D01*
X10781439Y10694463D01*
X10782046Y10694342D01*
X10785249D01*
Y10697881D01*
D02*
G37*
G36*
X10762194Y10677408D02*
X10760239D01*
Y10672620D01*
X10763778D01*
Y10675824D01*
X10763657Y10676431D01*
X10763313Y10676945D01*
X10762799Y10677288D01*
X10762194Y10677408D01*
D02*
G37*
G36*
X10758207D02*
X10756252D01*
X10755647Y10677288D01*
X10755133Y10676945D01*
X10754789Y10676431D01*
X10754669Y10675824D01*
Y10672620D01*
X10758207D01*
Y10677408D01*
D02*
G37*
G36*
X10763778Y10670588D02*
X10760239D01*
Y10665800D01*
X10762194D01*
X10762799Y10665920D01*
X10763313Y10666263D01*
X10763657Y10666777D01*
X10763778Y10667384D01*
Y10670588D01*
D02*
G37*
G36*
X10758207D02*
X10754669D01*
Y10667384D01*
X10754789Y10666777D01*
X10755133Y10666263D01*
X10755647Y10665920D01*
X10756252Y10665800D01*
X10758207D01*
Y10670588D01*
D02*
G37*
G36*
X10473682Y10663223D02*
X10469749D01*
Y10652174D01*
X10475797D01*
Y10661107D01*
X10475636Y10661917D01*
X10475177Y10662603D01*
X10474491Y10663062D01*
X10473682Y10663223D01*
D02*
G37*
G36*
X10467717D02*
X10463782D01*
X10462972Y10663062D01*
X10462286Y10662603D01*
X10461829Y10661917D01*
X10461667Y10661107D01*
Y10652174D01*
X10467717D01*
Y10663223D01*
D02*
G37*
G36*
X10804669Y10663221D02*
X10800735D01*
Y10652173D01*
X10806783D01*
Y10661107D01*
X10806622Y10661917D01*
X10806165Y10662603D01*
X10805479Y10663062D01*
X10804669Y10663221D01*
D02*
G37*
G36*
X10798702D02*
X10794769D01*
X10793960Y10663062D01*
X10793274Y10662603D01*
X10792815Y10661917D01*
X10792654Y10661107D01*
Y10652173D01*
X10798702D01*
Y10663221D01*
D02*
G37*
G36*
X10475797Y10650142D02*
X10469749D01*
Y10639093D01*
X10473682D01*
X10474491Y10639254D01*
X10475177Y10639712D01*
X10475636Y10640398D01*
X10475797Y10641207D01*
Y10650142D01*
D02*
G37*
G36*
X10467717D02*
X10461667D01*
Y10641207D01*
X10461829Y10640398D01*
X10462286Y10639712D01*
X10462972Y10639254D01*
X10463782Y10639093D01*
X10467717D01*
Y10650142D01*
D02*
G37*
G36*
X10806783Y10650142D02*
X10800735D01*
Y10639093D01*
X10804669D01*
X10805479Y10639254D01*
X10806165Y10639712D01*
X10806622Y10640398D01*
X10806783Y10641207D01*
Y10650142D01*
D02*
G37*
G36*
X10798702D02*
X10792654D01*
Y10641207D01*
X10792815Y10640398D01*
X10793274Y10639712D01*
X10793960Y10639254D01*
X10794769Y10639093D01*
X10798702D01*
Y10650142D01*
D02*
G37*
G36*
X10841182Y10663513D02*
X10825881D01*
X10823826Y10663242D01*
X10821910Y10662449D01*
X10820266Y10661187D01*
X10819004Y10659542D01*
X10818210Y10657627D01*
X10817980Y10655879D01*
X10817853Y10655570D01*
Y10634647D01*
X10817935Y10634449D01*
X10818304Y10631638D01*
X10819465Y10628835D01*
X10821312Y10626428D01*
X10823719Y10624580D01*
X10826523Y10623419D01*
X10829531Y10623024D01*
X10837532D01*
X10840540Y10623419D01*
X10843344Y10624580D01*
X10845751Y10626428D01*
X10847598Y10628835D01*
X10848759Y10631638D01*
X10849122Y10634399D01*
X10849225Y10634647D01*
Y10655570D01*
X10849076Y10655929D01*
X10848853Y10657627D01*
X10848059Y10659542D01*
X10846797Y10661187D01*
X10845153Y10662449D01*
X10843237Y10663242D01*
X10841182Y10663513D01*
D02*
G37*
G36*
X10473682Y10572222D02*
X10469749D01*
Y10561174D01*
X10475797D01*
Y10570107D01*
X10475636Y10570917D01*
X10475177Y10571603D01*
X10474491Y10572062D01*
X10473682Y10572222D01*
D02*
G37*
G36*
X10467716D02*
X10463782D01*
X10462972Y10572062D01*
X10462286Y10571603D01*
X10461829Y10570917D01*
X10461667Y10570107D01*
Y10561174D01*
X10467716D01*
Y10572222D01*
D02*
G37*
G36*
X10804669Y10572222D02*
X10800735D01*
Y10561173D01*
X10806783D01*
Y10570107D01*
X10806622Y10570917D01*
X10806165Y10571603D01*
X10805479Y10572061D01*
X10804669Y10572222D01*
D02*
G37*
G36*
X10798704D02*
X10794769D01*
X10793960Y10572061D01*
X10793274Y10571603D01*
X10792815Y10570917D01*
X10792654Y10570107D01*
Y10561173D01*
X10798704D01*
Y10572222D01*
D02*
G37*
G36*
X10475797Y10559142D02*
X10469749D01*
Y10548093D01*
X10473682D01*
X10474491Y10548254D01*
X10475177Y10548712D01*
X10475636Y10549398D01*
X10475797Y10550208D01*
Y10559142D01*
D02*
G37*
G36*
X10467716D02*
X10461667D01*
Y10550208D01*
X10461829Y10549398D01*
X10462286Y10548712D01*
X10462972Y10548254D01*
X10463782Y10548093D01*
X10467716D01*
Y10559142D01*
D02*
G37*
G36*
X10806783Y10559142D02*
X10800735D01*
Y10548093D01*
X10804669D01*
X10805479Y10548253D01*
X10806165Y10548712D01*
X10806622Y10549398D01*
X10806783Y10550208D01*
Y10559142D01*
D02*
G37*
G36*
X10798704D02*
X10792654D01*
Y10550208D01*
X10792815Y10549398D01*
X10793274Y10548712D01*
X10793960Y10548253D01*
X10794769Y10548093D01*
X10798704D01*
Y10559142D01*
D02*
G37*
%LPD*%
G36*
X10847576Y10634647D02*
X10819502D01*
Y10655570D01*
X10847576D01*
Y10634647D01*
D02*
G37*
D10*
X10470087Y10706500D02*
D03*
Y10681500D02*
D03*
X10512087D02*
D03*
Y10706500D02*
D03*
D11*
X10790723Y10784043D02*
D03*
X10767723D02*
D03*
X10744723D02*
D03*
D12*
X10767723Y10725542D02*
D03*
D13*
X10461000Y10726250D02*
D03*
Y10740750D02*
D03*
X10786266Y10698896D02*
D03*
Y10684397D02*
D03*
X10776149Y10822158D02*
D03*
Y10807659D02*
D03*
D14*
X10839515Y10753929D02*
D03*
X10812516D02*
D03*
X10771722Y10699750D02*
D03*
X10744723D02*
D03*
D15*
X10512732Y10651157D02*
D03*
Y10560157D02*
D03*
X10468732Y10651157D02*
D03*
Y10560157D02*
D03*
X10799719Y10651157D02*
D03*
Y10560157D02*
D03*
X10755719Y10651157D02*
D03*
Y10560157D02*
D03*
D16*
X10827015Y10773223D02*
D03*
X10812516D02*
D03*
X10759222Y10671604D02*
D03*
X10744723D02*
D03*
D17*
X10784766Y10672104D02*
D03*
X10770266D02*
D03*
X10520250Y10759800D02*
D03*
X10505750D02*
D03*
Y10747100D02*
D03*
X10520250D02*
D03*
Y10734399D02*
D03*
X10505750D02*
D03*
D18*
X10795750Y10825835D02*
D03*
Y10806835D02*
D03*
X10817750Y10816335D02*
D03*
D19*
X10643414Y10695341D02*
D03*
X10625082D02*
D03*
X10661744D02*
D03*
Y10677010D02*
D03*
X10625082D02*
D03*
X10643414D02*
D03*
Y10713669D02*
D03*
X10625082D02*
D03*
X10661744D02*
D03*
D20*
X10723414Y10620100D02*
D03*
Y10632800D02*
D03*
Y10645500D02*
D03*
Y10658199D02*
D03*
Y10670900D02*
D03*
Y10683600D02*
D03*
Y10696300D02*
D03*
Y10709000D02*
D03*
Y10721700D02*
D03*
Y10734399D02*
D03*
Y10747100D02*
D03*
Y10759800D02*
D03*
Y10772500D02*
D03*
Y10785200D02*
D03*
X10690415Y10800100D02*
D03*
X10677715D02*
D03*
X10665015D02*
D03*
X10652314D02*
D03*
X10639614D02*
D03*
X10626914D02*
D03*
X10614215D02*
D03*
X10601515D02*
D03*
X10588815D02*
D03*
X10576115D02*
D03*
X10543075Y10785200D02*
D03*
Y10772500D02*
D03*
Y10759800D02*
D03*
Y10747100D02*
D03*
Y10734399D02*
D03*
Y10721700D02*
D03*
Y10709000D02*
D03*
Y10696300D02*
D03*
Y10683600D02*
D03*
Y10670900D02*
D03*
Y10658199D02*
D03*
Y10645500D02*
D03*
Y10632800D02*
D03*
Y10620100D02*
D03*
D21*
X10744106Y10827500D02*
D03*
Y10821000D02*
D03*
Y10814500D02*
D03*
X10763606D02*
D03*
Y10821000D02*
D03*
Y10827500D02*
D03*
D22*
X10850516Y10788234D02*
X10854750Y10784000D01*
Y10709500D02*
Y10784000D01*
X10851621Y10706371D02*
X10854750Y10709500D01*
X10830516Y10788234D02*
X10850516D01*
X10716750Y10646428D02*
Y10790563D01*
X10720084Y10793896D01*
X10722878Y10785200D02*
Y10825372D01*
Y10785200D02*
X10723414D01*
X10829457Y10789293D02*
Y10830957D01*
Y10789293D02*
X10830516Y10788234D01*
X10829457Y10830957D02*
X10831500Y10833000D01*
X10784766Y10672104D02*
Y10684397D01*
X10786266D01*
X10833531Y10706371D02*
X10851621D01*
X10549750Y10671500D02*
Y10809000D01*
X10548149Y10810601D02*
X10549750Y10809000D01*
X10520934Y10810601D02*
X10548149D01*
X10552544Y10670343D02*
Y10825457D01*
X10551145Y10826855D02*
X10552544Y10825457D01*
X10497271Y10826855D02*
X10551145D01*
X10495533Y10825120D02*
X10497271Y10826855D01*
X10495533Y10810601D02*
Y10825120D01*
X10471729Y10829650D02*
X10714351D01*
X10470134Y10828054D02*
X10471729Y10829650D01*
X10470134Y10810601D02*
Y10828054D01*
X10733250Y10827500D02*
X10744106D01*
X10764987Y10835237D02*
X10816763D01*
X10763606Y10833856D02*
X10764987Y10835237D01*
X10763606Y10827500D02*
Y10833856D01*
X10816763Y10835237D02*
X10819000Y10833000D01*
X10715966Y10825519D02*
Y10828033D01*
X10714351Y10829650D02*
X10715966Y10828033D01*
X10720084Y10793896D02*
Y10821400D01*
X10715966Y10825519D02*
X10720084Y10821400D01*
X10720750Y10827500D02*
X10722878Y10825372D01*
X10784766Y10655515D02*
Y10672104D01*
X10782407Y10653158D02*
X10784766Y10655515D01*
X10755719Y10653158D02*
X10782407D01*
X10716750Y10646428D02*
X10717678Y10645500D01*
X10770266Y10672104D02*
Y10686234D01*
X10768531Y10687969D02*
X10770266Y10686234D01*
X10744723Y10687969D02*
X10768531D01*
X10755719Y10613693D02*
Y10653158D01*
X10753638Y10611613D02*
X10755719Y10613693D01*
Y10562157D02*
Y10609531D01*
X10753638Y10611613D02*
X10755719Y10609531D01*
X10709656Y10611613D02*
X10753638D01*
X10705338Y10615930D02*
X10709656Y10611613D01*
X10705338Y10625328D02*
X10709402Y10629392D01*
X10705338Y10615930D02*
Y10625328D01*
X10714229Y10629392D02*
X10716755Y10631919D01*
X10709402Y10629392D02*
X10714229D01*
X10716755Y10631919D02*
Y10644578D01*
X10512732Y10645500D02*
X10543075D01*
X10512732Y10562157D02*
Y10653158D01*
X10549734Y10667532D02*
X10552544Y10670343D01*
X10549150Y10670900D02*
X10549750Y10671500D01*
X10520934Y10785200D02*
X10543075D01*
X10716755Y10644578D02*
X10717678Y10645500D01*
X10723414D01*
X10549734Y10658983D02*
Y10667532D01*
X10548950Y10658199D02*
X10549734Y10658983D01*
X10543075Y10658199D02*
X10548950D01*
X10543075Y10670900D02*
X10549150D01*
D23*
X10790723Y10784043D02*
X10790739Y10784058D01*
X10827015D01*
X10453250Y10687750D02*
X10470087D01*
Y10681500D02*
Y10687750D01*
X10450031Y10690969D02*
X10453250Y10687750D01*
X10825265Y10816335D02*
Y10835662D01*
Y10784043D02*
Y10816335D01*
X10821499Y10839427D02*
X10825265Y10835662D01*
X10839515Y10731771D02*
Y10753929D01*
Y10781234D01*
X10833531Y10731771D02*
X10839515D01*
X10836708Y10784043D02*
X10839515Y10781234D01*
X10827015Y10784043D02*
X10836708D01*
X10469993Y10833840D02*
X10724410D01*
X10465944Y10829790D02*
X10469993Y10833840D01*
X10465944Y10822045D02*
Y10829790D01*
X10467678Y10839427D02*
X10821499D01*
X10460355Y10832104D02*
X10467678Y10839427D01*
X10460355Y10824359D02*
Y10832104D01*
X10466981Y10796256D02*
X10474713D01*
X10459078Y10804159D02*
X10466981Y10796256D01*
X10459078Y10804159D02*
Y10815179D01*
X10453490Y10801844D02*
X10470134Y10785200D01*
X10453490Y10801844D02*
Y10817494D01*
X10481190Y10780620D02*
Y10789779D01*
X10474713Y10796256D02*
X10481190Y10789779D01*
X10727069Y10807681D02*
Y10831180D01*
X10724410Y10833840D02*
X10727069Y10831180D01*
X10736250Y10634500D02*
Y10656250D01*
X10734550Y10632800D02*
X10736250Y10634500D01*
X10723414Y10632800D02*
X10734550D01*
X10744723Y10784043D02*
Y10800027D01*
X10741500Y10803250D02*
X10744723Y10800027D01*
X10731500Y10803250D02*
X10741500D01*
X10727069Y10807681D02*
X10731500Y10803250D01*
X10744723Y10699750D02*
Y10784043D01*
X10450031Y10690969D02*
Y10726250D01*
Y10770031D01*
X10454144Y10774144D02*
X10474713D01*
X10450031Y10770031D02*
X10454144Y10774144D01*
X10474713D02*
X10481190Y10780620D01*
X10453490Y10817494D02*
X10460355Y10824359D01*
X10459078Y10815179D02*
X10465944Y10822045D01*
X10736250Y10656250D02*
X10744723Y10664723D01*
Y10687969D02*
Y10699750D01*
Y10678500D02*
Y10687969D01*
D24*
X10479500Y10706500D02*
Y10748250D01*
X10470087Y10706500D02*
X10479500D01*
X10786250Y10808250D02*
Y10819000D01*
X10776149Y10821000D02*
X10784250D01*
X10786250Y10819000D01*
X10787665Y10806835D02*
X10795750D01*
X10786250Y10808250D02*
X10787665Y10806835D01*
X10763606Y10821000D02*
X10776149D01*
Y10822158D01*
X10450031Y10726250D02*
X10461000D01*
X10491050Y10759800D02*
X10505750D01*
X10479500Y10748250D02*
X10491050Y10759800D01*
X10505750Y10706500D02*
X10512087D01*
X10505750D02*
Y10734399D01*
X10494250Y10681500D02*
X10512087D01*
X10490750Y10685000D02*
X10494250Y10681500D01*
X10490750Y10685000D02*
Y10742250D01*
X10495601Y10747100D01*
X10505750D01*
X10520250Y10734399D02*
X10543075D01*
X10520250Y10747100D02*
X10543075D01*
X10520250Y10759800D02*
X10543075D01*
D25*
X10825265Y10816335D02*
X10826117D01*
X10817750D02*
X10825265D01*
X10826117D02*
X10826282Y10816500D01*
X10827015Y10773223D02*
Y10784043D01*
X10744723Y10664723D02*
Y10671604D01*
Y10678500D01*
D26*
X10833531Y10655571D02*
D03*
Y10706371D02*
D03*
Y10731771D02*
D03*
D27*
Y10680972D02*
D03*
D28*
Y10601627D02*
D03*
Y10634647D02*
D03*
D29*
X10520934Y10810601D02*
D03*
X10495533D02*
D03*
X10470134D02*
D03*
Y10785200D02*
D03*
X10495533D02*
D03*
X10520934D02*
D03*
D30*
X10425000Y10734000D02*
D03*
Y10654000D02*
D03*
X10874974D02*
D03*
Y10734000D02*
D03*
D31*
Y10819000D02*
D03*
X10425000D02*
D03*
Y10569000D02*
D03*
X10874974D02*
D03*
D32*
X10805000Y10825835D02*
D03*
X10735000Y10681750D02*
D03*
X10471000Y10740750D02*
D03*
X10713466Y10620100D02*
D03*
X10553446D02*
D03*
X10733278D02*
D03*
X10652526Y10704342D02*
D03*
Y10686053D02*
D03*
X10634238Y10704342D02*
D03*
Y10686053D02*
D03*
X10670814D02*
D03*
Y10704342D02*
D03*
X10615950Y10686053D02*
D03*
Y10704342D02*
D03*
X10634238Y10722885D02*
D03*
X10652526D02*
D03*
Y10668020D02*
D03*
X10634238D02*
D03*
X10759222Y10681750D02*
D03*
X10690250Y10789500D02*
D03*
X10735500Y10819750D02*
D03*
D33*
X10819000Y10833000D02*
D03*
X10831500D02*
D03*
X10733250Y10827500D02*
D03*
X10720750D02*
D03*
M02*
