G04 Layer_Physical_Order=2*
G04 Layer_Color=16711680*
%FSAX44Y44*%
%MOMM*%
G71*
G01*
G75*
%ADD26C,1.2700*%
%ADD27C,3.5000*%
%ADD28C,1.5000*%
%ADD29C,2.0000*%
G04:AMPARAMS|DCode=30|XSize=2mm|YSize=2mm|CornerRadius=0.2mm|HoleSize=0mm|Usage=FLASHONLY|Rotation=270.000|XOffset=0mm|YOffset=0mm|HoleType=Round|Shape=RoundedRectangle|*
%AMROUNDEDRECTD30*
21,1,2.0000,1.6000,0,0,270.0*
21,1,1.6000,2.0000,0,0,270.0*
1,1,0.4000,-0.8000,-0.8000*
1,1,0.4000,-0.8000,0.8000*
1,1,0.4000,0.8000,0.8000*
1,1,0.4000,0.8000,-0.8000*
%
%ADD30ROUNDEDRECTD30*%
G04:AMPARAMS|DCode=31|XSize=1.27mm|YSize=2.8mm|CornerRadius=0.635mm|HoleSize=0mm|Usage=FLASHONLY|Rotation=90.000|XOffset=0mm|YOffset=0mm|HoleType=Round|Shape=RoundedRectangle|*
%AMROUNDEDRECTD31*
21,1,1.2700,1.5300,0,0,90.0*
21,1,0.0000,2.8000,0,0,90.0*
1,1,1.2700,0.7650,0.0000*
1,1,1.2700,0.7650,0.0000*
1,1,1.2700,-0.7650,0.0000*
1,1,1.2700,-0.7650,0.0000*
%
%ADD31ROUNDEDRECTD31*%
G04:AMPARAMS|DCode=32|XSize=1.27mm|YSize=2.8mm|CornerRadius=0.1588mm|HoleSize=0mm|Usage=FLASHONLY|Rotation=90.000|XOffset=0mm|YOffset=0mm|HoleType=Round|Shape=RoundedRectangle|*
%AMROUNDEDRECTD32*
21,1,1.2700,2.4825,0,0,90.0*
21,1,0.9525,2.8000,0,0,90.0*
1,1,0.3175,1.2412,0.4763*
1,1,0.3175,1.2412,-0.4763*
1,1,0.3175,-1.2412,-0.4763*
1,1,0.3175,-1.2412,0.4763*
%
%ADD32ROUNDEDRECTD32*%
%ADD33O,3.0000X2.0000*%
%ADD34C,0.7000*%
G36*
X10534681Y10348214D02*
X10539001Y10347178D01*
X10543105Y10345477D01*
X10546893Y10343157D01*
X10550271Y10340271D01*
X10553157Y10336893D01*
X10555477Y10333105D01*
X10557178Y10329001D01*
X10558214Y10324681D01*
X10558551Y10320405D01*
X10558488Y10320253D01*
Y10028680D01*
X10558549Y10028534D01*
X10558225Y10024419D01*
X10557227Y10020262D01*
X10555591Y10016313D01*
X10553357Y10012669D01*
X10550581Y10009418D01*
X10547332Y10006642D01*
X10543687Y10004409D01*
X10539738Y10002773D01*
X10535581Y10001776D01*
X10531466Y10001451D01*
X10531320Y10001512D01*
X10361482D01*
Y10058400D01*
X10361079Y10059372D01*
X10360107Y10059775D01*
X10197293D01*
X10196321Y10059372D01*
X10195919Y10058400D01*
Y10001512D01*
X10029747D01*
X10029595Y10001449D01*
X10025319Y10001785D01*
X10020999Y10002822D01*
X10016895Y10004523D01*
X10013107Y10006844D01*
X10009729Y10009729D01*
X10006844Y10013107D01*
X10004523Y10016895D01*
X10002822Y10020999D01*
X10001785Y10025319D01*
X10001449Y10029595D01*
X10001512Y10029747D01*
Y10320253D01*
X10001449Y10320405D01*
X10001785Y10324681D01*
X10002822Y10329001D01*
X10004523Y10333105D01*
X10006844Y10336893D01*
X10009729Y10340271D01*
X10013107Y10343157D01*
X10016895Y10345477D01*
X10020999Y10347178D01*
X10025319Y10348214D01*
X10029595Y10348551D01*
X10029747Y10348488D01*
X10530253D01*
X10530405Y10348551D01*
X10534681Y10348214D01*
D02*
G37*
%LPC*%
G36*
X10109041Y10306346D02*
Y10298938D01*
X10116448D01*
X10116314Y10299957D01*
X10115430Y10302091D01*
X10114025Y10303923D01*
X10112193Y10305328D01*
X10110059Y10306212D01*
X10109041Y10306346D01*
D02*
G37*
G36*
X10106500Y10306346D02*
X10105480Y10306212D01*
X10103347Y10305328D01*
X10101516Y10303923D01*
X10100109Y10302091D01*
X10099226Y10299957D01*
X10099092Y10298938D01*
X10106500D01*
Y10306346D01*
D02*
G37*
G36*
X10116448Y10296398D02*
X10109041D01*
Y10288989D01*
X10110059Y10289124D01*
X10112193Y10290007D01*
X10114025Y10291414D01*
X10115430Y10293245D01*
X10116314Y10295378D01*
X10116448Y10296398D01*
D02*
G37*
G36*
X10106500D02*
X10099092D01*
X10099226Y10295378D01*
X10100109Y10293245D01*
X10101516Y10291414D01*
X10103347Y10290007D01*
X10105480Y10289124D01*
X10106500Y10288989D01*
Y10296398D01*
D02*
G37*
G36*
X10133170Y10306514D02*
X10130881Y10306212D01*
X10128747Y10305328D01*
X10126915Y10303923D01*
X10125510Y10302091D01*
X10124626Y10299957D01*
X10124324Y10297668D01*
X10124626Y10295378D01*
X10125510Y10293245D01*
X10126915Y10291414D01*
X10128747Y10290007D01*
X10130881Y10289124D01*
X10133170Y10288822D01*
X10135460Y10289124D01*
X10137593Y10290007D01*
X10139425Y10291414D01*
X10140831Y10293245D01*
X10141714Y10295378D01*
X10142016Y10297668D01*
X10141714Y10299957D01*
X10140831Y10302091D01*
X10139425Y10303923D01*
X10137593Y10305328D01*
X10135460Y10306212D01*
X10133170Y10306514D01*
D02*
G37*
G36*
X10082370D02*
X10080081Y10306212D01*
X10077947Y10305328D01*
X10076115Y10303923D01*
X10074709Y10302091D01*
X10073826Y10299957D01*
X10073524Y10297668D01*
X10073826Y10295378D01*
X10074709Y10293245D01*
X10076115Y10291414D01*
X10077947Y10290007D01*
X10080081Y10289124D01*
X10082370Y10288822D01*
X10084659Y10289124D01*
X10086793Y10290007D01*
X10088625Y10291414D01*
X10090031Y10293245D01*
X10090914Y10295378D01*
X10091216Y10297668D01*
X10090914Y10299957D01*
X10090031Y10302091D01*
X10088625Y10303923D01*
X10086793Y10305328D01*
X10084659Y10306212D01*
X10082370Y10306514D01*
D02*
G37*
G36*
X10133170Y10281113D02*
X10130881Y10280812D01*
X10128747Y10279929D01*
X10126915Y10278523D01*
X10125510Y10276691D01*
X10124626Y10274557D01*
X10124324Y10272268D01*
X10124626Y10269978D01*
X10125510Y10267845D01*
X10126915Y10266013D01*
X10128747Y10264607D01*
X10130881Y10263723D01*
X10133170Y10263423D01*
X10135460Y10263723D01*
X10137593Y10264607D01*
X10139425Y10266013D01*
X10140831Y10267845D01*
X10141714Y10269978D01*
X10142016Y10272268D01*
X10141714Y10274557D01*
X10140831Y10276691D01*
X10139425Y10278523D01*
X10137593Y10279929D01*
X10135460Y10280812D01*
X10133170Y10281113D01*
D02*
G37*
G36*
X10107770D02*
X10105480Y10280812D01*
X10103347Y10279929D01*
X10101516Y10278523D01*
X10100109Y10276691D01*
X10099226Y10274557D01*
X10098925Y10272268D01*
X10099226Y10269978D01*
X10100109Y10267845D01*
X10101516Y10266013D01*
X10103347Y10264607D01*
X10105480Y10263723D01*
X10107770Y10263423D01*
X10110059Y10263723D01*
X10112193Y10264607D01*
X10114025Y10266013D01*
X10115430Y10267845D01*
X10116314Y10269978D01*
X10116616Y10272268D01*
X10116314Y10274557D01*
X10115430Y10276691D01*
X10114025Y10278523D01*
X10112193Y10279929D01*
X10110059Y10280812D01*
X10107770Y10281113D01*
D02*
G37*
G36*
X10082370D02*
X10080081Y10280812D01*
X10077947Y10279929D01*
X10076115Y10278523D01*
X10074709Y10276691D01*
X10073826Y10274557D01*
X10073524Y10272268D01*
X10073826Y10269978D01*
X10074709Y10267845D01*
X10076115Y10266013D01*
X10077947Y10264607D01*
X10080081Y10263723D01*
X10082370Y10263423D01*
X10084659Y10263723D01*
X10086793Y10264607D01*
X10088625Y10266013D01*
X10090031Y10267845D01*
X10090914Y10269978D01*
X10091216Y10272268D01*
X10090914Y10274557D01*
X10090031Y10276691D01*
X10088625Y10278523D01*
X10086793Y10279929D01*
X10084659Y10280812D01*
X10082370Y10281113D01*
D02*
G37*
G36*
X10497629Y10220786D02*
X10482330D01*
X10480341Y10220524D01*
X10478488Y10219756D01*
X10476896Y10218535D01*
X10475674Y10216943D01*
X10474906Y10215089D01*
X10474645Y10213100D01*
X10474906Y10211111D01*
X10475674Y10209257D01*
X10476896Y10207665D01*
X10478488Y10206444D01*
X10480341Y10205676D01*
X10482330Y10205414D01*
X10497629D01*
X10499619Y10205676D01*
X10501473Y10206444D01*
X10503065Y10207665D01*
X10504286Y10209257D01*
X10505054Y10211111D01*
X10505316Y10213100D01*
X10505054Y10215089D01*
X10504286Y10216943D01*
X10503065Y10218535D01*
X10501473Y10219756D01*
X10499619Y10220524D01*
X10497629Y10220786D01*
D02*
G37*
G36*
Y10195386D02*
X10482330D01*
X10480341Y10195124D01*
X10478488Y10194356D01*
X10476896Y10193135D01*
X10475674Y10191543D01*
X10474906Y10189689D01*
X10474645Y10187700D01*
X10474906Y10185711D01*
X10475674Y10183857D01*
X10476896Y10182265D01*
X10478488Y10181044D01*
X10480341Y10180276D01*
X10482330Y10180014D01*
X10497629D01*
X10499619Y10180276D01*
X10501473Y10181044D01*
X10503065Y10182265D01*
X10504286Y10183857D01*
X10505054Y10185711D01*
X10505316Y10187700D01*
X10505054Y10189689D01*
X10504286Y10191543D01*
X10503065Y10193135D01*
X10501473Y10194356D01*
X10499619Y10195124D01*
X10497629Y10195386D01*
D02*
G37*
G36*
X10502393Y10169976D02*
X10491250D01*
Y10163571D01*
X10505306D01*
Y10167062D01*
X10505084Y10168177D01*
X10504453Y10169122D01*
X10503507Y10169754D01*
X10502393Y10169976D01*
D02*
G37*
G36*
X10488710D02*
X10477567D01*
X10476453Y10169754D01*
X10475508Y10169122D01*
X10474875Y10168177D01*
X10474655Y10167062D01*
Y10163571D01*
X10488710D01*
Y10169976D01*
D02*
G37*
G36*
X10505306Y10161030D02*
X10491250D01*
Y10154624D01*
X10502393D01*
X10503507Y10154846D01*
X10504453Y10155477D01*
X10505084Y10156423D01*
X10505306Y10157537D01*
Y10161030D01*
D02*
G37*
G36*
X10488710D02*
X10474655D01*
Y10157537D01*
X10474875Y10156423D01*
X10475508Y10155477D01*
X10476453Y10154846D01*
X10477567Y10154624D01*
X10488710D01*
Y10161030D01*
D02*
G37*
G36*
X10497629Y10144586D02*
X10482330D01*
X10480341Y10144324D01*
X10478488Y10143556D01*
X10476896Y10142335D01*
X10475674Y10140743D01*
X10474906Y10138889D01*
X10474645Y10136900D01*
X10474906Y10134911D01*
X10475674Y10133057D01*
X10476896Y10131465D01*
X10478488Y10130244D01*
X10480341Y10129476D01*
X10482294Y10129219D01*
Y10124148D01*
X10481942Y10123878D01*
X10480135Y10121523D01*
X10479000Y10118782D01*
X10478613Y10115840D01*
X10479000Y10112898D01*
X10480135Y10110156D01*
X10481942Y10107802D01*
X10484297Y10105995D01*
X10487039Y10104860D01*
X10489980Y10104473D01*
X10492922Y10104860D01*
X10495664Y10105995D01*
X10498018Y10107802D01*
X10499824Y10110156D01*
X10500959Y10112898D01*
X10501348Y10115840D01*
X10500959Y10118782D01*
X10499824Y10121523D01*
X10498018Y10123878D01*
X10497666Y10124148D01*
Y10129219D01*
X10499619Y10129476D01*
X10501473Y10130244D01*
X10503065Y10131465D01*
X10504286Y10133057D01*
X10505054Y10134911D01*
X10505316Y10136900D01*
X10505054Y10138889D01*
X10504286Y10140743D01*
X10503065Y10142335D01*
X10501473Y10143556D01*
X10499619Y10144324D01*
X10497629Y10144586D01*
D02*
G37*
G36*
X10497980Y10101774D02*
X10491250D01*
Y10091710D01*
X10501315D01*
Y10098440D01*
X10501061Y10099716D01*
X10500337Y10100798D01*
X10499255Y10101520D01*
X10497980Y10101774D01*
D02*
G37*
G36*
X10488710D02*
X10481980D01*
X10480704Y10101520D01*
X10479623Y10100798D01*
X10478900Y10099716D01*
X10478646Y10098440D01*
Y10091710D01*
X10488710D01*
Y10101774D01*
D02*
G37*
G36*
X10501315Y10089169D02*
X10491250D01*
Y10079106D01*
X10497980D01*
X10499255Y10079360D01*
X10500337Y10080082D01*
X10501061Y10081164D01*
X10501315Y10082440D01*
Y10089169D01*
D02*
G37*
G36*
X10488710D02*
X10478646D01*
Y10082440D01*
X10478900Y10081164D01*
X10479623Y10080082D01*
X10480704Y10079360D01*
X10481980Y10079106D01*
X10488710D01*
Y10089169D01*
D02*
G37*
%LPD*%
D26*
X10489980Y10115840D02*
Y10136900D01*
D27*
X10530000Y10030000D02*
D03*
Y10320000D02*
D03*
X10030000Y10030000D02*
D03*
Y10320000D02*
D03*
D28*
X10082370Y10297668D02*
D03*
X10107770D02*
D03*
X10133170D02*
D03*
Y10272268D02*
D03*
X10107770D02*
D03*
X10082370D02*
D03*
D29*
X10489980Y10115840D02*
D03*
D30*
Y10090440D02*
D03*
D31*
Y10213100D02*
D03*
Y10187700D02*
D03*
Y10136900D02*
D03*
D32*
Y10162300D02*
D03*
D33*
X10530000Y10205000D02*
D03*
Y10145000D02*
D03*
X10030000D02*
D03*
Y10205000D02*
D03*
D34*
X10065512Y10042916D02*
D03*
X10180828D02*
D03*
X10196068Y10239756D02*
D03*
X10205212D02*
D03*
X10219436Y10226870D02*
D03*
X10367772Y10253616D02*
D03*
X10382666Y10264648D02*
D03*
X10397490Y10253726D02*
D03*
X10459863Y10243058D02*
D03*
X10445363Y10297159D02*
D03*
X10473171Y10242042D02*
D03*
X10486172D02*
D03*
X10432795Y10150094D02*
D03*
X10442957D02*
D03*
X10413492Y10168116D02*
D03*
X10462769D02*
D03*
X10457488Y10051034D02*
D03*
X10169398Y10245676D02*
D03*
X10085070Y10135870D02*
D03*
X10457488Y10079482D02*
D03*
M02*
