G04 Layer_Color=16777215*
%FSAX44Y44*%
%MOMM*%
G71*
G01*
G75*
%ADD24C,0.1270*%
%ADD25C,0.2540*%
%ADD35C,0.5000*%
%ADD36C,0.2500*%
%ADD37C,0.1500*%
%ADD38C,0.0127*%
%ADD39C,0.1016*%
%ADD40C,0.2032*%
%ADD41C,0.2000*%
%ADD42C,0.1524*%
G36*
X10198286Y10336049D02*
X10200883D01*
Y10333425D01*
X10198286D01*
Y10328796D01*
Y10328768D01*
Y10328712D01*
Y10328628D01*
X10198314Y10328514D01*
X10198371Y10328232D01*
X10198455Y10327922D01*
X10198625Y10327583D01*
X10198907Y10327301D01*
X10199048Y10327189D01*
X10199246Y10327103D01*
X10199471Y10327047D01*
X10199725Y10327019D01*
X10199810D01*
X10199923Y10327047D01*
X10200092D01*
X10200459Y10327159D01*
X10200657Y10327217D01*
X10200883Y10327329D01*
Y10324705D01*
X10200854Y10324677D01*
X10200742Y10324648D01*
X10200544Y10324592D01*
X10200290Y10324536D01*
X10199951Y10324451D01*
X10199556Y10324395D01*
X10199077Y10324366D01*
X10198512Y10324338D01*
X10198343D01*
X10198173Y10324366D01*
X10197919Y10324395D01*
X10197637Y10324451D01*
X10197327Y10324536D01*
X10196988Y10324648D01*
X10196650Y10324818D01*
X10196311Y10325016D01*
X10195972Y10325270D01*
X10195662Y10325580D01*
X10195380Y10325946D01*
X10195126Y10326398D01*
X10194956Y10326906D01*
X10194843Y10327499D01*
X10194787Y10328176D01*
Y10333425D01*
X10192925D01*
Y10336049D01*
X10194787D01*
Y10338505D01*
X10198286Y10339520D01*
Y10336049D01*
D02*
G37*
G36*
X10329309Y10336274D02*
X10329507Y10336246D01*
X10329703Y10336218D01*
X10330155Y10336106D01*
X10330663Y10335908D01*
X10330918Y10335795D01*
X10331200Y10335626D01*
X10331426Y10335428D01*
X10331680Y10335231D01*
X10331906Y10334977D01*
X10332102Y10334695D01*
X10332159D01*
Y10336049D01*
X10335686D01*
Y10325890D01*
Y10325862D01*
Y10325750D01*
Y10325580D01*
X10335658Y10325382D01*
X10335630Y10325100D01*
X10335602Y10324790D01*
X10335546Y10324451D01*
X10335460Y10324084D01*
X10335234Y10323293D01*
X10335094Y10322899D01*
X10334896Y10322476D01*
X10334698Y10322080D01*
X10334445Y10321686D01*
X10334163Y10321318D01*
X10333824Y10320980D01*
X10333795Y10320952D01*
X10333739Y10320895D01*
X10333627Y10320811D01*
X10333485Y10320698D01*
X10333287Y10320585D01*
X10333062Y10320415D01*
X10332780Y10320275D01*
X10332469Y10320105D01*
X10332102Y10319935D01*
X10331708Y10319795D01*
X10331284Y10319625D01*
X10330804Y10319513D01*
X10330297Y10319399D01*
X10329733Y10319315D01*
X10329139Y10319259D01*
X10328490Y10319230D01*
X10328096D01*
X10327926Y10319259D01*
X10327700D01*
X10327164Y10319315D01*
X10326571Y10319399D01*
X10325979Y10319513D01*
X10325358Y10319653D01*
X10324822Y10319879D01*
Y10322871D01*
X10324850D01*
X10324906Y10322814D01*
X10324991Y10322786D01*
X10325132Y10322701D01*
X10325302Y10322617D01*
X10325471Y10322532D01*
X10325951Y10322363D01*
X10326487Y10322166D01*
X10327080Y10321996D01*
X10327728Y10321882D01*
X10328406Y10321826D01*
X10328575D01*
X10328688Y10321854D01*
X10329027Y10321882D01*
X10329421Y10321940D01*
X10329873Y10322052D01*
X10330325Y10322222D01*
X10330776Y10322476D01*
X10331172Y10322786D01*
X10331228Y10322842D01*
X10331340Y10322955D01*
X10331482Y10323153D01*
X10331680Y10323463D01*
X10331848Y10323831D01*
X10332018Y10324253D01*
X10332131Y10324761D01*
X10332159Y10325326D01*
Y10326229D01*
X10332102D01*
Y10326200D01*
X10332046Y10326144D01*
X10331990Y10326060D01*
X10331876Y10325946D01*
X10331594Y10325636D01*
X10331228Y10325298D01*
X10330720Y10324930D01*
X10330099Y10324648D01*
X10329761Y10324507D01*
X10329393Y10324423D01*
X10328970Y10324366D01*
X10328547Y10324338D01*
X10328350D01*
X10328180Y10324366D01*
X10328010Y10324395D01*
X10327784Y10324423D01*
X10327277Y10324536D01*
X10326713Y10324705D01*
X10326149Y10324987D01*
X10325867Y10325156D01*
X10325583Y10325354D01*
X10325302Y10325608D01*
X10325048Y10325862D01*
Y10325890D01*
X10324991Y10325946D01*
X10324935Y10326031D01*
X10324850Y10326144D01*
X10324766Y10326285D01*
X10324652Y10326483D01*
X10324540Y10326709D01*
X10324427Y10326963D01*
X10324286Y10327217D01*
X10324172Y10327527D01*
X10324060Y10327865D01*
X10323976Y10328232D01*
X10323834Y10329050D01*
X10323806Y10329502D01*
X10323778Y10329982D01*
Y10330010D01*
Y10330123D01*
Y10330264D01*
X10323806Y10330461D01*
X10323834Y10330715D01*
X10323862Y10330997D01*
X10323890Y10331309D01*
X10323948Y10331647D01*
X10324116Y10332380D01*
X10324398Y10333142D01*
X10324540Y10333538D01*
X10324738Y10333904D01*
X10324963Y10334243D01*
X10325217Y10334581D01*
X10325245Y10334609D01*
X10325273Y10334667D01*
X10325358Y10334751D01*
X10325471Y10334865D01*
X10325612Y10334977D01*
X10325781Y10335118D01*
X10326007Y10335287D01*
X10326233Y10335457D01*
X10326769Y10335767D01*
X10327418Y10336049D01*
X10327756Y10336134D01*
X10328152Y10336218D01*
X10328547Y10336274D01*
X10328970Y10336302D01*
X10329167D01*
X10329309Y10336274D01*
D02*
G37*
G36*
X10292991D02*
X10293188Y10336246D01*
X10293442Y10336218D01*
X10294006Y10336106D01*
X10294628Y10335936D01*
X10295248Y10335682D01*
X10295587Y10335513D01*
X10295869Y10335315D01*
X10296179Y10335061D01*
X10296433Y10334807D01*
X10296461Y10334779D01*
X10296489Y10334751D01*
X10296575Y10334667D01*
X10296659Y10334553D01*
X10296743Y10334384D01*
X10296885Y10334215D01*
X10296997Y10333989D01*
X10297139Y10333763D01*
X10297252Y10333481D01*
X10297393Y10333199D01*
X10297506Y10332860D01*
X10297590Y10332494D01*
X10297760Y10331703D01*
X10297788Y10331251D01*
X10297816Y10330801D01*
Y10329304D01*
X10290338D01*
Y10329276D01*
Y10329192D01*
X10290366Y10329078D01*
X10290422Y10328910D01*
X10290479Y10328712D01*
X10290564Y10328514D01*
X10290648Y10328289D01*
X10290790Y10328063D01*
X10290958Y10327809D01*
X10291184Y10327583D01*
X10291438Y10327385D01*
X10291749Y10327189D01*
X10292087Y10327019D01*
X10292511Y10326906D01*
X10292963Y10326821D01*
X10293499Y10326793D01*
X10293696D01*
X10293809Y10326821D01*
X10293978D01*
X10294176Y10326849D01*
X10294628Y10326906D01*
X10295135Y10327019D01*
X10295699Y10327189D01*
X10296263Y10327385D01*
X10296801Y10327697D01*
Y10325156D01*
X10296772D01*
X10296715Y10325128D01*
X10296631Y10325072D01*
X10296517Y10325044D01*
X10296349Y10324958D01*
X10296179Y10324902D01*
X10295953Y10324818D01*
X10295699Y10324761D01*
X10295417Y10324677D01*
X10295107Y10324592D01*
X10294402Y10324479D01*
X10293583Y10324366D01*
X10292681Y10324338D01*
X10292426D01*
X10292229Y10324366D01*
X10292003Y10324395D01*
X10291721Y10324423D01*
X10291438Y10324479D01*
X10291100Y10324536D01*
X10290422Y10324705D01*
X10289689Y10324987D01*
X10289351Y10325156D01*
X10288983Y10325354D01*
X10288673Y10325608D01*
X10288363Y10325862D01*
X10288334Y10325890D01*
X10288306Y10325946D01*
X10288221Y10326031D01*
X10288137Y10326144D01*
X10288024Y10326313D01*
X10287883Y10326483D01*
X10287742Y10326709D01*
X10287600Y10326963D01*
X10287460Y10327245D01*
X10287318Y10327583D01*
X10287206Y10327922D01*
X10287064Y10328317D01*
X10286980Y10328712D01*
X10286895Y10329164D01*
X10286866Y10329615D01*
X10286838Y10330123D01*
Y10330151D01*
Y10330236D01*
Y10330405D01*
X10286866Y10330603D01*
X10286895Y10330829D01*
X10286924Y10331111D01*
X10286980Y10331421D01*
X10287036Y10331760D01*
X10287234Y10332465D01*
X10287374Y10332860D01*
X10287544Y10333228D01*
X10287714Y10333594D01*
X10287939Y10333961D01*
X10288193Y10334327D01*
X10288475Y10334639D01*
X10288503Y10334667D01*
X10288560Y10334723D01*
X10288645Y10334779D01*
X10288785Y10334893D01*
X10288927Y10335033D01*
X10289125Y10335175D01*
X10289351Y10335315D01*
X10289604Y10335485D01*
X10289886Y10335626D01*
X10290197Y10335767D01*
X10290902Y10336049D01*
X10291298Y10336162D01*
X10291692Y10336218D01*
X10292115Y10336274D01*
X10292567Y10336302D01*
X10292821D01*
X10292991Y10336274D01*
D02*
G37*
G36*
X10280602D02*
X10280800Y10336246D01*
X10281053Y10336218D01*
X10281619Y10336106D01*
X10282239Y10335936D01*
X10282860Y10335682D01*
X10283198Y10335513D01*
X10283480Y10335315D01*
X10283792Y10335061D01*
X10284045Y10334807D01*
X10284073Y10334779D01*
X10284102Y10334751D01*
X10284186Y10334667D01*
X10284271Y10334553D01*
X10284355Y10334384D01*
X10284496Y10334215D01*
X10284609Y10333989D01*
X10284751Y10333763D01*
X10284863Y10333481D01*
X10285005Y10333199D01*
X10285117Y10332860D01*
X10285201Y10332494D01*
X10285371Y10331703D01*
X10285399Y10331251D01*
X10285427Y10330801D01*
Y10329304D01*
X10277949D01*
Y10329276D01*
Y10329192D01*
X10277977Y10329078D01*
X10278035Y10328910D01*
X10278091Y10328712D01*
X10278175Y10328514D01*
X10278260Y10328289D01*
X10278401Y10328063D01*
X10278571Y10327809D01*
X10278796Y10327583D01*
X10279050Y10327385D01*
X10279360Y10327189D01*
X10279700Y10327019D01*
X10280122Y10326906D01*
X10280574Y10326821D01*
X10281110Y10326793D01*
X10281307D01*
X10281421Y10326821D01*
X10281589D01*
X10281787Y10326849D01*
X10282239Y10326906D01*
X10282747Y10327019D01*
X10283312Y10327189D01*
X10283876Y10327385D01*
X10284412Y10327697D01*
Y10325156D01*
X10284384D01*
X10284327Y10325128D01*
X10284242Y10325072D01*
X10284130Y10325044D01*
X10283960Y10324958D01*
X10283792Y10324902D01*
X10283566Y10324818D01*
X10283312Y10324761D01*
X10283029Y10324677D01*
X10282719Y10324592D01*
X10282013Y10324479D01*
X10281195Y10324366D01*
X10280292Y10324338D01*
X10280038D01*
X10279840Y10324366D01*
X10279614Y10324395D01*
X10279332Y10324423D01*
X10279050Y10324479D01*
X10278711Y10324536D01*
X10278035Y10324705D01*
X10277301Y10324987D01*
X10276962Y10325156D01*
X10276595Y10325354D01*
X10276284Y10325608D01*
X10275974Y10325862D01*
X10275946Y10325890D01*
X10275918Y10325946D01*
X10275833Y10326031D01*
X10275748Y10326144D01*
X10275636Y10326313D01*
X10275494Y10326483D01*
X10275354Y10326709D01*
X10275212Y10326963D01*
X10275071Y10327245D01*
X10274930Y10327583D01*
X10274817Y10327922D01*
X10274677Y10328317D01*
X10274591Y10328712D01*
X10274507Y10329164D01*
X10274479Y10329615D01*
X10274451Y10330123D01*
Y10330151D01*
Y10330236D01*
Y10330405D01*
X10274479Y10330603D01*
X10274507Y10330829D01*
X10274535Y10331111D01*
X10274591Y10331421D01*
X10274648Y10331760D01*
X10274845Y10332465D01*
X10274987Y10332860D01*
X10275156Y10333228D01*
X10275325Y10333594D01*
X10275551Y10333961D01*
X10275804Y10334327D01*
X10276088Y10334639D01*
X10276116Y10334667D01*
X10276172Y10334723D01*
X10276256Y10334779D01*
X10276398Y10334893D01*
X10276538Y10335033D01*
X10276736Y10335175D01*
X10276962Y10335315D01*
X10277216Y10335485D01*
X10277498Y10335626D01*
X10277809Y10335767D01*
X10278514Y10336049D01*
X10278909Y10336162D01*
X10279304Y10336218D01*
X10279728Y10336274D01*
X10280179Y10336302D01*
X10280433D01*
X10280602Y10336274D01*
D02*
G37*
G36*
X10269219Y10304155D02*
X10270497D01*
Y10302388D01*
X10269219D01*
Y10300208D01*
X10267076D01*
Y10302388D01*
X10262415D01*
Y10304230D01*
X10262452Y10304268D01*
X10262528Y10304362D01*
X10262640Y10304493D01*
X10262810Y10304681D01*
X10262998Y10304907D01*
X10263223Y10305170D01*
X10263448Y10305452D01*
X10263693Y10305753D01*
Y10305771D01*
X10263730Y10305790D01*
X10263806Y10305903D01*
X10263937Y10306053D01*
X10264106Y10306279D01*
X10264294Y10306523D01*
X10264501Y10306824D01*
X10264746Y10307125D01*
X10264971Y10307445D01*
Y10307463D01*
X10265009Y10307482D01*
X10265084Y10307595D01*
X10265197Y10307764D01*
X10265347Y10307990D01*
X10265516Y10308253D01*
X10265723Y10308553D01*
X10265911Y10308873D01*
X10266118Y10309192D01*
Y10309211D01*
X10266136Y10309230D01*
X10266212Y10309343D01*
X10266306Y10309512D01*
X10266437Y10309738D01*
X10266587Y10310001D01*
X10266738Y10310283D01*
X10267039Y10310884D01*
X10269219D01*
Y10304155D01*
D02*
G37*
G36*
X10243995Y10300208D02*
X10241646D01*
Y10308478D01*
X10241608Y10308441D01*
X10241514Y10308365D01*
X10241382Y10308253D01*
X10241194Y10308140D01*
X10241176D01*
X10241156Y10308121D01*
X10241100Y10308083D01*
X10241025Y10308046D01*
X10240837Y10307952D01*
X10240630Y10307858D01*
X10240612D01*
X10240574Y10307839D01*
X10240518Y10307820D01*
X10240442Y10307783D01*
X10240236Y10307726D01*
X10240010Y10307651D01*
X10239991D01*
X10239954Y10307632D01*
X10239897D01*
X10239822Y10307614D01*
X10239615Y10307576D01*
X10239390Y10307538D01*
Y10309531D01*
X10239409D01*
X10239427Y10309550D01*
X10239540Y10309587D01*
X10239709Y10309644D01*
X10239935Y10309719D01*
X10240198Y10309813D01*
X10240499Y10309926D01*
X10241100Y10310208D01*
X10241119D01*
X10241138Y10310226D01*
X10241232Y10310283D01*
X10241401Y10310358D01*
X10241589Y10310471D01*
X10241833Y10310621D01*
X10242078Y10310771D01*
X10242585Y10311128D01*
X10243995D01*
Y10300208D01*
D02*
G37*
G36*
X10299781Y10311053D02*
X10299988D01*
X10300214Y10311016D01*
X10300458Y10310978D01*
X10300702Y10310922D01*
X10300946Y10310846D01*
X10300984D01*
X10301060Y10310809D01*
X10301172Y10310753D01*
X10301322Y10310696D01*
X10301510Y10310602D01*
X10301680Y10310508D01*
X10301868Y10310377D01*
X10302037Y10310245D01*
X10302056Y10310226D01*
X10302112Y10310170D01*
X10302188Y10310095D01*
X10302300Y10309982D01*
X10302394Y10309832D01*
X10302506Y10309681D01*
X10302620Y10309493D01*
X10302714Y10309287D01*
X10302732Y10309268D01*
X10302751Y10309192D01*
X10302788Y10309080D01*
X10302845Y10308910D01*
X10302882Y10308723D01*
X10302920Y10308516D01*
X10302939Y10308290D01*
X10302958Y10308027D01*
Y10307990D01*
Y10307896D01*
X10302939Y10307764D01*
Y10307595D01*
X10302902Y10307388D01*
X10302864Y10307163D01*
X10302808Y10306937D01*
X10302732Y10306711D01*
X10302714Y10306693D01*
X10302694Y10306617D01*
X10302638Y10306505D01*
X10302582Y10306373D01*
X10302488Y10306204D01*
X10302375Y10306035D01*
X10302131Y10305677D01*
X10302112Y10305659D01*
X10302074Y10305603D01*
X10301980Y10305509D01*
X10301886Y10305396D01*
X10301755Y10305264D01*
X10301604Y10305114D01*
X10301266Y10304813D01*
X10301248Y10304794D01*
X10301191Y10304738D01*
X10301078Y10304663D01*
X10300966Y10304569D01*
X10300796Y10304456D01*
X10300627Y10304324D01*
X10300251Y10304061D01*
X10300232Y10304043D01*
X10300195Y10304023D01*
X10300120Y10303967D01*
X10300026Y10303892D01*
X10299800Y10303741D01*
X10299556Y10303553D01*
X10299537Y10303535D01*
X10299500Y10303516D01*
X10299443Y10303459D01*
X10299349Y10303403D01*
X10299161Y10303253D01*
X10298954Y10303065D01*
X10298936Y10303046D01*
X10298917Y10303027D01*
X10298823Y10302915D01*
X10298691Y10302765D01*
X10298560Y10302577D01*
Y10302557D01*
X10298541Y10302539D01*
X10298503Y10302445D01*
X10298447Y10302295D01*
X10298428Y10302144D01*
X10302958D01*
Y10300208D01*
X10295834D01*
Y10300997D01*
Y10301016D01*
Y10301035D01*
Y10301129D01*
X10295853Y10301298D01*
X10295872Y10301486D01*
X10295909Y10301711D01*
X10295947Y10301975D01*
X10296022Y10302219D01*
X10296116Y10302463D01*
X10296135Y10302501D01*
X10296172Y10302577D01*
X10296229Y10302708D01*
X10296304Y10302858D01*
X10296417Y10303046D01*
X10296530Y10303234D01*
X10296812Y10303629D01*
X10296830Y10303647D01*
X10296887Y10303723D01*
X10296962Y10303817D01*
X10297075Y10303949D01*
X10297206Y10304080D01*
X10297375Y10304249D01*
X10297714Y10304550D01*
X10297732Y10304569D01*
X10297808Y10304625D01*
X10297902Y10304700D01*
X10298033Y10304794D01*
X10298165Y10304907D01*
X10298334Y10305039D01*
X10298672Y10305283D01*
X10298691Y10305302D01*
X10298748Y10305339D01*
X10298842Y10305415D01*
X10298954Y10305490D01*
X10299218Y10305696D01*
X10299480Y10305922D01*
X10299500Y10305941D01*
X10299537Y10305979D01*
X10299612Y10306035D01*
X10299688Y10306110D01*
X10299894Y10306298D01*
X10300082Y10306523D01*
X10300101Y10306542D01*
X10300120Y10306580D01*
X10300157Y10306636D01*
X10300214Y10306711D01*
X10300345Y10306899D01*
X10300439Y10307125D01*
Y10307144D01*
X10300458Y10307181D01*
X10300477Y10307238D01*
X10300514Y10307332D01*
X10300552Y10307538D01*
X10300571Y10307802D01*
Y10307839D01*
Y10307914D01*
X10300552Y10308027D01*
X10300514Y10308177D01*
X10300477Y10308347D01*
X10300402Y10308516D01*
X10300308Y10308685D01*
X10300176Y10308835D01*
X10300157Y10308854D01*
X10300101Y10308892D01*
X10300007Y10308948D01*
X10299894Y10309023D01*
X10299725Y10309080D01*
X10299518Y10309136D01*
X10299274Y10309174D01*
X10298992Y10309192D01*
X10298860D01*
X10298766Y10309174D01*
X10298635Y10309155D01*
X10298484Y10309136D01*
X10298334Y10309098D01*
X10298146Y10309061D01*
X10297751Y10308929D01*
X10297526Y10308835D01*
X10297300Y10308723D01*
X10297075Y10308591D01*
X10296830Y10308459D01*
X10296605Y10308271D01*
X10296360Y10308083D01*
Y10310170D01*
X10296379Y10310189D01*
X10296417Y10310208D01*
X10296492Y10310245D01*
X10296605Y10310320D01*
X10296736Y10310377D01*
X10296887Y10310452D01*
X10297075Y10310546D01*
X10297281Y10310621D01*
X10297488Y10310715D01*
X10297732Y10310790D01*
X10298278Y10310940D01*
X10298860Y10311034D01*
X10299180Y10311053D01*
X10299500Y10311072D01*
X10299631D01*
X10299781Y10311053D01*
D02*
G37*
G36*
X10282225D02*
X10282433D01*
X10282659Y10311016D01*
X10282903Y10310978D01*
X10283147Y10310922D01*
X10283391Y10310846D01*
X10283429D01*
X10283503Y10310809D01*
X10283617Y10310753D01*
X10283767Y10310696D01*
X10283955Y10310602D01*
X10284125Y10310508D01*
X10284313Y10310377D01*
X10284481Y10310245D01*
X10284500Y10310226D01*
X10284557Y10310170D01*
X10284631Y10310095D01*
X10284745Y10309982D01*
X10284839Y10309832D01*
X10284951Y10309681D01*
X10285063Y10309493D01*
X10285157Y10309287D01*
X10285177Y10309268D01*
X10285195Y10309192D01*
X10285233Y10309080D01*
X10285289Y10308910D01*
X10285327Y10308723D01*
X10285365Y10308516D01*
X10285383Y10308290D01*
X10285403Y10308027D01*
Y10307990D01*
Y10307896D01*
X10285383Y10307764D01*
Y10307595D01*
X10285345Y10307388D01*
X10285309Y10307163D01*
X10285251Y10306937D01*
X10285177Y10306711D01*
X10285157Y10306693D01*
X10285139Y10306617D01*
X10285083Y10306505D01*
X10285027Y10306373D01*
X10284933Y10306204D01*
X10284819Y10306035D01*
X10284575Y10305677D01*
X10284557Y10305659D01*
X10284519Y10305603D01*
X10284425Y10305509D01*
X10284331Y10305396D01*
X10284199Y10305264D01*
X10284049Y10305114D01*
X10283711Y10304813D01*
X10283691Y10304794D01*
X10283635Y10304738D01*
X10283523Y10304663D01*
X10283409Y10304569D01*
X10283241Y10304456D01*
X10283071Y10304324D01*
X10282695Y10304061D01*
X10282677Y10304043D01*
X10282639Y10304023D01*
X10282565Y10303967D01*
X10282471Y10303892D01*
X10282245Y10303741D01*
X10282001Y10303553D01*
X10281981Y10303535D01*
X10281943Y10303516D01*
X10281887Y10303459D01*
X10281793Y10303403D01*
X10281605Y10303253D01*
X10281399Y10303065D01*
X10281379Y10303046D01*
X10281361Y10303027D01*
X10281267Y10302915D01*
X10281135Y10302765D01*
X10281005Y10302577D01*
Y10302557D01*
X10280985Y10302539D01*
X10280947Y10302445D01*
X10280891Y10302295D01*
X10280873Y10302144D01*
X10285403D01*
Y10300208D01*
X10278279D01*
Y10300997D01*
Y10301016D01*
Y10301035D01*
Y10301129D01*
X10278297Y10301298D01*
X10278317Y10301486D01*
X10278353Y10301711D01*
X10278391Y10301975D01*
X10278467Y10302219D01*
X10278561Y10302463D01*
X10278579Y10302501D01*
X10278617Y10302577D01*
X10278673Y10302708D01*
X10278749Y10302858D01*
X10278861Y10303046D01*
X10278975Y10303234D01*
X10279257Y10303629D01*
X10279275Y10303647D01*
X10279331Y10303723D01*
X10279407Y10303817D01*
X10279519Y10303949D01*
X10279651Y10304080D01*
X10279819Y10304249D01*
X10280159Y10304550D01*
X10280177Y10304569D01*
X10280253Y10304625D01*
X10280347Y10304700D01*
X10280477Y10304794D01*
X10280609Y10304907D01*
X10280779Y10305039D01*
X10281117Y10305283D01*
X10281135Y10305302D01*
X10281191Y10305339D01*
X10281285Y10305415D01*
X10281399Y10305490D01*
X10281661Y10305696D01*
X10281925Y10305922D01*
X10281943Y10305941D01*
X10281981Y10305979D01*
X10282057Y10306035D01*
X10282131Y10306110D01*
X10282339Y10306298D01*
X10282527Y10306523D01*
X10282545Y10306542D01*
X10282565Y10306580D01*
X10282601Y10306636D01*
X10282659Y10306711D01*
X10282789Y10306899D01*
X10282883Y10307125D01*
Y10307144D01*
X10282903Y10307181D01*
X10282921Y10307238D01*
X10282959Y10307332D01*
X10282997Y10307538D01*
X10283015Y10307802D01*
Y10307839D01*
Y10307914D01*
X10282997Y10308027D01*
X10282959Y10308177D01*
X10282921Y10308347D01*
X10282847Y10308516D01*
X10282753Y10308685D01*
X10282621Y10308835D01*
X10282601Y10308854D01*
X10282545Y10308892D01*
X10282451Y10308948D01*
X10282339Y10309023D01*
X10282169Y10309080D01*
X10281963Y10309136D01*
X10281719Y10309174D01*
X10281437Y10309192D01*
X10281305D01*
X10281211Y10309174D01*
X10281079Y10309155D01*
X10280929Y10309136D01*
X10280779Y10309098D01*
X10280591Y10309061D01*
X10280195Y10308929D01*
X10279971Y10308835D01*
X10279745Y10308723D01*
X10279519Y10308591D01*
X10279275Y10308459D01*
X10279049Y10308271D01*
X10278805Y10308083D01*
Y10310170D01*
X10278823Y10310189D01*
X10278861Y10310208D01*
X10278937Y10310245D01*
X10279049Y10310320D01*
X10279181Y10310377D01*
X10279331Y10310452D01*
X10279519Y10310546D01*
X10279725Y10310621D01*
X10279933Y10310715D01*
X10280177Y10310790D01*
X10280723Y10310940D01*
X10281305Y10311034D01*
X10281625Y10311053D01*
X10281943Y10311072D01*
X10282075D01*
X10282225Y10311053D01*
D02*
G37*
G36*
X10112415Y10324592D02*
X10108859D01*
Y10336049D01*
X10112415D01*
Y10324592D01*
D02*
G37*
G36*
X10470463Y10336274D02*
X10470660Y10336246D01*
X10470914Y10336218D01*
X10471478Y10336106D01*
X10472100Y10335936D01*
X10472720Y10335682D01*
X10473059Y10335513D01*
X10473341Y10335315D01*
X10473651Y10335061D01*
X10473905Y10334807D01*
X10473933Y10334779D01*
X10473961Y10334751D01*
X10474047Y10334667D01*
X10474131Y10334553D01*
X10474215Y10334384D01*
X10474357Y10334215D01*
X10474469Y10333989D01*
X10474611Y10333763D01*
X10474723Y10333481D01*
X10474865Y10333199D01*
X10474977Y10332860D01*
X10475062Y10332494D01*
X10475232Y10331703D01*
X10475260Y10331251D01*
X10475288Y10330801D01*
Y10329304D01*
X10467810D01*
Y10329276D01*
Y10329192D01*
X10467838Y10329078D01*
X10467894Y10328910D01*
X10467950Y10328712D01*
X10468036Y10328514D01*
X10468120Y10328289D01*
X10468262Y10328063D01*
X10468430Y10327809D01*
X10468656Y10327583D01*
X10468910Y10327385D01*
X10469221Y10327189D01*
X10469559Y10327019D01*
X10469983Y10326906D01*
X10470435Y10326821D01*
X10470970Y10326793D01*
X10471168D01*
X10471281Y10326821D01*
X10471450D01*
X10471648Y10326849D01*
X10472100Y10326906D01*
X10472607Y10327019D01*
X10473171Y10327189D01*
X10473735Y10327385D01*
X10474272Y10327697D01*
Y10325156D01*
X10474243D01*
X10474187Y10325128D01*
X10474103Y10325072D01*
X10473989Y10325044D01*
X10473821Y10324958D01*
X10473651Y10324902D01*
X10473425Y10324818D01*
X10473171Y10324761D01*
X10472889Y10324677D01*
X10472579Y10324592D01*
X10471874Y10324479D01*
X10471055Y10324366D01*
X10470151Y10324338D01*
X10469897D01*
X10469701Y10324366D01*
X10469475Y10324395D01*
X10469192Y10324423D01*
X10468910Y10324479D01*
X10468572Y10324536D01*
X10467894Y10324705D01*
X10467161Y10324987D01*
X10466823Y10325156D01*
X10466455Y10325354D01*
X10466145Y10325608D01*
X10465834Y10325862D01*
X10465806Y10325890D01*
X10465778Y10325946D01*
X10465693Y10326031D01*
X10465609Y10326144D01*
X10465496Y10326313D01*
X10465354Y10326483D01*
X10465214Y10326709D01*
X10465072Y10326963D01*
X10464932Y10327245D01*
X10464790Y10327583D01*
X10464678Y10327922D01*
X10464536Y10328317D01*
X10464452Y10328712D01*
X10464366Y10329164D01*
X10464338Y10329615D01*
X10464310Y10330123D01*
Y10330151D01*
Y10330236D01*
Y10330405D01*
X10464338Y10330603D01*
X10464366Y10330829D01*
X10464395Y10331111D01*
X10464452Y10331421D01*
X10464508Y10331760D01*
X10464706Y10332465D01*
X10464846Y10332860D01*
X10465016Y10333228D01*
X10465186Y10333594D01*
X10465411Y10333961D01*
X10465665Y10334327D01*
X10465947Y10334639D01*
X10465975Y10334667D01*
X10466031Y10334723D01*
X10466117Y10334779D01*
X10466257Y10334893D01*
X10466399Y10335033D01*
X10466597Y10335175D01*
X10466823Y10335315D01*
X10467076Y10335485D01*
X10467358Y10335626D01*
X10467668Y10335767D01*
X10468374Y10336049D01*
X10468770Y10336162D01*
X10469164Y10336218D01*
X10469587Y10336274D01*
X10470039Y10336302D01*
X10470293D01*
X10470463Y10336274D01*
D02*
G37*
G36*
X10130842Y10324592D02*
X10127286D01*
Y10336049D01*
X10130842D01*
Y10324592D01*
D02*
G37*
G36*
X10125001Y10337686D02*
X10119357D01*
Y10333735D01*
X10124549D01*
Y10330801D01*
X10119357D01*
Y10324592D01*
X10115745D01*
Y10340620D01*
X10125001D01*
Y10337686D01*
D02*
G37*
G36*
X10398164Y10336274D02*
X10398390Y10336246D01*
X10398672Y10336218D01*
X10398983Y10336162D01*
X10399321Y10336106D01*
X10400027Y10335908D01*
X10400393Y10335795D01*
X10400760Y10335626D01*
X10401127Y10335428D01*
X10401494Y10335231D01*
X10401832Y10334977D01*
X10402144Y10334695D01*
X10402172Y10334667D01*
X10402228Y10334609D01*
X10402284Y10334525D01*
X10402397Y10334413D01*
X10402510Y10334243D01*
X10402651Y10334045D01*
X10402820Y10333820D01*
X10402961Y10333566D01*
X10403103Y10333284D01*
X10403271Y10332974D01*
X10403413Y10332606D01*
X10403525Y10332240D01*
X10403639Y10331844D01*
X10403723Y10331393D01*
X10403751Y10330941D01*
X10403779Y10330461D01*
Y10330433D01*
Y10330349D01*
Y10330179D01*
X10403751Y10329982D01*
X10403723Y10329756D01*
X10403695Y10329474D01*
X10403639Y10329164D01*
X10403583Y10328824D01*
X10403385Y10328119D01*
X10403243Y10327753D01*
X10403075Y10327357D01*
X10402877Y10326991D01*
X10402679Y10326652D01*
X10402397Y10326285D01*
X10402115Y10325975D01*
X10402086Y10325946D01*
X10402030Y10325918D01*
X10401946Y10325834D01*
X10401804Y10325720D01*
X10401636Y10325608D01*
X10401438Y10325466D01*
X10401184Y10325298D01*
X10400930Y10325156D01*
X10400619Y10325016D01*
X10400281Y10324846D01*
X10399885Y10324705D01*
X10399491Y10324592D01*
X10399039Y10324479D01*
X10398588Y10324423D01*
X10398080Y10324366D01*
X10397544Y10324338D01*
X10397261D01*
X10397064Y10324366D01*
X10396838Y10324395D01*
X10396555Y10324423D01*
X10396245Y10324479D01*
X10395907Y10324536D01*
X10395173Y10324733D01*
X10394440Y10325016D01*
X10394044Y10325184D01*
X10393706Y10325410D01*
X10393339Y10325636D01*
X10393029Y10325918D01*
X10393000Y10325946D01*
X10392971Y10326003D01*
X10392887Y10326088D01*
X10392775Y10326200D01*
X10392661Y10326370D01*
X10392521Y10326567D01*
X10392351Y10326793D01*
X10392209Y10327047D01*
X10392069Y10327357D01*
X10391899Y10327668D01*
X10391758Y10328035D01*
X10391646Y10328430D01*
X10391533Y10328824D01*
X10391476Y10329276D01*
X10391420Y10329756D01*
X10391392Y10330264D01*
Y10330292D01*
Y10330377D01*
Y10330547D01*
X10391420Y10330743D01*
X10391448Y10330969D01*
X10391476Y10331251D01*
X10391533Y10331562D01*
X10391617Y10331901D01*
X10391815Y10332606D01*
X10391956Y10332974D01*
X10392097Y10333340D01*
X10392295Y10333707D01*
X10392521Y10334045D01*
X10392775Y10334384D01*
X10393085Y10334695D01*
X10393113Y10334723D01*
X10393169Y10334751D01*
X10393254Y10334835D01*
X10393395Y10334949D01*
X10393564Y10335061D01*
X10393790Y10335203D01*
X10394016Y10335343D01*
X10394298Y10335513D01*
X10394608Y10335654D01*
X10394976Y10335795D01*
X10395342Y10335936D01*
X10395765Y10336049D01*
X10396189Y10336162D01*
X10396669Y10336246D01*
X10397148Y10336274D01*
X10397684Y10336302D01*
X10397966D01*
X10398164Y10336274D01*
D02*
G37*
G36*
X10356794Y10336049D02*
X10359391D01*
Y10333425D01*
X10356794D01*
Y10328796D01*
Y10328768D01*
Y10328712D01*
Y10328628D01*
X10356823Y10328514D01*
X10356879Y10328232D01*
X10356964Y10327922D01*
X10357134Y10327583D01*
X10357416Y10327301D01*
X10357556Y10327189D01*
X10357754Y10327103D01*
X10357980Y10327047D01*
X10358234Y10327019D01*
X10358318D01*
X10358431Y10327047D01*
X10358601D01*
X10358967Y10327159D01*
X10359165Y10327217D01*
X10359391Y10327329D01*
Y10324705D01*
X10359363Y10324677D01*
X10359249Y10324648D01*
X10359052Y10324592D01*
X10358798Y10324536D01*
X10358459Y10324451D01*
X10358064Y10324395D01*
X10357584Y10324366D01*
X10357020Y10324338D01*
X10356851D01*
X10356682Y10324366D01*
X10356428Y10324395D01*
X10356145Y10324451D01*
X10355835Y10324536D01*
X10355497Y10324648D01*
X10355157Y10324818D01*
X10354819Y10325016D01*
X10354481Y10325270D01*
X10354170Y10325580D01*
X10353888Y10325946D01*
X10353634Y10326398D01*
X10353464Y10326906D01*
X10353352Y10327499D01*
X10353296Y10328176D01*
Y10333425D01*
X10351433D01*
Y10336049D01*
X10353296D01*
Y10338505D01*
X10356794Y10339520D01*
Y10336049D01*
D02*
G37*
G36*
X10444049Y10336274D02*
X10444275Y10336246D01*
X10444557Y10336218D01*
X10444867Y10336162D01*
X10445206Y10336106D01*
X10445912Y10335908D01*
X10446278Y10335795D01*
X10446646Y10335626D01*
X10447012Y10335428D01*
X10447379Y10335231D01*
X10447717Y10334977D01*
X10448027Y10334695D01*
X10448057Y10334667D01*
X10448113Y10334609D01*
X10448169Y10334525D01*
X10448281Y10334413D01*
X10448395Y10334243D01*
X10448536Y10334045D01*
X10448705Y10333820D01*
X10448846Y10333566D01*
X10448987Y10333284D01*
X10449156Y10332974D01*
X10449298Y10332606D01*
X10449410Y10332240D01*
X10449524Y10331844D01*
X10449608Y10331393D01*
X10449636Y10330941D01*
X10449664Y10330461D01*
Y10330433D01*
Y10330349D01*
Y10330179D01*
X10449636Y10329982D01*
X10449608Y10329756D01*
X10449580Y10329474D01*
X10449524Y10329164D01*
X10449467Y10328824D01*
X10449270Y10328119D01*
X10449128Y10327753D01*
X10448959Y10327357D01*
X10448762Y10326991D01*
X10448564Y10326652D01*
X10448281Y10326285D01*
X10447999Y10325975D01*
X10447971Y10325946D01*
X10447915Y10325918D01*
X10447831Y10325834D01*
X10447689Y10325720D01*
X10447520Y10325608D01*
X10447323Y10325466D01*
X10447068Y10325298D01*
X10446814Y10325156D01*
X10446504Y10325016D01*
X10446166Y10324846D01*
X10445770Y10324705D01*
X10445375Y10324592D01*
X10444923Y10324479D01*
X10444473Y10324423D01*
X10443965Y10324366D01*
X10443428Y10324338D01*
X10443146D01*
X10442948Y10324366D01*
X10442722Y10324395D01*
X10442440Y10324423D01*
X10442130Y10324479D01*
X10441792Y10324536D01*
X10441057Y10324733D01*
X10440323Y10325016D01*
X10439929Y10325184D01*
X10439590Y10325410D01*
X10439224Y10325636D01*
X10438914Y10325918D01*
X10438884Y10325946D01*
X10438856Y10326003D01*
X10438772Y10326088D01*
X10438658Y10326200D01*
X10438546Y10326370D01*
X10438405Y10326567D01*
X10438236Y10326793D01*
X10438094Y10327047D01*
X10437954Y10327357D01*
X10437784Y10327668D01*
X10437643Y10328035D01*
X10437531Y10328430D01*
X10437417Y10328824D01*
X10437361Y10329276D01*
X10437305Y10329756D01*
X10437277Y10330264D01*
Y10330292D01*
Y10330377D01*
Y10330547D01*
X10437305Y10330743D01*
X10437333Y10330969D01*
X10437361Y10331251D01*
X10437417Y10331562D01*
X10437502Y10331901D01*
X10437700Y10332606D01*
X10437841Y10332974D01*
X10437982Y10333340D01*
X10438179Y10333707D01*
X10438405Y10334045D01*
X10438658Y10334384D01*
X10438970Y10334695D01*
X10438998Y10334723D01*
X10439054Y10334751D01*
X10439139Y10334835D01*
X10439280Y10334949D01*
X10439449Y10335061D01*
X10439675Y10335203D01*
X10439901Y10335343D01*
X10440183Y10335513D01*
X10440493Y10335654D01*
X10440861Y10335795D01*
X10441227Y10335936D01*
X10441650Y10336049D01*
X10442074Y10336162D01*
X10442554Y10336246D01*
X10443033Y10336274D01*
X10443569Y10336302D01*
X10443851D01*
X10444049Y10336274D01*
D02*
G37*
G36*
X10424268Y10336049D02*
X10426863D01*
Y10333425D01*
X10424268D01*
Y10328796D01*
Y10328768D01*
Y10328712D01*
Y10328628D01*
X10424296Y10328514D01*
X10424352Y10328232D01*
X10424436Y10327922D01*
X10424606Y10327583D01*
X10424888Y10327301D01*
X10425029Y10327189D01*
X10425227Y10327103D01*
X10425453Y10327047D01*
X10425707Y10327019D01*
X10425791D01*
X10425903Y10327047D01*
X10426073D01*
X10426440Y10327159D01*
X10426638Y10327217D01*
X10426863Y10327329D01*
Y10324705D01*
X10426835Y10324677D01*
X10426722Y10324648D01*
X10426525Y10324592D01*
X10426271Y10324536D01*
X10425933Y10324451D01*
X10425537Y10324395D01*
X10425057Y10324366D01*
X10424493Y10324338D01*
X10424324D01*
X10424154Y10324366D01*
X10423900Y10324395D01*
X10423618Y10324451D01*
X10423308Y10324536D01*
X10422969Y10324648D01*
X10422631Y10324818D01*
X10422291Y10325016D01*
X10421953Y10325270D01*
X10421643Y10325580D01*
X10421361Y10325946D01*
X10421107Y10326398D01*
X10420938Y10326906D01*
X10420824Y10327499D01*
X10420768Y10328176D01*
Y10333425D01*
X10418905D01*
Y10336049D01*
X10420768D01*
Y10338505D01*
X10424268Y10339520D01*
Y10336049D01*
D02*
G37*
G36*
X10258881Y10285359D02*
X10260159D01*
Y10283593D01*
X10258881D01*
Y10281412D01*
X10256738D01*
Y10283593D01*
X10252076D01*
Y10285435D01*
X10252114Y10285472D01*
X10252190Y10285566D01*
X10252302Y10285697D01*
X10252472Y10285885D01*
X10252660Y10286111D01*
X10252886Y10286375D01*
X10253110Y10286656D01*
X10253356Y10286957D01*
Y10286975D01*
X10253392Y10286995D01*
X10253468Y10287107D01*
X10253600Y10287257D01*
X10253768Y10287483D01*
X10253956Y10287727D01*
X10254164Y10288029D01*
X10254408Y10288329D01*
X10254634Y10288649D01*
Y10288667D01*
X10254670Y10288687D01*
X10254746Y10288799D01*
X10254858Y10288969D01*
X10255010Y10289193D01*
X10255178Y10289457D01*
X10255385Y10289757D01*
X10255573Y10290077D01*
X10255780Y10290397D01*
Y10290415D01*
X10255798Y10290435D01*
X10255874Y10290547D01*
X10255968Y10290717D01*
X10256100Y10290941D01*
X10256250Y10291205D01*
X10256400Y10291487D01*
X10256700Y10292089D01*
X10258881D01*
Y10285359D01*
D02*
G37*
G36*
X10286963Y10292257D02*
X10287131Y10292239D01*
X10287375Y10292201D01*
X10287657Y10292107D01*
X10287977Y10291995D01*
X10288315Y10291825D01*
X10288654Y10291599D01*
X10288993Y10291299D01*
X10289181Y10291129D01*
X10289331Y10290941D01*
X10289500Y10290735D01*
X10289650Y10290509D01*
X10289801Y10290247D01*
X10289932Y10289983D01*
X10290063Y10289683D01*
X10290177Y10289344D01*
X10290271Y10289005D01*
X10290365Y10288629D01*
X10290421Y10288217D01*
X10290477Y10287783D01*
X10290496Y10287314D01*
X10290515Y10286825D01*
Y10286787D01*
Y10286713D01*
Y10286562D01*
X10290496Y10286375D01*
X10290477Y10286149D01*
X10290459Y10285885D01*
X10290439Y10285603D01*
X10290383Y10285284D01*
X10290271Y10284607D01*
X10290083Y10283931D01*
X10289969Y10283593D01*
X10289838Y10283254D01*
X10289688Y10282953D01*
X10289500Y10282671D01*
X10289481Y10282653D01*
X10289463Y10282615D01*
X10289387Y10282540D01*
X10289312Y10282446D01*
X10289199Y10282333D01*
X10289087Y10282220D01*
X10288936Y10282089D01*
X10288748Y10281957D01*
X10288560Y10281825D01*
X10288335Y10281694D01*
X10288109Y10281581D01*
X10287845Y10281469D01*
X10287563Y10281375D01*
X10287263Y10281299D01*
X10286925Y10281262D01*
X10286587Y10281243D01*
X10286493D01*
X10286417Y10281262D01*
X10286229Y10281281D01*
X10285985Y10281318D01*
X10285703Y10281412D01*
X10285383Y10281525D01*
X10285027Y10281694D01*
X10284688Y10281919D01*
X10284331Y10282201D01*
X10284143Y10282352D01*
X10283973Y10282540D01*
X10283823Y10282747D01*
X10283655Y10282972D01*
X10283503Y10283217D01*
X10283373Y10283499D01*
X10283241Y10283781D01*
X10283127Y10284100D01*
X10283015Y10284457D01*
X10282941Y10284814D01*
X10282865Y10285209D01*
X10282809Y10285641D01*
X10282789Y10286093D01*
X10282771Y10286581D01*
Y10286619D01*
Y10286713D01*
Y10286844D01*
X10282789Y10287032D01*
X10282809Y10287277D01*
X10282827Y10287539D01*
X10282865Y10287841D01*
X10282903Y10288160D01*
X10283015Y10288837D01*
X10283203Y10289532D01*
X10283335Y10289889D01*
X10283467Y10290209D01*
X10283617Y10290529D01*
X10283805Y10290811D01*
X10283823Y10290829D01*
X10283861Y10290867D01*
X10283917Y10290941D01*
X10283993Y10291035D01*
X10284105Y10291149D01*
X10284237Y10291279D01*
X10284387Y10291411D01*
X10284575Y10291543D01*
X10284763Y10291675D01*
X10284989Y10291807D01*
X10285233Y10291937D01*
X10285497Y10292051D01*
X10285797Y10292145D01*
X10286097Y10292219D01*
X10286436Y10292257D01*
X10286793Y10292277D01*
X10286887D01*
X10286963Y10292257D01*
D02*
G37*
G36*
X10278035D02*
X10278241D01*
X10278467Y10292219D01*
X10278711Y10292183D01*
X10278955Y10292125D01*
X10279199Y10292051D01*
X10279237D01*
X10279313Y10292013D01*
X10279425Y10291957D01*
X10279575Y10291901D01*
X10279763Y10291807D01*
X10279933Y10291713D01*
X10280121Y10291581D01*
X10280289Y10291449D01*
X10280309Y10291431D01*
X10280365Y10291373D01*
X10280441Y10291299D01*
X10280553Y10291185D01*
X10280647Y10291035D01*
X10280759Y10290885D01*
X10280873Y10290697D01*
X10280967Y10290491D01*
X10280985Y10290471D01*
X10281005Y10290397D01*
X10281041Y10290283D01*
X10281099Y10290115D01*
X10281135Y10289927D01*
X10281173Y10289719D01*
X10281191Y10289495D01*
X10281211Y10289231D01*
Y10289193D01*
Y10289099D01*
X10281191Y10288969D01*
Y10288799D01*
X10281155Y10288593D01*
X10281117Y10288367D01*
X10281061Y10288141D01*
X10280985Y10287915D01*
X10280967Y10287897D01*
X10280947Y10287821D01*
X10280891Y10287709D01*
X10280835Y10287577D01*
X10280741Y10287408D01*
X10280629Y10287239D01*
X10280383Y10286881D01*
X10280365Y10286863D01*
X10280327Y10286807D01*
X10280233Y10286713D01*
X10280139Y10286599D01*
X10280007Y10286469D01*
X10279857Y10286318D01*
X10279519Y10286017D01*
X10279501Y10285999D01*
X10279445Y10285942D01*
X10279331Y10285867D01*
X10279219Y10285773D01*
X10279049Y10285660D01*
X10278881Y10285529D01*
X10278505Y10285265D01*
X10278485Y10285247D01*
X10278447Y10285227D01*
X10278373Y10285171D01*
X10278279Y10285096D01*
X10278053Y10284945D01*
X10277809Y10284758D01*
X10277791Y10284739D01*
X10277753Y10284720D01*
X10277697Y10284664D01*
X10277603Y10284607D01*
X10277415Y10284457D01*
X10277207Y10284269D01*
X10277189Y10284250D01*
X10277169Y10284231D01*
X10277075Y10284119D01*
X10276945Y10283969D01*
X10276813Y10283781D01*
Y10283761D01*
X10276793Y10283743D01*
X10276757Y10283649D01*
X10276699Y10283499D01*
X10276681Y10283348D01*
X10281211D01*
Y10281412D01*
X10274087D01*
Y10282201D01*
Y10282220D01*
Y10282239D01*
Y10282333D01*
X10274106Y10282502D01*
X10274125Y10282690D01*
X10274163Y10282916D01*
X10274200Y10283179D01*
X10274275Y10283423D01*
X10274369Y10283667D01*
X10274388Y10283705D01*
X10274425Y10283781D01*
X10274482Y10283912D01*
X10274557Y10284062D01*
X10274670Y10284250D01*
X10274783Y10284438D01*
X10275065Y10284833D01*
X10275083Y10284852D01*
X10275139Y10284927D01*
X10275215Y10285021D01*
X10275327Y10285153D01*
X10275459Y10285284D01*
X10275629Y10285453D01*
X10275967Y10285754D01*
X10275985Y10285773D01*
X10276061Y10285829D01*
X10276155Y10285905D01*
X10276287Y10285999D01*
X10276418Y10286111D01*
X10276587Y10286243D01*
X10276925Y10286487D01*
X10276945Y10286505D01*
X10277001Y10286543D01*
X10277095Y10286619D01*
X10277207Y10286693D01*
X10277471Y10286901D01*
X10277733Y10287126D01*
X10277753Y10287145D01*
X10277791Y10287183D01*
X10277865Y10287239D01*
X10277941Y10287314D01*
X10278147Y10287502D01*
X10278335Y10287727D01*
X10278353Y10287747D01*
X10278373Y10287783D01*
X10278411Y10287841D01*
X10278467Y10287915D01*
X10278599Y10288103D01*
X10278693Y10288329D01*
Y10288347D01*
X10278711Y10288385D01*
X10278729Y10288441D01*
X10278767Y10288535D01*
X10278805Y10288743D01*
X10278823Y10289005D01*
Y10289043D01*
Y10289119D01*
X10278805Y10289231D01*
X10278767Y10289381D01*
X10278729Y10289551D01*
X10278655Y10289719D01*
X10278561Y10289889D01*
X10278429Y10290039D01*
X10278411Y10290059D01*
X10278353Y10290095D01*
X10278260Y10290153D01*
X10278147Y10290227D01*
X10277977Y10290283D01*
X10277771Y10290341D01*
X10277527Y10290377D01*
X10277245Y10290397D01*
X10277113D01*
X10277019Y10290377D01*
X10276887Y10290359D01*
X10276737Y10290341D01*
X10276587Y10290303D01*
X10276399Y10290265D01*
X10276005Y10290133D01*
X10275779Y10290039D01*
X10275553Y10289927D01*
X10275327Y10289795D01*
X10275083Y10289663D01*
X10274858Y10289475D01*
X10274613Y10289287D01*
Y10291373D01*
X10274633Y10291393D01*
X10274670Y10291411D01*
X10274745Y10291449D01*
X10274858Y10291525D01*
X10274989Y10291581D01*
X10275139Y10291655D01*
X10275327Y10291749D01*
X10275535Y10291825D01*
X10275741Y10291919D01*
X10275985Y10291995D01*
X10276531Y10292145D01*
X10277113Y10292239D01*
X10277433Y10292257D01*
X10277753Y10292277D01*
X10277883D01*
X10278035Y10292257D01*
D02*
G37*
G36*
X10266757Y10281412D02*
X10264407D01*
Y10289683D01*
X10264370Y10289645D01*
X10264276Y10289569D01*
X10264144Y10289457D01*
X10263956Y10289344D01*
X10263937D01*
X10263918Y10289325D01*
X10263862Y10289287D01*
X10263787Y10289250D01*
X10263599Y10289156D01*
X10263392Y10289062D01*
X10263373D01*
X10263336Y10289043D01*
X10263279Y10289025D01*
X10263204Y10288987D01*
X10262998Y10288931D01*
X10262772Y10288855D01*
X10262753D01*
X10262716Y10288837D01*
X10262659D01*
X10262584Y10288817D01*
X10262377Y10288781D01*
X10262152Y10288743D01*
Y10290735D01*
X10262170D01*
X10262189Y10290753D01*
X10262302Y10290791D01*
X10262471Y10290847D01*
X10262697Y10290923D01*
X10262960Y10291017D01*
X10263260Y10291129D01*
X10263862Y10291411D01*
X10263881D01*
X10263900Y10291431D01*
X10263994Y10291487D01*
X10264163Y10291561D01*
X10264351Y10291675D01*
X10264595Y10291825D01*
X10264840Y10291975D01*
X10265347Y10292333D01*
X10266757D01*
Y10281412D01*
D02*
G37*
G36*
X10243582Y10292257D02*
X10243750Y10292239D01*
X10243995Y10292201D01*
X10244276Y10292107D01*
X10244596Y10291995D01*
X10244934Y10291825D01*
X10245273Y10291599D01*
X10245612Y10291299D01*
X10245800Y10291129D01*
X10245950Y10290941D01*
X10246118Y10290735D01*
X10246270Y10290509D01*
X10246420Y10290247D01*
X10246552Y10289983D01*
X10246682Y10289683D01*
X10246796Y10289344D01*
X10246890Y10289005D01*
X10246984Y10288629D01*
X10247040Y10288217D01*
X10247096Y10287783D01*
X10247115Y10287314D01*
X10247134Y10286825D01*
Y10286787D01*
Y10286713D01*
Y10286562D01*
X10247115Y10286375D01*
X10247096Y10286149D01*
X10247078Y10285885D01*
X10247058Y10285603D01*
X10247002Y10285284D01*
X10246890Y10284607D01*
X10246702Y10283931D01*
X10246588Y10283593D01*
X10246458Y10283254D01*
X10246306Y10282953D01*
X10246118Y10282671D01*
X10246100Y10282653D01*
X10246082Y10282615D01*
X10246006Y10282540D01*
X10245930Y10282446D01*
X10245818Y10282333D01*
X10245706Y10282220D01*
X10245554Y10282089D01*
X10245367Y10281957D01*
X10245179Y10281825D01*
X10244954Y10281694D01*
X10244728Y10281581D01*
X10244464Y10281469D01*
X10244182Y10281375D01*
X10243882Y10281299D01*
X10243544Y10281262D01*
X10243206Y10281243D01*
X10243112D01*
X10243036Y10281262D01*
X10242848Y10281281D01*
X10242604Y10281318D01*
X10242322Y10281412D01*
X10242002Y10281525D01*
X10241646Y10281694D01*
X10241307Y10281919D01*
X10240950Y10282201D01*
X10240762Y10282352D01*
X10240593Y10282540D01*
X10240442Y10282747D01*
X10240273Y10282972D01*
X10240123Y10283217D01*
X10239991Y10283499D01*
X10239860Y10283781D01*
X10239747Y10284100D01*
X10239634Y10284457D01*
X10239559Y10284814D01*
X10239484Y10285209D01*
X10239427Y10285641D01*
X10239409Y10286093D01*
X10239390Y10286581D01*
Y10286619D01*
Y10286713D01*
Y10286844D01*
X10239409Y10287032D01*
X10239427Y10287277D01*
X10239446Y10287539D01*
X10239484Y10287841D01*
X10239521Y10288160D01*
X10239634Y10288837D01*
X10239822Y10289532D01*
X10239954Y10289889D01*
X10240085Y10290209D01*
X10240236Y10290529D01*
X10240424Y10290811D01*
X10240442Y10290829D01*
X10240480Y10290867D01*
X10240536Y10290941D01*
X10240612Y10291035D01*
X10240724Y10291149D01*
X10240856Y10291279D01*
X10241006Y10291411D01*
X10241194Y10291543D01*
X10241382Y10291675D01*
X10241608Y10291807D01*
X10241852Y10291937D01*
X10242115Y10292051D01*
X10242416Y10292145D01*
X10242716Y10292219D01*
X10243055Y10292257D01*
X10243412Y10292277D01*
X10243506D01*
X10243582Y10292257D01*
D02*
G37*
G36*
X10234803D02*
X10234973Y10292239D01*
X10235217Y10292201D01*
X10235499Y10292107D01*
X10235818Y10291995D01*
X10236157Y10291825D01*
X10236495Y10291599D01*
X10236833Y10291299D01*
X10237021Y10291129D01*
X10237172Y10290941D01*
X10237341Y10290735D01*
X10237491Y10290509D01*
X10237642Y10290247D01*
X10237773Y10289983D01*
X10237905Y10289683D01*
X10238018Y10289344D01*
X10238112Y10289005D01*
X10238206Y10288629D01*
X10238262Y10288217D01*
X10238318Y10287783D01*
X10238337Y10287314D01*
X10238356Y10286825D01*
Y10286787D01*
Y10286713D01*
Y10286562D01*
X10238337Y10286375D01*
X10238318Y10286149D01*
X10238300Y10285885D01*
X10238281Y10285603D01*
X10238224Y10285284D01*
X10238112Y10284607D01*
X10237924Y10283931D01*
X10237811Y10283593D01*
X10237679Y10283254D01*
X10237529Y10282953D01*
X10237341Y10282671D01*
X10237322Y10282653D01*
X10237303Y10282615D01*
X10237228Y10282540D01*
X10237153Y10282446D01*
X10237040Y10282333D01*
X10236927Y10282220D01*
X10236777Y10282089D01*
X10236589Y10281957D01*
X10236401Y10281825D01*
X10236176Y10281694D01*
X10235950Y10281581D01*
X10235687Y10281469D01*
X10235405Y10281375D01*
X10235104Y10281299D01*
X10234766Y10281262D01*
X10234427Y10281243D01*
X10234333D01*
X10234258Y10281262D01*
X10234070Y10281281D01*
X10233826Y10281318D01*
X10233544Y10281412D01*
X10233224Y10281525D01*
X10232867Y10281694D01*
X10232529Y10281919D01*
X10232172Y10282201D01*
X10231984Y10282352D01*
X10231815Y10282540D01*
X10231664Y10282747D01*
X10231495Y10282972D01*
X10231345Y10283217D01*
X10231213Y10283499D01*
X10231082Y10283781D01*
X10230969Y10284100D01*
X10230856Y10284457D01*
X10230781Y10284814D01*
X10230706Y10285209D01*
X10230649Y10285641D01*
X10230631Y10286093D01*
X10230612Y10286581D01*
Y10286619D01*
Y10286713D01*
Y10286844D01*
X10230631Y10287032D01*
X10230649Y10287277D01*
X10230668Y10287539D01*
X10230706Y10287841D01*
X10230743Y10288160D01*
X10230856Y10288837D01*
X10231044Y10289532D01*
X10231176Y10289889D01*
X10231307Y10290209D01*
X10231458Y10290529D01*
X10231646Y10290811D01*
X10231664Y10290829D01*
X10231702Y10290867D01*
X10231758Y10290941D01*
X10231833Y10291035D01*
X10231946Y10291149D01*
X10232078Y10291279D01*
X10232228Y10291411D01*
X10232416Y10291543D01*
X10232604Y10291675D01*
X10232830Y10291807D01*
X10233074Y10291937D01*
X10233337Y10292051D01*
X10233638Y10292145D01*
X10233939Y10292219D01*
X10234277Y10292257D01*
X10234634Y10292277D01*
X10234728D01*
X10234803Y10292257D01*
D02*
G37*
G36*
X10271625Y10283649D02*
X10271775Y10283630D01*
X10271925Y10283593D01*
X10272076Y10283517D01*
X10272245Y10283442D01*
X10272395Y10283329D01*
X10272415Y10283311D01*
X10272452Y10283273D01*
X10272527Y10283197D01*
X10272603Y10283085D01*
X10272659Y10282972D01*
X10272734Y10282822D01*
X10272771Y10282634D01*
X10272791Y10282446D01*
Y10282427D01*
Y10282352D01*
X10272771Y10282258D01*
X10272734Y10282126D01*
X10272697Y10281995D01*
X10272621Y10281844D01*
X10272527Y10281694D01*
X10272395Y10281562D01*
X10272377Y10281544D01*
X10272321Y10281506D01*
X10272245Y10281469D01*
X10272113Y10281412D01*
X10271982Y10281337D01*
X10271794Y10281299D01*
X10271606Y10281262D01*
X10271381Y10281243D01*
X10271287D01*
X10271174Y10281262D01*
X10271042Y10281281D01*
X10270892Y10281318D01*
X10270723Y10281393D01*
X10270553Y10281469D01*
X10270403Y10281581D01*
X10270385Y10281600D01*
X10270347Y10281638D01*
X10270291Y10281713D01*
X10270215Y10281825D01*
X10270140Y10281957D01*
X10270083Y10282089D01*
X10270046Y10282258D01*
X10270027Y10282446D01*
Y10282465D01*
Y10282540D01*
X10270046Y10282634D01*
X10270083Y10282765D01*
X10270121Y10282897D01*
X10270197Y10283047D01*
X10270291Y10283197D01*
X10270422Y10283329D01*
X10270441Y10283348D01*
X10270497Y10283385D01*
X10270573Y10283442D01*
X10270704Y10283499D01*
X10270835Y10283555D01*
X10271005Y10283611D01*
X10271211Y10283649D01*
X10271418Y10283667D01*
X10271512D01*
X10271625Y10283649D01*
D02*
G37*
G36*
X10249934D02*
X10250084Y10283630D01*
X10250236Y10283593D01*
X10250386Y10283517D01*
X10250554Y10283442D01*
X10250704Y10283329D01*
X10250724Y10283311D01*
X10250762Y10283273D01*
X10250836Y10283197D01*
X10250912Y10283085D01*
X10250968Y10282972D01*
X10251044Y10282822D01*
X10251080Y10282634D01*
X10251100Y10282446D01*
Y10282427D01*
Y10282352D01*
X10251080Y10282258D01*
X10251044Y10282126D01*
X10251006Y10281995D01*
X10250930Y10281844D01*
X10250836Y10281694D01*
X10250704Y10281562D01*
X10250686Y10281544D01*
X10250630Y10281506D01*
X10250554Y10281469D01*
X10250424Y10281412D01*
X10250292Y10281337D01*
X10250104Y10281299D01*
X10249916Y10281262D01*
X10249690Y10281243D01*
X10249596D01*
X10249484Y10281262D01*
X10249352Y10281281D01*
X10249202Y10281318D01*
X10249032Y10281393D01*
X10248862Y10281469D01*
X10248712Y10281581D01*
X10248694Y10281600D01*
X10248656Y10281638D01*
X10248600Y10281713D01*
X10248524Y10281825D01*
X10248450Y10281957D01*
X10248394Y10282089D01*
X10248356Y10282258D01*
X10248336Y10282446D01*
Y10282465D01*
Y10282540D01*
X10248356Y10282634D01*
X10248394Y10282765D01*
X10248430Y10282897D01*
X10248506Y10283047D01*
X10248600Y10283197D01*
X10248732Y10283329D01*
X10248750Y10283348D01*
X10248806Y10283385D01*
X10248882Y10283442D01*
X10249014Y10283499D01*
X10249146Y10283555D01*
X10249314Y10283611D01*
X10249520Y10283649D01*
X10249728Y10283667D01*
X10249822D01*
X10249934Y10283649D01*
D02*
G37*
G36*
X10291154Y10311053D02*
X10291323Y10311034D01*
X10291567Y10310997D01*
X10291849Y10310903D01*
X10292169Y10310790D01*
X10292507Y10310621D01*
X10292845Y10310396D01*
X10293184Y10310095D01*
X10293372Y10309926D01*
X10293522Y10309738D01*
X10293691Y10309531D01*
X10293842Y10309305D01*
X10293992Y10309042D01*
X10294124Y10308779D01*
X10294255Y10308478D01*
X10294368Y10308140D01*
X10294462Y10307802D01*
X10294556Y10307426D01*
X10294612Y10307012D01*
X10294669Y10306580D01*
X10294688Y10306110D01*
X10294706Y10305621D01*
Y10305583D01*
Y10305509D01*
Y10305358D01*
X10294688Y10305170D01*
X10294669Y10304945D01*
X10294650Y10304681D01*
X10294631Y10304399D01*
X10294575Y10304080D01*
X10294462Y10303403D01*
X10294274Y10302727D01*
X10294161Y10302388D01*
X10294030Y10302050D01*
X10293879Y10301749D01*
X10293691Y10301467D01*
X10293673Y10301449D01*
X10293654Y10301411D01*
X10293579Y10301335D01*
X10293503Y10301241D01*
X10293391Y10301129D01*
X10293278Y10301016D01*
X10293127Y10300885D01*
X10292939Y10300753D01*
X10292751Y10300621D01*
X10292526Y10300490D01*
X10292301Y10300377D01*
X10292037Y10300265D01*
X10291755Y10300171D01*
X10291455Y10300095D01*
X10291116Y10300057D01*
X10290778Y10300039D01*
X10290684D01*
X10290609Y10300057D01*
X10290421Y10300077D01*
X10290177Y10300114D01*
X10289895Y10300208D01*
X10289575Y10300321D01*
X10289218Y10300490D01*
X10288879Y10300715D01*
X10288523Y10300997D01*
X10288335Y10301147D01*
X10288165Y10301335D01*
X10288015Y10301543D01*
X10287845Y10301768D01*
X10287695Y10302013D01*
X10287563Y10302295D01*
X10287433Y10302577D01*
X10287319Y10302896D01*
X10287207Y10303253D01*
X10287131Y10303610D01*
X10287057Y10304005D01*
X10287000Y10304437D01*
X10286981Y10304888D01*
X10286963Y10305377D01*
Y10305415D01*
Y10305509D01*
Y10305640D01*
X10286981Y10305828D01*
X10287000Y10306073D01*
X10287019Y10306335D01*
X10287057Y10306636D01*
X10287094Y10306956D01*
X10287207Y10307632D01*
X10287395Y10308328D01*
X10287527Y10308685D01*
X10287657Y10309004D01*
X10287808Y10309324D01*
X10287996Y10309606D01*
X10288015Y10309625D01*
X10288053Y10309662D01*
X10288109Y10309738D01*
X10288184Y10309832D01*
X10288297Y10309944D01*
X10288429Y10310076D01*
X10288579Y10310208D01*
X10288767Y10310339D01*
X10288955Y10310471D01*
X10289181Y10310602D01*
X10289425Y10310734D01*
X10289688Y10310846D01*
X10289989Y10310940D01*
X10290289Y10311016D01*
X10290627Y10311053D01*
X10290985Y10311072D01*
X10291079D01*
X10291154Y10311053D01*
D02*
G37*
G36*
X10258054D02*
X10258224Y10311034D01*
X10258468Y10310997D01*
X10258750Y10310903D01*
X10259069Y10310790D01*
X10259408Y10310621D01*
X10259746Y10310396D01*
X10260084Y10310095D01*
X10260272Y10309926D01*
X10260422Y10309738D01*
X10260592Y10309531D01*
X10260742Y10309305D01*
X10260892Y10309042D01*
X10261024Y10308779D01*
X10261156Y10308478D01*
X10261268Y10308140D01*
X10261362Y10307802D01*
X10261456Y10307426D01*
X10261512Y10307012D01*
X10261569Y10306580D01*
X10261588Y10306110D01*
X10261606Y10305621D01*
Y10305583D01*
Y10305509D01*
Y10305358D01*
X10261588Y10305170D01*
X10261569Y10304945D01*
X10261550Y10304681D01*
X10261532Y10304399D01*
X10261475Y10304080D01*
X10261362Y10303403D01*
X10261174Y10302727D01*
X10261062Y10302388D01*
X10260930Y10302050D01*
X10260780Y10301749D01*
X10260592Y10301467D01*
X10260573Y10301449D01*
X10260554Y10301411D01*
X10260479Y10301335D01*
X10260404Y10301241D01*
X10260291Y10301129D01*
X10260178Y10301016D01*
X10260028Y10300885D01*
X10259840Y10300753D01*
X10259652Y10300621D01*
X10259426Y10300490D01*
X10259200Y10300377D01*
X10258938Y10300265D01*
X10258656Y10300171D01*
X10258354Y10300095D01*
X10258016Y10300057D01*
X10257678Y10300039D01*
X10257584D01*
X10257509Y10300057D01*
X10257321Y10300077D01*
X10257076Y10300114D01*
X10256794Y10300208D01*
X10256476Y10300321D01*
X10256118Y10300490D01*
X10255780Y10300715D01*
X10255422Y10300997D01*
X10255234Y10301147D01*
X10255066Y10301335D01*
X10254916Y10301543D01*
X10254746Y10301768D01*
X10254596Y10302013D01*
X10254464Y10302295D01*
X10254332Y10302577D01*
X10254220Y10302896D01*
X10254106Y10303253D01*
X10254032Y10303610D01*
X10253956Y10304005D01*
X10253900Y10304437D01*
X10253882Y10304888D01*
X10253862Y10305377D01*
Y10305415D01*
Y10305509D01*
Y10305640D01*
X10253882Y10305828D01*
X10253900Y10306073D01*
X10253918Y10306335D01*
X10253956Y10306636D01*
X10253994Y10306956D01*
X10254106Y10307632D01*
X10254294Y10308328D01*
X10254426Y10308685D01*
X10254558Y10309004D01*
X10254708Y10309324D01*
X10254896Y10309606D01*
X10254916Y10309625D01*
X10254952Y10309662D01*
X10255010Y10309738D01*
X10255084Y10309832D01*
X10255198Y10309944D01*
X10255328Y10310076D01*
X10255479Y10310208D01*
X10255667Y10310339D01*
X10255854Y10310471D01*
X10256080Y10310602D01*
X10256324Y10310734D01*
X10256588Y10310846D01*
X10256888Y10310940D01*
X10257190Y10311016D01*
X10257528Y10311053D01*
X10257885Y10311072D01*
X10257979D01*
X10258054Y10311053D01*
D02*
G37*
G36*
X10235217Y10300208D02*
X10232867D01*
Y10308478D01*
X10232830Y10308441D01*
X10232736Y10308365D01*
X10232604Y10308253D01*
X10232416Y10308140D01*
X10232397D01*
X10232379Y10308121D01*
X10232322Y10308083D01*
X10232247Y10308046D01*
X10232059Y10307952D01*
X10231852Y10307858D01*
X10231833D01*
X10231796Y10307839D01*
X10231740Y10307820D01*
X10231664Y10307783D01*
X10231458Y10307726D01*
X10231232Y10307651D01*
X10231213D01*
X10231176Y10307632D01*
X10231119D01*
X10231044Y10307614D01*
X10230837Y10307576D01*
X10230612Y10307538D01*
Y10309531D01*
X10230631D01*
X10230649Y10309550D01*
X10230762Y10309587D01*
X10230931Y10309644D01*
X10231157Y10309719D01*
X10231420Y10309813D01*
X10231721Y10309926D01*
X10232322Y10310208D01*
X10232341D01*
X10232360Y10310226D01*
X10232454Y10310283D01*
X10232623Y10310358D01*
X10232811Y10310471D01*
X10233055Y10310621D01*
X10233300Y10310771D01*
X10233807Y10311128D01*
X10235217D01*
Y10300208D01*
D02*
G37*
G36*
X10308710Y10311053D02*
X10308878Y10311034D01*
X10309122Y10310997D01*
X10309404Y10310903D01*
X10309724Y10310790D01*
X10310062Y10310621D01*
X10310400Y10310396D01*
X10310740Y10310095D01*
X10310928Y10309926D01*
X10311078Y10309738D01*
X10311246Y10309531D01*
X10311398Y10309305D01*
X10311548Y10309042D01*
X10311680Y10308779D01*
X10311810Y10308478D01*
X10311924Y10308140D01*
X10312018Y10307802D01*
X10312112Y10307426D01*
X10312168Y10307012D01*
X10312224Y10306580D01*
X10312242Y10306110D01*
X10312262Y10305621D01*
Y10305583D01*
Y10305509D01*
Y10305358D01*
X10312242Y10305170D01*
X10312224Y10304945D01*
X10312206Y10304681D01*
X10312186Y10304399D01*
X10312130Y10304080D01*
X10312018Y10303403D01*
X10311830Y10302727D01*
X10311716Y10302388D01*
X10311586Y10302050D01*
X10311434Y10301749D01*
X10311246Y10301467D01*
X10311228Y10301449D01*
X10311210Y10301411D01*
X10311134Y10301335D01*
X10311058Y10301241D01*
X10310946Y10301129D01*
X10310834Y10301016D01*
X10310684Y10300885D01*
X10310496Y10300753D01*
X10310306Y10300621D01*
X10310082Y10300490D01*
X10309856Y10300377D01*
X10309592Y10300265D01*
X10309310Y10300171D01*
X10309010Y10300095D01*
X10308672Y10300057D01*
X10308334Y10300039D01*
X10308240D01*
X10308164Y10300057D01*
X10307976Y10300077D01*
X10307732Y10300114D01*
X10307450Y10300208D01*
X10307130Y10300321D01*
X10306774Y10300490D01*
X10306436Y10300715D01*
X10306078Y10300997D01*
X10305890Y10301147D01*
X10305720Y10301335D01*
X10305570Y10301543D01*
X10305402Y10301768D01*
X10305251Y10302013D01*
X10305120Y10302295D01*
X10304988Y10302577D01*
X10304875Y10302896D01*
X10304762Y10303253D01*
X10304688Y10303610D01*
X10304612Y10304005D01*
X10304556Y10304437D01*
X10304536Y10304888D01*
X10304518Y10305377D01*
Y10305415D01*
Y10305509D01*
Y10305640D01*
X10304536Y10305828D01*
X10304556Y10306073D01*
X10304574Y10306335D01*
X10304612Y10306636D01*
X10304650Y10306956D01*
X10304762Y10307632D01*
X10304950Y10308328D01*
X10305082Y10308685D01*
X10305214Y10309004D01*
X10305364Y10309324D01*
X10305552Y10309606D01*
X10305570Y10309625D01*
X10305608Y10309662D01*
X10305664Y10309738D01*
X10305740Y10309832D01*
X10305852Y10309944D01*
X10305984Y10310076D01*
X10306134Y10310208D01*
X10306322Y10310339D01*
X10306510Y10310471D01*
X10306736Y10310602D01*
X10306980Y10310734D01*
X10307244Y10310846D01*
X10307544Y10310940D01*
X10307844Y10311016D01*
X10308184Y10311053D01*
X10308540Y10311072D01*
X10308634D01*
X10308710Y10311053D01*
D02*
G37*
G36*
X10271625Y10289099D02*
X10271775Y10289081D01*
X10271925Y10289025D01*
X10272076Y10288969D01*
X10272245Y10288875D01*
X10272395Y10288761D01*
X10272415Y10288743D01*
X10272452Y10288705D01*
X10272527Y10288629D01*
X10272603Y10288535D01*
X10272659Y10288405D01*
X10272734Y10288253D01*
X10272771Y10288085D01*
X10272791Y10287897D01*
Y10287877D01*
Y10287803D01*
X10272771Y10287709D01*
X10272734Y10287577D01*
X10272697Y10287445D01*
X10272621Y10287295D01*
X10272527Y10287145D01*
X10272395Y10287013D01*
X10272377Y10286995D01*
X10272321Y10286957D01*
X10272245Y10286901D01*
X10272113Y10286844D01*
X10271982Y10286787D01*
X10271794Y10286731D01*
X10271606Y10286693D01*
X10271381Y10286675D01*
X10271287D01*
X10271174Y10286693D01*
X10271042Y10286713D01*
X10270892Y10286750D01*
X10270723Y10286825D01*
X10270553Y10286901D01*
X10270403Y10287013D01*
X10270385Y10287032D01*
X10270347Y10287069D01*
X10270291Y10287163D01*
X10270215Y10287257D01*
X10270140Y10287389D01*
X10270083Y10287539D01*
X10270046Y10287709D01*
X10270027Y10287897D01*
Y10287915D01*
Y10287991D01*
X10270046Y10288085D01*
X10270083Y10288217D01*
X10270121Y10288347D01*
X10270197Y10288499D01*
X10270291Y10288649D01*
X10270422Y10288781D01*
X10270441Y10288799D01*
X10270497Y10288837D01*
X10270573Y10288893D01*
X10270704Y10288949D01*
X10270835Y10289005D01*
X10271005Y10289062D01*
X10271211Y10289099D01*
X10271418Y10289119D01*
X10271512D01*
X10271625Y10289099D01*
D02*
G37*
G36*
X10249934D02*
X10250084Y10289081D01*
X10250236Y10289025D01*
X10250386Y10288969D01*
X10250554Y10288875D01*
X10250704Y10288761D01*
X10250724Y10288743D01*
X10250762Y10288705D01*
X10250836Y10288629D01*
X10250912Y10288535D01*
X10250968Y10288405D01*
X10251044Y10288253D01*
X10251080Y10288085D01*
X10251100Y10287897D01*
Y10287877D01*
Y10287803D01*
X10251080Y10287709D01*
X10251044Y10287577D01*
X10251006Y10287445D01*
X10250930Y10287295D01*
X10250836Y10287145D01*
X10250704Y10287013D01*
X10250686Y10286995D01*
X10250630Y10286957D01*
X10250554Y10286901D01*
X10250424Y10286844D01*
X10250292Y10286787D01*
X10250104Y10286731D01*
X10249916Y10286693D01*
X10249690Y10286675D01*
X10249596D01*
X10249484Y10286693D01*
X10249352Y10286713D01*
X10249202Y10286750D01*
X10249032Y10286825D01*
X10248862Y10286901D01*
X10248712Y10287013D01*
X10248694Y10287032D01*
X10248656Y10287069D01*
X10248600Y10287163D01*
X10248524Y10287257D01*
X10248450Y10287389D01*
X10248394Y10287539D01*
X10248356Y10287709D01*
X10248336Y10287897D01*
Y10287915D01*
Y10287991D01*
X10248356Y10288085D01*
X10248394Y10288217D01*
X10248430Y10288347D01*
X10248506Y10288499D01*
X10248600Y10288649D01*
X10248732Y10288781D01*
X10248750Y10288799D01*
X10248806Y10288837D01*
X10248882Y10288893D01*
X10249014Y10288949D01*
X10249146Y10289005D01*
X10249314Y10289062D01*
X10249520Y10289099D01*
X10249728Y10289119D01*
X10249822D01*
X10249934Y10289099D01*
D02*
G37*
G36*
X10272640Y10298441D02*
X10270553D01*
X10275723Y10310884D01*
X10277847D01*
X10272640Y10298441D01*
D02*
G37*
G36*
X10248318D02*
X10246232D01*
X10251400Y10310884D01*
X10253524D01*
X10248318Y10298441D01*
D02*
G37*
G36*
X10217645Y10336274D02*
X10217899Y10336218D01*
X10218181Y10336162D01*
X10218491Y10336049D01*
X10218830Y10335908D01*
X10219197Y10335739D01*
X10219536Y10335485D01*
X10219874Y10335175D01*
X10220184Y10334807D01*
X10220466Y10334355D01*
X10220721Y10333848D01*
X10220890Y10333228D01*
X10221031Y10332522D01*
X10221059Y10331703D01*
Y10324592D01*
X10217532D01*
Y10331111D01*
Y10331139D01*
Y10331223D01*
Y10331337D01*
X10217504Y10331506D01*
X10217476Y10331675D01*
X10217447Y10331901D01*
X10217306Y10332352D01*
X10217080Y10332804D01*
X10216939Y10333030D01*
X10216770Y10333199D01*
X10216544Y10333368D01*
X10216290Y10333481D01*
X10216008Y10333566D01*
X10215698Y10333594D01*
X10215557D01*
X10215387Y10333566D01*
X10215190Y10333510D01*
X10214964Y10333396D01*
X10214710Y10333284D01*
X10214484Y10333086D01*
X10214258Y10332832D01*
X10214230Y10332804D01*
X10214174Y10332690D01*
X10214089Y10332550D01*
X10214005Y10332324D01*
X10213892Y10332070D01*
X10213807Y10331760D01*
X10213751Y10331393D01*
X10213722Y10330997D01*
Y10324592D01*
X10210195D01*
Y10331167D01*
Y10331195D01*
Y10331281D01*
Y10331393D01*
X10210167Y10331534D01*
X10210139Y10331731D01*
X10210110Y10331929D01*
X10209969Y10332380D01*
X10209743Y10332832D01*
X10209602Y10333030D01*
X10209433Y10333228D01*
X10209235Y10333368D01*
X10208981Y10333481D01*
X10208699Y10333566D01*
X10208389Y10333594D01*
X10208248D01*
X10208078Y10333566D01*
X10207881Y10333510D01*
X10207655Y10333425D01*
X10207401Y10333284D01*
X10207175Y10333114D01*
X10206949Y10332888D01*
X10206921Y10332860D01*
X10206865Y10332748D01*
X10206780Y10332606D01*
X10206696Y10332380D01*
X10206583Y10332098D01*
X10206498Y10331760D01*
X10206442Y10331393D01*
X10206414Y10330941D01*
Y10324592D01*
X10202858D01*
Y10336049D01*
X10206414D01*
Y10334243D01*
X10206442D01*
X10206470Y10334271D01*
X10206555Y10334413D01*
X10206667Y10334581D01*
X10206837Y10334779D01*
X10207062Y10335005D01*
X10207344Y10335259D01*
X10207655Y10335513D01*
X10207994Y10335739D01*
X10208050Y10335767D01*
X10208163Y10335823D01*
X10208361Y10335908D01*
X10208643Y10336021D01*
X10208953Y10336134D01*
X10209320Y10336218D01*
X10209715Y10336274D01*
X10210139Y10336302D01*
X10210364D01*
X10210533Y10336274D01*
X10210731Y10336246D01*
X10210956Y10336190D01*
X10211465Y10336049D01*
X10211747Y10335936D01*
X10212029Y10335795D01*
X10212283Y10335626D01*
X10212565Y10335400D01*
X10212819Y10335175D01*
X10213073Y10334893D01*
X10213271Y10334553D01*
X10213468Y10334187D01*
X10213497Y10334215D01*
X10213525Y10334271D01*
X10213609Y10334384D01*
X10213722Y10334525D01*
X10213835Y10334667D01*
X10214005Y10334865D01*
X10214202Y10335061D01*
X10214427Y10335259D01*
X10214681Y10335457D01*
X10214964Y10335626D01*
X10215303Y10335823D01*
X10215641Y10335964D01*
X10216008Y10336106D01*
X10216403Y10336218D01*
X10216854Y10336274D01*
X10217306Y10336302D01*
X10217476D01*
X10217645Y10336274D01*
D02*
G37*
G36*
X10102933Y10324592D02*
X10098926D01*
X10096273Y10334865D01*
Y10334893D01*
X10096245Y10335005D01*
X10096188Y10335175D01*
X10096160Y10335400D01*
X10096104Y10335654D01*
X10096075Y10335964D01*
X10096047Y10336302D01*
X10096019Y10336670D01*
X10095963D01*
Y10336614D01*
X10095934Y10336500D01*
X10095906Y10336274D01*
X10095878Y10336021D01*
X10095850Y10335739D01*
X10095793Y10335457D01*
X10095737Y10335146D01*
X10095681Y10334865D01*
X10092943Y10324592D01*
X10088766D01*
X10084562Y10340620D01*
X10088513D01*
X10090770Y10329926D01*
Y10329897D01*
X10090798Y10329812D01*
X10090826Y10329644D01*
X10090855Y10329446D01*
X10090883Y10329192D01*
X10090911Y10328853D01*
X10090939Y10328514D01*
X10090968Y10328091D01*
X10091052D01*
Y10328119D01*
Y10328232D01*
X10091081Y10328430D01*
X10091109Y10328656D01*
X10091137Y10328938D01*
X10091194Y10329248D01*
X10091278Y10329615D01*
X10091363Y10329982D01*
X10094269Y10340620D01*
X10098135D01*
X10100788Y10329841D01*
Y10329812D01*
X10100817Y10329728D01*
X10100845Y10329587D01*
X10100873Y10329418D01*
X10100901Y10329164D01*
X10100958Y10328853D01*
X10100986Y10328514D01*
X10101042Y10328119D01*
X10101071D01*
Y10328148D01*
Y10328289D01*
X10101099Y10328458D01*
X10101127Y10328684D01*
X10101155Y10328966D01*
X10101212Y10329276D01*
X10101324Y10329926D01*
X10103525Y10340620D01*
X10107166D01*
X10102933Y10324592D01*
D02*
G37*
G36*
X10188832Y10336274D02*
X10189115Y10336246D01*
X10189680Y10336190D01*
X10189708D01*
X10189821Y10336162D01*
X10189962Y10336134D01*
X10190159Y10336106D01*
X10190413Y10336049D01*
X10190667Y10335992D01*
X10191231Y10335852D01*
Y10333114D01*
X10191203Y10333142D01*
X10191119Y10333170D01*
X10190977Y10333256D01*
X10190808Y10333340D01*
X10190582Y10333425D01*
X10190328Y10333538D01*
X10189792Y10333707D01*
X10189764D01*
X10189651Y10333735D01*
X10189510Y10333763D01*
X10189312Y10333820D01*
X10189087Y10333848D01*
X10188832Y10333876D01*
X10188268Y10333904D01*
X10188071D01*
X10187845Y10333876D01*
X10187619Y10333848D01*
X10187563D01*
X10187450Y10333792D01*
X10187252Y10333735D01*
X10187083Y10333650D01*
X10187055Y10333622D01*
X10186942Y10333566D01*
X10186829Y10333481D01*
X10186716Y10333340D01*
X10186688Y10333312D01*
X10186660Y10333228D01*
X10186603Y10333114D01*
X10186575Y10332944D01*
Y10332888D01*
X10186603Y10332776D01*
X10186660Y10332578D01*
X10186772Y10332408D01*
X10186801Y10332380D01*
X10186914Y10332268D01*
X10187083Y10332155D01*
X10187281Y10332014D01*
X10187309D01*
X10187337Y10331986D01*
X10187506Y10331929D01*
X10187732Y10331844D01*
X10188015Y10331731D01*
X10188043D01*
X10188099Y10331703D01*
X10188156D01*
X10188268Y10331647D01*
X10188522Y10331591D01*
X10188804Y10331477D01*
X10188832D01*
X10188917Y10331421D01*
X10189058Y10331393D01*
X10189228Y10331309D01*
X10189651Y10331139D01*
X10190074Y10330913D01*
X10190103D01*
X10190187Y10330857D01*
X10190272Y10330801D01*
X10190413Y10330715D01*
X10190751Y10330518D01*
X10191062Y10330236D01*
X10191090Y10330208D01*
X10191119Y10330179D01*
X10191203Y10330095D01*
X10191288Y10329982D01*
X10191514Y10329700D01*
X10191683Y10329333D01*
Y10329304D01*
X10191711Y10329248D01*
X10191768Y10329136D01*
X10191796Y10328966D01*
X10191852Y10328796D01*
X10191880Y10328571D01*
X10191909Y10328091D01*
Y10328035D01*
Y10327922D01*
X10191880Y10327725D01*
X10191852Y10327499D01*
X10191796Y10327217D01*
X10191711Y10326934D01*
X10191598Y10326624D01*
X10191457Y10326342D01*
X10191429Y10326313D01*
X10191373Y10326229D01*
X10191288Y10326088D01*
X10191147Y10325918D01*
X10190977Y10325720D01*
X10190780Y10325524D01*
X10190554Y10325326D01*
X10190300Y10325156D01*
X10190272Y10325128D01*
X10190159Y10325072D01*
X10190018Y10325016D01*
X10189821Y10324902D01*
X10189567Y10324818D01*
X10189284Y10324705D01*
X10188945Y10324620D01*
X10188607Y10324536D01*
X10188578D01*
X10188438Y10324507D01*
X10188240Y10324479D01*
X10188015Y10324451D01*
X10187704Y10324395D01*
X10187365Y10324366D01*
X10186631Y10324338D01*
X10186321D01*
X10186152Y10324366D01*
X10185955D01*
X10185475Y10324395D01*
X10184938Y10324479D01*
X10184346Y10324564D01*
X10183753Y10324705D01*
X10183132Y10324874D01*
Y10327753D01*
X10183160Y10327725D01*
X10183273Y10327668D01*
X10183443Y10327583D01*
X10183668Y10327443D01*
X10183951Y10327329D01*
X10184233Y10327189D01*
X10184854Y10326963D01*
X10184882D01*
X10184995Y10326934D01*
X10185164Y10326877D01*
X10185390Y10326849D01*
X10185644Y10326793D01*
X10185926Y10326737D01*
X10186490Y10326709D01*
X10186660D01*
X10186829Y10326737D01*
X10187026D01*
X10187535Y10326821D01*
X10187760Y10326877D01*
X10187986Y10326963D01*
X10188015D01*
X10188071Y10327019D01*
X10188268Y10327159D01*
X10188438Y10327413D01*
X10188494Y10327555D01*
X10188522Y10327753D01*
Y10327781D01*
Y10327809D01*
X10188494Y10327950D01*
X10188409Y10328119D01*
X10188268Y10328289D01*
X10188240Y10328317D01*
X10188099Y10328430D01*
X10187902Y10328542D01*
X10187648Y10328684D01*
X10187619D01*
X10187591Y10328712D01*
X10187506Y10328740D01*
X10187394Y10328796D01*
X10187111Y10328882D01*
X10186801Y10328994D01*
X10186772D01*
X10186716Y10329022D01*
X10186631Y10329050D01*
X10186519Y10329078D01*
X10186237Y10329192D01*
X10185926Y10329304D01*
X10185898D01*
X10185813Y10329362D01*
X10185672Y10329390D01*
X10185531Y10329474D01*
X10185136Y10329644D01*
X10184713Y10329841D01*
X10184684Y10329869D01*
X10184628Y10329897D01*
X10184543Y10329954D01*
X10184402Y10330038D01*
X10184120Y10330264D01*
X10183838Y10330547D01*
Y10330575D01*
X10183781Y10330631D01*
X10183725Y10330687D01*
X10183640Y10330801D01*
X10183471Y10331083D01*
X10183302Y10331449D01*
Y10331477D01*
X10183273Y10331534D01*
X10183245Y10331647D01*
X10183217Y10331788D01*
X10183189Y10331957D01*
X10183160Y10332183D01*
X10183132Y10332662D01*
Y10332720D01*
Y10332832D01*
X10183160Y10333002D01*
X10183189Y10333228D01*
X10183217Y10333481D01*
X10183302Y10333763D01*
X10183386Y10334045D01*
X10183527Y10334299D01*
X10183556Y10334327D01*
X10183612Y10334413D01*
X10183697Y10334553D01*
X10183838Y10334723D01*
X10183979Y10334893D01*
X10184177Y10335089D01*
X10184402Y10335287D01*
X10184656Y10335457D01*
X10184684Y10335485D01*
X10184769Y10335541D01*
X10184938Y10335598D01*
X10185136Y10335710D01*
X10185362Y10335823D01*
X10185644Y10335908D01*
X10185926Y10336021D01*
X10186265Y10336106D01*
X10186293D01*
X10186434Y10336134D01*
X10186603Y10336162D01*
X10186829Y10336218D01*
X10187111Y10336246D01*
X10187422Y10336274D01*
X10188127Y10336302D01*
X10188607D01*
X10188832Y10336274D01*
D02*
G37*
G36*
X10386256Y10340874D02*
X10386482D01*
X10387046Y10340818D01*
X10387666Y10340762D01*
X10388315Y10340648D01*
X10388993Y10340508D01*
X10389614Y10340310D01*
Y10336812D01*
X10389585D01*
X10389529Y10336840D01*
X10389445Y10336896D01*
X10389331Y10336952D01*
X10389191Y10337037D01*
X10388993Y10337122D01*
X10388541Y10337291D01*
X10388005Y10337460D01*
X10387384Y10337629D01*
X10386707Y10337742D01*
X10385945Y10337771D01*
X10385719D01*
X10385579Y10337742D01*
X10385381D01*
X10385155Y10337686D01*
X10384647Y10337601D01*
X10384054Y10337432D01*
X10383462Y10337178D01*
X10383152Y10337008D01*
X10382870Y10336840D01*
X10382587Y10336614D01*
X10382305Y10336360D01*
X10382277Y10336332D01*
X10382249Y10336302D01*
X10382192Y10336218D01*
X10382079Y10336106D01*
X10381995Y10335964D01*
X10381881Y10335795D01*
X10381741Y10335569D01*
X10381627Y10335343D01*
X10381487Y10335089D01*
X10381373Y10334807D01*
X10381147Y10334159D01*
X10380979Y10333396D01*
X10380951Y10332974D01*
X10380922Y10332522D01*
Y10332494D01*
Y10332408D01*
Y10332296D01*
X10380951Y10332126D01*
Y10331929D01*
X10380979Y10331703D01*
X10381091Y10331167D01*
X10381233Y10330575D01*
X10381459Y10329954D01*
X10381797Y10329362D01*
X10381995Y10329078D01*
X10382220Y10328796D01*
X10382249Y10328768D01*
X10382277Y10328740D01*
X10382361Y10328684D01*
X10382446Y10328571D01*
X10382587Y10328486D01*
X10382756Y10328373D01*
X10383152Y10328119D01*
X10383660Y10327865D01*
X10384252Y10327639D01*
X10384957Y10327471D01*
X10385353Y10327443D01*
X10385748Y10327413D01*
X10385945D01*
X10386115Y10327443D01*
X10386284D01*
X10386510Y10327471D01*
X10387018Y10327555D01*
X10387610Y10327668D01*
X10388259Y10327865D01*
X10388937Y10328119D01*
X10389614Y10328458D01*
Y10325156D01*
X10389585D01*
X10389529Y10325128D01*
X10389445Y10325072D01*
X10389303Y10325044D01*
X10389135Y10324958D01*
X10388909Y10324902D01*
X10388655Y10324818D01*
X10388401Y10324761D01*
X10388062Y10324677D01*
X10387723Y10324592D01*
X10387356Y10324536D01*
X10386962Y10324479D01*
X10386510Y10324423D01*
X10386058Y10324366D01*
X10385043Y10324338D01*
X10384873D01*
X10384675Y10324366D01*
X10384421D01*
X10384111Y10324395D01*
X10383772Y10324451D01*
X10383350Y10324507D01*
X10382926Y10324620D01*
X10382474Y10324733D01*
X10381995Y10324874D01*
X10381515Y10325044D01*
X10381035Y10325240D01*
X10380555Y10325496D01*
X10380076Y10325778D01*
X10379652Y10326116D01*
X10379229Y10326483D01*
X10379200Y10326511D01*
X10379144Y10326595D01*
X10379032Y10326709D01*
X10378890Y10326877D01*
X10378749Y10327103D01*
X10378552Y10327357D01*
X10378383Y10327668D01*
X10378185Y10328007D01*
X10377987Y10328402D01*
X10377789Y10328824D01*
X10377593Y10329304D01*
X10377451Y10329812D01*
X10377310Y10330377D01*
X10377197Y10330969D01*
X10377141Y10331591D01*
X10377113Y10332240D01*
Y10332296D01*
Y10332408D01*
X10377141Y10332606D01*
Y10332888D01*
X10377197Y10333199D01*
X10377225Y10333594D01*
X10377310Y10334017D01*
X10377423Y10334469D01*
X10377535Y10334949D01*
X10377705Y10335457D01*
X10377875Y10335992D01*
X10378101Y10336500D01*
X10378383Y10337037D01*
X10378693Y10337545D01*
X10379060Y10338053D01*
X10379482Y10338505D01*
X10379512Y10338533D01*
X10379596Y10338617D01*
X10379736Y10338730D01*
X10379906Y10338871D01*
X10380160Y10339069D01*
X10380442Y10339266D01*
X10380781Y10339492D01*
X10381147Y10339718D01*
X10381571Y10339915D01*
X10382023Y10340140D01*
X10382531Y10340338D01*
X10383094Y10340536D01*
X10383688Y10340677D01*
X10384309Y10340790D01*
X10384957Y10340874D01*
X10385663Y10340903D01*
X10386058D01*
X10386256Y10340874D01*
D02*
G37*
G36*
X10148620D02*
X10148846D01*
X10149410Y10340818D01*
X10150031Y10340762D01*
X10150680Y10340648D01*
X10151357Y10340508D01*
X10151978Y10340310D01*
Y10336812D01*
X10151950D01*
X10151893Y10336840D01*
X10151809Y10336896D01*
X10151696Y10336952D01*
X10151555Y10337037D01*
X10151357Y10337122D01*
X10150906Y10337291D01*
X10150370Y10337460D01*
X10149749Y10337629D01*
X10149072Y10337742D01*
X10148309Y10337771D01*
X10148084D01*
X10147943Y10337742D01*
X10147745D01*
X10147520Y10337686D01*
X10147012Y10337601D01*
X10146419Y10337432D01*
X10145826Y10337178D01*
X10145516Y10337008D01*
X10145234Y10336840D01*
X10144952Y10336614D01*
X10144669Y10336360D01*
X10144641Y10336332D01*
X10144613Y10336302D01*
X10144556Y10336218D01*
X10144443Y10336106D01*
X10144359Y10335964D01*
X10144246Y10335795D01*
X10144105Y10335569D01*
X10143992Y10335343D01*
X10143851Y10335089D01*
X10143738Y10334807D01*
X10143513Y10334159D01*
X10143343Y10333396D01*
X10143315Y10332974D01*
X10143287Y10332522D01*
Y10332494D01*
Y10332408D01*
Y10332296D01*
X10143315Y10332126D01*
Y10331929D01*
X10143343Y10331703D01*
X10143456Y10331167D01*
X10143597Y10330575D01*
X10143823Y10329954D01*
X10144161Y10329362D01*
X10144359Y10329078D01*
X10144585Y10328796D01*
X10144613Y10328768D01*
X10144641Y10328740D01*
X10144726Y10328684D01*
X10144810Y10328571D01*
X10144952Y10328486D01*
X10145121Y10328373D01*
X10145516Y10328119D01*
X10146024Y10327865D01*
X10146616Y10327639D01*
X10147322Y10327471D01*
X10147717Y10327443D01*
X10148112Y10327413D01*
X10148309D01*
X10148479Y10327443D01*
X10148648D01*
X10148874Y10327471D01*
X10149382Y10327555D01*
X10149974Y10327668D01*
X10150624Y10327865D01*
X10151301Y10328119D01*
X10151978Y10328458D01*
Y10325156D01*
X10151950D01*
X10151893Y10325128D01*
X10151809Y10325072D01*
X10151667Y10325044D01*
X10151498Y10324958D01*
X10151273Y10324902D01*
X10151019Y10324818D01*
X10150765Y10324761D01*
X10150426Y10324677D01*
X10150087Y10324592D01*
X10149720Y10324536D01*
X10149326Y10324479D01*
X10148874Y10324423D01*
X10148422Y10324366D01*
X10147407Y10324338D01*
X10147238D01*
X10147040Y10324366D01*
X10146786D01*
X10146475Y10324395D01*
X10146136Y10324451D01*
X10145714Y10324507D01*
X10145290Y10324620D01*
X10144839Y10324733D01*
X10144359Y10324874D01*
X10143879Y10325044D01*
X10143400Y10325240D01*
X10142920Y10325496D01*
X10142440Y10325778D01*
X10142017Y10326116D01*
X10141594Y10326483D01*
X10141565Y10326511D01*
X10141509Y10326595D01*
X10141396Y10326709D01*
X10141255Y10326877D01*
X10141114Y10327103D01*
X10140916Y10327357D01*
X10140747Y10327668D01*
X10140549Y10328007D01*
X10140352Y10328402D01*
X10140154Y10328824D01*
X10139957Y10329304D01*
X10139816Y10329812D01*
X10139675Y10330377D01*
X10139562Y10330969D01*
X10139505Y10331591D01*
X10139477Y10332240D01*
Y10332296D01*
Y10332408D01*
X10139505Y10332606D01*
Y10332888D01*
X10139562Y10333199D01*
X10139590Y10333594D01*
X10139675Y10334017D01*
X10139788Y10334469D01*
X10139900Y10334949D01*
X10140070Y10335457D01*
X10140239Y10335992D01*
X10140464Y10336500D01*
X10140747Y10337037D01*
X10141057Y10337545D01*
X10141424Y10338053D01*
X10141848Y10338505D01*
X10141876Y10338533D01*
X10141960Y10338617D01*
X10142101Y10338730D01*
X10142271Y10338871D01*
X10142524Y10339069D01*
X10142807Y10339266D01*
X10143146Y10339492D01*
X10143513Y10339718D01*
X10143936Y10339915D01*
X10144387Y10340140D01*
X10144895Y10340338D01*
X10145460Y10340536D01*
X10146052Y10340677D01*
X10146673Y10340790D01*
X10147322Y10340874D01*
X10148027Y10340903D01*
X10148422D01*
X10148620Y10340874D01*
D02*
G37*
G36*
X10413685Y10336274D02*
X10413939Y10336218D01*
X10414221Y10336162D01*
X10414531Y10336049D01*
X10414899Y10335908D01*
X10415237Y10335710D01*
X10415604Y10335457D01*
X10415942Y10335146D01*
X10416252Y10334779D01*
X10416534Y10334327D01*
X10416790Y10333763D01*
X10416958Y10333142D01*
X10417100Y10332408D01*
X10417128Y10331591D01*
Y10324592D01*
X10413600D01*
Y10330941D01*
Y10330969D01*
Y10331055D01*
Y10331195D01*
X10413572Y10331365D01*
X10413544Y10331562D01*
X10413488Y10331788D01*
X10413374Y10332268D01*
X10413148Y10332748D01*
X10412980Y10332974D01*
X10412810Y10333170D01*
X10412584Y10333340D01*
X10412330Y10333481D01*
X10412048Y10333566D01*
X10411709Y10333594D01*
X10411569D01*
X10411399Y10333566D01*
X10411173Y10333510D01*
X10410947Y10333425D01*
X10410693Y10333284D01*
X10410439Y10333114D01*
X10410214Y10332888D01*
X10410186Y10332860D01*
X10410129Y10332776D01*
X10410016Y10332606D01*
X10409932Y10332408D01*
X10409819Y10332155D01*
X10409706Y10331844D01*
X10409650Y10331506D01*
X10409622Y10331111D01*
Y10324592D01*
X10406066D01*
Y10336049D01*
X10409622D01*
Y10334215D01*
X10409650D01*
X10409678Y10334243D01*
X10409706Y10334299D01*
X10409790Y10334413D01*
X10409875Y10334553D01*
X10410016Y10334695D01*
X10410186Y10334865D01*
X10410383Y10335061D01*
X10410581Y10335259D01*
X10410835Y10335457D01*
X10411117Y10335654D01*
X10411738Y10335964D01*
X10412104Y10336106D01*
X10412500Y10336218D01*
X10412894Y10336274D01*
X10413346Y10336302D01*
X10413516D01*
X10413685Y10336274D01*
D02*
G37*
G36*
X10272926Y10336218D02*
X10273237Y10336190D01*
X10273491Y10336106D01*
Y10332860D01*
X10273463Y10332888D01*
X10273378Y10332916D01*
X10273237Y10332974D01*
X10273068Y10333030D01*
X10272842Y10333086D01*
X10272588Y10333142D01*
X10272306Y10333199D01*
X10271798D01*
X10271600Y10333142D01*
X10271346Y10333086D01*
X10271064Y10333002D01*
X10270781Y10332832D01*
X10270471Y10332634D01*
X10270217Y10332352D01*
X10270189Y10332324D01*
X10270105Y10332211D01*
X10270020Y10332014D01*
X10269907Y10331760D01*
X10269766Y10331421D01*
X10269681Y10331025D01*
X10269597Y10330547D01*
X10269568Y10330038D01*
Y10324592D01*
X10266013D01*
Y10336049D01*
X10269568D01*
Y10333904D01*
X10269597D01*
Y10333933D01*
X10269625Y10334017D01*
X10269681Y10334130D01*
X10269766Y10334271D01*
X10269991Y10334639D01*
X10270302Y10335089D01*
X10270697Y10335513D01*
X10270951Y10335710D01*
X10271233Y10335880D01*
X10271544Y10336021D01*
X10271854Y10336134D01*
X10272220Y10336218D01*
X10272616Y10336246D01*
X10272814D01*
X10272926Y10336218D01*
D02*
G37*
G36*
X10435752D02*
X10436063Y10336190D01*
X10436317Y10336106D01*
Y10332860D01*
X10436289Y10332888D01*
X10436204Y10332916D01*
X10436063Y10332974D01*
X10435894Y10333030D01*
X10435668Y10333086D01*
X10435414Y10333142D01*
X10435132Y10333199D01*
X10434624D01*
X10434426Y10333142D01*
X10434172Y10333086D01*
X10433890Y10333002D01*
X10433608Y10332832D01*
X10433297Y10332634D01*
X10433043Y10332352D01*
X10433015Y10332324D01*
X10432931Y10332211D01*
X10432845Y10332014D01*
X10432733Y10331760D01*
X10432592Y10331421D01*
X10432507Y10331025D01*
X10432423Y10330547D01*
X10432394Y10330038D01*
Y10324592D01*
X10428839D01*
Y10336049D01*
X10432394D01*
Y10333904D01*
X10432423D01*
Y10333933D01*
X10432451Y10334017D01*
X10432507Y10334130D01*
X10432592Y10334271D01*
X10432817Y10334639D01*
X10433127Y10335089D01*
X10433523Y10335513D01*
X10433777Y10335710D01*
X10434059Y10335880D01*
X10434370Y10336021D01*
X10434680Y10336134D01*
X10435046Y10336218D01*
X10435442Y10336246D01*
X10435640D01*
X10435752Y10336218D01*
D02*
G37*
G36*
X10484290D02*
X10484600Y10336190D01*
X10484855Y10336106D01*
Y10332860D01*
X10484825Y10332888D01*
X10484741Y10332916D01*
X10484600Y10332974D01*
X10484431Y10333030D01*
X10484205Y10333086D01*
X10483951Y10333142D01*
X10483669Y10333199D01*
X10483160D01*
X10482964Y10333142D01*
X10482710Y10333086D01*
X10482427Y10333002D01*
X10482145Y10332832D01*
X10481835Y10332634D01*
X10481581Y10332352D01*
X10481553Y10332324D01*
X10481469Y10332211D01*
X10481383Y10332014D01*
X10481271Y10331760D01*
X10481129Y10331421D01*
X10481045Y10331025D01*
X10480959Y10330547D01*
X10480931Y10330038D01*
Y10324592D01*
X10477375D01*
Y10336049D01*
X10480931D01*
Y10333904D01*
X10480959D01*
Y10333933D01*
X10480988Y10334017D01*
X10481045Y10334130D01*
X10481129Y10334271D01*
X10481355Y10334639D01*
X10481665Y10335089D01*
X10482061Y10335513D01*
X10482314Y10335710D01*
X10482596Y10335880D01*
X10482906Y10336021D01*
X10483218Y10336134D01*
X10483584Y10336218D01*
X10483979Y10336246D01*
X10484177D01*
X10484290Y10336218D01*
D02*
G37*
G36*
X10241151Y10336274D02*
X10241433Y10336246D01*
X10241998Y10336190D01*
X10242026D01*
X10242139Y10336162D01*
X10242280Y10336134D01*
X10242478Y10336106D01*
X10242732Y10336049D01*
X10242986Y10335992D01*
X10243550Y10335852D01*
Y10333114D01*
X10243522Y10333142D01*
X10243438Y10333170D01*
X10243296Y10333256D01*
X10243126Y10333340D01*
X10242902Y10333425D01*
X10242648Y10333538D01*
X10242111Y10333707D01*
X10242083D01*
X10241970Y10333735D01*
X10241829Y10333763D01*
X10241631Y10333820D01*
X10241405Y10333848D01*
X10241151Y10333876D01*
X10240587Y10333904D01*
X10240389D01*
X10240164Y10333876D01*
X10239938Y10333848D01*
X10239882D01*
X10239769Y10333792D01*
X10239571Y10333735D01*
X10239402Y10333650D01*
X10239374Y10333622D01*
X10239261Y10333566D01*
X10239148Y10333481D01*
X10239035Y10333340D01*
X10239007Y10333312D01*
X10238979Y10333228D01*
X10238922Y10333114D01*
X10238894Y10332944D01*
Y10332888D01*
X10238922Y10332776D01*
X10238979Y10332578D01*
X10239091Y10332408D01*
X10239120Y10332380D01*
X10239233Y10332268D01*
X10239402Y10332155D01*
X10239600Y10332014D01*
X10239628D01*
X10239656Y10331986D01*
X10239825Y10331929D01*
X10240051Y10331844D01*
X10240333Y10331731D01*
X10240361D01*
X10240417Y10331703D01*
X10240474D01*
X10240587Y10331647D01*
X10240841Y10331591D01*
X10241123Y10331477D01*
X10241151D01*
X10241237Y10331421D01*
X10241377Y10331393D01*
X10241547Y10331309D01*
X10241970Y10331139D01*
X10242393Y10330913D01*
X10242422D01*
X10242506Y10330857D01*
X10242590Y10330801D01*
X10242732Y10330715D01*
X10243070Y10330518D01*
X10243381Y10330236D01*
X10243409Y10330208D01*
X10243438Y10330179D01*
X10243522Y10330095D01*
X10243606Y10329982D01*
X10243832Y10329700D01*
X10244001Y10329333D01*
Y10329304D01*
X10244030Y10329248D01*
X10244086Y10329136D01*
X10244115Y10328966D01*
X10244171Y10328796D01*
X10244199Y10328571D01*
X10244227Y10328091D01*
Y10328035D01*
Y10327922D01*
X10244199Y10327725D01*
X10244171Y10327499D01*
X10244115Y10327217D01*
X10244030Y10326934D01*
X10243917Y10326624D01*
X10243776Y10326342D01*
X10243748Y10326313D01*
X10243691Y10326229D01*
X10243606Y10326088D01*
X10243466Y10325918D01*
X10243296Y10325720D01*
X10243098Y10325524D01*
X10242872Y10325326D01*
X10242618Y10325156D01*
X10242590Y10325128D01*
X10242478Y10325072D01*
X10242336Y10325016D01*
X10242139Y10324902D01*
X10241885Y10324818D01*
X10241603Y10324705D01*
X10241265Y10324620D01*
X10240925Y10324536D01*
X10240897D01*
X10240757Y10324507D01*
X10240559Y10324479D01*
X10240333Y10324451D01*
X10240023Y10324395D01*
X10239684Y10324366D01*
X10238950Y10324338D01*
X10238640D01*
X10238470Y10324366D01*
X10238273D01*
X10237794Y10324395D01*
X10237257Y10324479D01*
X10236664Y10324564D01*
X10236072Y10324705D01*
X10235451Y10324874D01*
Y10327753D01*
X10235479Y10327725D01*
X10235592Y10327668D01*
X10235762Y10327583D01*
X10235988Y10327443D01*
X10236270Y10327329D01*
X10236552Y10327189D01*
X10237172Y10326963D01*
X10237201D01*
X10237314Y10326934D01*
X10237483Y10326877D01*
X10237709Y10326849D01*
X10237963Y10326793D01*
X10238245Y10326737D01*
X10238809Y10326709D01*
X10238979D01*
X10239148Y10326737D01*
X10239346D01*
X10239854Y10326821D01*
X10240079Y10326877D01*
X10240305Y10326963D01*
X10240333D01*
X10240389Y10327019D01*
X10240587Y10327159D01*
X10240757Y10327413D01*
X10240813Y10327555D01*
X10240841Y10327753D01*
Y10327781D01*
Y10327809D01*
X10240813Y10327950D01*
X10240729Y10328119D01*
X10240587Y10328289D01*
X10240559Y10328317D01*
X10240417Y10328430D01*
X10240220Y10328542D01*
X10239966Y10328684D01*
X10239938D01*
X10239910Y10328712D01*
X10239825Y10328740D01*
X10239713Y10328796D01*
X10239430Y10328882D01*
X10239120Y10328994D01*
X10239091D01*
X10239035Y10329022D01*
X10238950Y10329050D01*
X10238837Y10329078D01*
X10238555Y10329192D01*
X10238245Y10329304D01*
X10238217D01*
X10238132Y10329362D01*
X10237991Y10329390D01*
X10237850Y10329474D01*
X10237455Y10329644D01*
X10237031Y10329841D01*
X10237003Y10329869D01*
X10236947Y10329897D01*
X10236862Y10329954D01*
X10236721Y10330038D01*
X10236439Y10330264D01*
X10236157Y10330547D01*
Y10330575D01*
X10236100Y10330631D01*
X10236044Y10330687D01*
X10235959Y10330801D01*
X10235790Y10331083D01*
X10235620Y10331449D01*
Y10331477D01*
X10235592Y10331534D01*
X10235564Y10331647D01*
X10235536Y10331788D01*
X10235508Y10331957D01*
X10235479Y10332183D01*
X10235451Y10332662D01*
Y10332720D01*
Y10332832D01*
X10235479Y10333002D01*
X10235508Y10333228D01*
X10235536Y10333481D01*
X10235620Y10333763D01*
X10235705Y10334045D01*
X10235846Y10334299D01*
X10235875Y10334327D01*
X10235931Y10334413D01*
X10236016Y10334553D01*
X10236157Y10334723D01*
X10236298Y10334893D01*
X10236495Y10335089D01*
X10236721Y10335287D01*
X10236975Y10335457D01*
X10237003Y10335485D01*
X10237088Y10335541D01*
X10237257Y10335598D01*
X10237455Y10335710D01*
X10237681Y10335823D01*
X10237963Y10335908D01*
X10238245Y10336021D01*
X10238583Y10336106D01*
X10238611D01*
X10238753Y10336134D01*
X10238922Y10336162D01*
X10239148Y10336218D01*
X10239430Y10336246D01*
X10239741Y10336274D01*
X10240446Y10336302D01*
X10240925D01*
X10241151Y10336274D01*
D02*
G37*
G36*
X10366333D02*
X10366615Y10336246D01*
X10367179Y10336190D01*
X10367207D01*
X10367321Y10336162D01*
X10367461Y10336134D01*
X10367659Y10336106D01*
X10367913Y10336049D01*
X10368167Y10335992D01*
X10368732Y10335852D01*
Y10333114D01*
X10368704Y10333142D01*
X10368618Y10333170D01*
X10368478Y10333256D01*
X10368308Y10333340D01*
X10368082Y10333425D01*
X10367828Y10333538D01*
X10367292Y10333707D01*
X10367264D01*
X10367151Y10333735D01*
X10367010Y10333763D01*
X10366813Y10333820D01*
X10366587Y10333848D01*
X10366333Y10333876D01*
X10365768Y10333904D01*
X10365571D01*
X10365345Y10333876D01*
X10365120Y10333848D01*
X10365062D01*
X10364950Y10333792D01*
X10364752Y10333735D01*
X10364583Y10333650D01*
X10364554Y10333622D01*
X10364442Y10333566D01*
X10364329Y10333481D01*
X10364216Y10333340D01*
X10364188Y10333312D01*
X10364160Y10333228D01*
X10364104Y10333114D01*
X10364075Y10332944D01*
Y10332888D01*
X10364104Y10332776D01*
X10364160Y10332578D01*
X10364272Y10332408D01*
X10364301Y10332380D01*
X10364414Y10332268D01*
X10364583Y10332155D01*
X10364780Y10332014D01*
X10364808D01*
X10364838Y10331986D01*
X10365006Y10331929D01*
X10365232Y10331844D01*
X10365514Y10331731D01*
X10365542D01*
X10365599Y10331703D01*
X10365656D01*
X10365768Y10331647D01*
X10366022Y10331591D01*
X10366305Y10331477D01*
X10366333D01*
X10366417Y10331421D01*
X10366559Y10331393D01*
X10366727Y10331309D01*
X10367151Y10331139D01*
X10367574Y10330913D01*
X10367603D01*
X10367687Y10330857D01*
X10367772Y10330801D01*
X10367913Y10330715D01*
X10368252Y10330518D01*
X10368562Y10330236D01*
X10368590Y10330208D01*
X10368618Y10330179D01*
X10368704Y10330095D01*
X10368788Y10329982D01*
X10369014Y10329700D01*
X10369183Y10329333D01*
Y10329304D01*
X10369211Y10329248D01*
X10369268Y10329136D01*
X10369296Y10328966D01*
X10369352Y10328796D01*
X10369380Y10328571D01*
X10369409Y10328091D01*
Y10328035D01*
Y10327922D01*
X10369380Y10327725D01*
X10369352Y10327499D01*
X10369296Y10327217D01*
X10369211Y10326934D01*
X10369098Y10326624D01*
X10368958Y10326342D01*
X10368929Y10326313D01*
X10368872Y10326229D01*
X10368788Y10326088D01*
X10368646Y10325918D01*
X10368478Y10325720D01*
X10368280Y10325524D01*
X10368054Y10325326D01*
X10367800Y10325156D01*
X10367772Y10325128D01*
X10367659Y10325072D01*
X10367518Y10325016D01*
X10367321Y10324902D01*
X10367067Y10324818D01*
X10366785Y10324705D01*
X10366445Y10324620D01*
X10366107Y10324536D01*
X10366079D01*
X10365938Y10324507D01*
X10365740Y10324479D01*
X10365514Y10324451D01*
X10365204Y10324395D01*
X10364866Y10324366D01*
X10364132Y10324338D01*
X10363821D01*
X10363652Y10324366D01*
X10363455D01*
X10362975Y10324395D01*
X10362439Y10324479D01*
X10361846Y10324564D01*
X10361254Y10324705D01*
X10360632Y10324874D01*
Y10327753D01*
X10360660Y10327725D01*
X10360774Y10327668D01*
X10360942Y10327583D01*
X10361168Y10327443D01*
X10361450Y10327329D01*
X10361733Y10327189D01*
X10362354Y10326963D01*
X10362382D01*
X10362495Y10326934D01*
X10362665Y10326877D01*
X10362889Y10326849D01*
X10363143Y10326793D01*
X10363427Y10326737D01*
X10363990Y10326709D01*
X10364160D01*
X10364329Y10326737D01*
X10364526D01*
X10365034Y10326821D01*
X10365260Y10326877D01*
X10365486Y10326963D01*
X10365514D01*
X10365571Y10327019D01*
X10365768Y10327159D01*
X10365938Y10327413D01*
X10365994Y10327555D01*
X10366022Y10327753D01*
Y10327781D01*
Y10327809D01*
X10365994Y10327950D01*
X10365909Y10328119D01*
X10365768Y10328289D01*
X10365740Y10328317D01*
X10365599Y10328430D01*
X10365402Y10328542D01*
X10365148Y10328684D01*
X10365120D01*
X10365092Y10328712D01*
X10365006Y10328740D01*
X10364894Y10328796D01*
X10364612Y10328882D01*
X10364301Y10328994D01*
X10364272D01*
X10364216Y10329022D01*
X10364132Y10329050D01*
X10364019Y10329078D01*
X10363737Y10329192D01*
X10363427Y10329304D01*
X10363398D01*
X10363313Y10329362D01*
X10363173Y10329390D01*
X10363031Y10329474D01*
X10362635Y10329644D01*
X10362213Y10329841D01*
X10362185Y10329869D01*
X10362128Y10329897D01*
X10362043Y10329954D01*
X10361902Y10330038D01*
X10361620Y10330264D01*
X10361338Y10330547D01*
Y10330575D01*
X10361282Y10330631D01*
X10361226Y10330687D01*
X10361140Y10330801D01*
X10360970Y10331083D01*
X10360802Y10331449D01*
Y10331477D01*
X10360774Y10331534D01*
X10360746Y10331647D01*
X10360717Y10331788D01*
X10360688Y10331957D01*
X10360660Y10332183D01*
X10360632Y10332662D01*
Y10332720D01*
Y10332832D01*
X10360660Y10333002D01*
X10360688Y10333228D01*
X10360717Y10333481D01*
X10360802Y10333763D01*
X10360886Y10334045D01*
X10361028Y10334299D01*
X10361056Y10334327D01*
X10361112Y10334413D01*
X10361196Y10334553D01*
X10361338Y10334723D01*
X10361479Y10334893D01*
X10361676Y10335089D01*
X10361902Y10335287D01*
X10362156Y10335457D01*
X10362185Y10335485D01*
X10362269Y10335541D01*
X10362439Y10335598D01*
X10362635Y10335710D01*
X10362861Y10335823D01*
X10363143Y10335908D01*
X10363427Y10336021D01*
X10363765Y10336106D01*
X10363793D01*
X10363934Y10336134D01*
X10364104Y10336162D01*
X10364329Y10336218D01*
X10364612Y10336246D01*
X10364922Y10336274D01*
X10365627Y10336302D01*
X10366107D01*
X10366333Y10336274D01*
D02*
G37*
G36*
X10175146Y10336218D02*
X10175457Y10336190D01*
X10175710Y10336106D01*
Y10332860D01*
X10175682Y10332888D01*
X10175598Y10332916D01*
X10175457Y10332974D01*
X10175287Y10333030D01*
X10175062Y10333086D01*
X10174808Y10333142D01*
X10174525Y10333199D01*
X10174017D01*
X10173820Y10333142D01*
X10173566Y10333086D01*
X10173284Y10333002D01*
X10173002Y10332832D01*
X10172691Y10332634D01*
X10172437Y10332352D01*
X10172409Y10332324D01*
X10172324Y10332211D01*
X10172240Y10332014D01*
X10172127Y10331760D01*
X10171985Y10331421D01*
X10171901Y10331025D01*
X10171816Y10330547D01*
X10171788Y10330038D01*
Y10324592D01*
X10168232D01*
Y10336049D01*
X10171788D01*
Y10333904D01*
X10171816D01*
Y10333933D01*
X10171844Y10334017D01*
X10171901Y10334130D01*
X10171985Y10334271D01*
X10172211Y10334639D01*
X10172522Y10335089D01*
X10172917Y10335513D01*
X10173171Y10335710D01*
X10173453Y10335880D01*
X10173763Y10336021D01*
X10174074Y10336134D01*
X10174441Y10336218D01*
X10174836Y10336246D01*
X10175034D01*
X10175146Y10336218D01*
D02*
G37*
G36*
X10110975Y10341467D02*
X10111201Y10341439D01*
X10111427Y10341383D01*
X10111653Y10341270D01*
X10111907Y10341157D01*
X10112133Y10340988D01*
X10112161Y10340959D01*
X10112217Y10340903D01*
X10112302Y10340790D01*
X10112415Y10340648D01*
X10112527Y10340452D01*
X10112612Y10340226D01*
X10112668Y10339972D01*
X10112697Y10339690D01*
Y10339661D01*
Y10339548D01*
X10112668Y10339407D01*
X10112640Y10339210D01*
X10112556Y10339012D01*
X10112471Y10338787D01*
X10112330Y10338561D01*
X10112133Y10338363D01*
X10112104Y10338335D01*
X10112020Y10338279D01*
X10111907Y10338193D01*
X10111737Y10338109D01*
X10111540Y10338025D01*
X10111286Y10337939D01*
X10110975Y10337883D01*
X10110665Y10337855D01*
X10110524D01*
X10110355Y10337883D01*
X10110157Y10337911D01*
X10109903Y10337968D01*
X10109677Y10338081D01*
X10109423Y10338193D01*
X10109197Y10338363D01*
X10109169Y10338391D01*
X10109113Y10338447D01*
X10109028Y10338589D01*
X10108915Y10338730D01*
X10108802Y10338927D01*
X10108718Y10339153D01*
X10108661Y10339407D01*
X10108633Y10339690D01*
Y10339718D01*
Y10339830D01*
X10108661Y10339972D01*
X10108718Y10340140D01*
X10108774Y10340366D01*
X10108859Y10340564D01*
X10109000Y10340790D01*
X10109197Y10340988D01*
X10109226Y10341016D01*
X10109310Y10341072D01*
X10109423Y10341157D01*
X10109593Y10341241D01*
X10109818Y10341326D01*
X10110044Y10341411D01*
X10110355Y10341467D01*
X10110665Y10341495D01*
X10110806D01*
X10110975Y10341467D01*
D02*
G37*
G36*
X10342205Y10334327D02*
X10342234D01*
X10342262Y10334355D01*
X10342290Y10334413D01*
X10342374Y10334497D01*
X10342458Y10334639D01*
X10342600Y10334779D01*
X10342770Y10334949D01*
X10343164Y10335315D01*
X10343673Y10335682D01*
X10344265Y10335992D01*
X10344603Y10336134D01*
X10344971Y10336218D01*
X10345366Y10336274D01*
X10345760Y10336302D01*
X10345930D01*
X10346128Y10336274D01*
X10346382Y10336218D01*
X10346664Y10336162D01*
X10347002Y10336049D01*
X10347341Y10335908D01*
X10347708Y10335710D01*
X10348075Y10335457D01*
X10348413Y10335175D01*
X10348752Y10334779D01*
X10349034Y10334327D01*
X10349288Y10333792D01*
X10349486Y10333170D01*
X10349598Y10332437D01*
X10349655Y10331619D01*
Y10324592D01*
X10346128D01*
Y10331083D01*
Y10331111D01*
Y10331195D01*
Y10331309D01*
X10346100Y10331477D01*
X10346072Y10331675D01*
X10346042Y10331873D01*
X10345902Y10332352D01*
X10345676Y10332804D01*
X10345535Y10333002D01*
X10345366Y10333199D01*
X10345140Y10333368D01*
X10344886Y10333481D01*
X10344603Y10333566D01*
X10344293Y10333594D01*
X10344153D01*
X10343955Y10333566D01*
X10343757Y10333510D01*
X10343503Y10333425D01*
X10343250Y10333284D01*
X10342996Y10333114D01*
X10342770Y10332888D01*
X10342742Y10332860D01*
X10342684Y10332776D01*
X10342600Y10332606D01*
X10342488Y10332408D01*
X10342374Y10332155D01*
X10342290Y10331844D01*
X10342234Y10331506D01*
X10342205Y10331111D01*
Y10324592D01*
X10338650D01*
Y10341552D01*
X10342205D01*
Y10334327D01*
D02*
G37*
G36*
X10228932Y10336274D02*
X10229243Y10336218D01*
X10229610Y10336162D01*
X10230033Y10336049D01*
X10230485Y10335908D01*
X10230936Y10335682D01*
X10231387Y10335428D01*
X10231839Y10335118D01*
X10232263Y10334723D01*
X10232629Y10334243D01*
X10232939Y10333679D01*
X10233193Y10333030D01*
X10233335Y10332268D01*
X10233391Y10331873D01*
Y10331421D01*
Y10324592D01*
X10230033D01*
Y10326229D01*
X10230005D01*
Y10326200D01*
X10229948Y10326144D01*
X10229892Y10326060D01*
X10229779Y10325946D01*
X10229525Y10325636D01*
X10229158Y10325298D01*
X10228651Y10324930D01*
X10228086Y10324648D01*
X10227747Y10324507D01*
X10227380Y10324423D01*
X10227014Y10324366D01*
X10226590Y10324338D01*
X10226421D01*
X10226308Y10324366D01*
X10226026Y10324395D01*
X10225631Y10324451D01*
X10225208Y10324564D01*
X10224784Y10324733D01*
X10224361Y10324958D01*
X10223966Y10325270D01*
X10223937Y10325326D01*
X10223824Y10325438D01*
X10223655Y10325636D01*
X10223486Y10325946D01*
X10223317Y10326285D01*
X10223148Y10326737D01*
X10223035Y10327217D01*
X10223007Y10327781D01*
Y10327809D01*
Y10327922D01*
X10223035Y10328091D01*
X10223063Y10328317D01*
X10223120Y10328571D01*
X10223204Y10328853D01*
X10223345Y10329192D01*
X10223514Y10329502D01*
X10223712Y10329841D01*
X10223966Y10330179D01*
X10224304Y10330518D01*
X10224671Y10330801D01*
X10225123Y10331083D01*
X10225659Y10331309D01*
X10226252Y10331506D01*
X10226957Y10331619D01*
X10230061Y10332042D01*
Y10332070D01*
Y10332126D01*
Y10332211D01*
X10230033Y10332324D01*
X10229948Y10332634D01*
X10229807Y10332974D01*
X10229694Y10333142D01*
X10229553Y10333312D01*
X10229412Y10333481D01*
X10229214Y10333622D01*
X10228961Y10333735D01*
X10228707Y10333820D01*
X10228396Y10333876D01*
X10228029Y10333904D01*
X10227832D01*
X10227691Y10333876D01*
X10227493D01*
X10227296Y10333848D01*
X10227042Y10333792D01*
X10226788Y10333763D01*
X10226195Y10333622D01*
X10225518Y10333396D01*
X10224841Y10333086D01*
X10224474Y10332916D01*
X10224135Y10332690D01*
Y10335343D01*
X10224163Y10335372D01*
X10224276Y10335400D01*
X10224446Y10335485D01*
X10224671Y10335569D01*
X10224954Y10335682D01*
X10225292Y10335795D01*
X10225687Y10335908D01*
X10226139Y10336021D01*
X10226195D01*
X10226365Y10336078D01*
X10226619Y10336106D01*
X10226929Y10336162D01*
X10227296Y10336218D01*
X10227662Y10336246D01*
X10228481Y10336302D01*
X10228707D01*
X10228932Y10336274D01*
D02*
G37*
G36*
X10180903Y10324592D02*
X10177347D01*
Y10336049D01*
X10180903D01*
Y10324592D01*
D02*
G37*
G36*
X10264207Y10337686D02*
X10259635D01*
Y10324592D01*
X10255995D01*
Y10337686D01*
X10251451D01*
Y10340620D01*
X10264207D01*
Y10337686D01*
D02*
G37*
G36*
X10310204Y10327499D02*
X10316130D01*
Y10324592D01*
X10306592D01*
Y10340620D01*
X10310204D01*
Y10327499D01*
D02*
G37*
G36*
X10321492Y10324592D02*
X10317936D01*
Y10336049D01*
X10321492D01*
Y10324592D01*
D02*
G37*
G36*
X10320052Y10341467D02*
X10320278Y10341439D01*
X10320504Y10341383D01*
X10320730Y10341270D01*
X10320984Y10341157D01*
X10321210Y10340988D01*
X10321238Y10340959D01*
X10321294Y10340903D01*
X10321379Y10340790D01*
X10321492Y10340648D01*
X10321605Y10340452D01*
X10321689Y10340226D01*
X10321746Y10339972D01*
X10321775Y10339690D01*
Y10339661D01*
Y10339548D01*
X10321746Y10339407D01*
X10321718Y10339210D01*
X10321633Y10339012D01*
X10321549Y10338787D01*
X10321407Y10338561D01*
X10321210Y10338363D01*
X10321182Y10338335D01*
X10321097Y10338279D01*
X10320984Y10338193D01*
X10320814Y10338109D01*
X10320618Y10338025D01*
X10320364Y10337939D01*
X10320052Y10337883D01*
X10319742Y10337855D01*
X10319601D01*
X10319432Y10337883D01*
X10319235Y10337911D01*
X10318981Y10337968D01*
X10318755Y10338081D01*
X10318501Y10338193D01*
X10318275Y10338363D01*
X10318247Y10338391D01*
X10318191Y10338447D01*
X10318105Y10338589D01*
X10317993Y10338730D01*
X10317880Y10338927D01*
X10317795Y10339153D01*
X10317739Y10339407D01*
X10317711Y10339690D01*
Y10339718D01*
Y10339830D01*
X10317739Y10339972D01*
X10317795Y10340140D01*
X10317852Y10340366D01*
X10317936Y10340564D01*
X10318077Y10340790D01*
X10318275Y10340988D01*
X10318303Y10341016D01*
X10318387Y10341072D01*
X10318501Y10341157D01*
X10318671Y10341241D01*
X10318896Y10341326D01*
X10319121Y10341411D01*
X10319432Y10341467D01*
X10319742Y10341495D01*
X10319884D01*
X10320052Y10341467D01*
D02*
G37*
G36*
X10179464D02*
X10179689Y10341439D01*
X10179915Y10341383D01*
X10180141Y10341270D01*
X10180395Y10341157D01*
X10180621Y10340988D01*
X10180649Y10340959D01*
X10180706Y10340903D01*
X10180790Y10340790D01*
X10180903Y10340648D01*
X10181016Y10340452D01*
X10181100Y10340226D01*
X10181157Y10339972D01*
X10181185Y10339690D01*
Y10339661D01*
Y10339548D01*
X10181157Y10339407D01*
X10181129Y10339210D01*
X10181044Y10339012D01*
X10180959Y10338787D01*
X10180818Y10338561D01*
X10180621Y10338363D01*
X10180593Y10338335D01*
X10180508Y10338279D01*
X10180395Y10338193D01*
X10180226Y10338109D01*
X10180028Y10338025D01*
X10179774Y10337939D01*
X10179464Y10337883D01*
X10179153Y10337855D01*
X10179012D01*
X10178843Y10337883D01*
X10178646Y10337911D01*
X10178392Y10337968D01*
X10178166Y10338081D01*
X10177912Y10338193D01*
X10177686Y10338363D01*
X10177658Y10338391D01*
X10177601Y10338447D01*
X10177516Y10338589D01*
X10177404Y10338730D01*
X10177291Y10338927D01*
X10177206Y10339153D01*
X10177150Y10339407D01*
X10177122Y10339690D01*
Y10339718D01*
Y10339830D01*
X10177150Y10339972D01*
X10177206Y10340140D01*
X10177263Y10340366D01*
X10177347Y10340564D01*
X10177488Y10340790D01*
X10177686Y10340988D01*
X10177714Y10341016D01*
X10177799Y10341072D01*
X10177912Y10341157D01*
X10178081Y10341241D01*
X10178307Y10341326D01*
X10178533Y10341411D01*
X10178843Y10341467D01*
X10179153Y10341495D01*
X10179294D01*
X10179464Y10341467D01*
D02*
G37*
G36*
X10129402D02*
X10129628Y10341439D01*
X10129854Y10341383D01*
X10130080Y10341270D01*
X10130334Y10341157D01*
X10130560Y10340988D01*
X10130588Y10340959D01*
X10130645Y10340903D01*
X10130729Y10340790D01*
X10130842Y10340648D01*
X10130955Y10340452D01*
X10131039Y10340226D01*
X10131096Y10339972D01*
X10131124Y10339690D01*
Y10339661D01*
Y10339548D01*
X10131096Y10339407D01*
X10131068Y10339210D01*
X10130983Y10339012D01*
X10130898Y10338787D01*
X10130757Y10338561D01*
X10130560Y10338363D01*
X10130532Y10338335D01*
X10130447Y10338279D01*
X10130334Y10338193D01*
X10130165Y10338109D01*
X10129967Y10338025D01*
X10129713Y10337939D01*
X10129402Y10337883D01*
X10129092Y10337855D01*
X10128951D01*
X10128782Y10337883D01*
X10128585Y10337911D01*
X10128330Y10337968D01*
X10128104Y10338081D01*
X10127850Y10338193D01*
X10127625Y10338363D01*
X10127596Y10338391D01*
X10127540Y10338447D01*
X10127455Y10338589D01*
X10127343Y10338730D01*
X10127230Y10338927D01*
X10127145Y10339153D01*
X10127089Y10339407D01*
X10127061Y10339690D01*
Y10339718D01*
Y10339830D01*
X10127089Y10339972D01*
X10127145Y10340140D01*
X10127202Y10340366D01*
X10127286Y10340564D01*
X10127427Y10340790D01*
X10127625Y10340988D01*
X10127653Y10341016D01*
X10127737Y10341072D01*
X10127850Y10341157D01*
X10128020Y10341241D01*
X10128246Y10341326D01*
X10128472Y10341411D01*
X10128782Y10341467D01*
X10129092Y10341495D01*
X10129233D01*
X10129402Y10341467D01*
D02*
G37*
G36*
X10157989Y10334327D02*
X10158017D01*
X10158045Y10334355D01*
X10158074Y10334413D01*
X10158158Y10334497D01*
X10158243Y10334639D01*
X10158384Y10334779D01*
X10158553Y10334949D01*
X10158948Y10335315D01*
X10159456Y10335682D01*
X10160049Y10335992D01*
X10160388Y10336134D01*
X10160754Y10336218D01*
X10161149Y10336274D01*
X10161545Y10336302D01*
X10161714D01*
X10161912Y10336274D01*
X10162166Y10336218D01*
X10162448Y10336162D01*
X10162786Y10336049D01*
X10163125Y10335908D01*
X10163492Y10335710D01*
X10163859Y10335457D01*
X10164197Y10335175D01*
X10164536Y10334779D01*
X10164818Y10334327D01*
X10165072Y10333792D01*
X10165270Y10333170D01*
X10165383Y10332437D01*
X10165439Y10331619D01*
Y10324592D01*
X10161912D01*
Y10331083D01*
Y10331111D01*
Y10331195D01*
Y10331309D01*
X10161883Y10331477D01*
X10161855Y10331675D01*
X10161827Y10331873D01*
X10161686Y10332352D01*
X10161460Y10332804D01*
X10161319Y10333002D01*
X10161149Y10333199D01*
X10160923Y10333368D01*
X10160670Y10333481D01*
X10160388Y10333566D01*
X10160077Y10333594D01*
X10159936D01*
X10159739Y10333566D01*
X10159541Y10333510D01*
X10159287Y10333425D01*
X10159033Y10333284D01*
X10158779Y10333114D01*
X10158553Y10332888D01*
X10158525Y10332860D01*
X10158469Y10332776D01*
X10158384Y10332606D01*
X10158271Y10332408D01*
X10158158Y10332155D01*
X10158074Y10331844D01*
X10158017Y10331506D01*
X10157989Y10331111D01*
Y10324592D01*
X10154433D01*
Y10341552D01*
X10157989D01*
Y10334327D01*
D02*
G37*
G36*
X10455507Y10324592D02*
X10451951D01*
Y10341552D01*
X10455507D01*
Y10324592D01*
D02*
G37*
G36*
X10462025D02*
X10458469D01*
Y10341552D01*
X10462025D01*
Y10324592D01*
D02*
G37*
%LPC*%
G36*
X10329901Y10333594D02*
X10329703D01*
X10329479Y10333538D01*
X10329224Y10333481D01*
X10328914Y10333368D01*
X10328604Y10333199D01*
X10328322Y10332974D01*
X10328040Y10332662D01*
X10328010Y10332634D01*
X10327926Y10332494D01*
X10327814Y10332296D01*
X10327700Y10332014D01*
X10327588Y10331647D01*
X10327474Y10331195D01*
X10327390Y10330687D01*
X10327362Y10330095D01*
Y10330067D01*
Y10330038D01*
Y10329869D01*
X10327390Y10329615D01*
X10327446Y10329276D01*
X10327531Y10328938D01*
X10327644Y10328542D01*
X10327784Y10328176D01*
X10328010Y10327837D01*
X10328040Y10327809D01*
X10328124Y10327725D01*
X10328264Y10327583D01*
X10328462Y10327443D01*
X10328716Y10327273D01*
X10329027Y10327159D01*
X10329365Y10327047D01*
X10329761Y10327019D01*
X10329958D01*
X10330155Y10327075D01*
X10330409Y10327131D01*
X10330692Y10327217D01*
X10330974Y10327357D01*
X10331256Y10327555D01*
X10331538Y10327837D01*
X10331566Y10327865D01*
X10331652Y10328007D01*
X10331764Y10328176D01*
X10331876Y10328430D01*
X10331990Y10328768D01*
X10332102Y10329136D01*
X10332188Y10329587D01*
X10332216Y10330095D01*
Y10330997D01*
Y10331055D01*
Y10331167D01*
X10332188Y10331365D01*
X10332131Y10331619D01*
X10332046Y10331929D01*
X10331934Y10332211D01*
X10331792Y10332522D01*
X10331566Y10332832D01*
X10331538Y10332860D01*
X10331454Y10332944D01*
X10331312Y10333086D01*
X10331115Y10333228D01*
X10330889Y10333340D01*
X10330579Y10333481D01*
X10330269Y10333566D01*
X10329901Y10333594D01*
D02*
G37*
G36*
X10292539Y10333933D02*
X10292397D01*
X10292229Y10333904D01*
X10292031Y10333848D01*
X10291805Y10333763D01*
X10291552Y10333622D01*
X10291326Y10333453D01*
X10291072Y10333228D01*
X10291044Y10333199D01*
X10290986Y10333114D01*
X10290874Y10332944D01*
X10290732Y10332748D01*
X10290620Y10332494D01*
X10290479Y10332183D01*
X10290394Y10331844D01*
X10290310Y10331477D01*
X10294542D01*
Y10331506D01*
Y10331591D01*
Y10331703D01*
X10294514Y10331873D01*
X10294486Y10332042D01*
X10294430Y10332268D01*
X10294288Y10332720D01*
X10294176Y10332944D01*
X10294062Y10333170D01*
X10293894Y10333368D01*
X10293696Y10333538D01*
X10293470Y10333707D01*
X10293188Y10333820D01*
X10292905Y10333904D01*
X10292539Y10333933D01*
D02*
G37*
G36*
X10280150D02*
X10280010D01*
X10279840Y10333904D01*
X10279642Y10333848D01*
X10279417Y10333763D01*
X10279163Y10333622D01*
X10278937Y10333453D01*
X10278683Y10333228D01*
X10278655Y10333199D01*
X10278599Y10333114D01*
X10278485Y10332944D01*
X10278345Y10332748D01*
X10278231Y10332494D01*
X10278091Y10332183D01*
X10278007Y10331844D01*
X10277921Y10331477D01*
X10282155D01*
Y10331506D01*
Y10331591D01*
Y10331703D01*
X10282126Y10331873D01*
X10282098Y10332042D01*
X10282041Y10332268D01*
X10281901Y10332720D01*
X10281787Y10332944D01*
X10281675Y10333170D01*
X10281505Y10333368D01*
X10281307Y10333538D01*
X10281082Y10333707D01*
X10280800Y10333820D01*
X10280518Y10333904D01*
X10280150Y10333933D01*
D02*
G37*
G36*
X10267076Y10307877D02*
X10267057Y10307858D01*
X10267039Y10307802D01*
X10266982Y10307708D01*
X10266907Y10307576D01*
X10266813Y10307426D01*
X10266719Y10307275D01*
X10266494Y10306899D01*
X10266475Y10306881D01*
X10266437Y10306824D01*
X10266381Y10306711D01*
X10266306Y10306599D01*
X10266212Y10306448D01*
X10266099Y10306279D01*
X10265854Y10305922D01*
X10265836Y10305903D01*
X10265798Y10305847D01*
X10265742Y10305753D01*
X10265648Y10305640D01*
X10265554Y10305490D01*
X10265441Y10305339D01*
X10265178Y10305001D01*
X10265159Y10304982D01*
X10265122Y10304926D01*
X10265046Y10304832D01*
X10264971Y10304719D01*
X10264764Y10304456D01*
X10264520Y10304155D01*
X10267076D01*
Y10307877D01*
D02*
G37*
G36*
X10470011Y10333933D02*
X10469869D01*
X10469701Y10333904D01*
X10469503Y10333848D01*
X10469277Y10333763D01*
X10469023Y10333622D01*
X10468798Y10333453D01*
X10468544Y10333228D01*
X10468516Y10333199D01*
X10468458Y10333114D01*
X10468346Y10332944D01*
X10468204Y10332748D01*
X10468092Y10332494D01*
X10467950Y10332183D01*
X10467866Y10331844D01*
X10467782Y10331477D01*
X10472014D01*
Y10331506D01*
Y10331591D01*
Y10331703D01*
X10471986Y10331873D01*
X10471958Y10332042D01*
X10471902Y10332268D01*
X10471760Y10332720D01*
X10471648Y10332944D01*
X10471534Y10333170D01*
X10471365Y10333368D01*
X10471168Y10333538D01*
X10470942Y10333707D01*
X10470660Y10333820D01*
X10470377Y10333904D01*
X10470011Y10333933D01*
D02*
G37*
G36*
X10397628Y10333594D02*
X10397430D01*
X10397177Y10333538D01*
X10396895Y10333481D01*
X10396584Y10333368D01*
X10396273Y10333228D01*
X10395935Y10333002D01*
X10395653Y10332720D01*
X10395625Y10332690D01*
X10395540Y10332550D01*
X10395427Y10332380D01*
X10395314Y10332098D01*
X10395201Y10331760D01*
X10395088Y10331365D01*
X10395004Y10330857D01*
X10394976Y10330321D01*
Y10330292D01*
Y10330179D01*
X10395004Y10330010D01*
X10395032Y10329812D01*
X10395060Y10329558D01*
X10395116Y10329276D01*
X10395201Y10328966D01*
X10395314Y10328684D01*
X10395455Y10328373D01*
X10395625Y10328063D01*
X10395850Y10327781D01*
X10396105Y10327527D01*
X10396415Y10327329D01*
X10396781Y10327159D01*
X10397177Y10327047D01*
X10397656Y10327019D01*
X10397769D01*
X10397882Y10327047D01*
X10398052Y10327075D01*
X10398248Y10327131D01*
X10398474Y10327189D01*
X10398700Y10327301D01*
X10398926Y10327443D01*
X10399152Y10327611D01*
X10399406Y10327837D01*
X10399603Y10328119D01*
X10399801Y10328458D01*
X10399971Y10328824D01*
X10400083Y10329276D01*
X10400167Y10329812D01*
X10400197Y10330405D01*
Y10330433D01*
Y10330547D01*
X10400167Y10330687D01*
Y10330913D01*
X10400111Y10331139D01*
X10400055Y10331421D01*
X10399971Y10331703D01*
X10399885Y10332014D01*
X10399745Y10332296D01*
X10399575Y10332578D01*
X10399349Y10332860D01*
X10399124Y10333086D01*
X10398813Y10333312D01*
X10398474Y10333453D01*
X10398080Y10333566D01*
X10397628Y10333594D01*
D02*
G37*
G36*
X10443513D02*
X10443315D01*
X10443062Y10333538D01*
X10442780Y10333481D01*
X10442468Y10333368D01*
X10442158Y10333228D01*
X10441820Y10333002D01*
X10441537Y10332720D01*
X10441509Y10332690D01*
X10441425Y10332550D01*
X10441312Y10332380D01*
X10441199Y10332098D01*
X10441086Y10331760D01*
X10440973Y10331365D01*
X10440889Y10330857D01*
X10440861Y10330321D01*
Y10330292D01*
Y10330179D01*
X10440889Y10330010D01*
X10440917Y10329812D01*
X10440945Y10329558D01*
X10441001Y10329276D01*
X10441086Y10328966D01*
X10441199Y10328684D01*
X10441340Y10328373D01*
X10441509Y10328063D01*
X10441735Y10327781D01*
X10441989Y10327527D01*
X10442300Y10327329D01*
X10442666Y10327159D01*
X10443062Y10327047D01*
X10443541Y10327019D01*
X10443654D01*
X10443767Y10327047D01*
X10443936Y10327075D01*
X10444133Y10327131D01*
X10444359Y10327189D01*
X10444585Y10327301D01*
X10444811Y10327443D01*
X10445037Y10327611D01*
X10445291Y10327837D01*
X10445488Y10328119D01*
X10445686Y10328458D01*
X10445854Y10328824D01*
X10445968Y10329276D01*
X10446052Y10329812D01*
X10446080Y10330405D01*
Y10330433D01*
Y10330547D01*
X10446052Y10330687D01*
Y10330913D01*
X10445996Y10331139D01*
X10445940Y10331421D01*
X10445854Y10331703D01*
X10445770Y10332014D01*
X10445629Y10332296D01*
X10445460Y10332578D01*
X10445234Y10332860D01*
X10445009Y10333086D01*
X10444698Y10333312D01*
X10444359Y10333453D01*
X10443965Y10333566D01*
X10443513Y10333594D01*
D02*
G37*
G36*
X10256738Y10289081D02*
X10256720Y10289062D01*
X10256700Y10289005D01*
X10256644Y10288911D01*
X10256570Y10288781D01*
X10256476Y10288629D01*
X10256382Y10288479D01*
X10256156Y10288103D01*
X10256136Y10288085D01*
X10256100Y10288029D01*
X10256042Y10287915D01*
X10255968Y10287803D01*
X10255874Y10287653D01*
X10255760Y10287483D01*
X10255516Y10287126D01*
X10255498Y10287107D01*
X10255460Y10287051D01*
X10255404Y10286957D01*
X10255310Y10286844D01*
X10255216Y10286693D01*
X10255104Y10286543D01*
X10254840Y10286205D01*
X10254822Y10286187D01*
X10254784Y10286130D01*
X10254708Y10286036D01*
X10254634Y10285923D01*
X10254426Y10285660D01*
X10254182Y10285359D01*
X10256738D01*
Y10289081D01*
D02*
G37*
G36*
X10286681Y10290471D02*
X10286624D01*
X10286549Y10290453D01*
X10286436Y10290415D01*
X10286323Y10290359D01*
X10286191Y10290265D01*
X10286061Y10290153D01*
X10285929Y10290001D01*
X10285779Y10289795D01*
X10285647Y10289532D01*
X10285515Y10289231D01*
X10285403Y10288855D01*
X10285309Y10288423D01*
X10285251Y10288160D01*
X10285233Y10287897D01*
X10285195Y10287615D01*
X10285177Y10287314D01*
X10285157Y10286995D01*
Y10286637D01*
Y10286619D01*
Y10286599D01*
Y10286487D01*
X10285177Y10286299D01*
Y10286073D01*
X10285195Y10285811D01*
X10285233Y10285491D01*
X10285289Y10285171D01*
X10285345Y10284833D01*
X10285421Y10284495D01*
X10285533Y10284175D01*
X10285647Y10283875D01*
X10285797Y10283593D01*
X10285967Y10283367D01*
X10286173Y10283179D01*
X10286399Y10283066D01*
X10286530Y10283047D01*
X10286661Y10283029D01*
X10286718D01*
X10286793Y10283047D01*
X10286887Y10283085D01*
X10287000Y10283141D01*
X10287131Y10283217D01*
X10287263Y10283348D01*
X10287395Y10283499D01*
X10287527Y10283687D01*
X10287657Y10283931D01*
X10287789Y10284231D01*
X10287902Y10284607D01*
X10287996Y10285021D01*
X10288033Y10285265D01*
X10288071Y10285529D01*
X10288090Y10285791D01*
X10288109Y10286093D01*
X10288127Y10286411D01*
Y10286750D01*
Y10286769D01*
Y10286787D01*
Y10286844D01*
Y10286919D01*
Y10287089D01*
X10288109Y10287333D01*
X10288090Y10287615D01*
X10288053Y10287935D01*
X10288015Y10288273D01*
X10287939Y10288611D01*
X10287865Y10288949D01*
X10287771Y10289287D01*
X10287657Y10289607D01*
X10287527Y10289889D01*
X10287357Y10290133D01*
X10287151Y10290321D01*
X10287057Y10290377D01*
X10286943Y10290435D01*
X10286812Y10290453D01*
X10286681Y10290471D01*
D02*
G37*
G36*
X10243300D02*
X10243243D01*
X10243168Y10290453D01*
X10243055Y10290415D01*
X10242942Y10290359D01*
X10242810Y10290265D01*
X10242679Y10290153D01*
X10242548Y10290001D01*
X10242397Y10289795D01*
X10242266Y10289532D01*
X10242134Y10289231D01*
X10242021Y10288855D01*
X10241927Y10288423D01*
X10241871Y10288160D01*
X10241852Y10287897D01*
X10241814Y10287615D01*
X10241796Y10287314D01*
X10241777Y10286995D01*
Y10286637D01*
Y10286619D01*
Y10286599D01*
Y10286487D01*
X10241796Y10286299D01*
Y10286073D01*
X10241814Y10285811D01*
X10241852Y10285491D01*
X10241908Y10285171D01*
X10241965Y10284833D01*
X10242040Y10284495D01*
X10242152Y10284175D01*
X10242266Y10283875D01*
X10242416Y10283593D01*
X10242585Y10283367D01*
X10242792Y10283179D01*
X10243018Y10283066D01*
X10243149Y10283047D01*
X10243280Y10283029D01*
X10243337D01*
X10243412Y10283047D01*
X10243506Y10283085D01*
X10243619Y10283141D01*
X10243750Y10283217D01*
X10243882Y10283348D01*
X10244014Y10283499D01*
X10244146Y10283687D01*
X10244276Y10283931D01*
X10244408Y10284231D01*
X10244521Y10284607D01*
X10244615Y10285021D01*
X10244652Y10285265D01*
X10244690Y10285529D01*
X10244709Y10285791D01*
X10244728Y10286093D01*
X10244746Y10286411D01*
Y10286750D01*
Y10286769D01*
Y10286787D01*
Y10286844D01*
Y10286919D01*
Y10287089D01*
X10244728Y10287333D01*
X10244709Y10287615D01*
X10244672Y10287935D01*
X10244634Y10288273D01*
X10244558Y10288611D01*
X10244484Y10288949D01*
X10244390Y10289287D01*
X10244276Y10289607D01*
X10244146Y10289889D01*
X10243976Y10290133D01*
X10243770Y10290321D01*
X10243676Y10290377D01*
X10243562Y10290435D01*
X10243431Y10290453D01*
X10243300Y10290471D01*
D02*
G37*
G36*
X10234521D02*
X10234465D01*
X10234390Y10290453D01*
X10234277Y10290415D01*
X10234164Y10290359D01*
X10234033Y10290265D01*
X10233901Y10290153D01*
X10233770Y10290001D01*
X10233619Y10289795D01*
X10233488Y10289532D01*
X10233356Y10289231D01*
X10233243Y10288855D01*
X10233149Y10288423D01*
X10233093Y10288160D01*
X10233074Y10287897D01*
X10233036Y10287615D01*
X10233018Y10287314D01*
X10232999Y10286995D01*
Y10286637D01*
Y10286619D01*
Y10286599D01*
Y10286487D01*
X10233018Y10286299D01*
Y10286073D01*
X10233036Y10285811D01*
X10233074Y10285491D01*
X10233130Y10285171D01*
X10233187Y10284833D01*
X10233262Y10284495D01*
X10233375Y10284175D01*
X10233488Y10283875D01*
X10233638Y10283593D01*
X10233807Y10283367D01*
X10234014Y10283179D01*
X10234240Y10283066D01*
X10234371Y10283047D01*
X10234503Y10283029D01*
X10234559D01*
X10234634Y10283047D01*
X10234728Y10283085D01*
X10234841Y10283141D01*
X10234973Y10283217D01*
X10235104Y10283348D01*
X10235236Y10283499D01*
X10235367Y10283687D01*
X10235499Y10283931D01*
X10235630Y10284231D01*
X10235743Y10284607D01*
X10235837Y10285021D01*
X10235875Y10285265D01*
X10235912Y10285529D01*
X10235931Y10285791D01*
X10235950Y10286093D01*
X10235969Y10286411D01*
Y10286750D01*
Y10286769D01*
Y10286787D01*
Y10286844D01*
Y10286919D01*
Y10287089D01*
X10235950Y10287333D01*
X10235931Y10287615D01*
X10235894Y10287935D01*
X10235856Y10288273D01*
X10235781Y10288611D01*
X10235706Y10288949D01*
X10235612Y10289287D01*
X10235499Y10289607D01*
X10235367Y10289889D01*
X10235198Y10290133D01*
X10234991Y10290321D01*
X10234897Y10290377D01*
X10234785Y10290435D01*
X10234653Y10290453D01*
X10234521Y10290471D01*
D02*
G37*
G36*
X10290872Y10309268D02*
X10290815D01*
X10290741Y10309249D01*
X10290627Y10309211D01*
X10290515Y10309155D01*
X10290383Y10309061D01*
X10290251Y10308948D01*
X10290120Y10308798D01*
X10289969Y10308591D01*
X10289838Y10308328D01*
X10289707Y10308027D01*
X10289594Y10307651D01*
X10289500Y10307219D01*
X10289443Y10306956D01*
X10289425Y10306693D01*
X10289387Y10306411D01*
X10289369Y10306110D01*
X10289349Y10305790D01*
Y10305433D01*
Y10305415D01*
Y10305396D01*
Y10305283D01*
X10289369Y10305095D01*
Y10304869D01*
X10289387Y10304606D01*
X10289425Y10304287D01*
X10289481Y10303967D01*
X10289537Y10303629D01*
X10289613Y10303291D01*
X10289725Y10302971D01*
X10289838Y10302671D01*
X10289989Y10302388D01*
X10290157Y10302163D01*
X10290365Y10301975D01*
X10290590Y10301862D01*
X10290721Y10301843D01*
X10290853Y10301825D01*
X10290909D01*
X10290985Y10301843D01*
X10291079Y10301881D01*
X10291191Y10301937D01*
X10291323Y10302013D01*
X10291455Y10302144D01*
X10291586Y10302295D01*
X10291718Y10302483D01*
X10291849Y10302727D01*
X10291981Y10303027D01*
X10292094Y10303403D01*
X10292188Y10303817D01*
X10292225Y10304061D01*
X10292263Y10304324D01*
X10292281Y10304587D01*
X10292301Y10304888D01*
X10292319Y10305208D01*
Y10305546D01*
Y10305565D01*
Y10305583D01*
Y10305640D01*
Y10305715D01*
Y10305885D01*
X10292301Y10306129D01*
X10292281Y10306411D01*
X10292244Y10306730D01*
X10292207Y10307069D01*
X10292131Y10307407D01*
X10292056Y10307745D01*
X10291962Y10308083D01*
X10291849Y10308403D01*
X10291718Y10308685D01*
X10291549Y10308929D01*
X10291342Y10309117D01*
X10291248Y10309174D01*
X10291135Y10309230D01*
X10291003Y10309249D01*
X10290872Y10309268D01*
D02*
G37*
G36*
X10257772D02*
X10257716D01*
X10257640Y10309249D01*
X10257528Y10309211D01*
X10257415Y10309155D01*
X10257284Y10309061D01*
X10257152Y10308948D01*
X10257020Y10308798D01*
X10256870Y10308591D01*
X10256738Y10308328D01*
X10256606Y10308027D01*
X10256494Y10307651D01*
X10256400Y10307219D01*
X10256344Y10306956D01*
X10256324Y10306693D01*
X10256288Y10306411D01*
X10256268Y10306110D01*
X10256250Y10305790D01*
Y10305433D01*
Y10305415D01*
Y10305396D01*
Y10305283D01*
X10256268Y10305095D01*
Y10304869D01*
X10256288Y10304606D01*
X10256324Y10304287D01*
X10256382Y10303967D01*
X10256438Y10303629D01*
X10256512Y10303291D01*
X10256626Y10302971D01*
X10256738Y10302671D01*
X10256888Y10302388D01*
X10257058Y10302163D01*
X10257264Y10301975D01*
X10257490Y10301862D01*
X10257622Y10301843D01*
X10257754Y10301825D01*
X10257810D01*
X10257885Y10301843D01*
X10257979Y10301881D01*
X10258092Y10301937D01*
X10258224Y10302013D01*
X10258354Y10302144D01*
X10258486Y10302295D01*
X10258618Y10302483D01*
X10258750Y10302727D01*
X10258881Y10303027D01*
X10258994Y10303403D01*
X10259088Y10303817D01*
X10259126Y10304061D01*
X10259163Y10304324D01*
X10259182Y10304587D01*
X10259200Y10304888D01*
X10259220Y10305208D01*
Y10305546D01*
Y10305565D01*
Y10305583D01*
Y10305640D01*
Y10305715D01*
Y10305885D01*
X10259200Y10306129D01*
X10259182Y10306411D01*
X10259144Y10306730D01*
X10259106Y10307069D01*
X10259032Y10307407D01*
X10258956Y10307745D01*
X10258862Y10308083D01*
X10258750Y10308403D01*
X10258618Y10308685D01*
X10258448Y10308929D01*
X10258242Y10309117D01*
X10258148Y10309174D01*
X10258036Y10309230D01*
X10257904Y10309249D01*
X10257772Y10309268D01*
D02*
G37*
G36*
X10308428D02*
X10308372D01*
X10308296Y10309249D01*
X10308184Y10309211D01*
X10308070Y10309155D01*
X10307938Y10309061D01*
X10307808Y10308948D01*
X10307676Y10308798D01*
X10307526Y10308591D01*
X10307394Y10308328D01*
X10307262Y10308027D01*
X10307150Y10307651D01*
X10307056Y10307219D01*
X10306998Y10306956D01*
X10306980Y10306693D01*
X10306942Y10306411D01*
X10306924Y10306110D01*
X10306906Y10305790D01*
Y10305433D01*
Y10305415D01*
Y10305396D01*
Y10305283D01*
X10306924Y10305095D01*
Y10304869D01*
X10306942Y10304606D01*
X10306980Y10304287D01*
X10307036Y10303967D01*
X10307094Y10303629D01*
X10307168Y10303291D01*
X10307281Y10302971D01*
X10307394Y10302671D01*
X10307544Y10302388D01*
X10307714Y10302163D01*
X10307920Y10301975D01*
X10308146Y10301862D01*
X10308278Y10301843D01*
X10308408Y10301825D01*
X10308466D01*
X10308540Y10301843D01*
X10308634Y10301881D01*
X10308748Y10301937D01*
X10308878Y10302013D01*
X10309010Y10302144D01*
X10309142Y10302295D01*
X10309274Y10302483D01*
X10309404Y10302727D01*
X10309536Y10303027D01*
X10309650Y10303403D01*
X10309744Y10303817D01*
X10309780Y10304061D01*
X10309818Y10304324D01*
X10309838Y10304587D01*
X10309856Y10304888D01*
X10309874Y10305208D01*
Y10305546D01*
Y10305565D01*
Y10305583D01*
Y10305640D01*
Y10305715D01*
Y10305885D01*
X10309856Y10306129D01*
X10309838Y10306411D01*
X10309800Y10306730D01*
X10309762Y10307069D01*
X10309686Y10307407D01*
X10309612Y10307745D01*
X10309518Y10308083D01*
X10309404Y10308403D01*
X10309274Y10308685D01*
X10309104Y10308929D01*
X10308898Y10309117D01*
X10308804Y10309174D01*
X10308690Y10309230D01*
X10308560Y10309249D01*
X10308428Y10309268D01*
D02*
G37*
G36*
X10230061Y10330010D02*
X10228001Y10329728D01*
X10227917D01*
X10227832Y10329700D01*
X10227719Y10329672D01*
X10227437Y10329587D01*
X10227126Y10329446D01*
X10226816Y10329248D01*
X10226534Y10328966D01*
X10226421Y10328824D01*
X10226336Y10328628D01*
X10226280Y10328402D01*
X10226252Y10328176D01*
Y10328148D01*
Y10328091D01*
X10226280Y10327979D01*
X10226308Y10327837D01*
X10226365Y10327668D01*
X10226421Y10327499D01*
X10226534Y10327357D01*
X10226675Y10327189D01*
X10226703Y10327159D01*
X10226760Y10327131D01*
X10226844Y10327075D01*
X10226985Y10326991D01*
X10227155Y10326906D01*
X10227352Y10326849D01*
X10227578Y10326821D01*
X10227832Y10326793D01*
X10228001D01*
X10228171Y10326821D01*
X10228396Y10326877D01*
X10228651Y10326963D01*
X10228932Y10327075D01*
X10229186Y10327245D01*
X10229440Y10327471D01*
X10229468Y10327499D01*
X10229525Y10327611D01*
X10229638Y10327753D01*
X10229751Y10327950D01*
X10229864Y10328204D01*
X10229977Y10328514D01*
X10230033Y10328853D01*
X10230061Y10329220D01*
Y10330010D01*
D02*
G37*
%LPD*%
D24*
X10071354Y10132060D02*
Y10139680D01*
X10068814Y10132060D02*
Y10139680D01*
X10390967Y10206990D02*
X10398586D01*
X10390967Y10204450D02*
X10398586D01*
X10451343Y10283641D02*
Y10291261D01*
X10453883Y10283641D02*
Y10291261D01*
D25*
X10060001Y10320000D02*
G03*
X10060001Y10320000I-00030001J00000000D01*
G01*
X10560001Y10320000D02*
G03*
X10560001Y10320000I-00030001J00000000D01*
G01*
X10060001Y10030000D02*
G03*
X10060001Y10030000I-00030001J00000000D01*
G01*
X10560029D02*
G03*
X10560029Y10030000I-00030029J00000000D01*
G01*
X10359905Y10000810D02*
Y10077010D01*
Y10237030D02*
Y10243380D01*
X10339585D02*
X10359905D01*
X10197345D02*
X10217665D01*
X10197345Y10235760D02*
Y10243380D01*
Y10000810D02*
Y10077010D01*
Y10000810D02*
X10359905D01*
D35*
X10068290Y10193274D02*
G03*
X10068290Y10193274I-00001000J00000000D01*
G01*
D36*
X10472614Y10226616D02*
G03*
X10472614Y10226616I-00001250J00000000D01*
G01*
X10461113Y10245159D02*
G03*
X10461113Y10245159I-00001250J00000000D01*
G01*
D37*
X10474572Y10259658D02*
G03*
X10474572Y10259658I-00001250J00000000D01*
G01*
D38*
X10251956Y10050721D02*
X10298945D01*
X10250939Y10050594D02*
X10299834D01*
X10250431Y10050467D02*
X10300469D01*
X10249923Y10050340D02*
X10300977D01*
X10249542Y10050213D02*
X10301357D01*
X10249161Y10050086D02*
X10301740D01*
X10248781Y10049959D02*
X10302120D01*
X10248525Y10049832D02*
X10302374D01*
X10248271Y10049705D02*
X10302628D01*
X10248018Y10049578D02*
X10251700D01*
X10278752D02*
X10302882D01*
X10247764Y10049451D02*
X10250812D01*
X10278625D02*
X10303136D01*
X10247510Y10049324D02*
X10250177D01*
X10278372D02*
X10303390D01*
X10247256Y10049197D02*
X10249796D01*
X10278243D02*
X10303644D01*
X10247002Y10049070D02*
X10249415D01*
X10278116D02*
X10303898D01*
X10246875Y10048943D02*
X10249034D01*
X10277990D02*
X10304025D01*
X10246621Y10048816D02*
X10248781D01*
X10277863D02*
X10304279D01*
X10246494Y10048689D02*
X10248525D01*
X10277736D02*
X10304406D01*
X10246367Y10048562D02*
X10248271D01*
X10277609D02*
X10304659D01*
X10246113Y10048435D02*
X10248018D01*
X10277482D02*
X10304788D01*
X10245986Y10048308D02*
X10247764D01*
X10277355D02*
X10304915D01*
X10245859Y10048181D02*
X10247510D01*
X10277228D02*
X10305042D01*
X10245732Y10048054D02*
X10247383D01*
X10277101D02*
X10305168D01*
X10245479Y10047927D02*
X10247129D01*
X10276974D02*
X10305422D01*
X10245352Y10047800D02*
X10247002D01*
X10276847D02*
X10305549D01*
X10245225Y10047673D02*
X10246875D01*
X10276847D02*
X10305676D01*
X10245096Y10047546D02*
X10246621D01*
X10276720D02*
X10305803D01*
X10244969Y10047419D02*
X10246494D01*
X10276593D02*
X10305930D01*
X10244843Y10047292D02*
X10246367D01*
X10276466D02*
X10306057D01*
X10244716Y10047165D02*
X10246240D01*
X10276339D02*
X10306184D01*
X10244589Y10047038D02*
X10246113D01*
X10276339D02*
X10306311D01*
X10244462Y10046911D02*
X10245859D01*
X10276212D02*
X10306438D01*
X10244462Y10046784D02*
X10245732D01*
X10276085D02*
X10306565D01*
X10244335Y10046657D02*
X10245605D01*
X10276085D02*
X10306565D01*
X10244208Y10046530D02*
X10245479D01*
X10275958D02*
X10306692D01*
X10244081Y10046403D02*
X10245479D01*
X10275831D02*
X10306819D01*
X10243954Y10046276D02*
X10245352D01*
X10275831D02*
X10306946D01*
X10243954Y10046149D02*
X10245225D01*
X10275704D02*
X10306946D01*
X10243827Y10046022D02*
X10245096D01*
X10275577D02*
X10307073D01*
X10243700Y10045895D02*
X10244969D01*
X10275577D02*
X10307200D01*
X10243573Y10045768D02*
X10244843D01*
X10275450D02*
X10307327D01*
X10243573Y10045641D02*
X10244843D01*
X10275450D02*
X10307327D01*
X10243446Y10045514D02*
X10244716D01*
X10275323D02*
X10307454D01*
X10243319Y10045387D02*
X10244589D01*
X10275323D02*
X10307581D01*
X10243319Y10045260D02*
X10244462D01*
X10275197D02*
X10307581D01*
X10243192Y10045133D02*
X10244462D01*
X10275197D02*
X10307708D01*
X10243192Y10045006D02*
X10244335D01*
X10275070D02*
X10307708D01*
X10243065Y10044879D02*
X10244208D01*
X10275070D02*
X10307834D01*
X10243065Y10044752D02*
X10244208D01*
X10274941D02*
X10307961D01*
X10242938Y10044625D02*
X10244081D01*
X10274941D02*
X10307961D01*
X10242938Y10044498D02*
X10244081D01*
X10274941D02*
X10308090D01*
X10242811Y10044371D02*
X10243954D01*
X10274814D02*
X10308090D01*
X10242811Y10044244D02*
X10243954D01*
X10274814D02*
X10308217D01*
X10242684Y10044117D02*
X10243827D01*
X10274688D02*
X10308217D01*
X10242684Y10043990D02*
X10243827D01*
X10274688D02*
X10308217D01*
X10242557Y10043863D02*
X10243700D01*
X10274688D02*
X10308344D01*
X10242557Y10043736D02*
X10243700D01*
X10274561D02*
X10308344D01*
X10242430Y10043609D02*
X10243573D01*
X10251573D02*
X10251700D01*
X10252083D02*
X10254114D01*
X10254368D02*
X10254622D01*
X10265291D02*
X10268466D01*
X10274561D02*
X10278499D01*
X10281674D02*
X10287642D01*
X10289674D02*
X10289928D01*
X10290055D02*
X10290182D01*
X10290436D02*
X10296786D01*
X10298818D02*
X10298945D01*
X10299199D02*
X10308470D01*
X10242430Y10043482D02*
X10243573D01*
X10251573D02*
X10254875D01*
X10265291D02*
X10268719D01*
X10274561D02*
X10278499D01*
X10281801D02*
X10287642D01*
X10290436D02*
X10296532D01*
X10299326D02*
X10308470D01*
X10242430Y10043355D02*
X10243446D01*
X10251573D02*
X10254875D01*
X10265291D02*
X10268719D01*
X10274434D02*
X10278499D01*
X10281801D02*
X10287515D01*
X10290436D02*
X10296532D01*
X10299326D02*
X10308470D01*
X10242303Y10043228D02*
X10243446D01*
X10251573D02*
X10254875D01*
X10265291D02*
X10268719D01*
X10274434D02*
X10278499D01*
X10281801D02*
X10287515D01*
X10290563D02*
X10296532D01*
X10299326D02*
X10308597D01*
X10242303Y10043101D02*
X10243446D01*
X10251573D02*
X10254875D01*
X10265291D02*
X10268719D01*
X10274434D02*
X10278499D01*
X10281674D02*
X10287515D01*
X10290563D02*
X10296405D01*
X10299453D02*
X10308597D01*
X10242303Y10042974D02*
X10243319D01*
X10251573D02*
X10254875D01*
X10265291D02*
X10268719D01*
X10274434D02*
X10278499D01*
X10281674D02*
X10287515D01*
X10290563D02*
X10296405D01*
X10299453D02*
X10308724D01*
X10242177Y10042847D02*
X10243319D01*
X10251573D02*
X10254875D01*
X10265291D02*
X10268719D01*
X10274307D02*
X10278499D01*
X10281801D02*
X10287388D01*
X10290690D02*
X10296405D01*
X10299453D02*
X10308724D01*
X10242177Y10042720D02*
X10243319D01*
X10251573D02*
X10254875D01*
X10265291D02*
X10268719D01*
X10274307D02*
X10278499D01*
X10281801D02*
X10287388D01*
X10290690D02*
X10296278D01*
X10299453D02*
X10308724D01*
X10242177Y10042593D02*
X10243192D01*
X10251573D02*
X10254875D01*
X10265291D02*
X10268719D01*
X10274307D02*
X10278499D01*
X10281801D02*
X10287388D01*
X10290690D02*
X10296278D01*
X10299580D02*
X10308724D01*
X10242050Y10042466D02*
X10243192D01*
X10251573D02*
X10254875D01*
X10265291D02*
X10268719D01*
X10274307D02*
X10278499D01*
X10281801D02*
X10287388D01*
X10290690D02*
X10296278D01*
X10299580D02*
X10308851D01*
X10242050Y10042339D02*
X10243192D01*
X10251573D02*
X10254875D01*
X10265291D02*
X10268719D01*
X10274180D02*
X10278499D01*
X10281801D02*
X10287261D01*
X10290817D02*
X10296278D01*
X10299580D02*
X10308851D01*
X10242050Y10042212D02*
X10243065D01*
X10251573D02*
X10254875D01*
X10265291D02*
X10268719D01*
X10274180D02*
X10278499D01*
X10281801D02*
X10287261D01*
X10290817D02*
X10296151D01*
X10299707D02*
X10308851D01*
X10242050Y10042085D02*
X10243065D01*
X10251573D02*
X10254875D01*
X10265291D02*
X10268719D01*
X10274180D02*
X10278499D01*
X10281801D02*
X10287261D01*
X10290817D02*
X10296151D01*
X10299707D02*
X10308978D01*
X10241923Y10041958D02*
X10243065D01*
X10251573D02*
X10254875D01*
X10265291D02*
X10268719D01*
X10274180D02*
X10278499D01*
X10281801D02*
X10287134D01*
X10290944D02*
X10296151D01*
X10299707D02*
X10308978D01*
X10241923Y10041831D02*
X10243065D01*
X10251573D02*
X10254875D01*
X10265291D02*
X10268719D01*
X10274180D02*
X10278499D01*
X10281801D02*
X10287134D01*
X10290944D02*
X10296024D01*
X10299707D02*
X10308978D01*
X10241923Y10041704D02*
X10242938D01*
X10251573D02*
X10254875D01*
X10265291D02*
X10268719D01*
X10274053D02*
X10278499D01*
X10281801D02*
X10287134D01*
X10290944D02*
X10296024D01*
X10299834D02*
X10308978D01*
X10241923Y10041577D02*
X10242938D01*
X10251573D02*
X10254875D01*
X10265291D02*
X10268719D01*
X10274053D02*
X10278499D01*
X10281801D02*
X10287134D01*
X10290944D02*
X10296024D01*
X10299834D02*
X10308978D01*
X10241923Y10041450D02*
X10242938D01*
X10251573D02*
X10254875D01*
X10265291D02*
X10268719D01*
X10274053D02*
X10278499D01*
X10281801D02*
X10287007D01*
X10291071D02*
X10296024D01*
X10299834D02*
X10309105D01*
X10241794Y10041323D02*
X10242938D01*
X10251573D02*
X10254875D01*
X10265291D02*
X10268719D01*
X10274053D02*
X10278499D01*
X10281801D02*
X10287007D01*
X10291071D02*
X10295897D01*
X10299834D02*
X10309105D01*
X10241794Y10041196D02*
X10242938D01*
X10251573D02*
X10254875D01*
X10265291D02*
X10268719D01*
X10274053D02*
X10278499D01*
X10281801D02*
X10287007D01*
X10291071D02*
X10295897D01*
X10299961D02*
X10309105D01*
X10241794Y10041069D02*
X10242811D01*
X10251573D02*
X10254875D01*
X10265291D02*
X10268719D01*
X10274053D02*
X10278499D01*
X10281801D02*
X10287007D01*
X10291198D02*
X10295897D01*
X10299961D02*
X10309105D01*
X10241794Y10040942D02*
X10242811D01*
X10251573D02*
X10254875D01*
X10265291D02*
X10268719D01*
X10274053D02*
X10278499D01*
X10281801D02*
X10286880D01*
X10291198D02*
X10295770D01*
X10299961D02*
X10309105D01*
X10241794Y10040815D02*
X10242811D01*
X10251573D02*
X10254875D01*
X10265291D02*
X10268719D01*
X10274053D02*
X10278499D01*
X10281801D02*
X10286880D01*
X10291198D02*
X10295770D01*
X10299961D02*
X10309105D01*
X10241794Y10040688D02*
X10242811D01*
X10251573D02*
X10254875D01*
X10265291D02*
X10268719D01*
X10273926D02*
X10278499D01*
X10281801D02*
X10286880D01*
X10291324D02*
X10295770D01*
X10300088D02*
X10309105D01*
X10241667Y10040561D02*
X10242811D01*
X10251573D02*
X10254875D01*
X10265291D02*
X10268719D01*
X10273926D02*
X10278499D01*
X10281801D02*
X10286880D01*
X10291324D02*
X10295770D01*
X10300088D02*
X10309232D01*
X10241667Y10040434D02*
X10242811D01*
X10251573D02*
X10254875D01*
X10265291D02*
X10268719D01*
X10273926D02*
X10278499D01*
X10281801D02*
X10286753D01*
X10291324D02*
X10295643D01*
X10300088D02*
X10309232D01*
X10241667Y10040307D02*
X10242811D01*
X10251573D02*
X10254875D01*
X10265291D02*
X10268719D01*
X10273926D02*
X10278499D01*
X10281801D02*
X10286753D01*
X10291324D02*
X10295643D01*
X10300215D02*
X10309232D01*
X10241667Y10040180D02*
X10242811D01*
X10251573D02*
X10254875D01*
X10265291D02*
X10268719D01*
X10273926D02*
X10278499D01*
X10281801D02*
X10286753D01*
X10291451D02*
X10295643D01*
X10300215D02*
X10309232D01*
X10241667Y10040053D02*
X10242811D01*
X10251573D02*
X10254875D01*
X10265291D02*
X10268719D01*
X10273926D02*
X10278499D01*
X10281801D02*
X10286753D01*
X10291451D02*
X10295516D01*
X10300215D02*
X10309232D01*
X10241667Y10039926D02*
X10242811D01*
X10251573D02*
X10254875D01*
X10265291D02*
X10268719D01*
X10273926D02*
X10278499D01*
X10281801D02*
X10286626D01*
X10291451D02*
X10295516D01*
X10300215D02*
X10309232D01*
X10241667Y10039799D02*
X10242811D01*
X10251573D02*
X10254875D01*
X10265291D02*
X10268719D01*
X10273926D02*
X10278499D01*
X10281801D02*
X10286626D01*
X10291580D02*
X10295516D01*
X10300342D02*
X10309232D01*
X10241667Y10039672D02*
X10242811D01*
X10251573D02*
X10254875D01*
X10265291D02*
X10268719D01*
X10273926D02*
X10278499D01*
X10281801D02*
X10286626D01*
X10291580D02*
X10295516D01*
X10300342D02*
X10309232D01*
X10241667Y10039545D02*
X10242811D01*
X10251573D02*
X10254875D01*
X10265291D02*
X10268719D01*
X10273926D02*
X10278499D01*
X10281801D02*
X10286499D01*
X10291580D02*
X10295389D01*
X10300342D02*
X10309232D01*
X10241667Y10039418D02*
X10242811D01*
X10251573D02*
X10254875D01*
X10265291D02*
X10268719D01*
X10273926D02*
X10278499D01*
X10281801D02*
X10286499D01*
X10291580D02*
X10295389D01*
X10300342D02*
X10309232D01*
X10241667Y10039291D02*
X10242811D01*
X10251573D02*
X10254875D01*
X10265291D02*
X10268719D01*
X10273926D02*
X10278499D01*
X10281801D02*
X10286499D01*
X10291707D02*
X10295389D01*
X10300469D02*
X10309232D01*
X10241667Y10039164D02*
X10242811D01*
X10251573D02*
X10254875D01*
X10265291D02*
X10268719D01*
X10273926D02*
X10278499D01*
X10281801D02*
X10286499D01*
X10291707D02*
X10295262D01*
X10300469D02*
X10309232D01*
X10241667Y10039037D02*
X10242811D01*
X10251573D02*
X10254875D01*
X10265291D02*
X10268719D01*
X10273926D02*
X10278499D01*
X10281801D02*
X10286372D01*
X10291707D02*
X10295262D01*
X10300469D02*
X10309232D01*
X10241667Y10038910D02*
X10242811D01*
X10251573D02*
X10254875D01*
X10265291D02*
X10268719D01*
X10273926D02*
X10278499D01*
X10281801D02*
X10286372D01*
X10291707D02*
X10295262D01*
X10300469D02*
X10309232D01*
X10241667Y10038783D02*
X10242811D01*
X10251573D02*
X10254875D01*
X10265291D02*
X10268719D01*
X10273926D02*
X10278499D01*
X10281801D02*
X10286372D01*
X10291833D02*
X10295262D01*
X10300596D02*
X10309232D01*
X10241667Y10038656D02*
X10242811D01*
X10251573D02*
X10254875D01*
X10265291D02*
X10268719D01*
X10273926D02*
X10278499D01*
X10281801D02*
X10286372D01*
X10291833D02*
X10295135D01*
X10300596D02*
X10309232D01*
X10241667Y10038529D02*
X10242811D01*
X10251573D02*
X10254875D01*
X10265291D02*
X10268719D01*
X10273926D02*
X10278499D01*
X10281801D02*
X10286245D01*
X10291833D02*
X10295135D01*
X10300596D02*
X10309232D01*
X10241667Y10038402D02*
X10242811D01*
X10251573D02*
X10254875D01*
X10265291D02*
X10268719D01*
X10273926D02*
X10278499D01*
X10281801D02*
X10286245D01*
X10291960D02*
X10295135D01*
X10300723D02*
X10309232D01*
X10241667Y10038275D02*
X10242811D01*
X10251573D02*
X10254875D01*
X10265291D02*
X10268719D01*
X10273926D02*
X10278499D01*
X10281801D02*
X10286245D01*
X10291960D02*
X10295009D01*
X10300723D02*
X10309232D01*
X10241667Y10038148D02*
X10242811D01*
X10251573D02*
X10254875D01*
X10265291D02*
X10268719D01*
X10273926D02*
X10278499D01*
X10281801D02*
X10286245D01*
X10289039D02*
X10289166D01*
X10291960D02*
X10295009D01*
X10300723D02*
X10309232D01*
X10241667Y10038021D02*
X10242811D01*
X10251573D02*
X10254875D01*
X10265291D02*
X10268719D01*
X10273926D02*
X10278499D01*
X10281801D02*
X10286118D01*
X10289039D02*
X10289166D01*
X10292087D02*
X10295009D01*
X10300723D02*
X10309232D01*
X10241667Y10037894D02*
X10242811D01*
X10251573D02*
X10254875D01*
X10265291D02*
X10268719D01*
X10273926D02*
X10278499D01*
X10281801D02*
X10286118D01*
X10288912D02*
X10289166D01*
X10292087D02*
X10294882D01*
X10300850D02*
X10309232D01*
X10241667Y10037767D02*
X10242811D01*
X10251573D02*
X10254875D01*
X10265291D02*
X10268719D01*
X10273926D02*
X10278499D01*
X10281801D02*
X10286118D01*
X10288912D02*
X10289166D01*
X10292087D02*
X10294882D01*
X10297675D02*
X10297802D01*
X10300850D02*
X10309232D01*
X10241667Y10037640D02*
X10242811D01*
X10251573D02*
X10254875D01*
X10265291D02*
X10268719D01*
X10273926D02*
X10278499D01*
X10281801D02*
X10286118D01*
X10288912D02*
X10289293D01*
X10292087D02*
X10294882D01*
X10297675D02*
X10297928D01*
X10300850D02*
X10309232D01*
X10241667Y10037513D02*
X10242811D01*
X10251573D02*
X10254875D01*
X10257670D02*
X10268719D01*
X10273926D02*
X10278499D01*
X10281801D02*
X10285991D01*
X10288912D02*
X10289293D01*
X10292214D02*
X10294882D01*
X10297675D02*
X10297928D01*
X10300850D02*
X10309232D01*
X10241667Y10037386D02*
X10242811D01*
X10251573D02*
X10254875D01*
X10257670D02*
X10268719D01*
X10273926D02*
X10278499D01*
X10281801D02*
X10285991D01*
X10288785D02*
X10289293D01*
X10292214D02*
X10294753D01*
X10297548D02*
X10297928D01*
X10300977D02*
X10309232D01*
X10241667Y10037259D02*
X10242811D01*
X10251573D02*
X10254875D01*
X10257670D02*
X10268719D01*
X10273926D02*
X10278499D01*
X10281801D02*
X10285991D01*
X10288785D02*
X10289420D01*
X10292214D02*
X10294753D01*
X10297548D02*
X10297928D01*
X10300977D02*
X10309232D01*
X10241667Y10037132D02*
X10242811D01*
X10251573D02*
X10254875D01*
X10257670D02*
X10268719D01*
X10273926D02*
X10278499D01*
X10281801D02*
X10285864D01*
X10288785D02*
X10289420D01*
X10292341D02*
X10294753D01*
X10297548D02*
X10298055D01*
X10300977D02*
X10309232D01*
X10241667Y10037005D02*
X10242811D01*
X10251573D02*
X10254875D01*
X10257670D02*
X10268719D01*
X10273926D02*
X10278499D01*
X10281801D02*
X10285864D01*
X10288785D02*
X10289420D01*
X10292341D02*
X10294626D01*
X10297548D02*
X10298055D01*
X10301104D02*
X10309232D01*
X10241667Y10036878D02*
X10242811D01*
X10251573D02*
X10254875D01*
X10257670D02*
X10268719D01*
X10273926D02*
X10278499D01*
X10281801D02*
X10285864D01*
X10288785D02*
X10289420D01*
X10292341D02*
X10294626D01*
X10297421D02*
X10298055D01*
X10301104D02*
X10309232D01*
X10241667Y10036751D02*
X10242811D01*
X10251573D02*
X10254875D01*
X10257670D02*
X10268719D01*
X10273926D02*
X10278499D01*
X10281801D02*
X10285864D01*
X10288658D02*
X10289547D01*
X10292341D02*
X10294626D01*
X10297421D02*
X10298055D01*
X10301104D02*
X10309232D01*
X10241667Y10036624D02*
X10242811D01*
X10251573D02*
X10254875D01*
X10257670D02*
X10268719D01*
X10273926D02*
X10278499D01*
X10281801D02*
X10285737D01*
X10288658D02*
X10289547D01*
X10292468D02*
X10294626D01*
X10297421D02*
X10298055D01*
X10301104D02*
X10309232D01*
X10241667Y10036497D02*
X10242811D01*
X10251573D02*
X10254875D01*
X10257670D02*
X10268719D01*
X10273926D02*
X10278499D01*
X10281801D02*
X10285737D01*
X10288658D02*
X10289547D01*
X10292468D02*
X10294500D01*
X10297294D02*
X10298184D01*
X10301230D02*
X10309232D01*
X10241667Y10036370D02*
X10242811D01*
X10251573D02*
X10254875D01*
X10257670D02*
X10268719D01*
X10273926D02*
X10278499D01*
X10281801D02*
X10285737D01*
X10288658D02*
X10289547D01*
X10292468D02*
X10294500D01*
X10297294D02*
X10298184D01*
X10301230D02*
X10309232D01*
X10241667Y10036243D02*
X10242811D01*
X10251573D02*
X10254875D01*
X10257670D02*
X10268719D01*
X10273926D02*
X10278499D01*
X10281801D02*
X10285737D01*
X10288531D02*
X10289674D01*
X10292595D02*
X10294500D01*
X10297294D02*
X10298184D01*
X10301230D02*
X10309232D01*
X10241667Y10036116D02*
X10242811D01*
X10251573D02*
X10254875D01*
X10257670D02*
X10268719D01*
X10273926D02*
X10278499D01*
X10281801D02*
X10285610D01*
X10288531D02*
X10289674D01*
X10292595D02*
X10294373D01*
X10297167D02*
X10298184D01*
X10301230D02*
X10309232D01*
X10241667Y10035989D02*
X10242811D01*
X10251573D02*
X10254875D01*
X10257670D02*
X10268719D01*
X10273926D02*
X10278499D01*
X10281801D02*
X10285610D01*
X10288531D02*
X10289674D01*
X10292595D02*
X10294373D01*
X10297167D02*
X10298311D01*
X10301357D02*
X10309232D01*
X10241667Y10035862D02*
X10242811D01*
X10251573D02*
X10254875D01*
X10257670D02*
X10268719D01*
X10273926D02*
X10278499D01*
X10281801D02*
X10285610D01*
X10288531D02*
X10289801D01*
X10292595D02*
X10294373D01*
X10297167D02*
X10298311D01*
X10301357D02*
X10309232D01*
X10241667Y10035735D02*
X10242811D01*
X10251573D02*
X10254875D01*
X10257670D02*
X10268719D01*
X10273926D02*
X10278499D01*
X10281801D02*
X10285610D01*
X10288405D02*
X10289801D01*
X10292722D02*
X10294373D01*
X10297167D02*
X10298311D01*
X10301357D02*
X10309232D01*
X10241667Y10035608D02*
X10242811D01*
X10251573D02*
X10254875D01*
X10257670D02*
X10268719D01*
X10273926D02*
X10278499D01*
X10281801D02*
X10285483D01*
X10288405D02*
X10289801D01*
X10292722D02*
X10294246D01*
X10297040D02*
X10298311D01*
X10301357D02*
X10309232D01*
X10241667Y10035481D02*
X10242811D01*
X10251573D02*
X10254875D01*
X10257670D02*
X10268719D01*
X10273926D02*
X10278499D01*
X10281801D02*
X10285483D01*
X10288405D02*
X10289928D01*
X10292722D02*
X10294246D01*
X10297040D02*
X10298311D01*
X10301486D02*
X10309232D01*
X10241667Y10035354D02*
X10242811D01*
X10251573D02*
X10254875D01*
X10257670D02*
X10268719D01*
X10273926D02*
X10278499D01*
X10281801D02*
X10285483D01*
X10288405D02*
X10289928D01*
X10292849D02*
X10294246D01*
X10297040D02*
X10298438D01*
X10301486D02*
X10309232D01*
X10241667Y10035227D02*
X10242811D01*
X10251573D02*
X10254875D01*
X10257670D02*
X10268719D01*
X10273926D02*
X10278499D01*
X10281801D02*
X10285483D01*
X10288405D02*
X10289928D01*
X10292849D02*
X10294119D01*
X10296913D02*
X10298438D01*
X10301486D02*
X10309232D01*
X10241667Y10035100D02*
X10242811D01*
X10251573D02*
X10254875D01*
X10257670D02*
X10268719D01*
X10273926D02*
X10278499D01*
X10281801D02*
X10285356D01*
X10288278D02*
X10289928D01*
X10292849D02*
X10294119D01*
X10296913D02*
X10298438D01*
X10301613D02*
X10309232D01*
X10241667Y10034973D02*
X10242811D01*
X10251573D02*
X10254875D01*
X10257670D02*
X10268719D01*
X10273926D02*
X10278499D01*
X10281801D02*
X10285356D01*
X10288278D02*
X10290055D01*
X10292849D02*
X10294119D01*
X10296913D02*
X10298438D01*
X10301613D02*
X10309232D01*
X10241667Y10034846D02*
X10242811D01*
X10251573D02*
X10254875D01*
X10257670D02*
X10268719D01*
X10273926D02*
X10278499D01*
X10281801D02*
X10285356D01*
X10288278D02*
X10290055D01*
X10292976D02*
X10294119D01*
X10296913D02*
X10298564D01*
X10301613D02*
X10309232D01*
X10241667Y10034719D02*
X10242811D01*
X10251573D02*
X10254875D01*
X10257670D02*
X10268719D01*
X10273926D02*
X10278499D01*
X10281801D02*
X10285229D01*
X10288278D02*
X10290055D01*
X10292976D02*
X10293992D01*
X10296786D02*
X10298564D01*
X10301613D02*
X10309232D01*
X10241667Y10034592D02*
X10242811D01*
X10251573D02*
X10254875D01*
X10257670D02*
X10268719D01*
X10273926D02*
X10278499D01*
X10281801D02*
X10285229D01*
X10288149D02*
X10290182D01*
X10292976D02*
X10293992D01*
X10296786D02*
X10298564D01*
X10301740D02*
X10309232D01*
X10241667Y10034465D02*
X10242811D01*
X10251573D02*
X10254875D01*
X10257670D02*
X10268719D01*
X10273926D02*
X10278499D01*
X10281801D02*
X10285229D01*
X10288149D02*
X10290182D01*
X10293103D02*
X10293992D01*
X10296786D02*
X10298564D01*
X10301740D02*
X10309232D01*
X10241667Y10034338D02*
X10242811D01*
X10251573D02*
X10254875D01*
X10265291D02*
X10268719D01*
X10273926D02*
X10278499D01*
X10281801D02*
X10285229D01*
X10288149D02*
X10290182D01*
X10293103D02*
X10293865D01*
X10296659D02*
X10298564D01*
X10301740D02*
X10309232D01*
X10241667Y10034211D02*
X10242811D01*
X10251573D02*
X10254875D01*
X10265291D02*
X10268719D01*
X10273926D02*
X10278499D01*
X10281801D02*
X10285103D01*
X10288149D02*
X10290182D01*
X10293103D02*
X10293865D01*
X10296659D02*
X10298691D01*
X10301740D02*
X10309232D01*
X10241667Y10034084D02*
X10242811D01*
X10251573D02*
X10254875D01*
X10265291D02*
X10268719D01*
X10273926D02*
X10278499D01*
X10281801D02*
X10285103D01*
X10288022D02*
X10290309D01*
X10293103D02*
X10293865D01*
X10296659D02*
X10298691D01*
X10301866D02*
X10309232D01*
X10241667Y10033957D02*
X10242811D01*
X10251573D02*
X10254875D01*
X10265291D02*
X10268719D01*
X10273926D02*
X10278499D01*
X10281801D02*
X10285103D01*
X10288022D02*
X10290309D01*
X10293230D02*
X10293865D01*
X10296532D02*
X10298691D01*
X10301866D02*
X10309232D01*
X10241667Y10033830D02*
X10242811D01*
X10251573D02*
X10254875D01*
X10265291D02*
X10268719D01*
X10273926D02*
X10278499D01*
X10281801D02*
X10285103D01*
X10288022D02*
X10290309D01*
X10293230D02*
X10293738D01*
X10296532D02*
X10298691D01*
X10301866D02*
X10309232D01*
X10241667Y10033703D02*
X10242811D01*
X10251573D02*
X10254875D01*
X10265291D02*
X10268719D01*
X10273926D02*
X10278499D01*
X10281674D02*
X10284976D01*
X10288022D02*
X10290436D01*
X10293230D02*
X10293738D01*
X10296532D02*
X10298818D01*
X10301993D02*
X10309232D01*
X10241667Y10033576D02*
X10242811D01*
X10251573D02*
X10254875D01*
X10265291D02*
X10268719D01*
X10273926D02*
X10278499D01*
X10281801D02*
X10284976D01*
X10288022D02*
X10290436D01*
X10293357D02*
X10293738D01*
X10296532D02*
X10298818D01*
X10301993D02*
X10309232D01*
X10241667Y10033449D02*
X10242811D01*
X10251573D02*
X10254875D01*
X10265291D02*
X10268719D01*
X10273926D02*
X10278499D01*
X10281801D02*
X10284976D01*
X10287896D02*
X10290436D01*
X10293357D02*
X10293611D01*
X10296405D02*
X10298818D01*
X10301993D02*
X10309232D01*
X10241667Y10033322D02*
X10242811D01*
X10251573D02*
X10254875D01*
X10265291D02*
X10268719D01*
X10273926D02*
X10278499D01*
X10281801D02*
X10284976D01*
X10287896D02*
X10290436D01*
X10293357D02*
X10293611D01*
X10296405D02*
X10298818D01*
X10301993D02*
X10309232D01*
X10241667Y10033195D02*
X10242811D01*
X10251573D02*
X10254875D01*
X10265291D02*
X10268719D01*
X10273926D02*
X10278499D01*
X10281801D02*
X10284847D01*
X10287896D02*
X10290563D01*
X10293357D02*
X10293611D01*
X10296405D02*
X10298818D01*
X10302120D02*
X10309232D01*
X10241667Y10033068D02*
X10242811D01*
X10251573D02*
X10254875D01*
X10265291D02*
X10268719D01*
X10273926D02*
X10278499D01*
X10281801D02*
X10284847D01*
X10287896D02*
X10290563D01*
X10293484D02*
X10293611D01*
X10296278D02*
X10298945D01*
X10302120D02*
X10309232D01*
X10241667Y10032941D02*
X10242811D01*
X10265291D02*
X10268719D01*
X10273926D02*
X10284847D01*
X10287769D02*
X10290563D01*
X10296278D02*
X10298945D01*
X10302120D02*
X10309232D01*
X10241667Y10032814D02*
X10242811D01*
X10265291D02*
X10268719D01*
X10273926D02*
X10284720D01*
X10287769D02*
X10290563D01*
X10296278D02*
X10298945D01*
X10302120D02*
X10309232D01*
X10241667Y10032687D02*
X10242811D01*
X10265291D02*
X10268719D01*
X10273926D02*
X10284720D01*
X10287769D02*
X10290690D01*
X10296151D02*
X10298945D01*
X10302247D02*
X10309232D01*
X10241667Y10032560D02*
X10242811D01*
X10265291D02*
X10268719D01*
X10273926D02*
X10284720D01*
X10287769D02*
X10290690D01*
X10296151D02*
X10299072D01*
X10302247D02*
X10309232D01*
X10241667Y10032433D02*
X10242811D01*
X10265291D02*
X10268719D01*
X10273926D02*
X10284720D01*
X10287642D02*
X10290690D01*
X10296151D02*
X10299072D01*
X10302247D02*
X10309232D01*
X10241667Y10032306D02*
X10242811D01*
X10265291D02*
X10268719D01*
X10273926D02*
X10284594D01*
X10287642D02*
X10290817D01*
X10296151D02*
X10299072D01*
X10302247D02*
X10309232D01*
X10241667Y10032179D02*
X10242811D01*
X10265291D02*
X10268719D01*
X10273926D02*
X10284594D01*
X10287642D02*
X10290817D01*
X10296024D02*
X10299072D01*
X10302374D02*
X10309232D01*
X10241667Y10032052D02*
X10242811D01*
X10265291D02*
X10268719D01*
X10273926D02*
X10284594D01*
X10287642D02*
X10290817D01*
X10296024D02*
X10299199D01*
X10302374D02*
X10309232D01*
X10241667Y10031925D02*
X10242811D01*
X10265291D02*
X10268719D01*
X10273926D02*
X10284594D01*
X10287515D02*
X10290817D01*
X10296024D02*
X10299199D01*
X10302374D02*
X10309232D01*
X10241667Y10031798D02*
X10242811D01*
X10265291D02*
X10268719D01*
X10273926D02*
X10284467D01*
X10287515D02*
X10290944D01*
X10295897D02*
X10299199D01*
X10302501D02*
X10309232D01*
X10241667Y10031671D02*
X10242811D01*
X10265291D02*
X10268719D01*
X10273926D02*
X10284467D01*
X10287515D02*
X10290944D01*
X10295897D02*
X10299199D01*
X10302501D02*
X10309232D01*
X10241667Y10031544D02*
X10242811D01*
X10253225D02*
X10253352D01*
X10265291D02*
X10268719D01*
X10273926D02*
X10280149D01*
X10280276D02*
X10284467D01*
X10287515D02*
X10290944D01*
X10295897D02*
X10299199D01*
X10302501D02*
X10309232D01*
X10241667Y10031417D02*
X10242811D01*
X10252463D02*
X10253860D01*
X10265291D02*
X10268719D01*
X10273926D02*
X10279387D01*
X10280784D02*
X10284467D01*
X10287515D02*
X10291071D01*
X10295897D02*
X10299326D01*
X10302501D02*
X10309232D01*
X10241667Y10031290D02*
X10242811D01*
X10252209D02*
X10254241D01*
X10265291D02*
X10268719D01*
X10273926D02*
X10279133D01*
X10281038D02*
X10284340D01*
X10287388D02*
X10291071D01*
X10295770D02*
X10299326D01*
X10302628D02*
X10309232D01*
X10241794Y10031163D02*
X10242811D01*
X10252083D02*
X10254368D01*
X10257162D02*
X10268719D01*
X10273926D02*
X10278879D01*
X10281292D02*
X10284340D01*
X10287388D02*
X10291071D01*
X10295770D02*
X10299326D01*
X10302628D02*
X10309105D01*
X10241794Y10031036D02*
X10242811D01*
X10251827D02*
X10254495D01*
X10257035D02*
X10268719D01*
X10273926D02*
X10278752D01*
X10281418D02*
X10284340D01*
X10287388D02*
X10291071D01*
X10295770D02*
X10299326D01*
X10302628D02*
X10309105D01*
X10241794Y10030909D02*
X10242811D01*
X10251700D02*
X10254622D01*
X10257162D02*
X10268719D01*
X10273799D02*
X10278625D01*
X10281545D02*
X10284340D01*
X10287388D02*
X10291198D01*
X10295643D02*
X10299453D01*
X10302628D02*
X10309105D01*
X10241794Y10030782D02*
X10242811D01*
X10251700D02*
X10254749D01*
X10257162D02*
X10268719D01*
X10273799D02*
X10278625D01*
X10281674D02*
X10284213D01*
X10287388D02*
X10291198D01*
X10295643D02*
X10299453D01*
X10302755D02*
X10309105D01*
X10241794Y10030655D02*
X10242938D01*
X10251573D02*
X10254875D01*
X10257162D02*
X10268719D01*
X10273799D02*
X10278499D01*
X10281801D02*
X10284213D01*
X10287261D02*
X10291198D01*
X10295643D02*
X10299453D01*
X10302755D02*
X10309105D01*
X10241794Y10030528D02*
X10242938D01*
X10251447D02*
X10254875D01*
X10257162D02*
X10268719D01*
X10273799D02*
X10278372D01*
X10281801D02*
X10284213D01*
X10287261D02*
X10291324D01*
X10295516D02*
X10299453D01*
X10302755D02*
X10309105D01*
X10241794Y10030401D02*
X10242938D01*
X10251447D02*
X10255002D01*
X10257162D02*
X10268719D01*
X10273799D02*
X10278372D01*
X10281927D02*
X10284086D01*
X10287261D02*
X10291324D01*
X10295516D02*
X10299453D01*
X10302755D02*
X10309105D01*
X10241923Y10030274D02*
X10242938D01*
X10251447D02*
X10255002D01*
X10257162D02*
X10268719D01*
X10273799D02*
X10278243D01*
X10281927D02*
X10284086D01*
X10287261D02*
X10291324D01*
X10295516D02*
X10299580D01*
X10302882D02*
X10308978D01*
X10241923Y10030147D02*
X10242938D01*
X10251320D02*
X10255002D01*
X10257162D02*
X10268719D01*
X10273799D02*
X10278243D01*
X10281927D02*
X10284086D01*
X10287134D02*
X10291324D01*
X10295516D02*
X10299580D01*
X10302882D02*
X10308978D01*
X10241923Y10030020D02*
X10243065D01*
X10251320D02*
X10255129D01*
X10257162D02*
X10268719D01*
X10273672D02*
X10278243D01*
X10281927D02*
X10284086D01*
X10287134D02*
X10291451D01*
X10295389D02*
X10299580D01*
X10302882D02*
X10308978D01*
X10241923Y10029893D02*
X10243065D01*
X10251320D02*
X10255129D01*
X10257162D02*
X10268719D01*
X10273672D02*
X10278243D01*
X10282054D02*
X10283959D01*
X10287134D02*
X10291451D01*
X10295389D02*
X10299580D01*
X10303009D02*
X10308978D01*
X10241923Y10029766D02*
X10243065D01*
X10251320D02*
X10255129D01*
X10257162D02*
X10268719D01*
X10273672D02*
X10278243D01*
X10282054D02*
X10283959D01*
X10287134D02*
X10291451D01*
X10295389D02*
X10299707D01*
X10303009D02*
X10308978D01*
X10242050Y10029639D02*
X10243065D01*
X10251320D02*
X10255129D01*
X10257162D02*
X10268719D01*
X10273672D02*
X10278116D01*
X10282054D02*
X10283959D01*
X10287007D02*
X10291580D01*
X10295262D02*
X10299707D01*
X10303009D02*
X10308851D01*
X10242050Y10029512D02*
X10243192D01*
X10251320D02*
X10255129D01*
X10257162D02*
X10268719D01*
X10273545D02*
X10278243D01*
X10282054D02*
X10283959D01*
X10287007D02*
X10291580D01*
X10295262D02*
X10299707D01*
X10303009D02*
X10308851D01*
X10242050Y10029385D02*
X10243192D01*
X10251320D02*
X10255129D01*
X10257162D02*
X10268719D01*
X10273545D02*
X10278243D01*
X10282054D02*
X10283832D01*
X10287007D02*
X10291580D01*
X10295262D02*
X10299707D01*
X10303136D02*
X10308851D01*
X10242177Y10029258D02*
X10243192D01*
X10251320D02*
X10255129D01*
X10257162D02*
X10268719D01*
X10273545D02*
X10278243D01*
X10282054D02*
X10283832D01*
X10287007D02*
X10291580D01*
X10295262D02*
X10299707D01*
X10303136D02*
X10308851D01*
X10242177Y10029131D02*
X10243192D01*
X10251320D02*
X10255002D01*
X10257162D02*
X10268719D01*
X10273545D02*
X10278243D01*
X10281927D02*
X10283832D01*
X10286880D02*
X10291707D01*
X10295135D02*
X10299834D01*
X10303136D02*
X10308724D01*
X10242177Y10029004D02*
X10243319D01*
X10251320D02*
X10255002D01*
X10257162D02*
X10268719D01*
X10273418D02*
X10278243D01*
X10281927D02*
X10283832D01*
X10286880D02*
X10291707D01*
X10295135D02*
X10299834D01*
X10303136D02*
X10308724D01*
X10242177Y10028877D02*
X10243319D01*
X10251447D02*
X10255002D01*
X10257162D02*
X10268719D01*
X10273418D02*
X10278372D01*
X10281927D02*
X10283705D01*
X10286880D02*
X10291707D01*
X10295135D02*
X10299834D01*
X10303263D02*
X10308724D01*
X10242303Y10028750D02*
X10243446D01*
X10251447D02*
X10254875D01*
X10257162D02*
X10268719D01*
X10273418D02*
X10278372D01*
X10281801D02*
X10283705D01*
X10286880D02*
X10291833D01*
X10295009D02*
X10299834D01*
X10303263D02*
X10308597D01*
X10242303Y10028623D02*
X10243446D01*
X10251573D02*
X10254875D01*
X10257162D02*
X10268719D01*
X10273291D02*
X10278499D01*
X10281801D02*
X10283705D01*
X10286880D02*
X10291833D01*
X10295009D02*
X10299961D01*
X10303263D02*
X10308597D01*
X10242430Y10028496D02*
X10243446D01*
X10251700D02*
X10254749D01*
X10257162D02*
X10268719D01*
X10273291D02*
X10278499D01*
X10281674D02*
X10283705D01*
X10286753D02*
X10291833D01*
X10295009D02*
X10299961D01*
X10303263D02*
X10308597D01*
X10242430Y10028369D02*
X10243573D01*
X10251700D02*
X10254622D01*
X10257035D02*
X10268719D01*
X10273164D02*
X10278625D01*
X10281545D02*
X10283578D01*
X10286753D02*
X10291833D01*
X10294882D02*
X10299961D01*
X10303390D02*
X10308470D01*
X10242430Y10028242D02*
X10243573D01*
X10251827D02*
X10254495D01*
X10257162D02*
X10268719D01*
X10273164D02*
X10278752D01*
X10281418D02*
X10283578D01*
X10286753D02*
X10291960D01*
X10294882D02*
X10299961D01*
X10303390D02*
X10308470D01*
X10242557Y10028115D02*
X10243700D01*
X10251956D02*
X10254368D01*
X10273164D02*
X10278879D01*
X10281292D02*
X10283578D01*
X10283705D02*
X10283832D01*
X10286626D02*
X10291960D01*
X10292087D02*
X10292341D01*
X10292468D02*
X10292595D01*
X10294882D02*
X10300342D01*
X10300469D02*
X10300723D01*
X10303009D02*
X10303136D01*
X10303263D02*
X10308344D01*
X10242557Y10027988D02*
X10243700D01*
X10252209D02*
X10254241D01*
X10273037D02*
X10279133D01*
X10281165D02*
X10308344D01*
X10242684Y10027861D02*
X10243700D01*
X10252463D02*
X10253987D01*
X10273037D02*
X10279387D01*
X10280911D02*
X10308344D01*
X10242684Y10027734D02*
X10243827D01*
X10252971D02*
X10253479D01*
X10272910D02*
X10279768D01*
X10280403D02*
X10308217D01*
X10242684Y10027607D02*
X10243827D01*
X10272910D02*
X10308217D01*
X10242811Y10027480D02*
X10243954D01*
X10272783D02*
X10308090D01*
X10242811Y10027353D02*
X10244081D01*
X10272783D02*
X10308090D01*
X10242938Y10027226D02*
X10244081D01*
X10272656D02*
X10307961D01*
X10242938Y10027099D02*
X10244208D01*
X10272656D02*
X10307961D01*
X10243065Y10026972D02*
X10244208D01*
X10272529D02*
X10307834D01*
X10243192Y10026845D02*
X10244335D01*
X10272529D02*
X10307834D01*
X10243192Y10026718D02*
X10244462D01*
X10272402D02*
X10307708D01*
X10243319Y10026591D02*
X10244462D01*
X10272275D02*
X10307581D01*
X10243319Y10026464D02*
X10244589D01*
X10272275D02*
X10307581D01*
X10243446Y10026337D02*
X10244716D01*
X10272148D02*
X10307454D01*
X10243573Y10026210D02*
X10244716D01*
X10272021D02*
X10307454D01*
X10243573Y10026083D02*
X10244843D01*
X10272021D02*
X10307327D01*
X10243700Y10025956D02*
X10244969D01*
X10271895D02*
X10307200D01*
X10240779Y10025829D02*
X10242050D01*
X10243827D02*
X10245096D01*
X10271768D02*
X10307073D01*
X10240398Y10025702D02*
X10242430D01*
X10243827D02*
X10245225D01*
X10271639D02*
X10307073D01*
X10240271Y10025575D02*
X10242557D01*
X10243954D02*
X10245225D01*
X10271512D02*
X10306946D01*
X10240144Y10025448D02*
X10240906D01*
X10241923D02*
X10242811D01*
X10244081D02*
X10245352D01*
X10271385D02*
X10306819D01*
X10240017Y10025321D02*
X10240652D01*
X10242177D02*
X10242938D01*
X10244208D02*
X10245479D01*
X10271385D02*
X10306692D01*
X10239890Y10025194D02*
X10240525D01*
X10242430D02*
X10243065D01*
X10244335D02*
X10245605D01*
X10271259D02*
X10306692D01*
X10239763Y10025067D02*
X10240271D01*
X10242557D02*
X10243065D01*
X10244335D02*
X10245732D01*
X10271132D02*
X10306565D01*
X10239636Y10024940D02*
X10240144D01*
X10240525D02*
X10241033D01*
X10241923D02*
X10242303D01*
X10242684D02*
X10243192D01*
X10244462D02*
X10245859D01*
X10271005D02*
X10306438D01*
X10239636Y10024813D02*
X10240144D01*
X10240525D02*
X10241160D01*
X10241923D02*
X10242303D01*
X10242811D02*
X10243192D01*
X10244589D02*
X10245986D01*
X10270878D02*
X10306311D01*
X10239509Y10024686D02*
X10240017D01*
X10240652D02*
X10241160D01*
X10241923D02*
X10242303D01*
X10242811D02*
X10243319D01*
X10244716D02*
X10246113D01*
X10270751D02*
X10306184D01*
X10239509Y10024559D02*
X10240017D01*
X10240779D02*
X10241287D01*
X10241923D02*
X10242303D01*
X10242938D02*
X10243319D01*
X10244843D02*
X10246240D01*
X10270624D02*
X10306057D01*
X10239509Y10024432D02*
X10239890D01*
X10240779D02*
X10241414D01*
X10241923D02*
X10242303D01*
X10242938D02*
X10243446D01*
X10244969D02*
X10246494D01*
X10270370D02*
X10305930D01*
X10239509Y10024305D02*
X10239890D01*
X10240906D02*
X10241414D01*
X10241923D02*
X10242303D01*
X10242938D02*
X10243446D01*
X10245096D02*
X10246621D01*
X10270243D02*
X10305803D01*
X10239382Y10024178D02*
X10239890D01*
X10241033D02*
X10241667D01*
X10241923D02*
X10242303D01*
X10242938D02*
X10243446D01*
X10245225D02*
X10246748D01*
X10270116D02*
X10305676D01*
X10239382Y10024051D02*
X10239890D01*
X10241033D02*
X10242303D01*
X10243065D02*
X10243446D01*
X10245352D02*
X10247002D01*
X10269989D02*
X10305549D01*
X10239382Y10023924D02*
X10239890D01*
X10240779D02*
X10242303D01*
X10242938D02*
X10243446D01*
X10245479D02*
X10247129D01*
X10269735D02*
X10305422D01*
X10239382Y10023797D02*
X10239890D01*
X10240652D02*
X10242303D01*
X10242938D02*
X10243446D01*
X10245605D02*
X10247383D01*
X10269608D02*
X10305295D01*
X10239509Y10023670D02*
X10239890D01*
X10240652D02*
X10241160D01*
X10241923D02*
X10242303D01*
X10242938D02*
X10243446D01*
X10245732D02*
X10247510D01*
X10269354D02*
X10305168D01*
X10239509Y10023543D02*
X10239890D01*
X10240652D02*
X10241160D01*
X10241923D02*
X10242303D01*
X10242938D02*
X10243446D01*
X10245986D02*
X10247764D01*
X10269227D02*
X10304915D01*
X10239509Y10023416D02*
X10239890D01*
X10240652D02*
X10241160D01*
X10241923D02*
X10242303D01*
X10242938D02*
X10243319D01*
X10246113D02*
X10247891D01*
X10268973D02*
X10304788D01*
X10239509Y10023289D02*
X10240017D01*
X10240652D02*
X10241287D01*
X10241923D02*
X10242303D01*
X10242811D02*
X10243319D01*
X10246240D02*
X10248145D01*
X10268719D02*
X10304659D01*
X10239636Y10023162D02*
X10240017D01*
X10240652D02*
X10242303D01*
X10242811D02*
X10243319D01*
X10246494D02*
X10248398D01*
X10268466D02*
X10304406D01*
X10239636Y10023035D02*
X10240144D01*
X10240779D02*
X10242303D01*
X10242684D02*
X10243192D01*
X10246621D02*
X10248654D01*
X10268210D02*
X10304279D01*
X10239763Y10022908D02*
X10240271D01*
X10241160D02*
X10242303D01*
X10242684D02*
X10243192D01*
X10246875D02*
X10249034D01*
X10267957D02*
X10304152D01*
X10239763Y10022781D02*
X10240398D01*
X10242557D02*
X10243065D01*
X10247002D02*
X10249288D01*
X10267576D02*
X10303898D01*
X10239890Y10022654D02*
X10240525D01*
X10242303D02*
X10242938D01*
X10247256D02*
X10249669D01*
X10267322D02*
X10303644D01*
X10240017Y10022527D02*
X10240652D01*
X10242177D02*
X10242938D01*
X10247383D02*
X10250177D01*
X10266814D02*
X10303517D01*
X10240144Y10022400D02*
X10241033D01*
X10241794D02*
X10242684D01*
X10247637D02*
X10250685D01*
X10266433D02*
X10303263D01*
X10240271Y10022273D02*
X10242557D01*
X10247891D02*
X10251320D01*
X10265671D02*
X10303009D01*
X10240525Y10022146D02*
X10242430D01*
X10248145D02*
X10302755D01*
X10240779Y10022019D02*
X10242050D01*
X10248398D02*
X10302501D01*
X10248781Y10021892D02*
X10302120D01*
X10249034Y10021765D02*
X10301866D01*
X10249415Y10021638D02*
X10301486D01*
X10249796Y10021511D02*
X10301104D01*
X10250304Y10021384D02*
X10300596D01*
X10250812Y10021257D02*
X10300088D01*
X10251573Y10021130D02*
X10299326D01*
D39*
X10071324Y10163832D02*
Y10198832D01*
X10099324Y10163832D02*
Y10198832D01*
X10083800Y10198608D02*
X10086848D01*
X10083800Y10163810D02*
X10086848D01*
X10468672Y10265658D02*
X10490671D01*
X10468672Y10259658D02*
X10490671D01*
Y10265658D01*
X10468672Y10259658D02*
Y10265658D01*
X10071354Y10135870D02*
X10072878D01*
X10067290D02*
X10068814D01*
X10085732Y10113921D02*
X10087510Y10112905D01*
X10085732Y10113921D02*
X10089542Y10115190D01*
X10085732Y10116461D02*
X10089542Y10115190D01*
X10085732Y10116461D02*
X10089542Y10117731D01*
X10087468Y10118652D02*
X10089542Y10117731D01*
X10071266Y10233914D02*
X10073044Y10232899D01*
X10071266Y10233914D02*
X10075076Y10235184D01*
X10071266Y10236454D02*
X10075076Y10235184D01*
X10071266Y10236454D02*
X10075076Y10237725D01*
X10073002Y10238646D02*
X10075076Y10237725D01*
X10084309Y10233914D02*
X10086087Y10232899D01*
X10084309Y10233914D02*
X10088119Y10235184D01*
X10084309Y10236454D02*
X10088119Y10235184D01*
X10084309Y10236454D02*
X10088119Y10237725D01*
X10086045Y10238646D02*
X10088119Y10237725D01*
X10097352Y10233914D02*
X10099130Y10232899D01*
X10097352Y10233914D02*
X10101161Y10235184D01*
X10097352Y10236454D02*
X10101161Y10235184D01*
X10097352Y10236454D02*
X10101161Y10237725D01*
X10099088Y10238646D02*
X10101161Y10237725D01*
X10441863Y10247909D02*
X10451863D01*
X10441863D02*
Y10256650D01*
Y10277909D02*
X10451863D01*
X10441863Y10269166D02*
Y10277909D01*
X10379456Y10203942D02*
X10381234Y10202926D01*
X10379456Y10203942D02*
X10383267Y10205212D01*
X10379456Y10206482D02*
X10383267Y10205212D01*
X10379456Y10206482D02*
X10383267Y10207752D01*
X10381193Y10208674D02*
X10383267Y10207752D01*
X10394777Y10206990D02*
Y10208514D01*
Y10202926D02*
Y10204450D01*
X10449819Y10287451D02*
X10451343D01*
X10453883D02*
X10455406D01*
X10130655Y10236648D02*
X10132433Y10235632D01*
X10130655Y10236648D02*
X10134465Y10237918D01*
X10130655Y10239188D02*
X10134465Y10237918D01*
X10130655Y10239188D02*
X10134465Y10240458D01*
X10132391Y10241379D02*
X10134465Y10240458D01*
X10143698Y10236648D02*
X10145475Y10235632D01*
X10143698Y10236648D02*
X10147507Y10237918D01*
X10143698Y10239188D02*
X10147507Y10237918D01*
X10143698Y10239188D02*
X10147507Y10240458D01*
X10145433Y10241379D02*
X10147507Y10240458D01*
X10156740Y10236648D02*
X10158518Y10235632D01*
X10156740Y10236648D02*
X10160550Y10237918D01*
X10156740Y10239188D02*
X10160550Y10237918D01*
X10156740Y10239188D02*
X10160550Y10240458D01*
X10158476Y10241379D02*
X10160550Y10240458D01*
X10509901Y10165093D02*
X10508885Y10164078D01*
Y10162046D01*
X10509901Y10161031D01*
X10513965D01*
X10514980Y10162046D01*
Y10164078D01*
X10513965Y10165093D01*
X10508885Y10170172D02*
Y10168140D01*
X10509901Y10167125D01*
X10513965D01*
X10514980Y10168140D01*
Y10170172D01*
X10513965Y10171187D01*
X10509901D01*
X10508885Y10170172D01*
X10514980Y10173218D02*
X10508885D01*
X10514980Y10177281D01*
X10508885D01*
X10514980Y10182360D02*
X10508885D01*
X10511934Y10179313D01*
Y10183375D01*
X10505902Y10093903D02*
X10504886Y10092887D01*
Y10090856D01*
X10505902Y10089840D01*
X10509965D01*
X10510980Y10090856D01*
Y10092887D01*
X10509965Y10093903D01*
X10504886Y10098981D02*
Y10096949D01*
X10505902Y10095934D01*
X10509965D01*
X10510980Y10096949D01*
Y10098981D01*
X10509965Y10099997D01*
X10505902D01*
X10504886Y10098981D01*
X10510980Y10102028D02*
X10504886D01*
X10510980Y10106091D01*
X10504886D01*
X10510980Y10112184D02*
Y10108122D01*
X10506918Y10112184D01*
X10505902D01*
X10504886Y10111169D01*
Y10109138D01*
X10505902Y10108122D01*
X10510980Y10117263D02*
X10504886D01*
X10507933Y10114216D01*
Y10118279D01*
X10149080Y10265917D02*
X10148064Y10264901D01*
Y10262870D01*
X10149080Y10261854D01*
X10153142D01*
X10154158Y10262870D01*
Y10264901D01*
X10153142Y10265917D01*
X10148064Y10270995D02*
Y10268964D01*
X10149080Y10267948D01*
X10153142D01*
X10154158Y10268964D01*
Y10270995D01*
X10153142Y10272010D01*
X10149080D01*
X10148064Y10270995D01*
X10154158Y10274042D02*
X10148064D01*
X10154158Y10278104D01*
X10148064D01*
X10155174Y10280135D02*
Y10284199D01*
X10148064Y10286230D02*
X10154158D01*
Y10289277D01*
X10153142Y10290293D01*
X10149080D01*
X10148064Y10289277D01*
Y10286230D01*
Y10292324D02*
X10154158D01*
Y10295371D01*
X10153142Y10296387D01*
X10152126D01*
X10151111Y10295371D01*
Y10292324D01*
Y10295371D01*
X10150095Y10296387D01*
X10149080D01*
X10148064Y10295371D01*
Y10292324D01*
X10149080Y10302480D02*
X10148064Y10301465D01*
Y10299434D01*
X10149080Y10298418D01*
X10153142D01*
X10154158Y10299434D01*
Y10301465D01*
X10153142Y10302480D01*
X10151111D01*
Y10300449D01*
X10420350Y10147298D02*
Y10141204D01*
X10424413D01*
X10426444Y10147298D02*
Y10141204D01*
X10429491D01*
X10430507Y10142220D01*
Y10146282D01*
X10429491Y10147298D01*
X10426444D01*
X10435585D02*
X10433553D01*
X10432538Y10146282D01*
Y10142220D01*
X10433553Y10141204D01*
X10435585D01*
X10436600Y10142220D01*
Y10146282D01*
X10435585Y10147298D01*
X10438632Y10146282D02*
X10439647Y10147298D01*
X10441680D01*
X10442694Y10146282D01*
Y10145267D01*
X10441680Y10144251D01*
X10440663D01*
X10441680D01*
X10442694Y10143235D01*
Y10142220D01*
X10441680Y10141204D01*
X10439647D01*
X10438632Y10142220D01*
X10444727Y10145267D02*
X10446758Y10141204D01*
X10448789Y10145267D01*
X10450820Y10146282D02*
X10451836Y10147298D01*
X10453867D01*
X10454883Y10146282D01*
Y10145267D01*
X10453867Y10144251D01*
X10452852D01*
X10453867D01*
X10454883Y10143235D01*
Y10142220D01*
X10453867Y10141204D01*
X10451836D01*
X10450820Y10142220D01*
X10425178Y10249662D02*
X10431272D01*
Y10253724D01*
X10425178Y10255756D02*
X10431272D01*
Y10258802D01*
X10430256Y10259818D01*
X10426194D01*
X10425178Y10258802D01*
Y10255756D01*
Y10264897D02*
Y10262866D01*
X10426194Y10261851D01*
X10430256D01*
X10431272Y10262866D01*
Y10264897D01*
X10430256Y10265913D01*
X10426194D01*
X10425178Y10264897D01*
Y10272007D02*
Y10267944D01*
X10428225D01*
X10427209Y10269976D01*
Y10270991D01*
X10428225Y10272007D01*
X10430256D01*
X10431272Y10270991D01*
Y10268960D01*
X10430256Y10267944D01*
X10427209Y10274038D02*
X10431272Y10276069D01*
X10427209Y10278101D01*
X10109706Y10200640D02*
X10103612D01*
Y10196577D01*
X10109706Y10190483D02*
Y10194546D01*
X10103612D01*
Y10190483D01*
X10106659Y10194546D02*
Y10192515D01*
X10109706Y10188452D02*
X10103612D01*
Y10185405D01*
X10104628Y10184389D01*
X10108690D01*
X10109706Y10185405D01*
Y10188452D01*
X10102596Y10182358D02*
Y10178295D01*
X10109706Y10176264D02*
X10103612D01*
Y10173217D01*
X10104628Y10172201D01*
X10108690D01*
X10109706Y10173217D01*
Y10176264D01*
Y10170170D02*
X10103612D01*
Y10167123D01*
X10104628Y10166107D01*
X10105643D01*
X10106659Y10167123D01*
Y10170170D01*
Y10167123D01*
X10107675Y10166107D01*
X10108690D01*
X10109706Y10167123D01*
Y10170170D01*
X10108690Y10160013D02*
X10109706Y10161029D01*
Y10163060D01*
X10108690Y10164076D01*
X10104628D01*
X10103612Y10163060D01*
Y10161029D01*
X10104628Y10160013D01*
X10106659D01*
Y10162045D01*
X10063226Y10232644D02*
X10057132D01*
Y10235691D01*
X10058148Y10236707D01*
X10060179D01*
X10061194Y10235691D01*
Y10232644D01*
Y10234675D02*
X10063226Y10236707D01*
Y10238738D02*
Y10240769D01*
Y10239753D01*
X10057132D01*
X10058148Y10238738D01*
X10045954Y10231374D02*
X10039860D01*
Y10234421D01*
X10040876Y10235436D01*
X10042907D01*
X10043923Y10234421D01*
Y10231374D01*
Y10233405D02*
X10045954Y10235436D01*
Y10241531D02*
Y10237468D01*
X10041891Y10241531D01*
X10040876D01*
X10039860Y10240515D01*
Y10238484D01*
X10040876Y10237468D01*
X10054844Y10231374D02*
X10048750D01*
Y10234421D01*
X10049766Y10235436D01*
X10051797D01*
X10052812Y10234421D01*
Y10231374D01*
Y10233405D02*
X10054844Y10235436D01*
X10049766Y10237468D02*
X10048750Y10238484D01*
Y10240515D01*
X10049766Y10241531D01*
X10050781D01*
X10051797Y10240515D01*
Y10239500D01*
Y10240515D01*
X10052812Y10241531D01*
X10053828D01*
X10054844Y10240515D01*
Y10238484D01*
X10053828Y10237468D01*
X10376154Y10185400D02*
Y10191494D01*
X10379200D01*
X10380217Y10190479D01*
Y10188447D01*
X10379200Y10187431D01*
X10376154D01*
X10378185D02*
X10380217Y10185400D01*
X10385295D02*
Y10191494D01*
X10382249Y10188447D01*
X10386311D01*
X10082022Y10097008D02*
Y10103102D01*
X10085069D01*
X10086085Y10102086D01*
Y10100055D01*
X10085069Y10099039D01*
X10082022D01*
X10084053D02*
X10086085Y10097008D01*
X10092179Y10103102D02*
X10088116D01*
Y10100055D01*
X10090148Y10101071D01*
X10091163D01*
X10092179Y10100055D01*
Y10098024D01*
X10091163Y10097008D01*
X10089131D01*
X10088116Y10098024D01*
X10395714Y10052303D02*
X10394698Y10051287D01*
Y10049256D01*
X10395714Y10048240D01*
X10396730D01*
X10397745Y10049256D01*
Y10051287D01*
X10398761Y10052303D01*
X10399777D01*
X10400792Y10051287D01*
Y10049256D01*
X10399777Y10048240D01*
X10401808Y10054334D02*
Y10058397D01*
X10394698Y10064491D02*
Y10060428D01*
X10397745D01*
Y10062459D01*
Y10060428D01*
X10400792D01*
X10394698Y10066522D02*
X10399777D01*
X10400792Y10067538D01*
Y10069569D01*
X10399777Y10070585D01*
X10394698D01*
X10400792Y10072616D02*
X10394698D01*
X10400792Y10076679D01*
X10394698D01*
X10110723Y10028172D02*
X10109707Y10029188D01*
X10107676D01*
X10106660Y10028172D01*
Y10027157D01*
X10107676Y10026141D01*
X10109707D01*
X10110723Y10025125D01*
Y10024109D01*
X10109707Y10023094D01*
X10107676D01*
X10106660Y10024109D01*
X10112754Y10022078D02*
X10116816D01*
X10118848Y10023094D02*
Y10029188D01*
X10121895D01*
X10122911Y10028172D01*
Y10026141D01*
X10121895Y10025125D01*
X10118848D01*
X10120880D02*
X10122911Y10023094D01*
X10129005Y10028172D02*
X10127989Y10029188D01*
X10125958D01*
X10124942Y10028172D01*
Y10027157D01*
X10125958Y10026141D01*
X10127989D01*
X10129005Y10025125D01*
Y10024109D01*
X10127989Y10023094D01*
X10125958D01*
X10124942Y10024109D01*
X10131036Y10029188D02*
X10135099D01*
X10133068D01*
Y10023094D01*
X10492996Y10258806D02*
X10498074D01*
X10499091Y10259822D01*
Y10261853D01*
X10498074Y10262869D01*
X10492996D01*
X10499091Y10264900D02*
Y10266931D01*
Y10265916D01*
X10492996D01*
X10494011Y10264900D01*
X10451844Y10299191D02*
X10450829Y10300206D01*
X10448798D01*
X10447782Y10299191D01*
Y10295128D01*
X10448798Y10294113D01*
X10450829D01*
X10451844Y10295128D01*
X10453876Y10294113D02*
X10455907D01*
X10454891D01*
Y10300206D01*
X10453876Y10299191D01*
X10069937Y10127955D02*
X10068921Y10128971D01*
X10066889D01*
X10065873Y10127955D01*
Y10123893D01*
X10066889Y10122877D01*
X10068921D01*
X10069937Y10123893D01*
X10076030Y10122877D02*
X10071968D01*
X10076030Y10126940D01*
Y10127955D01*
X10075015Y10128971D01*
X10072983D01*
X10071968Y10127955D01*
X10394441Y10190789D02*
X10393425Y10191805D01*
X10391394D01*
X10390378Y10190789D01*
Y10186727D01*
X10391394Y10185711D01*
X10393425D01*
X10394441Y10186727D01*
X10396472Y10190789D02*
X10397488Y10191805D01*
X10399519D01*
X10400535Y10190789D01*
Y10189774D01*
X10399519Y10188758D01*
X10398503D01*
X10399519D01*
X10400535Y10187742D01*
Y10186727D01*
X10399519Y10185711D01*
X10397488D01*
X10396472Y10186727D01*
X10380471Y10271504D02*
X10379456Y10272520D01*
X10377423D01*
X10376407Y10271504D01*
Y10267441D01*
X10377423Y10266426D01*
X10379456D01*
X10380471Y10267441D01*
X10385549Y10266426D02*
Y10272520D01*
X10382502Y10269473D01*
X10386565D01*
X10140442Y10217150D02*
Y10223244D01*
X10143489D01*
X10144505Y10222228D01*
Y10220197D01*
X10143489Y10219182D01*
X10140442D01*
X10142473D02*
X10144505Y10217150D01*
X10150599Y10223244D02*
X10148568Y10222228D01*
X10146536Y10220197D01*
Y10218166D01*
X10147552Y10217150D01*
X10149583D01*
X10150599Y10218166D01*
Y10219182D01*
X10149583Y10220197D01*
X10146536D01*
X10127353Y10217150D02*
Y10223244D01*
X10130400D01*
X10131415Y10222228D01*
Y10220197D01*
X10130400Y10219182D01*
X10127353D01*
X10129384D02*
X10131415Y10217150D01*
X10133447Y10223244D02*
X10137510D01*
Y10222228D01*
X10133447Y10218166D01*
Y10217150D01*
X10154158D02*
Y10223244D01*
X10157205D01*
X10158221Y10222228D01*
Y10220197D01*
X10157205Y10219182D01*
X10154158D01*
X10156190D02*
X10158221Y10217150D01*
X10160252Y10222228D02*
X10161268Y10223244D01*
X10163299D01*
X10164315Y10222228D01*
Y10221213D01*
X10163299Y10220197D01*
X10164315Y10219182D01*
Y10218166D01*
X10163299Y10217150D01*
X10161268D01*
X10160252Y10218166D01*
Y10219182D01*
X10161268Y10220197D01*
X10160252Y10221213D01*
Y10222228D01*
X10161268Y10220197D02*
X10163299D01*
X10185656Y10013949D02*
Y10009886D01*
X10191750D01*
Y10013949D01*
X10188703Y10009886D02*
Y10011917D01*
X10186672Y10020043D02*
X10185656Y10019027D01*
Y10016996D01*
X10186672Y10015980D01*
X10187687D01*
X10188703Y10016996D01*
Y10019027D01*
X10189719Y10020043D01*
X10190734D01*
X10191750Y10019027D01*
Y10016996D01*
X10190734Y10015980D01*
X10191750Y10022074D02*
X10185656D01*
Y10025121D01*
X10186672Y10026136D01*
X10188703D01*
X10189719Y10025121D01*
Y10022074D01*
X10186672Y10028168D02*
X10185656Y10029184D01*
Y10031215D01*
X10186672Y10032231D01*
X10187687D01*
X10188703Y10031215D01*
X10189719Y10032231D01*
X10190734D01*
X10191750Y10031215D01*
Y10029184D01*
X10190734Y10028168D01*
X10189719D01*
X10188703Y10029184D01*
X10187687Y10028168D01*
X10186672D01*
X10188703Y10029184D02*
Y10031215D01*
X10191750Y10038325D02*
Y10034262D01*
X10187687Y10038325D01*
X10186672D01*
X10185656Y10037309D01*
Y10035278D01*
X10186672Y10034262D01*
X10185656Y10044419D02*
X10186672Y10042388D01*
X10188703Y10040356D01*
X10190734D01*
X10191750Y10041372D01*
Y10043403D01*
X10190734Y10044419D01*
X10189719D01*
X10188703Y10043403D01*
Y10040356D01*
X10185656Y10050513D02*
X10186672Y10048481D01*
X10188703Y10046450D01*
X10190734D01*
X10191750Y10047466D01*
Y10049497D01*
X10190734Y10050513D01*
X10189719D01*
X10188703Y10049497D01*
Y10046450D01*
X10477024Y10094505D02*
X10478040Y10095521D01*
Y10097552D01*
X10477024Y10098568D01*
X10472961D01*
X10471946Y10097552D01*
Y10095521D01*
X10472961Y10094505D01*
X10474993D01*
Y10096537D01*
X10471946Y10092474D02*
X10478040D01*
X10471946Y10088411D01*
X10478040D01*
Y10086380D02*
X10471946D01*
Y10083333D01*
X10472961Y10082318D01*
X10477024D01*
X10478040Y10083333D01*
Y10086380D01*
Y10123968D02*
X10473977D01*
X10471946Y10121937D01*
X10473977Y10119905D01*
X10478040D01*
X10477024Y10113811D02*
X10478040Y10114827D01*
Y10116859D01*
X10477024Y10117874D01*
X10472961D01*
X10471946Y10116859D01*
Y10114827D01*
X10472961Y10113811D01*
X10477024Y10107717D02*
X10478040Y10108733D01*
Y10110764D01*
X10477024Y10111780D01*
X10472961D01*
X10471946Y10110764D01*
Y10108733D01*
X10472961Y10107717D01*
D40*
X10116152Y10055494D02*
X10123010Y10073020D01*
X10093010Y10035428D02*
X10153010D01*
X10099134Y10086916D02*
X10148156D01*
X10099134Y10042916D02*
X10148156D01*
X10123010Y10073020D02*
Y10086916D01*
Y10042916D02*
Y10055494D01*
X10426066Y10072129D02*
X10443591Y10065271D01*
X10406000Y10035271D02*
Y10095271D01*
X10457488Y10040125D02*
Y10089147D01*
X10413488Y10040125D02*
Y10089147D01*
X10443591Y10065271D02*
X10457488D01*
X10413488D02*
X10426066D01*
D41*
X10093010Y10095118D02*
X10153010D01*
X10093010Y10035428D02*
Y10095118D01*
X10153010Y10035428D02*
Y10095118D01*
X10465690Y10035271D02*
Y10095271D01*
X10406000D02*
X10465690D01*
X10406000Y10035271D02*
X10465690D01*
D42*
X10404363Y10212866D02*
X10471364D01*
X10404363Y10181866D02*
X10471364D01*
Y10212866D01*
X10404363Y10181866D02*
Y10212866D01*
X10382666Y10242402D02*
Y10246974D01*
Y10233258D02*
Y10237830D01*
X10375553Y10242402D02*
X10389778D01*
X10375553Y10237830D02*
X10389778D01*
X10081004Y10261598D02*
X10075926D01*
Y10253979D01*
X10081004D01*
X10075926Y10257789D02*
X10078465D01*
X10083544Y10253979D02*
Y10261598D01*
X10088622Y10253979D01*
Y10261598D01*
X10100564D02*
X10105642D01*
X10103103D01*
Y10253979D01*
X10108182Y10261598D02*
X10113260Y10253979D01*
Y10261598D02*
X10108182Y10253979D01*
X10126980D02*
Y10261598D01*
X10130789D01*
X10132058Y10260328D01*
Y10257789D01*
X10130789Y10256520D01*
X10126980D01*
X10129519D02*
X10132058Y10253979D01*
X10134598Y10261598D02*
X10139676Y10253979D01*
Y10261598D02*
X10134598Y10253979D01*
X10124492Y10315699D02*
X10127031D01*
X10125761D01*
Y10308082D01*
X10124492D01*
X10127031D01*
X10134648Y10315699D02*
X10132109D01*
X10130839Y10314430D01*
Y10309352D01*
X10132109Y10308082D01*
X10134648D01*
X10135918Y10309352D01*
Y10314430D01*
X10134648Y10315699D01*
X10138457Y10314430D02*
X10139727Y10315699D01*
X10142266D01*
X10143535Y10314430D01*
Y10309352D01*
X10142266Y10308082D01*
X10139727D01*
X10138457Y10309352D01*
Y10314430D01*
X10102849D02*
X10101579Y10315699D01*
X10099039D01*
X10097770Y10314430D01*
Y10309352D01*
X10099039Y10308082D01*
X10101579D01*
X10102849Y10309352D01*
Y10311891D01*
X10100309D01*
X10105388Y10308082D02*
Y10315699D01*
X10110466Y10308082D01*
Y10315699D01*
X10113005D02*
Y10308082D01*
X10116814D01*
X10118083Y10309352D01*
Y10314430D01*
X10116814Y10315699D01*
X10113005D01*
X10071862D02*
Y10310621D01*
X10074401Y10308082D01*
X10076940Y10310621D01*
Y10315699D01*
X10084558Y10314430D02*
X10083289Y10315699D01*
X10080749D01*
X10079479Y10314430D01*
Y10309352D01*
X10080749Y10308082D01*
X10083289D01*
X10084558Y10309352D01*
X10092175Y10314430D02*
X10090906Y10315699D01*
X10088367D01*
X10087097Y10314430D01*
Y10309352D01*
X10088367Y10308082D01*
X10090906D01*
X10092175Y10309352D01*
M02*
