M48
;Layer_Color=9474304
;FILE_FORMAT=4:4
METRIC
;TYPE=PLATED
T1F00S00C0.5000
T2F00S00C1.0000
T3F00S00C1.2000
T5F00S00C3.0000
%
T01
X10445363Y10297159
X10459863Y10243058
X10473171Y10242042
X10486172
X10462769Y10168116
X10442957Y10150094
X10432795
X10413492Y10168116
X10397490Y10253726
X10382666Y10264648
X10367772Y10253616
X10457488Y10079482
Y10051034
X10180828Y10042916
X10065512
X10085070Y10135870
X10169398Y10245676
X10196068Y10239756
X10205212
X10219436Y10226870
T02
X10489980Y10213100
Y10187700
Y10162300
Y10136900
X10133170Y10272268
Y10297668
X10107770
X10082370
Y10272268
X10107770
T03
X10489980Y10115840
Y10090440
T05
X10530000Y10030000
X10030000
Y10320000
X10530000Y10320000
M30
