G04 Layer_Color=16711935*
%FSAX44Y44*%
%MOMM*%
G71*
G01*
G75*
%ADD28C,1.5000*%
%ADD56C,3.0000*%
%ADD57C,2.2032*%
G04:AMPARAMS|DCode=58|XSize=2.2032mm|YSize=2.2032mm|CornerRadius=0.3016mm|HoleSize=0mm|Usage=FLASHONLY|Rotation=270.000|XOffset=0mm|YOffset=0mm|HoleType=Round|Shape=RoundedRectangle|*
%AMROUNDEDRECTD58*
21,1,2.2032,1.6000,0,0,270.0*
21,1,1.6000,2.2032,0,0,270.0*
1,1,0.6032,-0.8000,-0.8000*
1,1,0.6032,-0.8000,0.8000*
1,1,0.6032,0.8000,0.8000*
1,1,0.6032,0.8000,-0.8000*
%
%ADD58ROUNDEDRECTD58*%
G04:AMPARAMS|DCode=59|XSize=1.4732mm|YSize=3.0032mm|CornerRadius=0.7366mm|HoleSize=0mm|Usage=FLASHONLY|Rotation=90.000|XOffset=0mm|YOffset=0mm|HoleType=Round|Shape=RoundedRectangle|*
%AMROUNDEDRECTD59*
21,1,1.4732,1.5300,0,0,90.0*
21,1,0.0000,3.0032,0,0,90.0*
1,1,1.4732,0.7650,0.0000*
1,1,1.4732,0.7650,0.0000*
1,1,1.4732,-0.7650,0.0000*
1,1,1.4732,-0.7650,0.0000*
%
%ADD59ROUNDEDRECTD59*%
G04:AMPARAMS|DCode=60|XSize=1.4732mm|YSize=3.0032mm|CornerRadius=0.2604mm|HoleSize=0mm|Usage=FLASHONLY|Rotation=90.000|XOffset=0mm|YOffset=0mm|HoleType=Round|Shape=RoundedRectangle|*
%AMROUNDEDRECTD60*
21,1,1.4732,2.4825,0,0,90.0*
21,1,0.9525,3.0032,0,0,90.0*
1,1,0.5207,1.2412,0.4763*
1,1,0.5207,1.2412,-0.4763*
1,1,0.5207,-1.2412,-0.4763*
1,1,0.5207,-1.2412,0.4763*
%
%ADD60ROUNDEDRECTD60*%
%ADD61O,3.0000X2.0000*%
D28*
X10082370Y10297668D02*
D03*
X10107770D02*
D03*
X10133170D02*
D03*
Y10272268D02*
D03*
X10107770D02*
D03*
X10082370D02*
D03*
D56*
X10530000Y10030000D02*
D03*
Y10320000D02*
D03*
X10030000Y10030000D02*
D03*
Y10320000D02*
D03*
D57*
X10489980Y10115840D02*
D03*
D58*
Y10090440D02*
D03*
D59*
Y10213100D02*
D03*
Y10187700D02*
D03*
Y10136900D02*
D03*
D60*
Y10162300D02*
D03*
D61*
X10530000Y10205000D02*
D03*
Y10145000D02*
D03*
X10030000D02*
D03*
Y10205000D02*
D03*
M02*
