M48
;Layer_Color=3947580
;FILE_FORMAT=4:4
METRIC
;TYPE=PLATED
T1F00S00C0.3000
T2F00S00C0.4000
T3F00S00C1.5000
T4F00S00C2.0000
%
T01
X07112000Y08636000
X07091680
X07071360
X07051040
X07030720
X07010400
X06990080
X06969760
X06949440
X06929120
X06908800
X06888480
X06868160
X06847840
X06827520
X06807200
X06786880
X06766560
Y08615680
Y08595360
X06786880Y08615680
X06807200
Y08595360
X06827520
Y08615680
X06847840
X06868160
Y08595360
X06888480
X06908800
X06929120
X06949440
Y08615680
X06969760
Y08595360
X06990080
Y08615680
X07010400
Y08595360
X07030720
Y08615680
X07051040
Y08595360
X07071360
Y08615680
X07091680
Y08595360
X07112000Y08615680
Y08514080
X07101840
X07091680
X07081520
X07071360
Y08503920
X07081520
X07091680
X07101840
X07112000
X07122160
Y08514080
X07030720Y08423700
Y08413540
X07020560
Y08423700
X07010400
Y08413540
X07000240
Y08423700
X06990080Y08413540
X06969760
X06959600
X06949440
X06939280
X06929120Y08423700
X06908800
Y08413540
X06898640
X06878320Y08413496
Y08423656
X06868160
Y08413496
X06858000
Y08423656
X06847840
Y08413496
X06837680
X06827520
X06827288Y08426038
X06826000Y08435500
X06826500Y08445538
X06861500Y08443288
X06872500
Y08454288
X06861500
X06858000Y08464296
X06868160
X06878320
Y08474456
X06868160
X06858000
X06907625Y08474854
Y08480750
X06902000
X06795448Y08462750
X06776720Y08464296
Y08474456
X06766560
Y08464296
X06747510Y08472170
Y08481060
X06766560Y08423656
Y08413496
X06807200
X06738620Y08472170
X06729730
Y08481060
X06738620
T02
X06985000Y08493000
Y08427500
X06909500Y08432538
Y08453500
X06858000Y08534400
X06845300
X06832600
X06819900
X06807200
X06794500
X06781800
X06769100
X06756400
Y08547100
Y08559800
X06769100
Y08547100
X06807200
Y08559800
X06819900
Y08547100
X06832600
Y08559800
X06743700Y08534400
X06731000
T03
X07147500Y08593200
Y08547400
Y08502600
Y08456800
X06742500
Y08502267
Y08547733
Y08593200
T04
X07150000Y08630000
X07150000Y08420000
X06740000
X06740000Y08630000
M30
