M48
;Layer_Color=3947580
FILE_FORMAT=4:4
METRIC,LZ
;TYPE=PLATED
T1F00S00C0.2000
T2F00S00C0.4000
T3F00S00C1.5000
%
T01
X0686600Y08464872
Y08453873
X0685500
Y08464872
T02
X0723392Y0864616
Y0863600
Y0862584
Y0861568
Y0860552
Y0859536
Y0858520
Y0857504
Y0856488
Y0855472
Y0854456
Y0853440
Y0852424
Y0851408
Y0850392
Y0849376
Y0848360
Y0847344
Y0846328
Y0845312
Y0844296
Y0843280
Y0842264
Y0841248
Y0840232
Y0839216
X0722376
Y0840232
Y0841248
Y0842264
Y0843280
Y0844296
Y0845312
Y0846328
Y0847344
Y0848360
Y0849376
Y0850392
Y0851408
Y0852424
Y0853440
Y0854456
Y0855472
Y0856488
Y0857504
Y0858520
Y0859536
Y0860552
Y0861568
Y0862584
Y0863600
Y0864616
X0721360
Y0863600
Y0862584
Y0861568
Y0860552
Y0859536
Y0858520
Y0857504
Y0856488
X0720344
Y0857504
X0719328
Y0856488
X0718312
Y0857504
X0717296
Y0858520
Y0859536
Y0860552
Y0861568
Y0862584
Y0863600
X0718312
X0719328
X0720344
Y0864616
X0719328
X0718312
X0717296
X0716280
Y0863600
Y0862584
Y0861568
Y0860552
Y0859536
Y0858520
Y0857504
Y0856488
X0717296
X0715264
Y0857504
Y0858520
Y0859536
Y0860552
Y0861568
Y0862584
Y0863600
Y0864616
X0717296Y0845312
X0718312
X0719328
X0720344
Y0841248
X0719328
X0718312
X0717296
Y0839216
X0718312
X0719328
X0720344
X0721360
X0716280
X0715264
X0717296Y0844296
X0714248Y0839216
X0713232
X0712216
X0711200
X0710184
X0709168
X0708152
X0707136
X0706120
X0705104
X0704088
X0703072
X0702056
X0701040
X0700024
X0699008
X0697992
X0696976
X0695960
X0694944
X0693928
X0692912
X0691896
X0690880
X0689864
X0688848
X0686816
X0685800
X0684784
X0683768
X0682752
X0681736
X0680720
X0679704
X0678688
X0677672
X0676656
X0675640
X0676656Y0843280
X0677672
Y0844296
Y0845312
Y0846328
Y0847344
Y0848360
Y0849376
Y0850392
X0678688
X0679704
X0680720
X0681736
X0683768Y0849376
X0685800
Y0850392
Y0848360
X0686816
X0684784
Y0844296
X0685800
X0686816
Y0843280
Y0842264
Y0841248
X0689864
X0690880
X0691896Y0842264
X0692912
Y0843280
Y0844296
X0691896
Y0843280
X0689864Y0842264
X0685800Y0843280
X0684784
X0681925Y0844300
X0676656Y0844296
Y0845312
Y0846328
Y0847344
Y0848360
Y0849376
Y0850392
Y0859536
X0677672
X0678688
X0679704
X0680720
X0681736
X0682752
X0683768
X0684784
X0685800
X0686816
X0687832
X0688848
X0689864
X0690880
Y0860552
Y0861568
Y0862584
X0691896
Y0863600
X0692912
X0693928
X0694944
X0695960
X0696976
X0697992
X0699008
X0700024
X0701040
X0702056
X0703072
X0704088
X0705104
X0706120
X0707136
X0708152
X0709168
X0710184
X0711200
X0712216
X0713232
X0714248
Y0864616
X0713232
X0712216
X0711200
X0710184
X0709168
X0708152
X0707136
X0706120
X0705104
X0704088
X0703072
X0702056
X0701040
X0700024
X0699008
X0697992
X0696976
X0695960
X0694944
X0693928
X0692912
X0691896
X0690880
Y0863600
X0689864
Y0864616
X0688848
Y0863600
Y0862584
X0689864
Y0861568
Y0860552
X0688848
Y0861568
X0687832
Y0862584
Y0863600
Y0864616
X0686816
Y0863600
Y0862584
Y0861568
Y0860552
X0687832
X0685800
Y0861568
Y0862584
Y0863600
Y0864616
X0681736
Y0863600
Y0862584
Y0861568
Y0860552
X0680720
Y0861568
Y0862584
Y0863600
Y0864616
X0679704
Y0863600
Y0862584
Y0861568
Y0860552
X0678688
Y0861568
Y0862584
Y0863600
Y0864616
X0677672
Y0863600
Y0862584
Y0861568
Y0860552
X0676656
Y0861568
Y0862584
Y0863600
Y0864616
X0675640
Y0863600
Y0862584
Y0861568
Y0860552
Y0859536
X0694944
X0695960
X0696976
X0697992
X0699008
Y0860552
Y0861568
Y0862584
X0697992
Y0861568
Y0860552
X0696976
Y0861568
Y0862584
X0695960
Y0861568
Y0860552
X0694944
Y0861568
Y0862584
X0703072
X0704088
X0705104
X0706120
X0707136
X0708152
Y0861568
Y0860552
Y0859536
Y0858520
Y0857504
X0709168
X0710184
X0711200
X0712216
X0713232
X0714248
Y0858520
Y0859536
Y0860552
Y0861568
Y0862584
X0713232
Y0861568
Y0860552
Y0859536
Y0858520
X0712216
Y0859536
Y0860552
Y0861568
Y0862584
Y0856488
X0713232
X0714248
X0711200
X0710184
X0709168
X0708152
X0707136
Y0857504
Y0858520
Y0859536
Y0860552
Y0861568
X0706120
Y0860552
Y0859536
Y0858520
Y0857504
Y0856488
Y0855472
Y0854456
Y0853440
Y0852424
Y0851408
Y0850392
X0705104
Y0851408
Y0852424
Y0853440
Y0854456
Y0855472
Y0856488
Y0857504
Y0858520
Y0859536
Y0860552
Y0861568
X0704088
Y0860552
Y0859536
Y0858520
Y0857504
Y0856488
Y0855472
Y0854456
Y0853440
Y0852424
Y0851408
Y0850392
X0703072
Y0851408
Y0852424
Y0853440
Y0854456
Y0855472
Y0856488
Y0857504
Y0858520
Y0859536
Y0860552
Y0861568
X0702056Y0852424
Y0851408
Y0850392
X0701040
Y0851408
Y0852424
Y0849376
Y0848360
Y0847344
Y0846328
X0700100Y0846375
X0691800
X0674624Y0845312
Y0844296
Y0843280
Y0842264
Y0841248
Y0840232
Y0839216
X0673608
Y0840232
Y0841248
X0672592
Y0840232
Y0839216
X0671576
Y0840232
Y0841248
X0670560
Y0842264
Y0843280
Y0844296
Y0845312
X0671576
X0672592
X0673608
X0669544
Y0846328
Y0847344
Y0848360
Y0849376
Y0850392
Y0851408
Y0852424
Y0853440
Y0854456
Y0855472
Y0856488
Y0857504
Y0858520
Y0859536
X0670560
X0671576
X0672592
X0673608
X0674624
Y0860552
Y0861568
Y0862584
Y0863600
Y0864616
X0673608
Y0863600
Y0862584
Y0861568
Y0860552
X0669544
Y0861568
Y0862584
Y0863600
Y0864616
X0668528
Y0863600
Y0862584
Y0861568
Y0860552
Y0859536
Y0858520
Y0857504
Y0856488
Y0855472
Y0854456
Y0853440
Y0852424
Y0851408
Y0850392
Y0849376
Y0848360
Y0847344
Y0846328
Y0845312
Y0844296
X0669544
Y0843280
Y0842264
Y0841248
Y0840232
X0670560
Y0839216
X0669544
X0668528
Y0840232
Y0841248
Y0842264
Y0843280
X0667512
Y0844296
Y0845312
Y0846328
Y0847344
Y0848360
Y0849376
Y0850392
Y0851408
Y0852424
Y0853440
Y0854456
Y0855472
Y0856488
Y0857504
Y0858520
Y0859536
Y0860552
Y0861568
Y0862584
Y0863600
Y0864616
Y0842264
Y0841248
Y0840232
Y0839216
T03
X0718875Y0848300
Y0843220
X0672625
Y0848300
M30
