G04*
G04 #@! TF.GenerationSoftware,Altium Limited,Altium Designer,20.1.8 (145)*
G04*
G04 Layer_Color=65535*
%FSAX44Y44*%
%MOMM*%
G71*
G04*
G04 #@! TF.SameCoordinates,4BD3250C-79EC-4D4E-AA4E-9321392E63C2*
G04*
G04*
G04 #@! TF.FilePolarity,Positive*
G04*
G01*
G75*
%ADD12C,0.1016*%
G36*
X00357062Y00128209D02*
X00354491D01*
Y00129968D01*
X00357062D01*
Y00128209D01*
D02*
G37*
G36*
X00344104D02*
X00341533D01*
Y00129968D01*
X00344104D01*
Y00128209D01*
D02*
G37*
G36*
X00310999D02*
X00308427D01*
Y00129968D01*
X00310999D01*
Y00128209D01*
D02*
G37*
G36*
X00213831Y00128209D02*
X00211259D01*
Y00129968D01*
X00213831D01*
Y00128209D01*
D02*
G37*
G36*
X00325496Y00120698D02*
X00322925D01*
Y00123912D01*
X00322908Y00124233D01*
X00322874Y00124504D01*
X00322840Y00124724D01*
X00322772Y00124910D01*
X00322722Y00125028D01*
X00322688Y00125130D01*
X00322654Y00125181D01*
X00322637Y00125198D01*
X00322519Y00125316D01*
X00322400Y00125401D01*
X00322265Y00125468D01*
X00322146Y00125502D01*
X00322045Y00125536D01*
X00321960Y00125553D01*
X00321876D01*
X00321724Y00125536D01*
X00321588Y00125519D01*
X00321487Y00125468D01*
X00321385Y00125417D01*
X00321318Y00125367D01*
X00321267Y00125333D01*
X00321233Y00125299D01*
X00321216Y00125282D01*
X00321132Y00125164D01*
X00321081Y00125028D01*
X00321013Y00124741D01*
X00320996Y00124606D01*
X00320979Y00124487D01*
Y00124419D01*
Y00124386D01*
Y00120698D01*
X00318391D01*
Y00124961D01*
X00318425Y00125417D01*
X00318493Y00125823D01*
X00318577Y00126162D01*
X00318696Y00126433D01*
X00318814Y00126652D01*
X00318899Y00126805D01*
X00318966Y00126889D01*
X00319000Y00126923D01*
X00319254Y00127143D01*
X00319508Y00127295D01*
X00319795Y00127414D01*
X00320049Y00127481D01*
X00320286Y00127532D01*
X00320489Y00127549D01*
X00320556Y00127566D01*
X00320658D01*
X00320912Y00127549D01*
X00321148Y00127532D01*
X00321368Y00127498D01*
X00321538Y00127447D01*
X00321690Y00127397D01*
X00321791Y00127363D01*
X00321876Y00127346D01*
X00321893Y00127329D01*
X00322079Y00127227D01*
X00322265Y00127109D01*
X00322434Y00126974D01*
X00322603Y00126855D01*
X00322739Y00126737D01*
X00322840Y00126636D01*
X00322908Y00126568D01*
X00322925Y00126551D01*
Y00129968D01*
X00325496D01*
Y00120698D01*
D02*
G37*
G36*
X00200974Y00120698D02*
X00198403D01*
Y00123912D01*
X00198386Y00124233D01*
X00198352Y00124504D01*
X00198319Y00124724D01*
X00198251Y00124910D01*
X00198200Y00125028D01*
X00198166Y00125130D01*
X00198132Y00125181D01*
X00198116Y00125197D01*
X00197997Y00125316D01*
X00197879Y00125400D01*
X00197743Y00125468D01*
X00197625Y00125502D01*
X00197523Y00125536D01*
X00197439Y00125553D01*
X00197354D01*
X00197202Y00125536D01*
X00197067Y00125519D01*
X00196965Y00125468D01*
X00196864Y00125417D01*
X00196796Y00125367D01*
X00196745Y00125333D01*
X00196711Y00125299D01*
X00196695Y00125282D01*
X00196610Y00125164D01*
X00196559Y00125028D01*
X00196492Y00124741D01*
X00196475Y00124606D01*
X00196458Y00124487D01*
Y00124419D01*
Y00124386D01*
Y00120698D01*
X00193869D01*
Y00124961D01*
X00193903Y00125417D01*
X00193971Y00125823D01*
X00194056Y00126162D01*
X00194174Y00126432D01*
X00194292Y00126652D01*
X00194377Y00126805D01*
X00194445Y00126889D01*
X00194478Y00126923D01*
X00194732Y00127143D01*
X00194986Y00127295D01*
X00195273Y00127414D01*
X00195527Y00127481D01*
X00195764Y00127532D01*
X00195967Y00127549D01*
X00196035Y00127566D01*
X00196136D01*
X00196390Y00127549D01*
X00196627Y00127532D01*
X00196847Y00127498D01*
X00197016Y00127447D01*
X00197168Y00127397D01*
X00197270Y00127363D01*
X00197354Y00127346D01*
X00197371Y00127329D01*
X00197557Y00127227D01*
X00197743Y00127109D01*
X00197913Y00126974D01*
X00198082Y00126855D01*
X00198217Y00126737D01*
X00198319Y00126635D01*
X00198386Y00126568D01*
X00198403Y00126551D01*
Y00129968D01*
X00200974D01*
Y00120698D01*
D02*
G37*
G36*
X00288635Y00127549D02*
X00288889Y00127532D01*
X00289109Y00127481D01*
X00289295Y00127430D01*
X00289447Y00127380D01*
X00289549Y00127346D01*
X00289633Y00127312D01*
X00289650Y00127295D01*
X00289853Y00127177D01*
X00290039Y00127058D01*
X00290208Y00126906D01*
X00290378Y00126754D01*
X00290513Y00126635D01*
X00290614Y00126517D01*
X00290682Y00126449D01*
X00290699Y00126416D01*
Y00127414D01*
X00293101D01*
Y00120698D01*
X00290513D01*
Y00124115D01*
X00290496Y00124386D01*
X00290462Y00124606D01*
X00290428Y00124791D01*
X00290378Y00124944D01*
X00290327Y00125062D01*
X00290276Y00125147D01*
X00290259Y00125197D01*
X00290242Y00125215D01*
X00290124Y00125333D01*
X00290005Y00125417D01*
X00289887Y00125468D01*
X00289769Y00125519D01*
X00289650Y00125536D01*
X00289566Y00125553D01*
X00289498D01*
X00289312Y00125519D01*
X00289160Y00125468D01*
X00289058Y00125417D01*
X00289041Y00125384D01*
X00289024D01*
X00288889Y00125248D01*
X00288804Y00125130D01*
X00288754Y00125028D01*
X00288737Y00124994D01*
Y00124978D01*
X00288720Y00124910D01*
X00288703Y00124825D01*
X00288686Y00124622D01*
Y00124538D01*
Y00124453D01*
Y00124403D01*
Y00124386D01*
Y00120698D01*
X00286098D01*
Y00124166D01*
X00286081Y00124419D01*
X00286047Y00124639D01*
X00286013Y00124825D01*
X00285962Y00124961D01*
X00285912Y00125079D01*
X00285861Y00125147D01*
X00285844Y00125197D01*
X00285827Y00125215D01*
X00285725Y00125333D01*
X00285590Y00125417D01*
X00285472Y00125468D01*
X00285353Y00125519D01*
X00285252Y00125536D01*
X00285167Y00125553D01*
X00285100D01*
X00284964Y00125536D01*
X00284829Y00125502D01*
X00284727Y00125434D01*
X00284626Y00125384D01*
X00284558Y00125316D01*
X00284508Y00125248D01*
X00284474Y00125215D01*
X00284457Y00125197D01*
X00284389Y00125113D01*
X00284355Y00124994D01*
X00284288Y00124775D01*
Y00124673D01*
X00284271Y00124588D01*
Y00124538D01*
Y00124521D01*
Y00120698D01*
X00281682D01*
Y00124910D01*
Y00125164D01*
X00281716Y00125384D01*
X00281784Y00125807D01*
X00281868Y00126145D01*
X00281987Y00126432D01*
X00282105Y00126652D01*
X00282190Y00126805D01*
X00282258Y00126889D01*
X00282292Y00126923D01*
X00282545Y00127143D01*
X00282816Y00127295D01*
X00283086Y00127414D01*
X00283357Y00127481D01*
X00283611Y00127532D01*
X00283797Y00127549D01*
X00283882Y00127566D01*
X00283983D01*
X00284254Y00127549D01*
X00284491Y00127532D01*
X00284711Y00127481D01*
X00284880Y00127447D01*
X00285032Y00127397D01*
X00285150Y00127346D01*
X00285218Y00127329D01*
X00285235Y00127312D01*
X00285421Y00127211D01*
X00285607Y00127075D01*
X00285793Y00126923D01*
X00285962Y00126771D01*
X00286115Y00126635D01*
X00286233Y00126517D01*
X00286301Y00126449D01*
X00286334Y00126416D01*
X00286453Y00126618D01*
X00286571Y00126788D01*
X00286707Y00126940D01*
X00286825Y00127058D01*
X00286927Y00127160D01*
X00287011Y00127227D01*
X00287079Y00127261D01*
X00287096Y00127278D01*
X00287282Y00127380D01*
X00287485Y00127447D01*
X00287705Y00127498D01*
X00287908Y00127532D01*
X00288094Y00127549D01*
X00288229Y00127566D01*
X00288364D01*
X00288635Y00127549D01*
D02*
G37*
G36*
X00207419D02*
X00207639Y00127532D01*
X00208029Y00127430D01*
X00208367Y00127312D01*
X00208654Y00127160D01*
X00208891Y00127008D01*
X00209060Y00126872D01*
X00209111Y00126821D01*
X00209162Y00126771D01*
X00209179Y00126754D01*
X00209196Y00126737D01*
X00209331Y00126568D01*
X00209433Y00126399D01*
X00209619Y00126010D01*
X00209754Y00125620D01*
X00209839Y00125231D01*
X00209906Y00124893D01*
X00209923Y00124741D01*
Y00124606D01*
X00209940Y00124504D01*
Y00124419D01*
Y00124369D01*
Y00124352D01*
X00209923Y00123861D01*
X00209855Y00123421D01*
X00209754Y00123049D01*
X00209652Y00122728D01*
X00209602Y00122592D01*
X00209551Y00122474D01*
X00209500Y00122373D01*
X00209449Y00122288D01*
X00209416Y00122220D01*
X00209382Y00122170D01*
X00209365Y00122153D01*
Y00122136D01*
X00209196Y00121933D01*
X00209027Y00121747D01*
X00208841Y00121594D01*
X00208671Y00121459D01*
X00208485Y00121341D01*
X00208299Y00121256D01*
X00208130Y00121171D01*
X00207961Y00121121D01*
X00207656Y00121036D01*
X00207521Y00121002D01*
X00207403Y00120985D01*
X00207318Y00120968D01*
X00207183D01*
X00206929Y00120985D01*
X00206692Y00121019D01*
X00206472Y00121070D01*
X00206269Y00121121D01*
X00206117Y00121171D01*
X00205982Y00121222D01*
X00205914Y00121256D01*
X00205880Y00121273D01*
X00205745Y00121357D01*
X00205609Y00121459D01*
X00205474Y00121560D01*
X00205356Y00121679D01*
X00205254Y00121763D01*
X00205187Y00121848D01*
X00205136Y00121899D01*
X00205119Y00121916D01*
Y00120901D01*
X00205136Y00120647D01*
X00205170Y00120444D01*
X00205203Y00120275D01*
X00205254Y00120123D01*
X00205322Y00120021D01*
X00205356Y00119953D01*
X00205389Y00119903D01*
X00205406Y00119886D01*
X00205525Y00119784D01*
X00205660Y00119717D01*
X00205795Y00119649D01*
X00205931Y00119615D01*
X00206049Y00119598D01*
X00206151Y00119581D01*
X00206252D01*
X00206404Y00119598D01*
X00206540Y00119615D01*
X00206658Y00119649D01*
X00206760Y00119683D01*
X00206844Y00119717D01*
X00206912Y00119750D01*
X00206946Y00119784D01*
X00206963D01*
X00207030Y00119852D01*
X00207098Y00119920D01*
X00207183Y00120072D01*
X00207216Y00120140D01*
X00207233Y00120207D01*
X00207250Y00120241D01*
Y00120258D01*
X00209754Y00120546D01*
Y00120410D01*
Y00120309D01*
Y00120224D01*
Y00120207D01*
X00209737Y00120021D01*
X00209720Y00119852D01*
X00209636Y00119530D01*
X00209517Y00119243D01*
X00209382Y00119023D01*
X00209246Y00118837D01*
X00209128Y00118702D01*
X00209043Y00118617D01*
X00209010Y00118583D01*
X00208857Y00118482D01*
X00208671Y00118380D01*
X00208468Y00118296D01*
X00208248Y00118228D01*
X00207792Y00118126D01*
X00207335Y00118059D01*
X00207115Y00118025D01*
X00206895Y00118008D01*
X00206709Y00117991D01*
X00206540D01*
X00206404Y00117974D01*
X00205897D01*
X00205609Y00118008D01*
X00205339Y00118025D01*
X00205102Y00118059D01*
X00204916Y00118093D01*
X00204781Y00118110D01*
X00204696Y00118143D01*
X00204662D01*
X00204408Y00118211D01*
X00204188Y00118296D01*
X00204002Y00118363D01*
X00203833Y00118448D01*
X00203698Y00118532D01*
X00203613Y00118600D01*
X00203546Y00118634D01*
X00203529Y00118651D01*
X00203360Y00118786D01*
X00203224Y00118939D01*
X00203089Y00119108D01*
X00202987Y00119243D01*
X00202903Y00119378D01*
X00202852Y00119480D01*
X00202818Y00119564D01*
X00202801Y00119581D01*
X00202717Y00119801D01*
X00202649Y00120004D01*
X00202598Y00120207D01*
X00202565Y00120393D01*
X00202548Y00120546D01*
X00202531Y00120664D01*
Y00120732D01*
Y00120765D01*
Y00121070D01*
Y00127414D01*
X00204950D01*
Y00126416D01*
X00205119Y00126635D01*
X00205288Y00126805D01*
X00205440Y00126957D01*
X00205592Y00127092D01*
X00205711Y00127177D01*
X00205812Y00127244D01*
X00205880Y00127278D01*
X00205897Y00127295D01*
X00206100Y00127380D01*
X00206320Y00127447D01*
X00206540Y00127498D01*
X00206743Y00127532D01*
X00206929Y00127549D01*
X00207064Y00127566D01*
X00207200D01*
X00207419Y00127549D01*
D02*
G37*
G36*
X00277335D02*
X00277555Y00127532D01*
X00277758Y00127515D01*
X00277927Y00127481D01*
X00278062Y00127464D01*
X00278130Y00127447D01*
X00278164D01*
X00278384Y00127414D01*
X00278570Y00127363D01*
X00278739Y00127312D01*
X00278874Y00127261D01*
X00278976Y00127211D01*
X00279060Y00127177D01*
X00279111Y00127160D01*
X00279128Y00127143D01*
X00279297Y00127041D01*
X00279450Y00126923D01*
X00279585Y00126821D01*
X00279686Y00126720D01*
X00279771Y00126635D01*
X00279839Y00126568D01*
X00279872Y00126517D01*
X00279889Y00126500D01*
X00279974Y00126348D01*
X00280058Y00126179D01*
X00280126Y00126010D01*
X00280177Y00125857D01*
X00280228Y00125705D01*
X00280245Y00125587D01*
X00280278Y00125519D01*
Y00125485D01*
X00277809Y00125231D01*
X00277758Y00125384D01*
X00277690Y00125502D01*
X00277623Y00125604D01*
X00277555Y00125688D01*
X00277504Y00125756D01*
X00277453Y00125790D01*
X00277437Y00125823D01*
X00277419D01*
X00277284Y00125891D01*
X00277132Y00125942D01*
X00276828Y00126010D01*
X00276692D01*
X00276574Y00126026D01*
X00276303D01*
X00276151Y00125993D01*
X00276032Y00125959D01*
X00275948Y00125925D01*
X00275863Y00125891D01*
X00275812Y00125857D01*
X00275796Y00125840D01*
X00275779Y00125823D01*
X00275711Y00125739D01*
X00275660Y00125637D01*
X00275593Y00125434D01*
Y00125333D01*
X00275576Y00125248D01*
Y00125197D01*
Y00125181D01*
X00275931Y00125045D01*
X00276083Y00124994D01*
X00276218Y00124944D01*
X00276337Y00124910D01*
X00276422Y00124876D01*
X00276489Y00124859D01*
X00276506D01*
X00276591Y00124842D01*
X00276709Y00124809D01*
X00276980Y00124741D01*
X00277284Y00124673D01*
X00277606Y00124606D01*
X00277893Y00124555D01*
X00278029Y00124521D01*
X00278147Y00124504D01*
X00278248Y00124487D01*
X00278316Y00124470D01*
X00278367Y00124453D01*
X00278384D01*
X00278604Y00124403D01*
X00278807Y00124352D01*
X00279145Y00124233D01*
X00279433Y00124115D01*
X00279669Y00123996D01*
X00279839Y00123895D01*
X00279957Y00123810D01*
X00280025Y00123743D01*
X00280042Y00123726D01*
X00280194Y00123540D01*
X00280295Y00123320D01*
X00280380Y00123117D01*
X00280431Y00122914D01*
X00280464Y00122745D01*
X00280481Y00122609D01*
Y00122508D01*
Y00122491D01*
Y00122474D01*
X00280448Y00122170D01*
X00280380Y00121916D01*
X00280295Y00121679D01*
X00280177Y00121476D01*
X00280058Y00121307D01*
X00279974Y00121188D01*
X00279906Y00121121D01*
X00279872Y00121087D01*
X00279619Y00120901D01*
X00279314Y00120782D01*
X00279010Y00120681D01*
X00278722Y00120613D01*
X00278451Y00120579D01*
X00278333Y00120562D01*
X00278232D01*
X00278147Y00120546D01*
X00278029D01*
X00277707Y00120562D01*
X00277403Y00120596D01*
X00277132Y00120630D01*
X00276895Y00120681D01*
X00276709Y00120732D01*
X00276557Y00120782D01*
X00276472Y00120799D01*
X00276438Y00120816D01*
X00276252Y00120901D01*
X00276083Y00121019D01*
X00275914Y00121121D01*
X00275762Y00121239D01*
X00275626Y00121341D01*
X00275525Y00121425D01*
X00275457Y00121493D01*
X00275440Y00121510D01*
X00275406Y00121324D01*
X00275373Y00121188D01*
X00275356Y00121121D01*
Y00121087D01*
X00275305Y00120968D01*
X00275237Y00120850D01*
X00275170Y00120749D01*
X00275153Y00120715D01*
Y00120698D01*
X00272734D01*
X00272869Y00120968D01*
X00272903Y00121087D01*
X00272937Y00121188D01*
X00272971Y00121273D01*
X00272987Y00121324D01*
X00273004Y00121357D01*
Y00121374D01*
X00273021Y00121493D01*
X00273038Y00121611D01*
X00273055Y00121848D01*
Y00121950D01*
Y00122034D01*
Y00122102D01*
Y00122119D01*
Y00125079D01*
Y00125265D01*
X00273089Y00125434D01*
X00273123Y00125604D01*
X00273157Y00125756D01*
X00273190Y00125891D01*
X00273224Y00125993D01*
X00273241Y00126060D01*
X00273258Y00126077D01*
X00273326Y00126263D01*
X00273410Y00126432D01*
X00273495Y00126568D01*
X00273580Y00126686D01*
X00273647Y00126771D01*
X00273715Y00126838D01*
X00273749Y00126872D01*
X00273766Y00126889D01*
X00273952Y00127024D01*
X00274155Y00127143D01*
X00274341Y00127244D01*
X00274527Y00127312D01*
X00274696Y00127363D01*
X00274831Y00127397D01*
X00274916Y00127430D01*
X00274950D01*
X00275220Y00127481D01*
X00275525Y00127515D01*
X00275846Y00127532D01*
X00276134Y00127549D01*
X00276405Y00127566D01*
X00277081D01*
X00277335Y00127549D01*
D02*
G37*
G36*
X00368853Y00120698D02*
X00366045D01*
X00364421Y00126534D01*
X00362797Y00120698D01*
X00359972D01*
X00357925Y00129968D01*
X00360648D01*
X00361629Y00124775D01*
X00363067Y00129968D01*
X00365774D01*
X00367212Y00124792D01*
X00368193Y00129968D01*
X00370900D01*
X00368853Y00120698D01*
D02*
G37*
G36*
X00331467Y00130103D02*
X00331856Y00130070D01*
X00332212Y00130002D01*
X00332550Y00129934D01*
X00332855Y00129833D01*
X00333142Y00129731D01*
X00333413Y00129613D01*
X00333633Y00129511D01*
X00333853Y00129393D01*
X00334022Y00129274D01*
X00334174Y00129173D01*
X00334309Y00129071D01*
X00334394Y00129004D01*
X00334479Y00128936D01*
X00334512Y00128902D01*
X00334529Y00128885D01*
X00334749Y00128649D01*
X00334935Y00128378D01*
X00335088Y00128107D01*
X00335240Y00127820D01*
X00335358Y00127515D01*
X00335443Y00127227D01*
X00335527Y00126940D01*
X00335595Y00126652D01*
X00335646Y00126382D01*
X00335680Y00126145D01*
X00335714Y00125925D01*
X00335730Y00125722D01*
Y00125570D01*
X00335747Y00125451D01*
Y00125384D01*
Y00125350D01*
X00335714Y00124741D01*
X00335680Y00124453D01*
X00335646Y00124183D01*
X00335578Y00123929D01*
X00335527Y00123692D01*
X00335460Y00123472D01*
X00335392Y00123286D01*
X00335341Y00123100D01*
X00335274Y00122948D01*
X00335206Y00122812D01*
X00335155Y00122711D01*
X00335121Y00122626D01*
X00335088Y00122559D01*
X00335054Y00122525D01*
Y00122508D01*
X00334783Y00122119D01*
X00334512Y00121797D01*
X00334225Y00121544D01*
X00333971Y00121324D01*
X00333751Y00121172D01*
X00333565Y00121053D01*
X00333497Y00121019D01*
X00333447Y00120985D01*
X00333430Y00120969D01*
X00333413D01*
X00333024Y00120833D01*
X00332618Y00120732D01*
X00332195Y00120647D01*
X00331806Y00120596D01*
X00331620Y00120579D01*
X00331451Y00120562D01*
X00331315D01*
X00331180Y00120546D01*
X00330926D01*
X00330486Y00120562D01*
X00330080Y00120596D01*
X00329725Y00120664D01*
X00329437Y00120732D01*
X00329201Y00120782D01*
X00329015Y00120850D01*
X00328964Y00120867D01*
X00328913Y00120884D01*
X00328896Y00120901D01*
X00328879D01*
X00328592Y00121053D01*
X00328321Y00121222D01*
X00328101Y00121391D01*
X00327898Y00121560D01*
X00327746Y00121730D01*
X00327627Y00121848D01*
X00327543Y00121933D01*
X00327526Y00121966D01*
X00327323Y00122254D01*
X00327171Y00122542D01*
X00327018Y00122829D01*
X00326917Y00123117D01*
X00326815Y00123354D01*
X00326765Y00123557D01*
X00326748Y00123624D01*
X00326731Y00123675D01*
X00326714Y00123709D01*
Y00123726D01*
X00329218Y00124504D01*
X00329302Y00124183D01*
X00329404Y00123912D01*
X00329505Y00123675D01*
X00329607Y00123489D01*
X00329691Y00123337D01*
X00329776Y00123235D01*
X00329827Y00123168D01*
X00329843Y00123151D01*
X00330013Y00122998D01*
X00330216Y00122880D01*
X00330419Y00122812D01*
X00330622Y00122745D01*
X00330808Y00122711D01*
X00330960Y00122694D01*
X00331095D01*
X00331400Y00122711D01*
X00331654Y00122779D01*
X00331890Y00122863D01*
X00332076Y00122982D01*
X00332212Y00123083D01*
X00332330Y00123168D01*
X00332398Y00123235D01*
X00332415Y00123252D01*
X00332499Y00123371D01*
X00332567Y00123506D01*
X00332685Y00123827D01*
X00332753Y00124183D01*
X00332821Y00124521D01*
X00332855Y00124842D01*
Y00124995D01*
X00332872Y00125113D01*
Y00125215D01*
Y00125299D01*
Y00125350D01*
Y00125367D01*
X00332855Y00125807D01*
X00332804Y00126179D01*
X00332753Y00126483D01*
X00332668Y00126737D01*
X00332601Y00126923D01*
X00332550Y00127075D01*
X00332499Y00127143D01*
X00332482Y00127177D01*
X00332381Y00127312D01*
X00332279Y00127447D01*
X00332043Y00127633D01*
X00331789Y00127786D01*
X00331552Y00127870D01*
X00331332Y00127938D01*
X00331146Y00127955D01*
X00331095Y00127972D01*
X00330841D01*
X00330689Y00127938D01*
X00330554Y00127921D01*
X00330435Y00127887D01*
X00330351Y00127853D01*
X00330266Y00127820D01*
X00330233Y00127803D01*
X00330216Y00127786D01*
X00329979Y00127633D01*
X00329793Y00127464D01*
X00329725Y00127397D01*
X00329657Y00127329D01*
X00329641Y00127295D01*
X00329623Y00127278D01*
X00329573Y00127194D01*
X00329522Y00127109D01*
X00329421Y00126906D01*
X00329387Y00126821D01*
X00329353Y00126737D01*
X00329336Y00126686D01*
Y00126669D01*
X00326799Y00127227D01*
X00326900Y00127498D01*
X00327001Y00127752D01*
X00327120Y00127972D01*
X00327238Y00128192D01*
X00327357Y00128395D01*
X00327492Y00128564D01*
X00327611Y00128733D01*
X00327729Y00128868D01*
X00327847Y00129004D01*
X00327949Y00129105D01*
X00328050Y00129207D01*
X00328135Y00129274D01*
X00328203Y00129342D01*
X00328253Y00129376D01*
X00328287Y00129410D01*
X00328304D01*
X00328507Y00129528D01*
X00328710Y00129647D01*
X00329150Y00129816D01*
X00329607Y00129951D01*
X00330063Y00130036D01*
X00330266Y00130070D01*
X00330452Y00130086D01*
X00330622Y00130103D01*
X00330774D01*
X00330892Y00130120D01*
X00331061D01*
X00331467Y00130103D01*
D02*
G37*
G36*
X00170237Y00130103D02*
X00170626Y00130070D01*
X00170982Y00130002D01*
X00171320Y00129934D01*
X00171624Y00129833D01*
X00171912Y00129731D01*
X00172183Y00129613D01*
X00172402Y00129511D01*
X00172622Y00129393D01*
X00172792Y00129274D01*
X00172944Y00129173D01*
X00173079Y00129071D01*
X00173164Y00129004D01*
X00173248Y00128936D01*
X00173282Y00128902D01*
X00173299Y00128885D01*
X00173519Y00128649D01*
X00173705Y00128378D01*
X00173857Y00128107D01*
X00174010Y00127820D01*
X00174128Y00127515D01*
X00174213Y00127227D01*
X00174297Y00126940D01*
X00174365Y00126652D01*
X00174416Y00126382D01*
X00174449Y00126145D01*
X00174483Y00125925D01*
X00174500Y00125722D01*
Y00125570D01*
X00174517Y00125451D01*
Y00125384D01*
Y00125350D01*
X00174483Y00124741D01*
X00174449Y00124453D01*
X00174416Y00124183D01*
X00174348Y00123929D01*
X00174297Y00123692D01*
X00174230Y00123472D01*
X00174162Y00123286D01*
X00174111Y00123100D01*
X00174043Y00122948D01*
X00173976Y00122812D01*
X00173925Y00122711D01*
X00173891Y00122626D01*
X00173857Y00122559D01*
X00173824Y00122525D01*
Y00122508D01*
X00173553Y00122119D01*
X00173282Y00121797D01*
X00172995Y00121544D01*
X00172741Y00121324D01*
X00172521Y00121171D01*
X00172335Y00121053D01*
X00172267Y00121019D01*
X00172216Y00120985D01*
X00172199Y00120968D01*
X00172183D01*
X00171793Y00120833D01*
X00171388Y00120732D01*
X00170965Y00120647D01*
X00170576Y00120596D01*
X00170389Y00120579D01*
X00170220Y00120562D01*
X00170085D01*
X00169950Y00120546D01*
X00169696D01*
X00169256Y00120562D01*
X00168850Y00120596D01*
X00168495Y00120664D01*
X00168207Y00120732D01*
X00167970Y00120782D01*
X00167784Y00120850D01*
X00167734Y00120867D01*
X00167683Y00120884D01*
X00167666Y00120901D01*
X00167649D01*
X00167361Y00121053D01*
X00167091Y00121222D01*
X00166871Y00121391D01*
X00166668Y00121560D01*
X00166516Y00121730D01*
X00166397Y00121848D01*
X00166313Y00121933D01*
X00166296Y00121966D01*
X00166093Y00122254D01*
X00165940Y00122542D01*
X00165788Y00122829D01*
X00165687Y00123117D01*
X00165585Y00123354D01*
X00165534Y00123557D01*
X00165518Y00123624D01*
X00165501Y00123675D01*
X00165484Y00123709D01*
Y00123726D01*
X00167987Y00124504D01*
X00168072Y00124183D01*
X00168173Y00123912D01*
X00168275Y00123675D01*
X00168376Y00123489D01*
X00168461Y00123337D01*
X00168546Y00123235D01*
X00168596Y00123168D01*
X00168613Y00123151D01*
X00168782Y00122998D01*
X00168985Y00122880D01*
X00169188Y00122812D01*
X00169391Y00122745D01*
X00169578Y00122711D01*
X00169730Y00122694D01*
X00169865D01*
X00170170Y00122711D01*
X00170423Y00122779D01*
X00170660Y00122863D01*
X00170846Y00122982D01*
X00170982Y00123083D01*
X00171100Y00123168D01*
X00171168Y00123235D01*
X00171185Y00123252D01*
X00171269Y00123371D01*
X00171337Y00123506D01*
X00171455Y00123827D01*
X00171523Y00124183D01*
X00171590Y00124521D01*
X00171624Y00124842D01*
Y00124994D01*
X00171641Y00125113D01*
Y00125215D01*
Y00125299D01*
Y00125350D01*
Y00125367D01*
X00171624Y00125807D01*
X00171574Y00126179D01*
X00171523Y00126483D01*
X00171438Y00126737D01*
X00171371Y00126923D01*
X00171320Y00127075D01*
X00171269Y00127143D01*
X00171252Y00127177D01*
X00171151Y00127312D01*
X00171049Y00127447D01*
X00170812Y00127633D01*
X00170559Y00127786D01*
X00170322Y00127870D01*
X00170102Y00127938D01*
X00169916Y00127955D01*
X00169865Y00127972D01*
X00169611D01*
X00169459Y00127938D01*
X00169324Y00127921D01*
X00169205Y00127887D01*
X00169121Y00127853D01*
X00169036Y00127820D01*
X00169002Y00127803D01*
X00168985Y00127786D01*
X00168749Y00127633D01*
X00168563Y00127464D01*
X00168495Y00127397D01*
X00168427Y00127329D01*
X00168410Y00127295D01*
X00168393Y00127278D01*
X00168343Y00127194D01*
X00168292Y00127109D01*
X00168190Y00126906D01*
X00168157Y00126821D01*
X00168123Y00126737D01*
X00168106Y00126686D01*
Y00126669D01*
X00165568Y00127227D01*
X00165670Y00127498D01*
X00165771Y00127752D01*
X00165890Y00127972D01*
X00166008Y00128192D01*
X00166126Y00128395D01*
X00166262Y00128564D01*
X00166380Y00128733D01*
X00166499Y00128868D01*
X00166617Y00129004D01*
X00166719Y00129105D01*
X00166820Y00129207D01*
X00166905Y00129274D01*
X00166972Y00129342D01*
X00167023Y00129376D01*
X00167057Y00129410D01*
X00167074D01*
X00167277Y00129528D01*
X00167480Y00129647D01*
X00167920Y00129816D01*
X00168376Y00129951D01*
X00168833Y00130036D01*
X00169036Y00130070D01*
X00169222Y00130086D01*
X00169391Y00130103D01*
X00169544D01*
X00169662Y00130120D01*
X00169831D01*
X00170237Y00130103D01*
D02*
G37*
G36*
X00298345Y00128632D02*
Y00127414D01*
X00299292Y00127414D01*
Y00125536D01*
X00298345Y00125536D01*
Y00123168D01*
X00298328Y00122779D01*
X00298311Y00122440D01*
X00298277Y00122153D01*
X00298244Y00121916D01*
X00298210Y00121747D01*
X00298176Y00121628D01*
X00298142Y00121544D01*
Y00121527D01*
X00298057Y00121357D01*
X00297939Y00121205D01*
X00297838Y00121070D01*
X00297719Y00120968D01*
X00297618Y00120884D01*
X00297533Y00120833D01*
X00297482Y00120799D01*
X00297465Y00120782D01*
X00297279Y00120698D01*
X00297043Y00120647D01*
X00296823Y00120596D01*
X00296586Y00120579D01*
X00296366Y00120562D01*
X00296197Y00120546D01*
X00296045D01*
X00295723Y00120562D01*
X00295419Y00120579D01*
X00295114Y00120613D01*
X00294843Y00120647D01*
X00294607Y00120681D01*
X00294421Y00120715D01*
X00294353Y00120732D01*
X00294302Y00120749D01*
X00294251D01*
X00294454Y00122525D01*
X00294640Y00122474D01*
X00294793Y00122440D01*
X00294928Y00122406D01*
X00295046Y00122389D01*
X00295131D01*
X00295199Y00122373D01*
X00295249D01*
X00295351Y00122389D01*
X00295452Y00122406D01*
X00295588Y00122474D01*
X00295655Y00122542D01*
X00295689Y00122576D01*
X00295706Y00122643D01*
X00295723Y00122728D01*
X00295740Y00122914D01*
X00295757Y00122998D01*
Y00123083D01*
Y00123134D01*
Y00123151D01*
Y00125536D01*
X00294336D01*
Y00127414D01*
X00295757D01*
Y00129968D01*
X00298345Y00128632D01*
D02*
G37*
G36*
X00191806D02*
Y00127414D01*
X00192753D01*
Y00125536D01*
X00191806D01*
Y00123168D01*
X00191789Y00122779D01*
X00191772Y00122440D01*
X00191738Y00122153D01*
X00191704Y00121916D01*
X00191670Y00121747D01*
X00191637Y00121628D01*
X00191603Y00121544D01*
Y00121527D01*
X00191518Y00121357D01*
X00191400Y00121205D01*
X00191298Y00121070D01*
X00191180Y00120968D01*
X00191078Y00120884D01*
X00190994Y00120833D01*
X00190943Y00120799D01*
X00190926Y00120782D01*
X00190740Y00120698D01*
X00190503Y00120647D01*
X00190283Y00120596D01*
X00190046Y00120579D01*
X00189826Y00120562D01*
X00189657Y00120546D01*
X00189505D01*
X00189184Y00120562D01*
X00188879Y00120579D01*
X00188575Y00120613D01*
X00188304Y00120647D01*
X00188067Y00120681D01*
X00187881Y00120715D01*
X00187813Y00120732D01*
X00187763Y00120749D01*
X00187712D01*
X00187915Y00122525D01*
X00188101Y00122474D01*
X00188253Y00122440D01*
X00188389Y00122406D01*
X00188507Y00122389D01*
X00188591D01*
X00188659Y00122373D01*
X00188710D01*
X00188811Y00122389D01*
X00188913Y00122406D01*
X00189048Y00122474D01*
X00189116Y00122542D01*
X00189150Y00122576D01*
X00189167Y00122643D01*
X00189184Y00122728D01*
X00189200Y00122914D01*
X00189217Y00122998D01*
Y00123083D01*
Y00123134D01*
Y00123151D01*
Y00125536D01*
X00187796D01*
Y00127414D01*
X00189217D01*
Y00129968D01*
X00191806Y00128632D01*
D02*
G37*
G36*
X00146453Y00128631D02*
Y00127414D01*
X00147400D01*
Y00125536D01*
X00146453D01*
Y00123167D01*
X00146436Y00122779D01*
X00146419Y00122440D01*
X00146385Y00122153D01*
X00146351Y00121916D01*
X00146317Y00121747D01*
X00146284Y00121628D01*
X00146250Y00121544D01*
Y00121527D01*
X00146165Y00121357D01*
X00146047Y00121205D01*
X00145945Y00121070D01*
X00145827Y00120968D01*
X00145725Y00120884D01*
X00145641Y00120833D01*
X00145590Y00120799D01*
X00145573Y00120782D01*
X00145387Y00120698D01*
X00145150Y00120647D01*
X00144930Y00120596D01*
X00144693Y00120579D01*
X00144473Y00120562D01*
X00144304Y00120546D01*
X00144152D01*
X00143831Y00120562D01*
X00143526Y00120579D01*
X00143222Y00120613D01*
X00142951Y00120647D01*
X00142714Y00120681D01*
X00142528Y00120715D01*
X00142460Y00120732D01*
X00142410Y00120749D01*
X00142359D01*
X00142562Y00122525D01*
X00142748Y00122474D01*
X00142900Y00122440D01*
X00143036Y00122406D01*
X00143154Y00122389D01*
X00143239D01*
X00143306Y00122373D01*
X00143357D01*
X00143459Y00122389D01*
X00143560Y00122406D01*
X00143695Y00122474D01*
X00143763Y00122542D01*
X00143797Y00122576D01*
X00143814Y00122643D01*
X00143831Y00122728D01*
X00143848Y00122914D01*
X00143865Y00122998D01*
Y00123083D01*
Y00123134D01*
Y00123151D01*
Y00125536D01*
X00142444D01*
Y00127414D01*
X00143865D01*
Y00129968D01*
X00146453Y00128631D01*
D02*
G37*
G36*
X00241032Y00127549D02*
X00241337Y00127532D01*
X00241624Y00127481D01*
X00241895Y00127414D01*
X00242149Y00127346D01*
X00242369Y00127261D01*
X00242589Y00127160D01*
X00242775Y00127075D01*
X00242944Y00126991D01*
X00243079Y00126889D01*
X00243215Y00126805D01*
X00243316Y00126737D01*
X00243401Y00126669D01*
X00243451Y00126635D01*
X00243485Y00126602D01*
X00243502Y00126585D01*
X00243671Y00126399D01*
X00243824Y00126196D01*
X00243959Y00125993D01*
X00244077Y00125773D01*
X00244179Y00125553D01*
X00244263Y00125350D01*
X00244382Y00124944D01*
X00244416Y00124758D01*
X00244450Y00124588D01*
X00244466Y00124419D01*
X00244483Y00124284D01*
X00244500Y00124183D01*
Y00124098D01*
Y00124047D01*
Y00124030D01*
X00244483Y00123624D01*
X00244416Y00123269D01*
X00244348Y00122931D01*
X00244247Y00122660D01*
X00244162Y00122423D01*
X00244077Y00122254D01*
X00244060Y00122186D01*
X00244027Y00122136D01*
X00244010Y00122119D01*
Y00122102D01*
X00243807Y00121814D01*
X00243604Y00121577D01*
X00243384Y00121374D01*
X00243181Y00121205D01*
X00243012Y00121087D01*
X00242859Y00120985D01*
X00242775Y00120935D01*
X00242741Y00120918D01*
X00242436Y00120799D01*
X00242098Y00120698D01*
X00241743Y00120630D01*
X00241404Y00120596D01*
X00241100Y00120562D01*
X00240982D01*
X00240863Y00120546D01*
X00240356D01*
X00240102Y00120562D01*
X00239848Y00120579D01*
X00239628Y00120613D01*
X00239408Y00120647D01*
X00239222Y00120681D01*
X00239053Y00120732D01*
X00238884Y00120765D01*
X00238749Y00120799D01*
X00238630Y00120850D01*
X00238529Y00120884D01*
X00238444Y00120918D01*
X00238377Y00120951D01*
X00238326Y00120968D01*
X00238309Y00120985D01*
X00238292D01*
X00237987Y00121171D01*
X00237717Y00121391D01*
X00237480Y00121645D01*
X00237277Y00121882D01*
X00237108Y00122102D01*
X00236972Y00122271D01*
X00236939Y00122339D01*
X00236905Y00122389D01*
X00236871Y00122423D01*
Y00122440D01*
X00239408Y00122677D01*
X00239493Y00122559D01*
X00239594Y00122474D01*
X00239662Y00122389D01*
X00239730Y00122339D01*
X00239831Y00122254D01*
X00239848Y00122237D01*
X00239865D01*
X00240000Y00122170D01*
X00240119Y00122136D01*
X00240339Y00122068D01*
X00240440D01*
X00240508Y00122051D01*
X00240576D01*
X00240795Y00122068D01*
X00240982Y00122119D01*
X00241151Y00122186D01*
X00241286Y00122271D01*
X00241404Y00122356D01*
X00241489Y00122423D01*
X00241540Y00122474D01*
X00241557Y00122491D01*
X00241641Y00122626D01*
X00241709Y00122762D01*
X00241810Y00123066D01*
X00241844Y00123201D01*
X00241861Y00123320D01*
X00241878Y00123387D01*
Y00123421D01*
X00236719D01*
Y00123709D01*
X00236736Y00124183D01*
X00236786Y00124606D01*
X00236854Y00124961D01*
X00236939Y00125282D01*
X00237023Y00125519D01*
X00237057Y00125620D01*
X00237091Y00125705D01*
X00237125Y00125773D01*
X00237142Y00125823D01*
X00237159Y00125840D01*
Y00125857D01*
X00237345Y00126145D01*
X00237548Y00126399D01*
X00237751Y00126618D01*
X00237971Y00126805D01*
X00238157Y00126940D01*
X00238309Y00127041D01*
X00238410Y00127109D01*
X00238427Y00127126D01*
X00238444D01*
X00238783Y00127278D01*
X00239155Y00127380D01*
X00239527Y00127464D01*
X00239882Y00127515D01*
X00240203Y00127549D01*
X00240356D01*
X00240474Y00127566D01*
X00240711D01*
X00241032Y00127549D01*
D02*
G37*
G36*
X00232388D02*
X00232693Y00127532D01*
X00232980Y00127481D01*
X00233251Y00127414D01*
X00233505Y00127346D01*
X00233724Y00127261D01*
X00233944Y00127160D01*
X00234130Y00127075D01*
X00234300Y00126991D01*
X00234435Y00126889D01*
X00234570Y00126805D01*
X00234672Y00126737D01*
X00234756Y00126669D01*
X00234807Y00126635D01*
X00234841Y00126602D01*
X00234858Y00126585D01*
X00235027Y00126399D01*
X00235179Y00126196D01*
X00235315Y00125993D01*
X00235433Y00125773D01*
X00235534Y00125553D01*
X00235619Y00125350D01*
X00235737Y00124944D01*
X00235771Y00124758D01*
X00235805Y00124588D01*
X00235822Y00124419D01*
X00235839Y00124284D01*
X00235856Y00124183D01*
Y00124098D01*
Y00124047D01*
Y00124030D01*
X00235839Y00123624D01*
X00235771Y00123269D01*
X00235704Y00122931D01*
X00235602Y00122660D01*
X00235518Y00122423D01*
X00235433Y00122254D01*
X00235416Y00122186D01*
X00235382Y00122136D01*
X00235365Y00122119D01*
Y00122102D01*
X00235162Y00121814D01*
X00234959Y00121577D01*
X00234739Y00121374D01*
X00234536Y00121205D01*
X00234367Y00121087D01*
X00234215Y00120985D01*
X00234130Y00120935D01*
X00234097Y00120918D01*
X00233792Y00120799D01*
X00233454Y00120698D01*
X00233099Y00120630D01*
X00232760Y00120596D01*
X00232456Y00120562D01*
X00232337D01*
X00232219Y00120546D01*
X00231711D01*
X00231458Y00120562D01*
X00231204Y00120579D01*
X00230984Y00120613D01*
X00230764Y00120647D01*
X00230578Y00120681D01*
X00230409Y00120732D01*
X00230240Y00120765D01*
X00230104Y00120799D01*
X00229986Y00120850D01*
X00229884Y00120884D01*
X00229800Y00120918D01*
X00229732Y00120951D01*
X00229681Y00120968D01*
X00229664Y00120985D01*
X00229648D01*
X00229343Y00121171D01*
X00229072Y00121391D01*
X00228836Y00121645D01*
X00228633Y00121882D01*
X00228463Y00122102D01*
X00228328Y00122271D01*
X00228294Y00122339D01*
X00228260Y00122389D01*
X00228227Y00122423D01*
Y00122440D01*
X00230764Y00122677D01*
X00230849Y00122559D01*
X00230950Y00122474D01*
X00231018Y00122389D01*
X00231085Y00122339D01*
X00231187Y00122254D01*
X00231204Y00122237D01*
X00231221D01*
X00231356Y00122170D01*
X00231475Y00122136D01*
X00231695Y00122068D01*
X00231796D01*
X00231864Y00122051D01*
X00231931D01*
X00232151Y00122068D01*
X00232337Y00122119D01*
X00232507Y00122186D01*
X00232642Y00122271D01*
X00232760Y00122356D01*
X00232845Y00122423D01*
X00232896Y00122474D01*
X00232913Y00122491D01*
X00232997Y00122626D01*
X00233065Y00122762D01*
X00233166Y00123066D01*
X00233200Y00123201D01*
X00233217Y00123320D01*
X00233234Y00123387D01*
Y00123421D01*
X00228074D01*
Y00123709D01*
X00228091Y00124183D01*
X00228142Y00124606D01*
X00228210Y00124961D01*
X00228294Y00125282D01*
X00228379Y00125519D01*
X00228413Y00125620D01*
X00228447Y00125705D01*
X00228480Y00125773D01*
X00228497Y00125823D01*
X00228514Y00125840D01*
Y00125857D01*
X00228700Y00126145D01*
X00228903Y00126399D01*
X00229106Y00126618D01*
X00229326Y00126805D01*
X00229512Y00126940D01*
X00229664Y00127041D01*
X00229766Y00127109D01*
X00229783Y00127126D01*
X00229800D01*
X00230138Y00127278D01*
X00230510Y00127380D01*
X00230882Y00127464D01*
X00231238Y00127515D01*
X00231559Y00127549D01*
X00231711D01*
X00231830Y00127566D01*
X00232067D01*
X00232388Y00127549D01*
D02*
G37*
G36*
X00115056Y00127549D02*
X00115360Y00127532D01*
X00115648Y00127481D01*
X00115919Y00127414D01*
X00116172Y00127346D01*
X00116392Y00127261D01*
X00116612Y00127160D01*
X00116798Y00127075D01*
X00116967Y00126991D01*
X00117103Y00126889D01*
X00117238Y00126805D01*
X00117340Y00126737D01*
X00117424Y00126669D01*
X00117475Y00126635D01*
X00117509Y00126602D01*
X00117526Y00126585D01*
X00117695Y00126399D01*
X00117847Y00126196D01*
X00117983Y00125993D01*
X00118101Y00125773D01*
X00118202Y00125553D01*
X00118287Y00125350D01*
X00118405Y00124944D01*
X00118439Y00124758D01*
X00118473Y00124588D01*
X00118490Y00124419D01*
X00118507Y00124284D01*
X00118524Y00124183D01*
Y00124098D01*
Y00124047D01*
Y00124030D01*
X00118507Y00123624D01*
X00118439Y00123269D01*
X00118371Y00122931D01*
X00118270Y00122660D01*
X00118186Y00122423D01*
X00118101Y00122254D01*
X00118084Y00122186D01*
X00118050Y00122136D01*
X00118033Y00122119D01*
Y00122102D01*
X00117830Y00121814D01*
X00117627Y00121577D01*
X00117407Y00121374D01*
X00117204Y00121205D01*
X00117035Y00121087D01*
X00116883Y00120985D01*
X00116798Y00120935D01*
X00116764Y00120918D01*
X00116460Y00120799D01*
X00116122Y00120698D01*
X00115766Y00120630D01*
X00115428Y00120596D01*
X00115124Y00120562D01*
X00115005D01*
X00114887Y00120546D01*
X00114379D01*
X00114125Y00120562D01*
X00113872Y00120579D01*
X00113652Y00120613D01*
X00113432Y00120647D01*
X00113246Y00120681D01*
X00113077Y00120732D01*
X00112907Y00120765D01*
X00112772Y00120799D01*
X00112654Y00120850D01*
X00112552Y00120884D01*
X00112468Y00120918D01*
X00112400Y00120951D01*
X00112349Y00120968D01*
X00112332Y00120985D01*
X00112316D01*
X00112011Y00121171D01*
X00111740Y00121391D01*
X00111503Y00121645D01*
X00111300Y00121882D01*
X00111131Y00122102D01*
X00110996Y00122271D01*
X00110962Y00122339D01*
X00110928Y00122389D01*
X00110894Y00122423D01*
Y00122440D01*
X00113432Y00122677D01*
X00113517Y00122559D01*
X00113618Y00122474D01*
X00113686Y00122389D01*
X00113753Y00122339D01*
X00113855Y00122254D01*
X00113872Y00122237D01*
X00113889D01*
X00114024Y00122170D01*
X00114142Y00122136D01*
X00114362Y00122068D01*
X00114464D01*
X00114531Y00122051D01*
X00114599D01*
X00114819Y00122068D01*
X00115005Y00122119D01*
X00115174Y00122186D01*
X00115310Y00122271D01*
X00115428Y00122356D01*
X00115513Y00122423D01*
X00115563Y00122474D01*
X00115580Y00122491D01*
X00115665Y00122626D01*
X00115733Y00122762D01*
X00115834Y00123066D01*
X00115868Y00123201D01*
X00115885Y00123320D01*
X00115902Y00123387D01*
Y00123421D01*
X00110742D01*
Y00123709D01*
X00110759Y00124183D01*
X00110810Y00124605D01*
X00110878Y00124961D01*
X00110962Y00125282D01*
X00111047Y00125519D01*
X00111081Y00125620D01*
X00111114Y00125705D01*
X00111148Y00125773D01*
X00111165Y00125823D01*
X00111182Y00125840D01*
Y00125857D01*
X00111368Y00126145D01*
X00111571Y00126399D01*
X00111774Y00126618D01*
X00111994Y00126805D01*
X00112180Y00126940D01*
X00112332Y00127041D01*
X00112434Y00127109D01*
X00112451Y00127126D01*
X00112468D01*
X00112806Y00127278D01*
X00113178Y00127380D01*
X00113550Y00127464D01*
X00113906Y00127515D01*
X00114227Y00127549D01*
X00114379D01*
X00114498Y00127566D01*
X00114734D01*
X00115056Y00127549D01*
D02*
G37*
G36*
X00357062Y00120698D02*
X00354491D01*
Y00127414D01*
X00357062D01*
Y00120698D01*
D02*
G37*
G36*
X00352664D02*
X00349788D01*
Y00124487D01*
X00346185D01*
Y00126365D01*
X00349788D01*
Y00127972D01*
X00345576D01*
Y00129968D01*
X00352664D01*
Y00120698D01*
D02*
G37*
G36*
X00344104D02*
X00341533D01*
Y00127414D01*
X00344104D01*
Y00120698D01*
D02*
G37*
G36*
X00312978Y00127549D02*
X00313147Y00127532D01*
X00313316Y00127481D01*
X00313451Y00127430D01*
X00313553Y00127380D01*
X00313638Y00127346D01*
X00313688Y00127312D01*
X00313705Y00127295D01*
X00313841Y00127177D01*
X00313959Y00127024D01*
X00314196Y00126703D01*
X00314280Y00126551D01*
X00314348Y00126433D01*
X00314399Y00126348D01*
X00314416Y00126314D01*
Y00127414D01*
X00316818D01*
Y00120698D01*
X00314230D01*
Y00122948D01*
Y00123235D01*
X00314213Y00123506D01*
X00314196Y00123743D01*
X00314162Y00123963D01*
X00314145Y00124166D01*
X00314111Y00124352D01*
X00314077Y00124504D01*
X00314027Y00124656D01*
X00313993Y00124775D01*
X00313959Y00124876D01*
X00313925Y00124961D01*
X00313908Y00125028D01*
X00313857Y00125113D01*
X00313841Y00125147D01*
X00313722Y00125282D01*
X00313587Y00125384D01*
X00313468Y00125468D01*
X00313333Y00125519D01*
X00313215Y00125553D01*
X00313130Y00125570D01*
X00312944D01*
X00312826Y00125536D01*
X00312589Y00125468D01*
X00312487Y00125434D01*
X00312403Y00125401D01*
X00312352Y00125384D01*
X00312335Y00125367D01*
X00311523Y00127211D01*
X00311777Y00127329D01*
X00312014Y00127414D01*
X00312217Y00127481D01*
X00312403Y00127515D01*
X00312555Y00127549D01*
X00312673Y00127566D01*
X00312775D01*
X00312978Y00127549D01*
D02*
G37*
G36*
X00310999Y00120698D02*
X00308427D01*
Y00127414D01*
X00310999D01*
Y00120698D01*
D02*
G37*
G36*
X00259776Y00127684D02*
X00256849D01*
Y00120698D01*
X00253990D01*
Y00127684D01*
X00251064D01*
Y00129968D01*
X00259776D01*
Y00127684D01*
D02*
G37*
G36*
X00246056Y00127549D02*
X00246226Y00127532D01*
X00246395Y00127481D01*
X00246530Y00127430D01*
X00246632Y00127380D01*
X00246716Y00127346D01*
X00246767Y00127312D01*
X00246784Y00127295D01*
X00246919Y00127177D01*
X00247038Y00127024D01*
X00247274Y00126703D01*
X00247359Y00126551D01*
X00247427Y00126432D01*
X00247477Y00126348D01*
X00247494Y00126314D01*
Y00127414D01*
X00249897D01*
Y00120698D01*
X00247308D01*
Y00122948D01*
Y00123235D01*
X00247291Y00123506D01*
X00247274Y00123743D01*
X00247241Y00123963D01*
X00247224Y00124166D01*
X00247190Y00124352D01*
X00247156Y00124504D01*
X00247105Y00124656D01*
X00247071Y00124775D01*
X00247038Y00124876D01*
X00247004Y00124961D01*
X00246987Y00125028D01*
X00246936Y00125113D01*
X00246919Y00125147D01*
X00246801Y00125282D01*
X00246665Y00125384D01*
X00246547Y00125468D01*
X00246412Y00125519D01*
X00246293Y00125553D01*
X00246209Y00125570D01*
X00246023D01*
X00245904Y00125536D01*
X00245667Y00125468D01*
X00245566Y00125434D01*
X00245481Y00125400D01*
X00245431Y00125384D01*
X00245414Y00125367D01*
X00244602Y00127211D01*
X00244855Y00127329D01*
X00245092Y00127414D01*
X00245295Y00127481D01*
X00245481Y00127515D01*
X00245634Y00127549D01*
X00245752Y00127566D01*
X00245854D01*
X00246056Y00127549D01*
D02*
G37*
G36*
X00222407Y00120698D02*
X00215066D01*
Y00122982D01*
X00219548D01*
Y00129968D01*
X00222407D01*
Y00120698D01*
D02*
G37*
G36*
X00213831D02*
X00211259D01*
Y00127414D01*
X00213831D01*
Y00120698D01*
D02*
G37*
G36*
X00151088Y00127549D02*
X00151342Y00127515D01*
X00151578Y00127481D01*
X00151781Y00127430D01*
X00151934Y00127363D01*
X00152052Y00127329D01*
X00152120Y00127295D01*
X00152154Y00127278D01*
X00152357Y00127160D01*
X00152543Y00127008D01*
X00152729Y00126855D01*
X00152898Y00126686D01*
X00153033Y00126551D01*
X00153135Y00126432D01*
X00153219Y00126348D01*
X00153236Y00126314D01*
Y00127414D01*
X00155622Y00127414D01*
Y00120698D01*
X00153050Y00120698D01*
Y00123912D01*
X00153033Y00124233D01*
X00152999Y00124504D01*
X00152966Y00124724D01*
X00152898Y00124910D01*
X00152847Y00125028D01*
X00152813Y00125130D01*
X00152780Y00125181D01*
X00152763Y00125197D01*
X00152644Y00125316D01*
X00152526Y00125400D01*
X00152390Y00125468D01*
X00152272Y00125502D01*
X00152170Y00125536D01*
X00152086Y00125553D01*
X00152001D01*
X00151849Y00125536D01*
X00151714Y00125519D01*
X00151612Y00125468D01*
X00151511Y00125417D01*
X00151443Y00125367D01*
X00151392Y00125333D01*
X00151358Y00125299D01*
X00151342Y00125282D01*
X00151257Y00125164D01*
X00151206Y00125028D01*
X00151139Y00124741D01*
X00151122Y00124605D01*
X00151105Y00124487D01*
Y00124419D01*
Y00124385D01*
Y00120698D01*
X00148517D01*
Y00124961D01*
X00148550Y00125417D01*
X00148618Y00125823D01*
X00148703Y00126162D01*
X00148821Y00126432D01*
X00148940Y00126652D01*
X00149024Y00126805D01*
X00149092Y00126889D01*
X00149126Y00126923D01*
X00149379Y00127143D01*
X00149650Y00127295D01*
X00149921Y00127414D01*
X00150191Y00127481D01*
X00150428Y00127532D01*
X00150631Y00127549D01*
X00150699Y00127566D01*
X00150800D01*
X00151088Y00127549D01*
D02*
G37*
G36*
X00137352D02*
X00137521Y00127532D01*
X00137690Y00127481D01*
X00137825Y00127430D01*
X00137927Y00127380D01*
X00138012Y00127346D01*
X00138062Y00127312D01*
X00138079Y00127295D01*
X00138215Y00127177D01*
X00138333Y00127024D01*
X00138570Y00126703D01*
X00138654Y00126551D01*
X00138722Y00126432D01*
X00138773Y00126348D01*
X00138790Y00126314D01*
Y00127414D01*
X00141192D01*
Y00120698D01*
X00138604D01*
Y00122948D01*
Y00123235D01*
X00138587Y00123506D01*
X00138570Y00123743D01*
X00138536Y00123963D01*
X00138519Y00124166D01*
X00138485Y00124352D01*
X00138451Y00124504D01*
X00138401Y00124656D01*
X00138367Y00124775D01*
X00138333Y00124876D01*
X00138299Y00124961D01*
X00138282Y00125028D01*
X00138231Y00125113D01*
X00138215Y00125147D01*
X00138096Y00125282D01*
X00137961Y00125384D01*
X00137842Y00125468D01*
X00137707Y00125519D01*
X00137589Y00125553D01*
X00137504Y00125570D01*
X00137318D01*
X00137199Y00125536D01*
X00136963Y00125468D01*
X00136861Y00125434D01*
X00136777Y00125400D01*
X00136726Y00125384D01*
X00136709Y00125367D01*
X00135897Y00127211D01*
X00136151Y00127329D01*
X00136388Y00127414D01*
X00136590Y00127481D01*
X00136777Y00127515D01*
X00136929Y00127549D01*
X00137047Y00127566D01*
X00137149D01*
X00137352Y00127549D01*
D02*
G37*
G36*
X00126745Y00120698D02*
X00124157D01*
Y00129968D01*
X00126745D01*
Y00120698D01*
D02*
G37*
G36*
X00122431D02*
X00119843D01*
Y00129968D01*
X00122431D01*
Y00120698D01*
D02*
G37*
G36*
X00105684Y00127549D02*
X00105853Y00127532D01*
X00106023Y00127481D01*
X00106158Y00127430D01*
X00106259Y00127380D01*
X00106344Y00127346D01*
X00106395Y00127312D01*
X00106412Y00127295D01*
X00106547Y00127177D01*
X00106665Y00127024D01*
X00106902Y00126703D01*
X00106987Y00126551D01*
X00107055Y00126432D01*
X00107105Y00126348D01*
X00107122Y00126314D01*
Y00127414D01*
X00109524D01*
Y00120698D01*
X00106936D01*
Y00122948D01*
Y00123235D01*
X00106919Y00123506D01*
X00106902Y00123743D01*
X00106868Y00123963D01*
X00106852Y00124166D01*
X00106818Y00124352D01*
X00106784Y00124504D01*
X00106733Y00124656D01*
X00106699Y00124775D01*
X00106665Y00124876D01*
X00106632Y00124961D01*
X00106615Y00125028D01*
X00106564Y00125113D01*
X00106547Y00125147D01*
X00106429Y00125282D01*
X00106293Y00125384D01*
X00106175Y00125468D01*
X00106039Y00125519D01*
X00105921Y00125553D01*
X00105836Y00125570D01*
X00105650D01*
X00105532Y00125536D01*
X00105295Y00125468D01*
X00105194Y00125434D01*
X00105109Y00125400D01*
X00105058Y00125384D01*
X00105041Y00125367D01*
X00104229Y00127211D01*
X00104483Y00127329D01*
X00104720Y00127414D01*
X00104923Y00127481D01*
X00105109Y00127515D01*
X00105261Y00127549D01*
X00105380Y00127566D01*
X00105481D01*
X00105684Y00127549D01*
D02*
G37*
G36*
X00304097Y00127549D02*
X00304469Y00127532D01*
X00304773Y00127481D01*
X00305027Y00127447D01*
X00305247Y00127397D01*
X00305399Y00127346D01*
X00305484Y00127329D01*
X00305518Y00127312D01*
X00305755Y00127211D01*
X00305974Y00127109D01*
X00306144Y00126991D01*
X00306296Y00126872D01*
X00306431Y00126771D01*
X00306516Y00126686D01*
X00306567Y00126618D01*
X00306583Y00126602D01*
X00306702Y00126416D01*
X00306803Y00126229D01*
X00306871Y00126026D01*
X00306905Y00125857D01*
X00306939Y00125688D01*
X00306956Y00125570D01*
Y00125485D01*
Y00125451D01*
X00306939Y00125231D01*
X00306905Y00125028D01*
X00306837Y00124859D01*
X00306770Y00124690D01*
X00306719Y00124572D01*
X00306651Y00124470D01*
X00306617Y00124403D01*
X00306600Y00124386D01*
X00306465Y00124216D01*
X00306313Y00124081D01*
X00306177Y00123963D01*
X00306042Y00123878D01*
X00305924Y00123793D01*
X00305822Y00123743D01*
X00305755Y00123726D01*
X00305738Y00123709D01*
X00305636Y00123675D01*
X00305501Y00123624D01*
X00305230Y00123557D01*
X00304909Y00123489D01*
X00304604Y00123421D01*
X00304317Y00123354D01*
X00304181Y00123337D01*
X00304080Y00123303D01*
X00303995Y00123286D01*
X00303911D01*
X00303877Y00123269D01*
X00303860D01*
X00303555Y00123218D01*
X00303302Y00123168D01*
X00303116Y00123117D01*
X00302980Y00123083D01*
X00302879Y00123049D01*
X00302811Y00123015D01*
X00302777Y00122998D01*
X00302760D01*
X00302659Y00122931D01*
X00302591Y00122863D01*
X00302540Y00122795D01*
X00302507Y00122728D01*
X00302473Y00122626D01*
Y00122592D01*
Y00122576D01*
X00302490Y00122491D01*
X00302507Y00122406D01*
X00302591Y00122271D01*
X00302676Y00122203D01*
X00302693Y00122170D01*
X00302710D01*
X00302828Y00122102D01*
X00302946Y00122051D01*
X00303200Y00121983D01*
X00303319Y00121966D01*
X00303420Y00121950D01*
X00303505D01*
X00303674Y00121966D01*
X00303826Y00121983D01*
X00303961Y00122017D01*
X00304063Y00122051D01*
X00304147Y00122085D01*
X00304215Y00122102D01*
X00304249Y00122136D01*
X00304266D01*
X00304367Y00122220D01*
X00304452Y00122322D01*
X00304570Y00122559D01*
X00304621Y00122660D01*
X00304655Y00122728D01*
X00304689Y00122795D01*
Y00122812D01*
X00307243Y00122576D01*
X00307142Y00122237D01*
X00306989Y00121933D01*
X00306837Y00121662D01*
X00306668Y00121459D01*
X00306499Y00121290D01*
X00306364Y00121172D01*
X00306279Y00121087D01*
X00306245Y00121070D01*
X00306093Y00120985D01*
X00305907Y00120901D01*
X00305501Y00120765D01*
X00305078Y00120681D01*
X00304638Y00120613D01*
X00304435Y00120596D01*
X00304249Y00120579D01*
X00304080Y00120562D01*
X00303927D01*
X00303792Y00120546D01*
X00303623D01*
X00303166Y00120562D01*
X00302760Y00120596D01*
X00302405Y00120647D01*
X00302118Y00120715D01*
X00301881Y00120765D01*
X00301712Y00120816D01*
X00301610Y00120850D01*
X00301576Y00120867D01*
X00301306Y00121002D01*
X00301086Y00121138D01*
X00300883Y00121290D01*
X00300730Y00121425D01*
X00300612Y00121544D01*
X00300527Y00121645D01*
X00300477Y00121713D01*
X00300460Y00121730D01*
X00300341Y00121933D01*
X00300257Y00122136D01*
X00300189Y00122339D01*
X00300155Y00122508D01*
X00300121Y00122660D01*
X00300104Y00122762D01*
Y00122846D01*
Y00122863D01*
X00300121Y00123066D01*
X00300155Y00123269D01*
X00300206Y00123455D01*
X00300274Y00123607D01*
X00300341Y00123726D01*
X00300392Y00123827D01*
X00300426Y00123895D01*
X00300443Y00123912D01*
X00300578Y00124081D01*
X00300730Y00124233D01*
X00300900Y00124369D01*
X00301052Y00124470D01*
X00301187Y00124555D01*
X00301306Y00124606D01*
X00301373Y00124639D01*
X00301407Y00124656D01*
X00301661Y00124758D01*
X00301965Y00124842D01*
X00302287Y00124910D01*
X00302591Y00124961D01*
X00302879Y00125012D01*
X00302997Y00125028D01*
X00303116Y00125045D01*
X00303200D01*
X00303268Y00125062D01*
X00303319D01*
X00303606Y00125096D01*
X00303843Y00125147D01*
X00304046Y00125181D01*
X00304181Y00125215D01*
X00304300Y00125248D01*
X00304367Y00125282D01*
X00304401Y00125299D01*
X00304418D01*
X00304503Y00125350D01*
X00304553Y00125401D01*
X00304621Y00125536D01*
X00304655Y00125637D01*
Y00125654D01*
Y00125671D01*
X00304638Y00125756D01*
X00304621Y00125823D01*
X00304553Y00125942D01*
X00304503Y00126010D01*
X00304469Y00126043D01*
X00304384Y00126094D01*
X00304283Y00126145D01*
X00304063Y00126196D01*
X00303978Y00126213D01*
X00303674D01*
X00303521Y00126179D01*
X00303403Y00126145D01*
X00303285Y00126111D01*
X00303200Y00126077D01*
X00303132Y00126043D01*
X00303099Y00126026D01*
X00303082Y00126010D01*
X00302946Y00125874D01*
X00302845Y00125722D01*
X00302811Y00125654D01*
X00302777Y00125587D01*
X00302760Y00125553D01*
Y00125536D01*
X00300324Y00125773D01*
X00300426Y00126010D01*
X00300527Y00126213D01*
X00300646Y00126382D01*
X00300747Y00126534D01*
X00300832Y00126652D01*
X00300900Y00126737D01*
X00300950Y00126788D01*
X00300967Y00126805D01*
X00301119Y00126940D01*
X00301289Y00127058D01*
X00301441Y00127160D01*
X00301593Y00127244D01*
X00301728Y00127295D01*
X00301830Y00127346D01*
X00301898Y00127380D01*
X00301931D01*
X00302168Y00127447D01*
X00302439Y00127481D01*
X00302726Y00127515D01*
X00303014Y00127549D01*
X00303285D01*
X00303386Y00127566D01*
X00303691D01*
X00304097Y00127549D01*
D02*
G37*
G36*
X00268826Y00127549D02*
X00269198Y00127532D01*
X00269503Y00127481D01*
X00269756Y00127447D01*
X00269976Y00127397D01*
X00270129Y00127346D01*
X00270213Y00127329D01*
X00270247Y00127312D01*
X00270484Y00127211D01*
X00270704Y00127109D01*
X00270873Y00126991D01*
X00271025Y00126872D01*
X00271161Y00126771D01*
X00271245Y00126686D01*
X00271296Y00126618D01*
X00271313Y00126602D01*
X00271431Y00126416D01*
X00271533Y00126229D01*
X00271600Y00126026D01*
X00271634Y00125857D01*
X00271668Y00125688D01*
X00271685Y00125570D01*
Y00125485D01*
Y00125451D01*
X00271668Y00125231D01*
X00271634Y00125028D01*
X00271567Y00124859D01*
X00271499Y00124690D01*
X00271448Y00124572D01*
X00271380Y00124470D01*
X00271346Y00124403D01*
X00271330Y00124386D01*
X00271194Y00124216D01*
X00271042Y00124081D01*
X00270907Y00123963D01*
X00270771Y00123878D01*
X00270653Y00123793D01*
X00270551Y00123743D01*
X00270484Y00123726D01*
X00270467Y00123709D01*
X00270365Y00123675D01*
X00270230Y00123624D01*
X00269959Y00123557D01*
X00269638Y00123489D01*
X00269333Y00123421D01*
X00269046Y00123354D01*
X00268911Y00123337D01*
X00268809Y00123303D01*
X00268724Y00123286D01*
X00268640D01*
X00268606Y00123269D01*
X00268589D01*
X00268285Y00123218D01*
X00268031Y00123168D01*
X00267845Y00123117D01*
X00267710Y00123083D01*
X00267608Y00123049D01*
X00267540Y00123015D01*
X00267507Y00122998D01*
X00267490D01*
X00267388Y00122931D01*
X00267320Y00122863D01*
X00267270Y00122795D01*
X00267236Y00122728D01*
X00267202Y00122626D01*
Y00122592D01*
Y00122576D01*
X00267219Y00122491D01*
X00267236Y00122406D01*
X00267320Y00122271D01*
X00267405Y00122203D01*
X00267422Y00122170D01*
X00267439D01*
X00267557Y00122102D01*
X00267676Y00122051D01*
X00267929Y00121983D01*
X00268048Y00121966D01*
X00268149Y00121950D01*
X00268234D01*
X00268403Y00121966D01*
X00268555Y00121983D01*
X00268691Y00122017D01*
X00268792Y00122051D01*
X00268877Y00122085D01*
X00268944Y00122102D01*
X00268978Y00122136D01*
X00268995D01*
X00269097Y00122220D01*
X00269181Y00122322D01*
X00269300Y00122559D01*
X00269350Y00122660D01*
X00269384Y00122728D01*
X00269418Y00122795D01*
Y00122812D01*
X00271973Y00122576D01*
X00271871Y00122237D01*
X00271719Y00121933D01*
X00271567Y00121662D01*
X00271397Y00121459D01*
X00271228Y00121290D01*
X00271093Y00121171D01*
X00271008Y00121087D01*
X00270974Y00121070D01*
X00270822Y00120985D01*
X00270636Y00120901D01*
X00270230Y00120765D01*
X00269807Y00120681D01*
X00269367Y00120613D01*
X00269164Y00120596D01*
X00268978Y00120579D01*
X00268809Y00120562D01*
X00268657D01*
X00268521Y00120546D01*
X00268352D01*
X00267896Y00120562D01*
X00267490Y00120596D01*
X00267134Y00120647D01*
X00266847Y00120715D01*
X00266610Y00120765D01*
X00266441Y00120816D01*
X00266339Y00120850D01*
X00266306Y00120867D01*
X00266035Y00121002D01*
X00265815Y00121138D01*
X00265612Y00121290D01*
X00265460Y00121425D01*
X00265341Y00121544D01*
X00265257Y00121645D01*
X00265206Y00121713D01*
X00265189Y00121730D01*
X00265071Y00121933D01*
X00264986Y00122136D01*
X00264918Y00122339D01*
X00264884Y00122508D01*
X00264851Y00122660D01*
X00264834Y00122762D01*
Y00122846D01*
Y00122863D01*
X00264851Y00123066D01*
X00264884Y00123269D01*
X00264935Y00123455D01*
X00265003Y00123607D01*
X00265071Y00123726D01*
X00265121Y00123827D01*
X00265155Y00123895D01*
X00265172Y00123912D01*
X00265307Y00124081D01*
X00265460Y00124233D01*
X00265629Y00124369D01*
X00265781Y00124470D01*
X00265916Y00124555D01*
X00266035Y00124606D01*
X00266103Y00124639D01*
X00266136Y00124656D01*
X00266390Y00124758D01*
X00266695Y00124842D01*
X00267016Y00124910D01*
X00267320Y00124961D01*
X00267608Y00125012D01*
X00267726Y00125028D01*
X00267845Y00125045D01*
X00267929D01*
X00267997Y00125062D01*
X00268048D01*
X00268335Y00125096D01*
X00268572Y00125147D01*
X00268775Y00125181D01*
X00268911Y00125215D01*
X00269029Y00125248D01*
X00269097Y00125282D01*
X00269130Y00125299D01*
X00269147D01*
X00269232Y00125350D01*
X00269283Y00125400D01*
X00269350Y00125536D01*
X00269384Y00125637D01*
Y00125654D01*
Y00125671D01*
X00269367Y00125756D01*
X00269350Y00125823D01*
X00269283Y00125942D01*
X00269232Y00126010D01*
X00269198Y00126043D01*
X00269114Y00126094D01*
X00269012Y00126145D01*
X00268792Y00126196D01*
X00268708Y00126213D01*
X00268403D01*
X00268251Y00126179D01*
X00268132Y00126145D01*
X00268014Y00126111D01*
X00267929Y00126077D01*
X00267862Y00126043D01*
X00267828Y00126026D01*
X00267811Y00126010D01*
X00267676Y00125874D01*
X00267574Y00125722D01*
X00267540Y00125654D01*
X00267507Y00125587D01*
X00267490Y00125553D01*
Y00125536D01*
X00265054Y00125773D01*
X00265155Y00126010D01*
X00265257Y00126213D01*
X00265375Y00126382D01*
X00265477Y00126534D01*
X00265561Y00126652D01*
X00265629Y00126737D01*
X00265680Y00126788D01*
X00265697Y00126805D01*
X00265849Y00126940D01*
X00266018Y00127058D01*
X00266170Y00127160D01*
X00266322Y00127244D01*
X00266458Y00127295D01*
X00266559Y00127346D01*
X00266627Y00127380D01*
X00266661D01*
X00266898Y00127447D01*
X00267168Y00127481D01*
X00267456Y00127515D01*
X00267743Y00127549D01*
X00268014D01*
X00268116Y00127566D01*
X00268420D01*
X00268826Y00127549D01*
D02*
G37*
G36*
X00183889D02*
X00184261Y00127532D01*
X00184565Y00127481D01*
X00184819Y00127447D01*
X00185039Y00127397D01*
X00185191Y00127346D01*
X00185276Y00127329D01*
X00185310Y00127312D01*
X00185547Y00127211D01*
X00185767Y00127109D01*
X00185936Y00126991D01*
X00186088Y00126872D01*
X00186223Y00126771D01*
X00186308Y00126686D01*
X00186359Y00126618D01*
X00186376Y00126602D01*
X00186494Y00126416D01*
X00186595Y00126229D01*
X00186663Y00126026D01*
X00186697Y00125857D01*
X00186731Y00125688D01*
X00186748Y00125570D01*
Y00125485D01*
Y00125451D01*
X00186731Y00125231D01*
X00186697Y00125028D01*
X00186629Y00124859D01*
X00186562Y00124690D01*
X00186511Y00124572D01*
X00186443Y00124470D01*
X00186409Y00124403D01*
X00186392Y00124386D01*
X00186257Y00124216D01*
X00186105Y00124081D01*
X00185970Y00123963D01*
X00185834Y00123878D01*
X00185716Y00123793D01*
X00185614Y00123743D01*
X00185547Y00123726D01*
X00185530Y00123709D01*
X00185428Y00123675D01*
X00185293Y00123624D01*
X00185022Y00123557D01*
X00184701Y00123489D01*
X00184396Y00123421D01*
X00184109Y00123354D01*
X00183973Y00123337D01*
X00183872Y00123303D01*
X00183787Y00123286D01*
X00183703D01*
X00183669Y00123269D01*
X00183652D01*
X00183347Y00123218D01*
X00183094Y00123168D01*
X00182908Y00123117D01*
X00182772Y00123083D01*
X00182671Y00123049D01*
X00182603Y00123015D01*
X00182569Y00122998D01*
X00182552D01*
X00182451Y00122931D01*
X00182383Y00122863D01*
X00182332Y00122795D01*
X00182299Y00122728D01*
X00182265Y00122626D01*
Y00122592D01*
Y00122576D01*
X00182282Y00122491D01*
X00182299Y00122406D01*
X00182383Y00122271D01*
X00182468Y00122203D01*
X00182485Y00122170D01*
X00182502D01*
X00182620Y00122102D01*
X00182738Y00122051D01*
X00182992Y00121983D01*
X00183111Y00121966D01*
X00183212Y00121950D01*
X00183297D01*
X00183466Y00121966D01*
X00183618Y00121983D01*
X00183753Y00122017D01*
X00183855Y00122051D01*
X00183939Y00122085D01*
X00184007Y00122102D01*
X00184041Y00122136D01*
X00184058D01*
X00184159Y00122220D01*
X00184244Y00122322D01*
X00184362Y00122559D01*
X00184413Y00122660D01*
X00184447Y00122728D01*
X00184481Y00122795D01*
Y00122812D01*
X00187035Y00122576D01*
X00186934Y00122237D01*
X00186782Y00121933D01*
X00186629Y00121662D01*
X00186460Y00121459D01*
X00186291Y00121290D01*
X00186156Y00121171D01*
X00186071Y00121087D01*
X00186037Y00121070D01*
X00185885Y00120985D01*
X00185699Y00120901D01*
X00185293Y00120765D01*
X00184870Y00120681D01*
X00184430Y00120613D01*
X00184227Y00120596D01*
X00184041Y00120579D01*
X00183872Y00120562D01*
X00183720D01*
X00183584Y00120546D01*
X00183415D01*
X00182958Y00120562D01*
X00182552Y00120596D01*
X00182197Y00120647D01*
X00181910Y00120715D01*
X00181673Y00120765D01*
X00181504Y00120816D01*
X00181402Y00120850D01*
X00181368Y00120867D01*
X00181098Y00121002D01*
X00180878Y00121138D01*
X00180675Y00121290D01*
X00180522Y00121425D01*
X00180404Y00121544D01*
X00180319Y00121645D01*
X00180269Y00121713D01*
X00180252Y00121730D01*
X00180133Y00121933D01*
X00180049Y00122136D01*
X00179981Y00122339D01*
X00179947Y00122508D01*
X00179913Y00122660D01*
X00179897Y00122762D01*
Y00122846D01*
Y00122863D01*
X00179913Y00123066D01*
X00179947Y00123269D01*
X00179998Y00123455D01*
X00180066Y00123607D01*
X00180133Y00123726D01*
X00180184Y00123827D01*
X00180218Y00123895D01*
X00180235Y00123912D01*
X00180370Y00124081D01*
X00180522Y00124233D01*
X00180692Y00124369D01*
X00180844Y00124470D01*
X00180979Y00124555D01*
X00181098Y00124606D01*
X00181165Y00124639D01*
X00181199Y00124656D01*
X00181453Y00124758D01*
X00181757Y00124842D01*
X00182079Y00124910D01*
X00182383Y00124961D01*
X00182671Y00125012D01*
X00182789Y00125028D01*
X00182908Y00125045D01*
X00182992D01*
X00183060Y00125062D01*
X00183111D01*
X00183398Y00125096D01*
X00183635Y00125147D01*
X00183838Y00125181D01*
X00183973Y00125215D01*
X00184092Y00125248D01*
X00184159Y00125282D01*
X00184193Y00125299D01*
X00184210D01*
X00184295Y00125350D01*
X00184345Y00125400D01*
X00184413Y00125536D01*
X00184447Y00125637D01*
Y00125654D01*
Y00125671D01*
X00184430Y00125756D01*
X00184413Y00125823D01*
X00184345Y00125942D01*
X00184295Y00126010D01*
X00184261Y00126043D01*
X00184176Y00126094D01*
X00184075Y00126145D01*
X00183855Y00126196D01*
X00183770Y00126213D01*
X00183466D01*
X00183314Y00126179D01*
X00183195Y00126145D01*
X00183077Y00126111D01*
X00182992Y00126077D01*
X00182924Y00126043D01*
X00182891Y00126026D01*
X00182874Y00126010D01*
X00182738Y00125874D01*
X00182637Y00125722D01*
X00182603Y00125654D01*
X00182569Y00125587D01*
X00182552Y00125553D01*
Y00125536D01*
X00180116Y00125773D01*
X00180218Y00126010D01*
X00180319Y00126213D01*
X00180438Y00126382D01*
X00180539Y00126534D01*
X00180624Y00126652D01*
X00180692Y00126737D01*
X00180742Y00126788D01*
X00180759Y00126805D01*
X00180912Y00126940D01*
X00181081Y00127058D01*
X00181233Y00127160D01*
X00181385Y00127244D01*
X00181521Y00127295D01*
X00181622Y00127346D01*
X00181690Y00127380D01*
X00181723D01*
X00181960Y00127447D01*
X00182231Y00127481D01*
X00182519Y00127515D01*
X00182806Y00127549D01*
X00183077D01*
X00183178Y00127566D01*
X00183483D01*
X00183889Y00127549D01*
D02*
G37*
G36*
X00161068D02*
X00161373Y00127515D01*
X00161661Y00127481D01*
X00161931Y00127414D01*
X00162185Y00127329D01*
X00162422Y00127244D01*
X00162625Y00127160D01*
X00162811Y00127075D01*
X00162980Y00126974D01*
X00163132Y00126889D01*
X00163268Y00126805D01*
X00163369Y00126720D01*
X00163454Y00126652D01*
X00163505Y00126618D01*
X00163538Y00126585D01*
X00163555Y00126568D01*
X00163741Y00126382D01*
X00163894Y00126179D01*
X00164029Y00125959D01*
X00164147Y00125756D01*
X00164249Y00125536D01*
X00164333Y00125333D01*
X00164452Y00124927D01*
X00164503Y00124741D01*
X00164536Y00124572D01*
X00164553Y00124419D01*
X00164570Y00124284D01*
X00164587Y00124183D01*
Y00124098D01*
Y00124047D01*
Y00124030D01*
X00164570Y00123726D01*
X00164536Y00123438D01*
X00164469Y00123168D01*
X00164401Y00122914D01*
X00164300Y00122677D01*
X00164198Y00122457D01*
X00164097Y00122254D01*
X00163978Y00122068D01*
X00163860Y00121916D01*
X00163758Y00121763D01*
X00163657Y00121645D01*
X00163555Y00121544D01*
X00163488Y00121459D01*
X00163420Y00121408D01*
X00163386Y00121374D01*
X00163369Y00121357D01*
X00163183Y00121222D01*
X00162963Y00121087D01*
X00162540Y00120884D01*
X00162100Y00120749D01*
X00161677Y00120647D01*
X00161491Y00120613D01*
X00161305Y00120596D01*
X00161153Y00120562D01*
X00161018D01*
X00160899Y00120546D01*
X00160747D01*
X00160409Y00120562D01*
X00160104Y00120596D01*
X00159800Y00120630D01*
X00159529Y00120698D01*
X00159275Y00120765D01*
X00159039Y00120850D01*
X00158819Y00120951D01*
X00158633Y00121036D01*
X00158463Y00121121D01*
X00158311Y00121222D01*
X00158176Y00121307D01*
X00158074Y00121374D01*
X00157990Y00121442D01*
X00157939Y00121493D01*
X00157905Y00121510D01*
X00157888Y00121527D01*
X00157702Y00121713D01*
X00157550Y00121916D01*
X00157415Y00122136D01*
X00157296Y00122339D01*
X00157195Y00122559D01*
X00157110Y00122762D01*
X00156992Y00123168D01*
X00156941Y00123354D01*
X00156907Y00123523D01*
X00156890Y00123675D01*
X00156873Y00123810D01*
X00156856Y00123912D01*
Y00123996D01*
Y00124047D01*
Y00124064D01*
X00156873Y00124318D01*
X00156890Y00124555D01*
X00156992Y00125012D01*
X00157127Y00125400D01*
X00157279Y00125739D01*
X00157364Y00125891D01*
X00157431Y00126010D01*
X00157499Y00126128D01*
X00157567Y00126213D01*
X00157618Y00126280D01*
X00157668Y00126348D01*
X00157685Y00126365D01*
X00157702Y00126382D01*
X00157905Y00126585D01*
X00158125Y00126771D01*
X00158362Y00126923D01*
X00158616Y00127075D01*
X00158869Y00127177D01*
X00159123Y00127278D01*
X00159377Y00127363D01*
X00159614Y00127414D01*
X00159834Y00127464D01*
X00160054Y00127498D01*
X00160257Y00127532D01*
X00160409Y00127549D01*
X00160561Y00127566D01*
X00160747D01*
X00161068Y00127549D01*
D02*
G37*
G36*
X00132277Y00127549D02*
X00132581Y00127515D01*
X00132869Y00127481D01*
X00133140Y00127414D01*
X00133393Y00127329D01*
X00133630Y00127244D01*
X00133833Y00127160D01*
X00134019Y00127075D01*
X00134188Y00126974D01*
X00134341Y00126889D01*
X00134476Y00126805D01*
X00134578Y00126720D01*
X00134662Y00126652D01*
X00134713Y00126618D01*
X00134747Y00126585D01*
X00134763Y00126568D01*
X00134950Y00126382D01*
X00135102Y00126179D01*
X00135237Y00125959D01*
X00135356Y00125756D01*
X00135457Y00125536D01*
X00135542Y00125333D01*
X00135660Y00124927D01*
X00135711Y00124741D01*
X00135745Y00124572D01*
X00135762Y00124419D01*
X00135779Y00124284D01*
X00135795Y00124183D01*
Y00124098D01*
Y00124047D01*
Y00124030D01*
X00135779Y00123726D01*
X00135745Y00123438D01*
X00135677Y00123167D01*
X00135609Y00122914D01*
X00135508Y00122677D01*
X00135406Y00122457D01*
X00135305Y00122254D01*
X00135186Y00122068D01*
X00135068Y00121916D01*
X00134966Y00121763D01*
X00134865Y00121645D01*
X00134763Y00121544D01*
X00134696Y00121459D01*
X00134628Y00121408D01*
X00134594Y00121374D01*
X00134578Y00121357D01*
X00134391Y00121222D01*
X00134171Y00121087D01*
X00133749Y00120884D01*
X00133309Y00120749D01*
X00132886Y00120647D01*
X00132700Y00120613D01*
X00132514Y00120596D01*
X00132361Y00120562D01*
X00132226D01*
X00132108Y00120546D01*
X00131955D01*
X00131617Y00120562D01*
X00131313Y00120596D01*
X00131008Y00120630D01*
X00130737Y00120698D01*
X00130484Y00120765D01*
X00130247Y00120850D01*
X00130027Y00120951D01*
X00129841Y00121036D01*
X00129672Y00121121D01*
X00129520Y00121222D01*
X00129384Y00121307D01*
X00129283Y00121374D01*
X00129198Y00121442D01*
X00129147Y00121493D01*
X00129114Y00121510D01*
X00129096Y00121527D01*
X00128911Y00121713D01*
X00128758Y00121916D01*
X00128623Y00122136D01*
X00128504Y00122339D01*
X00128403Y00122559D01*
X00128318Y00122762D01*
X00128200Y00123167D01*
X00128149Y00123354D01*
X00128115Y00123523D01*
X00128098Y00123675D01*
X00128082Y00123810D01*
X00128065Y00123912D01*
Y00123996D01*
Y00124047D01*
Y00124064D01*
X00128082Y00124318D01*
X00128098Y00124555D01*
X00128200Y00125011D01*
X00128335Y00125400D01*
X00128488Y00125739D01*
X00128572Y00125891D01*
X00128640Y00126010D01*
X00128708Y00126128D01*
X00128775Y00126213D01*
X00128826Y00126280D01*
X00128877Y00126348D01*
X00128893Y00126365D01*
X00128911Y00126382D01*
X00129114Y00126585D01*
X00129333Y00126771D01*
X00129570Y00126923D01*
X00129824Y00127075D01*
X00130078Y00127177D01*
X00130331Y00127278D01*
X00130585Y00127363D01*
X00130822Y00127414D01*
X00131042Y00127464D01*
X00131262Y00127498D01*
X00131465Y00127532D01*
X00131617Y00127549D01*
X00131769Y00127566D01*
X00131955D01*
X00132277Y00127549D01*
D02*
G37*
G36*
X00171895Y00116086D02*
X00172149Y00116069D01*
X00172386Y00116019D01*
X00172605Y00115968D01*
X00172808Y00115917D01*
X00172995Y00115866D01*
X00173147Y00115816D01*
X00173299Y00115748D01*
X00173434Y00115697D01*
X00173536Y00115646D01*
X00173620Y00115596D01*
X00173705Y00115545D01*
X00173756Y00115528D01*
X00173773Y00115494D01*
X00173790D01*
X00174094Y00115240D01*
X00174331Y00114953D01*
X00174534Y00114649D01*
X00174686Y00114361D01*
X00174805Y00114107D01*
X00174839Y00113989D01*
X00174889Y00113887D01*
X00174906Y00113820D01*
X00174923Y00113752D01*
X00174940Y00113718D01*
Y00113701D01*
X00172504Y00113278D01*
X00172453Y00113515D01*
X00172402Y00113718D01*
X00172335Y00113870D01*
X00172284Y00114006D01*
X00172216Y00114107D01*
X00172183Y00114175D01*
X00172149Y00114209D01*
X00172132Y00114226D01*
X00172013Y00114327D01*
X00171895Y00114395D01*
X00171777Y00114445D01*
X00171658Y00114479D01*
X00171540Y00114496D01*
X00171455Y00114513D01*
X00171388D01*
X00171218Y00114496D01*
X00171083Y00114479D01*
X00170965Y00114429D01*
X00170863Y00114395D01*
X00170779Y00114344D01*
X00170728Y00114293D01*
X00170694Y00114276D01*
X00170677Y00114259D01*
X00170592Y00114158D01*
X00170525Y00114039D01*
X00170491Y00113938D01*
X00170457Y00113820D01*
X00170440Y00113735D01*
X00170423Y00113650D01*
Y00113600D01*
Y00113583D01*
X00170440Y00113431D01*
X00170474Y00113278D01*
X00170542Y00113143D01*
X00170592Y00113041D01*
X00170660Y00112940D01*
X00170728Y00112872D01*
X00170762Y00112838D01*
X00170779Y00112822D01*
X00170914Y00112720D01*
X00171049Y00112652D01*
X00171201Y00112585D01*
X00171320Y00112551D01*
X00171438Y00112534D01*
X00171540Y00112517D01*
X00171726D01*
X00171844Y00112534D01*
X00171963D01*
X00172081Y00110707D01*
X00171895Y00110758D01*
X00171726Y00110792D01*
X00171590Y00110825D01*
X00171472Y00110842D01*
X00171371Y00110859D01*
X00171252D01*
X00171049Y00110842D01*
X00170863Y00110808D01*
X00170711Y00110741D01*
X00170576Y00110690D01*
X00170474Y00110622D01*
X00170406Y00110555D01*
X00170356Y00110521D01*
X00170339Y00110504D01*
X00170220Y00110352D01*
X00170136Y00110199D01*
X00170085Y00110030D01*
X00170034Y00109878D01*
X00170017Y00109726D01*
X00170000Y00109607D01*
Y00109540D01*
Y00109506D01*
X00170017Y00109286D01*
X00170051Y00109083D01*
X00170119Y00108897D01*
X00170170Y00108762D01*
X00170237Y00108643D01*
X00170305Y00108559D01*
X00170339Y00108508D01*
X00170356Y00108491D01*
X00170491Y00108372D01*
X00170626Y00108271D01*
X00170779Y00108203D01*
X00170914Y00108169D01*
X00171032Y00108136D01*
X00171134Y00108119D01*
X00171218D01*
X00171404Y00108136D01*
X00171557Y00108169D01*
X00171709Y00108203D01*
X00171827Y00108271D01*
X00171912Y00108322D01*
X00171996Y00108356D01*
X00172030Y00108389D01*
X00172047Y00108406D01*
X00172149Y00108542D01*
X00172250Y00108711D01*
X00172386Y00109066D01*
X00172436Y00109235D01*
X00172470Y00109370D01*
X00172504Y00109455D01*
Y00109489D01*
X00175075Y00109134D01*
X00174974Y00108829D01*
X00174855Y00108542D01*
X00174754Y00108305D01*
X00174636Y00108085D01*
X00174534Y00107916D01*
X00174449Y00107797D01*
X00174382Y00107730D01*
X00174365Y00107696D01*
X00174179Y00107493D01*
X00173976Y00107324D01*
X00173773Y00107171D01*
X00173587Y00107053D01*
X00173417Y00106952D01*
X00173282Y00106884D01*
X00173198Y00106850D01*
X00173164Y00106833D01*
X00172859Y00106732D01*
X00172538Y00106664D01*
X00172199Y00106613D01*
X00171878Y00106579D01*
X00171607Y00106562D01*
X00171472D01*
X00171371Y00106545D01*
X00171168D01*
X00170711Y00106562D01*
X00170288Y00106613D01*
X00169933Y00106664D01*
X00169628Y00106749D01*
X00169391Y00106816D01*
X00169290Y00106850D01*
X00169222Y00106867D01*
X00169155Y00106901D01*
X00169104Y00106918D01*
X00169087Y00106935D01*
X00169070D01*
X00168782Y00107104D01*
X00168546Y00107290D01*
X00168343Y00107476D01*
X00168157Y00107662D01*
X00168021Y00107831D01*
X00167937Y00107966D01*
X00167869Y00108051D01*
X00167852Y00108085D01*
X00167700Y00108372D01*
X00167598Y00108643D01*
X00167514Y00108897D01*
X00167463Y00109151D01*
X00167429Y00109354D01*
X00167412Y00109506D01*
Y00109607D01*
Y00109624D01*
Y00109641D01*
X00167429Y00109878D01*
X00167446Y00110081D01*
X00167497Y00110267D01*
X00167547Y00110436D01*
X00167598Y00110555D01*
X00167632Y00110656D01*
X00167666Y00110724D01*
X00167683Y00110741D01*
X00167784Y00110910D01*
X00167903Y00111062D01*
X00168021Y00111198D01*
X00168140Y00111299D01*
X00168241Y00111384D01*
X00168326Y00111451D01*
X00168376Y00111485D01*
X00168393Y00111502D01*
X00168512Y00111570D01*
X00168647Y00111620D01*
X00168901Y00111722D01*
X00169019Y00111756D01*
X00169121Y00111790D01*
X00169188Y00111806D01*
X00169205D01*
X00168969Y00111942D01*
X00168766Y00112094D01*
X00168596Y00112246D01*
X00168461Y00112365D01*
X00168360Y00112483D01*
X00168292Y00112568D01*
X00168241Y00112635D01*
X00168224Y00112652D01*
X00168106Y00112838D01*
X00168021Y00113025D01*
X00167970Y00113211D01*
X00167920Y00113380D01*
X00167903Y00113515D01*
X00167886Y00113633D01*
Y00113701D01*
Y00113735D01*
X00167903Y00113921D01*
X00167920Y00114107D01*
X00168004Y00114445D01*
X00168140Y00114733D01*
X00168292Y00114970D01*
X00168444Y00115173D01*
X00168563Y00115325D01*
X00168664Y00115410D01*
X00168681Y00115443D01*
X00168698D01*
X00168867Y00115562D01*
X00169036Y00115663D01*
X00169459Y00115833D01*
X00169882Y00115951D01*
X00170322Y00116036D01*
X00170525Y00116069D01*
X00170711Y00116086D01*
X00170880Y00116103D01*
X00171032D01*
X00171168Y00116120D01*
X00171337D01*
X00171895Y00116086D01*
D02*
G37*
G36*
X00304249Y00116103D02*
X00304655Y00116069D01*
X00305010Y00116019D01*
X00305298Y00115951D01*
X00305535Y00115883D01*
X00305704Y00115833D01*
X00305805Y00115799D01*
X00305822Y00115782D01*
X00305839D01*
X00306110Y00115647D01*
X00306330Y00115494D01*
X00306533Y00115342D01*
X00306685Y00115190D01*
X00306820Y00115055D01*
X00306922Y00114953D01*
X00306973Y00114885D01*
X00306989Y00114852D01*
X00307125Y00114598D01*
X00307243Y00114327D01*
X00307328Y00114056D01*
X00307412Y00113786D01*
X00307463Y00113532D01*
X00307497Y00113346D01*
X00307514Y00113261D01*
X00307531Y00113211D01*
Y00113177D01*
Y00113160D01*
X00304942Y00112957D01*
X00304892Y00113228D01*
X00304841Y00113447D01*
X00304773Y00113633D01*
X00304706Y00113786D01*
X00304638Y00113904D01*
X00304587Y00113989D01*
X00304553Y00114023D01*
X00304536Y00114039D01*
X00304401Y00114141D01*
X00304266Y00114226D01*
X00304130Y00114276D01*
X00304012Y00114327D01*
X00303894Y00114344D01*
X00303809Y00114361D01*
X00303724D01*
X00303555Y00114344D01*
X00303403Y00114310D01*
X00303268Y00114259D01*
X00303149Y00114209D01*
X00303048Y00114158D01*
X00302980Y00114107D01*
X00302946Y00114073D01*
X00302929Y00114056D01*
X00302828Y00113938D01*
X00302743Y00113820D01*
X00302693Y00113701D01*
X00302642Y00113583D01*
X00302625Y00113481D01*
X00302608Y00113397D01*
Y00113346D01*
Y00113329D01*
X00302625Y00113177D01*
X00302659Y00113041D01*
X00302710Y00112889D01*
X00302760Y00112771D01*
X00302828Y00112652D01*
X00302879Y00112568D01*
X00302913Y00112517D01*
X00302929Y00112500D01*
X00302997Y00112416D01*
X00303082Y00112314D01*
X00303285Y00112111D01*
X00303538Y00111908D01*
X00303775Y00111688D01*
X00304012Y00111502D01*
X00304198Y00111350D01*
X00304283Y00111299D01*
X00304333Y00111248D01*
X00304367Y00111231D01*
X00304384Y00111215D01*
X00304723Y00110961D01*
X00305027Y00110724D01*
X00305315Y00110487D01*
X00305568Y00110267D01*
X00305805Y00110047D01*
X00306008Y00109861D01*
X00306194Y00109675D01*
X00306347Y00109506D01*
X00306482Y00109354D01*
X00306617Y00109218D01*
X00306702Y00109100D01*
X00306786Y00109015D01*
X00306854Y00108931D01*
X00306888Y00108880D01*
X00306905Y00108846D01*
X00306922Y00108829D01*
X00307142Y00108457D01*
X00307328Y00108068D01*
X00307463Y00107713D01*
X00307565Y00107391D01*
X00307649Y00107104D01*
X00307666Y00106985D01*
X00307683Y00106884D01*
X00307700Y00106816D01*
X00307717Y00106749D01*
Y00106715D01*
Y00106698D01*
X00299969D01*
Y00108795D01*
X00304012D01*
X00303758Y00109015D01*
X00303572Y00109201D01*
X00303505Y00109252D01*
X00303454Y00109303D01*
X00303420Y00109320D01*
X00303403Y00109337D01*
X00303285Y00109438D01*
X00303132Y00109557D01*
X00302946Y00109675D01*
X00302777Y00109794D01*
X00302608Y00109912D01*
X00302473Y00110013D01*
X00302388Y00110081D01*
X00302354Y00110098D01*
X00302118Y00110267D01*
X00301898Y00110436D01*
X00301695Y00110605D01*
X00301509Y00110758D01*
X00301356Y00110910D01*
X00301204Y00111045D01*
X00300950Y00111299D01*
X00300764Y00111502D01*
X00300646Y00111654D01*
X00300561Y00111756D01*
X00300544Y00111790D01*
X00300375Y00112077D01*
X00300257Y00112365D01*
X00300155Y00112652D01*
X00300104Y00112889D01*
X00300071Y00113109D01*
X00300037Y00113278D01*
Y00113329D01*
Y00113380D01*
Y00113397D01*
Y00113414D01*
X00300054Y00113701D01*
X00300104Y00113972D01*
X00300172Y00114226D01*
X00300257Y00114429D01*
X00300341Y00114615D01*
X00300409Y00114733D01*
X00300460Y00114818D01*
X00300477Y00114852D01*
X00300646Y00115071D01*
X00300849Y00115274D01*
X00301052Y00115427D01*
X00301238Y00115562D01*
X00301407Y00115663D01*
X00301559Y00115748D01*
X00301644Y00115782D01*
X00301661Y00115799D01*
X00301678D01*
X00301982Y00115900D01*
X00302320Y00115985D01*
X00302676Y00116036D01*
X00303014Y00116086D01*
X00303319Y00116103D01*
X00303454D01*
X00303572Y00116120D01*
X00303792D01*
X00304249Y00116103D01*
D02*
G37*
G36*
X00262465Y00116103D02*
X00262871Y00116069D01*
X00263227Y00116019D01*
X00263514Y00115951D01*
X00263751Y00115883D01*
X00263920Y00115833D01*
X00264022Y00115799D01*
X00264039Y00115782D01*
X00264056D01*
X00264326Y00115646D01*
X00264546Y00115494D01*
X00264749Y00115342D01*
X00264901Y00115190D01*
X00265037Y00115055D01*
X00265138Y00114953D01*
X00265189Y00114885D01*
X00265206Y00114852D01*
X00265341Y00114598D01*
X00265460Y00114327D01*
X00265544Y00114056D01*
X00265629Y00113786D01*
X00265680Y00113532D01*
X00265713Y00113346D01*
X00265730Y00113261D01*
X00265747Y00113211D01*
Y00113177D01*
Y00113160D01*
X00263159Y00112957D01*
X00263108Y00113228D01*
X00263057Y00113447D01*
X00262990Y00113633D01*
X00262922Y00113786D01*
X00262854Y00113904D01*
X00262804Y00113989D01*
X00262770Y00114023D01*
X00262753Y00114039D01*
X00262618Y00114141D01*
X00262482Y00114226D01*
X00262347Y00114276D01*
X00262229Y00114327D01*
X00262110Y00114344D01*
X00262026Y00114361D01*
X00261941D01*
X00261772Y00114344D01*
X00261620Y00114310D01*
X00261484Y00114259D01*
X00261366Y00114209D01*
X00261264Y00114158D01*
X00261197Y00114107D01*
X00261163Y00114073D01*
X00261146Y00114056D01*
X00261045Y00113938D01*
X00260960Y00113820D01*
X00260909Y00113701D01*
X00260858Y00113583D01*
X00260842Y00113481D01*
X00260825Y00113397D01*
Y00113346D01*
Y00113329D01*
X00260842Y00113177D01*
X00260875Y00113041D01*
X00260926Y00112889D01*
X00260977Y00112771D01*
X00261045Y00112652D01*
X00261095Y00112568D01*
X00261129Y00112517D01*
X00261146Y00112500D01*
X00261214Y00112416D01*
X00261298Y00112314D01*
X00261501Y00112111D01*
X00261755Y00111908D01*
X00261992Y00111688D01*
X00262229Y00111502D01*
X00262415Y00111350D01*
X00262499Y00111299D01*
X00262550Y00111248D01*
X00262584Y00111231D01*
X00262601Y00111214D01*
X00262939Y00110961D01*
X00263244Y00110724D01*
X00263531Y00110487D01*
X00263785Y00110267D01*
X00264022Y00110047D01*
X00264225Y00109861D01*
X00264411Y00109675D01*
X00264563Y00109506D01*
X00264698Y00109354D01*
X00264834Y00109218D01*
X00264918Y00109100D01*
X00265003Y00109015D01*
X00265071Y00108931D01*
X00265104Y00108880D01*
X00265121Y00108846D01*
X00265138Y00108829D01*
X00265358Y00108457D01*
X00265544Y00108068D01*
X00265680Y00107713D01*
X00265781Y00107391D01*
X00265866Y00107104D01*
X00265883Y00106985D01*
X00265900Y00106884D01*
X00265916Y00106816D01*
X00265933Y00106749D01*
Y00106715D01*
Y00106698D01*
X00258186D01*
Y00108795D01*
X00262229D01*
X00261975Y00109015D01*
X00261789Y00109201D01*
X00261721Y00109252D01*
X00261670Y00109303D01*
X00261637Y00109320D01*
X00261620Y00109337D01*
X00261501Y00109438D01*
X00261349Y00109557D01*
X00261163Y00109675D01*
X00260994Y00109794D01*
X00260825Y00109912D01*
X00260689Y00110013D01*
X00260605Y00110081D01*
X00260571Y00110098D01*
X00260334Y00110267D01*
X00260114Y00110436D01*
X00259911Y00110605D01*
X00259725Y00110758D01*
X00259573Y00110910D01*
X00259421Y00111045D01*
X00259167Y00111299D01*
X00258981Y00111502D01*
X00258862Y00111654D01*
X00258778Y00111756D01*
X00258761Y00111790D01*
X00258592Y00112077D01*
X00258473Y00112365D01*
X00258372Y00112652D01*
X00258321Y00112889D01*
X00258287Y00113109D01*
X00258253Y00113278D01*
Y00113329D01*
Y00113380D01*
Y00113397D01*
Y00113414D01*
X00258270Y00113701D01*
X00258321Y00113972D01*
X00258389Y00114226D01*
X00258473Y00114429D01*
X00258558Y00114615D01*
X00258625Y00114733D01*
X00258676Y00114818D01*
X00258693Y00114852D01*
X00258862Y00115071D01*
X00259065Y00115274D01*
X00259268Y00115427D01*
X00259454Y00115562D01*
X00259624Y00115663D01*
X00259776Y00115748D01*
X00259860Y00115782D01*
X00259877Y00115799D01*
X00259894D01*
X00260199Y00115900D01*
X00260537Y00115985D01*
X00260892Y00116036D01*
X00261231Y00116086D01*
X00261535Y00116103D01*
X00261670D01*
X00261789Y00116120D01*
X00262009D01*
X00262465Y00116103D01*
D02*
G37*
G36*
X00245177D02*
X00245583Y00116069D01*
X00245938Y00116019D01*
X00246226Y00115951D01*
X00246462Y00115883D01*
X00246632Y00115833D01*
X00246733Y00115799D01*
X00246750Y00115782D01*
X00246767D01*
X00247038Y00115646D01*
X00247258Y00115494D01*
X00247461Y00115342D01*
X00247613Y00115190D01*
X00247748Y00115055D01*
X00247850Y00114953D01*
X00247900Y00114885D01*
X00247917Y00114852D01*
X00248053Y00114598D01*
X00248171Y00114327D01*
X00248256Y00114056D01*
X00248340Y00113786D01*
X00248391Y00113532D01*
X00248425Y00113346D01*
X00248442Y00113261D01*
X00248459Y00113211D01*
Y00113177D01*
Y00113160D01*
X00245870Y00112957D01*
X00245820Y00113228D01*
X00245769Y00113447D01*
X00245701Y00113633D01*
X00245634Y00113786D01*
X00245566Y00113904D01*
X00245515Y00113989D01*
X00245481Y00114023D01*
X00245464Y00114039D01*
X00245329Y00114141D01*
X00245194Y00114226D01*
X00245058Y00114276D01*
X00244940Y00114327D01*
X00244822Y00114344D01*
X00244737Y00114361D01*
X00244653D01*
X00244483Y00114344D01*
X00244331Y00114310D01*
X00244196Y00114259D01*
X00244077Y00114209D01*
X00243976Y00114158D01*
X00243908Y00114107D01*
X00243874Y00114073D01*
X00243857Y00114056D01*
X00243756Y00113938D01*
X00243671Y00113820D01*
X00243621Y00113701D01*
X00243570Y00113583D01*
X00243553Y00113481D01*
X00243536Y00113397D01*
Y00113346D01*
Y00113329D01*
X00243553Y00113177D01*
X00243587Y00113041D01*
X00243638Y00112889D01*
X00243688Y00112771D01*
X00243756Y00112652D01*
X00243807Y00112568D01*
X00243841Y00112517D01*
X00243857Y00112500D01*
X00243925Y00112416D01*
X00244010Y00112314D01*
X00244213Y00112111D01*
X00244466Y00111908D01*
X00244703Y00111688D01*
X00244940Y00111502D01*
X00245126Y00111350D01*
X00245211Y00111299D01*
X00245261Y00111248D01*
X00245295Y00111231D01*
X00245312Y00111214D01*
X00245651Y00110961D01*
X00245955Y00110724D01*
X00246243Y00110487D01*
X00246496Y00110267D01*
X00246733Y00110047D01*
X00246936Y00109861D01*
X00247122Y00109675D01*
X00247274Y00109506D01*
X00247410Y00109354D01*
X00247545Y00109218D01*
X00247630Y00109100D01*
X00247714Y00109015D01*
X00247782Y00108931D01*
X00247816Y00108880D01*
X00247833Y00108846D01*
X00247850Y00108829D01*
X00248070Y00108457D01*
X00248256Y00108068D01*
X00248391Y00107713D01*
X00248493Y00107391D01*
X00248577Y00107104D01*
X00248594Y00106985D01*
X00248611Y00106884D01*
X00248628Y00106816D01*
X00248645Y00106749D01*
Y00106715D01*
Y00106698D01*
X00240897D01*
Y00108795D01*
X00244940D01*
X00244686Y00109015D01*
X00244500Y00109201D01*
X00244433Y00109252D01*
X00244382Y00109303D01*
X00244348Y00109320D01*
X00244331Y00109337D01*
X00244213Y00109438D01*
X00244060Y00109557D01*
X00243874Y00109675D01*
X00243705Y00109794D01*
X00243536Y00109912D01*
X00243401Y00110013D01*
X00243316Y00110081D01*
X00243282Y00110098D01*
X00243045Y00110267D01*
X00242826Y00110436D01*
X00242623Y00110605D01*
X00242436Y00110758D01*
X00242284Y00110910D01*
X00242132Y00111045D01*
X00241878Y00111299D01*
X00241692Y00111502D01*
X00241574Y00111654D01*
X00241489Y00111756D01*
X00241472Y00111790D01*
X00241303Y00112077D01*
X00241185Y00112365D01*
X00241083Y00112652D01*
X00241032Y00112889D01*
X00240998Y00113109D01*
X00240965Y00113278D01*
Y00113329D01*
Y00113380D01*
Y00113397D01*
Y00113414D01*
X00240982Y00113701D01*
X00241032Y00113972D01*
X00241100Y00114226D01*
X00241185Y00114429D01*
X00241269Y00114615D01*
X00241337Y00114733D01*
X00241388Y00114818D01*
X00241404Y00114852D01*
X00241574Y00115071D01*
X00241777Y00115274D01*
X00241980Y00115427D01*
X00242166Y00115562D01*
X00242335Y00115663D01*
X00242487Y00115748D01*
X00242572Y00115782D01*
X00242589Y00115799D01*
X00242606D01*
X00242910Y00115900D01*
X00243248Y00115985D01*
X00243604Y00116036D01*
X00243942Y00116086D01*
X00244247Y00116103D01*
X00244382D01*
X00244500Y00116120D01*
X00244720D01*
X00245177Y00116103D01*
D02*
G37*
G36*
X00201972D02*
X00202378Y00116069D01*
X00202734Y00116019D01*
X00203021Y00115951D01*
X00203258Y00115883D01*
X00203427Y00115833D01*
X00203529Y00115799D01*
X00203546Y00115782D01*
X00203563D01*
X00203833Y00115646D01*
X00204053Y00115494D01*
X00204256Y00115342D01*
X00204408Y00115190D01*
X00204544Y00115055D01*
X00204645Y00114953D01*
X00204696Y00114885D01*
X00204713Y00114852D01*
X00204848Y00114598D01*
X00204967Y00114327D01*
X00205051Y00114056D01*
X00205136Y00113786D01*
X00205187Y00113532D01*
X00205220Y00113346D01*
X00205237Y00113261D01*
X00205254Y00113211D01*
Y00113177D01*
Y00113160D01*
X00202666Y00112957D01*
X00202615Y00113228D01*
X00202565Y00113447D01*
X00202497Y00113633D01*
X00202429Y00113786D01*
X00202362Y00113904D01*
X00202311Y00113989D01*
X00202277Y00114023D01*
X00202260Y00114039D01*
X00202125Y00114141D01*
X00201989Y00114226D01*
X00201854Y00114276D01*
X00201736Y00114327D01*
X00201617Y00114344D01*
X00201533Y00114361D01*
X00201448D01*
X00201279Y00114344D01*
X00201127Y00114310D01*
X00200991Y00114259D01*
X00200873Y00114209D01*
X00200771Y00114158D01*
X00200704Y00114107D01*
X00200670Y00114073D01*
X00200653Y00114056D01*
X00200551Y00113938D01*
X00200467Y00113820D01*
X00200416Y00113701D01*
X00200365Y00113583D01*
X00200348Y00113481D01*
X00200331Y00113397D01*
Y00113346D01*
Y00113329D01*
X00200348Y00113177D01*
X00200382Y00113041D01*
X00200433Y00112889D01*
X00200484Y00112771D01*
X00200551Y00112652D01*
X00200602Y00112568D01*
X00200636Y00112517D01*
X00200653Y00112500D01*
X00200721Y00112416D01*
X00200805Y00112314D01*
X00201008Y00112111D01*
X00201262Y00111908D01*
X00201499Y00111688D01*
X00201736Y00111502D01*
X00201922Y00111350D01*
X00202006Y00111299D01*
X00202057Y00111248D01*
X00202091Y00111231D01*
X00202108Y00111214D01*
X00202446Y00110961D01*
X00202750Y00110724D01*
X00203038Y00110487D01*
X00203292Y00110267D01*
X00203529Y00110047D01*
X00203732Y00109861D01*
X00203918Y00109675D01*
X00204070Y00109506D01*
X00204205Y00109354D01*
X00204341Y00109218D01*
X00204425Y00109100D01*
X00204510Y00109015D01*
X00204578Y00108931D01*
X00204611Y00108880D01*
X00204628Y00108846D01*
X00204645Y00108829D01*
X00204865Y00108457D01*
X00205051Y00108068D01*
X00205187Y00107713D01*
X00205288Y00107391D01*
X00205373Y00107104D01*
X00205389Y00106985D01*
X00205406Y00106884D01*
X00205423Y00106816D01*
X00205440Y00106749D01*
Y00106715D01*
Y00106698D01*
X00197693D01*
Y00108795D01*
X00201736D01*
X00201482Y00109015D01*
X00201296Y00109201D01*
X00201228Y00109252D01*
X00201177Y00109303D01*
X00201143Y00109320D01*
X00201127Y00109337D01*
X00201008Y00109438D01*
X00200856Y00109557D01*
X00200670Y00109675D01*
X00200501Y00109794D01*
X00200331Y00109912D01*
X00200196Y00110013D01*
X00200112Y00110081D01*
X00200078Y00110098D01*
X00199841Y00110267D01*
X00199621Y00110436D01*
X00199418Y00110605D01*
X00199232Y00110758D01*
X00199080Y00110910D01*
X00198927Y00111045D01*
X00198674Y00111299D01*
X00198488Y00111502D01*
X00198369Y00111654D01*
X00198285Y00111756D01*
X00198268Y00111790D01*
X00198099Y00112077D01*
X00197980Y00112365D01*
X00197879Y00112652D01*
X00197828Y00112889D01*
X00197794Y00113109D01*
X00197760Y00113278D01*
Y00113329D01*
Y00113380D01*
Y00113397D01*
Y00113414D01*
X00197777Y00113701D01*
X00197828Y00113972D01*
X00197896Y00114226D01*
X00197980Y00114429D01*
X00198065Y00114615D01*
X00198132Y00114733D01*
X00198183Y00114818D01*
X00198200Y00114852D01*
X00198369Y00115071D01*
X00198572Y00115274D01*
X00198775Y00115427D01*
X00198961Y00115562D01*
X00199130Y00115663D01*
X00199283Y00115748D01*
X00199367Y00115782D01*
X00199384Y00115799D01*
X00199401D01*
X00199706Y00115900D01*
X00200044Y00115985D01*
X00200399Y00116036D01*
X00200737Y00116086D01*
X00201042Y00116103D01*
X00201177D01*
X00201296Y00116120D01*
X00201516D01*
X00201972Y00116103D01*
D02*
G37*
G36*
X00298650Y00110978D02*
X00296467Y00110656D01*
X00296349Y00110775D01*
X00296248Y00110876D01*
X00296146Y00110961D01*
X00296061Y00111028D01*
X00295994Y00111079D01*
X00295943Y00111113D01*
X00295909Y00111147D01*
X00295892D01*
X00295757Y00111214D01*
X00295622Y00111248D01*
X00295402Y00111316D01*
X00295300D01*
X00295233Y00111333D01*
X00295165D01*
X00294962Y00111316D01*
X00294759Y00111265D01*
X00294607Y00111214D01*
X00294471Y00111147D01*
X00294353Y00111062D01*
X00294285Y00111011D01*
X00294234Y00110961D01*
X00294217Y00110944D01*
X00294099Y00110775D01*
X00294014Y00110589D01*
X00293947Y00110386D01*
X00293913Y00110183D01*
X00293879Y00110013D01*
X00293862Y00109861D01*
Y00109760D01*
Y00109743D01*
Y00109726D01*
X00293879Y00109438D01*
X00293913Y00109201D01*
X00293981Y00108998D01*
X00294031Y00108829D01*
X00294099Y00108694D01*
X00294167Y00108609D01*
X00294201Y00108542D01*
X00294217Y00108525D01*
X00294353Y00108389D01*
X00294505Y00108288D01*
X00294657Y00108220D01*
X00294793Y00108169D01*
X00294928Y00108136D01*
X00295030Y00108119D01*
X00295114D01*
X00295283Y00108136D01*
X00295452Y00108169D01*
X00295605Y00108220D01*
X00295723Y00108288D01*
X00295825Y00108339D01*
X00295892Y00108389D01*
X00295943Y00108423D01*
X00295960Y00108440D01*
X00296078Y00108575D01*
X00296163Y00108728D01*
X00296248Y00108880D01*
X00296298Y00109032D01*
X00296332Y00109167D01*
X00296366Y00109286D01*
X00296383Y00109354D01*
Y00109388D01*
X00298988Y00109100D01*
X00298920Y00108863D01*
X00298836Y00108643D01*
X00298768Y00108457D01*
X00298683Y00108305D01*
X00298633Y00108169D01*
X00298582Y00108085D01*
X00298548Y00108017D01*
X00298531Y00108000D01*
X00298294Y00107696D01*
X00298176Y00107561D01*
X00298057Y00107459D01*
X00297939Y00107358D01*
X00297854Y00107290D01*
X00297804Y00107239D01*
X00297787Y00107222D01*
X00297415Y00107002D01*
X00297229Y00106918D01*
X00297043Y00106850D01*
X00296890Y00106782D01*
X00296772Y00106749D01*
X00296704Y00106732D01*
X00296670Y00106715D01*
X00296417Y00106664D01*
X00296146Y00106613D01*
X00295875Y00106579D01*
X00295639Y00106562D01*
X00295419D01*
X00295249Y00106545D01*
X00295097D01*
X00294640Y00106562D01*
X00294234Y00106613D01*
X00293862Y00106681D01*
X00293558Y00106765D01*
X00293321Y00106833D01*
X00293220Y00106867D01*
X00293152Y00106901D01*
X00293084Y00106935D01*
X00293033Y00106952D01*
X00293016Y00106968D01*
X00292999D01*
X00292712Y00107155D01*
X00292458Y00107358D01*
X00292238Y00107561D01*
X00292052Y00107764D01*
X00291917Y00107950D01*
X00291815Y00108102D01*
X00291748Y00108203D01*
X00291731Y00108220D01*
Y00108237D01*
X00291579Y00108542D01*
X00291460Y00108863D01*
X00291392Y00109151D01*
X00291325Y00109404D01*
X00291291Y00109641D01*
X00291274Y00109810D01*
Y00109878D01*
Y00109929D01*
Y00109946D01*
Y00109963D01*
X00291291Y00110199D01*
X00291308Y00110419D01*
X00291409Y00110825D01*
X00291545Y00111198D01*
X00291714Y00111502D01*
X00291883Y00111739D01*
X00291951Y00111840D01*
X00292018Y00111925D01*
X00292069Y00111993D01*
X00292120Y00112043D01*
X00292137Y00112060D01*
X00292154Y00112077D01*
X00292323Y00112229D01*
X00292492Y00112365D01*
X00292678Y00112466D01*
X00292864Y00112568D01*
X00293236Y00112720D01*
X00293608Y00112822D01*
X00293913Y00112872D01*
X00294048Y00112906D01*
X00294167D01*
X00294268Y00112923D01*
X00294404D01*
X00294708Y00112906D01*
X00294843Y00112889D01*
X00294962Y00112872D01*
X00295080Y00112855D01*
X00295165Y00112838D01*
X00295216Y00112822D01*
X00295233D01*
X00295537Y00112737D01*
X00295689Y00112686D01*
X00295825Y00112635D01*
X00295926Y00112585D01*
X00296028Y00112551D01*
X00296078Y00112534D01*
X00296095Y00112517D01*
X00295875Y00113904D01*
X00291714D01*
Y00115968D01*
X00297838D01*
X00298650Y00110978D01*
D02*
G37*
G36*
X00277758D02*
X00275576Y00110656D01*
X00275457Y00110775D01*
X00275356Y00110876D01*
X00275254Y00110961D01*
X00275170Y00111028D01*
X00275102Y00111079D01*
X00275051Y00111113D01*
X00275017Y00111147D01*
X00275000D01*
X00274865Y00111214D01*
X00274730Y00111248D01*
X00274510Y00111316D01*
X00274408D01*
X00274341Y00111333D01*
X00274273D01*
X00274070Y00111316D01*
X00273867Y00111265D01*
X00273715Y00111214D01*
X00273580Y00111147D01*
X00273461Y00111062D01*
X00273393Y00111011D01*
X00273343Y00110961D01*
X00273326Y00110944D01*
X00273207Y00110775D01*
X00273123Y00110589D01*
X00273055Y00110386D01*
X00273021Y00110183D01*
X00272987Y00110013D01*
X00272971Y00109861D01*
Y00109760D01*
Y00109743D01*
Y00109726D01*
X00272987Y00109438D01*
X00273021Y00109201D01*
X00273089Y00108998D01*
X00273140Y00108829D01*
X00273207Y00108694D01*
X00273275Y00108609D01*
X00273309Y00108542D01*
X00273326Y00108525D01*
X00273461Y00108389D01*
X00273613Y00108288D01*
X00273766Y00108220D01*
X00273901Y00108169D01*
X00274036Y00108136D01*
X00274138Y00108119D01*
X00274222D01*
X00274391Y00108136D01*
X00274561Y00108169D01*
X00274713Y00108220D01*
X00274831Y00108288D01*
X00274933Y00108339D01*
X00275000Y00108389D01*
X00275051Y00108423D01*
X00275068Y00108440D01*
X00275187Y00108575D01*
X00275271Y00108728D01*
X00275356Y00108880D01*
X00275406Y00109032D01*
X00275440Y00109167D01*
X00275474Y00109286D01*
X00275491Y00109354D01*
Y00109388D01*
X00278096Y00109100D01*
X00278029Y00108863D01*
X00277944Y00108643D01*
X00277876Y00108457D01*
X00277792Y00108305D01*
X00277741Y00108169D01*
X00277690Y00108085D01*
X00277656Y00108017D01*
X00277639Y00108000D01*
X00277403Y00107696D01*
X00277284Y00107561D01*
X00277166Y00107459D01*
X00277047Y00107358D01*
X00276963Y00107290D01*
X00276912Y00107239D01*
X00276895Y00107222D01*
X00276523Y00107002D01*
X00276337Y00106918D01*
X00276151Y00106850D01*
X00275999Y00106782D01*
X00275880Y00106749D01*
X00275812Y00106732D01*
X00275779Y00106715D01*
X00275525Y00106664D01*
X00275254Y00106613D01*
X00274984Y00106579D01*
X00274747Y00106562D01*
X00274527D01*
X00274358Y00106545D01*
X00274205D01*
X00273749Y00106562D01*
X00273343Y00106613D01*
X00272971Y00106681D01*
X00272666Y00106765D01*
X00272429Y00106833D01*
X00272328Y00106867D01*
X00272260Y00106901D01*
X00272192Y00106935D01*
X00272142Y00106952D01*
X00272125Y00106968D01*
X00272108D01*
X00271820Y00107155D01*
X00271567Y00107358D01*
X00271346Y00107561D01*
X00271161Y00107764D01*
X00271025Y00107950D01*
X00270924Y00108102D01*
X00270856Y00108203D01*
X00270839Y00108220D01*
Y00108237D01*
X00270687Y00108542D01*
X00270568Y00108863D01*
X00270501Y00109151D01*
X00270433Y00109404D01*
X00270399Y00109641D01*
X00270382Y00109810D01*
Y00109878D01*
Y00109929D01*
Y00109946D01*
Y00109963D01*
X00270399Y00110199D01*
X00270416Y00110419D01*
X00270518Y00110825D01*
X00270653Y00111198D01*
X00270822Y00111502D01*
X00270991Y00111739D01*
X00271059Y00111840D01*
X00271127Y00111925D01*
X00271177Y00111993D01*
X00271228Y00112043D01*
X00271245Y00112060D01*
X00271262Y00112077D01*
X00271431Y00112229D01*
X00271600Y00112365D01*
X00271786Y00112466D01*
X00271973Y00112568D01*
X00272345Y00112720D01*
X00272717Y00112822D01*
X00273021Y00112872D01*
X00273157Y00112906D01*
X00273275D01*
X00273377Y00112923D01*
X00273512D01*
X00273816Y00112906D01*
X00273952Y00112889D01*
X00274070Y00112872D01*
X00274188Y00112855D01*
X00274273Y00112838D01*
X00274324Y00112822D01*
X00274341D01*
X00274645Y00112737D01*
X00274797Y00112686D01*
X00274933Y00112635D01*
X00275034Y00112585D01*
X00275136Y00112551D01*
X00275187Y00112534D01*
X00275203Y00112517D01*
X00274984Y00113904D01*
X00270822D01*
Y00115968D01*
X00276946D01*
X00277758Y00110978D01*
D02*
G37*
G36*
X00223304Y00115799D02*
X00223490Y00115511D01*
X00223676Y00115258D01*
X00223862Y00115055D01*
X00224031Y00114868D01*
X00224167Y00114733D01*
X00224251Y00114665D01*
X00224268Y00114632D01*
X00224285D01*
X00224573Y00114412D01*
X00224911Y00114226D01*
X00225249Y00114056D01*
X00225571Y00113904D01*
X00225858Y00113786D01*
X00225994Y00113735D01*
X00226095Y00113684D01*
X00226197Y00113667D01*
X00226264Y00113633D01*
X00226298Y00113617D01*
X00226315D01*
Y00111519D01*
X00225994Y00111620D01*
X00225706Y00111705D01*
X00225469Y00111806D01*
X00225249Y00111891D01*
X00225080Y00111959D01*
X00224945Y00112009D01*
X00224877Y00112043D01*
X00224843Y00112060D01*
X00224624Y00112179D01*
X00224403Y00112314D01*
X00224184Y00112449D01*
X00223997Y00112568D01*
X00223845Y00112686D01*
X00223710Y00112771D01*
X00223642Y00112838D01*
X00223608Y00112855D01*
Y00106698D01*
X00221003D01*
Y00116120D01*
X00223135D01*
X00223304Y00115799D01*
D02*
G37*
G36*
X00180100D02*
X00180286Y00115511D01*
X00180472Y00115258D01*
X00180658Y00115055D01*
X00180827Y00114868D01*
X00180962Y00114733D01*
X00181047Y00114665D01*
X00181064Y00114632D01*
X00181081D01*
X00181368Y00114412D01*
X00181707Y00114226D01*
X00182045Y00114056D01*
X00182366Y00113904D01*
X00182654Y00113786D01*
X00182789Y00113735D01*
X00182891Y00113684D01*
X00182992Y00113667D01*
X00183060Y00113633D01*
X00183094Y00113617D01*
X00183111D01*
Y00111519D01*
X00182789Y00111620D01*
X00182502Y00111705D01*
X00182265Y00111806D01*
X00182045Y00111891D01*
X00181876Y00111959D01*
X00181740Y00112009D01*
X00181673Y00112043D01*
X00181639Y00112060D01*
X00181419Y00112179D01*
X00181199Y00112314D01*
X00180979Y00112449D01*
X00180793Y00112568D01*
X00180641Y00112686D01*
X00180506Y00112771D01*
X00180438Y00112838D01*
X00180404Y00112855D01*
Y00106698D01*
X00177799D01*
Y00116120D01*
X00179930D01*
X00180100Y00115799D01*
D02*
G37*
G36*
X00209314Y00110825D02*
X00206557D01*
Y00113414D01*
X00209314D01*
Y00110825D01*
D02*
G37*
G36*
X00187712D02*
X00184954D01*
Y00113414D01*
X00187712D01*
Y00110825D01*
D02*
G37*
G36*
X00218466Y00110538D02*
Y00108423D01*
X00213763D01*
Y00106698D01*
X00211513D01*
Y00108423D01*
X00210346D01*
Y00110419D01*
X00211513D01*
Y00116120D01*
X00213763D01*
X00218466Y00110538D01*
D02*
G37*
G36*
X00209314Y00106698D02*
X00206557D01*
Y00109286D01*
X00209314D01*
Y00106698D01*
D02*
G37*
G36*
X00196864Y00110538D02*
Y00108423D01*
X00192161D01*
Y00106698D01*
X00189911D01*
Y00108423D01*
X00188744D01*
Y00110419D01*
X00189911D01*
Y00116120D01*
X00192161D01*
X00196864Y00110538D01*
D02*
G37*
G36*
X00187712Y00106698D02*
X00184954D01*
Y00109286D01*
X00187712D01*
Y00106698D01*
D02*
G37*
G36*
X00290767Y00106545D02*
X00289481D01*
X00287130Y00116120D01*
X00288432D01*
X00290767Y00106545D01*
D02*
G37*
G36*
X00283137Y00116103D02*
X00283476Y00116069D01*
X00283780Y00116019D01*
X00284068Y00115951D01*
X00284321Y00115866D01*
X00284558Y00115782D01*
X00284778Y00115680D01*
X00284964Y00115596D01*
X00285133Y00115494D01*
X00285286Y00115393D01*
X00285404Y00115308D01*
X00285506Y00115224D01*
X00285590Y00115156D01*
X00285641Y00115105D01*
X00285675Y00115071D01*
X00285692Y00115055D01*
X00285861Y00114834D01*
X00285996Y00114598D01*
X00286131Y00114327D01*
X00286233Y00114039D01*
X00286402Y00113431D01*
X00286521Y00112822D01*
X00286554Y00112534D01*
X00286588Y00112263D01*
X00286605Y00112009D01*
X00286622Y00111790D01*
X00286639Y00111620D01*
Y00111485D01*
Y00111400D01*
Y00111367D01*
X00286622Y00110978D01*
X00286605Y00110605D01*
X00286571Y00110267D01*
X00286537Y00109979D01*
X00286504Y00109726D01*
X00286487Y00109540D01*
X00286470Y00109472D01*
X00286453Y00109421D01*
Y00109404D01*
Y00109388D01*
X00286385Y00109083D01*
X00286301Y00108795D01*
X00286216Y00108559D01*
X00286131Y00108372D01*
X00286064Y00108203D01*
X00285996Y00108102D01*
X00285962Y00108017D01*
X00285945Y00108000D01*
X00285759Y00107747D01*
X00285556Y00107527D01*
X00285370Y00107341D01*
X00285167Y00107188D01*
X00285015Y00107070D01*
X00284880Y00106985D01*
X00284795Y00106935D01*
X00284761Y00106918D01*
X00284474Y00106799D01*
X00284152Y00106698D01*
X00283831Y00106630D01*
X00283526Y00106596D01*
X00283256Y00106562D01*
X00283154D01*
X00283053Y00106545D01*
X00282850D01*
X00282477Y00106562D01*
X00282122Y00106596D01*
X00281801Y00106647D01*
X00281513Y00106732D01*
X00281243Y00106816D01*
X00281006Y00106918D01*
X00280786Y00107019D01*
X00280600Y00107138D01*
X00280431Y00107239D01*
X00280295Y00107341D01*
X00280177Y00107442D01*
X00280075Y00107527D01*
X00279991Y00107611D01*
X00279940Y00107662D01*
X00279923Y00107696D01*
X00279906Y00107713D01*
X00279754Y00107950D01*
X00279619Y00108203D01*
X00279500Y00108491D01*
X00279399Y00108778D01*
X00279247Y00109388D01*
X00279145Y00109997D01*
X00279111Y00110284D01*
X00279094Y00110538D01*
X00279077Y00110775D01*
X00279060Y00110995D01*
X00279044Y00111164D01*
Y00111282D01*
Y00111367D01*
Y00111400D01*
X00279060Y00111806D01*
X00279077Y00112212D01*
X00279128Y00112568D01*
X00279179Y00112889D01*
X00279230Y00113160D01*
X00279247Y00113278D01*
X00279263Y00113363D01*
X00279280Y00113447D01*
X00279297Y00113498D01*
X00279314Y00113532D01*
Y00113549D01*
X00279365Y00113752D01*
X00279433Y00113921D01*
X00279483Y00114090D01*
X00279534Y00114226D01*
X00279585Y00114344D01*
X00279636Y00114429D01*
X00279653Y00114479D01*
X00279669Y00114496D01*
X00279855Y00114801D01*
X00279957Y00114936D01*
X00280058Y00115037D01*
X00280143Y00115139D01*
X00280211Y00115207D01*
X00280261Y00115258D01*
X00280278Y00115274D01*
X00280431Y00115410D01*
X00280583Y00115528D01*
X00280752Y00115630D01*
X00280904Y00115714D01*
X00281040Y00115782D01*
X00281158Y00115850D01*
X00281226Y00115866D01*
X00281260Y00115883D01*
X00281496Y00115968D01*
X00281750Y00116019D01*
X00282004Y00116069D01*
X00282241Y00116086D01*
X00282461Y00116103D01*
X00282630Y00116120D01*
X00282782D01*
X00283137Y00116103D01*
D02*
G37*
G36*
X00269875Y00106545D02*
X00268589D01*
X00266238Y00116120D01*
X00267540D01*
X00269875Y00106545D01*
D02*
G37*
G36*
X00253601Y00116103D02*
X00253940Y00116069D01*
X00254244Y00116019D01*
X00254532Y00115951D01*
X00254785Y00115866D01*
X00255022Y00115782D01*
X00255242Y00115680D01*
X00255428Y00115596D01*
X00255597Y00115494D01*
X00255750Y00115393D01*
X00255868Y00115308D01*
X00255970Y00115224D01*
X00256054Y00115156D01*
X00256105Y00115105D01*
X00256139Y00115071D01*
X00256156Y00115055D01*
X00256325Y00114834D01*
X00256460Y00114598D01*
X00256595Y00114327D01*
X00256697Y00114039D01*
X00256866Y00113431D01*
X00256985Y00112822D01*
X00257018Y00112534D01*
X00257052Y00112263D01*
X00257069Y00112009D01*
X00257086Y00111790D01*
X00257103Y00111620D01*
Y00111485D01*
Y00111400D01*
Y00111367D01*
X00257086Y00110978D01*
X00257069Y00110605D01*
X00257035Y00110267D01*
X00257001Y00109979D01*
X00256968Y00109726D01*
X00256951Y00109540D01*
X00256934Y00109472D01*
X00256917Y00109421D01*
Y00109404D01*
Y00109388D01*
X00256849Y00109083D01*
X00256765Y00108795D01*
X00256680Y00108559D01*
X00256595Y00108372D01*
X00256528Y00108203D01*
X00256460Y00108102D01*
X00256426Y00108017D01*
X00256409Y00108000D01*
X00256223Y00107747D01*
X00256020Y00107527D01*
X00255834Y00107341D01*
X00255631Y00107188D01*
X00255479Y00107070D01*
X00255344Y00106985D01*
X00255259Y00106935D01*
X00255225Y00106918D01*
X00254938Y00106799D01*
X00254616Y00106698D01*
X00254295Y00106630D01*
X00253990Y00106596D01*
X00253720Y00106562D01*
X00253618D01*
X00253517Y00106545D01*
X00253314D01*
X00252941Y00106562D01*
X00252586Y00106596D01*
X00252265Y00106647D01*
X00251977Y00106732D01*
X00251707Y00106816D01*
X00251470Y00106918D01*
X00251250Y00107019D01*
X00251064Y00107138D01*
X00250895Y00107239D01*
X00250759Y00107341D01*
X00250641Y00107442D01*
X00250539Y00107527D01*
X00250455Y00107611D01*
X00250404Y00107662D01*
X00250387Y00107696D01*
X00250370Y00107713D01*
X00250218Y00107950D01*
X00250083Y00108203D01*
X00249964Y00108491D01*
X00249863Y00108778D01*
X00249711Y00109388D01*
X00249609Y00109997D01*
X00249575Y00110284D01*
X00249558Y00110538D01*
X00249541Y00110775D01*
X00249524Y00110995D01*
X00249508Y00111164D01*
Y00111282D01*
Y00111367D01*
Y00111400D01*
X00249524Y00111806D01*
X00249541Y00112212D01*
X00249592Y00112568D01*
X00249643Y00112889D01*
X00249694Y00113160D01*
X00249711Y00113278D01*
X00249727Y00113363D01*
X00249744Y00113447D01*
X00249761Y00113498D01*
X00249778Y00113532D01*
Y00113549D01*
X00249829Y00113752D01*
X00249897Y00113921D01*
X00249947Y00114090D01*
X00249998Y00114226D01*
X00250049Y00114344D01*
X00250100Y00114429D01*
X00250117Y00114479D01*
X00250133Y00114496D01*
X00250319Y00114801D01*
X00250421Y00114936D01*
X00250522Y00115037D01*
X00250607Y00115139D01*
X00250675Y00115207D01*
X00250725Y00115258D01*
X00250742Y00115274D01*
X00250895Y00115410D01*
X00251047Y00115528D01*
X00251216Y00115630D01*
X00251368Y00115714D01*
X00251504Y00115782D01*
X00251622Y00115850D01*
X00251690Y00115866D01*
X00251723Y00115883D01*
X00251960Y00115968D01*
X00252214Y00116019D01*
X00252468Y00116069D01*
X00252705Y00116086D01*
X00252925Y00116103D01*
X00253094Y00116120D01*
X00253246D01*
X00253601Y00116103D01*
D02*
G37*
G36*
X00236313D02*
X00236651Y00116069D01*
X00236956Y00116019D01*
X00237243Y00115951D01*
X00237497Y00115866D01*
X00237734Y00115782D01*
X00237954Y00115680D01*
X00238140Y00115596D01*
X00238309Y00115494D01*
X00238461Y00115393D01*
X00238580Y00115308D01*
X00238681Y00115224D01*
X00238766Y00115156D01*
X00238816Y00115105D01*
X00238850Y00115071D01*
X00238867Y00115055D01*
X00239036Y00114834D01*
X00239172Y00114598D01*
X00239307Y00114327D01*
X00239408Y00114039D01*
X00239578Y00113431D01*
X00239696Y00112822D01*
X00239730Y00112534D01*
X00239764Y00112263D01*
X00239781Y00112009D01*
X00239797Y00111790D01*
X00239814Y00111620D01*
Y00111485D01*
Y00111400D01*
Y00111367D01*
X00239797Y00110978D01*
X00239781Y00110605D01*
X00239747Y00110267D01*
X00239713Y00109979D01*
X00239679Y00109726D01*
X00239662Y00109540D01*
X00239645Y00109472D01*
X00239628Y00109421D01*
Y00109404D01*
Y00109388D01*
X00239561Y00109083D01*
X00239476Y00108795D01*
X00239391Y00108559D01*
X00239307Y00108372D01*
X00239239Y00108203D01*
X00239172Y00108102D01*
X00239138Y00108017D01*
X00239121Y00108000D01*
X00238935Y00107747D01*
X00238732Y00107527D01*
X00238546Y00107341D01*
X00238343Y00107188D01*
X00238190Y00107070D01*
X00238055Y00106985D01*
X00237971Y00106935D01*
X00237937Y00106918D01*
X00237649Y00106799D01*
X00237328Y00106698D01*
X00237006Y00106630D01*
X00236702Y00106596D01*
X00236431Y00106562D01*
X00236330D01*
X00236228Y00106545D01*
X00236025D01*
X00235653Y00106562D01*
X00235298Y00106596D01*
X00234976Y00106647D01*
X00234689Y00106732D01*
X00234418Y00106816D01*
X00234181Y00106918D01*
X00233961Y00107019D01*
X00233775Y00107138D01*
X00233606Y00107239D01*
X00233471Y00107341D01*
X00233352Y00107442D01*
X00233251Y00107527D01*
X00233166Y00107611D01*
X00233116Y00107662D01*
X00233099Y00107696D01*
X00233082Y00107713D01*
X00232929Y00107950D01*
X00232794Y00108203D01*
X00232676Y00108491D01*
X00232574Y00108778D01*
X00232422Y00109388D01*
X00232320Y00109997D01*
X00232287Y00110284D01*
X00232270Y00110538D01*
X00232253Y00110775D01*
X00232236Y00110995D01*
X00232219Y00111164D01*
Y00111282D01*
Y00111367D01*
Y00111400D01*
X00232236Y00111806D01*
X00232253Y00112212D01*
X00232304Y00112568D01*
X00232354Y00112889D01*
X00232405Y00113160D01*
X00232422Y00113278D01*
X00232439Y00113363D01*
X00232456Y00113447D01*
X00232473Y00113498D01*
X00232490Y00113532D01*
Y00113549D01*
X00232540Y00113752D01*
X00232608Y00113921D01*
X00232659Y00114090D01*
X00232710Y00114226D01*
X00232760Y00114344D01*
X00232811Y00114429D01*
X00232828Y00114479D01*
X00232845Y00114496D01*
X00233031Y00114801D01*
X00233132Y00114936D01*
X00233234Y00115037D01*
X00233319Y00115139D01*
X00233386Y00115207D01*
X00233437Y00115258D01*
X00233454Y00115274D01*
X00233606Y00115410D01*
X00233758Y00115528D01*
X00233927Y00115630D01*
X00234080Y00115714D01*
X00234215Y00115782D01*
X00234333Y00115850D01*
X00234401Y00115866D01*
X00234435Y00115883D01*
X00234672Y00115968D01*
X00234925Y00116019D01*
X00235179Y00116069D01*
X00235416Y00116086D01*
X00235636Y00116103D01*
X00235805Y00116120D01*
X00235957D01*
X00236313Y00116103D01*
D02*
G37*
%LPC*%
G36*
X00206371Y00125705D02*
X00206286D01*
X00206117Y00125688D01*
X00205948Y00125637D01*
X00205812Y00125570D01*
X00205694Y00125502D01*
X00205592Y00125434D01*
X00205525Y00125367D01*
X00205474Y00125316D01*
X00205457Y00125299D01*
X00205339Y00125147D01*
X00205254Y00124961D01*
X00205187Y00124775D01*
X00205153Y00124588D01*
X00205119Y00124436D01*
X00205102Y00124301D01*
Y00124216D01*
Y00124199D01*
Y00124183D01*
X00205119Y00123929D01*
X00205153Y00123692D01*
X00205203Y00123506D01*
X00205271Y00123354D01*
X00205339Y00123218D01*
X00205389Y00123134D01*
X00205423Y00123083D01*
X00205440Y00123066D01*
X00205559Y00122948D01*
X00205694Y00122863D01*
X00205846Y00122795D01*
X00205965Y00122762D01*
X00206083Y00122728D01*
X00206168Y00122711D01*
X00206252D01*
X00206438Y00122728D01*
X00206591Y00122762D01*
X00206726Y00122812D01*
X00206844Y00122880D01*
X00206946Y00122948D01*
X00207013Y00122998D01*
X00207047Y00123032D01*
X00207064Y00123049D01*
X00207166Y00123201D01*
X00207233Y00123371D01*
X00207301Y00123557D01*
X00207335Y00123726D01*
X00207352Y00123895D01*
X00207369Y00124030D01*
Y00124115D01*
Y00124149D01*
X00207352Y00124436D01*
X00207318Y00124690D01*
X00207284Y00124893D01*
X00207216Y00125045D01*
X00207166Y00125181D01*
X00207132Y00125265D01*
X00207098Y00125316D01*
X00207081Y00125333D01*
X00206963Y00125451D01*
X00206827Y00125553D01*
X00206709Y00125620D01*
X00206574Y00125654D01*
X00206455Y00125688D01*
X00206371Y00125705D01*
D02*
G37*
G36*
X00275593Y00123878D02*
X00275576D01*
Y00123455D01*
Y00123286D01*
X00275609Y00123134D01*
X00275626Y00122998D01*
X00275660Y00122897D01*
X00275694Y00122795D01*
X00275711Y00122728D01*
X00275745Y00122694D01*
Y00122677D01*
X00275812Y00122576D01*
X00275897Y00122474D01*
X00276066Y00122322D01*
X00276151Y00122271D01*
X00276202Y00122220D01*
X00276252Y00122203D01*
X00276269Y00122186D01*
X00276405Y00122119D01*
X00276557Y00122068D01*
X00276692Y00122034D01*
X00276810Y00122017D01*
X00276912Y00122000D01*
X00276997Y00121983D01*
X00277064D01*
X00277200Y00122000D01*
X00277335Y00122017D01*
X00277437Y00122051D01*
X00277521Y00122085D01*
X00277606Y00122119D01*
X00277656Y00122136D01*
X00277673Y00122170D01*
X00277690D01*
X00277758Y00122237D01*
X00277809Y00122322D01*
X00277859Y00122491D01*
X00277876Y00122559D01*
X00277893Y00122609D01*
Y00122643D01*
Y00122660D01*
X00277876Y00122762D01*
X00277859Y00122846D01*
X00277792Y00122998D01*
X00277724Y00123100D01*
X00277690Y00123117D01*
Y00123134D01*
X00277589Y00123218D01*
X00277437Y00123286D01*
X00277284Y00123354D01*
X00277115Y00123421D01*
X00276946Y00123472D01*
X00276810Y00123506D01*
X00276726Y00123523D01*
X00276692Y00123540D01*
X00276269Y00123658D01*
X00276083Y00123709D01*
X00275914Y00123760D01*
X00275779Y00123810D01*
X00275660Y00123844D01*
X00275593Y00123878D01*
D02*
G37*
G36*
X00240711Y00126043D02*
X00240609D01*
X00240423Y00126026D01*
X00240237Y00125993D01*
X00240102Y00125942D01*
X00239967Y00125874D01*
X00239882Y00125807D01*
X00239797Y00125756D01*
X00239764Y00125722D01*
X00239747Y00125705D01*
X00239628Y00125570D01*
X00239544Y00125400D01*
X00239476Y00125231D01*
X00239425Y00125062D01*
X00239391Y00124910D01*
X00239358Y00124775D01*
X00239341Y00124690D01*
Y00124673D01*
Y00124656D01*
X00241878D01*
X00241844Y00124859D01*
X00241810Y00125045D01*
X00241760Y00125197D01*
X00241709Y00125333D01*
X00241658Y00125417D01*
X00241624Y00125502D01*
X00241607Y00125536D01*
X00241591Y00125553D01*
X00241438Y00125722D01*
X00241286Y00125840D01*
X00241117Y00125925D01*
X00240965Y00125976D01*
X00240829Y00126026D01*
X00240711Y00126043D01*
D02*
G37*
G36*
X00232067D02*
X00231965D01*
X00231779Y00126026D01*
X00231593Y00125993D01*
X00231458Y00125942D01*
X00231322Y00125874D01*
X00231238Y00125807D01*
X00231153Y00125756D01*
X00231119Y00125722D01*
X00231102Y00125705D01*
X00230984Y00125570D01*
X00230899Y00125400D01*
X00230832Y00125231D01*
X00230781Y00125062D01*
X00230747Y00124910D01*
X00230713Y00124775D01*
X00230696Y00124690D01*
Y00124673D01*
Y00124656D01*
X00233234D01*
X00233200Y00124859D01*
X00233166Y00125045D01*
X00233116Y00125197D01*
X00233065Y00125333D01*
X00233014Y00125417D01*
X00232980Y00125502D01*
X00232963Y00125536D01*
X00232946Y00125553D01*
X00232794Y00125722D01*
X00232642Y00125840D01*
X00232473Y00125925D01*
X00232320Y00125976D01*
X00232185Y00126026D01*
X00232067Y00126043D01*
D02*
G37*
G36*
X00114734Y00126043D02*
X00114633D01*
X00114447Y00126026D01*
X00114261Y00125993D01*
X00114125Y00125942D01*
X00113990Y00125874D01*
X00113906Y00125807D01*
X00113821Y00125756D01*
X00113787Y00125722D01*
X00113770Y00125705D01*
X00113652Y00125570D01*
X00113567Y00125400D01*
X00113500Y00125231D01*
X00113449Y00125062D01*
X00113415Y00124910D01*
X00113381Y00124775D01*
X00113364Y00124690D01*
Y00124673D01*
Y00124656D01*
X00115902D01*
X00115868Y00124859D01*
X00115834Y00125045D01*
X00115783Y00125197D01*
X00115733Y00125333D01*
X00115682Y00125417D01*
X00115648Y00125502D01*
X00115631Y00125536D01*
X00115614Y00125553D01*
X00115462Y00125722D01*
X00115310Y00125840D01*
X00115140Y00125925D01*
X00114988Y00125976D01*
X00114853Y00126026D01*
X00114734Y00126043D01*
D02*
G37*
G36*
X00160798Y00125790D02*
X00160713D01*
X00160527Y00125773D01*
X00160341Y00125722D01*
X00160189Y00125654D01*
X00160054Y00125570D01*
X00159952Y00125485D01*
X00159884Y00125417D01*
X00159834Y00125367D01*
X00159817Y00125350D01*
X00159698Y00125181D01*
X00159597Y00124978D01*
X00159529Y00124758D01*
X00159495Y00124555D01*
X00159461Y00124352D01*
X00159445Y00124199D01*
Y00124098D01*
Y00124081D01*
Y00124064D01*
X00159461Y00123726D01*
X00159495Y00123455D01*
X00159563Y00123218D01*
X00159631Y00123032D01*
X00159698Y00122880D01*
X00159766Y00122779D01*
X00159800Y00122711D01*
X00159817Y00122694D01*
X00159952Y00122559D01*
X00160104Y00122457D01*
X00160257Y00122389D01*
X00160409Y00122339D01*
X00160527Y00122305D01*
X00160629Y00122288D01*
X00160730D01*
X00160916Y00122305D01*
X00161102Y00122356D01*
X00161255Y00122423D01*
X00161390Y00122508D01*
X00161491Y00122576D01*
X00161576Y00122643D01*
X00161627Y00122694D01*
X00161644Y00122711D01*
X00161762Y00122897D01*
X00161847Y00123100D01*
X00161914Y00123320D01*
X00161948Y00123523D01*
X00161982Y00123726D01*
X00161999Y00123878D01*
Y00123946D01*
Y00123996D01*
Y00124013D01*
Y00124030D01*
X00161982Y00124335D01*
X00161948Y00124606D01*
X00161880Y00124842D01*
X00161813Y00125028D01*
X00161762Y00125164D01*
X00161694Y00125265D01*
X00161661Y00125333D01*
X00161644Y00125350D01*
X00161491Y00125502D01*
X00161339Y00125604D01*
X00161187Y00125688D01*
X00161035Y00125739D01*
X00160916Y00125773D01*
X00160798Y00125790D01*
D02*
G37*
G36*
X00132006Y00125790D02*
X00131922D01*
X00131735Y00125773D01*
X00131549Y00125722D01*
X00131397Y00125654D01*
X00131262Y00125570D01*
X00131160Y00125485D01*
X00131093Y00125417D01*
X00131042Y00125367D01*
X00131025Y00125350D01*
X00130907Y00125181D01*
X00130805Y00124978D01*
X00130737Y00124758D01*
X00130704Y00124555D01*
X00130670Y00124352D01*
X00130653Y00124199D01*
Y00124098D01*
Y00124081D01*
Y00124064D01*
X00130670Y00123726D01*
X00130704Y00123455D01*
X00130771Y00123218D01*
X00130839Y00123032D01*
X00130907Y00122880D01*
X00130974Y00122779D01*
X00131008Y00122711D01*
X00131025Y00122694D01*
X00131160Y00122559D01*
X00131313Y00122457D01*
X00131465Y00122389D01*
X00131617Y00122339D01*
X00131735Y00122305D01*
X00131837Y00122288D01*
X00131938D01*
X00132125Y00122305D01*
X00132311Y00122356D01*
X00132463Y00122423D01*
X00132598Y00122508D01*
X00132700Y00122576D01*
X00132784Y00122643D01*
X00132835Y00122694D01*
X00132852Y00122711D01*
X00132970Y00122897D01*
X00133055Y00123100D01*
X00133123Y00123320D01*
X00133156Y00123523D01*
X00133190Y00123726D01*
X00133207Y00123878D01*
Y00123946D01*
Y00123996D01*
Y00124013D01*
Y00124030D01*
X00133190Y00124335D01*
X00133156Y00124605D01*
X00133089Y00124842D01*
X00133021Y00125028D01*
X00132970Y00125164D01*
X00132903Y00125265D01*
X00132869Y00125333D01*
X00132852Y00125350D01*
X00132700Y00125502D01*
X00132548Y00125604D01*
X00132395Y00125688D01*
X00132243Y00125739D01*
X00132125Y00125773D01*
X00132006Y00125790D01*
D02*
G37*
G36*
X00213763Y00113346D02*
Y00110419D01*
X00216267D01*
X00213763Y00113346D01*
D02*
G37*
G36*
X00192161D02*
Y00110419D01*
X00194664D01*
X00192161Y00113346D01*
D02*
G37*
G36*
X00282901Y00114412D02*
X00282867D01*
X00282647Y00114378D01*
X00282461Y00114310D01*
X00282292Y00114209D01*
X00282156Y00114090D01*
X00282055Y00113972D01*
X00281987Y00113870D01*
X00281936Y00113803D01*
X00281919Y00113769D01*
X00281868Y00113633D01*
X00281818Y00113481D01*
X00281767Y00113295D01*
X00281733Y00113109D01*
X00281682Y00112703D01*
X00281632Y00112280D01*
X00281615Y00111908D01*
Y00111722D01*
X00281598Y00111587D01*
Y00111451D01*
Y00111367D01*
Y00111299D01*
Y00111282D01*
Y00110842D01*
X00281615Y00110470D01*
X00281649Y00110149D01*
X00281666Y00109895D01*
X00281699Y00109692D01*
X00281733Y00109557D01*
X00281750Y00109472D01*
Y00109438D01*
X00281801Y00109235D01*
X00281868Y00109049D01*
X00281936Y00108914D01*
X00282004Y00108778D01*
X00282071Y00108694D01*
X00282122Y00108626D01*
X00282156Y00108592D01*
X00282173Y00108575D01*
X00282292Y00108491D01*
X00282410Y00108423D01*
X00282511Y00108372D01*
X00282630Y00108339D01*
X00282714Y00108322D01*
X00282799Y00108305D01*
X00282867D01*
X00283070Y00108339D01*
X00283256Y00108406D01*
X00283408Y00108508D01*
X00283543Y00108626D01*
X00283645Y00108745D01*
X00283712Y00108846D01*
X00283763Y00108914D01*
X00283780Y00108948D01*
X00283831Y00109083D01*
X00283882Y00109235D01*
X00283915Y00109404D01*
X00283949Y00109591D01*
X00284017Y00109997D01*
X00284051Y00110402D01*
X00284068Y00110775D01*
Y00110944D01*
X00284085Y00111079D01*
Y00111198D01*
Y00111282D01*
Y00111350D01*
Y00111367D01*
Y00111688D01*
X00284068Y00111976D01*
X00284051Y00112229D01*
X00284034Y00112483D01*
X00284017Y00112686D01*
X00284000Y00112889D01*
X00283966Y00113058D01*
X00283932Y00113211D01*
X00283915Y00113346D01*
X00283882Y00113464D01*
X00283865Y00113549D01*
X00283848Y00113617D01*
X00283831Y00113684D01*
X00283814Y00113718D01*
X00283797Y00113752D01*
X00283679Y00113972D01*
X00283526Y00114141D01*
X00283374Y00114259D01*
X00283222Y00114327D01*
X00283086Y00114378D01*
X00282968Y00114395D01*
X00282901Y00114412D01*
D02*
G37*
G36*
X00253364D02*
X00253331D01*
X00253111Y00114378D01*
X00252925Y00114310D01*
X00252755Y00114209D01*
X00252620Y00114090D01*
X00252519Y00113972D01*
X00252451Y00113870D01*
X00252400Y00113803D01*
X00252383Y00113769D01*
X00252332Y00113633D01*
X00252282Y00113481D01*
X00252231Y00113295D01*
X00252197Y00113109D01*
X00252146Y00112703D01*
X00252096Y00112280D01*
X00252079Y00111908D01*
Y00111722D01*
X00252062Y00111587D01*
Y00111451D01*
Y00111367D01*
Y00111299D01*
Y00111282D01*
Y00110842D01*
X00252079Y00110470D01*
X00252113Y00110149D01*
X00252129Y00109895D01*
X00252163Y00109692D01*
X00252197Y00109557D01*
X00252214Y00109472D01*
Y00109438D01*
X00252265Y00109235D01*
X00252332Y00109049D01*
X00252400Y00108914D01*
X00252468Y00108778D01*
X00252535Y00108694D01*
X00252586Y00108626D01*
X00252620Y00108592D01*
X00252637Y00108575D01*
X00252755Y00108491D01*
X00252874Y00108423D01*
X00252975Y00108372D01*
X00253094Y00108339D01*
X00253178Y00108322D01*
X00253263Y00108305D01*
X00253331D01*
X00253534Y00108339D01*
X00253720Y00108406D01*
X00253872Y00108508D01*
X00254007Y00108626D01*
X00254109Y00108745D01*
X00254176Y00108846D01*
X00254227Y00108914D01*
X00254244Y00108948D01*
X00254295Y00109083D01*
X00254346Y00109235D01*
X00254379Y00109404D01*
X00254413Y00109591D01*
X00254481Y00109997D01*
X00254515Y00110402D01*
X00254532Y00110775D01*
Y00110944D01*
X00254549Y00111079D01*
Y00111198D01*
Y00111282D01*
Y00111350D01*
Y00111367D01*
Y00111688D01*
X00254532Y00111976D01*
X00254515Y00112229D01*
X00254498Y00112483D01*
X00254481Y00112686D01*
X00254464Y00112889D01*
X00254430Y00113058D01*
X00254396Y00113211D01*
X00254379Y00113346D01*
X00254346Y00113464D01*
X00254329Y00113549D01*
X00254312Y00113617D01*
X00254295Y00113684D01*
X00254278Y00113718D01*
X00254261Y00113752D01*
X00254143Y00113972D01*
X00253990Y00114141D01*
X00253838Y00114259D01*
X00253686Y00114327D01*
X00253550Y00114378D01*
X00253432Y00114395D01*
X00253364Y00114412D01*
D02*
G37*
G36*
X00236076D02*
X00236042D01*
X00235822Y00114378D01*
X00235636Y00114310D01*
X00235467Y00114209D01*
X00235331Y00114090D01*
X00235230Y00113972D01*
X00235162Y00113870D01*
X00235112Y00113803D01*
X00235095Y00113769D01*
X00235044Y00113633D01*
X00234993Y00113481D01*
X00234942Y00113295D01*
X00234909Y00113109D01*
X00234858Y00112703D01*
X00234807Y00112280D01*
X00234790Y00111908D01*
Y00111722D01*
X00234773Y00111587D01*
Y00111451D01*
Y00111367D01*
Y00111299D01*
Y00111282D01*
Y00110842D01*
X00234790Y00110470D01*
X00234824Y00110149D01*
X00234841Y00109895D01*
X00234875Y00109692D01*
X00234909Y00109557D01*
X00234925Y00109472D01*
Y00109438D01*
X00234976Y00109235D01*
X00235044Y00109049D01*
X00235112Y00108914D01*
X00235179Y00108778D01*
X00235247Y00108694D01*
X00235298Y00108626D01*
X00235331Y00108592D01*
X00235348Y00108575D01*
X00235467Y00108491D01*
X00235585Y00108423D01*
X00235687Y00108372D01*
X00235805Y00108339D01*
X00235890Y00108322D01*
X00235974Y00108305D01*
X00236042D01*
X00236245Y00108339D01*
X00236431Y00108406D01*
X00236583Y00108508D01*
X00236719Y00108626D01*
X00236820Y00108745D01*
X00236888Y00108846D01*
X00236939Y00108914D01*
X00236956Y00108948D01*
X00237006Y00109083D01*
X00237057Y00109235D01*
X00237091Y00109404D01*
X00237125Y00109591D01*
X00237192Y00109997D01*
X00237226Y00110402D01*
X00237243Y00110775D01*
Y00110944D01*
X00237260Y00111079D01*
Y00111198D01*
Y00111282D01*
Y00111350D01*
Y00111367D01*
Y00111688D01*
X00237243Y00111976D01*
X00237226Y00112229D01*
X00237209Y00112483D01*
X00237192Y00112686D01*
X00237175Y00112889D01*
X00237142Y00113058D01*
X00237108Y00113211D01*
X00237091Y00113346D01*
X00237057Y00113464D01*
X00237040Y00113549D01*
X00237023Y00113617D01*
X00237006Y00113684D01*
X00236989Y00113718D01*
X00236972Y00113752D01*
X00236854Y00113972D01*
X00236702Y00114141D01*
X00236549Y00114259D01*
X00236397Y00114327D01*
X00236262Y00114378D01*
X00236143Y00114395D01*
X00236076Y00114412D01*
D02*
G37*
%LPD*%
D12*
X00154440Y00296170D02*
X00150377D01*
X00152409D01*
Y00290076D01*
X00148346D02*
Y00296170D01*
X00145299D01*
X00144283Y00295154D01*
Y00293123D01*
X00145299Y00292107D01*
X00148346D01*
X00138189Y00296170D02*
X00142252D01*
Y00293123D01*
X00140221Y00294139D01*
X00139205D01*
X00138189Y00293123D01*
Y00291092D01*
X00139205Y00290076D01*
X00141236D01*
X00142252Y00291092D01*
M02*
