G04*
G04 #@! TF.GenerationSoftware,Altium Limited,Altium Designer,20.1.8 (145)*
G04*
G04 Layer_Physical_Order=2*
G04 Layer_Color=16711680*
%FSAX44Y44*%
%MOMM*%
G71*
G04*
G04 #@! TF.SameCoordinates,4BD3250C-79EC-4D4E-AA4E-9321392E63C2*
G04*
G04*
G04 #@! TF.FilePolarity,Positive*
G04*
G01*
G75*
%ADD13C,0.1270*%
%ADD37C,1.0000*%
%ADD59C,1.5000*%
G04:AMPARAMS|DCode=60|XSize=1.5mm|YSize=1.5mm|CornerRadius=0.15mm|HoleSize=0mm|Usage=FLASHONLY|Rotation=180.000|XOffset=0mm|YOffset=0mm|HoleType=Round|Shape=RoundedRectangle|*
%AMROUNDEDRECTD60*
21,1,1.5000,1.2000,0,0,180.0*
21,1,1.2000,1.5000,0,0,180.0*
1,1,0.3000,-0.6000,0.6000*
1,1,0.3000,0.6000,0.6000*
1,1,0.3000,0.6000,-0.6000*
1,1,0.3000,-0.6000,-0.6000*
%
%ADD60ROUNDEDRECTD60*%
%ADD67O,4.0000X2.0000*%
%ADD68C,0.7000*%
%ADD69C,3.8000*%
%ADD70C,0.6700*%
G04:AMPARAMS|DCode=71|XSize=1.3mm|YSize=2mm|CornerRadius=0.65mm|HoleSize=0mm|Usage=FLASHONLY|Rotation=0.000|XOffset=0mm|YOffset=0mm|HoleType=Round|Shape=RoundedRectangle|*
%AMROUNDEDRECTD71*
21,1,1.3000,0.7000,0,0,0.0*
21,1,0.0000,2.0000,0,0,0.0*
1,1,1.3000,0.0000,-0.3500*
1,1,1.3000,0.0000,-0.3500*
1,1,1.3000,0.0000,0.3500*
1,1,1.3000,0.0000,0.3500*
%
%ADD71ROUNDEDRECTD71*%
G04:AMPARAMS|DCode=72|XSize=2mm|YSize=2mm|CornerRadius=0.5mm|HoleSize=0mm|Usage=FLASHONLY|Rotation=0.000|XOffset=0mm|YOffset=0mm|HoleType=Round|Shape=RoundedRectangle|*
%AMROUNDEDRECTD72*
21,1,2.0000,1.0000,0,0,0.0*
21,1,1.0000,2.0000,0,0,0.0*
1,1,1.0000,0.5000,-0.5000*
1,1,1.0000,-0.5000,-0.5000*
1,1,1.0000,-0.5000,0.5000*
1,1,1.0000,0.5000,0.5000*
%
%ADD72ROUNDEDRECTD72*%
G04:AMPARAMS|DCode=73|XSize=1.6mm|YSize=2mm|CornerRadius=0.16mm|HoleSize=0mm|Usage=FLASHONLY|Rotation=0.000|XOffset=0mm|YOffset=0mm|HoleType=Round|Shape=RoundedRectangle|*
%AMROUNDEDRECTD73*
21,1,1.6000,1.6800,0,0,0.0*
21,1,1.2800,2.0000,0,0,0.0*
1,1,0.3200,0.6400,-0.8400*
1,1,0.3200,-0.6400,-0.8400*
1,1,0.3200,-0.6400,0.8400*
1,1,0.3200,0.6400,0.8400*
%
%ADD73ROUNDEDRECTD73*%
%ADD74C,1.8000*%
%ADD75C,0.6600*%
%ADD76C,0.5600*%
G36*
X00030000Y00318591D02*
X00410000D01*
X00410051Y00318598D01*
X00412244Y00318512D01*
X00414474Y00318248D01*
X00416676Y00317809D01*
X00418838Y00317200D01*
X00420945Y00316423D01*
X00422984Y00315483D01*
X00424943Y00314385D01*
X00426810Y00313138D01*
X00428574Y00311747D01*
X00430223Y00310223D01*
X00431747Y00308574D01*
X00433138Y00306810D01*
X00434385Y00304943D01*
X00435482Y00302984D01*
X00436423Y00300945D01*
X00437200Y00298838D01*
X00437809Y00296677D01*
X00438247Y00294474D01*
X00438512Y00292244D01*
X00438550Y00291260D01*
X00438591Y00290000D01*
X00438591Y00290000D01*
X00438591Y00288761D01*
Y00030000D01*
X00438598Y00029949D01*
X00438512Y00027756D01*
X00438247Y00025526D01*
X00437809Y00023324D01*
X00437200Y00021162D01*
X00436423Y00019055D01*
X00435482Y00017016D01*
X00434385Y00015057D01*
X00433138Y00013190D01*
X00431747Y00011426D01*
X00430223Y00009777D01*
X00428574Y00008253D01*
X00426810Y00006862D01*
X00424943Y00005615D01*
X00422984Y00004518D01*
X00420945Y00003577D01*
X00418838Y00002800D01*
X00416676Y00002191D01*
X00414474Y00001752D01*
X00412244Y00001488D01*
X00411263Y00001450D01*
X00410000Y00001409D01*
X00410000Y00001409D01*
X00408752Y00001409D01*
X00377494D01*
Y00057227D01*
X00377396Y00057722D01*
X00377115Y00058142D01*
X00376695Y00058423D01*
X00376200Y00058522D01*
X00213121D01*
X00212626Y00058423D01*
X00212206Y00058142D01*
X00211925Y00057722D01*
X00211827Y00057227D01*
Y00001409D01*
X00030000D01*
X00029949Y00001402D01*
X00027756Y00001488D01*
X00025526Y00001752D01*
X00023324Y00002191D01*
X00021162Y00002800D01*
X00019055Y00003577D01*
X00017016Y00004518D01*
X00015057Y00005615D01*
X00013190Y00006862D01*
X00011426Y00008253D01*
X00009777Y00009777D01*
X00008253Y00011426D01*
X00006862Y00013190D01*
X00005615Y00015057D01*
X00004518Y00017016D01*
X00003577Y00019055D01*
X00002800Y00021162D01*
X00002191Y00023324D01*
X00001752Y00025526D01*
X00001488Y00027756D01*
X00001402Y00029949D01*
X00001409Y00030000D01*
Y00290223D01*
X00001488Y00292244D01*
X00001752Y00294474D01*
X00002191Y00296677D01*
X00002800Y00298838D01*
X00003577Y00300945D01*
X00004518Y00302984D01*
X00005615Y00304943D01*
X00006862Y00306810D01*
X00008253Y00308574D01*
X00009777Y00310223D01*
X00011426Y00311747D01*
X00013190Y00313138D01*
X00015057Y00314385D01*
X00017016Y00315483D01*
X00019055Y00316423D01*
X00021162Y00317200D01*
X00023324Y00317809D01*
X00025526Y00318248D01*
X00027756Y00318512D01*
X00029949Y00318598D01*
X00030000Y00318591D01*
D02*
G37*
%LPC*%
G36*
X00318314Y00315070D02*
X00317516Y00314991D01*
X00316749Y00314758D01*
X00316042Y00314380D01*
X00315422Y00313872D01*
X00314914Y00313252D01*
X00314727Y00312901D01*
X00132740Y00312901D01*
X00132552Y00313252D01*
X00132044Y00313872D01*
X00131424Y00314380D01*
X00130717Y00314758D01*
X00129950Y00314991D01*
X00129152Y00315070D01*
X00128354Y00314991D01*
X00127587Y00314758D01*
X00126880Y00314380D01*
X00126260Y00313872D01*
X00125752Y00313252D01*
X00125374Y00312545D01*
X00125141Y00311778D01*
X00125062Y00310980D01*
X00125141Y00310182D01*
X00125374Y00309415D01*
X00125752Y00308708D01*
X00126260Y00308088D01*
X00126880Y00307579D01*
X00127587Y00307201D01*
X00128354Y00306969D01*
X00129152Y00306890D01*
X00129950Y00306969D01*
X00130717Y00307201D01*
X00131424Y00307579D01*
X00132044Y00308088D01*
X00132552Y00308708D01*
X00132740Y00309058D01*
X00314727Y00309058D01*
X00314914Y00308708D01*
X00315422Y00308088D01*
X00316042Y00307579D01*
X00316749Y00307201D01*
X00317516Y00306969D01*
X00318314Y00306890D01*
X00319112Y00306969D01*
X00319879Y00307201D01*
X00320587Y00307579D01*
X00321206Y00308088D01*
X00321715Y00308708D01*
X00322093Y00309415D01*
X00322325Y00310182D01*
X00322404Y00310980D01*
X00322325Y00311778D01*
X00322093Y00312545D01*
X00321715Y00313252D01*
X00321206Y00313872D01*
X00320587Y00314380D01*
X00319879Y00314758D01*
X00319112Y00314991D01*
X00318314Y00315070D01*
D02*
G37*
G36*
X00145760Y00283670D02*
X00144780Y00283574D01*
X00143838Y00283288D01*
X00142969Y00282824D01*
X00142208Y00282199D01*
X00141583Y00281437D01*
X00141119Y00280569D01*
X00140833Y00279626D01*
X00140736Y00278646D01*
X00140833Y00277666D01*
X00141119Y00276723D01*
X00141583Y00275855D01*
X00142208Y00275093D01*
X00142969Y00274469D01*
X00143838Y00274004D01*
X00144780Y00273718D01*
X00145760Y00273622D01*
X00146741Y00273718D01*
X00147683Y00274004D01*
X00148552Y00274469D01*
X00149313Y00275093D01*
X00149938Y00275855D01*
X00150402Y00276723D01*
X00150688Y00277666D01*
X00150785Y00278646D01*
X00150688Y00279626D01*
X00150402Y00280569D01*
X00149938Y00281437D01*
X00149313Y00282199D01*
X00148552Y00282824D01*
X00147683Y00283288D01*
X00146741Y00283574D01*
X00145760Y00283670D01*
D02*
G37*
G36*
X00424384Y00242793D02*
X00423449Y00242701D01*
X00422550Y00242428D01*
X00421721Y00241985D01*
X00420995Y00241389D01*
X00420399Y00240663D01*
X00419956Y00239834D01*
X00419683Y00238935D01*
X00419591Y00238000D01*
X00419683Y00237065D01*
X00419956Y00236166D01*
X00420399Y00235337D01*
X00420995Y00234611D01*
X00421721Y00234015D01*
X00422550Y00233572D01*
X00423449Y00233299D01*
X00424384Y00233207D01*
X00425319Y00233299D01*
X00426218Y00233572D01*
X00427047Y00234015D01*
X00427773Y00234611D01*
X00428369Y00235337D01*
X00428812Y00236166D01*
X00429085Y00237065D01*
X00429177Y00238000D01*
X00429085Y00238935D01*
X00428812Y00239834D01*
X00428369Y00240663D01*
X00427773Y00241389D01*
X00427047Y00241985D01*
X00426218Y00242428D01*
X00425319Y00242701D01*
X00424384Y00242793D01*
D02*
G37*
G36*
X00406384D02*
X00405449Y00242701D01*
X00404550Y00242428D01*
X00403721Y00241985D01*
X00402995Y00241389D01*
X00402399Y00240663D01*
X00401956Y00239834D01*
X00401683Y00238935D01*
X00401591Y00238000D01*
X00401683Y00237065D01*
X00401956Y00236166D01*
X00402399Y00235337D01*
X00402995Y00234611D01*
X00403721Y00234015D01*
X00404550Y00233572D01*
X00405449Y00233299D01*
X00406384Y00233207D01*
X00407319Y00233299D01*
X00408218Y00233572D01*
X00409047Y00234015D01*
X00409773Y00234611D01*
X00410369Y00235337D01*
X00410812Y00236166D01*
X00411085Y00237065D01*
X00411177Y00238000D01*
X00411085Y00238935D01*
X00410812Y00239834D01*
X00410369Y00240663D01*
X00409773Y00241389D01*
X00409047Y00241985D01*
X00408218Y00242428D01*
X00407319Y00242701D01*
X00406384Y00242793D01*
D02*
G37*
G36*
X00164159Y00264338D02*
X00163361Y00264259D01*
X00162594Y00264026D01*
X00161887Y00263648D01*
X00161267Y00263140D01*
X00160759Y00262520D01*
X00160381Y00261813D01*
X00160148Y00261046D01*
X00160069Y00260248D01*
X00160148Y00259450D01*
X00160381Y00258683D01*
X00160759Y00257976D01*
X00161267Y00257356D01*
X00161887Y00256847D01*
X00162238Y00256660D01*
Y00209884D01*
X00162238Y00209884D01*
X00162303Y00209387D01*
X00162495Y00208923D01*
X00162800Y00208525D01*
X00163522Y00207803D01*
X00163523Y00207803D01*
X00163921Y00207498D01*
X00164384Y00207306D01*
X00164881Y00207240D01*
X00164881Y00207240D01*
X00165411D01*
X00165599Y00206890D01*
X00166107Y00206270D01*
X00166727Y00205761D01*
X00167434Y00205383D01*
X00168201Y00205151D01*
X00168999Y00205072D01*
X00169797Y00205151D01*
X00170564Y00205383D01*
X00171271Y00205761D01*
X00171891Y00206270D01*
X00172399Y00206890D01*
X00172777Y00207597D01*
X00173010Y00208364D01*
X00173089Y00209162D01*
X00173010Y00209960D01*
X00172777Y00210727D01*
X00172399Y00211434D01*
X00171891Y00212054D01*
X00171271Y00212562D01*
X00170564Y00212940D01*
X00169797Y00213173D01*
X00168999Y00213251D01*
X00168201Y00213173D01*
X00167434Y00212940D01*
X00167351Y00212896D01*
X00166080Y00213624D01*
Y00256660D01*
X00166431Y00256847D01*
X00167051Y00257356D01*
X00167560Y00257976D01*
X00167938Y00258683D01*
X00168170Y00259450D01*
X00168249Y00260248D01*
X00168170Y00261046D01*
X00167938Y00261813D01*
X00167560Y00262520D01*
X00167051Y00263140D01*
X00166431Y00263648D01*
X00165724Y00264026D01*
X00164957Y00264259D01*
X00164159Y00264338D01*
D02*
G37*
G36*
X00425066Y00120021D02*
X00423919Y00119946D01*
X00422791Y00119721D01*
X00421703Y00119352D01*
X00420672Y00118843D01*
X00419716Y00118205D01*
X00418851Y00117447D01*
X00418093Y00116582D01*
X00417455Y00115626D01*
X00416946Y00114595D01*
X00416577Y00113507D01*
X00416352Y00112379D01*
X00416277Y00111232D01*
X00416352Y00110085D01*
X00416577Y00108957D01*
X00416946Y00107869D01*
X00417455Y00106838D01*
X00418093Y00105882D01*
X00418851Y00105017D01*
X00419716Y00104259D01*
X00420672Y00103621D01*
X00421703Y00103112D01*
X00422791Y00102743D01*
X00423919Y00102518D01*
X00425066Y00102443D01*
X00426213Y00102518D01*
X00427341Y00102743D01*
X00428429Y00103112D01*
X00429460Y00103621D01*
X00430416Y00104259D01*
X00431281Y00105017D01*
X00432039Y00105882D01*
X00432677Y00106838D01*
X00433186Y00107869D01*
X00433555Y00108957D01*
X00433780Y00110085D01*
X00433855Y00111232D01*
X00433780Y00112379D01*
X00433555Y00113507D01*
X00433186Y00114595D01*
X00432677Y00115626D01*
X00432039Y00116582D01*
X00431281Y00117447D01*
X00430416Y00118205D01*
X00429460Y00118843D01*
X00428429Y00119352D01*
X00427341Y00119721D01*
X00426213Y00119946D01*
X00425066Y00120021D01*
D02*
G37*
G36*
X00399666D02*
X00398519Y00119946D01*
X00397391Y00119721D01*
X00396303Y00119352D01*
X00395272Y00118843D01*
X00394316Y00118205D01*
X00393451Y00117447D01*
X00392693Y00116582D01*
X00392055Y00115626D01*
X00391546Y00114595D01*
X00391177Y00113507D01*
X00390952Y00112379D01*
X00390877Y00111232D01*
X00390952Y00110085D01*
X00391177Y00108957D01*
X00391546Y00107869D01*
X00392055Y00106838D01*
X00392693Y00105882D01*
X00393451Y00105017D01*
X00394316Y00104259D01*
X00395272Y00103621D01*
X00396303Y00103112D01*
X00397391Y00102743D01*
X00398519Y00102518D01*
X00399666Y00102443D01*
X00400813Y00102518D01*
X00401941Y00102743D01*
X00403029Y00103112D01*
X00404060Y00103621D01*
X00405016Y00104259D01*
X00405881Y00105017D01*
X00406639Y00105882D01*
X00407277Y00106838D01*
X00407786Y00107869D01*
X00408155Y00108957D01*
X00408380Y00110085D01*
X00408455Y00111232D01*
X00408380Y00112379D01*
X00408155Y00113507D01*
X00407786Y00114595D01*
X00407277Y00115626D01*
X00406639Y00116582D01*
X00405881Y00117447D01*
X00405016Y00118205D01*
X00404060Y00118843D01*
X00403029Y00119352D01*
X00401941Y00119721D01*
X00400813Y00119946D01*
X00399666Y00120021D01*
D02*
G37*
G36*
X00431066Y00094626D02*
X00430146D01*
Y00090912D01*
X00433860D01*
Y00091832D01*
X00433765Y00092555D01*
X00433486Y00093229D01*
X00433042Y00093808D01*
X00432463Y00094252D01*
X00431789Y00094531D01*
X00431066Y00094626D01*
D02*
G37*
G36*
X00419986D02*
X00419066D01*
X00418343Y00094531D01*
X00417669Y00094252D01*
X00417090Y00093808D01*
X00416646Y00093229D01*
X00416367Y00092555D01*
X00416272Y00091832D01*
Y00090912D01*
X00419986D01*
Y00094626D01*
D02*
G37*
G36*
X00399666Y00094621D02*
X00398519Y00094546D01*
X00397391Y00094321D01*
X00396303Y00093952D01*
X00395272Y00093443D01*
X00394316Y00092805D01*
X00393451Y00092047D01*
X00392693Y00091182D01*
X00392055Y00090226D01*
X00391546Y00089195D01*
X00391177Y00088107D01*
X00390952Y00086979D01*
X00390877Y00085832D01*
X00390952Y00084685D01*
X00391177Y00083557D01*
X00391546Y00082469D01*
X00392055Y00081438D01*
X00392693Y00080482D01*
X00393451Y00079617D01*
X00394316Y00078859D01*
X00395272Y00078221D01*
X00396303Y00077712D01*
X00397391Y00077343D01*
X00398519Y00077118D01*
X00399666Y00077043D01*
X00400813Y00077118D01*
X00401941Y00077343D01*
X00403029Y00077712D01*
X00404060Y00078221D01*
X00405016Y00078859D01*
X00405881Y00079617D01*
X00406639Y00080482D01*
X00407277Y00081438D01*
X00407786Y00082469D01*
X00408155Y00083557D01*
X00408380Y00084685D01*
X00408455Y00085832D01*
X00408380Y00086979D01*
X00408155Y00088107D01*
X00407786Y00089195D01*
X00407277Y00090226D01*
X00406639Y00091182D01*
X00405881Y00092047D01*
X00405016Y00092805D01*
X00404060Y00093443D01*
X00403029Y00093952D01*
X00401941Y00094321D01*
X00400813Y00094546D01*
X00399666Y00094621D01*
D02*
G37*
G36*
X00433860Y00080752D02*
X00430146D01*
Y00077038D01*
X00431066D01*
X00431789Y00077133D01*
X00432463Y00077412D01*
X00433042Y00077856D01*
X00433486Y00078435D01*
X00433765Y00079109D01*
X00433860Y00079832D01*
Y00080752D01*
D02*
G37*
G36*
X00419986D02*
X00416272D01*
Y00079832D01*
X00416367Y00079109D01*
X00416646Y00078435D01*
X00417090Y00077856D01*
X00417669Y00077412D01*
X00418343Y00077133D01*
X00419066Y00077038D01*
X00419986D01*
Y00080752D01*
D02*
G37*
G36*
X00425066Y00069221D02*
X00423919Y00069146D01*
X00422791Y00068921D01*
X00421703Y00068552D01*
X00420672Y00068043D01*
X00419716Y00067405D01*
X00418851Y00066647D01*
X00418093Y00065782D01*
X00417455Y00064826D01*
X00416946Y00063795D01*
X00416577Y00062707D01*
X00416352Y00061579D01*
X00416277Y00060432D01*
X00416352Y00059285D01*
X00416577Y00058157D01*
X00416946Y00057069D01*
X00417455Y00056038D01*
X00418093Y00055082D01*
X00418851Y00054217D01*
X00419716Y00053459D01*
X00420672Y00052821D01*
X00421703Y00052312D01*
X00422791Y00051943D01*
X00423919Y00051718D01*
X00425066Y00051643D01*
X00426213Y00051718D01*
X00427341Y00051943D01*
X00428429Y00052312D01*
X00429460Y00052821D01*
X00430416Y00053459D01*
X00431281Y00054217D01*
X00432039Y00055082D01*
X00432677Y00056038D01*
X00433186Y00057069D01*
X00433555Y00058157D01*
X00433780Y00059285D01*
X00433855Y00060432D01*
X00433780Y00061579D01*
X00433555Y00062707D01*
X00433186Y00063795D01*
X00432677Y00064826D01*
X00432039Y00065782D01*
X00431281Y00066647D01*
X00430416Y00067405D01*
X00429460Y00068043D01*
X00428429Y00068552D01*
X00427341Y00068921D01*
X00426213Y00069146D01*
X00425066Y00069221D01*
D02*
G37*
G36*
X00399666D02*
X00398519Y00069146D01*
X00397391Y00068921D01*
X00396303Y00068552D01*
X00395272Y00068043D01*
X00394316Y00067405D01*
X00393451Y00066647D01*
X00392693Y00065782D01*
X00392055Y00064826D01*
X00391546Y00063795D01*
X00391177Y00062707D01*
X00390952Y00061579D01*
X00390877Y00060432D01*
X00390952Y00059285D01*
X00391177Y00058157D01*
X00391546Y00057069D01*
X00392055Y00056038D01*
X00392693Y00055082D01*
X00393451Y00054217D01*
X00394316Y00053459D01*
X00395272Y00052821D01*
X00396303Y00052312D01*
X00397391Y00051943D01*
X00398519Y00051718D01*
X00399666Y00051643D01*
X00400813Y00051718D01*
X00401941Y00051943D01*
X00403029Y00052312D01*
X00404060Y00052821D01*
X00405016Y00053459D01*
X00405881Y00054217D01*
X00406639Y00055082D01*
X00407277Y00056038D01*
X00407786Y00057069D01*
X00408155Y00058157D01*
X00408380Y00059285D01*
X00408455Y00060432D01*
X00408380Y00061579D01*
X00408155Y00062707D01*
X00407786Y00063795D01*
X00407277Y00064826D01*
X00406639Y00065782D01*
X00405881Y00066647D01*
X00405016Y00067405D01*
X00404060Y00068043D01*
X00403029Y00068552D01*
X00401941Y00068921D01*
X00400813Y00069146D01*
X00399666Y00069221D01*
D02*
G37*
G36*
X00137140Y00029287D02*
Y00023084D01*
X00143343D01*
X00143272Y00023988D01*
X00143042Y00024948D01*
X00142664Y00025859D01*
X00142148Y00026701D01*
X00141507Y00027451D01*
X00140757Y00028092D01*
X00139915Y00028608D01*
X00139004Y00028986D01*
X00138044Y00029216D01*
X00137140Y00029287D01*
D02*
G37*
G36*
X00126980D02*
X00126076Y00029216D01*
X00125117Y00028986D01*
X00124205Y00028608D01*
X00123363Y00028092D01*
X00122613Y00027451D01*
X00121972Y00026701D01*
X00121456Y00025859D01*
X00121078Y00024948D01*
X00120848Y00023988D01*
X00120777Y00023084D01*
X00126980D01*
Y00029287D01*
D02*
G37*
G36*
X00163048Y00029033D02*
Y00022830D01*
X00169251D01*
X00169180Y00023734D01*
X00168950Y00024694D01*
X00168572Y00025605D01*
X00168056Y00026447D01*
X00167415Y00027197D01*
X00166665Y00027838D01*
X00165823Y00028354D01*
X00164912Y00028732D01*
X00163952Y00028962D01*
X00163048Y00029033D01*
D02*
G37*
G36*
X00152888D02*
X00151984Y00028962D01*
X00151025Y00028732D01*
X00150113Y00028354D01*
X00149271Y00027838D01*
X00148521Y00027197D01*
X00147880Y00026447D01*
X00147364Y00025605D01*
X00146986Y00024694D01*
X00146756Y00023734D01*
X00146685Y00022830D01*
X00152888D01*
Y00029033D01*
D02*
G37*
G36*
X00083038Y00216486D02*
X00048362D01*
X00047366Y00216388D01*
X00046409Y00216098D01*
X00045526Y00215626D01*
X00044752Y00214991D01*
X00044118Y00214218D01*
X00043646Y00213335D01*
X00043355Y00212378D01*
X00043257Y00211382D01*
Y00195789D01*
X00043257Y00195788D01*
X00043178Y00194383D01*
X00042991Y00193279D01*
X00042681Y00192202D01*
X00042252Y00191167D01*
X00041710Y00190187D01*
X00041061Y00189273D01*
X00040315Y00188437D01*
X00039479Y00187691D01*
X00038565Y00187042D01*
X00037585Y00186500D01*
X00036550Y00186072D01*
X00035473Y00185761D01*
X00034369Y00185574D01*
X00034082Y00185558D01*
X00033728Y00185503D01*
X00033372Y00185467D01*
X00033235Y00185426D01*
X00033093Y00185404D01*
X00032757Y00185281D01*
X00032415Y00185177D01*
X00032288Y00185109D01*
X00032153Y00185060D01*
X00031848Y00184874D01*
X00031532Y00184705D01*
X00031421Y00184614D01*
X00031299Y00184540D01*
X00031035Y00184298D01*
X00030759Y00184070D01*
X00030668Y00183960D01*
X00030562Y00183862D01*
X00030351Y00183574D01*
X00030124Y00183297D01*
X00030056Y00183170D01*
X00029971Y00183055D01*
X00029821Y00182730D01*
X00029652Y00182414D01*
X00029610Y00182277D01*
X00029550Y00182147D01*
X00029465Y00181800D01*
X00029362Y00181457D01*
X00029348Y00181314D01*
X00029314Y00181175D01*
X00029299Y00180817D01*
X00029264Y00180461D01*
Y00149545D01*
X00029299Y00149189D01*
X00029314Y00148832D01*
X00029348Y00148692D01*
X00029362Y00148549D01*
X00029465Y00148207D01*
X00029550Y00147859D01*
X00029610Y00147729D01*
X00029652Y00147592D01*
X00029821Y00147276D01*
X00029971Y00146952D01*
X00030056Y00146836D01*
X00030124Y00146709D01*
X00030351Y00146433D01*
X00030562Y00146144D01*
X00030668Y00146046D01*
X00030759Y00145936D01*
X00031035Y00145709D01*
X00031299Y00145466D01*
X00031421Y00145392D01*
X00031532Y00145301D01*
X00031848Y00145132D01*
X00032153Y00144946D01*
X00032288Y00144897D01*
X00032415Y00144829D01*
X00032757Y00144725D01*
X00033093Y00144602D01*
X00033235Y00144580D01*
X00033372Y00144539D01*
X00033728Y00144504D01*
X00034082Y00144449D01*
X00034369Y00144432D01*
X00035473Y00144245D01*
X00036550Y00143935D01*
X00037585Y00143506D01*
X00038565Y00142964D01*
X00039479Y00142316D01*
X00040315Y00141569D01*
X00041061Y00140733D01*
X00041710Y00139820D01*
X00042252Y00138839D01*
X00042681Y00137804D01*
X00042991Y00136727D01*
X00043178Y00135623D01*
X00043241Y00134504D01*
X00043178Y00133385D01*
X00042991Y00132281D01*
X00042681Y00131204D01*
X00042252Y00130169D01*
X00041710Y00129189D01*
X00041061Y00128275D01*
X00040315Y00127439D01*
X00039479Y00126693D01*
X00038565Y00126044D01*
X00037585Y00125503D01*
X00036550Y00125074D01*
X00035473Y00124763D01*
X00034369Y00124576D01*
X00034082Y00124560D01*
X00033728Y00124505D01*
X00033372Y00124470D01*
X00033235Y00124428D01*
X00033093Y00124406D01*
X00032757Y00124283D01*
X00032415Y00124179D01*
X00032288Y00124112D01*
X00032153Y00124062D01*
X00031848Y00123876D01*
X00031532Y00123708D01*
X00031421Y00123616D01*
X00031299Y00123542D01*
X00031035Y00123300D01*
X00030759Y00123073D01*
X00030668Y00122962D01*
X00030562Y00122865D01*
X00030351Y00122576D01*
X00030124Y00122299D01*
X00030056Y00122173D01*
X00029971Y00122057D01*
X00029821Y00121732D01*
X00029652Y00121417D01*
X00029610Y00121279D01*
X00029550Y00121149D01*
X00029465Y00120802D01*
X00029362Y00120459D01*
X00029348Y00120316D01*
X00029314Y00120177D01*
X00029299Y00119819D01*
X00029264Y00119463D01*
Y00053696D01*
X00029307Y00053254D01*
X00029341Y00052810D01*
X00029356Y00052756D01*
X00029362Y00052700D01*
X00029490Y00052276D01*
X00029611Y00051846D01*
X00029636Y00051796D01*
X00029652Y00051743D01*
X00029861Y00051351D01*
X00030063Y00050954D01*
X00030097Y00050910D01*
X00030124Y00050860D01*
X00030406Y00050516D01*
X00030681Y00050166D01*
X00030723Y00050130D01*
X00030759Y00050087D01*
X00031103Y00049804D01*
X00031440Y00049515D01*
X00031489Y00049488D01*
X00031532Y00049452D01*
X00031925Y00049242D01*
X00032312Y00049024D01*
X00032365Y00049007D01*
X00032415Y00048980D01*
X00032840Y00048851D01*
X00033263Y00048713D01*
X00034916Y00048346D01*
X00036496Y00047848D01*
X00038027Y00047214D01*
X00039497Y00046449D01*
X00040894Y00045559D01*
X00042209Y00044550D01*
X00043430Y00043430D01*
X00044550Y00042209D01*
X00045559Y00040894D01*
X00046449Y00039497D01*
X00047214Y00038027D01*
X00047848Y00036496D01*
X00048346Y00034916D01*
X00048705Y00033298D01*
X00048921Y00031655D01*
X00048994Y00030000D01*
X00048983Y00029764D01*
X00048991Y00029621D01*
X00048979Y00029479D01*
X00049018Y00029123D01*
X00049038Y00028765D01*
X00049073Y00028626D01*
X00049089Y00028484D01*
X00049197Y00028142D01*
X00049286Y00027795D01*
X00049348Y00027667D01*
X00049391Y00027530D01*
X00049564Y00027216D01*
X00049719Y00026893D01*
X00049805Y00026779D01*
X00049874Y00026654D01*
X00058705Y00013781D01*
X00058921Y00013523D01*
X00059121Y00013252D01*
X00059580Y00012742D01*
X00059830Y00012514D01*
X00060065Y00012271D01*
X00061111Y00011381D01*
X00061389Y00011188D01*
X00061654Y00010978D01*
X00062808Y00010234D01*
X00063109Y00010080D01*
X00063400Y00009906D01*
X00064642Y00009322D01*
X00064961Y00009208D01*
X00065272Y00009075D01*
X00066581Y00008660D01*
X00066912Y00008589D01*
X00067237Y00008498D01*
X00068590Y00008260D01*
X00068927Y00008234D01*
X00069262Y00008187D01*
X00070634Y00008129D01*
X00070971Y00008148D01*
X00071310Y00008145D01*
X00072677Y00008269D01*
X00073009Y00008333D01*
X00073345Y00008375D01*
X00074684Y00008679D01*
X00075005Y00008786D01*
X00075332Y00008872D01*
X00076619Y00009350D01*
X00076924Y00009498D01*
X00077236Y00009627D01*
X00078449Y00010271D01*
X00078731Y00010458D01*
X00079024Y00010627D01*
X00080141Y00011426D01*
X00080395Y00011649D01*
X00080664Y00011855D01*
X00081665Y00012794D01*
X00081888Y00013049D01*
X00082127Y00013289D01*
X00082995Y00014352D01*
X00083182Y00014634D01*
X00083387Y00014903D01*
X00084107Y00016072D01*
X00084256Y00016376D01*
X00084423Y00016670D01*
X00084721Y00017339D01*
X00085991Y00017068D01*
Y00015192D01*
X00086074Y00014144D01*
X00086319Y00013121D01*
X00086722Y00012150D01*
X00087271Y00011253D01*
X00087954Y00010454D01*
X00088753Y00009771D01*
X00089650Y00009222D01*
X00090621Y00008819D01*
X00091644Y00008574D01*
X00092692Y00008491D01*
X00105492D01*
X00106540Y00008574D01*
X00107563Y00008819D01*
X00108534Y00009222D01*
X00109431Y00009771D01*
X00110230Y00010454D01*
X00110913Y00011253D01*
X00111462Y00012150D01*
X00111865Y00013121D01*
X00112110Y00014144D01*
X00112193Y00015192D01*
Y00031992D01*
X00112110Y00033040D01*
X00111865Y00034063D01*
X00111462Y00035034D01*
X00110913Y00035931D01*
X00110230Y00036730D01*
X00109431Y00037413D01*
X00108534Y00037962D01*
X00107563Y00038365D01*
X00106540Y00038610D01*
X00105492Y00038693D01*
X00092692D01*
X00091644Y00038610D01*
X00090621Y00038365D01*
X00089650Y00037962D01*
X00089412Y00037817D01*
X00088142Y00038528D01*
X00088142Y00211382D01*
X00088044Y00212378D01*
X00087754Y00213335D01*
X00087282Y00214218D01*
X00086647Y00214991D01*
X00085874Y00215626D01*
X00084991Y00216098D01*
X00084034Y00216388D01*
X00083038Y00216486D01*
D02*
G37*
G36*
X00143343Y00012924D02*
X00137140D01*
Y00006721D01*
X00138044Y00006792D01*
X00139004Y00007023D01*
X00139915Y00007400D01*
X00140757Y00007916D01*
X00141507Y00008557D01*
X00142148Y00009307D01*
X00142664Y00010149D01*
X00143042Y00011061D01*
X00143272Y00012020D01*
X00143343Y00012924D01*
D02*
G37*
G36*
X00126980D02*
X00120777D01*
X00120848Y00012020D01*
X00121078Y00011061D01*
X00121456Y00010149D01*
X00121972Y00009307D01*
X00122613Y00008557D01*
X00123363Y00007916D01*
X00124205Y00007400D01*
X00125117Y00007023D01*
X00126076Y00006792D01*
X00126980Y00006721D01*
Y00012924D01*
D02*
G37*
G36*
X00169251Y00012670D02*
X00163048D01*
Y00006467D01*
X00163952Y00006538D01*
X00164912Y00006769D01*
X00165823Y00007146D01*
X00166665Y00007662D01*
X00167415Y00008303D01*
X00168056Y00009053D01*
X00168572Y00009895D01*
X00168950Y00010806D01*
X00169180Y00011766D01*
X00169251Y00012670D01*
D02*
G37*
G36*
X00152888D02*
X00146685D01*
X00146756Y00011766D01*
X00146986Y00010806D01*
X00147364Y00009895D01*
X00147880Y00009053D01*
X00148521Y00008303D01*
X00149271Y00007662D01*
X00150113Y00007146D01*
X00151025Y00006769D01*
X00151984Y00006538D01*
X00152888Y00006467D01*
Y00012670D01*
D02*
G37*
G36*
X00200640Y00029044D02*
X00199421Y00028948D01*
X00198232Y00028663D01*
X00197102Y00028195D01*
X00196059Y00027556D01*
X00195129Y00026761D01*
X00194335Y00025831D01*
X00193696Y00024788D01*
X00193228Y00023659D01*
X00192942Y00022469D01*
X00192846Y00021250D01*
Y00014250D01*
X00192942Y00013031D01*
X00193228Y00011842D01*
X00193696Y00010712D01*
X00194335Y00009669D01*
X00195129Y00008739D01*
X00196059Y00007944D01*
X00197102Y00007305D01*
X00198232Y00006837D01*
X00199421Y00006552D01*
X00200640Y00006456D01*
X00201859Y00006552D01*
X00203048Y00006837D01*
X00204178Y00007305D01*
X00205221Y00007944D01*
X00206151Y00008739D01*
X00206945Y00009669D01*
X00207584Y00010712D01*
X00208053Y00011842D01*
X00208338Y00013031D01*
X00208434Y00014250D01*
Y00021250D01*
X00208338Y00022469D01*
X00208053Y00023659D01*
X00207584Y00024788D01*
X00206945Y00025831D01*
X00206151Y00026761D01*
X00205221Y00027556D01*
X00204178Y00028195D01*
X00203048Y00028663D01*
X00201859Y00028948D01*
X00200640Y00029044D01*
D02*
G37*
G36*
X00180524D02*
X00179305Y00028948D01*
X00178116Y00028663D01*
X00176986Y00028195D01*
X00175943Y00027556D01*
X00175013Y00026761D01*
X00174219Y00025831D01*
X00173580Y00024788D01*
X00173111Y00023659D01*
X00172826Y00022469D01*
X00172730Y00021250D01*
Y00014250D01*
X00172826Y00013031D01*
X00173111Y00011842D01*
X00173580Y00010712D01*
X00174219Y00009669D01*
X00175013Y00008739D01*
X00175943Y00007944D01*
X00176986Y00007305D01*
X00178116Y00006837D01*
X00179305Y00006552D01*
X00180524Y00006456D01*
X00181743Y00006552D01*
X00182932Y00006837D01*
X00184062Y00007305D01*
X00185105Y00007944D01*
X00186035Y00008739D01*
X00186829Y00009669D01*
X00187468Y00010712D01*
X00187937Y00011842D01*
X00188222Y00013031D01*
X00188318Y00014250D01*
Y00021250D01*
X00188222Y00022469D01*
X00187937Y00023659D01*
X00187468Y00024788D01*
X00186829Y00025831D01*
X00186035Y00026761D01*
X00185105Y00027556D01*
X00184062Y00028195D01*
X00182932Y00028663D01*
X00181743Y00028948D01*
X00180524Y00029044D01*
D02*
G37*
%LPD*%
G36*
X00083038Y00034778D02*
X00080515Y00020662D01*
X00080515Y00020662D01*
X00080321Y00020004D01*
X00079761Y00018750D01*
X00079041Y00017581D01*
X00078173Y00016517D01*
X00077171Y00015578D01*
X00076055Y00014779D01*
X00074842Y00014135D01*
X00073555Y00013657D01*
X00072216Y00013353D01*
X00070848Y00013229D01*
X00069476Y00013287D01*
X00068124Y00013525D01*
X00066816Y00013941D01*
X00065573Y00014525D01*
X00064419Y00015269D01*
X00063373Y00016158D01*
X00062914Y00016669D01*
X00054083Y00029541D01*
X00054103Y00030000D01*
X00054011Y00032101D01*
X00053737Y00034186D01*
X00053282Y00036238D01*
X00052649Y00038244D01*
X00051845Y00040186D01*
X00050874Y00042052D01*
X00049744Y00043825D01*
X00048464Y00045493D01*
X00047043Y00047043D01*
X00045493Y00048464D01*
X00043825Y00049744D01*
X00042052Y00050874D01*
X00040186Y00051845D01*
X00038244Y00052649D01*
X00036238Y00053282D01*
X00034368Y00053696D01*
Y00119463D01*
X00034941Y00119495D01*
X00036611Y00119779D01*
X00038238Y00120248D01*
X00039803Y00120896D01*
X00041286Y00121715D01*
X00042667Y00122696D01*
X00043930Y00123824D01*
X00045059Y00125087D01*
X00046039Y00126468D01*
X00046858Y00127951D01*
X00047506Y00129516D01*
X00047975Y00131143D01*
X00048259Y00132813D01*
X00048354Y00134504D01*
X00048259Y00136195D01*
X00047975Y00137865D01*
X00047506Y00139493D01*
X00046858Y00141058D01*
X00046039Y00142540D01*
X00045059Y00143921D01*
X00043930Y00145184D01*
X00042667Y00146313D01*
X00041286Y00147293D01*
X00039803Y00148112D01*
X00038238Y00148760D01*
X00036611Y00149229D01*
X00034941Y00149513D01*
X00034368Y00149545D01*
Y00180461D01*
X00034941Y00180493D01*
X00036611Y00180777D01*
X00038238Y00181246D01*
X00039803Y00181894D01*
X00041286Y00182713D01*
X00042667Y00183693D01*
X00043930Y00184822D01*
X00045059Y00186085D01*
X00046039Y00187466D01*
X00046858Y00188949D01*
X00047506Y00190514D01*
X00047975Y00192141D01*
X00048259Y00193811D01*
X00048354Y00195502D01*
X00048362D01*
Y00211382D01*
X00083038D01*
X00083038Y00034778D01*
D02*
G37*
D13*
X00164159Y00209884D02*
Y00260248D01*
X00164881Y00209162D02*
X00168999D01*
X00164159Y00209884D02*
X00164881Y00209162D01*
X00129152Y00310980D02*
X00318314Y00310980D01*
D37*
X00145760Y00278646D02*
D03*
D59*
D03*
X00425066Y00111232D02*
D03*
Y00060432D02*
D03*
X00399666D02*
D03*
Y00085832D02*
D03*
Y00111232D02*
D03*
D60*
X00425066Y00085832D02*
D03*
D67*
X00023250Y00195502D02*
D03*
Y00134504D02*
D03*
X00416750Y00195502D02*
D03*
Y00134504D02*
D03*
D68*
X00424384Y00238000D02*
D03*
X00406384D02*
D03*
D69*
X00410000Y00290000D02*
D03*
Y00030000D02*
D03*
X00030000D02*
D03*
Y00290000D02*
D03*
D70*
X00145760Y00278646D02*
D03*
D71*
X00200640Y00017750D02*
D03*
X00180524D02*
D03*
D72*
X00157968D02*
D03*
X00132060Y00018004D02*
D03*
D73*
X00099092Y00023592D02*
D03*
D74*
X00070592D02*
D03*
D75*
X00231628Y00244328D02*
D03*
X00223739D02*
D03*
X00215611D02*
D03*
X00207498D02*
D03*
X00196192Y00261366D02*
D03*
X00170688Y00254742D02*
D03*
X00203873Y00066967D02*
D03*
X00027412Y00250283D02*
D03*
Y00241976D02*
D03*
Y00233340D02*
D03*
X00175006Y00142631D02*
D03*
X00366432Y00235972D02*
D03*
X00185119Y00254742D02*
D03*
X00177903D02*
D03*
X00192335Y00254996D02*
D03*
X00308430Y00290380D02*
D03*
X00188976Y00261366D02*
D03*
X00372964Y00240520D02*
D03*
X00172000Y00032746D02*
D03*
X00181140D02*
D03*
X00077915Y00207984D02*
D03*
X00135294Y00032746D02*
D03*
X00300549Y00290380D02*
D03*
X00174544Y00261366D02*
D03*
X00292668Y00290380D02*
D03*
X00201300Y00186055D02*
D03*
X00284370Y00290380D02*
D03*
X00276073D02*
D03*
X00080618Y00279246D02*
D03*
X00415290Y00238000D02*
D03*
X00055472Y00047780D02*
D03*
X00126117Y00032746D02*
D03*
X00054314Y00190226D02*
D03*
X00062181D02*
D03*
X00070048D02*
D03*
X00077915D02*
D03*
X00054314Y00136449D02*
D03*
X00062181D02*
D03*
X00070048D02*
D03*
X00077915D02*
D03*
X00144470Y00032746D02*
D03*
X00162823D02*
D03*
X00078735Y00047780D02*
D03*
X00070981D02*
D03*
X00063226D02*
D03*
X00055472Y00066530D02*
D03*
X00063226D02*
D03*
X00070981D02*
D03*
X00078735D02*
D03*
X00077915Y00119018D02*
D03*
X00070048D02*
D03*
X00062181D02*
D03*
X00054314D02*
D03*
X00063480Y00039350D02*
D03*
X00071234D02*
D03*
X00078989D02*
D03*
X00259478Y00290380D02*
D03*
X00267776D02*
D03*
X00153647Y00032746D02*
D03*
X00070048Y00207984D02*
D03*
X00062181D02*
D03*
X00054314D02*
D03*
X00207498Y00236962D02*
D03*
X00231628Y00237216D02*
D03*
X00215611Y00237000D02*
D03*
X00223739D02*
D03*
X00070618Y00279246D02*
D03*
X00060618D02*
D03*
X00181760Y00261366D02*
D03*
X00195156Y00091420D02*
D03*
X00091864Y00279246D02*
D03*
X00100171D02*
D03*
X00108807D02*
D03*
D76*
X00164159Y00260248D02*
D03*
X00168999Y00209162D02*
D03*
X00318314Y00310980D02*
D03*
X00129152D02*
D03*
M02*
