%TF.GenerationSoftware,Altium Limited,Altium Designer,20.1.8 (145)*%
G04 Layer_Color=16777215*
%FSLAX24Y24*%
%MOIN*%
%TF.SameCoordinates,72321C45-B03C-47D1-81AD-3863C6C0A768*%
%TF.FilePolarity,Positive*%
%TF.FileFunction,Legend,Top*%
%TF.Part,Single*%
G01*
G75*
%TA.AperFunction,NonConductor*%
%ADD39C,0.0060*%
%ADD40C,0.0098*%
%ADD41C,0.0100*%
%ADD42C,0.0040*%
%ADD43C,0.0050*%
D39*
X7875Y5108D02*
G03*
X7875Y5108I-30J0D01*
G01*
X9617Y6516D02*
G03*
X9617Y6516I-30J0D01*
G01*
X8602Y2296D02*
G03*
X8602Y2536I0J120D01*
G01*
X8702Y1264D02*
G03*
X8702Y1264I-30J0D01*
G01*
X7402Y4981D02*
X9371D01*
Y7344D01*
X7402D02*
X9371D01*
X7402Y4981D02*
Y7344D01*
X9460Y6959D02*
X11822D01*
Y4990D02*
Y6959D01*
X9460Y4990D02*
X11822D01*
X9460D02*
Y6959D01*
X2067Y3386D02*
Y8425D01*
X7146D01*
Y3386D02*
Y8425D01*
X2067Y3386D02*
X7146D01*
X8602Y1575D02*
Y3256D01*
X10612Y1575D02*
Y3256D01*
X7843Y4037D02*
X7793Y4087D01*
X7693D01*
X7643Y4037D01*
Y3837D01*
X7693Y3787D01*
X7793D01*
X7843Y3837D01*
Y3937D01*
X7743D01*
X7943Y3787D02*
Y4087D01*
X8143Y3787D01*
Y4087D01*
X8243D02*
Y3787D01*
X8393D01*
X8443Y3837D01*
Y4037D01*
X8393Y4087D01*
X8243D01*
X452Y4196D02*
Y3996D01*
X552Y3896D01*
X652Y3996D01*
Y4196D01*
X902D02*
X802D01*
X752Y4146D01*
Y3946D01*
X802Y3896D01*
X902D01*
X952Y3946D01*
Y4146D01*
X902Y4196D01*
X1052D02*
Y3946D01*
X1102Y3896D01*
X1202D01*
X1252Y3946D01*
Y4196D01*
X1352D02*
X1552D01*
X1452D01*
Y3896D01*
X12385Y4761D02*
Y4561D01*
X12485Y4461D01*
X12585Y4561D01*
Y4761D01*
X12685D02*
X12785D01*
X12735D01*
Y4461D01*
X12685D01*
X12785D01*
X12935D02*
Y4761D01*
X13135Y4461D01*
Y4761D01*
X12199Y4196D02*
Y3896D01*
X12349D01*
X12399Y3946D01*
Y4146D01*
X12349Y4196D01*
X12199D01*
X12499Y3896D02*
Y4096D01*
X12599Y4196D01*
X12699Y4096D01*
Y3896D01*
Y4046D01*
X12499D01*
X12799Y4196D02*
X12999D01*
X12899D01*
Y3896D01*
X13099D02*
Y4096D01*
X13199Y4196D01*
X13299Y4096D01*
Y3896D01*
Y4046D01*
X13099D01*
D40*
X2253Y812D02*
G03*
X2253Y812I-49J0D01*
G01*
X4143D02*
G03*
X4143Y812I-49J0D01*
G01*
X6032D02*
G03*
X6032Y812I-49J0D01*
G01*
D41*
X3403Y1533D02*
G03*
X2404Y1533I-499J-1070D01*
G01*
X5293D02*
G03*
X4294Y1533I-499J-1070D01*
G01*
X7182D02*
G03*
X6184Y1533I-499J-1070D01*
G01*
X2904Y1890D02*
Y2402D01*
Y1112D02*
Y1644D01*
X2392Y1890D02*
X3415D01*
X4282D02*
X5305D01*
X4793Y1112D02*
Y1644D01*
Y1890D02*
Y2402D01*
X6683Y1890D02*
Y2402D01*
Y1112D02*
Y1644D01*
X6171Y1890D02*
X7195D01*
D42*
X13753Y984D02*
G03*
X13753Y984I-964J0D01*
G01*
Y7677D02*
G03*
X13753Y7677I-964J0D01*
G01*
X1948Y984D02*
G03*
X1948Y984I-964J0D01*
G01*
Y7677D02*
G03*
X1948Y7677I-964J0D01*
G01*
X10580Y4270D02*
Y4329D01*
Y4427D02*
Y4486D01*
X10462Y4427D02*
X10698D01*
X10462Y4329D02*
X10698D01*
X8239Y1463D02*
Y1522D01*
Y1620D02*
Y1679D01*
X8121Y1620D02*
X8357D01*
X8121Y1522D02*
X8357D01*
X11181Y3272D02*
X11210Y3337D01*
X11235Y3271D01*
X11261Y3205D01*
X11290Y3270D01*
X11318Y3335D01*
X11344Y3269D01*
X11370Y3203D01*
X11398Y3268D01*
X11180Y2781D02*
X11209Y2846D01*
X11235Y2780D01*
X11260Y2714D01*
X11289Y2779D01*
X11318Y2844D01*
X11343Y2778D01*
X11369Y2712D01*
X11398Y2777D01*
X11339Y1769D02*
X11398D01*
X11181D02*
X11240D01*
X11240Y1651D02*
Y1887D01*
X11339Y1651D02*
Y1887D01*
X11014Y516D02*
X11042Y581D01*
X11068Y515D01*
X11094Y449D01*
X11122Y514D01*
X11151Y579D01*
X11177Y513D01*
X11202Y447D01*
X11231Y512D01*
X10089Y394D02*
Y630D01*
X10188Y394D02*
Y630D01*
X10188Y512D02*
X10247D01*
X10030D02*
X10089D01*
X1092Y6004D02*
Y6516D01*
X1269Y6260D02*
X1525D01*
X836D02*
X1092D01*
X1269Y6004D02*
Y6516D01*
X2018Y285D02*
Y3238D01*
X3789Y285D02*
Y3238D01*
X2018Y285D02*
X2303D01*
X2018Y3238D02*
X2303D01*
X3504Y285D02*
X3789D01*
X3504Y3238D02*
X3789D01*
X5394D02*
X5679D01*
X5394Y285D02*
X5679D01*
X3908Y3238D02*
X4193D01*
X3908Y285D02*
X4193D01*
X5679D02*
Y3238D01*
X3908Y285D02*
Y3238D01*
X5797Y285D02*
Y3238D01*
X7569Y285D02*
Y3238D01*
X5797Y285D02*
X6083D01*
X5797Y3238D02*
X6083D01*
X7284Y285D02*
X7569D01*
X7284Y3238D02*
X7569D01*
X8654Y339D02*
Y634D01*
X8772Y339D02*
Y634D01*
Y486D02*
X8850D01*
X8575D02*
X8654D01*
X11180Y2277D02*
X11209Y2342D01*
X11235Y2276D01*
X11260Y2210D01*
X11289Y2275D01*
X11318Y2340D01*
X11343Y2274D01*
X11369Y2208D01*
X11398Y2272D01*
X11116Y4487D02*
X11181Y4459D01*
X11115Y4433D02*
X11181Y4459D01*
X11049Y4407D02*
X11115Y4433D01*
X11049Y4407D02*
X11114Y4378D01*
X11179Y4350D01*
X11113Y4324D02*
X11179Y4350D01*
X11047Y4298D02*
X11113Y4324D01*
X11047Y4298D02*
X11112Y4270D01*
X11243Y7845D02*
Y8101D01*
Y7412D02*
Y7667D01*
X10987D02*
X11499D01*
X10987Y7845D02*
X11499D01*
X10101D02*
Y8101D01*
Y7412D02*
Y7667D01*
X9845D02*
X10357D01*
X9845Y7845D02*
X10357D01*
X11995Y1943D02*
X11755D01*
Y2063D01*
X11795Y2103D01*
X11875D01*
X11915Y2063D01*
Y1943D01*
Y2023D02*
X11995Y2103D01*
X11795Y2223D02*
X11835D01*
Y2183D01*
Y2263D01*
Y2223D01*
X11955D01*
X11995Y2263D01*
Y2543D02*
Y2383D01*
X11835Y2543D01*
X11795D01*
X11755Y2503D01*
Y2423D01*
X11795Y2383D01*
D43*
X11785Y154D02*
X11545D01*
Y274D01*
X11585Y314D01*
X11665D01*
X11705Y274D01*
Y154D01*
Y234D02*
X11785Y314D01*
Y434D02*
Y514D01*
X11745Y554D01*
X11665D01*
X11625Y514D01*
Y434D01*
X11665Y394D01*
X11745D01*
X11785Y434D01*
Y634D02*
X11625D01*
Y754D01*
X11665Y794D01*
X11785D01*
X8450Y3373D02*
X8650D01*
X8690Y3413D01*
Y3493D01*
X8650Y3533D01*
X8450D01*
X8690Y3613D02*
Y3693D01*
Y3653D01*
X8450D01*
X8490Y3613D01*
X11625Y3870D02*
X11385D01*
Y3990D01*
X11425Y4030D01*
X11505D01*
X11545Y3990D01*
Y3870D01*
Y3950D02*
X11625Y4030D01*
Y4110D02*
Y4190D01*
Y4150D01*
X11465D01*
Y4110D01*
X11625Y4310D02*
Y4390D01*
Y4350D01*
X11385D01*
Y4310D01*
X11625Y4510D02*
Y4590D01*
Y4550D01*
X11465D01*
Y4510D01*
X11625Y4710D02*
X11465D01*
Y4750D01*
X11505Y4790D01*
X11625D01*
X11505D01*
X11465Y4830D01*
X11505Y4870D01*
X11625D01*
X11758Y2718D02*
Y2958D01*
X11878D01*
X11918Y2918D01*
Y2838D01*
X11878Y2798D01*
X11758D01*
X11838D02*
X11918Y2718D01*
X12038Y2918D02*
Y2878D01*
X11998D01*
X12078D01*
X12038D01*
Y2758D01*
X12078Y2718D01*
X12198D02*
X12278D01*
X12238D01*
Y2958D01*
X12198Y2918D01*
X11017Y3540D02*
Y3780D01*
X11137D01*
X11177Y3740D01*
Y3660D01*
X11137Y3620D01*
X11017D01*
X11097D02*
X11177Y3540D01*
X11257Y3780D02*
Y3540D01*
X11377D01*
X11417Y3580D01*
Y3620D01*
Y3660D01*
X11377Y3700D01*
X11257D01*
X11497Y3540D02*
X11577D01*
X11537D01*
Y3780D01*
X11497Y3740D01*
X7307Y8369D02*
Y8129D01*
X7467D01*
X7547D02*
X7627D01*
X7587D01*
Y8369D01*
X7547Y8329D01*
X7685Y1332D02*
X7645Y1292D01*
Y1212D01*
X7685Y1172D01*
X7845D01*
X7885Y1212D01*
Y1292D01*
X7845Y1332D01*
X7725Y1412D02*
X7885Y1492D01*
X7725Y1572D01*
Y1812D02*
Y1692D01*
X7765Y1652D01*
X7845D01*
X7885Y1692D01*
Y1812D01*
X7725Y2052D02*
Y1932D01*
X7765Y1892D01*
X7845D01*
X7885Y1932D01*
Y2052D01*
X10151Y932D02*
X10111Y972D01*
X10031D01*
X9991Y932D01*
Y772D01*
X10031Y732D01*
X10111D01*
X10151Y772D01*
X10231Y732D02*
X10351D01*
X10391Y772D01*
X10351Y812D01*
X10271D01*
X10231Y852D01*
X10271Y892D01*
X10391D01*
X10471Y732D02*
X10591D01*
X10631Y772D01*
X10591Y812D01*
X10511D01*
X10471Y852D01*
X10511Y892D01*
X10631D01*
X6128Y3702D02*
X6088Y3742D01*
X6008D01*
X5968Y3702D01*
Y3542D01*
X6008Y3502D01*
X6088D01*
X6128Y3542D01*
X6248Y3502D02*
X6328D01*
X6368Y3542D01*
Y3622D01*
X6328Y3662D01*
X6248D01*
X6208Y3622D01*
Y3542D01*
X6248Y3502D01*
X6448Y3662D02*
Y3542D01*
X6488Y3502D01*
X6607D01*
Y3662D01*
X6727Y3702D02*
Y3662D01*
X6687D01*
X6767D01*
X6727D01*
Y3542D01*
X6767Y3502D01*
X6887Y3702D02*
X6927Y3742D01*
X7007D01*
X7047Y3702D01*
Y3662D01*
X7007Y3622D01*
X6967D01*
X7007D01*
X7047Y3582D01*
Y3542D01*
X7007Y3502D01*
X6927D01*
X6887Y3542D01*
X4463Y3702D02*
X4423Y3742D01*
X4343D01*
X4303Y3702D01*
Y3542D01*
X4343Y3502D01*
X4423D01*
X4463Y3542D01*
X4583Y3502D02*
X4663D01*
X4703Y3542D01*
Y3622D01*
X4663Y3662D01*
X4583D01*
X4543Y3622D01*
Y3542D01*
X4583Y3502D01*
X4783Y3662D02*
Y3542D01*
X4823Y3502D01*
X4942D01*
Y3662D01*
X5062Y3702D02*
Y3662D01*
X5022D01*
X5102D01*
X5062D01*
Y3542D01*
X5102Y3502D01*
X5382D02*
X5222D01*
X5382Y3662D01*
Y3702D01*
X5342Y3742D01*
X5262D01*
X5222Y3702D01*
X2613D02*
X2573Y3742D01*
X2493D01*
X2453Y3702D01*
Y3542D01*
X2493Y3502D01*
X2573D01*
X2613Y3542D01*
X2733Y3502D02*
X2813D01*
X2853Y3542D01*
Y3622D01*
X2813Y3662D01*
X2733D01*
X2693Y3622D01*
Y3542D01*
X2733Y3502D01*
X2933Y3662D02*
Y3542D01*
X2973Y3502D01*
X3093D01*
Y3662D01*
X3213Y3702D02*
Y3662D01*
X3173D01*
X3253D01*
X3213D01*
Y3542D01*
X3253Y3502D01*
X3373D02*
X3453D01*
X3413D01*
Y3742D01*
X3373Y3702D01*
X8822Y7804D02*
X8782Y7764D01*
Y7684D01*
X8822Y7644D01*
X8982D01*
X9022Y7684D01*
Y7764D01*
X8982Y7804D01*
X9022Y7884D02*
Y7964D01*
Y7924D01*
X8862D01*
Y7884D01*
X9022Y8084D02*
X8862D01*
Y8204D01*
X8902Y8244D01*
X9022D01*
Y8323D02*
Y8403D01*
Y8363D01*
X8782D01*
X8822Y8323D01*
X11068Y1466D02*
X11028Y1506D01*
X10948D01*
X10908Y1466D01*
Y1306D01*
X10948Y1266D01*
X11028D01*
X11068Y1306D01*
X11188Y1266D02*
Y1466D01*
Y1386D01*
X11148D01*
X11228D01*
X11188D01*
Y1466D01*
X11228Y1506D01*
X11388Y1266D02*
Y1466D01*
Y1386D01*
X11348D01*
X11428D01*
X11388D01*
Y1466D01*
X11428Y1506D01*
X7850Y350D02*
X7810Y310D01*
Y230D01*
X7850Y190D01*
X8010D01*
X8050Y230D01*
Y310D01*
X8010Y350D01*
X7810Y430D02*
X8050D01*
Y550D01*
X8010Y590D01*
X7970D01*
X7930D01*
X7890Y550D01*
Y430D01*
Y670D02*
X8010D01*
X8050Y710D01*
Y830D01*
X8090D01*
X8130Y790D01*
Y750D01*
X8050Y830D02*
X7890D01*
X8130Y910D02*
X7890D01*
Y1030D01*
X7930Y1070D01*
X8010D01*
X8050Y1030D01*
Y910D01*
X9947Y4125D02*
X9908Y4085D01*
Y4005D01*
X9947Y3965D01*
X10107D01*
X10147Y4005D01*
Y4085D01*
X10107Y4125D01*
X9908Y4205D02*
X10147D01*
Y4325D01*
X10107Y4365D01*
X10067D01*
X10027D01*
X9987Y4325D01*
Y4205D01*
X10147Y4445D02*
Y4565D01*
X10107Y4605D01*
X10067Y4565D01*
Y4485D01*
X10027Y4445D01*
X9987Y4485D01*
Y4605D01*
X9947Y4724D02*
X9987D01*
Y4684D01*
Y4764D01*
Y4724D01*
X10107D01*
X10147Y4764D01*
X9447Y4634D02*
Y4874D01*
X9527Y4794D01*
X9607Y4874D01*
Y4634D01*
X9687D02*
X9767D01*
X9727D01*
Y4874D01*
X9687Y4834D01*
X7486Y7559D02*
Y7799D01*
X7566Y7719D01*
X7646Y7799D01*
Y7559D01*
X7886D02*
X7726D01*
X7886Y7719D01*
Y7759D01*
X7846Y7799D01*
X7766D01*
X7726Y7759D01*
X9172Y7801D02*
X9132Y7761D01*
Y7681D01*
X9172Y7641D01*
X9332D01*
X9372Y7681D01*
Y7761D01*
X9332Y7801D01*
X9372Y7881D02*
Y7961D01*
Y7921D01*
X9212D01*
Y7881D01*
X9372Y8081D02*
X9212D01*
Y8201D01*
X9252Y8241D01*
X9372D01*
Y8481D02*
Y8321D01*
X9212Y8481D01*
X9172D01*
X9132Y8441D01*
Y8361D01*
X9172Y8321D01*
X392Y6635D02*
X432Y6675D01*
Y6755D01*
X392Y6795D01*
X232D01*
X192Y6755D01*
Y6675D01*
X232Y6635D01*
X192Y6515D02*
Y6435D01*
X232Y6395D01*
X312D01*
X352Y6435D01*
Y6515D01*
X312Y6555D01*
X232D01*
X192Y6515D01*
X352Y6315D02*
X232D01*
X192Y6275D01*
Y6155D01*
X352D01*
X392Y6035D02*
X352D01*
Y6075D01*
Y5995D01*
Y6035D01*
X232D01*
X192Y5995D01*
Y5755D02*
X432D01*
X312Y5875D01*
Y5715D01*
%TF.MD5,28792fe7dccbdda0664b35f894fd5f5d*%
M02*
