%TF.GenerationSoftware,Altium Limited,Altium Designer,20.1.8 (145)*%
G04 Layer_Physical_Order=2*
G04 Layer_Color=16711680*
%FSLAX24Y24*%
%MOIN*%
%TF.SameCoordinates,72321C45-B03C-47D1-81AD-3863C6C0A768*%
%TF.FilePolarity,Positive*%
%TF.FileFunction,Copper,L2,Bot,Signal*%
%TF.Part,Single*%
G01*
G75*
%TA.AperFunction,Conductor*%
%ADD25C,0.0050*%
%ADD26C,0.0100*%
%ADD28C,0.0600*%
%ADD30C,0.0630*%
%TA.AperFunction,ViaPad*%
%ADD31O,0.1575X0.0945*%
%ADD32C,0.0984*%
%ADD33C,0.0236*%
%ADD34C,0.0256*%
%ADD35C,0.0591*%
G36*
X13059Y8546D02*
X13223Y8478D01*
X13372Y8379D01*
X13497Y8253D01*
X13596Y8105D01*
X13665Y7941D01*
X13699Y7766D01*
Y7677D01*
Y984D01*
Y895D01*
X13665Y721D01*
X13596Y556D01*
X13497Y408D01*
X13372Y282D01*
X13223Y183D01*
X13059Y115D01*
X12884Y80D01*
X895D01*
X721Y115D01*
X556Y183D01*
X408Y282D01*
X282Y408D01*
X183Y556D01*
X115Y721D01*
X80Y895D01*
Y984D01*
Y7677D01*
Y7766D01*
X115Y7941D01*
X183Y8105D01*
X282Y8253D01*
X408Y8379D01*
X556Y8478D01*
X721Y8546D01*
X895Y8581D01*
X12884D01*
X13059Y8546D01*
D02*
G37*
%LPC*%
G36*
X13133Y6600D02*
X12346D01*
X12330Y6600D01*
X12314Y6599D01*
X12298Y6597D01*
X12282Y6594D01*
X12266Y6591D01*
X12250Y6587D01*
X12235Y6582D01*
X12220Y6576D01*
X12205Y6570D01*
X12190Y6563D01*
X12176Y6556D01*
X12162Y6548D01*
X12148Y6539D01*
X12135Y6529D01*
X12122Y6519D01*
X12110Y6509D01*
X12099Y6498D01*
X12087Y6486D01*
X12077Y6474D01*
X12067Y6461D01*
X12057Y6448D01*
X12048Y6434D01*
X12040Y6420D01*
X12033Y6406D01*
X12026Y6391D01*
X12020Y6376D01*
X12014Y6361D01*
X12009Y6346D01*
X12005Y6330D01*
X12002Y6314D01*
X11999Y6298D01*
X11997Y6282D01*
X11996Y6266D01*
X11996Y6250D01*
X11996Y6234D01*
X11997Y6218D01*
X11999Y6202D01*
X12002Y6186D01*
X12005Y6170D01*
X12009Y6154D01*
X12014Y6139D01*
X12020Y6124D01*
X12026Y6109D01*
X12033Y6094D01*
X12040Y6080D01*
X12048Y6066D01*
X12057Y6052D01*
X12067Y6039D01*
X12077Y6026D01*
X12087Y6014D01*
X12099Y6002D01*
X12110Y5991D01*
X12122Y5981D01*
X12135Y5971D01*
X12148Y5961D01*
X12162Y5952D01*
X12176Y5944D01*
X12190Y5937D01*
X12205Y5930D01*
X12220Y5924D01*
X12235Y5918D01*
X12250Y5913D01*
X12266Y5909D01*
X12282Y5906D01*
X12298Y5903D01*
X12314Y5901D01*
X12330Y5900D01*
X12346Y5900D01*
X13133D01*
X13150Y5900D01*
X13166Y5901D01*
X13182Y5903D01*
X13198Y5906D01*
X13214Y5909D01*
X13229Y5913D01*
X13245Y5918D01*
X13260Y5924D01*
X13275Y5930D01*
X13290Y5937D01*
X13304Y5944D01*
X13318Y5952D01*
X13331Y5961D01*
X13344Y5971D01*
X13357Y5981D01*
X13369Y5991D01*
X13381Y6002D01*
X13392Y6014D01*
X13403Y6026D01*
X13413Y6039D01*
X13422Y6052D01*
X13431Y6066D01*
X13439Y6080D01*
X13447Y6094D01*
X13454Y6109D01*
X13460Y6124D01*
X13465Y6139D01*
X13470Y6154D01*
X13474Y6170D01*
X13478Y6186D01*
X13480Y6202D01*
X13482Y6218D01*
X13483Y6234D01*
X13484Y6250D01*
X13483Y6266D01*
X13482Y6282D01*
X13480Y6298D01*
X13478Y6314D01*
X13474Y6330D01*
X13470Y6346D01*
X13465Y6361D01*
X13460Y6376D01*
X13454Y6391D01*
X13447Y6406D01*
X13439Y6420D01*
X13431Y6434D01*
X13422Y6448D01*
X13413Y6461D01*
X13403Y6474D01*
X13392Y6486D01*
X13381Y6498D01*
X13369Y6509D01*
X13357Y6519D01*
X13344Y6529D01*
X13331Y6539D01*
X13318Y6548D01*
X13304Y6556D01*
X13290Y6563D01*
X13275Y6570D01*
X13260Y6576D01*
X13245Y6582D01*
X13229Y6587D01*
X13214Y6591D01*
X13198Y6594D01*
X13182Y6597D01*
X13166Y6599D01*
X13150Y6600D01*
X13133Y6600D01*
D02*
G37*
G36*
X9644Y6142D02*
X9633Y6141D01*
X9623Y6140D01*
X9612Y6138D01*
X9601Y6136D01*
X9590Y6133D01*
X9580Y6129D01*
X9570Y6124D01*
X9560Y6119D01*
X9551Y6113D01*
X9542Y6107D01*
X9534Y6100D01*
X9526Y6092D01*
X9518Y6084D01*
X9511Y6076D01*
X9505Y6067D01*
X9499Y6058D01*
X9494Y6048D01*
X9489Y6038D01*
X9485Y6027D01*
X9482Y6017D01*
X9480Y6006D01*
X9478Y5995D01*
X9477Y5984D01*
X9476Y5973D01*
X9477Y5962D01*
X9478Y5951D01*
X9480Y5941D01*
X9482Y5930D01*
X9485Y5919D01*
X9489Y5909D01*
X9494Y5899D01*
X9499Y5889D01*
X9505Y5880D01*
X9511Y5871D01*
X9518Y5863D01*
X9526Y5854D01*
X9534Y5847D01*
X9542Y5840D01*
X9544Y5838D01*
Y5014D01*
X9545Y5005D01*
X9546Y4996D01*
X9548Y4988D01*
X9549Y4984D01*
X9550Y4980D01*
X9551Y4977D01*
X9554Y4972D01*
X9556Y4968D01*
X9558Y4964D01*
X9562Y4956D01*
X9568Y4950D01*
X9574Y4943D01*
X9696Y4820D01*
X9696Y4818D01*
X9695Y4807D01*
X9695Y4796D01*
X9695Y4785D01*
X9696Y4774D01*
X9698Y4763D01*
X9700Y4752D01*
X9703Y4742D01*
X9707Y4731D01*
X9712Y4721D01*
X9717Y4712D01*
X9723Y4702D01*
X9729Y4693D01*
X9736Y4685D01*
X9744Y4677D01*
X9752Y4669D01*
X9760Y4662D01*
X9769Y4656D01*
X9779Y4650D01*
X9788Y4645D01*
X9798Y4640D01*
X9809Y4636D01*
X9819Y4633D01*
X9830Y4631D01*
X9841Y4629D01*
X9852Y4628D01*
X9863Y4627D01*
X9874Y4628D01*
X9885Y4629D01*
X9896Y4631D01*
X9906Y4633D01*
X9917Y4636D01*
X9927Y4640D01*
X9937Y4645D01*
X9947Y4650D01*
X9956Y4656D01*
X9965Y4662D01*
X9974Y4669D01*
X9982Y4677D01*
X9989Y4685D01*
X9996Y4693D01*
X10003Y4702D01*
X10008Y4712D01*
X10014Y4721D01*
X10018Y4731D01*
X10022Y4742D01*
X10025Y4752D01*
X10028Y4763D01*
X10029Y4774D01*
X10031Y4785D01*
X10031Y4796D01*
X10031Y4807D01*
X10029Y4818D01*
X10028Y4828D01*
X10025Y4839D01*
X10022Y4850D01*
X10018Y4860D01*
X10014Y4870D01*
X10008Y4880D01*
X10003Y4889D01*
X9996Y4898D01*
X9989Y4907D01*
X9982Y4915D01*
X9974Y4922D01*
X9965Y4929D01*
X9956Y4935D01*
X9947Y4941D01*
X9937Y4946D01*
X9927Y4951D01*
X9917Y4955D01*
X9906Y4958D01*
X9896Y4961D01*
X9885Y4962D01*
X9874Y4963D01*
X9863Y4964D01*
X9852Y4963D01*
X9841Y4962D01*
X9838Y4962D01*
X9745Y5055D01*
Y5838D01*
X9747Y5840D01*
X9755Y5847D01*
X9763Y5854D01*
X9771Y5863D01*
X9778Y5871D01*
X9784Y5880D01*
X9790Y5889D01*
X9795Y5899D01*
X9800Y5909D01*
X9804Y5919D01*
X9807Y5930D01*
X9809Y5941D01*
X9811Y5951D01*
X9812Y5962D01*
X9813Y5973D01*
X9812Y5984D01*
X9811Y5995D01*
X9809Y6006D01*
X9807Y6017D01*
X9804Y6027D01*
X9800Y6038D01*
X9795Y6048D01*
X9790Y6058D01*
X9784Y6067D01*
X9778Y6076D01*
X9771Y6084D01*
X9763Y6092D01*
X9755Y6100D01*
X9747Y6107D01*
X9738Y6113D01*
X9729Y6119D01*
X9719Y6124D01*
X9709Y6129D01*
X9699Y6133D01*
X9688Y6136D01*
X9677Y6138D01*
X9666Y6140D01*
X9655Y6141D01*
X9644Y6142D01*
D02*
G37*
G36*
X10189Y4295D02*
X10178Y4294D01*
X10167Y4293D01*
X10156Y4291D01*
X10146Y4289D01*
X10135Y4286D01*
X10125Y4282D01*
X10115Y4277D01*
X10105Y4272D01*
X10096Y4266D01*
X10087Y4260D01*
X10078Y4253D01*
X10070Y4245D01*
X10063Y4237D01*
X10056Y4229D01*
X10054Y4226D01*
X9407D01*
X9406Y4229D01*
X9399Y4237D01*
X9391Y4245D01*
X9383Y4253D01*
X9375Y4260D01*
X9366Y4266D01*
X9356Y4272D01*
X9347Y4277D01*
X9337Y4282D01*
X9326Y4286D01*
X9316Y4289D01*
X9305Y4291D01*
X9294Y4293D01*
X9283Y4294D01*
X9272Y4295D01*
X9261Y4294D01*
X9250Y4293D01*
X9239Y4291D01*
X9229Y4289D01*
X9218Y4286D01*
X9208Y4282D01*
X9198Y4277D01*
X9188Y4272D01*
X9179Y4266D01*
X9170Y4260D01*
X9161Y4253D01*
X9153Y4245D01*
X9146Y4237D01*
X9139Y4229D01*
X9132Y4220D01*
X9127Y4210D01*
X9121Y4201D01*
X9117Y4191D01*
X9113Y4180D01*
X9110Y4170D01*
X9107Y4159D01*
X9105Y4148D01*
X9104Y4137D01*
X9104Y4126D01*
X9104Y4115D01*
X9105Y4104D01*
X9107Y4094D01*
X9110Y4083D01*
X9113Y4072D01*
X9117Y4062D01*
X9121Y4052D01*
X9127Y4042D01*
X9132Y4033D01*
X9139Y4024D01*
X9146Y4015D01*
X9153Y4007D01*
X9161Y4000D01*
X9170Y3993D01*
X9179Y3986D01*
X9188Y3981D01*
X9198Y3975D01*
X9208Y3971D01*
X9218Y3967D01*
X9229Y3964D01*
X9239Y3961D01*
X9250Y3960D01*
X9261Y3958D01*
X9272Y3958D01*
X9283Y3958D01*
X9294Y3960D01*
X9305Y3961D01*
X9316Y3964D01*
X9326Y3967D01*
X9337Y3971D01*
X9347Y3975D01*
X9356Y3981D01*
X9366Y3986D01*
X9375Y3993D01*
X9383Y4000D01*
X9391Y4007D01*
X9399Y4015D01*
X9406Y4024D01*
X9407Y4026D01*
X10054D01*
X10056Y4024D01*
X10063Y4015D01*
X10070Y4007D01*
X10078Y4000D01*
X10087Y3993D01*
X10096Y3986D01*
X10105Y3981D01*
X10115Y3975D01*
X10125Y3971D01*
X10135Y3967D01*
X10146Y3964D01*
X10156Y3961D01*
X10167Y3960D01*
X10178Y3958D01*
X10189Y3958D01*
X10200Y3958D01*
X10211Y3960D01*
X10222Y3961D01*
X10233Y3964D01*
X10243Y3967D01*
X10253Y3971D01*
X10264Y3975D01*
X10273Y3981D01*
X10283Y3986D01*
X10292Y3993D01*
X10300Y4000D01*
X10308Y4007D01*
X10316Y4015D01*
X10323Y4024D01*
X10329Y4033D01*
X10335Y4042D01*
X10340Y4052D01*
X10345Y4062D01*
X10348Y4072D01*
X10352Y4083D01*
X10354Y4094D01*
X10356Y4104D01*
X10357Y4115D01*
X10357Y4126D01*
X10357Y4137D01*
X10356Y4148D01*
X10354Y4159D01*
X10352Y4170D01*
X10348Y4180D01*
X10345Y4191D01*
X10340Y4201D01*
X10335Y4210D01*
X10329Y4220D01*
X10323Y4229D01*
X10316Y4237D01*
X10308Y4245D01*
X10300Y4253D01*
X10292Y4260D01*
X10283Y4266D01*
X10273Y4272D01*
X10264Y4277D01*
X10253Y4282D01*
X10243Y4286D01*
X10233Y4289D01*
X10222Y4291D01*
X10211Y4293D01*
X10200Y4294D01*
X10189Y4295D01*
D02*
G37*
G36*
X1330Y2737D02*
X1314Y2737D01*
X1298Y2736D01*
X1282Y2734D01*
X1267Y2731D01*
X1251Y2728D01*
X1235Y2724D01*
X1220Y2719D01*
X1205Y2714D01*
X1190Y2708D01*
X1176Y2701D01*
X1162Y2693D01*
X1148Y2685D01*
X1135Y2677D01*
X1122Y2667D01*
X1109Y2657D01*
X1097Y2647D01*
X1086Y2636D01*
X1075Y2624D01*
X1064Y2612D01*
X1054Y2600D01*
X1045Y2587D01*
X1036Y2574D01*
X1028Y2560D01*
X1021Y2546D01*
X1014Y2531D01*
X1008Y2516D01*
X1002Y2501D01*
X998Y2486D01*
X994Y2471D01*
X990Y2455D01*
X988Y2439D01*
X986Y2424D01*
X985Y2408D01*
X985Y2392D01*
X985Y2376D01*
X986Y2360D01*
X988Y2344D01*
X990Y2328D01*
X994Y2313D01*
X998Y2297D01*
X1002Y2282D01*
X1008Y2267D01*
X1014Y2252D01*
X1021Y2238D01*
X1028Y2224D01*
X1036Y2210D01*
X1045Y2197D01*
X1054Y2184D01*
X1064Y2171D01*
X1075Y2159D01*
X1086Y2147D01*
X1097Y2136D01*
X1109Y2126D01*
X1122Y2116D01*
X1135Y2107D01*
X1148Y2098D01*
X1162Y2090D01*
X1176Y2083D01*
X1190Y2076D01*
X1205Y2070D01*
X1220Y2064D01*
X1235Y2060D01*
X1251Y2056D01*
X1267Y2052D01*
X1282Y2050D01*
X1298Y2048D01*
X1314Y2047D01*
X1330Y2046D01*
X1346Y2047D01*
X1362Y2048D01*
X1378Y2050D01*
X1393Y2052D01*
X1409Y2056D01*
X1424Y2060D01*
X1440Y2064D01*
X1455Y2070D01*
X1469Y2076D01*
X1484Y2083D01*
X1498Y2090D01*
X1512Y2098D01*
X1525Y2107D01*
X1538Y2116D01*
X1551Y2126D01*
X1563Y2136D01*
X1574Y2147D01*
X1585Y2159D01*
X1596Y2171D01*
X1606Y2184D01*
X1615Y2197D01*
X1624Y2210D01*
X1632Y2224D01*
X1639Y2238D01*
X1646Y2252D01*
X1652Y2267D01*
X1657Y2282D01*
X1662Y2297D01*
X1666Y2313D01*
X1669Y2328D01*
X1672Y2344D01*
X1674Y2360D01*
X1675Y2376D01*
X1675Y2392D01*
X1675Y2408D01*
X1674Y2424D01*
X1672Y2439D01*
X1669Y2455D01*
X1666Y2471D01*
X1662Y2486D01*
X1657Y2501D01*
X1652Y2516D01*
X1646Y2531D01*
X1639Y2546D01*
X1632Y2560D01*
X1624Y2574D01*
X1615Y2587D01*
X1606Y2600D01*
X1596Y2612D01*
X1585Y2624D01*
X1574Y2636D01*
X1563Y2647D01*
X1551Y2657D01*
X1538Y2667D01*
X1525Y2677D01*
X1512Y2685D01*
X1498Y2693D01*
X1484Y2701D01*
X1469Y2708D01*
X1455Y2714D01*
X1440Y2719D01*
X1424Y2724D01*
X1409Y2728D01*
X1393Y2731D01*
X1378Y2734D01*
X1362Y2736D01*
X1346Y2737D01*
X1330Y2737D01*
D02*
G37*
G36*
X543D02*
X527Y2737D01*
X511Y2736D01*
X495Y2734D01*
X479Y2731D01*
X463Y2728D01*
X448Y2724D01*
X433Y2719D01*
X418Y2714D01*
X403Y2708D01*
X389Y2701D01*
X375Y2693D01*
X361Y2685D01*
X347Y2677D01*
X334Y2667D01*
X322Y2657D01*
X310Y2647D01*
X298Y2636D01*
X287Y2624D01*
X277Y2612D01*
X267Y2600D01*
X258Y2587D01*
X249Y2574D01*
X241Y2560D01*
X233Y2546D01*
X227Y2531D01*
X221Y2516D01*
X215Y2501D01*
X210Y2486D01*
X206Y2471D01*
X203Y2455D01*
X201Y2439D01*
X199Y2424D01*
X198Y2408D01*
X197Y2392D01*
X198Y2376D01*
X199Y2360D01*
X201Y2344D01*
X203Y2328D01*
X206Y2313D01*
X210Y2297D01*
X215Y2282D01*
X221Y2267D01*
X227Y2252D01*
X233Y2238D01*
X241Y2224D01*
X249Y2210D01*
X258Y2197D01*
X267Y2184D01*
X277Y2171D01*
X287Y2159D01*
X298Y2147D01*
X310Y2136D01*
X322Y2126D01*
X334Y2116D01*
X347Y2107D01*
X361Y2098D01*
X375Y2090D01*
X389Y2083D01*
X403Y2076D01*
X418Y2070D01*
X433Y2064D01*
X448Y2060D01*
X463Y2056D01*
X479Y2052D01*
X495Y2050D01*
X511Y2048D01*
X527Y2047D01*
X543Y2046D01*
X559Y2047D01*
X574Y2048D01*
X590Y2050D01*
X606Y2052D01*
X622Y2056D01*
X637Y2060D01*
X652Y2064D01*
X667Y2070D01*
X682Y2076D01*
X697Y2083D01*
X711Y2090D01*
X724Y2098D01*
X738Y2107D01*
X751Y2116D01*
X763Y2126D01*
X775Y2136D01*
X787Y2147D01*
X798Y2159D01*
X808Y2171D01*
X818Y2184D01*
X827Y2197D01*
X836Y2210D01*
X844Y2224D01*
X852Y2238D01*
X859Y2252D01*
X865Y2267D01*
X870Y2282D01*
X875Y2297D01*
X879Y2313D01*
X882Y2328D01*
X885Y2344D01*
X886Y2360D01*
X888Y2376D01*
X888Y2392D01*
X888Y2408D01*
X886Y2424D01*
X885Y2439D01*
X882Y2455D01*
X879Y2471D01*
X875Y2486D01*
X870Y2501D01*
X865Y2516D01*
X859Y2531D01*
X852Y2546D01*
X844Y2560D01*
X836Y2574D01*
X827Y2587D01*
X818Y2600D01*
X808Y2612D01*
X798Y2624D01*
X787Y2636D01*
X775Y2647D01*
X763Y2657D01*
X751Y2667D01*
X738Y2677D01*
X724Y2685D01*
X711Y2693D01*
X697Y2701D01*
X682Y2708D01*
X667Y2714D01*
X652Y2719D01*
X637Y2724D01*
X622Y2728D01*
X606Y2731D01*
X590Y2734D01*
X574Y2736D01*
X559Y2737D01*
X543Y2737D01*
D02*
G37*
G36*
X13271Y2757D02*
X12484D01*
X12467Y2756D01*
X12450Y2755D01*
X12433Y2753D01*
X12417Y2751D01*
X12400Y2747D01*
X12384Y2743D01*
X12368Y2738D01*
X12352Y2732D01*
X12336Y2726D01*
X12321Y2718D01*
X12306Y2711D01*
X12292Y2702D01*
X12278Y2693D01*
X12264Y2683D01*
X12251Y2673D01*
X12238Y2661D01*
X12226Y2650D01*
X12214Y2638D01*
X12203Y2625D01*
X12193Y2612D01*
X12183Y2598D01*
X12173Y2584D01*
X12165Y2569D01*
X12157Y2554D01*
X12150Y2539D01*
X12143Y2524D01*
X12138Y2508D01*
X12133Y2492D01*
X12128Y2475D01*
X12125Y2459D01*
X12122Y2442D01*
X12120Y2425D01*
X12119Y2409D01*
X12119Y2392D01*
X12119Y2375D01*
X12120Y2358D01*
X12122Y2341D01*
X12125Y2325D01*
X12128Y2308D01*
X12133Y2292D01*
X12138Y2276D01*
X12143Y2260D01*
X12150Y2244D01*
X12157Y2229D01*
X12165Y2214D01*
X12173Y2200D01*
X12183Y2185D01*
X12193Y2172D01*
X12203Y2158D01*
X12214Y2146D01*
X12226Y2134D01*
X12238Y2122D01*
X12251Y2111D01*
X12264Y2100D01*
X12278Y2091D01*
X12292Y2081D01*
X12306Y2073D01*
X12321Y2065D01*
X12336Y2058D01*
X12352Y2051D01*
X12368Y2046D01*
X12384Y2041D01*
X12400Y2036D01*
X12417Y2033D01*
X12433Y2030D01*
X12450Y2028D01*
X12467Y2027D01*
X12484Y2027D01*
X13271D01*
X13288Y2027D01*
X13305Y2028D01*
X13322Y2030D01*
X13338Y2033D01*
X13355Y2036D01*
X13371Y2041D01*
X13387Y2046D01*
X13403Y2051D01*
X13419Y2058D01*
X13434Y2065D01*
X13449Y2073D01*
X13463Y2081D01*
X13478Y2091D01*
X13491Y2100D01*
X13504Y2111D01*
X13517Y2122D01*
X13529Y2134D01*
X13541Y2146D01*
X13552Y2158D01*
X13563Y2172D01*
X13572Y2185D01*
X13582Y2200D01*
X13590Y2214D01*
X13598Y2229D01*
X13605Y2244D01*
X13612Y2260D01*
X13617Y2276D01*
X13622Y2292D01*
X13627Y2308D01*
X13630Y2325D01*
X13633Y2341D01*
X13635Y2358D01*
X13636Y2375D01*
X13636Y2392D01*
X13636Y2409D01*
X13635Y2425D01*
X13633Y2442D01*
X13630Y2459D01*
X13627Y2475D01*
X13622Y2492D01*
X13617Y2508D01*
X13612Y2524D01*
X13605Y2539D01*
X13598Y2554D01*
X13590Y2569D01*
X13582Y2584D01*
X13572Y2598D01*
X13563Y2612D01*
X13552Y2625D01*
X13541Y2638D01*
X13529Y2650D01*
X13517Y2661D01*
X13504Y2673D01*
X13491Y2683D01*
X13478Y2693D01*
X13463Y2702D01*
X13449Y2711D01*
X13434Y2718D01*
X13419Y2726D01*
X13403Y2732D01*
X13387Y2738D01*
X13371Y2743D01*
X13355Y2747D01*
X13338Y2751D01*
X13322Y2753D01*
X13305Y2755D01*
X13288Y2756D01*
X13271Y2757D01*
D02*
G37*
G36*
X10730Y1547D02*
X10719Y1546D01*
X10708Y1545D01*
X10697Y1544D01*
X10686Y1541D01*
X10676Y1538D01*
X10665Y1534D01*
X10655Y1529D01*
X10646Y1524D01*
X10636Y1518D01*
X10627Y1512D01*
X10619Y1505D01*
X10611Y1498D01*
X10603Y1489D01*
X10596Y1481D01*
X10590Y1472D01*
X10584Y1463D01*
X10579Y1453D01*
X10574Y1443D01*
X10570Y1433D01*
X10567Y1422D01*
X10565Y1411D01*
X10563Y1401D01*
X10562Y1390D01*
X10561Y1379D01*
X10562Y1368D01*
X10563Y1357D01*
X10563Y1354D01*
X10196Y987D01*
X9998D01*
X9996Y989D01*
X9989Y997D01*
X9982Y1005D01*
X9974Y1013D01*
X9965Y1020D01*
X9956Y1026D01*
X9947Y1032D01*
X9937Y1037D01*
X9927Y1042D01*
X9917Y1046D01*
X9906Y1049D01*
X9896Y1051D01*
X9885Y1053D01*
X9874Y1054D01*
X9863Y1055D01*
X9863D01*
Y886D01*
X9695Y886D01*
X9695Y875D01*
X9696Y865D01*
X9698Y854D01*
X9700Y843D01*
X9703Y832D01*
X9707Y822D01*
X9712Y812D01*
X9717Y802D01*
X9723Y793D01*
X9729Y784D01*
X9736Y776D01*
X9744Y768D01*
X9752Y760D01*
X9760Y753D01*
X9769Y747D01*
X9779Y741D01*
X9788Y736D01*
X9798Y731D01*
X9809Y727D01*
X9819Y724D01*
X9830Y721D01*
X9841Y720D01*
X9852Y719D01*
X9863Y718D01*
X9874Y719D01*
X9885Y720D01*
X9896Y721D01*
X9906Y724D01*
X9917Y727D01*
X9927Y731D01*
X9937Y736D01*
X9947Y741D01*
X9956Y747D01*
X9965Y753D01*
X9974Y760D01*
X9982Y768D01*
X9989Y776D01*
X9996Y784D01*
X9998Y786D01*
X10238D01*
X10246Y787D01*
X10255Y788D01*
X10263Y790D01*
X10272Y792D01*
X10280Y796D01*
X10284Y798D01*
X10288Y800D01*
X10295Y804D01*
X10302Y810D01*
X10308Y816D01*
X10705Y1212D01*
X10708Y1212D01*
X10719Y1211D01*
X10730Y1210D01*
X10741Y1211D01*
X10752Y1212D01*
X10763Y1214D01*
X10773Y1216D01*
X10784Y1219D01*
X10794Y1223D01*
X10804Y1228D01*
X10814Y1233D01*
X10823Y1239D01*
X10832Y1245D01*
X10841Y1252D01*
X10849Y1260D01*
X10856Y1268D01*
X10863Y1276D01*
X10870Y1285D01*
X10875Y1294D01*
X10881Y1304D01*
X10885Y1314D01*
X10889Y1325D01*
X10892Y1335D01*
X10895Y1346D01*
X10896Y1357D01*
X10898Y1368D01*
X10898Y1379D01*
X10898Y1390D01*
X10896Y1401D01*
X10895Y1411D01*
X10892Y1422D01*
X10889Y1433D01*
X10885Y1443D01*
X10881Y1453D01*
X10875Y1463D01*
X10870Y1472D01*
X10863Y1481D01*
X10856Y1489D01*
X10849Y1498D01*
X10841Y1505D01*
X10832Y1512D01*
X10823Y1518D01*
X10814Y1524D01*
X10804Y1529D01*
X10794Y1534D01*
X10784Y1538D01*
X10773Y1541D01*
X10763Y1544D01*
X10752Y1545D01*
X10741Y1546D01*
X10730Y1547D01*
D02*
G37*
G36*
X11381Y1464D02*
X11370Y1463D01*
X11359Y1462D01*
X11348Y1460D01*
X11337Y1458D01*
X11327Y1455D01*
X11317Y1451D01*
X11307Y1446D01*
X11297Y1441D01*
X11287Y1435D01*
X11279Y1429D01*
X11270Y1422D01*
X11262Y1414D01*
X11254Y1406D01*
X11247Y1398D01*
X11241Y1389D01*
X11235Y1380D01*
X11230Y1371D01*
X11076D01*
X11068Y1370D01*
X11061Y1369D01*
X11054Y1367D01*
X11047Y1365D01*
X11040Y1362D01*
X11038Y1360D01*
X11034Y1358D01*
X11028Y1354D01*
X11023Y1349D01*
X11023Y1349D01*
X10315Y641D01*
X9805D01*
X9775Y671D01*
X9769Y676D01*
X9763Y681D01*
X9757Y684D01*
X9754Y686D01*
X9750Y687D01*
X9743Y690D01*
X9736Y692D01*
X9729Y693D01*
X9722Y693D01*
X9615D01*
X9610Y702D01*
X9604Y712D01*
X9598Y720D01*
X9591Y729D01*
X9583Y737D01*
X9575Y745D01*
X9567Y752D01*
X9558Y758D01*
X9549Y764D01*
X9539Y769D01*
X9529Y773D01*
X9519Y777D01*
X9508Y781D01*
X9497Y783D01*
X9487Y785D01*
X9476Y786D01*
X9465Y786D01*
X9454Y786D01*
X9443Y785D01*
X9432Y783D01*
X9421Y781D01*
X9410Y777D01*
X9400Y773D01*
X9390Y769D01*
X9380Y764D01*
X9371Y758D01*
X9362Y752D01*
X9354Y745D01*
X9346Y737D01*
X9338Y729D01*
X9331Y720D01*
X9325Y712D01*
X9319Y702D01*
X9314Y692D01*
X9309Y682D01*
X9305Y672D01*
X9302Y662D01*
X9300Y651D01*
X9298Y640D01*
X9297Y629D01*
X9296Y618D01*
X9297Y607D01*
X9298Y596D01*
X9300Y585D01*
X9302Y575D01*
X9305Y564D01*
X9309Y554D01*
X9314Y544D01*
X9319Y534D01*
X9325Y525D01*
X9331Y516D01*
X9338Y507D01*
X9346Y499D01*
X9354Y492D01*
X9362Y485D01*
X9371Y478D01*
X9380Y472D01*
X9390Y467D01*
X9400Y463D01*
X9410Y459D01*
X9421Y456D01*
X9432Y453D01*
X9443Y451D01*
X9454Y450D01*
X9465Y450D01*
X9476Y450D01*
X9487Y451D01*
X9497Y453D01*
X9508Y456D01*
X9519Y459D01*
X9529Y463D01*
X9539Y467D01*
X9549Y472D01*
X9558Y478D01*
X9567Y485D01*
X9575Y492D01*
X9583Y499D01*
X9591Y507D01*
X9598Y516D01*
X9604Y525D01*
X9610Y534D01*
X9615Y543D01*
X9691D01*
X9720Y513D01*
X9720Y513D01*
X9726Y508D01*
X9732Y504D01*
X9738Y500D01*
X9745Y497D01*
X9747Y496D01*
X9752Y494D01*
X9755Y493D01*
X9759Y493D01*
X9766Y491D01*
X9774Y491D01*
X9774Y491D01*
X10346D01*
X10354Y491D01*
X10361Y493D01*
X10368Y494D01*
X10375Y497D01*
X10378Y498D01*
X10382Y500D01*
X10388Y504D01*
X10394Y508D01*
X10399Y513D01*
X11107Y1220D01*
X11230D01*
X11235Y1211D01*
X11241Y1202D01*
X11247Y1193D01*
X11254Y1185D01*
X11262Y1177D01*
X11270Y1169D01*
X11279Y1162D01*
X11287Y1156D01*
X11297Y1150D01*
X11307Y1145D01*
X11317Y1140D01*
X11327Y1136D01*
X11337Y1133D01*
X11348Y1131D01*
X11359Y1129D01*
X11370Y1128D01*
X11381Y1127D01*
X11392Y1128D01*
X11403Y1129D01*
X11414Y1131D01*
X11424Y1133D01*
X11435Y1136D01*
X11445Y1140D01*
X11455Y1145D01*
X11465Y1150D01*
X11474Y1156D01*
X11483Y1162D01*
X11492Y1169D01*
X11500Y1177D01*
X11507Y1185D01*
X11514Y1193D01*
X11521Y1202D01*
X11527Y1211D01*
X11532Y1221D01*
X11536Y1231D01*
X11540Y1241D01*
X11543Y1252D01*
X11546Y1263D01*
X11548Y1274D01*
X11549Y1285D01*
X11549Y1296D01*
X11549Y1307D01*
X11548Y1317D01*
X11546Y1328D01*
X11543Y1339D01*
X11540Y1350D01*
X11536Y1360D01*
X11532Y1370D01*
X11527Y1380D01*
X11521Y1389D01*
X11514Y1398D01*
X11507Y1406D01*
X11500Y1414D01*
X11492Y1422D01*
X11483Y1429D01*
X11474Y1435D01*
X11465Y1441D01*
X11455Y1446D01*
X11445Y1451D01*
X11435Y1455D01*
X11424Y1458D01*
X11414Y1460D01*
X11403Y1462D01*
X11392Y1463D01*
X11381Y1464D01*
D02*
G37*
G36*
X11123Y1069D02*
X11112Y1069D01*
X11101Y1068D01*
X11090Y1066D01*
X11079Y1063D01*
X11069Y1060D01*
X11058Y1056D01*
X11048Y1052D01*
X11039Y1047D01*
X11029Y1041D01*
X11020Y1034D01*
X11012Y1027D01*
X11004Y1020D01*
X10996Y1012D01*
X10989Y1003D01*
X10983Y994D01*
X10977Y985D01*
X10972Y975D01*
X10967Y965D01*
X10963Y955D01*
X10960Y945D01*
X10958Y934D01*
X10956Y923D01*
X10955Y912D01*
X10954Y901D01*
X10955Y890D01*
X10956Y879D01*
X10958Y868D01*
X10960Y857D01*
X10963Y848D01*
X10497Y381D01*
X7947D01*
X7946Y384D01*
X7941Y394D01*
X7935Y403D01*
X7929Y412D01*
X7922Y420D01*
X7914Y428D01*
X7906Y436D01*
X7898Y443D01*
X7889Y449D01*
X7879Y455D01*
X7870Y460D01*
X7860Y465D01*
X7849Y469D01*
X7839Y472D01*
X7828Y475D01*
X7817Y476D01*
X7806Y477D01*
X7795Y478D01*
X7784Y477D01*
X7773Y476D01*
X7762Y475D01*
X7752Y472D01*
X7741Y469D01*
X7731Y465D01*
X7721Y460D01*
X7711Y455D01*
X7702Y449D01*
X7693Y443D01*
X7684Y436D01*
X7676Y428D01*
X7669Y420D01*
X7662Y412D01*
X7655Y403D01*
X7650Y394D01*
X7644Y384D01*
X7640Y374D01*
X7636Y364D01*
X7633Y353D01*
X7630Y342D01*
X7629Y332D01*
X7627Y321D01*
X7627Y310D01*
X7627Y299D01*
X7629Y288D01*
X7630Y277D01*
X7633Y266D01*
X7636Y255D01*
X7640Y245D01*
X7644Y235D01*
X7650Y225D01*
X7655Y216D01*
X7662Y207D01*
X7669Y199D01*
X7676Y191D01*
X7684Y183D01*
X7693Y176D01*
X7702Y170D01*
X7711Y164D01*
X7721Y159D01*
X7731Y154D01*
X7741Y150D01*
X7752Y147D01*
X7762Y145D01*
X7773Y143D01*
X7784Y142D01*
X7795Y141D01*
X7806Y142D01*
X7817Y143D01*
X7828Y145D01*
X7839Y147D01*
X7849Y150D01*
X7860Y154D01*
X7870Y159D01*
X7879Y164D01*
X7889Y170D01*
X7898Y176D01*
X7906Y183D01*
X7914Y191D01*
X7922Y199D01*
X7929Y207D01*
X7935Y216D01*
X7941Y225D01*
X7944Y231D01*
X10528D01*
X10535Y231D01*
X10542Y232D01*
X10549Y234D01*
X10556Y237D01*
X10560Y238D01*
X10563Y240D01*
X10569Y244D01*
X10575Y248D01*
X10581Y253D01*
X11069Y741D01*
X11079Y739D01*
X11090Y736D01*
X11101Y734D01*
X11112Y733D01*
X11123Y733D01*
X11134Y733D01*
X11145Y734D01*
X11155Y736D01*
X11166Y739D01*
X11177Y742D01*
X11187Y746D01*
X11197Y750D01*
X11207Y755D01*
X11216Y761D01*
X11225Y768D01*
X11234Y775D01*
X11242Y782D01*
X11249Y790D01*
X11256Y799D01*
X11262Y808D01*
X11268Y817D01*
X11273Y827D01*
X11278Y837D01*
X11282Y847D01*
X11285Y857D01*
X11288Y868D01*
X11289Y879D01*
X11290Y890D01*
X11291Y901D01*
X11290Y912D01*
X11289Y923D01*
X11288Y934D01*
X11285Y945D01*
X11282Y955D01*
X11278Y965D01*
X11273Y975D01*
X11268Y985D01*
X11262Y994D01*
X11256Y1003D01*
X11249Y1012D01*
X11242Y1020D01*
X11234Y1027D01*
X11225Y1034D01*
X11216Y1041D01*
X11207Y1047D01*
X11197Y1052D01*
X11187Y1056D01*
X11177Y1060D01*
X11166Y1063D01*
X11155Y1066D01*
X11145Y1068D01*
X11134Y1069D01*
X11123Y1069D01*
D02*
G37*
%LPD*%
D25*
X9465Y618D02*
X9722D01*
X9774Y566D01*
X10346D01*
X11076Y1296D01*
X10528Y306D02*
X11123Y901D01*
X7795Y310D02*
X7799Y306D01*
X10528D01*
X11076Y1296D02*
X11381D01*
D26*
X9863Y886D02*
X10238D01*
X9863Y4796D02*
Y4796D01*
X9644Y5014D02*
Y5973D01*
Y5014D02*
X9863Y4796D01*
X10238Y886D02*
X10730Y1379D01*
X9272Y4126D02*
X10189D01*
D28*
X12346Y6250D02*
X13133D01*
D30*
X12484Y2392D02*
X13271D01*
D31*
X12789Y3346D02*
D03*
Y5315D02*
D03*
X984Y3346D02*
D03*
Y5315D02*
D03*
D32*
X12789Y984D02*
D03*
Y7677D02*
D03*
X984Y984D02*
D03*
Y7677D02*
D03*
D33*
X7795Y310D02*
D03*
X9863Y886D02*
D03*
X9465Y618D02*
D03*
X11123Y901D02*
D03*
X11381Y1296D02*
D03*
X9714Y7978D02*
D03*
Y7668D02*
D03*
X10863Y7978D02*
D03*
Y7668D02*
D03*
X10730Y1379D02*
D03*
X9272Y4126D02*
D03*
X10394Y2416D02*
D03*
Y2022D02*
D03*
X7677Y4724D02*
D03*
X7681Y4421D02*
D03*
X10394Y2809D02*
D03*
X10189Y4126D02*
D03*
X9863Y4796D02*
D03*
X8819Y2022D02*
D03*
Y2809D02*
D03*
X9644Y5973D02*
D03*
X8483Y920D02*
D03*
X8218Y916D02*
D03*
X8819Y2416D02*
D03*
X984Y6274D02*
D03*
Y5978D02*
D03*
Y6569D02*
D03*
X1288D02*
D03*
Y5978D02*
D03*
Y6274D02*
D03*
X3150Y1575D02*
D03*
X2854D02*
D03*
X3445D02*
D03*
X3740D02*
D03*
X3744Y1271D02*
D03*
X3449D02*
D03*
X2858D02*
D03*
X3153D02*
D03*
X4331Y1575D02*
D03*
X4035D02*
D03*
X4626D02*
D03*
X4921D02*
D03*
X4925Y1271D02*
D03*
X4630D02*
D03*
X4039D02*
D03*
X4335D02*
D03*
X5512Y1575D02*
D03*
X5217D02*
D03*
X5807D02*
D03*
X6102D02*
D03*
X6106Y1271D02*
D03*
X5811D02*
D03*
X5220D02*
D03*
X5516D02*
D03*
X6693Y1575D02*
D03*
X6398D02*
D03*
X6988D02*
D03*
X7283D02*
D03*
X7287Y1271D02*
D03*
X6992D02*
D03*
X6402D02*
D03*
X6697D02*
D03*
X7972Y4724D02*
D03*
X8268D02*
D03*
X8563D02*
D03*
X8567Y4421D02*
D03*
X8272D02*
D03*
X7976D02*
D03*
X10480Y7668D02*
D03*
X10097D02*
D03*
X11246D02*
D03*
X11629D02*
D03*
Y7978D02*
D03*
X11246D02*
D03*
X10097D02*
D03*
X10480D02*
D03*
D34*
X9607Y2416D02*
D03*
X9213Y2022D02*
D03*
Y2416D02*
D03*
Y2809D02*
D03*
X9607D02*
D03*
X10001D02*
D03*
Y2416D02*
D03*
Y2022D02*
D03*
X9607D02*
D03*
D35*
X12484Y2392D02*
D03*
X12346Y6250D02*
D03*
X543Y2392D02*
D03*
X1330D02*
D03*
X13133Y6250D02*
D03*
X13271Y2392D02*
D03*
X8072Y3374D02*
D03*
Y2587D02*
D03*
%TF.MD5,0a4be2a72062a46ae14b7ffd8e452c2a*%
M02*
