%TF.GenerationSoftware,Altium Limited,Altium Designer,20.1.8 (145)*%
G04 Layer_Color=32768*
%FSLAX24Y24*%
%MOIN*%
%TF.SameCoordinates,72321C45-B03C-47D1-81AD-3863C6C0A768*%
%TF.FilePolarity,Negative*%
%TF.FileFunction,Soldermask,Top*%
%TF.Part,Single*%
G01*
G75*
%TA.AperFunction,ViaPad*%
%ADD36O,0.1417X0.0787*%
%ADD37C,0.1024*%
%ADD38C,0.0630*%
%TA.AperFunction,SMDPad,CuDef*%
G04:AMPARAMS|DCode=44|XSize=35.4mil|YSize=31.5mil|CornerRadius=2.1mil|HoleSize=0mil|Usage=FLASHONLY|Rotation=90.000|XOffset=0mil|YOffset=0mil|HoleType=Round|Shape=RoundedRectangle|*
%AMROUNDEDRECTD44*
21,1,0.0354,0.0273,0,0,90.0*
21,1,0.0312,0.0315,0,0,90.0*
1,1,0.0042,0.0136,0.0156*
1,1,0.0042,0.0136,-0.0156*
1,1,0.0042,-0.0136,-0.0156*
1,1,0.0042,-0.0136,0.0156*
%
%ADD44ROUNDEDRECTD44*%
G04:AMPARAMS|DCode=45|XSize=173.2mil|YSize=183.5mil|CornerRadius=2.8mil|HoleSize=0mil|Usage=FLASHONLY|Rotation=90.000|XOffset=0mil|YOffset=0mil|HoleType=Round|Shape=RoundedRectangle|*
%AMROUNDEDRECTD45*
21,1,0.1732,0.1778,0,0,90.0*
21,1,0.1676,0.1835,0,0,90.0*
1,1,0.0056,0.0889,0.0838*
1,1,0.0056,0.0889,-0.0838*
1,1,0.0056,-0.0889,-0.0838*
1,1,0.0056,-0.0889,0.0838*
%
%ADD45ROUNDEDRECTD45*%
G04:AMPARAMS|DCode=46|XSize=35.4mil|YSize=31.5mil|CornerRadius=2.1mil|HoleSize=0mil|Usage=FLASHONLY|Rotation=0.000|XOffset=0mil|YOffset=0mil|HoleType=Round|Shape=RoundedRectangle|*
%AMROUNDEDRECTD46*
21,1,0.0354,0.0273,0,0,0.0*
21,1,0.0312,0.0315,0,0,0.0*
1,1,0.0042,0.0156,-0.0136*
1,1,0.0042,-0.0156,-0.0136*
1,1,0.0042,-0.0156,0.0136*
1,1,0.0042,0.0156,0.0136*
%
%ADD46ROUNDEDRECTD46*%
G04:AMPARAMS|DCode=47|XSize=173.2mil|YSize=183.5mil|CornerRadius=2.8mil|HoleSize=0mil|Usage=FLASHONLY|Rotation=0.000|XOffset=0mil|YOffset=0mil|HoleType=Round|Shape=RoundedRectangle|*
%AMROUNDEDRECTD47*
21,1,0.1732,0.1778,0,0,0.0*
21,1,0.1676,0.1835,0,0,0.0*
1,1,0.0056,0.0838,-0.0889*
1,1,0.0056,-0.0838,-0.0889*
1,1,0.0056,-0.0838,0.0889*
1,1,0.0056,0.0838,0.0889*
%
%ADD47ROUNDEDRECTD47*%
%TA.AperFunction,NonConductor*%
%ADD48C,0.0079*%
%ADD49R,0.1220X0.0157*%
%ADD50R,0.1220X0.0098*%
%ADD51R,0.0098X0.1220*%
%ADD52R,0.0098X0.1220*%
%ADD53R,0.0157X0.1220*%
%ADD54R,0.0157X0.1220*%
%TA.AperFunction,SMDPad,CuDef*%
G04:AMPARAMS|DCode=55|XSize=259.9mil|YSize=200.9mil|CornerRadius=3mil|HoleSize=0mil|Usage=FLASHONLY|Rotation=90.000|XOffset=0mil|YOffset=0mil|HoleType=Round|Shape=RoundedRectangle|*
%AMROUNDEDRECTD55*
21,1,0.2599,0.1949,0,0,90.0*
21,1,0.2539,0.2009,0,0,90.0*
1,1,0.0060,0.0974,0.1270*
1,1,0.0060,0.0974,-0.1270*
1,1,0.0060,-0.0974,-0.1270*
1,1,0.0060,-0.0974,0.1270*
%
%ADD55ROUNDEDRECTD55*%
G04:AMPARAMS|DCode=56|XSize=37.4mil|YSize=25.6mil|CornerRadius=2.1mil|HoleSize=0mil|Usage=FLASHONLY|Rotation=180.000|XOffset=0mil|YOffset=0mil|HoleType=Round|Shape=RoundedRectangle|*
%AMROUNDEDRECTD56*
21,1,0.0374,0.0214,0,0,180.0*
21,1,0.0332,0.0256,0,0,180.0*
1,1,0.0042,-0.0166,0.0107*
1,1,0.0042,0.0166,0.0107*
1,1,0.0042,0.0166,-0.0107*
1,1,0.0042,-0.0166,-0.0107*
%
%ADD56ROUNDEDRECTD56*%
G04:AMPARAMS|DCode=57|XSize=37.4mil|YSize=23.6mil|CornerRadius=2.1mil|HoleSize=0mil|Usage=FLASHONLY|Rotation=90.000|XOffset=0mil|YOffset=0mil|HoleType=Round|Shape=RoundedRectangle|*
%AMROUNDEDRECTD57*
21,1,0.0374,0.0195,0,0,90.0*
21,1,0.0333,0.0236,0,0,90.0*
1,1,0.0041,0.0097,0.0166*
1,1,0.0041,0.0097,-0.0166*
1,1,0.0041,-0.0097,-0.0166*
1,1,0.0041,-0.0097,0.0166*
%
%ADD57ROUNDEDRECTD57*%
G04:AMPARAMS|DCode=58|XSize=37.4mil|YSize=25.6mil|CornerRadius=2.1mil|HoleSize=0mil|Usage=FLASHONLY|Rotation=270.000|XOffset=0mil|YOffset=0mil|HoleType=Round|Shape=RoundedRectangle|*
%AMROUNDEDRECTD58*
21,1,0.0374,0.0214,0,0,270.0*
21,1,0.0332,0.0256,0,0,270.0*
1,1,0.0042,-0.0107,-0.0166*
1,1,0.0042,-0.0107,0.0166*
1,1,0.0042,0.0107,0.0166*
1,1,0.0042,0.0107,-0.0166*
%
%ADD58ROUNDEDRECTD58*%
G04:AMPARAMS|DCode=59|XSize=68.9mil|YSize=35.4mil|CornerRadius=2.1mil|HoleSize=0mil|Usage=FLASHONLY|Rotation=90.000|XOffset=0mil|YOffset=0mil|HoleType=Round|Shape=RoundedRectangle|*
%AMROUNDEDRECTD59*
21,1,0.0689,0.0312,0,0,90.0*
21,1,0.0646,0.0354,0,0,90.0*
1,1,0.0043,0.0156,0.0323*
1,1,0.0043,0.0156,-0.0323*
1,1,0.0043,-0.0156,-0.0323*
1,1,0.0043,-0.0156,0.0323*
%
%ADD59ROUNDEDRECTD59*%
G04:AMPARAMS|DCode=60|XSize=96.5mil|YSize=86.6mil|CornerRadius=2.4mil|HoleSize=0mil|Usage=FLASHONLY|Rotation=180.000|XOffset=0mil|YOffset=0mil|HoleType=Round|Shape=RoundedRectangle|*
%AMROUNDEDRECTD60*
21,1,0.0965,0.0818,0,0,180.0*
21,1,0.0917,0.0866,0,0,180.0*
1,1,0.0048,-0.0458,0.0409*
1,1,0.0048,0.0458,0.0409*
1,1,0.0048,0.0458,-0.0409*
1,1,0.0048,-0.0458,-0.0409*
%
%ADD60ROUNDEDRECTD60*%
G04:AMPARAMS|DCode=61|XSize=59.9mil|YSize=17.7mil|CornerRadius=2mil|HoleSize=0mil|Usage=FLASHONLY|Rotation=270.000|XOffset=0mil|YOffset=0mil|HoleType=Round|Shape=RoundedRectangle|*
%AMROUNDEDRECTD61*
21,1,0.0599,0.0136,0,0,270.0*
21,1,0.0559,0.0177,0,0,270.0*
1,1,0.0041,-0.0068,-0.0279*
1,1,0.0041,-0.0068,0.0279*
1,1,0.0041,0.0068,0.0279*
1,1,0.0041,0.0068,-0.0279*
%
%ADD61ROUNDEDRECTD61*%
G04:AMPARAMS|DCode=62|XSize=51.2mil|YSize=31.5mil|CornerRadius=2.1mil|HoleSize=0mil|Usage=FLASHONLY|Rotation=90.000|XOffset=0mil|YOffset=0mil|HoleType=Round|Shape=RoundedRectangle|*
%AMROUNDEDRECTD62*
21,1,0.0512,0.0273,0,0,90.0*
21,1,0.0470,0.0315,0,0,90.0*
1,1,0.0042,0.0136,0.0235*
1,1,0.0042,0.0136,-0.0235*
1,1,0.0042,-0.0136,-0.0235*
1,1,0.0042,-0.0136,0.0235*
%
%ADD62ROUNDEDRECTD62*%
G04:AMPARAMS|DCode=63|XSize=37.4mil|YSize=23.6mil|CornerRadius=2.1mil|HoleSize=0mil|Usage=FLASHONLY|Rotation=180.000|XOffset=0mil|YOffset=0mil|HoleType=Round|Shape=RoundedRectangle|*
%AMROUNDEDRECTD63*
21,1,0.0374,0.0195,0,0,180.0*
21,1,0.0333,0.0236,0,0,180.0*
1,1,0.0041,-0.0166,0.0097*
1,1,0.0041,0.0166,0.0097*
1,1,0.0041,0.0166,-0.0097*
1,1,0.0041,-0.0166,-0.0097*
%
%ADD63ROUNDEDRECTD63*%
G04:AMPARAMS|DCode=64|XSize=104.3mil|YSize=35.4mil|CornerRadius=2.1mil|HoleSize=0mil|Usage=FLASHONLY|Rotation=0.000|XOffset=0mil|YOffset=0mil|HoleType=Round|Shape=RoundedRectangle|*
%AMROUNDEDRECTD64*
21,1,0.1043,0.0312,0,0,0.0*
21,1,0.1001,0.0354,0,0,0.0*
1,1,0.0043,0.0500,-0.0156*
1,1,0.0043,-0.0500,-0.0156*
1,1,0.0043,-0.0500,0.0156*
1,1,0.0043,0.0500,0.0156*
%
%ADD64ROUNDEDRECTD64*%
D36*
X12789Y3346D02*
D03*
Y5315D02*
D03*
X984Y3346D02*
D03*
Y5315D02*
D03*
D37*
X12789Y984D02*
D03*
Y7677D02*
D03*
X984Y984D02*
D03*
Y7677D02*
D03*
D38*
X12484Y2392D02*
D03*
X12346Y6250D02*
D03*
X543Y2392D02*
D03*
X1330D02*
D03*
X13133Y6250D02*
D03*
X13271Y2392D02*
D03*
X8072Y3374D02*
D03*
Y2587D02*
D03*
D44*
X8150Y5128D02*
D03*
X8623D02*
D03*
X9134D02*
D03*
Y7295D02*
D03*
X8623D02*
D03*
X8150D02*
D03*
X7638D02*
D03*
Y5128D02*
D03*
D45*
X8386Y6330D02*
D03*
D46*
X9607Y6722D02*
D03*
X11774D02*
D03*
Y6211D02*
D03*
Y5738D02*
D03*
Y5226D02*
D03*
X9607D02*
D03*
Y5738D02*
D03*
Y6211D02*
D03*
D47*
X10809Y5974D02*
D03*
D48*
X9764Y2416D02*
G03*
X9764Y2416I-157J0D01*
G01*
X10158Y2809D02*
G03*
X10158Y2809I-157J0D01*
G01*
Y2416D02*
G03*
X10158Y2416I-157J0D01*
G01*
Y2022D02*
G03*
X10158Y2022I-157J0D01*
G01*
X9764D02*
G03*
X9764Y2022I-157J0D01*
G01*
Y2809D02*
G03*
X9764Y2809I-157J0D01*
G01*
X9371D02*
G03*
X9371Y2809I-157J0D01*
G01*
Y2416D02*
G03*
X9371Y2416I-157J0D01*
G01*
Y2022D02*
G03*
X9371Y2022I-157J0D01*
G01*
D49*
X9607Y2612D02*
D03*
Y2219D02*
D03*
D50*
Y1855D02*
D03*
X9607Y2977D02*
D03*
D51*
X9046Y2416D02*
D03*
D52*
X10168Y2416D02*
D03*
D53*
X9804D02*
D03*
D54*
X9410Y2416D02*
D03*
D55*
X2835Y5906D02*
D03*
X6378D02*
D03*
D56*
X10580Y4654D02*
D03*
Y4103D02*
D03*
X8239Y1847D02*
D03*
Y1296D02*
D03*
D57*
X11014Y3272D02*
D03*
X11565D02*
D03*
X11014Y2777D02*
D03*
X11565D02*
D03*
X10847Y512D02*
D03*
X11398D02*
D03*
X11014Y2272D02*
D03*
X11565D02*
D03*
D58*
X11014Y1769D02*
D03*
X11565D02*
D03*
X9863Y512D02*
D03*
X10414D02*
D03*
D59*
X620Y6260D02*
D03*
X1742D02*
D03*
D60*
X2904Y610D02*
D03*
Y2913D02*
D03*
X4793D02*
D03*
Y610D02*
D03*
X6683D02*
D03*
Y2913D02*
D03*
D61*
X8839Y3536D02*
D03*
X9095D02*
D03*
X9351D02*
D03*
X9607D02*
D03*
X9863D02*
D03*
X10119D02*
D03*
X10375D02*
D03*
X10375Y1296D02*
D03*
X10119D02*
D03*
X9863D02*
D03*
X9607D02*
D03*
X9351D02*
D03*
X9095D02*
D03*
X8839D02*
D03*
D62*
X9047Y486D02*
D03*
X8378D02*
D03*
D63*
X11112Y4654D02*
D03*
Y4103D02*
D03*
D64*
X11243Y8317D02*
D03*
Y7195D02*
D03*
X10101Y8317D02*
D03*
Y7195D02*
D03*
%TF.MD5,e742b235e20821d3ea4398773543f13c*%
M02*
