%TF.GenerationSoftware,Altium Limited,Altium Designer,20.1.8 (145)*%
G04 Layer_Color=8421504*
%FSLAX24Y24*%
%MOIN*%
%TF.SameCoordinates,72321C45-B03C-47D1-81AD-3863C6C0A768*%
%TF.FilePolarity,Positive*%
%TF.FileFunction,Paste,Top*%
%TF.Part,Single*%
G01*
G75*
%TA.AperFunction,SMDPad,CuDef*%
G04:AMPARAMS|DCode=14|XSize=255.9mil|YSize=196.9mil|CornerRadius=1mil|HoleSize=0mil|Usage=FLASHONLY|Rotation=90.000|XOffset=0mil|YOffset=0mil|HoleType=Round|Shape=RoundedRectangle|*
%AMROUNDEDRECTD14*
21,1,0.2559,0.1949,0,0,90.0*
21,1,0.2539,0.1969,0,0,90.0*
1,1,0.0020,0.0974,0.1270*
1,1,0.0020,0.0974,-0.1270*
1,1,0.0020,-0.0974,-0.1270*
1,1,0.0020,-0.0974,0.1270*
%
%ADD14ROUNDEDRECTD14*%
G04:AMPARAMS|DCode=15|XSize=33.5mil|YSize=21.7mil|CornerRadius=0.1mil|HoleSize=0mil|Usage=FLASHONLY|Rotation=180.000|XOffset=0mil|YOffset=0mil|HoleType=Round|Shape=RoundedRectangle|*
%AMROUNDEDRECTD15*
21,1,0.0335,0.0214,0,0,180.0*
21,1,0.0332,0.0217,0,0,180.0*
1,1,0.0002,-0.0166,0.0107*
1,1,0.0002,0.0166,0.0107*
1,1,0.0002,0.0166,-0.0107*
1,1,0.0002,-0.0166,-0.0107*
%
%ADD15ROUNDEDRECTD15*%
G04:AMPARAMS|DCode=16|XSize=33.5mil|YSize=19.7mil|CornerRadius=0.1mil|HoleSize=0mil|Usage=FLASHONLY|Rotation=90.000|XOffset=0mil|YOffset=0mil|HoleType=Round|Shape=RoundedRectangle|*
%AMROUNDEDRECTD16*
21,1,0.0335,0.0195,0,0,90.0*
21,1,0.0333,0.0197,0,0,90.0*
1,1,0.0002,0.0097,0.0166*
1,1,0.0002,0.0097,-0.0166*
1,1,0.0002,-0.0097,-0.0166*
1,1,0.0002,-0.0097,0.0166*
%
%ADD16ROUNDEDRECTD16*%
G04:AMPARAMS|DCode=17|XSize=33.5mil|YSize=21.7mil|CornerRadius=0.1mil|HoleSize=0mil|Usage=FLASHONLY|Rotation=270.000|XOffset=0mil|YOffset=0mil|HoleType=Round|Shape=RoundedRectangle|*
%AMROUNDEDRECTD17*
21,1,0.0335,0.0214,0,0,270.0*
21,1,0.0332,0.0217,0,0,270.0*
1,1,0.0002,-0.0107,-0.0166*
1,1,0.0002,-0.0107,0.0166*
1,1,0.0002,0.0107,0.0166*
1,1,0.0002,0.0107,-0.0166*
%
%ADD17ROUNDEDRECTD17*%
G04:AMPARAMS|DCode=18|XSize=65mil|YSize=31.5mil|CornerRadius=0.2mil|HoleSize=0mil|Usage=FLASHONLY|Rotation=90.000|XOffset=0mil|YOffset=0mil|HoleType=Round|Shape=RoundedRectangle|*
%AMROUNDEDRECTD18*
21,1,0.0650,0.0312,0,0,90.0*
21,1,0.0646,0.0315,0,0,90.0*
1,1,0.0003,0.0156,0.0323*
1,1,0.0003,0.0156,-0.0323*
1,1,0.0003,-0.0156,-0.0323*
1,1,0.0003,-0.0156,0.0323*
%
%ADD18ROUNDEDRECTD18*%
G04:AMPARAMS|DCode=19|XSize=92.5mil|YSize=82.7mil|CornerRadius=0.4mil|HoleSize=0mil|Usage=FLASHONLY|Rotation=180.000|XOffset=0mil|YOffset=0mil|HoleType=Round|Shape=RoundedRectangle|*
%AMROUNDEDRECTD19*
21,1,0.0925,0.0818,0,0,180.0*
21,1,0.0917,0.0827,0,0,180.0*
1,1,0.0008,-0.0458,0.0409*
1,1,0.0008,0.0458,0.0409*
1,1,0.0008,0.0458,-0.0409*
1,1,0.0008,-0.0458,-0.0409*
%
%ADD19ROUNDEDRECTD19*%
G04:AMPARAMS|DCode=20|XSize=118mil|YSize=122mil|CornerRadius=0.6mil|HoleSize=0mil|Usage=FLASHONLY|Rotation=90.000|XOffset=0mil|YOffset=0mil|HoleType=Round|Shape=RoundedRectangle|*
%AMROUNDEDRECTD20*
21,1,0.1180,0.1208,0,0,90.0*
21,1,0.1168,0.1220,0,0,90.0*
1,1,0.0012,0.0604,0.0584*
1,1,0.0012,0.0604,-0.0584*
1,1,0.0012,-0.0604,-0.0584*
1,1,0.0012,-0.0604,0.0584*
%
%ADD20ROUNDEDRECTD20*%
G04:AMPARAMS|DCode=21|XSize=56mil|YSize=13.8mil|CornerRadius=0.1mil|HoleSize=0mil|Usage=FLASHONLY|Rotation=270.000|XOffset=0mil|YOffset=0mil|HoleType=Round|Shape=RoundedRectangle|*
%AMROUNDEDRECTD21*
21,1,0.0560,0.0136,0,0,270.0*
21,1,0.0559,0.0138,0,0,270.0*
1,1,0.0001,-0.0068,-0.0279*
1,1,0.0001,-0.0068,0.0279*
1,1,0.0001,0.0068,0.0279*
1,1,0.0001,0.0068,-0.0279*
%
%ADD21ROUNDEDRECTD21*%
G04:AMPARAMS|DCode=22|XSize=47.2mil|YSize=27.6mil|CornerRadius=0.1mil|HoleSize=0mil|Usage=FLASHONLY|Rotation=90.000|XOffset=0mil|YOffset=0mil|HoleType=Round|Shape=RoundedRectangle|*
%AMROUNDEDRECTD22*
21,1,0.0472,0.0273,0,0,90.0*
21,1,0.0470,0.0276,0,0,90.0*
1,1,0.0003,0.0136,0.0235*
1,1,0.0003,0.0136,-0.0235*
1,1,0.0003,-0.0136,-0.0235*
1,1,0.0003,-0.0136,0.0235*
%
%ADD22ROUNDEDRECTD22*%
G04:AMPARAMS|DCode=23|XSize=33.5mil|YSize=19.7mil|CornerRadius=0.1mil|HoleSize=0mil|Usage=FLASHONLY|Rotation=180.000|XOffset=0mil|YOffset=0mil|HoleType=Round|Shape=RoundedRectangle|*
%AMROUNDEDRECTD23*
21,1,0.0335,0.0195,0,0,180.0*
21,1,0.0333,0.0197,0,0,180.0*
1,1,0.0002,-0.0166,0.0097*
1,1,0.0002,0.0166,0.0097*
1,1,0.0002,0.0166,-0.0097*
1,1,0.0002,-0.0166,-0.0097*
%
%ADD23ROUNDEDRECTD23*%
G04:AMPARAMS|DCode=24|XSize=100.4mil|YSize=31.5mil|CornerRadius=0.2mil|HoleSize=0mil|Usage=FLASHONLY|Rotation=0.000|XOffset=0mil|YOffset=0mil|HoleType=Round|Shape=RoundedRectangle|*
%AMROUNDEDRECTD24*
21,1,0.1004,0.0312,0,0,0.0*
21,1,0.1001,0.0315,0,0,0.0*
1,1,0.0003,0.0500,-0.0156*
1,1,0.0003,-0.0500,-0.0156*
1,1,0.0003,-0.0500,0.0156*
1,1,0.0003,0.0500,0.0156*
%
%ADD24ROUNDEDRECTD24*%
G04:AMPARAMS|DCode=44|XSize=35.4mil|YSize=31.5mil|CornerRadius=2.1mil|HoleSize=0mil|Usage=FLASHONLY|Rotation=90.000|XOffset=0mil|YOffset=0mil|HoleType=Round|Shape=RoundedRectangle|*
%AMROUNDEDRECTD44*
21,1,0.0354,0.0273,0,0,90.0*
21,1,0.0312,0.0315,0,0,90.0*
1,1,0.0042,0.0136,0.0156*
1,1,0.0042,0.0136,-0.0156*
1,1,0.0042,-0.0136,-0.0156*
1,1,0.0042,-0.0136,0.0156*
%
%ADD44ROUNDEDRECTD44*%
G04:AMPARAMS|DCode=45|XSize=173.2mil|YSize=183.5mil|CornerRadius=2.8mil|HoleSize=0mil|Usage=FLASHONLY|Rotation=90.000|XOffset=0mil|YOffset=0mil|HoleType=Round|Shape=RoundedRectangle|*
%AMROUNDEDRECTD45*
21,1,0.1732,0.1778,0,0,90.0*
21,1,0.1676,0.1835,0,0,90.0*
1,1,0.0056,0.0889,0.0838*
1,1,0.0056,0.0889,-0.0838*
1,1,0.0056,-0.0889,-0.0838*
1,1,0.0056,-0.0889,0.0838*
%
%ADD45ROUNDEDRECTD45*%
G04:AMPARAMS|DCode=46|XSize=35.4mil|YSize=31.5mil|CornerRadius=2.1mil|HoleSize=0mil|Usage=FLASHONLY|Rotation=0.000|XOffset=0mil|YOffset=0mil|HoleType=Round|Shape=RoundedRectangle|*
%AMROUNDEDRECTD46*
21,1,0.0354,0.0273,0,0,0.0*
21,1,0.0312,0.0315,0,0,0.0*
1,1,0.0042,0.0156,-0.0136*
1,1,0.0042,-0.0156,-0.0136*
1,1,0.0042,-0.0156,0.0136*
1,1,0.0042,0.0156,0.0136*
%
%ADD46ROUNDEDRECTD46*%
G04:AMPARAMS|DCode=47|XSize=173.2mil|YSize=183.5mil|CornerRadius=2.8mil|HoleSize=0mil|Usage=FLASHONLY|Rotation=0.000|XOffset=0mil|YOffset=0mil|HoleType=Round|Shape=RoundedRectangle|*
%AMROUNDEDRECTD47*
21,1,0.1732,0.1778,0,0,0.0*
21,1,0.1676,0.1835,0,0,0.0*
1,1,0.0056,0.0838,-0.0889*
1,1,0.0056,-0.0838,-0.0889*
1,1,0.0056,-0.0838,0.0889*
1,1,0.0056,0.0838,0.0889*
%
%ADD47ROUNDEDRECTD47*%
G36*
X9245Y6612D02*
X8725D01*
Y7097D01*
X9245D01*
Y6612D01*
D02*
G37*
G36*
X8646D02*
X8127D01*
Y7097D01*
X8646D01*
Y6612D01*
D02*
G37*
G36*
X8048D02*
X7528D01*
Y7097D01*
X8048D01*
Y6612D01*
D02*
G37*
G36*
X9245Y6048D02*
X8725D01*
Y6533D01*
X9245D01*
Y6048D01*
D02*
G37*
G36*
X8646D02*
X8127D01*
Y6533D01*
X8646D01*
Y6048D01*
D02*
G37*
G36*
X8048D02*
X7528D01*
Y6533D01*
X8048D01*
Y6048D01*
D02*
G37*
G36*
X9245Y5483D02*
X8725D01*
Y5969D01*
X9245D01*
Y5483D01*
D02*
G37*
G36*
X8646D02*
X8127D01*
Y5969D01*
X8646D01*
Y5483D01*
D02*
G37*
G36*
X8048D02*
X7528D01*
Y5969D01*
X8048D01*
Y5483D01*
D02*
G37*
G36*
X11576Y6313D02*
X11091D01*
Y6833D01*
X11576D01*
Y6313D01*
D02*
G37*
G36*
X11012D02*
X10526D01*
Y6833D01*
X11012D01*
Y6313D01*
D02*
G37*
G36*
X10448D02*
X9962D01*
Y6833D01*
X10448D01*
Y6313D01*
D02*
G37*
G36*
X11576Y5715D02*
X11091D01*
Y6234D01*
X11576D01*
Y5715D01*
D02*
G37*
G36*
X11012D02*
X10526D01*
Y6234D01*
X11012D01*
Y5715D01*
D02*
G37*
G36*
X10448D02*
X9962D01*
Y6234D01*
X10448D01*
Y5715D01*
D02*
G37*
G36*
X11576Y5116D02*
X11091D01*
Y5636D01*
X11576D01*
Y5116D01*
D02*
G37*
G36*
X11012D02*
X10526D01*
Y5636D01*
X11012D01*
Y5116D01*
D02*
G37*
G36*
X10448D02*
X9962D01*
Y5636D01*
X10448D01*
Y5116D01*
D02*
G37*
D14*
X2835Y5906D02*
D03*
X6378D02*
D03*
D15*
X10580Y4654D02*
D03*
Y4103D02*
D03*
X8239Y1847D02*
D03*
Y1296D02*
D03*
D16*
X11014Y3272D02*
D03*
X11565D02*
D03*
X11014Y2777D02*
D03*
X11565D02*
D03*
X10847Y512D02*
D03*
X11398D02*
D03*
X11014Y2272D02*
D03*
X11565D02*
D03*
D17*
X11014Y1769D02*
D03*
X11565D02*
D03*
X9863Y512D02*
D03*
X10414D02*
D03*
D18*
X620Y6260D02*
D03*
X1742D02*
D03*
D19*
X2904Y610D02*
D03*
Y2913D02*
D03*
X4793D02*
D03*
Y610D02*
D03*
X6683D02*
D03*
Y2913D02*
D03*
D20*
X9607Y2416D02*
D03*
D21*
X8839Y3536D02*
D03*
X9095D02*
D03*
X9351D02*
D03*
X9607D02*
D03*
X9863D02*
D03*
X10119D02*
D03*
X10375D02*
D03*
X10375Y1296D02*
D03*
X10119D02*
D03*
X9863D02*
D03*
X9607D02*
D03*
X9351D02*
D03*
X9095D02*
D03*
X8839D02*
D03*
D22*
X9047Y486D02*
D03*
X8378D02*
D03*
D23*
X11112Y4654D02*
D03*
Y4103D02*
D03*
D24*
X11243Y8317D02*
D03*
Y7195D02*
D03*
X10101Y8317D02*
D03*
Y7195D02*
D03*
D44*
X8150Y5128D02*
D03*
X8623D02*
D03*
X9134D02*
D03*
Y7295D02*
D03*
X8623D02*
D03*
X8150D02*
D03*
X7638D02*
D03*
Y5128D02*
D03*
D45*
X8386Y6330D02*
D03*
D46*
X9607Y6722D02*
D03*
X11774D02*
D03*
Y6211D02*
D03*
Y5738D02*
D03*
Y5226D02*
D03*
X9607D02*
D03*
Y5738D02*
D03*
Y6211D02*
D03*
D47*
X10809Y5974D02*
D03*
%TF.MD5,8c72dea7db32da259b77d388ace32577*%
M02*
