M48
;Layer_Color=9474304
;FILE_FORMAT=2:4
INCH,LZ
;TYPE=PLATED
T1F00S00C0.0157
T2F00S00C0.0394
T3F00S00C0.0787
%
T01
X002858Y001271
X003153
X003449
X003744
X004039
X004335
X00463
X004925
X00522
X005516
X005811
X006106
X006402
X006697
X006992
X007287
X007283Y001575
X006988
X006693
X006398
X006102
X005807
X005512
X005217
X004921
X004626
X004331
X004035
X00374
X003445
X00315
X002854
X001288Y005978
Y006274
Y006569
X000984
Y006274
Y005978
X007677Y004724
X007972
X008268
X008563
X008567Y004421
X008272
X007976
X007681
X009272Y004126
X010189
X009863Y004796
X009644Y005973
X009607Y002809
Y002416
X009213
X008819
Y002022
X009213
X009607
X010001
Y002416
Y002809
X010394
Y002416
Y002022
X01073Y001379
X011381Y001296
X011123Y000901
X009863Y000886
X009465Y000618
X008483Y00092
X008218Y000916
X007795Y00031
X008819Y002809
X009213
X009714Y007668
Y007978
X010097
Y007668
X01048
Y007978
X010863
Y007668
X011246
Y007978
X011629
Y007668
T02
X000543Y002392
X00133
X008072Y002587
Y003374
X012484Y002392
X013271
X013133Y00625
X012346
T03
X000984Y000984
X012789
Y007677
X000984
M30
