G04 Layer_Color=16777215*
%FSAX44Y44*%
%MOMM*%
G71*
G01*
G75*
%ADD23C,0.1270*%
%ADD40C,0.2500*%
%ADD41C,0.1016*%
G36*
X06937273Y08414487D02*
X06937554Y08414206D01*
X06937706Y08413839D01*
Y08413640D01*
Y08413441D01*
X06937554Y08413073D01*
X06937273Y08412792D01*
X06936906Y08412640D01*
X06936508D01*
X06936140Y08412792D01*
X06935859Y08413073D01*
X06935707Y08413441D01*
Y08413640D01*
Y08413839D01*
X06935859Y08414206D01*
X06936140Y08414487D01*
X06936508Y08414640D01*
X06936906D01*
X06937273Y08414487D01*
D02*
G37*
G36*
Y08491950D02*
X06937554Y08491669D01*
X06937706Y08491301D01*
Y08491102D01*
Y08490903D01*
X06937554Y08490536D01*
X06937273Y08490255D01*
X06936906Y08490103D01*
X06936508D01*
X06936140Y08490255D01*
X06935859Y08490536D01*
X06935707Y08490903D01*
Y08491102D01*
Y08491301D01*
X06935859Y08491669D01*
X06936140Y08491950D01*
X06936508Y08492103D01*
X06936906D01*
X06937273Y08491950D01*
D02*
G37*
G36*
X06782500Y08530000D02*
X06773750Y08525000D01*
Y08527500D01*
X06756250D01*
Y08532250D01*
X06773750D01*
Y08535000D01*
X06782500Y08530000D01*
D02*
G37*
D23*
X06848500Y08423288D02*
X06885500D01*
X06848500Y08474288D02*
X06885500D01*
Y08423288D02*
Y08474288D01*
X06848500Y08423288D02*
Y08474288D01*
X06889243Y08638213D02*
Y08643291D01*
X06886703Y08640752D01*
X06890089D01*
X06891782Y08638213D02*
Y08641599D01*
X06893475Y08643291D01*
X06895167Y08641599D01*
Y08638213D01*
Y08640752D01*
X06891782D01*
X06901938Y08643291D02*
Y08638213D01*
X06904478D01*
X06905324Y08639059D01*
Y08639905D01*
X06904478Y08640752D01*
X06901938D01*
X06904478D01*
X06905324Y08641599D01*
Y08642444D01*
X06904478Y08643291D01*
X06901938D01*
X06907017Y08641599D02*
Y08639059D01*
X06907863Y08638213D01*
X06910403D01*
Y08641599D01*
X06915481D02*
X06912942D01*
X06912095Y08640752D01*
Y08639059D01*
X06912942Y08638213D01*
X06915481D01*
X06917173D02*
Y08643291D01*
Y08639905D02*
X06919713Y08641599D01*
X06917173Y08639905D02*
X06919713Y08638213D01*
X06927330D02*
Y08643291D01*
X06929869D01*
X06930716Y08642444D01*
Y08640752D01*
X06929869Y08639905D01*
X06927330D01*
X06929023D02*
X06930716Y08638213D01*
X06934948D02*
X06933255D01*
X06932408Y08639059D01*
Y08640752D01*
X06933255Y08641599D01*
X06934948D01*
X06935794Y08640752D01*
Y08639905D01*
X06932408D01*
X06939180Y08636520D02*
X06940026D01*
X06940873Y08637366D01*
Y08641599D01*
X06938334D01*
X06937487Y08640752D01*
Y08639059D01*
X06938334Y08638213D01*
X06940873D01*
X06942565Y08641599D02*
Y08639059D01*
X06943412Y08638213D01*
X06945951D01*
Y08641599D01*
X06947644Y08638213D02*
X06949337D01*
X06948490D01*
Y08643291D01*
X06947644D01*
X06952722Y08641599D02*
X06954415D01*
X06955261Y08640752D01*
Y08638213D01*
X06952722D01*
X06951876Y08639059D01*
X06952722Y08639905D01*
X06955261D01*
X06957800Y08642444D02*
Y08641599D01*
X06956954D01*
X06958647D01*
X06957800D01*
Y08639059D01*
X06958647Y08638213D01*
X06962032D02*
X06963726D01*
X06964572Y08639059D01*
Y08640752D01*
X06963726Y08641599D01*
X06962032D01*
X06961186Y08640752D01*
Y08639059D01*
X06962032Y08638213D01*
X06966265Y08641599D02*
Y08638213D01*
Y08639905D01*
X06967111Y08640752D01*
X06967957Y08641599D01*
X06968804D01*
X06842000Y08481828D02*
Y08477596D01*
X06842847Y08476750D01*
X06844539D01*
X06845386Y08477596D01*
Y08481828D01*
X06847078Y08476750D02*
X06848771D01*
X06847925D01*
Y08481828D01*
X06847078Y08480982D01*
X06827500Y08415750D02*
X06822422D01*
Y08418289D01*
X06823268Y08419136D01*
X06824961D01*
X06825807Y08418289D01*
Y08415750D01*
Y08417443D02*
X06827500Y08419136D01*
X06822422Y08420828D02*
Y08424214D01*
X06823268D01*
X06826653Y08420828D01*
X06827500D01*
X06786629Y08405098D02*
Y08410176D01*
X06789168D01*
X06790015Y08409330D01*
Y08407637D01*
X06789168Y08406791D01*
X06786629D01*
X06788322D02*
X06790015Y08405098D01*
X06791707Y08409330D02*
X06792554Y08410176D01*
X06794246D01*
X06795093Y08409330D01*
Y08408483D01*
X06794246Y08407637D01*
X06795093Y08406791D01*
Y08405944D01*
X06794246Y08405098D01*
X06792554D01*
X06791707Y08405944D01*
Y08406791D01*
X06792554Y08407637D01*
X06791707Y08408483D01*
Y08409330D01*
X06792554Y08407637D02*
X06794246D01*
X06773000Y08406165D02*
Y08411243D01*
X06775539D01*
X06776385Y08410397D01*
Y08408704D01*
X06775539Y08407858D01*
X06773000D01*
X06774693D02*
X06776385Y08406165D01*
X06781464Y08411243D02*
X06779771Y08410397D01*
X06778078Y08408704D01*
Y08407011D01*
X06778925Y08406165D01*
X06780618D01*
X06781464Y08407011D01*
Y08407858D01*
X06780618Y08408704D01*
X06778078D01*
X06825500Y08446000D02*
X06820422D01*
Y08448539D01*
X06821268Y08449385D01*
X06822961D01*
X06823807Y08448539D01*
Y08446000D01*
Y08447693D02*
X06825500Y08449385D01*
Y08454464D02*
Y08451078D01*
X06822114Y08454464D01*
X06821268D01*
X06820422Y08453618D01*
Y08451925D01*
X06821268Y08451078D01*
X06862874Y08507370D02*
Y08512448D01*
X06865413D01*
X06866259Y08511602D01*
Y08509909D01*
X06865413Y08509062D01*
X06862874D01*
X06864566D02*
X06866259Y08507370D01*
X06871337Y08512448D02*
X06867952D01*
Y08509909D01*
X06869645Y08510756D01*
X06870491D01*
X06871337Y08509909D01*
Y08508217D01*
X06870491Y08507370D01*
X06868798D01*
X06867952Y08508217D01*
X06845275Y08507370D02*
Y08512448D01*
X06847814D01*
X06848660Y08511602D01*
Y08509909D01*
X06847814Y08509062D01*
X06845275D01*
X06846968D02*
X06848660Y08507370D01*
X06852892D02*
Y08512448D01*
X06850353Y08509909D01*
X06853739D01*
X06827000Y08485250D02*
X06821922D01*
Y08487789D01*
X06822768Y08488636D01*
X06824461D01*
X06825307Y08487789D01*
Y08485250D01*
Y08486943D02*
X06827000Y08488636D01*
Y08490328D02*
Y08492021D01*
Y08491175D01*
X06821922D01*
X06822768Y08490328D01*
X06787250Y08490208D02*
Y08495286D01*
X06789789D01*
X06790635Y08494440D01*
Y08492747D01*
X06789789Y08491900D01*
X06787250D01*
X06788943D02*
X06790635Y08490208D01*
X06792328Y08494440D02*
X06793175Y08495286D01*
X06794868D01*
X06795714Y08494440D01*
Y08493593D01*
X06794868Y08492747D01*
X06794021D01*
X06794868D01*
X06795714Y08491900D01*
Y08491054D01*
X06794868Y08490208D01*
X06793175D01*
X06792328Y08491054D01*
X06976136Y08409346D02*
Y08412732D01*
X06975289Y08413578D01*
X06973596D01*
X06972750Y08412732D01*
Y08409346D01*
X06973596Y08408500D01*
X06975289D01*
X06974443Y08410193D02*
X06976136Y08408500D01*
X06975289D02*
X06976136Y08409346D01*
X06981214Y08408500D02*
X06977828D01*
X06981214Y08411885D01*
Y08412732D01*
X06980367Y08413578D01*
X06978675D01*
X06977828Y08412732D01*
X06978135Y08567938D02*
Y08571323D01*
X06977289Y08572170D01*
X06975596D01*
X06974750Y08571323D01*
Y08567938D01*
X06975596Y08567091D01*
X06977289D01*
X06976443Y08568784D02*
X06978135Y08567091D01*
X06977289D02*
X06978135Y08567938D01*
X06979828Y08567091D02*
X06981521D01*
X06980675D01*
Y08572170D01*
X06979828Y08571323D01*
X07051542Y08410828D02*
Y08405750D01*
X07054928D01*
X07056621D02*
X07058314D01*
X07057467D01*
Y08410828D01*
X07056621Y08409982D01*
X07103445Y08596982D02*
X07102599Y08597828D01*
X07100906D01*
X07100060Y08596982D01*
Y08593596D01*
X07100906Y08592750D01*
X07102599D01*
X07103445Y08593596D01*
X07105139Y08592750D02*
X07106831D01*
X07105984D01*
Y08597828D01*
X07105139Y08596982D01*
X07112756Y08597828D02*
X07111063Y08596982D01*
X07109370Y08595289D01*
Y08593596D01*
X07110217Y08592750D01*
X07111910D01*
X07112756Y08593596D01*
Y08594443D01*
X07111910Y08595289D01*
X07109370D01*
X06783885Y08543982D02*
X06783039Y08544828D01*
X06781346D01*
X06780500Y08543982D01*
Y08540596D01*
X06781346Y08539750D01*
X06783039D01*
X06783885Y08540596D01*
X06785579Y08539750D02*
X06787271D01*
X06786425D01*
Y08544828D01*
X06785579Y08543982D01*
X06891636Y08569158D02*
X06890789Y08570005D01*
X06889097D01*
X06888250Y08569158D01*
Y08565773D01*
X06889097Y08564927D01*
X06890789D01*
X06891636Y08565773D01*
X06893328Y08564927D02*
X06895021D01*
X06894175D01*
Y08570005D01*
X06893328Y08569158D01*
X06897560D02*
X06898407Y08570005D01*
X06900099D01*
X06900946Y08569158D01*
Y08568312D01*
X06900099Y08567466D01*
X06899253D01*
X06900099D01*
X06900946Y08566619D01*
Y08565773D01*
X06900099Y08564927D01*
X06898407D01*
X06897560Y08565773D01*
X06921885Y08569158D02*
X06921039Y08570005D01*
X06919346D01*
X06918500Y08569158D01*
Y08565773D01*
X06919346Y08564927D01*
X06921039D01*
X06921885Y08565773D01*
X06923578Y08564927D02*
X06925271D01*
X06924425D01*
Y08570005D01*
X06923578Y08569158D01*
X06931196Y08564927D02*
X06927810D01*
X06931196Y08568312D01*
Y08569158D01*
X06930350Y08570005D01*
X06928657D01*
X06927810Y08569158D01*
X06765225Y08446385D02*
X06764379Y08445539D01*
Y08443846D01*
X06765225Y08443000D01*
X06768611D01*
X06769457Y08443846D01*
Y08445539D01*
X06768611Y08446385D01*
X06769457Y08448079D02*
Y08449771D01*
Y08448925D01*
X06764379D01*
X06765225Y08448079D01*
X06769457Y08452310D02*
Y08454003D01*
Y08453157D01*
X06764379D01*
X06765225Y08452310D01*
X06920135Y08409982D02*
X06919289Y08410828D01*
X06917596D01*
X06916750Y08409982D01*
Y08406597D01*
X06917596Y08405750D01*
X06919289D01*
X06920135Y08406597D01*
X06921828Y08405750D02*
X06923521D01*
X06922675D01*
Y08410828D01*
X06921828Y08409982D01*
X06926060D02*
X06926907Y08410828D01*
X06928599D01*
X06929446Y08409982D01*
Y08406597D01*
X06928599Y08405750D01*
X06926907D01*
X06926060Y08406597D01*
Y08409982D01*
X06921385Y08470232D02*
X06920539Y08471078D01*
X06918846D01*
X06918000Y08470232D01*
Y08466846D01*
X06918846Y08466000D01*
X06920539D01*
X06921385Y08466846D01*
X06923079Y08471078D02*
X06926464D01*
Y08470232D01*
X06923079Y08466846D01*
Y08466000D01*
X06907686Y08500870D02*
X06906840Y08501716D01*
X06905147D01*
X06904301Y08500870D01*
Y08497484D01*
X06905147Y08496638D01*
X06906840D01*
X06907686Y08497484D01*
X06909379D02*
X06910225Y08496638D01*
X06911918D01*
X06912764Y08497484D01*
Y08500870D01*
X06911918Y08501716D01*
X06910225D01*
X06909379Y08500870D01*
Y08500024D01*
X06910225Y08499177D01*
X06912764D01*
X06788135Y08464482D02*
X06787289Y08465328D01*
X06785596D01*
X06784750Y08464482D01*
Y08461096D01*
X06785596Y08460250D01*
X06787289D01*
X06788135Y08461096D01*
X06789828Y08464482D02*
X06790675Y08465328D01*
X06792368D01*
X06793214Y08464482D01*
Y08463636D01*
X06792368Y08462789D01*
X06791521D01*
X06792368D01*
X06793214Y08461943D01*
Y08461096D01*
X06792368Y08460250D01*
X06790675D01*
X06789828Y08461096D01*
X06878915Y08512602D02*
X06878069Y08513448D01*
X06876376D01*
X06875530Y08512602D01*
Y08509216D01*
X06876376Y08508370D01*
X06878069D01*
X06878915Y08509216D01*
X06880609Y08512602D02*
X06881455Y08513448D01*
X06883148D01*
X06883994Y08512602D01*
Y08511755D01*
X06883148Y08510909D01*
X06883994Y08510063D01*
Y08509216D01*
X06883148Y08508370D01*
X06881455D01*
X06880609Y08509216D01*
Y08510063D01*
X06881455Y08510909D01*
X06880609Y08511755D01*
Y08512602D01*
X06881455Y08510909D02*
X06883148D01*
X06823018Y08474886D02*
X06822172Y08474039D01*
Y08472346D01*
X06823018Y08471500D01*
X06826404D01*
X06827250Y08472346D01*
Y08474039D01*
X06826404Y08474886D01*
X06827250Y08479117D02*
X06822172D01*
X06824711Y08476578D01*
Y08479964D01*
X06822518Y08462886D02*
X06821672Y08462039D01*
Y08460347D01*
X06822518Y08459500D01*
X06825903D01*
X06826750Y08460347D01*
Y08462039D01*
X06825903Y08462886D01*
X06821672Y08467964D02*
X06822518Y08466271D01*
X06824211Y08464578D01*
X06825903D01*
X06826750Y08465425D01*
Y08467117D01*
X06825903Y08467964D01*
X06825057D01*
X06824211Y08467117D01*
Y08464578D01*
X06823854Y08434385D02*
X06823007Y08433539D01*
Y08431846D01*
X06823854Y08431000D01*
X06827239D01*
X06828086Y08431846D01*
Y08433539D01*
X06827239Y08434385D01*
X06823007Y08439464D02*
Y08436078D01*
X06825546D01*
X06824700Y08437771D01*
Y08438618D01*
X06825546Y08439464D01*
X06827239D01*
X06828086Y08438618D01*
Y08436925D01*
X06827239Y08436078D01*
X07057635Y08587482D02*
X07056789Y08588328D01*
X07055096D01*
X07054250Y08587482D01*
Y08584097D01*
X07055096Y08583250D01*
X07056789D01*
X07057635Y08584097D01*
X07059329Y08583250D02*
X07061021D01*
X07060175D01*
Y08588328D01*
X07059329Y08587482D01*
X07066099Y08583250D02*
Y08588328D01*
X07063560Y08585789D01*
X07066946D01*
X07027136Y08586982D02*
X07026289Y08587828D01*
X07024597D01*
X07023750Y08586982D01*
Y08583596D01*
X07024597Y08582750D01*
X07026289D01*
X07027136Y08583596D01*
X07028828Y08582750D02*
X07030521D01*
X07029675D01*
Y08587828D01*
X07028828Y08586982D01*
X07036446Y08587828D02*
X07033060D01*
Y08585289D01*
X07034753Y08586136D01*
X07035599D01*
X07036446Y08585289D01*
Y08583596D01*
X07035599Y08582750D01*
X07033907D01*
X07033060Y08583596D01*
X06850135Y08543482D02*
X06849289Y08544329D01*
X06847596D01*
X06846750Y08543482D01*
Y08540096D01*
X06847596Y08539250D01*
X06849289D01*
X06850135Y08540096D01*
X06855214Y08539250D02*
X06851829D01*
X06855214Y08542635D01*
Y08543482D01*
X06854368Y08544329D01*
X06852675D01*
X06851829Y08543482D01*
X06902530Y08550078D02*
X06905916D01*
X06904223D01*
Y08545000D01*
X06907609D02*
Y08550078D01*
X06910148D01*
X06910994Y08549232D01*
Y08547539D01*
X06910148Y08546693D01*
X06907609D01*
X06912687Y08545000D02*
X06914379D01*
X06913533D01*
Y08550078D01*
X06912687Y08549232D01*
X06755108Y08484423D02*
X06758494D01*
X06756801D01*
Y08479344D01*
X06760186D02*
X06761879D01*
X06761033D01*
Y08484423D01*
X06760186Y08483576D01*
X06985335Y08476746D02*
X06988721D01*
X06987028D01*
Y08471667D01*
X06990413D02*
Y08476746D01*
X06992953D01*
X06993799Y08475899D01*
Y08474207D01*
X06992953Y08473360D01*
X06990413D01*
X06998031Y08471667D02*
Y08476746D01*
X06995492Y08474207D01*
X06998878D01*
X06764750Y08495420D02*
X06768135D01*
X06766443D01*
Y08490342D01*
X06769828D02*
Y08495420D01*
X06772368D01*
X06773214Y08494574D01*
Y08492881D01*
X06772368Y08492034D01*
X06769828D01*
X06778292Y08490342D02*
X06774907D01*
X06778292Y08493727D01*
Y08494574D01*
X06777446Y08495420D01*
X06775753D01*
X06774907Y08494574D01*
X07118250Y08607328D02*
X07121636D01*
X07119943D01*
Y08602250D01*
X07123328D02*
Y08607328D01*
X07125867D01*
X07126714Y08606482D01*
Y08604789D01*
X07125867Y08603943D01*
X07123328D01*
X07128407Y08606482D02*
X07129253Y08607328D01*
X07130946D01*
X07131793Y08606482D01*
Y08605635D01*
X07130946Y08604789D01*
X07130099D01*
X07130946D01*
X07131793Y08603943D01*
Y08603096D01*
X07130946Y08602250D01*
X07129253D01*
X07128407Y08603096D01*
X06728732Y08596364D02*
X06729578Y08597211D01*
Y08598904D01*
X06728732Y08599750D01*
X06725347D01*
X06724500Y08598904D01*
Y08597211D01*
X06725347Y08596364D01*
X06727039D01*
Y08598057D01*
X06724500Y08594672D02*
X06729578D01*
X06724500Y08591286D01*
X06729578D01*
Y08589594D02*
X06724500D01*
Y08587054D01*
X06725347Y08586208D01*
X06728732D01*
X06729578Y08587054D01*
Y08589594D01*
X06729828Y08557250D02*
X06726443D01*
X06724750Y08555557D01*
X06726443Y08553864D01*
X06729828D01*
Y08552172D02*
Y08550479D01*
Y08551325D01*
X06724750D01*
Y08552172D01*
Y08550479D01*
Y08547939D02*
X06729828D01*
X06724750Y08544554D01*
X06729828D01*
X07160922Y08491192D02*
X07164307D01*
X07166000Y08492885D01*
X07164307Y08494578D01*
X07160922D01*
Y08498809D02*
Y08497117D01*
X07161768Y08496270D01*
X07165154D01*
X07166000Y08497117D01*
Y08498809D01*
X07165154Y08499656D01*
X07161768D01*
X07160922Y08498809D01*
Y08501349D02*
X07165154D01*
X07166000Y08502195D01*
Y08503888D01*
X07165154Y08504734D01*
X07160922D01*
Y08506427D02*
Y08509813D01*
Y08508120D01*
X07166000D01*
X06730176Y08466644D02*
X06725098D01*
Y08464105D01*
X06725944Y08463259D01*
X06729330D01*
X06730176Y08464105D01*
Y08466644D01*
X06725098Y08461566D02*
X06728483D01*
X06730176Y08459873D01*
X06728483Y08458181D01*
X06725098D01*
X06727637D01*
Y08461566D01*
X06730176Y08456487D02*
Y08453102D01*
Y08454795D01*
X06725098D01*
Y08451409D02*
X06728483D01*
X06730176Y08449717D01*
X06728483Y08448024D01*
X06725098D01*
X06727637D01*
Y08451409D01*
X07160518Y08589636D02*
X07159672Y08588789D01*
Y08587097D01*
X07160518Y08586250D01*
X07163904D01*
X07164750Y08587097D01*
Y08588789D01*
X07163904Y08589636D01*
X07162211D01*
Y08587943D01*
X07164750Y08591328D02*
X07159672D01*
X07164750Y08594714D01*
X07159672D01*
Y08596407D02*
X07164750D01*
Y08598946D01*
X07163904Y08599792D01*
X07160518D01*
X07159672Y08598946D01*
Y08596407D01*
X07160172Y08447500D02*
X07165250D01*
Y08450039D01*
X07164404Y08450886D01*
X07161018D01*
X07160172Y08450039D01*
Y08447500D01*
X07165250Y08452578D02*
X07161865D01*
X07160172Y08454271D01*
X07161865Y08455964D01*
X07165250D01*
X07162711D01*
Y08452578D01*
X07160172Y08457657D02*
Y08461042D01*
Y08459349D01*
X07165250D01*
Y08462735D02*
X07161865D01*
X07160172Y08464428D01*
X07161865Y08466121D01*
X07165250D01*
X07162711D01*
Y08462735D01*
X06737635Y08560750D02*
X06734250D01*
X06737635Y08564136D01*
Y08564982D01*
X06736789Y08565828D01*
X06735096D01*
X06734250Y08564982D01*
X06741868Y08560750D02*
Y08565828D01*
X06739329Y08563289D01*
X06742714D01*
X06744407Y08565828D02*
Y08562443D01*
X06746099Y08560750D01*
X06747792Y08562443D01*
Y08565828D01*
X07143386Y08520328D02*
X07140000D01*
Y08517789D01*
X07141693Y08518636D01*
X07142539D01*
X07143386Y08517789D01*
Y08516096D01*
X07142539Y08515250D01*
X07140847D01*
X07140000Y08516096D01*
X07145078Y08515250D02*
Y08516096D01*
X07145925D01*
Y08515250D01*
X07145078D01*
X07149310Y08519482D02*
X07150157Y08520328D01*
X07151849D01*
X07152696Y08519482D01*
Y08518636D01*
X07151849Y08517789D01*
X07152696Y08516943D01*
Y08516096D01*
X07151849Y08515250D01*
X07150157D01*
X07149310Y08516096D01*
Y08516943D01*
X07150157Y08517789D01*
X07149310Y08518636D01*
Y08519482D01*
X07150157Y08517789D02*
X07151849D01*
X07154388Y08520328D02*
Y08516943D01*
X07156082Y08515250D01*
X07157774Y08516943D01*
Y08520328D01*
X06729578Y08508787D02*
X06726193D01*
X06724500Y08507094D01*
X06726193Y08505401D01*
X06729578D01*
Y08501169D02*
Y08502862D01*
X06728732Y08503708D01*
X06725347D01*
X06724500Y08502862D01*
Y08501169D01*
X06725347Y08500322D01*
X06728732D01*
X06729578Y08501169D01*
Y08498630D02*
X06725347D01*
X06724500Y08497783D01*
Y08496091D01*
X06725347Y08495244D01*
X06729578D01*
Y08493552D02*
Y08490166D01*
Y08491859D01*
X06724500D01*
X07160672Y08543000D02*
X07164057D01*
X07165750Y08544693D01*
X07164057Y08546385D01*
X07160672D01*
Y08548079D02*
Y08549771D01*
Y08548925D01*
X07165750D01*
Y08548079D01*
Y08549771D01*
Y08552310D02*
X07160672D01*
X07165750Y08555696D01*
X07160672D01*
D40*
X06838750Y08479288D02*
G03*
X06838750Y08479288I-00001250J00000000D01*
G01*
D41*
X06760814Y08474500D02*
G03*
X06756750Y08474500I-00002032J-00000147D01*
G01*
X06730000Y08612679D02*
G03*
X06757321Y08640000I00010000J00017320D01*
G01*
X07132679D02*
G03*
X07160000Y08612679I00017320J-00010000D01*
G01*
X07160000Y08437321D02*
G03*
X07132679Y08410000I-00010000J-00017320D01*
G01*
X06757321D02*
G03*
X06730000Y08437321I-00017320J00010000D01*
G01*
X06792958Y08421458D02*
Y08423458D01*
X06787457Y08421458D02*
Y08423458D01*
X06808750Y08417750D02*
X06810750D01*
X06808750Y08423250D02*
X06810750D01*
X06779915Y08421458D02*
Y08423458D01*
X06774415Y08421458D02*
Y08423458D01*
X06868958Y08494580D02*
Y08496580D01*
X06863458Y08494580D02*
Y08496580D01*
X06851750Y08494580D02*
Y08496580D01*
X06846250Y08494580D02*
Y08496580D01*
X06792958Y08476000D02*
Y08478000D01*
X06787457Y08476000D02*
Y08478000D01*
X06808250Y08451793D02*
X06810250D01*
X06808250Y08446293D02*
X06810250D01*
X06808750Y08492920D02*
X06810750D01*
X06808750Y08487420D02*
X06810750D01*
X07004128Y08512000D02*
X07102128D01*
X07004128Y08414000D02*
X07102128D01*
X07004128Y08493258D02*
Y08512000D01*
X07102128Y08493258D02*
Y08512000D01*
X07004128Y08414000D02*
Y08432742D01*
X07102128Y08414000D02*
Y08432742D01*
X07089227Y08530250D02*
X07094977D01*
X07080477Y08539000D02*
X07089227Y08530250D01*
X07124227D02*
X07132977Y08539000D01*
X07118478Y08530250D02*
X07124227D01*
X07080477Y08539000D02*
Y08585250D01*
X07094977D01*
X07118478D02*
X07132977D01*
Y08539000D02*
Y08585250D01*
X07042452Y08551000D02*
Y08564000D01*
X07018953Y08551000D02*
Y08564000D01*
X07073495Y08551000D02*
Y08564000D01*
X07049995Y08551000D02*
Y08564000D01*
X06913168Y08585750D02*
Y08598750D01*
X06889667Y08585750D02*
Y08598750D01*
X06944210Y08585750D02*
Y08598750D01*
X06920710Y08585750D02*
Y08598750D01*
X06778915Y08447500D02*
Y08448500D01*
X06772415Y08447500D02*
Y08448500D01*
X06918250Y08423750D02*
Y08424750D01*
X06924750Y08423750D02*
Y08424750D01*
X06908250Y08493330D02*
X06909250D01*
X06908250Y08486830D02*
X06909250D01*
X06876500Y08495580D02*
Y08496580D01*
X06883000Y08495580D02*
Y08496580D01*
X06918250Y08452288D02*
Y08453288D01*
X06924750Y08452288D02*
Y08453288D01*
X06809250Y08465835D02*
X06810250D01*
X06809250Y08459335D02*
X06810250D01*
X06809250Y08432250D02*
X06810250D01*
X06809250Y08438750D02*
X06810250D01*
X06809250Y08479877D02*
X06810250D01*
X06809250Y08473378D02*
X06810250D01*
X06792958Y08447500D02*
Y08448500D01*
X06786458Y08447500D02*
Y08448500D01*
X06835375Y08550500D02*
X06841125D01*
X06826625Y08559250D02*
X06835375Y08550500D01*
X06870375D02*
X06879125Y08559250D01*
X06864625Y08550500D02*
X06870375D01*
X06826625Y08559250D02*
Y08605500D01*
X06841125D01*
X06864625D02*
X06879125D01*
Y08559250D02*
Y08605500D01*
X06769332Y08550750D02*
X06775082D01*
X06760582Y08559500D02*
X06769332Y08550750D01*
X06804332D02*
X06813082Y08559500D01*
X06798583Y08550750D02*
X06804332D01*
X06760582Y08559500D02*
Y08605750D01*
X06775082D01*
X06798583D02*
X06813082D01*
Y08559500D02*
Y08605750D01*
M02*
