G04 Layer_Physical_Order=4*
G04 Layer_Color=16711680*
%FSAX44Y44*%
%MOMM*%
G71*
G01*
G75*
%ADD12C,1.0000*%
%ADD23C,0.1270*%
%ADD27C,0.3810*%
%ADD30C,2.0000*%
G04:AMPARAMS|DCode=31|XSize=2mm|YSize=2mm|CornerRadius=0.5mm|HoleSize=0mm|Usage=FLASHONLY|Rotation=270.000|XOffset=0mm|YOffset=0mm|HoleType=Round|Shape=RoundedRectangle|*
%AMROUNDEDRECTD31*
21,1,2.0000,1.0000,0,0,270.0*
21,1,1.0000,2.0000,0,0,270.0*
1,1,1.0000,-0.5000,-0.5000*
1,1,1.0000,-0.5000,0.5000*
1,1,1.0000,0.5000,0.5000*
1,1,1.0000,0.5000,-0.5000*
%
%ADD31ROUNDEDRECTD31*%
%ADD32C,3.0000*%
%ADD33C,0.5000*%
%ADD34C,0.6000*%
G36*
X06866500Y08570500D02*
X06866500Y08520000D01*
X06725098Y08520000D01*
Y08570500D01*
X06866500Y08570500D01*
D02*
G37*
G36*
X07121652Y08570750D02*
X07121837Y08570713D01*
X07121994Y08570608D01*
X07122609Y08569994D01*
X07122714Y08569836D01*
X07122750Y08569651D01*
X07122750Y08547544D01*
X07122750Y08546345D01*
X07122750Y08546345D01*
X07122750Y08546344D01*
X07122750Y08545500D01*
X07123347Y08544902D01*
X07123347Y08544902D01*
X07123347Y08544902D01*
X07157557Y08510693D01*
X07157662Y08510536D01*
X07157698Y08510351D01*
X07157699Y08487110D01*
X07157662Y08486924D01*
X07157557Y08486768D01*
X07156943Y08486153D01*
X07156786Y08486048D01*
X07156600Y08486011D01*
X06988981D01*
Y08489959D01*
X06989710Y08491049D01*
X06990098Y08493000D01*
X06989710Y08494951D01*
X06988605Y08496605D01*
X06986951Y08497710D01*
X06985000Y08498098D01*
X06983049Y08497710D01*
X06981395Y08496605D01*
X06980290Y08494951D01*
X06979902Y08493000D01*
X06980290Y08491049D01*
X06981019Y08489959D01*
Y08486011D01*
X06725098D01*
Y08515922D01*
X06866500Y08515922D01*
X06868061Y08516232D01*
X06869384Y08517116D01*
X06870268Y08518439D01*
X06870579Y08520000D01*
X06870578Y08569681D01*
X06870591Y08569691D01*
X06870698Y08569730D01*
X06870910Y08569924D01*
X06871143Y08570094D01*
X06871633Y08570628D01*
X06871732Y08570694D01*
X06871758Y08570720D01*
X06871795Y08570722D01*
X06871910Y08570750D01*
X06893500D01*
X07121652Y08570750D01*
D02*
G37*
G36*
X06925500Y08465898D02*
X06924602Y08465000D01*
X06887250Y08465000D01*
X06887250Y08410537D01*
X06766036D01*
X06763224Y08413349D01*
Y08431750D01*
X06763076Y08432493D01*
X06762655Y08433123D01*
X06759750Y08436028D01*
X06759750Y08483965D01*
X06925500Y08483968D01*
X06925500Y08465898D01*
D02*
G37*
G36*
X06740000Y08644902D02*
X07150000D01*
X07151468Y08644902D01*
X07154347Y08644329D01*
X07157059Y08643206D01*
X07159500Y08641575D01*
X07161575Y08639500D01*
X07163206Y08637059D01*
X07164329Y08634347D01*
X07164902Y08631468D01*
X07164902Y08630000D01*
Y08420000D01*
X07164902Y08418532D01*
X07164329Y08415653D01*
X07163206Y08412941D01*
X07161575Y08410500D01*
X07159500Y08408425D01*
X07157059Y08406794D01*
X07154347Y08405671D01*
X07151468Y08405098D01*
X06738532D01*
X06735653Y08405671D01*
X06732941Y08406794D01*
X06730500Y08408425D01*
X06728425Y08410500D01*
X06726794Y08412941D01*
X06725671Y08415653D01*
X06725098Y08418532D01*
X06725098Y08420000D01*
Y08483972D01*
X06756444D01*
X06757711Y08482702D01*
X06757711Y08439727D01*
X06756537Y08439241D01*
X06755155Y08440623D01*
X06754525Y08441044D01*
X06753782Y08441192D01*
X06746555D01*
X06744442Y08443304D01*
Y08445688D01*
X06745442Y08445820D01*
X06748184Y08446956D01*
X06750538Y08448762D01*
X06752344Y08451116D01*
X06753480Y08453858D01*
X06753867Y08456800D01*
X06753480Y08459742D01*
X06752344Y08462484D01*
X06750538Y08464838D01*
X06748184Y08466644D01*
X06745442Y08467780D01*
X06742500Y08468167D01*
X06739558Y08467780D01*
X06736816Y08466644D01*
X06734462Y08464838D01*
X06732656Y08462484D01*
X06731520Y08459742D01*
X06731133Y08456800D01*
X06731520Y08453858D01*
X06732656Y08451116D01*
X06734462Y08448762D01*
X06736816Y08446956D01*
X06739558Y08445820D01*
X06740558Y08445688D01*
Y08442500D01*
X06740706Y08441757D01*
X06741127Y08441127D01*
X06744377Y08437877D01*
X06745007Y08437455D01*
X06745750Y08437308D01*
X06752977D01*
X06759339Y08430945D01*
Y08412545D01*
X06759487Y08411801D01*
X06759908Y08411171D01*
X06763857Y08407222D01*
X06763857Y08407222D01*
X06764488Y08406801D01*
X06765231Y08406653D01*
X07124095D01*
X07124838Y08406801D01*
X07125468Y08407222D01*
X07128219Y08409972D01*
X07128640Y08410602D01*
X07128787Y08411345D01*
Y08435341D01*
X07141016Y08447570D01*
X07141816Y08446956D01*
X07144558Y08445820D01*
X07147500Y08445433D01*
X07150442Y08445820D01*
X07153184Y08446956D01*
X07155538Y08448762D01*
X07157344Y08451116D01*
X07158480Y08453858D01*
X07158867Y08456800D01*
X07158480Y08459742D01*
X07157344Y08462484D01*
X07155538Y08464838D01*
X07153184Y08466644D01*
X07150442Y08467780D01*
X07147500Y08468167D01*
X07144558Y08467780D01*
X07141816Y08466644D01*
X07139462Y08464838D01*
X07137656Y08462484D01*
X07136520Y08459742D01*
X07136133Y08456800D01*
X07136520Y08453858D01*
X07137656Y08451116D01*
X07138270Y08450316D01*
X07125472Y08437519D01*
X07125051Y08436888D01*
X07124903Y08436145D01*
Y08412150D01*
X07123290Y08410537D01*
X06889289D01*
X06889289Y08462961D01*
X06924602Y08462961D01*
X06925383Y08463116D01*
X06926044Y08463558D01*
X06926942Y08464456D01*
X06926942Y08464456D01*
X06927384Y08465118D01*
X06927540Y08465898D01*
X06927539Y08482702D01*
X06928807Y08483972D01*
X06981019D01*
Y08458899D01*
X06979601Y08457482D01*
X06912541D01*
X06911451Y08458210D01*
X06909500Y08458598D01*
X06907549Y08458210D01*
X06905895Y08457105D01*
X06904790Y08455451D01*
X06904402Y08453500D01*
X06904790Y08451549D01*
X06905895Y08449895D01*
X06907549Y08448790D01*
X06909500Y08448402D01*
X06911451Y08448790D01*
X06912541Y08449518D01*
X06981250D01*
X06982773Y08449822D01*
X06984066Y08450685D01*
X06987816Y08454435D01*
X06988679Y08455726D01*
X06988981Y08457250D01*
Y08483972D01*
X07156600D01*
X07156797Y08484011D01*
X07156998Y08484011D01*
X07157184Y08484048D01*
X07157369Y08484125D01*
X07157380Y08484127D01*
X07157390Y08484134D01*
X07157712Y08484267D01*
X07157723Y08484269D01*
X07157733Y08484276D01*
X07157919Y08484352D01*
X07158076Y08484457D01*
X07158218Y08484600D01*
X07158384Y08484711D01*
X07158999Y08485325D01*
X07159111Y08485493D01*
X07159252Y08485635D01*
X07159357Y08485792D01*
X07159434Y08485977D01*
X07159441Y08485987D01*
X07159443Y08485999D01*
X07159576Y08486320D01*
X07159583Y08486330D01*
X07159585Y08486341D01*
X07159662Y08486526D01*
X07159699Y08486712D01*
X07159699Y08486913D01*
X07159738Y08487110D01*
X07159738Y08510351D01*
X07159698Y08510548D01*
Y08510749D01*
X07159662Y08510934D01*
X07159585Y08511120D01*
X07159583Y08511132D01*
X07159576Y08511141D01*
X07159443Y08511462D01*
X07159440Y08511474D01*
X07159434Y08511484D01*
X07159357Y08511669D01*
X07159252Y08511827D01*
X07159110Y08511968D01*
X07158998Y08512136D01*
X07124789Y08546345D01*
X07124789Y08547544D01*
X07124789Y08569651D01*
X07124750Y08569848D01*
Y08570049D01*
X07124714Y08570234D01*
X07124637Y08570420D01*
X07124634Y08570432D01*
X07124628Y08570441D01*
X07124495Y08570763D01*
X07124492Y08570774D01*
X07124486Y08570784D01*
X07124409Y08570969D01*
X07124409Y08570969D01*
X07124304Y08571127D01*
X07124162Y08571269D01*
X07124050Y08571436D01*
X07123436Y08572050D01*
X07123269Y08572161D01*
X07123127Y08572303D01*
X07122970Y08572408D01*
X07122970Y08572408D01*
X07122970Y08572408D01*
X07122784Y08572485D01*
X07122775Y08572492D01*
X07122764Y08572494D01*
X07122576Y08572572D01*
X07122441Y08572628D01*
X07122432Y08572634D01*
X07122421Y08572636D01*
X07122235Y08572713D01*
X07122235D01*
X07122234Y08572713D01*
X07122050Y08572750D01*
X07121849D01*
X07121652Y08572789D01*
X06893500Y08572789D01*
X06871910D01*
X06871760Y08572759D01*
X06871758Y08572759D01*
X06871735Y08572755D01*
X06871708Y08572759D01*
X06871671Y08572758D01*
X06871591Y08572738D01*
X06871428Y08572731D01*
X06871313Y08572703D01*
X06871191Y08572647D01*
X06870977Y08572604D01*
X06870941Y08572580D01*
X06870898Y08572570D01*
X06870722Y08572441D01*
X06870599Y08572390D01*
X06870500Y08572324D01*
X06870385Y08572208D01*
X06870316Y08572162D01*
X06870289Y08572136D01*
X06870274Y08572113D01*
X06870256Y08572100D01*
X06870255Y08572098D01*
X06870131Y08572007D01*
X06869777Y08571622D01*
X06869706Y08571570D01*
X06869630Y08571487D01*
X06869337Y08571438D01*
X06868796Y08571467D01*
X06868444Y08571543D01*
X06868049Y08571782D01*
X06867942Y08571942D01*
X06867280Y08572384D01*
X06866500Y08572539D01*
X06725098Y08572539D01*
Y08630000D01*
X06725098Y08631468D01*
X06725671Y08634347D01*
X06726794Y08637059D01*
X06728425Y08639500D01*
X06730500Y08641575D01*
X06732941Y08643206D01*
X06735653Y08644329D01*
X06738532Y08644902D01*
X06740000Y08644902D01*
D02*
G37*
%LPC*%
G36*
X07123263Y08534697D02*
Y08529267D01*
X07128694D01*
X07128604Y08529953D01*
X07127946Y08531540D01*
X07126900Y08532903D01*
X07125537Y08533949D01*
X07123950Y08534606D01*
X07123263Y08534697D01*
D02*
G37*
G36*
X07121230Y08534697D02*
X07120544Y08534606D01*
X07118957Y08533949D01*
X07117595Y08532903D01*
X07116548Y08531540D01*
X07115891Y08529953D01*
X07115801Y08529267D01*
X07121230D01*
Y08534697D01*
D02*
G37*
G36*
Y08527234D02*
X07115801D01*
X07115891Y08526547D01*
X07116548Y08524960D01*
X07117595Y08523597D01*
X07118957Y08522551D01*
X07120544Y08521894D01*
X07121230Y08521804D01*
Y08527234D01*
D02*
G37*
G36*
X07128694D02*
X07123263D01*
Y08521804D01*
X07123950Y08521894D01*
X07125537Y08522551D01*
X07126900Y08523597D01*
X07127946Y08524960D01*
X07128604Y08526547D01*
X07128694Y08527234D01*
D02*
G37*
G36*
X06826000Y08439344D02*
X06824529Y08439051D01*
X06823282Y08438218D01*
X06822449Y08436971D01*
X06822156Y08435500D01*
X06822449Y08434029D01*
X06823282Y08432782D01*
X06824058Y08432264D01*
Y08431523D01*
X06824205Y08430781D01*
X06824548Y08430269D01*
X06824622Y08430047D01*
X06824570Y08428756D01*
X06823737Y08427509D01*
X06823444Y08426038D01*
X06823737Y08424567D01*
X06824570Y08423320D01*
X06825817Y08422487D01*
X06827288Y08422194D01*
X06828759Y08422487D01*
X06830006Y08423320D01*
X06830839Y08424567D01*
X06831132Y08426038D01*
X06830839Y08427509D01*
X06830006Y08428756D01*
X06829230Y08429274D01*
Y08430236D01*
X06829230Y08430236D01*
X06829082Y08430979D01*
X06828661Y08431609D01*
X06828726Y08432793D01*
X06829551Y08434029D01*
X06829844Y08435500D01*
X06829551Y08436971D01*
X06828718Y08438218D01*
X06827471Y08439051D01*
X06826000Y08439344D01*
D02*
G37*
G36*
X07147500Y08559504D02*
X07144368Y08559091D01*
X07141448Y08557882D01*
X07138942Y08555959D01*
X07137018Y08553452D01*
X07135809Y08550533D01*
X07135396Y08547400D01*
X07135809Y08544268D01*
X07137018Y08541348D01*
X07138942Y08538842D01*
X07141448Y08536918D01*
X07144368Y08535709D01*
X07147500Y08535297D01*
X07150632Y08535709D01*
X07153552Y08536918D01*
X07156058Y08538842D01*
X07157982Y08541348D01*
X07159191Y08544268D01*
X07159604Y08547400D01*
X07159191Y08550533D01*
X07157982Y08553452D01*
X07156058Y08555959D01*
X07153552Y08557882D01*
X07150632Y08559091D01*
X07147500Y08559504D01*
D02*
G37*
G36*
X06909500Y08437635D02*
X06907549Y08437248D01*
X06905895Y08436143D01*
X06904790Y08434489D01*
X06904402Y08432538D01*
X06904790Y08430587D01*
X06905895Y08428933D01*
X06907549Y08427828D01*
X06909500Y08427440D01*
X06911451Y08427828D01*
X06912541Y08428557D01*
X06979111D01*
X06979917Y08427574D01*
X06979902Y08427500D01*
X06980290Y08425549D01*
X06981395Y08423895D01*
X06983049Y08422790D01*
X06985000Y08422402D01*
X06986951Y08422790D01*
X06988605Y08423895D01*
X06989710Y08425549D01*
X06990098Y08427500D01*
X06989710Y08429451D01*
X06988981Y08430541D01*
Y08430848D01*
X06988679Y08432372D01*
X06987816Y08433663D01*
X06986125Y08435353D01*
X06984834Y08436216D01*
X06983310Y08436519D01*
X06912541D01*
X06911451Y08437248D01*
X06909500Y08437635D01*
D02*
G37*
%LPD*%
D12*
X07122247Y08528250D02*
D03*
D23*
X06761282Y08412545D02*
Y08431750D01*
X06753782Y08439250D02*
X06761282Y08431750D01*
X06745750Y08439250D02*
X06753782D01*
X06742500Y08442500D02*
X06745750Y08439250D01*
X06742500Y08442500D02*
Y08456800D01*
X07126845Y08411345D02*
Y08436145D01*
X07147500Y08456800D01*
X07124095Y08408595D02*
X07126845Y08411345D01*
X06765231Y08408595D02*
X07124095D01*
X06761282Y08412545D02*
X06765231Y08408595D01*
X06827288Y08426038D02*
Y08430236D01*
X06826000Y08431523D02*
X06827288Y08430236D01*
X06826000Y08431523D02*
Y08435500D01*
D27*
X06981250Y08453500D02*
X06985000Y08457250D01*
Y08493000D01*
X06909500Y08453500D02*
X06981250D01*
X06909500Y08432538D02*
X06983310D01*
X06985000Y08430848D01*
Y08427500D02*
Y08430848D01*
D30*
X06742500Y08547733D02*
D03*
Y08502267D02*
D03*
Y08456800D02*
D03*
X07147500Y08547400D02*
D03*
Y08502600D02*
D03*
Y08456800D02*
D03*
D31*
X06742500Y08593200D02*
D03*
X07147500D02*
D03*
D32*
X06740000Y08420000D02*
D03*
X07150000D02*
D03*
X07150000Y08630000D02*
D03*
X06740000D02*
D03*
D33*
X06872500Y08443288D02*
D03*
X06861500D02*
D03*
X06872500Y08454288D02*
D03*
X06861500D02*
D03*
X07030720Y08423700D02*
D03*
Y08413540D02*
D03*
X07020560Y08423700D02*
D03*
Y08413540D02*
D03*
X07010400Y08423700D02*
D03*
Y08413540D02*
D03*
X07000240Y08423700D02*
D03*
Y08413540D02*
D03*
X06990080D02*
D03*
X06969760D02*
D03*
X06959600D02*
D03*
X06949440D02*
D03*
X06939280D02*
D03*
X06929120Y08423700D02*
D03*
X06908800D02*
D03*
Y08413540D02*
D03*
X06898640D02*
D03*
X06878320Y08474456D02*
D03*
Y08464296D02*
D03*
Y08423656D02*
D03*
Y08413496D02*
D03*
X06868160Y08474456D02*
D03*
Y08464296D02*
D03*
Y08423656D02*
D03*
Y08413496D02*
D03*
X06858000Y08474456D02*
D03*
Y08464296D02*
D03*
Y08423656D02*
D03*
Y08413496D02*
D03*
X06847840Y08423656D02*
D03*
Y08413496D02*
D03*
X06837680D02*
D03*
X06827520D02*
D03*
X06807200D02*
D03*
X06776720Y08474456D02*
D03*
Y08464296D02*
D03*
X06766560Y08474456D02*
D03*
Y08464296D02*
D03*
Y08423656D02*
D03*
Y08413496D02*
D03*
X06795448Y08462750D02*
D03*
X06826000Y08435500D02*
D03*
X06827288Y08426038D02*
D03*
X06907625Y08480750D02*
D03*
X06902000D02*
D03*
X06826500Y08445538D02*
D03*
X06907625Y08474854D02*
D03*
X07071360Y08503920D02*
D03*
Y08514080D02*
D03*
X07081520Y08503920D02*
D03*
Y08514080D02*
D03*
X07091680Y08503920D02*
D03*
Y08514080D02*
D03*
X07101840Y08503920D02*
D03*
Y08514080D02*
D03*
X07112000Y08503920D02*
D03*
Y08514080D02*
D03*
X07122160Y08503920D02*
D03*
Y08514080D02*
D03*
X06766560Y08595360D02*
D03*
Y08615680D02*
D03*
Y08636000D02*
D03*
X06786880Y08615680D02*
D03*
Y08636000D02*
D03*
X06807200Y08595360D02*
D03*
Y08615680D02*
D03*
Y08636000D02*
D03*
X06827520Y08595360D02*
D03*
Y08615680D02*
D03*
Y08636000D02*
D03*
X06847840Y08615680D02*
D03*
Y08636000D02*
D03*
X06868160Y08595360D02*
D03*
Y08615680D02*
D03*
Y08636000D02*
D03*
X06888480Y08595360D02*
D03*
Y08636000D02*
D03*
X06908800Y08595360D02*
D03*
Y08636000D02*
D03*
X06929120Y08595360D02*
D03*
Y08636000D02*
D03*
X06949440Y08595360D02*
D03*
Y08615680D02*
D03*
Y08636000D02*
D03*
X06969760Y08595360D02*
D03*
Y08615680D02*
D03*
Y08636000D02*
D03*
X06990080Y08595360D02*
D03*
Y08615680D02*
D03*
Y08636000D02*
D03*
X07010400Y08595360D02*
D03*
Y08615680D02*
D03*
Y08636000D02*
D03*
X07030720Y08595360D02*
D03*
Y08615680D02*
D03*
Y08636000D02*
D03*
X07051040Y08595360D02*
D03*
Y08615680D02*
D03*
Y08636000D02*
D03*
X07071360Y08595360D02*
D03*
Y08615680D02*
D03*
Y08636000D02*
D03*
X07091680Y08595360D02*
D03*
Y08615680D02*
D03*
Y08636000D02*
D03*
X07112000Y08615680D02*
D03*
Y08636000D02*
D03*
X06729730Y08472170D02*
D03*
Y08481060D02*
D03*
X06738620Y08472170D02*
D03*
Y08481060D02*
D03*
X06747510Y08472170D02*
D03*
Y08481060D02*
D03*
D34*
X06985000Y08493000D02*
D03*
X06909500Y08432538D02*
D03*
X06731000Y08534400D02*
D03*
X06743700D02*
D03*
X06756400D02*
D03*
Y08547100D02*
D03*
Y08559800D02*
D03*
X06769100Y08534400D02*
D03*
Y08547100D02*
D03*
Y08559800D02*
D03*
X06781800Y08534400D02*
D03*
X06794500D02*
D03*
X06807200D02*
D03*
Y08547100D02*
D03*
Y08559800D02*
D03*
X06819900Y08534400D02*
D03*
Y08547100D02*
D03*
Y08559800D02*
D03*
X06832600Y08534400D02*
D03*
Y08547100D02*
D03*
Y08559800D02*
D03*
X06845300Y08534400D02*
D03*
X06858000D02*
D03*
X06909500Y08453500D02*
D03*
X06985000Y08427500D02*
D03*
M02*
