G04 Layer_Color=27648*
%FSAX44Y44*%
%MOMM*%
G71*
G01*
G75*
%ADD12C,1.0000*%
%ADD30C,2.0000*%
G04:AMPARAMS|DCode=31|XSize=2mm|YSize=2mm|CornerRadius=0.5mm|HoleSize=0mm|Usage=FLASHONLY|Rotation=270.000|XOffset=0mm|YOffset=0mm|HoleType=Round|Shape=RoundedRectangle|*
%AMROUNDEDRECTD31*
21,1,2.0000,1.0000,0,0,270.0*
21,1,1.0000,2.0000,0,0,270.0*
1,1,1.0000,-0.5000,-0.5000*
1,1,1.0000,-0.5000,0.5000*
1,1,1.0000,0.5000,0.5000*
1,1,1.0000,0.5000,-0.5000*
%
%ADD31ROUNDEDRECTD31*%
%ADD32C,3.0000*%
%ADD42R,2.5616X2.4116*%
%ADD43O,1.5016X0.5516*%
G04:AMPARAMS|DCode=44|XSize=0.8516mm|YSize=0.6016mm|CornerRadius=0.0533mm|HoleSize=0mm|Usage=FLASHONLY|Rotation=0.000|XOffset=0mm|YOffset=0mm|HoleType=Round|Shape=RoundedRectangle|*
%AMROUNDEDRECTD44*
21,1,0.8516,0.4950,0,0,0.0*
21,1,0.7450,0.6016,0,0,0.0*
1,1,0.1066,0.3725,-0.2475*
1,1,0.1066,-0.3725,-0.2475*
1,1,0.1066,-0.3725,0.2475*
1,1,0.1066,0.3725,0.2475*
%
%ADD44ROUNDEDRECTD44*%
G04:AMPARAMS|DCode=45|XSize=0.8516mm|YSize=0.6016mm|CornerRadius=0.0533mm|HoleSize=0mm|Usage=FLASHONLY|Rotation=270.000|XOffset=0mm|YOffset=0mm|HoleType=Round|Shape=RoundedRectangle|*
%AMROUNDEDRECTD45*
21,1,0.8516,0.4950,0,0,270.0*
21,1,0.7450,0.6016,0,0,270.0*
1,1,0.1066,-0.2475,-0.3725*
1,1,0.1066,-0.2475,0.3725*
1,1,0.1066,0.2475,0.3725*
1,1,0.1066,0.2475,-0.3725*
%
%ADD45ROUNDEDRECTD45*%
G04:AMPARAMS|DCode=46|XSize=0.7516mm|YSize=1.3016mm|CornerRadius=0.0541mm|HoleSize=0mm|Usage=FLASHONLY|Rotation=0.000|XOffset=0mm|YOffset=0mm|HoleType=Round|Shape=RoundedRectangle|*
%AMROUNDEDRECTD46*
21,1,0.7516,1.1935,0,0,0.0*
21,1,0.6435,1.3016,0,0,0.0*
1,1,0.1081,0.3217,-0.5968*
1,1,0.1081,-0.3217,-0.5968*
1,1,0.1081,-0.3217,0.5968*
1,1,0.1081,0.3217,0.5968*
%
%ADD46ROUNDEDRECTD46*%
G04:AMPARAMS|DCode=47|XSize=5.4516mm|YSize=3.0016mm|CornerRadius=0.0653mm|HoleSize=0mm|Usage=FLASHONLY|Rotation=90.000|XOffset=0mm|YOffset=0mm|HoleType=Round|Shape=RoundedRectangle|*
%AMROUNDEDRECTD47*
21,1,5.4516,2.8710,0,0,90.0*
21,1,5.3210,3.0016,0,0,90.0*
1,1,0.1306,1.4355,2.6605*
1,1,0.1306,1.4355,-2.6605*
1,1,0.1306,-1.4355,-2.6605*
1,1,0.1306,-1.4355,2.6605*
%
%ADD47ROUNDEDRECTD47*%
G04:AMPARAMS|DCode=48|XSize=1.3516mm|YSize=2.3516mm|CornerRadius=0.0571mm|HoleSize=0mm|Usage=FLASHONLY|Rotation=180.000|XOffset=0mm|YOffset=0mm|HoleType=Round|Shape=RoundedRectangle|*
%AMROUNDEDRECTD48*
21,1,1.3516,2.2375,0,0,180.0*
21,1,1.2375,2.3516,0,0,180.0*
1,1,0.1141,-0.6188,1.1187*
1,1,0.1141,0.6188,1.1187*
1,1,0.1141,0.6188,-1.1187*
1,1,0.1141,-0.6188,-1.1187*
%
%ADD48ROUNDEDRECTD48*%
G04:AMPARAMS|DCode=49|XSize=2.6516mm|YSize=1.3016mm|CornerRadius=0.0568mm|HoleSize=0mm|Usage=FLASHONLY|Rotation=0.000|XOffset=0mm|YOffset=0mm|HoleType=Round|Shape=RoundedRectangle|*
%AMROUNDEDRECTD49*
21,1,2.6516,1.1880,0,0,0.0*
21,1,2.5380,1.3016,0,0,0.0*
1,1,0.1136,1.2690,-0.5940*
1,1,0.1136,-1.2690,-0.5940*
1,1,0.1136,-1.2690,0.5940*
1,1,0.1136,1.2690,0.5940*
%
%ADD49ROUNDEDRECTD49*%
G04:AMPARAMS|DCode=50|XSize=0.9516mm|YSize=0.7016mm|CornerRadius=0.0538mm|HoleSize=0mm|Usage=FLASHONLY|Rotation=0.000|XOffset=0mm|YOffset=0mm|HoleType=Round|Shape=RoundedRectangle|*
%AMROUNDEDRECTD50*
21,1,0.9516,0.5940,0,0,0.0*
21,1,0.8440,0.7016,0,0,0.0*
1,1,0.1076,0.4220,-0.2970*
1,1,0.1076,-0.4220,-0.2970*
1,1,0.1076,-0.4220,0.2970*
1,1,0.1076,0.4220,0.2970*
%
%ADD50ROUNDEDRECTD50*%
G04:AMPARAMS|DCode=51|XSize=0.9516mm|YSize=0.7016mm|CornerRadius=0.0538mm|HoleSize=0mm|Usage=FLASHONLY|Rotation=90.000|XOffset=0mm|YOffset=0mm|HoleType=Round|Shape=RoundedRectangle|*
%AMROUNDEDRECTD51*
21,1,0.9516,0.5940,0,0,90.0*
21,1,0.8440,0.7016,0,0,90.0*
1,1,0.1076,0.2970,0.4220*
1,1,0.1076,0.2970,-0.4220*
1,1,0.1076,-0.2970,-0.4220*
1,1,0.1076,-0.2970,0.4220*
%
%ADD51ROUNDEDRECTD51*%
%ADD52C,0.6016*%
G36*
X06981642Y08564274D02*
X06981738Y08564244D01*
X06981826Y08564197D01*
X06981904Y08564134D01*
X06981967Y08564056D01*
X06982014Y08563969D01*
X06982043Y08563873D01*
X06982053Y08563773D01*
Y08558773D01*
Y08513773D01*
X06982043Y08513673D01*
X06982014Y08513578D01*
X06981967Y08513489D01*
X06981904Y08513412D01*
X06981826Y08513348D01*
X06981738Y08513301D01*
X06981642Y08513272D01*
X06981542Y08513262D01*
X06934542D01*
X06934443Y08513272D01*
X06934347Y08513301D01*
X06934259Y08513348D01*
X06934182Y08513412D01*
X06934118Y08513489D01*
X06934071Y08513578D01*
X06934042Y08513673D01*
X06934032Y08513773D01*
Y08558773D01*
Y08563773D01*
X06934042Y08563873D01*
X06934071Y08563969D01*
X06934118Y08564056D01*
X06934182Y08564134D01*
X06934259Y08564197D01*
X06934347Y08564244D01*
X06934443Y08564274D01*
X06934542Y08564283D01*
X06941542D01*
X06941642Y08564274D01*
X06941738Y08564244D01*
X06941826Y08564197D01*
X06941904Y08564134D01*
X06941967Y08564056D01*
X06942014Y08563969D01*
X06942043Y08563873D01*
X06942053Y08563773D01*
Y08559283D01*
X06947382D01*
Y08563773D01*
X06947392Y08563873D01*
X06947421Y08563969D01*
X06947468Y08564056D01*
X06947532Y08564134D01*
X06947609Y08564197D01*
X06947697Y08564244D01*
X06947793Y08564274D01*
X06947892Y08564283D01*
X06954893D01*
X06954992Y08564274D01*
X06955088Y08564244D01*
X06955176Y08564197D01*
X06955253Y08564134D01*
X06955317Y08564056D01*
X06955364Y08563969D01*
X06955393Y08563873D01*
X06955403Y08563773D01*
Y08559283D01*
X06960682D01*
Y08563773D01*
X06960692Y08563873D01*
X06960721Y08563969D01*
X06960768Y08564056D01*
X06960831Y08564134D01*
X06960909Y08564197D01*
X06960997Y08564244D01*
X06961093Y08564274D01*
X06961193Y08564283D01*
X06968193D01*
X06968292Y08564274D01*
X06968388Y08564244D01*
X06968476Y08564197D01*
X06968553Y08564134D01*
X06968617Y08564056D01*
X06968664Y08563969D01*
X06968693Y08563873D01*
X06968703Y08563773D01*
Y08559283D01*
X06974032D01*
Y08563773D01*
X06974042Y08563873D01*
X06974071Y08563969D01*
X06974118Y08564056D01*
X06974182Y08564134D01*
X06974259Y08564197D01*
X06974347Y08564244D01*
X06974443Y08564274D01*
X06974542Y08564283D01*
X06981542D01*
X06981642Y08564274D01*
D02*
G37*
G36*
Y08486811D02*
X06981738Y08486782D01*
X06981826Y08486735D01*
X06981904Y08486671D01*
X06981967Y08486594D01*
X06982014Y08486505D01*
X06982043Y08486409D01*
X06982053Y08486310D01*
Y08481310D01*
Y08436310D01*
X06982043Y08436210D01*
X06982014Y08436115D01*
X06981967Y08436027D01*
X06981904Y08435949D01*
X06981826Y08435886D01*
X06981738Y08435839D01*
X06981642Y08435809D01*
X06981542Y08435800D01*
X06934542D01*
X06934443Y08435809D01*
X06934347Y08435839D01*
X06934259Y08435886D01*
X06934182Y08435949D01*
X06934118Y08436027D01*
X06934071Y08436115D01*
X06934042Y08436210D01*
X06934032Y08436310D01*
Y08481310D01*
Y08486310D01*
X06934042Y08486409D01*
X06934071Y08486505D01*
X06934118Y08486594D01*
X06934182Y08486671D01*
X06934259Y08486735D01*
X06934347Y08486782D01*
X06934443Y08486811D01*
X06934542Y08486821D01*
X06941542D01*
X06941642Y08486811D01*
X06941738Y08486782D01*
X06941826Y08486735D01*
X06941904Y08486671D01*
X06941967Y08486594D01*
X06942014Y08486505D01*
X06942043Y08486409D01*
X06942053Y08486310D01*
Y08481821D01*
X06947382D01*
Y08486310D01*
X06947392Y08486409D01*
X06947421Y08486505D01*
X06947468Y08486594D01*
X06947532Y08486671D01*
X06947609Y08486735D01*
X06947697Y08486782D01*
X06947793Y08486811D01*
X06947892Y08486821D01*
X06954893D01*
X06954992Y08486811D01*
X06955088Y08486782D01*
X06955176Y08486735D01*
X06955253Y08486671D01*
X06955317Y08486594D01*
X06955364Y08486505D01*
X06955393Y08486409D01*
X06955403Y08486310D01*
Y08481821D01*
X06960682D01*
Y08486310D01*
X06960692Y08486409D01*
X06960721Y08486505D01*
X06960768Y08486594D01*
X06960831Y08486671D01*
X06960909Y08486735D01*
X06960997Y08486782D01*
X06961093Y08486811D01*
X06961193Y08486821D01*
X06968193D01*
X06968292Y08486811D01*
X06968388Y08486782D01*
X06968476Y08486735D01*
X06968553Y08486671D01*
X06968617Y08486594D01*
X06968664Y08486505D01*
X06968693Y08486409D01*
X06968703Y08486310D01*
Y08481821D01*
X06974032D01*
Y08486310D01*
X06974042Y08486409D01*
X06974071Y08486505D01*
X06974118Y08486594D01*
X06974182Y08486671D01*
X06974259Y08486735D01*
X06974347Y08486782D01*
X06974443Y08486811D01*
X06974542Y08486821D01*
X06981542D01*
X06981642Y08486811D01*
D02*
G37*
D12*
X06992585Y08464003D02*
D03*
X07112500Y08604750D02*
D03*
X06771750Y08483750D02*
D03*
X06909000Y08537500D02*
D03*
D30*
X06742500Y08547733D02*
D03*
Y08502267D02*
D03*
Y08456800D02*
D03*
X07147500Y08547400D02*
D03*
Y08502600D02*
D03*
Y08456800D02*
D03*
D31*
X06742500Y08593200D02*
D03*
X07147500D02*
D03*
D32*
X06740000Y08420000D02*
D03*
X07150000D02*
D03*
X07150000Y08630000D02*
D03*
X06740000D02*
D03*
D42*
X06867000Y08448788D02*
D03*
D43*
X06896500Y08426038D02*
D03*
Y08432538D02*
D03*
Y08439038D02*
D03*
Y08445538D02*
D03*
Y08452038D02*
D03*
Y08458538D02*
D03*
Y08465038D02*
D03*
Y08471538D02*
D03*
X06837500Y08426038D02*
D03*
Y08432538D02*
D03*
Y08439038D02*
D03*
Y08445538D02*
D03*
Y08452038D02*
D03*
Y08458538D02*
D03*
Y08465038D02*
D03*
Y08471538D02*
D03*
D44*
X06790208Y08429708D02*
D03*
Y08415208D02*
D03*
X06777165Y08429708D02*
D03*
Y08415208D02*
D03*
X06866207Y08502830D02*
D03*
Y08488330D02*
D03*
X06849000Y08502830D02*
D03*
Y08488330D02*
D03*
X06790208Y08484250D02*
D03*
Y08469750D02*
D03*
D45*
X06817000Y08420500D02*
D03*
X06802500D02*
D03*
X06802000Y08449042D02*
D03*
X06816500D02*
D03*
X06802500Y08490170D02*
D03*
X06817000D02*
D03*
D46*
X06937977Y08480000D02*
D03*
X06951439D02*
D03*
X06964647D02*
D03*
X06978109D02*
D03*
X06977092Y08423810D02*
D03*
X06964393D02*
D03*
X06951693D02*
D03*
X06938992D02*
D03*
X06937977Y08557463D02*
D03*
X06951439D02*
D03*
X06964647D02*
D03*
X06978109D02*
D03*
X06977092Y08501273D02*
D03*
X06964393D02*
D03*
X06951693D02*
D03*
X06938992D02*
D03*
D47*
X07015878Y08463000D02*
D03*
X07090378D02*
D03*
D48*
X07106727Y08537750D02*
D03*
Y08577750D02*
D03*
X06852875Y08558000D02*
D03*
Y08598000D02*
D03*
X06786832Y08558250D02*
D03*
Y08598250D02*
D03*
D49*
X07030703Y08571750D02*
D03*
Y08543250D02*
D03*
X07061745Y08571750D02*
D03*
Y08543250D02*
D03*
X06901417Y08606500D02*
D03*
Y08578000D02*
D03*
X06932460Y08606500D02*
D03*
Y08578000D02*
D03*
D50*
X06775665Y08455250D02*
D03*
Y08440750D02*
D03*
X06921500Y08417000D02*
D03*
Y08431500D02*
D03*
X06879750Y08488831D02*
D03*
Y08503330D02*
D03*
X06921500Y08445538D02*
D03*
Y08460038D02*
D03*
X06789708Y08455250D02*
D03*
Y08440750D02*
D03*
D51*
X06901500Y08490081D02*
D03*
X06916000D02*
D03*
X06802500Y08462585D02*
D03*
X06817000D02*
D03*
Y08435500D02*
D03*
X06802500D02*
D03*
Y08476627D02*
D03*
X06817000D02*
D03*
D52*
X06872500Y08443288D02*
D03*
X06861500D02*
D03*
X06872500Y08454288D02*
D03*
X06861500D02*
D03*
M02*
