G04 Layer_Physical_Order=3*
G04 Layer_Color=128*
%FSAX44Y44*%
%MOMM*%
G71*
G01*
G75*
%ADD35C,1.0160*%
%ADD36C,2.0080*%
%ADD37C,0.8080*%
%ADD38C,0.9080*%
%ADD39C,2.5080*%
D35*
X06720000Y08420000D02*
G03*
X06740000Y08400000I00020000J00000000D01*
G01*
X07150000D02*
G03*
X07170000Y08420000I00000000J00020000D01*
G01*
Y08630000D02*
G03*
X07150000Y08650000I-00020000J00000000D01*
G01*
X06740000D02*
G03*
X06720000Y08630000I00000000J-00020000D01*
G01*
X07170000Y08420000D02*
Y08630000D01*
X07170000D01*
X07150000Y08650000D02*
Y08650000D01*
X06740000Y08650000D02*
X07150000D01*
X06740000D02*
Y08650000D01*
X06720000Y08630000D02*
X06720000D01*
X07170000Y08420000D02*
X07170000D01*
X06740000Y08400000D02*
X07150000D01*
X06720000Y08420000D02*
X06720000Y08630000D01*
D36*
X06742500Y08593200D02*
D03*
Y08502267D02*
D03*
Y08456800D02*
D03*
X07147500Y08593200D02*
D03*
Y08502600D02*
D03*
Y08456800D02*
D03*
D37*
X06872500Y08443288D02*
D03*
X06861500D02*
D03*
X06872500Y08454288D02*
D03*
X06861500D02*
D03*
X07030720Y08423700D02*
D03*
Y08413540D02*
D03*
X07020560Y08423700D02*
D03*
Y08413540D02*
D03*
X07010400Y08423700D02*
D03*
Y08413540D02*
D03*
X07000240Y08423700D02*
D03*
Y08413540D02*
D03*
X06990080D02*
D03*
X06969760D02*
D03*
X06959600D02*
D03*
X06949440D02*
D03*
X06939280D02*
D03*
X06929120Y08423700D02*
D03*
X06908800D02*
D03*
Y08413540D02*
D03*
X06898640D02*
D03*
X06878320Y08474456D02*
D03*
Y08464296D02*
D03*
Y08423656D02*
D03*
Y08413496D02*
D03*
X06868160Y08474456D02*
D03*
Y08464296D02*
D03*
Y08423656D02*
D03*
Y08413496D02*
D03*
X06858000Y08474456D02*
D03*
Y08464296D02*
D03*
Y08423656D02*
D03*
Y08413496D02*
D03*
X06847840Y08423656D02*
D03*
Y08413496D02*
D03*
X06837680D02*
D03*
X06827520D02*
D03*
X06807200D02*
D03*
X06776720Y08474456D02*
D03*
Y08464296D02*
D03*
X06766560Y08474456D02*
D03*
Y08464296D02*
D03*
Y08423656D02*
D03*
Y08413496D02*
D03*
X06795448Y08462750D02*
D03*
X06826000Y08435500D02*
D03*
X06827288Y08426038D02*
D03*
X06907625Y08480750D02*
D03*
X06902000D02*
D03*
X06826500Y08445538D02*
D03*
X06907625Y08474854D02*
D03*
X07071360Y08503920D02*
D03*
Y08514080D02*
D03*
X07081520Y08503920D02*
D03*
Y08514080D02*
D03*
X07091680Y08503920D02*
D03*
Y08514080D02*
D03*
X07101840Y08503920D02*
D03*
Y08514080D02*
D03*
X07112000Y08503920D02*
D03*
Y08514080D02*
D03*
X07122160Y08503920D02*
D03*
Y08514080D02*
D03*
X06766560Y08595360D02*
D03*
Y08615680D02*
D03*
Y08636000D02*
D03*
X06786880Y08615680D02*
D03*
Y08636000D02*
D03*
X06807200Y08595360D02*
D03*
Y08615680D02*
D03*
Y08636000D02*
D03*
X06827520Y08595360D02*
D03*
Y08615680D02*
D03*
Y08636000D02*
D03*
X06847840Y08615680D02*
D03*
Y08636000D02*
D03*
X06868160Y08595360D02*
D03*
Y08615680D02*
D03*
Y08636000D02*
D03*
X06888480Y08595360D02*
D03*
Y08636000D02*
D03*
X06908800Y08595360D02*
D03*
Y08636000D02*
D03*
X06929120Y08595360D02*
D03*
Y08636000D02*
D03*
X06949440Y08595360D02*
D03*
Y08615680D02*
D03*
Y08636000D02*
D03*
X06969760Y08595360D02*
D03*
Y08615680D02*
D03*
Y08636000D02*
D03*
X06990080Y08595360D02*
D03*
Y08615680D02*
D03*
Y08636000D02*
D03*
X07010400Y08595360D02*
D03*
Y08615680D02*
D03*
Y08636000D02*
D03*
X07030720Y08595360D02*
D03*
Y08615680D02*
D03*
Y08636000D02*
D03*
X07051040Y08595360D02*
D03*
Y08615680D02*
D03*
Y08636000D02*
D03*
X07071360Y08595360D02*
D03*
Y08615680D02*
D03*
Y08636000D02*
D03*
X07091680Y08595360D02*
D03*
Y08615680D02*
D03*
Y08636000D02*
D03*
X07112000Y08615680D02*
D03*
Y08636000D02*
D03*
X06729730Y08472170D02*
D03*
Y08481060D02*
D03*
X06738620Y08472170D02*
D03*
Y08481060D02*
D03*
X06747510Y08472170D02*
D03*
Y08481060D02*
D03*
D38*
X06985000Y08493000D02*
D03*
X06909500Y08432538D02*
D03*
Y08453500D02*
D03*
X06985000Y08427500D02*
D03*
D39*
X06740000Y08420000D02*
D03*
X07150000D02*
D03*
X07150000Y08630000D02*
D03*
X06740000D02*
D03*
M02*
