G04*
G04 #@! TF.GenerationSoftware,Altium Limited,Altium Designer,20.1.8 (145)*
G04*
G04 Layer_Color=16777215*
%FSAX44Y44*%
%MOMM*%
G71*
G04*
G04 #@! TF.SameCoordinates,DAE18ED5-9265-4BEA-8E83-C5C8D91DC67F*
G04*
G04*
G04 #@! TF.FilePolarity,Positive*
G04*
G01*
G75*
%ADD10C,0.1524*%
%ADD11C,0.2500*%
%ADD12C,0.2540*%
%ADD13C,0.1016*%
%ADD14C,0.1270*%
D10*
X00200014Y00129739D02*
G03*
X00200014Y00129739I-00000762J00000000D01*
G01*
X00244264Y00165512D02*
G03*
X00244264Y00165512I-00000762J00000000D01*
G01*
X00218486Y00058306D02*
G03*
X00218486Y00064402I00000000J00003048D01*
G01*
X00221025Y00032104D02*
G03*
X00221025Y00032104I-00000762J00000000D01*
G01*
X00052502Y00086000D02*
X00181502D01*
Y00214000D01*
X00052502D02*
X00181502D01*
X00052502Y00086000D02*
Y00214000D01*
X00188013Y00126525D02*
Y00186525D01*
X00238013D01*
Y00126525D02*
Y00186525D01*
X00188013Y00126525D02*
X00238013D01*
X00240288Y00126750D02*
Y00176750D01*
Y00126750D02*
X00300288D01*
Y00176750D01*
X00240288D02*
X00300288D01*
X00218486Y00040014D02*
Y00082694D01*
X00269540Y00040014D02*
Y00082694D01*
X00199214Y00102534D02*
X00197944Y00103804D01*
X00195405D01*
X00194135Y00102534D01*
Y00097456D01*
X00195405Y00096186D01*
X00197944D01*
X00199214Y00097456D01*
Y00099995D01*
X00196674D01*
X00201753Y00096186D02*
Y00103804D01*
X00206831Y00096186D01*
Y00103804D01*
X00209370D02*
Y00096186D01*
X00213179D01*
X00214449Y00097456D01*
Y00102534D01*
X00213179Y00103804D01*
X00209370D01*
X00011493Y00106572D02*
Y00101493D01*
X00014032Y00098954D01*
X00016571Y00101493D01*
Y00106572D01*
X00022919D02*
X00020380D01*
X00019110Y00105302D01*
Y00100224D01*
X00020380Y00098954D01*
X00022919D01*
X00024188Y00100224D01*
Y00105302D01*
X00022919Y00106572D01*
X00026728D02*
Y00100224D01*
X00027997Y00098954D01*
X00030536D01*
X00031806Y00100224D01*
Y00106572D01*
X00034345D02*
X00039423D01*
X00036884D01*
Y00098954D01*
X00314573Y00120920D02*
Y00115842D01*
X00317112Y00113303D01*
X00319652Y00115842D01*
Y00120920D01*
X00322191D02*
X00324730D01*
X00323460D01*
Y00113303D01*
X00322191D01*
X00324730D01*
X00328539D02*
Y00120920D01*
X00333617Y00113303D01*
Y00120920D01*
X00309852Y00106572D02*
Y00098954D01*
X00313661D01*
X00314930Y00100224D01*
Y00105302D01*
X00313661Y00106572D01*
X00309852D01*
X00317469Y00098954D02*
Y00104032D01*
X00320009Y00106572D01*
X00322548Y00104032D01*
Y00098954D01*
Y00102763D01*
X00317469D01*
X00325087Y00106572D02*
X00330165D01*
X00327626D01*
Y00098954D01*
X00332704D02*
Y00104032D01*
X00335244Y00106572D01*
X00337783Y00104032D01*
Y00098954D01*
Y00102763D01*
X00332704D01*
D11*
X00057220Y00020619D02*
G03*
X00057220Y00020619I-00001250J00000000D01*
G01*
X00105223D02*
G03*
X00105223Y00020619I-00001250J00000000D01*
G01*
X00153225D02*
G03*
X00153225Y00020619I-00001250J00000000D01*
G01*
D12*
X00086429Y00038938D02*
G03*
X00061072Y00038938I-00012679J-00027189D01*
G01*
X00134431D02*
G03*
X00109074Y00038938I-00012679J-00027189D01*
G01*
X00182434D02*
G03*
X00157077Y00038938I-00012679J-00027189D01*
G01*
X00073750Y00047999D02*
Y00060999D01*
Y00028249D02*
Y00041749D01*
X00060750Y00047999D02*
X00086750D01*
X00108753D02*
X00134753D01*
X00121753Y00028249D02*
Y00041749D01*
Y00047999D02*
Y00060999D01*
X00169755Y00047999D02*
Y00060999D01*
Y00028249D02*
Y00041749D01*
X00156755Y00047999D02*
X00182755D01*
D13*
X00349332Y00025000D02*
G03*
X00349332Y00025000I-00024492J00000000D01*
G01*
Y00195000D02*
G03*
X00349332Y00195000I-00024492J00000000D01*
G01*
X00049492Y00025000D02*
G03*
X00049492Y00025000I-00024492J00000000D01*
G01*
Y00195000D02*
G03*
X00049492Y00195000I-00024492J00000000D01*
G01*
X00284000Y00083111D02*
X00284724Y00084761D01*
X00285379Y00083082D01*
X00286035Y00081402D01*
X00286759Y00083053D01*
X00287483Y00084704D01*
X00288138Y00083025D01*
X00288794Y00081345D01*
X00289518Y00082996D01*
X00283982Y00070645D02*
X00284706Y00072296D01*
X00285361Y00070616D01*
X00286017Y00068937D01*
X00286741Y00070587D01*
X00287465Y00072238D01*
X00288120Y00070559D01*
X00288776Y00068879D01*
X00289500Y00070530D01*
X00288000Y00044934D02*
X00289500D01*
X00284000D02*
X00285500D01*
X00285500Y00041934D02*
Y00047934D01*
X00288000Y00041934D02*
Y00047934D01*
X00279747Y00013114D02*
X00280471Y00014765D01*
X00281126Y00013085D01*
X00281782Y00011406D01*
X00282506Y00013057D01*
X00283230Y00014708D01*
X00283885Y00013028D01*
X00284540Y00011349D01*
X00285265Y00012999D01*
X00256263Y00009999D02*
Y00015999D01*
X00258763Y00009999D02*
Y00015999D01*
X00258763Y00012999D02*
X00260263D01*
X00254763D02*
X00256263D01*
X00027742Y00152500D02*
Y00165500D01*
X00032242Y00159000D02*
X00038742D01*
X00021242D02*
X00027742D01*
X00032242Y00152500D02*
Y00165500D01*
X00051250Y00007249D02*
Y00082249D01*
X00096250Y00007249D02*
Y00082249D01*
X00051250Y00007249D02*
X00058492D01*
X00051250Y00082249D02*
X00058492D01*
X00089008Y00007249D02*
X00096250D01*
X00089008Y00082249D02*
X00096250D01*
X00137011D02*
X00144253D01*
X00137011Y00007249D02*
X00144253D01*
X00099253Y00082249D02*
X00106495D01*
X00099253Y00007249D02*
X00106495D01*
X00144253D02*
Y00082249D01*
X00099253Y00007249D02*
Y00082249D01*
X00147255Y00007249D02*
Y00082249D01*
X00192255Y00007249D02*
Y00082249D01*
X00147255Y00007249D02*
X00154497D01*
X00147255Y00082249D02*
X00154497D01*
X00185013Y00007249D02*
X00192255D01*
X00185013Y00082249D02*
X00192255D01*
X00209271Y00037906D02*
Y00039906D01*
Y00042906D02*
Y00044906D01*
X00205521Y00042906D02*
X00213021D01*
X00205521Y00039906D02*
X00213021D01*
X00219799Y00008599D02*
Y00016099D01*
X00222799Y00008599D02*
Y00016099D01*
Y00012349D02*
X00224799D01*
X00217799D02*
X00219799D01*
X00283982Y00057836D02*
X00284706Y00059487D01*
X00285361Y00057808D01*
X00286017Y00056128D01*
X00286741Y00057779D01*
X00287465Y00059430D01*
X00288120Y00057750D01*
X00288776Y00056071D01*
X00289500Y00057722D01*
X00287199Y00113973D02*
X00288850Y00113249D01*
X00287170Y00112593D02*
X00288850Y00113249D01*
X00285491Y00111938D02*
X00287170Y00112593D01*
X00285491Y00111938D02*
X00287142Y00111214D01*
X00288792Y00110490D01*
X00287113Y00109834D02*
X00288792Y00110490D01*
X00285433Y00109179D02*
X00287113Y00109834D01*
X00285433Y00109179D02*
X00287084Y00108455D01*
X00272739Y00109253D02*
Y00111253D01*
Y00114253D02*
Y00116253D01*
X00268989Y00114253D02*
X00276489D01*
X00268989Y00111253D02*
X00276489D01*
X00285567Y00199253D02*
Y00205753D01*
Y00188253D02*
Y00194753D01*
X00279067D02*
X00292066D01*
X00279067Y00199253D02*
X00292066D01*
X00256564D02*
Y00205753D01*
Y00188253D02*
Y00194753D01*
X00250064D02*
X00263064D01*
X00250064Y00199253D02*
X00263064D01*
X00304676Y00049359D02*
X00298582D01*
Y00052406D01*
X00299597Y00053422D01*
X00301629D01*
X00302644Y00052406D01*
Y00049359D01*
Y00051391D02*
X00304676Y00053422D01*
X00299597Y00056469D02*
X00300613D01*
Y00055453D01*
Y00057485D01*
Y00056469D01*
X00303660D01*
X00304676Y00057485D01*
Y00064594D02*
Y00060532D01*
X00300613Y00064594D01*
X00299597D01*
X00298582Y00063579D01*
Y00061547D01*
X00299597Y00060532D01*
D14*
X00299344Y00003904D02*
X00293250D01*
Y00006951D01*
X00294265Y00007967D01*
X00296297D01*
X00297313Y00006951D01*
Y00003904D01*
Y00005936D02*
X00299344Y00007967D01*
Y00011014D02*
Y00013045D01*
X00298328Y00014061D01*
X00296297D01*
X00295281Y00013045D01*
Y00011014D01*
X00296297Y00009998D01*
X00298328D01*
X00299344Y00011014D01*
Y00016092D02*
X00295281D01*
Y00019139D01*
X00296297Y00020155D01*
X00299344D01*
X00214634Y00085687D02*
X00219713D01*
X00220728Y00086702D01*
Y00088734D01*
X00219713Y00089749D01*
X00214634D01*
X00220728Y00091781D02*
Y00093812D01*
Y00092796D01*
X00214634D01*
X00215650Y00091781D01*
X00300126Y00098298D02*
X00294032D01*
Y00101345D01*
X00295048Y00102360D01*
X00297079D01*
X00298095Y00101345D01*
Y00098298D01*
Y00100329D02*
X00300126Y00102360D01*
Y00104392D02*
Y00106423D01*
Y00105407D01*
X00296063D01*
Y00104392D01*
X00300126Y00109470D02*
Y00111501D01*
Y00110486D01*
X00294032D01*
Y00109470D01*
X00300126Y00114548D02*
Y00116580D01*
Y00115564D01*
X00296063D01*
Y00114548D01*
X00300126Y00119627D02*
X00296063D01*
Y00120642D01*
X00297079Y00121658D01*
X00300126D01*
X00297079D01*
X00296063Y00122674D01*
X00297079Y00123689D01*
X00300126D01*
X00298646Y00069047D02*
Y00075141D01*
X00301693D01*
X00302708Y00074126D01*
Y00072094D01*
X00301693Y00071079D01*
X00298646D01*
X00300677D02*
X00302708Y00069047D01*
X00305756Y00074126D02*
Y00073110D01*
X00304740D01*
X00306771D01*
X00305756D01*
Y00070063D01*
X00306771Y00069047D01*
X00309818D02*
X00311849D01*
X00310834D01*
Y00075141D01*
X00309818Y00074126D01*
X00279841Y00089922D02*
Y00096016D01*
X00282888D01*
X00283904Y00095000D01*
Y00092969D01*
X00282888Y00091953D01*
X00279841D01*
X00281872D02*
X00283904Y00089922D01*
X00285935Y00096016D02*
Y00089922D01*
X00288982D01*
X00289998Y00090938D01*
Y00091953D01*
Y00092969D01*
X00288982Y00093985D01*
X00285935D01*
X00292029Y00089922D02*
X00294060D01*
X00293045D01*
Y00096016D01*
X00292029Y00095000D01*
X00185604Y00212570D02*
Y00206476D01*
X00189667D01*
X00191698D02*
X00193729D01*
X00192714D01*
Y00212570D01*
X00191698Y00211555D01*
X00195196Y00035343D02*
X00194180Y00034328D01*
Y00032296D01*
X00195196Y00031281D01*
X00199258D01*
X00200274Y00032296D01*
Y00034328D01*
X00199258Y00035343D01*
X00196211Y00037375D02*
X00200274Y00039406D01*
X00196211Y00041437D01*
Y00047531D02*
Y00044484D01*
X00197227Y00043469D01*
X00199258D01*
X00200274Y00044484D01*
Y00047531D01*
X00196211Y00053625D02*
Y00050578D01*
X00197227Y00049563D01*
X00199258D01*
X00200274Y00050578D01*
Y00053625D01*
X00257839Y00023678D02*
X00256824Y00024694D01*
X00254792D01*
X00253777Y00023678D01*
Y00019616D01*
X00254792Y00018600D01*
X00256824D01*
X00257839Y00019616D01*
X00259871Y00018600D02*
X00262918D01*
X00263933Y00019616D01*
X00262918Y00020631D01*
X00260886D01*
X00259871Y00021647D01*
X00260886Y00022663D01*
X00263933D01*
X00265965Y00018600D02*
X00269012D01*
X00270027Y00019616D01*
X00269012Y00020631D01*
X00266980D01*
X00265965Y00021647D01*
X00266980Y00022663D01*
X00270027D01*
X00155642Y00094041D02*
X00154626Y00095057D01*
X00152595D01*
X00151579Y00094041D01*
Y00089978D01*
X00152595Y00088963D01*
X00154626D01*
X00155642Y00089978D01*
X00158689Y00088963D02*
X00160720D01*
X00161736Y00089978D01*
Y00092010D01*
X00160720Y00093025D01*
X00158689D01*
X00157673Y00092010D01*
Y00089978D01*
X00158689Y00088963D01*
X00163767Y00093025D02*
Y00089978D01*
X00164783Y00088963D01*
X00167830D01*
Y00093025D01*
X00170877Y00094041D02*
Y00093025D01*
X00169861D01*
X00171893D01*
X00170877D01*
Y00089978D01*
X00171893Y00088963D01*
X00174940Y00094041D02*
X00175955Y00095057D01*
X00177987D01*
X00179002Y00094041D01*
Y00093025D01*
X00177987Y00092010D01*
X00176971D01*
X00177987D01*
X00179002Y00090994D01*
Y00089978D01*
X00177987Y00088963D01*
X00175955D01*
X00174940Y00089978D01*
X00113351Y00094031D02*
X00112336Y00095047D01*
X00110304D01*
X00109289Y00094031D01*
Y00089969D01*
X00110304Y00088953D01*
X00112336D01*
X00113351Y00089969D01*
X00116398Y00088953D02*
X00118429D01*
X00119445Y00089969D01*
Y00092000D01*
X00118429Y00093016D01*
X00116398D01*
X00115382Y00092000D01*
Y00089969D01*
X00116398Y00088953D01*
X00121476Y00093016D02*
Y00089969D01*
X00122492Y00088953D01*
X00125539D01*
Y00093016D01*
X00128586Y00094031D02*
Y00093016D01*
X00127570D01*
X00129602D01*
X00128586D01*
Y00089969D01*
X00129602Y00088953D01*
X00136712D02*
X00132649D01*
X00136712Y00093016D01*
Y00094031D01*
X00135696Y00095047D01*
X00133665D01*
X00132649Y00094031D01*
X00066367D02*
X00065351Y00095047D01*
X00063320D01*
X00062304Y00094031D01*
Y00089969D01*
X00063320Y00088953D01*
X00065351D01*
X00066367Y00089969D01*
X00069414Y00088953D02*
X00071445D01*
X00072461Y00089969D01*
Y00092000D01*
X00071445Y00093016D01*
X00069414D01*
X00068398Y00092000D01*
Y00089969D01*
X00069414Y00088953D01*
X00074492Y00093016D02*
Y00089969D01*
X00075508Y00088953D01*
X00078555D01*
Y00093016D01*
X00081602Y00094031D02*
Y00093016D01*
X00080586D01*
X00082618D01*
X00081602D01*
Y00089969D01*
X00082618Y00088953D01*
X00085665D02*
X00087696D01*
X00086680D01*
Y00095047D01*
X00085665Y00094031D01*
X00224075Y00198213D02*
X00223060Y00197197D01*
Y00195166D01*
X00224075Y00194150D01*
X00228138D01*
X00229153Y00195166D01*
Y00197197D01*
X00228138Y00198213D01*
X00229153Y00200244D02*
Y00202276D01*
Y00201260D01*
X00225091D01*
Y00200244D01*
X00229153Y00205322D02*
X00225091D01*
Y00208370D01*
X00226106Y00209385D01*
X00229153D01*
Y00211416D02*
Y00213448D01*
Y00212432D01*
X00223060D01*
X00224075Y00211416D01*
X00281126Y00037239D02*
X00280110Y00038255D01*
X00278079D01*
X00277063Y00037239D01*
Y00033176D01*
X00278079Y00032161D01*
X00280110D01*
X00281126Y00033176D01*
X00284173Y00032161D02*
Y00037239D01*
Y00035208D01*
X00283157D01*
X00285188D01*
X00284173D01*
Y00037239D01*
X00285188Y00038255D01*
X00289251Y00032161D02*
Y00037239D01*
Y00035208D01*
X00288235D01*
X00290267D01*
X00289251D01*
Y00037239D01*
X00290267Y00038255D01*
X00199391Y00008892D02*
X00198375Y00007877D01*
Y00005845D01*
X00199391Y00004830D01*
X00203454D01*
X00204469Y00005845D01*
Y00007877D01*
X00203454Y00008892D01*
X00198375Y00010924D02*
X00204469D01*
Y00013971D01*
X00203454Y00014986D01*
X00202438D01*
X00201422D01*
X00200407Y00013971D01*
Y00010924D01*
Y00017018D02*
X00203454D01*
X00204469Y00018033D01*
Y00021080D01*
X00205485D01*
X00206501Y00020065D01*
Y00019049D01*
X00204469Y00021080D02*
X00200407D01*
X00206501Y00023112D02*
X00200407D01*
Y00026159D01*
X00201422Y00027174D01*
X00203454D01*
X00204469Y00026159D01*
Y00023112D01*
X00256666Y00106315D02*
X00255650Y00105299D01*
Y00103268D01*
X00256666Y00102252D01*
X00260729D01*
X00261744Y00103268D01*
Y00105299D01*
X00260729Y00106315D01*
X00255650Y00108346D02*
X00261744D01*
Y00111393D01*
X00260729Y00112409D01*
X00259713D01*
X00258697D01*
X00257682Y00111393D01*
Y00108346D01*
X00261744Y00114440D02*
Y00117487D01*
X00260729Y00118503D01*
X00259713Y00117487D01*
Y00115456D01*
X00258697Y00114440D01*
X00257682Y00115456D01*
Y00118503D01*
X00256666Y00121550D02*
X00257682D01*
Y00120534D01*
Y00122565D01*
Y00121550D01*
X00260729D01*
X00261744Y00122565D01*
X00239951Y00117698D02*
Y00123792D01*
X00241982Y00121761D01*
X00244013Y00123792D01*
Y00117698D01*
X00246045D02*
X00248076D01*
X00247060D01*
Y00123792D01*
X00246045Y00122776D01*
X00190143Y00192007D02*
Y00198101D01*
X00192175Y00196069D01*
X00194206Y00198101D01*
Y00192007D01*
X00200300D02*
X00196237D01*
X00200300Y00196069D01*
Y00197085D01*
X00199284Y00198101D01*
X00197253D01*
X00196237Y00197085D01*
X00232969Y00198148D02*
X00231953Y00197132D01*
Y00195101D01*
X00232969Y00194086D01*
X00237031D01*
X00238047Y00195101D01*
Y00197132D01*
X00237031Y00198148D01*
X00238047Y00200180D02*
Y00202211D01*
Y00201195D01*
X00233984D01*
Y00200180D01*
X00238047Y00205258D02*
X00233984D01*
Y00208305D01*
X00235000Y00209321D01*
X00238047D01*
Y00215415D02*
Y00211352D01*
X00233984Y00215415D01*
X00232969D01*
X00231953Y00214399D01*
Y00212367D01*
X00232969Y00211352D01*
X00009952Y00168520D02*
X00010968Y00169536D01*
Y00171567D01*
X00009952Y00172583D01*
X00005889D01*
X00004873Y00171567D01*
Y00169536D01*
X00005889Y00168520D01*
X00004873Y00165473D02*
Y00163442D01*
X00005889Y00162426D01*
X00007921D01*
X00008936Y00163442D01*
Y00165473D01*
X00007921Y00166489D01*
X00005889D01*
X00004873Y00165473D01*
X00008936Y00160395D02*
X00005889D01*
X00004873Y00159379D01*
Y00156332D01*
X00008936D01*
X00009952Y00153285D02*
X00008936D01*
Y00154301D01*
Y00152269D01*
Y00153285D01*
X00005889D01*
X00004873Y00152269D01*
Y00146175D02*
X00010968D01*
X00007921Y00149222D01*
Y00145160D01*
M02*
