M48
;Layer_Color=9474304
;FILE_FORMAT=4:4
METRIC
;TYPE=PLATED
T1F00S00C0.4000
T2F00S00C1.0000
T3F00S00C2.0000
%
T01
X00072599Y00032287
X00080099Y00032287
X00087599Y00032287
X00095099Y00032287
X00102599Y00032287
X00110099Y00032287
X00117599Y00032287
X00125099Y00032287
X00132599Y00032287
X00140099Y00032287
X00147599Y00032287
X00155099Y00032287
X00162599Y00032287
X00170099Y00032287
X00177599Y00032287
X00185099Y00032287
X00185000Y00040000
X00177500Y00040000
X00170000Y00040000
X00162500Y00040000
X00155000Y00040000
X00147500Y00040000
X00140000Y00040000
X00132500Y00040000
X00125000Y00040000
X00117500Y00040000
X00110000Y00040000
X00102500Y00040000
X00095000Y00040000
X00087500Y00040000
X00080000Y00040000
X00072500Y00040000
X00032713Y00151849
X00032713Y00159349
X00032713Y00166849
X00025000Y00166750
X00025000Y00159250
X00025000Y00151750
X00149502Y00150000
X00149502Y00137500
X00149502Y00125000
X00162003Y00125000
X00174503Y00125000
X00174503Y00137500
X00174503Y00150000
X00174503Y00162500
X00174503Y00175000
X00162003Y00175000
X00149502Y00175000
X00149502Y00162500
X00162003Y00162500
X00162003Y00150000
X00162003Y00137500
X00198013Y00145275
X00208013Y00145275
X00218013Y00145275
X00228013Y00145275
X00228013Y00155275
X00228013Y00165275
X00228013Y00175275
X00218013Y00175275
X00218013Y00165275
X00218013Y00155275
X00208013Y00155275
X00208013Y00165275
X00208013Y00175275
X00198013Y00175275
X00198013Y00165275
X00198013Y00155275
X00195000Y00120000
X00202500Y00120000
X00210000Y00120000
X00217500Y00120000
X00217599Y00112287
X00210099Y00112287
X00202599Y00112287
X00195099Y00112287
X00235513Y00104809
X00258803Y00104809
X00252437Y00121809
X00259038Y00136750
X00259038Y00146750
X00259038Y00156750
X00259038Y00166750
X00269038Y00166750
X00279038Y00166750
X00289038Y00166750
X00289038Y00156750
X00279038Y00156750
X00269038Y00156750
X00269038Y00146750
X00279038Y00146750
X00289038Y00146750
X00289038Y00136750
X00279038Y00136750
X00269038Y00136750
X00244970Y00151725
X00244013Y00071354
X00244013Y00061354
X00234013Y00061354
X00224013Y00061354
X00224013Y00051354
X00234013Y00051354
X00244013Y00051354
X00254013Y00051354
X00254013Y00061354
X00254013Y00071354
X00264013Y00071354
X00264013Y00061354
X00264013Y00051354
X00272534Y00035016
X00289076Y00032906
X00282515Y00022885
X00250513Y00022516
X00240399Y00014199
X00215457Y00023371
X00208744Y00023273
X00224013Y00071354
X00234013Y00071354
X00246748Y00194778
X00246748Y00202648
X00256471Y00202648
X00256471Y00194778
X00266195Y00194778
X00266195Y00202648
X00275918Y00202648
X00275918Y00194778
X00285641Y00194778
X00285641Y00202648
X00295365Y00202648
X00295365Y00194778
T02
X00013781Y00060749
X00033781Y00060749
X00205026Y00065703
X00205026Y00085703
X00317090Y00060749
X00337090Y00060749
X00333590Y00158750
X00313590Y00158750
T03
X00025000Y00025000
X00324840Y00025000
X00324840Y00195000
X00025000Y00195000
M30
