G04*
G04 #@! TF.GenerationSoftware,Altium Limited,Altium Designer,20.1.8 (145)*
G04*
G04 Layer_Physical_Order=1*
G04 Layer_Color=2232046*
%FSAX44Y44*%
%MOMM*%
G71*
G04*
G04 #@! TF.SameCoordinates,038E23F0-B42B-4C45-894E-EE78EB3E0CC3*
G04*
G04*
G04 #@! TF.FilePolarity,Positive*
G04*
G01*
G75*
%ADD13C,0.2032*%
%ADD14C,0.1270*%
%ADD17C,0.1524*%
G04:AMPARAMS|DCode=19|XSize=0.35mm|YSize=0.6mm|CornerRadius=0.0018mm|HoleSize=0mm|Usage=FLASHONLY|Rotation=90.000|XOffset=0mm|YOffset=0mm|HoleType=Round|Shape=RoundedRectangle|*
%AMROUNDEDRECTD19*
21,1,0.3500,0.5965,0,0,90.0*
21,1,0.3465,0.6000,0,0,90.0*
1,1,0.0035,0.2983,0.1733*
1,1,0.0035,0.2983,-0.1733*
1,1,0.0035,-0.2983,-0.1733*
1,1,0.0035,-0.2983,0.1733*
%
%ADD19ROUNDEDRECTD19*%
G04:AMPARAMS|DCode=20|XSize=0.85mm|YSize=0.6mm|CornerRadius=0.003mm|HoleSize=0mm|Usage=FLASHONLY|Rotation=90.000|XOffset=0mm|YOffset=0mm|HoleType=Round|Shape=RoundedRectangle|*
%AMROUNDEDRECTD20*
21,1,0.8500,0.5940,0,0,90.0*
21,1,0.8440,0.6000,0,0,90.0*
1,1,0.0060,0.2970,0.4220*
1,1,0.0060,0.2970,-0.4220*
1,1,0.0060,-0.2970,-0.4220*
1,1,0.0060,-0.2970,0.4220*
%
%ADD20ROUNDEDRECTD20*%
G04:AMPARAMS|DCode=21|XSize=0.55mm|YSize=0.8mm|CornerRadius=0.0028mm|HoleSize=0mm|Usage=FLASHONLY|Rotation=180.000|XOffset=0mm|YOffset=0mm|HoleType=Round|Shape=RoundedRectangle|*
%AMROUNDEDRECTD21*
21,1,0.5500,0.7945,0,0,180.0*
21,1,0.5445,0.8000,0,0,180.0*
1,1,0.0055,-0.2723,0.3973*
1,1,0.0055,0.2723,0.3973*
1,1,0.0055,0.2723,-0.3973*
1,1,0.0055,-0.2723,-0.3973*
%
%ADD21ROUNDEDRECTD21*%
G04:AMPARAMS|DCode=22|XSize=0.95mm|YSize=2.65mm|CornerRadius=0.0048mm|HoleSize=0mm|Usage=FLASHONLY|Rotation=90.000|XOffset=0mm|YOffset=0mm|HoleType=Round|Shape=RoundedRectangle|*
%AMROUNDEDRECTD22*
21,1,0.9500,2.6405,0,0,90.0*
21,1,0.9405,2.6500,0,0,90.0*
1,1,0.0095,1.3203,0.4703*
1,1,0.0095,1.3203,-0.4703*
1,1,0.0095,-1.3203,-0.4703*
1,1,0.0095,-1.3203,0.4703*
%
%ADD22ROUNDEDRECTD22*%
G04:AMPARAMS|DCode=23|XSize=5.55mm|YSize=6.8mm|CornerRadius=0.0278mm|HoleSize=0mm|Usage=FLASHONLY|Rotation=90.000|XOffset=0mm|YOffset=0mm|HoleType=Round|Shape=RoundedRectangle|*
%AMROUNDEDRECTD23*
21,1,5.5500,6.7445,0,0,90.0*
21,1,5.4945,6.8000,0,0,90.0*
1,1,0.0555,3.3723,2.7473*
1,1,0.0555,3.3723,-2.7473*
1,1,0.0555,-3.3723,-2.7473*
1,1,0.0555,-3.3723,2.7473*
%
%ADD23ROUNDEDRECTD23*%
%ADD24O,0.3500X1.1500*%
G04:AMPARAMS|DCode=25|XSize=0.75mm|YSize=0.55mm|CornerRadius=0.0028mm|HoleSize=0mm|Usage=FLASHONLY|Rotation=180.000|XOffset=0mm|YOffset=0mm|HoleType=Round|Shape=RoundedRectangle|*
%AMROUNDEDRECTD25*
21,1,0.7500,0.5445,0,0,180.0*
21,1,0.7445,0.5500,0,0,180.0*
1,1,0.0055,-0.3723,0.2723*
1,1,0.0055,0.3723,0.2723*
1,1,0.0055,0.3723,-0.2723*
1,1,0.0055,-0.3723,-0.2723*
%
%ADD25ROUNDEDRECTD25*%
G04:AMPARAMS|DCode=26|XSize=2.55mm|YSize=1.2mm|CornerRadius=0.006mm|HoleSize=0mm|Usage=FLASHONLY|Rotation=90.000|XOffset=0mm|YOffset=0mm|HoleType=Round|Shape=RoundedRectangle|*
%AMROUNDEDRECTD26*
21,1,2.5500,1.1880,0,0,90.0*
21,1,2.5380,1.2000,0,0,90.0*
1,1,0.0120,0.5940,1.2690*
1,1,0.0120,0.5940,-1.2690*
1,1,0.0120,-0.5940,-1.2690*
1,1,0.0120,-0.5940,1.2690*
%
%ADD26ROUNDEDRECTD26*%
G04:AMPARAMS|DCode=27|XSize=2.55mm|YSize=1.2mm|CornerRadius=0.006mm|HoleSize=0mm|Usage=FLASHONLY|Rotation=0.000|XOffset=0mm|YOffset=0mm|HoleType=Round|Shape=RoundedRectangle|*
%AMROUNDEDRECTD27*
21,1,2.5500,1.1880,0,0,0.0*
21,1,2.5380,1.2000,0,0,0.0*
1,1,0.0120,1.2690,-0.5940*
1,1,0.0120,-1.2690,-0.5940*
1,1,0.0120,-1.2690,0.5940*
1,1,0.0120,1.2690,0.5940*
%
%ADD27ROUNDEDRECTD27*%
G04:AMPARAMS|DCode=28|XSize=1.1mm|YSize=2.3mm|CornerRadius=0.0055mm|HoleSize=0mm|Usage=FLASHONLY|Rotation=270.000|XOffset=0mm|YOffset=0mm|HoleType=Round|Shape=RoundedRectangle|*
%AMROUNDEDRECTD28*
21,1,1.1000,2.2890,0,0,270.0*
21,1,1.0890,2.3000,0,0,270.0*
1,1,0.0110,-1.1445,-0.5445*
1,1,0.0110,-1.1445,0.5445*
1,1,0.0110,1.1445,0.5445*
1,1,0.0110,1.1445,-0.5445*
%
%ADD28ROUNDEDRECTD28*%
G04:AMPARAMS|DCode=29|XSize=1.1mm|YSize=2.3mm|CornerRadius=0.0055mm|HoleSize=0mm|Usage=FLASHONLY|Rotation=0.000|XOffset=0mm|YOffset=0mm|HoleType=Round|Shape=RoundedRectangle|*
%AMROUNDEDRECTD29*
21,1,1.1000,2.2890,0,0,0.0*
21,1,1.0890,2.3000,0,0,0.0*
1,1,0.0110,0.5445,-1.1445*
1,1,0.0110,-0.5445,-1.1445*
1,1,0.0110,-0.5445,1.1445*
1,1,0.0110,0.5445,1.1445*
%
%ADD29ROUNDEDRECTD29*%
G04:AMPARAMS|DCode=30|XSize=0.75mm|YSize=0.55mm|CornerRadius=0.0028mm|HoleSize=0mm|Usage=FLASHONLY|Rotation=90.000|XOffset=0mm|YOffset=0mm|HoleType=Round|Shape=RoundedRectangle|*
%AMROUNDEDRECTD30*
21,1,0.7500,0.5445,0,0,90.0*
21,1,0.7445,0.5500,0,0,90.0*
1,1,0.0055,0.2723,0.3723*
1,1,0.0055,0.2723,-0.3723*
1,1,0.0055,-0.2723,-0.3723*
1,1,0.0055,-0.2723,0.3723*
%
%ADD30ROUNDEDRECTD30*%
G04:AMPARAMS|DCode=31|XSize=0.54mm|YSize=0.75mm|CornerRadius=0.0027mm|HoleSize=0mm|Usage=FLASHONLY|Rotation=0.000|XOffset=0mm|YOffset=0mm|HoleType=Round|Shape=RoundedRectangle|*
%AMROUNDEDRECTD31*
21,1,0.5400,0.7446,0,0,0.0*
21,1,0.5346,0.7500,0,0,0.0*
1,1,0.0054,0.2673,-0.3723*
1,1,0.0054,-0.2673,-0.3723*
1,1,0.0054,-0.2673,0.3723*
1,1,0.0054,0.2673,0.3723*
%
%ADD31ROUNDEDRECTD31*%
G04:AMPARAMS|DCode=32|XSize=1.4mm|YSize=1.05mm|CornerRadius=0.0053mm|HoleSize=0mm|Usage=FLASHONLY|Rotation=90.000|XOffset=0mm|YOffset=0mm|HoleType=Round|Shape=RoundedRectangle|*
%AMROUNDEDRECTD32*
21,1,1.4000,1.0395,0,0,90.0*
21,1,1.3895,1.0500,0,0,90.0*
1,1,0.0105,0.5198,0.6948*
1,1,0.0105,0.5198,-0.6948*
1,1,0.0105,-0.5198,-0.6948*
1,1,0.0105,-0.5198,0.6948*
%
%ADD32ROUNDEDRECTD32*%
G04:AMPARAMS|DCode=33|XSize=1.85mm|YSize=1mm|CornerRadius=0.005mm|HoleSize=0mm|Usage=FLASHONLY|Rotation=180.000|XOffset=0mm|YOffset=0mm|HoleType=Round|Shape=RoundedRectangle|*
%AMROUNDEDRECTD33*
21,1,1.8500,0.9900,0,0,180.0*
21,1,1.8400,1.0000,0,0,180.0*
1,1,0.0100,-0.9200,0.4950*
1,1,0.0100,0.9200,0.4950*
1,1,0.0100,0.9200,-0.4950*
1,1,0.0100,-0.9200,-0.4950*
%
%ADD33ROUNDEDRECTD33*%
G04:AMPARAMS|DCode=34|XSize=4mm|YSize=2.2mm|CornerRadius=0.22mm|HoleSize=0mm|Usage=FLASHONLY|Rotation=90.000|XOffset=0mm|YOffset=0mm|HoleType=Round|Shape=RoundedRectangle|*
%AMROUNDEDRECTD34*
21,1,4.0000,1.7600,0,0,90.0*
21,1,3.5600,2.2000,0,0,90.0*
1,1,0.4400,0.8800,1.7800*
1,1,0.4400,0.8800,-1.7800*
1,1,0.4400,-0.8800,-1.7800*
1,1,0.4400,-0.8800,1.7800*
%
%ADD34ROUNDEDRECTD34*%
%ADD52C,1.5000*%
G04:AMPARAMS|DCode=53|XSize=1.5mm|YSize=1.5mm|CornerRadius=0.15mm|HoleSize=0mm|Usage=FLASHONLY|Rotation=180.000|XOffset=0mm|YOffset=0mm|HoleType=Round|Shape=RoundedRectangle|*
%AMROUNDEDRECTD53*
21,1,1.5000,1.2000,0,0,180.0*
21,1,1.2000,1.5000,0,0,180.0*
1,1,0.3000,-0.6000,0.6000*
1,1,0.3000,0.6000,0.6000*
1,1,0.3000,0.6000,-0.6000*
1,1,0.3000,-0.6000,-0.6000*
%
%ADD53ROUNDEDRECTD53*%
G04:AMPARAMS|DCode=61|XSize=1.5mm|YSize=2mm|CornerRadius=0.0075mm|HoleSize=0mm|Usage=FLASHONLY|Rotation=0.000|XOffset=0mm|YOffset=0mm|HoleType=Round|Shape=RoundedRectangle|*
%AMROUNDEDRECTD61*
21,1,1.5000,1.9850,0,0,0.0*
21,1,1.4850,2.0000,0,0,0.0*
1,1,0.0150,0.7425,-0.9925*
1,1,0.0150,-0.7425,-0.9925*
1,1,0.0150,-0.7425,0.9925*
1,1,0.0150,0.7425,0.9925*
%
%ADD61ROUNDEDRECTD61*%
%ADD62C,0.3048*%
%ADD63C,0.7620*%
%ADD64C,0.5080*%
%ADD65C,0.8128*%
%ADD66C,0.7000*%
G04:AMPARAMS|DCode=67|XSize=1.6mm|YSize=2mm|CornerRadius=0.16mm|HoleSize=0mm|Usage=FLASHONLY|Rotation=0.000|XOffset=0mm|YOffset=0mm|HoleType=Round|Shape=RoundedRectangle|*
%AMROUNDEDRECTD67*
21,1,1.6000,1.6800,0,0,0.0*
21,1,1.2800,2.0000,0,0,0.0*
1,1,0.3200,0.6400,-0.8400*
1,1,0.3200,-0.6400,-0.8400*
1,1,0.3200,-0.6400,0.8400*
1,1,0.3200,0.6400,0.8400*
%
%ADD67ROUNDEDRECTD67*%
%ADD68C,1.8000*%
%ADD69O,4.0000X2.4000*%
%ADD70C,3.8000*%
G04:AMPARAMS|DCode=71|XSize=1.3mm|YSize=2mm|CornerRadius=0.65mm|HoleSize=0mm|Usage=FLASHONLY|Rotation=0.000|XOffset=0mm|YOffset=0mm|HoleType=Round|Shape=RoundedRectangle|*
%AMROUNDEDRECTD71*
21,1,1.3000,0.7000,0,0,0.0*
21,1,0.0000,2.0000,0,0,0.0*
1,1,1.3000,0.0000,-0.3500*
1,1,1.3000,0.0000,-0.3500*
1,1,1.3000,0.0000,0.3500*
1,1,1.3000,0.0000,0.3500*
%
%ADD71ROUNDEDRECTD71*%
G04:AMPARAMS|DCode=72|XSize=2mm|YSize=2mm|CornerRadius=0.5mm|HoleSize=0mm|Usage=FLASHONLY|Rotation=0.000|XOffset=0mm|YOffset=0mm|HoleType=Round|Shape=RoundedRectangle|*
%AMROUNDEDRECTD72*
21,1,2.0000,1.0000,0,0,0.0*
21,1,1.0000,2.0000,0,0,0.0*
1,1,1.0000,0.5000,-0.5000*
1,1,1.0000,-0.5000,-0.5000*
1,1,1.0000,-0.5000,0.5000*
1,1,1.0000,0.5000,0.5000*
%
%ADD72ROUNDEDRECTD72*%
%ADD73C,0.6600*%
%ADD74C,0.5600*%
G36*
X00412187Y00317783D02*
X00414360Y00317526D01*
X00416506Y00317099D01*
X00418612Y00316505D01*
X00420665Y00315748D01*
X00422652Y00314832D01*
X00424562Y00313762D01*
X00426381Y00312547D01*
X00428100Y00311192D01*
X00429706Y00309706D01*
X00431192Y00308099D01*
X00432547Y00306381D01*
X00433762Y00304562D01*
X00434832Y00302652D01*
X00435748Y00300665D01*
X00436505Y00298612D01*
X00437099Y00296506D01*
X00437526Y00294360D01*
X00437783Y00292187D01*
X00437815Y00291387D01*
X00437855Y00290000D01*
X00437855Y00290000D01*
X00437855Y00288637D01*
Y00030000D01*
X00437866Y00029915D01*
X00437783Y00027813D01*
X00437526Y00025640D01*
X00437099Y00023494D01*
X00436505Y00021388D01*
X00435748Y00019335D01*
X00434832Y00017348D01*
X00433762Y00015438D01*
X00432547Y00013619D01*
X00431192Y00011901D01*
X00429706Y00010294D01*
X00428100Y00008808D01*
X00426381Y00007454D01*
X00424562Y00006238D01*
X00422652Y00005168D01*
X00420665Y00004252D01*
X00418612Y00003495D01*
X00416506Y00002901D01*
X00414360Y00002474D01*
X00412187Y00002217D01*
X00411387Y00002185D01*
X00410000Y00002145D01*
X00410000Y00002145D01*
X00408627Y00002145D01*
X00377494D01*
Y00057227D01*
X00378777Y00057940D01*
X00391250D01*
X00391546Y00057069D01*
X00392055Y00056038D01*
X00392693Y00055082D01*
X00393451Y00054217D01*
X00394316Y00053459D01*
X00395272Y00052821D01*
X00396303Y00052312D01*
X00397391Y00051943D01*
X00398519Y00051718D01*
X00399666Y00051643D01*
X00400813Y00051718D01*
X00401941Y00051943D01*
X00403029Y00052312D01*
X00404060Y00052821D01*
X00405016Y00053459D01*
X00405881Y00054217D01*
X00406639Y00055082D01*
X00407277Y00056038D01*
X00407786Y00057069D01*
X00408106Y00058011D01*
X00408604Y00058307D01*
X00409677Y00058645D01*
X00409844Y00058576D01*
X00410341Y00058511D01*
X00416506D01*
X00416577Y00058157D01*
X00416946Y00057069D01*
X00417455Y00056038D01*
X00418093Y00055082D01*
X00418851Y00054217D01*
X00419716Y00053459D01*
X00420672Y00052821D01*
X00421703Y00052312D01*
X00422791Y00051943D01*
X00423919Y00051718D01*
X00425066Y00051643D01*
X00426213Y00051718D01*
X00427341Y00051943D01*
X00428429Y00052312D01*
X00429460Y00052821D01*
X00430416Y00053459D01*
X00431281Y00054217D01*
X00432039Y00055082D01*
X00432677Y00056038D01*
X00433186Y00057069D01*
X00433555Y00058157D01*
X00433780Y00059285D01*
X00433855Y00060432D01*
X00433780Y00061579D01*
X00433555Y00062707D01*
X00433186Y00063795D01*
X00432677Y00064826D01*
X00432039Y00065782D01*
X00431281Y00066647D01*
X00430416Y00067405D01*
X00429460Y00068043D01*
X00428429Y00068552D01*
X00427341Y00068921D01*
X00426213Y00069146D01*
X00425066Y00069221D01*
X00423919Y00069146D01*
X00422791Y00068921D01*
X00421703Y00068552D01*
X00420672Y00068043D01*
X00419716Y00067405D01*
X00418851Y00066647D01*
X00418093Y00065782D01*
X00417455Y00064826D01*
X00416946Y00063795D01*
X00416577Y00062707D01*
X00416506Y00062353D01*
X00412100D01*
X00411950Y00063236D01*
X00411559Y00064594D01*
X00411018Y00065899D01*
X00410335Y00067136D01*
X00409517Y00068288D01*
X00408576Y00069341D01*
X00407522Y00070283D01*
X00406370Y00071101D01*
X00405133Y00071784D01*
X00403828Y00072325D01*
X00402813Y00072617D01*
X00401522Y00073150D01*
X00401587Y00073647D01*
Y00077272D01*
X00401941Y00077343D01*
X00403029Y00077712D01*
X00404060Y00078221D01*
X00405016Y00078859D01*
X00405881Y00079617D01*
X00406639Y00080482D01*
X00407277Y00081438D01*
X00407786Y00082469D01*
X00408155Y00083557D01*
X00408380Y00084685D01*
X00408455Y00085832D01*
X00408380Y00086979D01*
X00408155Y00088107D01*
X00407786Y00089195D01*
X00407277Y00090226D01*
X00406639Y00091182D01*
X00405881Y00092047D01*
X00405016Y00092805D01*
X00404060Y00093443D01*
X00403029Y00093952D01*
X00401941Y00094321D01*
X00400813Y00094546D01*
X00399666Y00094621D01*
X00398519Y00094546D01*
X00397391Y00094321D01*
X00396303Y00093952D01*
X00395272Y00093443D01*
X00394316Y00092805D01*
X00393451Y00092047D01*
X00392693Y00091182D01*
X00392055Y00090226D01*
X00391546Y00089195D01*
X00391177Y00088107D01*
X00390952Y00086979D01*
X00390877Y00085832D01*
X00390952Y00084685D01*
X00391177Y00083557D01*
X00391546Y00082469D01*
X00392055Y00081438D01*
X00392693Y00080482D01*
X00393451Y00079617D01*
X00394316Y00078859D01*
X00395272Y00078221D01*
X00396303Y00077712D01*
X00397391Y00077343D01*
X00397745Y00077272D01*
Y00075443D01*
X00396286Y00075195D01*
X00394649Y00074724D01*
X00393076Y00074072D01*
X00391585Y00073248D01*
X00390196Y00072262D01*
X00388926Y00071127D01*
X00387791Y00069857D01*
X00386805Y00068468D01*
X00385981Y00066977D01*
X00385934Y00066863D01*
X00217488D01*
Y00078885D01*
X00229641D01*
X00229986Y00078930D01*
X00230309Y00079064D01*
X00230585Y00079276D01*
X00230798Y00079553D01*
X00230931Y00079875D01*
X00230977Y00080221D01*
Y00091111D01*
X00231011Y00091150D01*
X00234494D01*
X00234494Y00091150D01*
X00234991Y00091215D01*
X00235455Y00091407D01*
X00235853Y00091712D01*
X00236817Y00092676D01*
X00236817Y00092676D01*
X00237122Y00093074D01*
X00237314Y00093538D01*
X00237379Y00094035D01*
X00237379Y00094035D01*
Y00164740D01*
X00237314Y00165238D01*
X00237122Y00165701D01*
X00236817Y00166099D01*
X00236817Y00166099D01*
X00235881Y00167035D01*
X00235483Y00167340D01*
X00235019Y00167532D01*
X00234522Y00167598D01*
X00234522Y00167598D01*
X00230977D01*
Y00171121D01*
X00231011Y00171160D01*
X00235581D01*
X00235581Y00171160D01*
X00236078Y00171225D01*
X00236542Y00171417D01*
X00236940Y00171722D01*
X00237871Y00172653D01*
X00237871Y00172654D01*
X00238176Y00173051D01*
X00238368Y00173515D01*
X00238434Y00174012D01*
X00238434Y00174012D01*
Y00186471D01*
X00275450Y00223488D01*
X00276847Y00223488D01*
X00279942Y00220392D01*
X00280363Y00220112D01*
X00280858Y00220013D01*
X00298806Y00220013D01*
X00298819Y00220016D01*
X00347253D01*
Y00095381D01*
X00347349Y00094652D01*
X00347631Y00093972D01*
X00348078Y00093389D01*
X00355039Y00086428D01*
Y00079041D01*
X00355135Y00078312D01*
X00355417Y00077632D01*
X00355865Y00077048D01*
X00357534Y00075379D01*
X00358117Y00074931D01*
X00358797Y00074650D01*
X00359526Y00074554D01*
X00384777D01*
X00385506Y00074650D01*
X00386186Y00074931D01*
X00386769Y00075379D01*
X00388571Y00077181D01*
X00389019Y00077764D01*
X00389300Y00078444D01*
X00389396Y00079173D01*
Y00090014D01*
X00396232Y00096850D01*
X00413502D01*
X00414231Y00096946D01*
X00414911Y00097227D01*
X00415495Y00097675D01*
X00421186Y00103367D01*
X00421703Y00103112D01*
X00422791Y00102743D01*
X00423919Y00102518D01*
X00425066Y00102443D01*
X00426213Y00102518D01*
X00427341Y00102743D01*
X00428429Y00103112D01*
X00429460Y00103621D01*
X00430416Y00104259D01*
X00431281Y00105017D01*
X00432039Y00105882D01*
X00432677Y00106838D01*
X00433186Y00107869D01*
X00433555Y00108957D01*
X00433780Y00110085D01*
X00433855Y00111232D01*
X00433780Y00112379D01*
X00433555Y00113507D01*
X00433186Y00114595D01*
X00432677Y00115626D01*
X00432039Y00116582D01*
X00431281Y00117447D01*
X00430416Y00118205D01*
X00429460Y00118843D01*
X00428429Y00119352D01*
X00427341Y00119721D01*
X00426213Y00119946D01*
X00425066Y00120021D01*
X00423919Y00119946D01*
X00422791Y00119721D01*
X00421703Y00119352D01*
X00420672Y00118843D01*
X00419716Y00118205D01*
X00418851Y00117447D01*
X00418093Y00116582D01*
X00417455Y00115626D01*
X00416946Y00114595D01*
X00416577Y00113507D01*
X00416352Y00112379D01*
X00416277Y00111232D01*
X00416352Y00110085D01*
X00416577Y00108957D01*
X00416946Y00107869D01*
X00417201Y00107352D01*
X00412335Y00102486D01*
X00404877D01*
X00404453Y00103883D01*
X00405016Y00104259D01*
X00405881Y00105017D01*
X00406639Y00105882D01*
X00407277Y00106838D01*
X00407786Y00107869D01*
X00408155Y00108957D01*
X00408380Y00110085D01*
X00408455Y00111232D01*
X00408380Y00112379D01*
X00408155Y00113507D01*
X00407786Y00114595D01*
X00407277Y00115626D01*
X00406639Y00116582D01*
X00405881Y00117447D01*
X00405016Y00118205D01*
X00404060Y00118843D01*
X00403029Y00119352D01*
X00401941Y00119721D01*
X00400813Y00119946D01*
X00399666Y00120021D01*
X00398519Y00119946D01*
X00397391Y00119721D01*
X00396303Y00119352D01*
X00395272Y00118843D01*
X00394316Y00118205D01*
X00393451Y00117447D01*
X00392693Y00116582D01*
X00392055Y00115626D01*
X00391546Y00114595D01*
X00391177Y00113507D01*
X00390952Y00112379D01*
X00390877Y00111232D01*
X00390952Y00110085D01*
X00391177Y00108957D01*
X00391546Y00107869D01*
X00392055Y00106838D01*
X00392693Y00105882D01*
X00393169Y00105339D01*
X00382823Y00094993D01*
X00361619D01*
X00357962Y00098650D01*
Y00123623D01*
X00359370D01*
Y00120099D01*
X00359416Y00119753D01*
X00359549Y00119431D01*
X00359762Y00119154D01*
X00360038Y00118942D01*
X00360361Y00118808D01*
X00360706Y00118763D01*
X00383597D01*
X00383942Y00118808D01*
X00384265Y00118942D01*
X00384542Y00119154D01*
X00384754Y00119431D01*
X00384887Y00119753D01*
X00384933Y00120099D01*
Y00130989D01*
X00384887Y00131335D01*
X00384754Y00131657D01*
X00384542Y00131934D01*
X00384265Y00132146D01*
X00383942Y00132280D01*
X00383597Y00132325D01*
X00360706D01*
X00360361Y00132280D01*
X00360038Y00132146D01*
X00359762Y00131934D01*
X00359549Y00131657D01*
X00359416Y00131335D01*
X00359370Y00130989D01*
Y00127465D01*
X00357962D01*
Y00213500D01*
X00381609D01*
X00382355Y00212103D01*
X00382346Y00212088D01*
X00372152D01*
X00372100Y00212081D01*
X00360706D01*
X00360361Y00212036D01*
X00360038Y00211902D01*
X00359762Y00211690D01*
X00359549Y00211413D01*
X00359416Y00211091D01*
X00359370Y00210745D01*
Y00199855D01*
X00359416Y00199509D01*
X00359549Y00199187D01*
X00359762Y00198910D01*
X00360038Y00198698D01*
X00360361Y00198564D01*
X00360706Y00198519D01*
X00383597D01*
X00383942Y00198564D01*
X00384265Y00198698D01*
X00384542Y00198910D01*
X00384754Y00199187D01*
X00384887Y00199509D01*
X00384933Y00199855D01*
Y00206848D01*
X00385048Y00206943D01*
X00386392Y00206311D01*
X00386445Y00206220D01*
Y00187409D01*
X00384933D01*
Y00190933D01*
X00384887Y00191279D01*
X00384754Y00191601D01*
X00384542Y00191878D01*
X00384265Y00192090D01*
X00383942Y00192224D01*
X00383597Y00192269D01*
X00360706D01*
X00360361Y00192224D01*
X00360038Y00192090D01*
X00359762Y00191878D01*
X00359549Y00191601D01*
X00359416Y00191279D01*
X00359370Y00190933D01*
Y00180043D01*
X00359416Y00179697D01*
X00359549Y00179375D01*
X00359762Y00179098D01*
X00360038Y00178886D01*
X00360361Y00178752D01*
X00360706Y00178707D01*
X00383597D01*
X00383942Y00178752D01*
X00384265Y00178886D01*
X00384542Y00179098D01*
X00384754Y00179375D01*
X00384887Y00179697D01*
X00384933Y00180043D01*
Y00183567D01*
X00387452D01*
X00387452Y00183567D01*
X00387588Y00183584D01*
X00388583Y00182983D01*
X00388985Y00182571D01*
Y00167598D01*
X00384933D01*
Y00171121D01*
X00384887Y00171467D01*
X00384754Y00171789D01*
X00384542Y00172066D01*
X00384265Y00172278D01*
X00383942Y00172412D01*
X00383597Y00172457D01*
X00360706D01*
X00360361Y00172412D01*
X00360038Y00172278D01*
X00359762Y00172066D01*
X00359549Y00171789D01*
X00359416Y00171467D01*
X00359370Y00171121D01*
Y00160231D01*
X00359416Y00159885D01*
X00359549Y00159563D01*
X00359762Y00159286D01*
X00360038Y00159074D01*
X00360361Y00158940D01*
X00360706Y00158895D01*
X00383597D01*
X00383942Y00158940D01*
X00384265Y00159074D01*
X00384542Y00159286D01*
X00384754Y00159563D01*
X00384887Y00159885D01*
X00384933Y00160231D01*
Y00163755D01*
X00389975D01*
X00389975Y00163755D01*
X00390127Y00163775D01*
X00391113Y00163184D01*
X00391525Y00162776D01*
Y00147277D01*
X00384933D01*
Y00150801D01*
X00384887Y00151147D01*
X00384754Y00151469D01*
X00384542Y00151746D01*
X00384265Y00151958D01*
X00383942Y00152092D01*
X00383597Y00152137D01*
X00360706D01*
X00360361Y00152092D01*
X00360038Y00151958D01*
X00359762Y00151746D01*
X00359549Y00151469D01*
X00359416Y00151147D01*
X00359370Y00150801D01*
Y00139911D01*
X00359416Y00139565D01*
X00359549Y00139243D01*
X00359762Y00138966D01*
X00360038Y00138754D01*
X00360361Y00138620D01*
X00360706Y00138575D01*
X00383597D01*
X00383942Y00138620D01*
X00384265Y00138754D01*
X00384542Y00138966D01*
X00384754Y00139243D01*
X00384887Y00139565D01*
X00384933Y00139911D01*
Y00143435D01*
X00392558D01*
X00392559Y00143435D01*
X00393056Y00143500D01*
X00393519Y00143692D01*
X00393917Y00143997D01*
X00394805Y00144885D01*
X00394805Y00144885D01*
X00395110Y00145283D01*
X00395302Y00145746D01*
X00395368Y00146243D01*
X00395367Y00146244D01*
Y00207558D01*
X00399631Y00211821D01*
X00399631Y00211821D01*
X00399936Y00212219D01*
X00400128Y00212682D01*
X00400193Y00213179D01*
X00400193Y00213180D01*
Y00218079D01*
X00401603D01*
Y00213053D01*
X00401648Y00212707D01*
X00401781Y00212386D01*
X00401993Y00212109D01*
X00402270Y00211897D01*
X00402591Y00211764D01*
X00402937Y00211719D01*
X00413331D01*
X00413677Y00211764D01*
X00413998Y00211897D01*
X00414275Y00212109D01*
X00414487Y00212386D01*
X00414620Y00212707D01*
X00414665Y00213053D01*
Y00226947D01*
X00414620Y00227293D01*
X00414487Y00227614D01*
X00414275Y00227891D01*
X00413998Y00228103D01*
X00413677Y00228236D01*
X00413331Y00228281D01*
X00402937D01*
X00402591Y00228236D01*
X00402270Y00228103D01*
X00401993Y00227891D01*
X00401781Y00227614D01*
X00401648Y00227293D01*
X00401603Y00226947D01*
Y00221922D01*
X00400178D01*
Y00236883D01*
X00400178Y00236883D01*
X00400112Y00237381D01*
X00399921Y00237844D01*
X00399615Y00238242D01*
X00399615Y00238242D01*
X00395505Y00242352D01*
Y00254079D01*
X00401603D01*
Y00249053D01*
X00401648Y00248707D01*
X00401781Y00248386D01*
X00401993Y00248109D01*
X00402270Y00247897D01*
X00402591Y00247764D01*
X00402937Y00247719D01*
X00413331D01*
X00413677Y00247764D01*
X00413998Y00247897D01*
X00414275Y00248109D01*
X00414487Y00248386D01*
X00414620Y00248707D01*
X00414665Y00249053D01*
Y00262948D01*
X00414620Y00263293D01*
X00414487Y00263614D01*
X00414275Y00263891D01*
X00413998Y00264103D01*
X00413677Y00264236D01*
X00413331Y00264281D01*
X00402937D01*
X00402591Y00264236D01*
X00402270Y00264103D01*
X00401993Y00263891D01*
X00401781Y00263614D01*
X00401648Y00263293D01*
X00401603Y00262948D01*
Y00257921D01*
X00394511D01*
X00394363Y00257902D01*
X00393374Y00258496D01*
X00392966Y00258905D01*
Y00271975D01*
X00392966Y00271975D01*
X00392900Y00272473D01*
X00392708Y00272936D01*
X00392403Y00273334D01*
X00392403Y00273334D01*
X00387368Y00278369D01*
Y00285815D01*
X00387302Y00286312D01*
X00387110Y00286775D01*
X00386805Y00287174D01*
X00386805Y00287174D01*
X00385070Y00288909D01*
Y00296388D01*
X00385070Y00296388D01*
X00385005Y00296886D01*
X00384813Y00297349D01*
X00384507Y00297747D01*
X00384507Y00297747D01*
X00383091Y00299163D01*
Y00306760D01*
X00383091Y00306760D01*
X00383025Y00307257D01*
X00382833Y00307721D01*
X00382528Y00308119D01*
X00382528Y00308119D01*
X00381542Y00309105D01*
X00381144Y00309410D01*
X00380681Y00309602D01*
X00380183Y00309668D01*
X00380183Y00309668D01*
X00376995D01*
Y00311469D01*
X00376951Y00311807D01*
X00376820Y00312123D01*
X00376612Y00312394D01*
X00376341Y00312602D01*
X00376025Y00312733D01*
X00375686Y00312777D01*
X00370242D01*
X00369903Y00312733D01*
X00369587Y00312602D01*
X00369316Y00312394D01*
X00369108Y00312123D01*
X00368977Y00311807D01*
X00368933Y00311469D01*
Y00304024D01*
X00368977Y00303685D01*
X00369108Y00303369D01*
X00369316Y00303098D01*
X00369587Y00302890D01*
X00369903Y00302760D01*
X00370242Y00302715D01*
X00375686D01*
X00376025Y00302760D01*
X00376341Y00302890D01*
X00376612Y00303098D01*
X00376820Y00303369D01*
X00376951Y00303685D01*
X00376995Y00304024D01*
Y00305825D01*
X00379248D01*
Y00298368D01*
X00379248Y00298367D01*
X00379071Y00298165D01*
X00376995D01*
Y00299966D01*
X00376951Y00300305D01*
X00376820Y00300620D01*
X00376612Y00300891D01*
X00376341Y00301099D01*
X00376025Y00301230D01*
X00375686Y00301275D01*
X00370242D01*
X00369903Y00301230D01*
X00369587Y00301099D01*
X00369316Y00300891D01*
X00369108Y00300620D01*
X00368977Y00300305D01*
X00368933Y00299966D01*
Y00292521D01*
X00368977Y00292182D01*
X00369108Y00291867D01*
X00369316Y00291596D01*
X00369587Y00291388D01*
X00369903Y00291257D01*
X00370242Y00291212D01*
X00375686D01*
X00376025Y00291257D01*
X00376341Y00291388D01*
X00376612Y00291596D01*
X00376820Y00291867D01*
X00376951Y00292182D01*
X00376995Y00292521D01*
Y00294322D01*
X00378687D01*
Y00288026D01*
X00377393Y00286813D01*
X00376995Y00286849D01*
Y00288383D01*
X00376951Y00288722D01*
X00376820Y00289038D01*
X00376612Y00289309D01*
X00376341Y00289517D01*
X00376025Y00289648D01*
X00375686Y00289692D01*
X00370242D01*
X00369903Y00289648D01*
X00369587Y00289517D01*
X00369316Y00289309D01*
X00369108Y00289038D01*
X00368977Y00288722D01*
X00368933Y00288383D01*
Y00280938D01*
X00368977Y00280600D01*
X00369108Y00280284D01*
X00369316Y00280013D01*
X00369587Y00279805D01*
X00369903Y00279674D01*
X00370242Y00279630D01*
X00375686D01*
X00376025Y00279674D01*
X00376341Y00279805D01*
X00376612Y00280013D01*
X00376820Y00280284D01*
X00376951Y00280600D01*
X00376995Y00280938D01*
Y00282740D01*
X00378445D01*
Y00275469D01*
X00378445Y00275469D01*
X00378510Y00274972D01*
X00378702Y00274508D01*
X00379008Y00274110D01*
X00379179Y00273939D01*
X00379179Y00273939D01*
X00379876Y00273242D01*
X00379342Y00271951D01*
X00376995D01*
Y00276881D01*
X00376951Y00277220D01*
X00376820Y00277535D01*
X00376612Y00277806D01*
X00376341Y00278014D01*
X00376025Y00278145D01*
X00375686Y00278190D01*
X00370242D01*
X00369903Y00278145D01*
X00369587Y00278014D01*
X00369316Y00277806D01*
X00369108Y00277535D01*
X00368977Y00277220D01*
X00368933Y00276881D01*
Y00269436D01*
X00368977Y00269097D01*
X00369108Y00268782D01*
X00369316Y00268510D01*
X00369587Y00268302D01*
X00369903Y00268172D01*
X00370242Y00268127D01*
X00372819D01*
X00372964Y00268108D01*
X00381418D01*
X00381503Y00268023D01*
Y00264582D01*
X00381106Y00264168D01*
X00380106Y00263561D01*
X00379979Y00263577D01*
X00379979Y00263577D01*
X00376995D01*
Y00265378D01*
X00376951Y00265717D01*
X00376820Y00266033D01*
X00376612Y00266304D01*
X00376341Y00266512D01*
X00376025Y00266642D01*
X00375686Y00266687D01*
X00370242D01*
X00369903Y00266642D01*
X00369587Y00266512D01*
X00369316Y00266304D01*
X00369108Y00266033D01*
X00368977Y00265717D01*
X00368933Y00265378D01*
Y00257933D01*
X00368977Y00257595D01*
X00369108Y00257279D01*
X00369316Y00257008D01*
X00369587Y00256800D01*
X00369903Y00256669D01*
X00370242Y00256625D01*
X00375686D01*
X00376025Y00256669D01*
X00376341Y00256800D01*
X00376612Y00257008D01*
X00376820Y00257279D01*
X00376951Y00257595D01*
X00376995Y00257933D01*
Y00259734D01*
X00378963D01*
Y00236296D01*
X00378963Y00236295D01*
X00379028Y00235798D01*
X00379220Y00235335D01*
X00379525Y00234937D01*
X00381024Y00233438D01*
X00380489Y00232147D01*
X00361282D01*
Y00243933D01*
X00361434D01*
X00361773Y00243977D01*
X00362090Y00244108D01*
X00362361Y00244317D01*
X00362570Y00244588D01*
X00362701Y00244904D01*
X00362745Y00245244D01*
Y00253684D01*
X00362701Y00254023D01*
X00362570Y00254340D01*
X00362361Y00254611D01*
X00362090Y00254820D01*
X00361773Y00254951D01*
X00361434Y00254995D01*
X00360385D01*
Y00256625D01*
X00361186D01*
X00361525Y00256669D01*
X00361841Y00256800D01*
X00362112Y00257008D01*
X00362320Y00257279D01*
X00362451Y00257595D01*
X00362495Y00257933D01*
Y00265378D01*
X00362451Y00265717D01*
X00362320Y00266033D01*
X00362112Y00266304D01*
X00361841Y00266512D01*
X00361525Y00266642D01*
X00361186Y00266687D01*
X00360385D01*
Y00268127D01*
X00361186D01*
X00361525Y00268172D01*
X00361841Y00268302D01*
X00362112Y00268510D01*
X00362320Y00268782D01*
X00362451Y00269097D01*
X00362495Y00269436D01*
Y00276881D01*
X00362451Y00277220D01*
X00362320Y00277535D01*
X00362112Y00277806D01*
X00361841Y00278014D01*
X00361525Y00278145D01*
X00361186Y00278190D01*
X00355742D01*
X00355403Y00278145D01*
X00355087Y00278014D01*
X00354816Y00277806D01*
X00354608Y00277535D01*
X00354477Y00277220D01*
X00354433Y00276881D01*
Y00269436D01*
X00354477Y00269097D01*
X00354608Y00268782D01*
X00354816Y00268510D01*
X00355087Y00268302D01*
X00355403Y00268172D01*
X00355742Y00268127D01*
X00356543D01*
Y00266687D01*
X00355742D01*
X00355403Y00266642D01*
X00355087Y00266512D01*
X00354816Y00266304D01*
X00354608Y00266033D01*
X00354477Y00265717D01*
X00354433Y00265378D01*
Y00257933D01*
X00354477Y00257595D01*
X00354608Y00257279D01*
X00354816Y00257008D01*
X00355087Y00256800D01*
X00355403Y00256669D01*
X00355742Y00256625D01*
X00356543D01*
Y00254995D01*
X00355494D01*
X00355155Y00254951D01*
X00354838Y00254820D01*
X00354567Y00254611D01*
X00354358Y00254340D01*
X00354227Y00254023D01*
X00354183Y00253684D01*
Y00245244D01*
X00354227Y00244904D01*
X00354358Y00244588D01*
X00354567Y00244317D01*
X00354838Y00244108D01*
X00355155Y00243977D01*
X00355494Y00243933D01*
X00355646D01*
Y00230716D01*
X00300101D01*
Y00232376D01*
X00300143Y00232413D01*
X00311033D01*
X00311378Y00232458D01*
X00311701Y00232592D01*
X00311978Y00232804D01*
X00312190Y00233081D01*
X00312323Y00233403D01*
X00312369Y00233749D01*
Y00256639D01*
X00312323Y00256985D01*
X00312190Y00257307D01*
X00311978Y00257584D01*
X00311701Y00257796D01*
X00311378Y00257930D01*
X00311033Y00257976D01*
X00300143D01*
X00300101Y00258012D01*
Y00259502D01*
X00312346Y00270020D01*
X00312376Y00270059D01*
X00312418Y00270086D01*
X00312531Y00270257D01*
X00312657Y00270417D01*
X00312671Y00270465D01*
X00312698Y00270506D01*
X00312738Y00270707D01*
X00312793Y00270904D01*
X00312787Y00270953D01*
X00312797Y00271002D01*
Y00271143D01*
X00312805Y00271204D01*
Y00282956D01*
X00318366Y00288517D01*
X00318732Y00288994D01*
X00318963Y00289550D01*
X00319041Y00290147D01*
Y00296536D01*
X00330639D01*
X00330990Y00296583D01*
X00331317Y00296718D01*
X00331598Y00296934D01*
X00331814Y00297215D01*
X00331949Y00297542D01*
X00331996Y00297893D01*
Y00317743D01*
X00332094Y00317855D01*
X00335335D01*
X00335433Y00317743D01*
Y00297893D01*
X00335479Y00297542D01*
X00335614Y00297215D01*
X00335830Y00296934D01*
X00336111Y00296718D01*
X00336438Y00296583D01*
X00336789Y00296536D01*
X00351639D01*
X00351990Y00296583D01*
X00352317Y00296718D01*
X00352598Y00296934D01*
X00352814Y00297215D01*
X00352949Y00297542D01*
X00352996Y00297893D01*
Y00305825D01*
X00354433D01*
Y00304024D01*
X00354477Y00303685D01*
X00354608Y00303369D01*
X00354816Y00303098D01*
X00355087Y00302890D01*
X00355403Y00302760D01*
X00355742Y00302715D01*
X00361186D01*
X00361525Y00302760D01*
X00361841Y00302890D01*
X00362112Y00303098D01*
X00362320Y00303369D01*
X00362451Y00303685D01*
X00362495Y00304024D01*
Y00311469D01*
X00362451Y00311807D01*
X00362320Y00312123D01*
X00362112Y00312394D01*
X00361841Y00312602D01*
X00361525Y00312733D01*
X00361186Y00312777D01*
X00355742D01*
X00355403Y00312733D01*
X00355087Y00312602D01*
X00354816Y00312394D01*
X00354608Y00312123D01*
X00354477Y00311807D01*
X00354433Y00311469D01*
Y00309668D01*
X00352996D01*
Y00317743D01*
X00353093Y00317855D01*
X00410000D01*
X00410084Y00317866D01*
X00412187Y00317783D01*
D02*
G37*
G36*
X00030000Y00317855D02*
X00314335D01*
X00314432Y00317743D01*
Y00306838D01*
X00314430Y00306818D01*
Y00291102D01*
X00308793Y00285465D01*
X00253813Y00285465D01*
Y00303928D01*
X00253746Y00304608D01*
X00253548Y00305262D01*
X00253226Y00305865D01*
X00252792Y00306394D01*
X00252264Y00306827D01*
X00251661Y00307149D01*
X00251007Y00307348D01*
X00250326Y00307415D01*
X00241567D01*
X00241527Y00307423D01*
X00206527D01*
X00206486Y00307415D01*
X00197726D01*
X00197046Y00307348D01*
X00196392Y00307149D01*
X00195789Y00306827D01*
X00195261Y00306394D01*
X00194827Y00305865D01*
X00194505Y00305262D01*
X00194307Y00304608D01*
X00194240Y00303928D01*
Y00293134D01*
X00172896Y00293133D01*
X00171908Y00294121D01*
Y00310316D01*
X00171838Y00310846D01*
X00171633Y00311341D01*
X00171308Y00311765D01*
X00170220Y00312853D01*
X00169795Y00313179D01*
X00169301Y00313384D01*
X00168771Y00313454D01*
X00163146D01*
Y00315126D01*
X00163101Y00315465D01*
X00162970Y00315781D01*
X00162762Y00316052D01*
X00162491Y00316260D01*
X00162176Y00316391D01*
X00161837Y00316435D01*
X00156392D01*
X00156053Y00316391D01*
X00155738Y00316260D01*
X00155467Y00316052D01*
X00155259Y00315781D01*
X00155128Y00315465D01*
X00155083Y00315126D01*
Y00307682D01*
X00155128Y00307343D01*
X00155259Y00307027D01*
X00155467Y00306756D01*
X00155738Y00306548D01*
X00156053Y00306417D01*
X00156392Y00306373D01*
X00161837D01*
X00162176Y00306417D01*
X00162491Y00306548D01*
X00162762Y00306756D01*
X00162970Y00307027D01*
X00163101Y00307343D01*
X00163146Y00307682D01*
Y00309354D01*
X00167809D01*
Y00292734D01*
X00167776Y00292721D01*
X00167676Y00292658D01*
X00167565Y00292617D01*
X00167052Y00292304D01*
X00166965Y00292224D01*
X00166863Y00292164D01*
X00166416Y00291763D01*
X00166345Y00291668D01*
X00166255Y00291590D01*
X00165887Y00291115D01*
X00165835Y00291009D01*
X00165761Y00290917D01*
X00165485Y00290383D01*
X00165452Y00290269D01*
X00165397Y00290165D01*
X00165222Y00289589D01*
X00165211Y00289472D01*
X00165175Y00289359D01*
X00165141Y00289061D01*
X00165141Y00289061D01*
X00164293Y00281571D01*
X00164294Y00281559D01*
X00164291Y00281547D01*
X00164249Y00281107D01*
X00164094Y00280256D01*
X00163849Y00279446D01*
X00163513Y00278668D01*
X00163091Y00277934D01*
X00162588Y00277253D01*
X00162012Y00276633D01*
X00161368Y00276082D01*
X00160667Y00275609D01*
X00159915Y00275217D01*
X00159124Y00274914D01*
X00158287Y00274699D01*
X00157868Y00274628D01*
X00157372Y00274559D01*
X00157262Y00274521D01*
X00157146Y00274507D01*
X00156157Y00274182D01*
X00156056Y00274125D01*
X00155945Y00274090D01*
X00155029Y00273594D01*
X00154940Y00273520D01*
X00154836Y00273466D01*
X00154024Y00272815D01*
X00153949Y00272726D01*
X00153857Y00272655D01*
X00153174Y00271870D01*
X00153116Y00271769D01*
X00153038Y00271682D01*
X00152505Y00270788D01*
X00152466Y00270679D01*
X00152405Y00270579D01*
X00152040Y00269605D01*
X00152021Y00269490D01*
X00151979Y00269381D01*
X00151793Y00268357D01*
X00151795Y00268241D01*
X00151772Y00268127D01*
X00151772Y00267606D01*
X00151772Y00267606D01*
X00151772Y00267606D01*
X00151773Y00258863D01*
X00150376Y00257930D01*
X00150250Y00257982D01*
Y00263999D01*
X00150205Y00264338D01*
X00150074Y00264653D01*
X00149866Y00264924D01*
X00149595Y00265132D01*
X00149280Y00265263D01*
X00148941Y00265307D01*
X00143595D01*
X00143257Y00265263D01*
X00142941Y00265132D01*
X00142670Y00264924D01*
X00142463Y00264653D01*
X00142332Y00264338D01*
X00142301Y00264104D01*
X00140736D01*
X00140705Y00264338D01*
X00140574Y00264653D01*
X00140366Y00264924D01*
X00140096Y00265132D01*
X00139780Y00265263D01*
X00139441Y00265307D01*
X00134095D01*
X00133757Y00265263D01*
X00133441Y00265132D01*
X00133170Y00264924D01*
X00132963Y00264653D01*
X00132832Y00264338D01*
X00132801Y00264104D01*
X00125687D01*
X00125181Y00264520D01*
X00124298Y00264992D01*
X00123341Y00265282D01*
X00122345Y00265381D01*
X00114016D01*
Y00266216D01*
X00113970Y00266563D01*
X00113836Y00266887D01*
X00113623Y00267165D01*
X00113345Y00267378D01*
X00113021Y00267512D01*
X00112674Y00267558D01*
X00087294D01*
X00086947Y00267512D01*
X00086623Y00267378D01*
X00086345Y00267165D01*
X00086132Y00266887D01*
X00085998Y00266563D01*
X00085953Y00266216D01*
Y00265381D01*
X00084552D01*
Y00266216D01*
X00084507Y00266563D01*
X00084373Y00266887D01*
X00084159Y00267165D01*
X00083882Y00267378D01*
X00083558Y00267512D01*
X00083211Y00267558D01*
X00057831D01*
X00057484Y00267512D01*
X00057160Y00267378D01*
X00056882Y00267165D01*
X00056669Y00266887D01*
X00056535Y00266563D01*
X00056489Y00266216D01*
Y00265381D01*
X00047697D01*
X00047697Y00265381D01*
X00046701Y00265282D01*
X00045744Y00264992D01*
X00044861Y00264520D01*
X00044088Y00263885D01*
X00038734Y00258532D01*
X00038099Y00257758D01*
X00037627Y00256876D01*
X00037337Y00255918D01*
X00037239Y00254922D01*
Y00252921D01*
X00034226D01*
X00033879Y00252875D01*
X00033555Y00252741D01*
X00033277Y00252528D01*
X00033064Y00252250D01*
X00032930Y00251927D01*
X00032885Y00251579D01*
Y00231827D01*
X00032213Y00231623D01*
X00031330Y00231152D01*
X00030556Y00230517D01*
X00029922Y00229743D01*
X00029450Y00228861D01*
X00029160Y00227903D01*
X00029061Y00226907D01*
X00029061Y00212336D01*
X00029074Y00212211D01*
X00029067Y00212086D01*
X00029123Y00211714D01*
X00029160Y00211341D01*
X00029196Y00211220D01*
X00029214Y00211096D01*
X00029341Y00210742D01*
X00029450Y00210383D01*
X00029509Y00210272D01*
X00029551Y00210154D01*
X00029745Y00209832D01*
X00029922Y00209500D01*
X00030001Y00209403D01*
X00030066Y00209296D01*
X00030318Y00209017D01*
X00030556Y00208727D01*
X00030654Y00208647D01*
X00030738Y00208554D01*
X00031040Y00208330D01*
X00031330Y00208092D01*
X00031441Y00208033D01*
X00031542Y00207958D01*
X00031881Y00207798D01*
X00032213Y00207620D01*
X00032333Y00207584D01*
X00032446Y00207530D01*
X00032811Y00207439D01*
X00033170Y00207330D01*
X00033295Y00207318D01*
X00033417Y00207287D01*
X00033589Y00207262D01*
X00034731Y00206976D01*
X00035838Y00206579D01*
X00036902Y00206076D01*
X00037911Y00205471D01*
X00038856Y00204770D01*
X00039728Y00203980D01*
X00040518Y00203108D01*
X00041219Y00202163D01*
X00041824Y00201154D01*
X00042327Y00200090D01*
X00042724Y00198983D01*
X00043010Y00197841D01*
X00043182Y00196677D01*
X00043240Y00195502D01*
X00043182Y00194327D01*
X00043010Y00193163D01*
X00042724Y00192022D01*
X00042327Y00190914D01*
X00041824Y00189850D01*
X00041219Y00188841D01*
X00040518Y00187896D01*
X00039728Y00187024D01*
X00038856Y00186234D01*
X00037911Y00185533D01*
X00036902Y00184928D01*
X00035838Y00184425D01*
X00034731Y00184028D01*
X00033589Y00183743D01*
X00032425Y00183570D01*
X00031125Y00183506D01*
X00030000D01*
X00029004Y00183408D01*
X00028047Y00183117D01*
X00027164Y00182646D01*
X00026391Y00182011D01*
X00025756Y00181237D01*
X00025284Y00180355D01*
X00024994Y00179397D01*
X00024895Y00178401D01*
X00024896Y00151605D01*
X00024994Y00150609D01*
X00025284Y00149651D01*
X00025756Y00148769D01*
X00026391Y00147995D01*
X00027164Y00147360D01*
X00028047Y00146889D01*
X00029004Y00146598D01*
X00030000Y00146500D01*
X00031125D01*
X00032425Y00146436D01*
X00033589Y00146264D01*
X00034731Y00145978D01*
X00035838Y00145581D01*
X00036902Y00145078D01*
X00037911Y00144473D01*
X00038856Y00143772D01*
X00039728Y00142982D01*
X00040518Y00142111D01*
X00041219Y00141165D01*
X00041824Y00140156D01*
X00042327Y00139092D01*
X00042724Y00137985D01*
X00043010Y00136843D01*
X00043182Y00135679D01*
X00043240Y00134504D01*
X00043182Y00133329D01*
X00043010Y00132165D01*
X00042724Y00131024D01*
X00042327Y00129916D01*
X00041824Y00128852D01*
X00041219Y00127843D01*
X00040518Y00126898D01*
X00039728Y00126026D01*
X00038856Y00125236D01*
X00037911Y00124535D01*
X00036902Y00123930D01*
X00035838Y00123427D01*
X00034731Y00123031D01*
X00033589Y00122745D01*
X00032425Y00122572D01*
X00031125Y00122508D01*
X00030000D01*
X00029004Y00122410D01*
X00028047Y00122120D01*
X00027164Y00121648D01*
X00026391Y00121013D01*
X00025756Y00120239D01*
X00025284Y00119357D01*
X00024994Y00118399D01*
X00024896Y00117404D01*
X00024896Y00054103D01*
X00024934Y00053716D01*
X00024955Y00053326D01*
X00024983Y00053218D01*
X00024994Y00053107D01*
X00025107Y00052734D01*
X00025203Y00052357D01*
X00025252Y00052256D01*
X00025284Y00052150D01*
X00025468Y00051806D01*
X00025636Y00051455D01*
X00025703Y00051365D01*
X00025756Y00051267D01*
X00026003Y00050966D01*
X00026237Y00050654D01*
X00026320Y00050580D01*
X00026391Y00050493D01*
X00026692Y00050247D01*
X00026982Y00049986D01*
X00027078Y00049929D01*
X00027164Y00049859D01*
X00027508Y00049675D01*
X00027843Y00049477D01*
X00027948Y00049440D01*
X00028047Y00049387D01*
X00028419Y00049274D01*
X00028787Y00049145D01*
X00028897Y00049129D01*
X00029004Y00049096D01*
X00029392Y00049058D01*
X00029777Y00049003D01*
X00031655Y00048921D01*
X00033298Y00048705D01*
X00034916Y00048346D01*
X00036496Y00047848D01*
X00038027Y00047214D01*
X00039497Y00046449D01*
X00040894Y00045559D01*
X00042209Y00044550D01*
X00043430Y00043430D01*
X00044550Y00042209D01*
X00045559Y00040894D01*
X00046449Y00039497D01*
X00046853Y00038720D01*
X00046911Y00038631D01*
X00046955Y00038533D01*
X00047417Y00037730D01*
X00047788Y00036850D01*
X00057590Y00013552D01*
X00057830Y00012981D01*
X00057998Y00012670D01*
X00058148Y00012349D01*
X00058786Y00011274D01*
X00058996Y00010989D01*
X00059189Y00010692D01*
X00059970Y00009715D01*
X00060217Y00009462D01*
X00060449Y00009195D01*
X00061357Y00008336D01*
X00061637Y00008119D01*
X00061904Y00007886D01*
X00062922Y00007161D01*
X00063229Y00006985D01*
X00063525Y00006792D01*
X00064634Y00006214D01*
X00064963Y00006082D01*
X00065283Y00005932D01*
X00066461Y00005513D01*
X00066805Y00005428D01*
X00067143Y00005323D01*
X00068367Y00005071D01*
X00068719Y00005034D01*
X00069068Y00004977D01*
X00070316Y00004897D01*
X00070670Y00004909D01*
X00071024Y00004901D01*
X00072271Y00004994D01*
X00072619Y00005055D01*
X00072971Y00005095D01*
X00074193Y00005360D01*
X00074530Y00005469D01*
X00074872Y00005558D01*
X00076046Y00005989D01*
X00076364Y00006143D01*
X00076691Y00006278D01*
X00077794Y00006867D01*
X00078088Y00007064D01*
X00078394Y00007243D01*
X00079404Y00007979D01*
X00079668Y00008215D01*
X00079946Y00008435D01*
X00080845Y00009303D01*
X00081074Y00009573D01*
X00081319Y00009829D01*
X00082089Y00010814D01*
X00082279Y00011113D01*
X00082485Y00011400D01*
X00083112Y00012482D01*
X00083259Y00012803D01*
X00083424Y00013117D01*
X00083895Y00014275D01*
X00083996Y00014614D01*
X00084116Y00014947D01*
X00084422Y00016159D01*
X00084475Y00016509D01*
X00084548Y00016855D01*
X00084684Y00018098D01*
X00084688Y00018452D01*
X00084712Y00018805D01*
X00084696Y00019353D01*
X00084696Y00086981D01*
X00084656Y00087385D01*
X00084632Y00087789D01*
X00084607Y00087882D01*
X00084598Y00087977D01*
X00084480Y00088364D01*
X00084377Y00088757D01*
X00084335Y00088843D01*
X00084308Y00088935D01*
X00084116Y00089292D01*
X00083939Y00089656D01*
X00083881Y00089733D01*
X00083836Y00089817D01*
X00083578Y00090131D01*
X00083334Y00090453D01*
X00083262Y00090517D01*
X00083201Y00090591D01*
X00082887Y00090848D01*
X00082584Y00091116D01*
X00081314Y00092036D01*
X00081016Y00092210D01*
X00080728Y00092402D01*
X00080584Y00092462D01*
X00080450Y00092540D01*
X00080123Y00092653D01*
X00079803Y00092785D01*
X00079651Y00092815D01*
X00079504Y00092866D01*
X00079244Y00092901D01*
X00079259Y00093014D01*
Y00095795D01*
X00084699D01*
X00084699Y00095795D01*
X00085197Y00095861D01*
X00085226Y00095873D01*
X00086206Y00095472D01*
X00086207Y00095472D01*
X00086623Y00095030D01*
X00086623Y00047066D01*
X00086623Y00019918D01*
X00086627Y00019876D01*
Y00010620D01*
X00086709Y00009572D01*
X00086955Y00008549D01*
X00087357Y00007578D01*
X00087907Y00006682D01*
X00088589Y00005882D01*
X00089389Y00005199D01*
X00090286Y00004650D01*
X00091257Y00004247D01*
X00092279Y00004002D01*
X00093328Y00003919D01*
X00106128D01*
X00107176Y00004002D01*
X00108198Y00004247D01*
X00109170Y00004650D01*
X00110066Y00005199D01*
X00110866Y00005882D01*
X00111548Y00006682D01*
X00112098Y00007578D01*
X00112500Y00008549D01*
X00112746Y00009572D01*
X00112828Y00010620D01*
Y00019846D01*
X00112835Y00019920D01*
X00112835Y00019920D01*
X00112835Y00019921D01*
X00112833Y00025306D01*
X00129488Y00041962D01*
X00158550Y00041962D01*
X00158635Y00041970D01*
X00158651D01*
X00158732Y00041965D01*
X00158770Y00041970D01*
X00159450D01*
X00160291Y00042036D01*
X00161111Y00042233D01*
X00161890Y00042556D01*
X00162609Y00042996D01*
X00163250Y00043544D01*
X00163798Y00044185D01*
X00164238Y00044904D01*
X00164561Y00045683D01*
X00164758Y00046503D01*
X00164824Y00047344D01*
Y00048025D01*
X00164829Y00048063D01*
X00164824Y00048145D01*
Y00048159D01*
X00164832Y00048244D01*
Y00120268D01*
X00165246Y00120675D01*
X00166229Y00121263D01*
X00166386Y00121243D01*
X00166386Y00121243D01*
X00172621D01*
Y00119164D01*
X00172680Y00118572D01*
X00172852Y00118003D01*
X00173133Y00117478D01*
X00173510Y00117018D01*
X00173970Y00116641D01*
X00174495Y00116360D01*
X00175064Y00116188D01*
X00175656Y00116129D01*
X00176248Y00116188D01*
X00176817Y00116360D01*
X00177342Y00116641D01*
X00177802Y00117018D01*
X00178115Y00117400D01*
X00178673Y00117478D01*
X00179139D01*
X00179697Y00117400D01*
X00180010Y00117018D01*
X00180470Y00116641D01*
X00180995Y00116360D01*
X00181564Y00116188D01*
X00182156Y00116129D01*
X00182748Y00116188D01*
X00183317Y00116360D01*
X00183842Y00116641D01*
X00184302Y00117018D01*
X00184615Y00117400D01*
X00185173Y00117478D01*
X00185639D01*
X00186197Y00117400D01*
X00186510Y00117018D01*
X00186970Y00116641D01*
X00187495Y00116360D01*
X00188064Y00116188D01*
X00188656Y00116129D01*
X00189248Y00116188D01*
X00189817Y00116360D01*
X00190342Y00116641D01*
X00190802Y00117018D01*
X00191115Y00117400D01*
X00191673Y00117478D01*
X00192139D01*
X00192697Y00117400D01*
X00193010Y00117018D01*
X00193470Y00116641D01*
X00193995Y00116360D01*
X00194564Y00116188D01*
X00195156Y00116129D01*
X00195748Y00116188D01*
X00196317Y00116360D01*
X00196842Y00116641D01*
X00197302Y00117018D01*
X00197679Y00117478D01*
X00197960Y00118003D01*
X00198132Y00118572D01*
X00198191Y00119164D01*
Y00127164D01*
X00198132Y00127756D01*
X00197960Y00128325D01*
X00197679Y00128850D01*
X00197302Y00129310D01*
X00196842Y00129687D01*
X00196317Y00129968D01*
X00195748Y00130140D01*
X00195156Y00130199D01*
X00194564Y00130140D01*
X00193995Y00129968D01*
X00193470Y00129687D01*
X00193010Y00129310D01*
X00192697Y00128928D01*
X00192139Y00128850D01*
X00191673D01*
X00191115Y00128928D01*
X00190802Y00129310D01*
X00190342Y00129687D01*
X00189817Y00129968D01*
X00189248Y00130140D01*
X00188656Y00130199D01*
X00188064Y00130140D01*
X00187495Y00129968D01*
X00186970Y00129687D01*
X00186510Y00129310D01*
X00186197Y00128928D01*
X00185639Y00128850D01*
X00185173D01*
X00184615Y00128928D01*
X00184302Y00129310D01*
X00183842Y00129687D01*
X00183317Y00129968D01*
X00182748Y00130140D01*
X00182156Y00130199D01*
X00181564Y00130140D01*
X00180995Y00129968D01*
X00180470Y00129687D01*
X00180010Y00129310D01*
X00179697Y00128928D01*
X00179139Y00128850D01*
X00178673D01*
X00178115Y00128928D01*
X00177802Y00129310D01*
X00177342Y00129687D01*
X00176817Y00129968D01*
X00176248Y00130140D01*
X00175656Y00130199D01*
X00175064Y00130140D01*
X00174495Y00129968D01*
X00173970Y00129687D01*
X00173510Y00129310D01*
X00173133Y00128850D01*
X00172852Y00128325D01*
X00172680Y00127756D01*
X00172621Y00127164D01*
Y00125085D01*
X00167418D01*
Y00216463D01*
X00169048D01*
Y00215662D01*
X00169092Y00215323D01*
X00169223Y00215007D01*
X00169431Y00214736D01*
X00169702Y00214528D01*
X00170018Y00214398D01*
X00170357Y00214353D01*
X00177801D01*
X00178140Y00214398D01*
X00178456Y00214528D01*
X00178727Y00214736D01*
X00178935Y00215007D01*
X00179066Y00215323D01*
X00179110Y00215662D01*
Y00221106D01*
X00179066Y00221445D01*
X00178935Y00221761D01*
X00178727Y00222032D01*
X00178456Y00222240D01*
X00178140Y00222371D01*
X00177801Y00222415D01*
X00170357D01*
X00170018Y00222371D01*
X00169702Y00222240D01*
X00169431Y00222032D01*
X00169223Y00221761D01*
X00169092Y00221445D01*
X00169048Y00221106D01*
Y00220306D01*
X00167418D01*
Y00222939D01*
X00167967Y00223106D01*
X00168674Y00223484D01*
X00169294Y00223992D01*
X00169803Y00224612D01*
X00170181Y00225319D01*
X00170413Y00226086D01*
X00170492Y00226884D01*
X00170436Y00227456D01*
X00170612Y00227893D01*
X00171518Y00228853D01*
X00177801D01*
X00178140Y00228897D01*
X00178456Y00229028D01*
X00178727Y00229236D01*
X00178935Y00229507D01*
X00179066Y00229823D01*
X00179110Y00230162D01*
Y00230963D01*
X00180550D01*
Y00230162D01*
X00180595Y00229823D01*
X00180726Y00229507D01*
X00180934Y00229236D01*
X00181205Y00229028D01*
X00181520Y00228897D01*
X00181859Y00228853D01*
X00189304D01*
X00189643Y00228897D01*
X00189958Y00229028D01*
X00190229Y00229236D01*
X00190437Y00229507D01*
X00190568Y00229823D01*
X00190613Y00230162D01*
Y00235606D01*
X00190568Y00235945D01*
X00190437Y00236261D01*
X00190229Y00236532D01*
X00189958Y00236740D01*
X00189643Y00236871D01*
X00189304Y00236915D01*
X00181859D01*
X00181520Y00236871D01*
X00181205Y00236740D01*
X00180934Y00236532D01*
X00180726Y00236261D01*
X00180595Y00235945D01*
X00180550Y00235606D01*
Y00234806D01*
X00179110D01*
Y00235606D01*
X00179066Y00235945D01*
X00178935Y00236261D01*
X00178727Y00236532D01*
X00178456Y00236740D01*
X00178140Y00236871D01*
X00177801Y00236915D01*
X00170357D01*
X00170018Y00236871D01*
X00169702Y00236740D01*
X00169431Y00236532D01*
X00169223Y00236261D01*
X00169092Y00235945D01*
X00169048Y00235606D01*
Y00234806D01*
X00166240D01*
X00166094Y00234951D01*
Y00246282D01*
X00166094Y00246282D01*
X00166028Y00246779D01*
X00165837Y00247243D01*
X00165531Y00247641D01*
X00165531Y00247641D01*
X00162765Y00250407D01*
X00162367Y00250713D01*
X00161903Y00250905D01*
X00161406Y00250970D01*
X00161406Y00250970D01*
X00088069D01*
X00088069Y00250970D01*
X00087571Y00250905D01*
X00087108Y00250713D01*
X00086710Y00250407D01*
X00086710Y00250407D01*
X00084238Y00247936D01*
X00083933Y00247538D01*
X00083741Y00247074D01*
X00083676Y00246577D01*
X00083676Y00246577D01*
Y00241675D01*
X00079259D01*
Y00244456D01*
X00079214Y00244800D01*
X00079081Y00245121D01*
X00078870Y00245396D01*
X00078594Y00245607D01*
X00078274Y00245740D01*
X00077930Y00245785D01*
X00051525D01*
X00051181Y00245740D01*
X00050861Y00245607D01*
X00050585Y00245396D01*
X00050374Y00245121D01*
X00050241Y00244800D01*
X00050196Y00244456D01*
Y00235051D01*
X00050241Y00234707D01*
X00050374Y00234387D01*
X00050585Y00234111D01*
X00050861Y00233900D01*
X00051181Y00233767D01*
X00051525Y00233722D01*
X00077930D01*
X00078274Y00233767D01*
X00078594Y00233900D01*
X00078870Y00234111D01*
X00079081Y00234387D01*
X00079214Y00234707D01*
X00079259Y00235051D01*
Y00237832D01*
X00083676D01*
Y00214361D01*
X00082279Y00214082D01*
X00082058Y00214612D01*
X00081964Y00214789D01*
X00081890Y00214976D01*
X00081013Y00216694D01*
X00080905Y00216863D01*
X00080817Y00217043D01*
X00079809Y00218687D01*
X00079687Y00218847D01*
X00079586Y00219020D01*
X00078451Y00220579D01*
X00078318Y00220729D01*
X00078203Y00220894D01*
X00076949Y00222360D01*
X00076805Y00222498D01*
X00076677Y00222654D01*
X00075313Y00224016D01*
X00075157Y00224144D01*
X00075018Y00224288D01*
X00073551Y00225540D01*
X00073386Y00225655D01*
X00073236Y00225788D01*
X00071675Y00226921D01*
X00071502Y00227022D01*
X00071342Y00227143D01*
X00069697Y00228150D01*
X00069517Y00228238D01*
X00069348Y00228346D01*
X00067629Y00229221D01*
X00067442Y00229294D01*
X00067265Y00229388D01*
X00065483Y00230126D01*
X00065291Y00230184D01*
X00065107Y00230264D01*
X00063273Y00230860D01*
X00063077Y00230903D01*
X00062887Y00230969D01*
X00061012Y00231419D01*
X00060813Y00231446D01*
X00060619Y00231497D01*
X00058714Y00231798D01*
X00058514Y00231810D01*
X00058316Y00231845D01*
X00056604Y00231980D01*
X00056439Y00231977D01*
X00056276Y00231995D01*
X00055103Y00232012D01*
X00055069Y00232009D01*
X00055034Y00232012D01*
X00055032Y00232012D01*
X00055031Y00232012D01*
X00055029D01*
X00055029Y00232012D01*
X00048435Y00232012D01*
X00047448Y00233000D01*
Y00238883D01*
X00047448Y00238890D01*
Y00252808D01*
X00049812Y00255171D01*
X00056489D01*
Y00254336D01*
X00056535Y00253989D01*
X00056669Y00253665D01*
X00056882Y00253388D01*
X00057160Y00253174D01*
X00057484Y00253040D01*
X00057831Y00252994D01*
X00083211D01*
X00083558Y00253040D01*
X00083882Y00253174D01*
X00084159Y00253388D01*
X00084373Y00253665D01*
X00084507Y00253989D01*
X00084552Y00254336D01*
Y00255171D01*
X00085953D01*
Y00254336D01*
X00085998Y00253989D01*
X00086132Y00253665D01*
X00086345Y00253388D01*
X00086623Y00253174D01*
X00086947Y00253040D01*
X00087294Y00252994D01*
X00112674D01*
X00113021Y00253040D01*
X00113345Y00253174D01*
X00113623Y00253388D01*
X00113836Y00253665D01*
X00113970Y00253989D01*
X00114016Y00254336D01*
Y00255171D01*
X00122345D01*
X00123341Y00255270D01*
X00124298Y00255560D01*
X00125181Y00256032D01*
X00125687Y00256448D01*
X00132801D01*
X00132832Y00256214D01*
X00132963Y00255899D01*
X00133170Y00255628D01*
X00133441Y00255420D01*
X00133757Y00255289D01*
X00134095Y00255245D01*
X00139441D01*
X00139780Y00255289D01*
X00140096Y00255420D01*
X00140366Y00255628D01*
X00140574Y00255899D01*
X00140705Y00256214D01*
X00140736Y00256448D01*
X00142301D01*
X00142332Y00256214D01*
X00142463Y00255899D01*
X00142670Y00255628D01*
X00142941Y00255420D01*
X00143257Y00255289D01*
X00143595Y00255245D01*
X00144384D01*
X00144412Y00255029D01*
X00144604Y00254565D01*
X00144910Y00254167D01*
X00145815Y00253262D01*
X00145815Y00253262D01*
X00146213Y00252957D01*
X00146676Y00252765D01*
X00147173Y00252700D01*
X00147174Y00252700D01*
X00159241D01*
X00159242Y00252700D01*
X00159739Y00252765D01*
X00160202Y00252957D01*
X00160600Y00253262D01*
X00160742Y00253404D01*
X00161010Y00253391D01*
X00161630Y00252882D01*
X00162337Y00252504D01*
X00163104Y00252271D01*
X00163902Y00252193D01*
X00164700Y00252271D01*
X00165467Y00252504D01*
X00166174Y00252882D01*
X00166794Y00253391D01*
X00167303Y00254011D01*
X00167681Y00254718D01*
X00167913Y00255485D01*
X00167992Y00256283D01*
X00167913Y00257080D01*
X00167681Y00257848D01*
X00167303Y00258555D01*
X00166794Y00259174D01*
X00166174Y00259683D01*
X00165643Y00259967D01*
X00165400Y00260600D01*
X00165279Y00261578D01*
X00168534Y00264833D01*
X00205231Y00264833D01*
X00205272Y00264841D01*
X00206485D01*
X00206526Y00264833D01*
X00241526D01*
X00241567Y00264841D01*
X00242542D01*
X00243518Y00264434D01*
X00243520Y00264434D01*
X00243521Y00264433D01*
X00243773Y00264383D01*
X00244014Y00264334D01*
X00244015Y00264335D01*
X00244017Y00264334D01*
X00252488Y00264334D01*
X00259076Y00257741D01*
X00259066Y00257584D01*
X00258853Y00257307D01*
X00258720Y00256985D01*
X00258674Y00256639D01*
Y00233749D01*
X00258720Y00233403D01*
X00258853Y00233081D01*
X00259066Y00232804D01*
X00259342Y00232592D01*
X00259665Y00232458D01*
X00260011Y00232413D01*
X00270900D01*
X00270943Y00232375D01*
X00270943Y00229929D01*
X00271006Y00229615D01*
X00271042Y00229434D01*
X00271042Y00229434D01*
X00271042Y00229434D01*
X00271172Y00229239D01*
X00271322Y00229014D01*
X00273432Y00226904D01*
X00235154Y00188626D01*
X00234848Y00188228D01*
X00234656Y00187764D01*
X00234591Y00187267D01*
X00234591Y00187267D01*
Y00175002D01*
X00205939D01*
X00205939Y00175002D01*
X00205441Y00174937D01*
X00205170Y00174825D01*
X00204465Y00175132D01*
X00203820Y00175618D01*
Y00178960D01*
X00217942D01*
X00217944Y00178961D01*
X00229387D01*
X00229732Y00179006D01*
X00230055Y00179140D01*
X00230331Y00179352D01*
X00230544Y00179629D01*
X00230677Y00179951D01*
X00230723Y00180297D01*
Y00191187D01*
X00230677Y00191533D01*
X00230544Y00191855D01*
X00230331Y00192132D01*
X00230055Y00192344D01*
X00229732Y00192478D01*
X00229387Y00192523D01*
X00206497D01*
X00206151Y00192478D01*
X00205828Y00192344D01*
X00205552Y00192132D01*
X00205339Y00191855D01*
X00205206Y00191533D01*
X00205160Y00191187D01*
Y00182803D01*
X00202780D01*
X00202779Y00182803D01*
X00202282Y00182738D01*
X00201819Y00182546D01*
X00201421Y00182240D01*
X00201421Y00182240D01*
X00200540Y00181360D01*
X00200235Y00180962D01*
X00200043Y00180499D01*
X00199978Y00180001D01*
X00199978Y00180001D01*
Y00176989D01*
X00197059D01*
X00196721Y00176945D01*
X00196405Y00176814D01*
X00196134Y00176606D01*
X00195926Y00176335D01*
X00195795Y00176019D01*
X00195751Y00175681D01*
Y00168235D01*
X00195609Y00168074D01*
X00189454D01*
X00189313Y00168235D01*
Y00175681D01*
X00189268Y00176019D01*
X00189138Y00176335D01*
X00188930Y00176606D01*
X00188659Y00176814D01*
X00188343Y00176945D01*
X00188004Y00176989D01*
X00182560D01*
X00182221Y00176945D01*
X00181905Y00176814D01*
X00181634Y00176606D01*
X00181426Y00176335D01*
X00181295Y00176019D01*
X00181251Y00175681D01*
Y00168235D01*
X00181295Y00167897D01*
X00181426Y00167581D01*
X00181634Y00167310D01*
X00181905Y00167102D01*
X00182221Y00166971D01*
X00182560Y00166927D01*
X00183361D01*
Y00165305D01*
X00182560D01*
X00182221Y00165261D01*
X00181905Y00165130D01*
X00181634Y00164922D01*
X00181426Y00164651D01*
X00181295Y00164335D01*
X00181251Y00163997D01*
Y00156552D01*
X00181295Y00156213D01*
X00181426Y00155897D01*
X00181634Y00155626D01*
X00181905Y00155418D01*
X00182221Y00155287D01*
X00182560Y00155243D01*
X00188004D01*
X00188033Y00155217D01*
Y00153778D01*
X00188022Y00153769D01*
X00182577D01*
X00182239Y00153724D01*
X00181923Y00153593D01*
X00181652Y00153385D01*
X00181444Y00153114D01*
X00181313Y00152799D01*
X00181269Y00152460D01*
Y00152183D01*
X00179275D01*
Y00152984D01*
X00179231Y00153323D01*
X00179100Y00153638D01*
X00178892Y00153909D01*
X00178621Y00154117D01*
X00178305Y00154248D01*
X00177966Y00154293D01*
X00176927D01*
Y00180774D01*
X00177729D01*
X00178067Y00180818D01*
X00178383Y00180949D01*
X00178654Y00181157D01*
X00178862Y00181428D01*
X00178993Y00181744D01*
X00179037Y00182082D01*
Y00190027D01*
X00178993Y00190366D01*
X00178862Y00190682D01*
X00178654Y00190953D01*
X00178383Y00191161D01*
X00178067Y00191292D01*
X00177729Y00191336D01*
X00172283D01*
X00171945Y00191292D01*
X00171629Y00191161D01*
X00171358Y00190953D01*
X00171150Y00190682D01*
X00171019Y00190366D01*
X00170975Y00190027D01*
Y00182082D01*
X00171019Y00181744D01*
X00171150Y00181428D01*
X00171358Y00181157D01*
X00171629Y00180949D01*
X00171945Y00180818D01*
X00172283Y00180774D01*
X00173085D01*
Y00154293D01*
X00170522D01*
X00170183Y00154248D01*
X00169867Y00154117D01*
X00169596Y00153909D01*
X00169388Y00153638D01*
X00169257Y00153323D01*
X00169213Y00152984D01*
Y00147539D01*
X00169257Y00147200D01*
X00169388Y00146885D01*
X00169596Y00146614D01*
X00169867Y00146406D01*
X00170183Y00146275D01*
X00170522Y00146230D01*
X00177966D01*
X00178305Y00146275D01*
X00178621Y00146406D01*
X00178892Y00146614D01*
X00179100Y00146885D01*
X00179231Y00147200D01*
X00179275Y00147539D01*
Y00148340D01*
X00181269D01*
Y00145015D01*
X00181313Y00144676D01*
X00181444Y00144361D01*
X00181652Y00144090D01*
X00181923Y00143882D01*
X00182239Y00143751D01*
X00182577Y00143706D01*
X00188022D01*
X00188033Y00143696D01*
Y00142215D01*
X00188022Y00142205D01*
X00182577D01*
X00182239Y00142161D01*
X00181923Y00142030D01*
X00181652Y00141822D01*
X00181444Y00141551D01*
X00181313Y00141236D01*
X00181269Y00140897D01*
Y00133452D01*
X00181313Y00133113D01*
X00181444Y00132797D01*
X00181652Y00132526D01*
X00181923Y00132318D01*
X00182239Y00132188D01*
X00182577Y00132143D01*
X00188022D01*
X00188361Y00132188D01*
X00188677Y00132318D01*
X00188948Y00132526D01*
X00189156Y00132797D01*
X00189286Y00133113D01*
X00189331Y00133452D01*
Y00135289D01*
X00189554Y00135318D01*
X00190018Y00135510D01*
X00190416Y00135816D01*
X00191313Y00136713D01*
X00191313Y00136713D01*
X00191619Y00137111D01*
X00191811Y00137575D01*
X00191876Y00138072D01*
X00191876Y00138072D01*
Y00159351D01*
X00191876Y00159351D01*
X00191811Y00159848D01*
X00191619Y00160312D01*
X00191313Y00160709D01*
X00191313Y00160709D01*
X00190390Y00161633D01*
X00189992Y00161938D01*
X00189529Y00162130D01*
X00189313Y00162158D01*
Y00163997D01*
X00189519Y00164231D01*
X00195545D01*
X00195751Y00163997D01*
Y00156552D01*
X00195795Y00156213D01*
X00195926Y00155897D01*
X00196134Y00155626D01*
X00196405Y00155418D01*
X00196721Y00155287D01*
X00197059Y00155243D01*
X00202505D01*
X00202843Y00155287D01*
X00203159Y00155418D01*
X00203430Y00155626D01*
X00203638Y00155897D01*
X00203769Y00156213D01*
X00203813Y00156552D01*
Y00161470D01*
X00205414D01*
Y00160231D01*
X00205460Y00159885D01*
X00205593Y00159563D01*
X00205806Y00159286D01*
X00206082Y00159074D01*
X00206405Y00158940D01*
X00206751Y00158895D01*
X00229641D01*
X00229986Y00158940D01*
X00230309Y00159074D01*
X00230585Y00159286D01*
X00230798Y00159563D01*
X00230931Y00159885D01*
X00230977Y00160231D01*
Y00163755D01*
X00233537D01*
Y00094993D01*
X00210212D01*
X00209808Y00095413D01*
X00209228Y00096390D01*
X00209250Y00096559D01*
Y00098697D01*
X00229641D01*
X00229986Y00098742D01*
X00230309Y00098876D01*
X00230585Y00099088D01*
X00230798Y00099365D01*
X00230931Y00099687D01*
X00230977Y00100033D01*
Y00110923D01*
X00230931Y00111269D01*
X00230798Y00111591D01*
X00230585Y00111868D01*
X00230309Y00112080D01*
X00229986Y00112214D01*
X00229641Y00112259D01*
X00206751D01*
X00206405Y00112214D01*
X00206082Y00112080D01*
X00205806Y00111868D01*
X00205593Y00111591D01*
X00205460Y00111269D01*
X00205414Y00110923D01*
Y00105531D01*
X00205407Y00105478D01*
Y00098690D01*
X00204831Y00097533D01*
X00204334Y00097467D01*
X00203870Y00097275D01*
X00203472Y00096970D01*
X00203472Y00096970D01*
X00200892Y00094389D01*
X00200586Y00093991D01*
X00200395Y00093528D01*
X00200329Y00093031D01*
X00200329Y00093030D01*
Y00078357D01*
X00200329Y00078357D01*
X00200395Y00077860D01*
X00200586Y00077396D01*
X00200892Y00076998D01*
X00203528Y00074362D01*
X00203528Y00074362D01*
X00203926Y00074057D01*
X00204389Y00073865D01*
X00204887Y00073800D01*
X00204887Y00073800D01*
X00208565D01*
Y00061406D01*
X00208565Y00061406D01*
X00208631Y00060908D01*
X00208822Y00060445D01*
X00209128Y00060047D01*
Y00059677D01*
X00208822Y00059279D01*
X00208631Y00058816D01*
X00208565Y00058318D01*
X00208565Y00058318D01*
Y00048628D01*
X00185398D01*
X00185335Y00048941D01*
X00185250Y00049069D01*
X00185153Y00049253D01*
X00185097Y00049956D01*
X00185153Y00050659D01*
X00185250Y00050843D01*
X00185335Y00050971D01*
X00185435Y00051474D01*
Y00051936D01*
X00181140D01*
X00176845D01*
Y00051708D01*
X00176845Y00051474D01*
X00176845Y00051473D01*
X00176945Y00050971D01*
X00177142Y00049956D01*
X00176945Y00048941D01*
X00176845Y00048439D01*
X00176845Y00048439D01*
X00176845Y00048204D01*
Y00045208D01*
X00176845Y00044974D01*
X00176845Y00044973D01*
X00176945Y00044471D01*
X00177142Y00043456D01*
X00176945Y00042441D01*
X00176845Y00041939D01*
X00176845Y00041939D01*
X00176845Y00041704D01*
Y00041476D01*
X00181140D01*
X00185435D01*
Y00041939D01*
X00185335Y00042441D01*
X00185250Y00042569D01*
X00185153Y00042753D01*
X00185097Y00043456D01*
X00185153Y00044159D01*
X00185250Y00044343D01*
X00185335Y00044471D01*
X00185398Y00044785D01*
X00209615D01*
X00209615Y00044785D01*
X00210112Y00044850D01*
X00210430Y00044982D01*
X00210998Y00044773D01*
X00211827Y00044244D01*
Y00002145D01*
X00030000D01*
X00029915Y00002134D01*
X00027813Y00002217D01*
X00025640Y00002474D01*
X00023494Y00002901D01*
X00021388Y00003495D01*
X00019335Y00004252D01*
X00017348Y00005168D01*
X00015438Y00006238D01*
X00013619Y00007453D01*
X00011901Y00008808D01*
X00010294Y00010294D01*
X00008808Y00011901D01*
X00007454Y00013619D01*
X00006238Y00015438D01*
X00005168Y00017348D01*
X00004252Y00019335D01*
X00003495Y00021388D01*
X00002901Y00023494D01*
X00002474Y00025640D01*
X00002217Y00027813D01*
X00002134Y00029915D01*
X00002145Y00030000D01*
Y00290369D01*
X00002217Y00292187D01*
X00002474Y00294360D01*
X00002901Y00296506D01*
X00003495Y00298612D01*
X00004252Y00300665D01*
X00005168Y00302652D01*
X00006238Y00304562D01*
X00007453Y00306381D01*
X00008808Y00308099D01*
X00010294Y00309706D01*
X00011901Y00311192D01*
X00013619Y00312547D01*
X00015438Y00313762D01*
X00017348Y00314832D01*
X00019335Y00315748D01*
X00021388Y00316505D01*
X00023494Y00317099D01*
X00025640Y00317526D01*
X00027813Y00317783D01*
X00029915Y00317866D01*
X00030000Y00317855D01*
D02*
G37*
G36*
X00205231Y00290941D02*
X00205231Y00266128D01*
X00167998Y00266128D01*
X00161199Y00259329D01*
X00161010Y00259174D01*
X00160856Y00258986D01*
X00158412Y00256542D01*
X00153068D01*
X00153067Y00267606D01*
X00153067Y00268127D01*
X00153253Y00269151D01*
X00153618Y00270126D01*
X00154150Y00271020D01*
X00154834Y00271805D01*
X00155646Y00272456D01*
X00156561Y00272952D01*
X00157550Y00273276D01*
X00158066Y00273348D01*
X00158556Y00273431D01*
X00159519Y00273679D01*
X00160448Y00274035D01*
X00161330Y00274494D01*
X00162154Y00275050D01*
X00162910Y00275697D01*
X00163587Y00276425D01*
X00164177Y00277225D01*
X00164672Y00278087D01*
X00165067Y00279000D01*
X00165355Y00279952D01*
X00165533Y00280930D01*
X00165580Y00281425D01*
X00165580Y00281425D01*
X00166428Y00288915D01*
X00166461Y00289214D01*
X00166636Y00289789D01*
X00166912Y00290323D01*
X00167279Y00290798D01*
X00167727Y00291199D01*
X00168240Y00291512D01*
X00168801Y00291728D01*
X00169392Y00291838D01*
X00169692Y00291838D01*
X00169692Y00291838D01*
X00204333Y00291839D01*
X00205231Y00290941D01*
D02*
G37*
G36*
X00311501Y00284170D02*
X00311502Y00271002D01*
X00298806Y00260096D01*
Y00221308D01*
X00280858Y00221308D01*
X00272238Y00229929D01*
X00272237Y00246402D01*
X00272237Y00246402D01*
Y00256639D01*
X00272191Y00256985D01*
X00272058Y00257307D01*
X00271845Y00257584D01*
X00271569Y00257796D01*
X00271246Y00257930D01*
X00270901Y00257976D01*
X00260672D01*
X00253024Y00265629D01*
X00244017Y00265629D01*
X00242821Y00266128D01*
X00242821Y00284171D01*
X00311501Y00284170D01*
D02*
G37*
G36*
X00055029Y00226907D02*
X00055029Y00226908D01*
X00055031D01*
X00056204Y00226891D01*
X00057916Y00226756D01*
X00059821Y00226455D01*
X00061697Y00226005D01*
X00063531Y00225409D01*
X00065313Y00224672D01*
X00067032Y00223797D01*
X00068677Y00222790D01*
X00070238Y00221657D01*
X00071705Y00220405D01*
X00073070Y00219042D01*
X00074323Y00217576D01*
X00075458Y00216017D01*
X00076467Y00214373D01*
X00077344Y00212655D01*
X00078084Y00210874D01*
X00078682Y00209040D01*
X00079134Y00207165D01*
X00079437Y00205260D01*
X00079591Y00203338D01*
X00079592Y00202373D01*
X00079592Y00179216D01*
X00078322Y00178297D01*
X00077930Y00178336D01*
X00051525D01*
X00050520Y00178237D01*
X00049553Y00177944D01*
X00048663Y00177467D01*
X00047882Y00176827D01*
X00047241Y00176046D01*
X00046765Y00175155D01*
X00046472Y00174189D01*
X00046373Y00173183D01*
Y00163778D01*
X00046472Y00162773D01*
X00046765Y00161807D01*
X00047241Y00160916D01*
X00047882Y00160135D01*
X00048663Y00159494D01*
X00049553Y00159018D01*
X00050520Y00158725D01*
X00051525Y00158626D01*
X00077930D01*
X00078322Y00158665D01*
X00079592Y00157746D01*
X00079592Y00108452D01*
X00078322Y00107533D01*
X00077930Y00107571D01*
X00051525D01*
X00050520Y00107472D01*
X00049553Y00107179D01*
X00048663Y00106703D01*
X00047882Y00106062D01*
X00047241Y00105281D01*
X00046765Y00104391D01*
X00046472Y00103424D01*
X00046373Y00102419D01*
Y00093014D01*
X00046472Y00092009D01*
X00046765Y00091042D01*
X00047241Y00090152D01*
X00047882Y00089371D01*
X00048663Y00088730D01*
X00049553Y00088254D01*
X00050520Y00087961D01*
X00051525Y00087862D01*
X00077930D01*
X00078321Y00087900D01*
X00079592Y00086981D01*
X00079591Y00019279D01*
X00079591Y00019279D01*
X00079610Y00018654D01*
X00079474Y00017411D01*
X00079167Y00016199D01*
X00078696Y00015041D01*
X00078069Y00013959D01*
X00077298Y00012974D01*
X00076399Y00012106D01*
X00075388Y00011370D01*
X00074285Y00010780D01*
X00073112Y00010349D01*
X00071890Y00010084D01*
X00070643Y00009991D01*
X00069395Y00010071D01*
X00068170Y00010323D01*
X00066992Y00010741D01*
X00065883Y00011319D01*
X00064865Y00012044D01*
X00063956Y00012903D01*
X00063175Y00013880D01*
X00062537Y00014955D01*
X00062295Y00015532D01*
X00052493Y00038829D01*
X00052000Y00040000D01*
X00051381Y00041077D01*
X00050874Y00042052D01*
X00049744Y00043825D01*
X00048464Y00045493D01*
X00047043Y00047043D01*
X00045493Y00048464D01*
X00043825Y00049744D01*
X00042052Y00050874D01*
X00040186Y00051845D01*
X00038244Y00052649D01*
X00036238Y00053282D01*
X00034186Y00053737D01*
X00032101Y00054011D01*
X00030000Y00054103D01*
X00030000Y00117404D01*
X00031250D01*
X00032926Y00117486D01*
X00034586Y00117732D01*
X00036214Y00118140D01*
X00037794Y00118705D01*
X00039311Y00119423D01*
X00040751Y00120286D01*
X00042098Y00121285D01*
X00043342Y00122412D01*
X00044469Y00123656D01*
X00045469Y00125004D01*
X00046331Y00126443D01*
X00047049Y00127960D01*
X00047614Y00129540D01*
X00048022Y00131168D01*
X00048268Y00132828D01*
X00048351Y00134504D01*
X00048268Y00136180D01*
X00048022Y00137840D01*
X00047614Y00139468D01*
X00047049Y00141048D01*
X00046331Y00142565D01*
X00045469Y00144005D01*
X00044469Y00145353D01*
X00043342Y00146596D01*
X00042098Y00147723D01*
X00040751Y00148723D01*
X00039311Y00149586D01*
X00037794Y00150303D01*
X00036214Y00150868D01*
X00034586Y00151276D01*
X00032926Y00151522D01*
X00031250Y00151605D01*
X00030000D01*
X00030000Y00178401D01*
X00031250D01*
X00032926Y00178484D01*
X00034586Y00178730D01*
X00036214Y00179138D01*
X00037794Y00179703D01*
X00039311Y00180421D01*
X00040751Y00181283D01*
X00042098Y00182283D01*
X00043342Y00183410D01*
X00044469Y00184653D01*
X00045469Y00186001D01*
X00046331Y00187441D01*
X00047049Y00188958D01*
X00047614Y00190538D01*
X00048022Y00192166D01*
X00048268Y00193826D01*
X00048351Y00195502D01*
X00048268Y00197178D01*
X00048022Y00198838D01*
X00047614Y00200466D01*
X00047049Y00202046D01*
X00046331Y00203563D01*
X00045469Y00205003D01*
X00044469Y00206350D01*
X00043342Y00207594D01*
X00042098Y00208721D01*
X00040751Y00209721D01*
X00039311Y00210583D01*
X00037794Y00211301D01*
X00036214Y00211866D01*
X00034586Y00212274D01*
X00034166Y00212336D01*
X00034166Y00226907D01*
X00055029Y00226908D01*
X00055029Y00226907D01*
D02*
G37*
G36*
X00158549Y00244603D02*
X00159503Y00244379D01*
X00159728Y00243424D01*
X00159728Y00048244D01*
X00159721Y00048214D01*
X00158580Y00047073D01*
X00158550Y00047066D01*
X00127374Y00047066D01*
X00107727Y00027420D01*
X00107731Y00019918D01*
X00106833Y00019020D01*
X00092625Y00019020D01*
X00091727Y00019918D01*
X00091727Y00047066D01*
X00091728Y00244326D01*
X00092906Y00244603D01*
X00158549Y00244603D01*
D02*
G37*
%LPC*%
G36*
X00361186Y00301275D02*
X00355742D01*
X00355403Y00301230D01*
X00355087Y00301099D01*
X00354816Y00300891D01*
X00354608Y00300620D01*
X00354477Y00300305D01*
X00354433Y00299966D01*
Y00295059D01*
X00334465D01*
X00334465Y00295059D01*
X00333968Y00294993D01*
X00333504Y00294802D01*
X00333106Y00294496D01*
X00333106Y00294496D01*
X00328722Y00290112D01*
X00328417Y00289714D01*
X00328225Y00289251D01*
X00328159Y00288753D01*
X00328159Y00288753D01*
Y00283100D01*
X00315789D01*
X00315438Y00283053D01*
X00315111Y00282918D01*
X00314830Y00282702D01*
X00314614Y00282421D01*
X00314479Y00282094D01*
X00314432Y00281743D01*
Y00261893D01*
X00314479Y00261542D01*
X00314614Y00261215D01*
X00314830Y00260934D01*
X00315111Y00260718D01*
X00315438Y00260583D01*
X00315789Y00260536D01*
X00330639D01*
X00330990Y00260583D01*
X00331317Y00260718D01*
X00331598Y00260934D01*
X00331814Y00261215D01*
X00331949Y00261542D01*
X00331996Y00261893D01*
Y00271768D01*
X00332002Y00271818D01*
Y00287957D01*
X00335261Y00291216D01*
X00355714D01*
X00355742Y00291212D01*
X00361186D01*
X00361525Y00291257D01*
X00361841Y00291388D01*
X00362112Y00291596D01*
X00362320Y00291867D01*
X00362451Y00292182D01*
X00362495Y00292521D01*
Y00299966D01*
X00362451Y00300305D01*
X00362320Y00300620D01*
X00362112Y00300891D01*
X00361841Y00301099D01*
X00361525Y00301230D01*
X00361186Y00301275D01*
D02*
G37*
G36*
Y00289692D02*
X00355742D01*
X00355403Y00289648D01*
X00355087Y00289517D01*
X00354816Y00289309D01*
X00354608Y00289038D01*
X00354477Y00288722D01*
X00354433Y00288383D01*
Y00286582D01*
X00351995D01*
X00351498Y00286517D01*
X00351034Y00286325D01*
X00350636Y00286020D01*
X00350636Y00286019D01*
X00349717Y00285100D01*
X00349412Y00284702D01*
X00349220Y00284239D01*
X00349154Y00283741D01*
X00348034Y00283100D01*
X00336789D01*
X00336438Y00283053D01*
X00336111Y00282918D01*
X00335830Y00282702D01*
X00335614Y00282421D01*
X00335479Y00282094D01*
X00335433Y00281743D01*
Y00261893D01*
X00335479Y00261542D01*
X00335614Y00261215D01*
X00335830Y00260934D01*
X00336111Y00260718D01*
X00336438Y00260583D01*
X00336789Y00260536D01*
X00351639D01*
X00351990Y00260583D01*
X00352317Y00260718D01*
X00352598Y00260934D01*
X00352814Y00261215D01*
X00352949Y00261542D01*
X00352996Y00261893D01*
Y00271808D01*
X00352997Y00271818D01*
Y00282740D01*
X00354433D01*
Y00280938D01*
X00354477Y00280600D01*
X00354608Y00280284D01*
X00354816Y00280013D01*
X00355087Y00279805D01*
X00355403Y00279674D01*
X00355742Y00279630D01*
X00361186D01*
X00361525Y00279674D01*
X00361841Y00279805D01*
X00362112Y00280013D01*
X00362320Y00280284D01*
X00362451Y00280600D01*
X00362495Y00280938D01*
Y00288383D01*
X00362451Y00288722D01*
X00362320Y00289038D01*
X00362112Y00289309D01*
X00361841Y00289517D01*
X00361525Y00289648D01*
X00361186Y00289692D01*
D02*
G37*
G36*
X00427831Y00264281D02*
X00423904D01*
Y00257269D01*
X00429165D01*
Y00262948D01*
X00429120Y00263293D01*
X00428987Y00263614D01*
X00428775Y00263891D01*
X00428498Y00264103D01*
X00428177Y00264236D01*
X00427831Y00264281D01*
D02*
G37*
G36*
X00421364D02*
X00417436D01*
X00417091Y00264236D01*
X00416769Y00264103D01*
X00416493Y00263891D01*
X00416281Y00263614D01*
X00416148Y00263293D01*
X00416103Y00262948D01*
Y00257269D01*
X00421364D01*
Y00264281D01*
D02*
G37*
G36*
X00375934Y00254995D02*
X00374234D01*
Y00250734D01*
X00377245D01*
Y00253684D01*
X00377201Y00254023D01*
X00377070Y00254340D01*
X00376861Y00254611D01*
X00376590Y00254820D01*
X00376273Y00254951D01*
X00375934Y00254995D01*
D02*
G37*
G36*
X00371694D02*
X00369994D01*
X00369655Y00254951D01*
X00369338Y00254820D01*
X00369067Y00254611D01*
X00368858Y00254340D01*
X00368727Y00254023D01*
X00368683Y00253684D01*
Y00250734D01*
X00371694D01*
Y00254995D01*
D02*
G37*
G36*
X00429165Y00254729D02*
X00423904D01*
Y00247719D01*
X00427831D01*
X00428177Y00247764D01*
X00428498Y00247897D01*
X00428775Y00248109D01*
X00428987Y00248386D01*
X00429120Y00248707D01*
X00429165Y00249053D01*
Y00254729D01*
D02*
G37*
G36*
X00421364D02*
X00416103D01*
Y00249053D01*
X00416148Y00248707D01*
X00416281Y00248386D01*
X00416493Y00248109D01*
X00416769Y00247897D01*
X00417091Y00247764D01*
X00417436Y00247719D01*
X00421364D01*
Y00254729D01*
D02*
G37*
G36*
X00377245Y00248194D02*
X00374234D01*
Y00243933D01*
X00375934D01*
X00376273Y00243977D01*
X00376590Y00244108D01*
X00376861Y00244317D01*
X00377070Y00244588D01*
X00377201Y00244904D01*
X00377245Y00245244D01*
Y00248194D01*
D02*
G37*
G36*
X00371694D02*
X00368683D01*
Y00245244D01*
X00368727Y00244904D01*
X00368858Y00244588D01*
X00369067Y00244317D01*
X00369338Y00244108D01*
X00369655Y00243977D01*
X00369994Y00243933D01*
X00371694D01*
Y00248194D01*
D02*
G37*
G36*
X00424384Y00242793D02*
X00423449Y00242701D01*
X00422550Y00242428D01*
X00421721Y00241985D01*
X00420995Y00241389D01*
X00420399Y00240663D01*
X00419956Y00239834D01*
X00419683Y00238935D01*
X00419591Y00238000D01*
X00419683Y00237065D01*
X00419956Y00236166D01*
X00420399Y00235337D01*
X00420995Y00234611D01*
X00421721Y00234015D01*
X00422550Y00233572D01*
X00423449Y00233299D01*
X00424384Y00233207D01*
X00425319Y00233299D01*
X00426218Y00233572D01*
X00427047Y00234015D01*
X00427773Y00234611D01*
X00428369Y00235337D01*
X00428812Y00236166D01*
X00429085Y00237065D01*
X00429177Y00238000D01*
X00429085Y00238935D01*
X00428812Y00239834D01*
X00428369Y00240663D01*
X00427773Y00241389D01*
X00427047Y00241985D01*
X00426218Y00242428D01*
X00425319Y00242701D01*
X00424384Y00242793D01*
D02*
G37*
G36*
X00406384D02*
X00405449Y00242701D01*
X00404550Y00242428D01*
X00403721Y00241985D01*
X00402995Y00241389D01*
X00402399Y00240663D01*
X00401956Y00239834D01*
X00401683Y00238935D01*
X00401591Y00238000D01*
X00401683Y00237065D01*
X00401956Y00236166D01*
X00402399Y00235337D01*
X00402995Y00234611D01*
X00403721Y00234015D01*
X00404550Y00233572D01*
X00405449Y00233299D01*
X00406384Y00233207D01*
X00407319Y00233299D01*
X00408218Y00233572D01*
X00409047Y00234015D01*
X00409773Y00234611D01*
X00410369Y00235337D01*
X00410812Y00236166D01*
X00411085Y00237065D01*
X00411177Y00238000D01*
X00411085Y00238935D01*
X00410812Y00239834D01*
X00410369Y00240663D01*
X00409773Y00241389D01*
X00409047Y00241985D01*
X00408218Y00242428D01*
X00407319Y00242701D01*
X00406384Y00242793D01*
D02*
G37*
G36*
X00350657Y00257976D02*
X00339767D01*
X00339421Y00257930D01*
X00339098Y00257796D01*
X00338822Y00257584D01*
X00338609Y00257307D01*
X00338476Y00256985D01*
X00338430Y00256639D01*
Y00233749D01*
X00338476Y00233403D01*
X00338609Y00233081D01*
X00338822Y00232804D01*
X00339098Y00232592D01*
X00339421Y00232458D01*
X00339767Y00232413D01*
X00350657D01*
X00351002Y00232458D01*
X00351325Y00232592D01*
X00351601Y00232804D01*
X00351814Y00233081D01*
X00351947Y00233403D01*
X00351993Y00233749D01*
Y00256639D01*
X00351947Y00256985D01*
X00351814Y00257307D01*
X00351601Y00257584D01*
X00351325Y00257796D01*
X00351002Y00257930D01*
X00350657Y00257976D01*
D02*
G37*
G36*
X00330845D02*
X00319955D01*
X00319609Y00257930D01*
X00319286Y00257796D01*
X00319010Y00257584D01*
X00318797Y00257307D01*
X00318664Y00256985D01*
X00318618Y00256639D01*
Y00233749D01*
X00318664Y00233403D01*
X00318797Y00233081D01*
X00319010Y00232804D01*
X00319286Y00232592D01*
X00319609Y00232458D01*
X00319955Y00232413D01*
X00330845D01*
X00331190Y00232458D01*
X00331513Y00232592D01*
X00331790Y00232804D01*
X00332002Y00233081D01*
X00332135Y00233403D01*
X00332181Y00233749D01*
Y00256639D01*
X00332135Y00256985D01*
X00332002Y00257307D01*
X00331790Y00257584D01*
X00331513Y00257796D01*
X00331190Y00257930D01*
X00330845Y00257976D01*
D02*
G37*
G36*
X00427831Y00228281D02*
X00423904D01*
Y00221270D01*
X00429165D01*
Y00226947D01*
X00429120Y00227293D01*
X00428987Y00227614D01*
X00428775Y00227891D01*
X00428498Y00228103D01*
X00428177Y00228236D01*
X00427831Y00228281D01*
D02*
G37*
G36*
X00421365D02*
X00417436D01*
X00417091Y00228236D01*
X00416769Y00228103D01*
X00416493Y00227891D01*
X00416281Y00227614D01*
X00416148Y00227293D01*
X00416103Y00226947D01*
Y00221270D01*
X00421365D01*
Y00228281D01*
D02*
G37*
G36*
X00429165Y00218730D02*
X00423904D01*
Y00211719D01*
X00427831D01*
X00428177Y00211764D01*
X00428498Y00211897D01*
X00428775Y00212109D01*
X00428987Y00212386D01*
X00429120Y00212707D01*
X00429165Y00213053D01*
Y00218730D01*
D02*
G37*
G36*
X00421365D02*
X00416103D01*
Y00213053D01*
X00416148Y00212707D01*
X00416281Y00212386D01*
X00416493Y00212109D01*
X00416769Y00211897D01*
X00417091Y00211764D01*
X00417436Y00211719D01*
X00421365D01*
Y00218730D01*
D02*
G37*
G36*
X00383597Y00112259D02*
X00360706D01*
X00360361Y00112214D01*
X00360038Y00112080D01*
X00359762Y00111868D01*
X00359549Y00111591D01*
X00359416Y00111269D01*
X00359370Y00110923D01*
Y00100033D01*
X00359416Y00099687D01*
X00359549Y00099365D01*
X00359762Y00099088D01*
X00360038Y00098876D01*
X00360361Y00098742D01*
X00360706Y00098697D01*
X00383597D01*
X00383942Y00098742D01*
X00384265Y00098876D01*
X00384542Y00099088D01*
X00384754Y00099365D01*
X00384887Y00099687D01*
X00384933Y00100033D01*
Y00110923D01*
X00384887Y00111269D01*
X00384754Y00111591D01*
X00384542Y00111868D01*
X00384265Y00112080D01*
X00383942Y00112214D01*
X00383597Y00112259D01*
D02*
G37*
G36*
X00431066Y00094626D02*
X00430146D01*
Y00090912D01*
X00433860D01*
Y00091832D01*
X00433765Y00092555D01*
X00433486Y00093229D01*
X00433042Y00093808D01*
X00432463Y00094252D01*
X00431789Y00094531D01*
X00431066Y00094626D01*
D02*
G37*
G36*
X00419986D02*
X00419066D01*
X00418343Y00094531D01*
X00417669Y00094252D01*
X00417090Y00093808D01*
X00416646Y00093229D01*
X00416367Y00092555D01*
X00416272Y00091832D01*
Y00090912D01*
X00419986D01*
Y00094626D01*
D02*
G37*
G36*
X00433860Y00080752D02*
X00430146D01*
Y00077038D01*
X00431066D01*
X00431789Y00077133D01*
X00432463Y00077412D01*
X00433042Y00077856D01*
X00433486Y00078435D01*
X00433765Y00079109D01*
X00433860Y00079832D01*
Y00080752D01*
D02*
G37*
G36*
X00419986D02*
X00416272D01*
Y00079832D01*
X00416367Y00079109D01*
X00416646Y00078435D01*
X00417090Y00077856D01*
X00417669Y00077412D01*
X00418343Y00077133D01*
X00419066Y00077038D01*
X00419986D01*
Y00080752D01*
D02*
G37*
G36*
X00137799Y00316257D02*
X00131859D01*
X00131519Y00316213D01*
X00131203Y00316082D01*
X00130931Y00315873D01*
X00130723Y00315602D01*
X00130703Y00315553D01*
X00130311Y00315142D01*
X00129531Y00314746D01*
X00129150Y00314671D01*
X00128934Y00314737D01*
X00128136Y00314816D01*
X00127338Y00314737D01*
X00126571Y00314504D01*
X00126007Y00314203D01*
X00125479Y00314365D01*
X00124610Y00314904D01*
Y00314946D01*
X00124565Y00315285D01*
X00124434Y00315602D01*
X00124226Y00315873D01*
X00123954Y00316082D01*
X00123638Y00316213D01*
X00123299Y00316257D01*
X00117359D01*
X00117019Y00316213D01*
X00116703Y00316082D01*
X00116431Y00315873D01*
X00116223Y00315602D01*
X00116092Y00315285D01*
X00116047Y00314946D01*
Y00306506D01*
X00116092Y00306166D01*
X00116223Y00305850D01*
X00116431Y00305579D01*
X00116703Y00305370D01*
X00117019Y00305239D01*
X00117359Y00305195D01*
X00118407D01*
Y00303237D01*
X00117606D01*
X00117267Y00303193D01*
X00116952Y00303062D01*
X00116681Y00302854D01*
X00116473Y00302583D01*
X00116342Y00302267D01*
X00116297Y00301929D01*
Y00294484D01*
X00116342Y00294145D01*
X00116473Y00293829D01*
X00116681Y00293558D01*
X00116952Y00293350D01*
X00117267Y00293219D01*
X00117606Y00293175D01*
X00119002D01*
Y00290849D01*
X00118740Y00290814D01*
X00118425Y00290684D01*
X00118153Y00290476D01*
X00117945Y00290205D01*
X00117815Y00289889D01*
X00117770Y00289550D01*
Y00284105D01*
X00117815Y00283767D01*
X00117945Y00283451D01*
X00118153Y00283180D01*
X00118425Y00282972D01*
X00118740Y00282841D01*
X00119079Y00282797D01*
X00126524D01*
X00126863Y00282841D01*
X00127178Y00282972D01*
X00127449Y00283180D01*
X00127657Y00283451D01*
X00127788Y00283767D01*
X00127833Y00284105D01*
Y00284907D01*
X00132787D01*
Y00282053D01*
X00132832Y00281714D01*
X00132963Y00281399D01*
X00133170Y00281128D01*
X00133441Y00280920D01*
X00133757Y00280789D01*
X00134095Y00280745D01*
X00139441D01*
X00139780Y00280789D01*
X00140096Y00280920D01*
X00140366Y00281128D01*
X00140574Y00281399D01*
X00140705Y00281714D01*
X00140750Y00282053D01*
Y00289499D01*
X00140705Y00289838D01*
X00140574Y00290153D01*
X00140366Y00290424D01*
X00140096Y00290632D01*
X00139780Y00290763D01*
X00139441Y00290807D01*
X00134095D01*
X00133757Y00290763D01*
X00133441Y00290632D01*
X00133170Y00290424D01*
X00132963Y00290153D01*
X00132832Y00289838D01*
X00132787Y00289499D01*
Y00288749D01*
X00127833D01*
Y00289550D01*
X00127788Y00289889D01*
X00127657Y00290205D01*
X00127449Y00290476D01*
X00127178Y00290684D01*
X00126863Y00290814D01*
X00126524Y00290859D01*
X00122844D01*
Y00293175D01*
X00123051D01*
X00123390Y00293219D01*
X00123705Y00293350D01*
X00123976Y00293558D01*
X00124184Y00293829D01*
X00124315Y00294145D01*
X00124360Y00294484D01*
Y00301929D01*
X00124315Y00302267D01*
X00124184Y00302583D01*
X00123976Y00302854D01*
X00123705Y00303062D01*
X00123390Y00303193D01*
X00123051Y00303237D01*
X00122250D01*
Y00305195D01*
X00123299D01*
X00123638Y00305239D01*
X00123954Y00305370D01*
X00124226Y00305579D01*
X00124434Y00305850D01*
X00124565Y00306166D01*
X00124610Y00306506D01*
Y00306548D01*
X00125479Y00307087D01*
X00126007Y00307249D01*
X00126571Y00306947D01*
X00127338Y00306715D01*
X00128136Y00306636D01*
X00128934Y00306715D01*
X00129150Y00306780D01*
X00129531Y00306706D01*
X00130311Y00306310D01*
X00130703Y00305899D01*
X00130723Y00305850D01*
X00130931Y00305579D01*
X00131203Y00305370D01*
X00131519Y00305239D01*
X00131859Y00305195D01*
X00132907D01*
Y00303237D01*
X00132106D01*
X00131767Y00303193D01*
X00131452Y00303062D01*
X00131181Y00302854D01*
X00130973Y00302583D01*
X00130842Y00302267D01*
X00130797Y00301929D01*
Y00294484D01*
X00130842Y00294145D01*
X00130973Y00293829D01*
X00131181Y00293558D01*
X00131452Y00293350D01*
X00131767Y00293219D01*
X00132106Y00293175D01*
X00137551D01*
X00137890Y00293219D01*
X00138205Y00293350D01*
X00138476Y00293558D01*
X00138685Y00293829D01*
X00138815Y00294145D01*
X00138860Y00294484D01*
Y00301929D01*
X00138815Y00302267D01*
X00138685Y00302583D01*
X00138476Y00302854D01*
X00138205Y00303062D01*
X00137890Y00303193D01*
X00137551Y00303237D01*
X00136750D01*
Y00305195D01*
X00137799D01*
X00138138Y00305239D01*
X00138454Y00305370D01*
X00138726Y00305579D01*
X00138934Y00305850D01*
X00139065Y00306166D01*
X00139110Y00306506D01*
Y00314946D01*
X00139065Y00315285D01*
X00138934Y00315602D01*
X00138726Y00315873D01*
X00138454Y00316082D01*
X00138138Y00316213D01*
X00137799Y00316257D01*
D02*
G37*
G36*
X00311464Y00312426D02*
X00301474D01*
Y00307844D01*
X00312805D01*
Y00311084D01*
X00312759Y00311431D01*
X00312625Y00311755D01*
X00312412Y00312033D01*
X00312134Y00312246D01*
X00311811Y00312380D01*
X00311464Y00312426D01*
D02*
G37*
G36*
X00296073D02*
X00286084D01*
X00285736Y00312380D01*
X00285413Y00312246D01*
X00285135Y00312033D01*
X00284922Y00311755D01*
X00284788Y00311431D01*
X00284742Y00311084D01*
Y00307844D01*
X00296073D01*
Y00312426D01*
D02*
G37*
G36*
X00281961D02*
X00271971D01*
Y00307844D01*
X00283302D01*
Y00311084D01*
X00283257Y00311431D01*
X00283123Y00311755D01*
X00282910Y00312033D01*
X00282632Y00312246D01*
X00282308Y00312380D01*
X00281961Y00312426D01*
D02*
G37*
G36*
X00266571D02*
X00256581D01*
X00256234Y00312380D01*
X00255910Y00312246D01*
X00255632Y00312033D01*
X00255419Y00311755D01*
X00255285Y00311431D01*
X00255240Y00311084D01*
Y00307844D01*
X00266571D01*
Y00312426D01*
D02*
G37*
G36*
X00312805Y00302444D02*
X00301474D01*
Y00297863D01*
X00311464D01*
X00311811Y00297908D01*
X00312134Y00298042D01*
X00312412Y00298256D01*
X00312625Y00298533D01*
X00312759Y00298857D01*
X00312805Y00299204D01*
Y00302444D01*
D02*
G37*
G36*
X00296073D02*
X00284742D01*
Y00299204D01*
X00284788Y00298857D01*
X00284922Y00298533D01*
X00285135Y00298256D01*
X00285413Y00298042D01*
X00285736Y00297908D01*
X00286084Y00297863D01*
X00296073D01*
Y00302444D01*
D02*
G37*
G36*
X00283302D02*
X00271971D01*
Y00297863D01*
X00281961D01*
X00282308Y00297908D01*
X00282632Y00298042D01*
X00282910Y00298256D01*
X00283123Y00298533D01*
X00283257Y00298857D01*
X00283302Y00299204D01*
Y00302444D01*
D02*
G37*
G36*
X00266571D02*
X00255240D01*
Y00299204D01*
X00255285Y00298857D01*
X00255419Y00298533D01*
X00255632Y00298256D01*
X00255910Y00298042D01*
X00256234Y00297908D01*
X00256581Y00297863D01*
X00266571D01*
Y00302444D01*
D02*
G37*
G36*
X00147337Y00316435D02*
X00141892D01*
X00141553Y00316391D01*
X00141237Y00316260D01*
X00140967Y00316052D01*
X00140758Y00315781D01*
X00140628Y00315465D01*
X00140583Y00315126D01*
Y00307682D01*
X00140628Y00307343D01*
X00140758Y00307027D01*
X00140967Y00306756D01*
X00141237Y00306548D01*
X00141553Y00306417D01*
X00141892Y00306373D01*
X00142565D01*
Y00304772D01*
X00141644D01*
X00141305Y00304727D01*
X00140989Y00304596D01*
X00140717Y00304388D01*
X00140509Y00304116D01*
X00140378Y00303800D01*
X00140333Y00303461D01*
Y00295021D01*
X00140378Y00294681D01*
X00140509Y00294365D01*
X00140717Y00294093D01*
X00140989Y00293885D01*
X00141305Y00293754D01*
X00141644Y00293709D01*
X00147584D01*
X00147924Y00293754D01*
X00148240Y00293885D01*
X00148511Y00294093D01*
X00148720Y00294365D01*
X00148851Y00294681D01*
X00148896Y00295021D01*
Y00303461D01*
X00148851Y00303800D01*
X00148720Y00304116D01*
X00148511Y00304388D01*
X00148240Y00304596D01*
X00147924Y00304727D01*
X00147584Y00304772D01*
X00146664D01*
Y00306373D01*
X00147337D01*
X00147676Y00306417D01*
X00147991Y00306548D01*
X00148262Y00306756D01*
X00148470Y00307027D01*
X00148601Y00307343D01*
X00148645Y00307682D01*
Y00315126D01*
X00148601Y00315465D01*
X00148470Y00315781D01*
X00148262Y00316052D01*
X00147991Y00316260D01*
X00147676Y00316391D01*
X00147337Y00316435D01*
D02*
G37*
G36*
X00112674Y00295557D02*
X00102684D01*
Y00290976D01*
X00114016D01*
Y00294216D01*
X00113970Y00294563D01*
X00113836Y00294887D01*
X00113623Y00295165D01*
X00113345Y00295378D01*
X00113021Y00295512D01*
X00112674Y00295557D01*
D02*
G37*
G36*
X00097284D02*
X00087294D01*
X00086947Y00295512D01*
X00086623Y00295378D01*
X00086345Y00295165D01*
X00086132Y00294887D01*
X00085998Y00294563D01*
X00085953Y00294216D01*
Y00290976D01*
X00097284D01*
Y00295557D01*
D02*
G37*
G36*
X00083211D02*
X00073221D01*
Y00290976D01*
X00084552D01*
Y00294216D01*
X00084507Y00294563D01*
X00084373Y00294887D01*
X00084159Y00295165D01*
X00083882Y00295378D01*
X00083558Y00295512D01*
X00083211Y00295557D01*
D02*
G37*
G36*
X00067821D02*
X00057831D01*
X00057484Y00295512D01*
X00057160Y00295378D01*
X00056882Y00295165D01*
X00056669Y00294887D01*
X00056535Y00294563D01*
X00056489Y00294216D01*
Y00290976D01*
X00067821D01*
Y00295557D01*
D02*
G37*
G36*
X00114016Y00285576D02*
X00102684D01*
Y00280994D01*
X00112674D01*
X00113021Y00281040D01*
X00113345Y00281174D01*
X00113623Y00281387D01*
X00113836Y00281665D01*
X00113970Y00281989D01*
X00114016Y00282336D01*
Y00285576D01*
D02*
G37*
G36*
X00097284D02*
X00085953D01*
Y00282336D01*
X00085998Y00281989D01*
X00086132Y00281665D01*
X00086345Y00281387D01*
X00086623Y00281174D01*
X00086947Y00281040D01*
X00087294Y00280994D01*
X00097284D01*
Y00285576D01*
D02*
G37*
G36*
X00084552D02*
X00073221D01*
Y00280994D01*
X00083211D01*
X00083558Y00281040D01*
X00083882Y00281174D01*
X00084159Y00281387D01*
X00084373Y00281665D01*
X00084507Y00281989D01*
X00084552Y00282336D01*
Y00285576D01*
D02*
G37*
G36*
X00067821D02*
X00056489D01*
Y00282336D01*
X00056535Y00281989D01*
X00056669Y00281665D01*
X00056882Y00281387D01*
X00057160Y00281174D01*
X00057484Y00281040D01*
X00057831Y00280994D01*
X00067821D01*
Y00285576D01*
D02*
G37*
G36*
X00162084Y00304772D02*
X00156144D01*
X00155805Y00304727D01*
X00155489Y00304596D01*
X00155217Y00304388D01*
X00155009Y00304116D01*
X00154878Y00303800D01*
X00154833Y00303461D01*
Y00295021D01*
X00154878Y00294681D01*
X00155009Y00294365D01*
X00155204Y00294111D01*
Y00290807D01*
X00153095D01*
X00152757Y00290763D01*
X00152441Y00290632D01*
X00152170Y00290424D01*
X00151962Y00290153D01*
X00151832Y00289838D01*
X00151787Y00289499D01*
Y00282053D01*
X00151832Y00281714D01*
X00151962Y00281399D01*
X00152170Y00281128D01*
X00152441Y00280920D01*
X00152757Y00280789D01*
X00153095Y00280745D01*
X00158441D01*
X00158780Y00280789D01*
X00159095Y00280920D01*
X00159366Y00281128D01*
X00159574Y00281399D01*
X00159705Y00281714D01*
X00159750Y00282053D01*
Y00289499D01*
X00159705Y00289838D01*
X00159574Y00290153D01*
X00159366Y00290424D01*
X00159303Y00290473D01*
Y00293709D01*
X00162084D01*
X00162424Y00293754D01*
X00162740Y00293885D01*
X00163012Y00294093D01*
X00163220Y00294365D01*
X00163351Y00294681D01*
X00163396Y00295021D01*
Y00303461D01*
X00163351Y00303800D01*
X00163220Y00304116D01*
X00163012Y00304388D01*
X00162740Y00304596D01*
X00162424Y00304727D01*
X00162084Y00304772D01*
D02*
G37*
G36*
X00148941Y00290807D02*
X00143595D01*
X00143257Y00290763D01*
X00142941Y00290632D01*
X00142670Y00290424D01*
X00142463Y00290153D01*
X00142332Y00289838D01*
X00142287Y00289499D01*
Y00282053D01*
X00142332Y00281714D01*
X00142463Y00281399D01*
X00142670Y00281128D01*
X00142941Y00280920D01*
X00143257Y00280789D01*
X00143283Y00280786D01*
X00143342Y00279399D01*
X00142879Y00279019D01*
X00142283Y00278293D01*
X00141840Y00277464D01*
X00141567Y00276565D01*
X00141475Y00275630D01*
X00141037Y00275146D01*
X00127820D01*
X00127788Y00275389D01*
X00127657Y00275705D01*
X00127449Y00275976D01*
X00127178Y00276184D01*
X00126863Y00276315D01*
X00126524Y00276359D01*
X00119079D01*
X00118740Y00276315D01*
X00118425Y00276184D01*
X00118153Y00275976D01*
X00117945Y00275705D01*
X00117815Y00275389D01*
X00117770Y00275050D01*
Y00269606D01*
X00117815Y00269267D01*
X00117945Y00268951D01*
X00118153Y00268680D01*
X00118425Y00268472D01*
X00118740Y00268341D01*
X00119079Y00268297D01*
X00126524D01*
X00126863Y00268341D01*
X00127178Y00268472D01*
X00127449Y00268680D01*
X00127657Y00268951D01*
X00127788Y00269267D01*
X00127820Y00269510D01*
X00142966D01*
X00143696Y00269606D01*
X00144375Y00269887D01*
X00144959Y00270335D01*
X00145533Y00270909D01*
X00146268Y00270837D01*
X00147204Y00270929D01*
X00148103Y00271202D01*
X00148931Y00271645D01*
X00149658Y00272241D01*
X00150254Y00272967D01*
X00150697Y00273796D01*
X00150969Y00274695D01*
X00151061Y00275630D01*
X00150969Y00276565D01*
X00150697Y00277464D01*
X00150254Y00278293D01*
X00149658Y00279019D01*
X00149195Y00279399D01*
X00149254Y00280786D01*
X00149280Y00280789D01*
X00149595Y00280920D01*
X00149866Y00281128D01*
X00150074Y00281399D01*
X00150205Y00281714D01*
X00150250Y00282053D01*
Y00289499D01*
X00150205Y00289838D01*
X00150074Y00290153D01*
X00149866Y00290424D01*
X00149595Y00290632D01*
X00149280Y00290763D01*
X00148941Y00290807D01*
D02*
G37*
G36*
X00187704Y00251121D02*
X00181204D01*
Y00247540D01*
X00189035D01*
Y00249790D01*
X00188990Y00250134D01*
X00188857Y00250455D01*
X00188645Y00250731D01*
X00188370Y00250943D01*
X00188048Y00251076D01*
X00187704Y00251121D01*
D02*
G37*
G36*
X00175805D02*
X00169304D01*
X00168959Y00251076D01*
X00168638Y00250943D01*
X00168363Y00250731D01*
X00168151Y00250455D01*
X00168018Y00250134D01*
X00167973Y00249790D01*
Y00247540D01*
X00175805D01*
Y00251121D01*
D02*
G37*
G36*
X00018106Y00252921D02*
X00014866D01*
Y00241589D01*
X00019447D01*
Y00251579D01*
X00019402Y00251927D01*
X00019268Y00252250D01*
X00019055Y00252528D01*
X00018777Y00252741D01*
X00018453Y00252875D01*
X00018106Y00252921D01*
D02*
G37*
G36*
X00009466D02*
X00006226D01*
X00005879Y00252875D01*
X00005555Y00252741D01*
X00005278Y00252528D01*
X00005064Y00252250D01*
X00004930Y00251927D01*
X00004884Y00251579D01*
Y00241589D01*
X00009466D01*
Y00252921D01*
D02*
G37*
G36*
X00189035Y00242140D02*
X00181204D01*
Y00238559D01*
X00187704D01*
X00188048Y00238604D01*
X00188370Y00238737D01*
X00188645Y00238948D01*
X00188857Y00239224D01*
X00188990Y00239545D01*
X00189035Y00239890D01*
Y00242140D01*
D02*
G37*
G36*
X00175805D02*
X00167973D01*
Y00239890D01*
X00168018Y00239545D01*
X00168151Y00239224D01*
X00168363Y00238948D01*
X00168638Y00238737D01*
X00168959Y00238604D01*
X00169304Y00238559D01*
X00175805D01*
Y00242140D01*
D02*
G37*
G36*
X00200807Y00236915D02*
X00198354D01*
Y00234153D01*
X00202115D01*
Y00235606D01*
X00202071Y00235945D01*
X00201940Y00236261D01*
X00201732Y00236532D01*
X00201461Y00236740D01*
X00201145Y00236871D01*
X00200807Y00236915D01*
D02*
G37*
G36*
X00195814D02*
X00193361D01*
X00193023Y00236871D01*
X00192707Y00236740D01*
X00192436Y00236532D01*
X00192228Y00236261D01*
X00192097Y00235945D01*
X00192053Y00235606D01*
Y00234153D01*
X00195814D01*
Y00236915D01*
D02*
G37*
G36*
X00250581Y00257976D02*
X00239691D01*
X00239345Y00257930D01*
X00239022Y00257796D01*
X00238746Y00257584D01*
X00238533Y00257307D01*
X00238400Y00256985D01*
X00238354Y00256639D01*
Y00233749D01*
X00238400Y00233403D01*
X00238533Y00233081D01*
X00238746Y00232804D01*
X00239022Y00232592D01*
X00239345Y00232458D01*
X00239691Y00232413D01*
X00250581D01*
X00250926Y00232458D01*
X00251249Y00232592D01*
X00251525Y00232804D01*
X00251738Y00233081D01*
X00251871Y00233403D01*
X00251917Y00233749D01*
Y00256639D01*
X00251871Y00256985D01*
X00251738Y00257307D01*
X00251525Y00257584D01*
X00251249Y00257796D01*
X00250926Y00257930D01*
X00250581Y00257976D01*
D02*
G37*
G36*
X00202115Y00231614D02*
X00198354D01*
Y00228853D01*
X00200807D01*
X00201145Y00228897D01*
X00201461Y00229028D01*
X00201732Y00229236D01*
X00201940Y00229507D01*
X00202071Y00229823D01*
X00202115Y00230162D01*
Y00231614D01*
D02*
G37*
G36*
X00195814D02*
X00192053D01*
Y00230162D01*
X00192097Y00229823D01*
X00192228Y00229507D01*
X00192436Y00229236D01*
X00192707Y00229028D01*
X00193023Y00228897D01*
X00193361Y00228853D01*
X00195814D01*
Y00231614D01*
D02*
G37*
G36*
X00229387Y00232401D02*
X00220641D01*
Y00228319D01*
X00230723D01*
Y00231065D01*
X00230677Y00231411D01*
X00230544Y00231733D01*
X00230331Y00232010D01*
X00230055Y00232222D01*
X00229732Y00232356D01*
X00229387Y00232401D01*
D02*
G37*
G36*
X00215242D02*
X00206497D01*
X00206151Y00232356D01*
X00205828Y00232222D01*
X00205552Y00232010D01*
X00205339Y00231733D01*
X00205206Y00231411D01*
X00205160Y00231065D01*
Y00228319D01*
X00215242D01*
Y00232401D01*
D02*
G37*
G36*
X00019447Y00236189D02*
X00014866D01*
Y00224858D01*
X00018106D01*
X00018453Y00224904D01*
X00018777Y00225038D01*
X00019055Y00225251D01*
X00019268Y00225529D01*
X00019402Y00225852D01*
X00019447Y00226199D01*
Y00236189D01*
D02*
G37*
G36*
X00009466D02*
X00004884D01*
Y00226199D01*
X00004930Y00225852D01*
X00005064Y00225529D01*
X00005278Y00225251D01*
X00005555Y00225038D01*
X00005879Y00224904D01*
X00006226Y00224858D01*
X00009466D01*
Y00236189D01*
D02*
G37*
G36*
X00230723Y00222920D02*
X00220641D01*
Y00218839D01*
X00229387D01*
X00229732Y00218884D01*
X00230055Y00219018D01*
X00230331Y00219230D01*
X00230544Y00219507D01*
X00230677Y00219829D01*
X00230723Y00220175D01*
Y00222920D01*
D02*
G37*
G36*
X00215242D02*
X00205160D01*
Y00220175D01*
X00205206Y00219829D01*
X00205339Y00219507D01*
X00205552Y00219230D01*
X00205828Y00219018D01*
X00206151Y00218884D01*
X00206497Y00218839D01*
X00215242D01*
Y00222920D01*
D02*
G37*
G36*
X00189304Y00222415D02*
X00181859D01*
X00181520Y00222371D01*
X00181205Y00222240D01*
X00180934Y00222032D01*
X00180726Y00221761D01*
X00180595Y00221445D01*
X00180550Y00221106D01*
Y00215662D01*
X00180595Y00215323D01*
X00180726Y00215007D01*
X00180934Y00214736D01*
X00181119Y00214594D01*
X00181137Y00214521D01*
X00181163Y00214016D01*
X00181059Y00213107D01*
X00180858Y00212953D01*
X00180650Y00212682D01*
X00180519Y00212366D01*
X00180475Y00212027D01*
Y00204082D01*
X00180519Y00203744D01*
X00180650Y00203428D01*
X00180858Y00203157D01*
X00181129Y00202949D01*
X00181445Y00202818D01*
X00181784Y00202774D01*
X00187229D01*
X00187567Y00202818D01*
X00187883Y00202949D01*
X00188154Y00203157D01*
X00188362Y00203428D01*
X00188493Y00203744D01*
X00188537Y00204082D01*
Y00212027D01*
X00188493Y00212366D01*
X00188362Y00212682D01*
X00188154Y00212953D01*
X00188150Y00212956D01*
X00188366Y00214070D01*
X00188516Y00214353D01*
X00189304D01*
X00189643Y00214398D01*
X00189958Y00214528D01*
X00190229Y00214736D01*
X00190437Y00215007D01*
X00190568Y00215323D01*
X00190613Y00215662D01*
Y00221106D01*
X00190568Y00221445D01*
X00190437Y00221761D01*
X00190229Y00222032D01*
X00189958Y00222240D01*
X00189643Y00222371D01*
X00189304Y00222415D01*
D02*
G37*
G36*
X00200807D02*
X00193361D01*
X00193023Y00222371D01*
X00192707Y00222240D01*
X00192436Y00222032D01*
X00192228Y00221761D01*
X00192097Y00221445D01*
X00192053Y00221106D01*
Y00215662D01*
X00192097Y00215323D01*
X00192228Y00215007D01*
X00192436Y00214736D01*
X00192707Y00214528D01*
X00193023Y00214398D01*
X00193361Y00214353D01*
X00195163D01*
Y00206453D01*
X00195163Y00206452D01*
X00195228Y00205955D01*
X00195420Y00205492D01*
X00195725Y00205094D01*
X00196624Y00204195D01*
X00196624Y00204195D01*
X00197022Y00203890D01*
X00197485Y00203698D01*
X00197982Y00203633D01*
X00205160D01*
Y00200109D01*
X00205206Y00199763D01*
X00205339Y00199441D01*
X00205552Y00199164D01*
X00205828Y00198952D01*
X00206151Y00198818D01*
X00206497Y00198773D01*
X00229387D01*
X00229732Y00198818D01*
X00230055Y00198952D01*
X00230331Y00199164D01*
X00230544Y00199441D01*
X00230677Y00199763D01*
X00230723Y00200109D01*
Y00210999D01*
X00230677Y00211345D01*
X00230544Y00211667D01*
X00230331Y00211944D01*
X00230055Y00212156D01*
X00229732Y00212290D01*
X00229387Y00212335D01*
X00206497D01*
X00206151Y00212290D01*
X00205828Y00212156D01*
X00205552Y00211944D01*
X00205339Y00211667D01*
X00205206Y00211345D01*
X00205160Y00210999D01*
Y00207475D01*
X00199005D01*
Y00214353D01*
X00200807D01*
X00201145Y00214398D01*
X00201461Y00214528D01*
X00201732Y00214736D01*
X00201940Y00215007D01*
X00202071Y00215323D01*
X00202115Y00215662D01*
Y00221106D01*
X00202071Y00221445D01*
X00201940Y00221761D01*
X00201732Y00222032D01*
X00201461Y00222240D01*
X00201145Y00222371D01*
X00200807Y00222415D01*
D02*
G37*
G36*
X00196728Y00191336D02*
X00195276D01*
Y00187325D01*
X00198037D01*
Y00190027D01*
X00197993Y00190366D01*
X00197862Y00190682D01*
X00197654Y00190953D01*
X00197383Y00191161D01*
X00197067Y00191292D01*
X00196728Y00191336D01*
D02*
G37*
G36*
X00192736D02*
X00191283D01*
X00190945Y00191292D01*
X00190629Y00191161D01*
X00190358Y00190953D01*
X00190150Y00190682D01*
X00190019Y00190366D01*
X00189975Y00190027D01*
Y00187325D01*
X00192736D01*
Y00191336D01*
D02*
G37*
G36*
X00198037Y00184785D02*
X00195276D01*
Y00180774D01*
X00196728D01*
X00197067Y00180818D01*
X00197383Y00180949D01*
X00197654Y00181157D01*
X00197862Y00181428D01*
X00197993Y00181744D01*
X00198037Y00182082D01*
Y00184785D01*
D02*
G37*
G36*
X00192736D02*
X00189975D01*
Y00182082D01*
X00190019Y00181744D01*
X00190150Y00181428D01*
X00190358Y00181157D01*
X00190629Y00180949D01*
X00190945Y00180818D01*
X00191283Y00180774D01*
X00192736D01*
Y00184785D01*
D02*
G37*
G36*
X00202522Y00153769D02*
X00197077D01*
X00196739Y00153724D01*
X00196423Y00153593D01*
X00196152Y00153385D01*
X00195944Y00153114D01*
X00195813Y00152799D01*
X00195769Y00152460D01*
Y00145015D01*
X00195813Y00144676D01*
X00195944Y00144361D01*
X00196152Y00144090D01*
X00196423Y00143882D01*
X00196739Y00143751D01*
X00197077Y00143706D01*
X00202522D01*
X00202861Y00143751D01*
X00203177Y00143882D01*
X00203448Y00144090D01*
X00203656Y00144361D01*
X00203786Y00144676D01*
X00203831Y00145015D01*
Y00146816D01*
X00205414D01*
Y00140165D01*
X00205460Y00139819D01*
X00205593Y00139497D01*
X00205806Y00139220D01*
X00206082Y00139008D01*
X00206405Y00138874D01*
X00206751Y00138829D01*
X00229641D01*
X00229986Y00138874D01*
X00230309Y00139008D01*
X00230585Y00139220D01*
X00230798Y00139497D01*
X00230931Y00139819D01*
X00230977Y00140165D01*
Y00151055D01*
X00230931Y00151401D01*
X00230798Y00151723D01*
X00230585Y00152000D01*
X00230309Y00152212D01*
X00229986Y00152346D01*
X00229641Y00152391D01*
X00206751D01*
X00206405Y00152346D01*
X00206082Y00152212D01*
X00205806Y00152000D01*
X00205593Y00151723D01*
X00205460Y00151401D01*
X00205414Y00151055D01*
Y00150659D01*
X00203831D01*
Y00152460D01*
X00203786Y00152799D01*
X00203656Y00153114D01*
X00203448Y00153385D01*
X00203177Y00153593D01*
X00202861Y00153724D01*
X00202522Y00153769D01*
D02*
G37*
G36*
X00177966Y00139793D02*
X00175515D01*
Y00137032D01*
X00179275D01*
Y00138484D01*
X00179231Y00138823D01*
X00179100Y00139138D01*
X00178892Y00139409D01*
X00178621Y00139617D01*
X00178305Y00139748D01*
X00177966Y00139793D01*
D02*
G37*
G36*
X00172975D02*
X00170522D01*
X00170183Y00139748D01*
X00169867Y00139617D01*
X00169596Y00139409D01*
X00169388Y00139138D01*
X00169257Y00138823D01*
X00169213Y00138484D01*
Y00137032D01*
X00172975D01*
Y00139793D01*
D02*
G37*
G36*
X00179275Y00134492D02*
X00175515D01*
Y00131730D01*
X00177966D01*
X00178305Y00131775D01*
X00178621Y00131906D01*
X00178892Y00132114D01*
X00179100Y00132385D01*
X00179231Y00132700D01*
X00179275Y00133039D01*
Y00134492D01*
D02*
G37*
G36*
X00172975D02*
X00169213D01*
Y00133039D01*
X00169257Y00132700D01*
X00169388Y00132385D01*
X00169596Y00132114D01*
X00169867Y00131906D01*
X00170183Y00131775D01*
X00170522Y00131730D01*
X00172975D01*
Y00134492D01*
D02*
G37*
G36*
X00202522Y00142205D02*
X00197077D01*
X00196739Y00142161D01*
X00196423Y00142030D01*
X00196152Y00141822D01*
X00195944Y00141551D01*
X00195813Y00141236D01*
X00195769Y00140897D01*
Y00133452D01*
X00195813Y00133113D01*
X00195944Y00132797D01*
X00196152Y00132526D01*
X00196423Y00132318D01*
X00196739Y00132188D01*
X00197077Y00132143D01*
X00199795D01*
Y00125798D01*
Y00102723D01*
X00189582D01*
X00189582Y00102723D01*
X00189085Y00102657D01*
X00188621Y00102465D01*
X00188223Y00102160D01*
X00188223Y00102160D01*
X00187297Y00101234D01*
X00186992Y00100836D01*
X00186800Y00100373D01*
X00186735Y00099875D01*
X00186735Y00099875D01*
Y00086994D01*
X00186510Y00086810D01*
X00186197Y00086428D01*
X00185639Y00086350D01*
X00185173D01*
X00184615Y00086428D01*
X00184302Y00086810D01*
X00183842Y00087187D01*
X00183317Y00087468D01*
X00182748Y00087640D01*
X00182156Y00087699D01*
X00181564Y00087640D01*
X00180995Y00087468D01*
X00180470Y00087187D01*
X00180010Y00086810D01*
X00179697Y00086428D01*
X00179139Y00086350D01*
X00178673D01*
X00178115Y00086428D01*
X00177802Y00086810D01*
X00177342Y00087187D01*
X00176817Y00087468D01*
X00176248Y00087640D01*
X00175656Y00087699D01*
X00175064Y00087640D01*
X00174495Y00087468D01*
X00173970Y00087187D01*
X00173510Y00086810D01*
X00173133Y00086350D01*
X00172852Y00085825D01*
X00172680Y00085256D01*
X00172621Y00084664D01*
Y00076664D01*
X00172680Y00076072D01*
X00172852Y00075503D01*
X00173133Y00074978D01*
X00173510Y00074518D01*
X00173970Y00074141D01*
X00174495Y00073860D01*
X00175064Y00073688D01*
X00175656Y00073629D01*
X00176248Y00073688D01*
X00176817Y00073860D01*
X00177342Y00074141D01*
X00177802Y00074518D01*
X00178115Y00074900D01*
X00178673Y00074978D01*
X00179104D01*
X00180235Y00074250D01*
Y00067357D01*
X00180235Y00067357D01*
X00180300Y00066860D01*
X00180492Y00066396D01*
X00180797Y00065999D01*
X00181696Y00065100D01*
X00181696Y00065100D01*
X00182094Y00064795D01*
X00182557Y00064603D01*
X00182875Y00064561D01*
Y00062239D01*
X00182919Y00061899D01*
X00183050Y00061583D01*
X00183259Y00061311D01*
X00183530Y00061103D01*
X00183846Y00060972D01*
X00184186Y00060927D01*
X00190126D01*
X00190465Y00060972D01*
X00190781Y00061103D01*
X00191053Y00061311D01*
X00191262Y00061583D01*
X00191392Y00061899D01*
X00191437Y00062239D01*
Y00064537D01*
X00198719D01*
Y00056251D01*
X00197658D01*
X00197155Y00056151D01*
X00196729Y00055867D01*
X00196445Y00055441D01*
X00196345Y00054939D01*
Y00051474D01*
X00196445Y00050971D01*
X00196729Y00050545D01*
X00197155Y00050261D01*
X00197658Y00050161D01*
X00203622D01*
X00204125Y00050261D01*
X00204551Y00050545D01*
X00204835Y00050971D01*
X00204935Y00051474D01*
Y00054939D01*
X00204835Y00055441D01*
X00204551Y00055867D01*
X00204125Y00056151D01*
X00203622Y00056251D01*
X00202561D01*
Y00065480D01*
X00202561Y00065480D01*
X00202496Y00065978D01*
X00202304Y00066441D01*
X00201999Y00066839D01*
X00201999Y00066839D01*
X00201020Y00067817D01*
X00200623Y00068123D01*
X00200159Y00068314D01*
X00199662Y00068380D01*
X00199662Y00068380D01*
X00191437D01*
Y00070679D01*
X00191392Y00071018D01*
X00191262Y00071334D01*
X00191053Y00071606D01*
X00190781Y00071814D01*
X00190465Y00071945D01*
X00190126Y00071990D01*
X00184186D01*
X00184077Y00072085D01*
Y00074334D01*
X00184302Y00074518D01*
X00184615Y00074900D01*
X00185173Y00074978D01*
X00185639D01*
X00186197Y00074900D01*
X00186510Y00074518D01*
X00186970Y00074141D01*
X00187495Y00073860D01*
X00188064Y00073688D01*
X00188656Y00073629D01*
X00189248Y00073688D01*
X00189817Y00073860D01*
X00190342Y00074141D01*
X00190802Y00074518D01*
X00191115Y00074900D01*
X00191673Y00074978D01*
X00192139D01*
X00192697Y00074900D01*
X00193010Y00074518D01*
X00193470Y00074141D01*
X00193886Y00073918D01*
Y00080664D01*
Y00087410D01*
X00193470Y00087187D01*
X00193010Y00086810D01*
X00192697Y00086428D01*
X00192139Y00086350D01*
X00191708D01*
X00190577Y00087078D01*
Y00098880D01*
X00200797D01*
X00200797Y00098880D01*
X00201294Y00098945D01*
X00201758Y00099137D01*
X00202156Y00099443D01*
X00203076Y00100363D01*
X00203076Y00100363D01*
X00203381Y00100761D01*
X00203573Y00101224D01*
X00203638Y00101721D01*
Y00123877D01*
X00205414D01*
Y00120353D01*
X00205460Y00120007D01*
X00205593Y00119685D01*
X00205806Y00119408D01*
X00206082Y00119196D01*
X00206405Y00119062D01*
X00206751Y00119017D01*
X00229641D01*
X00229986Y00119062D01*
X00230309Y00119196D01*
X00230585Y00119408D01*
X00230798Y00119685D01*
X00230931Y00120007D01*
X00230977Y00120353D01*
Y00131243D01*
X00230931Y00131589D01*
X00230798Y00131911D01*
X00230585Y00132188D01*
X00230309Y00132400D01*
X00229986Y00132534D01*
X00229641Y00132579D01*
X00206751D01*
X00206405Y00132534D01*
X00206082Y00132400D01*
X00205806Y00132188D01*
X00205593Y00131911D01*
X00205460Y00131589D01*
X00205414Y00131243D01*
Y00127719D01*
X00203638D01*
Y00132775D01*
X00203656Y00132797D01*
X00203786Y00133113D01*
X00203831Y00133452D01*
Y00140897D01*
X00203786Y00141236D01*
X00203656Y00141551D01*
X00203448Y00141822D01*
X00203177Y00142030D01*
X00202861Y00142161D01*
X00202522Y00142205D01*
D02*
G37*
G36*
X00196426Y00087409D02*
Y00081934D01*
X00198191D01*
Y00084664D01*
X00198132Y00085256D01*
X00197960Y00085825D01*
X00197679Y00086350D01*
X00197302Y00086810D01*
X00196842Y00087187D01*
X00196426Y00087409D01*
D02*
G37*
G36*
X00198191Y00079394D02*
X00196426D01*
Y00073919D01*
X00196842Y00074141D01*
X00197302Y00074518D01*
X00197679Y00074978D01*
X00197960Y00075503D01*
X00198132Y00076072D01*
X00198191Y00076664D01*
Y00079394D01*
D02*
G37*
G36*
X00175626Y00071990D02*
X00173927D01*
Y00067729D01*
X00176937D01*
Y00070679D01*
X00176892Y00071018D01*
X00176761Y00071334D01*
X00176553Y00071606D01*
X00176282Y00071814D01*
X00175965Y00071945D01*
X00175626Y00071990D01*
D02*
G37*
G36*
X00171387D02*
X00169686D01*
X00169347Y00071945D01*
X00169030Y00071814D01*
X00168759Y00071606D01*
X00168550Y00071334D01*
X00168419Y00071018D01*
X00168375Y00070679D01*
Y00067729D01*
X00171387D01*
Y00071990D01*
D02*
G37*
G36*
X00176937Y00065189D02*
X00173927D01*
Y00060927D01*
X00175626D01*
X00175965Y00060972D01*
X00176282Y00061103D01*
X00176553Y00061311D01*
X00176761Y00061583D01*
X00176892Y00061899D01*
X00176937Y00062239D01*
Y00065189D01*
D02*
G37*
G36*
X00171387D02*
X00168375D01*
Y00062239D01*
X00168419Y00061899D01*
X00168550Y00061583D01*
X00168759Y00061311D01*
X00169030Y00061103D01*
X00169347Y00060972D01*
X00169686Y00060927D01*
X00171387D01*
Y00065189D01*
D02*
G37*
G36*
X00184123Y00056251D02*
X00182410D01*
Y00054476D01*
X00185435D01*
Y00054939D01*
X00185335Y00055441D01*
X00185051Y00055867D01*
X00184625Y00056151D01*
X00184123Y00056251D01*
D02*
G37*
G36*
X00179870D02*
X00178158D01*
X00177655Y00056151D01*
X00177229Y00055867D01*
X00176945Y00055441D01*
X00176845Y00054939D01*
Y00054476D01*
X00179870D01*
Y00056251D01*
D02*
G37*
G36*
X00185435Y00038936D02*
X00182410D01*
Y00037161D01*
X00184123D01*
X00184625Y00037261D01*
X00185051Y00037545D01*
X00185335Y00037971D01*
X00185435Y00038474D01*
Y00038936D01*
D02*
G37*
G36*
X00179870D02*
X00176845D01*
Y00038474D01*
X00176945Y00037971D01*
X00177229Y00037545D01*
X00177655Y00037261D01*
X00178158Y00037161D01*
X00179870D01*
Y00038936D01*
D02*
G37*
G36*
X00137140Y00029287D02*
Y00023084D01*
X00143343D01*
X00143272Y00023988D01*
X00143042Y00024948D01*
X00142664Y00025859D01*
X00142148Y00026701D01*
X00141507Y00027451D01*
X00140757Y00028092D01*
X00139915Y00028608D01*
X00139004Y00028986D01*
X00138044Y00029216D01*
X00137140Y00029287D01*
D02*
G37*
G36*
X00126980D02*
X00126076Y00029216D01*
X00125117Y00028986D01*
X00124205Y00028608D01*
X00123363Y00028092D01*
X00122613Y00027451D01*
X00121972Y00026701D01*
X00121456Y00025859D01*
X00121078Y00024948D01*
X00120848Y00023988D01*
X00120777Y00023084D01*
X00126980D01*
Y00029287D01*
D02*
G37*
G36*
X00163048Y00029033D02*
Y00022830D01*
X00169251D01*
X00169180Y00023734D01*
X00168950Y00024694D01*
X00168572Y00025605D01*
X00168056Y00026447D01*
X00167415Y00027197D01*
X00166665Y00027838D01*
X00165823Y00028354D01*
X00164912Y00028732D01*
X00163952Y00028962D01*
X00163048Y00029033D01*
D02*
G37*
G36*
X00152888D02*
X00151984Y00028962D01*
X00151025Y00028732D01*
X00150113Y00028354D01*
X00149271Y00027838D01*
X00148521Y00027197D01*
X00147880Y00026447D01*
X00147364Y00025605D01*
X00146986Y00024694D01*
X00146756Y00023734D01*
X00146685Y00022830D01*
X00152888D01*
Y00029033D01*
D02*
G37*
G36*
X00143343Y00012924D02*
X00137140D01*
Y00006721D01*
X00138044Y00006792D01*
X00139004Y00007023D01*
X00139915Y00007400D01*
X00140757Y00007916D01*
X00141507Y00008557D01*
X00142148Y00009307D01*
X00142664Y00010149D01*
X00143042Y00011061D01*
X00143272Y00012020D01*
X00143343Y00012924D01*
D02*
G37*
G36*
X00126980D02*
X00120777D01*
X00120848Y00012020D01*
X00121078Y00011061D01*
X00121456Y00010149D01*
X00121972Y00009307D01*
X00122613Y00008557D01*
X00123363Y00007916D01*
X00124205Y00007400D01*
X00125117Y00007023D01*
X00126076Y00006792D01*
X00126980Y00006721D01*
Y00012924D01*
D02*
G37*
G36*
X00169251Y00012670D02*
X00163048D01*
Y00006467D01*
X00163952Y00006538D01*
X00164912Y00006769D01*
X00165823Y00007146D01*
X00166665Y00007662D01*
X00167415Y00008303D01*
X00168056Y00009053D01*
X00168572Y00009895D01*
X00168950Y00010806D01*
X00169180Y00011766D01*
X00169251Y00012670D01*
D02*
G37*
G36*
X00152888D02*
X00146685D01*
X00146756Y00011766D01*
X00146986Y00010806D01*
X00147364Y00009895D01*
X00147880Y00009053D01*
X00148521Y00008303D01*
X00149271Y00007662D01*
X00150113Y00007146D01*
X00151025Y00006769D01*
X00151984Y00006538D01*
X00152888Y00006467D01*
Y00012670D01*
D02*
G37*
G36*
X00203622Y00043251D02*
X00197658D01*
X00197155Y00043151D01*
X00196729Y00042867D01*
X00196445Y00042441D01*
X00196345Y00041939D01*
Y00038474D01*
X00196445Y00037971D01*
X00196729Y00037545D01*
X00197155Y00037261D01*
X00197658Y00037161D01*
X00198719D01*
Y00028779D01*
X00198232Y00028663D01*
X00197102Y00028195D01*
X00196059Y00027556D01*
X00195129Y00026761D01*
X00194335Y00025831D01*
X00193696Y00024788D01*
X00193228Y00023659D01*
X00192942Y00022469D01*
X00192846Y00021250D01*
Y00014250D01*
X00192942Y00013031D01*
X00193228Y00011842D01*
X00193696Y00010712D01*
X00194335Y00009669D01*
X00195129Y00008739D01*
X00196059Y00007944D01*
X00197102Y00007305D01*
X00198232Y00006837D01*
X00199421Y00006552D01*
X00200640Y00006456D01*
X00201859Y00006552D01*
X00203048Y00006837D01*
X00204178Y00007305D01*
X00205221Y00007944D01*
X00206151Y00008739D01*
X00206945Y00009669D01*
X00207584Y00010712D01*
X00208053Y00011842D01*
X00208338Y00013031D01*
X00208434Y00014250D01*
Y00021250D01*
X00208338Y00022469D01*
X00208053Y00023659D01*
X00207584Y00024788D01*
X00206945Y00025831D01*
X00206151Y00026761D01*
X00205221Y00027556D01*
X00204178Y00028195D01*
X00203048Y00028663D01*
X00202561Y00028779D01*
Y00037161D01*
X00203622D01*
X00204125Y00037261D01*
X00204551Y00037545D01*
X00204835Y00037971D01*
X00204935Y00038474D01*
Y00041939D01*
X00204835Y00042441D01*
X00204551Y00042867D01*
X00204125Y00043151D01*
X00203622Y00043251D01*
D02*
G37*
G36*
X00180524Y00029044D02*
X00179305Y00028948D01*
X00178116Y00028663D01*
X00176986Y00028195D01*
X00175943Y00027556D01*
X00175013Y00026761D01*
X00174219Y00025831D01*
X00173580Y00024788D01*
X00173111Y00023659D01*
X00172826Y00022469D01*
X00172730Y00021250D01*
Y00014250D01*
X00172826Y00013031D01*
X00173111Y00011842D01*
X00173580Y00010712D01*
X00174219Y00009669D01*
X00175013Y00008739D01*
X00175943Y00007944D01*
X00176986Y00007305D01*
X00178116Y00006837D01*
X00179305Y00006552D01*
X00180524Y00006456D01*
X00181743Y00006552D01*
X00182932Y00006837D01*
X00184062Y00007305D01*
X00185105Y00007944D01*
X00186035Y00008739D01*
X00186829Y00009669D01*
X00187468Y00010712D01*
X00187937Y00011842D01*
X00188222Y00013031D01*
X00188318Y00014250D01*
Y00021250D01*
X00188222Y00022469D01*
X00187937Y00023659D01*
X00187468Y00024788D01*
X00186829Y00025831D01*
X00186035Y00026761D01*
X00185105Y00027556D01*
X00184062Y00028195D01*
X00182932Y00028663D01*
X00181743Y00028948D01*
X00180524Y00029044D01*
D02*
G37*
G36*
X00290713Y00257976D02*
X00279823D01*
X00279477Y00257930D01*
X00279154Y00257796D01*
X00278878Y00257584D01*
X00278665Y00257307D01*
X00278532Y00256985D01*
X00278486Y00256639D01*
Y00233749D01*
X00278532Y00233403D01*
X00278665Y00233081D01*
X00278878Y00232804D01*
X00279154Y00232592D01*
X00279477Y00232458D01*
X00279823Y00232413D01*
X00290713D01*
X00291058Y00232458D01*
X00291381Y00232592D01*
X00291658Y00232804D01*
X00291870Y00233081D01*
X00292003Y00233403D01*
X00292049Y00233749D01*
Y00256639D01*
X00292003Y00256985D01*
X00291870Y00257307D01*
X00291658Y00257584D01*
X00291381Y00257796D01*
X00291058Y00257930D01*
X00290713Y00257976D01*
D02*
G37*
%LPD*%
D13*
X00318568Y00306818D02*
X00323214D01*
Y00307818D01*
X00298773Y00283155D02*
X00309743D01*
X00316735Y00290147D02*
Y00306818D01*
X00309743Y00283155D02*
X00316735Y00290147D01*
X00318568Y00310726D02*
Y00310980D01*
Y00306818D02*
Y00310726D01*
X00316735Y00306818D02*
X00318568D01*
X00298773Y00276644D02*
Y00283155D01*
D14*
X00410341Y00060432D02*
G03*
X00389174Y00062402I-00010675J00000000D01*
G01*
X00399666Y00073647D02*
G03*
X00387213Y00064942I00000000J-00013260D01*
G01*
X00200036Y00163391D02*
X00218196D01*
Y00165676D01*
X00200036Y00160274D02*
Y00163391D01*
X00197982Y00205554D02*
X00217942D01*
X00197084Y00206452D02*
Y00218384D01*
Y00206452D02*
X00197982Y00205554D01*
X00202779Y00180882D02*
X00217942D01*
X00201899Y00171958D02*
Y00180001D01*
X00202779Y00180882D01*
X00199782Y00171958D02*
X00201899D01*
X00235581Y00173081D02*
X00236512Y00174012D01*
Y00187267D01*
X00276317Y00227072D01*
X00205939Y00173081D02*
X00235581D01*
X00330081Y00271818D02*
Y00288753D01*
X00323214Y00271818D02*
X00330081D01*
X00334465Y00293137D02*
X00358464D01*
X00351076Y00271818D02*
Y00283741D01*
X00344214Y00271818D02*
X00351076D01*
X00344214Y00307746D02*
X00358464D01*
X00344214D02*
Y00307818D01*
X00330081Y00288753D02*
X00334465Y00293137D01*
X00358464D02*
Y00296244D01*
X00160903Y00256283D02*
X00163902D01*
X00159242Y00254621D02*
X00160903Y00256283D01*
X00147173Y00254621D02*
X00159242D01*
X00146268Y00255526D02*
X00147173Y00254621D01*
X00146268Y00255526D02*
Y00260276D01*
X00165497Y00225979D02*
X00166402Y00226884D01*
X00165497Y00218384D02*
Y00225979D01*
Y00124053D02*
Y00218384D01*
X00174079D01*
X00210669Y00078261D02*
X00213027Y00075903D01*
Y00063310D02*
Y00075903D01*
X00205939Y00078261D02*
X00210669D01*
X00181140Y00046706D02*
X00209615D01*
X00210487Y00047578D02*
Y00058318D01*
X00209615Y00046706D02*
X00210487Y00047578D01*
X00215567Y00065865D02*
Y00085666D01*
X00216490Y00064942D02*
X00387213D01*
X00215567Y00065865D02*
X00216490Y00064942D01*
X00213935Y00062402D02*
X00389174D01*
X00213027Y00063310D02*
X00213935Y00062402D01*
X00210487Y00058318D02*
X00212030Y00059862D01*
X00210487Y00061406D02*
Y00074851D01*
Y00061406D02*
X00212030Y00059862D01*
X00397572D01*
X00187156Y00066459D02*
X00199662D01*
X00200640Y00053206D02*
Y00065480D01*
X00199662Y00066459D02*
X00200640Y00065480D01*
X00397572Y00059862D02*
X00398142Y00060432D01*
X00209617Y00075721D02*
X00210487Y00074851D01*
X00204887Y00075721D02*
X00209617D01*
X00207328Y00096559D02*
Y00105478D01*
X00200640Y00017750D02*
Y00040206D01*
X00202250Y00078357D02*
X00204887Y00075721D01*
X00183055Y00066459D02*
X00187156D01*
X00182156Y00067357D02*
X00183055Y00066459D01*
X00187156D02*
X00187156Y00066459D01*
X00182156Y00067357D02*
Y00080664D01*
X00120329Y00298206D02*
Y00310726D01*
X00202250Y00078357D02*
Y00093031D01*
X00204790Y00167047D02*
Y00171933D01*
X00205939Y00173081D01*
X00185282Y00166153D02*
X00203897D01*
X00204790Y00167047D01*
X00217942Y00180882D02*
Y00185742D01*
X00166386Y00123164D02*
X00175656D01*
X00165497Y00124053D02*
X00166386Y00123164D01*
X00372152Y00085666D02*
Y00090531D01*
X00359771Y00090531D02*
X00372151D01*
X00372152Y00090531D01*
X00085597Y00169395D02*
Y00238857D01*
X00064728Y00097717D02*
X00084699D01*
X00085597Y00098614D02*
Y00167567D01*
X00084699Y00097717D02*
X00085597Y00098614D01*
X00185282Y00166153D02*
Y00171958D01*
Y00160274D02*
Y00166153D01*
X00120329Y00298206D02*
X00120923D01*
Y00286828D02*
Y00298206D01*
X00085597Y00240650D02*
Y00246577D01*
X00088069Y00249049D02*
X00161406D01*
X00085597Y00246577D02*
X00088069Y00249049D01*
X00084700Y00239753D02*
X00085597Y00238857D01*
X00064728Y00239753D02*
X00084700D01*
X00085597Y00240650D01*
X00084683Y00168481D02*
X00085597Y00169395D01*
X00064728Y00168481D02*
X00084683D01*
X00085597Y00167567D01*
X00358464Y00249464D02*
Y00261656D01*
Y00272904D01*
X00399666Y00109118D02*
Y00111232D01*
Y00108689D02*
Y00109118D01*
X00383619Y00093071D02*
X00399666Y00109118D01*
X00360823Y00093071D02*
X00383619D01*
X00380366Y00275469D02*
X00380538Y00275298D01*
X00372964Y00270030D02*
X00382214D01*
X00372964D02*
Y00272904D01*
Y00296244D02*
X00379701D01*
X00380609Y00295336D01*
Y00287061D02*
Y00295336D01*
X00379416Y00284661D02*
X00380366Y00283711D01*
X00372964Y00284661D02*
X00379416D01*
X00372964Y00307746D02*
X00380183D01*
X00381169Y00306760D01*
X00385446Y00277573D02*
X00391044Y00271975D01*
X00372964Y00261656D02*
X00379979D01*
X00380884Y00260751D01*
X00381169Y00298367D02*
Y00306760D01*
X00380366Y00275469D02*
Y00283711D01*
X00385446Y00277573D02*
Y00285815D01*
X00380884Y00236295D02*
Y00260751D01*
X00385964Y00238400D02*
Y00269871D01*
X00391044Y00240504D02*
Y00271975D01*
X00388504Y00239452D02*
Y00270923D01*
X00382906Y00276521D02*
X00388504Y00270923D01*
X00380538Y00275298D02*
X00385964Y00269871D01*
X00382214Y00270030D02*
X00383424Y00268819D01*
X00381169Y00298367D02*
X00383149Y00296388D01*
Y00288113D02*
Y00296388D01*
X00380609Y00287061D02*
X00382906Y00284763D01*
X00383149Y00288113D02*
X00385446Y00285815D01*
X00382906Y00276521D02*
Y00284763D01*
X00383424Y00237347D02*
Y00268819D01*
X00189955Y00138072D02*
Y00159351D01*
X00185282Y00160274D02*
X00189032D01*
X00189955Y00159351D01*
X00122801Y00286828D02*
X00136768D01*
X00120923D02*
X00122801D01*
X00134829Y00298206D02*
Y00310726D01*
X00175006Y00150261D02*
Y00186055D01*
X00174244Y00150261D02*
X00175006D01*
X00174244D02*
X00175006D01*
X00185554D01*
Y00148737D02*
Y00150261D01*
X00356913Y00215421D02*
X00385917D01*
X00388097Y00217600D02*
Y00232675D01*
X00385917Y00215421D02*
X00388097Y00217600D01*
X00384654Y00217961D02*
X00385557Y00218864D01*
Y00231623D01*
X00355861Y00217961D02*
X00384654D01*
X00394511Y00256000D02*
X00408134D01*
X00393584Y00241556D02*
Y00255073D01*
X00394511Y00256000D01*
X00351995Y00284661D02*
X00358464D01*
X00351076Y00283741D02*
X00351995Y00284661D01*
X00234494Y00093071D02*
X00235458Y00094035D01*
X00205939Y00093071D02*
X00234494D01*
X00235458Y00094035D02*
Y00164740D01*
X00234522Y00165676D02*
X00235458Y00164740D01*
X00218196Y00165676D02*
X00234522D01*
X00189582Y00100801D02*
X00200797D01*
X00201717Y00101721D02*
Y00125798D01*
X00200797Y00100801D02*
X00201717Y00101721D01*
X00188656Y00080664D02*
Y00099875D01*
X00189582Y00100801D01*
X00136768Y00285776D02*
Y00286828D01*
X00128136Y00310726D02*
X00134829D01*
X00161406Y00249049D02*
X00164172Y00246282D01*
X00185282Y00160274D02*
X00185282Y00160274D01*
X00164172Y00234155D02*
Y00246282D01*
Y00234155D02*
X00165444Y00232884D01*
X00218196Y00145610D02*
Y00148737D01*
X00199800D02*
X00218196D01*
X00383424Y00237347D02*
X00388097Y00232675D01*
X00388504Y00239452D02*
X00393177Y00234779D01*
X00391044Y00240504D02*
X00395717Y00235831D01*
X00393584Y00241556D02*
X00398257Y00236883D01*
X00385964Y00238400D02*
X00390637Y00233727D01*
X00184506Y00208055D02*
Y00218384D01*
X00184506Y00218384D02*
X00185581D01*
X00184506Y00218384D02*
X00184506Y00218384D01*
X00165444Y00232884D02*
X00174079D01*
X00185581D01*
X00189057Y00137174D02*
X00189955Y00138072D01*
X00185554Y00137174D02*
X00189057D01*
X00201717Y00125798D02*
Y00137174D01*
Y00125798D02*
X00218196D01*
X00200054Y00137174D02*
X00201717D01*
X00207328Y00105478D02*
X00218196D01*
X00380884Y00236295D02*
X00385557Y00231623D01*
X00204790Y00079409D02*
X00205939Y00078261D01*
X00204790Y00079409D02*
Y00091923D01*
X00205939Y00093071D01*
X00202250Y00093031D02*
X00204831Y00095611D01*
X00206381D01*
X00207328Y00096559D01*
X00353500Y00096802D02*
X00359771Y00090531D01*
X00356040Y00097854D02*
Y00125544D01*
X00353500Y00096802D02*
Y00215600D01*
X00356040Y00097854D02*
X00360823Y00093071D01*
X00398257Y00220000D02*
Y00236883D01*
X00393446Y00208354D02*
X00398272Y00213179D01*
Y00220000D01*
X00398257D02*
X00408134D01*
X00393177Y00215268D02*
Y00234779D01*
X00395717Y00214216D02*
Y00235831D01*
X00393446Y00146243D02*
Y00208354D01*
X00390906Y00166607D02*
Y00209406D01*
X00395717Y00214216D01*
X00388366Y00186402D02*
Y00210458D01*
X00393177Y00215268D01*
X00384483Y00210167D02*
X00390637Y00216320D01*
X00372152Y00210167D02*
X00384483D01*
X00390637Y00216320D02*
Y00233727D01*
X00372152Y00205300D02*
Y00210167D01*
X00175656Y00080664D02*
X00182156D01*
X00410341Y00060432D02*
X00423542D01*
X00399666Y00073647D02*
Y00085832D01*
X00215567Y00085666D02*
X00218196D01*
X00215567Y00085666D02*
X00215567Y00085666D01*
X00372152Y00145356D02*
X00392559D01*
X00393446Y00146243D01*
X00372152Y00165676D02*
X00389975D01*
X00390906Y00166607D01*
X00387452Y00185488D02*
X00388366Y00186402D01*
X00372152Y00185488D02*
X00387452D01*
X00353500Y00215600D02*
X00355861Y00217961D01*
X00356040Y00214548D02*
X00356913Y00215421D01*
X00356040Y00125544D02*
Y00214548D01*
Y00125544D02*
X00372152D01*
X00182156Y00123164D02*
X00188656D01*
D17*
X00159114Y00311404D02*
X00168771D01*
X00155768Y00285776D02*
X00157254D01*
Y00299240D02*
X00159114D01*
X00157254Y00285776D02*
Y00299240D01*
X00169858Y00286840D02*
Y00310316D01*
X00168771Y00311404D02*
X00169858Y00310316D01*
X00144614Y00299240D02*
Y00311404D01*
X00169858Y00286840D02*
X00178504D01*
D19*
X00200640Y00053206D02*
D03*
Y00040206D02*
D03*
X00181140D02*
D03*
X00181140Y00046706D02*
D03*
X00181140Y00053206D02*
D03*
D20*
X00172656Y00066459D02*
D03*
X00187156D02*
D03*
X00120329Y00310726D02*
D03*
X00134829D02*
D03*
X00144614Y00299240D02*
D03*
X00159114D02*
D03*
X00372964Y00249464D02*
D03*
X00358464D02*
D03*
D21*
X00175006Y00186055D02*
D03*
X00194006D02*
D03*
X00184506Y00208055D02*
D03*
D22*
X00064728Y00097717D02*
D03*
Y00051916D02*
D03*
Y00239753D02*
D03*
Y00193953D02*
D03*
Y00122681D02*
D03*
Y00168481D02*
D03*
D23*
X00125728Y00074816D02*
D03*
Y00216854D02*
D03*
Y00145581D02*
D03*
D24*
X00175656Y00080664D02*
D03*
X00182156D02*
D03*
X00188656D02*
D03*
X00195156D02*
D03*
X00175656Y00123164D02*
D03*
X00182156D02*
D03*
X00188656D02*
D03*
X00195156D02*
D03*
D25*
X00174244Y00150261D02*
D03*
Y00135761D02*
D03*
X00122801Y00272328D02*
D03*
Y00286828D02*
D03*
X00185581Y00232884D02*
D03*
Y00218384D02*
D03*
X00174079D02*
D03*
Y00232884D02*
D03*
X00197084Y00218384D02*
D03*
Y00232884D02*
D03*
D26*
X00012166Y00238890D02*
D03*
X00040166D02*
D03*
D27*
X00099984Y00288276D02*
D03*
Y00260276D02*
D03*
X00269271Y00277144D02*
D03*
Y00305144D02*
D03*
X00070521Y00288276D02*
D03*
Y00260276D02*
D03*
X00298773Y00277144D02*
D03*
Y00305144D02*
D03*
D28*
X00372152Y00085666D02*
D03*
Y00205300D02*
D03*
X00217942Y00225620D02*
D03*
X00372152Y00105478D02*
D03*
Y00125544D02*
D03*
Y00145356D02*
D03*
Y00165676D02*
D03*
Y00185488D02*
D03*
Y00225366D02*
D03*
X00217942Y00205554D02*
D03*
Y00185742D02*
D03*
X00218196Y00165676D02*
D03*
Y00145610D02*
D03*
Y00125798D02*
D03*
Y00105478D02*
D03*
Y00085666D02*
D03*
D29*
X00345212Y00245194D02*
D03*
X00325400D02*
D03*
X00305588D02*
D03*
X00285268D02*
D03*
X00265456D02*
D03*
X00245136D02*
D03*
D30*
X00358464Y00284661D02*
D03*
X00372964D02*
D03*
Y00296244D02*
D03*
X00358464D02*
D03*
Y00307746D02*
D03*
X00372964D02*
D03*
X00358464Y00273158D02*
D03*
X00372964D02*
D03*
Y00261656D02*
D03*
X00358464D02*
D03*
X00134829Y00298206D02*
D03*
X00120329D02*
D03*
X00185282Y00171958D02*
D03*
X00199782D02*
D03*
X00185282Y00160274D02*
D03*
X00199782D02*
D03*
X00159114Y00311404D02*
D03*
X00144614D02*
D03*
X00185300Y00148737D02*
D03*
X00199800D02*
D03*
X00185300Y00137174D02*
D03*
X00199800D02*
D03*
D31*
X00155768Y00285776D02*
D03*
X00146268D02*
D03*
X00136768D02*
D03*
X00155768Y00260276D02*
D03*
X00146268D02*
D03*
X00136768D02*
D03*
D32*
X00408134Y00256000D02*
D03*
X00422634D02*
D03*
Y00220000D02*
D03*
X00408134D02*
D03*
D33*
X00178504Y00244840D02*
D03*
Y00286840D02*
D03*
D34*
X00241527Y00286128D02*
D03*
X00206527D02*
D03*
D52*
X00399666Y00111232D02*
D03*
Y00085832D02*
D03*
Y00060432D02*
D03*
X00425066D02*
D03*
Y00111232D02*
D03*
D53*
Y00085832D02*
D03*
D61*
X00344214Y00307818D02*
D03*
X00323214D02*
D03*
Y00271818D02*
D03*
X00344214D02*
D03*
D62*
X00122801Y00272328D02*
X00142966D01*
X00146268Y00275630D02*
Y00275630D01*
X00142966Y00272328D02*
X00146268Y00275630D01*
Y00275630D02*
Y00285776D01*
X00395065Y00099668D02*
X00413502D01*
X00425066Y00111232D01*
X00386578Y00091181D02*
X00395065Y00099668D01*
X00386578Y00079173D02*
Y00091181D01*
X00350071Y00095381D02*
X00357858Y00087595D01*
Y00079041D02*
Y00087595D01*
X00350071Y00095381D02*
Y00225366D01*
X00358464D02*
X00358464Y00225366D01*
Y00249464D01*
X00357858Y00079041D02*
X00359526Y00077372D01*
X00384777D01*
X00386578Y00079173D01*
D63*
X00042344Y00238890D02*
Y00254922D01*
X00040166Y00238890D02*
X00042344D01*
X00047697Y00260276D02*
X00070521D01*
X00042344Y00254922D02*
X00047697Y00260276D01*
X00100492D02*
X00122345D01*
X00070521D02*
X00099984D01*
D64*
X00122345D02*
X00136768D01*
X00146268D01*
D65*
X00350071Y00225366D02*
X00358464D01*
X00359068D02*
X00372152D01*
X00298778D02*
X00350071D01*
D66*
X00146268Y00275630D02*
D03*
X00424384Y00238000D02*
D03*
X00406384D02*
D03*
D67*
X00099727Y00019020D02*
D03*
D68*
X00070592D02*
D03*
D69*
X00023250Y00195502D02*
D03*
Y00134504D02*
D03*
X00416750Y00195502D02*
D03*
Y00134504D02*
D03*
D70*
X00410000Y00290000D02*
D03*
Y00030000D02*
D03*
X00030000D02*
D03*
Y00290000D02*
D03*
D71*
X00200640Y00017750D02*
D03*
X00180524D02*
D03*
D72*
X00157968D02*
D03*
X00132060Y00018004D02*
D03*
D73*
X00415510Y00232750D02*
D03*
X00196688Y00255000D02*
D03*
X00172656Y00057706D02*
D03*
X00181312Y00255000D02*
D03*
X00173625D02*
D03*
X00099846Y00275729D02*
D03*
X00060708D02*
D03*
X00080277D02*
D03*
X00109631D02*
D03*
X00090062D02*
D03*
X00070492D02*
D03*
X00023134Y00238674D02*
D03*
Y00246981D02*
D03*
Y00230038D02*
D03*
X00189000Y00255000D02*
D03*
X00196688Y00240500D02*
D03*
Y00247750D02*
D03*
X00226239Y00244078D02*
D03*
X00209998Y00236712D02*
D03*
X00218111Y00244078D02*
D03*
Y00236750D02*
D03*
X00226239D02*
D03*
X00075421Y00202904D02*
D03*
Y00185146D02*
D03*
X00174244Y00142885D02*
D03*
X00075421Y00131369D02*
D03*
Y00113938D02*
D03*
X00153273Y00038415D02*
D03*
X00162450D02*
D03*
X00144097D02*
D03*
X00134920D02*
D03*
X00166884Y00032746D02*
D03*
X00209998Y00244078D02*
D03*
X00366432Y00235972D02*
D03*
X00308430Y00293380D02*
D03*
X00372964Y00240520D02*
D03*
X00130214Y00032746D02*
D03*
X00300549Y00293380D02*
D03*
X00292668D02*
D03*
X00186750Y00186055D02*
D03*
X00284370Y00293380D02*
D03*
X00276073D02*
D03*
X00415510Y00243530D02*
D03*
X00052158Y00185146D02*
D03*
X00059912D02*
D03*
X00067667D02*
D03*
X00052158Y00131369D02*
D03*
X00059912D02*
D03*
X00067667D02*
D03*
X00139390Y00032746D02*
D03*
X00157743D02*
D03*
X00075421Y00043208D02*
D03*
X00067667D02*
D03*
X00059912D02*
D03*
X00052158Y00061958D02*
D03*
X00059912D02*
D03*
X00067667D02*
D03*
X00075421D02*
D03*
X00067667Y00113938D02*
D03*
X00059912D02*
D03*
X00052158D02*
D03*
X00059912Y00034778D02*
D03*
X00067667D02*
D03*
X00075421D02*
D03*
X00259478Y00293380D02*
D03*
X00267776D02*
D03*
X00148567Y00032746D02*
D03*
X00067667Y00202904D02*
D03*
X00059912D02*
D03*
X00052158D02*
D03*
X00195156Y00091420D02*
D03*
D74*
X00318568Y00310726D02*
D03*
X00163902Y00256283D02*
D03*
X00166402Y00226884D02*
D03*
X00128136Y00310726D02*
D03*
M02*
