G04*
G04 #@! TF.GenerationSoftware,Altium Limited,Altium Designer,20.1.8 (145)*
G04*
G04 Layer_Color=16777215*
%FSAX44Y44*%
%MOMM*%
G71*
G04*
G04 #@! TF.SameCoordinates,038E23F0-B42B-4C45-894E-EE78EB3E0CC3*
G04*
G04*
G04 #@! TF.FilePolarity,Positive*
G04*
G01*
G75*
%ADD10C,0.2500*%
%ADD11C,0.5000*%
%ADD12C,0.1016*%
%ADD13C,0.2032*%
%ADD14C,0.1270*%
%ADD15C,0.0127*%
%ADD16C,0.2540*%
%ADD17C,0.1524*%
G36*
X00047625Y00056508D02*
X00040151D01*
Y00065043D01*
X00047625D01*
Y00056508D01*
D02*
G37*
G36*
X00205217Y00122743D02*
X00197744D01*
Y00131279D01*
X00205217D01*
Y00122743D01*
D02*
G37*
G36*
X00431990Y00171682D02*
X00424300D01*
Y00180453D01*
X00431990D01*
Y00171682D01*
D02*
G37*
G36*
X00385047Y00304908D02*
X00377358D01*
Y00313679D01*
X00385047D01*
Y00304908D01*
D02*
G37*
G36*
X00010761Y00166796D02*
X00003288D01*
Y00175331D01*
X00010761D01*
Y00166796D01*
D02*
G37*
G36*
X00168871Y00229052D02*
X00161398D01*
Y00237587D01*
X00168871D01*
Y00229052D01*
D02*
G37*
G36*
X00048547Y00118014D02*
X00039993D01*
Y00126550D01*
X00048547D01*
Y00118014D01*
D02*
G37*
G36*
X00171926Y00293342D02*
X00163372D01*
Y00301878D01*
X00171926D01*
Y00293342D01*
D02*
G37*
%LPC*%
G36*
X00043761Y00064027D02*
X00041167D01*
Y00057524D01*
X00043630D01*
X00043883Y00057533D01*
X00044118Y00057543D01*
X00044316Y00057561D01*
X00044475Y00057590D01*
X00044607Y00057618D01*
X00044710Y00057636D01*
X00044739Y00057646D01*
X00044767D01*
X00044776Y00057655D01*
X00044786D01*
X00044992Y00057730D01*
X00045180Y00057815D01*
X00045331Y00057900D01*
X00045462Y00057984D01*
X00045566Y00058059D01*
X00045641Y00058116D01*
X00045688Y00058153D01*
X00045707Y00058172D01*
X00045866Y00058351D01*
X00046007Y00058539D01*
X00046129Y00058736D01*
X00046224Y00058915D01*
X00046299Y00059084D01*
X00046336Y00059150D01*
X00046355Y00059206D01*
X00046374Y00059262D01*
X00046393Y00059300D01*
X00046402Y00059319D01*
Y00059328D01*
X00046468Y00059554D01*
X00046524Y00059789D01*
X00046562Y00060014D01*
X00046581Y00060230D01*
X00046590Y00060334D01*
X00046599Y00060428D01*
Y00060503D01*
X00046609Y00060578D01*
Y00060710D01*
X00046599Y00061039D01*
X00046571Y00061330D01*
X00046562Y00061471D01*
X00046543Y00061593D01*
X00046524Y00061715D01*
X00046505Y00061819D01*
X00046477Y00061913D01*
X00046459Y00061997D01*
X00046440Y00062072D01*
X00046430Y00062129D01*
X00046411Y00062176D01*
X00046402Y00062213D01*
X00046393Y00062232D01*
Y00062242D01*
X00046308Y00062467D01*
X00046205Y00062674D01*
X00046101Y00062852D01*
X00045998Y00063003D01*
X00045913Y00063125D01*
X00045838Y00063219D01*
X00045791Y00063275D01*
X00045782Y00063294D01*
X00045772D01*
X00045613Y00063444D01*
X00045453Y00063567D01*
X00045284Y00063670D01*
X00045133Y00063755D01*
X00045002Y00063820D01*
X00044889Y00063867D01*
X00044851Y00063877D01*
X00044823Y00063886D01*
X00044804Y00063896D01*
X00044795D01*
X00044616Y00063943D01*
X00044419Y00063971D01*
X00044212Y00063999D01*
X00044015Y00064008D01*
X00043836Y00064018D01*
X00043761Y00064027D01*
D02*
G37*
%LPD*%
G36*
X00043460Y00062918D02*
X00043573D01*
X00043667Y00062909D01*
X00043752D01*
X00043836Y00062899D01*
X00043902D01*
X00044006Y00062881D01*
X00044081Y00062871D01*
X00044128Y00062862D01*
X00044137D01*
X00044269Y00062824D01*
X00044381Y00062777D01*
X00044485Y00062730D01*
X00044579Y00062674D01*
X00044645Y00062627D01*
X00044701Y00062589D01*
X00044729Y00062561D01*
X00044739Y00062552D01*
X00044823Y00062458D01*
X00044898Y00062354D01*
X00044964Y00062251D01*
X00045021Y00062157D01*
X00045058Y00062063D01*
X00045086Y00061988D01*
X00045105Y00061941D01*
X00045115Y00061931D01*
Y00061922D01*
X00045162Y00061753D01*
X00045199Y00061574D01*
X00045218Y00061377D01*
X00045237Y00061189D01*
X00045246Y00061029D01*
X00045255Y00060954D01*
Y00060888D01*
Y00060841D01*
Y00060804D01*
Y00060775D01*
Y00060766D01*
X00045246Y00060503D01*
X00045237Y00060259D01*
X00045209Y00060061D01*
X00045190Y00059892D01*
X00045162Y00059751D01*
X00045152Y00059695D01*
X00045133Y00059657D01*
X00045124Y00059619D01*
Y00059591D01*
X00045115Y00059582D01*
Y00059573D01*
X00045058Y00059422D01*
X00045011Y00059291D01*
X00044945Y00059187D01*
X00044898Y00059103D01*
X00044851Y00059037D01*
X00044814Y00058990D01*
X00044786Y00058962D01*
X00044776Y00058952D01*
X00044692Y00058886D01*
X00044607Y00058830D01*
X00044523Y00058783D01*
X00044438Y00058745D01*
X00044363Y00058717D01*
X00044306Y00058699D01*
X00044269Y00058680D01*
X00044250D01*
X00044147Y00058661D01*
X00044024Y00058651D01*
X00043893Y00058633D01*
X00043761D01*
X00043639Y00058623D01*
X00042483D01*
Y00062928D01*
X00043338D01*
X00043460Y00062918D01*
D02*
G37*
%LPC*%
G36*
X00201354Y00130263D02*
X00198760D01*
Y00123759D01*
X00201222D01*
X00201476Y00123769D01*
X00201711Y00123778D01*
X00201908Y00123797D01*
X00202068Y00123825D01*
X00202199Y00123853D01*
X00202303Y00123872D01*
X00202331Y00123882D01*
X00202359D01*
X00202369Y00123891D01*
X00202378D01*
X00202585Y00123966D01*
X00202773Y00124051D01*
X00202923Y00124135D01*
X00203055Y00124220D01*
X00203158Y00124295D01*
X00203233Y00124352D01*
X00203280Y00124389D01*
X00203299Y00124408D01*
X00203459Y00124586D01*
X00203600Y00124774D01*
X00203722Y00124972D01*
X00203816Y00125150D01*
X00203891Y00125319D01*
X00203929Y00125385D01*
X00203947Y00125442D01*
X00203966Y00125498D01*
X00203985Y00125536D01*
X00203994Y00125554D01*
Y00125564D01*
X00204060Y00125789D01*
X00204117Y00126024D01*
X00204154Y00126250D01*
X00204173Y00126466D01*
X00204182Y00126569D01*
X00204192Y00126663D01*
Y00126739D01*
X00204201Y00126814D01*
Y00126945D01*
X00204192Y00127274D01*
X00204164Y00127566D01*
X00204154Y00127707D01*
X00204135Y00127829D01*
X00204117Y00127951D01*
X00204098Y00128054D01*
X00204070Y00128148D01*
X00204051Y00128233D01*
X00204032Y00128308D01*
X00204023Y00128364D01*
X00204004Y00128411D01*
X00203994Y00128449D01*
X00203985Y00128468D01*
Y00128477D01*
X00203900Y00128703D01*
X00203797Y00128910D01*
X00203694Y00129088D01*
X00203590Y00129239D01*
X00203506Y00129361D01*
X00203431Y00129455D01*
X00203384Y00129511D01*
X00203374Y00129530D01*
X00203365D01*
X00203205Y00129680D01*
X00203045Y00129802D01*
X00202876Y00129906D01*
X00202726Y00129990D01*
X00202594Y00130056D01*
X00202481Y00130103D01*
X00202444Y00130112D01*
X00202416Y00130122D01*
X00202397Y00130131D01*
X00202387D01*
X00202209Y00130178D01*
X00202011Y00130206D01*
X00201805Y00130235D01*
X00201607Y00130244D01*
X00201429Y00130253D01*
X00201354Y00130263D01*
D02*
G37*
%LPD*%
G36*
X00201053Y00129154D02*
X00201166D01*
X00201260Y00129144D01*
X00201344D01*
X00201429Y00129135D01*
X00201495D01*
X00201598Y00129116D01*
X00201673Y00129107D01*
X00201720Y00129097D01*
X00201730D01*
X00201861Y00129060D01*
X00201974Y00129013D01*
X00202077Y00128966D01*
X00202171Y00128910D01*
X00202237Y00128862D01*
X00202293Y00128825D01*
X00202322Y00128797D01*
X00202331Y00128787D01*
X00202416Y00128693D01*
X00202491Y00128590D01*
X00202556Y00128487D01*
X00202613Y00128393D01*
X00202651Y00128299D01*
X00202679Y00128223D01*
X00202698Y00128176D01*
X00202707Y00128167D01*
Y00128158D01*
X00202754Y00127989D01*
X00202792Y00127810D01*
X00202810Y00127613D01*
X00202829Y00127425D01*
X00202838Y00127265D01*
X00202848Y00127190D01*
Y00127124D01*
Y00127077D01*
Y00127039D01*
Y00127011D01*
Y00127002D01*
X00202838Y00126739D01*
X00202829Y00126494D01*
X00202801Y00126297D01*
X00202782Y00126128D01*
X00202754Y00125987D01*
X00202745Y00125930D01*
X00202726Y00125893D01*
X00202716Y00125855D01*
Y00125827D01*
X00202707Y00125818D01*
Y00125808D01*
X00202651Y00125658D01*
X00202603Y00125526D01*
X00202538Y00125423D01*
X00202491Y00125338D01*
X00202444Y00125273D01*
X00202406Y00125225D01*
X00202378Y00125197D01*
X00202369Y00125188D01*
X00202284Y00125122D01*
X00202199Y00125066D01*
X00202115Y00125019D01*
X00202030Y00124981D01*
X00201955Y00124953D01*
X00201899Y00124934D01*
X00201861Y00124915D01*
X00201842D01*
X00201739Y00124897D01*
X00201617Y00124887D01*
X00201485Y00124868D01*
X00201354D01*
X00201231Y00124859D01*
X00200075D01*
Y00129163D01*
X00200931D01*
X00201053Y00129154D01*
D02*
G37*
%LPC*%
G36*
X00428465Y00179437D02*
X00428352D01*
X00428108Y00179427D01*
X00427863Y00179399D01*
X00427647Y00179352D01*
X00427431Y00179296D01*
X00427243Y00179230D01*
X00427055Y00179155D01*
X00426895Y00179070D01*
X00426745Y00178986D01*
X00426604Y00178901D01*
X00426491Y00178816D01*
X00426388Y00178741D01*
X00426303Y00178675D01*
X00426237Y00178619D01*
X00426190Y00178572D01*
X00426162Y00178544D01*
X00426153Y00178534D01*
X00426002Y00178356D01*
X00425880Y00178168D01*
X00425768Y00177971D01*
X00425673Y00177764D01*
X00425589Y00177548D01*
X00425523Y00177341D01*
X00425467Y00177134D01*
X00425420Y00176937D01*
X00425382Y00176739D01*
X00425363Y00176570D01*
X00425345Y00176411D01*
X00425326Y00176279D01*
Y00176166D01*
X00425316Y00176082D01*
Y00176006D01*
X00425326Y00175724D01*
X00425354Y00175461D01*
X00425392Y00175208D01*
X00425448Y00174982D01*
X00425504Y00174766D01*
X00425579Y00174559D01*
X00425655Y00174380D01*
X00425730Y00174221D01*
X00425805Y00174070D01*
X00425880Y00173939D01*
X00425955Y00173835D01*
X00426012Y00173741D01*
X00426068Y00173676D01*
X00426106Y00173619D01*
X00426134Y00173591D01*
X00426143Y00173582D01*
X00426303Y00173422D01*
X00426472Y00173290D01*
X00426651Y00173168D01*
X00426829Y00173074D01*
X00427008Y00172990D01*
X00427187Y00172914D01*
X00427356Y00172858D01*
X00427515Y00172811D01*
X00427675Y00172773D01*
X00427816Y00172745D01*
X00427948Y00172726D01*
X00428051Y00172717D01*
X00428145Y00172708D01*
X00428211Y00172698D01*
X00428267D01*
X00428465Y00172708D01*
X00428643Y00172717D01*
X00428822Y00172745D01*
X00428982Y00172783D01*
X00429132Y00172820D01*
X00429273Y00172858D01*
X00429404Y00172905D01*
X00429527Y00172961D01*
X00429630Y00173008D01*
X00429724Y00173055D01*
X00429809Y00173093D01*
X00429874Y00173131D01*
X00429931Y00173168D01*
X00429968Y00173196D01*
X00429987Y00173206D01*
X00429997Y00173215D01*
X00430119Y00173319D01*
X00430232Y00173431D01*
X00430438Y00173685D01*
X00430607Y00173948D01*
X00430739Y00174202D01*
X00430795Y00174324D01*
X00430842Y00174437D01*
X00430880Y00174540D01*
X00430918Y00174625D01*
X00430946Y00174700D01*
X00430965Y00174756D01*
X00430974Y00174794D01*
Y00174803D01*
X00429696Y00175198D01*
X00429621Y00174944D01*
X00429536Y00174728D01*
X00429451Y00174550D01*
X00429357Y00174399D01*
X00429282Y00174286D01*
X00429216Y00174211D01*
X00429170Y00174164D01*
X00429151Y00174146D01*
X00429000Y00174033D01*
X00428850Y00173958D01*
X00428700Y00173901D01*
X00428568Y00173854D01*
X00428446Y00173835D01*
X00428343Y00173826D01*
X00428305Y00173817D01*
X00428258D01*
X00428126Y00173826D01*
X00428004Y00173835D01*
X00427779Y00173901D01*
X00427581Y00173976D01*
X00427421Y00174080D01*
X00427290Y00174174D01*
X00427196Y00174249D01*
X00427158Y00174286D01*
X00427130Y00174315D01*
X00427121Y00174324D01*
X00427111Y00174333D01*
X00427036Y00174437D01*
X00426970Y00174559D01*
X00426905Y00174691D01*
X00426858Y00174832D01*
X00426782Y00175123D01*
X00426726Y00175414D01*
X00426707Y00175555D01*
X00426698Y00175677D01*
X00426679Y00175800D01*
Y00175903D01*
X00426670Y00175978D01*
Y00176044D01*
Y00176091D01*
Y00176100D01*
X00426679Y00176317D01*
X00426688Y00176514D01*
X00426707Y00176692D01*
X00426735Y00176862D01*
X00426773Y00177012D01*
X00426811Y00177153D01*
X00426848Y00177275D01*
X00426895Y00177388D01*
X00426933Y00177482D01*
X00426970Y00177566D01*
X00427008Y00177632D01*
X00427046Y00177689D01*
X00427074Y00177736D01*
X00427093Y00177764D01*
X00427111Y00177783D01*
Y00177792D01*
X00427196Y00177886D01*
X00427290Y00177971D01*
X00427384Y00178036D01*
X00427487Y00178093D01*
X00427685Y00178187D01*
X00427873Y00178253D01*
X00428032Y00178290D01*
X00428108Y00178300D01*
X00428164Y00178309D01*
X00428220Y00178318D01*
X00428286D01*
X00428474Y00178309D01*
X00428643Y00178271D01*
X00428794Y00178224D01*
X00428925Y00178168D01*
X00429029Y00178111D01*
X00429104Y00178064D01*
X00429151Y00178027D01*
X00429170Y00178018D01*
X00429292Y00177905D01*
X00429404Y00177773D01*
X00429489Y00177642D01*
X00429555Y00177510D01*
X00429602Y00177397D01*
X00429630Y00177313D01*
X00429649Y00177275D01*
Y00177247D01*
X00429658Y00177237D01*
Y00177228D01*
X00430955Y00177538D01*
X00430861Y00177811D01*
X00430758Y00178046D01*
X00430645Y00178253D01*
X00430542Y00178422D01*
X00430438Y00178553D01*
X00430401Y00178610D01*
X00430363Y00178657D01*
X00430335Y00178685D01*
X00430307Y00178713D01*
X00430297Y00178732D01*
X00430288D01*
X00430147Y00178854D01*
X00429987Y00178967D01*
X00429837Y00179061D01*
X00429677Y00179136D01*
X00429508Y00179211D01*
X00429348Y00179268D01*
X00429188Y00179314D01*
X00429038Y00179352D01*
X00428897Y00179380D01*
X00428765Y00179399D01*
X00428653Y00179418D01*
X00428549Y00179427D01*
X00428465Y00179437D01*
D02*
G37*
G36*
X00381522Y00312663D02*
X00381409D01*
X00381165Y00312653D01*
X00380921Y00312625D01*
X00380705Y00312578D01*
X00380489Y00312522D01*
X00380300Y00312456D01*
X00380112Y00312381D01*
X00379953Y00312296D01*
X00379802Y00312212D01*
X00379661Y00312127D01*
X00379549Y00312042D01*
X00379445Y00311967D01*
X00379361Y00311901D01*
X00379295Y00311845D01*
X00379248Y00311798D01*
X00379220Y00311770D01*
X00379210Y00311761D01*
X00379060Y00311582D01*
X00378938Y00311394D01*
X00378825Y00311197D01*
X00378731Y00310990D01*
X00378647Y00310774D01*
X00378581Y00310567D01*
X00378524Y00310360D01*
X00378477Y00310163D01*
X00378440Y00309965D01*
X00378421Y00309796D01*
X00378402Y00309636D01*
X00378383Y00309505D01*
Y00309392D01*
X00378374Y00309308D01*
Y00309232D01*
X00378383Y00308951D01*
X00378411Y00308687D01*
X00378449Y00308434D01*
X00378506Y00308208D01*
X00378562Y00307992D01*
X00378637Y00307785D01*
X00378712Y00307607D01*
X00378787Y00307447D01*
X00378863Y00307296D01*
X00378938Y00307165D01*
X00379013Y00307062D01*
X00379069Y00306968D01*
X00379126Y00306902D01*
X00379163Y00306845D01*
X00379192Y00306817D01*
X00379201Y00306808D01*
X00379361Y00306648D01*
X00379530Y00306516D01*
X00379708Y00306394D01*
X00379887Y00306300D01*
X00380066Y00306216D01*
X00380244Y00306140D01*
X00380413Y00306084D01*
X00380573Y00306037D01*
X00380733Y00306000D01*
X00380874Y00305971D01*
X00381005Y00305952D01*
X00381109Y00305943D01*
X00381203Y00305934D01*
X00381269Y00305924D01*
X00381325D01*
X00381522Y00305934D01*
X00381701Y00305943D01*
X00381879Y00305971D01*
X00382039Y00306009D01*
X00382189Y00306047D01*
X00382331Y00306084D01*
X00382462Y00306131D01*
X00382584Y00306187D01*
X00382688Y00306234D01*
X00382782Y00306281D01*
X00382866Y00306319D01*
X00382932Y00306357D01*
X00382988Y00306394D01*
X00383026Y00306422D01*
X00383045Y00306432D01*
X00383054Y00306441D01*
X00383176Y00306545D01*
X00383289Y00306657D01*
X00383496Y00306911D01*
X00383665Y00307174D01*
X00383797Y00307428D01*
X00383853Y00307550D01*
X00383900Y00307663D01*
X00383937Y00307766D01*
X00383975Y00307851D01*
X00384003Y00307926D01*
X00384022Y00307983D01*
X00384031Y00308020D01*
Y00308029D01*
X00382753Y00308424D01*
X00382678Y00308170D01*
X00382594Y00307954D01*
X00382509Y00307776D01*
X00382415Y00307625D01*
X00382340Y00307513D01*
X00382274Y00307437D01*
X00382227Y00307390D01*
X00382208Y00307372D01*
X00382058Y00307259D01*
X00381908Y00307184D01*
X00381757Y00307127D01*
X00381626Y00307080D01*
X00381503Y00307062D01*
X00381400Y00307052D01*
X00381362Y00307043D01*
X00381315D01*
X00381184Y00307052D01*
X00381062Y00307062D01*
X00380836Y00307127D01*
X00380639Y00307202D01*
X00380479Y00307306D01*
X00380348Y00307400D01*
X00380253Y00307475D01*
X00380216Y00307513D01*
X00380188Y00307541D01*
X00380178Y00307550D01*
X00380169Y00307560D01*
X00380094Y00307663D01*
X00380028Y00307785D01*
X00379962Y00307917D01*
X00379915Y00308058D01*
X00379840Y00308349D01*
X00379784Y00308640D01*
X00379765Y00308781D01*
X00379755Y00308904D01*
X00379737Y00309026D01*
Y00309129D01*
X00379727Y00309204D01*
Y00309270D01*
Y00309317D01*
Y00309326D01*
X00379737Y00309543D01*
X00379746Y00309740D01*
X00379765Y00309918D01*
X00379793Y00310088D01*
X00379831Y00310238D01*
X00379868Y00310379D01*
X00379906Y00310501D01*
X00379953Y00310614D01*
X00379990Y00310708D01*
X00380028Y00310793D01*
X00380066Y00310858D01*
X00380103Y00310915D01*
X00380131Y00310962D01*
X00380150Y00310990D01*
X00380169Y00311009D01*
Y00311018D01*
X00380253Y00311112D01*
X00380348Y00311197D01*
X00380442Y00311262D01*
X00380545Y00311319D01*
X00380742Y00311413D01*
X00380930Y00311479D01*
X00381090Y00311516D01*
X00381165Y00311525D01*
X00381222Y00311535D01*
X00381278Y00311544D01*
X00381344D01*
X00381532Y00311535D01*
X00381701Y00311497D01*
X00381851Y00311450D01*
X00381983Y00311394D01*
X00382086Y00311338D01*
X00382161Y00311291D01*
X00382208Y00311253D01*
X00382227Y00311244D01*
X00382349Y00311131D01*
X00382462Y00310999D01*
X00382547Y00310868D01*
X00382612Y00310736D01*
X00382659Y00310623D01*
X00382688Y00310539D01*
X00382706Y00310501D01*
Y00310473D01*
X00382716Y00310464D01*
Y00310454D01*
X00384013Y00310764D01*
X00383919Y00311037D01*
X00383815Y00311272D01*
X00383703Y00311479D01*
X00383599Y00311648D01*
X00383496Y00311779D01*
X00383458Y00311836D01*
X00383421Y00311883D01*
X00383392Y00311911D01*
X00383364Y00311939D01*
X00383355Y00311958D01*
X00383345D01*
X00383204Y00312080D01*
X00383045Y00312193D01*
X00382894Y00312287D01*
X00382735Y00312362D01*
X00382565Y00312437D01*
X00382406Y00312493D01*
X00382246Y00312540D01*
X00382095Y00312578D01*
X00381955Y00312606D01*
X00381823Y00312625D01*
X00381710Y00312644D01*
X00381607Y00312653D01*
X00381522Y00312663D01*
D02*
G37*
G36*
X00007161Y00174315D02*
X00004304D01*
Y00167812D01*
X00007124D01*
X00007283Y00167822D01*
X00007565D01*
X00007678Y00167831D01*
X00007857D01*
X00007922Y00167840D01*
X00008016D01*
X00008054Y00167850D01*
X00008091D01*
X00008279Y00167878D01*
X00008449Y00167925D01*
X00008599Y00167972D01*
X00008730Y00168028D01*
X00008834Y00168075D01*
X00008909Y00168122D01*
X00008956Y00168150D01*
X00008975Y00168160D01*
X00009106Y00168263D01*
X00009210Y00168376D01*
X00009313Y00168479D01*
X00009388Y00168592D01*
X00009454Y00168686D01*
X00009501Y00168761D01*
X00009529Y00168808D01*
X00009539Y00168827D01*
X00009604Y00168987D01*
X00009661Y00169137D01*
X00009699Y00169287D01*
X00009717Y00169419D01*
X00009736Y00169532D01*
X00009746Y00169617D01*
Y00169692D01*
X00009736Y00169898D01*
X00009699Y00170086D01*
X00009642Y00170246D01*
X00009586Y00170396D01*
X00009529Y00170509D01*
X00009473Y00170594D01*
X00009435Y00170650D01*
X00009426Y00170669D01*
X00009294Y00170819D01*
X00009153Y00170942D01*
X00008994Y00171045D01*
X00008853Y00171120D01*
X00008721Y00171186D01*
X00008608Y00171233D01*
X00008571Y00171242D01*
X00008543Y00171252D01*
X00008524Y00171261D01*
X00008514D01*
X00008665Y00171346D01*
X00008796Y00171430D01*
X00008909Y00171534D01*
X00009003Y00171618D01*
X00009069Y00171703D01*
X00009125Y00171769D01*
X00009163Y00171816D01*
X00009172Y00171834D01*
X00009257Y00171985D01*
X00009323Y00172126D01*
X00009360Y00172267D01*
X00009398Y00172398D01*
X00009417Y00172511D01*
X00009426Y00172596D01*
Y00172652D01*
Y00172661D01*
Y00172671D01*
X00009417Y00172821D01*
X00009398Y00172972D01*
X00009360Y00173094D01*
X00009323Y00173207D01*
X00009285Y00173300D01*
X00009247Y00173376D01*
X00009229Y00173413D01*
X00009219Y00173432D01*
X00009144Y00173554D01*
X00009059Y00173658D01*
X00008975Y00173752D01*
X00008900Y00173836D01*
X00008824Y00173893D01*
X00008768Y00173940D01*
X00008730Y00173968D01*
X00008721Y00173977D01*
X00008608Y00174052D01*
X00008486Y00174109D01*
X00008373Y00174156D01*
X00008270Y00174193D01*
X00008176Y00174221D01*
X00008110Y00174240D01*
X00008063Y00174250D01*
X00008044D01*
X00007885Y00174268D01*
X00007706Y00174287D01*
X00007518Y00174297D01*
X00007330Y00174306D01*
X00007161Y00174315D01*
D02*
G37*
%LPD*%
G36*
X00007030Y00173225D02*
X00007274D01*
X00007330Y00173216D01*
X00007434D01*
X00007471Y00173207D01*
X00007481D01*
X00007593Y00173188D01*
X00007697Y00173160D01*
X00007781Y00173122D01*
X00007857Y00173084D01*
X00007904Y00173047D01*
X00007951Y00173009D01*
X00007969Y00172990D01*
X00007979Y00172981D01*
X00008035Y00172906D01*
X00008073Y00172821D01*
X00008110Y00172746D01*
X00008129Y00172671D01*
X00008138Y00172596D01*
X00008148Y00172539D01*
Y00172502D01*
Y00172492D01*
X00008138Y00172379D01*
X00008120Y00172276D01*
X00008082Y00172192D01*
X00008054Y00172116D01*
X00008016Y00172051D01*
X00007979Y00172013D01*
X00007960Y00171985D01*
X00007951Y00171975D01*
X00007875Y00171910D01*
X00007791Y00171863D01*
X00007706Y00171825D01*
X00007621Y00171797D01*
X00007537Y00171769D01*
X00007481Y00171759D01*
X00007443Y00171750D01*
X00007387D01*
X00007330Y00171740D01*
X00007039D01*
X00006879Y00171731D01*
X00005620D01*
Y00173235D01*
X00006926D01*
X00007030Y00173225D01*
D02*
G37*
G36*
X00007114Y00170641D02*
X00007227Y00170632D01*
X00007340D01*
X00007434Y00170622D01*
X00007518Y00170613D01*
X00007584Y00170603D01*
X00007650Y00170594D01*
X00007697Y00170585D01*
X00007772Y00170575D01*
X00007819Y00170556D01*
X00007828D01*
X00007922Y00170519D01*
X00008007Y00170472D01*
X00008082Y00170425D01*
X00008138Y00170368D01*
X00008185Y00170331D01*
X00008214Y00170293D01*
X00008232Y00170265D01*
X00008242Y00170256D01*
X00008289Y00170171D01*
X00008326Y00170086D01*
X00008355Y00170011D01*
X00008373Y00169927D01*
X00008383Y00169861D01*
X00008392Y00169804D01*
Y00169767D01*
Y00169757D01*
X00008383Y00169635D01*
X00008364Y00169522D01*
X00008336Y00169429D01*
X00008298Y00169353D01*
X00008261Y00169287D01*
X00008232Y00169241D01*
X00008214Y00169212D01*
X00008204Y00169203D01*
X00008129Y00169137D01*
X00008054Y00169081D01*
X00007969Y00169034D01*
X00007894Y00168996D01*
X00007828Y00168977D01*
X00007772Y00168959D01*
X00007734Y00168949D01*
X00007725D01*
X00007687Y00168940D01*
X00007631D01*
X00007509Y00168930D01*
X00007358Y00168921D01*
X00007208D01*
X00007067Y00168912D01*
X00005620D01*
Y00170650D01*
X00006982D01*
X00007114Y00170641D01*
D02*
G37*
%LPC*%
G36*
X00165271Y00236571D02*
X00162414D01*
Y00230068D01*
X00165233D01*
X00165393Y00230077D01*
X00165675D01*
X00165788Y00230086D01*
X00165966D01*
X00166032Y00230096D01*
X00166126D01*
X00166164Y00230105D01*
X00166201D01*
X00166389Y00230133D01*
X00166558Y00230180D01*
X00166709Y00230228D01*
X00166840Y00230284D01*
X00166944Y00230331D01*
X00167019Y00230378D01*
X00167066Y00230406D01*
X00167085Y00230415D01*
X00167216Y00230519D01*
X00167320Y00230632D01*
X00167423Y00230735D01*
X00167498Y00230848D01*
X00167564Y00230942D01*
X00167611Y00231017D01*
X00167639Y00231064D01*
X00167648Y00231083D01*
X00167714Y00231243D01*
X00167771Y00231393D01*
X00167808Y00231543D01*
X00167827Y00231675D01*
X00167846Y00231788D01*
X00167855Y00231872D01*
Y00231947D01*
X00167846Y00232154D01*
X00167808Y00232342D01*
X00167752Y00232502D01*
X00167695Y00232652D01*
X00167639Y00232765D01*
X00167583Y00232850D01*
X00167545Y00232906D01*
X00167536Y00232925D01*
X00167404Y00233075D01*
X00167263Y00233197D01*
X00167103Y00233301D01*
X00166962Y00233376D01*
X00166831Y00233442D01*
X00166718Y00233489D01*
X00166680Y00233498D01*
X00166652Y00233507D01*
X00166633Y00233517D01*
X00166624D01*
X00166774Y00233601D01*
X00166906Y00233686D01*
X00167019Y00233789D01*
X00167113Y00233874D01*
X00167178Y00233958D01*
X00167235Y00234024D01*
X00167272Y00234071D01*
X00167282Y00234090D01*
X00167367Y00234240D01*
X00167432Y00234381D01*
X00167470Y00234522D01*
X00167507Y00234654D01*
X00167526Y00234767D01*
X00167536Y00234851D01*
Y00234908D01*
Y00234917D01*
Y00234926D01*
X00167526Y00235077D01*
X00167507Y00235227D01*
X00167470Y00235349D01*
X00167432Y00235462D01*
X00167395Y00235556D01*
X00167357Y00235631D01*
X00167338Y00235669D01*
X00167329Y00235688D01*
X00167254Y00235810D01*
X00167169Y00235913D01*
X00167085Y00236007D01*
X00167009Y00236092D01*
X00166934Y00236148D01*
X00166878Y00236195D01*
X00166840Y00236223D01*
X00166831Y00236233D01*
X00166718Y00236308D01*
X00166596Y00236364D01*
X00166483Y00236411D01*
X00166380Y00236449D01*
X00166286Y00236477D01*
X00166220Y00236496D01*
X00166173Y00236505D01*
X00166154D01*
X00165994Y00236524D01*
X00165816Y00236543D01*
X00165628Y00236552D01*
X00165440Y00236562D01*
X00165271Y00236571D01*
D02*
G37*
%LPD*%
G36*
X00165139Y00235481D02*
X00165383D01*
X00165440Y00235472D01*
X00165543D01*
X00165581Y00235462D01*
X00165590D01*
X00165703Y00235443D01*
X00165806Y00235415D01*
X00165891Y00235378D01*
X00165966Y00235340D01*
X00166013Y00235302D01*
X00166060Y00235265D01*
X00166079Y00235246D01*
X00166088Y00235237D01*
X00166145Y00235161D01*
X00166182Y00235077D01*
X00166220Y00235002D01*
X00166239Y00234926D01*
X00166248Y00234851D01*
X00166257Y00234795D01*
Y00234757D01*
Y00234748D01*
X00166248Y00234635D01*
X00166229Y00234532D01*
X00166192Y00234447D01*
X00166164Y00234372D01*
X00166126Y00234306D01*
X00166088Y00234269D01*
X00166070Y00234240D01*
X00166060Y00234231D01*
X00165985Y00234165D01*
X00165900Y00234118D01*
X00165816Y00234081D01*
X00165731Y00234053D01*
X00165647Y00234024D01*
X00165590Y00234015D01*
X00165553Y00234006D01*
X00165496D01*
X00165440Y00233996D01*
X00165149D01*
X00164989Y00233987D01*
X00163729D01*
Y00235490D01*
X00165036D01*
X00165139Y00235481D01*
D02*
G37*
G36*
X00165224Y00232896D02*
X00165336Y00232887D01*
X00165449D01*
X00165543Y00232878D01*
X00165628Y00232868D01*
X00165694Y00232859D01*
X00165759Y00232850D01*
X00165806Y00232840D01*
X00165882Y00232831D01*
X00165929Y00232812D01*
X00165938D01*
X00166032Y00232774D01*
X00166117Y00232727D01*
X00166192Y00232680D01*
X00166248Y00232624D01*
X00166295Y00232586D01*
X00166323Y00232549D01*
X00166342Y00232521D01*
X00166352Y00232511D01*
X00166399Y00232427D01*
X00166436Y00232342D01*
X00166464Y00232267D01*
X00166483Y00232182D01*
X00166493Y00232117D01*
X00166502Y00232060D01*
Y00232022D01*
Y00232013D01*
X00166493Y00231891D01*
X00166474Y00231778D01*
X00166446Y00231684D01*
X00166408Y00231609D01*
X00166370Y00231543D01*
X00166342Y00231496D01*
X00166323Y00231468D01*
X00166314Y00231459D01*
X00166239Y00231393D01*
X00166164Y00231336D01*
X00166079Y00231290D01*
X00166004Y00231252D01*
X00165938Y00231233D01*
X00165882Y00231214D01*
X00165844Y00231205D01*
X00165835D01*
X00165797Y00231196D01*
X00165741D01*
X00165618Y00231186D01*
X00165468Y00231177D01*
X00165318D01*
X00165177Y00231167D01*
X00163729D01*
Y00232906D01*
X00165092D01*
X00165224Y00232896D01*
D02*
G37*
%LPC*%
G36*
X00044918Y00125534D02*
X00043527D01*
X00041009Y00119030D01*
X00042400D01*
X00042936Y00120506D01*
X00045548D01*
X00046112Y00119030D01*
X00047531D01*
X00044918Y00125534D01*
D02*
G37*
%LPD*%
G36*
X00045125Y00121605D02*
X00043330D01*
X00044214Y00124021D01*
X00045125Y00121605D01*
D02*
G37*
%LPC*%
G36*
X00168297Y00300862D02*
X00166907D01*
X00164388Y00294359D01*
X00165779D01*
X00166314Y00295834D01*
X00168927D01*
X00169491Y00294359D01*
X00170910D01*
X00168297Y00300862D01*
D02*
G37*
%LPD*%
G36*
X00168504Y00296933D02*
X00166709D01*
X00167593Y00299349D01*
X00168504Y00296933D01*
D02*
G37*
D10*
X00165518Y00285776D02*
G03*
X00165518Y00285776I-00001250J00000000D01*
G01*
X00172686Y00088706D02*
G03*
X00172686Y00088706I-00001250J00000000D01*
G01*
X00066845Y00106566D02*
G03*
X00066845Y00106566I-00001250J00000000D01*
G01*
Y00177331D02*
G03*
X00066845Y00177331I-00001250J00000000D01*
G01*
Y00248603D02*
G03*
X00066845Y00248603I-00001250J00000000D01*
G01*
X00183256Y00186055D02*
G03*
X00183256Y00186055I-00001250J00000000D01*
G01*
D11*
X00319474Y00266958D02*
G03*
X00319474Y00266958I-00001000J00000000D01*
G01*
D12*
X00435000Y00290000D02*
G03*
X00435000Y00290000I-00025000J00000000D01*
G01*
X00167308Y00288192D02*
G03*
X00167308Y00288192I-00001250J00000000D01*
G01*
X00435000Y00030000D02*
G03*
X00435000Y00030000I-00025000J00000000D01*
G01*
X00055000D02*
G03*
X00055000Y00030000I-00025000J00000000D01*
G01*
Y00290000D02*
G03*
X00055000Y00290000I-00025000J00000000D01*
G01*
X00180750Y00131188D02*
X00204699D01*
X00180750D02*
Y00154436D01*
X00204699Y00131188D02*
Y00154436D01*
X00180750D02*
X00204699D01*
X00022260Y00087337D02*
X00047099D01*
Y00064750D02*
Y00087337D01*
X00022260Y00064750D02*
Y00087337D01*
Y00064750D02*
X00047099D01*
X00193890Y00035706D02*
X00193890Y00057706D01*
X00187890Y00035706D02*
Y00057706D01*
Y00035706D02*
X00193890D01*
X00187890Y00057706D02*
X00193890D01*
X00181176Y00066459D02*
X00182700D01*
X00177112D02*
X00178636D01*
X00169506Y00194055D02*
Y00204055D01*
X00178248D01*
X00199506Y00194055D02*
Y00204055D01*
X00190764D02*
X00199506D01*
X00081978Y00108316D02*
X00087727D01*
X00081978Y00041316D02*
Y00108316D01*
Y00041316D02*
X00087727D01*
X00169906Y00090414D02*
X00200906D01*
X00169906Y00113414D02*
X00200906D01*
X00169906Y00090414D02*
Y00113414D01*
X00200906Y00090414D02*
Y00113414D01*
X00172466Y00141233D02*
X00174244Y00140217D01*
X00172466Y00141233D02*
X00176276Y00142503D01*
X00172466Y00143773D02*
X00176276Y00142503D01*
X00172466Y00143773D02*
X00176276Y00145043D01*
X00174202Y00145965D02*
X00176276Y00145043D01*
X00024666Y00250639D02*
X00027666D01*
X00024666Y00227139D02*
X00027666D01*
X00111734Y00272776D02*
Y00275776D01*
X00088234Y00272776D02*
Y00275776D01*
X00257521Y00289644D02*
Y00292644D01*
X00281021Y00289644D02*
Y00292644D01*
X00082271Y00272776D02*
Y00275776D01*
X00058771Y00272776D02*
Y00275776D01*
X00287024Y00289644D02*
Y00292644D01*
X00310523Y00289644D02*
Y00292644D01*
X00367746Y00282629D02*
X00368668Y00284703D01*
X00366476Y00286439D02*
X00367746Y00282629D01*
X00365206D02*
X00366476Y00286439D01*
X00363936D02*
X00365206Y00282629D01*
X00362920Y00284661D02*
X00363936Y00286439D01*
X00362920Y00296244D02*
X00363936Y00298022D01*
X00365206Y00294212D01*
X00366476Y00298022D01*
X00367746Y00294212D01*
X00368668Y00296285D01*
X00367746Y00305714D02*
X00368668Y00307788D01*
X00366476Y00309524D02*
X00367746Y00305714D01*
X00365206D02*
X00366476Y00309524D01*
X00363936D02*
X00365206Y00305714D01*
X00362920Y00307746D02*
X00363936Y00309524D01*
X00367746Y00271126D02*
X00368668Y00273200D01*
X00366476Y00274936D02*
X00367746Y00271126D01*
X00365206D02*
X00366476Y00274936D01*
X00363936D02*
X00365206Y00271126D01*
X00362920Y00273158D02*
X00363936Y00274936D01*
X00362760Y00261614D02*
X00363682Y00263688D01*
X00364952Y00259878D01*
X00366222Y00263688D01*
X00367492Y00259878D01*
X00368508Y00261656D01*
X00115669Y00268338D02*
X00129409D01*
X00115669D02*
Y00316734D01*
X00128849Y00310726D02*
X00130373D01*
X00124785D02*
X00126309D01*
X00130768Y00278026D02*
X00161768D01*
X00130768Y00268026D02*
X00161768D01*
Y00278026D01*
X00130768Y00268026D02*
Y00278026D01*
X00124625Y00298164D02*
X00125547Y00300238D01*
X00126817Y00296428D01*
X00128087Y00300238D01*
X00129357Y00296428D01*
X00130373Y00298206D01*
X00194310Y00170180D02*
X00195326Y00171958D01*
X00193040Y00173990D02*
X00194310Y00170180D01*
X00191770D02*
X00193040Y00173990D01*
X00190500D02*
X00191770Y00170180D01*
X00189578Y00171916D02*
X00190500Y00173990D01*
X00194310Y00158496D02*
X00195326Y00160274D01*
X00193040Y00162306D02*
X00194310Y00158496D01*
X00191770D02*
X00193040Y00162306D01*
X00190500D02*
X00191770Y00158496D01*
X00189578Y00160232D02*
X00190500Y00162306D01*
X00149070Y00311404D02*
X00150086Y00313182D01*
X00151356Y00309372D01*
X00152626Y00313182D01*
X00153896Y00309372D01*
X00154818Y00311446D01*
X00153134Y00299240D02*
X00154658D01*
X00149070D02*
X00150594D01*
X00081978Y00250354D02*
X00087727D01*
X00081978Y00183354D02*
Y00250354D01*
Y00183354D02*
X00087727D01*
X00010494Y00174822D02*
X00046293D01*
X00010494Y00150168D02*
Y00174822D01*
X00402218Y00179975D02*
X00424768D01*
Y00148714D02*
Y00179975D01*
X00353442Y00313173D02*
X00377860D01*
Y00278828D02*
Y00313173D01*
X00353442Y00278828D02*
X00377860D01*
X00353442D02*
Y00313173D01*
X00402218Y00148714D02*
Y00179975D01*
Y00148714D02*
X00424768D01*
X00319714Y00272568D02*
Y00307568D01*
X00347714Y00272568D02*
Y00307568D01*
X00332190Y00307344D02*
X00335238D01*
X00332190Y00272546D02*
X00335238D01*
X00122801Y00282372D02*
X00124579Y00281356D01*
X00120769Y00280086D02*
X00124579Y00281356D01*
X00120769Y00280086D02*
X00124579Y00278816D01*
X00120769Y00277546D02*
X00124579Y00278816D01*
X00120769Y00277546D02*
X00122843Y00276624D01*
X00046293Y00150168D02*
Y00174822D01*
X00010494Y00150168D02*
X00046293D01*
X00168364Y00213822D02*
Y00237078D01*
Y00213822D02*
X00202669D01*
Y00237078D01*
X00168364D02*
X00202669D01*
X00048000Y00096500D02*
Y00118500D01*
X00002708D02*
X00048000D01*
X00002708Y00074250D02*
X00016013D01*
X00002708D02*
Y00118500D01*
X00016013Y00074250D02*
Y00096500D01*
X00048000D01*
X00129409Y00292455D02*
X00163793D01*
X00129409Y00268338D02*
Y00292455D01*
X00165004Y00245840D02*
Y00285840D01*
X00192004Y00245840D02*
Y00285840D01*
X00165004Y00245840D02*
X00165746D01*
X00165004Y00285840D02*
X00165746D01*
X00191262Y00245840D02*
X00192004D01*
X00191262Y00285840D02*
X00192004D01*
X00362920Y00249464D02*
X00364444D01*
X00366984D02*
X00368508D01*
X00081978Y00112081D02*
X00087727D01*
X00081978D02*
Y00179081D01*
X00087727D01*
X00194328Y00146959D02*
X00195344Y00148737D01*
X00193058Y00150769D02*
X00194328Y00146959D01*
X00191788D02*
X00193058Y00150769D01*
X00190518D02*
X00191788Y00146959D01*
X00189596Y00148696D02*
X00190518Y00150769D01*
X00183804Y00223856D02*
X00185581Y00222840D01*
X00183804Y00223856D02*
X00187614Y00225126D01*
X00183804Y00226396D02*
X00187614Y00225126D01*
X00183804Y00226396D02*
X00187614Y00227666D01*
X00185540Y00228588D02*
X00187614Y00227666D01*
X00174079Y00228428D02*
X00175857Y00227412D01*
X00172047Y00226142D02*
X00175857Y00227412D01*
X00172047Y00226142D02*
X00175857Y00224872D01*
X00172047Y00223602D02*
X00175857Y00224872D01*
X00172047Y00223602D02*
X00174121Y00222680D01*
X00197042Y00228588D02*
X00199116Y00227666D01*
X00195306Y00226396D02*
X00199116Y00227666D01*
X00195306Y00226396D02*
X00199116Y00225126D01*
X00195306Y00223856D02*
X00199116Y00225126D01*
X00195306Y00223856D02*
X00197084Y00222840D01*
X00197526Y00260128D02*
X00250527D01*
X00197526Y00312128D02*
X00250527D01*
X00194582Y00135142D02*
X00195504Y00137216D01*
X00193312Y00138952D02*
X00194582Y00135142D01*
X00192042D02*
X00193312Y00138952D01*
X00190772D02*
X00192042Y00135142D01*
X00189756Y00137174D02*
X00190772Y00138952D01*
X00115669Y00316734D02*
X00163793D01*
Y00292455D02*
Y00316734D01*
D13*
X00178444Y00057120D02*
X00184394D01*
D14*
X00181176Y00062649D02*
Y00070269D01*
X00178636Y00062649D02*
Y00070269D01*
X00128849Y00306916D02*
Y00314536D01*
X00126309Y00306916D02*
Y00314536D01*
X00153134Y00295431D02*
Y00303050D01*
X00150594Y00295431D02*
Y00303050D01*
X00364444Y00245654D02*
Y00253274D01*
X00366984Y00245654D02*
Y00253274D01*
D15*
X00268250Y00049471D02*
X00315240D01*
X00267234Y00049344D02*
X00316129D01*
X00266726Y00049217D02*
X00316764D01*
X00266218Y00049090D02*
X00317272D01*
X00265837Y00048963D02*
X00317653D01*
X00265456Y00048836D02*
X00318034D01*
X00265075Y00048709D02*
X00318415D01*
X00264821Y00048582D02*
X00318669D01*
X00264567Y00048455D02*
X00318923D01*
X00264313Y00048328D02*
X00267996D01*
X00295047D02*
X00319177D01*
X00264059Y00048201D02*
X00267107D01*
X00294920D02*
X00319431D01*
X00263805Y00048074D02*
X00266472D01*
X00294666D02*
X00319685D01*
X00263551Y00047947D02*
X00266091D01*
X00294539D02*
X00319939D01*
X00263297Y00047820D02*
X00265710D01*
X00294412D02*
X00320193D01*
X00263170Y00047693D02*
X00265329D01*
X00294285D02*
X00320320D01*
X00262916Y00047566D02*
X00265075D01*
X00294158D02*
X00320574D01*
X00262789Y00047439D02*
X00264821D01*
X00294031D02*
X00320701D01*
X00262662Y00047312D02*
X00264567D01*
X00293904D02*
X00320955D01*
X00262408Y00047185D02*
X00264313D01*
X00293777D02*
X00321082D01*
X00262281Y00047058D02*
X00264059D01*
X00293650D02*
X00321209D01*
X00262154Y00046931D02*
X00263805D01*
X00293523D02*
X00321336D01*
X00262027Y00046804D02*
X00263678D01*
X00293396D02*
X00321463D01*
X00261773Y00046677D02*
X00263424D01*
X00293269D02*
X00321717D01*
X00261646Y00046550D02*
X00263297D01*
X00293142D02*
X00321844D01*
X00261519Y00046423D02*
X00263170D01*
X00293142D02*
X00321971D01*
X00261392Y00046296D02*
X00262916D01*
X00293015D02*
X00322098D01*
X00261265Y00046169D02*
X00262789D01*
X00292888D02*
X00322225D01*
X00261138Y00046042D02*
X00262662D01*
X00292761D02*
X00322352D01*
X00261011Y00045915D02*
X00262535D01*
X00292634D02*
X00322479D01*
X00260884Y00045788D02*
X00262408D01*
X00292634D02*
X00322606D01*
X00260757Y00045661D02*
X00262154D01*
X00292507D02*
X00322733D01*
X00260757Y00045534D02*
X00262027D01*
X00292380D02*
X00322860D01*
X00260630Y00045407D02*
X00261900D01*
X00292380D02*
X00322860D01*
X00260503Y00045280D02*
X00261773D01*
X00292253D02*
X00322987D01*
X00260376Y00045153D02*
X00261773D01*
X00292126D02*
X00323114D01*
X00260249Y00045026D02*
X00261646D01*
X00292126D02*
X00323241D01*
X00260249Y00044899D02*
X00261519D01*
X00291999D02*
X00323241D01*
X00260122Y00044772D02*
X00261392D01*
X00291872D02*
X00323368D01*
X00259995Y00044645D02*
X00261265D01*
X00291872D02*
X00323495D01*
X00259868Y00044518D02*
X00261138D01*
X00291745D02*
X00323622D01*
X00259868Y00044391D02*
X00261138D01*
X00291745D02*
X00323622D01*
X00259741Y00044264D02*
X00261011D01*
X00291618D02*
X00323749D01*
X00259614Y00044137D02*
X00260884D01*
X00291618D02*
X00323876D01*
X00259614Y00044010D02*
X00260757D01*
X00291491D02*
X00323876D01*
X00259487Y00043883D02*
X00260757D01*
X00291491D02*
X00324003D01*
X00259487Y00043756D02*
X00260630D01*
X00291364D02*
X00324003D01*
X00259360Y00043629D02*
X00260503D01*
X00291364D02*
X00324130D01*
X00259360Y00043502D02*
X00260503D01*
X00291237D02*
X00324257D01*
X00259233Y00043375D02*
X00260376D01*
X00291237D02*
X00324257D01*
X00259233Y00043248D02*
X00260376D01*
X00291237D02*
X00324384D01*
X00259106Y00043121D02*
X00260249D01*
X00291110D02*
X00324384D01*
X00259106Y00042994D02*
X00260249D01*
X00291110D02*
X00324511D01*
X00258979Y00042867D02*
X00260122D01*
X00290983D02*
X00324511D01*
X00258979Y00042740D02*
X00260122D01*
X00290983D02*
X00324511D01*
X00258852Y00042613D02*
X00259995D01*
X00290983D02*
X00324638D01*
X00258852Y00042486D02*
X00259995D01*
X00290856D02*
X00324638D01*
X00258725Y00042359D02*
X00259868D01*
X00267869D02*
X00267996D01*
X00268377D02*
X00270409D01*
X00270663D02*
X00270917D01*
X00281585D02*
X00284760D01*
X00290856D02*
X00294793D01*
X00297968D02*
X00303937D01*
X00305969D02*
X00306223D01*
X00306350D02*
X00306477D01*
X00306731D02*
X00313081D01*
X00315113D02*
X00315240D01*
X00315494D02*
X00324765D01*
X00258725Y00042232D02*
X00259868D01*
X00267869D02*
X00271171D01*
X00281585D02*
X00285014D01*
X00290856D02*
X00294793D01*
X00298095D02*
X00303937D01*
X00306731D02*
X00312827D01*
X00315621D02*
X00324765D01*
X00258725Y00042105D02*
X00259741D01*
X00267869D02*
X00271171D01*
X00281585D02*
X00285014D01*
X00290729D02*
X00294793D01*
X00298095D02*
X00303810D01*
X00306731D02*
X00312827D01*
X00315621D02*
X00324765D01*
X00258598Y00041978D02*
X00259741D01*
X00267869D02*
X00271171D01*
X00281585D02*
X00285014D01*
X00290729D02*
X00294793D01*
X00298095D02*
X00303810D01*
X00306858D02*
X00312827D01*
X00315621D02*
X00324892D01*
X00258598Y00041851D02*
X00259741D01*
X00267869D02*
X00271171D01*
X00281585D02*
X00285014D01*
X00290729D02*
X00294793D01*
X00297968D02*
X00303810D01*
X00306858D02*
X00312700D01*
X00315748D02*
X00324892D01*
X00258598Y00041724D02*
X00259614D01*
X00267869D02*
X00271171D01*
X00281585D02*
X00285014D01*
X00290729D02*
X00294793D01*
X00297968D02*
X00303810D01*
X00306858D02*
X00312700D01*
X00315748D02*
X00325019D01*
X00258471Y00041597D02*
X00259614D01*
X00267869D02*
X00271171D01*
X00281585D02*
X00285014D01*
X00290602D02*
X00294793D01*
X00298095D02*
X00303683D01*
X00306985D02*
X00312700D01*
X00315748D02*
X00325019D01*
X00258471Y00041470D02*
X00259614D01*
X00267869D02*
X00271171D01*
X00281585D02*
X00285014D01*
X00290602D02*
X00294793D01*
X00298095D02*
X00303683D01*
X00306985D02*
X00312573D01*
X00315748D02*
X00325019D01*
X00258471Y00041343D02*
X00259487D01*
X00267869D02*
X00271171D01*
X00281585D02*
X00285014D01*
X00290602D02*
X00294793D01*
X00298095D02*
X00303683D01*
X00306985D02*
X00312573D01*
X00315875D02*
X00325019D01*
X00258344Y00041216D02*
X00259487D01*
X00267869D02*
X00271171D01*
X00281585D02*
X00285014D01*
X00290602D02*
X00294793D01*
X00298095D02*
X00303683D01*
X00306985D02*
X00312573D01*
X00315875D02*
X00325146D01*
X00258344Y00041089D02*
X00259487D01*
X00267869D02*
X00271171D01*
X00281585D02*
X00285014D01*
X00290475D02*
X00294793D01*
X00298095D02*
X00303556D01*
X00307112D02*
X00312573D01*
X00315875D02*
X00325146D01*
X00258344Y00040962D02*
X00259360D01*
X00267869D02*
X00271171D01*
X00281585D02*
X00285014D01*
X00290475D02*
X00294793D01*
X00298095D02*
X00303556D01*
X00307112D02*
X00312446D01*
X00316002D02*
X00325146D01*
X00258344Y00040835D02*
X00259360D01*
X00267869D02*
X00271171D01*
X00281585D02*
X00285014D01*
X00290475D02*
X00294793D01*
X00298095D02*
X00303556D01*
X00307112D02*
X00312446D01*
X00316002D02*
X00325273D01*
X00258217Y00040708D02*
X00259360D01*
X00267869D02*
X00271171D01*
X00281585D02*
X00285014D01*
X00290475D02*
X00294793D01*
X00298095D02*
X00303429D01*
X00307239D02*
X00312446D01*
X00316002D02*
X00325273D01*
X00258217Y00040581D02*
X00259360D01*
X00267869D02*
X00271171D01*
X00281585D02*
X00285014D01*
X00290475D02*
X00294793D01*
X00298095D02*
X00303429D01*
X00307239D02*
X00312319D01*
X00316002D02*
X00325273D01*
X00258217Y00040454D02*
X00259233D01*
X00267869D02*
X00271171D01*
X00281585D02*
X00285014D01*
X00290348D02*
X00294793D01*
X00298095D02*
X00303429D01*
X00307239D02*
X00312319D01*
X00316129D02*
X00325273D01*
X00258217Y00040327D02*
X00259233D01*
X00267869D02*
X00271171D01*
X00281585D02*
X00285014D01*
X00290348D02*
X00294793D01*
X00298095D02*
X00303429D01*
X00307239D02*
X00312319D01*
X00316129D02*
X00325273D01*
X00258217Y00040200D02*
X00259233D01*
X00267869D02*
X00271171D01*
X00281585D02*
X00285014D01*
X00290348D02*
X00294793D01*
X00298095D02*
X00303302D01*
X00307366D02*
X00312319D01*
X00316129D02*
X00325400D01*
X00258090Y00040073D02*
X00259233D01*
X00267869D02*
X00271171D01*
X00281585D02*
X00285014D01*
X00290348D02*
X00294793D01*
X00298095D02*
X00303302D01*
X00307366D02*
X00312192D01*
X00316129D02*
X00325400D01*
X00258090Y00039946D02*
X00259233D01*
X00267869D02*
X00271171D01*
X00281585D02*
X00285014D01*
X00290348D02*
X00294793D01*
X00298095D02*
X00303302D01*
X00307366D02*
X00312192D01*
X00316256D02*
X00325400D01*
X00258090Y00039819D02*
X00259106D01*
X00267869D02*
X00271171D01*
X00281585D02*
X00285014D01*
X00290348D02*
X00294793D01*
X00298095D02*
X00303302D01*
X00307493D02*
X00312192D01*
X00316256D02*
X00325400D01*
X00258090Y00039692D02*
X00259106D01*
X00267869D02*
X00271171D01*
X00281585D02*
X00285014D01*
X00290348D02*
X00294793D01*
X00298095D02*
X00303175D01*
X00307493D02*
X00312065D01*
X00316256D02*
X00325400D01*
X00258090Y00039565D02*
X00259106D01*
X00267869D02*
X00271171D01*
X00281585D02*
X00285014D01*
X00290348D02*
X00294793D01*
X00298095D02*
X00303175D01*
X00307493D02*
X00312065D01*
X00316256D02*
X00325400D01*
X00258090Y00039438D02*
X00259106D01*
X00267869D02*
X00271171D01*
X00281585D02*
X00285014D01*
X00290221D02*
X00294793D01*
X00298095D02*
X00303175D01*
X00307620D02*
X00312065D01*
X00316383D02*
X00325400D01*
X00257963Y00039311D02*
X00259106D01*
X00267869D02*
X00271171D01*
X00281585D02*
X00285014D01*
X00290221D02*
X00294793D01*
X00298095D02*
X00303175D01*
X00307620D02*
X00312065D01*
X00316383D02*
X00325527D01*
X00257963Y00039184D02*
X00259106D01*
X00267869D02*
X00271171D01*
X00281585D02*
X00285014D01*
X00290221D02*
X00294793D01*
X00298095D02*
X00303048D01*
X00307620D02*
X00311938D01*
X00316383D02*
X00325527D01*
X00257963Y00039057D02*
X00259106D01*
X00267869D02*
X00271171D01*
X00281585D02*
X00285014D01*
X00290221D02*
X00294793D01*
X00298095D02*
X00303048D01*
X00307620D02*
X00311938D01*
X00316510D02*
X00325527D01*
X00257963Y00038930D02*
X00259106D01*
X00267869D02*
X00271171D01*
X00281585D02*
X00285014D01*
X00290221D02*
X00294793D01*
X00298095D02*
X00303048D01*
X00307747D02*
X00311938D01*
X00316510D02*
X00325527D01*
X00257963Y00038803D02*
X00259106D01*
X00267869D02*
X00271171D01*
X00281585D02*
X00285014D01*
X00290221D02*
X00294793D01*
X00298095D02*
X00303048D01*
X00307747D02*
X00311811D01*
X00316510D02*
X00325527D01*
X00257963Y00038676D02*
X00259106D01*
X00267869D02*
X00271171D01*
X00281585D02*
X00285014D01*
X00290221D02*
X00294793D01*
X00298095D02*
X00302921D01*
X00307747D02*
X00311811D01*
X00316510D02*
X00325527D01*
X00257963Y00038549D02*
X00259106D01*
X00267869D02*
X00271171D01*
X00281585D02*
X00285014D01*
X00290221D02*
X00294793D01*
X00298095D02*
X00302921D01*
X00307874D02*
X00311811D01*
X00316637D02*
X00325527D01*
X00257963Y00038422D02*
X00259106D01*
X00267869D02*
X00271171D01*
X00281585D02*
X00285014D01*
X00290221D02*
X00294793D01*
X00298095D02*
X00302921D01*
X00307874D02*
X00311811D01*
X00316637D02*
X00325527D01*
X00257963Y00038295D02*
X00259106D01*
X00267869D02*
X00271171D01*
X00281585D02*
X00285014D01*
X00290221D02*
X00294793D01*
X00298095D02*
X00302794D01*
X00307874D02*
X00311684D01*
X00316637D02*
X00325527D01*
X00257963Y00038168D02*
X00259106D01*
X00267869D02*
X00271171D01*
X00281585D02*
X00285014D01*
X00290221D02*
X00294793D01*
X00298095D02*
X00302794D01*
X00307874D02*
X00311684D01*
X00316637D02*
X00325527D01*
X00257963Y00038041D02*
X00259106D01*
X00267869D02*
X00271171D01*
X00281585D02*
X00285014D01*
X00290221D02*
X00294793D01*
X00298095D02*
X00302794D01*
X00308001D02*
X00311684D01*
X00316764D02*
X00325527D01*
X00257963Y00037914D02*
X00259106D01*
X00267869D02*
X00271171D01*
X00281585D02*
X00285014D01*
X00290221D02*
X00294793D01*
X00298095D02*
X00302794D01*
X00308001D02*
X00311557D01*
X00316764D02*
X00325527D01*
X00257963Y00037787D02*
X00259106D01*
X00267869D02*
X00271171D01*
X00281585D02*
X00285014D01*
X00290221D02*
X00294793D01*
X00298095D02*
X00302667D01*
X00308001D02*
X00311557D01*
X00316764D02*
X00325527D01*
X00257963Y00037660D02*
X00259106D01*
X00267869D02*
X00271171D01*
X00281585D02*
X00285014D01*
X00290221D02*
X00294793D01*
X00298095D02*
X00302667D01*
X00308001D02*
X00311557D01*
X00316764D02*
X00325527D01*
X00257963Y00037533D02*
X00259106D01*
X00267869D02*
X00271171D01*
X00281585D02*
X00285014D01*
X00290221D02*
X00294793D01*
X00298095D02*
X00302667D01*
X00308128D02*
X00311557D01*
X00316891D02*
X00325527D01*
X00257963Y00037406D02*
X00259106D01*
X00267869D02*
X00271171D01*
X00281585D02*
X00285014D01*
X00290221D02*
X00294793D01*
X00298095D02*
X00302667D01*
X00308128D02*
X00311430D01*
X00316891D02*
X00325527D01*
X00257963Y00037279D02*
X00259106D01*
X00267869D02*
X00271171D01*
X00281585D02*
X00285014D01*
X00290221D02*
X00294793D01*
X00298095D02*
X00302540D01*
X00308128D02*
X00311430D01*
X00316891D02*
X00325527D01*
X00257963Y00037152D02*
X00259106D01*
X00267869D02*
X00271171D01*
X00281585D02*
X00285014D01*
X00290221D02*
X00294793D01*
X00298095D02*
X00302540D01*
X00308255D02*
X00311430D01*
X00317018D02*
X00325527D01*
X00257963Y00037025D02*
X00259106D01*
X00267869D02*
X00271171D01*
X00281585D02*
X00285014D01*
X00290221D02*
X00294793D01*
X00298095D02*
X00302540D01*
X00308255D02*
X00311303D01*
X00317018D02*
X00325527D01*
X00257963Y00036898D02*
X00259106D01*
X00267869D02*
X00271171D01*
X00281585D02*
X00285014D01*
X00290221D02*
X00294793D01*
X00298095D02*
X00302540D01*
X00305334D02*
X00305461D01*
X00308255D02*
X00311303D01*
X00317018D02*
X00325527D01*
X00257963Y00036771D02*
X00259106D01*
X00267869D02*
X00271171D01*
X00281585D02*
X00285014D01*
X00290221D02*
X00294793D01*
X00298095D02*
X00302413D01*
X00305334D02*
X00305461D01*
X00308382D02*
X00311303D01*
X00317018D02*
X00325527D01*
X00257963Y00036644D02*
X00259106D01*
X00267869D02*
X00271171D01*
X00281585D02*
X00285014D01*
X00290221D02*
X00294793D01*
X00298095D02*
X00302413D01*
X00305207D02*
X00305461D01*
X00308382D02*
X00311176D01*
X00317145D02*
X00325527D01*
X00257963Y00036517D02*
X00259106D01*
X00267869D02*
X00271171D01*
X00281585D02*
X00285014D01*
X00290221D02*
X00294793D01*
X00298095D02*
X00302413D01*
X00305207D02*
X00305461D01*
X00308382D02*
X00311176D01*
X00313970D02*
X00314097D01*
X00317145D02*
X00325527D01*
X00257963Y00036390D02*
X00259106D01*
X00267869D02*
X00271171D01*
X00281585D02*
X00285014D01*
X00290221D02*
X00294793D01*
X00298095D02*
X00302413D01*
X00305207D02*
X00305588D01*
X00308382D02*
X00311176D01*
X00313970D02*
X00314224D01*
X00317145D02*
X00325527D01*
X00257963Y00036263D02*
X00259106D01*
X00267869D02*
X00271171D01*
X00273965D02*
X00285014D01*
X00290221D02*
X00294793D01*
X00298095D02*
X00302286D01*
X00305207D02*
X00305588D01*
X00308509D02*
X00311176D01*
X00313970D02*
X00314224D01*
X00317145D02*
X00325527D01*
X00257963Y00036136D02*
X00259106D01*
X00267869D02*
X00271171D01*
X00273965D02*
X00285014D01*
X00290221D02*
X00294793D01*
X00298095D02*
X00302286D01*
X00305080D02*
X00305588D01*
X00308509D02*
X00311049D01*
X00313843D02*
X00314224D01*
X00317272D02*
X00325527D01*
X00257963Y00036009D02*
X00259106D01*
X00267869D02*
X00271171D01*
X00273965D02*
X00285014D01*
X00290221D02*
X00294793D01*
X00298095D02*
X00302286D01*
X00305080D02*
X00305715D01*
X00308509D02*
X00311049D01*
X00313843D02*
X00314224D01*
X00317272D02*
X00325527D01*
X00257963Y00035882D02*
X00259106D01*
X00267869D02*
X00271171D01*
X00273965D02*
X00285014D01*
X00290221D02*
X00294793D01*
X00298095D02*
X00302159D01*
X00305080D02*
X00305715D01*
X00308636D02*
X00311049D01*
X00313843D02*
X00314351D01*
X00317272D02*
X00325527D01*
X00257963Y00035755D02*
X00259106D01*
X00267869D02*
X00271171D01*
X00273965D02*
X00285014D01*
X00290221D02*
X00294793D01*
X00298095D02*
X00302159D01*
X00305080D02*
X00305715D01*
X00308636D02*
X00310922D01*
X00313843D02*
X00314351D01*
X00317399D02*
X00325527D01*
X00257963Y00035628D02*
X00259106D01*
X00267869D02*
X00271171D01*
X00273965D02*
X00285014D01*
X00290221D02*
X00294793D01*
X00298095D02*
X00302159D01*
X00305080D02*
X00305715D01*
X00308636D02*
X00310922D01*
X00313716D02*
X00314351D01*
X00317399D02*
X00325527D01*
X00257963Y00035501D02*
X00259106D01*
X00267869D02*
X00271171D01*
X00273965D02*
X00285014D01*
X00290221D02*
X00294793D01*
X00298095D02*
X00302159D01*
X00304953D02*
X00305842D01*
X00308636D02*
X00310922D01*
X00313716D02*
X00314351D01*
X00317399D02*
X00325527D01*
X00257963Y00035374D02*
X00259106D01*
X00267869D02*
X00271171D01*
X00273965D02*
X00285014D01*
X00290221D02*
X00294793D01*
X00298095D02*
X00302032D01*
X00304953D02*
X00305842D01*
X00308763D02*
X00310922D01*
X00313716D02*
X00314351D01*
X00317399D02*
X00325527D01*
X00257963Y00035247D02*
X00259106D01*
X00267869D02*
X00271171D01*
X00273965D02*
X00285014D01*
X00290221D02*
X00294793D01*
X00298095D02*
X00302032D01*
X00304953D02*
X00305842D01*
X00308763D02*
X00310795D01*
X00313589D02*
X00314478D01*
X00317526D02*
X00325527D01*
X00257963Y00035120D02*
X00259106D01*
X00267869D02*
X00271171D01*
X00273965D02*
X00285014D01*
X00290221D02*
X00294793D01*
X00298095D02*
X00302032D01*
X00304953D02*
X00305842D01*
X00308763D02*
X00310795D01*
X00313589D02*
X00314478D01*
X00317526D02*
X00325527D01*
X00257963Y00034993D02*
X00259106D01*
X00267869D02*
X00271171D01*
X00273965D02*
X00285014D01*
X00290221D02*
X00294793D01*
X00298095D02*
X00302032D01*
X00304826D02*
X00305969D01*
X00308890D02*
X00310795D01*
X00313589D02*
X00314478D01*
X00317526D02*
X00325527D01*
X00257963Y00034866D02*
X00259106D01*
X00267869D02*
X00271171D01*
X00273965D02*
X00285014D01*
X00290221D02*
X00294793D01*
X00298095D02*
X00301905D01*
X00304826D02*
X00305969D01*
X00308890D02*
X00310668D01*
X00313462D02*
X00314478D01*
X00317526D02*
X00325527D01*
X00257963Y00034739D02*
X00259106D01*
X00267869D02*
X00271171D01*
X00273965D02*
X00285014D01*
X00290221D02*
X00294793D01*
X00298095D02*
X00301905D01*
X00304826D02*
X00305969D01*
X00308890D02*
X00310668D01*
X00313462D02*
X00314605D01*
X00317653D02*
X00325527D01*
X00257963Y00034612D02*
X00259106D01*
X00267869D02*
X00271171D01*
X00273965D02*
X00285014D01*
X00290221D02*
X00294793D01*
X00298095D02*
X00301905D01*
X00304826D02*
X00306096D01*
X00308890D02*
X00310668D01*
X00313462D02*
X00314605D01*
X00317653D02*
X00325527D01*
X00257963Y00034485D02*
X00259106D01*
X00267869D02*
X00271171D01*
X00273965D02*
X00285014D01*
X00290221D02*
X00294793D01*
X00298095D02*
X00301905D01*
X00304699D02*
X00306096D01*
X00309017D02*
X00310668D01*
X00313462D02*
X00314605D01*
X00317653D02*
X00325527D01*
X00257963Y00034358D02*
X00259106D01*
X00267869D02*
X00271171D01*
X00273965D02*
X00285014D01*
X00290221D02*
X00294793D01*
X00298095D02*
X00301778D01*
X00304699D02*
X00306096D01*
X00309017D02*
X00310541D01*
X00313335D02*
X00314605D01*
X00317653D02*
X00325527D01*
X00257963Y00034231D02*
X00259106D01*
X00267869D02*
X00271171D01*
X00273965D02*
X00285014D01*
X00290221D02*
X00294793D01*
X00298095D02*
X00301778D01*
X00304699D02*
X00306223D01*
X00309017D02*
X00310541D01*
X00313335D02*
X00314605D01*
X00317780D02*
X00325527D01*
X00257963Y00034104D02*
X00259106D01*
X00267869D02*
X00271171D01*
X00273965D02*
X00285014D01*
X00290221D02*
X00294793D01*
X00298095D02*
X00301778D01*
X00304699D02*
X00306223D01*
X00309144D02*
X00310541D01*
X00313335D02*
X00314732D01*
X00317780D02*
X00325527D01*
X00257963Y00033977D02*
X00259106D01*
X00267869D02*
X00271171D01*
X00273965D02*
X00285014D01*
X00290221D02*
X00294793D01*
X00298095D02*
X00301778D01*
X00304699D02*
X00306223D01*
X00309144D02*
X00310414D01*
X00313208D02*
X00314732D01*
X00317780D02*
X00325527D01*
X00257963Y00033850D02*
X00259106D01*
X00267869D02*
X00271171D01*
X00273965D02*
X00285014D01*
X00290221D02*
X00294793D01*
X00298095D02*
X00301651D01*
X00304572D02*
X00306223D01*
X00309144D02*
X00310414D01*
X00313208D02*
X00314732D01*
X00317907D02*
X00325527D01*
X00257963Y00033723D02*
X00259106D01*
X00267869D02*
X00271171D01*
X00273965D02*
X00285014D01*
X00290221D02*
X00294793D01*
X00298095D02*
X00301651D01*
X00304572D02*
X00306350D01*
X00309144D02*
X00310414D01*
X00313208D02*
X00314732D01*
X00317907D02*
X00325527D01*
X00257963Y00033596D02*
X00259106D01*
X00267869D02*
X00271171D01*
X00273965D02*
X00285014D01*
X00290221D02*
X00294793D01*
X00298095D02*
X00301651D01*
X00304572D02*
X00306350D01*
X00309271D02*
X00310414D01*
X00313208D02*
X00314859D01*
X00317907D02*
X00325527D01*
X00257963Y00033469D02*
X00259106D01*
X00267869D02*
X00271171D01*
X00273965D02*
X00285014D01*
X00290221D02*
X00294793D01*
X00298095D02*
X00301524D01*
X00304572D02*
X00306350D01*
X00309271D02*
X00310287D01*
X00313081D02*
X00314859D01*
X00317907D02*
X00325527D01*
X00257963Y00033342D02*
X00259106D01*
X00267869D02*
X00271171D01*
X00273965D02*
X00285014D01*
X00290221D02*
X00294793D01*
X00298095D02*
X00301524D01*
X00304445D02*
X00306477D01*
X00309271D02*
X00310287D01*
X00313081D02*
X00314859D01*
X00318034D02*
X00325527D01*
X00257963Y00033215D02*
X00259106D01*
X00267869D02*
X00271171D01*
X00273965D02*
X00285014D01*
X00290221D02*
X00294793D01*
X00298095D02*
X00301524D01*
X00304445D02*
X00306477D01*
X00309398D02*
X00310287D01*
X00313081D02*
X00314859D01*
X00318034D02*
X00325527D01*
X00257963Y00033088D02*
X00259106D01*
X00267869D02*
X00271171D01*
X00281585D02*
X00285014D01*
X00290221D02*
X00294793D01*
X00298095D02*
X00301524D01*
X00304445D02*
X00306477D01*
X00309398D02*
X00310160D01*
X00312954D02*
X00314859D01*
X00318034D02*
X00325527D01*
X00257963Y00032961D02*
X00259106D01*
X00267869D02*
X00271171D01*
X00281585D02*
X00285014D01*
X00290221D02*
X00294793D01*
X00298095D02*
X00301397D01*
X00304445D02*
X00306477D01*
X00309398D02*
X00310160D01*
X00312954D02*
X00314986D01*
X00318034D02*
X00325527D01*
X00257963Y00032834D02*
X00259106D01*
X00267869D02*
X00271171D01*
X00281585D02*
X00285014D01*
X00290221D02*
X00294793D01*
X00298095D02*
X00301397D01*
X00304318D02*
X00306604D01*
X00309398D02*
X00310160D01*
X00312954D02*
X00314986D01*
X00318161D02*
X00325527D01*
X00257963Y00032707D02*
X00259106D01*
X00267869D02*
X00271171D01*
X00281585D02*
X00285014D01*
X00290221D02*
X00294793D01*
X00298095D02*
X00301397D01*
X00304318D02*
X00306604D01*
X00309525D02*
X00310160D01*
X00312827D02*
X00314986D01*
X00318161D02*
X00325527D01*
X00257963Y00032580D02*
X00259106D01*
X00267869D02*
X00271171D01*
X00281585D02*
X00285014D01*
X00290221D02*
X00294793D01*
X00298095D02*
X00301397D01*
X00304318D02*
X00306604D01*
X00309525D02*
X00310033D01*
X00312827D02*
X00314986D01*
X00318161D02*
X00325527D01*
X00257963Y00032453D02*
X00259106D01*
X00267869D02*
X00271171D01*
X00281585D02*
X00285014D01*
X00290221D02*
X00294793D01*
X00297968D02*
X00301270D01*
X00304318D02*
X00306731D01*
X00309525D02*
X00310033D01*
X00312827D02*
X00315113D01*
X00318288D02*
X00325527D01*
X00257963Y00032326D02*
X00259106D01*
X00267869D02*
X00271171D01*
X00281585D02*
X00285014D01*
X00290221D02*
X00294793D01*
X00298095D02*
X00301270D01*
X00304318D02*
X00306731D01*
X00309652D02*
X00310033D01*
X00312827D02*
X00315113D01*
X00318288D02*
X00325527D01*
X00257963Y00032199D02*
X00259106D01*
X00267869D02*
X00271171D01*
X00281585D02*
X00285014D01*
X00290221D02*
X00294793D01*
X00298095D02*
X00301270D01*
X00304191D02*
X00306731D01*
X00309652D02*
X00309906D01*
X00312700D02*
X00315113D01*
X00318288D02*
X00325527D01*
X00257963Y00032072D02*
X00259106D01*
X00267869D02*
X00271171D01*
X00281585D02*
X00285014D01*
X00290221D02*
X00294793D01*
X00298095D02*
X00301270D01*
X00304191D02*
X00306731D01*
X00309652D02*
X00309906D01*
X00312700D02*
X00315113D01*
X00318288D02*
X00325527D01*
X00257963Y00031945D02*
X00259106D01*
X00267869D02*
X00271171D01*
X00281585D02*
X00285014D01*
X00290221D02*
X00294793D01*
X00298095D02*
X00301143D01*
X00304191D02*
X00306858D01*
X00309652D02*
X00309906D01*
X00312700D02*
X00315113D01*
X00318415D02*
X00325527D01*
X00257963Y00031818D02*
X00259106D01*
X00267869D02*
X00271171D01*
X00281585D02*
X00285014D01*
X00290221D02*
X00294793D01*
X00298095D02*
X00301143D01*
X00304191D02*
X00306858D01*
X00309779D02*
X00309906D01*
X00312573D02*
X00315240D01*
X00318415D02*
X00325527D01*
X00257963Y00031691D02*
X00259106D01*
X00281585D02*
X00285014D01*
X00290221D02*
X00301143D01*
X00304064D02*
X00306858D01*
X00312573D02*
X00315240D01*
X00318415D02*
X00325527D01*
X00257963Y00031564D02*
X00259106D01*
X00281585D02*
X00285014D01*
X00290221D02*
X00301016D01*
X00304064D02*
X00306858D01*
X00312573D02*
X00315240D01*
X00318415D02*
X00325527D01*
X00257963Y00031437D02*
X00259106D01*
X00281585D02*
X00285014D01*
X00290221D02*
X00301016D01*
X00304064D02*
X00306985D01*
X00312446D02*
X00315240D01*
X00318542D02*
X00325527D01*
X00257963Y00031310D02*
X00259106D01*
X00281585D02*
X00285014D01*
X00290221D02*
X00301016D01*
X00304064D02*
X00306985D01*
X00312446D02*
X00315367D01*
X00318542D02*
X00325527D01*
X00257963Y00031183D02*
X00259106D01*
X00281585D02*
X00285014D01*
X00290221D02*
X00301016D01*
X00303937D02*
X00306985D01*
X00312446D02*
X00315367D01*
X00318542D02*
X00325527D01*
X00257963Y00031056D02*
X00259106D01*
X00281585D02*
X00285014D01*
X00290221D02*
X00300889D01*
X00303937D02*
X00307112D01*
X00312446D02*
X00315367D01*
X00318542D02*
X00325527D01*
X00257963Y00030929D02*
X00259106D01*
X00281585D02*
X00285014D01*
X00290221D02*
X00300889D01*
X00303937D02*
X00307112D01*
X00312319D02*
X00315367D01*
X00318669D02*
X00325527D01*
X00257963Y00030802D02*
X00259106D01*
X00281585D02*
X00285014D01*
X00290221D02*
X00300889D01*
X00303937D02*
X00307112D01*
X00312319D02*
X00315494D01*
X00318669D02*
X00325527D01*
X00257963Y00030675D02*
X00259106D01*
X00281585D02*
X00285014D01*
X00290221D02*
X00300889D01*
X00303810D02*
X00307112D01*
X00312319D02*
X00315494D01*
X00318669D02*
X00325527D01*
X00257963Y00030548D02*
X00259106D01*
X00281585D02*
X00285014D01*
X00290221D02*
X00300762D01*
X00303810D02*
X00307239D01*
X00312192D02*
X00315494D01*
X00318796D02*
X00325527D01*
X00257963Y00030421D02*
X00259106D01*
X00281585D02*
X00285014D01*
X00290221D02*
X00300762D01*
X00303810D02*
X00307239D01*
X00312192D02*
X00315494D01*
X00318796D02*
X00325527D01*
X00257963Y00030294D02*
X00259106D01*
X00269520D02*
X00269647D01*
X00281585D02*
X00285014D01*
X00290221D02*
X00296444D01*
X00296571D02*
X00300762D01*
X00303810D02*
X00307239D01*
X00312192D02*
X00315494D01*
X00318796D02*
X00325527D01*
X00257963Y00030167D02*
X00259106D01*
X00268758D02*
X00270155D01*
X00281585D02*
X00285014D01*
X00290221D02*
X00295682D01*
X00297079D02*
X00300762D01*
X00303810D02*
X00307366D01*
X00312192D02*
X00315621D01*
X00318796D02*
X00325527D01*
X00257963Y00030040D02*
X00259106D01*
X00268504D02*
X00270536D01*
X00281585D02*
X00285014D01*
X00290221D02*
X00295428D01*
X00297333D02*
X00300635D01*
X00303683D02*
X00307366D01*
X00312065D02*
X00315621D01*
X00318923D02*
X00325527D01*
X00258090Y00029913D02*
X00259106D01*
X00268377D02*
X00270663D01*
X00273457D02*
X00285014D01*
X00290221D02*
X00295174D01*
X00297587D02*
X00300635D01*
X00303683D02*
X00307366D01*
X00312065D02*
X00315621D01*
X00318923D02*
X00325400D01*
X00258090Y00029786D02*
X00259106D01*
X00268123D02*
X00270790D01*
X00273330D02*
X00285014D01*
X00290221D02*
X00295047D01*
X00297714D02*
X00300635D01*
X00303683D02*
X00307366D01*
X00312065D02*
X00315621D01*
X00318923D02*
X00325400D01*
X00258090Y00029659D02*
X00259106D01*
X00267996D02*
X00270917D01*
X00273457D02*
X00285014D01*
X00290094D02*
X00294920D01*
X00297841D02*
X00300635D01*
X00303683D02*
X00307493D01*
X00311938D02*
X00315748D01*
X00318923D02*
X00325400D01*
X00258090Y00029532D02*
X00259106D01*
X00267996D02*
X00271044D01*
X00273457D02*
X00285014D01*
X00290094D02*
X00294920D01*
X00297968D02*
X00300508D01*
X00303683D02*
X00307493D01*
X00311938D02*
X00315748D01*
X00319050D02*
X00325400D01*
X00258090Y00029405D02*
X00259233D01*
X00267869D02*
X00271171D01*
X00273457D02*
X00285014D01*
X00290094D02*
X00294793D01*
X00298095D02*
X00300508D01*
X00303556D02*
X00307493D01*
X00311938D02*
X00315748D01*
X00319050D02*
X00325400D01*
X00258090Y00029278D02*
X00259233D01*
X00267742D02*
X00271171D01*
X00273457D02*
X00285014D01*
X00290094D02*
X00294666D01*
X00298095D02*
X00300508D01*
X00303556D02*
X00307620D01*
X00311811D02*
X00315748D01*
X00319050D02*
X00325400D01*
X00258090Y00029151D02*
X00259233D01*
X00267742D02*
X00271298D01*
X00273457D02*
X00285014D01*
X00290094D02*
X00294666D01*
X00298222D02*
X00300381D01*
X00303556D02*
X00307620D01*
X00311811D02*
X00315748D01*
X00319050D02*
X00325400D01*
X00258217Y00029024D02*
X00259233D01*
X00267742D02*
X00271298D01*
X00273457D02*
X00285014D01*
X00290094D02*
X00294539D01*
X00298222D02*
X00300381D01*
X00303556D02*
X00307620D01*
X00311811D02*
X00315875D01*
X00319177D02*
X00325273D01*
X00258217Y00028897D02*
X00259233D01*
X00267615D02*
X00271298D01*
X00273457D02*
X00285014D01*
X00290094D02*
X00294539D01*
X00298222D02*
X00300381D01*
X00303429D02*
X00307620D01*
X00311811D02*
X00315875D01*
X00319177D02*
X00325273D01*
X00258217Y00028770D02*
X00259360D01*
X00267615D02*
X00271425D01*
X00273457D02*
X00285014D01*
X00289967D02*
X00294539D01*
X00298222D02*
X00300381D01*
X00303429D02*
X00307747D01*
X00311684D02*
X00315875D01*
X00319177D02*
X00325273D01*
X00258217Y00028643D02*
X00259360D01*
X00267615D02*
X00271425D01*
X00273457D02*
X00285014D01*
X00289967D02*
X00294539D01*
X00298349D02*
X00300254D01*
X00303429D02*
X00307747D01*
X00311684D02*
X00315875D01*
X00319304D02*
X00325273D01*
X00258217Y00028516D02*
X00259360D01*
X00267615D02*
X00271425D01*
X00273457D02*
X00285014D01*
X00289967D02*
X00294539D01*
X00298349D02*
X00300254D01*
X00303429D02*
X00307747D01*
X00311684D02*
X00316002D01*
X00319304D02*
X00325273D01*
X00258344Y00028389D02*
X00259360D01*
X00267615D02*
X00271425D01*
X00273457D02*
X00285014D01*
X00289967D02*
X00294412D01*
X00298349D02*
X00300254D01*
X00303302D02*
X00307874D01*
X00311557D02*
X00316002D01*
X00319304D02*
X00325146D01*
X00258344Y00028262D02*
X00259487D01*
X00267615D02*
X00271425D01*
X00273457D02*
X00285014D01*
X00289840D02*
X00294539D01*
X00298349D02*
X00300254D01*
X00303302D02*
X00307874D01*
X00311557D02*
X00316002D01*
X00319304D02*
X00325146D01*
X00258344Y00028135D02*
X00259487D01*
X00267615D02*
X00271425D01*
X00273457D02*
X00285014D01*
X00289840D02*
X00294539D01*
X00298349D02*
X00300127D01*
X00303302D02*
X00307874D01*
X00311557D02*
X00316002D01*
X00319431D02*
X00325146D01*
X00258471Y00028008D02*
X00259487D01*
X00267615D02*
X00271425D01*
X00273457D02*
X00285014D01*
X00289840D02*
X00294539D01*
X00298349D02*
X00300127D01*
X00303302D02*
X00307874D01*
X00311557D02*
X00316002D01*
X00319431D02*
X00325146D01*
X00258471Y00027881D02*
X00259487D01*
X00267615D02*
X00271298D01*
X00273457D02*
X00285014D01*
X00289840D02*
X00294539D01*
X00298222D02*
X00300127D01*
X00303175D02*
X00308001D01*
X00311430D02*
X00316129D01*
X00319431D02*
X00325019D01*
X00258471Y00027754D02*
X00259614D01*
X00267615D02*
X00271298D01*
X00273457D02*
X00285014D01*
X00289713D02*
X00294539D01*
X00298222D02*
X00300127D01*
X00303175D02*
X00308001D01*
X00311430D02*
X00316129D01*
X00319431D02*
X00325019D01*
X00258471Y00027627D02*
X00259614D01*
X00267742D02*
X00271298D01*
X00273457D02*
X00285014D01*
X00289713D02*
X00294666D01*
X00298222D02*
X00300000D01*
X00303175D02*
X00308001D01*
X00311430D02*
X00316129D01*
X00319558D02*
X00325019D01*
X00258598Y00027500D02*
X00259741D01*
X00267742D02*
X00271171D01*
X00273457D02*
X00285014D01*
X00289713D02*
X00294666D01*
X00298095D02*
X00300000D01*
X00303175D02*
X00308128D01*
X00311303D02*
X00316129D01*
X00319558D02*
X00324892D01*
X00258598Y00027373D02*
X00259741D01*
X00267869D02*
X00271171D01*
X00273457D02*
X00285014D01*
X00289586D02*
X00294793D01*
X00298095D02*
X00300000D01*
X00303175D02*
X00308128D01*
X00311303D02*
X00316256D01*
X00319558D02*
X00324892D01*
X00258725Y00027246D02*
X00259741D01*
X00267996D02*
X00271044D01*
X00273457D02*
X00285014D01*
X00289586D02*
X00294793D01*
X00297968D02*
X00300000D01*
X00303048D02*
X00308128D01*
X00311303D02*
X00316256D01*
X00319558D02*
X00324892D01*
X00258725Y00027119D02*
X00259868D01*
X00267996D02*
X00270917D01*
X00273330D02*
X00285014D01*
X00289459D02*
X00294920D01*
X00297841D02*
X00299873D01*
X00303048D02*
X00308128D01*
X00311176D02*
X00316256D01*
X00319685D02*
X00324765D01*
X00258725Y00026992D02*
X00259868D01*
X00268123D02*
X00270790D01*
X00273457D02*
X00285014D01*
X00289459D02*
X00295047D01*
X00297714D02*
X00299873D01*
X00303048D02*
X00308255D01*
X00311176D02*
X00316256D01*
X00319685D02*
X00324765D01*
X00258852Y00026865D02*
X00259995D01*
X00268250D02*
X00270663D01*
X00289459D02*
X00295174D01*
X00297587D02*
X00299873D01*
X00300000D02*
X00300127D01*
X00302921D02*
X00308255D01*
X00308382D02*
X00308636D01*
X00308763D02*
X00308890D01*
X00311176D02*
X00316637D01*
X00316764D02*
X00317018D01*
X00319304D02*
X00319431D01*
X00319558D02*
X00324638D01*
X00258852Y00026738D02*
X00259995D01*
X00268504D02*
X00270536D01*
X00289332D02*
X00295428D01*
X00297460D02*
X00324638D01*
X00258979Y00026611D02*
X00259995D01*
X00268758D02*
X00270282D01*
X00289332D02*
X00295682D01*
X00297206D02*
X00324638D01*
X00258979Y00026484D02*
X00260122D01*
X00269266D02*
X00269774D01*
X00289205D02*
X00296063D01*
X00296698D02*
X00324511D01*
X00258979Y00026357D02*
X00260122D01*
X00289205D02*
X00324511D01*
X00259106Y00026230D02*
X00260249D01*
X00289078D02*
X00324384D01*
X00259106Y00026103D02*
X00260376D01*
X00289078D02*
X00324384D01*
X00259233Y00025976D02*
X00260376D01*
X00288951D02*
X00324257D01*
X00259233Y00025849D02*
X00260503D01*
X00288951D02*
X00324257D01*
X00259360Y00025722D02*
X00260503D01*
X00288824D02*
X00324130D01*
X00259487Y00025595D02*
X00260630D01*
X00288824D02*
X00324130D01*
X00259487Y00025468D02*
X00260757D01*
X00288697D02*
X00324003D01*
X00259614Y00025341D02*
X00260757D01*
X00288570D02*
X00323876D01*
X00259614Y00025214D02*
X00260884D01*
X00288570D02*
X00323876D01*
X00259741Y00025087D02*
X00261011D01*
X00288443D02*
X00323749D01*
X00259868Y00024960D02*
X00261011D01*
X00288316D02*
X00323749D01*
X00259868Y00024833D02*
X00261138D01*
X00288316D02*
X00323622D01*
X00259995Y00024706D02*
X00261265D01*
X00288189D02*
X00323495D01*
X00257074Y00024579D02*
X00258344D01*
X00260122D02*
X00261392D01*
X00288062D02*
X00323368D01*
X00256693Y00024452D02*
X00258725D01*
X00260122D02*
X00261519D01*
X00287935D02*
X00323368D01*
X00256566Y00024325D02*
X00258852D01*
X00260249D02*
X00261519D01*
X00287808D02*
X00323241D01*
X00256439Y00024198D02*
X00257201D01*
X00258217D02*
X00259106D01*
X00260376D02*
X00261646D01*
X00287681D02*
X00323114D01*
X00256312Y00024071D02*
X00256947D01*
X00258471D02*
X00259233D01*
X00260503D02*
X00261773D01*
X00287681D02*
X00322987D01*
X00256185Y00023944D02*
X00256820D01*
X00258725D02*
X00259360D01*
X00260630D02*
X00261900D01*
X00287554D02*
X00322987D01*
X00256058Y00023817D02*
X00256566D01*
X00258852D02*
X00259360D01*
X00260630D02*
X00262027D01*
X00287427D02*
X00322860D01*
X00255931Y00023690D02*
X00256439D01*
X00256820D02*
X00257328D01*
X00258217D02*
X00258598D01*
X00258979D02*
X00259487D01*
X00260757D02*
X00262154D01*
X00287300D02*
X00322733D01*
X00255931Y00023563D02*
X00256439D01*
X00256820D02*
X00257455D01*
X00258217D02*
X00258598D01*
X00259106D02*
X00259487D01*
X00260884D02*
X00262281D01*
X00287173D02*
X00322606D01*
X00255804Y00023436D02*
X00256312D01*
X00256947D02*
X00257455D01*
X00258217D02*
X00258598D01*
X00259106D02*
X00259614D01*
X00261011D02*
X00262408D01*
X00287046D02*
X00322479D01*
X00255804Y00023309D02*
X00256312D01*
X00257074D02*
X00257582D01*
X00258217D02*
X00258598D01*
X00259233D02*
X00259614D01*
X00261138D02*
X00262535D01*
X00286919D02*
X00322352D01*
X00255804Y00023182D02*
X00256185D01*
X00257074D02*
X00257709D01*
X00258217D02*
X00258598D01*
X00259233D02*
X00259741D01*
X00261265D02*
X00262789D01*
X00286665D02*
X00322225D01*
X00255804Y00023055D02*
X00256185D01*
X00257201D02*
X00257709D01*
X00258217D02*
X00258598D01*
X00259233D02*
X00259741D01*
X00261392D02*
X00262916D01*
X00286538D02*
X00322098D01*
X00255677Y00022928D02*
X00256185D01*
X00257328D02*
X00257963D01*
X00258217D02*
X00258598D01*
X00259233D02*
X00259741D01*
X00261519D02*
X00263043D01*
X00286411D02*
X00321971D01*
X00255677Y00022801D02*
X00256185D01*
X00257328D02*
X00258598D01*
X00259360D02*
X00259741D01*
X00261646D02*
X00263297D01*
X00286284D02*
X00321844D01*
X00255677Y00022674D02*
X00256185D01*
X00257074D02*
X00258598D01*
X00259233D02*
X00259741D01*
X00261773D02*
X00263424D01*
X00286030D02*
X00321717D01*
X00255677Y00022547D02*
X00256185D01*
X00256947D02*
X00258598D01*
X00259233D02*
X00259741D01*
X00261900D02*
X00263678D01*
X00285903D02*
X00321590D01*
X00255804Y00022420D02*
X00256185D01*
X00256947D02*
X00257455D01*
X00258217D02*
X00258598D01*
X00259233D02*
X00259741D01*
X00262027D02*
X00263805D01*
X00285649D02*
X00321463D01*
X00255804Y00022293D02*
X00256185D01*
X00256947D02*
X00257455D01*
X00258217D02*
X00258598D01*
X00259233D02*
X00259741D01*
X00262281D02*
X00264059D01*
X00285522D02*
X00321209D01*
X00255804Y00022166D02*
X00256185D01*
X00256947D02*
X00257455D01*
X00258217D02*
X00258598D01*
X00259233D02*
X00259614D01*
X00262408D02*
X00264186D01*
X00285268D02*
X00321082D01*
X00255804Y00022039D02*
X00256312D01*
X00256947D02*
X00257582D01*
X00258217D02*
X00258598D01*
X00259106D02*
X00259614D01*
X00262535D02*
X00264440D01*
X00285014D02*
X00320955D01*
X00255931Y00021912D02*
X00256312D01*
X00256947D02*
X00258598D01*
X00259106D02*
X00259614D01*
X00262789D02*
X00264694D01*
X00284760D02*
X00320701D01*
X00255931Y00021785D02*
X00256439D01*
X00257074D02*
X00258598D01*
X00258979D02*
X00259487D01*
X00262916D02*
X00264948D01*
X00284506D02*
X00320574D01*
X00256058Y00021658D02*
X00256566D01*
X00257455D02*
X00258598D01*
X00258979D02*
X00259487D01*
X00263170D02*
X00265329D01*
X00284252D02*
X00320447D01*
X00256058Y00021531D02*
X00256693D01*
X00258852D02*
X00259360D01*
X00263297D02*
X00265583D01*
X00283871D02*
X00320193D01*
X00256185Y00021404D02*
X00256820D01*
X00258598D02*
X00259233D01*
X00263551D02*
X00265964D01*
X00283617D02*
X00319939D01*
X00256312Y00021277D02*
X00256947D01*
X00258471D02*
X00259233D01*
X00263678D02*
X00266472D01*
X00283109D02*
X00319812D01*
X00256439Y00021150D02*
X00257328D01*
X00258090D02*
X00258979D01*
X00263932D02*
X00266980D01*
X00282728D02*
X00319558D01*
X00256566Y00021023D02*
X00258852D01*
X00264186D02*
X00267615D01*
X00281966D02*
X00319304D01*
X00256820Y00020896D02*
X00258725D01*
X00264440D02*
X00319050D01*
X00257074Y00020769D02*
X00258344D01*
X00264694D02*
X00318796D01*
X00265075Y00020642D02*
X00318415D01*
X00265329Y00020515D02*
X00318161D01*
X00265710Y00020388D02*
X00317780D01*
X00266091Y00020261D02*
X00317399D01*
X00266599Y00020134D02*
X00316891D01*
X00267107Y00020007D02*
X00316383D01*
X00267869Y00019880D02*
X00315621D01*
D16*
X00376200Y-00000440D02*
Y00075760D01*
Y00235780D02*
Y00242130D01*
X00355880D02*
X00376200D01*
X00213640D02*
X00233960D01*
X00213640Y00234510D02*
Y00242130D01*
Y-00000440D02*
Y00075760D01*
Y-00000440D02*
X00376200D01*
D17*
X00022787Y00221658D02*
X00021518Y00222928D01*
X00018979D01*
X00017709Y00221658D01*
Y00216580D01*
X00018979Y00215310D01*
X00021518D01*
X00022787Y00216580D01*
X00025327Y00221658D02*
X00026596Y00222928D01*
X00029135D01*
X00030405Y00221658D01*
Y00220389D01*
X00029135Y00219119D01*
X00027866D01*
X00029135D01*
X00030405Y00217849D01*
Y00216580D01*
X00029135Y00215310D01*
X00026596D01*
X00025327Y00216580D01*
X00032944D02*
X00034214Y00215310D01*
X00036753D01*
X00038023Y00216580D01*
Y00221658D01*
X00036753Y00222928D01*
X00034214D01*
X00032944Y00221658D01*
Y00220389D01*
X00034214Y00219119D01*
X00038023D01*
X00009198Y00115233D02*
X00007928Y00116502D01*
X00005389D01*
X00004120Y00115233D01*
Y00110154D01*
X00005389Y00108885D01*
X00007928D01*
X00009198Y00110154D01*
X00015546Y00108885D02*
Y00116502D01*
X00011737Y00112693D01*
X00016816D01*
X00024433Y00108885D02*
X00019355D01*
X00024433Y00113963D01*
Y00115233D01*
X00023163Y00116502D01*
X00020624D01*
X00019355Y00115233D01*
X00296758Y00267230D02*
X00295488Y00268500D01*
X00292949D01*
X00291679Y00267230D01*
Y00262152D01*
X00292949Y00260882D01*
X00295488D01*
X00296758Y00262152D01*
X00303106Y00260882D02*
Y00268500D01*
X00299297Y00264691D01*
X00304375D01*
X00306914Y00260882D02*
X00309454D01*
X00308184D01*
Y00268500D01*
X00306914Y00267230D01*
X00167808Y00136413D02*
X00161714D01*
Y00139460D01*
X00162730Y00140476D01*
X00164761D01*
X00165777Y00139460D01*
Y00136413D01*
Y00138445D02*
X00167808Y00140476D01*
Y00142507D02*
Y00144539D01*
Y00143523D01*
X00161714D01*
X00162730Y00142507D01*
X00167808Y00150633D02*
X00161714D01*
X00164761Y00147586D01*
Y00151648D01*
X00024685Y00077397D02*
Y00085015D01*
X00028494D01*
X00029764Y00083745D01*
Y00081206D01*
X00028494Y00079936D01*
X00024685D01*
X00027225D02*
X00029764Y00077397D01*
X00032303D02*
X00034842D01*
X00033573D01*
Y00085015D01*
X00032303Y00083745D01*
X00038651D02*
X00039921Y00085015D01*
X00042460D01*
X00043729Y00083745D01*
Y00082476D01*
X00042460Y00081206D01*
X00041190D01*
X00042460D01*
X00043729Y00079936D01*
Y00078667D01*
X00042460Y00077397D01*
X00039921D01*
X00038651Y00078667D01*
X00032092Y00153032D02*
X00024474D01*
Y00156841D01*
X00025744Y00158111D01*
X00028283D01*
X00029553Y00156841D01*
Y00153032D01*
Y00155571D02*
X00032092Y00158111D01*
Y00160650D02*
Y00163189D01*
Y00161919D01*
X00024474D01*
X00025744Y00160650D01*
X00032092Y00172076D02*
Y00166998D01*
X00027014Y00172076D01*
X00025744D01*
X00024474Y00170806D01*
Y00168267D01*
X00025744Y00166998D01*
X00020778Y00153369D02*
X00013160D01*
Y00157178D01*
X00014430Y00158448D01*
X00016969D01*
X00018239Y00157178D01*
Y00153369D01*
Y00155909D02*
X00020778Y00158448D01*
Y00160987D02*
Y00163526D01*
Y00162257D01*
X00013160D01*
X00014430Y00160987D01*
X00020778Y00167335D02*
Y00169874D01*
Y00168605D01*
X00013160D01*
X00014430Y00167335D01*
X00168042Y00205232D02*
Y00210311D01*
X00166772Y00211580D01*
X00164233D01*
X00162964Y00210311D01*
Y00205232D01*
X00164233Y00203963D01*
X00166772D01*
X00165503Y00206502D02*
X00168042Y00203963D01*
X00166772D02*
X00168042Y00205232D01*
X00174390Y00203963D02*
Y00211580D01*
X00170581Y00207771D01*
X00175659D01*
X00063498Y00217932D02*
Y00223010D01*
X00062229Y00224279D01*
X00059690D01*
X00058420Y00223010D01*
Y00217932D01*
X00059690Y00216662D01*
X00062229D01*
X00060959Y00219201D02*
X00063498Y00216662D01*
X00062229D02*
X00063498Y00217932D01*
X00066038Y00223010D02*
X00067307Y00224279D01*
X00069846D01*
X00071116Y00223010D01*
Y00221740D01*
X00069846Y00220471D01*
X00068577D01*
X00069846D01*
X00071116Y00219201D01*
Y00217932D01*
X00069846Y00216662D01*
X00067307D01*
X00066038Y00217932D01*
X00061954Y00144252D02*
Y00149330D01*
X00060685Y00150599D01*
X00058146D01*
X00056876Y00149330D01*
Y00144252D01*
X00058146Y00142982D01*
X00060685D01*
X00059415Y00145521D02*
X00061954Y00142982D01*
X00060685D02*
X00061954Y00144252D01*
X00069572Y00142982D02*
X00064493D01*
X00069572Y00148060D01*
Y00149330D01*
X00068302Y00150599D01*
X00065763D01*
X00064493Y00149330D01*
X00064328Y00073948D02*
Y00079026D01*
X00063059Y00080295D01*
X00060520D01*
X00059250Y00079026D01*
Y00073948D01*
X00060520Y00072678D01*
X00063059D01*
X00061789Y00075217D02*
X00064328Y00072678D01*
X00063059D02*
X00064328Y00073948D01*
X00066868Y00072678D02*
X00069407D01*
X00068137D01*
Y00080295D01*
X00066868Y00079026D01*
X00166051Y00054191D02*
Y00047843D01*
X00167321Y00046574D01*
X00169860D01*
X00171130Y00047843D01*
Y00054191D01*
X00173669Y00046574D02*
X00176208D01*
X00174938D01*
Y00054191D01*
X00173669Y00052922D01*
X00393790Y00224373D02*
X00392520Y00223103D01*
Y00220564D01*
X00393790Y00219295D01*
X00395059D01*
X00396329Y00220564D01*
Y00223103D01*
X00397598Y00224373D01*
X00398868D01*
X00400138Y00223103D01*
Y00220564D01*
X00398868Y00219295D01*
X00401407Y00226912D02*
Y00231991D01*
X00392520Y00239608D02*
Y00234530D01*
X00396329D01*
Y00237069D01*
Y00234530D01*
X00400138D01*
X00392520Y00242147D02*
X00398868D01*
X00400138Y00243417D01*
Y00245956D01*
X00398868Y00247225D01*
X00392520D01*
X00400138Y00249765D02*
X00392520D01*
X00400138Y00254843D01*
X00392520D01*
X00400138Y00257382D02*
Y00259921D01*
Y00258652D01*
X00392520D01*
X00393790Y00257382D01*
X00042984Y00152863D02*
X00035367D01*
Y00156672D01*
X00036636Y00157941D01*
X00039176D01*
X00040445Y00156672D01*
Y00152863D01*
Y00155402D02*
X00042984Y00157941D01*
X00035367Y00165559D02*
Y00160481D01*
X00039176D01*
X00037906Y00163020D01*
Y00164289D01*
X00039176Y00165559D01*
X00041715D01*
X00042984Y00164289D01*
Y00161750D01*
X00041715Y00160481D01*
X00167121Y00156063D02*
Y00163680D01*
X00170930D01*
X00172200Y00162411D01*
Y00159871D01*
X00170930Y00158602D01*
X00167121D01*
X00169660D02*
X00172200Y00156063D01*
X00174739Y00162411D02*
X00176008Y00163680D01*
X00178548D01*
X00179817Y00162411D01*
Y00161141D01*
X00178548Y00159871D01*
X00177278D01*
X00178548D01*
X00179817Y00158602D01*
Y00157332D01*
X00178548Y00156063D01*
X00176008D01*
X00174739Y00157332D01*
X00167042Y00167735D02*
Y00175352D01*
X00170850D01*
X00172120Y00174083D01*
Y00171544D01*
X00170850Y00170274D01*
X00167042D01*
X00169581D02*
X00172120Y00167735D01*
X00178468D02*
Y00175352D01*
X00174659Y00171544D01*
X00179737D01*
X00378356Y00268878D02*
Y00276495D01*
X00382165D01*
X00383435Y00275226D01*
Y00272687D01*
X00382165Y00271417D01*
X00378356D01*
X00380896D02*
X00383435Y00268878D01*
X00385974D02*
X00388513D01*
X00387243D01*
Y00276495D01*
X00385974Y00275226D01*
X00378277Y00258158D02*
Y00265775D01*
X00382085D01*
X00383355Y00264506D01*
Y00261967D01*
X00382085Y00260697D01*
X00378277D01*
X00380816D02*
X00383355Y00258158D01*
X00390973D02*
X00385894D01*
X00390973Y00263236D01*
Y00264506D01*
X00389703Y00265775D01*
X00387164D01*
X00385894Y00264506D01*
X00407687Y00150955D02*
Y00158573D01*
X00411496D01*
X00412765Y00157303D01*
Y00154764D01*
X00411496Y00153494D01*
X00407687D01*
X00410226D02*
X00412765Y00150955D01*
X00415304Y00157303D02*
X00416574Y00158573D01*
X00419113D01*
X00420383Y00157303D01*
Y00156033D01*
X00419113Y00154764D01*
X00420383Y00153494D01*
Y00152225D01*
X00419113Y00150955D01*
X00416574D01*
X00415304Y00152225D01*
Y00153494D01*
X00416574Y00154764D01*
X00415304Y00156033D01*
Y00157303D01*
X00416574Y00154764D02*
X00419113D01*
X00407917Y00169803D02*
Y00177421D01*
X00411726D01*
X00412995Y00176151D01*
Y00173612D01*
X00411726Y00172342D01*
X00407917D01*
X00410456D02*
X00412995Y00169803D01*
X00415535Y00177421D02*
X00420613D01*
Y00176151D01*
X00415535Y00171073D01*
Y00169803D01*
X00407802Y00160380D02*
Y00167997D01*
X00411611D01*
X00412881Y00166728D01*
Y00164188D01*
X00411611Y00162919D01*
X00407802D01*
X00410342D02*
X00412881Y00160380D01*
X00420498Y00167997D02*
X00417959Y00166728D01*
X00415420Y00164188D01*
Y00161649D01*
X00416689Y00160380D01*
X00419229D01*
X00420498Y00161649D01*
Y00162919D01*
X00419229Y00164188D01*
X00415420D01*
X00323785Y00268751D02*
Y00261133D01*
X00328864D01*
X00336481Y00268751D02*
X00331403D01*
Y00261133D01*
X00336481D01*
X00331403Y00264942D02*
X00333942D01*
X00339020Y00268751D02*
Y00261133D01*
X00342829D01*
X00344099Y00262403D01*
Y00267481D01*
X00342829Y00268751D01*
X00339020D01*
X00346638Y00261133D02*
X00349177D01*
X00347907D01*
Y00268751D01*
X00346638Y00267481D01*
X00409878Y00063068D02*
X00408608Y00061798D01*
Y00059259D01*
X00409878Y00057990D01*
X00414956D01*
X00416226Y00059259D01*
Y00061798D01*
X00414956Y00063068D01*
X00408608Y00069416D02*
Y00066877D01*
X00409878Y00065607D01*
X00414956D01*
X00416226Y00066877D01*
Y00069416D01*
X00414956Y00070685D01*
X00409878D01*
X00408608Y00069416D01*
X00416226Y00073225D02*
X00408608D01*
X00416226Y00078303D01*
X00408608D01*
X00417495Y00080842D02*
Y00085920D01*
X00408608Y00088460D02*
X00416226D01*
Y00092268D01*
X00414956Y00093538D01*
X00409878D01*
X00408608Y00092268D01*
Y00088460D01*
Y00096077D02*
X00416226D01*
Y00099886D01*
X00414956Y00101156D01*
X00413686D01*
X00412417Y00099886D01*
Y00096077D01*
Y00099886D01*
X00411147Y00101156D01*
X00409878D01*
X00408608Y00099886D01*
Y00096077D01*
X00409878Y00108773D02*
X00408608Y00107503D01*
Y00104964D01*
X00409878Y00103695D01*
X00414956D01*
X00416226Y00104964D01*
Y00107503D01*
X00414956Y00108773D01*
X00412417D01*
Y00106234D01*
X00416226Y00111312D02*
Y00113851D01*
Y00112582D01*
X00408608D01*
X00409878Y00111312D01*
X00082060Y00012642D02*
X00080790Y00011372D01*
Y00008833D01*
X00082060Y00007564D01*
X00087138D01*
X00088408Y00008833D01*
Y00011372D01*
X00087138Y00012642D01*
X00080790Y00018990D02*
Y00016451D01*
X00082060Y00015181D01*
X00087138D01*
X00088408Y00016451D01*
Y00018990D01*
X00087138Y00020260D01*
X00082060D01*
X00080790Y00018990D01*
X00088408Y00022799D02*
X00080790D01*
X00088408Y00027877D01*
X00080790D01*
X00088408Y00030416D02*
Y00032956D01*
Y00031686D01*
X00080790D01*
X00082060Y00030416D01*
X00383524Y00253188D02*
X00382254Y00254457D01*
X00379715D01*
X00378446Y00253188D01*
Y00248109D01*
X00379715Y00246840D01*
X00382254D01*
X00383524Y00248109D01*
X00391142Y00246840D02*
X00386063D01*
X00391142Y00251918D01*
Y00253188D01*
X00389872Y00254457D01*
X00387333D01*
X00386063Y00253188D01*
X00198378Y00069458D02*
X00197108Y00070728D01*
X00194569D01*
X00193300Y00069458D01*
Y00064380D01*
X00194569Y00063110D01*
X00197108D01*
X00198378Y00064380D01*
X00200917Y00063110D02*
X00203456D01*
X00202187D01*
Y00070728D01*
X00200917Y00069458D01*
X00112112Y00010297D02*
X00110842Y00009027D01*
Y00006488D01*
X00112112Y00005218D01*
X00117190D01*
X00118459Y00006488D01*
Y00009027D01*
X00117190Y00010297D01*
X00110842Y00016645D02*
Y00014106D01*
X00112112Y00012836D01*
X00117190D01*
X00118459Y00014106D01*
Y00016645D01*
X00117190Y00017914D01*
X00112112D01*
X00110842Y00016645D01*
X00118459Y00020454D02*
X00110842D01*
X00118459Y00025532D01*
X00110842D01*
X00118459Y00033149D02*
Y00028071D01*
X00113381Y00033149D01*
X00112112D01*
X00110842Y00031880D01*
Y00029341D01*
X00112112Y00028071D01*
X00031237Y00105953D02*
X00029968Y00107222D01*
X00027428D01*
X00026159Y00105953D01*
Y00100875D01*
X00027428Y00099605D01*
X00029968D01*
X00031237Y00100875D01*
X00033776Y00105953D02*
X00035046Y00107222D01*
X00037585D01*
X00038855Y00105953D01*
Y00104683D01*
X00037585Y00103414D01*
X00036315D01*
X00037585D01*
X00038855Y00102144D01*
Y00100875D01*
X00037585Y00099605D01*
X00035046D01*
X00033776Y00100875D01*
X00041394Y00105953D02*
X00042663Y00107222D01*
X00045202D01*
X00046472Y00105953D01*
Y00104683D01*
X00045202Y00103414D01*
X00043933D01*
X00045202D01*
X00046472Y00102144D01*
Y00100875D01*
X00045202Y00099605D01*
X00042663D01*
X00041394Y00100875D01*
X00069797Y00304719D02*
X00068527Y00305988D01*
X00065988D01*
X00064719Y00304719D01*
Y00299640D01*
X00065988Y00298371D01*
X00068527D01*
X00069797Y00299640D01*
X00072336Y00304719D02*
X00073606Y00305988D01*
X00076145D01*
X00077415Y00304719D01*
Y00303449D01*
X00076145Y00302180D01*
X00074875D01*
X00076145D01*
X00077415Y00300910D01*
Y00299640D01*
X00076145Y00298371D01*
X00073606D01*
X00072336Y00299640D01*
X00079954Y00305988D02*
X00085032D01*
Y00304719D01*
X00079954Y00299640D01*
Y00298371D01*
X00264797Y00266955D02*
X00263527Y00268224D01*
X00260988D01*
X00259718Y00266955D01*
Y00261876D01*
X00260988Y00260607D01*
X00263527D01*
X00264797Y00261876D01*
X00271145Y00260607D02*
Y00268224D01*
X00267336Y00264415D01*
X00272414D01*
X00274953Y00266955D02*
X00276223Y00268224D01*
X00278762D01*
X00280032Y00266955D01*
Y00261876D01*
X00278762Y00260607D01*
X00276223D01*
X00274953Y00261876D01*
Y00266955D01*
X00177691Y00302477D02*
Y00294859D01*
X00181500D01*
X00182769Y00296129D01*
Y00301207D01*
X00181500Y00302477D01*
X00177691D01*
X00185308Y00294859D02*
X00187848D01*
X00186578D01*
Y00302477D01*
X00185308Y00301207D01*
X00217634Y00257799D02*
Y00250182D01*
X00222712D01*
X00230330D02*
X00225252D01*
X00230330Y00255260D01*
Y00256530D01*
X00229060Y00257799D01*
X00226521D01*
X00225252Y00256530D01*
X00004019Y00099504D02*
Y00107122D01*
X00007828D01*
X00009097Y00105852D01*
Y00103313D01*
X00007828Y00102043D01*
X00004019D01*
X00006558D02*
X00009097Y00099504D01*
X00016715D02*
X00011636D01*
X00016715Y00104583D01*
Y00105852D01*
X00015445Y00107122D01*
X00012906D01*
X00011636Y00105852D01*
X00019254Y00100774D02*
X00020524Y00099504D01*
X00023063D01*
X00024332Y00100774D01*
Y00105852D01*
X00023063Y00107122D01*
X00020524D01*
X00019254Y00105852D01*
Y00104583D01*
X00020524Y00103313D01*
X00024332D01*
X00013112Y00076375D02*
X00005495D01*
Y00080184D01*
X00006765Y00081453D01*
X00009304D01*
X00010573Y00080184D01*
Y00076375D01*
Y00078914D02*
X00013112Y00081453D01*
X00006765Y00083993D02*
X00005495Y00085262D01*
Y00087801D01*
X00006765Y00089071D01*
X00008034D01*
X00009304Y00087801D01*
Y00086532D01*
Y00087801D01*
X00010573Y00089071D01*
X00011843D01*
X00013112Y00087801D01*
Y00085262D01*
X00011843Y00083993D01*
X00006765Y00091610D02*
X00005495Y00092880D01*
Y00095419D01*
X00006765Y00096688D01*
X00011843D01*
X00013112Y00095419D01*
Y00092880D01*
X00011843Y00091610D01*
X00006765D01*
X00026310Y00108885D02*
Y00116502D01*
X00030119D01*
X00031388Y00115233D01*
Y00112693D01*
X00030119Y00111424D01*
X00026310D01*
X00028849D02*
X00031388Y00108885D01*
X00033927Y00115233D02*
X00035197Y00116502D01*
X00037736D01*
X00039006Y00115233D01*
Y00113963D01*
X00037736Y00112693D01*
X00036467D01*
X00037736D01*
X00039006Y00111424D01*
Y00110154D01*
X00037736Y00108885D01*
X00035197D01*
X00033927Y00110154D01*
X00041545Y00108885D02*
X00044084D01*
X00042814D01*
Y00116502D01*
X00041545Y00115233D01*
X00118594Y00264148D02*
Y00257800D01*
X00119863Y00256531D01*
X00122402D01*
X00123672Y00257800D01*
Y00264148D01*
X00126211Y00262879D02*
X00127481Y00264148D01*
X00130020D01*
X00131290Y00262879D01*
Y00261609D01*
X00130020Y00260340D01*
X00128750D01*
X00130020D01*
X00131290Y00259070D01*
Y00257800D01*
X00130020Y00256531D01*
X00127481D01*
X00126211Y00257800D01*
X00024455Y00067060D02*
Y00074678D01*
X00028264D01*
X00029534Y00073408D01*
Y00070869D01*
X00028264Y00069600D01*
X00024455D01*
X00026995D02*
X00029534Y00067060D01*
X00037151D02*
X00032073D01*
X00037151Y00072139D01*
Y00073408D01*
X00035882Y00074678D01*
X00033342D01*
X00032073Y00073408D01*
X00039690D02*
X00040960Y00074678D01*
X00043499D01*
X00044769Y00073408D01*
Y00072139D01*
X00043499Y00070869D01*
X00042229D01*
X00043499D01*
X00044769Y00069600D01*
Y00068330D01*
X00043499Y00067060D01*
X00040960D01*
X00039690Y00068330D01*
X00162302Y00117514D02*
X00168650D01*
X00169920Y00118783D01*
Y00121322D01*
X00168650Y00122592D01*
X00162302D01*
X00169920Y00130210D02*
Y00125131D01*
X00164842Y00130210D01*
X00163572D01*
X00162302Y00128940D01*
Y00126401D01*
X00163572Y00125131D01*
X00096017Y00305518D02*
X00094747Y00306787D01*
X00092208D01*
X00090938Y00305518D01*
Y00300439D01*
X00092208Y00299170D01*
X00094747D01*
X00096017Y00300439D01*
X00098556Y00305518D02*
X00099825Y00306787D01*
X00102365D01*
X00103634Y00305518D01*
Y00304248D01*
X00102365Y00302979D01*
X00101095D01*
X00102365D01*
X00103634Y00301709D01*
Y00300439D01*
X00102365Y00299170D01*
X00099825D01*
X00098556Y00300439D01*
X00106173Y00305518D02*
X00107443Y00306787D01*
X00109982D01*
X00111252Y00305518D01*
Y00304248D01*
X00109982Y00302979D01*
X00111252Y00301709D01*
Y00300439D01*
X00109982Y00299170D01*
X00107443D01*
X00106173Y00300439D01*
Y00301709D01*
X00107443Y00302979D01*
X00106173Y00304248D01*
Y00305518D01*
X00107443Y00302979D02*
X00109982D01*
M02*
