M48
;Layer_Color=9474304
;FILE_FORMAT=4:4
METRIC
;TYPE=PLATED
T1F00S00C0.3000
T2F00S00C0.4000
T3F00S00C0.9000
T4F00S00C1.0000
T5F00S00C1.1000
T6F00S00C1.2000
T8F00S00C2.5000
;TYPE=NON_PLATED
T9F00S00C0.7000
%
T01
X00166402Y00226884
X00163902Y00256283
X00128136Y00310726
X00318568
T02
X00366432Y00235972
X00372964Y00240520
X00415510Y00243530
Y00232750
X00308430Y00293380
X00300549
X00292668
X00284370
X00276073
X00267776
X00259478
X00226239Y00244078
Y00236750
X00218111
Y00244078
X00209998
Y00236712
X00196688Y00240500
Y00247750
Y00255000
X00189000
X00181312
X00173625
X00146268Y00275630
X00109631Y00275729
X00099846
X00090062
X00080277
X00070492
X00060708
X00023134Y00246981
Y00238674
Y00230038
X00052158Y00202904
X00059912
X00067667
X00075421
Y00185146
X00067667
X00059912
X00052158
Y00131369
X00059912
X00067667
X00075421
Y00113938
X00067667
X00059912
X00052158
Y00061958
X00059912
X00067667
X00075421
Y00043208
X00067667
X00059912
Y00034778
X00067667
X00075421
X00130214Y00032746
X00139390
X00148567
X00157743
X00166884
X00162450Y00038415
X00153273
X00144097
X00134920
X00172656Y00057706
X00195156Y00091420
X00174244Y00142885
X00186750Y00186055
T03
X00180524Y00017750
X00200640
T04
X00399666Y00060432
Y00085832
Y00111232
X00425066
Y00085832
Y00060432
T05
X00070592Y00019020
X00099727
T06
X00132060Y00018004
X00157968Y00017750
T08
X00410000Y00030000
Y00290000
X00030000
Y00030000
T09
X00406384Y00238000
X00424384
M30
