G04*
G04 #@! TF.GenerationSoftware,Altium Limited,Altium Designer,20.1.8 (145)*
G04*
G04 Layer_Physical_Order=2*
G04 Layer_Color=16711680*
%FSAX44Y44*%
%MOMM*%
G71*
G04*
G04 #@! TF.SameCoordinates,038E23F0-B42B-4C45-894E-EE78EB3E0CC3*
G04*
G04*
G04 #@! TF.FilePolarity,Positive*
G04*
G01*
G75*
%ADD14C,0.1270*%
%ADD52C,1.5000*%
G04:AMPARAMS|DCode=53|XSize=1.5mm|YSize=1.5mm|CornerRadius=0.15mm|HoleSize=0mm|Usage=FLASHONLY|Rotation=180.000|XOffset=0mm|YOffset=0mm|HoleType=Round|Shape=RoundedRectangle|*
%AMROUNDEDRECTD53*
21,1,1.5000,1.2000,0,0,180.0*
21,1,1.2000,1.5000,0,0,180.0*
1,1,0.3000,-0.6000,0.6000*
1,1,0.3000,0.6000,0.6000*
1,1,0.3000,0.6000,-0.6000*
1,1,0.3000,-0.6000,-0.6000*
%
%ADD53ROUNDEDRECTD53*%
%ADD66C,0.7000*%
G04:AMPARAMS|DCode=67|XSize=1.6mm|YSize=2mm|CornerRadius=0.16mm|HoleSize=0mm|Usage=FLASHONLY|Rotation=0.000|XOffset=0mm|YOffset=0mm|HoleType=Round|Shape=RoundedRectangle|*
%AMROUNDEDRECTD67*
21,1,1.6000,1.6800,0,0,0.0*
21,1,1.2800,2.0000,0,0,0.0*
1,1,0.3200,0.6400,-0.8400*
1,1,0.3200,-0.6400,-0.8400*
1,1,0.3200,-0.6400,0.8400*
1,1,0.3200,0.6400,0.8400*
%
%ADD67ROUNDEDRECTD67*%
%ADD68C,1.8000*%
%ADD69O,4.0000X2.4000*%
%ADD70C,3.8000*%
G04:AMPARAMS|DCode=71|XSize=1.3mm|YSize=2mm|CornerRadius=0.65mm|HoleSize=0mm|Usage=FLASHONLY|Rotation=0.000|XOffset=0mm|YOffset=0mm|HoleType=Round|Shape=RoundedRectangle|*
%AMROUNDEDRECTD71*
21,1,1.3000,0.7000,0,0,0.0*
21,1,0.0000,2.0000,0,0,0.0*
1,1,1.3000,0.0000,-0.3500*
1,1,1.3000,0.0000,-0.3500*
1,1,1.3000,0.0000,0.3500*
1,1,1.3000,0.0000,0.3500*
%
%ADD71ROUNDEDRECTD71*%
G04:AMPARAMS|DCode=72|XSize=2mm|YSize=2mm|CornerRadius=0.5mm|HoleSize=0mm|Usage=FLASHONLY|Rotation=0.000|XOffset=0mm|YOffset=0mm|HoleType=Round|Shape=RoundedRectangle|*
%AMROUNDEDRECTD72*
21,1,2.0000,1.0000,0,0,0.0*
21,1,1.0000,2.0000,0,0,0.0*
1,1,1.0000,0.5000,-0.5000*
1,1,1.0000,-0.5000,-0.5000*
1,1,1.0000,-0.5000,0.5000*
1,1,1.0000,0.5000,0.5000*
%
%ADD72ROUNDEDRECTD72*%
%ADD73C,0.6600*%
%ADD74C,0.5600*%
G36*
X00030000Y00317855D02*
X00410000D01*
X00410084Y00317866D01*
X00412187Y00317783D01*
X00414360Y00317526D01*
X00416506Y00317099D01*
X00418612Y00316505D01*
X00420665Y00315748D01*
X00422652Y00314832D01*
X00424562Y00313762D01*
X00426381Y00312547D01*
X00428100Y00311192D01*
X00429706Y00309706D01*
X00431192Y00308099D01*
X00432547Y00306381D01*
X00433762Y00304562D01*
X00434832Y00302652D01*
X00435748Y00300665D01*
X00436505Y00298612D01*
X00437099Y00296506D01*
X00437526Y00294360D01*
X00437783Y00292187D01*
X00437820Y00291262D01*
X00437855Y00290000D01*
X00437855Y00290000D01*
X00437855Y00288761D01*
Y00030000D01*
X00437866Y00029915D01*
X00437783Y00027813D01*
X00437526Y00025640D01*
X00437099Y00023494D01*
X00436505Y00021388D01*
X00435748Y00019335D01*
X00434832Y00017348D01*
X00433762Y00015438D01*
X00432547Y00013619D01*
X00431192Y00011901D01*
X00429706Y00010294D01*
X00428100Y00008808D01*
X00426381Y00007454D01*
X00424562Y00006238D01*
X00422652Y00005168D01*
X00420665Y00004252D01*
X00418612Y00003495D01*
X00416506Y00002901D01*
X00414360Y00002474D01*
X00412187Y00002217D01*
X00411261Y00002181D01*
X00410000Y00002145D01*
X00410000Y00002145D01*
X00408752Y00002145D01*
X00377494D01*
Y00057227D01*
X00377396Y00057722D01*
X00377115Y00058142D01*
X00376695Y00058423D01*
X00376200Y00058522D01*
X00213121D01*
X00212626Y00058423D01*
X00212206Y00058142D01*
X00211925Y00057722D01*
X00211827Y00057227D01*
Y00002145D01*
X00030000D01*
X00029915Y00002134D01*
X00027813Y00002217D01*
X00025640Y00002474D01*
X00023494Y00002901D01*
X00021388Y00003495D01*
X00019335Y00004252D01*
X00017348Y00005168D01*
X00015438Y00006238D01*
X00013619Y00007453D01*
X00011901Y00008808D01*
X00010294Y00010294D01*
X00008808Y00011901D01*
X00007454Y00013619D01*
X00006238Y00015438D01*
X00005168Y00017348D01*
X00004252Y00019335D01*
X00003495Y00021388D01*
X00002901Y00023494D01*
X00002474Y00025640D01*
X00002217Y00027813D01*
X00002134Y00029915D01*
X00002145Y00030000D01*
Y00290369D01*
X00002217Y00292187D01*
X00002474Y00294360D01*
X00002901Y00296506D01*
X00003495Y00298612D01*
X00004252Y00300665D01*
X00005168Y00302652D01*
X00006238Y00304562D01*
X00007453Y00306381D01*
X00008808Y00308099D01*
X00010294Y00309706D01*
X00011901Y00311192D01*
X00013619Y00312547D01*
X00015438Y00313762D01*
X00017348Y00314832D01*
X00019335Y00315748D01*
X00021388Y00316505D01*
X00023494Y00317099D01*
X00025640Y00317526D01*
X00027813Y00317783D01*
X00029915Y00317866D01*
X00030000Y00317855D01*
D02*
G37*
%LPC*%
G36*
X00318568Y00314816D02*
X00317771Y00314737D01*
X00317003Y00314504D01*
X00316296Y00314126D01*
X00315676Y00313618D01*
X00315168Y00312998D01*
X00314981Y00312647D01*
X00131724D01*
X00131537Y00312998D01*
X00131028Y00313618D01*
X00130408Y00314126D01*
X00129701Y00314504D01*
X00128934Y00314737D01*
X00128136Y00314816D01*
X00127338Y00314737D01*
X00126571Y00314504D01*
X00125864Y00314126D01*
X00125244Y00313618D01*
X00124736Y00312998D01*
X00124358Y00312291D01*
X00124125Y00311524D01*
X00124046Y00310726D01*
X00124125Y00309928D01*
X00124358Y00309161D01*
X00124736Y00308454D01*
X00125244Y00307834D01*
X00125864Y00307325D01*
X00126571Y00306947D01*
X00127338Y00306715D01*
X00128136Y00306636D01*
X00128934Y00306715D01*
X00129701Y00306947D01*
X00130408Y00307325D01*
X00131028Y00307834D01*
X00131537Y00308454D01*
X00131724Y00308804D01*
X00314981D01*
X00315168Y00308454D01*
X00315676Y00307834D01*
X00316296Y00307325D01*
X00317003Y00306947D01*
X00317771Y00306715D01*
X00318568Y00306636D01*
X00319366Y00306715D01*
X00320133Y00306947D01*
X00320840Y00307325D01*
X00321460Y00307834D01*
X00321969Y00308454D01*
X00322347Y00309161D01*
X00322579Y00309928D01*
X00322658Y00310726D01*
X00322579Y00311524D01*
X00322347Y00312291D01*
X00321969Y00312998D01*
X00321460Y00313618D01*
X00320840Y00314126D01*
X00320133Y00314504D01*
X00319366Y00314737D01*
X00318568Y00314816D01*
D02*
G37*
G36*
X00146268Y00279147D02*
X00145582Y00279079D01*
X00144923Y00278879D01*
X00144314Y00278554D01*
X00143782Y00278117D01*
X00143344Y00277584D01*
X00143019Y00276976D01*
X00142819Y00276316D01*
X00142752Y00275630D01*
X00142819Y00274944D01*
X00143019Y00274284D01*
X00143344Y00273676D01*
X00143782Y00273143D01*
X00144314Y00272706D01*
X00144923Y00272381D01*
X00145582Y00272181D01*
X00146268Y00272113D01*
X00146954Y00272181D01*
X00147614Y00272381D01*
X00148222Y00272706D01*
X00148755Y00273143D01*
X00149193Y00273676D01*
X00149518Y00274284D01*
X00149718Y00274944D01*
X00149785Y00275630D01*
X00149718Y00276316D01*
X00149518Y00276976D01*
X00149193Y00277584D01*
X00148755Y00278117D01*
X00148222Y00278554D01*
X00147614Y00278879D01*
X00146954Y00279079D01*
X00146268Y00279147D01*
D02*
G37*
G36*
X00424384Y00242793D02*
X00423449Y00242701D01*
X00422550Y00242428D01*
X00421721Y00241985D01*
X00420995Y00241389D01*
X00420399Y00240663D01*
X00419956Y00239834D01*
X00419683Y00238935D01*
X00419591Y00238000D01*
X00419683Y00237065D01*
X00419956Y00236166D01*
X00420399Y00235337D01*
X00420995Y00234611D01*
X00421721Y00234015D01*
X00422550Y00233572D01*
X00423449Y00233299D01*
X00424384Y00233207D01*
X00425319Y00233299D01*
X00426218Y00233572D01*
X00427047Y00234015D01*
X00427773Y00234611D01*
X00428369Y00235337D01*
X00428812Y00236166D01*
X00429085Y00237065D01*
X00429177Y00238000D01*
X00429085Y00238935D01*
X00428812Y00239834D01*
X00428369Y00240663D01*
X00427773Y00241389D01*
X00427047Y00241985D01*
X00426218Y00242428D01*
X00425319Y00242701D01*
X00424384Y00242793D01*
D02*
G37*
G36*
X00406384D02*
X00405449Y00242701D01*
X00404550Y00242428D01*
X00403721Y00241985D01*
X00402995Y00241389D01*
X00402399Y00240663D01*
X00401956Y00239834D01*
X00401683Y00238935D01*
X00401591Y00238000D01*
X00401683Y00237065D01*
X00401956Y00236166D01*
X00402399Y00235337D01*
X00402995Y00234611D01*
X00403721Y00234015D01*
X00404550Y00233572D01*
X00405449Y00233299D01*
X00406384Y00233207D01*
X00407319Y00233299D01*
X00408218Y00233572D01*
X00409047Y00234015D01*
X00409773Y00234611D01*
X00410369Y00235337D01*
X00410812Y00236166D01*
X00411085Y00237065D01*
X00411177Y00238000D01*
X00411085Y00238935D01*
X00410812Y00239834D01*
X00410369Y00240663D01*
X00409773Y00241389D01*
X00409047Y00241985D01*
X00408218Y00242428D01*
X00407319Y00242701D01*
X00406384Y00242793D01*
D02*
G37*
G36*
X00163902Y00260372D02*
X00163104Y00260294D01*
X00162337Y00260061D01*
X00161630Y00259683D01*
X00161010Y00259174D01*
X00160502Y00258555D01*
X00160124Y00257848D01*
X00159891Y00257080D01*
X00159813Y00256283D01*
X00159891Y00255485D01*
X00160124Y00254718D01*
X00160502Y00254011D01*
X00161010Y00253391D01*
X00161630Y00252882D01*
X00161981Y00252695D01*
Y00229384D01*
X00161981Y00229384D01*
X00162046Y00228887D01*
X00162238Y00228424D01*
X00162509Y00228071D01*
X00162391Y00227682D01*
X00162313Y00226884D01*
X00162391Y00226086D01*
X00162624Y00225319D01*
X00163002Y00224612D01*
X00163510Y00223992D01*
X00164130Y00223484D01*
X00164837Y00223106D01*
X00165604Y00222873D01*
X00166402Y00222794D01*
X00167200Y00222873D01*
X00167967Y00223106D01*
X00168674Y00223484D01*
X00169294Y00223992D01*
X00169803Y00224612D01*
X00170181Y00225319D01*
X00170413Y00226086D01*
X00170492Y00226884D01*
X00170413Y00227682D01*
X00170181Y00228449D01*
X00169803Y00229156D01*
X00169294Y00229776D01*
X00168674Y00230285D01*
X00167967Y00230663D01*
X00167200Y00230895D01*
X00166402Y00230974D01*
X00165824Y00231498D01*
Y00252695D01*
X00166174Y00252882D01*
X00166794Y00253391D01*
X00167303Y00254011D01*
X00167681Y00254718D01*
X00167913Y00255485D01*
X00167992Y00256283D01*
X00167913Y00257080D01*
X00167681Y00257848D01*
X00167303Y00258555D01*
X00166794Y00259174D01*
X00166174Y00259683D01*
X00165467Y00260061D01*
X00164700Y00260294D01*
X00163902Y00260372D01*
D02*
G37*
G36*
X00425066Y00120021D02*
X00423919Y00119946D01*
X00422791Y00119721D01*
X00421703Y00119352D01*
X00420672Y00118843D01*
X00419716Y00118205D01*
X00418851Y00117447D01*
X00418093Y00116582D01*
X00417455Y00115626D01*
X00416946Y00114595D01*
X00416577Y00113507D01*
X00416352Y00112379D01*
X00416277Y00111232D01*
X00416352Y00110085D01*
X00416577Y00108957D01*
X00416946Y00107869D01*
X00417455Y00106838D01*
X00418093Y00105882D01*
X00418851Y00105017D01*
X00419716Y00104259D01*
X00420672Y00103621D01*
X00421703Y00103112D01*
X00422791Y00102743D01*
X00423919Y00102518D01*
X00425066Y00102443D01*
X00426213Y00102518D01*
X00427341Y00102743D01*
X00428429Y00103112D01*
X00429460Y00103621D01*
X00430416Y00104259D01*
X00431281Y00105017D01*
X00432039Y00105882D01*
X00432677Y00106838D01*
X00433186Y00107869D01*
X00433555Y00108957D01*
X00433780Y00110085D01*
X00433855Y00111232D01*
X00433780Y00112379D01*
X00433555Y00113507D01*
X00433186Y00114595D01*
X00432677Y00115626D01*
X00432039Y00116582D01*
X00431281Y00117447D01*
X00430416Y00118205D01*
X00429460Y00118843D01*
X00428429Y00119352D01*
X00427341Y00119721D01*
X00426213Y00119946D01*
X00425066Y00120021D01*
D02*
G37*
G36*
X00399666D02*
X00398519Y00119946D01*
X00397391Y00119721D01*
X00396303Y00119352D01*
X00395272Y00118843D01*
X00394316Y00118205D01*
X00393451Y00117447D01*
X00392693Y00116582D01*
X00392055Y00115626D01*
X00391546Y00114595D01*
X00391177Y00113507D01*
X00390952Y00112379D01*
X00390877Y00111232D01*
X00390952Y00110085D01*
X00391177Y00108957D01*
X00391546Y00107869D01*
X00392055Y00106838D01*
X00392693Y00105882D01*
X00393451Y00105017D01*
X00394316Y00104259D01*
X00395272Y00103621D01*
X00396303Y00103112D01*
X00397391Y00102743D01*
X00398519Y00102518D01*
X00399666Y00102443D01*
X00400813Y00102518D01*
X00401941Y00102743D01*
X00403029Y00103112D01*
X00404060Y00103621D01*
X00405016Y00104259D01*
X00405881Y00105017D01*
X00406639Y00105882D01*
X00407277Y00106838D01*
X00407786Y00107869D01*
X00408155Y00108957D01*
X00408380Y00110085D01*
X00408455Y00111232D01*
X00408380Y00112379D01*
X00408155Y00113507D01*
X00407786Y00114595D01*
X00407277Y00115626D01*
X00406639Y00116582D01*
X00405881Y00117447D01*
X00405016Y00118205D01*
X00404060Y00118843D01*
X00403029Y00119352D01*
X00401941Y00119721D01*
X00400813Y00119946D01*
X00399666Y00120021D01*
D02*
G37*
G36*
X00431066Y00094626D02*
X00430146D01*
Y00090912D01*
X00433860D01*
Y00091832D01*
X00433765Y00092555D01*
X00433486Y00093229D01*
X00433042Y00093808D01*
X00432463Y00094252D01*
X00431789Y00094531D01*
X00431066Y00094626D01*
D02*
G37*
G36*
X00419986D02*
X00419066D01*
X00418343Y00094531D01*
X00417669Y00094252D01*
X00417090Y00093808D01*
X00416646Y00093229D01*
X00416367Y00092555D01*
X00416272Y00091832D01*
Y00090912D01*
X00419986D01*
Y00094626D01*
D02*
G37*
G36*
X00399666Y00094621D02*
X00398519Y00094546D01*
X00397391Y00094321D01*
X00396303Y00093952D01*
X00395272Y00093443D01*
X00394316Y00092805D01*
X00393451Y00092047D01*
X00392693Y00091182D01*
X00392055Y00090226D01*
X00391546Y00089195D01*
X00391177Y00088107D01*
X00390952Y00086979D01*
X00390877Y00085832D01*
X00390952Y00084685D01*
X00391177Y00083557D01*
X00391546Y00082469D01*
X00392055Y00081438D01*
X00392693Y00080482D01*
X00393451Y00079617D01*
X00394316Y00078859D01*
X00395272Y00078221D01*
X00396303Y00077712D01*
X00397391Y00077343D01*
X00398519Y00077118D01*
X00399666Y00077043D01*
X00400813Y00077118D01*
X00401941Y00077343D01*
X00403029Y00077712D01*
X00404060Y00078221D01*
X00405016Y00078859D01*
X00405881Y00079617D01*
X00406639Y00080482D01*
X00407277Y00081438D01*
X00407786Y00082469D01*
X00408155Y00083557D01*
X00408380Y00084685D01*
X00408455Y00085832D01*
X00408380Y00086979D01*
X00408155Y00088107D01*
X00407786Y00089195D01*
X00407277Y00090226D01*
X00406639Y00091182D01*
X00405881Y00092047D01*
X00405016Y00092805D01*
X00404060Y00093443D01*
X00403029Y00093952D01*
X00401941Y00094321D01*
X00400813Y00094546D01*
X00399666Y00094621D01*
D02*
G37*
G36*
X00433860Y00080752D02*
X00430146D01*
Y00077038D01*
X00431066D01*
X00431789Y00077133D01*
X00432463Y00077412D01*
X00433042Y00077856D01*
X00433486Y00078435D01*
X00433765Y00079109D01*
X00433860Y00079832D01*
Y00080752D01*
D02*
G37*
G36*
X00419986D02*
X00416272D01*
Y00079832D01*
X00416367Y00079109D01*
X00416646Y00078435D01*
X00417090Y00077856D01*
X00417669Y00077412D01*
X00418343Y00077133D01*
X00419066Y00077038D01*
X00419986D01*
Y00080752D01*
D02*
G37*
G36*
X00425066Y00069221D02*
X00423919Y00069146D01*
X00422791Y00068921D01*
X00421703Y00068552D01*
X00420672Y00068043D01*
X00419716Y00067405D01*
X00418851Y00066647D01*
X00418093Y00065782D01*
X00417455Y00064826D01*
X00416946Y00063795D01*
X00416577Y00062707D01*
X00416352Y00061579D01*
X00416277Y00060432D01*
X00416352Y00059285D01*
X00416577Y00058157D01*
X00416946Y00057069D01*
X00417455Y00056038D01*
X00418093Y00055082D01*
X00418851Y00054217D01*
X00419716Y00053459D01*
X00420672Y00052821D01*
X00421703Y00052312D01*
X00422791Y00051943D01*
X00423919Y00051718D01*
X00425066Y00051643D01*
X00426213Y00051718D01*
X00427341Y00051943D01*
X00428429Y00052312D01*
X00429460Y00052821D01*
X00430416Y00053459D01*
X00431281Y00054217D01*
X00432039Y00055082D01*
X00432677Y00056038D01*
X00433186Y00057069D01*
X00433555Y00058157D01*
X00433780Y00059285D01*
X00433855Y00060432D01*
X00433780Y00061579D01*
X00433555Y00062707D01*
X00433186Y00063795D01*
X00432677Y00064826D01*
X00432039Y00065782D01*
X00431281Y00066647D01*
X00430416Y00067405D01*
X00429460Y00068043D01*
X00428429Y00068552D01*
X00427341Y00068921D01*
X00426213Y00069146D01*
X00425066Y00069221D01*
D02*
G37*
G36*
X00399666D02*
X00398519Y00069146D01*
X00397391Y00068921D01*
X00396303Y00068552D01*
X00395272Y00068043D01*
X00394316Y00067405D01*
X00393451Y00066647D01*
X00392693Y00065782D01*
X00392055Y00064826D01*
X00391546Y00063795D01*
X00391177Y00062707D01*
X00390952Y00061579D01*
X00390877Y00060432D01*
X00390952Y00059285D01*
X00391177Y00058157D01*
X00391546Y00057069D01*
X00392055Y00056038D01*
X00392693Y00055082D01*
X00393451Y00054217D01*
X00394316Y00053459D01*
X00395272Y00052821D01*
X00396303Y00052312D01*
X00397391Y00051943D01*
X00398519Y00051718D01*
X00399666Y00051643D01*
X00400813Y00051718D01*
X00401941Y00051943D01*
X00403029Y00052312D01*
X00404060Y00052821D01*
X00405016Y00053459D01*
X00405881Y00054217D01*
X00406639Y00055082D01*
X00407277Y00056038D01*
X00407786Y00057069D01*
X00408155Y00058157D01*
X00408380Y00059285D01*
X00408455Y00060432D01*
X00408380Y00061579D01*
X00408155Y00062707D01*
X00407786Y00063795D01*
X00407277Y00064826D01*
X00406639Y00065782D01*
X00405881Y00066647D01*
X00405016Y00067405D01*
X00404060Y00068043D01*
X00403029Y00068552D01*
X00401941Y00068921D01*
X00400813Y00069146D01*
X00399666Y00069221D01*
D02*
G37*
G36*
X00137140Y00029287D02*
Y00023084D01*
X00143343D01*
X00143272Y00023988D01*
X00143042Y00024948D01*
X00142664Y00025859D01*
X00142148Y00026701D01*
X00141507Y00027451D01*
X00140757Y00028092D01*
X00139915Y00028608D01*
X00139004Y00028986D01*
X00138044Y00029216D01*
X00137140Y00029287D01*
D02*
G37*
G36*
X00126980D02*
X00126076Y00029216D01*
X00125117Y00028986D01*
X00124205Y00028608D01*
X00123363Y00028092D01*
X00122613Y00027451D01*
X00121972Y00026701D01*
X00121456Y00025859D01*
X00121078Y00024948D01*
X00120848Y00023988D01*
X00120777Y00023084D01*
X00126980D01*
Y00029287D01*
D02*
G37*
G36*
X00163048Y00029033D02*
Y00022830D01*
X00169251D01*
X00169180Y00023734D01*
X00168950Y00024694D01*
X00168572Y00025605D01*
X00168056Y00026447D01*
X00167415Y00027197D01*
X00166665Y00027838D01*
X00165823Y00028354D01*
X00164912Y00028732D01*
X00163952Y00028962D01*
X00163048Y00029033D01*
D02*
G37*
G36*
X00152888D02*
X00151984Y00028962D01*
X00151025Y00028732D01*
X00150113Y00028354D01*
X00149271Y00027838D01*
X00148521Y00027197D01*
X00147880Y00026447D01*
X00147364Y00025605D01*
X00146986Y00024694D01*
X00146756Y00023734D01*
X00146685Y00022830D01*
X00152888D01*
Y00029033D01*
D02*
G37*
G36*
X00143343Y00012924D02*
X00137140D01*
Y00006721D01*
X00138044Y00006792D01*
X00139004Y00007023D01*
X00139915Y00007400D01*
X00140757Y00007916D01*
X00141507Y00008557D01*
X00142148Y00009307D01*
X00142664Y00010149D01*
X00143042Y00011061D01*
X00143272Y00012020D01*
X00143343Y00012924D01*
D02*
G37*
G36*
X00126980D02*
X00120777D01*
X00120848Y00012020D01*
X00121078Y00011061D01*
X00121456Y00010149D01*
X00121972Y00009307D01*
X00122613Y00008557D01*
X00123363Y00007916D01*
X00124205Y00007400D01*
X00125117Y00007023D01*
X00126076Y00006792D01*
X00126980Y00006721D01*
Y00012924D01*
D02*
G37*
G36*
X00169251Y00012670D02*
X00163048D01*
Y00006467D01*
X00163952Y00006538D01*
X00164912Y00006769D01*
X00165823Y00007146D01*
X00166665Y00007662D01*
X00167415Y00008303D01*
X00168056Y00009053D01*
X00168572Y00009895D01*
X00168950Y00010806D01*
X00169180Y00011766D01*
X00169251Y00012670D01*
D02*
G37*
G36*
X00152888D02*
X00146685D01*
X00146756Y00011766D01*
X00146986Y00010806D01*
X00147364Y00009895D01*
X00147880Y00009053D01*
X00148521Y00008303D01*
X00149271Y00007662D01*
X00150113Y00007146D01*
X00151025Y00006769D01*
X00151984Y00006538D01*
X00152888Y00006467D01*
Y00012670D01*
D02*
G37*
G36*
X00200640Y00029044D02*
X00199421Y00028948D01*
X00198232Y00028663D01*
X00197102Y00028195D01*
X00196059Y00027556D01*
X00195129Y00026761D01*
X00194335Y00025831D01*
X00193696Y00024788D01*
X00193228Y00023659D01*
X00192942Y00022469D01*
X00192846Y00021250D01*
Y00014250D01*
X00192942Y00013031D01*
X00193228Y00011842D01*
X00193696Y00010712D01*
X00194335Y00009669D01*
X00195129Y00008739D01*
X00196059Y00007944D01*
X00197102Y00007305D01*
X00198232Y00006837D01*
X00199421Y00006552D01*
X00200640Y00006456D01*
X00201859Y00006552D01*
X00203048Y00006837D01*
X00204178Y00007305D01*
X00205221Y00007944D01*
X00206151Y00008739D01*
X00206945Y00009669D01*
X00207584Y00010712D01*
X00208053Y00011842D01*
X00208338Y00013031D01*
X00208434Y00014250D01*
Y00021250D01*
X00208338Y00022469D01*
X00208053Y00023659D01*
X00207584Y00024788D01*
X00206945Y00025831D01*
X00206151Y00026761D01*
X00205221Y00027556D01*
X00204178Y00028195D01*
X00203048Y00028663D01*
X00201859Y00028948D01*
X00200640Y00029044D01*
D02*
G37*
G36*
X00180524D02*
X00179305Y00028948D01*
X00178116Y00028663D01*
X00176986Y00028195D01*
X00175943Y00027556D01*
X00175013Y00026761D01*
X00174219Y00025831D01*
X00173580Y00024788D01*
X00173111Y00023659D01*
X00172826Y00022469D01*
X00172730Y00021250D01*
Y00014250D01*
X00172826Y00013031D01*
X00173111Y00011842D01*
X00173580Y00010712D01*
X00174219Y00009669D01*
X00175013Y00008739D01*
X00175943Y00007944D01*
X00176986Y00007305D01*
X00178116Y00006837D01*
X00179305Y00006552D01*
X00180524Y00006456D01*
X00181743Y00006552D01*
X00182932Y00006837D01*
X00184062Y00007305D01*
X00185105Y00007944D01*
X00186035Y00008739D01*
X00186829Y00009669D01*
X00187468Y00010712D01*
X00187937Y00011842D01*
X00188222Y00013031D01*
X00188318Y00014250D01*
Y00021250D01*
X00188222Y00022469D01*
X00187937Y00023659D01*
X00187468Y00024788D01*
X00186829Y00025831D01*
X00186035Y00026761D01*
X00185105Y00027556D01*
X00184062Y00028195D01*
X00182932Y00028663D01*
X00181743Y00028948D01*
X00180524Y00029044D01*
D02*
G37*
G36*
X00079591Y00211361D02*
X00048353Y00211361D01*
X00047357Y00211263D01*
X00046399Y00210972D01*
X00045517Y00210501D01*
X00044743Y00209866D01*
X00044109Y00209092D01*
X00043637Y00208210D01*
X00043346Y00207252D01*
X00043248Y00206256D01*
X00043248Y00195675D01*
X00043182Y00194327D01*
X00043010Y00193163D01*
X00042724Y00192022D01*
X00042327Y00190914D01*
X00041824Y00189850D01*
X00041219Y00188841D01*
X00040518Y00187896D01*
X00039728Y00187024D01*
X00038856Y00186234D01*
X00037911Y00185533D01*
X00036902Y00184928D01*
X00035838Y00184425D01*
X00034731Y00184028D01*
X00033589Y00183743D01*
X00032425Y00183570D01*
X00031125Y00183506D01*
X00030000D01*
X00029004Y00183408D01*
X00028047Y00183117D01*
X00027164Y00182646D01*
X00026391Y00182011D01*
X00025756Y00181237D01*
X00025284Y00180355D01*
X00024994Y00179397D01*
X00024895Y00178401D01*
X00024895Y00151605D01*
X00024994Y00150609D01*
X00025284Y00149651D01*
X00025756Y00148769D01*
X00026391Y00147995D01*
X00027164Y00147360D01*
X00028047Y00146889D01*
X00029004Y00146598D01*
X00030000Y00146500D01*
X00031125D01*
X00032425Y00146436D01*
X00033589Y00146264D01*
X00034731Y00145978D01*
X00035838Y00145581D01*
X00036902Y00145078D01*
X00037911Y00144473D01*
X00038856Y00143772D01*
X00039728Y00142982D01*
X00040518Y00142111D01*
X00041219Y00141165D01*
X00041824Y00140156D01*
X00042327Y00139092D01*
X00042724Y00137985D01*
X00043010Y00136843D01*
X00043182Y00135679D01*
X00043240Y00134504D01*
X00043182Y00133329D01*
X00043010Y00132165D01*
X00042724Y00131024D01*
X00042327Y00129916D01*
X00041824Y00128852D01*
X00041219Y00127843D01*
X00040518Y00126898D01*
X00039728Y00126026D01*
X00038856Y00125236D01*
X00037911Y00124535D01*
X00036902Y00123930D01*
X00035838Y00123427D01*
X00034731Y00123031D01*
X00033589Y00122745D01*
X00032425Y00122572D01*
X00031125Y00122508D01*
X00030000D01*
X00029004Y00122410D01*
X00028047Y00122120D01*
X00027164Y00121648D01*
X00026391Y00121013D01*
X00025756Y00120239D01*
X00025284Y00119357D01*
X00024994Y00118399D01*
X00024896Y00117404D01*
X00024896Y00054103D01*
X00024934Y00053716D01*
X00024955Y00053326D01*
X00024983Y00053218D01*
X00024994Y00053107D01*
X00025107Y00052734D01*
X00025203Y00052357D01*
X00025252Y00052256D01*
X00025284Y00052150D01*
X00025468Y00051806D01*
X00025636Y00051455D01*
X00025703Y00051365D01*
X00025756Y00051267D01*
X00026003Y00050966D01*
X00026237Y00050654D01*
X00026320Y00050580D01*
X00026391Y00050493D01*
X00026692Y00050247D01*
X00026982Y00049986D01*
X00027078Y00049929D01*
X00027164Y00049859D01*
X00027507Y00049675D01*
X00027843Y00049477D01*
X00027948Y00049440D01*
X00028047Y00049387D01*
X00028419Y00049274D01*
X00028787Y00049145D01*
X00028897Y00049129D01*
X00029004Y00049096D01*
X00029392Y00049058D01*
X00029777Y00049003D01*
X00031655Y00048921D01*
X00033298Y00048705D01*
X00034916Y00048346D01*
X00036496Y00047848D01*
X00038027Y00047214D01*
X00039497Y00046449D01*
X00040894Y00045559D01*
X00042209Y00044550D01*
X00043430Y00043430D01*
X00044550Y00042209D01*
X00045559Y00040894D01*
X00046449Y00039497D01*
X00046847Y00038731D01*
X00046905Y00038643D01*
X00046948Y00038546D01*
X00047417Y00037731D01*
X00047788Y00036849D01*
X00057590Y00013552D01*
X00057830Y00012981D01*
X00057998Y00012670D01*
X00058148Y00012349D01*
X00058786Y00011274D01*
X00058996Y00010989D01*
X00059189Y00010692D01*
X00059970Y00009716D01*
X00060217Y00009462D01*
X00060449Y00009195D01*
X00061357Y00008336D01*
X00061637Y00008119D01*
X00061903Y00007886D01*
X00062922Y00007161D01*
X00063229Y00006985D01*
X00063525Y00006792D01*
X00064634Y00006214D01*
X00064962Y00006082D01*
X00065283Y00005932D01*
X00066461Y00005513D01*
X00066804Y00005428D01*
X00067142Y00005323D01*
X00068367Y00005071D01*
X00068719Y00005034D01*
X00069068Y00004977D01*
X00070316Y00004897D01*
X00070670Y00004909D01*
X00071023Y00004901D01*
X00072270Y00004994D01*
X00072619Y00005055D01*
X00072970Y00005095D01*
X00074192Y00005360D01*
X00074529Y00005469D01*
X00074872Y00005558D01*
X00076045Y00005989D01*
X00076364Y00006143D01*
X00076691Y00006278D01*
X00077794Y00006867D01*
X00078088Y00007064D01*
X00078393Y00007243D01*
X00079404Y00007979D01*
X00079668Y00008215D01*
X00079945Y00008434D01*
X00080845Y00009303D01*
X00081074Y00009573D01*
X00081318Y00009829D01*
X00082089Y00010814D01*
X00082278Y00011112D01*
X00082485Y00011400D01*
X00083112Y00012481D01*
X00083258Y00012803D01*
X00083423Y00013117D01*
X00083895Y00014275D01*
X00083995Y00014614D01*
X00084115Y00014947D01*
X00084422Y00016159D01*
X00084475Y00016509D01*
X00084548Y00016855D01*
X00084684Y00018098D01*
X00084688Y00018452D01*
X00084712Y00018805D01*
X00084696Y00019339D01*
X00084696Y00206257D01*
X00084598Y00207252D01*
X00084307Y00208210D01*
X00083836Y00209092D01*
X00083201Y00209866D01*
X00082427Y00210501D01*
X00081545Y00210972D01*
X00080587Y00211263D01*
X00079591Y00211361D01*
D02*
G37*
G36*
X00106128Y00034121D02*
X00093328D01*
X00092279Y00034038D01*
X00091257Y00033793D01*
X00090286Y00033390D01*
X00089389Y00032841D01*
X00088589Y00032158D01*
X00087907Y00031359D01*
X00087357Y00030462D01*
X00086955Y00029491D01*
X00086709Y00028468D01*
X00086627Y00027420D01*
Y00010620D01*
X00086709Y00009572D01*
X00086955Y00008549D01*
X00087357Y00007578D01*
X00087907Y00006682D01*
X00088589Y00005882D01*
X00089389Y00005199D01*
X00090286Y00004650D01*
X00091257Y00004247D01*
X00092279Y00004002D01*
X00093328Y00003919D01*
X00106128D01*
X00107176Y00004002D01*
X00108198Y00004247D01*
X00109170Y00004650D01*
X00110066Y00005199D01*
X00110866Y00005882D01*
X00111548Y00006682D01*
X00112098Y00007578D01*
X00112500Y00008549D01*
X00112746Y00009572D01*
X00112828Y00010620D01*
Y00027420D01*
X00112746Y00028468D01*
X00112500Y00029491D01*
X00112098Y00030462D01*
X00111548Y00031359D01*
X00110866Y00032158D01*
X00110066Y00032841D01*
X00109170Y00033390D01*
X00108198Y00033793D01*
X00107176Y00034038D01*
X00106128Y00034121D01*
D02*
G37*
%LPD*%
G36*
X00079591Y00019279D02*
X00079591Y00019279D01*
X00079609Y00018654D01*
X00079473Y00017411D01*
X00079167Y00016199D01*
X00078695Y00015041D01*
X00078068Y00013959D01*
X00077298Y00012974D01*
X00076399Y00012106D01*
X00075388Y00011370D01*
X00074285Y00010780D01*
X00073112Y00010349D01*
X00071890Y00010084D01*
X00070643Y00009991D01*
X00069395Y00010071D01*
X00068170Y00010323D01*
X00066992Y00010741D01*
X00065883Y00011319D01*
X00064865Y00012044D01*
X00063956Y00012904D01*
X00063175Y00013880D01*
X00062537Y00014955D01*
X00062295Y00015532D01*
X00052493Y00038829D01*
X00052000Y00040000D01*
Y00040000D01*
X00051375Y00041088D01*
X00050874Y00042052D01*
X00049744Y00043825D01*
X00048464Y00045493D01*
X00047043Y00047043D01*
X00045493Y00048464D01*
X00043825Y00049744D01*
X00042052Y00050874D01*
X00040186Y00051845D01*
X00038244Y00052649D01*
X00036238Y00053282D01*
X00034186Y00053737D01*
X00032101Y00054011D01*
X00030000Y00054103D01*
X00030000Y00117404D01*
X00031250D01*
X00032926Y00117486D01*
X00034586Y00117732D01*
X00036214Y00118140D01*
X00037794Y00118705D01*
X00039311Y00119423D01*
X00040751Y00120286D01*
X00042098Y00121285D01*
X00043342Y00122412D01*
X00044469Y00123656D01*
X00045469Y00125004D01*
X00046331Y00126443D01*
X00047049Y00127960D01*
X00047614Y00129540D01*
X00048022Y00131168D01*
X00048268Y00132828D01*
X00048351Y00134504D01*
X00048268Y00136180D01*
X00048022Y00137840D01*
X00047614Y00139468D01*
X00047049Y00141048D01*
X00046331Y00142565D01*
X00045469Y00144005D01*
X00044469Y00145353D01*
X00043342Y00146596D01*
X00042098Y00147723D01*
X00040751Y00148723D01*
X00039311Y00149586D01*
X00037794Y00150303D01*
X00036214Y00150868D01*
X00034586Y00151276D01*
X00032926Y00151522D01*
X00031250Y00151605D01*
X00030000D01*
X00030000Y00178401D01*
X00031250D01*
X00032926Y00178484D01*
X00034586Y00178730D01*
X00036214Y00179138D01*
X00037794Y00179703D01*
X00039311Y00180421D01*
X00040751Y00181283D01*
X00042098Y00182283D01*
X00043342Y00183410D01*
X00044469Y00184653D01*
X00045469Y00186001D01*
X00046331Y00187441D01*
X00047049Y00188958D01*
X00047614Y00190538D01*
X00048022Y00192166D01*
X00048268Y00193826D01*
X00048351Y00195502D01*
X00048353D01*
X00048353Y00206256D01*
X00079591Y00206257D01*
X00079591Y00019279D01*
D02*
G37*
D14*
X00128136Y00310726D02*
X00318568D01*
X00163902Y00229384D02*
X00166402Y00226884D01*
X00163902Y00229384D02*
Y00256283D01*
D52*
X00146270Y00275632D02*
D03*
X00399666Y00111232D02*
D03*
Y00085832D02*
D03*
Y00060432D02*
D03*
X00425066D02*
D03*
Y00111232D02*
D03*
D53*
Y00085832D02*
D03*
D66*
X00146268Y00275630D02*
D03*
X00424384Y00238000D02*
D03*
X00406384D02*
D03*
D67*
X00099727Y00019020D02*
D03*
D68*
X00070592D02*
D03*
D69*
X00023250Y00195502D02*
D03*
Y00134504D02*
D03*
X00416750Y00195502D02*
D03*
Y00134504D02*
D03*
D70*
X00410000Y00290000D02*
D03*
Y00030000D02*
D03*
X00030000D02*
D03*
Y00290000D02*
D03*
D71*
X00200640Y00017750D02*
D03*
X00180524D02*
D03*
D72*
X00157968D02*
D03*
X00132060Y00018004D02*
D03*
D73*
X00415510Y00232750D02*
D03*
X00196688Y00255000D02*
D03*
X00172656Y00057706D02*
D03*
X00181312Y00255000D02*
D03*
X00173625D02*
D03*
X00099846Y00275729D02*
D03*
X00060708D02*
D03*
X00080277D02*
D03*
X00109631D02*
D03*
X00090062D02*
D03*
X00070492D02*
D03*
X00023134Y00238674D02*
D03*
Y00246981D02*
D03*
Y00230038D02*
D03*
X00189000Y00255000D02*
D03*
X00196688Y00240500D02*
D03*
Y00247750D02*
D03*
X00226239Y00244078D02*
D03*
X00209998Y00236712D02*
D03*
X00218111Y00244078D02*
D03*
Y00236750D02*
D03*
X00226239D02*
D03*
X00075421Y00202904D02*
D03*
Y00185146D02*
D03*
X00174244Y00142885D02*
D03*
X00075421Y00131369D02*
D03*
Y00113938D02*
D03*
X00153273Y00038415D02*
D03*
X00162450D02*
D03*
X00144097D02*
D03*
X00134920D02*
D03*
X00166884Y00032746D02*
D03*
X00209998Y00244078D02*
D03*
X00366432Y00235972D02*
D03*
X00308430Y00293380D02*
D03*
X00372964Y00240520D02*
D03*
X00130214Y00032746D02*
D03*
X00300549Y00293380D02*
D03*
X00292668D02*
D03*
X00186750Y00186055D02*
D03*
X00284370Y00293380D02*
D03*
X00276073D02*
D03*
X00415510Y00243530D02*
D03*
X00052158Y00185146D02*
D03*
X00059912D02*
D03*
X00067667D02*
D03*
X00052158Y00131369D02*
D03*
X00059912D02*
D03*
X00067667D02*
D03*
X00139390Y00032746D02*
D03*
X00157743D02*
D03*
X00075421Y00043208D02*
D03*
X00067667D02*
D03*
X00059912D02*
D03*
X00052158Y00061958D02*
D03*
X00059912D02*
D03*
X00067667D02*
D03*
X00075421D02*
D03*
X00067667Y00113938D02*
D03*
X00059912D02*
D03*
X00052158D02*
D03*
X00059912Y00034778D02*
D03*
X00067667D02*
D03*
X00075421D02*
D03*
X00259478Y00293380D02*
D03*
X00267776D02*
D03*
X00148567Y00032746D02*
D03*
X00067667Y00202904D02*
D03*
X00059912D02*
D03*
X00052158D02*
D03*
X00195156Y00091420D02*
D03*
D74*
X00318568Y00310726D02*
D03*
X00163902Y00256283D02*
D03*
X00166402Y00226884D02*
D03*
X00128136Y00310726D02*
D03*
M02*
