G04*
G04 #@! TF.GenerationSoftware,Altium Limited,Altium Designer,20.1.8 (145)*
G04*
G04 Layer_Color=65535*
%FSAX44Y44*%
%MOMM*%
G71*
G04*
G04 #@! TF.SameCoordinates,038E23F0-B42B-4C45-894E-EE78EB3E0CC3*
G04*
G04*
G04 #@! TF.FilePolarity,Positive*
G04*
G01*
G75*
%ADD64C,0.5080*%
G36*
X00208641Y00124461D02*
X00208758Y00124432D01*
X00208905Y00124388D01*
X00209066Y00124314D01*
X00209213Y00124226D01*
X00209360Y00124109D01*
X00209375Y00124094D01*
X00209419Y00124050D01*
X00209477Y00123962D01*
X00209536Y00123859D01*
X00209595Y00123727D01*
X00209654Y00123565D01*
X00209698Y00123389D01*
X00209712Y00123184D01*
Y00123154D01*
Y00123081D01*
X00209698Y00122963D01*
X00209668Y00122817D01*
X00209624Y00122655D01*
X00209566Y00122494D01*
X00209492Y00122317D01*
X00209375Y00122171D01*
X00209360Y00122156D01*
X00209316Y00122112D01*
X00209228Y00122053D01*
X00209125Y00121994D01*
X00208993Y00121921D01*
X00208831Y00121862D01*
X00208641Y00121818D01*
X00208435Y00121804D01*
X00208332D01*
X00208230Y00121818D01*
X00208097Y00121848D01*
X00207951Y00121892D01*
X00207804Y00121965D01*
X00207657Y00122053D01*
X00207525Y00122171D01*
X00207510Y00122185D01*
X00207481Y00122244D01*
X00207422Y00122317D01*
X00207363Y00122435D01*
X00207305Y00122582D01*
X00207246Y00122758D01*
X00207216Y00122949D01*
X00207202Y00123184D01*
Y00123213D01*
Y00123272D01*
X00207216Y00123375D01*
X00207246Y00123507D01*
X00207290Y00123639D01*
X00207349Y00123800D01*
X00207437Y00123947D01*
X00207554Y00124094D01*
X00207569Y00124109D01*
X00207613Y00124153D01*
X00207686Y00124211D01*
X00207789Y00124285D01*
X00207921Y00124358D01*
X00208068Y00124417D01*
X00208244Y00124461D01*
X00208435Y00124476D01*
X00208523D01*
X00208641Y00124461D01*
D02*
G37*
G36*
X00211415Y00115755D02*
X00373980D01*
Y00100897D01*
X00098898D01*
Y00115755D01*
X00205102D01*
Y00117972D01*
X00205117Y00117898D01*
X00205132Y00117810D01*
X00205161Y00117708D01*
X00205220Y00117458D01*
X00205337Y00117194D01*
X00205425Y00117047D01*
X00205513Y00116915D01*
X00205631Y00116768D01*
X00205763Y00116636D01*
X00205910Y00116504D01*
X00206086Y00116386D01*
X00206101D01*
X00206130Y00116357D01*
X00206189Y00116327D01*
X00206262Y00116284D01*
X00206350Y00116239D01*
X00206468Y00116181D01*
X00206600Y00116137D01*
X00206747Y00116078D01*
X00206908Y00116019D01*
X00207084Y00115961D01*
X00207481Y00115858D01*
X00207936Y00115784D01*
X00208186Y00115770D01*
X00208435Y00115755D01*
X00208597D01*
X00208714Y00115770D01*
X00208846Y00115784D01*
X00209022Y00115814D01*
X00209213Y00115843D01*
X00209419Y00115872D01*
X00209639Y00115931D01*
X00209874Y00115990D01*
X00210109Y00116078D01*
X00210373Y00116166D01*
X00210623Y00116284D01*
X00210872Y00116416D01*
X00211136Y00116562D01*
X00211386Y00116739D01*
X00210344Y00118031D01*
X00210329Y00118016D01*
X00210300Y00118001D01*
X00210256Y00117957D01*
X00210182Y00117898D01*
X00210109Y00117840D01*
X00210006Y00117781D01*
X00209771Y00117634D01*
X00209477Y00117473D01*
X00209154Y00117355D01*
X00208787Y00117252D01*
X00208582Y00117238D01*
X00208391Y00117223D01*
X00208274D01*
X00208141Y00117238D01*
X00207965Y00117252D01*
X00207789Y00117282D01*
X00207584Y00117311D01*
X00207393Y00117370D01*
X00207202Y00117443D01*
X00207187Y00117458D01*
X00207128Y00117487D01*
X00207055Y00117531D01*
X00206967Y00117605D01*
X00206879Y00117678D01*
X00206805Y00117781D01*
X00206747Y00117898D01*
X00206732Y00118031D01*
Y00118045D01*
Y00118060D01*
X00206747Y00118133D01*
X00206791Y00118236D01*
X00206864Y00118354D01*
X00206923Y00118412D01*
X00206982Y00118456D01*
X00207070Y00118515D01*
X00207173Y00118559D01*
X00207290Y00118603D01*
X00207437Y00118632D01*
X00207584Y00118662D01*
X00207892D01*
X00207980Y00118647D01*
X00208097D01*
X00208244Y00118632D01*
X00208420Y00118618D01*
X00208611Y00118588D01*
X00208641D01*
X00208699Y00118574D01*
X00208802D01*
X00208920Y00118559D01*
X00209184Y00118544D01*
X00209316Y00118530D01*
X00209507D01*
X00209595Y00118544D01*
X00209698D01*
X00209830Y00118574D01*
X00209977Y00118588D01*
X00210285Y00118691D01*
X00210446Y00118750D01*
X00210608Y00118838D01*
X00210755Y00118926D01*
X00210887Y00119044D01*
X00210990Y00119190D01*
X00211078Y00119352D01*
X00211136Y00119543D01*
X00211151Y00119763D01*
Y00119778D01*
Y00119822D01*
X00211136Y00119895D01*
X00211122Y00119983D01*
X00211078Y00120086D01*
X00211034Y00120203D01*
X00210960Y00120321D01*
X00210872Y00120453D01*
X00210857Y00120468D01*
X00210813Y00120512D01*
X00210755Y00120570D01*
X00210681Y00120644D01*
X00210578Y00120717D01*
X00210476Y00120805D01*
X00210344Y00120879D01*
X00210212Y00120952D01*
X00210226Y00120967D01*
X00210256Y00120996D01*
X00210329Y00121040D01*
X00210402Y00121099D01*
X00210490Y00121187D01*
X00210593Y00121275D01*
X00210696Y00121392D01*
X00210813Y00121525D01*
X00210931Y00121686D01*
X00211034Y00121848D01*
X00211136Y00122038D01*
X00211224Y00122229D01*
X00211298Y00122450D01*
X00211357Y00122684D01*
X00211401Y00122934D01*
X00211415Y00123198D01*
Y00115755D01*
D02*
G37*
G36*
X00373980D02*
X00211415D01*
Y00123316D01*
X00211401Y00123389D01*
X00211386Y00123492D01*
X00211371Y00123595D01*
X00211313Y00123859D01*
X00211210Y00124167D01*
X00211136Y00124329D01*
X00211063Y00124476D01*
X00210960Y00124637D01*
X00210857Y00124799D01*
X00210725Y00124945D01*
X00210578Y00125092D01*
X00210564Y00125107D01*
X00210534Y00125122D01*
X00210490Y00125166D01*
X00210432Y00125210D01*
X00210344Y00125268D01*
X00210256Y00125327D01*
X00210138Y00125400D01*
X00210006Y00125474D01*
X00209712Y00125606D01*
X00209360Y00125723D01*
X00208964Y00125812D01*
X00208743Y00125826D01*
X00208523Y00125841D01*
X00208362D01*
X00208274Y00125826D01*
X00208186D01*
X00207951Y00125797D01*
X00207701Y00125753D01*
X00207437Y00125680D01*
X00207158Y00125591D01*
X00206908Y00125474D01*
X00206262Y00126237D01*
X00205102Y00125195D01*
X00205910Y00124608D01*
X00205895Y00124578D01*
X00205837Y00124505D01*
X00205778Y00124373D01*
X00205690Y00124197D01*
X00205616Y00123976D01*
X00205543Y00123727D01*
X00205499Y00123448D01*
X00205484Y00123140D01*
Y00123125D01*
Y00123081D01*
Y00123022D01*
X00205499Y00122934D01*
X00205513Y00122831D01*
X00205528Y00122714D01*
X00205572Y00122435D01*
X00205660Y00122127D01*
X00205792Y00121804D01*
X00205881Y00121642D01*
X00205983Y00121481D01*
X00206101Y00121334D01*
X00206233Y00121187D01*
X00206248Y00121172D01*
X00206262Y00121158D01*
X00206306Y00121128D01*
X00206365Y00121070D01*
X00206438Y00121025D01*
X00206527Y00120967D01*
X00206747Y00120835D01*
X00207026Y00120702D01*
X00207334Y00120585D01*
X00207701Y00120497D01*
X00207906Y00120482D01*
X00208112Y00120468D01*
X00208230D01*
X00208391Y00120482D01*
X00208582Y00120497D01*
X00208861Y00120526D01*
X00208876D01*
X00208920Y00120512D01*
X00208964Y00120497D01*
X00209022Y00120468D01*
X00209110Y00120424D01*
X00209213Y00120379D01*
X00209228D01*
X00209257Y00120350D01*
X00209360Y00120292D01*
X00209477Y00120203D01*
X00209507Y00120159D01*
X00209522Y00120101D01*
Y00120086D01*
X00209507Y00120057D01*
X00209492Y00120013D01*
X00209463Y00119969D01*
X00209404Y00119924D01*
X00209331Y00119880D01*
X00209213Y00119851D01*
X00209066Y00119836D01*
X00208978D01*
X00208905Y00119851D01*
X00208802D01*
X00208685Y00119880D01*
X00208538Y00119895D01*
X00208376Y00119924D01*
X00208362D01*
X00208288Y00119939D01*
X00208200Y00119954D01*
X00208083Y00119983D01*
X00207965Y00119998D01*
X00207818Y00120013D01*
X00207540Y00120027D01*
X00207437D01*
X00207319Y00120013D01*
X00207158Y00119998D01*
X00206967Y00119969D01*
X00206761Y00119924D01*
X00206541Y00119866D01*
X00206321Y00119778D01*
X00206086Y00119675D01*
X00205866Y00119557D01*
X00205660Y00119396D01*
X00205484Y00119205D01*
X00205323Y00118985D01*
X00205205Y00118721D01*
X00205132Y00118412D01*
X00205102Y00118075D01*
Y00115755D01*
X00098898D01*
Y00131377D01*
X00373980D01*
Y00115755D01*
D02*
G37*
%LPC*%
G36*
X00260473Y00113788D02*
Y00112173D01*
X00260458Y00112187D01*
X00260414Y00112275D01*
X00260326Y00112408D01*
X00260208Y00112569D01*
X00260061Y00112745D01*
X00259871Y00112951D01*
X00259650Y00113142D01*
X00259401Y00113318D01*
X00259386D01*
X00259371Y00113333D01*
X00259327Y00113362D01*
X00259269Y00113391D01*
X00259122Y00113465D01*
X00258916Y00113553D01*
X00258667Y00113641D01*
X00258388Y00113714D01*
X00258079Y00113773D01*
X00257757Y00113788D01*
X00257610D01*
X00257507Y00113773D01*
X00257390D01*
X00257243Y00113758D01*
X00257081Y00113729D01*
X00256905Y00113700D01*
X00256523Y00113626D01*
X00256127Y00113494D01*
X00255745Y00113333D01*
X00255569Y00113215D01*
X00255408Y00113098D01*
X00255393Y00113083D01*
X00255364Y00113068D01*
X00255334Y00113024D01*
X00255275Y00112965D01*
X00255217Y00112907D01*
X00255143Y00112819D01*
X00254982Y00112598D01*
X00254820Y00112334D01*
X00254688Y00112011D01*
X00254629Y00111820D01*
X00254585Y00111629D01*
X00254571Y00111424D01*
X00254556Y00111204D01*
Y00111189D01*
Y00111160D01*
Y00111086D01*
X00254571Y00110998D01*
X00254585Y00110896D01*
X00254615Y00110763D01*
X00254644Y00110617D01*
X00254688Y00110440D01*
X00254747Y00110250D01*
X00254820Y00110029D01*
X00254908Y00109809D01*
X00255011Y00109559D01*
X00255143Y00109295D01*
X00255290Y00109031D01*
X00255452Y00108737D01*
X00255642Y00108429D01*
X00257639Y00105390D01*
X00253969D01*
Y00103848D01*
X00260473D01*
Y00113788D01*
D02*
G37*
G36*
X00244470D02*
Y00112173D01*
X00244455Y00112187D01*
X00244411Y00112275D01*
X00244323Y00112408D01*
X00244206Y00112569D01*
X00244059Y00112745D01*
X00243868Y00112951D01*
X00243648Y00113142D01*
X00243398Y00113318D01*
X00243384D01*
X00243369Y00113333D01*
X00243325Y00113362D01*
X00243266Y00113391D01*
X00243119Y00113465D01*
X00242914Y00113553D01*
X00242664Y00113641D01*
X00242385Y00113714D01*
X00242077Y00113773D01*
X00241754Y00113788D01*
X00241607D01*
X00241504Y00113773D01*
X00241387D01*
X00241240Y00113758D01*
X00241079Y00113729D01*
X00240903Y00113700D01*
X00240521Y00113626D01*
X00240124Y00113494D01*
X00239743Y00113333D01*
X00239566Y00113215D01*
X00239405Y00113098D01*
X00239390Y00113083D01*
X00239361Y00113068D01*
X00239332Y00113024D01*
X00239273Y00112965D01*
X00239214Y00112907D01*
X00239141Y00112819D01*
X00238979Y00112598D01*
X00238818Y00112334D01*
X00238686Y00112011D01*
X00238627Y00111820D01*
X00238583Y00111629D01*
X00238568Y00111424D01*
X00238554Y00111204D01*
Y00111189D01*
Y00111160D01*
Y00111086D01*
X00238568Y00110998D01*
X00238583Y00110896D01*
X00238612Y00110763D01*
X00238642Y00110617D01*
X00238686Y00110440D01*
X00238744Y00110250D01*
X00238818Y00110029D01*
X00238906Y00109809D01*
X00239009Y00109559D01*
X00239141Y00109295D01*
X00239288Y00109031D01*
X00239449Y00108737D01*
X00239640Y00108429D01*
X00241637Y00105390D01*
X00237966D01*
Y00103848D01*
X00244470D01*
Y00113788D01*
D02*
G37*
G36*
X00203348D02*
Y00112173D01*
X00203333Y00112187D01*
X00203289Y00112275D01*
X00203201Y00112408D01*
X00203084Y00112569D01*
X00202937Y00112745D01*
X00202746Y00112951D01*
X00202526Y00113142D01*
X00202276Y00113318D01*
X00202262D01*
X00202247Y00113333D01*
X00202203Y00113362D01*
X00202144Y00113391D01*
X00201997Y00113465D01*
X00201792Y00113553D01*
X00201542Y00113641D01*
X00201263Y00113714D01*
X00200955Y00113773D01*
X00200632Y00113788D01*
X00200485D01*
D01*
X00196844D01*
X00200485D01*
X00200382Y00113773D01*
X00200265D01*
X00200118Y00113758D01*
X00199957Y00113729D01*
X00199781Y00113700D01*
X00199399Y00113626D01*
X00199002Y00113494D01*
X00198621Y00113333D01*
X00198444Y00113215D01*
X00198283Y00113098D01*
X00198268Y00113083D01*
X00198239Y00113068D01*
X00198210Y00113024D01*
X00198151Y00112965D01*
X00198092Y00112907D01*
X00198019Y00112819D01*
X00197857Y00112598D01*
X00197696Y00112334D01*
X00197564Y00112011D01*
X00197505Y00111820D01*
X00197461Y00111629D01*
X00197446Y00111424D01*
X00197432Y00111204D01*
Y00111189D01*
Y00111160D01*
Y00111086D01*
X00197446Y00110998D01*
X00197461Y00110896D01*
X00197490Y00110763D01*
X00197520Y00110617D01*
X00197564Y00110440D01*
X00197622Y00110250D01*
X00197696Y00110029D01*
X00197784Y00109809D01*
X00197887Y00109559D01*
X00198019Y00109295D01*
X00198165Y00109031D01*
X00198327Y00108737D01*
X00198518Y00108429D01*
X00200515Y00105390D01*
X00196844D01*
Y00103848D01*
X00203348D01*
Y00113788D01*
D02*
G37*
G36*
X00195347D02*
Y00112173D01*
X00195332Y00112187D01*
X00195288Y00112275D01*
X00195200Y00112408D01*
X00195082Y00112569D01*
X00194936Y00112745D01*
X00194745Y00112951D01*
X00194525Y00113142D01*
X00194275Y00113318D01*
X00194260D01*
X00194246Y00113333D01*
X00194202Y00113362D01*
X00194143Y00113391D01*
X00193996Y00113465D01*
X00193790Y00113553D01*
X00193541Y00113641D01*
X00193262Y00113714D01*
X00192954Y00113773D01*
X00192631Y00113788D01*
X00192484D01*
D01*
X00188843D01*
X00192484D01*
X00192381Y00113773D01*
X00192264D01*
X00192117Y00113758D01*
X00191955Y00113729D01*
X00191779Y00113700D01*
X00191397Y00113626D01*
X00191001Y00113494D01*
X00190619Y00113333D01*
X00190443Y00113215D01*
X00190282Y00113098D01*
X00190267Y00113083D01*
X00190238Y00113068D01*
X00190208Y00113024D01*
X00190150Y00112965D01*
X00190091Y00112907D01*
X00190018Y00112819D01*
X00189856Y00112598D01*
X00189694Y00112334D01*
X00189562Y00112011D01*
X00189504Y00111820D01*
X00189460Y00111629D01*
X00189445Y00111424D01*
X00189430Y00111204D01*
Y00111189D01*
Y00111160D01*
Y00111086D01*
X00189445Y00110998D01*
X00189460Y00110896D01*
X00189489Y00110763D01*
X00189518Y00110617D01*
X00189562Y00110440D01*
X00189621Y00110250D01*
X00189694Y00110029D01*
X00189783Y00109809D01*
X00189885Y00109559D01*
X00190018Y00109295D01*
X00190164Y00109031D01*
X00190326Y00108737D01*
X00190517Y00108429D01*
X00192513Y00105390D01*
X00188843D01*
Y00103848D01*
X00195347D01*
Y00113788D01*
D02*
G37*
G36*
X00295091D02*
X00289101D01*
X00292375D01*
X00292287Y00113773D01*
X00292155D01*
X00292022Y00113758D01*
X00291861Y00113729D01*
X00291685Y00113700D01*
X00291332Y00113626D01*
X00290951Y00113509D01*
X00290584Y00113333D01*
X00290408Y00113230D01*
X00290246Y00113112D01*
X00290231D01*
X00290217Y00113083D01*
X00290173Y00113039D01*
X00290114Y00112995D01*
X00290055Y00112921D01*
X00289982Y00112833D01*
X00289835Y00112628D01*
X00289688Y00112364D01*
X00289556Y00112041D01*
X00289453Y00111674D01*
X00289439Y00111468D01*
X00289424Y00111248D01*
Y00111233D01*
Y00111189D01*
X00289439Y00111116D01*
Y00111013D01*
X00289468Y00110896D01*
X00289483Y00110763D01*
X00289527Y00110602D01*
X00289571Y00110440D01*
X00289644Y00110264D01*
X00289718Y00110088D01*
X00289820Y00109912D01*
X00289938Y00109736D01*
X00290084Y00109559D01*
X00290246Y00109383D01*
X00290437Y00109222D01*
X00290657Y00109075D01*
X00290642Y00109060D01*
X00290584Y00109046D01*
X00290510Y00109002D01*
X00290408Y00108928D01*
X00290290Y00108855D01*
X00290158Y00108752D01*
X00290026Y00108635D01*
X00289879Y00108488D01*
X00289732Y00108326D01*
X00289600Y00108150D01*
X00289468Y00107945D01*
X00289350Y00107724D01*
X00289248Y00107489D01*
X00289174Y00107225D01*
X00289116Y00106946D01*
X00289101Y00106638D01*
Y00106682D01*
Y00106506D01*
X00289116Y00106403D01*
X00289130Y00106286D01*
X00289145Y00106153D01*
X00289174Y00106007D01*
X00289218Y00105845D01*
X00289321Y00105493D01*
X00289394Y00105317D01*
X00289497Y00105140D01*
X00289600Y00104964D01*
X00289718Y00104788D01*
X00289864Y00104627D01*
X00290026Y00104480D01*
X00290040Y00104465D01*
X00290070Y00104450D01*
X00290129Y00104406D01*
X00290202Y00104362D01*
X00290290Y00104304D01*
X00290408Y00104245D01*
X00290540Y00104171D01*
X00290686Y00104098D01*
X00290863Y00104025D01*
X00291054Y00103951D01*
X00291259Y00103893D01*
X00291494Y00103834D01*
X00291744Y00103790D01*
X00292008Y00103746D01*
X00292287Y00103731D01*
X00292580Y00103716D01*
X00292727D01*
X00292830Y00103731D01*
X00292947Y00103746D01*
X00293094Y00103760D01*
X00293270Y00103790D01*
X00293447Y00103834D01*
X00293843Y00103951D01*
X00294049Y00104025D01*
X00294254Y00104113D01*
X00294474Y00104230D01*
X00294680Y00104362D01*
X00294885Y00104509D01*
X00295091Y00104671D01*
X00294225Y00106007D01*
X00294210Y00105992D01*
X00294195Y00105977D01*
X00294151Y00105933D01*
X00294093Y00105875D01*
X00293931Y00105742D01*
X00293725Y00105596D01*
X00293491Y00105449D01*
X00293197Y00105317D01*
X00292889Y00105214D01*
X00292727Y00105199D01*
X00292566Y00105184D01*
X00292492D01*
X00292419Y00105199D01*
X00292301Y00105214D01*
X00292184Y00105229D01*
X00292037Y00105273D01*
X00291890Y00105317D01*
X00291729Y00105375D01*
X00291582Y00105463D01*
X00291435Y00105566D01*
X00291288Y00105684D01*
X00291171Y00105845D01*
X00291054Y00106021D01*
X00290980Y00106227D01*
X00290921Y00106462D01*
X00290907Y00106741D01*
Y00106755D01*
Y00106770D01*
Y00106858D01*
X00290936Y00106990D01*
X00290965Y00107152D01*
X00291024Y00107328D01*
X00291112Y00107519D01*
X00291230Y00107710D01*
X00291391Y00107886D01*
X00291406Y00107900D01*
X00291479Y00107959D01*
X00291582Y00108033D01*
X00291729Y00108121D01*
X00291920Y00108194D01*
X00292140Y00108268D01*
X00292390Y00108326D01*
X00292683Y00108341D01*
X00292977D01*
Y00109765D01*
X00292668D01*
X00292595Y00109780D01*
X00292492D01*
X00292375Y00109809D01*
X00292257Y00109824D01*
X00291978Y00109927D01*
X00291832Y00109985D01*
X00291700Y00110073D01*
X00291582Y00110161D01*
X00291465Y00110279D01*
X00291362Y00110426D01*
X00291288Y00110587D01*
X00291244Y00110778D01*
X00291230Y00110998D01*
Y00111013D01*
Y00111057D01*
X00291244Y00111116D01*
Y00111204D01*
X00291274Y00111307D01*
X00291303Y00111424D01*
X00291347Y00111542D01*
X00291406Y00111659D01*
X00291479Y00111776D01*
X00291567Y00111909D01*
X00291685Y00112011D01*
X00291817Y00112114D01*
X00291978Y00112202D01*
X00292169Y00112261D01*
X00292375Y00112305D01*
X00292624Y00112320D01*
X00292654D01*
X00292742Y00112305D01*
X00292889Y00112290D01*
X00293065Y00112232D01*
X00293285Y00112158D01*
X00293520Y00112041D01*
X00293769Y00111864D01*
X00293887Y00111762D01*
X00294019Y00111644D01*
X00294827Y00112833D01*
X00294812Y00112848D01*
X00294768Y00112892D01*
X00294694Y00112965D01*
X00294592Y00113054D01*
X00294459Y00113156D01*
X00294283Y00113274D01*
X00294093Y00113391D01*
X00293858Y00113494D01*
X00293843D01*
X00293828Y00113509D01*
X00293740Y00113538D01*
X00293608Y00113582D01*
X00293432Y00113641D01*
X00293241Y00113700D01*
X00293006Y00113744D01*
X00292771Y00113773D01*
X00292522Y00113788D01*
X00295091D01*
D02*
G37*
G36*
X00182178Y00113656D02*
X00176173D01*
X00176628D01*
Y00112187D01*
X00180225D01*
Y00110440D01*
X00180210Y00110455D01*
X00180152Y00110470D01*
X00180049Y00110499D01*
X00179932Y00110543D01*
X00179770Y00110587D01*
X00179594Y00110617D01*
X00179403Y00110631D01*
X00179183Y00110646D01*
X00179036D01*
X00178948Y00110631D01*
X00178816Y00110617D01*
X00178684Y00110602D01*
X00178522Y00110573D01*
X00178361Y00110543D01*
X00177994Y00110440D01*
X00177817Y00110382D01*
X00177626Y00110294D01*
X00177450Y00110191D01*
X00177274Y00110088D01*
X00177098Y00109956D01*
X00176951Y00109809D01*
X00176936Y00109794D01*
X00176922Y00109765D01*
X00176878Y00109721D01*
X00176834Y00109662D01*
X00176775Y00109574D01*
X00176702Y00109471D01*
X00176628Y00109339D01*
X00176555Y00109207D01*
X00176496Y00109046D01*
X00176423Y00108869D01*
X00176349Y00108664D01*
X00176291Y00108458D01*
X00176246Y00108238D01*
X00176203Y00107989D01*
X00176188Y00107724D01*
X00176173Y00107445D01*
Y00107489D01*
Y00107445D01*
Y00107284D01*
X00176188Y00107196D01*
X00176203Y00107108D01*
X00176232Y00106858D01*
X00176276Y00106579D01*
X00176364Y00106271D01*
X00176467Y00105933D01*
X00176614Y00105581D01*
X00176790Y00105229D01*
X00177025Y00104891D01*
X00177304Y00104583D01*
X00177465Y00104436D01*
X00177641Y00104304D01*
X00177832Y00104171D01*
X00178052Y00104054D01*
X00178272Y00103966D01*
X00178507Y00103878D01*
X00178772Y00103805D01*
X00179051Y00103760D01*
X00179344Y00103731D01*
X00179667Y00103716D01*
X00179799D01*
X00179902Y00103731D01*
X00180034Y00103746D01*
X00180181Y00103760D01*
X00180343Y00103790D01*
X00180519Y00103819D01*
X00180915Y00103922D01*
X00181121Y00103995D01*
X00181326Y00104083D01*
X00181546Y00104186D01*
X00181767Y00104304D01*
X00181972Y00104436D01*
X00182178Y00104583D01*
X00181488Y00106007D01*
X00181473Y00105992D01*
X00181444Y00105977D01*
X00181385Y00105933D01*
X00181311Y00105875D01*
X00181223Y00105816D01*
X00181106Y00105742D01*
X00180856Y00105596D01*
X00180578Y00105449D01*
X00180269Y00105317D01*
X00179961Y00105214D01*
X00179814Y00105199D01*
X00179667Y00105184D01*
X00179594D01*
X00179506Y00105199D01*
X00179403Y00105214D01*
X00179271Y00105243D01*
X00179139Y00105287D01*
X00178977Y00105361D01*
X00178816Y00105449D01*
X00178669Y00105552D01*
X00178507Y00105684D01*
X00178375Y00105860D01*
X00178243Y00106065D01*
X00178140Y00106300D01*
X00178052Y00106565D01*
X00177994Y00106888D01*
X00177979Y00107254D01*
Y00107269D01*
Y00107299D01*
Y00107357D01*
Y00107416D01*
X00177994Y00107592D01*
X00178023Y00107812D01*
X00178067Y00108047D01*
X00178140Y00108282D01*
X00178228Y00108517D01*
X00178361Y00108708D01*
X00178375Y00108723D01*
X00178434Y00108781D01*
X00178522Y00108855D01*
X00178669Y00108943D01*
X00178845Y00109031D01*
X00179065Y00109104D01*
X00179330Y00109163D01*
X00179638Y00109178D01*
X00179711D01*
X00179770Y00109163D01*
X00179932Y00109134D01*
X00180137Y00109075D01*
X00180387Y00108987D01*
X00180651Y00108840D01*
X00180783Y00108752D01*
X00180930Y00108649D01*
X00181077Y00108532D01*
X00181223Y00108385D01*
X00181899Y00108825D01*
Y00113656D01*
X00182178D01*
D02*
G37*
G36*
X00208119Y00111321D02*
D01*
Y00110205D01*
X00208105Y00110294D01*
X00208075Y00110411D01*
X00208031Y00110543D01*
X00207973Y00110690D01*
X00207899Y00110837D01*
X00207782Y00110969D01*
X00207767Y00110984D01*
X00207723Y00111028D01*
X00207650Y00111086D01*
X00207547Y00111145D01*
X00207415Y00111204D01*
X00207268Y00111263D01*
X00207106Y00111307D01*
X00206930Y00111321D01*
X00208119D01*
X00205726D01*
X00206842D01*
X00206754Y00111307D01*
X00206637Y00111277D01*
X00206504Y00111233D01*
X00206358Y00111174D01*
X00206211Y00111086D01*
X00206079Y00110969D01*
X00206064Y00110954D01*
X00206020Y00110910D01*
X00205961Y00110837D01*
X00205903Y00110734D01*
X00205844Y00110602D01*
X00205785Y00110455D01*
X00205741Y00110294D01*
X00205726Y00110117D01*
Y00110029D01*
X00205741Y00109941D01*
X00205770Y00109824D01*
X00205814Y00109692D01*
X00205873Y00109545D01*
X00205961Y00109398D01*
X00206079Y00109266D01*
X00206093Y00109251D01*
X00206137Y00109207D01*
X00206211Y00109148D01*
X00206314Y00109090D01*
X00206446Y00109031D01*
X00206593Y00108972D01*
X00206754Y00108928D01*
X00206930Y00108913D01*
X00207018D01*
X00207106Y00108928D01*
X00207224Y00108958D01*
X00207356Y00109002D01*
X00207503Y00109060D01*
X00207650Y00109148D01*
X00207782Y00109266D01*
X00207796Y00109281D01*
X00207840Y00109325D01*
X00207885Y00109398D01*
X00207943Y00109501D01*
X00208017Y00109633D01*
X00208061Y00109780D01*
X00208105Y00109941D01*
X00208119Y00110117D01*
Y00104803D01*
X00208105Y00104891D01*
X00208075Y00105008D01*
X00208031Y00105140D01*
X00207973Y00105287D01*
X00207899Y00105434D01*
X00207782Y00105566D01*
X00207767Y00105581D01*
X00207723Y00105625D01*
X00207650Y00105684D01*
X00207547Y00105742D01*
X00207415Y00105801D01*
X00207268Y00105860D01*
X00207106Y00105904D01*
X00206930Y00105919D01*
X00206842D01*
X00206754Y00105904D01*
X00206637Y00105875D01*
X00206504Y00105830D01*
X00206358Y00105772D01*
X00206211Y00105684D01*
X00206079Y00105566D01*
X00206064Y00105552D01*
X00206020Y00105507D01*
X00205961Y00105434D01*
X00205903Y00105331D01*
X00205844Y00105199D01*
X00205785Y00105052D01*
X00205741Y00104891D01*
X00205726Y00104715D01*
Y00104627D01*
X00205741Y00104538D01*
X00205770Y00104421D01*
X00205814Y00104289D01*
X00205873Y00104142D01*
X00205961Y00103995D01*
X00206079Y00103863D01*
X00206093Y00103848D01*
X00206137Y00103805D01*
X00206211Y00103746D01*
X00206314Y00103687D01*
X00206446Y00103628D01*
X00206593Y00103570D01*
X00206754Y00103525D01*
X00206930Y00103511D01*
X00207018D01*
X00207106Y00103525D01*
X00207224Y00103555D01*
X00207356Y00103599D01*
X00207503Y00103658D01*
X00207650Y00103746D01*
X00207782Y00103863D01*
X00207796Y00103878D01*
X00207840Y00103922D01*
X00207885Y00103995D01*
X00207943Y00104098D01*
X00208017Y00104230D01*
X00208061Y00104377D01*
X00208105Y00104538D01*
X00208119Y00104715D01*
Y00103525D01*
Y00111321D01*
D02*
G37*
G36*
X00273847Y00113802D02*
X00267402D01*
X00269648D01*
X00268723Y00112833D01*
X00268738D01*
X00268767Y00112804D01*
X00268826Y00112775D01*
X00268885Y00112745D01*
X00268973Y00112687D01*
X00269076Y00112628D01*
X00269325Y00112466D01*
X00269604Y00112261D01*
X00269913Y00112026D01*
X00270236Y00111762D01*
X00270544Y00111453D01*
X00270558Y00111439D01*
X00270573Y00111409D01*
X00270617Y00111365D01*
X00270676Y00111307D01*
X00270749Y00111233D01*
X00270823Y00111145D01*
X00270999Y00110925D01*
X00271175Y00110675D01*
X00271366Y00110396D01*
X00271542Y00110088D01*
X00271674Y00109780D01*
X00271660D01*
X00271645Y00109794D01*
X00271557Y00109824D01*
X00271425Y00109882D01*
X00271263Y00109941D01*
X00271072Y00110000D01*
X00270867Y00110059D01*
X00270661Y00110088D01*
X00270471Y00110103D01*
X00270338D01*
X00270236Y00110088D01*
X00270118Y00110073D01*
X00269986Y00110059D01*
X00269839Y00110029D01*
X00269678Y00110000D01*
X00269325Y00109897D01*
X00269135Y00109824D01*
X00268958Y00109736D01*
X00268767Y00109633D01*
X00268591Y00109530D01*
X00268415Y00109383D01*
X00268254Y00109236D01*
X00268239Y00109222D01*
X00268209Y00109192D01*
X00268180Y00109148D01*
X00268121Y00109075D01*
X00268063Y00109002D01*
X00267989Y00108884D01*
X00267901Y00108767D01*
X00267828Y00108635D01*
X00267754Y00108473D01*
X00267666Y00108297D01*
X00267593Y00108106D01*
X00267534Y00107900D01*
X00267475Y00107680D01*
X00267431Y00107445D01*
X00267417Y00107196D01*
X00267402Y00106932D01*
Y00106799D01*
X00267417Y00106697D01*
X00267431Y00106565D01*
X00267446Y00106432D01*
X00267475Y00106271D01*
X00267505Y00106095D01*
X00267608Y00105728D01*
X00267681Y00105537D01*
X00267769Y00105346D01*
X00267872Y00105140D01*
X00267975Y00104950D01*
X00268121Y00104773D01*
X00268268Y00104597D01*
X00268283Y00104583D01*
X00268312Y00104553D01*
X00268356Y00104509D01*
X00268415Y00104465D01*
X00268503Y00104392D01*
X00268606Y00104318D01*
X00268723Y00104245D01*
X00268855Y00104157D01*
X00269002Y00104069D01*
X00269179Y00103995D01*
X00269545Y00103848D01*
X00269751Y00103805D01*
X00269971Y00103760D01*
X00270191Y00103731D01*
X00270441Y00103716D01*
X00270529D01*
X00270588Y00103731D01*
X00270661D01*
X00270749Y00103746D01*
X00270970Y00103790D01*
X00271234Y00103848D01*
X00271513Y00103937D01*
X00271821Y00104069D01*
X00272144Y00104245D01*
X00272467Y00104465D01*
X00272614Y00104612D01*
X00272775Y00104759D01*
X00272922Y00104920D01*
X00273054Y00105096D01*
X00273186Y00105287D01*
X00273319Y00105507D01*
X00273436Y00105742D01*
X00273539Y00105992D01*
X00273627Y00106271D01*
X00273700Y00106565D01*
X00273759Y00106873D01*
X00273803Y00107211D01*
X00273832Y00107577D01*
X00273847Y00107959D01*
Y00103937D01*
Y00108047D01*
X00273832Y00108135D01*
Y00108268D01*
X00273803Y00108429D01*
X00273774Y00108620D01*
X00273744Y00108840D01*
X00273686Y00109090D01*
X00273612Y00109339D01*
X00273524Y00109633D01*
X00273421Y00109927D01*
X00273289Y00110235D01*
X00273142Y00110558D01*
X00272966Y00110896D01*
X00272775Y00111233D01*
X00272540Y00111571D01*
X00272526Y00111586D01*
X00272482Y00111644D01*
X00272408Y00111747D01*
X00272306Y00111864D01*
X00272188Y00112011D01*
X00272041Y00112173D01*
X00271865Y00112349D01*
X00271689Y00112540D01*
X00271483Y00112731D01*
X00271249Y00112921D01*
X00271014Y00113112D01*
X00270764Y00113288D01*
X00270500Y00113450D01*
X00270221Y00113597D01*
X00269942Y00113714D01*
X00269648Y00113802D01*
X00273847D01*
D02*
G37*
G36*
X00220452Y00113656D02*
X00219762D01*
Y00103848D01*
X00221494D01*
Y00110881D01*
X00223476Y00109692D01*
Y00111380D01*
Y00111365D01*
X00223447Y00111380D01*
X00223388Y00111409D01*
X00223285Y00111453D01*
X00223153Y00111527D01*
X00222992Y00111615D01*
X00222815Y00111732D01*
X00222610Y00111850D01*
X00222375Y00111997D01*
X00222140Y00112158D01*
X00221905Y00112334D01*
X00221391Y00112716D01*
X00220907Y00113171D01*
X00220672Y00113406D01*
X00220452Y00113656D01*
D02*
G37*
G36*
X00170433D02*
X00169743D01*
Y00103848D01*
X00171475D01*
Y00110881D01*
X00173457Y00109692D01*
Y00111380D01*
Y00111365D01*
X00173428Y00111380D01*
X00173369Y00111409D01*
X00173266Y00111453D01*
X00173134Y00111527D01*
X00172973Y00111615D01*
X00172796Y00111732D01*
X00172591Y00111850D01*
X00172356Y00111997D01*
X00172121Y00112158D01*
X00171886Y00112334D01*
X00171372Y00112716D01*
X00170888Y00113171D01*
X00170653Y00113406D01*
X00170433Y00113656D01*
D02*
G37*
G36*
X00282230Y00113788D02*
X00275227D01*
D01*
X00278560D01*
X00278501Y00113773D01*
X00278428D01*
X00278325Y00113758D01*
X00278119Y00113714D01*
X00277855Y00113641D01*
X00277561Y00113523D01*
X00277253Y00113377D01*
X00276930Y00113171D01*
X00276783Y00113039D01*
X00276622Y00112907D01*
X00276460Y00112745D01*
X00276314Y00112569D01*
X00276167Y00112378D01*
X00276020Y00112173D01*
X00275888Y00111938D01*
X00275756Y00111688D01*
X00275653Y00111409D01*
X00275536Y00111116D01*
X00275447Y00110793D01*
X00275374Y00110455D01*
X00275315Y00110088D01*
X00275271Y00109692D01*
X00275242Y00109266D01*
X00275227Y00108811D01*
Y00108840D01*
Y00108590D01*
X00275242Y00108429D01*
X00275257Y00108223D01*
X00275271Y00108003D01*
X00275301Y00107739D01*
X00275345Y00107475D01*
X00275389Y00107181D01*
X00275447Y00106873D01*
X00275521Y00106565D01*
X00275624Y00106256D01*
X00275726Y00105948D01*
X00275844Y00105654D01*
X00275991Y00105361D01*
X00276152Y00105096D01*
X00276167Y00105082D01*
X00276196Y00105038D01*
X00276255Y00104964D01*
X00276328Y00104876D01*
X00276416Y00104773D01*
X00276534Y00104656D01*
X00276666Y00104538D01*
X00276827Y00104406D01*
X00276989Y00104274D01*
X00277194Y00104157D01*
X00277400Y00104039D01*
X00277635Y00103937D01*
X00277885Y00103848D01*
X00278149Y00103775D01*
X00278428Y00103731D01*
X00278736Y00103716D01*
X00278809D01*
X00278912Y00103731D01*
X00279030D01*
X00279176Y00103760D01*
X00279353Y00103790D01*
X00279529Y00103819D01*
X00279734Y00103878D01*
X00279954Y00103951D01*
X00280175Y00104025D01*
X00280395Y00104128D01*
X00280600Y00104260D01*
X00280821Y00104406D01*
X00281026Y00104568D01*
X00281202Y00104773D01*
X00281379Y00104994D01*
X00281393Y00105008D01*
X00281408Y00105052D01*
X00281452Y00105126D01*
X00281511Y00105243D01*
X00281569Y00105375D01*
X00281643Y00105537D01*
X00281731Y00105742D01*
X00281804Y00105977D01*
X00281878Y00106242D01*
X00281966Y00106535D01*
X00282039Y00106873D01*
X00282098Y00107225D01*
X00282157Y00107622D01*
X00282186Y00108062D01*
X00282215Y00108517D01*
X00282230Y00109016D01*
Y00109207D01*
X00282215Y00109354D01*
X00282201Y00109530D01*
X00282171Y00109721D01*
X00282142Y00109956D01*
X00282113Y00110191D01*
X00282054Y00110455D01*
X00281995Y00110734D01*
X00281922Y00111013D01*
X00281819Y00111292D01*
X00281716Y00111586D01*
X00281584Y00111864D01*
X00281437Y00112143D01*
X00281261Y00112408D01*
X00281246Y00112422D01*
X00281217Y00112466D01*
X00281158Y00112540D01*
X00281085Y00112628D01*
X00280982Y00112731D01*
X00280865Y00112848D01*
X00280718Y00112965D01*
X00280571Y00113098D01*
X00280380Y00113230D01*
X00280189Y00113347D01*
X00279969Y00113465D01*
X00279749Y00113567D01*
X00279499Y00113656D01*
X00279220Y00113729D01*
X00278941Y00113773D01*
X00278648Y00113788D01*
X00282230D01*
D01*
D02*
G37*
G36*
X00249315D02*
X00249227D01*
X00249168Y00113773D01*
X00249095D01*
X00248992Y00113758D01*
X00248786Y00113714D01*
X00248522Y00113641D01*
X00248228Y00113523D01*
X00247920Y00113377D01*
X00247597Y00113171D01*
X00247450Y00113039D01*
X00247289Y00112907D01*
X00247127Y00112745D01*
X00246980Y00112569D01*
X00246834Y00112378D01*
X00246687Y00112173D01*
X00246555Y00111938D01*
X00246423Y00111688D01*
X00246320Y00111409D01*
X00246202Y00111116D01*
X00246114Y00110793D01*
X00246041Y00110455D01*
X00245982Y00110088D01*
X00245938Y00109692D01*
X00245909Y00109266D01*
X00245894Y00108811D01*
D01*
Y00108590D01*
X00245909Y00108429D01*
X00245924Y00108223D01*
X00245938Y00108003D01*
X00245968Y00107739D01*
X00246012Y00107475D01*
X00246056Y00107181D01*
X00246114Y00106873D01*
X00246188Y00106565D01*
X00246290Y00106256D01*
X00246393Y00105948D01*
X00246511Y00105654D01*
X00246658Y00105361D01*
X00246819Y00105096D01*
X00246834Y00105082D01*
X00246863Y00105038D01*
X00246922Y00104964D01*
X00246995Y00104876D01*
X00247083Y00104773D01*
X00247201Y00104656D01*
X00247333Y00104538D01*
X00247494Y00104406D01*
X00247656Y00104274D01*
X00247861Y00104157D01*
X00248067Y00104039D01*
X00248302Y00103937D01*
X00248551Y00103848D01*
X00248816Y00103775D01*
X00249095Y00103731D01*
X00249403Y00103716D01*
X00245894D01*
X00252897D01*
X00249476D01*
X00249579Y00103731D01*
X00249697D01*
X00249843Y00103760D01*
X00250019Y00103790D01*
X00250196Y00103819D01*
X00250401Y00103878D01*
X00250621Y00103951D01*
X00250842Y00104025D01*
X00251062Y00104128D01*
X00251267Y00104260D01*
X00251488Y00104406D01*
X00251693Y00104568D01*
X00251869Y00104773D01*
X00252045Y00104994D01*
X00252060Y00105008D01*
X00252075Y00105052D01*
X00252119Y00105126D01*
X00252178Y00105243D01*
X00252236Y00105375D01*
X00252310Y00105537D01*
X00252398Y00105742D01*
X00252471Y00105977D01*
X00252545Y00106242D01*
X00252633Y00106535D01*
X00252706Y00106873D01*
X00252765Y00107225D01*
X00252824Y00107622D01*
X00252853Y00108062D01*
X00252882Y00108517D01*
X00252897Y00109016D01*
Y00109207D01*
X00252882Y00109354D01*
X00252868Y00109530D01*
X00252838Y00109721D01*
X00252809Y00109956D01*
X00252780Y00110191D01*
X00252721Y00110455D01*
X00252662Y00110734D01*
X00252589Y00111013D01*
X00252486Y00111292D01*
X00252383Y00111586D01*
X00252251Y00111864D01*
X00252104Y00112143D01*
X00251928Y00112408D01*
X00251913Y00112422D01*
X00251884Y00112466D01*
X00251825Y00112540D01*
X00251752Y00112628D01*
X00251649Y00112731D01*
X00251532Y00112848D01*
X00251385Y00112965D01*
X00251238Y00113098D01*
X00251047Y00113230D01*
X00250856Y00113347D01*
X00250636Y00113465D01*
X00250416Y00113567D01*
X00250166Y00113656D01*
X00249887Y00113729D01*
X00249608Y00113773D01*
X00249315Y00113788D01*
D02*
G37*
G36*
X00233312D02*
X00233224D01*
X00233165Y00113773D01*
X00233092D01*
X00232989Y00113758D01*
X00232784Y00113714D01*
X00232520Y00113641D01*
X00232226Y00113523D01*
X00231918Y00113377D01*
X00231595Y00113171D01*
X00231448Y00113039D01*
X00231286Y00112907D01*
X00231125Y00112745D01*
X00230978Y00112569D01*
X00230831Y00112378D01*
X00230684Y00112173D01*
X00230552Y00111938D01*
X00230420Y00111688D01*
X00230317Y00111409D01*
X00230200Y00111116D01*
X00230112Y00110793D01*
X00230038Y00110455D01*
X00229980Y00110088D01*
X00229936Y00109692D01*
X00229906Y00109266D01*
X00229892Y00108811D01*
D01*
Y00108590D01*
X00229906Y00108429D01*
X00229921Y00108223D01*
X00229936Y00108003D01*
X00229965Y00107739D01*
X00230009Y00107475D01*
X00230053Y00107181D01*
X00230112Y00106873D01*
X00230185Y00106565D01*
X00230288Y00106256D01*
X00230391Y00105948D01*
X00230508Y00105654D01*
X00230655Y00105361D01*
X00230816Y00105096D01*
X00230831Y00105082D01*
X00230861Y00105038D01*
X00230919Y00104964D01*
X00230993Y00104876D01*
X00231081Y00104773D01*
X00231198Y00104656D01*
X00231330Y00104538D01*
X00231492Y00104406D01*
X00231653Y00104274D01*
X00231859Y00104157D01*
X00232064Y00104039D01*
X00232299Y00103937D01*
X00232549Y00103848D01*
X00232813Y00103775D01*
X00233092Y00103731D01*
X00233400Y00103716D01*
X00229892D01*
X00236894D01*
X00233474D01*
X00233577Y00103731D01*
X00233694D01*
X00233841Y00103760D01*
X00234017Y00103790D01*
X00234193Y00103819D01*
X00234399Y00103878D01*
X00234619Y00103951D01*
X00234839Y00104025D01*
X00235059Y00104128D01*
X00235265Y00104260D01*
X00235485Y00104406D01*
X00235691Y00104568D01*
X00235867Y00104773D01*
X00236043Y00104994D01*
X00236058Y00105008D01*
X00236072Y00105052D01*
X00236116Y00105126D01*
X00236175Y00105243D01*
X00236234Y00105375D01*
X00236307Y00105537D01*
X00236395Y00105742D01*
X00236469Y00105977D01*
X00236542Y00106242D01*
X00236630Y00106535D01*
X00236704Y00106873D01*
X00236762Y00107225D01*
X00236821Y00107622D01*
X00236850Y00108062D01*
X00236880Y00108517D01*
X00236894Y00109016D01*
Y00109207D01*
X00236880Y00109354D01*
X00236865Y00109530D01*
X00236836Y00109721D01*
X00236807Y00109956D01*
X00236777Y00110191D01*
X00236718Y00110455D01*
X00236660Y00110734D01*
X00236586Y00111013D01*
X00236483Y00111292D01*
X00236381Y00111586D01*
X00236249Y00111864D01*
X00236102Y00112143D01*
X00235926Y00112408D01*
X00235911Y00112422D01*
X00235882Y00112466D01*
X00235823Y00112540D01*
X00235749Y00112628D01*
X00235647Y00112731D01*
X00235529Y00112848D01*
X00235382Y00112965D01*
X00235236Y00113098D01*
X00235045Y00113230D01*
X00234854Y00113347D01*
X00234634Y00113465D01*
X00234413Y00113567D01*
X00234164Y00113656D01*
X00233885Y00113729D01*
X00233606Y00113773D01*
X00233312Y00113788D01*
D02*
G37*
G36*
X00303136Y00113788D02*
X00296632Y00113788D01*
D01*
X00300273D01*
X00300170Y00113773D01*
X00300053D01*
X00299906Y00113758D01*
X00299745Y00113729D01*
X00299569Y00113700D01*
X00299187Y00113626D01*
X00298790Y00113494D01*
X00298409Y00113333D01*
X00298233Y00113215D01*
X00298071Y00113098D01*
X00298056Y00113083D01*
X00298027Y00113068D01*
X00297998Y00113024D01*
X00297939Y00112965D01*
X00297880Y00112907D01*
X00297807Y00112819D01*
X00297645Y00112598D01*
X00297484Y00112334D01*
X00297352Y00112011D01*
X00297293Y00111820D01*
X00297249Y00111629D01*
X00297234Y00111424D01*
X00297220Y00111204D01*
Y00111189D01*
Y00111160D01*
Y00111086D01*
X00297234Y00110998D01*
X00297249Y00110896D01*
X00297278Y00110763D01*
X00297308Y00110617D01*
X00297352Y00110440D01*
X00297411Y00110250D01*
X00297484Y00110029D01*
X00297572Y00109809D01*
X00297675Y00109559D01*
X00297807Y00109295D01*
X00297954Y00109031D01*
X00298115Y00108737D01*
X00298306Y00108429D01*
X00300303Y00105390D01*
X00296632D01*
Y00103848D01*
X00303033Y00103848D01*
Y00104348D01*
X00299950Y00108899D01*
X00299936Y00108913D01*
X00299906Y00108958D01*
X00299862Y00109031D01*
X00299804Y00109134D01*
X00299730Y00109251D01*
X00299657Y00109383D01*
X00299569Y00109530D01*
X00299480Y00109706D01*
X00299319Y00110059D01*
X00299172Y00110455D01*
X00299114Y00110646D01*
X00299069Y00110837D01*
X00299040Y00111028D01*
X00299025Y00111204D01*
Y00111219D01*
Y00111248D01*
X00299040Y00111307D01*
Y00111380D01*
X00299099Y00111556D01*
X00299143Y00111659D01*
X00299187Y00111762D01*
X00299260Y00111864D01*
X00299348Y00111967D01*
X00299466Y00112055D01*
X00299583Y00112143D01*
X00299745Y00112217D01*
X00299921Y00112275D01*
X00300126Y00112305D01*
X00300361Y00112320D01*
X00300464D01*
X00300523Y00112305D01*
X00300611Y00112290D01*
X00300714Y00112261D01*
X00300934Y00112187D01*
X00301066Y00112129D01*
X00301198Y00112055D01*
X00301330Y00111967D01*
X00301462Y00111865D01*
X00301595Y00111747D01*
X00301727Y00111600D01*
X00301859Y00111439D01*
X00301976Y00111248D01*
X00303136Y00112158D01*
Y00104994D01*
Y00113788D01*
D02*
G37*
G36*
X00213551Y00113788D02*
X00213184D01*
X00213096Y00113773D01*
X00212979D01*
X00212847Y00113758D01*
X00212553Y00113700D01*
X00212215Y00113626D01*
X00211878Y00113509D01*
X00211540Y00113333D01*
X00211379Y00113230D01*
X00211232Y00113112D01*
X00211217D01*
X00211202Y00113083D01*
X00211158Y00113039D01*
X00211114Y00112995D01*
X00210997Y00112848D01*
X00210850Y00112642D01*
X00210703Y00112378D01*
X00210586Y00112085D01*
X00210498Y00111718D01*
X00210483Y00111527D01*
X00210468Y00111321D01*
Y00111292D01*
Y00111219D01*
X00210483Y00111101D01*
X00210527Y00110940D01*
X00210571Y00110749D01*
X00210645Y00110543D01*
X00210747Y00110308D01*
X00210894Y00110059D01*
X00210909Y00110029D01*
X00210968Y00109956D01*
X00211056Y00109838D01*
X00211173Y00109692D01*
X00211305Y00109545D01*
X00211467Y00109383D01*
X00211628Y00109251D01*
X00211819Y00109134D01*
X00211804D01*
X00211790Y00109119D01*
X00211716Y00109075D01*
X00211584Y00109002D01*
X00211437Y00108899D01*
X00211261Y00108752D01*
X00211056Y00108561D01*
X00210850Y00108341D01*
X00210645Y00108077D01*
Y00108062D01*
X00210615Y00108047D01*
X00210600Y00108003D01*
X00210557Y00107945D01*
X00210468Y00107798D01*
X00210366Y00107607D01*
X00210278Y00107387D01*
X00210189Y00107152D01*
X00210131Y00106888D01*
X00210101Y00106638D01*
D01*
Y00106506D01*
X00210116Y00106403D01*
X00210131Y00106286D01*
X00210145Y00106153D01*
X00210175Y00106007D01*
X00210204Y00105845D01*
X00210322Y00105493D01*
X00210380Y00105317D01*
X00210468Y00105140D01*
X00210571Y00104964D01*
X00210689Y00104788D01*
X00210821Y00104627D01*
X00210982Y00104480D01*
X00210997Y00104465D01*
X00211026Y00104450D01*
X00211070Y00104406D01*
X00211144Y00104362D01*
X00211232Y00104304D01*
X00211335Y00104245D01*
X00211467Y00104171D01*
X00211599Y00104098D01*
X00211760Y00104025D01*
X00211936Y00103951D01*
X00212127Y00103893D01*
X00212348Y00103834D01*
X00212568Y00103790D01*
X00212817Y00103746D01*
X00213067Y00103731D01*
X00213346Y00103716D01*
X00213493D01*
X00213596Y00103731D01*
X00213728Y00103746D01*
X00213874Y00103760D01*
X00214036Y00103775D01*
X00214197Y00103805D01*
X00214579Y00103893D01*
X00214961Y00104039D01*
X00215166Y00104113D01*
X00215343Y00104215D01*
X00215519Y00104333D01*
X00215680Y00104465D01*
X00215695Y00104480D01*
X00215710Y00104494D01*
X00215754Y00104538D01*
X00215812Y00104612D01*
X00215871Y00104685D01*
X00215944Y00104773D01*
X00216018Y00104891D01*
X00216091Y00105023D01*
X00216165Y00105170D01*
X00216238Y00105331D01*
X00216311Y00105507D01*
X00216370Y00105698D01*
X00216429Y00105904D01*
X00216473Y00106139D01*
X00216488Y00106374D01*
X00216502Y00106638D01*
Y00104876D01*
Y00106638D01*
Y00106770D01*
X00216473Y00106902D01*
X00216444Y00107093D01*
X00216400Y00107313D01*
X00216326Y00107548D01*
X00216223Y00107812D01*
X00216077Y00108077D01*
Y00108091D01*
X00216062Y00108106D01*
X00216003Y00108194D01*
X00215900Y00108326D01*
X00215768Y00108488D01*
X00215607Y00108664D01*
X00215416Y00108840D01*
X00215196Y00109031D01*
X00214946Y00109192D01*
X00214975Y00109207D01*
X00215034Y00109251D01*
X00215137Y00109339D01*
X00215254Y00109442D01*
X00215387Y00109574D01*
X00215533Y00109736D01*
X00215680Y00109927D01*
X00215812Y00110132D01*
X00215827Y00110161D01*
X00215871Y00110235D01*
X00215915Y00110352D01*
X00215974Y00110514D01*
X00216047Y00110690D01*
X00216091Y00110896D01*
X00216135Y00111101D01*
X00216150Y00111321D01*
Y00111336D01*
Y00111365D01*
Y00111424D01*
X00216135Y00111512D01*
X00216121Y00111600D01*
X00216106Y00111718D01*
X00216047Y00111967D01*
X00215959Y00112261D01*
X00215812Y00112555D01*
X00215724Y00112701D01*
X00215621Y00112848D01*
X00215489Y00112980D01*
X00215357Y00113112D01*
X00215343Y00113127D01*
X00215313Y00113142D01*
X00215269Y00113171D01*
X00215210Y00113215D01*
X00215137Y00113274D01*
X00215034Y00113333D01*
X00214932Y00113391D01*
X00214799Y00113450D01*
X00214506Y00113567D01*
X00214168Y00113685D01*
X00213757Y00113758D01*
X00213551Y00113788D01*
D02*
G37*
G36*
X00187111Y00111321D02*
X00184718D01*
X00185833D01*
X00185745Y00111307D01*
X00185628Y00111277D01*
X00185496Y00111233D01*
X00185349Y00111174D01*
X00185202Y00111086D01*
X00185070Y00110969D01*
X00185055Y00110954D01*
X00185011Y00110910D01*
X00184953Y00110837D01*
X00184894Y00110734D01*
X00184835Y00110602D01*
X00184776Y00110455D01*
X00184732Y00110294D01*
X00184718Y00110117D01*
Y00110029D01*
X00184732Y00109941D01*
X00184762Y00109824D01*
X00184806Y00109692D01*
X00184864Y00109545D01*
X00184953Y00109398D01*
X00185070Y00109266D01*
X00185085Y00109251D01*
X00185129Y00109207D01*
X00185202Y00109148D01*
X00185305Y00109090D01*
X00185437Y00109031D01*
X00185584Y00108972D01*
X00185745Y00108928D01*
X00185921Y00108913D01*
X00186010D01*
X00186098Y00108928D01*
X00186215Y00108958D01*
X00186347Y00109002D01*
X00186494Y00109060D01*
X00186641Y00109148D01*
X00186773Y00109266D01*
X00186788Y00109281D01*
X00186832Y00109325D01*
X00186876Y00109398D01*
X00186934Y00109501D01*
X00187008Y00109633D01*
X00187052Y00109780D01*
X00187096Y00109941D01*
X00187111Y00110117D01*
Y00104803D01*
X00187096Y00104891D01*
X00187067Y00105008D01*
X00187022Y00105140D01*
X00186964Y00105287D01*
X00186890Y00105434D01*
X00186773Y00105566D01*
X00186758Y00105581D01*
X00186714Y00105625D01*
X00186641Y00105684D01*
X00186538Y00105742D01*
X00186406Y00105801D01*
X00186259Y00105860D01*
X00186098Y00105904D01*
X00185921Y00105919D01*
X00185833D01*
X00185745Y00105904D01*
X00185628Y00105875D01*
X00185496Y00105830D01*
X00185349Y00105772D01*
X00185202Y00105684D01*
X00185070Y00105566D01*
X00185055Y00105552D01*
X00185011Y00105507D01*
X00184953Y00105434D01*
X00184894Y00105331D01*
X00184835Y00105199D01*
X00184776Y00105052D01*
X00184732Y00104891D01*
X00184718Y00104715D01*
Y00104627D01*
X00184732Y00104538D01*
X00184762Y00104421D01*
X00184806Y00104289D01*
X00184864Y00104142D01*
X00184953Y00103995D01*
X00185070Y00103863D01*
X00185085Y00103848D01*
X00185129Y00103805D01*
X00185202Y00103746D01*
X00185305Y00103687D01*
X00185437Y00103628D01*
X00185584Y00103570D01*
X00185745Y00103525D01*
X00185921Y00103511D01*
X00186010D01*
X00186098Y00103525D01*
X00186215Y00103555D01*
X00186347Y00103599D01*
X00186494Y00103658D01*
X00186641Y00103746D01*
X00186773Y00103863D01*
X00186788Y00103878D01*
X00186832Y00103922D01*
X00186876Y00103995D01*
X00186934Y00104098D01*
X00187008Y00104230D01*
X00187052Y00104377D01*
X00187096Y00104538D01*
X00187111Y00104715D01*
Y00103525D01*
Y00111321D01*
D02*
G37*
G36*
X00287956Y00113656D02*
X00282773D01*
X00286458Y00103848D01*
X00287956D01*
X00284271Y00113656D01*
X00287956D01*
D01*
D02*
G37*
G36*
X00266624D02*
X00261441D01*
X00265126Y00103848D01*
X00261441D01*
X00266624D01*
X00262939Y00113656D01*
X00266624D01*
D02*
G37*
%LPD*%
G36*
X00257859Y00112305D02*
X00257947Y00112290D01*
X00258050Y00112261D01*
X00258270Y00112187D01*
X00258403Y00112129D01*
X00258535Y00112055D01*
X00258667Y00111967D01*
X00258799Y00111864D01*
X00258931Y00111747D01*
X00259063Y00111600D01*
X00259195Y00111439D01*
X00259313Y00111248D01*
X00260473Y00112158D01*
Y00103848D01*
X00260370D01*
Y00104348D01*
X00257287Y00108899D01*
X00257272Y00108913D01*
X00257243Y00108958D01*
X00257199Y00109031D01*
X00257140Y00109134D01*
X00257066Y00109251D01*
X00256993Y00109383D01*
X00256905Y00109530D01*
X00256817Y00109706D01*
X00256655Y00110059D01*
X00256509Y00110455D01*
X00256450Y00110646D01*
X00256406Y00110837D01*
X00256376Y00111028D01*
X00256362Y00111204D01*
Y00111219D01*
Y00111248D01*
X00256376Y00111307D01*
Y00111380D01*
X00256435Y00111556D01*
X00256479Y00111659D01*
X00256523Y00111762D01*
X00256597Y00111864D01*
X00256685Y00111967D01*
X00256802Y00112055D01*
X00256920Y00112143D01*
X00257081Y00112217D01*
X00257257Y00112275D01*
X00257463Y00112305D01*
X00257698Y00112320D01*
X00257801D01*
X00257859Y00112305D01*
D02*
G37*
G36*
X00241857D02*
X00241945Y00112290D01*
X00242048Y00112261D01*
X00242268Y00112187D01*
X00242400Y00112129D01*
X00242532Y00112055D01*
X00242664Y00111967D01*
X00242796Y00111864D01*
X00242929Y00111747D01*
X00243061Y00111600D01*
X00243193Y00111439D01*
X00243310Y00111248D01*
X00244470Y00112158D01*
Y00103848D01*
X00244367D01*
Y00104348D01*
X00241284Y00108899D01*
X00241269Y00108913D01*
X00241240Y00108958D01*
X00241196Y00109031D01*
X00241137Y00109134D01*
X00241064Y00109251D01*
X00240991Y00109383D01*
X00240903Y00109530D01*
X00240814Y00109706D01*
X00240653Y00110059D01*
X00240506Y00110455D01*
X00240447Y00110646D01*
X00240403Y00110837D01*
X00240374Y00111028D01*
X00240359Y00111204D01*
Y00111219D01*
Y00111248D01*
X00240374Y00111307D01*
Y00111380D01*
X00240433Y00111556D01*
X00240477Y00111659D01*
X00240521Y00111762D01*
X00240594Y00111864D01*
X00240682Y00111967D01*
X00240800Y00112055D01*
X00240917Y00112143D01*
X00241079Y00112217D01*
X00241255Y00112275D01*
X00241460Y00112305D01*
X00241695Y00112320D01*
X00241798D01*
X00241857Y00112305D01*
D02*
G37*
G36*
X00200735D02*
X00200823Y00112290D01*
X00200926Y00112261D01*
X00201146Y00112187D01*
X00201278Y00112129D01*
X00201410Y00112055D01*
X00201542Y00111967D01*
X00201674Y00111864D01*
X00201807Y00111747D01*
X00201939Y00111600D01*
X00202071Y00111439D01*
X00202188Y00111248D01*
X00203348Y00112158D01*
Y00103848D01*
X00203245D01*
Y00104348D01*
X00200162Y00108899D01*
X00200147Y00108913D01*
X00200118Y00108958D01*
X00200074Y00109031D01*
X00200015Y00109134D01*
X00199942Y00109251D01*
X00199869Y00109383D01*
X00199781Y00109530D01*
X00199692Y00109706D01*
X00199531Y00110059D01*
X00199384Y00110455D01*
X00199325Y00110646D01*
X00199281Y00110837D01*
X00199252Y00111028D01*
X00199237Y00111204D01*
Y00111219D01*
Y00111248D01*
X00199252Y00111307D01*
Y00111380D01*
X00199311Y00111556D01*
X00199355Y00111659D01*
X00199399Y00111762D01*
X00199472Y00111864D01*
X00199560Y00111967D01*
X00199678Y00112055D01*
X00199795Y00112143D01*
X00199957Y00112217D01*
X00200133Y00112275D01*
X00200338Y00112305D01*
X00200573Y00112320D01*
X00200676D01*
X00200735Y00112305D01*
D02*
G37*
G36*
X00192733D02*
X00192822Y00112290D01*
X00192924Y00112261D01*
X00193145Y00112187D01*
X00193277Y00112129D01*
X00193409Y00112055D01*
X00193541Y00111967D01*
X00193673Y00111864D01*
X00193805Y00111747D01*
X00193937Y00111600D01*
X00194069Y00111439D01*
X00194187Y00111248D01*
X00195347Y00112158D01*
Y00103848D01*
X00195244D01*
Y00104348D01*
X00192161Y00108899D01*
X00192146Y00108913D01*
X00192117Y00108958D01*
X00192073Y00109031D01*
X00192014Y00109134D01*
X00191941Y00109251D01*
X00191867Y00109383D01*
X00191779Y00109530D01*
X00191691Y00109706D01*
X00191530Y00110059D01*
X00191383Y00110455D01*
X00191324Y00110646D01*
X00191280Y00110837D01*
X00191251Y00111028D01*
X00191236Y00111204D01*
Y00111219D01*
Y00111248D01*
X00191251Y00111307D01*
Y00111380D01*
X00191309Y00111556D01*
X00191353Y00111659D01*
X00191397Y00111762D01*
X00191471Y00111864D01*
X00191559Y00111967D01*
X00191677Y00112055D01*
X00191794Y00112143D01*
X00191955Y00112217D01*
X00192132Y00112275D01*
X00192337Y00112305D01*
X00192572Y00112320D01*
X00192675D01*
X00192733Y00112305D01*
D02*
G37*
G36*
X00270676Y00108620D02*
X00270779Y00108605D01*
X00270896Y00108590D01*
X00271014Y00108546D01*
X00271146Y00108488D01*
X00271293Y00108429D01*
X00271425Y00108341D01*
X00271572Y00108223D01*
X00271689Y00108091D01*
X00271806Y00107930D01*
X00271909Y00107739D01*
X00271983Y00107519D01*
X00272027Y00107254D01*
X00272041Y00106961D01*
Y00106946D01*
Y00106888D01*
X00272027Y00106799D01*
X00272012Y00106682D01*
X00271997Y00106550D01*
X00271968Y00106403D01*
X00271909Y00106242D01*
X00271850Y00106080D01*
X00271777Y00105904D01*
X00271674Y00105742D01*
X00271542Y00105596D01*
X00271410Y00105463D01*
X00271234Y00105346D01*
X00271028Y00105258D01*
X00270793Y00105199D01*
X00270529Y00105184D01*
X00270500D01*
X00270426Y00105199D01*
X00270309Y00105214D01*
X00270177Y00105243D01*
X00270015Y00105287D01*
X00269854Y00105375D01*
X00269692Y00105478D01*
X00269545Y00105625D01*
X00269531Y00105640D01*
X00269487Y00105713D01*
X00269428Y00105801D01*
X00269355Y00105948D01*
X00269281Y00106124D01*
X00269223Y00106330D01*
X00269179Y00106579D01*
X00269164Y00106858D01*
Y00106873D01*
Y00106902D01*
Y00106932D01*
Y00106990D01*
X00269179Y00107137D01*
X00269208Y00107328D01*
X00269267Y00107534D01*
X00269325Y00107754D01*
X00269428Y00107959D01*
X00269560Y00108150D01*
X00269575Y00108165D01*
X00269634Y00108223D01*
X00269707Y00108297D01*
X00269825Y00108400D01*
X00269971Y00108488D01*
X00270133Y00108561D01*
X00270324Y00108620D01*
X00270544Y00108635D01*
X00270603D01*
X00270676Y00108620D01*
D02*
G37*
G36*
X00278839Y00112364D02*
X00278956Y00112334D01*
X00279088Y00112290D01*
X00279235Y00112202D01*
X00279382Y00112099D01*
X00279543Y00111952D01*
X00279720Y00111776D01*
X00279866Y00111542D01*
X00280013Y00111263D01*
X00280087Y00111101D01*
X00280145Y00110925D01*
X00280204Y00110734D01*
X00280263Y00110514D01*
X00280307Y00110294D01*
X00280351Y00110059D01*
X00280380Y00109794D01*
X00280410Y00109515D01*
X00280424Y00109222D01*
Y00108899D01*
Y00108884D01*
Y00108811D01*
Y00108708D01*
Y00108576D01*
X00280410Y00108414D01*
Y00108238D01*
X00280395Y00108033D01*
X00280380Y00107812D01*
X00280336Y00107343D01*
X00280263Y00106858D01*
X00280233Y00106638D01*
X00280175Y00106418D01*
X00280116Y00106212D01*
X00280057Y00106021D01*
Y00106007D01*
X00280043Y00105977D01*
X00280013Y00105933D01*
X00279984Y00105875D01*
X00279896Y00105728D01*
X00279749Y00105566D01*
X00279587Y00105405D01*
X00279367Y00105258D01*
X00279235Y00105199D01*
X00279103Y00105155D01*
X00278956Y00105126D01*
X00278795Y00105111D01*
X00278707D01*
X00278633Y00105126D01*
X00278472Y00105155D01*
X00278266Y00105214D01*
X00278046Y00105317D01*
X00277826Y00105463D01*
X00277708Y00105552D01*
X00277620Y00105669D01*
X00277517Y00105786D01*
X00277444Y00105933D01*
Y00105948D01*
X00277429Y00105977D01*
X00277400Y00106021D01*
X00277385Y00106095D01*
X00277341Y00106198D01*
X00277312Y00106315D01*
X00277283Y00106447D01*
X00277239Y00106623D01*
X00277194Y00106814D01*
X00277165Y00107020D01*
X00277121Y00107269D01*
X00277092Y00107534D01*
X00277077Y00107842D01*
X00277048Y00108165D01*
X00277033Y00108517D01*
Y00108899D01*
Y00108928D01*
Y00108987D01*
Y00109090D01*
Y00109222D01*
X00277048Y00109383D01*
Y00109559D01*
X00277062Y00109765D01*
X00277077Y00109985D01*
X00277136Y00110440D01*
X00277194Y00110881D01*
X00277239Y00111101D01*
X00277297Y00111292D01*
X00277356Y00111483D01*
X00277429Y00111629D01*
Y00111644D01*
X00277444Y00111659D01*
X00277503Y00111747D01*
X00277591Y00111864D01*
X00277723Y00112011D01*
X00277899Y00112158D01*
X00278119Y00112275D01*
X00278369Y00112364D01*
X00278516Y00112378D01*
X00278677Y00112393D01*
X00278751D01*
X00278839Y00112364D01*
D02*
G37*
G36*
X00249506D02*
X00249623Y00112334D01*
X00249755Y00112290D01*
X00249902Y00112202D01*
X00250049Y00112099D01*
X00250210Y00111952D01*
X00250387Y00111776D01*
X00250533Y00111542D01*
X00250680Y00111263D01*
X00250754Y00111101D01*
X00250812Y00110925D01*
X00250871Y00110734D01*
X00250930Y00110514D01*
X00250974Y00110294D01*
X00251018Y00110059D01*
X00251047Y00109794D01*
X00251077Y00109515D01*
X00251091Y00109222D01*
Y00108899D01*
Y00108884D01*
Y00108811D01*
Y00108708D01*
Y00108576D01*
X00251077Y00108414D01*
Y00108238D01*
X00251062Y00108033D01*
X00251047Y00107812D01*
X00251003Y00107343D01*
X00250930Y00106858D01*
X00250900Y00106638D01*
X00250842Y00106418D01*
X00250783Y00106212D01*
X00250724Y00106021D01*
Y00106007D01*
X00250710Y00105977D01*
X00250680Y00105933D01*
X00250651Y00105875D01*
X00250563Y00105728D01*
X00250416Y00105566D01*
X00250254Y00105405D01*
X00250034Y00105258D01*
X00249902Y00105199D01*
X00249770Y00105155D01*
X00249623Y00105126D01*
X00249462Y00105111D01*
X00249374D01*
X00249300Y00105126D01*
X00249139Y00105155D01*
X00248933Y00105214D01*
X00248713Y00105317D01*
X00248493Y00105463D01*
X00248375Y00105552D01*
X00248287Y00105669D01*
X00248184Y00105786D01*
X00248111Y00105933D01*
Y00105948D01*
X00248096Y00105977D01*
X00248067Y00106021D01*
X00248052Y00106095D01*
X00248008Y00106198D01*
X00247979Y00106315D01*
X00247950Y00106447D01*
X00247905Y00106623D01*
X00247861Y00106814D01*
X00247832Y00107020D01*
X00247788Y00107269D01*
X00247759Y00107534D01*
X00247744Y00107842D01*
X00247715Y00108165D01*
X00247700Y00108517D01*
Y00108899D01*
Y00108928D01*
Y00108987D01*
Y00109090D01*
Y00109222D01*
X00247715Y00109383D01*
Y00109559D01*
X00247729Y00109765D01*
X00247744Y00109985D01*
X00247803Y00110440D01*
X00247861Y00110881D01*
X00247905Y00111101D01*
X00247964Y00111292D01*
X00248023Y00111483D01*
X00248096Y00111629D01*
Y00111644D01*
X00248111Y00111659D01*
X00248170Y00111747D01*
X00248258Y00111864D01*
X00248390Y00112011D01*
X00248566Y00112158D01*
X00248786Y00112275D01*
X00249036Y00112364D01*
X00249183Y00112378D01*
X00249344Y00112393D01*
X00249418D01*
X00249506Y00112364D01*
D02*
G37*
G36*
X00233503D02*
X00233621Y00112334D01*
X00233753Y00112290D01*
X00233900Y00112202D01*
X00234046Y00112099D01*
X00234208Y00111952D01*
X00234384Y00111776D01*
X00234531Y00111542D01*
X00234678Y00111263D01*
X00234751Y00111101D01*
X00234810Y00110925D01*
X00234869Y00110734D01*
X00234927Y00110514D01*
X00234971Y00110294D01*
X00235015Y00110059D01*
X00235045Y00109794D01*
X00235074Y00109515D01*
X00235089Y00109222D01*
Y00108899D01*
Y00108884D01*
Y00108811D01*
Y00108708D01*
Y00108576D01*
X00235074Y00108414D01*
Y00108238D01*
X00235059Y00108033D01*
X00235045Y00107812D01*
X00235001Y00107343D01*
X00234927Y00106858D01*
X00234898Y00106638D01*
X00234839Y00106418D01*
X00234781Y00106212D01*
X00234722Y00106021D01*
Y00106007D01*
X00234707Y00105977D01*
X00234678Y00105933D01*
X00234648Y00105875D01*
X00234560Y00105728D01*
X00234413Y00105566D01*
X00234252Y00105405D01*
X00234032Y00105258D01*
X00233900Y00105199D01*
X00233768Y00105155D01*
X00233621Y00105126D01*
X00233459Y00105111D01*
X00233371D01*
X00233298Y00105126D01*
X00233136Y00105155D01*
X00232931Y00105214D01*
X00232710Y00105317D01*
X00232490Y00105463D01*
X00232373Y00105552D01*
X00232285Y00105669D01*
X00232182Y00105786D01*
X00232108Y00105933D01*
Y00105948D01*
X00232094Y00105977D01*
X00232064Y00106021D01*
X00232050Y00106095D01*
X00232006Y00106198D01*
X00231976Y00106315D01*
X00231947Y00106447D01*
X00231903Y00106623D01*
X00231859Y00106814D01*
X00231829Y00107020D01*
X00231786Y00107269D01*
X00231756Y00107534D01*
X00231741Y00107842D01*
X00231712Y00108165D01*
X00231697Y00108517D01*
Y00108899D01*
Y00108928D01*
Y00108987D01*
Y00109090D01*
Y00109222D01*
X00231712Y00109383D01*
Y00109559D01*
X00231727Y00109765D01*
X00231741Y00109985D01*
X00231800Y00110440D01*
X00231859Y00110881D01*
X00231903Y00111101D01*
X00231962Y00111292D01*
X00232020Y00111483D01*
X00232094Y00111629D01*
Y00111644D01*
X00232108Y00111659D01*
X00232167Y00111747D01*
X00232255Y00111864D01*
X00232387Y00112011D01*
X00232564Y00112158D01*
X00232784Y00112275D01*
X00233033Y00112364D01*
X00233180Y00112378D01*
X00233342Y00112393D01*
X00233415D01*
X00233503Y00112364D01*
D02*
G37*
G36*
X00303136Y00112173D02*
X00303121Y00112188D01*
X00303077Y00112275D01*
X00302989Y00112408D01*
X00302872Y00112569D01*
X00302725Y00112745D01*
X00302534Y00112951D01*
X00302314Y00113142D01*
X00302064Y00113318D01*
X00302050D01*
X00302035Y00113333D01*
X00301991Y00113362D01*
X00301932Y00113391D01*
X00301786Y00113465D01*
X00301580Y00113553D01*
X00301330Y00113641D01*
X00301051Y00113714D01*
X00300743Y00113773D01*
X00300420Y00113788D01*
X00303136Y00113788D01*
Y00112173D01*
D02*
G37*
G36*
X00213493Y00112305D02*
X00213669Y00112275D01*
X00213860Y00112202D01*
X00214065Y00112085D01*
X00214168Y00112011D01*
X00214242Y00111909D01*
X00214315Y00111806D01*
X00214374Y00111674D01*
X00214403Y00111527D01*
X00214418Y00111351D01*
Y00111336D01*
Y00111277D01*
X00214403Y00111189D01*
X00214374Y00111072D01*
X00214315Y00110940D01*
X00214256Y00110793D01*
X00214153Y00110631D01*
X00214021Y00110470D01*
X00214007Y00110455D01*
X00213948Y00110396D01*
X00213860Y00110323D01*
X00213757Y00110235D01*
X00213625Y00110132D01*
X00213478Y00110029D01*
X00213316Y00109927D01*
X00213155Y00109853D01*
X00213140Y00109868D01*
X00213096Y00109882D01*
X00213023Y00109941D01*
X00212935Y00110000D01*
X00212832Y00110088D01*
X00212729Y00110205D01*
X00212612Y00110338D01*
X00212509Y00110499D01*
X00212494Y00110514D01*
X00212465Y00110573D01*
X00212421Y00110675D01*
X00212362Y00110778D01*
X00212304Y00110910D01*
X00212260Y00111057D01*
X00212230Y00111204D01*
X00212215Y00111351D01*
Y00111365D01*
Y00111424D01*
X00212230Y00111497D01*
X00212260Y00111600D01*
X00212289Y00111718D01*
X00212348Y00111835D01*
X00212421Y00111952D01*
X00212524Y00112055D01*
X00212538Y00112070D01*
X00212582Y00112099D01*
X00212641Y00112143D01*
X00212744Y00112187D01*
X00212847Y00112232D01*
X00212994Y00112275D01*
X00213140Y00112305D01*
X00213316Y00112320D01*
X00213419D01*
X00213493Y00112305D01*
D02*
G37*
G36*
X00213522Y00108473D02*
X00213566Y00108458D01*
X00213625Y00108414D01*
X00213698Y00108356D01*
X00213801Y00108282D01*
X00213904Y00108194D01*
X00214139Y00107989D01*
X00214374Y00107724D01*
X00214476Y00107563D01*
X00214579Y00107401D01*
X00214653Y00107225D01*
X00214711Y00107049D01*
X00214755Y00106844D01*
X00214770Y00106638D01*
Y00106609D01*
Y00106535D01*
X00214755Y00106418D01*
X00214726Y00106271D01*
X00214682Y00106109D01*
X00214608Y00105933D01*
X00214520Y00105757D01*
X00214388Y00105596D01*
X00214374Y00105581D01*
X00214315Y00105537D01*
X00214227Y00105463D01*
X00214109Y00105390D01*
X00213962Y00105317D01*
X00213786Y00105243D01*
X00213581Y00105199D01*
X00213346Y00105184D01*
X00213228D01*
X00213111Y00105199D01*
X00212964Y00105229D01*
X00212788Y00105273D01*
X00212612Y00105331D01*
X00212421Y00105419D01*
X00212260Y00105537D01*
X00212245Y00105552D01*
X00212186Y00105610D01*
X00212127Y00105684D01*
X00212039Y00105801D01*
X00211966Y00105933D01*
X00211893Y00106095D01*
X00211848Y00106286D01*
X00211834Y00106506D01*
Y00106521D01*
Y00106550D01*
X00211848Y00106609D01*
X00211863Y00106682D01*
X00211878Y00106770D01*
X00211922Y00106873D01*
X00211981Y00107005D01*
X00212039Y00107137D01*
X00212127Y00107284D01*
X00212245Y00107431D01*
X00212377Y00107592D01*
X00212538Y00107768D01*
X00212729Y00107945D01*
X00212950Y00108121D01*
X00213214Y00108312D01*
X00213507Y00108488D01*
X00213522Y00108473D01*
D02*
G37*
G36*
X00187111Y00110205D02*
X00187096Y00110294D01*
X00187067Y00110411D01*
X00187022Y00110543D01*
X00186964Y00110690D01*
X00186890Y00110837D01*
X00186773Y00110969D01*
X00186758Y00110984D01*
X00186714Y00111028D01*
X00186641Y00111086D01*
X00186538Y00111145D01*
X00186406Y00111204D01*
X00186259Y00111263D01*
X00186098Y00111307D01*
X00185921Y00111321D01*
X00187111D01*
Y00110205D01*
D02*
G37*
%LPC*%
G36*
X00343766Y00128469D02*
X00341917D01*
X00341843Y00128454D01*
X00341755Y00128440D01*
X00341652Y00128396D01*
X00341535Y00128351D01*
X00341417Y00128278D01*
X00341315Y00128175D01*
X00341300Y00128161D01*
X00341270Y00128131D01*
X00341227Y00128073D01*
X00341168Y00127984D01*
X00341109Y00127882D01*
X00341065Y00127779D01*
X00341036Y00127647D01*
X00341021Y00127500D01*
Y00127515D01*
Y00127427D01*
X00341036Y00127353D01*
X00341050Y00127265D01*
X00341094Y00127148D01*
X00341138Y00127030D01*
X00341212Y00126927D01*
X00341315Y00126810D01*
X00341329Y00126795D01*
X00341359Y00126766D01*
X00341417Y00126722D01*
X00341505Y00126678D01*
X00341608Y00126619D01*
X00341711Y00126575D01*
X00341843Y00126546D01*
X00341990Y00126531D01*
X00342063D01*
X00342137Y00126546D01*
X00342225Y00126560D01*
X00342342Y00126604D01*
X00342460Y00126648D01*
X00342562Y00126722D01*
X00342680Y00126810D01*
X00342695Y00126825D01*
X00342724Y00126854D01*
X00342768Y00126927D01*
X00342812Y00127001D01*
X00342871Y00127104D01*
X00342915Y00127221D01*
X00342944Y00127353D01*
X00342959Y00127500D01*
Y00127515D01*
Y00127573D01*
X00342944Y00127647D01*
X00342929Y00127735D01*
X00342886Y00127838D01*
X00342841Y00127955D01*
X00342768Y00128073D01*
X00342680Y00128175D01*
X00342665Y00128190D01*
X00342636Y00128219D01*
X00342562Y00128263D01*
X00342489Y00128322D01*
X00342386Y00128381D01*
X00342269Y00128425D01*
X00342137Y00128454D01*
X00341990Y00128469D01*
X00343766D01*
D02*
G37*
G36*
X00331728D02*
X00329878D01*
X00329804Y00128454D01*
X00329716Y00128440D01*
X00329614Y00128396D01*
X00329496Y00128351D01*
X00329379Y00128278D01*
X00329276Y00128175D01*
X00329261Y00128161D01*
X00329232Y00128131D01*
X00329188Y00128073D01*
X00329129Y00127984D01*
X00329071Y00127882D01*
X00329026Y00127779D01*
X00328997Y00127647D01*
X00328982Y00127500D01*
Y00127515D01*
Y00127427D01*
X00328997Y00127353D01*
X00329012Y00127265D01*
X00329056Y00127148D01*
X00329100Y00127030D01*
X00329173Y00126927D01*
X00329276Y00126810D01*
X00329291Y00126795D01*
X00329320Y00126766D01*
X00329379Y00126722D01*
X00329467Y00126678D01*
X00329570Y00126619D01*
X00329672Y00126575D01*
X00329804Y00126546D01*
X00329951Y00126531D01*
X00330025D01*
X00330098Y00126546D01*
X00330186Y00126560D01*
X00330304Y00126604D01*
X00330421Y00126648D01*
X00330524Y00126722D01*
X00330641Y00126810D01*
X00330656Y00126825D01*
X00330685Y00126854D01*
X00330729Y00126927D01*
X00330774Y00127001D01*
X00330832Y00127104D01*
X00330876Y00127221D01*
X00330906Y00127353D01*
X00330920Y00127500D01*
Y00127515D01*
Y00127573D01*
X00330906Y00127647D01*
X00330891Y00127735D01*
X00330847Y00127838D01*
X00330803Y00127955D01*
X00330729Y00128073D01*
X00330641Y00128175D01*
X00330627Y00128190D01*
X00330597Y00128219D01*
X00330524Y00128263D01*
X00330451Y00128322D01*
X00330348Y00128381D01*
X00330230Y00128425D01*
X00330098Y00128454D01*
X00329951Y00128469D01*
X00331728D01*
D02*
G37*
G36*
X00301279Y00128469D02*
X00299429D01*
X00299356Y00128454D01*
X00299268Y00128440D01*
X00299165Y00128396D01*
X00299047Y00128351D01*
X00298930Y00128278D01*
X00298827Y00128175D01*
X00298813Y00128161D01*
X00298783Y00128131D01*
X00298739Y00128073D01*
X00298680Y00127984D01*
X00298622Y00127882D01*
X00298578Y00127779D01*
X00298548Y00127647D01*
X00298534Y00127500D01*
D01*
Y00127427D01*
X00298548Y00127353D01*
X00298563Y00127265D01*
X00298607Y00127148D01*
X00298651Y00127030D01*
X00298724Y00126927D01*
X00298827Y00126810D01*
X00298842Y00126795D01*
X00298871Y00126766D01*
X00298930Y00126722D01*
X00299018Y00126678D01*
X00299121Y00126619D01*
X00299224Y00126575D01*
X00299356Y00126546D01*
X00299503Y00126531D01*
X00299576D01*
X00299649Y00126546D01*
X00299737Y00126560D01*
X00299855Y00126604D01*
X00299972Y00126648D01*
X00300075Y00126722D01*
X00300193Y00126810D01*
X00300207Y00126825D01*
X00300237Y00126854D01*
X00300281Y00126927D01*
X00300325Y00127001D01*
X00300383Y00127104D01*
X00300427Y00127221D01*
X00300457Y00127353D01*
X00300471Y00127500D01*
Y00127515D01*
Y00127573D01*
X00300457Y00127647D01*
X00300442Y00127735D01*
X00300398Y00127838D01*
X00300354Y00127955D01*
X00300281Y00128073D01*
X00300193Y00128175D01*
X00300178Y00128190D01*
X00300149Y00128219D01*
X00300075Y00128263D01*
X00300002Y00128322D01*
X00299899Y00128381D01*
X00299781Y00128425D01*
X00299649Y00128454D01*
X00299503Y00128469D01*
X00301279D01*
D02*
G37*
G36*
X00215394D02*
X00212649D01*
D01*
X00213544D01*
X00213471Y00128454D01*
X00213383Y00128440D01*
X00213280Y00128396D01*
X00213162Y00128351D01*
X00213045Y00128278D01*
X00212942Y00128175D01*
X00212927Y00128161D01*
X00212898Y00128131D01*
X00212854Y00128073D01*
X00212795Y00127984D01*
X00212737Y00127882D01*
X00212693Y00127779D01*
X00212663Y00127647D01*
X00212649Y00127500D01*
Y00127500D01*
Y00127427D01*
X00212663Y00127353D01*
X00212678Y00127265D01*
X00212722Y00127148D01*
X00212766Y00127030D01*
X00212839Y00126927D01*
X00212942Y00126810D01*
X00212957Y00126795D01*
X00212986Y00126766D01*
X00213045Y00126722D01*
X00213133Y00126678D01*
X00213236Y00126619D01*
X00213339Y00126575D01*
X00213471Y00126546D01*
X00213617Y00126531D01*
X00213691D01*
X00213764Y00126546D01*
X00213852Y00126560D01*
X00213970Y00126604D01*
X00214087Y00126648D01*
X00214190Y00126722D01*
X00214307Y00126810D01*
X00214322Y00126825D01*
X00214352Y00126854D01*
X00214396Y00126927D01*
X00214440Y00127001D01*
X00214498Y00127104D01*
X00214542Y00127221D01*
X00214572Y00127353D01*
X00214587Y00127500D01*
Y00127515D01*
Y00127573D01*
X00214572Y00127647D01*
X00214557Y00127735D01*
X00214513Y00127838D01*
X00214469Y00127955D01*
X00214396Y00128073D01*
X00214307Y00128175D01*
X00214293Y00128190D01*
X00214263Y00128219D01*
X00214190Y00128263D01*
X00214117Y00128322D01*
X00214014Y00128381D01*
X00213896Y00128425D01*
X00213764Y00128454D01*
X00213617Y00128469D01*
X00215394D01*
D02*
G37*
G36*
X00274163Y00125826D02*
X00271699D01*
X00274163D01*
D01*
D02*
G37*
G36*
X00313039Y00128763D02*
D01*
Y00125239D01*
X00313024D01*
X00313009Y00125268D01*
X00312921Y00125327D01*
X00312774Y00125430D01*
X00312569Y00125533D01*
X00312319Y00125635D01*
X00312011Y00125738D01*
X00311659Y00125797D01*
X00311262Y00125826D01*
X00311130D01*
X00311042Y00125812D01*
X00310924Y00125797D01*
X00310807Y00125782D01*
X00310499Y00125738D01*
X00310176Y00125650D01*
X00309823Y00125518D01*
X00309662Y00125430D01*
X00309486Y00125327D01*
X00309339Y00125210D01*
X00309192Y00125078D01*
X00309177Y00125063D01*
X00309163Y00125048D01*
X00309119Y00125004D01*
X00309075Y00124945D01*
X00309016Y00124857D01*
X00308957Y00124769D01*
X00308884Y00124652D01*
X00308810Y00124534D01*
X00308752Y00124388D01*
X00308678Y00124226D01*
X00308620Y00124050D01*
X00308561Y00123859D01*
X00308517Y00123653D01*
X00308473Y00123433D01*
X00308458Y00123198D01*
X00308443Y00122949D01*
Y00122963D01*
Y00118559D01*
X00314727D01*
Y00128351D01*
X00313039Y00128763D01*
D02*
G37*
G36*
X00204001Y00128763D02*
X00197718D01*
X00202313D01*
Y00125239D01*
X00202298D01*
X00202284Y00125268D01*
X00202195Y00125327D01*
X00202049Y00125430D01*
X00201843Y00125533D01*
X00201594Y00125635D01*
X00201285Y00125738D01*
X00200933Y00125797D01*
X00200537Y00125826D01*
X00200404D01*
X00200316Y00125812D01*
X00200199Y00125797D01*
X00200081Y00125782D01*
X00199773Y00125738D01*
X00199450Y00125650D01*
X00199098Y00125518D01*
X00198936Y00125430D01*
X00198760Y00125327D01*
X00198613Y00125210D01*
X00198466Y00125077D01*
X00198452Y00125063D01*
X00198437Y00125048D01*
X00198393Y00125004D01*
X00198349Y00124945D01*
X00198290Y00124857D01*
X00198232Y00124769D01*
X00198158Y00124652D01*
X00198085Y00124534D01*
X00198026Y00124388D01*
X00197953Y00124226D01*
X00197894Y00124050D01*
X00197835Y00123859D01*
X00197791Y00123653D01*
X00197747Y00123433D01*
X00197732Y00123198D01*
X00197718Y00122949D01*
Y00122949D01*
Y00118559D01*
X00199391D01*
Y00122949D01*
Y00122963D01*
Y00122978D01*
Y00123052D01*
X00199406Y00123184D01*
X00199450Y00123330D01*
X00199494Y00123492D01*
X00199568Y00123668D01*
X00199670Y00123844D01*
X00199817Y00124006D01*
X00199832Y00124021D01*
X00199891Y00124065D01*
X00199979Y00124138D01*
X00200111Y00124211D01*
X00200258Y00124285D01*
X00200448Y00124358D01*
X00200654Y00124402D01*
X00200889Y00124417D01*
X00200962D01*
X00201036Y00124402D01*
X00201153Y00124388D01*
X00201271Y00124358D01*
X00201417Y00124314D01*
X00201564Y00124255D01*
X00201726Y00124182D01*
X00201740Y00124167D01*
X00201799Y00124138D01*
X00201858Y00124094D01*
X00201946Y00124035D01*
X00202152Y00123874D01*
X00202240Y00123786D01*
X00202313Y00123683D01*
Y00118559D01*
X00204001D01*
Y00128351D01*
X00202313Y00128763D01*
X00204001D01*
D01*
D02*
G37*
G36*
X00285438Y00125826D02*
Y00125694D01*
X00284293D01*
X00283955Y00125063D01*
X00283941Y00125077D01*
X00283926Y00125092D01*
X00283882Y00125136D01*
X00283823Y00125180D01*
X00283676Y00125298D01*
X00283471Y00125445D01*
X00283221Y00125591D01*
X00282913Y00125709D01*
X00282560Y00125797D01*
X00282370Y00125812D01*
X00282164Y00125826D01*
X00282032D01*
X00281929Y00125812D01*
X00281812Y00125797D01*
X00281679Y00125782D01*
X00281357Y00125723D01*
X00281019Y00125635D01*
X00280652Y00125503D01*
X00280490Y00125415D01*
X00280314Y00125312D01*
X00280167Y00125180D01*
X00280021Y00125048D01*
X00280006Y00125063D01*
X00279962Y00125107D01*
X00279888Y00125166D01*
X00279786Y00125254D01*
X00279668Y00125342D01*
X00279507Y00125430D01*
X00279331Y00125518D01*
X00279140Y00125606D01*
X00279110Y00125621D01*
X00279037Y00125635D01*
X00278934Y00125680D01*
X00278787Y00125723D01*
X00278611Y00125753D01*
X00278420Y00125797D01*
X00278215Y00125812D01*
X00278009Y00125826D01*
X00279192D01*
X00277892D01*
X00277818Y00125812D01*
X00277716D01*
X00277598Y00125797D01*
X00277334Y00125738D01*
X00277040Y00125665D01*
X00276732Y00125533D01*
X00276424Y00125371D01*
X00276292Y00125254D01*
X00276159Y00125136D01*
X00276145Y00125122D01*
X00276130Y00125107D01*
X00276101Y00125063D01*
X00276057Y00125004D01*
X00275998Y00124945D01*
X00275939Y00124857D01*
X00275822Y00124637D01*
X00275704Y00124373D01*
X00275587Y00124050D01*
X00275513Y00123683D01*
X00275484Y00123477D01*
Y00118559D01*
X00277158D01*
Y00123022D01*
Y00123037D01*
Y00123081D01*
X00277172Y00123154D01*
Y00123242D01*
X00277202Y00123345D01*
X00277231Y00123463D01*
X00277260Y00123595D01*
X00277319Y00123727D01*
X00277378Y00123859D01*
X00277466Y00123991D01*
X00277569Y00124109D01*
X00277686Y00124211D01*
X00277833Y00124299D01*
X00278009Y00124373D01*
X00278200Y00124417D01*
X00278420Y00124432D01*
X00278479D01*
X00278552Y00124417D01*
X00278655Y00124402D01*
X00278773Y00124373D01*
X00278890Y00124344D01*
X00279022Y00124285D01*
X00279154Y00124211D01*
X00279169Y00124197D01*
X00279213Y00124167D01*
X00279272Y00124123D01*
X00279345Y00124065D01*
X00279492Y00123903D01*
X00279566Y00123800D01*
X00279624Y00123698D01*
Y00118559D01*
X00278802D01*
X00281298D01*
Y00123286D01*
Y00123316D01*
Y00123375D01*
X00281313Y00123463D01*
X00281342Y00123580D01*
X00281386Y00123712D01*
X00281445Y00123844D01*
X00281518Y00123991D01*
X00281635Y00124109D01*
X00281650Y00124123D01*
X00281694Y00124153D01*
X00281768Y00124211D01*
X00281870Y00124270D01*
X00282003Y00124329D01*
X00282149Y00124388D01*
X00282340Y00124417D01*
X00282546Y00124432D01*
X00282605D01*
X00282663Y00124417D01*
X00282751Y00124402D01*
X00282854Y00124373D01*
X00282971Y00124329D01*
X00283104Y00124270D01*
X00283236Y00124197D01*
X00283250Y00124182D01*
X00283295Y00124153D01*
X00283353Y00124109D01*
X00283441Y00124050D01*
X00283617Y00123888D01*
X00283691Y00123786D01*
X00283764Y00123683D01*
Y00118559D01*
X00285438D01*
Y00125826D01*
D02*
G37*
G36*
X00248089D02*
Y00125694D01*
X00246415D01*
Y00125034D01*
X00246401Y00125048D01*
X00246386Y00125063D01*
X00246342Y00125107D01*
X00246283Y00125151D01*
X00246224Y00125224D01*
X00246136Y00125283D01*
X00245931Y00125430D01*
X00245667Y00125577D01*
X00245344Y00125709D01*
X00244977Y00125797D01*
X00244771Y00125812D01*
X00244566Y00125826D01*
X00244419D01*
X00244272Y00125812D01*
X00244081Y00125797D01*
X00243861Y00125767D01*
X00243641Y00125709D01*
X00243435Y00125650D01*
X00243244Y00125562D01*
X00243964Y00124138D01*
X00243978Y00124153D01*
X00244037Y00124182D01*
X00244125Y00124226D01*
X00244257Y00124285D01*
X00244404Y00124344D01*
X00244566Y00124388D01*
X00244742Y00124417D01*
X00244947Y00124432D01*
X00244977D01*
X00245050Y00124417D01*
X00245153Y00124402D01*
X00245285Y00124373D01*
X00245446Y00124299D01*
X00245623Y00124211D01*
X00245799Y00124079D01*
X00245975Y00123903D01*
X00245990Y00123874D01*
X00246048Y00123815D01*
X00246107Y00123698D01*
X00246195Y00123551D01*
X00246269Y00123360D01*
X00246342Y00123140D01*
X00246401Y00122890D01*
X00246415Y00122611D01*
Y00118559D01*
X00243244D01*
D01*
X00248089D01*
Y00125826D01*
D02*
G37*
G36*
X00164421D02*
Y00125694D01*
X00163232D01*
X00162923Y00125019D01*
X00162909Y00125034D01*
X00162894Y00125048D01*
X00162850Y00125092D01*
X00162791Y00125151D01*
X00162718Y00125210D01*
X00162630Y00125268D01*
X00162527Y00125342D01*
X00162409Y00125430D01*
X00162277Y00125503D01*
X00162131Y00125577D01*
X00161969Y00125635D01*
X00161778Y00125694D01*
X00161587Y00125753D01*
X00161382Y00125797D01*
X00161147Y00125812D01*
X00160912Y00125826D01*
X00160795D01*
X00160707Y00125812D01*
X00160589Y00125797D01*
X00160472Y00125782D01*
X00160178Y00125738D01*
X00159855Y00125635D01*
X00159517Y00125503D01*
X00159356Y00125415D01*
X00159194Y00125312D01*
X00159047Y00125195D01*
X00158901Y00125063D01*
X00158886Y00125048D01*
X00158871Y00125034D01*
X00158827Y00124989D01*
X00158783Y00124916D01*
X00158724Y00124843D01*
X00158666Y00124754D01*
X00158592Y00124637D01*
X00158519Y00124505D01*
X00158460Y00124373D01*
X00158387Y00124211D01*
X00158328Y00124035D01*
X00158269Y00123844D01*
X00158225Y00123639D01*
X00158181Y00123419D01*
X00158167Y00123184D01*
X00158152Y00122934D01*
Y00118559D01*
X00159826D01*
Y00122670D01*
Y00122684D01*
Y00122714D01*
Y00122758D01*
Y00122817D01*
X00159840Y00122978D01*
X00159870Y00123184D01*
X00159914Y00123389D01*
X00159972Y00123624D01*
X00160061Y00123830D01*
X00160178Y00124006D01*
X00160193Y00124021D01*
X00160251Y00124079D01*
X00160325Y00124138D01*
X00160457Y00124226D01*
X00160618Y00124299D01*
X00160809Y00124373D01*
X00161044Y00124417D01*
X00161323Y00124432D01*
X00161382D01*
X00161455Y00124417D01*
X00161558Y00124402D01*
X00161675Y00124373D01*
X00161808Y00124344D01*
X00161954Y00124285D01*
X00162116Y00124211D01*
X00162131Y00124197D01*
X00162189Y00124182D01*
X00162263Y00124138D01*
X00162351Y00124079D01*
X00162556Y00123918D01*
X00162659Y00123815D01*
X00162747Y00123712D01*
Y00118559D01*
X00161286D01*
X00164421D01*
Y00125826D01*
D02*
G37*
G36*
X00271388D02*
X00267659D01*
X00271227D01*
X00271124Y00125812D01*
X00270992Y00125797D01*
X00270830Y00125782D01*
X00270654Y00125767D01*
X00270478Y00125738D01*
X00270081Y00125650D01*
X00269685Y00125518D01*
X00269494Y00125430D01*
X00269318Y00125327D01*
X00269142Y00125210D01*
X00268995Y00125077D01*
X00268980Y00125063D01*
X00268966Y00125048D01*
X00268922Y00124989D01*
X00268878Y00124931D01*
X00268819Y00124843D01*
X00268760Y00124725D01*
X00268687Y00124593D01*
X00268613Y00124446D01*
X00268540Y00124270D01*
X00268466Y00124065D01*
X00268408Y00123830D01*
X00268349Y00123580D01*
X00268305Y00123286D01*
X00268261Y00122978D01*
X00268246Y00122626D01*
X00268232Y00122259D01*
Y00120732D01*
Y00120717D01*
Y00120673D01*
Y00120600D01*
X00268217Y00120512D01*
Y00120394D01*
X00268202Y00120262D01*
X00268158Y00119983D01*
X00268085Y00119675D01*
X00267997Y00119381D01*
X00267923Y00119249D01*
X00267850Y00119132D01*
X00267762Y00119029D01*
X00267659Y00118955D01*
X00267674Y00118941D01*
X00267703Y00118897D01*
X00267747Y00118838D01*
X00267806Y00118765D01*
X00267953Y00118618D01*
X00268041Y00118559D01*
X00268129Y00118515D01*
X00268144D01*
X00268173Y00118500D01*
X00268232Y00118486D01*
X00268290Y00118471D01*
X00268378Y00118456D01*
X00268481Y00118442D01*
X00268716Y00118427D01*
X00268775D01*
X00268848Y00118442D01*
X00268922Y00118456D01*
X00269024Y00118486D01*
X00269142Y00118544D01*
X00269245Y00118603D01*
X00269362Y00118691D01*
X00269377Y00118706D01*
X00269406Y00118735D01*
X00269465Y00118794D01*
X00269524Y00118867D01*
X00269641Y00119044D01*
X00269700Y00119146D01*
X00269744Y00119264D01*
X00269758Y00119249D01*
X00269788Y00119205D01*
X00269846Y00119132D01*
X00269935Y00119058D01*
X00270037Y00118955D01*
X00270170Y00118853D01*
X00270346Y00118750D01*
X00270536Y00118662D01*
X00270566Y00118647D01*
X00270639Y00118632D01*
X00270742Y00118588D01*
X00270889Y00118544D01*
X00271065Y00118500D01*
X00271271Y00118471D01*
X00271476Y00118442D01*
X00271711Y00118427D01*
X00271967D01*
X00271814D01*
X00271902Y00118442D01*
X00271990D01*
X00272107Y00118456D01*
X00272372Y00118500D01*
X00272651Y00118574D01*
X00272959Y00118662D01*
X00273253Y00118809D01*
X00273517Y00119000D01*
X00273546Y00119029D01*
X00273620Y00119102D01*
X00273722Y00119234D01*
X00273840Y00119425D01*
X00273957Y00119646D01*
X00274060Y00119924D01*
X00274133Y00120262D01*
X00274148Y00120438D01*
X00274163Y00120629D01*
Y00118471D01*
Y00120747D01*
X00274148Y00120835D01*
X00274133Y00120937D01*
X00274119Y00121055D01*
X00274045Y00121334D01*
X00273943Y00121642D01*
X00273869Y00121804D01*
X00273781Y00121965D01*
X00273678Y00122127D01*
X00273546Y00122288D01*
X00273414Y00122435D01*
X00273253Y00122567D01*
X00273238Y00122582D01*
X00273209Y00122596D01*
X00273150Y00122626D01*
X00273076Y00122684D01*
X00272988Y00122729D01*
X00272871Y00122787D01*
X00272739Y00122861D01*
X00272577Y00122919D01*
X00272401Y00122993D01*
X00272195Y00123052D01*
X00271990Y00123110D01*
X00271740Y00123169D01*
X00271491Y00123213D01*
X00271212Y00123242D01*
X00270918Y00123257D01*
X00270610Y00123272D01*
X00270492D01*
X00270419Y00123257D01*
X00270316Y00123242D01*
X00270199Y00123228D01*
X00270067Y00123198D01*
X00269920Y00123169D01*
Y00123184D01*
Y00123228D01*
X00269935Y00123286D01*
X00269949Y00123360D01*
X00269964Y00123463D01*
X00270008Y00123565D01*
X00270052Y00123683D01*
X00270111Y00123800D01*
X00270199Y00123918D01*
X00270302Y00124035D01*
X00270434Y00124138D01*
X00270595Y00124241D01*
X00270771Y00124314D01*
X00270977Y00124373D01*
X00271227Y00124417D01*
X00271506Y00124432D01*
X00271667D01*
X00271740Y00124417D01*
X00271828D01*
X00272049Y00124388D01*
X00272298Y00124358D01*
X00272563Y00124299D01*
X00272827Y00124226D01*
X00273076Y00124123D01*
X00273429Y00125415D01*
X00273414D01*
X00273385Y00125430D01*
X00273341Y00125459D01*
X00273282Y00125474D01*
X00273194Y00125518D01*
X00273091Y00125547D01*
X00272988Y00125577D01*
X00272856Y00125621D01*
X00272563Y00125694D01*
X00272210Y00125767D01*
X00271814Y00125812D01*
X00271388Y00125826D01*
D02*
G37*
G36*
X00356216Y00128322D02*
X00354410D01*
X00352575Y00122435D01*
X00350608Y00128322D01*
X00349844D01*
X00347862Y00122435D01*
X00346027Y00128322D01*
X00344221D01*
X00347378Y00118427D01*
X00344221D01*
X00356216D01*
X00353016D01*
X00356216Y00128322D01*
D02*
G37*
G36*
X00288917Y00127764D02*
D01*
Y00125694D01*
X00286950D01*
Y00124358D01*
X00288917D01*
Y00121231D01*
Y00121216D01*
Y00121202D01*
Y00121114D01*
X00288903Y00120967D01*
X00288888Y00120805D01*
X00288859Y00120629D01*
X00288815Y00120453D01*
X00288756Y00120292D01*
X00288682Y00120145D01*
X00288668Y00120130D01*
X00288638Y00120101D01*
X00288580Y00120042D01*
X00288492Y00119998D01*
X00288374Y00119939D01*
X00288227Y00119880D01*
X00288051Y00119851D01*
X00287846Y00119836D01*
X00287743D01*
X00287625Y00119851D01*
X00287479Y00119880D01*
X00287302Y00119910D01*
X00287112Y00119969D01*
X00286921Y00120057D01*
X00286715Y00120159D01*
Y00127764D01*
Y00118618D01*
X00286745Y00118603D01*
X00286818Y00118588D01*
X00286950Y00118559D01*
X00287141Y00118530D01*
X00287376Y00118486D01*
X00287670Y00118456D01*
X00287992Y00118442D01*
X00288374Y00118427D01*
X00286715D01*
X00291413D01*
X00288477D01*
X00288550Y00118442D01*
X00288638D01*
X00288741Y00118456D01*
X00288976Y00118500D01*
X00289240Y00118574D01*
X00289519Y00118677D01*
X00289784Y00118823D01*
X00290019Y00119029D01*
X00290048Y00119058D01*
X00290107Y00119146D01*
X00290195Y00119278D01*
X00290297Y00119469D01*
X00290415Y00119704D01*
X00290503Y00119998D01*
X00290562Y00120350D01*
X00290591Y00120732D01*
Y00124358D01*
X00291413D01*
Y00125709D01*
Y00125694D01*
X00290591D01*
Y00127148D01*
X00288917Y00127764D01*
D02*
G37*
G36*
X00193974D02*
D01*
Y00125694D01*
X00192007D01*
Y00124358D01*
X00193974D01*
Y00121231D01*
Y00121216D01*
Y00121202D01*
Y00121114D01*
X00193959Y00120967D01*
X00193945Y00120805D01*
X00193915Y00120629D01*
X00193871Y00120453D01*
X00193813Y00120292D01*
X00193739Y00120145D01*
X00193724Y00120130D01*
X00193695Y00120101D01*
X00193636Y00120042D01*
X00193548Y00119998D01*
X00193431Y00119939D01*
X00193284Y00119880D01*
X00193108Y00119851D01*
X00192902Y00119836D01*
X00192800D01*
X00192682Y00119851D01*
X00192535Y00119880D01*
X00192359Y00119910D01*
X00192168Y00119969D01*
X00191977Y00120057D01*
X00191772Y00120159D01*
Y00127764D01*
Y00118618D01*
X00191801Y00118603D01*
X00191875Y00118588D01*
X00192007Y00118559D01*
X00192198Y00118530D01*
X00192432Y00118486D01*
X00192726Y00118456D01*
X00193049Y00118442D01*
X00193431Y00118427D01*
X00191772D01*
X00196470D01*
X00193534D01*
X00193607Y00118442D01*
X00193695D01*
X00193798Y00118456D01*
X00194033Y00118500D01*
X00194297Y00118574D01*
X00194576Y00118677D01*
X00194840Y00118823D01*
X00195075Y00119029D01*
X00195105Y00119058D01*
X00195163Y00119146D01*
X00195251Y00119278D01*
X00195354Y00119469D01*
X00195471Y00119704D01*
X00195560Y00119998D01*
X00195618Y00120350D01*
X00195648Y00120732D01*
Y00124358D01*
X00196470D01*
Y00125709D01*
Y00125694D01*
X00195648D01*
Y00127148D01*
X00193974Y00127764D01*
D02*
G37*
G36*
X00231338Y00125826D02*
X00231191D01*
X00231073Y00125812D01*
X00230941Y00125797D01*
X00230795Y00125782D01*
X00230618Y00125753D01*
X00230442Y00125709D01*
X00230046Y00125591D01*
X00229840Y00125518D01*
X00229635Y00125430D01*
X00229415Y00125327D01*
X00229224Y00125195D01*
X00229018Y00125048D01*
X00228842Y00124887D01*
X00228827Y00124872D01*
X00228798Y00124843D01*
X00228754Y00124799D01*
X00228695Y00124725D01*
X00228622Y00124622D01*
X00228548Y00124520D01*
X00228460Y00124388D01*
X00228372Y00124241D01*
X00228284Y00124079D01*
X00228196Y00123903D01*
X00228123Y00123712D01*
X00228049Y00123507D01*
X00227990Y00123286D01*
X00227946Y00123052D01*
X00227917Y00122802D01*
X00227902Y00122538D01*
Y00122406D01*
X00227917Y00122303D01*
X00227932Y00122171D01*
X00227961Y00122024D01*
X00228005Y00121833D01*
X00228049Y00121613D01*
X00233144D01*
Y00121598D01*
Y00121569D01*
X00233129Y00121525D01*
Y00121466D01*
X00233099Y00121319D01*
X00233055Y00121128D01*
X00232982Y00120923D01*
X00232879Y00120702D01*
X00232747Y00120482D01*
X00232571Y00120292D01*
X00232542Y00120277D01*
X00232468Y00120218D01*
X00232351Y00120145D01*
X00232189Y00120057D01*
X00231984Y00119969D01*
X00231734Y00119895D01*
X00231441Y00119836D01*
X00231117Y00119822D01*
X00231015D01*
X00230927Y00119836D01*
X00230839D01*
X00230721Y00119851D01*
X00230471Y00119895D01*
X00230193Y00119969D01*
X00229899Y00120071D01*
X00229635Y00120218D01*
X00229385Y00120424D01*
X00228724Y00119146D01*
X00228739Y00119132D01*
X00228769Y00119117D01*
X00228813Y00119088D01*
X00228886Y00119029D01*
X00228989Y00118985D01*
X00229091Y00118926D01*
X00229224Y00118853D01*
X00229385Y00118794D01*
X00229561Y00118721D01*
X00229752Y00118662D01*
X00229972Y00118588D01*
X00230207Y00118544D01*
X00230457Y00118500D01*
X00230736Y00118456D01*
X00231029Y00118442D01*
X00231352Y00118427D01*
X00227902D01*
D01*
X00234876D01*
Y00122200D01*
X00234861Y00122317D01*
X00234846Y00122464D01*
X00234817Y00122626D01*
X00234788Y00122817D01*
X00234744Y00123007D01*
X00234685Y00123228D01*
X00234626Y00123448D01*
X00234538Y00123668D01*
X00234435Y00123903D01*
X00234318Y00124138D01*
X00234171Y00124358D01*
X00234010Y00124564D01*
X00233834Y00124769D01*
X00233819Y00124784D01*
X00233790Y00124813D01*
X00233731Y00124872D01*
X00233643Y00124931D01*
X00233540Y00125019D01*
X00233422Y00125107D01*
X00233290Y00125195D01*
X00233129Y00125298D01*
X00232953Y00125400D01*
X00232762Y00125489D01*
X00232556Y00125577D01*
X00232336Y00125665D01*
X00232101Y00125723D01*
X00231866Y00125782D01*
X00231602Y00125812D01*
X00231338Y00125826D01*
D02*
G37*
G36*
X00126264Y00125826D02*
X00126118D01*
X00126000Y00125812D01*
X00125868Y00125797D01*
X00125721Y00125782D01*
X00125545Y00125753D01*
X00125369Y00125709D01*
X00124972Y00125591D01*
X00124767Y00125518D01*
X00124561Y00125430D01*
X00124341Y00125327D01*
X00124150Y00125195D01*
X00123945Y00125048D01*
X00123769Y00124887D01*
X00123754Y00124872D01*
X00123724Y00124843D01*
X00123680Y00124799D01*
X00123622Y00124725D01*
X00123548Y00124622D01*
X00123475Y00124520D01*
X00123387Y00124388D01*
X00123299Y00124241D01*
X00123211Y00124079D01*
X00123123Y00123903D01*
X00123049Y00123712D01*
X00122976Y00123507D01*
X00122917Y00123286D01*
X00122873Y00123052D01*
X00122844Y00122802D01*
X00122829Y00122538D01*
Y00122406D01*
X00122844Y00122303D01*
X00122858Y00122171D01*
X00122888Y00122024D01*
X00122932Y00121833D01*
X00122976Y00121613D01*
X00128070D01*
Y00121598D01*
Y00121569D01*
X00128055Y00121525D01*
Y00121466D01*
X00128026Y00121319D01*
X00127982Y00121128D01*
X00127909Y00120923D01*
X00127806Y00120702D01*
X00127674Y00120482D01*
X00127498Y00120291D01*
X00127468Y00120277D01*
X00127395Y00120218D01*
X00127277Y00120145D01*
X00127116Y00120056D01*
X00126910Y00119968D01*
X00126661Y00119895D01*
X00126367Y00119836D01*
X00126044Y00119822D01*
X00125941D01*
X00125853Y00119836D01*
X00125765D01*
X00125648Y00119851D01*
X00125398Y00119895D01*
X00125119Y00119968D01*
X00124826Y00120071D01*
X00124561Y00120218D01*
X00124312Y00120424D01*
X00123651Y00119146D01*
X00123666Y00119132D01*
X00123695Y00119117D01*
X00123739Y00119088D01*
X00123813Y00119029D01*
X00123915Y00118985D01*
X00124018Y00118926D01*
X00124150Y00118853D01*
X00124312Y00118794D01*
X00124488Y00118721D01*
X00124679Y00118662D01*
X00124899Y00118588D01*
X00125134Y00118544D01*
X00125384Y00118500D01*
X00125662Y00118456D01*
X00125956Y00118442D01*
X00126279Y00118427D01*
X00122829D01*
D01*
X00129803D01*
Y00122200D01*
X00129788Y00122317D01*
X00129773Y00122464D01*
X00129744Y00122626D01*
X00129714Y00122817D01*
X00129670Y00123007D01*
X00129612Y00123228D01*
X00129553Y00123448D01*
X00129465Y00123668D01*
X00129362Y00123903D01*
X00129245Y00124138D01*
X00129098Y00124358D01*
X00128936Y00124564D01*
X00128760Y00124769D01*
X00128745Y00124784D01*
X00128716Y00124813D01*
X00128657Y00124872D01*
X00128569Y00124931D01*
X00128467Y00125019D01*
X00128349Y00125107D01*
X00128217Y00125195D01*
X00128055Y00125298D01*
X00127879Y00125400D01*
X00127688Y00125489D01*
X00127483Y00125577D01*
X00127263Y00125665D01*
X00127028Y00125723D01*
X00126793Y00125782D01*
X00126529Y00125812D01*
X00126264Y00125826D01*
D02*
G37*
G36*
X00257206Y00128322D02*
X00249117D01*
Y00126781D01*
X00252361D01*
Y00118559D01*
X00249117D01*
X00254094D01*
Y00126781D01*
X00257206D01*
Y00119337D01*
Y00128322D01*
D02*
G37*
G36*
X00180864Y00128484D02*
X00173435D01*
D01*
X00176239D01*
X00176122Y00128469D01*
X00175975D01*
X00175813Y00128454D01*
X00175623Y00128425D01*
X00175432Y00128396D01*
X00175006Y00128322D01*
X00174551Y00128190D01*
X00174110Y00128028D01*
X00173890Y00127911D01*
X00173699Y00127794D01*
X00174419Y00126355D01*
X00174448Y00126384D01*
X00174536Y00126443D01*
X00174668Y00126546D01*
X00174771Y00126590D01*
X00174874Y00126648D01*
X00174991Y00126707D01*
X00175138Y00126751D01*
X00175285Y00126810D01*
X00175446Y00126854D01*
X00175637Y00126883D01*
X00175843Y00126913D01*
X00176048Y00126942D01*
X00176401D01*
X00176489Y00126927D01*
X00176591Y00126913D01*
X00176709Y00126883D01*
X00176988Y00126810D01*
X00177149Y00126766D01*
X00177311Y00126692D01*
X00177472Y00126604D01*
X00177634Y00126516D01*
X00177810Y00126384D01*
X00177972Y00126252D01*
X00178133Y00126090D01*
X00178280Y00125914D01*
X00178295Y00125900D01*
X00178309Y00125870D01*
X00178353Y00125812D01*
X00178397Y00125723D01*
X00178456Y00125635D01*
X00178529Y00125503D01*
X00178603Y00125371D01*
X00178662Y00125210D01*
X00178735Y00125034D01*
X00178808Y00124828D01*
X00178882Y00124622D01*
X00178941Y00124388D01*
X00178985Y00124153D01*
X00179029Y00123888D01*
X00179043Y00123609D01*
X00179058Y00123330D01*
Y00123316D01*
Y00123257D01*
Y00123184D01*
X00179043Y00123066D01*
X00179029Y00122949D01*
X00179014Y00122787D01*
X00178999Y00122626D01*
X00178970Y00122435D01*
X00178882Y00122038D01*
X00178750Y00121627D01*
X00178676Y00121422D01*
X00178573Y00121216D01*
X00178471Y00121025D01*
X00178339Y00120849D01*
X00178324Y00120835D01*
X00178309Y00120805D01*
X00178265Y00120761D01*
X00178207Y00120702D01*
X00178133Y00120644D01*
X00178045Y00120556D01*
X00177942Y00120482D01*
X00177825Y00120394D01*
X00177546Y00120233D01*
X00177223Y00120086D01*
X00177047Y00120027D01*
X00176841Y00119983D01*
X00176636Y00119954D01*
X00176415Y00119939D01*
X00176283D01*
X00176180Y00119954D01*
X00176078Y00119969D01*
X00175931Y00119998D01*
X00175784Y00120027D01*
X00175623Y00120057D01*
X00175285Y00120174D01*
X00175094Y00120262D01*
X00174918Y00120350D01*
X00174742Y00120468D01*
X00174566Y00120600D01*
X00174404Y00120747D01*
X00174242Y00120923D01*
X00173435Y00119528D01*
X00173450Y00119513D01*
X00173479Y00119484D01*
X00173552Y00119425D01*
X00173641Y00119352D01*
X00173743Y00119264D01*
X00173876Y00119176D01*
X00174037Y00119073D01*
X00174228Y00118970D01*
X00174433Y00118853D01*
X00174668Y00118750D01*
X00174918Y00118662D01*
X00175197Y00118574D01*
X00175505Y00118500D01*
X00175828Y00118442D01*
X00176180Y00118412D01*
X00176548Y00118398D01*
X00176636D01*
X00176738Y00118412D01*
X00176885D01*
X00177061Y00118442D01*
X00177252Y00118471D01*
X00177472Y00118515D01*
X00177722Y00118559D01*
X00177972Y00118632D01*
X00178221Y00118721D01*
X00178500Y00118838D01*
X00178764Y00118955D01*
X00179014Y00119117D01*
X00179278Y00119293D01*
X00179513Y00119499D01*
X00179733Y00119734D01*
X00179748Y00119748D01*
X00179777Y00119792D01*
X00179836Y00119880D01*
X00179909Y00119983D01*
X00179998Y00120115D01*
X00180086Y00120277D01*
X00180188Y00120482D01*
X00180291Y00120702D01*
X00180409Y00120952D01*
X00180511Y00121216D01*
X00180599Y00121525D01*
X00180688Y00121848D01*
X00180761Y00122200D01*
X00180820Y00122582D01*
X00180849Y00122978D01*
X00180864Y00123404D01*
Y00118588D01*
Y00123521D01*
Y00123507D01*
X00180849Y00123609D01*
Y00123771D01*
X00180820Y00123947D01*
X00180790Y00124167D01*
X00180761Y00124402D01*
X00180702Y00124667D01*
X00180644Y00124945D01*
X00180555Y00125239D01*
X00180453Y00125533D01*
X00180335Y00125841D01*
X00180188Y00126149D01*
X00180027Y00126443D01*
X00179836Y00126736D01*
X00179616Y00127015D01*
X00179601Y00127030D01*
X00179557Y00127074D01*
X00179484Y00127148D01*
X00179381Y00127250D01*
X00179263Y00127353D01*
X00179117Y00127485D01*
X00178941Y00127617D01*
X00178735Y00127750D01*
X00178515Y00127882D01*
X00178280Y00128014D01*
X00178016Y00128146D01*
X00177722Y00128249D01*
X00177428Y00128351D01*
X00177105Y00128425D01*
X00176753Y00128469D01*
X00176401Y00128484D01*
X00180864D01*
D01*
D02*
G37*
G36*
X00297198Y00125826D02*
X00292191D01*
X00294599D01*
X00294511Y00125812D01*
X00294408D01*
X00294291Y00125797D01*
X00294159Y00125782D01*
X00294026Y00125767D01*
X00293703Y00125694D01*
X00293351Y00125606D01*
X00292969Y00125489D01*
X00292602Y00125312D01*
X00293087Y00124035D01*
X00293116Y00124050D01*
X00293190Y00124109D01*
X00293307Y00124182D01*
X00293483Y00124270D01*
X00293689Y00124358D01*
X00293953Y00124432D01*
X00294261Y00124490D01*
X00294599Y00124505D01*
X00294672D01*
X00294731Y00124490D01*
X00294878Y00124476D01*
X00295025Y00124417D01*
X00295186Y00124329D01*
X00295333Y00124211D01*
X00295392Y00124123D01*
X00295421Y00124035D01*
X00295450Y00123918D01*
X00295465Y00123800D01*
Y00123786D01*
Y00123756D01*
X00295450Y00123712D01*
X00295436Y00123639D01*
X00295392Y00123565D01*
X00295348Y00123492D01*
X00295274Y00123404D01*
X00295186Y00123316D01*
X00295172Y00123301D01*
X00295128Y00123272D01*
X00295054Y00123228D01*
X00294922Y00123154D01*
X00294760Y00123066D01*
X00294555Y00122963D01*
X00294291Y00122846D01*
X00294129Y00122787D01*
X00293968Y00122714D01*
X00293953D01*
X00293924Y00122699D01*
X00293880Y00122670D01*
X00293821Y00122655D01*
X00293645Y00122567D01*
X00293439Y00122464D01*
X00293219Y00122332D01*
X00292999Y00122185D01*
X00292793Y00122009D01*
X00292617Y00121818D01*
X00292602Y00121789D01*
X00292544Y00121730D01*
X00292485Y00121613D01*
X00292397Y00121466D01*
X00292323Y00121275D01*
X00292250Y00121070D01*
X00292206Y00120820D01*
X00292191Y00120556D01*
Y00120453D01*
X00292206Y00120394D01*
X00292221Y00120306D01*
X00292235Y00120203D01*
X00292279Y00119983D01*
X00292367Y00119734D01*
X00292500Y00119469D01*
X00292588Y00119337D01*
X00292690Y00119220D01*
X00292808Y00119102D01*
X00292940Y00118985D01*
X00292955D01*
X00292969Y00118955D01*
X00293013Y00118941D01*
X00293072Y00118897D01*
X00293146Y00118853D01*
X00293234Y00118809D01*
X00293351Y00118765D01*
X00293469Y00118706D01*
X00293601Y00118647D01*
X00293748Y00118603D01*
X00294085Y00118515D01*
X00294482Y00118456D01*
X00294937Y00118427D01*
X00295388D01*
X00295186D01*
X00295348Y00118442D01*
X00295524Y00118456D01*
X00295715Y00118471D01*
X00295906Y00118500D01*
X00296082Y00118544D01*
X00296096D01*
X00296155Y00118574D01*
X00296258Y00118603D01*
X00296375Y00118647D01*
X00296537Y00118706D01*
X00296713Y00118779D01*
X00296933Y00118882D01*
X00297168Y00119014D01*
X00296581Y00120350D01*
X00296566D01*
X00296552Y00120321D01*
X00296508Y00120292D01*
X00296449Y00120262D01*
X00296302Y00120159D01*
X00296096Y00120057D01*
X00295847Y00119939D01*
X00295553Y00119836D01*
X00295245Y00119778D01*
X00294907Y00119748D01*
X00294819D01*
X00294746Y00119763D01*
X00294599Y00119792D01*
X00294408Y00119836D01*
X00294232Y00119924D01*
X00294070Y00120042D01*
X00294012Y00120115D01*
X00293968Y00120218D01*
X00293938Y00120321D01*
X00293924Y00120438D01*
Y00120453D01*
Y00120512D01*
X00293938Y00120585D01*
X00293953Y00120673D01*
X00293997Y00120776D01*
X00294041Y00120879D01*
X00294114Y00120996D01*
X00294217Y00121099D01*
X00294232Y00121114D01*
X00294276Y00121143D01*
X00294349Y00121202D01*
X00294467Y00121275D01*
X00294628Y00121363D01*
X00294819Y00121466D01*
X00295069Y00121583D01*
X00295362Y00121715D01*
X00295377Y00121730D01*
X00295436Y00121745D01*
X00295539Y00121789D01*
X00295641Y00121862D01*
X00295788Y00121936D01*
X00295950Y00122024D01*
X00296111Y00122141D01*
X00296273Y00122273D01*
X00296449Y00122420D01*
X00296610Y00122582D01*
X00296772Y00122758D01*
X00296904Y00122949D01*
X00297021Y00123154D01*
X00297124Y00123375D01*
X00297183Y00123609D01*
X00297198Y00123859D01*
Y00118588D01*
Y00123947D01*
X00297183Y00124006D01*
X00297153Y00124182D01*
X00297110Y00124388D01*
X00297021Y00124622D01*
X00296904Y00124857D01*
X00296728Y00125092D01*
X00296610Y00125195D01*
X00296493Y00125298D01*
X00296478D01*
X00296464Y00125327D01*
X00296420Y00125342D01*
X00296361Y00125386D01*
X00296214Y00125459D01*
X00296008Y00125562D01*
X00295744Y00125665D01*
X00295436Y00125738D01*
X00295084Y00125797D01*
X00294702Y00125826D01*
X00297198D01*
D01*
D02*
G37*
G36*
X00343766Y00128469D02*
Y00125694D01*
X00341168D01*
Y00118559D01*
X00343766D01*
X00342856D01*
Y00124329D01*
X00343766D01*
Y00128469D01*
D02*
G37*
G36*
X00339127Y00128322D02*
X00332697D01*
Y00126781D01*
X00337395D01*
Y00124490D01*
X00333959D01*
Y00123022D01*
X00337395D01*
Y00118559D01*
X00332697D01*
X00339127D01*
Y00128322D01*
D02*
G37*
G36*
X00331728Y00128469D02*
Y00125694D01*
X00329129D01*
Y00118559D01*
X00331728D01*
X00330817D01*
Y00124329D01*
X00331728D01*
Y00128469D01*
D02*
G37*
G36*
X00306638Y00125826D02*
X00301793D01*
X00302967D01*
X00302820Y00125812D01*
X00302630Y00125797D01*
X00302409Y00125768D01*
X00302189Y00125709D01*
X00301984Y00125650D01*
X00301793Y00125562D01*
X00302512Y00124138D01*
X00302527Y00124153D01*
X00302586Y00124182D01*
X00302674Y00124226D01*
X00302806Y00124285D01*
X00302953Y00124344D01*
X00303114Y00124388D01*
X00303290Y00124417D01*
X00303496Y00124432D01*
X00303525D01*
X00303599Y00124417D01*
X00303701Y00124402D01*
X00303834Y00124373D01*
X00303995Y00124299D01*
X00304171Y00124211D01*
X00304347Y00124079D01*
X00304524Y00123903D01*
X00304538Y00123874D01*
X00304597Y00123815D01*
X00304656Y00123698D01*
X00304744Y00123551D01*
X00304817Y00123360D01*
X00304890Y00123140D01*
X00304949Y00122890D01*
X00304964Y00122611D01*
Y00118559D01*
X00306638D01*
Y00125826D01*
D02*
G37*
G36*
X00301279Y00128469D02*
Y00125694D01*
X00298680D01*
Y00118559D01*
X00301279D01*
X00300369D01*
Y00124329D01*
X00301279D01*
Y00128469D01*
D02*
G37*
G36*
X00222367Y00128322D02*
X00220635D01*
Y00120101D01*
X00216216D01*
Y00118559D01*
X00222367D01*
Y00128322D01*
D02*
G37*
G36*
X00215394Y00128469D02*
Y00125694D01*
X00212795D01*
Y00118559D01*
X00214484D01*
Y00124329D01*
X00215394D01*
Y00128469D01*
D02*
G37*
G36*
X00150943Y00125826D02*
X00146099D01*
X00147273D01*
X00147126Y00125812D01*
X00146936Y00125797D01*
X00146715Y00125767D01*
X00146495Y00125709D01*
X00146290Y00125650D01*
X00146099Y00125562D01*
X00146818Y00124138D01*
X00146833Y00124153D01*
X00146891Y00124182D01*
X00146980Y00124226D01*
X00147112Y00124285D01*
X00147259Y00124343D01*
X00147420Y00124388D01*
X00147596Y00124417D01*
X00147802Y00124431D01*
X00147831D01*
X00147905Y00124417D01*
X00148007Y00124402D01*
X00148139Y00124373D01*
X00148301Y00124299D01*
X00148477Y00124211D01*
X00148653Y00124079D01*
X00148829Y00123903D01*
X00148844Y00123874D01*
X00148903Y00123815D01*
X00148961Y00123698D01*
X00149050Y00123551D01*
X00149123Y00123360D01*
X00149196Y00123140D01*
X00149255Y00122890D01*
X00149270Y00122611D01*
Y00118559D01*
X00150943D01*
Y00125826D01*
D02*
G37*
G36*
X00121508D02*
X00116663D01*
X00117837D01*
X00117690Y00125812D01*
X00117500Y00125797D01*
X00117280Y00125767D01*
X00117059Y00125709D01*
X00116854Y00125650D01*
X00116663Y00125562D01*
X00117382Y00124138D01*
X00117397Y00124153D01*
X00117456Y00124182D01*
X00117544Y00124226D01*
X00117676Y00124285D01*
X00117823Y00124343D01*
X00117984Y00124388D01*
X00118160Y00124417D01*
X00118366Y00124431D01*
X00118395D01*
X00118469Y00124417D01*
X00118571Y00124402D01*
X00118703Y00124373D01*
X00118865Y00124299D01*
X00119041Y00124211D01*
X00119217Y00124079D01*
X00119394Y00123903D01*
X00119408Y00123874D01*
X00119467Y00123815D01*
X00119526Y00123698D01*
X00119614Y00123551D01*
X00119687Y00123360D01*
X00119761Y00123140D01*
X00119819Y00122890D01*
X00119834Y00122611D01*
Y00118559D01*
X00121508D01*
Y00125826D01*
D02*
G37*
G36*
X00323448Y00128484D02*
X00316019D01*
D01*
X00318823D01*
X00318706Y00128469D01*
X00318559D01*
X00318397Y00128454D01*
X00318206Y00128425D01*
X00318015Y00128396D01*
X00317590Y00128322D01*
X00317135Y00128190D01*
X00316694Y00128028D01*
X00316474Y00127911D01*
X00316283Y00127794D01*
X00317003Y00126355D01*
X00317032Y00126384D01*
X00317120Y00126443D01*
X00317252Y00126546D01*
X00317355Y00126590D01*
X00317458Y00126648D01*
X00317575Y00126707D01*
X00317722Y00126751D01*
X00317869Y00126810D01*
X00318030Y00126854D01*
X00318221Y00126883D01*
X00318427Y00126913D01*
X00318632Y00126942D01*
X00318985D01*
X00319073Y00126927D01*
X00319175Y00126913D01*
X00319293Y00126883D01*
X00319572Y00126810D01*
X00319733Y00126766D01*
X00319895Y00126692D01*
X00320056Y00126604D01*
X00320218Y00126516D01*
X00320394Y00126384D01*
X00320555Y00126252D01*
X00320717Y00126091D01*
X00320864Y00125914D01*
X00320878Y00125900D01*
X00320893Y00125870D01*
X00320937Y00125812D01*
X00320981Y00125723D01*
X00321040Y00125635D01*
X00321113Y00125503D01*
X00321187Y00125371D01*
X00321245Y00125210D01*
X00321319Y00125034D01*
X00321392Y00124828D01*
X00321466Y00124622D01*
X00321524Y00124388D01*
X00321568Y00124153D01*
X00321612Y00123888D01*
X00321627Y00123609D01*
X00321642Y00123330D01*
Y00123316D01*
Y00123257D01*
Y00123184D01*
X00321627Y00123066D01*
X00321612Y00122949D01*
X00321598Y00122787D01*
X00321583Y00122626D01*
X00321554Y00122435D01*
X00321466Y00122038D01*
X00321334Y00121628D01*
X00321260Y00121422D01*
X00321157Y00121216D01*
X00321054Y00121025D01*
X00320922Y00120849D01*
X00320908Y00120835D01*
X00320893Y00120805D01*
X00320849Y00120761D01*
X00320790Y00120703D01*
X00320717Y00120644D01*
X00320629Y00120556D01*
X00320526Y00120482D01*
X00320409Y00120394D01*
X00320130Y00120233D01*
X00319807Y00120086D01*
X00319631Y00120027D01*
X00319425Y00119983D01*
X00319219Y00119954D01*
X00318999Y00119939D01*
X00318867D01*
X00318764Y00119954D01*
X00318661Y00119969D01*
X00318515Y00119998D01*
X00318368Y00120027D01*
X00318206Y00120057D01*
X00317869Y00120174D01*
X00317678Y00120262D01*
X00317502Y00120350D01*
X00317325Y00120468D01*
X00317149Y00120600D01*
X00316988Y00120747D01*
X00316826Y00120923D01*
X00316019Y00119528D01*
X00316034Y00119513D01*
X00316063Y00119484D01*
X00316136Y00119425D01*
X00316224Y00119352D01*
X00316327Y00119264D01*
X00316459Y00119176D01*
X00316621Y00119073D01*
X00316812Y00118970D01*
X00317017Y00118853D01*
X00317252Y00118750D01*
X00317502Y00118662D01*
X00317781Y00118574D01*
X00318089Y00118500D01*
X00318412Y00118442D01*
X00318764Y00118412D01*
X00319131Y00118398D01*
X00319219D01*
X00319322Y00118412D01*
X00319469D01*
X00319645Y00118442D01*
X00319836Y00118471D01*
X00320056Y00118515D01*
X00320306Y00118559D01*
X00320555Y00118632D01*
X00320805Y00118721D01*
X00321084Y00118838D01*
X00321348Y00118955D01*
X00321598Y00119117D01*
X00321862Y00119293D01*
X00322097Y00119499D01*
X00322317Y00119734D01*
X00322332Y00119748D01*
X00322361Y00119792D01*
X00322420Y00119880D01*
X00322493Y00119983D01*
X00322581Y00120115D01*
X00322669Y00120277D01*
X00322772Y00120482D01*
X00322875Y00120703D01*
X00322992Y00120952D01*
X00323095Y00121216D01*
X00323183Y00121525D01*
X00323271Y00121848D01*
X00323345Y00122200D01*
X00323404Y00122582D01*
X00323433Y00122978D01*
X00323448Y00123404D01*
Y00118544D01*
Y00123551D01*
Y00123507D01*
X00323433Y00123609D01*
Y00123771D01*
X00323404Y00123947D01*
X00323374Y00124167D01*
X00323345Y00124402D01*
X00323286Y00124667D01*
X00323227Y00124945D01*
X00323139Y00125239D01*
X00323036Y00125533D01*
X00322919Y00125841D01*
X00322772Y00126149D01*
X00322611Y00126443D01*
X00322420Y00126736D01*
X00322200Y00127015D01*
X00322185Y00127030D01*
X00322141Y00127074D01*
X00322067Y00127148D01*
X00321965Y00127250D01*
X00321847Y00127353D01*
X00321701Y00127485D01*
X00321524Y00127617D01*
X00321319Y00127750D01*
X00321099Y00127882D01*
X00320864Y00128014D01*
X00320599Y00128146D01*
X00320306Y00128249D01*
X00320012Y00128351D01*
X00319689Y00128425D01*
X00319337Y00128469D01*
X00318985Y00128484D01*
X00323448D01*
D01*
D02*
G37*
G36*
X00242716Y00125826D02*
X00235742D01*
X00239031D01*
X00238913Y00125812D01*
X00238781Y00125797D01*
X00238634Y00125782D01*
X00238458Y00125753D01*
X00238282Y00125709D01*
X00237885Y00125591D01*
X00237680Y00125518D01*
X00237474Y00125430D01*
X00237254Y00125327D01*
X00237063Y00125195D01*
X00236858Y00125048D01*
X00236682Y00124887D01*
X00236667Y00124872D01*
X00236638Y00124843D01*
X00236594Y00124799D01*
X00236535Y00124725D01*
X00236462Y00124622D01*
X00236388Y00124520D01*
X00236300Y00124388D01*
X00236212Y00124241D01*
X00236124Y00124079D01*
X00236036Y00123903D01*
X00235962Y00123712D01*
X00235889Y00123507D01*
X00235830Y00123286D01*
X00235786Y00123052D01*
X00235757Y00122802D01*
X00235742Y00122538D01*
Y00122406D01*
X00235757Y00122303D01*
X00235771Y00122171D01*
X00235801Y00122024D01*
X00235845Y00121833D01*
X00235889Y00121613D01*
X00240983D01*
Y00121598D01*
Y00121569D01*
X00240969Y00121525D01*
Y00121466D01*
X00240939Y00121319D01*
X00240895Y00121128D01*
X00240822Y00120923D01*
X00240719Y00120702D01*
X00240587Y00120482D01*
X00240411Y00120292D01*
X00240381Y00120277D01*
X00240308Y00120218D01*
X00240191Y00120145D01*
X00240029Y00120057D01*
X00239823Y00119969D01*
X00239574Y00119895D01*
X00239280Y00119836D01*
X00238957Y00119822D01*
X00238855D01*
X00238766Y00119836D01*
X00238678D01*
X00238561Y00119851D01*
X00238311Y00119895D01*
X00238032Y00119969D01*
X00237739Y00120071D01*
X00237474Y00120218D01*
X00237225Y00120424D01*
X00236564Y00119146D01*
X00236579Y00119132D01*
X00236608Y00119117D01*
X00236652Y00119088D01*
X00236726Y00119029D01*
X00236828Y00118985D01*
X00236931Y00118926D01*
X00237063Y00118853D01*
X00237225Y00118794D01*
X00237401Y00118721D01*
X00237592Y00118662D01*
X00237812Y00118588D01*
X00238047Y00118544D01*
X00238297Y00118500D01*
X00238575Y00118456D01*
X00238869Y00118442D01*
X00239192Y00118427D01*
X00239354D01*
X00239456Y00118442D01*
X00239603Y00118456D01*
X00239765Y00118471D01*
X00239941Y00118500D01*
X00240132Y00118544D01*
X00240543Y00118662D01*
X00240748Y00118735D01*
X00240969Y00118823D01*
X00241189Y00118941D01*
X00241394Y00119073D01*
X00241585Y00119220D01*
X00241776Y00119381D01*
X00241791Y00119396D01*
X00241820Y00119425D01*
X00241864Y00119484D01*
X00241923Y00119557D01*
X00241996Y00119660D01*
X00242070Y00119778D01*
X00242158Y00119910D01*
X00242246Y00120071D01*
X00242334Y00120247D01*
X00242422Y00120453D01*
X00242495Y00120673D01*
X00242569Y00120908D01*
X00242628Y00121158D01*
X00242672Y00121437D01*
X00242701Y00121730D01*
X00242716Y00122038D01*
Y00118471D01*
Y00122200D01*
X00242701Y00122317D01*
X00242686Y00122464D01*
X00242657Y00122626D01*
X00242628Y00122817D01*
X00242584Y00123007D01*
X00242525Y00123228D01*
X00242466Y00123448D01*
X00242378Y00123668D01*
X00242275Y00123903D01*
X00242158Y00124138D01*
X00242011Y00124358D01*
X00241849Y00124564D01*
X00241673Y00124769D01*
X00241659Y00124784D01*
X00241629Y00124813D01*
X00241570Y00124872D01*
X00241482Y00124931D01*
X00241380Y00125019D01*
X00241262Y00125107D01*
X00241130Y00125195D01*
X00240969Y00125298D01*
X00240792Y00125400D01*
X00240602Y00125489D01*
X00240396Y00125577D01*
X00240176Y00125665D01*
X00239941Y00125723D01*
X00239706Y00125782D01*
X00239442Y00125812D01*
X00239177Y00125826D01*
X00242716D01*
D01*
D02*
G37*
G36*
X00137114Y00128763D02*
X00134662D01*
D01*
X00135440D01*
Y00120732D01*
Y00120717D01*
Y00120673D01*
Y00120614D01*
X00135425Y00120526D01*
X00135411Y00120424D01*
X00135396Y00120306D01*
X00135337Y00120042D01*
X00135249Y00119763D01*
X00135117Y00119513D01*
X00135029Y00119396D01*
X00134912Y00119293D01*
X00134794Y00119205D01*
X00134662Y00119146D01*
Y00119132D01*
X00134677Y00119117D01*
X00134735Y00119029D01*
X00134838Y00118926D01*
X00134970Y00118794D01*
X00135161Y00118662D01*
X00135381Y00118544D01*
X00135660Y00118456D01*
X00135822Y00118442D01*
X00135983Y00118427D01*
X00136027D01*
X00136086Y00118442D01*
X00136159Y00118456D01*
X00136336Y00118515D01*
X00136438Y00118559D01*
X00136541Y00118618D01*
X00136659Y00118706D01*
X00136761Y00118809D01*
X00136849Y00118941D01*
X00136938Y00119088D01*
X00137011Y00119264D01*
X00137070Y00119484D01*
X00137099Y00119719D01*
X00137114Y00119998D01*
Y00118442D01*
Y00128351D01*
Y00128351D01*
X00135440Y00128763D01*
X00137114D01*
D02*
G37*
G36*
X00266896Y00125826D02*
X00264297D01*
X00264209Y00125812D01*
X00264106D01*
X00263989Y00125797D01*
X00263857Y00125782D01*
X00263724Y00125767D01*
X00263402Y00125694D01*
X00263049Y00125606D01*
X00262667Y00125489D01*
X00262300Y00125312D01*
X00262785Y00124035D01*
X00262814Y00124050D01*
X00262888Y00124109D01*
X00263005Y00124182D01*
X00263181Y00124270D01*
X00263387Y00124358D01*
X00263651Y00124432D01*
X00263959Y00124490D01*
X00264297Y00124505D01*
X00264370D01*
X00264429Y00124490D01*
X00264576Y00124476D01*
X00264723Y00124417D01*
X00264884Y00124329D01*
X00265031Y00124211D01*
X00265090Y00124123D01*
X00265119Y00124035D01*
X00265149Y00123918D01*
X00265163Y00123800D01*
Y00123786D01*
Y00123756D01*
X00265149Y00123712D01*
X00265134Y00123639D01*
X00265090Y00123565D01*
X00265046Y00123492D01*
X00264972Y00123404D01*
X00264884Y00123316D01*
X00264870Y00123301D01*
X00264825Y00123272D01*
X00264752Y00123228D01*
X00264620Y00123154D01*
X00264459Y00123066D01*
X00264253Y00122963D01*
X00263989Y00122846D01*
X00263827Y00122787D01*
X00263666Y00122714D01*
X00263651D01*
X00263622Y00122699D01*
X00263578Y00122670D01*
X00263519Y00122655D01*
X00263343Y00122567D01*
X00263137Y00122464D01*
X00262917Y00122332D01*
X00262697Y00122185D01*
X00262491Y00122009D01*
X00262315Y00121818D01*
X00262300Y00121789D01*
X00262242Y00121730D01*
X00262183Y00121613D01*
X00262095Y00121466D01*
X00262021Y00121275D01*
X00261948Y00121070D01*
X00261904Y00120820D01*
X00261889Y00120556D01*
Y00120453D01*
X00261904Y00120394D01*
X00261919Y00120306D01*
X00261933Y00120203D01*
X00261977Y00119983D01*
X00262066Y00119734D01*
X00262198Y00119469D01*
X00262286Y00119337D01*
X00262388Y00119220D01*
X00262506Y00119102D01*
X00262638Y00118985D01*
X00262653D01*
X00262667Y00118955D01*
X00262711Y00118941D01*
X00262770Y00118897D01*
X00262844Y00118853D01*
X00262932Y00118809D01*
X00263049Y00118765D01*
X00263167Y00118706D01*
X00263299Y00118647D01*
X00263445Y00118603D01*
X00263783Y00118515D01*
X00264180Y00118456D01*
X00264635Y00118427D01*
X00261889D01*
X00266896D01*
Y00123947D01*
X00266881Y00124006D01*
X00266852Y00124182D01*
X00266807Y00124388D01*
X00266719Y00124622D01*
X00266602Y00124857D01*
X00266426Y00125092D01*
X00266308Y00125195D01*
X00266191Y00125298D01*
X00266176D01*
X00266161Y00125327D01*
X00266117Y00125342D01*
X00266059Y00125386D01*
X00265912Y00125459D01*
X00265706Y00125562D01*
X00265442Y00125665D01*
X00265134Y00125738D01*
X00264781Y00125797D01*
X00264400Y00125826D01*
X00266896D01*
D02*
G37*
G36*
X00190950D02*
X00188351D01*
X00188263Y00125812D01*
X00188160D01*
X00188043Y00125797D01*
X00187911Y00125782D01*
X00187779Y00125767D01*
X00187456Y00125694D01*
X00187103Y00125606D01*
X00186721Y00125489D01*
X00186355Y00125312D01*
X00186839Y00124035D01*
X00186868Y00124050D01*
X00186942Y00124109D01*
X00187059Y00124182D01*
X00187235Y00124270D01*
X00187441Y00124358D01*
X00187705Y00124432D01*
X00188013Y00124490D01*
X00188351Y00124505D01*
X00188425D01*
X00188483Y00124490D01*
X00188630Y00124476D01*
X00188777Y00124417D01*
X00188938Y00124329D01*
X00189085Y00124211D01*
X00189144Y00124123D01*
X00189173Y00124035D01*
X00189203Y00123918D01*
X00189217Y00123800D01*
Y00123786D01*
Y00123756D01*
X00189203Y00123712D01*
X00189188Y00123639D01*
X00189144Y00123565D01*
X00189100Y00123492D01*
X00189027Y00123404D01*
X00188938Y00123316D01*
X00188924Y00123301D01*
X00188880Y00123272D01*
X00188806Y00123228D01*
X00188674Y00123154D01*
X00188513Y00123066D01*
X00188307Y00122963D01*
X00188043Y00122846D01*
X00187881Y00122787D01*
X00187720Y00122714D01*
X00187705D01*
X00187676Y00122699D01*
X00187632Y00122670D01*
X00187573Y00122655D01*
X00187397Y00122567D01*
X00187191Y00122464D01*
X00186971Y00122332D01*
X00186751Y00122185D01*
X00186545Y00122009D01*
X00186369Y00121818D01*
X00186355Y00121789D01*
X00186296Y00121730D01*
X00186237Y00121613D01*
X00186149Y00121466D01*
X00186076Y00121275D01*
X00186002Y00121070D01*
X00185958Y00120820D01*
X00185943Y00120556D01*
Y00120453D01*
X00185958Y00120394D01*
X00185973Y00120306D01*
X00185987Y00120203D01*
X00186031Y00119983D01*
X00186120Y00119734D01*
X00186252Y00119469D01*
X00186340Y00119337D01*
X00186443Y00119220D01*
X00186560Y00119102D01*
X00186692Y00118985D01*
X00186707D01*
X00186721Y00118955D01*
X00186766Y00118941D01*
X00186824Y00118897D01*
X00186898Y00118853D01*
X00186986Y00118809D01*
X00187103Y00118765D01*
X00187221Y00118706D01*
X00187353Y00118647D01*
X00187500Y00118603D01*
X00187837Y00118515D01*
X00188234Y00118456D01*
X00188689Y00118427D01*
X00185943D01*
X00190950D01*
Y00123947D01*
X00190935Y00124006D01*
X00190906Y00124182D01*
X00190862Y00124388D01*
X00190774Y00124622D01*
X00190656Y00124857D01*
X00190480Y00125092D01*
X00190362Y00125195D01*
X00190245Y00125298D01*
X00190230D01*
X00190216Y00125327D01*
X00190172Y00125342D01*
X00190113Y00125386D01*
X00189966Y00125459D01*
X00189761Y00125562D01*
X00189496Y00125665D01*
X00189188Y00125738D01*
X00188836Y00125797D01*
X00188454Y00125826D01*
X00190950D01*
D02*
G37*
G36*
X00169177D02*
X00165742D01*
X00169016D01*
X00168913Y00125812D01*
X00168766Y00125797D01*
X00168620Y00125767D01*
X00168444Y00125738D01*
X00168253Y00125709D01*
X00167841Y00125577D01*
X00167636Y00125503D01*
X00167430Y00125400D01*
X00167210Y00125298D01*
X00167019Y00125151D01*
X00166828Y00125004D01*
X00166652Y00124828D01*
X00166638Y00124813D01*
X00166608Y00124784D01*
X00166564Y00124725D01*
X00166506Y00124652D01*
X00166447Y00124549D01*
X00166359Y00124432D01*
X00166285Y00124285D01*
X00166197Y00124123D01*
X00166109Y00123947D01*
X00166036Y00123742D01*
X00165948Y00123521D01*
X00165889Y00123286D01*
X00165830Y00123022D01*
X00165786Y00122743D01*
X00165757Y00122450D01*
X00165742Y00122141D01*
Y00121980D01*
X00165757Y00121862D01*
X00165772Y00121715D01*
X00165786Y00121554D01*
X00165816Y00121363D01*
X00165860Y00121158D01*
X00165962Y00120732D01*
X00166036Y00120512D01*
X00166138Y00120277D01*
X00166241Y00120057D01*
X00166359Y00119836D01*
X00166506Y00119616D01*
X00166667Y00119425D01*
X00166682Y00119411D01*
X00166711Y00119381D01*
X00166755Y00119337D01*
X00166828Y00119264D01*
X00166931Y00119190D01*
X00167034Y00119117D01*
X00167166Y00119014D01*
X00167328Y00118926D01*
X00167489Y00118838D01*
X00167680Y00118750D01*
X00167886Y00118662D01*
X00168106Y00118588D01*
X00168355Y00118515D01*
X00168605Y00118471D01*
X00168884Y00118442D01*
X00169177Y00118427D01*
X00165742D01*
X00172598D01*
X00169339D01*
X00169442Y00118442D01*
X00169589Y00118456D01*
X00169735Y00118486D01*
X00169912Y00118515D01*
X00170102Y00118559D01*
X00170308Y00118603D01*
X00170513Y00118677D01*
X00170719Y00118750D01*
X00170925Y00118853D01*
X00171130Y00118970D01*
X00171336Y00119102D01*
X00171527Y00119264D01*
X00171703Y00119440D01*
X00171717Y00119455D01*
X00171747Y00119484D01*
X00171791Y00119543D01*
X00171835Y00119631D01*
X00171908Y00119734D01*
X00171982Y00119851D01*
X00172070Y00119998D01*
X00172143Y00120159D01*
X00172231Y00120336D01*
X00172319Y00120541D01*
X00172393Y00120761D01*
X00172451Y00121011D01*
X00172510Y00121260D01*
X00172554Y00121539D01*
X00172584Y00121833D01*
X00172598Y00122141D01*
Y00122303D01*
X00172584Y00122406D01*
X00172569Y00122552D01*
X00172554Y00122714D01*
X00172525Y00122890D01*
X00172481Y00123081D01*
X00172363Y00123507D01*
X00172290Y00123727D01*
X00172202Y00123947D01*
X00172099Y00124167D01*
X00171967Y00124388D01*
X00171820Y00124593D01*
X00171659Y00124799D01*
X00171644Y00124813D01*
X00171615Y00124843D01*
X00171556Y00124887D01*
X00171483Y00124960D01*
X00171394Y00125034D01*
X00171277Y00125122D01*
X00171145Y00125224D01*
X00170998Y00125312D01*
X00170822Y00125415D01*
X00170646Y00125503D01*
X00170440Y00125591D01*
X00170220Y00125665D01*
X00169985Y00125738D01*
X00169721Y00125782D01*
X00169457Y00125812D01*
X00169177Y00125826D01*
D02*
G37*
G36*
X00156919Y00127764D02*
X00152221Y00127764D01*
Y00118618D01*
X00152250Y00118603D01*
X00152324Y00118588D01*
X00152456Y00118559D01*
X00152647Y00118530D01*
X00152881Y00118486D01*
X00153175Y00118456D01*
X00153498Y00118442D01*
X00153880Y00118427D01*
X00156919Y00118427D01*
X00153982Y00118427D01*
X00154056Y00118442D01*
X00154144D01*
X00154247Y00118456D01*
X00154482Y00118500D01*
X00154746Y00118574D01*
X00155025Y00118677D01*
X00155289Y00118823D01*
X00155524Y00119029D01*
X00155553Y00119058D01*
X00155612Y00119146D01*
X00155700Y00119278D01*
X00155803Y00119469D01*
X00155920Y00119704D01*
X00156009Y00119998D01*
X00156067Y00120350D01*
X00156097Y00120732D01*
Y00124358D01*
X00156919D01*
Y00125694D01*
Y00125694D01*
X00156097D01*
Y00127148D01*
X00154423Y00127764D01*
X00156919Y00127764D01*
D02*
G37*
G36*
X00142149Y00125826D02*
X00141988D01*
X00141885Y00125812D01*
X00141738Y00125797D01*
X00141592Y00125767D01*
X00141415Y00125738D01*
X00141224Y00125709D01*
X00140813Y00125577D01*
X00140608Y00125503D01*
X00140402Y00125400D01*
X00140182Y00125298D01*
X00139991Y00125151D01*
X00139800Y00125004D01*
X00139624Y00124828D01*
X00139610Y00124813D01*
X00139580Y00124784D01*
X00139536Y00124725D01*
X00139477Y00124652D01*
X00139419Y00124549D01*
X00139331Y00124431D01*
X00139257Y00124285D01*
X00139169Y00124123D01*
X00139081Y00123947D01*
X00139008Y00123742D01*
X00138920Y00123521D01*
X00138861Y00123286D01*
X00138802Y00123022D01*
X00138758Y00122743D01*
X00138729Y00122450D01*
X00138714Y00122141D01*
Y00121980D01*
X00138729Y00121862D01*
X00138743Y00121715D01*
X00138758Y00121554D01*
X00138787Y00121363D01*
X00138832Y00121158D01*
X00138934Y00120732D01*
X00139008Y00120512D01*
X00139110Y00120277D01*
X00139213Y00120056D01*
X00139331Y00119836D01*
X00139477Y00119616D01*
X00139639Y00119425D01*
X00139654Y00119411D01*
X00139683Y00119381D01*
X00139727Y00119337D01*
X00139800Y00119264D01*
X00139903Y00119190D01*
X00140006Y00119117D01*
X00140138Y00119014D01*
X00140300Y00118926D01*
X00140461Y00118838D01*
X00140652Y00118750D01*
X00140857Y00118662D01*
X00141078Y00118588D01*
X00141327Y00118515D01*
X00141577Y00118471D01*
X00141856Y00118442D01*
X00142149Y00118427D01*
X00138714D01*
D01*
X00145570D01*
X00142311D01*
X00142414Y00118442D01*
X00142561Y00118456D01*
X00142707Y00118486D01*
X00142884Y00118515D01*
X00143074Y00118559D01*
X00143280Y00118603D01*
X00143485Y00118677D01*
X00143691Y00118750D01*
X00143897Y00118853D01*
X00144102Y00118970D01*
X00144308Y00119102D01*
X00144498Y00119264D01*
X00144675Y00119440D01*
X00144689Y00119455D01*
X00144719Y00119484D01*
X00144763Y00119543D01*
X00144807Y00119631D01*
X00144880Y00119733D01*
X00144953Y00119851D01*
X00145042Y00119998D01*
X00145115Y00120159D01*
X00145203Y00120336D01*
X00145291Y00120541D01*
X00145365Y00120761D01*
X00145423Y00121011D01*
X00145482Y00121260D01*
X00145526Y00121539D01*
X00145555Y00121833D01*
X00145570Y00122141D01*
Y00122303D01*
X00145555Y00122406D01*
X00145541Y00122552D01*
X00145526Y00122714D01*
X00145497Y00122890D01*
X00145453Y00123081D01*
X00145335Y00123507D01*
X00145262Y00123727D01*
X00145174Y00123947D01*
X00145071Y00124167D01*
X00144939Y00124388D01*
X00144792Y00124593D01*
X00144630Y00124799D01*
X00144616Y00124813D01*
X00144586Y00124843D01*
X00144528Y00124887D01*
X00144454Y00124960D01*
X00144366Y00125034D01*
X00144249Y00125121D01*
X00144117Y00125224D01*
X00143970Y00125312D01*
X00143794Y00125415D01*
X00143617Y00125503D01*
X00143412Y00125591D01*
X00143192Y00125665D01*
X00142957Y00125738D01*
X00142693Y00125782D01*
X00142428Y00125812D01*
X00142149Y00125826D01*
D02*
G37*
G36*
X00131418Y00128763D02*
D01*
Y00120732D01*
Y00120717D01*
Y00120673D01*
Y00120614D01*
X00131403Y00120526D01*
X00131388Y00120424D01*
X00131373Y00120306D01*
X00131315Y00120042D01*
X00131227Y00119763D01*
X00131095Y00119513D01*
X00131006Y00119396D01*
X00130889Y00119293D01*
X00130772Y00119205D01*
X00130639Y00119146D01*
Y00119132D01*
X00130654Y00119117D01*
X00130713Y00119029D01*
X00130815Y00118926D01*
X00130948Y00118794D01*
X00131138Y00118662D01*
X00131359Y00118544D01*
X00131638Y00118456D01*
X00131799Y00118442D01*
X00131961Y00118427D01*
X00130639D01*
X00133091D01*
Y00128351D01*
X00131418Y00128763D01*
D02*
G37*
%LPD*%
G36*
X00311761Y00124402D02*
X00311879Y00124388D01*
X00311996Y00124358D01*
X00312143Y00124314D01*
X00312290Y00124255D01*
X00312451Y00124182D01*
X00312466Y00124167D01*
X00312525Y00124138D01*
X00312584Y00124094D01*
X00312672Y00124035D01*
X00312877Y00123874D01*
X00312965Y00123786D01*
X00313039Y00123683D01*
Y00118559D01*
X00310117D01*
Y00122949D01*
Y00122963D01*
Y00122978D01*
Y00123052D01*
X00310132Y00123184D01*
X00310176Y00123330D01*
X00310220Y00123492D01*
X00310293Y00123668D01*
X00310396Y00123844D01*
X00310543Y00124006D01*
X00310557Y00124021D01*
X00310616Y00124065D01*
X00310704Y00124138D01*
X00310836Y00124211D01*
X00310983Y00124285D01*
X00311174Y00124358D01*
X00311380Y00124402D01*
X00311614Y00124417D01*
X00311688D01*
X00311761Y00124402D01*
D02*
G37*
G36*
X00270727Y00121980D02*
X00270860D01*
X00271006Y00121950D01*
X00271168Y00121921D01*
X00271344Y00121892D01*
X00271520Y00121833D01*
X00271696Y00121760D01*
X00271873Y00121686D01*
X00272034Y00121569D01*
X00272181Y00121451D01*
X00272313Y00121305D01*
X00272401Y00121128D01*
X00272460Y00120937D01*
X00272489Y00120702D01*
Y00120688D01*
Y00120659D01*
X00272474Y00120614D01*
Y00120556D01*
X00272430Y00120394D01*
X00272357Y00120233D01*
X00272298Y00120130D01*
X00272225Y00120057D01*
X00272137Y00119969D01*
X00272034Y00119895D01*
X00271902Y00119836D01*
X00271755Y00119792D01*
X00271594Y00119763D01*
X00271403Y00119748D01*
X00271344D01*
X00271271Y00119763D01*
X00271168Y00119778D01*
X00271050Y00119792D01*
X00270933Y00119822D01*
X00270786Y00119866D01*
X00270654Y00119939D01*
X00270507Y00120013D01*
X00270375Y00120115D01*
X00270258Y00120233D01*
X00270140Y00120379D01*
X00270037Y00120541D01*
X00269964Y00120747D01*
X00269920Y00120967D01*
X00269905Y00121231D01*
Y00121906D01*
X00269920D01*
X00269979Y00121921D01*
X00270052Y00121936D01*
X00270140Y00121950D01*
X00270360Y00121980D01*
X00270463Y00121994D01*
X00270639D01*
X00270727Y00121980D01*
D02*
G37*
G36*
X00352296Y00118427D02*
X00348097D01*
X00350241Y00124593D01*
X00352296Y00118427D01*
D02*
G37*
G36*
X00231441Y00124417D02*
X00231529Y00124402D01*
X00231646Y00124388D01*
X00231778Y00124344D01*
X00231910Y00124299D01*
X00232057Y00124241D01*
X00232219Y00124153D01*
X00232365Y00124050D01*
X00232512Y00123918D01*
X00232659Y00123771D01*
X00232777Y00123595D01*
X00232894Y00123375D01*
X00232997Y00123140D01*
X00233070Y00122861D01*
X00229576D01*
Y00122875D01*
X00229591Y00122934D01*
X00229605Y00123007D01*
X00229620Y00123110D01*
X00229664Y00123228D01*
X00229708Y00123360D01*
X00229781Y00123507D01*
X00229855Y00123653D01*
X00229958Y00123800D01*
X00230075Y00123932D01*
X00230222Y00124065D01*
X00230383Y00124182D01*
X00230574Y00124285D01*
X00230780Y00124358D01*
X00231029Y00124417D01*
X00231308Y00124432D01*
X00231367D01*
X00231441Y00124417D01*
D02*
G37*
G36*
X00234876Y00118427D02*
X00231514D01*
X00231617Y00118442D01*
X00231763Y00118456D01*
X00231925Y00118471D01*
X00232101Y00118500D01*
X00232292Y00118544D01*
X00232703Y00118662D01*
X00232909Y00118735D01*
X00233129Y00118823D01*
X00233349Y00118941D01*
X00233555Y00119073D01*
X00233745Y00119220D01*
X00233936Y00119381D01*
X00233951Y00119396D01*
X00233980Y00119425D01*
X00234024Y00119484D01*
X00234083Y00119557D01*
X00234156Y00119660D01*
X00234230Y00119778D01*
X00234318Y00119910D01*
X00234406Y00120071D01*
X00234494Y00120247D01*
X00234582Y00120453D01*
X00234656Y00120673D01*
X00234729Y00120908D01*
X00234788Y00121158D01*
X00234832Y00121437D01*
X00234861Y00121730D01*
X00234876Y00122038D01*
Y00118427D01*
D02*
G37*
G36*
X00126367Y00124417D02*
X00126455Y00124402D01*
X00126573Y00124388D01*
X00126705Y00124343D01*
X00126837Y00124299D01*
X00126984Y00124241D01*
X00127145Y00124153D01*
X00127292Y00124050D01*
X00127439Y00123918D01*
X00127586Y00123771D01*
X00127703Y00123595D01*
X00127821Y00123375D01*
X00127923Y00123140D01*
X00127997Y00122861D01*
X00124503D01*
Y00122875D01*
X00124517Y00122934D01*
X00124532Y00123007D01*
X00124547Y00123110D01*
X00124591Y00123228D01*
X00124635Y00123360D01*
X00124708Y00123507D01*
X00124782Y00123653D01*
X00124884Y00123800D01*
X00125002Y00123932D01*
X00125149Y00124065D01*
X00125310Y00124182D01*
X00125501Y00124285D01*
X00125707Y00124358D01*
X00125956Y00124417D01*
X00126235Y00124431D01*
X00126294D01*
X00126367Y00124417D01*
D02*
G37*
G36*
X00129803Y00118427D02*
X00126440D01*
X00126543Y00118442D01*
X00126690Y00118456D01*
X00126852Y00118471D01*
X00127028Y00118500D01*
X00127219Y00118544D01*
X00127630Y00118662D01*
X00127835Y00118735D01*
X00128055Y00118823D01*
X00128276Y00118941D01*
X00128481Y00119073D01*
X00128672Y00119220D01*
X00128863Y00119381D01*
X00128878Y00119396D01*
X00128907Y00119425D01*
X00128951Y00119484D01*
X00129010Y00119557D01*
X00129083Y00119660D01*
X00129157Y00119778D01*
X00129245Y00119910D01*
X00129333Y00120071D01*
X00129421Y00120247D01*
X00129509Y00120453D01*
X00129582Y00120673D01*
X00129656Y00120908D01*
X00129714Y00121158D01*
X00129759Y00121437D01*
X00129788Y00121730D01*
X00129803Y00122038D01*
Y00118427D01*
D02*
G37*
G36*
X00306638Y00125694D02*
X00304964D01*
Y00125034D01*
X00304949Y00125048D01*
X00304935Y00125063D01*
X00304890Y00125107D01*
X00304832Y00125151D01*
X00304773Y00125224D01*
X00304685Y00125283D01*
X00304480Y00125430D01*
X00304215Y00125577D01*
X00303892Y00125709D01*
X00303525Y00125797D01*
X00303320Y00125812D01*
X00303114Y00125826D01*
X00306638D01*
Y00125694D01*
D02*
G37*
G36*
X00150943Y00125694D02*
X00149270D01*
Y00125034D01*
X00149255Y00125048D01*
X00149240Y00125063D01*
X00149196Y00125107D01*
X00149138Y00125151D01*
X00149079Y00125224D01*
X00148991Y00125283D01*
X00148785Y00125430D01*
X00148521Y00125577D01*
X00148198Y00125709D01*
X00147831Y00125797D01*
X00147626Y00125812D01*
X00147420Y00125826D01*
X00150943D01*
Y00125694D01*
D02*
G37*
G36*
X00121508D02*
X00119834D01*
Y00125034D01*
X00119819Y00125048D01*
X00119805Y00125063D01*
X00119761Y00125107D01*
X00119702Y00125151D01*
X00119643Y00125224D01*
X00119555Y00125283D01*
X00119349Y00125430D01*
X00119085Y00125577D01*
X00118762Y00125709D01*
X00118395Y00125797D01*
X00118190Y00125812D01*
X00117984Y00125826D01*
X00121508D01*
Y00125694D01*
D02*
G37*
G36*
X00239280Y00124417D02*
X00239368Y00124402D01*
X00239486Y00124388D01*
X00239618Y00124344D01*
X00239750Y00124299D01*
X00239897Y00124241D01*
X00240058Y00124153D01*
X00240205Y00124050D01*
X00240352Y00123918D01*
X00240499Y00123771D01*
X00240616Y00123595D01*
X00240734Y00123375D01*
X00240836Y00123140D01*
X00240910Y00122861D01*
X00237416D01*
Y00122875D01*
X00237430Y00122934D01*
X00237445Y00123007D01*
X00237460Y00123110D01*
X00237504Y00123228D01*
X00237548Y00123360D01*
X00237621Y00123507D01*
X00237695Y00123653D01*
X00237797Y00123800D01*
X00237915Y00123932D01*
X00238062Y00124065D01*
X00238223Y00124182D01*
X00238414Y00124285D01*
X00238620Y00124358D01*
X00238869Y00124417D01*
X00239148Y00124432D01*
X00239207D01*
X00239280Y00124417D01*
D02*
G37*
G36*
X00266896Y00118427D02*
X00264884D01*
X00265046Y00118442D01*
X00265222Y00118456D01*
X00265413Y00118471D01*
X00265604Y00118500D01*
X00265780Y00118544D01*
X00265795D01*
X00265853Y00118574D01*
X00265956Y00118603D01*
X00266073Y00118647D01*
X00266235Y00118706D01*
X00266411Y00118779D01*
X00266631Y00118882D01*
X00266866Y00119014D01*
X00266279Y00120350D01*
X00266264D01*
X00266250Y00120321D01*
X00266206Y00120292D01*
X00266147Y00120262D01*
X00266000Y00120159D01*
X00265795Y00120057D01*
X00265545Y00119939D01*
X00265251Y00119836D01*
X00264943Y00119778D01*
X00264605Y00119748D01*
X00264517D01*
X00264444Y00119763D01*
X00264297Y00119792D01*
X00264106Y00119836D01*
X00263930Y00119924D01*
X00263769Y00120042D01*
X00263710Y00120115D01*
X00263666Y00120218D01*
X00263636Y00120321D01*
X00263622Y00120438D01*
Y00120453D01*
Y00120512D01*
X00263636Y00120585D01*
X00263651Y00120673D01*
X00263695Y00120776D01*
X00263739Y00120879D01*
X00263813Y00120996D01*
X00263915Y00121099D01*
X00263930Y00121114D01*
X00263974Y00121143D01*
X00264047Y00121202D01*
X00264165Y00121275D01*
X00264326Y00121363D01*
X00264517Y00121466D01*
X00264767Y00121583D01*
X00265060Y00121715D01*
X00265075Y00121730D01*
X00265134Y00121745D01*
X00265237Y00121789D01*
X00265339Y00121862D01*
X00265486Y00121936D01*
X00265648Y00122024D01*
X00265809Y00122141D01*
X00265971Y00122273D01*
X00266147Y00122420D01*
X00266308Y00122582D01*
X00266470Y00122758D01*
X00266602Y00122949D01*
X00266719Y00123154D01*
X00266822Y00123375D01*
X00266881Y00123609D01*
X00266896Y00123859D01*
Y00118427D01*
D02*
G37*
G36*
X00190950D02*
X00188938D01*
X00189100Y00118442D01*
X00189276Y00118456D01*
X00189467Y00118471D01*
X00189658Y00118500D01*
X00189834Y00118544D01*
X00189849D01*
X00189907Y00118574D01*
X00190010Y00118603D01*
X00190128Y00118647D01*
X00190289Y00118706D01*
X00190465Y00118779D01*
X00190686Y00118882D01*
X00190920Y00119014D01*
X00190333Y00120350D01*
X00190318D01*
X00190304Y00120321D01*
X00190260Y00120292D01*
X00190201Y00120262D01*
X00190054Y00120159D01*
X00189849Y00120057D01*
X00189599Y00119939D01*
X00189305Y00119836D01*
X00188997Y00119778D01*
X00188659Y00119748D01*
X00188571D01*
X00188498Y00119763D01*
X00188351Y00119792D01*
X00188160Y00119836D01*
X00187984Y00119924D01*
X00187823Y00120042D01*
X00187764Y00120115D01*
X00187720Y00120218D01*
X00187691Y00120321D01*
X00187676Y00120438D01*
Y00120453D01*
Y00120512D01*
X00187691Y00120585D01*
X00187705Y00120673D01*
X00187749Y00120776D01*
X00187793Y00120879D01*
X00187867Y00120996D01*
X00187969Y00121099D01*
X00187984Y00121114D01*
X00188028Y00121143D01*
X00188102Y00121202D01*
X00188219Y00121275D01*
X00188381Y00121363D01*
X00188571Y00121466D01*
X00188821Y00121583D01*
X00189115Y00121715D01*
X00189129Y00121730D01*
X00189188Y00121745D01*
X00189291Y00121789D01*
X00189394Y00121862D01*
X00189540Y00121936D01*
X00189702Y00122024D01*
X00189863Y00122141D01*
X00190025Y00122273D01*
X00190201Y00122420D01*
X00190362Y00122582D01*
X00190524Y00122758D01*
X00190656Y00122949D01*
X00190774Y00123154D01*
X00190876Y00123375D01*
X00190935Y00123609D01*
X00190950Y00123859D01*
Y00118427D01*
D02*
G37*
G36*
X00169310Y00124446D02*
X00169442Y00124432D01*
X00169618Y00124388D01*
X00169823Y00124314D01*
X00170029Y00124197D01*
X00170220Y00124050D01*
X00170411Y00123844D01*
X00170425Y00123815D01*
X00170484Y00123727D01*
X00170557Y00123595D01*
X00170631Y00123404D01*
X00170719Y00123154D01*
X00170792Y00122861D01*
X00170851Y00122523D01*
X00170866Y00122141D01*
Y00122112D01*
Y00122038D01*
X00170851Y00121921D01*
X00170837Y00121774D01*
X00170807Y00121598D01*
X00170778Y00121392D01*
X00170719Y00121187D01*
X00170660Y00120967D01*
X00170572Y00120747D01*
X00170455Y00120541D01*
X00170323Y00120336D01*
X00170147Y00120159D01*
X00169956Y00120013D01*
X00169735Y00119895D01*
X00169471Y00119822D01*
X00169177Y00119792D01*
X00169104D01*
X00169045Y00119807D01*
X00168913Y00119822D01*
X00168737Y00119866D01*
X00168531Y00119939D01*
X00168326Y00120042D01*
X00168120Y00120189D01*
X00167944Y00120394D01*
X00167930Y00120424D01*
X00167871Y00120512D01*
X00167798Y00120644D01*
X00167709Y00120849D01*
X00167621Y00121099D01*
X00167548Y00121392D01*
X00167489Y00121745D01*
X00167474Y00122141D01*
Y00122171D01*
Y00122244D01*
X00167489Y00122361D01*
X00167504Y00122508D01*
X00167533Y00122684D01*
X00167563Y00122875D01*
X00167621Y00123081D01*
X00167680Y00123301D01*
X00167783Y00123521D01*
X00167886Y00123727D01*
X00168032Y00123918D01*
X00168194Y00124094D01*
X00168385Y00124241D01*
X00168620Y00124358D01*
X00168884Y00124432D01*
X00169177Y00124461D01*
X00169251D01*
X00169310Y00124446D01*
D02*
G37*
G36*
X00154423Y00125694D02*
X00152456D01*
Y00124358D01*
X00154423D01*
Y00121231D01*
Y00121216D01*
Y00121202D01*
Y00121114D01*
X00154408Y00120967D01*
X00154394Y00120805D01*
X00154364Y00120629D01*
X00154320Y00120453D01*
X00154261Y00120291D01*
X00154188Y00120145D01*
X00154173Y00120130D01*
X00154144Y00120101D01*
X00154085Y00120042D01*
X00153997Y00119998D01*
X00153880Y00119939D01*
X00153733Y00119880D01*
X00153557Y00119851D01*
X00153351Y00119836D01*
X00153248D01*
X00153131Y00119851D01*
X00152984Y00119880D01*
X00152808Y00119910D01*
X00152617Y00119968D01*
X00152426Y00120056D01*
X00152221Y00120159D01*
Y00127764D01*
X00154423D01*
Y00125694D01*
D02*
G37*
G36*
X00142282Y00124446D02*
X00142414Y00124431D01*
X00142590Y00124388D01*
X00142795Y00124314D01*
X00143001Y00124197D01*
X00143192Y00124050D01*
X00143383Y00123844D01*
X00143397Y00123815D01*
X00143456Y00123727D01*
X00143530Y00123595D01*
X00143603Y00123404D01*
X00143691Y00123154D01*
X00143764Y00122861D01*
X00143823Y00122523D01*
X00143838Y00122141D01*
Y00122112D01*
Y00122038D01*
X00143823Y00121921D01*
X00143808Y00121774D01*
X00143779Y00121598D01*
X00143750Y00121392D01*
X00143691Y00121187D01*
X00143632Y00120967D01*
X00143544Y00120746D01*
X00143427Y00120541D01*
X00143295Y00120336D01*
X00143118Y00120159D01*
X00142928Y00120013D01*
X00142707Y00119895D01*
X00142443Y00119822D01*
X00142149Y00119792D01*
X00142076D01*
X00142017Y00119807D01*
X00141885Y00119822D01*
X00141709Y00119866D01*
X00141503Y00119939D01*
X00141298Y00120042D01*
X00141092Y00120189D01*
X00140916Y00120394D01*
X00140901Y00120424D01*
X00140843Y00120512D01*
X00140769Y00120644D01*
X00140681Y00120849D01*
X00140593Y00121099D01*
X00140520Y00121392D01*
X00140461Y00121745D01*
X00140446Y00122141D01*
Y00122171D01*
Y00122244D01*
X00140461Y00122361D01*
X00140476Y00122508D01*
X00140505Y00122684D01*
X00140534Y00122875D01*
X00140593Y00123081D01*
X00140652Y00123301D01*
X00140755Y00123521D01*
X00140857Y00123727D01*
X00141004Y00123918D01*
X00141166Y00124094D01*
X00141357Y00124241D01*
X00141592Y00124358D01*
X00141856Y00124431D01*
X00142149Y00124461D01*
X00142223D01*
X00142282Y00124446D01*
D02*
G37*
G36*
X00133091Y00118427D02*
X00132005D01*
X00132063Y00118442D01*
X00132137Y00118456D01*
X00132313Y00118515D01*
X00132416Y00118559D01*
X00132519Y00118618D01*
X00132636Y00118706D01*
X00132739Y00118809D01*
X00132827Y00118941D01*
X00132915Y00119088D01*
X00132988Y00119264D01*
X00133047Y00119484D01*
X00133076Y00119719D01*
X00133091Y00119998D01*
Y00118427D01*
D02*
G37*
D64*
X00099056Y00100897D02*
X00373980D01*
X00099056D02*
Y00131386D01*
X00373980D01*
Y00100897D02*
Y00131386D01*
M02*
