G04*
G04 #@! TF.GenerationSoftware,Altium Limited,Altium Designer,20.1.8 (145)*
G04*
G04 Layer_Color=32768*
%FSAX44Y44*%
%MOMM*%
G71*
G04*
G04 #@! TF.SameCoordinates,038E23F0-B42B-4C45-894E-EE78EB3E0CC3*
G04*
G04*
G04 #@! TF.FilePolarity,Negative*
G04*
G01*
G75*
%ADD35R,0.9000X1.3000*%
G04:AMPARAMS|DCode=36|XSize=0.45mm|YSize=0.7mm|CornerRadius=0.0518mm|HoleSize=0mm|Usage=FLASHONLY|Rotation=90.000|XOffset=0mm|YOffset=0mm|HoleType=Round|Shape=RoundedRectangle|*
%AMROUNDEDRECTD36*
21,1,0.4500,0.5965,0,0,90.0*
21,1,0.3465,0.7000,0,0,90.0*
1,1,0.1035,0.2983,0.1733*
1,1,0.1035,0.2983,-0.1733*
1,1,0.1035,-0.2983,-0.1733*
1,1,0.1035,-0.2983,0.1733*
%
%ADD36ROUNDEDRECTD36*%
G04:AMPARAMS|DCode=37|XSize=0.95mm|YSize=0.7mm|CornerRadius=0.053mm|HoleSize=0mm|Usage=FLASHONLY|Rotation=90.000|XOffset=0mm|YOffset=0mm|HoleType=Round|Shape=RoundedRectangle|*
%AMROUNDEDRECTD37*
21,1,0.9500,0.5940,0,0,90.0*
21,1,0.8440,0.7000,0,0,90.0*
1,1,0.1060,0.2970,0.4220*
1,1,0.1060,0.2970,-0.4220*
1,1,0.1060,-0.2970,-0.4220*
1,1,0.1060,-0.2970,0.4220*
%
%ADD37ROUNDEDRECTD37*%
G04:AMPARAMS|DCode=38|XSize=0.65mm|YSize=0.9mm|CornerRadius=0.0527mm|HoleSize=0mm|Usage=FLASHONLY|Rotation=180.000|XOffset=0mm|YOffset=0mm|HoleType=Round|Shape=RoundedRectangle|*
%AMROUNDEDRECTD38*
21,1,0.6500,0.7945,0,0,180.0*
21,1,0.5445,0.9000,0,0,180.0*
1,1,0.1055,-0.2723,0.3973*
1,1,0.1055,0.2723,0.3973*
1,1,0.1055,0.2723,-0.3973*
1,1,0.1055,-0.2723,-0.3973*
%
%ADD38ROUNDEDRECTD38*%
G04:AMPARAMS|DCode=39|XSize=1.05mm|YSize=2.75mm|CornerRadius=0.0547mm|HoleSize=0mm|Usage=FLASHONLY|Rotation=90.000|XOffset=0mm|YOffset=0mm|HoleType=Round|Shape=RoundedRectangle|*
%AMROUNDEDRECTD39*
21,1,1.0500,2.6405,0,0,90.0*
21,1,0.9405,2.7500,0,0,90.0*
1,1,0.1095,1.3203,0.4703*
1,1,0.1095,1.3203,-0.4703*
1,1,0.1095,-1.3203,-0.4703*
1,1,0.1095,-1.3203,0.4703*
%
%ADD39ROUNDEDRECTD39*%
G04:AMPARAMS|DCode=40|XSize=5.65mm|YSize=6.9mm|CornerRadius=0.0778mm|HoleSize=0mm|Usage=FLASHONLY|Rotation=90.000|XOffset=0mm|YOffset=0mm|HoleType=Round|Shape=RoundedRectangle|*
%AMROUNDEDRECTD40*
21,1,5.6500,6.7445,0,0,90.0*
21,1,5.4945,6.9000,0,0,90.0*
1,1,0.1555,3.3723,2.7473*
1,1,0.1555,3.3723,-2.7473*
1,1,0.1555,-3.3723,-2.7473*
1,1,0.1555,-3.3723,2.7473*
%
%ADD40ROUNDEDRECTD40*%
%ADD41O,0.4500X1.2500*%
G04:AMPARAMS|DCode=42|XSize=0.85mm|YSize=0.65mm|CornerRadius=0.0527mm|HoleSize=0mm|Usage=FLASHONLY|Rotation=180.000|XOffset=0mm|YOffset=0mm|HoleType=Round|Shape=RoundedRectangle|*
%AMROUNDEDRECTD42*
21,1,0.8500,0.5445,0,0,180.0*
21,1,0.7445,0.6500,0,0,180.0*
1,1,0.1055,-0.3723,0.2723*
1,1,0.1055,0.3723,0.2723*
1,1,0.1055,0.3723,-0.2723*
1,1,0.1055,-0.3723,-0.2723*
%
%ADD42ROUNDEDRECTD42*%
G04:AMPARAMS|DCode=43|XSize=2.65mm|YSize=1.3mm|CornerRadius=0.056mm|HoleSize=0mm|Usage=FLASHONLY|Rotation=90.000|XOffset=0mm|YOffset=0mm|HoleType=Round|Shape=RoundedRectangle|*
%AMROUNDEDRECTD43*
21,1,2.6500,1.1880,0,0,90.0*
21,1,2.5380,1.3000,0,0,90.0*
1,1,0.1120,0.5940,1.2690*
1,1,0.1120,0.5940,-1.2690*
1,1,0.1120,-0.5940,-1.2690*
1,1,0.1120,-0.5940,1.2690*
%
%ADD43ROUNDEDRECTD43*%
G04:AMPARAMS|DCode=44|XSize=2.65mm|YSize=1.3mm|CornerRadius=0.056mm|HoleSize=0mm|Usage=FLASHONLY|Rotation=0.000|XOffset=0mm|YOffset=0mm|HoleType=Round|Shape=RoundedRectangle|*
%AMROUNDEDRECTD44*
21,1,2.6500,1.1880,0,0,0.0*
21,1,2.5380,1.3000,0,0,0.0*
1,1,0.1120,1.2690,-0.5940*
1,1,0.1120,-1.2690,-0.5940*
1,1,0.1120,-1.2690,0.5940*
1,1,0.1120,1.2690,0.5940*
%
%ADD44ROUNDEDRECTD44*%
G04:AMPARAMS|DCode=45|XSize=1.2mm|YSize=2.4mm|CornerRadius=0.0555mm|HoleSize=0mm|Usage=FLASHONLY|Rotation=270.000|XOffset=0mm|YOffset=0mm|HoleType=Round|Shape=RoundedRectangle|*
%AMROUNDEDRECTD45*
21,1,1.2000,2.2890,0,0,270.0*
21,1,1.0890,2.4000,0,0,270.0*
1,1,0.1110,-1.1445,-0.5445*
1,1,0.1110,-1.1445,0.5445*
1,1,0.1110,1.1445,0.5445*
1,1,0.1110,1.1445,-0.5445*
%
%ADD45ROUNDEDRECTD45*%
G04:AMPARAMS|DCode=46|XSize=1.2mm|YSize=2.4mm|CornerRadius=0.0555mm|HoleSize=0mm|Usage=FLASHONLY|Rotation=0.000|XOffset=0mm|YOffset=0mm|HoleType=Round|Shape=RoundedRectangle|*
%AMROUNDEDRECTD46*
21,1,1.2000,2.2890,0,0,0.0*
21,1,1.0890,2.4000,0,0,0.0*
1,1,0.1110,0.5445,-1.1445*
1,1,0.1110,-0.5445,-1.1445*
1,1,0.1110,-0.5445,1.1445*
1,1,0.1110,0.5445,1.1445*
%
%ADD46ROUNDEDRECTD46*%
G04:AMPARAMS|DCode=47|XSize=0.85mm|YSize=0.65mm|CornerRadius=0.0527mm|HoleSize=0mm|Usage=FLASHONLY|Rotation=90.000|XOffset=0mm|YOffset=0mm|HoleType=Round|Shape=RoundedRectangle|*
%AMROUNDEDRECTD47*
21,1,0.8500,0.5445,0,0,90.0*
21,1,0.7445,0.6500,0,0,90.0*
1,1,0.1055,0.2723,0.3723*
1,1,0.1055,0.2723,-0.3723*
1,1,0.1055,-0.2723,-0.3723*
1,1,0.1055,-0.2723,0.3723*
%
%ADD47ROUNDEDRECTD47*%
G04:AMPARAMS|DCode=48|XSize=0.64mm|YSize=0.85mm|CornerRadius=0.0527mm|HoleSize=0mm|Usage=FLASHONLY|Rotation=0.000|XOffset=0mm|YOffset=0mm|HoleType=Round|Shape=RoundedRectangle|*
%AMROUNDEDRECTD48*
21,1,0.6400,0.7446,0,0,0.0*
21,1,0.5346,0.8500,0,0,0.0*
1,1,0.1054,0.2673,-0.3723*
1,1,0.1054,-0.2673,-0.3723*
1,1,0.1054,-0.2673,0.3723*
1,1,0.1054,0.2673,0.3723*
%
%ADD48ROUNDEDRECTD48*%
G04:AMPARAMS|DCode=49|XSize=1.5mm|YSize=1.15mm|CornerRadius=0.0553mm|HoleSize=0mm|Usage=FLASHONLY|Rotation=90.000|XOffset=0mm|YOffset=0mm|HoleType=Round|Shape=RoundedRectangle|*
%AMROUNDEDRECTD49*
21,1,1.5000,1.0395,0,0,90.0*
21,1,1.3895,1.1500,0,0,90.0*
1,1,0.1105,0.5198,0.6948*
1,1,0.1105,0.5198,-0.6948*
1,1,0.1105,-0.5198,-0.6948*
1,1,0.1105,-0.5198,0.6948*
%
%ADD49ROUNDEDRECTD49*%
G04:AMPARAMS|DCode=50|XSize=1.95mm|YSize=1.1mm|CornerRadius=0.055mm|HoleSize=0mm|Usage=FLASHONLY|Rotation=180.000|XOffset=0mm|YOffset=0mm|HoleType=Round|Shape=RoundedRectangle|*
%AMROUNDEDRECTD50*
21,1,1.9500,0.9900,0,0,180.0*
21,1,1.8400,1.1000,0,0,180.0*
1,1,0.1100,-0.9200,0.4950*
1,1,0.1100,0.9200,0.4950*
1,1,0.1100,0.9200,-0.4950*
1,1,0.1100,-0.9200,-0.4950*
%
%ADD50ROUNDEDRECTD50*%
G04:AMPARAMS|DCode=51|XSize=4.1mm|YSize=2.3mm|CornerRadius=0.27mm|HoleSize=0mm|Usage=FLASHONLY|Rotation=90.000|XOffset=0mm|YOffset=0mm|HoleType=Round|Shape=RoundedRectangle|*
%AMROUNDEDRECTD51*
21,1,4.1000,1.7600,0,0,90.0*
21,1,3.5600,2.3000,0,0,90.0*
1,1,0.5400,0.8800,1.7800*
1,1,0.5400,0.8800,-1.7800*
1,1,0.5400,-0.8800,-1.7800*
1,1,0.5400,-0.8800,1.7800*
%
%ADD51ROUNDEDRECTD51*%
%ADD52C,1.5000*%
G04:AMPARAMS|DCode=53|XSize=1.5mm|YSize=1.5mm|CornerRadius=0.15mm|HoleSize=0mm|Usage=FLASHONLY|Rotation=180.000|XOffset=0mm|YOffset=0mm|HoleType=Round|Shape=RoundedRectangle|*
%AMROUNDEDRECTD53*
21,1,1.5000,1.2000,0,0,180.0*
21,1,1.2000,1.5000,0,0,180.0*
1,1,0.3000,-0.6000,0.6000*
1,1,0.3000,0.6000,0.6000*
1,1,0.3000,0.6000,-0.6000*
1,1,0.3000,-0.6000,-0.6000*
%
%ADD53ROUNDEDRECTD53*%
G04:AMPARAMS|DCode=54|XSize=1.7mm|YSize=2.1mm|CornerRadius=0.21mm|HoleSize=0mm|Usage=FLASHONLY|Rotation=0.000|XOffset=0mm|YOffset=0mm|HoleType=Round|Shape=RoundedRectangle|*
%AMROUNDEDRECTD54*
21,1,1.7000,1.6800,0,0,0.0*
21,1,1.2800,2.1000,0,0,0.0*
1,1,0.4200,0.6400,-0.8400*
1,1,0.4200,-0.6400,-0.8400*
1,1,0.4200,-0.6400,0.8400*
1,1,0.4200,0.6400,0.8400*
%
%ADD54ROUNDEDRECTD54*%
%ADD55C,1.9000*%
%ADD56O,3.6000X2.0000*%
%ADD57C,0.8000*%
%ADD58C,3.5000*%
G04:AMPARAMS|DCode=59|XSize=1.4mm|YSize=2.1mm|CornerRadius=0.7mm|HoleSize=0mm|Usage=FLASHONLY|Rotation=0.000|XOffset=0mm|YOffset=0mm|HoleType=Round|Shape=RoundedRectangle|*
%AMROUNDEDRECTD59*
21,1,1.4000,0.7000,0,0,0.0*
21,1,0.0000,2.1000,0,0,0.0*
1,1,1.4000,0.0000,-0.3500*
1,1,1.4000,0.0000,-0.3500*
1,1,1.4000,0.0000,0.3500*
1,1,1.4000,0.0000,0.3500*
%
%ADD59ROUNDEDRECTD59*%
G04:AMPARAMS|DCode=60|XSize=2.1mm|YSize=2.1mm|CornerRadius=0.55mm|HoleSize=0mm|Usage=FLASHONLY|Rotation=0.000|XOffset=0mm|YOffset=0mm|HoleType=Round|Shape=RoundedRectangle|*
%AMROUNDEDRECTD60*
21,1,2.1000,1.0000,0,0,0.0*
21,1,1.0000,2.1000,0,0,0.0*
1,1,1.1000,0.5000,-0.5000*
1,1,1.1000,-0.5000,-0.5000*
1,1,1.1000,-0.5000,0.5000*
1,1,1.1000,0.5000,0.5000*
%
%ADD60ROUNDEDRECTD60*%
D35*
X00326214Y00275318D02*
D03*
X00341214D02*
D03*
Y00304318D02*
D03*
X00326214D02*
D03*
D36*
X00200640Y00053206D02*
D03*
Y00040206D02*
D03*
X00181140D02*
D03*
X00181140Y00046706D02*
D03*
X00181140Y00053206D02*
D03*
D37*
X00172656Y00066459D02*
D03*
X00187156D02*
D03*
X00120329Y00310726D02*
D03*
X00134829D02*
D03*
X00144614Y00299240D02*
D03*
X00159114D02*
D03*
X00372964Y00249464D02*
D03*
X00358464D02*
D03*
D38*
X00175006Y00186055D02*
D03*
X00194006D02*
D03*
X00184506Y00208055D02*
D03*
D39*
X00064728Y00097717D02*
D03*
Y00051916D02*
D03*
Y00239753D02*
D03*
Y00193953D02*
D03*
Y00122681D02*
D03*
Y00168481D02*
D03*
D40*
X00125728Y00074816D02*
D03*
Y00216854D02*
D03*
Y00145581D02*
D03*
D41*
X00175656Y00080664D02*
D03*
X00182156D02*
D03*
X00188656D02*
D03*
X00195156D02*
D03*
X00175656Y00123164D02*
D03*
X00182156D02*
D03*
X00188656D02*
D03*
X00195156D02*
D03*
D42*
X00174244Y00150261D02*
D03*
Y00135761D02*
D03*
X00122801Y00272328D02*
D03*
Y00286828D02*
D03*
X00185581Y00232884D02*
D03*
Y00218384D02*
D03*
X00174079D02*
D03*
Y00232884D02*
D03*
X00197084Y00218384D02*
D03*
Y00232884D02*
D03*
D43*
X00012166Y00238890D02*
D03*
X00040166D02*
D03*
D44*
X00099984Y00288276D02*
D03*
Y00260276D02*
D03*
X00269271Y00277144D02*
D03*
Y00305144D02*
D03*
X00070521Y00288276D02*
D03*
Y00260276D02*
D03*
X00298773Y00277144D02*
D03*
Y00305144D02*
D03*
D45*
X00372152Y00085666D02*
D03*
Y00205300D02*
D03*
X00217942Y00225620D02*
D03*
X00372152Y00105478D02*
D03*
Y00125544D02*
D03*
Y00145356D02*
D03*
Y00165676D02*
D03*
Y00185488D02*
D03*
Y00225366D02*
D03*
X00217942Y00205554D02*
D03*
Y00185742D02*
D03*
X00218196Y00165676D02*
D03*
Y00145610D02*
D03*
Y00125798D02*
D03*
Y00105478D02*
D03*
Y00085666D02*
D03*
D46*
X00345212Y00245194D02*
D03*
X00325400D02*
D03*
X00305588D02*
D03*
X00285268D02*
D03*
X00265456D02*
D03*
X00245136D02*
D03*
D47*
X00358464Y00284661D02*
D03*
X00372964D02*
D03*
Y00296244D02*
D03*
X00358464D02*
D03*
Y00307746D02*
D03*
X00372964D02*
D03*
X00358464Y00273158D02*
D03*
X00372964D02*
D03*
Y00261656D02*
D03*
X00358464D02*
D03*
X00134829Y00298206D02*
D03*
X00120329D02*
D03*
X00185282Y00171958D02*
D03*
X00199782D02*
D03*
X00185282Y00160274D02*
D03*
X00199782D02*
D03*
X00159114Y00311404D02*
D03*
X00144614D02*
D03*
X00185300Y00148737D02*
D03*
X00199800D02*
D03*
X00185300Y00137174D02*
D03*
X00199800D02*
D03*
D48*
X00155768Y00285776D02*
D03*
X00146268D02*
D03*
X00136768D02*
D03*
X00155768Y00260276D02*
D03*
X00146268D02*
D03*
X00136768D02*
D03*
D49*
X00408134Y00256000D02*
D03*
X00422634D02*
D03*
Y00220000D02*
D03*
X00408134D02*
D03*
D50*
X00178504Y00244840D02*
D03*
Y00286840D02*
D03*
D51*
X00241527Y00286128D02*
D03*
X00206527D02*
D03*
D52*
X00399666Y00111232D02*
D03*
Y00085832D02*
D03*
Y00060432D02*
D03*
X00425066D02*
D03*
Y00111232D02*
D03*
D53*
Y00085832D02*
D03*
D54*
X00099727Y00019020D02*
D03*
D55*
X00070592D02*
D03*
D56*
X00023250Y00195502D02*
D03*
Y00134504D02*
D03*
X00416750Y00195502D02*
D03*
Y00134504D02*
D03*
D57*
X00424384Y00238000D02*
D03*
X00406384D02*
D03*
D58*
X00410000Y00290000D02*
D03*
Y00030000D02*
D03*
X00030000D02*
D03*
Y00290000D02*
D03*
D59*
X00200640Y00017750D02*
D03*
X00180524D02*
D03*
D60*
X00157968D02*
D03*
X00132060Y00018004D02*
D03*
M02*
